<?xml version="1.0" encoding="UTF-8" standalone="no"?>
<!DOCTYPE svg PUBLIC "-//W3C//DTD SVG 1.1//EN"
 "http://www.w3.org/Graphics/SVG/1.1/DTD/svg11.dtd">
<!-- Generated by graphviz version 2.40.1 (20161225.0304)
 -->
<!-- Title: /home/travis/build/AliceO2Group/AliceO2/Framework/Core/src/InputSpec.cxx Pages: 1 -->
<svg width="2882pt" height="419pt"
 viewBox="0.00 0.00 2881.50 419.00" xmlns="http://www.w3.org/2000/svg" xmlns:xlink="http://www.w3.org/1999/xlink">
<g id="graph0" class="graph" transform="scale(1 1) rotate(0) translate(4 415)">
<title>/home/travis/build/AliceO2Group/AliceO2/Framework/Core/src/InputSpec.cxx</title>
<!-- Node0 -->
<g id="node1" class="node">
<title>Node0</title>
<polygon fill="#bfbfbf" stroke="#000000" points="1064,-369.5 1064,-410.5 1252,-410.5 1252,-369.5 1064,-369.5"/>
<text text-anchor="start" x="1072" y="-398.5" font-family="Helvetica,sans-Serif" font-size="10.00" fill="#000000">/home/travis/build</text>
<text text-anchor="start" x="1072" y="-387.5" font-family="Helvetica,sans-Serif" font-size="10.00" fill="#000000">/AliceO2Group/AliceO2</text>
<text text-anchor="middle" x="1158" y="-376.5" font-family="Helvetica,sans-Serif" font-size="10.00" fill="#000000">/Framework/Core/src/InputSpec.cxx</text>
</g>
<!-- Node1 -->
<g id="node2" class="node">
<title>Node1</title>
<g id="a_node2"><a xlink:href="../../d5/d3f/InputSpec_8h.html" target="_top" xlink:title="Framework/InputSpec.h">
<polygon fill="none" stroke="#000000" points="1022.5,-257.5 1022.5,-276.5 1153.5,-276.5 1153.5,-257.5 1022.5,-257.5"/>
<text text-anchor="middle" x="1088" y="-264.5" font-family="Helvetica,sans-Serif" font-size="10.00" fill="#000000">Framework/InputSpec.h</text>
</a>
</g>
</g>
<!-- Node0&#45;&gt;Node1 -->
<g id="edge1" class="edge">
<title>Node0&#45;&gt;Node1</title>
<path fill="none" stroke="#191970" d="M1146.2836,-369.4126C1132.9256,-345.9408 1111.2867,-307.918 1098.4712,-285.3993"/>
<polygon fill="#191970" stroke="#191970" points="1101.4049,-283.4781 1093.4168,-276.5182 1095.3212,-286.9405 1101.4049,-283.4781"/>
</g>
<!-- Node28 -->
<g id="node29" class="node">
<title>Node28</title>
<polygon fill="none" stroke="#bfbfbf" points="164.5,-6 164.5,-25 211.5,-25 211.5,-6 164.5,-6"/>
<text text-anchor="middle" x="188" y="-13" font-family="Helvetica,sans-Serif" font-size="10.00" fill="#000000">vector</text>
</g>
<!-- Node0&#45;&gt;Node28 -->
<g id="edge81" class="edge">
<title>Node0&#45;&gt;Node28</title>
<path fill="none" stroke="#191970" d="M1063.6811,-388.5632C808.9199,-383.4381 126,-360.9388 126,-267 126,-267 126,-267 126,-205.5 126,-139.78 159.9391,-67.3013 177.5964,-34.0405"/>
<polygon fill="#191970" stroke="#191970" points="180.7948,-35.4852 182.4979,-25.0281 174.6454,-32.1407 180.7948,-35.4852"/>
</g>
<!-- Node36 -->
<g id="node37" class="node">
<title>Node36</title>
<polygon fill="none" stroke="#bfbfbf" points="1200.5,-129 1200.5,-148 1251.5,-148 1251.5,-129 1200.5,-129"/>
<text text-anchor="middle" x="1226" y="-136" font-family="Helvetica,sans-Serif" font-size="10.00" fill="#000000">variant</text>
</g>
<!-- Node0&#45;&gt;Node36 -->
<g id="edge80" class="edge">
<title>Node0&#45;&gt;Node36</title>
<path fill="none" stroke="#191970" d="M1160.7585,-369.4055C1166.0467,-332.6473 1179.0733,-253.6302 1201,-190 1204.8932,-178.7022 1210.644,-166.6566 1215.6488,-157.0578"/>
<polygon fill="#191970" stroke="#191970" points="1218.8265,-158.5386 1220.4851,-148.0744 1212.6629,-155.2204 1218.8265,-158.5386"/>
</g>
<!-- Node44 -->
<g id="node45" class="node">
<title>Node44</title>
<g id="a_node45"><a xlink:href="../../d6/d68/DataSpecUtils_8h.html" target="_top" xlink:title="Framework/DataSpecUtils.h">
<polygon fill="none" stroke="#000000" points="1235,-313.5 1235,-332.5 1387,-332.5 1387,-313.5 1235,-313.5"/>
<text text-anchor="middle" x="1311" y="-320.5" font-family="Helvetica,sans-Serif" font-size="10.00" fill="#000000">Framework/DataSpecUtils.h</text>
</a>
</g>
</g>
<!-- Node0&#45;&gt;Node44 -->
<g id="edge67" class="edge">
<title>Node0&#45;&gt;Node44</title>
<path fill="none" stroke="#191970" d="M1205.1535,-369.3511C1229.3665,-358.748 1258.2026,-346.1204 1279.6576,-336.7251"/>
<polygon fill="#191970" stroke="#191970" points="1281.1966,-339.8721 1288.9528,-332.6546 1278.3887,-333.46 1281.1966,-339.8721"/>
</g>
<!-- Node2 -->
<g id="node3" class="node">
<title>Node2</title>
<g id="a_node3"><a xlink:href="../../dc/dca/Lifetime_8h.html" target="_top" xlink:title="Framework/Lifetime.h">
<polygon fill="none" stroke="#000000" points="1422.5,-129 1422.5,-148 1545.5,-148 1545.5,-129 1422.5,-129"/>
<text text-anchor="middle" x="1484" y="-136" font-family="Helvetica,sans-Serif" font-size="10.00" fill="#000000">Framework/Lifetime.h</text>
</a>
</g>
</g>
<!-- Node1&#45;&gt;Node2 -->
<g id="edge2" class="edge">
<title>Node1&#45;&gt;Node2</title>
<path fill="none" stroke="#191970" d="M1153.5542,-263.3551C1209.5112,-258.4979 1291.279,-247.2041 1358,-221 1379.7248,-212.4678 1432.4284,-175.7123 1462.3365,-154.2482"/>
<polygon fill="#191970" stroke="#191970" points="1464.7628,-156.8138 1470.827,-148.1261 1460.6686,-151.1359 1464.7628,-156.8138"/>
</g>
<!-- Node3 -->
<g id="node4" class="node">
<title>Node3</title>
<g id="a_node4"><a xlink:href="../../d0/d1b/ConcreteDataMatcher_8h.html" target="_top" xlink:title="Framework/ConcreteDataMatcher.h">
<polygon fill="none" stroke="#000000" points="994,-129 994,-148 1182,-148 1182,-129 994,-129"/>
<text text-anchor="middle" x="1088" y="-136" font-family="Helvetica,sans-Serif" font-size="10.00" fill="#000000">Framework/ConcreteDataMatcher.h</text>
</a>
</g>
</g>
<!-- Node1&#45;&gt;Node3 -->
<g id="edge3" class="edge">
<title>Node1&#45;&gt;Node3</title>
<path fill="none" stroke="#191970" d="M1088,-257.3416C1088,-236.4114 1088,-186.504 1088,-158.4762"/>
<polygon fill="#191970" stroke="#191970" points="1091.5001,-158.2704 1088,-148.2705 1084.5001,-158.2705 1091.5001,-158.2704"/>
</g>
<!-- Node11 -->
<g id="node12" class="node">
<title>Node11</title>
<polygon fill="none" stroke="#bfbfbf" points="712,-6 712,-25 756,-25 756,-6 712,-6"/>
<text text-anchor="middle" x="734" y="-13" font-family="Helvetica,sans-Serif" font-size="10.00" fill="#000000">string</text>
</g>
<!-- Node1&#45;&gt;Node11 -->
<g id="edge64" class="edge">
<title>Node1&#45;&gt;Node11</title>
<path fill="none" stroke="#191970" d="M1080.0056,-257.1382C1053.5679,-225.1321 965.2633,-122.9963 871,-67 828.2243,-41.5895 810.9127,-50.1698 765,-31 763.8131,-30.5044 762.6083,-29.9836 761.3969,-29.4451"/>
<polygon fill="#191970" stroke="#191970" points="762.7051,-26.1926 752.1668,-25.0996 759.7234,-32.5258 762.7051,-26.1926"/>
</g>
<!-- Node15 -->
<g id="node16" class="node">
<title>Node15</title>
<g id="a_node16"><a xlink:href="../../d3/da3/DataDescriptorMatcher_8h.html" target="_top" xlink:title="Framework/DataDescriptor\lMatcher.h">
<polygon fill="none" stroke="#000000" points="650.5,-190.5 650.5,-220.5 797.5,-220.5 797.5,-190.5 650.5,-190.5"/>
<text text-anchor="start" x="658.5" y="-208.5" font-family="Helvetica,sans-Serif" font-size="10.00" fill="#000000">Framework/DataDescriptor</text>
<text text-anchor="middle" x="724" y="-197.5" font-family="Helvetica,sans-Serif" font-size="10.00" fill="#000000">Matcher.h</text>
</a>
</g>
</g>
<!-- Node1&#45;&gt;Node15 -->
<g id="edge15" class="edge">
<title>Node1&#45;&gt;Node15</title>
<path fill="none" stroke="#191970" d="M1031.5244,-257.4581C971.5708,-247.3286 876.1851,-231.2126 807.5373,-219.6141"/>
<polygon fill="#191970" stroke="#191970" points="808.0537,-216.1519 797.6103,-217.9369 806.8875,-223.054 808.0537,-216.1519"/>
</g>
<!-- Node1&#45;&gt;Node36 -->
<g id="edge66" class="edge">
<title>Node1&#45;&gt;Node36</title>
<path fill="none" stroke="#191970" d="M1097.7315,-257.3882C1112.6721,-242.6875 1142.2385,-213.8171 1168,-190 1180.8896,-178.0832 1195.6915,-164.9489 1207.1159,-154.927"/>
<polygon fill="#191970" stroke="#191970" points="1209.5376,-157.4587 1214.762,-148.2415 1204.93,-152.189 1209.5376,-157.4587"/>
</g>
<!-- Node38 -->
<g id="node39" class="node">
<title>Node38</title>
<g id="a_node39"><a xlink:href="../../d0/d1c/ConfigParamSpec_8h.html" target="_top" xlink:title="Framework/ConfigParamSpec.h">
<polygon fill="none" stroke="#000000" points="229.5,-129 229.5,-148 396.5,-148 396.5,-129 229.5,-129"/>
<text text-anchor="middle" x="313" y="-136" font-family="Helvetica,sans-Serif" font-size="10.00" fill="#000000">Framework/ConfigParamSpec.h</text>
</a>
</g>
</g>
<!-- Node1&#45;&gt;Node38 -->
<g id="edge51" class="edge">
<title>Node1&#45;&gt;Node38</title>
<path fill="none" stroke="#191970" d="M1022.4483,-263.2167C934.966,-257.4936 775.4516,-244.7001 641,-221 536.6496,-202.6059 416.4347,-169.151 354.571,-151.0076"/>
<polygon fill="#191970" stroke="#191970" points="355.376,-147.5961 344.7944,-148.1251 353.3963,-154.3103 355.376,-147.5961"/>
</g>
<!-- Node43 -->
<g id="node44" class="node">
<title>Node43</title>
<polygon fill="none" stroke="#bfbfbf" points="842.5,-196 842.5,-215 899.5,-215 899.5,-196 842.5,-196"/>
<text text-anchor="middle" x="871" y="-203" font-family="Helvetica,sans-Serif" font-size="10.00" fill="#000000">ostream</text>
</g>
<!-- Node1&#45;&gt;Node43 -->
<g id="edge65" class="edge">
<title>Node1&#45;&gt;Node43</title>
<path fill="none" stroke="#191970" d="M1047.9807,-257.4774C1012.5297,-248.7914 959.4909,-235.1823 914,-221 911.3911,-220.1866 908.7059,-219.3116 906.0123,-218.4062"/>
<polygon fill="#191970" stroke="#191970" points="906.9361,-215.0222 896.3413,-215.0506 904.6414,-221.6354 906.9361,-215.0222"/>
</g>
<!-- Node4 -->
<g id="node5" class="node">
<title>Node4</title>
<g id="a_node5"><a xlink:href="../../dc/dcd/DataHeader_8h.html" target="_top" xlink:title="Headers/DataHeader.h">
<polygon fill="none" stroke="#000000" points="1024.5,-67.5 1024.5,-86.5 1151.5,-86.5 1151.5,-67.5 1024.5,-67.5"/>
<text text-anchor="middle" x="1088" y="-74.5" font-family="Helvetica,sans-Serif" font-size="10.00" fill="#000000">Headers/DataHeader.h</text>
</a>
</g>
</g>
<!-- Node3&#45;&gt;Node4 -->
<g id="edge4" class="edge">
<title>Node3&#45;&gt;Node4</title>
<path fill="none" stroke="#191970" d="M1088,-128.8906C1088,-120.3657 1088,-107.6392 1088,-96.9235"/>
<polygon fill="#191970" stroke="#191970" points="1091.5001,-96.7448 1088,-86.7449 1084.5001,-96.7449 1091.5001,-96.7448"/>
</g>
<!-- Node5 -->
<g id="node6" class="node">
<title>Node5</title>
<polygon fill="none" stroke="#bfbfbf" points="556,-6 556,-25 606,-25 606,-6 556,-6"/>
<text text-anchor="middle" x="581" y="-13" font-family="Helvetica,sans-Serif" font-size="10.00" fill="#000000">cstdint</text>
</g>
<!-- Node4&#45;&gt;Node5 -->
<g id="edge5" class="edge">
<title>Node4&#45;&gt;Node5</title>
<path fill="none" stroke="#191970" d="M1024.1141,-73.4047C913.4031,-66.7384 690.4993,-51.2738 615,-31 612.8111,-30.4122 610.5863,-29.6962 608.3764,-28.8978"/>
<polygon fill="#191970" stroke="#191970" points="609.5183,-25.583 598.9387,-25.0134 606.854,-32.0561 609.5183,-25.583"/>
</g>
<!-- Node6 -->
<g id="node7" class="node">
<title>Node6</title>
<polygon fill="none" stroke="#bfbfbf" points="774,-6 774,-25 832,-25 832,-6 774,-6"/>
<text text-anchor="middle" x="803" y="-13" font-family="Helvetica,sans-Serif" font-size="10.00" fill="#000000">memory</text>
</g>
<!-- Node4&#45;&gt;Node6 -->
<g id="edge6" class="edge">
<title>Node4&#45;&gt;Node6</title>
<path fill="none" stroke="#191970" d="M1024.4819,-68.7991C974.094,-61.429 902.2071,-48.9794 841,-31 838.6928,-30.3223 836.3335,-29.5538 833.9759,-28.7304"/>
<polygon fill="#191970" stroke="#191970" points="835.0235,-25.3848 824.4318,-25.1271 832.551,-31.9337 835.0235,-25.3848"/>
</g>
<!-- Node7 -->
<g id="node8" class="node">
<title>Node7</title>
<polygon fill="none" stroke="#bfbfbf" points="850,-6 850,-25 902,-25 902,-6 850,-6"/>
<text text-anchor="middle" x="876" y="-13" font-family="Helvetica,sans-Serif" font-size="10.00" fill="#000000">cassert</text>
</g>
<!-- Node4&#45;&gt;Node7 -->
<g id="edge7" class="edge">
<title>Node4&#45;&gt;Node7</title>
<path fill="none" stroke="#191970" d="M1043.0281,-67.4428C1006.8892,-59.256 955.069,-46.37 911,-31 909.1646,-30.3599 907.2917,-29.6637 905.4138,-28.9326"/>
<polygon fill="#191970" stroke="#191970" points="906.7116,-25.6818 896.1336,-25.0842 904.0302,-32.1478 906.7116,-25.6818"/>
</g>
<!-- Node8 -->
<g id="node9" class="node">
<title>Node8</title>
<polygon fill="none" stroke="#bfbfbf" points="1154,-6 1154,-25 1204,-25 1204,-6 1154,-6"/>
<text text-anchor="middle" x="1179" y="-13" font-family="Helvetica,sans-Serif" font-size="10.00" fill="#000000">cstring</text>
</g>
<!-- Node4&#45;&gt;Node8 -->
<g id="edge8" class="edge">
<title>Node4&#45;&gt;Node8</title>
<path fill="none" stroke="#191970" d="M1102.2188,-67.3906C1116.6434,-57.6421 1139.1976,-42.3994 1156.136,-30.9521"/>
<polygon fill="#191970" stroke="#191970" points="1158.5556,-33.5412 1164.8811,-25.0419 1154.6359,-27.7415 1158.5556,-33.5412"/>
</g>
<!-- Node9 -->
<g id="node10" class="node">
<title>Node9</title>
<polygon fill="none" stroke="#bfbfbf" points="920,-6 920,-25 984,-25 984,-6 920,-6"/>
<text text-anchor="middle" x="952" y="-13" font-family="Helvetica,sans-Serif" font-size="10.00" fill="#000000">algorithm</text>
</g>
<!-- Node4&#45;&gt;Node9 -->
<g id="edge9" class="edge">
<title>Node4&#45;&gt;Node9</title>
<path fill="none" stroke="#191970" d="M1066.75,-67.3906C1044.0945,-57.1457 1008.0202,-40.8326 982.3709,-29.2339"/>
<polygon fill="#191970" stroke="#191970" points="983.6546,-25.9732 973.1008,-25.0419 980.7703,-32.3514 983.6546,-25.9732"/>
</g>
<!-- Node10 -->
<g id="node11" class="node">
<title>Node10</title>
<polygon fill="none" stroke="#bfbfbf" points="1002.5,-6 1002.5,-25 1067.5,-25 1067.5,-6 1002.5,-6"/>
<text text-anchor="middle" x="1035" y="-13" font-family="Helvetica,sans-Serif" font-size="10.00" fill="#000000">stdexcept</text>
</g>
<!-- Node4&#45;&gt;Node10 -->
<g id="edge10" class="edge">
<title>Node4&#45;&gt;Node10</title>
<path fill="none" stroke="#191970" d="M1079.7188,-67.3906C1071.8307,-58.2376 1059.7686,-44.2409 1050.1588,-33.09"/>
<polygon fill="#191970" stroke="#191970" points="1052.5775,-30.5352 1043.398,-25.2449 1047.2749,-35.1049 1052.5775,-30.5352"/>
</g>
<!-- Node4&#45;&gt;Node11 -->
<g id="edge11" class="edge">
<title>Node4&#45;&gt;Node11</title>
<path fill="none" stroke="#191970" d="M1024.4574,-73.9865C958.3442,-69.4648 852.4573,-58.2988 765,-31 763.3415,-30.4823 761.6627,-29.8842 759.9893,-29.2304"/>
<polygon fill="#191970" stroke="#191970" points="761.2008,-25.9382 750.6433,-25.0492 758.3421,-32.3279 761.2008,-25.9382"/>
</g>
<!-- Node12 -->
<g id="node13" class="node">
<title>Node12</title>
<polygon fill="none" stroke="#bfbfbf" points="1086,-6 1086,-25 1136,-25 1136,-6 1086,-6"/>
<text text-anchor="middle" x="1111" y="-13" font-family="Helvetica,sans-Serif" font-size="10.00" fill="#000000">climits</text>
</g>
<!-- Node4&#45;&gt;Node12 -->
<g id="edge12" class="edge">
<title>Node4&#45;&gt;Node12</title>
<path fill="none" stroke="#191970" d="M1091.5938,-67.3906C1094.8491,-58.6862 1099.7425,-45.6015 1103.801,-34.7494"/>
<polygon fill="#191970" stroke="#191970" points="1107.1309,-35.8373 1107.3556,-25.2449 1100.5744,-33.3852 1107.1309,-35.8373"/>
</g>
<!-- Node13 -->
<g id="node14" class="node">
<title>Node13</title>
<g id="a_node14"><a xlink:href="../../d7/df8/Types_8h.html" target="_top" xlink:title="MemoryResources/Types.h">
<polygon fill="none" stroke="#000000" points="1288,-6 1288,-25 1434,-25 1434,-6 1288,-6"/>
<text text-anchor="middle" x="1361" y="-13" font-family="Helvetica,sans-Serif" font-size="10.00" fill="#000000">MemoryResources/Types.h</text>
</a>
</g>
</g>
<!-- Node4&#45;&gt;Node13 -->
<g id="edge13" class="edge">
<title>Node4&#45;&gt;Node13</title>
<path fill="none" stroke="#191970" d="M1130.3567,-67.4581C1178.3757,-56.6406 1256.701,-38.9959 1308.545,-27.3168"/>
<polygon fill="#191970" stroke="#191970" points="1309.5576,-30.6765 1318.5439,-25.0643 1308.0192,-23.8476 1309.5576,-30.6765"/>
</g>
<!-- Node14 -->
<g id="node15" class="node">
<title>Node14</title>
<polygon fill="none" stroke="#bfbfbf" points="1222.5,-6 1222.5,-25 1269.5,-25 1269.5,-6 1222.5,-6"/>
<text text-anchor="middle" x="1246" y="-13" font-family="Helvetica,sans-Serif" font-size="10.00" fill="#000000">cerrno</text>
</g>
<!-- Node4&#45;&gt;Node14 -->
<g id="edge14" class="edge">
<title>Node4&#45;&gt;Node14</title>
<path fill="none" stroke="#191970" d="M1116.0705,-67.4514C1141.5823,-58.589 1180.1428,-44.732 1213,-31 1214.3505,-30.4356 1215.7264,-29.8466 1217.1119,-29.2422"/>
<polygon fill="#191970" stroke="#191970" points="1218.5574,-32.4299 1226.231,-25.1247 1215.6767,-26.0501 1218.5574,-32.4299"/>
</g>
<!-- Node15&#45;&gt;Node3 -->
<g id="edge16" class="edge">
<title>Node15&#45;&gt;Node3</title>
<path fill="none" stroke="#191970" d="M797.6608,-191.9416C864.7639,-179.5902 962.7599,-161.5524 1025.9598,-149.9195"/>
<polygon fill="#191970" stroke="#191970" points="1026.9788,-153.2908 1036.1799,-148.0383 1025.7115,-146.4065 1026.9788,-153.2908"/>
</g>
<!-- Node15&#45;&gt;Node4 -->
<g id="edge25" class="edge">
<title>Node15&#45;&gt;Node4</title>
<path fill="none" stroke="#191970" d="M785.8908,-190.4986C822.1411,-181.1615 868.5953,-168.2414 909,-154 937.6984,-143.8847 1014.4545,-109.9627 1057.5554,-90.6875"/>
<polygon fill="#191970" stroke="#191970" points="1059.0259,-93.864 1066.7217,-86.5821 1056.1646,-87.4755 1059.0259,-93.864"/>
</g>
<!-- Node15&#45;&gt;Node5 -->
<g id="edge45" class="edge">
<title>Node15&#45;&gt;Node5</title>
<path fill="none" stroke="#191970" d="M714.0131,-190.3736C702.8692,-173.6563 684.1467,-146.0458 667,-123 642.7991,-90.4732 612.9111,-53.8533 595.4982,-32.8456"/>
<polygon fill="#191970" stroke="#191970" points="598.1441,-30.5535 589.0588,-25.103 592.7622,-35.0295 598.1441,-30.5535"/>
</g>
<!-- Node15&#45;&gt;Node11 -->
<g id="edge47" class="edge">
<title>Node15&#45;&gt;Node11</title>
<path fill="none" stroke="#191970" d="M724.8014,-190.2727C726.5991,-156.1167 730.9522,-73.408 732.9572,-35.313"/>
<polygon fill="#191970" stroke="#191970" points="736.4681,-35.196 733.4986,-25.0258 729.4778,-34.828 736.4681,-35.196"/>
</g>
<!-- Node16 -->
<g id="node17" class="node">
<title>Node16</title>
<g id="a_node17"><a xlink:href="../../d6/dc9/DataProcessingHeader_8h.html" target="_top" xlink:title="Framework/DataProcessing\lHeader.h">
<polygon fill="none" stroke="#000000" points="751.5,-123.5 751.5,-153.5 900.5,-153.5 900.5,-123.5 751.5,-123.5"/>
<text text-anchor="start" x="759.5" y="-141.5" font-family="Helvetica,sans-Serif" font-size="10.00" fill="#000000">Framework/DataProcessing</text>
<text text-anchor="middle" x="826" y="-130.5" font-family="Helvetica,sans-Serif" font-size="10.00" fill="#000000">Header.h</text>
</a>
</g>
</g>
<!-- Node15&#45;&gt;Node16 -->
<g id="edge17" class="edge">
<title>Node15&#45;&gt;Node16</title>
<path fill="none" stroke="#191970" d="M746.8908,-190.4639C760.8352,-181.3044 778.8567,-169.4667 794.1762,-159.4038"/>
<polygon fill="#191970" stroke="#191970" points="796.3961,-162.1333 802.8327,-153.7177 792.553,-156.2826 796.3961,-162.1333"/>
</g>
<!-- Node19 -->
<g id="node20" class="node">
<title>Node19</title>
<g id="a_node20"><a xlink:href="../../d1/d76/RuntimeError_8h.html" target="_top" xlink:title="Framework/RuntimeError.h">
<polygon fill="none" stroke="#000000" points="0,-6 0,-25 146,-25 146,-6 0,-6"/>
<text text-anchor="middle" x="73" y="-13" font-family="Helvetica,sans-Serif" font-size="10.00" fill="#000000">Framework/RuntimeError.h</text>
</a>
</g>
</g>
<!-- Node15&#45;&gt;Node19 -->
<g id="edge24" class="edge">
<title>Node15&#45;&gt;Node19</title>
<path fill="none" stroke="#191970" d="M650.3298,-201.3307C514.4527,-193.2021 234.5858,-174.2504 195,-154 141.4575,-126.61 100.848,-64.9363 82.9876,-33.972"/>
<polygon fill="#191970" stroke="#191970" points="85.945,-32.0899 78.0006,-25.0801 79.8396,-35.5141 85.945,-32.0899"/>
</g>
<!-- Node20 -->
<g id="node21" class="node">
<title>Node20</title>
<g id="a_node21"><a xlink:href="../../d4/d00/Headers_2include_2Headers_2Stack_8h.html" target="_top" xlink:title="Headers/Stack.h">
<polygon fill="none" stroke="#000000" points="1308,-129 1308,-148 1404,-148 1404,-129 1308,-129"/>
<text text-anchor="middle" x="1356" y="-136" font-family="Helvetica,sans-Serif" font-size="10.00" fill="#000000">Headers/Stack.h</text>
</a>
</g>
</g>
<!-- Node15&#45;&gt;Node20 -->
<g id="edge26" class="edge">
<title>Node15&#45;&gt;Node20</title>
<path fill="none" stroke="#191970" d="M797.5103,-194.4629C809.3621,-192.8517 821.5094,-191.3003 833,-190 1022.2432,-168.5849 1070.9667,-177.1951 1260,-154 1272.1749,-152.5061 1285.1718,-150.6116 1297.5434,-148.6643"/>
<polygon fill="#191970" stroke="#191970" points="1298.4384,-152.0655 1307.7568,-147.0238 1297.3282,-145.1541 1298.4384,-152.0655"/>
</g>
<!-- Node15&#45;&gt;Node28 -->
<g id="edge49" class="edge">
<title>Node15&#45;&gt;Node28</title>
<path fill="none" stroke="#191970" d="M650.4126,-202.6555C518.2867,-196.8734 251.6009,-181.872 220,-154 186.0281,-124.0368 184.321,-65.8401 186.0756,-35.3001"/>
<polygon fill="#191970" stroke="#191970" points="189.5854,-35.3036 186.8575,-25.066 182.6057,-34.7703 189.5854,-35.3036"/>
</g>
<!-- Node34 -->
<g id="node35" class="node">
<title>Node34</title>
<polygon fill="none" stroke="#bfbfbf" points="452,-129 452,-148 494,-148 494,-129 452,-129"/>
<text text-anchor="middle" x="473" y="-136" font-family="Helvetica,sans-Serif" font-size="10.00" fill="#000000">array</text>
</g>
<!-- Node15&#45;&gt;Node34 -->
<g id="edge44" class="edge">
<title>Node15&#45;&gt;Node34</title>
<path fill="none" stroke="#191970" d="M650.2579,-193.0704C606.6489,-184.5555 550.7811,-171.5997 503,-154 501.7622,-153.5441 500.5103,-153.0486 499.2563,-152.524"/>
<polygon fill="#191970" stroke="#191970" points="500.3431,-149.1686 489.8017,-148.1065 497.38,-155.5105 500.3431,-149.1686"/>
</g>
<!-- Node35 -->
<g id="node36" class="node">
<title>Node35</title>
<polygon fill="none" stroke="#bfbfbf" points="488.5,-6 488.5,-25 537.5,-25 537.5,-6 488.5,-6"/>
<text text-anchor="middle" x="513" y="-13" font-family="Helvetica,sans-Serif" font-size="10.00" fill="#000000">iosfwd</text>
</g>
<!-- Node15&#45;&gt;Node35 -->
<g id="edge46" class="edge">
<title>Node15&#45;&gt;Node35</title>
<path fill="none" stroke="#191970" d="M650.1788,-196.8775C571.452,-186.9252 456.2368,-169.8833 443,-154 410.6999,-115.2421 463.1124,-59.0759 493.5857,-31.7094"/>
<polygon fill="#191970" stroke="#191970" points="495.9268,-34.3117 501.1534,-25.0958 491.3204,-29.0409 495.9268,-34.3117"/>
</g>
<!-- Node15&#45;&gt;Node36 -->
<g id="edge48" class="edge">
<title>Node15&#45;&gt;Node36</title>
<path fill="none" stroke="#191970" d="M797.5293,-194.6248C809.3787,-192.993 821.5202,-191.3928 833,-190 991.7494,-170.7392 1036.4021,-194.8881 1191,-154 1193.1924,-153.4201 1195.4223,-152.7195 1197.6406,-151.9405"/>
<polygon fill="#191970" stroke="#191970" points="1199.146,-155.1083 1207.1405,-148.1557 1196.5552,-148.6054 1199.146,-155.1083"/>
</g>
<!-- Node37 -->
<g id="node38" class="node">
<title>Node37</title>
<polygon fill="none" stroke="#bfbfbf" points="512,-129 512,-148 658,-148 658,-129 512,-129"/>
<text text-anchor="middle" x="585" y="-136" font-family="Helvetica,sans-Serif" font-size="10.00" fill="#000000">DataDescriptorMatcher.inc</text>
</g>
<!-- Node15&#45;&gt;Node37 -->
<g id="edge50" class="edge">
<title>Node15&#45;&gt;Node37</title>
<path fill="none" stroke="#191970" d="M692.8057,-190.4639C669.2732,-179.1209 637.2198,-163.6707 614.1906,-152.5703"/>
<polygon fill="#191970" stroke="#191970" points="615.4524,-149.2932 604.9246,-148.1039 612.413,-155.5989 615.4524,-149.2932"/>
</g>
<!-- Node16&#45;&gt;Node4 -->
<g id="edge18" class="edge">
<title>Node16&#45;&gt;Node4</title>
<path fill="none" stroke="#191970" d="M890.0924,-123.4554C935.5334,-112.7889 995.6565,-98.6761 1037.6627,-88.8158"/>
<polygon fill="#191970" stroke="#191970" points="1038.4638,-92.223 1047.3993,-86.5303 1036.8641,-85.4082 1038.4638,-92.223"/>
</g>
<!-- Node16&#45;&gt;Node5 -->
<g id="edge19" class="edge">
<title>Node16&#45;&gt;Node5</title>
<path fill="none" stroke="#191970" d="M795.9582,-123.4178C748.2413,-99.462 655.7773,-53.0413 609.2251,-29.6702"/>
<polygon fill="#191970" stroke="#191970" points="610.5282,-26.4081 600.0209,-25.0493 607.3875,-32.664 610.5282,-26.4081"/>
</g>
<!-- Node16&#45;&gt;Node6 -->
<g id="edge21" class="edge">
<title>Node16&#45;&gt;Node6</title>
<path fill="none" stroke="#191970" d="M846.2118,-123.4001C862.488,-109.2748 881.1192,-87.3576 871,-67 863.1053,-51.1176 847.7143,-38.8241 833.569,-30.2377"/>
<polygon fill="#191970" stroke="#191970" points="834.9715,-27.0098 824.5447,-25.13 831.5235,-33.1017 834.9715,-27.0098"/>
</g>
<!-- Node16&#45;&gt;Node7 -->
<g id="edge22" class="edge">
<title>Node16&#45;&gt;Node7</title>
<path fill="none" stroke="#191970" d="M853.1057,-123.329C865.9215,-114.5469 879.9355,-102.2098 887,-87 894.663,-70.5015 890.1333,-49.7836 884.7548,-34.9026"/>
<polygon fill="#191970" stroke="#191970" points="887.8428,-33.2023 880.8507,-25.2422 881.3527,-35.8252 887.8428,-33.2023"/>
</g>
<!-- Node17 -->
<g id="node18" class="node">
<title>Node17</title>
<polygon fill="none" stroke="#bfbfbf" points="816,-67.5 816,-86.5 862,-86.5 862,-67.5 816,-67.5"/>
<text text-anchor="middle" x="839" y="-74.5" font-family="Helvetica,sans-Serif" font-size="10.00" fill="#000000">cstdio</text>
</g>
<!-- Node16&#45;&gt;Node17 -->
<g id="edge20" class="edge">
<title>Node16&#45;&gt;Node17</title>
<path fill="none" stroke="#191970" d="M829.2135,-123.2977C830.9052,-115.2945 833.0001,-105.3843 834.817,-96.7889"/>
<polygon fill="#191970" stroke="#191970" points="838.2747,-97.3546 836.9185,-86.8469 831.426,-95.9069 838.2747,-97.3546"/>
</g>
<!-- Node18 -->
<g id="node19" class="node">
<title>Node18</title>
<polygon fill="none" stroke="#bfbfbf" points="748,-67.5 748,-86.5 798,-86.5 798,-67.5 748,-67.5"/>
<text text-anchor="middle" x="773" y="-74.5" font-family="Helvetica,sans-Serif" font-size="10.00" fill="#000000">chrono</text>
</g>
<!-- Node16&#45;&gt;Node18 -->
<g id="edge23" class="edge">
<title>Node16&#45;&gt;Node18</title>
<path fill="none" stroke="#191970" d="M812.8989,-123.2977C805.3887,-114.5831 795.93,-103.6075 788.1073,-94.5302"/>
<polygon fill="#191970" stroke="#191970" points="790.6655,-92.1372 781.486,-86.8469 785.3629,-96.707 790.6655,-92.1372"/>
</g>
<!-- Node20&#45;&gt;Node4 -->
<g id="edge43" class="edge">
<title>Node20&#45;&gt;Node4</title>
<path fill="none" stroke="#191970" d="M1318.3321,-128.9212C1310.31,-126.9266 1301.8818,-124.8649 1294,-123 1242.6077,-110.84 1183.793,-97.7928 1142.2002,-88.711"/>
<polygon fill="#191970" stroke="#191970" points="1142.7929,-85.2581 1132.2769,-86.5482 1141.3022,-92.0975 1142.7929,-85.2581"/>
</g>
<!-- Node21 -->
<g id="node22" class="node">
<title>Node21</title>
<g id="a_node22"><a xlink:href="../../dc/d03/MemoryResources_8h.html" target="_top" xlink:title="MemoryResources/MemoryResources.h">
<polygon fill="none" stroke="#000000" points="1515.5,-67.5 1515.5,-86.5 1722.5,-86.5 1722.5,-67.5 1515.5,-67.5"/>
<text text-anchor="middle" x="1619" y="-74.5" font-family="Helvetica,sans-Serif" font-size="10.00" fill="#000000">MemoryResources/MemoryResources.h</text>
</a>
</g>
</g>
<!-- Node20&#45;&gt;Node21 -->
<g id="edge27" class="edge">
<title>Node20&#45;&gt;Node21</title>
<path fill="none" stroke="#191970" d="M1389.9927,-128.9826C1397.55,-126.9431 1405.5338,-124.8477 1413,-123 1463.7718,-110.4351 1521.9649,-97.5818 1563.5211,-88.6676"/>
<polygon fill="#191970" stroke="#191970" points="1564.4004,-92.0588 1573.4475,-86.5453 1562.9368,-85.2135 1564.4004,-92.0588"/>
</g>
<!-- Node21&#45;&gt;Node8 -->
<g id="edge32" class="edge">
<title>Node21&#45;&gt;Node8</title>
<path fill="none" stroke="#191970" d="M1515.4998,-68.9964C1414.4259,-60.51 1268.0313,-46.2468 1213,-31 1211.0307,-30.4544 1209.0313,-29.8084 1207.0389,-29.0949"/>
<polygon fill="#191970" stroke="#191970" points="1207.8895,-25.6616 1197.3086,-25.1183 1205.2413,-32.1414 1207.8895,-25.6616"/>
</g>
<!-- Node21&#45;&gt;Node11 -->
<g id="edge33" class="edge">
<title>Node21&#45;&gt;Node11</title>
<path fill="none" stroke="#191970" d="M1515.4932,-73.7907C1303.8984,-66.8859 835.7367,-49.7213 765,-31 763.0804,-30.492 761.1406,-29.8573 759.2177,-29.1372"/>
<polygon fill="#191970" stroke="#191970" points="760.476,-25.8666 749.9155,-25.0142 757.6395,-32.2662 760.476,-25.8666"/>
</g>
<!-- Node21&#45;&gt;Node13 -->
<g id="edge42" class="edge">
<title>Node21&#45;&gt;Node13</title>
<path fill="none" stroke="#191970" d="M1578.9706,-67.4581C1533.6845,-56.6632 1459.8766,-39.0694 1410.8794,-27.3899"/>
<polygon fill="#191970" stroke="#191970" points="1411.6624,-23.9785 1401.1233,-25.0643 1410.0392,-30.7877 1411.6624,-23.9785"/>
</g>
<!-- Node22 -->
<g id="node23" class="node">
<title>Node22</title>
<polygon fill="none" stroke="#bfbfbf" points="2257.5,-.5 2257.5,-30.5 2368.5,-30.5 2368.5,-.5 2257.5,-.5"/>
<text text-anchor="start" x="2265.5" y="-18.5" font-family="Helvetica,sans-Serif" font-size="10.00" fill="#000000">boost/container/flat</text>
<text text-anchor="middle" x="2313" y="-7.5" font-family="Helvetica,sans-Serif" font-size="10.00" fill="#000000">_map.hpp</text>
</g>
<!-- Node21&#45;&gt;Node22 -->
<g id="edge28" class="edge">
<title>Node21&#45;&gt;Node22</title>
<path fill="none" stroke="#191970" d="M1722.5368,-74.5341C1845.5337,-70.4511 2056.944,-59.7991 2247.5259,-30.8935"/>
<polygon fill="#191970" stroke="#191970" points="2248.0949,-34.3472 2257.4474,-29.3691 2247.0319,-27.4284 2248.0949,-34.3472"/>
</g>
<!-- Node23 -->
<g id="node24" class="node">
<title>Node23</title>
<polygon fill="none" stroke="#bfbfbf" points="2386.5,-.5 2386.5,-30.5 2515.5,-30.5 2515.5,-.5 2386.5,-.5"/>
<text text-anchor="start" x="2394.5" y="-18.5" font-family="Helvetica,sans-Serif" font-size="10.00" fill="#000000">boost/container/pmr</text>
<text text-anchor="middle" x="2451" y="-7.5" font-family="Helvetica,sans-Serif" font-size="10.00" fill="#000000">/memory_resource.hpp</text>
</g>
<!-- Node21&#45;&gt;Node23 -->
<g id="edge29" class="edge">
<title>Node21&#45;&gt;Node23</title>
<path fill="none" stroke="#191970" d="M1722.5976,-75.5912C1867.0869,-72.5378 2137.3615,-62.8766 2375.948,-31.1597"/>
<polygon fill="#191970" stroke="#191970" points="2376.7647,-34.5815 2386.2088,-29.7793 2375.8314,-27.644 2376.7647,-34.5815"/>
</g>
<!-- Node24 -->
<g id="node25" class="node">
<title>Node24</title>
<polygon fill="none" stroke="#bfbfbf" points="2533.5,-.5 2533.5,-30.5 2706.5,-30.5 2706.5,-.5 2533.5,-.5"/>
<text text-anchor="start" x="2541.5" y="-18.5" font-family="Helvetica,sans-Serif" font-size="10.00" fill="#000000">boost/container/pmr</text>
<text text-anchor="middle" x="2620" y="-7.5" font-family="Helvetica,sans-Serif" font-size="10.00" fill="#000000">/monotonic_buffer_resource.hpp</text>
</g>
<!-- Node21&#45;&gt;Node24 -->
<g id="edge30" class="edge">
<title>Node21&#45;&gt;Node24</title>
<path fill="none" stroke="#191970" d="M1722.5558,-75.4767C1889.2592,-72.1963 2227.5708,-62.1234 2523.2733,-31.1123"/>
<polygon fill="#191970" stroke="#191970" points="2523.7564,-34.5808 2533.3323,-30.0475 2523.0194,-27.6197 2523.7564,-34.5808"/>
</g>
<!-- Node25 -->
<g id="node26" class="node">
<title>Node25</title>
<polygon fill="none" stroke="#bfbfbf" points="2724.5,-.5 2724.5,-30.5 2873.5,-30.5 2873.5,-.5 2724.5,-.5"/>
<text text-anchor="start" x="2732.5" y="-18.5" font-family="Helvetica,sans-Serif" font-size="10.00" fill="#000000">boost/container/pmr</text>
<text text-anchor="middle" x="2799" y="-7.5" font-family="Helvetica,sans-Serif" font-size="10.00" fill="#000000">/polymorphic_allocator.hpp</text>
</g>
<!-- Node21&#45;&gt;Node25 -->
<g id="edge31" class="edge">
<title>Node21&#45;&gt;Node25</title>
<path fill="none" stroke="#191970" d="M1722.7905,-74.5408C1954.0395,-68.7588 2506.8975,-53.1806 2714.2179,-31.0724"/>
<polygon fill="#191970" stroke="#191970" points="2714.8632,-34.5225 2724.4191,-29.9471 2714.0956,-27.5647 2714.8632,-34.5225"/>
</g>
<!-- Node26 -->
<g id="node27" class="node">
<title>Node26</title>
<polygon fill="none" stroke="#bfbfbf" points="624.5,-6 624.5,-25 693.5,-25 693.5,-6 624.5,-6"/>
<text text-anchor="middle" x="659" y="-13" font-family="Helvetica,sans-Serif" font-size="10.00" fill="#000000">type_traits</text>
</g>
<!-- Node21&#45;&gt;Node26 -->
<g id="edge34" class="edge">
<title>Node21&#45;&gt;Node26</title>
<path fill="none" stroke="#191970" d="M1515.2898,-75.5457C1309.387,-72.0411 855.7126,-61.0729 703,-31 699.3695,-30.2851 695.6334,-29.3316 691.9451,-28.2476"/>
<polygon fill="#191970" stroke="#191970" points="692.9908,-24.9073 682.3987,-25.1472 690.8285,-31.565 692.9908,-24.9073"/>
</g>
<!-- Node27 -->
<g id="node28" class="node">
<title>Node27</title>
<polygon fill="none" stroke="#bfbfbf" points="1452.5,-6 1452.5,-25 1497.5,-25 1497.5,-6 1452.5,-6"/>
<text text-anchor="middle" x="1475" y="-13" font-family="Helvetica,sans-Serif" font-size="10.00" fill="#000000">utility</text>
</g>
<!-- Node21&#45;&gt;Node27 -->
<g id="edge35" class="edge">
<title>Node21&#45;&gt;Node27</title>
<path fill="none" stroke="#191970" d="M1594.3458,-67.3787C1571.529,-58.3556 1536.745,-44.2972 1507,-31 1505.8271,-30.4757 1504.6334,-29.9342 1503.4301,-29.3817"/>
<polygon fill="#191970" stroke="#191970" points="1504.7393,-26.1296 1494.201,-25.0366 1501.7575,-32.4628 1504.7393,-26.1296"/>
</g>
<!-- Node21&#45;&gt;Node28 -->
<g id="edge36" class="edge">
<title>Node21&#45;&gt;Node28</title>
<path fill="none" stroke="#191970" d="M1515.3183,-74.7702C1201.997,-67.876 282.5593,-46.4399 220,-31 218.0223,-30.5119 216.0227,-29.8921 214.0397,-29.1826"/>
<polygon fill="#191970" stroke="#191970" points="215.013,-25.7924 204.4419,-25.0828 212.2632,-32.2297 215.013,-25.7924"/>
</g>
<!-- Node29 -->
<g id="node30" class="node">
<title>Node29</title>
<polygon fill="none" stroke="#bfbfbf" points="1515.5,-6 1515.5,-25 1608.5,-25 1608.5,-6 1515.5,-6"/>
<text text-anchor="middle" x="1562" y="-13" font-family="Helvetica,sans-Serif" font-size="10.00" fill="#000000">unordered_map</text>
</g>
<!-- Node21&#45;&gt;Node29 -->
<g id="edge37" class="edge">
<title>Node21&#45;&gt;Node29</title>
<path fill="none" stroke="#191970" d="M1610.0938,-67.3906C1601.5272,-58.1478 1588.3831,-43.966 1577.9997,-32.7628"/>
<polygon fill="#191970" stroke="#191970" points="1580.3965,-30.2 1571.0318,-25.2449 1575.2625,-34.9584 1580.3965,-30.2"/>
</g>
<!-- Node30 -->
<g id="node31" class="node">
<title>Node30</title>
<polygon fill="none" stroke="#bfbfbf" points="1626.5,-6 1626.5,-25 1727.5,-25 1727.5,-6 1626.5,-6"/>
<text text-anchor="middle" x="1677" y="-13" font-family="Helvetica,sans-Serif" font-size="10.00" fill="#000000">FairMQMessage.h</text>
</g>
<!-- Node21&#45;&gt;Node30 -->
<g id="edge38" class="edge">
<title>Node21&#45;&gt;Node30</title>
<path fill="none" stroke="#191970" d="M1628.0625,-67.3906C1636.7793,-58.1478 1650.154,-43.966 1660.7196,-32.7628"/>
<polygon fill="#191970" stroke="#191970" points="1663.495,-34.9213 1667.8097,-25.2449 1658.4024,-30.1186 1663.495,-34.9213"/>
</g>
<!-- Node31 -->
<g id="node32" class="node">
<title>Node31</title>
<polygon fill="none" stroke="#bfbfbf" points="1745.5,-6 1745.5,-25 1882.5,-25 1882.5,-6 1745.5,-6"/>
<text text-anchor="middle" x="1814" y="-13" font-family="Helvetica,sans-Serif" font-size="10.00" fill="#000000">FairMQTransportFactory.h</text>
</g>
<!-- Node21&#45;&gt;Node31 -->
<g id="edge39" class="edge">
<title>Node21&#45;&gt;Node31</title>
<path fill="none" stroke="#191970" d="M1649.4688,-67.3906C1682.9544,-56.8298 1736.8853,-39.8208 1773.812,-28.1747"/>
<polygon fill="#191970" stroke="#191970" points="1775.261,-31.3877 1783.7452,-25.0419 1773.1555,-24.7118 1775.261,-31.3877"/>
</g>
<!-- Node32 -->
<g id="node33" class="node">
<title>Node32</title>
<polygon fill="none" stroke="#bfbfbf" points="1901,-6 1901,-25 2051,-25 2051,-6 1901,-6"/>
<text text-anchor="middle" x="1976" y="-13" font-family="Helvetica,sans-Serif" font-size="10.00" fill="#000000">fairmq/MemoryResources.h</text>
</g>
<!-- Node21&#45;&gt;Node32 -->
<g id="edge40" class="edge">
<title>Node21&#45;&gt;Node32</title>
<path fill="none" stroke="#191970" d="M1677.0938,-67.4799C1732.392,-58.3544 1817.9249,-44.0743 1892,-31 1899.4126,-29.6917 1907.1879,-28.2928 1914.8908,-26.8908"/>
<polygon fill="#191970" stroke="#191970" points="1915.7316,-30.2952 1924.9387,-25.0532 1914.4722,-23.4094 1915.7316,-30.2952"/>
</g>
<!-- Node33 -->
<g id="node34" class="node">
<title>Node33</title>
<polygon fill="none" stroke="#bfbfbf" points="2069,-6 2069,-25 2239,-25 2239,-6 2069,-6"/>
<text text-anchor="middle" x="2154" y="-13" font-family="Helvetica,sans-Serif" font-size="10.00" fill="#000000">fairmq/MemoryResourceTools.h</text>
</g>
<!-- Node21&#45;&gt;Node33 -->
<g id="edge41" class="edge">
<title>Node21&#45;&gt;Node33</title>
<path fill="none" stroke="#191970" d="M1722.5686,-67.9511C1812.0695,-59.7124 1944.8004,-46.492 2060,-31 2069.4896,-29.7238 2079.4942,-28.2322 2089.2956,-26.6879"/>
<polygon fill="#191970" stroke="#191970" points="2090.0867,-30.1058 2099.4061,-25.0662 2088.978,-23.1941 2090.0867,-30.1058"/>
</g>
<!-- Node38&#45;&gt;Node11 -->
<g id="edge63" class="edge">
<title>Node38&#45;&gt;Node11</title>
<path fill="none" stroke="#191970" d="M357.5841,-128.9588C430.7633,-112.685 580.3749,-76.828 702,-31 703.408,-30.4695 704.838,-29.8994 706.2731,-29.3022"/>
<polygon fill="#191970" stroke="#191970" points="707.9479,-32.3869 715.6368,-25.0977 705.0805,-26.0011 707.9479,-32.3869"/>
</g>
<!-- Node39 -->
<g id="node40" class="node">
<title>Node39</title>
<g id="a_node40"><a xlink:href="../../de/d56/Variant_8h.html" target="_top" xlink:title="Framework/Variant.h">
<polygon fill="none" stroke="#000000" points="293.5,-67.5 293.5,-86.5 410.5,-86.5 410.5,-67.5 293.5,-67.5"/>
<text text-anchor="middle" x="352" y="-74.5" font-family="Helvetica,sans-Serif" font-size="10.00" fill="#000000">Framework/Variant.h</text>
</a>
</g>
</g>
<!-- Node38&#45;&gt;Node39 -->
<g id="edge52" class="edge">
<title>Node38&#45;&gt;Node39</title>
<path fill="none" stroke="#191970" d="M319.0938,-128.8906C324.7843,-119.917 333.4272,-106.2879 340.4274,-95.2491"/>
<polygon fill="#191970" stroke="#191970" points="343.4207,-97.0644 345.8203,-86.7449 337.5091,-93.3155 343.4207,-97.0644"/>
</g>
<!-- Node39&#45;&gt;Node5 -->
<g id="edge56" class="edge">
<title>Node39&#45;&gt;Node5</title>
<path fill="none" stroke="#191970" d="M403.7824,-67.4253C443.2842,-59.4751 498.7623,-46.9091 546,-31 547.8422,-30.3796 549.7203,-29.6986 551.6021,-28.979"/>
<polygon fill="#191970" stroke="#191970" points="552.9739,-32.1993 560.8925,-25.1605 550.3127,-25.7249 552.9739,-32.1993"/>
</g>
<!-- Node39&#45;&gt;Node8 -->
<g id="edge55" class="edge">
<title>Node39&#45;&gt;Node8</title>
<path fill="none" stroke="#191970" d="M410.6536,-74.8456C582.046,-68.3755 1074.4313,-48.4818 1145,-31 1147.2,-30.455 1149.4327,-29.7701 1151.6483,-28.9936"/>
<polygon fill="#191970" stroke="#191970" points="1153.1513,-32.1608 1161.0972,-25.1528 1150.5153,-25.6761 1153.1513,-32.1608"/>
</g>
<!-- Node39&#45;&gt;Node11 -->
<g id="edge62" class="edge">
<title>Node39&#45;&gt;Node11</title>
<path fill="none" stroke="#191970" d="M410.7891,-74.9976C481.3123,-71.2987 602.4831,-60.7919 702,-31 703.8628,-30.4423 705.7517,-29.7872 707.632,-29.0671"/>
<polygon fill="#191970" stroke="#191970" points="709.0305,-32.2757 716.8021,-25.0748 706.2363,-25.8575 709.0305,-32.2757"/>
</g>
<!-- Node39&#45;&gt;Node19 -->
<g id="edge53" class="edge">
<title>Node39&#45;&gt;Node19</title>
<path fill="none" stroke="#191970" d="M308.7124,-67.4581C259.5358,-56.6181 179.2576,-38.9224 126.277,-27.2439"/>
<polygon fill="#191970" stroke="#191970" points="126.9082,-23.799 116.3892,-25.0643 125.4013,-30.6349 126.9082,-23.799"/>
</g>
<!-- Node39&#45;&gt;Node26 -->
<g id="edge54" class="edge">
<title>Node39&#45;&gt;Node26</title>
<path fill="none" stroke="#191970" d="M410.5729,-69.59C464.2683,-62.1302 545.7174,-49.1287 615,-31 618.1341,-30.1799 621.363,-29.2377 624.5806,-28.2315"/>
<polygon fill="#191970" stroke="#191970" points="625.7017,-31.5473 634.0932,-25.0793 623.4998,-24.9026 625.7017,-31.5473"/>
</g>
<!-- Node39&#45;&gt;Node28 -->
<g id="edge61" class="edge">
<title>Node39&#45;&gt;Node28</title>
<path fill="none" stroke="#191970" d="M321.481,-67.4762C294.4836,-58.7894 254.185,-45.1798 220,-31 218.6458,-30.4383 217.2674,-29.8474 215.8811,-29.2375"/>
<polygon fill="#191970" stroke="#191970" points="217.3334,-26.0531 206.7865,-25.0469 214.4039,-32.4107 217.3334,-26.0531"/>
</g>
<!-- Node39&#45;&gt;Node35 -->
<g id="edge58" class="edge">
<title>Node39&#45;&gt;Node35</title>
<path fill="none" stroke="#191970" d="M380.2432,-67.499C406.1442,-58.6141 445.4571,-44.6948 479,-31 480.3889,-30.433 481.8043,-29.8419 483.2301,-29.2357"/>
<polygon fill="#191970" stroke="#191970" points="484.871,-32.3378 492.6194,-25.112 482.0561,-25.9287 484.871,-32.3378"/>
</g>
<!-- Node40 -->
<g id="node41" class="node">
<title>Node40</title>
<polygon fill="none" stroke="#bfbfbf" points="421.5,-6 421.5,-25 470.5,-25 470.5,-6 421.5,-6"/>
<text text-anchor="middle" x="446" y="-13" font-family="Helvetica,sans-Serif" font-size="10.00" fill="#000000">cstdlib</text>
</g>
<!-- Node39&#45;&gt;Node40 -->
<g id="edge57" class="edge">
<title>Node39&#45;&gt;Node40</title>
<path fill="none" stroke="#191970" d="M366.6875,-67.3906C381.7256,-57.5519 405.3176,-42.1167 422.8667,-30.6351"/>
<polygon fill="#191970" stroke="#191970" points="424.9637,-33.4457 431.4156,-25.0419 421.1313,-27.588 424.9637,-33.4457"/>
</g>
<!-- Node41 -->
<g id="node42" class="node">
<title>Node41</title>
<polygon fill="none" stroke="#bfbfbf" points="229.5,-6 229.5,-25 312.5,-25 312.5,-6 229.5,-6"/>
<text text-anchor="middle" x="271" y="-13" font-family="Helvetica,sans-Serif" font-size="10.00" fill="#000000">initializer_list</text>
</g>
<!-- Node39&#45;&gt;Node41 -->
<g id="edge59" class="edge">
<title>Node39&#45;&gt;Node41</title>
<path fill="none" stroke="#191970" d="M339.3438,-67.3906C326.6232,-57.7324 306.7996,-42.6812 291.7716,-31.271"/>
<polygon fill="#191970" stroke="#191970" points="293.6484,-28.3015 283.5674,-25.0419 289.4154,-33.8766 293.6484,-28.3015"/>
</g>
<!-- Node42 -->
<g id="node43" class="node">
<title>Node42</title>
<polygon fill="none" stroke="#bfbfbf" points="330.5,-6 330.5,-25 403.5,-25 403.5,-6 330.5,-6"/>
<text text-anchor="middle" x="367" y="-13" font-family="Helvetica,sans-Serif" font-size="10.00" fill="#000000">string_view</text>
</g>
<!-- Node39&#45;&gt;Node42 -->
<g id="edge60" class="edge">
<title>Node39&#45;&gt;Node42</title>
<path fill="none" stroke="#191970" d="M354.3438,-67.3906C356.4449,-58.776 359.5925,-45.8708 362.223,-35.0858"/>
<polygon fill="#191970" stroke="#191970" points="365.6539,-35.7894 364.6232,-25.2449 358.8532,-34.1307 365.6539,-35.7894"/>
</g>
<!-- Node44&#45;&gt;Node1 -->
<g id="edge73" class="edge">
<title>Node44&#45;&gt;Node1</title>
<path fill="none" stroke="#191970" d="M1272.9183,-313.4369C1234.9941,-303.9133 1176.6711,-289.2672 1135.6874,-278.9753"/>
<polygon fill="#191970" stroke="#191970" points="1136.476,-275.5647 1125.9246,-276.5237 1134.771,-282.3539 1136.476,-275.5647"/>
</g>
<!-- Node44&#45;&gt;Node4 -->
<g id="edge74" class="edge">
<title>Node44&#45;&gt;Node4</title>
<path fill="none" stroke="#191970" d="M1344.7643,-313.4316C1431.7882,-287.2308 1651.5069,-210.4216 1572,-123 1544.9754,-93.2852 1290.561,-82.3275 1161.8422,-78.6615"/>
<polygon fill="#191970" stroke="#191970" points="1161.7613,-75.158 1151.6682,-78.3795 1161.5673,-82.1553 1161.7613,-75.158"/>
</g>
<!-- Node45 -->
<g id="node46" class="node">
<title>Node45</title>
<g id="a_node46"><a xlink:href="../../db/d2d/OutputSpec_8h.html" target="_top" xlink:title="Framework/OutputSpec.h">
<polygon fill="none" stroke="#000000" points="1210.5,-196 1210.5,-215 1349.5,-215 1349.5,-196 1210.5,-196"/>
<text text-anchor="middle" x="1280" y="-203" font-family="Helvetica,sans-Serif" font-size="10.00" fill="#000000">Framework/OutputSpec.h</text>
</a>
</g>
</g>
<!-- Node44&#45;&gt;Node45 -->
<g id="edge68" class="edge">
<title>Node44&#45;&gt;Node45</title>
<path fill="none" stroke="#191970" d="M1308.4631,-313.3845C1303.3767,-294.1053 1291.845,-250.3963 1285.1247,-224.9241"/>
<polygon fill="#191970" stroke="#191970" points="1288.5072,-224.0246 1282.5719,-215.2484 1281.7388,-225.8104 1288.5072,-224.0246"/>
</g>
<!-- Node46 -->
<g id="node47" class="node">
<title>Node46</title>
<g id="a_node47"><a xlink:href="../../d3/ddf/Output_8h.html" target="_top" xlink:title="Framework/Output.h">
<polygon fill="none" stroke="#000000" points="1421,-196 1421,-215 1537,-215 1537,-196 1421,-196"/>
<text text-anchor="middle" x="1479" y="-203" font-family="Helvetica,sans-Serif" font-size="10.00" fill="#000000">Framework/Output.h</text>
</a>
</g>
</g>
<!-- Node44&#45;&gt;Node46 -->
<g id="edge75" class="edge">
<title>Node44&#45;&gt;Node46</title>
<path fill="none" stroke="#191970" d="M1324.7481,-313.3845C1353.79,-293.0724 1421.604,-245.6431 1456.847,-220.9939"/>
<polygon fill="#191970" stroke="#191970" points="1458.8732,-223.8479 1465.0619,-215.2484 1454.8613,-218.1117 1458.8732,-223.8479"/>
</g>
<!-- Node47 -->
<g id="node48" class="node">
<title>Node47</title>
<polygon fill="none" stroke="#bfbfbf" points="1308,-257.5 1308,-276.5 1364,-276.5 1364,-257.5 1308,-257.5"/>
<text text-anchor="middle" x="1336" y="-264.5" font-family="Helvetica,sans-Serif" font-size="10.00" fill="#000000">optional</text>
</g>
<!-- Node44&#45;&gt;Node47 -->
<g id="edge79" class="edge">
<title>Node44&#45;&gt;Node47</title>
<path fill="none" stroke="#191970" d="M1315.3547,-313.2455C1318.7244,-305.6973 1323.493,-295.0158 1327.5983,-285.8197"/>
<polygon fill="#191970" stroke="#191970" points="1330.8147,-287.2009 1331.6952,-276.6427 1324.4227,-284.3473 1330.8147,-287.2009"/>
</g>
<!-- Node45&#45;&gt;Node2 -->
<g id="edge70" class="edge">
<title>Node45&#45;&gt;Node2</title>
<path fill="none" stroke="#191970" d="M1309.2282,-195.9005C1344.9789,-184.1589 1405.6166,-164.2436 1445.2345,-151.2318"/>
<polygon fill="#191970" stroke="#191970" points="1446.4174,-154.5273 1454.826,-148.0817 1444.2331,-147.8768 1446.4174,-154.5273"/>
</g>
<!-- Node45&#45;&gt;Node3 -->
<g id="edge71" class="edge">
<title>Node45&#45;&gt;Node3</title>
<path fill="none" stroke="#191970" d="M1252.4911,-195.9005C1218.986,-184.2086 1162.2558,-164.4122 1124.9603,-151.3976"/>
<polygon fill="#191970" stroke="#191970" points="1126.0527,-148.0719 1115.4579,-148.0817 1123.7464,-154.681 1126.0527,-148.0719"/>
</g>
<!-- Node45&#45;&gt;Node4 -->
<g id="edge69" class="edge">
<title>Node45&#45;&gt;Node4</title>
<path fill="none" stroke="#191970" d="M1280.599,-195.8711C1281.1057,-178.7732 1279.5663,-143.0314 1260,-123 1245.6334,-108.2919 1199.7513,-96.4482 1158.9875,-88.4637"/>
<polygon fill="#191970" stroke="#191970" points="1159.5074,-84.9999 1149.0292,-86.5679 1158.1982,-91.8764 1159.5074,-84.9999"/>
</g>
<!-- Node45&#45;&gt;Node36 -->
<g id="edge72" class="edge">
<title>Node45&#45;&gt;Node36</title>
<path fill="none" stroke="#191970" d="M1272.2631,-195.9005C1263.9225,-185.552 1250.4646,-168.8542 1240.2088,-156.1295"/>
<polygon fill="#191970" stroke="#191970" points="1242.7229,-153.6713 1233.7225,-148.0817 1237.2727,-158.064 1242.7229,-153.6713"/>
</g>
<!-- Node46&#45;&gt;Node2 -->
<g id="edge77" class="edge">
<title>Node46&#45;&gt;Node2</title>
<path fill="none" stroke="#191970" d="M1479.7164,-195.9005C1480.4441,-186.149 1481.5926,-170.7597 1482.5172,-158.3695"/>
<polygon fill="#191970" stroke="#191970" points="1486.031,-158.3144 1483.285,-148.0817 1479.0504,-157.7934 1486.031,-158.3144"/>
</g>
<!-- Node46&#45;&gt;Node4 -->
<g id="edge76" class="edge">
<title>Node46&#45;&gt;Node4</title>
<path fill="none" stroke="#191970" d="M1499.3639,-195.8936C1529.2739,-180.5541 1579.0634,-149.5501 1555,-123 1529.1576,-94.487 1287.0837,-83.0051 1162.0302,-78.9462"/>
<polygon fill="#191970" stroke="#191970" points="1161.8742,-75.4396 1151.7684,-78.6213 1161.6526,-82.4361 1161.8742,-75.4396"/>
</g>
<!-- Node46&#45;&gt;Node20 -->
<g id="edge78" class="edge">
<title>Node46&#45;&gt;Node20</title>
<path fill="none" stroke="#191970" d="M1461.3771,-195.9005C1440.7349,-184.6564 1406.332,-165.9166 1382.476,-152.9219"/>
<polygon fill="#191970" stroke="#191970" points="1384.0462,-149.7916 1373.5902,-148.0817 1380.6977,-155.9388 1384.0462,-149.7916"/>
</g>
</g>
</svg>
