<?xml version="1.0" encoding="UTF-8" standalone="no"?>
<!DOCTYPE svg PUBLIC "-//W3C//DTD SVG 1.1//EN"
 "http://www.w3.org/Graphics/SVG/1.1/DTD/svg11.dtd">
<!-- Generated by graphviz version 2.40.1 (20161225.0304)
 -->
<!-- Title: /home/travis/build/AliceO2Group/AliceO2/Common/MathUtils/include/MathUtils/Primitive2D.h Pages: 1 -->
<svg width="436pt" height="285pt"
 viewBox="0.00 0.00 436.22 285.00" xmlns="http://www.w3.org/2000/svg" xmlns:xlink="http://www.w3.org/1999/xlink">
<g id="graph0" class="graph" transform="scale(1 1) rotate(0) translate(4 281)">
<title>/home/travis/build/AliceO2Group/AliceO2/Common/MathUtils/include/MathUtils/Primitive2D.h</title>
<!-- Node0 -->
<g id="node1" class="node">
<title>Node0</title>
<polygon fill="#bfbfbf" stroke="#000000" points="60.7167,-224.5 60.7167,-276.5 212.7167,-276.5 212.7167,-224.5 60.7167,-224.5"/>
<text text-anchor="start" x="68.7167" y="-264.5" font-family="Helvetica,sans-Serif" font-size="10.00" fill="#000000">/home/travis/build</text>
<text text-anchor="start" x="68.7167" y="-253.5" font-family="Helvetica,sans-Serif" font-size="10.00" fill="#000000">/AliceO2Group/AliceO2</text>
<text text-anchor="start" x="68.7167" y="-242.5" font-family="Helvetica,sans-Serif" font-size="10.00" fill="#000000">/Common/MathUtils/include</text>
<text text-anchor="middle" x="136.7167" y="-231.5" font-family="Helvetica,sans-Serif" font-size="10.00" fill="#000000">/MathUtils/Primitive2D.h</text>
</g>
<!-- Node1 -->
<g id="node2" class="node">
<title>Node1</title>
<g id="a_node2"><a xlink:href="../../d2/d45/GPUCommonRtypes_8h.html" target="_top" xlink:title="GPUCommonRtypes.h">
<polygon fill="none" stroke="#000000" points="77.2167,-56.5 77.2167,-75.5 202.2167,-75.5 202.2167,-56.5 77.2167,-56.5"/>
<text text-anchor="middle" x="139.7167" y="-63.5" font-family="Helvetica,sans-Serif" font-size="10.00" fill="#000000">GPUCommonRtypes.h</text>
</a>
</g>
</g>
<!-- Node0&#45;&gt;Node1 -->
<g id="edge1" class="edge">
<title>Node0&#45;&gt;Node1</title>
<path fill="none" stroke="#191970" d="M82.9927,-224.4595C35.6395,-197.8857 -21.4796,-154.6071 8.7167,-112 18.19,-98.6331 54.5403,-86.4915 86.5527,-78.043"/>
<polygon fill="#191970" stroke="#191970" points="87.4952,-81.4146 96.3138,-75.5423 85.758,-74.6336 87.4952,-81.4146"/>
</g>
<!-- Node3 -->
<g id="node4" class="node">
<title>Node3</title>
<g id="a_node4"><a xlink:href="../../d6/d9b/CircleXY_8h.html" target="_top" xlink:title="MathUtils/detail/CircleXY.h">
<polygon fill="none" stroke="#000000" points="17.7167,-112.5 17.7167,-131.5 161.7167,-131.5 161.7167,-112.5 17.7167,-112.5"/>
<text text-anchor="middle" x="89.7167" y="-119.5" font-family="Helvetica,sans-Serif" font-size="10.00" fill="#000000">MathUtils/detail/CircleXY.h</text>
</a>
</g>
</g>
<!-- Node0&#45;&gt;Node3 -->
<g id="edge3" class="edge">
<title>Node0&#45;&gt;Node3</title>
<path fill="none" stroke="#191970" d="M120.9049,-224.4791C114.8068,-213.5308 108.2285,-200.4603 103.7167,-188 98.2333,-172.8564 94.6015,-154.9403 92.4141,-141.5986"/>
<polygon fill="#191970" stroke="#191970" points="95.8625,-140.9935 90.9075,-131.6288 88.9411,-142.0395 95.8625,-140.9935"/>
</g>
<!-- Node4 -->
<g id="node5" class="node">
<title>Node4</title>
<g id="a_node5"><a xlink:href="../../da/d66/IntervalXY_8h.html" target="_top" xlink:title="MathUtils/detail/IntervalXY.h">
<polygon fill="none" stroke="#000000" points="112.7167,-168.5 112.7167,-187.5 266.7167,-187.5 266.7167,-168.5 112.7167,-168.5"/>
<text text-anchor="middle" x="189.7167" y="-175.5" font-family="Helvetica,sans-Serif" font-size="10.00" fill="#000000">MathUtils/detail/IntervalXY.h</text>
</a>
</g>
</g>
<!-- Node0&#45;&gt;Node4 -->
<g id="edge5" class="edge">
<title>Node0&#45;&gt;Node4</title>
<path fill="none" stroke="#191970" d="M155.8509,-224.3258C162.805,-214.8132 170.4941,-204.2951 176.7857,-195.6886"/>
<polygon fill="#191970" stroke="#191970" points="179.6709,-197.6725 182.747,-187.534 174.0199,-193.5414 179.6709,-197.6725"/>
</g>
<!-- Node7 -->
<g id="node8" class="node">
<title>Node7</title>
<g id="a_node8"><a xlink:href="../../d4/d5d/Bracket_8h.html" target="_top" xlink:title="Class to represent an interval and some operations over it. ">
<polygon fill="none" stroke="#000000" points="285.2167,-168.5 285.2167,-187.5 428.2167,-187.5 428.2167,-168.5 285.2167,-168.5"/>
<text text-anchor="middle" x="356.7167" y="-175.5" font-family="Helvetica,sans-Serif" font-size="10.00" fill="#000000">MathUtils/detail/Bracket.h</text>
</a>
</g>
</g>
<!-- Node0&#45;&gt;Node7 -->
<g id="edge10" class="edge">
<title>Node0&#45;&gt;Node7</title>
<path fill="none" stroke="#191970" d="M212.7363,-225.4481C248.1772,-213.7687 288.8367,-200.3695 317.8891,-190.7955"/>
<polygon fill="#191970" stroke="#191970" points="319.2515,-194.0317 327.6536,-187.5776 317.0606,-187.3834 319.2515,-194.0317"/>
</g>
<!-- Node2 -->
<g id="node3" class="node">
<title>Node2</title>
<polygon fill="none" stroke="#bfbfbf" points="110.2167,-.5 110.2167,-19.5 169.2167,-19.5 169.2167,-.5 110.2167,-.5"/>
<text text-anchor="middle" x="139.7167" y="-7.5" font-family="Helvetica,sans-Serif" font-size="10.00" fill="#000000">Rtypes.h</text>
</g>
<!-- Node1&#45;&gt;Node2 -->
<g id="edge2" class="edge">
<title>Node1&#45;&gt;Node2</title>
<path fill="none" stroke="#191970" d="M139.7167,-56.2455C139.7167,-48.9382 139.7167,-38.6944 139.7167,-29.7046"/>
<polygon fill="#191970" stroke="#191970" points="143.2168,-29.6426 139.7167,-19.6427 136.2168,-29.6427 143.2168,-29.6426"/>
</g>
<!-- Node3&#45;&gt;Node1 -->
<g id="edge4" class="edge">
<title>Node3&#45;&gt;Node1</title>
<path fill="none" stroke="#191970" d="M98.426,-112.2455C105.524,-104.2958 115.7251,-92.8706 124.2117,-83.3656"/>
<polygon fill="#191970" stroke="#191970" points="127.0578,-85.4331 131.1072,-75.6427 121.8362,-80.771 127.0578,-85.4331"/>
</g>
<!-- Node4&#45;&gt;Node1 -->
<g id="edge6" class="edge">
<title>Node4&#45;&gt;Node1</title>
<path fill="none" stroke="#191970" d="M187.9101,-168.2637C185.2441,-155.0807 179.5917,-131.0167 170.7167,-112 166.1107,-102.1306 159.5243,-92.0038 153.6061,-83.7731"/>
<polygon fill="#191970" stroke="#191970" points="156.3581,-81.6087 147.5719,-75.6881 150.7482,-85.7956 156.3581,-81.6087"/>
</g>
<!-- Node4&#45;&gt;Node3 -->
<g id="edge9" class="edge">
<title>Node4&#45;&gt;Node3</title>
<path fill="none" stroke="#191970" d="M172.298,-168.2455C156.6682,-159.4928 133.5149,-146.527 115.6982,-136.5496"/>
<polygon fill="#191970" stroke="#191970" points="117.371,-133.475 106.9358,-131.6427 113.9507,-139.5825 117.371,-133.475"/>
</g>
<!-- Node5 -->
<g id="node6" class="node">
<title>Node5</title>
<polygon fill="none" stroke="#bfbfbf" points="218.2167,-112.5 218.2167,-131.5 265.2167,-131.5 265.2167,-112.5 218.2167,-112.5"/>
<text text-anchor="middle" x="241.7167" y="-119.5" font-family="Helvetica,sans-Serif" font-size="10.00" fill="#000000">cmath</text>
</g>
<!-- Node4&#45;&gt;Node5 -->
<g id="edge7" class="edge">
<title>Node4&#45;&gt;Node5</title>
<path fill="none" stroke="#191970" d="M198.7744,-168.2455C206.2309,-160.2155 216.9801,-148.6394 225.8584,-139.0781"/>
<polygon fill="#191970" stroke="#191970" points="228.523,-141.3522 232.7628,-131.6427 223.3935,-136.589 228.523,-141.3522"/>
</g>
<!-- Node6 -->
<g id="node7" class="node">
<title>Node6</title>
<polygon fill="none" stroke="#bfbfbf" points="283.2167,-112.5 283.2167,-131.5 324.2167,-131.5 324.2167,-112.5 283.2167,-112.5"/>
<text text-anchor="middle" x="303.7167" y="-119.5" font-family="Helvetica,sans-Serif" font-size="10.00" fill="#000000">tuple</text>
</g>
<!-- Node4&#45;&gt;Node6 -->
<g id="edge8" class="edge">
<title>Node4&#45;&gt;Node6</title>
<path fill="none" stroke="#191970" d="M209.314,-168.3733C227.4499,-159.4644 254.6302,-146.1127 275.1754,-136.0203"/>
<polygon fill="#191970" stroke="#191970" points="276.9428,-139.0517 284.3751,-131.5011 273.8564,-132.7688 276.9428,-139.0517"/>
</g>
<!-- Node7&#45;&gt;Node1 -->
<g id="edge11" class="edge">
<title>Node7&#45;&gt;Node1</title>
<path fill="none" stroke="#191970" d="M356.1722,-168.3527C354.8202,-153.9121 350.1121,-126.7953 333.7167,-112 315.7831,-95.8166 259.7384,-83.6063 212.47,-75.8473"/>
<polygon fill="#191970" stroke="#191970" points="212.9606,-72.3814 202.5335,-74.2594 211.8559,-79.2937 212.9606,-72.3814"/>
</g>
</g>
</svg>
