<?xml version="1.0" encoding="UTF-8" standalone="no"?>
<!DOCTYPE svg PUBLIC "-//W3C//DTD SVG 1.1//EN"
 "http://www.w3.org/Graphics/SVG/1.1/DTD/svg11.dtd">
<!-- Generated by graphviz version 2.40.1 (20161225.0304)
 -->
<!-- Title: /home/travis/build/AliceO2Group/AliceO2/Utilities/DataSampling/include/DataSampling/DataSampling.h Pages: 1 -->
<svg width="1313pt" height="150pt"
 viewBox="0.00 0.00 1312.50 150.00" xmlns="http://www.w3.org/2000/svg" xmlns:xlink="http://www.w3.org/1999/xlink">
<g id="graph0" class="graph" transform="scale(1 1) rotate(0) translate(4 146)">
<title>/home/travis/build/AliceO2Group/AliceO2/Utilities/DataSampling/include/DataSampling/DataSampling.h</title>
<!-- Node132 -->
<g id="node1" class="node">
<title>Node132</title>
<polygon fill="#bfbfbf" stroke="#000000" points="527,-89.5 527,-141.5 735,-141.5 735,-89.5 527,-89.5"/>
<text text-anchor="start" x="535" y="-129.5" font-family="Helvetica,sans-Serif" font-size="10.00" fill="#000000">/home/travis/build</text>
<text text-anchor="start" x="535" y="-118.5" font-family="Helvetica,sans-Serif" font-size="10.00" fill="#000000">/AliceO2Group/AliceO2</text>
<text text-anchor="start" x="535" y="-107.5" font-family="Helvetica,sans-Serif" font-size="10.00" fill="#000000">/Utilities/DataSampling</text>
<text text-anchor="middle" x="631" y="-96.5" font-family="Helvetica,sans-Serif" font-size="10.00" fill="#000000">/include/DataSampling/DataSampling.h</text>
</g>
<!-- Node133 -->
<g id="node2" class="node">
<title>Node133</title>
<g id="a_node2"><a xlink:href="../../d0/dd6/DataSampling_8cxx.html" target="_top" xlink:title="Implementation of O2 Data Sampling, v1.0. ">
<polygon fill="none" stroke="#000000" points="0,-.5 0,-52.5 130,-52.5 130,-.5 0,-.5"/>
<text text-anchor="start" x="8" y="-40.5" font-family="Helvetica,sans-Serif" font-size="10.00" fill="#000000">/home/travis/build</text>
<text text-anchor="start" x="8" y="-29.5" font-family="Helvetica,sans-Serif" font-size="10.00" fill="#000000">/AliceO2Group/AliceO2</text>
<text text-anchor="start" x="8" y="-18.5" font-family="Helvetica,sans-Serif" font-size="10.00" fill="#000000">/Utilities/DataSampling</text>
<text text-anchor="middle" x="65" y="-7.5" font-family="Helvetica,sans-Serif" font-size="10.00" fill="#000000">/src/DataSampling.cxx</text>
</a>
</g>
</g>
<!-- Node132&#45;&gt;Node133 -->
<g id="edge1" class="edge">
<title>Node132&#45;&gt;Node133</title>
<path fill="none" stroke="#191970" d="M516.4503,-108.0362C415.9176,-99.812 266.3,-83.4945 139,-53 136.0804,-52.3006 133.1162,-51.5257 130.1364,-50.6935"/>
<polygon fill="#191970" stroke="#191970" points="516.3832,-111.542 526.6317,-108.8552 516.9445,-104.5646 516.3832,-111.542"/>
</g>
<!-- Node134 -->
<g id="node3" class="node">
<title>Node134</title>
<g id="a_node3"><a xlink:href="../../d1/d4d/dataSamplingStandalone_8cxx.html" target="_top" xlink:title="/home/travis/build\l/AliceO2Group/AliceO2\l/Utilities/DataSampling\l/src/dataSamplingStandalone.cxx">
<polygon fill="none" stroke="#000000" points="148.5,-.5 148.5,-52.5 327.5,-52.5 327.5,-.5 148.5,-.5"/>
<text text-anchor="start" x="156.5" y="-40.5" font-family="Helvetica,sans-Serif" font-size="10.00" fill="#000000">/home/travis/build</text>
<text text-anchor="start" x="156.5" y="-29.5" font-family="Helvetica,sans-Serif" font-size="10.00" fill="#000000">/AliceO2Group/AliceO2</text>
<text text-anchor="start" x="156.5" y="-18.5" font-family="Helvetica,sans-Serif" font-size="10.00" fill="#000000">/Utilities/DataSampling</text>
<text text-anchor="middle" x="238" y="-7.5" font-family="Helvetica,sans-Serif" font-size="10.00" fill="#000000">/src/dataSamplingStandalone.cxx</text>
</a>
</g>
</g>
<!-- Node132&#45;&gt;Node134 -->
<g id="edge2" class="edge">
<title>Node132&#45;&gt;Node134</title>
<path fill="none" stroke="#191970" d="M516.8258,-92.8443C461.9812,-81.5705 395.4127,-67.315 336,-53 333.2585,-52.3395 330.4768,-51.658 327.6708,-50.9607"/>
<polygon fill="#191970" stroke="#191970" points="516.4266,-96.3352 526.9257,-94.914 517.8319,-89.4777 516.4266,-96.3352"/>
</g>
<!-- Node135 -->
<g id="node4" class="node">
<title>Node135</title>
<g id="a_node4"><a xlink:href="../../d2/d23/dataSamplingBenchmark_8cxx.html" target="_top" xlink:title="/home/travis/build\l/AliceO2Group/AliceO2\l/Utilities/DataSampling\l/test/dataSamplingBenchmark.cxx">
<polygon fill="none" stroke="#000000" points="345.5,-.5 345.5,-52.5 530.5,-52.5 530.5,-.5 345.5,-.5"/>
<text text-anchor="start" x="353.5" y="-40.5" font-family="Helvetica,sans-Serif" font-size="10.00" fill="#000000">/home/travis/build</text>
<text text-anchor="start" x="353.5" y="-29.5" font-family="Helvetica,sans-Serif" font-size="10.00" fill="#000000">/AliceO2Group/AliceO2</text>
<text text-anchor="start" x="353.5" y="-18.5" font-family="Helvetica,sans-Serif" font-size="10.00" fill="#000000">/Utilities/DataSampling</text>
<text text-anchor="middle" x="438" y="-7.5" font-family="Helvetica,sans-Serif" font-size="10.00" fill="#000000">/test/dataSamplingBenchmark.cxx</text>
</a>
</g>
</g>
<!-- Node132&#45;&gt;Node135 -->
<g id="edge3" class="edge">
<title>Node132&#45;&gt;Node135</title>
<path fill="none" stroke="#191970" d="M565.0884,-85.1055C542.1747,-74.5391 516.6947,-62.7893 494.6013,-52.6011"/>
<polygon fill="#191970" stroke="#191970" points="563.851,-88.3891 574.3977,-89.3984 566.7824,-82.0324 563.851,-88.3891"/>
</g>
<!-- Node136 -->
<g id="node5" class="node">
<title>Node136</title>
<g id="a_node5"><a xlink:href="../../d3/dbe/dataSamplingParallel_8cxx.html" target="_top" xlink:title="/home/travis/build\l/AliceO2Group/AliceO2\l/Utilities/DataSampling\l/test/dataSamplingParallel.cxx">
<polygon fill="none" stroke="#000000" points="548.5,-.5 548.5,-52.5 713.5,-52.5 713.5,-.5 548.5,-.5"/>
<text text-anchor="start" x="556.5" y="-40.5" font-family="Helvetica,sans-Serif" font-size="10.00" fill="#000000">/home/travis/build</text>
<text text-anchor="start" x="556.5" y="-29.5" font-family="Helvetica,sans-Serif" font-size="10.00" fill="#000000">/AliceO2Group/AliceO2</text>
<text text-anchor="start" x="556.5" y="-18.5" font-family="Helvetica,sans-Serif" font-size="10.00" fill="#000000">/Utilities/DataSampling</text>
<text text-anchor="middle" x="631" y="-7.5" font-family="Helvetica,sans-Serif" font-size="10.00" fill="#000000">/test/dataSamplingParallel.cxx</text>
</a>
</g>
</g>
<!-- Node132&#45;&gt;Node136 -->
<g id="edge4" class="edge">
<title>Node132&#45;&gt;Node136</title>
<path fill="none" stroke="#191970" d="M631,-79.1155C631,-70.2061 631,-60.8475 631,-52.5341"/>
<polygon fill="#191970" stroke="#191970" points="627.5001,-79.2784 631,-89.2784 634.5001,-79.2785 627.5001,-79.2784"/>
</g>
<!-- Node137 -->
<g id="node6" class="node">
<title>Node137</title>
<g id="a_node6"><a xlink:href="../../de/da3/dataSamplingPodAndRoot_8cxx.html" target="_top" xlink:title="/home/travis/build\l/AliceO2Group/AliceO2\l/Utilities/DataSampling\l/test/dataSamplingPodAndRoot.cxx">
<polygon fill="none" stroke="#000000" points="732,-.5 732,-52.5 920,-52.5 920,-.5 732,-.5"/>
<text text-anchor="start" x="740" y="-40.5" font-family="Helvetica,sans-Serif" font-size="10.00" fill="#000000">/home/travis/build</text>
<text text-anchor="start" x="740" y="-29.5" font-family="Helvetica,sans-Serif" font-size="10.00" fill="#000000">/AliceO2Group/AliceO2</text>
<text text-anchor="start" x="740" y="-18.5" font-family="Helvetica,sans-Serif" font-size="10.00" fill="#000000">/Utilities/DataSampling</text>
<text text-anchor="middle" x="826" y="-7.5" font-family="Helvetica,sans-Serif" font-size="10.00" fill="#000000">/test/dataSamplingPodAndRoot.cxx</text>
</a>
</g>
</g>
<!-- Node132&#45;&gt;Node137 -->
<g id="edge5" class="edge">
<title>Node132&#45;&gt;Node137</title>
<path fill="none" stroke="#191970" d="M697.5946,-85.1055C720.7457,-74.5391 746.4898,-62.7893 768.8122,-52.6011"/>
<polygon fill="#191970" stroke="#191970" points="695.8329,-82.0622 688.1889,-89.3984 698.7394,-88.4303 695.8329,-82.0622"/>
</g>
<!-- Node138 -->
<g id="node7" class="node">
<title>Node138</title>
<g id="a_node7"><a xlink:href="../../db/d9e/dataSamplingTimePipeline_8cxx.html" target="_top" xlink:title="/home/travis/build\l/AliceO2Group/AliceO2\l/Utilities/DataSampling\l/test/dataSamplingTimePipeline.cxx">
<polygon fill="none" stroke="#000000" points="938.5,-.5 938.5,-52.5 1131.5,-52.5 1131.5,-.5 938.5,-.5"/>
<text text-anchor="start" x="946.5" y="-40.5" font-family="Helvetica,sans-Serif" font-size="10.00" fill="#000000">/home/travis/build</text>
<text text-anchor="start" x="946.5" y="-29.5" font-family="Helvetica,sans-Serif" font-size="10.00" fill="#000000">/AliceO2Group/AliceO2</text>
<text text-anchor="start" x="946.5" y="-18.5" font-family="Helvetica,sans-Serif" font-size="10.00" fill="#000000">/Utilities/DataSampling</text>
<text text-anchor="middle" x="1035" y="-7.5" font-family="Helvetica,sans-Serif" font-size="10.00" fill="#000000">/test/dataSamplingTimePipeline.cxx</text>
</a>
</g>
</g>
<!-- Node132&#45;&gt;Node138 -->
<g id="edge6" class="edge">
<title>Node132&#45;&gt;Node138</title>
<path fill="none" stroke="#191970" d="M745.2109,-92.6122C800.7802,-81.2047 868.4916,-66.9035 929,-53 932.0504,-52.2991 935.148,-51.5784 938.2739,-50.8435"/>
<polygon fill="#191970" stroke="#191970" points="744.4311,-89.1992 735.337,-94.635 745.836,-96.0568 744.4311,-89.1992"/>
</g>
<!-- Node139 -->
<g id="node8" class="node">
<title>Node139</title>
<g id="a_node8"><a xlink:href="../../d1/de8/test__DataSampling_8cxx.html" target="_top" xlink:title="/home/travis/build\l/AliceO2Group/AliceO2\l/Utilities/DataSampling\l/test/test_DataSampling.cxx">
<polygon fill="none" stroke="#000000" points="1149.5,-.5 1149.5,-52.5 1304.5,-52.5 1304.5,-.5 1149.5,-.5"/>
<text text-anchor="start" x="1157.5" y="-40.5" font-family="Helvetica,sans-Serif" font-size="10.00" fill="#000000">/home/travis/build</text>
<text text-anchor="start" x="1157.5" y="-29.5" font-family="Helvetica,sans-Serif" font-size="10.00" fill="#000000">/AliceO2Group/AliceO2</text>
<text text-anchor="start" x="1157.5" y="-18.5" font-family="Helvetica,sans-Serif" font-size="10.00" fill="#000000">/Utilities/DataSampling</text>
<text text-anchor="middle" x="1227" y="-7.5" font-family="Helvetica,sans-Serif" font-size="10.00" fill="#000000">/test/test_DataSampling.cxx</text>
</a>
</g>
</g>
<!-- Node132&#45;&gt;Node139 -->
<g id="edge7" class="edge">
<title>Node132&#45;&gt;Node139</title>
<path fill="none" stroke="#191970" d="M745.6422,-107.2849C849.6403,-98.4558 1006.7641,-81.6709 1141,-53 1143.7502,-52.4126 1146.5388,-51.7768 1149.3468,-51.1023"/>
<polygon fill="#191970" stroke="#191970" points="745.1052,-103.8176 735.4325,-108.1406 745.6899,-110.7931 745.1052,-103.8176"/>
</g>
</g>
</svg>
