<?xml version="1.0" encoding="UTF-8" standalone="no"?>
<!DOCTYPE svg PUBLIC "-//W3C//DTD SVG 1.1//EN"
 "http://www.w3.org/Graphics/SVG/1.1/DTD/svg11.dtd">
<!-- Generated by graphviz version 2.40.1 (20161225.0304)
 -->
<!-- Title: /home/travis/build/AliceO2Group/AliceO2/Detectors/PHOS/reconstruction/src/FullCluster.cxx Pages: 1 -->
<svg width="1044pt" height="441pt"
 viewBox="0.00 0.00 1044.00 441.00" xmlns="http://www.w3.org/2000/svg" xmlns:xlink="http://www.w3.org/1999/xlink">
<g id="graph0" class="graph" transform="scale(1 1) rotate(0) translate(4 437)">
<title>/home/travis/build/AliceO2Group/AliceO2/Detectors/PHOS/reconstruction/src/FullCluster.cxx</title>
<!-- Node0 -->
<g id="node1" class="node">
<title>Node0</title>
<polygon fill="#bfbfbf" stroke="#000000" points="380,-380.5 380,-432.5 550,-432.5 550,-380.5 380,-380.5"/>
<text text-anchor="start" x="388" y="-420.5" font-family="Helvetica,sans-Serif" font-size="10.00" fill="#000000">/home/travis/build</text>
<text text-anchor="start" x="388" y="-409.5" font-family="Helvetica,sans-Serif" font-size="10.00" fill="#000000">/AliceO2Group/AliceO2</text>
<text text-anchor="start" x="388" y="-398.5" font-family="Helvetica,sans-Serif" font-size="10.00" fill="#000000">/Detectors/PHOS/reconstruction</text>
<text text-anchor="middle" x="465" y="-387.5" font-family="Helvetica,sans-Serif" font-size="10.00" fill="#000000">/src/FullCluster.cxx</text>
</g>
<!-- Node1 -->
<g id="node2" class="node">
<title>Node1</title>
<g id="a_node2"><a xlink:href="../../d8/d50/DataFormats_2Detectors_2PHOS_2include_2DataFormatsPHOS_2Cluster_8h.html" target="_top" xlink:title="DataFormatsPHOS/Cluster.h">
<polygon fill="none" stroke="#000000" points="0,-252 0,-271 152,-271 152,-252 0,-252"/>
<text text-anchor="middle" x="76" y="-259" font-family="Helvetica,sans-Serif" font-size="10.00" fill="#000000">DataFormatsPHOS/Cluster.h</text>
</a>
</g>
</g>
<!-- Node0&#45;&gt;Node1 -->
<g id="edge1" class="edge">
<title>Node0&#45;&gt;Node1</title>
<path fill="none" stroke="#191970" d="M379.7067,-398.2464C321.0295,-390.1229 242.5293,-374.3161 179,-344 144.4431,-327.5095 111.1084,-297.3894 92.1279,-278.4635"/>
<polygon fill="#191970" stroke="#191970" points="94.4131,-275.7952 84.9105,-271.1101 89.4174,-280.6985 94.4131,-275.7952"/>
</g>
<!-- Node10 -->
<g id="node11" class="node">
<title>Node10</title>
<g id="a_node11"><a xlink:href="../../d3/d32/PHOS_2reconstruction_2include_2PHOSReconstruction_2FullCluster_8h.html" target="_top" xlink:title="PHOSReconstruction\l/FullCluster.h">
<polygon fill="none" stroke="#000000" points="188,-313.5 188,-343.5 304,-343.5 304,-313.5 188,-313.5"/>
<text text-anchor="start" x="196" y="-331.5" font-family="Helvetica,sans-Serif" font-size="10.00" fill="#000000">PHOSReconstruction</text>
<text text-anchor="middle" x="246" y="-320.5" font-family="Helvetica,sans-Serif" font-size="10.00" fill="#000000">/FullCluster.h</text>
</a>
</g>
</g>
<!-- Node0&#45;&gt;Node10 -->
<g id="edge10" class="edge">
<title>Node0&#45;&gt;Node10</title>
<path fill="none" stroke="#191970" d="M391.7717,-380.4187C360.9607,-369.4449 325.8304,-356.9328 297.7779,-346.9414"/>
<polygon fill="#191970" stroke="#191970" points="298.7639,-343.5773 288.1692,-343.5192 296.4152,-350.1715 298.7639,-343.5773"/>
</g>
<!-- Node13 -->
<g id="node14" class="node">
<title>Node13</title>
<g id="a_node14"><a xlink:href="../../d7/d7f/PHOS_2base_2include_2PHOSBase_2Geometry_8h.html" target="_top" xlink:title="PHOSBase/Geometry.h">
<polygon fill="none" stroke="#000000" points="401.5,-319 401.5,-338 528.5,-338 528.5,-319 401.5,-319"/>
<text text-anchor="middle" x="465" y="-326" font-family="Helvetica,sans-Serif" font-size="10.00" fill="#000000">PHOSBase/Geometry.h</text>
</a>
</g>
</g>
<!-- Node0&#45;&gt;Node13 -->
<g id="edge16" class="edge">
<title>Node0&#45;&gt;Node13</title>
<path fill="none" stroke="#191970" d="M465,-380.0928C465,-369.6735 465,-357.911 465,-348.2512"/>
<polygon fill="#191970" stroke="#191970" points="468.5001,-348.0838 465,-338.0839 461.5001,-348.0839 468.5001,-348.0838"/>
</g>
<!-- Node17 -->
<g id="node18" class="node">
<title>Node17</title>
<g id="a_node18"><a xlink:href="../../df/d62/PHOSSimParams_8h.html" target="_top" xlink:title="PHOSBase/PHOSSimParams.h">
<polygon fill="none" stroke="#000000" points="591.5,-319 591.5,-338 752.5,-338 752.5,-319 591.5,-319"/>
<text text-anchor="middle" x="672" y="-326" font-family="Helvetica,sans-Serif" font-size="10.00" fill="#000000">PHOSBase/PHOSSimParams.h</text>
</a>
</g>
</g>
<!-- Node0&#45;&gt;Node17 -->
<g id="edge21" class="edge">
<title>Node0&#45;&gt;Node17</title>
<path fill="none" stroke="#191970" d="M534.2158,-380.4187C568.8056,-367.3849 609.1547,-352.1808 637.2136,-341.6079"/>
<polygon fill="#191970" stroke="#191970" points="638.4727,-344.8738 646.5963,-338.0724 636.0044,-338.3234 638.4727,-344.8738"/>
</g>
<!-- Node29 -->
<g id="node30" class="node">
<title>Node29</title>
<polygon fill="none" stroke="#bfbfbf" points="770.5,-319 770.5,-338 845.5,-338 845.5,-319 770.5,-319"/>
<text text-anchor="middle" x="808" y="-326" font-family="Helvetica,sans-Serif" font-size="10.00" fill="#000000">FairLogger.h</text>
</g>
<!-- Node0&#45;&gt;Node29 -->
<g id="edge35" class="edge">
<title>Node0&#45;&gt;Node29</title>
<path fill="none" stroke="#191970" d="M550.1194,-391.1147C609.5954,-379.7352 690.6378,-362.9685 761,-344 764.3365,-343.1005 767.7847,-342.1011 771.2271,-341.0554"/>
<polygon fill="#191970" stroke="#191970" points="772.3324,-344.3768 780.8159,-338.03 770.2261,-337.7012 772.3324,-344.3768"/>
</g>
<!-- Node2 -->
<g id="node3" class="node">
<title>Node2</title>
<g id="a_node3"><a xlink:href="../../d3/d98/DataFormats_2Detectors_2PHOS_2include_2DataFormatsPHOS_2Digit_8h.html" target="_top" xlink:title="DataFormatsPHOS/Digit.h">
<polygon fill="none" stroke="#000000" points="61,-185 61,-204 203,-204 203,-185 61,-185"/>
<text text-anchor="middle" x="132" y="-192" font-family="Helvetica,sans-Serif" font-size="10.00" fill="#000000">DataFormatsPHOS/Digit.h</text>
</a>
</g>
</g>
<!-- Node1&#45;&gt;Node2 -->
<g id="edge2" class="edge">
<title>Node1&#45;&gt;Node2</title>
<path fill="none" stroke="#191970" d="M84.0234,-251.9005C92.7561,-241.4525 106.8982,-224.5325 117.5708,-211.7635"/>
<polygon fill="#191970" stroke="#191970" points="120.2638,-213.9991 123.9914,-204.0817 114.8928,-209.5099 120.2638,-213.9991"/>
</g>
<!-- Node3 -->
<g id="node4" class="node">
<title>Node3</title>
<polygon fill="none" stroke="#bfbfbf" points="79.5,-118 79.5,-137 126.5,-137 126.5,-118 79.5,-118"/>
<text text-anchor="middle" x="103" y="-125" font-family="Helvetica,sans-Serif" font-size="10.00" fill="#000000">cmath</text>
</g>
<!-- Node2&#45;&gt;Node3 -->
<g id="edge3" class="edge">
<title>Node2&#45;&gt;Node3</title>
<path fill="none" stroke="#191970" d="M127.845,-184.9005C123.5381,-174.95 116.6903,-159.1292 111.2735,-146.6147"/>
<polygon fill="#191970" stroke="#191970" points="114.3316,-144.8686 107.1473,-137.0817 107.9075,-147.6492 114.3316,-144.8686"/>
</g>
<!-- Node4 -->
<g id="node5" class="node">
<title>Node4</title>
<g id="a_node5"><a xlink:href="../../df/d5d/common_2include_2CommonDataFormat_2TimeStamp_8h.html" target="_top" xlink:title="CommonDataFormat/TimeStamp.h">
<polygon fill="none" stroke="#000000" points="144.5,-118 144.5,-137 331.5,-137 331.5,-118 144.5,-118"/>
<text text-anchor="middle" x="238" y="-125" font-family="Helvetica,sans-Serif" font-size="10.00" fill="#000000">CommonDataFormat/TimeStamp.h</text>
</a>
</g>
</g>
<!-- Node2&#45;&gt;Node4 -->
<g id="edge4" class="edge">
<title>Node2&#45;&gt;Node4</title>
<path fill="none" stroke="#191970" d="M147.1872,-184.9005C164.7403,-173.8057 193.8394,-155.4128 214.3598,-142.4424"/>
<polygon fill="#191970" stroke="#191970" points="216.258,-145.3832 222.841,-137.0817 212.5179,-139.4661 216.258,-145.3832"/>
</g>
<!-- Node5 -->
<g id="node6" class="node">
<title>Node5</title>
<g id="a_node6"><a xlink:href="../../d2/d45/GPUCommonRtypes_8h.html" target="_top" xlink:title="GPUCommonRtypes.h">
<polygon fill="none" stroke="#000000" points="305.5,-56.5 305.5,-75.5 430.5,-75.5 430.5,-56.5 305.5,-56.5"/>
<text text-anchor="middle" x="368" y="-63.5" font-family="Helvetica,sans-Serif" font-size="10.00" fill="#000000">GPUCommonRtypes.h</text>
</a>
</g>
</g>
<!-- Node4&#45;&gt;Node5 -->
<g id="edge5" class="edge">
<title>Node4&#45;&gt;Node5</title>
<path fill="none" stroke="#191970" d="M258.3125,-117.8906C279.8731,-107.6908 314.1478,-91.4763 338.6444,-79.8875"/>
<polygon fill="#191970" stroke="#191970" points="340.2874,-82.9822 347.8301,-75.5419 337.2939,-76.6545 340.2874,-82.9822"/>
</g>
<!-- Node7 -->
<g id="node8" class="node">
<title>Node7</title>
<g id="a_node8"><a xlink:href="../../df/d21/GPUCommonDef_8h.html" target="_top" xlink:title="GPUCommonDef.h">
<polygon fill="none" stroke="#000000" points="180.5,-56.5 180.5,-75.5 287.5,-75.5 287.5,-56.5 180.5,-56.5"/>
<text text-anchor="middle" x="234" y="-63.5" font-family="Helvetica,sans-Serif" font-size="10.00" fill="#000000">GPUCommonDef.h</text>
</a>
</g>
</g>
<!-- Node4&#45;&gt;Node7 -->
<g id="edge7" class="edge">
<title>Node4&#45;&gt;Node7</title>
<path fill="none" stroke="#191970" d="M237.375,-117.8906C236.8205,-109.3657 235.9928,-96.6392 235.2958,-85.9235"/>
<polygon fill="#191970" stroke="#191970" points="238.7756,-85.4966 234.6338,-75.7449 231.7903,-85.951 238.7756,-85.4966"/>
</g>
<!-- Node6 -->
<g id="node7" class="node">
<title>Node6</title>
<polygon fill="none" stroke="#bfbfbf" points="409.5,-.5 409.5,-19.5 468.5,-19.5 468.5,-.5 409.5,-.5"/>
<text text-anchor="middle" x="439" y="-7.5" font-family="Helvetica,sans-Serif" font-size="10.00" fill="#000000">Rtypes.h</text>
</g>
<!-- Node5&#45;&gt;Node6 -->
<g id="edge6" class="edge">
<title>Node5&#45;&gt;Node6</title>
<path fill="none" stroke="#191970" d="M380.3673,-56.2455C390.9554,-47.8943 406.4064,-35.7076 418.7893,-25.9408"/>
<polygon fill="#191970" stroke="#191970" points="421.0903,-28.5837 426.7745,-19.6427 416.7553,-23.0875 421.0903,-28.5837"/>
</g>
<!-- Node8 -->
<g id="node9" class="node">
<title>Node8</title>
<g id="a_node9"><a xlink:href="../../d5/d93/GPUCommonDefSettings_8h.html" target="_top" xlink:title="GPUCommonDefSettings.h">
<polygon fill="none" stroke="#000000" points="34,-.5 34,-19.5 182,-19.5 182,-.5 34,-.5"/>
<text text-anchor="middle" x="108" y="-7.5" font-family="Helvetica,sans-Serif" font-size="10.00" fill="#000000">GPUCommonDefSettings.h</text>
</a>
</g>
</g>
<!-- Node7&#45;&gt;Node8 -->
<g id="edge8" class="edge">
<title>Node7&#45;&gt;Node8</title>
<path fill="none" stroke="#191970" d="M212.3398,-56.3733C192.0228,-47.3435 161.436,-33.7494 138.625,-23.6111"/>
<polygon fill="#191970" stroke="#191970" points="139.9372,-20.3642 129.3775,-19.5011 137.0941,-26.7609 139.9372,-20.3642"/>
</g>
<!-- Node9 -->
<g id="node10" class="node">
<title>Node9</title>
<g id="a_node10"><a xlink:href="../../da/d5a/GPUCommonDefAPI_8h.html" target="_top" xlink:title="GPUCommonDefAPI.h">
<polygon fill="none" stroke="#000000" points="200,-.5 200,-19.5 324,-19.5 324,-.5 200,-.5"/>
<text text-anchor="middle" x="262" y="-7.5" font-family="Helvetica,sans-Serif" font-size="10.00" fill="#000000">GPUCommonDefAPI.h</text>
</a>
</g>
</g>
<!-- Node7&#45;&gt;Node9 -->
<g id="edge9" class="edge">
<title>Node7&#45;&gt;Node9</title>
<path fill="none" stroke="#191970" d="M238.8772,-56.2455C242.6513,-48.6973 247.9921,-38.0158 252.5901,-28.8197"/>
<polygon fill="#191970" stroke="#191970" points="255.837,-30.1522 257.1787,-19.6427 249.576,-27.0217 255.837,-30.1522"/>
</g>
<!-- Node10&#45;&gt;Node1 -->
<g id="edge13" class="edge">
<title>Node10&#45;&gt;Node1</title>
<path fill="none" stroke="#191970" d="M207.8487,-313.4639C178.4255,-301.8677 138.1107,-285.9789 109.8314,-274.8335"/>
<polygon fill="#191970" stroke="#191970" points="110.955,-271.5144 100.3682,-271.1039 108.3883,-278.0269 110.955,-271.5144"/>
</g>
<!-- Node10&#45;&gt;Node2 -->
<g id="edge12" class="edge">
<title>Node10&#45;&gt;Node2</title>
<path fill="none" stroke="#191970" d="M246.1181,-313.2419C245.5003,-295.3923 242.0363,-265.7713 227,-246 213.593,-228.3711 192.3486,-216.0494 173.3463,-207.889"/>
<polygon fill="#191970" stroke="#191970" points="174.5391,-204.5961 163.9557,-204.1037 171.922,-211.0885 174.5391,-204.5961"/>
</g>
<!-- Node11 -->
<g id="node12" class="node">
<title>Node11</title>
<polygon fill="none" stroke="#bfbfbf" points="170,-252 170,-271 218,-271 218,-252 170,-252"/>
<text text-anchor="middle" x="194" y="-259" font-family="Helvetica,sans-Serif" font-size="10.00" fill="#000000">gsl/gsl</text>
</g>
<!-- Node10&#45;&gt;Node11 -->
<g id="edge11" class="edge">
<title>Node10&#45;&gt;Node11</title>
<path fill="none" stroke="#191970" d="M234.2004,-313.2967C226.3345,-303.1618 215.9673,-289.804 207.7312,-279.1921"/>
<polygon fill="#191970" stroke="#191970" points="210.312,-276.8089 201.4158,-271.055 204.7821,-281.1008 210.312,-276.8089"/>
</g>
<!-- Node12 -->
<g id="node13" class="node">
<title>Node12</title>
<g id="a_node13"><a xlink:href="../../d7/dcd/MCCompLabel_8h.html" target="_top" xlink:title="SimulationDataFormat\l/MCCompLabel.h">
<polygon fill="none" stroke="#000000" points="248.5,-179.5 248.5,-209.5 375.5,-209.5 375.5,-179.5 248.5,-179.5"/>
<text text-anchor="start" x="256.5" y="-197.5" font-family="Helvetica,sans-Serif" font-size="10.00" fill="#000000">SimulationDataFormat</text>
<text text-anchor="middle" x="312" y="-186.5" font-family="Helvetica,sans-Serif" font-size="10.00" fill="#000000">/MCCompLabel.h</text>
</a>
</g>
</g>
<!-- Node10&#45;&gt;Node12 -->
<g id="edge14" class="edge">
<title>Node10&#45;&gt;Node12</title>
<path fill="none" stroke="#191970" d="M253.4427,-313.389C264.7817,-290.3676 286.4932,-246.2866 300.056,-218.7499"/>
<polygon fill="#191970" stroke="#191970" points="303.2045,-220.2788 304.4832,-209.7614 296.9248,-217.1858 303.2045,-220.2788"/>
</g>
<!-- Node12&#45;&gt;Node5 -->
<g id="edge15" class="edge">
<title>Node12&#45;&gt;Node5</title>
<path fill="none" stroke="#191970" d="M320.9409,-179.4789C326.7667,-169.3647 334.3136,-155.6187 340,-143 348.6418,-123.8228 356.6426,-101.1084 361.8594,-85.3419"/>
<polygon fill="#191970" stroke="#191970" points="365.2419,-86.2576 365,-75.6656 358.5838,-84.0967 365.2419,-86.2576"/>
</g>
<!-- Node13&#45;&gt;Node6 -->
<g id="edge18" class="edge">
<title>Node13&#45;&gt;Node6</title>
<path fill="none" stroke="#191970" d="M469.0464,-318.9478C477.8584,-297.2512 498,-242.4179 498,-194.5 498,-194.5 498,-194.5 498,-127.5 498,-88.4059 471.5934,-49.0308 454.1126,-27.248"/>
<polygon fill="#191970" stroke="#191970" points="456.7913,-24.9952 447.7057,-19.5452 451.4096,-29.4715 456.7913,-24.9952"/>
</g>
<!-- Node14 -->
<g id="node15" class="node">
<title>Node14</title>
<polygon fill="none" stroke="#bfbfbf" points="526,-252 526,-271 570,-271 570,-252 526,-252"/>
<text text-anchor="middle" x="548" y="-259" font-family="Helvetica,sans-Serif" font-size="10.00" fill="#000000">string</text>
</g>
<!-- Node13&#45;&gt;Node14 -->
<g id="edge17" class="edge">
<title>Node13&#45;&gt;Node14</title>
<path fill="none" stroke="#191970" d="M476.8919,-318.9005C490.2048,-308.1539 511.9999,-290.5603 527.9568,-277.6794"/>
<polygon fill="#191970" stroke="#191970" points="530.5474,-280.0863 536.1302,-271.0817 526.1506,-274.6395 530.5474,-280.0863"/>
</g>
<!-- Node15 -->
<g id="node16" class="node">
<title>Node15</title>
<polygon fill="none" stroke="#bfbfbf" points="312,-252 312,-271 396,-271 396,-252 312,-252"/>
<text text-anchor="middle" x="354" y="-259" font-family="Helvetica,sans-Serif" font-size="10.00" fill="#000000">RStringView.h</text>
</g>
<!-- Node13&#45;&gt;Node15 -->
<g id="edge19" class="edge">
<title>Node13&#45;&gt;Node15</title>
<path fill="none" stroke="#191970" d="M449.0964,-318.9005C430.633,-307.7559 399.9701,-289.2477 378.4668,-276.2682"/>
<polygon fill="#191970" stroke="#191970" points="380.2441,-273.2529 369.8741,-271.0817 376.6267,-279.2458 380.2441,-273.2529"/>
</g>
<!-- Node16 -->
<g id="node17" class="node">
<title>Node16</title>
<polygon fill="none" stroke="#bfbfbf" points="414,-252 414,-271 470,-271 470,-252 414,-252"/>
<text text-anchor="middle" x="442" y="-259" font-family="Helvetica,sans-Serif" font-size="10.00" fill="#000000">TMath.h</text>
</g>
<!-- Node13&#45;&gt;Node16 -->
<g id="edge20" class="edge">
<title>Node13&#45;&gt;Node16</title>
<path fill="none" stroke="#191970" d="M461.7047,-318.9005C458.2888,-308.95 452.8578,-293.1292 448.5618,-280.6147"/>
<polygon fill="#191970" stroke="#191970" points="451.8465,-279.4035 445.2892,-271.0817 445.2258,-281.6763 451.8465,-279.4035"/>
</g>
<!-- Node18 -->
<g id="node19" class="node">
<title>Node18</title>
<g id="a_node19"><a xlink:href="../../db/d2c/ConfigurableParam_8h.html" target="_top" xlink:title="CommonUtils/Configurable\lParam.h">
<polygon fill="none" stroke="#000000" points="621,-179.5 621,-209.5 769,-209.5 769,-179.5 621,-179.5"/>
<text text-anchor="start" x="629" y="-197.5" font-family="Helvetica,sans-Serif" font-size="10.00" fill="#000000">CommonUtils/Configurable</text>
<text text-anchor="middle" x="695" y="-186.5" font-family="Helvetica,sans-Serif" font-size="10.00" fill="#000000">Param.h</text>
</a>
</g>
</g>
<!-- Node17&#45;&gt;Node18 -->
<g id="edge22" class="edge">
<title>Node17&#45;&gt;Node18</title>
<path fill="none" stroke="#191970" d="M673.6541,-318.8631C677.1768,-298.3397 685.5175,-249.7457 690.668,-219.7388"/>
<polygon fill="#191970" stroke="#191970" points="694.1641,-220.059 692.4063,-209.611 687.265,-218.8748 694.1641,-220.059"/>
</g>
<!-- Node25 -->
<g id="node26" class="node">
<title>Node25</title>
<g id="a_node26"><a xlink:href="../../da/d6b/ConfigurableParamHelper_8h.html" target="_top" xlink:title="CommonUtils/Configurable\lParamHelper.h">
<polygon fill="none" stroke="#000000" points="752,-246.5 752,-276.5 900,-276.5 900,-246.5 752,-246.5"/>
<text text-anchor="start" x="760" y="-264.5" font-family="Helvetica,sans-Serif" font-size="10.00" fill="#000000">CommonUtils/Configurable</text>
<text text-anchor="middle" x="826" y="-253.5" font-family="Helvetica,sans-Serif" font-size="10.00" fill="#000000">ParamHelper.h</text>
</a>
</g>
</g>
<!-- Node17&#45;&gt;Node25 -->
<g id="edge29" class="edge">
<title>Node17&#45;&gt;Node25</title>
<path fill="none" stroke="#191970" d="M694.0644,-318.9005C716.9293,-308.9528 753.2793,-293.1382 782.0401,-280.6254"/>
<polygon fill="#191970" stroke="#191970" points="783.6989,-283.7207 791.4724,-276.5218 780.9063,-277.3018 783.6989,-283.7207"/>
</g>
<!-- Node19 -->
<g id="node20" class="node">
<title>Node19</title>
<polygon fill="none" stroke="#bfbfbf" points="526.5,-118 526.5,-137 573.5,-137 573.5,-118 526.5,-118"/>
<text text-anchor="middle" x="550" y="-125" font-family="Helvetica,sans-Serif" font-size="10.00" fill="#000000">vector</text>
</g>
<!-- Node18&#45;&gt;Node19 -->
<g id="edge23" class="edge">
<title>Node18&#45;&gt;Node19</title>
<path fill="none" stroke="#191970" d="M662.1325,-179.4718C639.7953,-169.2375 609.5889,-155.3572 583,-143 581.8376,-142.4598 580.6527,-141.9081 579.456,-141.35"/>
<polygon fill="#191970" stroke="#191970" points="580.7731,-138.1022 570.2322,-137.0347 577.8067,-144.4426 580.7731,-138.1022"/>
</g>
<!-- Node20 -->
<g id="node21" class="node">
<title>Node20</title>
<polygon fill="none" stroke="#bfbfbf" points="592,-118 592,-137 630,-137 630,-118 592,-118"/>
<text text-anchor="middle" x="611" y="-125" font-family="Helvetica,sans-Serif" font-size="10.00" fill="#000000">map</text>
</g>
<!-- Node18&#45;&gt;Node20 -->
<g id="edge24" class="edge">
<title>Node18&#45;&gt;Node20</title>
<path fill="none" stroke="#191970" d="M675.9391,-179.2967C662.4703,-168.5537 644.4615,-154.1895 630.8252,-143.3129"/>
<polygon fill="#191970" stroke="#191970" points="632.9796,-140.5544 622.9794,-137.055 628.6147,-146.0268 632.9796,-140.5544"/>
</g>
<!-- Node21 -->
<g id="node22" class="node">
<title>Node21</title>
<polygon fill="none" stroke="#bfbfbf" points="648.5,-118 648.5,-137 741.5,-137 741.5,-118 648.5,-118"/>
<text text-anchor="middle" x="695" y="-125" font-family="Helvetica,sans-Serif" font-size="10.00" fill="#000000">unordered_map</text>
</g>
<!-- Node18&#45;&gt;Node21 -->
<g id="edge25" class="edge">
<title>Node18&#45;&gt;Node21</title>
<path fill="none" stroke="#191970" d="M695,-179.2967C695,-169.7699 695,-157.3954 695,-147.1306"/>
<polygon fill="#191970" stroke="#191970" points="698.5001,-147.0549 695,-137.055 691.5001,-147.055 698.5001,-147.0549"/>
</g>
<!-- Node22 -->
<g id="node23" class="node">
<title>Node22</title>
<polygon fill="none" stroke="#bfbfbf" points="759.5,-112.5 759.5,-142.5 872.5,-142.5 872.5,-112.5 759.5,-112.5"/>
<text text-anchor="start" x="767.5" y="-130.5" font-family="Helvetica,sans-Serif" font-size="10.00" fill="#000000">boost/property_tree</text>
<text text-anchor="middle" x="816" y="-119.5" font-family="Helvetica,sans-Serif" font-size="10.00" fill="#000000">/ptree.hpp</text>
</g>
<!-- Node18&#45;&gt;Node22 -->
<g id="edge26" class="edge">
<title>Node18&#45;&gt;Node22</title>
<path fill="none" stroke="#191970" d="M722.1548,-179.4639C739.0831,-170.0903 761.0767,-157.9121 779.5168,-147.7015"/>
<polygon fill="#191970" stroke="#191970" points="781.4643,-150.6239 788.5172,-142.7177 778.0734,-144.5 781.4643,-150.6239"/>
</g>
<!-- Node23 -->
<g id="node24" class="node">
<title>Node23</title>
<polygon fill="none" stroke="#bfbfbf" points="969.5,-118 969.5,-137 1026.5,-137 1026.5,-118 969.5,-118"/>
<text text-anchor="middle" x="998" y="-125" font-family="Helvetica,sans-Serif" font-size="10.00" fill="#000000">typeinfo</text>
</g>
<!-- Node18&#45;&gt;Node23 -->
<g id="edge27" class="edge">
<title>Node18&#45;&gt;Node23</title>
<path fill="none" stroke="#191970" d="M769.2577,-180.8373C841.1458,-167.4859 941.8653,-148.4041 960,-143 962.3045,-142.3133 964.6619,-141.5382 967.0181,-140.71"/>
<polygon fill="#191970" stroke="#191970" points="968.4469,-143.9116 976.5592,-137.0968 965.9678,-137.3652 968.4469,-143.9116"/>
</g>
<!-- Node24 -->
<g id="node25" class="node">
<title>Node24</title>
<polygon fill="none" stroke="#bfbfbf" points="891,-118 891,-137 951,-137 951,-118 891,-118"/>
<text text-anchor="middle" x="921" y="-125" font-family="Helvetica,sans-Serif" font-size="10.00" fill="#000000">iostream</text>
</g>
<!-- Node18&#45;&gt;Node24 -->
<g id="edge28" class="edge">
<title>Node18&#45;&gt;Node24</title>
<path fill="none" stroke="#191970" d="M756.1451,-179.4673C792.921,-169.9796 840.4948,-156.9165 882,-143 884.1328,-142.2849 886.3185,-141.5168 888.5132,-140.7189"/>
<polygon fill="#191970" stroke="#191970" points="889.9468,-143.9186 898.0576,-137.102 887.4662,-137.3728 889.9468,-143.9186"/>
</g>
<!-- Node25&#45;&gt;Node18 -->
<g id="edge30" class="edge">
<title>Node25&#45;&gt;Node18</title>
<path fill="none" stroke="#191970" d="M796.601,-246.4639C778.0226,-236.9619 753.809,-224.5779 733.6801,-214.283"/>
<polygon fill="#191970" stroke="#191970" points="735.251,-211.1552 724.7541,-209.7177 732.0635,-217.3874 735.251,-211.1552"/>
</g>
<!-- Node25&#45;&gt;Node23 -->
<g id="edge33" class="edge">
<title>Node25&#45;&gt;Node23</title>
<path fill="none" stroke="#191970" d="M818.5374,-246.3645C810.8519,-228.3602 801.9423,-198.3182 817,-179 857.2908,-127.309 897.726,-163.4269 960,-143 962.1453,-142.2963 964.3416,-141.5294 966.5436,-140.7256"/>
<polygon fill="#191970" stroke="#191970" points="968.0186,-143.9082 976.0923,-137.0478 965.5026,-137.376 968.0186,-143.9082"/>
</g>
<!-- Node26 -->
<g id="node27" class="node">
<title>Node26</title>
<polygon fill="none" stroke="#bfbfbf" points="825.5,-185 825.5,-204 882.5,-204 882.5,-185 825.5,-185"/>
<text text-anchor="middle" x="854" y="-192" font-family="Helvetica,sans-Serif" font-size="10.00" fill="#000000">TClass.h</text>
</g>
<!-- Node25&#45;&gt;Node26 -->
<g id="edge31" class="edge">
<title>Node25&#45;&gt;Node26</title>
<path fill="none" stroke="#191970" d="M832.3536,-246.2967C836.4197,-236.5672 841.727,-223.8675 846.0687,-213.4784"/>
<polygon fill="#191970" stroke="#191970" points="849.3802,-214.6313 850.0069,-204.055 842.9215,-211.9321 849.3802,-214.6313"/>
</g>
<!-- Node27 -->
<g id="node28" class="node">
<title>Node27</title>
<polygon fill="none" stroke="#bfbfbf" points="900.5,-185 900.5,-204 969.5,-204 969.5,-185 900.5,-185"/>
<text text-anchor="middle" x="935" y="-192" font-family="Helvetica,sans-Serif" font-size="10.00" fill="#000000">type_traits</text>
</g>
<!-- Node25&#45;&gt;Node27 -->
<g id="edge32" class="edge">
<title>Node25&#45;&gt;Node27</title>
<path fill="none" stroke="#191970" d="M850.4617,-246.4639C868.421,-235.4247 892.7089,-220.4954 910.6434,-209.4715"/>
<polygon fill="#191970" stroke="#191970" points="912.6893,-212.3223 919.3757,-204.1039 909.0236,-206.3588 912.6893,-212.3223"/>
</g>
<!-- Node28 -->
<g id="node29" class="node">
<title>Node28</title>
<polygon fill="none" stroke="#bfbfbf" points="988,-185 988,-204 1036,-204 1036,-185 988,-185"/>
<text text-anchor="middle" x="1012" y="-192" font-family="Helvetica,sans-Serif" font-size="10.00" fill="#000000">TFile.h</text>
</g>
<!-- Node25&#45;&gt;Node28 -->
<g id="edge34" class="edge">
<title>Node25&#45;&gt;Node28</title>
<path fill="none" stroke="#191970" d="M875.4421,-246.4421C905.6643,-236.8481 944.9298,-223.6832 979,-210 980.395,-209.4397 981.8152,-208.85 983.2439,-208.2412"/>
<polygon fill="#191970" stroke="#191970" points="984.9159,-211.3277 992.6192,-204.0538 982.0612,-204.9362 984.9159,-211.3277"/>
</g>
</g>
</svg>
