<?xml version="1.0" encoding="UTF-8" standalone="no"?>
<!DOCTYPE svg PUBLIC "-//W3C//DTD SVG 1.1//EN"
 "http://www.w3.org/Graphics/SVG/1.1/DTD/svg11.dtd">
<!-- Generated by graphviz version 2.40.1 (20161225.0304)
 -->
<!-- Title: o2::ft0::DigitBlockFT0 Pages: 1 -->
<svg width="875pt" height="1151pt"
 viewBox="0.00 0.00 874.50 1151.00" xmlns="http://www.w3.org/2000/svg" xmlns:xlink="http://www.w3.org/1999/xlink">
<g id="graph0" class="graph" transform="scale(1 1) rotate(0) translate(4 1147)">
<title>o2::ft0::DigitBlockFT0</title>
<!-- Node3 -->
<g id="node1" class="node">
<title>Node3</title>
<polygon fill="#bfbfbf" stroke="#000000" points="255.5,-.5 255.5,-145.5 377.5,-145.5 377.5,-.5 255.5,-.5"/>
<text text-anchor="middle" x="316.5" y="-133.5" font-family="Helvetica,sans-Serif" font-size="10.00" fill="#000000">o2::ft0::DigitBlockFT0</text>
<polyline fill="none" stroke="#000000" points="255.5,-126.5 377.5,-126.5 "/>
<text text-anchor="middle" x="316.5" y="-114.5" font-family="Helvetica,sans-Serif" font-size="10.00" fill="#000000"> </text>
<polyline fill="none" stroke="#000000" points="255.5,-107.5 377.5,-107.5 "/>
<text text-anchor="start" x="263.5" y="-95.5" font-family="Helvetica,sans-Serif" font-size="10.00" fill="#000000">+ DigitBlockFT0()</text>
<text text-anchor="start" x="263.5" y="-84.5" font-family="Helvetica,sans-Serif" font-size="10.00" fill="#000000">+ DigitBlockFT0()</text>
<text text-anchor="start" x="263.5" y="-73.5" font-family="Helvetica,sans-Serif" font-size="10.00" fill="#000000">+ DigitBlockFT0()</text>
<text text-anchor="start" x="263.5" y="-62.5" font-family="Helvetica,sans-Serif" font-size="10.00" fill="#000000">+ ~DigitBlockFT0()</text>
<text text-anchor="start" x="263.5" y="-51.5" font-family="Helvetica,sans-Serif" font-size="10.00" fill="#000000">+ setIntRec()</text>
<text text-anchor="start" x="263.5" y="-40.5" font-family="Helvetica,sans-Serif" font-size="10.00" fill="#000000">+ processDigits()</text>
<text text-anchor="start" x="263.5" y="-29.5" font-family="Helvetica,sans-Serif" font-size="10.00" fill="#000000">+ getDigits()</text>
<text text-anchor="start" x="263.5" y="-18.5" font-family="Helvetica,sans-Serif" font-size="10.00" fill="#000000">+ print()</text>
<text text-anchor="start" x="263.5" y="-7.5" font-family="Helvetica,sans-Serif" font-size="10.00" fill="#000000">+ print()</text>
</g>
<!-- Node4 -->
<g id="node2" class="node">
<title>Node4</title>
<g id="a_node2"><a xlink:href="../../d0/dd4/classo2_1_1fit_1_1DigitBlockBase.html" target="_top" xlink:title="{o2::fit::DigitBlockBase\l\&lt; DigitBlockFT0 \&gt;\n||+ DigitBlockBase()\l+ DigitBlockBase()\l+ DigitBlockBase()\l+ ~DigitBlockBase()\l+ process()\l+ pop()\l}">
<polygon fill="none" stroke="#000000" points="5,-237.5 5,-360.5 130,-360.5 130,-237.5 5,-237.5"/>
<text text-anchor="start" x="13" y="-348.5" font-family="Helvetica,sans-Serif" font-size="10.00" fill="#000000">o2::fit::DigitBlockBase</text>
<text text-anchor="middle" x="67.5" y="-337.5" font-family="Helvetica,sans-Serif" font-size="10.00" fill="#000000">&lt; DigitBlockFT0 &gt;</text>
<polyline fill="none" stroke="#000000" points="5,-330.5 130,-330.5 "/>
<text text-anchor="middle" x="67.5" y="-318.5" font-family="Helvetica,sans-Serif" font-size="10.00" fill="#000000"> </text>
<polyline fill="none" stroke="#000000" points="5,-311.5 130,-311.5 "/>
<text text-anchor="start" x="13" y="-299.5" font-family="Helvetica,sans-Serif" font-size="10.00" fill="#000000">+ DigitBlockBase()</text>
<text text-anchor="start" x="13" y="-288.5" font-family="Helvetica,sans-Serif" font-size="10.00" fill="#000000">+ DigitBlockBase()</text>
<text text-anchor="start" x="13" y="-277.5" font-family="Helvetica,sans-Serif" font-size="10.00" fill="#000000">+ DigitBlockBase()</text>
<text text-anchor="start" x="13" y="-266.5" font-family="Helvetica,sans-Serif" font-size="10.00" fill="#000000">+ ~DigitBlockBase()</text>
<text text-anchor="start" x="13" y="-255.5" font-family="Helvetica,sans-Serif" font-size="10.00" fill="#000000">+ process()</text>
<text text-anchor="start" x="13" y="-244.5" font-family="Helvetica,sans-Serif" font-size="10.00" fill="#000000">+ pop()</text>
</a>
</g>
</g>
<!-- Node4&#45;&gt;Node3 -->
<g id="edge1" class="edge">
<title>Node4&#45;&gt;Node3</title>
<path fill="none" stroke="#191970" d="M105.5744,-228.8001C119.9023,-206.3785 137.6038,-182.5839 157.5,-164 186.0893,-137.2964 223.9112,-115.2459 255.494,-99.5417"/>
<polygon fill="none" stroke="#191970" points="102.5857,-226.9781 100.2507,-237.3124 108.5206,-230.6899 102.5857,-226.9781"/>
</g>
<!-- Node5 -->
<g id="node3" class="node">
<title>Node5</title>
<g id="a_node3"><a xlink:href="../../d0/dd4/classo2_1_1fit_1_1DigitBlockBase.html" target="_top" xlink:title="{o2::fit::DigitBlockBase\l\&lt; DigitBlock \&gt;\n||+ DigitBlockBase()\l+ DigitBlockBase()\l+ DigitBlockBase()\l+ ~DigitBlockBase()\l+ process()\l+ pop()\l}">
<polygon fill="none" stroke="#000000" points="0,-612 0,-735 125,-735 125,-612 0,-612"/>
<text text-anchor="start" x="8" y="-723" font-family="Helvetica,sans-Serif" font-size="10.00" fill="#000000">o2::fit::DigitBlockBase</text>
<text text-anchor="middle" x="62.5" y="-712" font-family="Helvetica,sans-Serif" font-size="10.00" fill="#000000">&lt; DigitBlock &gt;</text>
<polyline fill="none" stroke="#000000" points="0,-705 125,-705 "/>
<text text-anchor="middle" x="62.5" y="-693" font-family="Helvetica,sans-Serif" font-size="10.00" fill="#000000"> </text>
<polyline fill="none" stroke="#000000" points="0,-686 125,-686 "/>
<text text-anchor="start" x="8" y="-674" font-family="Helvetica,sans-Serif" font-size="10.00" fill="#000000">+ DigitBlockBase()</text>
<text text-anchor="start" x="8" y="-663" font-family="Helvetica,sans-Serif" font-size="10.00" fill="#000000">+ DigitBlockBase()</text>
<text text-anchor="start" x="8" y="-652" font-family="Helvetica,sans-Serif" font-size="10.00" fill="#000000">+ DigitBlockBase()</text>
<text text-anchor="start" x="8" y="-641" font-family="Helvetica,sans-Serif" font-size="10.00" fill="#000000">+ ~DigitBlockBase()</text>
<text text-anchor="start" x="8" y="-630" font-family="Helvetica,sans-Serif" font-size="10.00" fill="#000000">+ process()</text>
<text text-anchor="start" x="8" y="-619" font-family="Helvetica,sans-Serif" font-size="10.00" fill="#000000">+ pop()</text>
</a>
</g>
</g>
<!-- Node5&#45;&gt;Node4 -->
<g id="edge2" class="edge">
<title>Node5&#45;&gt;Node4</title>
<path fill="none" stroke="#ffa500" d="M62.2491,-601.8997C62.2049,-551.7967 62.4071,-483.3084 63.5,-423 63.8668,-402.7567 64.5036,-380.6611 65.1626,-360.8027"/>
<polygon fill="#ffa500" stroke="#ffa500" points="58.7491,-601.9888 62.2615,-611.9845 65.7491,-601.9802 58.7491,-601.9888"/>
<text text-anchor="middle" x="110.5" y="-426" font-family="Helvetica,sans-Serif" font-size="10.00" fill="#000000"> &lt; DigitBlockFT0 &gt;</text>
</g>
<!-- Node6 -->
<g id="node4" class="node">
<title>Node6</title>
<polygon fill="none" stroke="#bfbfbf" points="159,-645 159,-702 188,-702 188,-645 159,-645"/>
<text text-anchor="middle" x="173.5" y="-690" font-family="Helvetica,sans-Serif" font-size="10.00" fill="#000000">int</text>
<polyline fill="none" stroke="#bfbfbf" points="159,-683 188,-683 "/>
<text text-anchor="middle" x="173.5" y="-671" font-family="Helvetica,sans-Serif" font-size="10.00" fill="#000000"> </text>
<polyline fill="none" stroke="#bfbfbf" points="159,-664 188,-664 "/>
<text text-anchor="middle" x="173.5" y="-652" font-family="Helvetica,sans-Serif" font-size="10.00" fill="#000000"> </text>
</g>
<!-- Node6&#45;&gt;Node3 -->
<g id="edge3" class="edge">
<title>Node6&#45;&gt;Node3</title>
<path fill="none" stroke="#404040" d="M170.937,-644.8575C163.272,-554.0663 143.2768,-273.9086 180.5,-193 194.4454,-162.6881 220.1469,-136.9102 245.4831,-117.106"/>
<polygon fill="none" stroke="#404040" points="245.5714,-117.0395 247.9515,-110.2325 255.1503,-109.8114 252.7702,-116.6184 245.5714,-117.0395"/>
<text text-anchor="middle" x="208" y="-296.5" font-family="Helvetica,sans-Serif" font-size="10.00" fill="#000000"> +sEventID</text>
</g>
<!-- Node9 -->
<g id="node7" class="node">
<title>Node9</title>
<g id="a_node7"><a xlink:href="../../d0/da1/structo2_1_1ft0_1_1Digit.html" target="_top" xlink:title="FIT digit implementation for. ">
<polygon fill="none" stroke="#000000" points="244.5,-193.5 244.5,-404.5 388.5,-404.5 388.5,-193.5 244.5,-193.5"/>
<text text-anchor="middle" x="316.5" y="-392.5" font-family="Helvetica,sans-Serif" font-size="10.00" fill="#000000">o2::ft0::Digit</text>
<polyline fill="none" stroke="#000000" points="244.5,-385.5 388.5,-385.5 "/>
<text text-anchor="middle" x="316.5" y="-373.5" font-family="Helvetica,sans-Serif" font-size="10.00" fill="#000000"> </text>
<polyline fill="none" stroke="#000000" points="244.5,-366.5 388.5,-366.5 "/>
<text text-anchor="start" x="252.5" y="-354.5" font-family="Helvetica,sans-Serif" font-size="10.00" fill="#000000">+ Digit()</text>
<text text-anchor="start" x="252.5" y="-343.5" font-family="Helvetica,sans-Serif" font-size="10.00" fill="#000000">+ Digit()</text>
<text text-anchor="start" x="252.5" y="-332.5" font-family="Helvetica,sans-Serif" font-size="10.00" fill="#000000">+ getOrbit()</text>
<text text-anchor="start" x="252.5" y="-321.5" font-family="Helvetica,sans-Serif" font-size="10.00" fill="#000000">+ getBC()</text>
<text text-anchor="start" x="252.5" y="-310.5" font-family="Helvetica,sans-Serif" font-size="10.00" fill="#000000">+ getTriggers()</text>
<text text-anchor="start" x="252.5" y="-299.5" font-family="Helvetica,sans-Serif" font-size="10.00" fill="#000000">+ getEventID()</text>
<text text-anchor="start" x="252.5" y="-288.5" font-family="Helvetica,sans-Serif" font-size="10.00" fill="#000000">+ getIntRecord()</text>
<text text-anchor="start" x="252.5" y="-277.5" font-family="Helvetica,sans-Serif" font-size="10.00" fill="#000000">+ getBunchChannelData()</text>
<text text-anchor="start" x="252.5" y="-266.5" font-family="Helvetica,sans-Serif" font-size="10.00" fill="#000000">+ printStream()</text>
<text text-anchor="start" x="252.5" y="-255.5" font-family="Helvetica,sans-Serif" font-size="10.00" fill="#000000">+ setTriggers()</text>
<text text-anchor="start" x="252.5" y="-244.5" font-family="Helvetica,sans-Serif" font-size="10.00" fill="#000000">+ setEventStatus()</text>
<text text-anchor="start" x="252.5" y="-233.5" font-family="Helvetica,sans-Serif" font-size="10.00" fill="#000000">+ setStatusFlag()</text>
<text text-anchor="start" x="252.5" y="-222.5" font-family="Helvetica,sans-Serif" font-size="10.00" fill="#000000">+ getStatusFlag()</text>
<text text-anchor="start" x="252.5" y="-211.5" font-family="Helvetica,sans-Serif" font-size="10.00" fill="#000000">+ getEventStatusWord()</text>
<text text-anchor="start" x="252.5" y="-200.5" font-family="Helvetica,sans-Serif" font-size="10.00" fill="#000000">+ ClassDefNV()</text>
</a>
</g>
</g>
<!-- Node6&#45;&gt;Node9 -->
<g id="edge12" class="edge">
<title>Node6&#45;&gt;Node9</title>
<path fill="none" stroke="#404040" d="M171.9228,-644.6831C170.5926,-601.2325 172.1424,-517.1057 198.5,-452 201.3881,-444.866 217.3709,-423.1834 236.6884,-398.3004"/>
<polygon fill="none" stroke="#404040" points="236.852,-398.0907 237.3901,-390.8997 244.2349,-388.6306 243.6968,-395.8217 236.852,-398.0907"/>
<text text-anchor="middle" x="246.5" y="-426" font-family="Helvetica,sans-Serif" font-size="10.00" fill="#000000"> +mEventID</text>
</g>
<!-- Node7 -->
<g id="node5" class="node">
<title>Node7</title>
<g id="a_node5"><a xlink:href="../../d3/df0/classo2_1_1ft0_1_1LookUpTable.html" target="_top" xlink:title="{o2::ft0::LookUpTable\n||+ LookUpTable()\l+ ~LookUpTable()\l+ printFullMap()\l+ getChannel()\l+ getLink()\l+ getMCP()\l+ linear()\l}">
<polygon fill="none" stroke="#000000" points="406.5,-237.5 406.5,-360.5 522.5,-360.5 522.5,-237.5 406.5,-237.5"/>
<text text-anchor="middle" x="464.5" y="-348.5" font-family="Helvetica,sans-Serif" font-size="10.00" fill="#000000">o2::ft0::LookUpTable</text>
<polyline fill="none" stroke="#000000" points="406.5,-341.5 522.5,-341.5 "/>
<text text-anchor="middle" x="464.5" y="-329.5" font-family="Helvetica,sans-Serif" font-size="10.00" fill="#000000"> </text>
<polyline fill="none" stroke="#000000" points="406.5,-322.5 522.5,-322.5 "/>
<text text-anchor="start" x="414.5" y="-310.5" font-family="Helvetica,sans-Serif" font-size="10.00" fill="#000000">+ LookUpTable()</text>
<text text-anchor="start" x="414.5" y="-299.5" font-family="Helvetica,sans-Serif" font-size="10.00" fill="#000000">+ ~LookUpTable()</text>
<text text-anchor="start" x="414.5" y="-288.5" font-family="Helvetica,sans-Serif" font-size="10.00" fill="#000000">+ printFullMap()</text>
<text text-anchor="start" x="414.5" y="-277.5" font-family="Helvetica,sans-Serif" font-size="10.00" fill="#000000">+ getChannel()</text>
<text text-anchor="start" x="414.5" y="-266.5" font-family="Helvetica,sans-Serif" font-size="10.00" fill="#000000">+ getLink()</text>
<text text-anchor="start" x="414.5" y="-255.5" font-family="Helvetica,sans-Serif" font-size="10.00" fill="#000000">+ getMCP()</text>
<text text-anchor="start" x="414.5" y="-244.5" font-family="Helvetica,sans-Serif" font-size="10.00" fill="#000000">+ linear()</text>
</a>
</g>
</g>
<!-- Node7&#45;&gt;Node3 -->
<g id="edge4" class="edge">
<title>Node7&#45;&gt;Node3</title>
<path fill="none" stroke="#404040" d="M426.0172,-237.4229C416.762,-222.8071 406.8473,-207.3072 397.5,-193 389.6596,-180.9992 381.2925,-168.3898 373.0224,-156.0386"/>
<polygon fill="none" stroke="#404040" points="372.7999,-155.7071 366.1348,-152.9545 366.1122,-145.7434 372.7773,-148.496 372.7999,-155.7071"/>
<text text-anchor="middle" x="422.5" y="-167" font-family="Helvetica,sans-Serif" font-size="10.00" fill="#000000"> +sLookupTable</text>
</g>
<!-- Node8 -->
<g id="node6" class="node">
<title>Node8</title>
<polygon fill="none" stroke="#bfbfbf" points="540.5,-265 540.5,-333 676.5,-333 676.5,-265 540.5,-265"/>
<text text-anchor="start" x="548.5" y="-321" font-family="Helvetica,sans-Serif" font-size="10.00" fill="#000000">vector&lt; o2::ft0::Channel</text>
<text text-anchor="middle" x="608.5" y="-310" font-family="Helvetica,sans-Serif" font-size="10.00" fill="#000000">Data &gt;</text>
<polyline fill="none" stroke="#bfbfbf" points="540.5,-303 676.5,-303 "/>
<text text-anchor="middle" x="608.5" y="-291" font-family="Helvetica,sans-Serif" font-size="10.00" fill="#000000"> </text>
<polyline fill="none" stroke="#bfbfbf" points="540.5,-284 676.5,-284 "/>
<text text-anchor="middle" x="608.5" y="-272" font-family="Helvetica,sans-Serif" font-size="10.00" fill="#000000"> </text>
</g>
<!-- Node8&#45;&gt;Node3 -->
<g id="edge5" class="edge">
<title>Node8&#45;&gt;Node3</title>
<path fill="none" stroke="#404040" d="M589.1627,-264.9884C575.221,-242.5867 554.8076,-213.6834 531.5,-193 489.0561,-155.3348 432.8179,-124.4647 388.5047,-103.4705"/>
<polygon fill="none" stroke="#404040" points="388.3883,-103.4163 381.2602,-104.5077 377.5112,-98.3477 384.6393,-97.2563 388.3883,-103.4163"/>
<text text-anchor="middle" x="556.5" y="-167" font-family="Helvetica,sans-Serif" font-size="10.00" fill="#000000"> +mVecChannelData</text>
</g>
<!-- Node9&#45;&gt;Node3 -->
<g id="edge6" class="edge">
<title>Node9&#45;&gt;Node3</title>
<path fill="none" stroke="#404040" d="M316.5,-193.2787C316.5,-181.4675 316.5,-169.5499 316.5,-158.0448"/>
<polygon fill="none" stroke="#404040" points="316.5001,-157.747 312.5,-151.747 316.5,-145.747 320.5,-151.7469 316.5001,-157.747"/>
<text text-anchor="middle" x="339" y="-167" font-family="Helvetica,sans-Serif" font-size="10.00" fill="#000000"> +mDigit</text>
</g>
<!-- Node10 -->
<g id="node8" class="node">
<title>Node10</title>
<g id="a_node8"><a xlink:href="../../d1/d21/structo2_1_1InteractionRecord.html" target="_top" xlink:title="{o2::InteractionRecord\n||+ InteractionRecord()\l+ InteractionRecord()\l+ InteractionRecord()\l+ InteractionRecord()\l+ clear()\l+ isDummy()\l+ setFromNS()\l+ bc2ns()\l+ operator==()\l+ operator!=()\l+ differenceInBC()\l+ differenceInBCNS()\l+ differenceInBCMS()\l+ toLong()\l+ setFromLong()\l+ operator\&gt;()\l+ operator\&gt;=()\l+ operator\&lt;()\l+ operator\&lt;=()\l+ operator&#45;&#45;()\l+ operator&#45;&#45;()\l+ operator++()\l+ operator++()\l+ operator+=()\l+ operator&#45;=()\l+ operator+=()\l+ operator&#45;=()\l+ operator+()\l+ operator&#45;()\l+ operator+()\l+ operator&#45;()\l+ print()\l+ asString()\l+ ClassDefNV()\l+ bc2ns()\l+ ns2bc()\l}">
<polygon fill="none" stroke="#000000" points="208,-452.5 208,-894.5 329,-894.5 329,-452.5 208,-452.5"/>
<text text-anchor="middle" x="268.5" y="-882.5" font-family="Helvetica,sans-Serif" font-size="10.00" fill="#000000">o2::InteractionRecord</text>
<polyline fill="none" stroke="#000000" points="208,-875.5 329,-875.5 "/>
<text text-anchor="middle" x="268.5" y="-863.5" font-family="Helvetica,sans-Serif" font-size="10.00" fill="#000000"> </text>
<polyline fill="none" stroke="#000000" points="208,-856.5 329,-856.5 "/>
<text text-anchor="start" x="216" y="-844.5" font-family="Helvetica,sans-Serif" font-size="10.00" fill="#000000">+ InteractionRecord()</text>
<text text-anchor="start" x="216" y="-833.5" font-family="Helvetica,sans-Serif" font-size="10.00" fill="#000000">+ InteractionRecord()</text>
<text text-anchor="start" x="216" y="-822.5" font-family="Helvetica,sans-Serif" font-size="10.00" fill="#000000">+ InteractionRecord()</text>
<text text-anchor="start" x="216" y="-811.5" font-family="Helvetica,sans-Serif" font-size="10.00" fill="#000000">+ InteractionRecord()</text>
<text text-anchor="start" x="216" y="-800.5" font-family="Helvetica,sans-Serif" font-size="10.00" fill="#000000">+ clear()</text>
<text text-anchor="start" x="216" y="-789.5" font-family="Helvetica,sans-Serif" font-size="10.00" fill="#000000">+ isDummy()</text>
<text text-anchor="start" x="216" y="-778.5" font-family="Helvetica,sans-Serif" font-size="10.00" fill="#000000">+ setFromNS()</text>
<text text-anchor="start" x="216" y="-767.5" font-family="Helvetica,sans-Serif" font-size="10.00" fill="#000000">+ bc2ns()</text>
<text text-anchor="start" x="216" y="-756.5" font-family="Helvetica,sans-Serif" font-size="10.00" fill="#000000">+ operator==()</text>
<text text-anchor="start" x="216" y="-745.5" font-family="Helvetica,sans-Serif" font-size="10.00" fill="#000000">+ operator!=()</text>
<text text-anchor="start" x="216" y="-734.5" font-family="Helvetica,sans-Serif" font-size="10.00" fill="#000000">+ differenceInBC()</text>
<text text-anchor="start" x="216" y="-723.5" font-family="Helvetica,sans-Serif" font-size="10.00" fill="#000000">+ differenceInBCNS()</text>
<text text-anchor="start" x="216" y="-712.5" font-family="Helvetica,sans-Serif" font-size="10.00" fill="#000000">+ differenceInBCMS()</text>
<text text-anchor="start" x="216" y="-701.5" font-family="Helvetica,sans-Serif" font-size="10.00" fill="#000000">+ toLong()</text>
<text text-anchor="start" x="216" y="-690.5" font-family="Helvetica,sans-Serif" font-size="10.00" fill="#000000">+ setFromLong()</text>
<text text-anchor="start" x="216" y="-679.5" font-family="Helvetica,sans-Serif" font-size="10.00" fill="#000000">+ operator&gt;()</text>
<text text-anchor="start" x="216" y="-668.5" font-family="Helvetica,sans-Serif" font-size="10.00" fill="#000000">+ operator&gt;=()</text>
<text text-anchor="start" x="216" y="-657.5" font-family="Helvetica,sans-Serif" font-size="10.00" fill="#000000">+ operator&lt;()</text>
<text text-anchor="start" x="216" y="-646.5" font-family="Helvetica,sans-Serif" font-size="10.00" fill="#000000">+ operator&lt;=()</text>
<text text-anchor="start" x="216" y="-635.5" font-family="Helvetica,sans-Serif" font-size="10.00" fill="#000000">+ operator&#45;&#45;()</text>
<text text-anchor="start" x="216" y="-624.5" font-family="Helvetica,sans-Serif" font-size="10.00" fill="#000000">+ operator&#45;&#45;()</text>
<text text-anchor="start" x="216" y="-613.5" font-family="Helvetica,sans-Serif" font-size="10.00" fill="#000000">+ operator++()</text>
<text text-anchor="start" x="216" y="-602.5" font-family="Helvetica,sans-Serif" font-size="10.00" fill="#000000">+ operator++()</text>
<text text-anchor="start" x="216" y="-591.5" font-family="Helvetica,sans-Serif" font-size="10.00" fill="#000000">+ operator+=()</text>
<text text-anchor="start" x="216" y="-580.5" font-family="Helvetica,sans-Serif" font-size="10.00" fill="#000000">+ operator&#45;=()</text>
<text text-anchor="start" x="216" y="-569.5" font-family="Helvetica,sans-Serif" font-size="10.00" fill="#000000">+ operator+=()</text>
<text text-anchor="start" x="216" y="-558.5" font-family="Helvetica,sans-Serif" font-size="10.00" fill="#000000">+ operator&#45;=()</text>
<text text-anchor="start" x="216" y="-547.5" font-family="Helvetica,sans-Serif" font-size="10.00" fill="#000000">+ operator+()</text>
<text text-anchor="start" x="216" y="-536.5" font-family="Helvetica,sans-Serif" font-size="10.00" fill="#000000">+ operator&#45;()</text>
<text text-anchor="start" x="216" y="-525.5" font-family="Helvetica,sans-Serif" font-size="10.00" fill="#000000">+ operator+()</text>
<text text-anchor="start" x="216" y="-514.5" font-family="Helvetica,sans-Serif" font-size="10.00" fill="#000000">+ operator&#45;()</text>
<text text-anchor="start" x="216" y="-503.5" font-family="Helvetica,sans-Serif" font-size="10.00" fill="#000000">+ print()</text>
<text text-anchor="start" x="216" y="-492.5" font-family="Helvetica,sans-Serif" font-size="10.00" fill="#000000">+ asString()</text>
<text text-anchor="start" x="216" y="-481.5" font-family="Helvetica,sans-Serif" font-size="10.00" fill="#000000">+ ClassDefNV()</text>
<text text-anchor="start" x="216" y="-470.5" font-family="Helvetica,sans-Serif" font-size="10.00" fill="#000000">+ bc2ns()</text>
<text text-anchor="start" x="216" y="-459.5" font-family="Helvetica,sans-Serif" font-size="10.00" fill="#000000">+ ns2bc()</text>
</a>
</g>
</g>
<!-- Node10&#45;&gt;Node9 -->
<g id="edge7" class="edge">
<title>Node10&#45;&gt;Node9</title>
<path fill="none" stroke="#404040" d="M284.4237,-452.3516C285.6845,-442.418 287.041,-432.5969 288.5,-423 288.8136,-420.9374 289.1422,-418.8581 289.4843,-416.766"/>
<polygon fill="none" stroke="#404040" points="289.5308,-416.4973 286.6142,-409.9023 291.5802,-404.6736 294.4967,-411.2686 289.5308,-416.4973"/>
<text text-anchor="middle" x="322" y="-426" font-family="Helvetica,sans-Serif" font-size="10.00" fill="#000000"> +mIntRecord</text>
</g>
<!-- Node11 -->
<g id="node9" class="node">
<title>Node11</title>
<polygon fill="none" stroke="#bfbfbf" points="71.5,-1019.5 71.5,-1076.5 121.5,-1076.5 121.5,-1019.5 71.5,-1019.5"/>
<text text-anchor="middle" x="96.5" y="-1064.5" font-family="Helvetica,sans-Serif" font-size="10.00" fill="#000000">double</text>
<polyline fill="none" stroke="#bfbfbf" points="71.5,-1057.5 121.5,-1057.5 "/>
<text text-anchor="middle" x="96.5" y="-1045.5" font-family="Helvetica,sans-Serif" font-size="10.00" fill="#000000"> </text>
<polyline fill="none" stroke="#bfbfbf" points="71.5,-1038.5 121.5,-1038.5 "/>
<text text-anchor="middle" x="96.5" y="-1026.5" font-family="Helvetica,sans-Serif" font-size="10.00" fill="#000000"> </text>
</g>
<!-- Node11&#45;&gt;Node10 -->
<g id="edge8" class="edge">
<title>Node11&#45;&gt;Node10</title>
<path fill="none" stroke="#404040" d="M94.9887,-1019.4665C95.0012,-989.0303 99.9433,-941.3809 127.5,-913 149.5777,-890.262 173.4373,-916.7384 196.5,-895 197.4931,-894.0639 198.4725,-893.1141 199.4384,-892.1509"/>
<polygon fill="none" stroke="#404040" points="199.6257,-891.9484 200.7624,-884.8274 207.7728,-883.1379 206.6361,-890.2588 199.6257,-891.9484"/>
<text text-anchor="middle" x="165.5" y="-921.5" font-family="Helvetica,sans-Serif" font-size="10.00" fill="#000000"> +DummyTime</text>
</g>
<!-- Node12 -->
<g id="node10" class="node">
<title>Node12</title>
<polygon fill="none" stroke="#bfbfbf" points="167.5,-1019.5 167.5,-1076.5 223.5,-1076.5 223.5,-1019.5 167.5,-1019.5"/>
<text text-anchor="middle" x="195.5" y="-1064.5" font-family="Helvetica,sans-Serif" font-size="10.00" fill="#000000">uint16_t</text>
<polyline fill="none" stroke="#bfbfbf" points="167.5,-1057.5 223.5,-1057.5 "/>
<text text-anchor="middle" x="195.5" y="-1045.5" font-family="Helvetica,sans-Serif" font-size="10.00" fill="#000000"> </text>
<polyline fill="none" stroke="#bfbfbf" points="167.5,-1038.5 223.5,-1038.5 "/>
<text text-anchor="middle" x="195.5" y="-1026.5" font-family="Helvetica,sans-Serif" font-size="10.00" fill="#000000"> </text>
</g>
<!-- Node12&#45;&gt;Node10 -->
<g id="edge9" class="edge">
<title>Node12&#45;&gt;Node10</title>
<path fill="none" stroke="#404040" d="M197.617,-1019.4064C199.8973,-991.9776 204.0858,-949.4635 210.5,-913 210.8631,-910.9361 211.2335,-908.8634 211.6108,-906.7831"/>
<polygon fill="none" stroke="#404040" points="211.6467,-906.5902 208.8134,-899.959 213.8448,-894.7932 216.6781,-901.4244 211.6467,-906.5902"/>
<text text-anchor="middle" x="242.5" y="-927" font-family="Helvetica,sans-Serif" font-size="10.00" fill="#000000"> +DummyBC</text>
<text text-anchor="middle" x="242.5" y="-916" font-family="Helvetica,sans-Serif" font-size="10.00" fill="#000000">+bc</text>
</g>
<!-- Node13 -->
<g id="node11" class="node">
<title>Node13</title>
<g id="a_node11"><a xlink:href="../../d3/d87/classuint32__t.html" target="_top" xlink:title="{uint32_t\n||}">
<polygon fill="none" stroke="#000000" points="254.5,-1019.5 254.5,-1076.5 310.5,-1076.5 310.5,-1019.5 254.5,-1019.5"/>
<text text-anchor="middle" x="282.5" y="-1064.5" font-family="Helvetica,sans-Serif" font-size="10.00" fill="#000000">uint32_t</text>
<polyline fill="none" stroke="#000000" points="254.5,-1057.5 310.5,-1057.5 "/>
<text text-anchor="middle" x="282.5" y="-1045.5" font-family="Helvetica,sans-Serif" font-size="10.00" fill="#000000"> </text>
<polyline fill="none" stroke="#000000" points="254.5,-1038.5 310.5,-1038.5 "/>
<text text-anchor="middle" x="282.5" y="-1026.5" font-family="Helvetica,sans-Serif" font-size="10.00" fill="#000000"> </text>
</a>
</g>
</g>
<!-- Node13&#45;&gt;Node10 -->
<g id="edge10" class="edge">
<title>Node13&#45;&gt;Node10</title>
<path fill="none" stroke="#404040" d="M281.4247,-1019.2355C280.449,-993.1358 278.9092,-951.9468 277.2276,-906.9623"/>
<polygon fill="none" stroke="#404040" points="277.222,-906.8114 273.0006,-900.965 276.7736,-894.8198 280.995,-900.6661 277.222,-906.8114"/>
<text text-anchor="middle" x="314.5" y="-927" font-family="Helvetica,sans-Serif" font-size="10.00" fill="#000000"> +orbit</text>
<text text-anchor="middle" x="314.5" y="-916" font-family="Helvetica,sans-Serif" font-size="10.00" fill="#000000">+DummyOrbit</text>
</g>
<!-- Node14 -->
<g id="node12" class="node">
<title>Node14</title>
<polygon fill="none" stroke="#bfbfbf" points="360.5,-1019.5 360.5,-1076.5 410.5,-1076.5 410.5,-1019.5 360.5,-1019.5"/>
<text text-anchor="middle" x="385.5" y="-1064.5" font-family="Helvetica,sans-Serif" font-size="10.00" fill="#000000">uint8_t</text>
<polyline fill="none" stroke="#bfbfbf" points="360.5,-1057.5 410.5,-1057.5 "/>
<text text-anchor="middle" x="385.5" y="-1045.5" font-family="Helvetica,sans-Serif" font-size="10.00" fill="#000000"> </text>
<polyline fill="none" stroke="#bfbfbf" points="360.5,-1038.5 410.5,-1038.5 "/>
<text text-anchor="middle" x="385.5" y="-1026.5" font-family="Helvetica,sans-Serif" font-size="10.00" fill="#000000"> </text>
</g>
<!-- Node14&#45;&gt;Node9 -->
<g id="edge11" class="edge">
<title>Node14&#45;&gt;Node9</title>
<path fill="none" stroke="#404040" d="M384.1803,-1019.4852C378.5577,-898.1238 356.8266,-430.4445 355.5,-423 355.1159,-420.8442 354.7048,-418.6737 354.2694,-416.4927"/>
<polygon fill="none" stroke="#404040" points="354.2668,-416.4802 349.0862,-411.464 351.724,-404.7527 356.9046,-409.7688 354.2668,-416.4802"/>
<text text-anchor="middle" x="418.5" y="-671" font-family="Helvetica,sans-Serif" font-size="10.00" fill="#000000"> +mEventStatus</text>
</g>
<!-- Node15 -->
<g id="node13" class="node">
<title>Node15</title>
<g id="a_node13"><a xlink:href="../../db/df8/structo2_1_1ft0_1_1Triggers.html" target="_top" xlink:title="{o2::ft0::Triggers\n||+ Triggers()\l+ Triggers()\l+ getOrA()\l+ getOrC()\l+ getVertex()\l+ getCen()\l+ getSCen()\l+ setTriggers()\l+ cleanTriggers()\l+ ClassDefNV()\l}">
<polygon fill="none" stroke="#000000" points="467.5,-595.5 467.5,-751.5 567.5,-751.5 567.5,-595.5 467.5,-595.5"/>
<text text-anchor="middle" x="517.5" y="-739.5" font-family="Helvetica,sans-Serif" font-size="10.00" fill="#000000">o2::ft0::Triggers</text>
<polyline fill="none" stroke="#000000" points="467.5,-732.5 567.5,-732.5 "/>
<text text-anchor="middle" x="517.5" y="-720.5" font-family="Helvetica,sans-Serif" font-size="10.00" fill="#000000"> </text>
<polyline fill="none" stroke="#000000" points="467.5,-713.5 567.5,-713.5 "/>
<text text-anchor="start" x="475.5" y="-701.5" font-family="Helvetica,sans-Serif" font-size="10.00" fill="#000000">+ Triggers()</text>
<text text-anchor="start" x="475.5" y="-690.5" font-family="Helvetica,sans-Serif" font-size="10.00" fill="#000000">+ Triggers()</text>
<text text-anchor="start" x="475.5" y="-679.5" font-family="Helvetica,sans-Serif" font-size="10.00" fill="#000000">+ getOrA()</text>
<text text-anchor="start" x="475.5" y="-668.5" font-family="Helvetica,sans-Serif" font-size="10.00" fill="#000000">+ getOrC()</text>
<text text-anchor="start" x="475.5" y="-657.5" font-family="Helvetica,sans-Serif" font-size="10.00" fill="#000000">+ getVertex()</text>
<text text-anchor="start" x="475.5" y="-646.5" font-family="Helvetica,sans-Serif" font-size="10.00" fill="#000000">+ getCen()</text>
<text text-anchor="start" x="475.5" y="-635.5" font-family="Helvetica,sans-Serif" font-size="10.00" fill="#000000">+ getSCen()</text>
<text text-anchor="start" x="475.5" y="-624.5" font-family="Helvetica,sans-Serif" font-size="10.00" fill="#000000">+ setTriggers()</text>
<text text-anchor="start" x="475.5" y="-613.5" font-family="Helvetica,sans-Serif" font-size="10.00" fill="#000000">+ cleanTriggers()</text>
<text text-anchor="start" x="475.5" y="-602.5" font-family="Helvetica,sans-Serif" font-size="10.00" fill="#000000">+ ClassDefNV()</text>
</a>
</g>
</g>
<!-- Node14&#45;&gt;Node15 -->
<g id="edge15" class="edge">
<title>Node14&#45;&gt;Node15</title>
<path fill="none" stroke="#404040" d="M386.758,-1019.3232C389.4019,-989.8671 397.4226,-944.0551 421.5,-913 431.4984,-900.1041 443.3689,-907.7919 453.5,-895 483.0878,-857.6416 498.9973,-807.1242 507.5518,-763.7674"/>
<polygon fill="none" stroke="#404040" points="507.5928,-763.5453 504.7505,-756.9179 509.7748,-751.7453 512.6171,-758.3726 507.5928,-763.5453"/>
<text text-anchor="middle" x="461" y="-927" font-family="Helvetica,sans-Serif" font-size="10.00" fill="#000000"> +triggersignals</text>
<text text-anchor="middle" x="461" y="-916" font-family="Helvetica,sans-Serif" font-size="10.00" fill="#000000">+eventFlags</text>
</g>
<!-- Node15&#45;&gt;Node9 -->
<g id="edge13" class="edge">
<title>Node15&#45;&gt;Node9</title>
<path fill="none" stroke="#404040" d="M506.5649,-595.48C497.571,-550.7509 481.5553,-495.1109 453.5,-452 435.7769,-424.766 419.9446,-428.4956 397.5,-405 397.315,-404.8064 397.1301,-404.6123 396.9451,-404.4178"/>
<polygon fill="none" stroke="#404040" points="396.7835,-404.2425 389.7757,-402.5421 388.65,-395.4194 395.6578,-397.1198 396.7835,-404.2425"/>
<text text-anchor="middle" x="466.5" y="-426" font-family="Helvetica,sans-Serif" font-size="10.00" fill="#000000"> +mTriggers</text>
</g>
<!-- Node16 -->
<g id="node14" class="node">
<title>Node16</title>
<polygon fill="none" stroke="#bfbfbf" points="482.5,-1019.5 482.5,-1076.5 526.5,-1076.5 526.5,-1019.5 482.5,-1019.5"/>
<text text-anchor="middle" x="504.5" y="-1064.5" font-family="Helvetica,sans-Serif" font-size="10.00" fill="#000000">int8_t</text>
<polyline fill="none" stroke="#bfbfbf" points="482.5,-1057.5 526.5,-1057.5 "/>
<text text-anchor="middle" x="504.5" y="-1045.5" font-family="Helvetica,sans-Serif" font-size="10.00" fill="#000000"> </text>
<polyline fill="none" stroke="#bfbfbf" points="482.5,-1038.5 526.5,-1038.5 "/>
<text text-anchor="middle" x="504.5" y="-1026.5" font-family="Helvetica,sans-Serif" font-size="10.00" fill="#000000"> </text>
</g>
<!-- Node16&#45;&gt;Node15 -->
<g id="edge14" class="edge">
<title>Node16&#45;&gt;Node15</title>
<path fill="none" stroke="#404040" d="M504.3582,-1019.2881C504.3071,-991.9542 504.4461,-949.6656 505.5,-913 506.9189,-863.6348 509.5994,-808.5942 512.0677,-763.7374"/>
<polygon fill="none" stroke="#404040" points="512.0725,-763.6499 508.4125,-757.4366 512.7401,-751.6685 516.4001,-757.8817 512.0725,-763.6499"/>
<text text-anchor="middle" x="530" y="-927" font-family="Helvetica,sans-Serif" font-size="10.00" fill="#000000"> +nChanA</text>
<text text-anchor="middle" x="530" y="-916" font-family="Helvetica,sans-Serif" font-size="10.00" fill="#000000">+nChanC</text>
</g>
<!-- Node17 -->
<g id="node15" class="node">
<title>Node17</title>
<polygon fill="none" stroke="#bfbfbf" points="550.5,-1019.5 550.5,-1076.5 600.5,-1076.5 600.5,-1019.5 550.5,-1019.5"/>
<text text-anchor="middle" x="575.5" y="-1064.5" font-family="Helvetica,sans-Serif" font-size="10.00" fill="#000000">int32_t</text>
<polyline fill="none" stroke="#bfbfbf" points="550.5,-1057.5 600.5,-1057.5 "/>
<text text-anchor="middle" x="575.5" y="-1045.5" font-family="Helvetica,sans-Serif" font-size="10.00" fill="#000000"> </text>
<polyline fill="none" stroke="#bfbfbf" points="550.5,-1038.5 600.5,-1038.5 "/>
<text text-anchor="middle" x="575.5" y="-1026.5" font-family="Helvetica,sans-Serif" font-size="10.00" fill="#000000"> </text>
</g>
<!-- Node17&#45;&gt;Node15 -->
<g id="edge16" class="edge">
<title>Node17&#45;&gt;Node15</title>
<path fill="none" stroke="#404040" d="M571.0451,-1019.2355C562.6892,-965.2819 544.3467,-846.8461 531.469,-763.6967"/>
<polygon fill="none" stroke="#404040" points="531.4472,-763.5553 526.576,-758.2382 529.6106,-751.6966 534.4818,-757.0137 531.4472,-763.5553"/>
<text text-anchor="middle" x="578" y="-927" font-family="Helvetica,sans-Serif" font-size="10.00" fill="#000000"> +amplA</text>
<text text-anchor="middle" x="578" y="-916" font-family="Helvetica,sans-Serif" font-size="10.00" fill="#000000">+amplC</text>
</g>
<!-- Node18 -->
<g id="node16" class="node">
<title>Node18</title>
<polygon fill="none" stroke="#bfbfbf" points="618.5,-1019.5 618.5,-1076.5 668.5,-1076.5 668.5,-1019.5 618.5,-1019.5"/>
<text text-anchor="middle" x="643.5" y="-1064.5" font-family="Helvetica,sans-Serif" font-size="10.00" fill="#000000">int16_t</text>
<polyline fill="none" stroke="#bfbfbf" points="618.5,-1057.5 668.5,-1057.5 "/>
<text text-anchor="middle" x="643.5" y="-1045.5" font-family="Helvetica,sans-Serif" font-size="10.00" fill="#000000"> </text>
<polyline fill="none" stroke="#bfbfbf" points="618.5,-1038.5 668.5,-1038.5 "/>
<text text-anchor="middle" x="643.5" y="-1026.5" font-family="Helvetica,sans-Serif" font-size="10.00" fill="#000000"> </text>
</g>
<!-- Node18&#45;&gt;Node15 -->
<g id="edge17" class="edge">
<title>Node18&#45;&gt;Node15</title>
<path fill="none" stroke="#404040" d="M635.5381,-1019.4108C627.7803,-991.9851 615.4412,-949.4731 603.5,-913 587.1558,-863.0783 567.4422,-807.8651 551.0148,-763.0446"/>
<polygon fill="none" stroke="#404040" points="550.9433,-762.85 545.1191,-758.598 546.8039,-751.5865 552.6281,-755.8384 550.9433,-762.85"/>
<text text-anchor="middle" x="631" y="-927" font-family="Helvetica,sans-Serif" font-size="10.00" fill="#000000"> +timeA</text>
<text text-anchor="middle" x="631" y="-916" font-family="Helvetica,sans-Serif" font-size="10.00" fill="#000000">+timeC</text>
</g>
<!-- Node19 -->
<g id="node17" class="node">
<title>Node19</title>
<g id="a_node17"><a xlink:href="../../d7/dc7/classo2_1_1dataformats_1_1RangeReference.html" target="_top" xlink:title="{o2::dataformats::RangeReference\l\&lt; int, int \&gt;\n||+ RangeReference()\l+ RangeReference()\l+ RangeReference()\l+ ~RangeReference()\l+ set()\l+ clear()\l+ getFirstEntry()\l+ getEntries()\l+ setFirstEntry()\l+ setEntries()\l+ changeEntriesBy()\l+ operator==()\l}">
<polygon fill="none" stroke="#000000" points="635.5,-579 635.5,-768 815.5,-768 815.5,-579 635.5,-579"/>
<text text-anchor="start" x="643.5" y="-756" font-family="Helvetica,sans-Serif" font-size="10.00" fill="#000000">o2::dataformats::RangeReference</text>
<text text-anchor="middle" x="725.5" y="-745" font-family="Helvetica,sans-Serif" font-size="10.00" fill="#000000">&lt; int, int &gt;</text>
<polyline fill="none" stroke="#000000" points="635.5,-738 815.5,-738 "/>
<text text-anchor="middle" x="725.5" y="-726" font-family="Helvetica,sans-Serif" font-size="10.00" fill="#000000"> </text>
<polyline fill="none" stroke="#000000" points="635.5,-719 815.5,-719 "/>
<text text-anchor="start" x="643.5" y="-707" font-family="Helvetica,sans-Serif" font-size="10.00" fill="#000000">+ RangeReference()</text>
<text text-anchor="start" x="643.5" y="-696" font-family="Helvetica,sans-Serif" font-size="10.00" fill="#000000">+ RangeReference()</text>
<text text-anchor="start" x="643.5" y="-685" font-family="Helvetica,sans-Serif" font-size="10.00" fill="#000000">+ RangeReference()</text>
<text text-anchor="start" x="643.5" y="-674" font-family="Helvetica,sans-Serif" font-size="10.00" fill="#000000">+ ~RangeReference()</text>
<text text-anchor="start" x="643.5" y="-663" font-family="Helvetica,sans-Serif" font-size="10.00" fill="#000000">+ set()</text>
<text text-anchor="start" x="643.5" y="-652" font-family="Helvetica,sans-Serif" font-size="10.00" fill="#000000">+ clear()</text>
<text text-anchor="start" x="643.5" y="-641" font-family="Helvetica,sans-Serif" font-size="10.00" fill="#000000">+ getFirstEntry()</text>
<text text-anchor="start" x="643.5" y="-630" font-family="Helvetica,sans-Serif" font-size="10.00" fill="#000000">+ getEntries()</text>
<text text-anchor="start" x="643.5" y="-619" font-family="Helvetica,sans-Serif" font-size="10.00" fill="#000000">+ setFirstEntry()</text>
<text text-anchor="start" x="643.5" y="-608" font-family="Helvetica,sans-Serif" font-size="10.00" fill="#000000">+ setEntries()</text>
<text text-anchor="start" x="643.5" y="-597" font-family="Helvetica,sans-Serif" font-size="10.00" fill="#000000">+ changeEntriesBy()</text>
<text text-anchor="start" x="643.5" y="-586" font-family="Helvetica,sans-Serif" font-size="10.00" fill="#000000">+ operator==()</text>
</a>
</g>
</g>
<!-- Node19&#45;&gt;Node9 -->
<g id="edge18" class="edge">
<title>Node19&#45;&gt;Node9</title>
<path fill="none" stroke="#404040" d="M679.2871,-578.9065C654.0168,-535.3263 619.1305,-485.8841 576.5,-452 548.1978,-429.5045 535.3554,-432.6003 500.5,-423 459.1096,-411.5997 440.1904,-426.4845 399.1485,-405.0312"/>
<polygon fill="none" stroke="#404040" points="398.9352,-404.9092 391.7409,-405.4004 388.5203,-398.9484 395.7147,-398.4572 398.9352,-404.9092"/>
<text text-anchor="middle" x="557" y="-426" font-family="Helvetica,sans-Serif" font-size="10.00" fill="#000000"> +ref</text>
</g>
<!-- Node20 -->
<g id="node18" class="node">
<title>Node20</title>
<g id="a_node18"><a xlink:href="../../d7/dc7/classo2_1_1dataformats_1_1RangeReference.html" target="_top" xlink:title="{o2::dataformats::RangeReference\l\&lt; FirstEntry, NElem \&gt;\n||+ RangeReference()\l+ RangeReference()\l+ RangeReference()\l+ ~RangeReference()\l+ set()\l+ clear()\l+ getFirstEntry()\l+ getEntries()\l+ setFirstEntry()\l+ setEntries()\l+ changeEntriesBy()\l+ operator==()\l}">
<polygon fill="none" stroke="#000000" points="686.5,-953.5 686.5,-1142.5 866.5,-1142.5 866.5,-953.5 686.5,-953.5"/>
<text text-anchor="start" x="694.5" y="-1130.5" font-family="Helvetica,sans-Serif" font-size="10.00" fill="#000000">o2::dataformats::RangeReference</text>
<text text-anchor="middle" x="776.5" y="-1119.5" font-family="Helvetica,sans-Serif" font-size="10.00" fill="#000000">&lt; FirstEntry, NElem &gt;</text>
<polyline fill="none" stroke="#000000" points="686.5,-1112.5 866.5,-1112.5 "/>
<text text-anchor="middle" x="776.5" y="-1100.5" font-family="Helvetica,sans-Serif" font-size="10.00" fill="#000000"> </text>
<polyline fill="none" stroke="#000000" points="686.5,-1093.5 866.5,-1093.5 "/>
<text text-anchor="start" x="694.5" y="-1081.5" font-family="Helvetica,sans-Serif" font-size="10.00" fill="#000000">+ RangeReference()</text>
<text text-anchor="start" x="694.5" y="-1070.5" font-family="Helvetica,sans-Serif" font-size="10.00" fill="#000000">+ RangeReference()</text>
<text text-anchor="start" x="694.5" y="-1059.5" font-family="Helvetica,sans-Serif" font-size="10.00" fill="#000000">+ RangeReference()</text>
<text text-anchor="start" x="694.5" y="-1048.5" font-family="Helvetica,sans-Serif" font-size="10.00" fill="#000000">+ ~RangeReference()</text>
<text text-anchor="start" x="694.5" y="-1037.5" font-family="Helvetica,sans-Serif" font-size="10.00" fill="#000000">+ set()</text>
<text text-anchor="start" x="694.5" y="-1026.5" font-family="Helvetica,sans-Serif" font-size="10.00" fill="#000000">+ clear()</text>
<text text-anchor="start" x="694.5" y="-1015.5" font-family="Helvetica,sans-Serif" font-size="10.00" fill="#000000">+ getFirstEntry()</text>
<text text-anchor="start" x="694.5" y="-1004.5" font-family="Helvetica,sans-Serif" font-size="10.00" fill="#000000">+ getEntries()</text>
<text text-anchor="start" x="694.5" y="-993.5" font-family="Helvetica,sans-Serif" font-size="10.00" fill="#000000">+ setFirstEntry()</text>
<text text-anchor="start" x="694.5" y="-982.5" font-family="Helvetica,sans-Serif" font-size="10.00" fill="#000000">+ setEntries()</text>
<text text-anchor="start" x="694.5" y="-971.5" font-family="Helvetica,sans-Serif" font-size="10.00" fill="#000000">+ changeEntriesBy()</text>
<text text-anchor="start" x="694.5" y="-960.5" font-family="Helvetica,sans-Serif" font-size="10.00" fill="#000000">+ operator==()</text>
</a>
</g>
</g>
<!-- Node20&#45;&gt;Node19 -->
<g id="edge19" class="edge">
<title>Node20&#45;&gt;Node19</title>
<path fill="none" stroke="#ffa500" d="M762.2537,-943.3875C754.775,-888.47 745.6807,-821.6894 738.4096,-768.2971"/>
<polygon fill="#ffa500" stroke="#ffa500" points="758.8131,-944.0616 763.6305,-953.4978 765.7491,-943.117 758.8131,-944.0616"/>
<text text-anchor="middle" x="788.5" y="-921.5" font-family="Helvetica,sans-Serif" font-size="10.00" fill="#000000"> &lt; int, int &gt;</text>
</g>
</g>
</svg>
