<?xml version="1.0" encoding="UTF-8" standalone="no"?>
<!DOCTYPE svg PUBLIC "-//W3C//DTD SVG 1.1//EN"
 "http://www.w3.org/Graphics/SVG/1.1/DTD/svg11.dtd">
<!-- Generated by graphviz version 2.40.1 (20161225.0304)
 -->
<!-- Title: /home/travis/build/AliceO2Group/AliceO2/DataFormats/Detectors/FIT/FDD/src/RawEventData.cxx Pages: 1 -->
<svg width="1201pt" height="296pt"
 viewBox="0.00 0.00 1200.97 296.00" xmlns="http://www.w3.org/2000/svg" xmlns:xlink="http://www.w3.org/1999/xlink">
<g id="graph0" class="graph" transform="scale(1 1) rotate(0) translate(4 292)">
<title>/home/travis/build/AliceO2Group/AliceO2/DataFormats/Detectors/FIT/FDD/src/RawEventData.cxx</title>
<!-- Node0 -->
<g id="node1" class="node">
<title>Node0</title>
<polygon fill="#bfbfbf" stroke="#000000" points="456.9744,-235.5 456.9744,-287.5 626.9744,-287.5 626.9744,-235.5 456.9744,-235.5"/>
<text text-anchor="start" x="464.9744" y="-275.5" font-family="Helvetica,sans-Serif" font-size="10.00" fill="#000000">/home/travis/build</text>
<text text-anchor="start" x="464.9744" y="-264.5" font-family="Helvetica,sans-Serif" font-size="10.00" fill="#000000">/AliceO2Group/AliceO2</text>
<text text-anchor="start" x="464.9744" y="-253.5" font-family="Helvetica,sans-Serif" font-size="10.00" fill="#000000">/DataFormats/Detectors</text>
<text text-anchor="middle" x="541.9744" y="-242.5" font-family="Helvetica,sans-Serif" font-size="10.00" fill="#000000">/FIT/FDD/src/RawEventData.cxx</text>
</g>
<!-- Node1 -->
<g id="node2" class="node">
<title>Node1</title>
<g id="a_node2"><a xlink:href="../../d0/ddf/FDD_2include_2DataFormatsFDD_2RawEventData_8h.html" target="_top" xlink:title="DataFormatsFDD/RawEventData.h">
<polygon fill="none" stroke="#000000" points="380.9744,-179.5 380.9744,-198.5 564.9744,-198.5 564.9744,-179.5 380.9744,-179.5"/>
<text text-anchor="middle" x="472.9744" y="-186.5" font-family="Helvetica,sans-Serif" font-size="10.00" fill="#000000">DataFormatsFDD/RawEventData.h</text>
</a>
</g>
</g>
<!-- Node0&#45;&gt;Node1 -->
<g id="edge1" class="edge">
<title>Node0&#45;&gt;Node1</title>
<path fill="none" stroke="#191970" d="M517.0638,-235.3258C507.7245,-225.5128 497.3668,-214.6298 489.0386,-205.879"/>
<polygon fill="#191970" stroke="#191970" points="491.4775,-203.3649 482.0481,-198.534 486.4069,-208.1907 491.4775,-203.3649"/>
</g>
<!-- Node24 -->
<g id="node25" class="node">
<title>Node24</title>
<polygon fill="none" stroke="#bfbfbf" points="582.9744,-179.5 582.9744,-198.5 638.9744,-198.5 638.9744,-179.5 582.9744,-179.5"/>
<text text-anchor="middle" x="610.9744" y="-186.5" font-family="Helvetica,sans-Serif" font-size="10.00" fill="#000000">sstream</text>
</g>
<!-- Node0&#45;&gt;Node24 -->
<g id="edge33" class="edge">
<title>Node0&#45;&gt;Node24</title>
<path fill="none" stroke="#191970" d="M566.8849,-235.3258C576.2242,-225.5128 586.5819,-214.6298 594.9102,-205.879"/>
<polygon fill="#191970" stroke="#191970" points="597.5419,-208.1907 601.9006,-198.534 592.4712,-203.3649 597.5419,-208.1907"/>
</g>
<!-- Node2 -->
<g id="node3" class="node">
<title>Node2</title>
<g id="a_node3"><a xlink:href="../../d9/d15/Detectors_2FIT_2FDD_2base_2include_2FDDBase_2Constants_8h.html" target="_top" xlink:title="FDDBase/Constants.h">
<polygon fill="none" stroke="#000000" points="519.9744,-56.5 519.9744,-75.5 641.9744,-75.5 641.9744,-56.5 519.9744,-56.5"/>
<text text-anchor="middle" x="580.9744" y="-63.5" font-family="Helvetica,sans-Serif" font-size="10.00" fill="#000000">FDDBase/Constants.h</text>
</a>
</g>
</g>
<!-- Node1&#45;&gt;Node2 -->
<g id="edge2" class="edge">
<title>Node1&#45;&gt;Node2</title>
<path fill="none" stroke="#191970" d="M481.1898,-179.485C493.7878,-164.9108 518.6595,-136.2032 539.9744,-112 548.3328,-102.5089 557.7148,-91.9741 565.3927,-83.3834"/>
<polygon fill="#191970" stroke="#191970" points="568.0824,-85.6263 572.1426,-75.8403 562.866,-80.9584 568.0824,-85.6263"/>
</g>
<!-- Node8 -->
<g id="node9" class="node">
<title>Node8</title>
<g id="a_node9"><a xlink:href="../../d1/d18/FIT_2FDD_2include_2DataFormatsFDD_2ChannelData_8h.html" target="_top" xlink:title="DataFormatsFDD/ChannelData.h">
<polygon fill="none" stroke="#000000" points="15.4744,-118 15.4744,-137 190.4744,-137 190.4744,-118 15.4744,-118"/>
<text text-anchor="middle" x="102.9744" y="-125" font-family="Helvetica,sans-Serif" font-size="10.00" fill="#000000">DataFormatsFDD/ChannelData.h</text>
</a>
</g>
</g>
<!-- Node1&#45;&gt;Node8 -->
<g id="edge8" class="edge">
<title>Node1&#45;&gt;Node8</title>
<path fill="none" stroke="#191970" d="M415.5678,-179.4581C349.3057,-168.4443 240.4643,-150.3531 170.2766,-138.6867"/>
<polygon fill="#191970" stroke="#191970" points="170.6497,-135.2008 160.2111,-137.0137 169.5019,-142.1061 170.6497,-135.2008"/>
</g>
<!-- Node10 -->
<g id="node11" class="node">
<title>Node10</title>
<polygon fill="none" stroke="#bfbfbf" points="109.4744,-.5 109.4744,-19.5 168.4744,-19.5 168.4744,-.5 109.4744,-.5"/>
<text text-anchor="middle" x="138.9744" y="-7.5" font-family="Helvetica,sans-Serif" font-size="10.00" fill="#000000">Rtypes.h</text>
</g>
<!-- Node1&#45;&gt;Node10 -->
<g id="edge32" class="edge">
<title>Node1&#45;&gt;Node10</title>
<path fill="none" stroke="#191970" d="M380.7138,-186.4364C251.777,-181.8866 30.6113,-170.1829 5.9744,-143 -2.5812,-133.5604 -1.7659,-70.3619 8.9744,-56 20.0514,-41.1877 65.1164,-27.4981 99.1052,-18.9721"/>
<polygon fill="#191970" stroke="#191970" points="100.3632,-22.2679 109.248,-16.4964 98.7032,-15.4676 100.3632,-22.2679"/>
</g>
<!-- Node11 -->
<g id="node12" class="node">
<title>Node11</title>
<g id="a_node12"><a xlink:href="../../d4/dee/RAWDataHeader_8h.html" target="_top" xlink:title="Definition of the RAW Data Header. ">
<polygon fill="none" stroke="#000000" points="585.4744,-118 585.4744,-137 734.4744,-137 734.4744,-118 585.4744,-118"/>
<text text-anchor="middle" x="659.9744" y="-125" font-family="Helvetica,sans-Serif" font-size="10.00" fill="#000000">Headers/RAWDataHeader.h</text>
</a>
</g>
</g>
<!-- Node1&#45;&gt;Node11 -->
<g id="edge11" class="edge">
<title>Node1&#45;&gt;Node11</title>
<path fill="none" stroke="#191970" d="M502.1931,-179.3906C534.305,-168.8298 586.0234,-151.8208 621.4351,-140.1747"/>
<polygon fill="#191970" stroke="#191970" points="622.5548,-143.4909 630.9608,-137.0419 620.3679,-136.8413 622.5548,-143.4909"/>
</g>
<!-- Node12 -->
<g id="node13" class="node">
<title>Node12</title>
<g id="a_node13"><a xlink:href="../../d6/dfc/FDD_2include_2DataFormatsFDD_2LookUpTable_8h.html" target="_top" xlink:title="DataFormatsFDD/LookUpTable.h">
<polygon fill="none" stroke="#000000" points="246.9744,-118 246.9744,-137 420.9744,-137 420.9744,-118 246.9744,-118"/>
<text text-anchor="middle" x="333.9744" y="-125" font-family="Helvetica,sans-Serif" font-size="10.00" fill="#000000">DataFormatsFDD/LookUpTable.h</text>
</a>
</g>
</g>
<!-- Node1&#45;&gt;Node12 -->
<g id="edge13" class="edge">
<title>Node1&#45;&gt;Node12</title>
<path fill="none" stroke="#191970" d="M451.2556,-179.3906C428.1004,-169.1457 391.2303,-152.8326 365.0153,-141.2339"/>
<polygon fill="#191970" stroke="#191970" points="366.1017,-137.8874 355.5406,-137.0419 363.2693,-144.2888 366.1017,-137.8874"/>
</g>
<!-- Node14 -->
<g id="node15" class="node">
<title>Node14</title>
<polygon fill="none" stroke="#bfbfbf" points="115.9744,-56.5 115.9744,-75.5 175.9744,-75.5 175.9744,-56.5 115.9744,-56.5"/>
<text text-anchor="middle" x="145.9744" y="-63.5" font-family="Helvetica,sans-Serif" font-size="10.00" fill="#000000">iostream</text>
</g>
<!-- Node1&#45;&gt;Node14 -->
<g id="edge29" class="edge">
<title>Node1&#45;&gt;Node14</title>
<path fill="none" stroke="#191970" d="M380.8993,-181.8004C336.0916,-175.6404 282.4386,-164.2099 237.9744,-143 233.776,-140.9973 190.627,-104.2854 164.9401,-82.2872"/>
<polygon fill="#191970" stroke="#191970" points="167.1553,-79.5762 157.2853,-75.7246 162.5992,-84.8905 167.1553,-79.5762"/>
</g>
<!-- Node15 -->
<g id="node16" class="node">
<title>Node15</title>
<polygon fill="none" stroke="#bfbfbf" points="301.9744,-56.5 301.9744,-75.5 357.9744,-75.5 357.9744,-56.5 301.9744,-56.5"/>
<text text-anchor="middle" x="329.9744" y="-63.5" font-family="Helvetica,sans-Serif" font-size="10.00" fill="#000000">iomanip</text>
</g>
<!-- Node1&#45;&gt;Node15 -->
<g id="edge30" class="edge">
<title>Node1&#45;&gt;Node15</title>
<path fill="none" stroke="#191970" d="M469.8683,-179.4706C464.2504,-163.5651 450.9959,-131.4395 429.9744,-112 412.3707,-95.7212 388.0015,-84.3496 367.7272,-76.9854"/>
<polygon fill="#191970" stroke="#191970" points="368.7456,-73.6344 358.1509,-73.6882 366.4667,-80.2531 368.7456,-73.6344"/>
</g>
<!-- Node16 -->
<g id="node17" class="node">
<title>Node16</title>
<g id="a_node17"><a xlink:href="../../dd/da4/Logger_8h.html" target="_top" xlink:title="Framework/Logger.h">
<polygon fill="none" stroke="#000000" points="660.4744,-56.5 660.4744,-75.5 775.4744,-75.5 775.4744,-56.5 660.4744,-56.5"/>
<text text-anchor="middle" x="717.9744" y="-63.5" font-family="Helvetica,sans-Serif" font-size="10.00" fill="#000000">Framework/Logger.h</text>
</a>
</g>
</g>
<!-- Node1&#45;&gt;Node16 -->
<g id="edge28" class="edge">
<title>Node1&#45;&gt;Node16</title>
<path fill="none" stroke="#191970" d="M487.899,-179.346C501.6699,-170.3002 522.5578,-156.227 539.9744,-143 557.0592,-130.0249 558.2132,-122.4051 576.9744,-112 604.3492,-96.8178 637.5219,-85.6814 664.8124,-78.1722"/>
<polygon fill="#191970" stroke="#191970" points="665.8178,-81.5265 674.579,-75.5689 664.0149,-74.7626 665.8178,-81.5265"/>
</g>
<!-- Node18 -->
<g id="node19" class="node">
<title>Node18</title>
<g id="a_node19"><a xlink:href="../../d9/d80/InteractionRecord_8h.html" target="_top" xlink:title="CommonDataFormat/Interaction\lRecord.h">
<polygon fill="none" stroke="#000000" points="754.9744,-112.5 754.9744,-142.5 928.9744,-142.5 928.9744,-112.5 754.9744,-112.5"/>
<text text-anchor="start" x="762.9744" y="-130.5" font-family="Helvetica,sans-Serif" font-size="10.00" fill="#000000">CommonDataFormat/Interaction</text>
<text text-anchor="middle" x="841.9744" y="-119.5" font-family="Helvetica,sans-Serif" font-size="10.00" fill="#000000">Record.h</text>
</a>
</g>
</g>
<!-- Node1&#45;&gt;Node18 -->
<g id="edge21" class="edge">
<title>Node1&#45;&gt;Node18</title>
<path fill="none" stroke="#191970" d="M530.2257,-179.4581C587.4334,-169.9235 676.4648,-155.0849 744.7606,-143.7023"/>
<polygon fill="#191970" stroke="#191970" points="745.3919,-147.1454 754.6804,-142.049 744.241,-140.2407 745.3919,-147.1454"/>
</g>
<!-- Node23 -->
<g id="node24" class="node">
<title>Node23</title>
<polygon fill="none" stroke="#bfbfbf" points="946.9744,-118 946.9744,-137 996.9744,-137 996.9744,-118 946.9744,-118"/>
<text text-anchor="middle" x="971.9744" y="-125" font-family="Helvetica,sans-Serif" font-size="10.00" fill="#000000">cstring</text>
</g>
<!-- Node1&#45;&gt;Node23 -->
<g id="edge31" class="edge">
<title>Node1&#45;&gt;Node23</title>
<path fill="none" stroke="#191970" d="M565.1728,-179.871C568.1413,-179.5772 571.0811,-179.2863 573.9744,-179 735.7513,-162.9913 781.0039,-185.2887 937.9744,-143 940.1628,-142.4104 942.3872,-141.6931 944.5969,-140.8938"/>
<polygon fill="#191970" stroke="#191970" points="946.1201,-144.0518 954.0341,-137.0076 943.4546,-137.5791 946.1201,-144.0518"/>
</g>
<!-- Node3 -->
<g id="node4" class="node">
<title>Node3</title>
<g id="a_node4"><a xlink:href="../../d3/d9d/PhysicsConstants_8h.html" target="_top" xlink:title="Header to collect physics constants. ">
<polygon fill="none" stroke="#000000" points="471.4744,-.5 471.4744,-19.5 678.4744,-19.5 678.4744,-.5 471.4744,-.5"/>
<text text-anchor="middle" x="574.9744" y="-7.5" font-family="Helvetica,sans-Serif" font-size="10.00" fill="#000000">CommonConstants/PhysicsConstants.h</text>
</a>
</g>
</g>
<!-- Node2&#45;&gt;Node3 -->
<g id="edge3" class="edge">
<title>Node2&#45;&gt;Node3</title>
<path fill="none" stroke="#191970" d="M579.9292,-56.2455C579.1463,-48.9382 578.0488,-38.6944 577.0856,-29.7046"/>
<polygon fill="#191970" stroke="#191970" points="580.553,-29.2129 576.0075,-19.6427 573.5928,-29.9587 580.553,-29.2129"/>
</g>
<!-- Node4 -->
<g id="node5" class="node">
<title>Node4</title>
<polygon fill="none" stroke="#bfbfbf" points="822.9744,-.5 822.9744,-19.5 872.9744,-19.5 872.9744,-.5 822.9744,-.5"/>
<text text-anchor="middle" x="847.9744" y="-7.5" font-family="Helvetica,sans-Serif" font-size="10.00" fill="#000000">cstdint</text>
</g>
<!-- Node2&#45;&gt;Node4 -->
<g id="edge4" class="edge">
<title>Node2&#45;&gt;Node4</title>
<path fill="none" stroke="#191970" d="M636.8392,-56.4479C681.9217,-48.4045 747.1553,-36.0142 812.699,-20.1539"/>
<polygon fill="#191970" stroke="#191970" points="813.9112,-23.4606 822.7927,-17.6841 812.2474,-16.6612 813.9112,-23.4606"/>
</g>
<!-- Node5 -->
<g id="node6" class="node">
<title>Node5</title>
<polygon fill="none" stroke="#bfbfbf" points="230.4744,-.5 230.4744,-19.5 303.4744,-19.5 303.4744,-.5 230.4744,-.5"/>
<text text-anchor="middle" x="266.9744" y="-7.5" font-family="Helvetica,sans-Serif" font-size="10.00" fill="#000000">string_view</text>
</g>
<!-- Node2&#45;&gt;Node5 -->
<g id="edge5" class="edge">
<title>Node2&#45;&gt;Node5</title>
<path fill="none" stroke="#191970" d="M520.9636,-56.4763C468.7897,-48.0195 390.93,-34.9761 313.5293,-20.0415"/>
<polygon fill="#191970" stroke="#191970" points="314.0863,-16.5843 303.6026,-18.115 312.7527,-23.4561 314.0863,-16.5843"/>
</g>
<!-- Node6 -->
<g id="node7" class="node">
<title>Node6</title>
<polygon fill="none" stroke="#bfbfbf" points="321.9744,-.5 321.9744,-19.5 365.9744,-19.5 365.9744,-.5 321.9744,-.5"/>
<text text-anchor="middle" x="343.9744" y="-7.5" font-family="Helvetica,sans-Serif" font-size="10.00" fill="#000000">string</text>
</g>
<!-- Node2&#45;&gt;Node6 -->
<g id="edge6" class="edge">
<title>Node2&#45;&gt;Node6</title>
<path fill="none" stroke="#191970" d="M532.3821,-56.47C492.6526,-48.3808 434.8549,-35.9377 376.0748,-20.1292"/>
<polygon fill="#191970" stroke="#191970" points="376.8197,-16.7048 366.2517,-17.4579 374.9828,-23.4595 376.8197,-16.7048"/>
</g>
<!-- Node7 -->
<g id="node8" class="node">
<title>Node7</title>
<polygon fill="none" stroke="#bfbfbf" points="384.4744,-.5 384.4744,-19.5 453.4744,-19.5 453.4744,-.5 384.4744,-.5"/>
<text text-anchor="middle" x="418.9744" y="-7.5" font-family="Helvetica,sans-Serif" font-size="10.00" fill="#000000">type_traits</text>
</g>
<!-- Node2&#45;&gt;Node7 -->
<g id="edge7" class="edge">
<title>Node2&#45;&gt;Node7</title>
<path fill="none" stroke="#191970" d="M553.1256,-56.3733C526.304,-47.1016 485.5616,-33.0178 456.0146,-22.804"/>
<polygon fill="#191970" stroke="#191970" points="457.0545,-19.4603 446.4598,-19.5011 454.7675,-26.0762 457.0545,-19.4603"/>
</g>
<!-- Node9 -->
<g id="node10" class="node">
<title>Node9</title>
<polygon fill="none" stroke="#bfbfbf" points="17.9744,-56.5 17.9744,-75.5 59.9744,-75.5 59.9744,-56.5 17.9744,-56.5"/>
<text text-anchor="middle" x="38.9744" y="-63.5" font-family="Helvetica,sans-Serif" font-size="10.00" fill="#000000">array</text>
</g>
<!-- Node8&#45;&gt;Node9 -->
<g id="edge9" class="edge">
<title>Node8&#45;&gt;Node9</title>
<path fill="none" stroke="#191970" d="M92.9744,-117.8906C83.2624,-108.5581 68.3105,-94.1902 56.6003,-82.9374"/>
<polygon fill="#191970" stroke="#191970" points="58.751,-80.15 49.1154,-75.7449 53.9008,-85.1974 58.751,-80.15"/>
</g>
<!-- Node8&#45;&gt;Node10 -->
<g id="edge10" class="edge">
<title>Node8&#45;&gt;Node10</title>
<path fill="none" stroke="#191970" d="M101.895,-117.9309C100.668,-103.9109 99.6837,-77.1578 106.9744,-56 110.5122,-45.7331 117.0488,-35.6738 123.2965,-27.5931"/>
<polygon fill="#191970" stroke="#191970" points="126.1531,-29.63 129.8068,-19.6851 120.7489,-25.1809 126.1531,-29.63"/>
</g>
<!-- Node11&#45;&gt;Node4 -->
<g id="edge12" class="edge">
<title>Node11&#45;&gt;Node4</title>
<path fill="none" stroke="#191970" d="M693.4395,-117.9459C719.7563,-109.4682 756.5898,-95.4076 784.9744,-76 804.466,-62.6728 822.6185,-42.4888 834.3827,-27.9517"/>
<polygon fill="#191970" stroke="#191970" points="837.4081,-29.7664 840.837,-19.7418 831.9051,-25.4402 837.4081,-29.7664"/>
</g>
<!-- Node12&#45;&gt;Node2 -->
<g id="edge20" class="edge">
<title>Node12&#45;&gt;Node2</title>
<path fill="none" stroke="#191970" d="M372.2971,-117.9581C415.4713,-107.2082 485.7239,-89.7162 532.6328,-78.0365"/>
<polygon fill="#191970" stroke="#191970" points="533.7036,-81.3768 542.5617,-75.5643 532.0123,-74.5842 533.7036,-81.3768"/>
</g>
<!-- Node12&#45;&gt;Node10 -->
<g id="edge14" class="edge">
<title>Node12&#45;&gt;Node10</title>
<path fill="none" stroke="#191970" d="M309.3266,-117.9963C286.2631,-108.661 251.2243,-93.3275 222.9744,-76 198.8761,-61.219 173.6945,-40.6408 157.2633,-26.4093"/>
<polygon fill="#191970" stroke="#191970" points="159.3441,-23.5786 149.5206,-19.6101 154.7252,-28.8385 159.3441,-23.5786"/>
</g>
<!-- Node13 -->
<g id="node14" class="node">
<title>Node13</title>
<polygon fill="none" stroke="#bfbfbf" points="231.9744,-56.5 231.9744,-75.5 283.9744,-75.5 283.9744,-56.5 231.9744,-56.5"/>
<text text-anchor="middle" x="257.9744" y="-63.5" font-family="Helvetica,sans-Serif" font-size="10.00" fill="#000000">cassert</text>
</g>
<!-- Node12&#45;&gt;Node13 -->
<g id="edge15" class="edge">
<title>Node12&#45;&gt;Node13</title>
<path fill="none" stroke="#191970" d="M322.0994,-117.8906C310.3447,-108.3786 292.1258,-93.6357 278.1072,-82.2917"/>
<polygon fill="#191970" stroke="#191970" points="279.9921,-79.3146 270.0168,-75.7449 275.5888,-84.7562 279.9921,-79.3146"/>
</g>
<!-- Node12&#45;&gt;Node14 -->
<g id="edge16" class="edge">
<title>Node12&#45;&gt;Node14</title>
<path fill="none" stroke="#191970" d="M304.5994,-117.8906C272.3157,-107.3298 220.3208,-90.3208 184.7197,-78.6747"/>
<polygon fill="#191970" stroke="#191970" points="185.7357,-75.3246 175.1431,-75.5419 183.5592,-81.9776 185.7357,-75.3246"/>
</g>
<!-- Node12&#45;&gt;Node15 -->
<g id="edge17" class="edge">
<title>Node12&#45;&gt;Node15</title>
<path fill="none" stroke="#191970" d="M333.3494,-117.8906C332.7949,-109.3657 331.9672,-96.6392 331.2702,-85.9235"/>
<polygon fill="#191970" stroke="#191970" points="334.7499,-85.4966 330.6082,-75.7449 327.7647,-85.951 334.7499,-85.4966"/>
</g>
<!-- Node12&#45;&gt;Node16 -->
<g id="edge18" class="edge">
<title>Node12&#45;&gt;Node16</title>
<path fill="none" stroke="#191970" d="M393.553,-117.9581C463.0669,-106.825 577.7331,-88.4605 650.4772,-76.8101"/>
<polygon fill="#191970" stroke="#191970" points="651.1338,-80.2496 660.4545,-75.2122 650.0268,-73.3377 651.1338,-80.2496"/>
</g>
<!-- Node17 -->
<g id="node18" class="node">
<title>Node17</title>
<polygon fill="none" stroke="#bfbfbf" points="696.9744,-.5 696.9744,-19.5 804.9744,-19.5 804.9744,-.5 696.9744,-.5"/>
<text text-anchor="middle" x="750.9744" y="-7.5" font-family="Helvetica,sans-Serif" font-size="10.00" fill="#000000">fairlogger/Logger.h</text>
</g>
<!-- Node16&#45;&gt;Node17 -->
<g id="edge19" class="edge">
<title>Node16&#45;&gt;Node17</title>
<path fill="none" stroke="#191970" d="M723.7225,-56.2455C728.2179,-48.617 734.5992,-37.7881 740.0568,-28.5267"/>
<polygon fill="#191970" stroke="#191970" points="743.2305,-30.035 745.2921,-19.6427 737.1997,-26.4811 743.2305,-30.035"/>
</g>
<!-- Node18&#45;&gt;Node4 -->
<g id="edge25" class="edge">
<title>Node18&#45;&gt;Node4</title>
<path fill="none" stroke="#191970" d="M842.7588,-112.1389C843.8398,-90.9692 845.7879,-52.8174 846.9729,-29.6112"/>
<polygon fill="#191970" stroke="#191970" points="850.4716,-29.725 847.4862,-19.5595 843.4807,-29.3679 850.4716,-29.725"/>
</g>
<!-- Node19 -->
<g id="node20" class="node">
<title>Node19</title>
<g id="a_node20"><a xlink:href="../../d2/d45/GPUCommonRtypes_8h.html" target="_top" xlink:title="GPUCommonRtypes.h">
<polygon fill="none" stroke="#000000" points="376.4744,-56.5 376.4744,-75.5 501.4744,-75.5 501.4744,-56.5 376.4744,-56.5"/>
<text text-anchor="middle" x="438.9744" y="-63.5" font-family="Helvetica,sans-Serif" font-size="10.00" fill="#000000">GPUCommonRtypes.h</text>
</a>
</g>
</g>
<!-- Node18&#45;&gt;Node19 -->
<g id="edge22" class="edge">
<title>Node18&#45;&gt;Node19</title>
<path fill="none" stroke="#191970" d="M754.8819,-113.692C751.1971,-113.1183 747.5493,-112.5523 743.9744,-112 664.5158,-99.7245 573.3494,-86.0252 511.5397,-76.7947"/>
<polygon fill="#191970" stroke="#191970" points="511.904,-73.3104 501.4969,-75.2957 510.8706,-80.2337 511.904,-73.3104"/>
</g>
<!-- Node20 -->
<g id="node21" class="node">
<title>Node20</title>
<polygon fill="none" stroke="#bfbfbf" points="870.4744,-56.5 870.4744,-75.5 919.4744,-75.5 919.4744,-56.5 870.4744,-56.5"/>
<text text-anchor="middle" x="894.9744" y="-63.5" font-family="Helvetica,sans-Serif" font-size="10.00" fill="#000000">iosfwd</text>
</g>
<!-- Node18&#45;&gt;Node20 -->
<g id="edge24" class="edge">
<title>Node18&#45;&gt;Node20</title>
<path fill="none" stroke="#191970" d="M855.0755,-112.2977C862.5857,-103.5831 872.0443,-92.6075 879.867,-83.5302"/>
<polygon fill="#191970" stroke="#191970" points="882.6115,-85.707 886.4884,-75.8469 877.3089,-81.1372 882.6115,-85.707"/>
</g>
<!-- Node21 -->
<g id="node22" class="node">
<title>Node21</title>
<polygon fill="none" stroke="#bfbfbf" points="937.4744,-56.5 937.4744,-75.5 984.4744,-75.5 984.4744,-56.5 937.4744,-56.5"/>
<text text-anchor="middle" x="960.9744" y="-63.5" font-family="Helvetica,sans-Serif" font-size="10.00" fill="#000000">cmath</text>
</g>
<!-- Node18&#45;&gt;Node21 -->
<g id="edge26" class="edge">
<title>Node18&#45;&gt;Node21</title>
<path fill="none" stroke="#191970" d="M871.085,-112.4554C890.1567,-102.599 914.9225,-89.7999 933.6282,-80.1327"/>
<polygon fill="#191970" stroke="#191970" points="935.2568,-83.2309 942.5336,-75.5303 932.0429,-77.0122 935.2568,-83.2309"/>
</g>
<!-- Node22 -->
<g id="node23" class="node">
<title>Node22</title>
<g id="a_node23"><a xlink:href="../../d4/dc6/LHCConstants_8h.html" target="_top" xlink:title="Header to collect LHC related constants. ">
<polygon fill="none" stroke="#000000" points="1002.9744,-56.5 1002.9744,-75.5 1192.9744,-75.5 1192.9744,-56.5 1002.9744,-56.5"/>
<text text-anchor="middle" x="1097.9744" y="-63.5" font-family="Helvetica,sans-Serif" font-size="10.00" fill="#000000">CommonConstants/LHCConstants.h</text>
</a>
</g>
</g>
<!-- Node18&#45;&gt;Node22 -->
<g id="edge27" class="edge">
<title>Node18&#45;&gt;Node22</title>
<path fill="none" stroke="#191970" d="M904.599,-112.4554C948.9057,-101.8114 1007.4978,-87.7356 1048.5299,-77.8783"/>
<polygon fill="#191970" stroke="#191970" points="1049.3977,-81.2695 1058.3034,-75.5303 1047.7625,-74.4631 1049.3977,-81.2695"/>
</g>
<!-- Node19&#45;&gt;Node10 -->
<g id="edge23" class="edge">
<title>Node19&#45;&gt;Node10</title>
<path fill="none" stroke="#191970" d="M387.7434,-56.4369C328.4721,-45.3729 232.1632,-27.3952 178.4198,-17.3632"/>
<polygon fill="#191970" stroke="#191970" points="179.0529,-13.9209 168.5804,-15.5265 177.7684,-20.8021 179.0529,-13.9209"/>
</g>
</g>
</svg>
