<?xml version="1.0" encoding="UTF-8" standalone="no"?>
<!DOCTYPE svg PUBLIC "-//W3C//DTD SVG 1.1//EN"
 "http://www.w3.org/Graphics/SVG/1.1/DTD/svg11.dtd">
<!-- Generated by graphviz version 2.40.1 (20161225.0304)
 -->
<!-- Title: /home/travis/build/AliceO2Group/AliceO2/DataFormats/Detectors/ITSMFT/common/include/DataFormatsITSMFT/Cluster.h Pages: 1 -->
<svg width="2845pt" height="372pt"
 viewBox="0.00 0.00 2844.50 372.00" xmlns="http://www.w3.org/2000/svg" xmlns:xlink="http://www.w3.org/1999/xlink">
<g id="graph0" class="graph" transform="scale(1 1) rotate(0) translate(4 368)">
<title>/home/travis/build/AliceO2Group/AliceO2/DataFormats/Detectors/ITSMFT/common/include/DataFormatsITSMFT/Cluster.h</title>
<!-- Node50 -->
<g id="node1" class="node">
<title>Node50</title>
<polygon fill="#bfbfbf" stroke="#000000" points="1246.5,-300.5 1246.5,-363.5 1409.5,-363.5 1409.5,-300.5 1246.5,-300.5"/>
<text text-anchor="start" x="1254.5" y="-351.5" font-family="Helvetica,sans-Serif" font-size="10.00" fill="#000000">/home/travis/build</text>
<text text-anchor="start" x="1254.5" y="-340.5" font-family="Helvetica,sans-Serif" font-size="10.00" fill="#000000">/AliceO2Group/AliceO2</text>
<text text-anchor="start" x="1254.5" y="-329.5" font-family="Helvetica,sans-Serif" font-size="10.00" fill="#000000">/DataFormats/Detectors</text>
<text text-anchor="start" x="1254.5" y="-318.5" font-family="Helvetica,sans-Serif" font-size="10.00" fill="#000000">/ITSMFT/common/include</text>
<text text-anchor="middle" x="1328" y="-307.5" font-family="Helvetica,sans-Serif" font-size="10.00" fill="#000000">/DataFormatsITSMFT/Cluster.h</text>
</g>
<!-- Node51 -->
<g id="node2" class="node">
<title>Node51</title>
<g id="a_node2"><a xlink:href="../../df/db9/DataFormats_2Detectors_2ITSMFT_2common_2src_2Cluster_8cxx.html" target="_top" xlink:title="/home/travis/build\l/AliceO2Group/AliceO2\l/DataFormats/Detectors\l/ITSMFT/common/src/Cluster.cxx">
<polygon fill="none" stroke="#000000" points="506,-206 506,-258 680,-258 680,-206 506,-206"/>
<text text-anchor="start" x="514" y="-246" font-family="Helvetica,sans-Serif" font-size="10.00" fill="#000000">/home/travis/build</text>
<text text-anchor="start" x="514" y="-235" font-family="Helvetica,sans-Serif" font-size="10.00" fill="#000000">/AliceO2Group/AliceO2</text>
<text text-anchor="start" x="514" y="-224" font-family="Helvetica,sans-Serif" font-size="10.00" fill="#000000">/DataFormats/Detectors</text>
<text text-anchor="middle" x="593" y="-213" font-family="Helvetica,sans-Serif" font-size="10.00" fill="#000000">/ITSMFT/common/src/Cluster.cxx</text>
</a>
</g>
</g>
<!-- Node50&#45;&gt;Node51 -->
<g id="edge1" class="edge">
<title>Node50&#45;&gt;Node51</title>
<path fill="none" stroke="#191970" d="M1236.117,-328.444C1111.0841,-322.1984 880.9337,-305.6892 689,-264 681.3603,-262.3406 673.4758,-260.2912 665.6625,-258.0375"/>
<polygon fill="#191970" stroke="#191970" points="1236.2507,-331.9546 1246.4095,-328.9468 1236.5922,-324.963 1236.2507,-331.9546"/>
</g>
<!-- Node52 -->
<g id="node3" class="node">
<title>Node52</title>
<g id="a_node3"><a xlink:href="../../da/db3/test__Cluster_8cxx.html" target="_top" xlink:title="/home/travis/build\l/AliceO2Group/AliceO2\l/DataFormats/Detectors\l/ITSMFT/common/test/test\l_Cluster.cxx">
<polygon fill="none" stroke="#000000" points="698.5,-200.5 698.5,-263.5 841.5,-263.5 841.5,-200.5 698.5,-200.5"/>
<text text-anchor="start" x="706.5" y="-251.5" font-family="Helvetica,sans-Serif" font-size="10.00" fill="#000000">/home/travis/build</text>
<text text-anchor="start" x="706.5" y="-240.5" font-family="Helvetica,sans-Serif" font-size="10.00" fill="#000000">/AliceO2Group/AliceO2</text>
<text text-anchor="start" x="706.5" y="-229.5" font-family="Helvetica,sans-Serif" font-size="10.00" fill="#000000">/DataFormats/Detectors</text>
<text text-anchor="start" x="706.5" y="-218.5" font-family="Helvetica,sans-Serif" font-size="10.00" fill="#000000">/ITSMFT/common/test/test</text>
<text text-anchor="middle" x="770" y="-207.5" font-family="Helvetica,sans-Serif" font-size="10.00" fill="#000000">_Cluster.cxx</text>
</a>
</g>
</g>
<!-- Node50&#45;&gt;Node52 -->
<g id="edge2" class="edge">
<title>Node50&#45;&gt;Node52</title>
<path fill="none" stroke="#191970" d="M1236.3836,-325.5118C1139.1948,-317.1183 981.7952,-299.1886 850,-264 847.254,-263.2668 844.475,-262.4662 841.6829,-261.6122"/>
<polygon fill="#191970" stroke="#191970" points="1236.2119,-329.0097 1246.4719,-326.3674 1236.8035,-322.0347 1236.2119,-329.0097"/>
</g>
<!-- Node53 -->
<g id="node4" class="node">
<title>Node53</title>
<g id="a_node4"><a xlink:href="../../dd/dea/TrackITS_8cxx.html" target="_top" xlink:title="Implementation of the ITS cooked track. ">
<polygon fill="none" stroke="#000000" points="859.5,-206 859.5,-258 1012.5,-258 1012.5,-206 859.5,-206"/>
<text text-anchor="start" x="867.5" y="-246" font-family="Helvetica,sans-Serif" font-size="10.00" fill="#000000">/home/travis/build</text>
<text text-anchor="start" x="867.5" y="-235" font-family="Helvetica,sans-Serif" font-size="10.00" fill="#000000">/AliceO2Group/AliceO2</text>
<text text-anchor="start" x="867.5" y="-224" font-family="Helvetica,sans-Serif" font-size="10.00" fill="#000000">/DataFormats/Detectors</text>
<text text-anchor="middle" x="936" y="-213" font-family="Helvetica,sans-Serif" font-size="10.00" fill="#000000">/ITSMFT/ITS/src/TrackITS.cxx</text>
</a>
</g>
</g>
<!-- Node50&#45;&gt;Node53 -->
<g id="edge3" class="edge">
<title>Node50&#45;&gt;Node53</title>
<path fill="none" stroke="#191970" d="M1236.3314,-315.24C1174.8506,-303.1358 1092.3762,-285.2234 1021,-264 1014.9544,-262.2024 1008.7228,-260.1852 1002.511,-258.0611"/>
<polygon fill="#191970" stroke="#191970" points="1235.913,-318.7244 1246.3986,-317.2071 1237.2554,-311.8543 1235.913,-318.7244"/>
</g>
<!-- Node54 -->
<g id="node5" class="node">
<title>Node54</title>
<g id="a_node5"><a xlink:href="../../d3/dac/MatchTPCITS_8h.html" target="_top" xlink:title="Class to perform TPC ITS matching. ">
<polygon fill="none" stroke="#000000" points="1030.5,-206 1030.5,-258 1235.5,-258 1235.5,-206 1030.5,-206"/>
<text text-anchor="start" x="1038.5" y="-246" font-family="Helvetica,sans-Serif" font-size="10.00" fill="#000000">/home/travis/build</text>
<text text-anchor="start" x="1038.5" y="-235" font-family="Helvetica,sans-Serif" font-size="10.00" fill="#000000">/AliceO2Group/AliceO2</text>
<text text-anchor="start" x="1038.5" y="-224" font-family="Helvetica,sans-Serif" font-size="10.00" fill="#000000">/Detectors/GlobalTracking</text>
<text text-anchor="middle" x="1133" y="-213" font-family="Helvetica,sans-Serif" font-size="10.00" fill="#000000">/include/GlobalTracking/MatchTPCITS.h</text>
</a>
</g>
</g>
<!-- Node50&#45;&gt;Node54 -->
<g id="edge4" class="edge">
<title>Node50&#45;&gt;Node54</title>
<path fill="none" stroke="#191970" d="M1257.3927,-295.7911C1233.1065,-283.3367 1206.4053,-269.6437 1183.9882,-258.1478"/>
<polygon fill="#191970" stroke="#191970" points="1256.0731,-299.0478 1266.5684,-300.4966 1259.2674,-292.819 1256.0731,-299.0478"/>
</g>
<!-- Node64 -->
<g id="node15" class="node">
<title>Node64</title>
<g id="a_node15"><a xlink:href="../../d6/d73/TPCITSMatchingSpec_8cxx.html" target="_top" xlink:title="/home/travis/build\l/AliceO2Group/AliceO2\l/Detectors/GlobalTrackingWorkflow\l/src/TPCITSMatchingSpec.cxx">
<polygon fill="none" stroke="#000000" points="1249.5,-6 1249.5,-58 1436.5,-58 1436.5,-6 1249.5,-6"/>
<text text-anchor="start" x="1257.5" y="-46" font-family="Helvetica,sans-Serif" font-size="10.00" fill="#000000">/home/travis/build</text>
<text text-anchor="start" x="1257.5" y="-35" font-family="Helvetica,sans-Serif" font-size="10.00" fill="#000000">/AliceO2Group/AliceO2</text>
<text text-anchor="start" x="1257.5" y="-24" font-family="Helvetica,sans-Serif" font-size="10.00" fill="#000000">/Detectors/GlobalTrackingWorkflow</text>
<text text-anchor="middle" x="1343" y="-13" font-family="Helvetica,sans-Serif" font-size="10.00" fill="#000000">/src/TPCITSMatchingSpec.cxx</text>
</a>
</g>
</g>
<!-- Node50&#45;&gt;Node64 -->
<g id="edge16" class="edge">
<title>Node50&#45;&gt;Node64</title>
<path fill="none" stroke="#191970" d="M1300.7186,-291.3869C1296.0276,-282.6775 1291.7758,-273.2909 1289,-264 1268.1204,-194.1148 1257.2043,-168.2238 1283,-100 1288.958,-84.2425 1300.4173,-69.7779 1311.7384,-58.2781"/>
<polygon fill="#191970" stroke="#191970" points="1297.7365,-293.2233 1305.7227,-300.1854 1303.8213,-289.7626 1297.7365,-293.2233"/>
</g>
<!-- Node65 -->
<g id="node16" class="node">
<title>Node65</title>
<g id="a_node16"><a xlink:href="../../d6/d0c/CookedTracker_8h.html" target="_top" xlink:title="Definition of the &quot;Cooked Matrix&quot; ITS tracker. ">
<polygon fill="none" stroke="#000000" points="1298,-200.5 1298,-263.5 1488,-263.5 1488,-200.5 1298,-200.5"/>
<text text-anchor="start" x="1306" y="-251.5" font-family="Helvetica,sans-Serif" font-size="10.00" fill="#000000">/home/travis/build</text>
<text text-anchor="start" x="1306" y="-240.5" font-family="Helvetica,sans-Serif" font-size="10.00" fill="#000000">/AliceO2Group/AliceO2</text>
<text text-anchor="start" x="1306" y="-229.5" font-family="Helvetica,sans-Serif" font-size="10.00" fill="#000000">/Detectors/ITSMFT/ITS</text>
<text text-anchor="start" x="1306" y="-218.5" font-family="Helvetica,sans-Serif" font-size="10.00" fill="#000000">/reconstruction/include</text>
<text text-anchor="middle" x="1393" y="-207.5" font-family="Helvetica,sans-Serif" font-size="10.00" fill="#000000">/ITSReconstruction/CookedTracker.h</text>
</a>
</g>
</g>
<!-- Node50&#45;&gt;Node65 -->
<g id="edge17" class="edge">
<title>Node50&#45;&gt;Node65</title>
<path fill="none" stroke="#191970" d="M1354.0415,-291.9361C1360.1279,-282.5725 1366.5291,-272.7244 1372.3443,-263.778"/>
<polygon fill="#191970" stroke="#191970" points="1351.0818,-290.0674 1348.5664,-300.3594 1356.9509,-293.8824 1351.0818,-290.0674"/>
</g>
<!-- Node68 -->
<g id="node19" class="node">
<title>Node68</title>
<g id="a_node19"><a xlink:href="../../d6/dbc/CookedTrackerSpec_8cxx.html" target="_top" xlink:title="/home/travis/build\l/AliceO2Group/AliceO2\l/Detectors/ITSMFT/ITS\l/workflow/src/CookedTrackerSpec.cxx">
<polygon fill="none" stroke="#000000" points="1645,-6 1645,-58 1845,-58 1845,-6 1645,-6"/>
<text text-anchor="start" x="1653" y="-46" font-family="Helvetica,sans-Serif" font-size="10.00" fill="#000000">/home/travis/build</text>
<text text-anchor="start" x="1653" y="-35" font-family="Helvetica,sans-Serif" font-size="10.00" fill="#000000">/AliceO2Group/AliceO2</text>
<text text-anchor="start" x="1653" y="-24" font-family="Helvetica,sans-Serif" font-size="10.00" fill="#000000">/Detectors/ITSMFT/ITS</text>
<text text-anchor="middle" x="1745" y="-13" font-family="Helvetica,sans-Serif" font-size="10.00" fill="#000000">/workflow/src/CookedTrackerSpec.cxx</text>
</a>
</g>
</g>
<!-- Node50&#45;&gt;Node68 -->
<g id="edge22" class="edge">
<title>Node50&#45;&gt;Node68</title>
<path fill="none" stroke="#191970" d="M1419.7085,-309.4808C1499.4394,-285.5843 1613.1412,-240.4754 1685,-164 1700.1261,-147.9022 1722.7113,-91.8393 1735.4197,-58.1728"/>
<polygon fill="#191970" stroke="#191970" points="1418.2777,-306.2532 1409.6707,-312.4313 1420.2518,-312.9691 1418.2777,-306.2532"/>
</g>
<!-- Node70 -->
<g id="node21" class="node">
<title>Node70</title>
<g id="a_node21"><a xlink:href="../../db/d12/ITSMFT_2MFT_2reconstruction_2include_2MFTReconstruction_2ClustererTask_8h.html" target="_top" xlink:title="/home/travis/build\l/AliceO2Group/AliceO2\l/Detectors/ITSMFT/MFT\l/reconstruction/include\l/MFTReconstruction/ClustererTask.h">
<polygon fill="none" stroke="#000000" points="1735.5,-200.5 1735.5,-263.5 1924.5,-263.5 1924.5,-200.5 1735.5,-200.5"/>
<text text-anchor="start" x="1743.5" y="-251.5" font-family="Helvetica,sans-Serif" font-size="10.00" fill="#000000">/home/travis/build</text>
<text text-anchor="start" x="1743.5" y="-240.5" font-family="Helvetica,sans-Serif" font-size="10.00" fill="#000000">/AliceO2Group/AliceO2</text>
<text text-anchor="start" x="1743.5" y="-229.5" font-family="Helvetica,sans-Serif" font-size="10.00" fill="#000000">/Detectors/ITSMFT/MFT</text>
<text text-anchor="start" x="1743.5" y="-218.5" font-family="Helvetica,sans-Serif" font-size="10.00" fill="#000000">/reconstruction/include</text>
<text text-anchor="middle" x="1830" y="-207.5" font-family="Helvetica,sans-Serif" font-size="10.00" fill="#000000">/MFTReconstruction/ClustererTask.h</text>
</a>
</g>
</g>
<!-- Node50&#45;&gt;Node70 -->
<g id="edge23" class="edge">
<title>Node50&#45;&gt;Node70</title>
<path fill="none" stroke="#191970" d="M1419.7646,-318.9204C1499.3614,-306.8908 1617.4277,-287.4008 1719,-264 1724.3745,-262.7618 1729.8752,-261.4203 1735.413,-260.0121"/>
<polygon fill="#191970" stroke="#191970" points="1419.1358,-315.4755 1409.7669,-320.4227 1420.176,-322.3978 1419.1358,-315.4755"/>
</g>
<!-- Node72 -->
<g id="node23" class="node">
<title>Node72</title>
<g id="a_node23"><a xlink:href="../../d3/d0c/TrackInterpolation_8h.html" target="_top" xlink:title="Definition of the TrackInterpolation class. ">
<polygon fill="none" stroke="#000000" points="2109.5,-200.5 2109.5,-263.5 2288.5,-263.5 2288.5,-200.5 2109.5,-200.5"/>
<text text-anchor="start" x="2117.5" y="-251.5" font-family="Helvetica,sans-Serif" font-size="10.00" fill="#000000">/home/travis/build</text>
<text text-anchor="start" x="2117.5" y="-240.5" font-family="Helvetica,sans-Serif" font-size="10.00" fill="#000000">/AliceO2Group/AliceO2</text>
<text text-anchor="start" x="2117.5" y="-229.5" font-family="Helvetica,sans-Serif" font-size="10.00" fill="#000000">/Detectors/TPC/calibration</text>
<text text-anchor="start" x="2117.5" y="-218.5" font-family="Helvetica,sans-Serif" font-size="10.00" fill="#000000">/SpacePoints/include/SpacePoints</text>
<text text-anchor="middle" x="2199" y="-207.5" font-family="Helvetica,sans-Serif" font-size="10.00" fill="#000000">/TrackInterpolation.h</text>
</a>
</g>
</g>
<!-- Node50&#45;&gt;Node72 -->
<g id="edge25" class="edge">
<title>Node50&#45;&gt;Node72</title>
<path fill="none" stroke="#191970" d="M1419.8582,-321.9009C1538.4374,-308.8122 1751.159,-285.1566 1933,-264 1991.7919,-257.1597 2057.8593,-249.2131 2109.4432,-242.9501"/>
<polygon fill="#191970" stroke="#191970" points="1419.2888,-318.4424 1409.733,-323.0181 1420.0565,-325.4001 1419.2888,-318.4424"/>
</g>
<!-- Node80 -->
<g id="node31" class="node">
<title>Node80</title>
<g id="a_node31"><a xlink:href="../../d2/d8a/DataInterpreterITS_8cxx.html" target="_top" xlink:title="converting ITS data to Event Visualisation primitives ">
<polygon fill="none" stroke="#000000" points="2306.5,-206 2306.5,-258 2467.5,-258 2467.5,-206 2306.5,-206"/>
<text text-anchor="start" x="2314.5" y="-246" font-family="Helvetica,sans-Serif" font-size="10.00" fill="#000000">/home/travis/build</text>
<text text-anchor="start" x="2314.5" y="-235" font-family="Helvetica,sans-Serif" font-size="10.00" fill="#000000">/AliceO2Group/AliceO2</text>
<text text-anchor="start" x="2314.5" y="-224" font-family="Helvetica,sans-Serif" font-size="10.00" fill="#000000">/EventVisualisation/Detectors</text>
<text text-anchor="middle" x="2387" y="-213" font-family="Helvetica,sans-Serif" font-size="10.00" fill="#000000">/src/DataInterpreterITS.cxx</text>
</a>
</g>
</g>
<!-- Node50&#45;&gt;Node80 -->
<g id="edge33" class="edge">
<title>Node50&#45;&gt;Node80</title>
<path fill="none" stroke="#191970" d="M1419.8371,-328.7837C1628.2779,-320.9617 2131.9142,-298.9788 2298,-264 2305.391,-262.4434 2312.9994,-260.413 2320.5085,-258.1294"/>
<polygon fill="#191970" stroke="#191970" points="1419.699,-325.2863 1409.8364,-329.1566 1419.9599,-332.2815 1419.699,-325.2863"/>
</g>
<!-- Node55 -->
<g id="node6" class="node">
<title>Node55</title>
<g id="a_node6"><a xlink:href="../../d0/d74/MatchTOF_8h.html" target="_top" xlink:title="Class to perform TOF matching to global tracks. ">
<polygon fill="none" stroke="#000000" points="365,-106 365,-158 553,-158 553,-106 365,-106"/>
<text text-anchor="start" x="373" y="-146" font-family="Helvetica,sans-Serif" font-size="10.00" fill="#000000">/home/travis/build</text>
<text text-anchor="start" x="373" y="-135" font-family="Helvetica,sans-Serif" font-size="10.00" fill="#000000">/AliceO2Group/AliceO2</text>
<text text-anchor="start" x="373" y="-124" font-family="Helvetica,sans-Serif" font-size="10.00" fill="#000000">/Detectors/GlobalTracking</text>
<text text-anchor="middle" x="459" y="-113" font-family="Helvetica,sans-Serif" font-size="10.00" fill="#000000">/include/GlobalTracking/MatchTOF.h</text>
</a>
</g>
</g>
<!-- Node54&#45;&gt;Node55 -->
<g id="edge5" class="edge">
<title>Node54&#45;&gt;Node55</title>
<path fill="none" stroke="#191970" d="M1037.246,-203.5705C1031.7702,-202.2793 1026.3272,-201.0763 1021,-200 858.1946,-167.107 665.4201,-148.0082 553.1967,-138.8259"/>
<polygon fill="#191970" stroke="#191970" points="1036.5751,-207.0094 1047.12,-205.9816 1038.2357,-200.2093 1036.5751,-207.0094"/>
</g>
<!-- Node57 -->
<g id="node8" class="node">
<title>Node57</title>
<g id="a_node8"><a xlink:href="../../db/d6a/MatchTOF_8cxx.html" target="_top" xlink:title="/home/travis/build\l/AliceO2Group/AliceO2\l/Detectors/GlobalTracking\l/src/MatchTOF.cxx">
<polygon fill="none" stroke="#000000" points="0,-6 0,-58 142,-58 142,-6 0,-6"/>
<text text-anchor="start" x="8" y="-46" font-family="Helvetica,sans-Serif" font-size="10.00" fill="#000000">/home/travis/build</text>
<text text-anchor="start" x="8" y="-35" font-family="Helvetica,sans-Serif" font-size="10.00" fill="#000000">/AliceO2Group/AliceO2</text>
<text text-anchor="start" x="8" y="-24" font-family="Helvetica,sans-Serif" font-size="10.00" fill="#000000">/Detectors/GlobalTracking</text>
<text text-anchor="middle" x="71" y="-13" font-family="Helvetica,sans-Serif" font-size="10.00" fill="#000000">/src/MatchTOF.cxx</text>
</a>
</g>
</g>
<!-- Node54&#45;&gt;Node57 -->
<g id="edge10" class="edge">
<title>Node54&#45;&gt;Node57</title>
<path fill="none" stroke="#191970" d="M1039.761,-203.6761C1033.4464,-202.2795 1027.1514,-201.0318 1021,-200 729.0898,-151.0355 643.2272,-235.4815 356,-164 265.2516,-141.4157 168.1852,-89.8498 113.9934,-58.2689"/>
<polygon fill="#191970" stroke="#191970" points="1039.1494,-207.1273 1049.6824,-205.9837 1040.7353,-200.3092 1039.1494,-207.1273"/>
</g>
<!-- Node60 -->
<g id="node11" class="node">
<title>Node60</title>
<g id="a_node11"><a xlink:href="../../dc/d59/MatchTPCITS_8cxx.html" target="_top" xlink:title="/home/travis/build\l/AliceO2Group/AliceO2\l/Detectors/GlobalTracking\l/src/MatchTPCITS.cxx">
<polygon fill="none" stroke="#000000" points="884,-106 884,-158 1026,-158 1026,-106 884,-106"/>
<text text-anchor="start" x="892" y="-146" font-family="Helvetica,sans-Serif" font-size="10.00" fill="#000000">/home/travis/build</text>
<text text-anchor="start" x="892" y="-135" font-family="Helvetica,sans-Serif" font-size="10.00" fill="#000000">/AliceO2Group/AliceO2</text>
<text text-anchor="start" x="892" y="-124" font-family="Helvetica,sans-Serif" font-size="10.00" fill="#000000">/Detectors/GlobalTracking</text>
<text text-anchor="middle" x="955" y="-113" font-family="Helvetica,sans-Serif" font-size="10.00" fill="#000000">/src/MatchTPCITS.cxx</text>
</a>
</g>
</g>
<!-- Node54&#45;&gt;Node60 -->
<g id="edge11" class="edge">
<title>Node54&#45;&gt;Node60</title>
<path fill="none" stroke="#191970" d="M1077.8619,-201.0236C1053.3391,-187.2467 1024.7854,-171.2053 1001.3798,-158.0561"/>
<polygon fill="#191970" stroke="#191970" points="1076.2646,-204.1406 1086.6973,-205.9872 1079.6932,-198.0378 1076.2646,-204.1406"/>
</g>
<!-- Node61 -->
<g id="node12" class="node">
<title>Node61</title>
<g id="a_node12"><a xlink:href="../../da/d20/TPCITSMatchingSpec_8h.html" target="_top" xlink:title="/home/travis/build\l/AliceO2Group/AliceO2\l/Detectors/GlobalTrackingWorkflow\l/include/GlobalTrackingWorkflow\l/TPCITSMatchingSpec.h">
<polygon fill="none" stroke="#000000" points="1044.5,-100.5 1044.5,-163.5 1231.5,-163.5 1231.5,-100.5 1044.5,-100.5"/>
<text text-anchor="start" x="1052.5" y="-151.5" font-family="Helvetica,sans-Serif" font-size="10.00" fill="#000000">/home/travis/build</text>
<text text-anchor="start" x="1052.5" y="-140.5" font-family="Helvetica,sans-Serif" font-size="10.00" fill="#000000">/AliceO2Group/AliceO2</text>
<text text-anchor="start" x="1052.5" y="-129.5" font-family="Helvetica,sans-Serif" font-size="10.00" fill="#000000">/Detectors/GlobalTrackingWorkflow</text>
<text text-anchor="start" x="1052.5" y="-118.5" font-family="Helvetica,sans-Serif" font-size="10.00" fill="#000000">/include/GlobalTrackingWorkflow</text>
<text text-anchor="middle" x="1138" y="-107.5" font-family="Helvetica,sans-Serif" font-size="10.00" fill="#000000">/TPCITSMatchingSpec.h</text>
</a>
</g>
</g>
<!-- Node54&#45;&gt;Node61 -->
<g id="edge12" class="edge">
<title>Node54&#45;&gt;Node61</title>
<path fill="none" stroke="#191970" d="M1134.8093,-195.8138C1135.3367,-185.2664 1135.9085,-173.829 1136.4205,-163.5891"/>
<polygon fill="#191970" stroke="#191970" points="1131.3045,-195.8249 1134.3006,-205.9872 1138.2957,-196.1745 1131.3045,-195.8249"/>
</g>
<!-- Node56 -->
<g id="node7" class="node">
<title>Node56</title>
<g id="a_node7"><a xlink:href="../../d6/dc9/AODProducerWorkflowSpec_8cxx.html" target="_top" xlink:title="/home/travis/build\l/AliceO2Group/AliceO2\l/Detectors/AOD/src/AODProducer\lWorkflowSpec.cxx">
<polygon fill="none" stroke="#000000" points="160,-6 160,-58 336,-58 336,-6 160,-6"/>
<text text-anchor="start" x="168" y="-46" font-family="Helvetica,sans-Serif" font-size="10.00" fill="#000000">/home/travis/build</text>
<text text-anchor="start" x="168" y="-35" font-family="Helvetica,sans-Serif" font-size="10.00" fill="#000000">/AliceO2Group/AliceO2</text>
<text text-anchor="start" x="168" y="-24" font-family="Helvetica,sans-Serif" font-size="10.00" fill="#000000">/Detectors/AOD/src/AODProducer</text>
<text text-anchor="middle" x="248" y="-13" font-family="Helvetica,sans-Serif" font-size="10.00" fill="#000000">WorkflowSpec.cxx</text>
</a>
</g>
</g>
<!-- Node55&#45;&gt;Node56 -->
<g id="edge6" class="edge">
<title>Node55&#45;&gt;Node56</title>
<path fill="none" stroke="#191970" d="M394.7847,-101.5662C365.4623,-87.6693 331.0882,-71.3783 302.9783,-58.0561"/>
<polygon fill="#191970" stroke="#191970" points="393.5776,-104.8672 404.113,-105.9872 396.5755,-98.5417 393.5776,-104.8672"/>
</g>
<!-- Node55&#45;&gt;Node57 -->
<g id="edge7" class="edge">
<title>Node55&#45;&gt;Node57</title>
<path fill="none" stroke="#191970" d="M355.0704,-113.447C294.8415,-101.6085 217.9225,-84.6209 151,-64 145.2818,-62.238 139.3974,-60.2454 133.5383,-58.1373"/>
<polygon fill="#191970" stroke="#191970" points="354.4846,-116.8986 364.9694,-115.376 355.8235,-110.0279 354.4846,-116.8986"/>
</g>
<!-- Node58 -->
<g id="node9" class="node">
<title>Node58</title>
<g id="a_node9"><a xlink:href="../../d8/d84/RecoWorkflowSpec_8cxx.html" target="_top" xlink:title="/home/travis/build\l/AliceO2Group/AliceO2\l/Detectors/GlobalTrackingWorkflow\l/tofworkflow/src/RecoWorkflowSpec.cxx">
<polygon fill="none" stroke="#000000" points="354.5,-6 354.5,-58 563.5,-58 563.5,-6 354.5,-6"/>
<text text-anchor="start" x="362.5" y="-46" font-family="Helvetica,sans-Serif" font-size="10.00" fill="#000000">/home/travis/build</text>
<text text-anchor="start" x="362.5" y="-35" font-family="Helvetica,sans-Serif" font-size="10.00" fill="#000000">/AliceO2Group/AliceO2</text>
<text text-anchor="start" x="362.5" y="-24" font-family="Helvetica,sans-Serif" font-size="10.00" fill="#000000">/Detectors/GlobalTrackingWorkflow</text>
<text text-anchor="middle" x="459" y="-13" font-family="Helvetica,sans-Serif" font-size="10.00" fill="#000000">/tofworkflow/src/RecoWorkflowSpec.cxx</text>
</a>
</g>
</g>
<!-- Node55&#45;&gt;Node58 -->
<g id="edge8" class="edge">
<title>Node55&#45;&gt;Node58</title>
<path fill="none" stroke="#191970" d="M459,-95.8962C459,-83.4433 459,-69.7413 459,-58.2299"/>
<polygon fill="#191970" stroke="#191970" points="455.5001,-95.9872 459,-105.9872 462.5001,-95.9873 455.5001,-95.9872"/>
</g>
<!-- Node59 -->
<g id="node10" class="node">
<title>Node59</title>
<g id="a_node10"><a xlink:href="../../d4/d76/RecoWorkflowWithTPCSpec_8cxx.html" target="_top" xlink:title="/home/travis/build\l/AliceO2Group/AliceO2\l/Detectors/GlobalTrackingWorkflow\l/tofworkflow/src/RecoWorkflowWithTPCSpec.cxx">
<polygon fill="none" stroke="#000000" points="581.5,-6 581.5,-58 832.5,-58 832.5,-6 581.5,-6"/>
<text text-anchor="start" x="589.5" y="-46" font-family="Helvetica,sans-Serif" font-size="10.00" fill="#000000">/home/travis/build</text>
<text text-anchor="start" x="589.5" y="-35" font-family="Helvetica,sans-Serif" font-size="10.00" fill="#000000">/AliceO2Group/AliceO2</text>
<text text-anchor="start" x="589.5" y="-24" font-family="Helvetica,sans-Serif" font-size="10.00" fill="#000000">/Detectors/GlobalTrackingWorkflow</text>
<text text-anchor="middle" x="707" y="-13" font-family="Helvetica,sans-Serif" font-size="10.00" fill="#000000">/tofworkflow/src/RecoWorkflowWithTPCSpec.cxx</text>
</a>
</g>
</g>
<!-- Node55&#45;&gt;Node59 -->
<g id="edge9" class="edge">
<title>Node55&#45;&gt;Node59</title>
<path fill="none" stroke="#191970" d="M533.1361,-102.1064C567.8894,-88.093 608.9127,-71.5513 642.381,-58.0561"/>
<polygon fill="#191970" stroke="#191970" points="531.4772,-99.0014 523.5117,-105.9872 534.095,-105.4935 531.4772,-99.0014"/>
</g>
<!-- Node62 -->
<g id="node13" class="node">
<title>Node62</title>
<g id="a_node13"><a xlink:href="../../df/de7/AODProducerWorkflow_8cxx.html" target="_top" xlink:title="/home/travis/build\l/AliceO2Group/AliceO2\l/Detectors/AOD/src/AODProducer\lWorkflow.cxx">
<polygon fill="none" stroke="#000000" points="851,-6 851,-58 1027,-58 1027,-6 851,-6"/>
<text text-anchor="start" x="859" y="-46" font-family="Helvetica,sans-Serif" font-size="10.00" fill="#000000">/home/travis/build</text>
<text text-anchor="start" x="859" y="-35" font-family="Helvetica,sans-Serif" font-size="10.00" fill="#000000">/AliceO2Group/AliceO2</text>
<text text-anchor="start" x="859" y="-24" font-family="Helvetica,sans-Serif" font-size="10.00" fill="#000000">/Detectors/AOD/src/AODProducer</text>
<text text-anchor="middle" x="939" y="-13" font-family="Helvetica,sans-Serif" font-size="10.00" fill="#000000">Workflow.cxx</text>
</a>
</g>
</g>
<!-- Node61&#45;&gt;Node62 -->
<g id="edge13" class="edge">
<title>Node61&#45;&gt;Node62</title>
<path fill="none" stroke="#191970" d="M1066.2718,-95.9557C1041.4001,-83.4573 1014.0118,-69.6944 991.0341,-58.1478"/>
<polygon fill="#191970" stroke="#191970" points="1064.8015,-99.1338 1075.3083,-100.4966 1067.9446,-92.8791 1064.8015,-99.1338"/>
</g>
<!-- Node63 -->
<g id="node14" class="node">
<title>Node63</title>
<g id="a_node14"><a xlink:href="../../d5/db4/MatchTPCITSWorkflow_8cxx.html" target="_top" xlink:title="/home/travis/build\l/AliceO2Group/AliceO2\l/Detectors/GlobalTrackingWorkflow\l/src/MatchTPCITSWorkflow.cxx">
<polygon fill="none" stroke="#000000" points="1044.5,-6 1044.5,-58 1231.5,-58 1231.5,-6 1044.5,-6"/>
<text text-anchor="start" x="1052.5" y="-46" font-family="Helvetica,sans-Serif" font-size="10.00" fill="#000000">/home/travis/build</text>
<text text-anchor="start" x="1052.5" y="-35" font-family="Helvetica,sans-Serif" font-size="10.00" fill="#000000">/AliceO2Group/AliceO2</text>
<text text-anchor="start" x="1052.5" y="-24" font-family="Helvetica,sans-Serif" font-size="10.00" fill="#000000">/Detectors/GlobalTrackingWorkflow</text>
<text text-anchor="middle" x="1138" y="-13" font-family="Helvetica,sans-Serif" font-size="10.00" fill="#000000">/src/MatchTPCITSWorkflow.cxx</text>
</a>
</g>
</g>
<!-- Node61&#45;&gt;Node63 -->
<g id="edge14" class="edge">
<title>Node61&#45;&gt;Node63</title>
<path fill="none" stroke="#191970" d="M1138,-90.1631C1138,-79.2863 1138,-67.8798 1138,-58.078"/>
<polygon fill="#191970" stroke="#191970" points="1134.5001,-90.3593 1138,-100.3594 1141.5001,-90.3594 1134.5001,-90.3593"/>
</g>
<!-- Node61&#45;&gt;Node64 -->
<g id="edge15" class="edge">
<title>Node61&#45;&gt;Node64</title>
<path fill="none" stroke="#191970" d="M1211.8909,-95.9557C1237.5124,-83.4573 1265.7265,-69.6944 1289.397,-58.1478"/>
<polygon fill="#191970" stroke="#191970" points="1210.0351,-92.9666 1202.5819,-100.4966 1213.1041,-99.258 1210.0351,-92.9666"/>
</g>
<!-- Node66 -->
<g id="node17" class="node">
<title>Node66</title>
<g id="a_node17"><a xlink:href="../../d7/dca/CookedTracker_8cxx.html" target="_top" xlink:title="Implementation of the &quot;Cooked Matrix&quot; ITS tracker. ">
<polygon fill="none" stroke="#000000" points="1292.5,-106 1292.5,-158 1493.5,-158 1493.5,-106 1292.5,-106"/>
<text text-anchor="start" x="1300.5" y="-146" font-family="Helvetica,sans-Serif" font-size="10.00" fill="#000000">/home/travis/build</text>
<text text-anchor="start" x="1300.5" y="-135" font-family="Helvetica,sans-Serif" font-size="10.00" fill="#000000">/AliceO2Group/AliceO2</text>
<text text-anchor="start" x="1300.5" y="-124" font-family="Helvetica,sans-Serif" font-size="10.00" fill="#000000">/Detectors/ITSMFT/ITS</text>
<text text-anchor="middle" x="1393" y="-113" font-family="Helvetica,sans-Serif" font-size="10.00" fill="#000000">/reconstruction/src/CookedTracker.cxx</text>
</a>
</g>
</g>
<!-- Node65&#45;&gt;Node66 -->
<g id="edge18" class="edge">
<title>Node65&#45;&gt;Node66</title>
<path fill="none" stroke="#191970" d="M1393,-190.1631C1393,-179.2863 1393,-167.8798 1393,-158.078"/>
<polygon fill="#191970" stroke="#191970" points="1389.5001,-190.3593 1393,-200.3594 1396.5001,-190.3594 1389.5001,-190.3593"/>
</g>
<!-- Node67 -->
<g id="node18" class="node">
<title>Node67</title>
<g id="a_node18"><a xlink:href="../../d2/d0b/CookedTrackerSpec_8h.html" target="_top" xlink:title="/home/travis/build\l/AliceO2Group/AliceO2\l/Detectors/ITSMFT/ITS\l/workflow/include/ITSWorkflow\l/CookedTrackerSpec.h">
<polygon fill="none" stroke="#000000" points="1511.5,-100.5 1511.5,-163.5 1676.5,-163.5 1676.5,-100.5 1511.5,-100.5"/>
<text text-anchor="start" x="1519.5" y="-151.5" font-family="Helvetica,sans-Serif" font-size="10.00" fill="#000000">/home/travis/build</text>
<text text-anchor="start" x="1519.5" y="-140.5" font-family="Helvetica,sans-Serif" font-size="10.00" fill="#000000">/AliceO2Group/AliceO2</text>
<text text-anchor="start" x="1519.5" y="-129.5" font-family="Helvetica,sans-Serif" font-size="10.00" fill="#000000">/Detectors/ITSMFT/ITS</text>
<text text-anchor="start" x="1519.5" y="-118.5" font-family="Helvetica,sans-Serif" font-size="10.00" fill="#000000">/workflow/include/ITSWorkflow</text>
<text text-anchor="middle" x="1594" y="-107.5" font-family="Helvetica,sans-Serif" font-size="10.00" fill="#000000">/CookedTrackerSpec.h</text>
</a>
</g>
</g>
<!-- Node65&#45;&gt;Node67 -->
<g id="edge19" class="edge">
<title>Node65&#45;&gt;Node67</title>
<path fill="none" stroke="#191970" d="M1465.3491,-196.0054C1486.7058,-185.3802 1509.9074,-173.8371 1530.6513,-163.5168"/>
<polygon fill="#191970" stroke="#191970" points="1463.7159,-192.9087 1456.3218,-200.4966 1466.834,-199.1759 1463.7159,-192.9087"/>
</g>
<!-- Node67&#45;&gt;Node68 -->
<g id="edge20" class="edge">
<title>Node67&#45;&gt;Node68</title>
<path fill="none" stroke="#191970" d="M1650.122,-94.8331C1668.5755,-82.6123 1688.6854,-69.2944 1705.6223,-58.078"/>
<polygon fill="#191970" stroke="#191970" points="1648.1823,-91.9197 1641.7773,-100.3594 1652.0474,-97.756 1648.1823,-91.9197"/>
</g>
<!-- Node69 -->
<g id="node20" class="node">
<title>Node69</title>
<g id="a_node20"><a xlink:href="../../d5/d99/ITSMFT_2ITS_2workflow_2src_2RecoWorkflow_8cxx.html" target="_top" xlink:title="/home/travis/build\l/AliceO2Group/AliceO2\l/Detectors/ITSMFT/ITS\l/workflow/src/RecoWorkflow.cxx">
<polygon fill="none" stroke="#000000" points="1455,-6 1455,-58 1627,-58 1627,-6 1455,-6"/>
<text text-anchor="start" x="1463" y="-46" font-family="Helvetica,sans-Serif" font-size="10.00" fill="#000000">/home/travis/build</text>
<text text-anchor="start" x="1463" y="-35" font-family="Helvetica,sans-Serif" font-size="10.00" fill="#000000">/AliceO2Group/AliceO2</text>
<text text-anchor="start" x="1463" y="-24" font-family="Helvetica,sans-Serif" font-size="10.00" fill="#000000">/Detectors/ITSMFT/ITS</text>
<text text-anchor="middle" x="1541" y="-13" font-family="Helvetica,sans-Serif" font-size="10.00" fill="#000000">/workflow/src/RecoWorkflow.cxx</text>
</a>
</g>
</g>
<!-- Node67&#45;&gt;Node69 -->
<g id="edge21" class="edge">
<title>Node67&#45;&gt;Node69</title>
<path fill="none" stroke="#191970" d="M1572.5381,-91.5058C1566.5618,-80.2297 1560.2305,-68.284 1554.8213,-58.078"/>
<polygon fill="#191970" stroke="#191970" points="1569.455,-93.1627 1577.2305,-100.3594 1575.64,-89.8846 1569.455,-93.1627"/>
</g>
<!-- Node71 -->
<g id="node22" class="node">
<title>Node71</title>
<g id="a_node22"><a xlink:href="../../d9/d5e/ITSMFT_2MFT_2reconstruction_2src_2ClustererTask_8cxx.html" target="_top" xlink:title="/home/travis/build\l/AliceO2Group/AliceO2\l/Detectors/ITSMFT/MFT\l/reconstruction/src/ClustererTask.cxx">
<polygon fill="none" stroke="#000000" points="1733,-106 1733,-158 1929,-158 1929,-106 1733,-106"/>
<text text-anchor="start" x="1741" y="-146" font-family="Helvetica,sans-Serif" font-size="10.00" fill="#000000">/home/travis/build</text>
<text text-anchor="start" x="1741" y="-135" font-family="Helvetica,sans-Serif" font-size="10.00" fill="#000000">/AliceO2Group/AliceO2</text>
<text text-anchor="start" x="1741" y="-124" font-family="Helvetica,sans-Serif" font-size="10.00" fill="#000000">/Detectors/ITSMFT/MFT</text>
<text text-anchor="middle" x="1831" y="-113" font-family="Helvetica,sans-Serif" font-size="10.00" fill="#000000">/reconstruction/src/ClustererTask.cxx</text>
</a>
</g>
</g>
<!-- Node70&#45;&gt;Node71 -->
<g id="edge24" class="edge">
<title>Node70&#45;&gt;Node71</title>
<path fill="none" stroke="#191970" d="M1830.4184,-190.1631C1830.5271,-179.2863 1830.6412,-167.8798 1830.7392,-158.078"/>
<polygon fill="#191970" stroke="#191970" points="1826.9167,-190.3248 1830.3164,-200.3594 1833.9163,-190.3949 1826.9167,-190.3248"/>
</g>
<!-- Node73 -->
<g id="node24" class="node">
<title>Node73</title>
<g id="a_node24"><a xlink:href="../../dc/d50/TPCInterpolationSpec_8h.html" target="_top" xlink:title="/home/travis/build\l/AliceO2Group/AliceO2\l/Detectors/GlobalTrackingWorkflow\l/tpcinterpolationworkflow/include\l/TPCInterpolationWorkflow/TPCInterpolationSpec.h">
<polygon fill="none" stroke="#000000" points="1947,-100.5 1947,-163.5 2209,-163.5 2209,-100.5 1947,-100.5"/>
<text text-anchor="start" x="1955" y="-151.5" font-family="Helvetica,sans-Serif" font-size="10.00" fill="#000000">/home/travis/build</text>
<text text-anchor="start" x="1955" y="-140.5" font-family="Helvetica,sans-Serif" font-size="10.00" fill="#000000">/AliceO2Group/AliceO2</text>
<text text-anchor="start" x="1955" y="-129.5" font-family="Helvetica,sans-Serif" font-size="10.00" fill="#000000">/Detectors/GlobalTrackingWorkflow</text>
<text text-anchor="start" x="1955" y="-118.5" font-family="Helvetica,sans-Serif" font-size="10.00" fill="#000000">/tpcinterpolationworkflow/include</text>
<text text-anchor="middle" x="2078" y="-107.5" font-family="Helvetica,sans-Serif" font-size="10.00" fill="#000000">/TPCInterpolationWorkflow/TPCInterpolationSpec.h</text>
</a>
</g>
</g>
<!-- Node72&#45;&gt;Node73 -->
<g id="edge26" class="edge">
<title>Node72&#45;&gt;Node73</title>
<path fill="none" stroke="#191970" d="M2152.9409,-193.9347C2140.9006,-183.9839 2128.0498,-173.3634 2116.4514,-163.778"/>
<polygon fill="#191970" stroke="#191970" points="2150.7769,-196.6868 2160.7148,-200.3594 2155.2362,-191.291 2150.7769,-196.6868"/>
</g>
<!-- Node76 -->
<g id="node27" class="node">
<title>Node76</title>
<g id="a_node27"><a xlink:href="../../d2/d27/TPCResidualWriterSpec_8cxx.html" target="_top" xlink:title="/home/travis/build\l/AliceO2Group/AliceO2\l/Detectors/GlobalTrackingWorkflow\l/tpcinterpolationworkflow/src\l/TPCResidualWriterSpec.cxx">
<polygon fill="none" stroke="#000000" points="2227.5,-100.5 2227.5,-163.5 2414.5,-163.5 2414.5,-100.5 2227.5,-100.5"/>
<text text-anchor="start" x="2235.5" y="-151.5" font-family="Helvetica,sans-Serif" font-size="10.00" fill="#000000">/home/travis/build</text>
<text text-anchor="start" x="2235.5" y="-140.5" font-family="Helvetica,sans-Serif" font-size="10.00" fill="#000000">/AliceO2Group/AliceO2</text>
<text text-anchor="start" x="2235.5" y="-129.5" font-family="Helvetica,sans-Serif" font-size="10.00" fill="#000000">/Detectors/GlobalTrackingWorkflow</text>
<text text-anchor="start" x="2235.5" y="-118.5" font-family="Helvetica,sans-Serif" font-size="10.00" fill="#000000">/tpcinterpolationworkflow/src</text>
<text text-anchor="middle" x="2321" y="-107.5" font-family="Helvetica,sans-Serif" font-size="10.00" fill="#000000">/TPCResidualWriterSpec.cxx</text>
</a>
</g>
</g>
<!-- Node72&#45;&gt;Node76 -->
<g id="edge29" class="edge">
<title>Node72&#45;&gt;Node76</title>
<path fill="none" stroke="#191970" d="M2245.4397,-193.9347C2257.5796,-183.9839 2270.5366,-173.3634 2282.2308,-163.778"/>
<polygon fill="#191970" stroke="#191970" points="2243.1167,-191.3132 2237.6016,-200.3594 2247.5543,-196.7269 2243.1167,-191.3132"/>
</g>
<!-- Node77 -->
<g id="node28" class="node">
<title>Node77</title>
<g id="a_node28"><a xlink:href="../../da/ddb/TrackResiduals_8h.html" target="_top" xlink:title="Definition of the TrackResiduals class. ">
<polygon fill="none" stroke="#000000" points="2432.5,-100.5 2432.5,-163.5 2611.5,-163.5 2611.5,-100.5 2432.5,-100.5"/>
<text text-anchor="start" x="2440.5" y="-151.5" font-family="Helvetica,sans-Serif" font-size="10.00" fill="#000000">/home/travis/build</text>
<text text-anchor="start" x="2440.5" y="-140.5" font-family="Helvetica,sans-Serif" font-size="10.00" fill="#000000">/AliceO2Group/AliceO2</text>
<text text-anchor="start" x="2440.5" y="-129.5" font-family="Helvetica,sans-Serif" font-size="10.00" fill="#000000">/Detectors/TPC/calibration</text>
<text text-anchor="start" x="2440.5" y="-118.5" font-family="Helvetica,sans-Serif" font-size="10.00" fill="#000000">/SpacePoints/include/SpacePoints</text>
<text text-anchor="middle" x="2522" y="-107.5" font-family="Helvetica,sans-Serif" font-size="10.00" fill="#000000">/TrackResiduals.h</text>
</a>
</g>
</g>
<!-- Node72&#45;&gt;Node77 -->
<g id="edge30" class="edge">
<title>Node72&#45;&gt;Node77</title>
<path fill="none" stroke="#191970" d="M2298.4386,-199.9086C2355.3703,-182.7884 2371.2451,-180.1433 2424,-164 2426.7383,-163.1621 2429.5172,-162.3039 2432.3208,-161.4312"/>
<polygon fill="#191970" stroke="#191970" points="2297.0918,-196.6594 2288.5352,-202.9072 2299.1204,-203.359 2297.0918,-196.6594"/>
</g>
<!-- Node79 -->
<g id="node30" class="node">
<title>Node79</title>
<g id="a_node30"><a xlink:href="../../d4/d15/TrackInterpolation_8cxx.html" target="_top" xlink:title="Implementation of the TrackInterpolation class. ">
<polygon fill="none" stroke="#000000" points="2629.5,-106 2629.5,-158 2836.5,-158 2836.5,-106 2629.5,-106"/>
<text text-anchor="start" x="2637.5" y="-146" font-family="Helvetica,sans-Serif" font-size="10.00" fill="#000000">/home/travis/build</text>
<text text-anchor="start" x="2637.5" y="-135" font-family="Helvetica,sans-Serif" font-size="10.00" fill="#000000">/AliceO2Group/AliceO2</text>
<text text-anchor="start" x="2637.5" y="-124" font-family="Helvetica,sans-Serif" font-size="10.00" fill="#000000">/Detectors/TPC/calibration</text>
<text text-anchor="middle" x="2733" y="-113" font-family="Helvetica,sans-Serif" font-size="10.00" fill="#000000">/SpacePoints/src/TrackInterpolation.cxx</text>
</a>
</g>
</g>
<!-- Node72&#45;&gt;Node79 -->
<g id="edge32" class="edge">
<title>Node72&#45;&gt;Node79</title>
<path fill="none" stroke="#191970" d="M2298.6106,-200.0487C2441.0674,-170.6095 2482.4664,-191.3111 2621,-164 2629.6307,-162.2985 2638.5621,-160.2513 2647.4429,-158.025"/>
<polygon fill="#191970" stroke="#191970" points="2297.6884,-196.6662 2288.6284,-202.1586 2299.1361,-203.5149 2297.6884,-196.6662"/>
</g>
<!-- Node74 -->
<g id="node25" class="node">
<title>Node74</title>
<g id="a_node25"><a xlink:href="../../d8/d85/TPCInterpolationSpec_8cxx.html" target="_top" xlink:title="/home/travis/build\l/AliceO2Group/AliceO2\l/Detectors/GlobalTrackingWorkflow\l/tpcinterpolationworkflow/src\l/TPCInterpolationSpec.cxx">
<polygon fill="none" stroke="#000000" points="1924.5,-.5 1924.5,-63.5 2111.5,-63.5 2111.5,-.5 1924.5,-.5"/>
<text text-anchor="start" x="1932.5" y="-51.5" font-family="Helvetica,sans-Serif" font-size="10.00" fill="#000000">/home/travis/build</text>
<text text-anchor="start" x="1932.5" y="-40.5" font-family="Helvetica,sans-Serif" font-size="10.00" fill="#000000">/AliceO2Group/AliceO2</text>
<text text-anchor="start" x="1932.5" y="-29.5" font-family="Helvetica,sans-Serif" font-size="10.00" fill="#000000">/Detectors/GlobalTrackingWorkflow</text>
<text text-anchor="start" x="1932.5" y="-18.5" font-family="Helvetica,sans-Serif" font-size="10.00" fill="#000000">/tpcinterpolationworkflow/src</text>
<text text-anchor="middle" x="2018" y="-7.5" font-family="Helvetica,sans-Serif" font-size="10.00" fill="#000000">/TPCInterpolationSpec.cxx</text>
</a>
</g>
</g>
<!-- Node73&#45;&gt;Node74 -->
<g id="edge27" class="edge">
<title>Node73&#45;&gt;Node74</title>
<path fill="none" stroke="#191970" d="M2053.7896,-91.6493C2048.223,-82.3716 2042.3799,-72.6331 2037.0668,-63.778"/>
<polygon fill="#191970" stroke="#191970" points="2050.8694,-93.5852 2059.0156,-100.3594 2056.8718,-89.9837 2050.8694,-93.5852"/>
</g>
<!-- Node75 -->
<g id="node26" class="node">
<title>Node75</title>
<g id="a_node26"><a xlink:href="../../d1/d67/TrackInterpolationWorkflow_8cxx.html" target="_top" xlink:title="/home/travis/build\l/AliceO2Group/AliceO2\l/Detectors/GlobalTrackingWorkflow\l/tpcinterpolationworkflow/src\l/TrackInterpolationWorkflow.cxx">
<polygon fill="none" stroke="#000000" points="2129.5,-.5 2129.5,-63.5 2316.5,-63.5 2316.5,-.5 2129.5,-.5"/>
<text text-anchor="start" x="2137.5" y="-51.5" font-family="Helvetica,sans-Serif" font-size="10.00" fill="#000000">/home/travis/build</text>
<text text-anchor="start" x="2137.5" y="-40.5" font-family="Helvetica,sans-Serif" font-size="10.00" fill="#000000">/AliceO2Group/AliceO2</text>
<text text-anchor="start" x="2137.5" y="-29.5" font-family="Helvetica,sans-Serif" font-size="10.00" fill="#000000">/Detectors/GlobalTrackingWorkflow</text>
<text text-anchor="start" x="2137.5" y="-18.5" font-family="Helvetica,sans-Serif" font-size="10.00" fill="#000000">/tpcinterpolationworkflow/src</text>
<text text-anchor="middle" x="2223" y="-7.5" font-family="Helvetica,sans-Serif" font-size="10.00" fill="#000000">/TrackInterpolationWorkflow.cxx</text>
</a>
</g>
</g>
<!-- Node73&#45;&gt;Node75 -->
<g id="edge28" class="edge">
<title>Node73&#45;&gt;Node75</title>
<path fill="none" stroke="#191970" d="M2132.3713,-94.5025C2147.0361,-84.3889 2162.7583,-73.546 2176.9219,-63.778"/>
<polygon fill="#191970" stroke="#191970" points="2130.124,-91.8008 2123.8789,-100.3594 2134.0981,-97.5633 2130.124,-91.8008"/>
</g>
<!-- Node78 -->
<g id="node29" class="node">
<title>Node78</title>
<g id="a_node29"><a xlink:href="../../d9/df0/TrackResiduals_8cxx.html" target="_top" xlink:title="Implementation of the TrackResiduals class. ">
<polygon fill="none" stroke="#000000" points="2426.5,-6 2426.5,-58 2617.5,-58 2617.5,-6 2426.5,-6"/>
<text text-anchor="start" x="2434.5" y="-46" font-family="Helvetica,sans-Serif" font-size="10.00" fill="#000000">/home/travis/build</text>
<text text-anchor="start" x="2434.5" y="-35" font-family="Helvetica,sans-Serif" font-size="10.00" fill="#000000">/AliceO2Group/AliceO2</text>
<text text-anchor="start" x="2434.5" y="-24" font-family="Helvetica,sans-Serif" font-size="10.00" fill="#000000">/Detectors/TPC/calibration</text>
<text text-anchor="middle" x="2522" y="-13" font-family="Helvetica,sans-Serif" font-size="10.00" fill="#000000">/SpacePoints/src/TrackResiduals.cxx</text>
</a>
</g>
</g>
<!-- Node77&#45;&gt;Node78 -->
<g id="edge31" class="edge">
<title>Node77&#45;&gt;Node78</title>
<path fill="none" stroke="#191970" d="M2522,-90.1631C2522,-79.2863 2522,-67.8798 2522,-58.078"/>
<polygon fill="#191970" stroke="#191970" points="2518.5001,-90.3593 2522,-100.3594 2525.5001,-90.3594 2518.5001,-90.3593"/>
</g>
</g>
</svg>
