<?xml version="1.0" encoding="UTF-8" standalone="no"?>
<!DOCTYPE svg PUBLIC "-//W3C//DTD SVG 1.1//EN"
 "http://www.w3.org/Graphics/SVG/1.1/DTD/svg11.dtd">
<!-- Generated by graphviz version 2.40.1 (20161225.0304)
 -->
<!-- Title: /home/travis/build/AliceO2Group/AliceO2/Detectors/ITSMFT/common/reconstruction/src/ChipMappingITS.cxx Pages: 1 -->
<!--zoomable 486 -->
<svg id="main" version="1.1" xmlns="http://www.w3.org/2000/svg" xmlns:xlink="http://www.w3.org/1999/xlink" xml:space="preserve" onload="init(evt)">
<style type="text/css"><![CDATA[
.edge:hover path { stroke: red; }
.edge:hover polygon { stroke: red; fill: red; }
]]></style>
<script type="text/javascript"><![CDATA[
var edges = document.getElementsByTagName('g');
if (edges && edges.length) {
  for (var i=0;i<edges.length;i++) {
    if (edges[i].id.substr(0,4)=='edge') {
      edges[i].setAttribute('class','edge');
    }
  }
}
]]></script>
        <defs>
                <circle id="rim" cx="0" cy="0" r="7"/>
                <circle id="rim2" cx="0" cy="0" r="3.5"/>
                <g id="zoomPlus">
                        <use xlink:href="#rim" fill="#404040">
                                <set attributeName="fill" to="#808080" begin="zoomplus.mouseover" end="zoomplus.mouseout"/>
                        </use>
                        <path d="M-4,0h8M0,-4v8" fill="none" stroke="white" stroke-width="1.5" pointer-events="none"/>
                </g>
                <g id="zoomMin">
                        <use xlink:href="#rim" fill="#404040">
                                <set attributeName="fill" to="#808080" begin="zoomminus.mouseover" end="zoomminus.mouseout"/>
                        </use>
                        <path d="M-4,0h8" fill="none" stroke="white" stroke-width="1.5" pointer-events="none"/>
                </g>
                <g id="dirArrow">
                        <path fill="none" stroke="white" stroke-width="1.5" d="M0,-3.0v7 M-2.5,-0.5L0,-3.0L2.5,-0.5"/>
                </g>
               <g id="resetDef">
                       <use xlink:href="#rim2" fill="#404040">
                               <set attributeName="fill" to="#808080" begin="reset.mouseover" end="reset.mouseout"/>
                       </use>
               </g>
        </defs>

<script type="text/javascript">
var viewWidth = 1751;
var viewHeight = 486;
var sectionId = 'dynsection-0';
</script>
<script xlink:href="../../svgpan.js"/>
<svg id="graph" class="graph">
<g id="viewport">
<title>/home/travis/build/AliceO2Group/AliceO2/Detectors/ITSMFT/common/reconstruction/src/ChipMappingITS.cxx</title>
<!-- Node0 -->
<g id="node1" class="node">
<title>Node0</title>
<polygon fill="#bfbfbf" stroke="#000000" points="500.8651,-414.5 500.8651,-477.5 673.8651,-477.5 673.8651,-414.5 500.8651,-414.5"/>
<text text-anchor="start" x="508.8651" y="-465.5" font-family="Helvetica,sans-Serif" font-size="10.00" fill="#000000">/home/travis/build</text>
<text text-anchor="start" x="508.8651" y="-454.5" font-family="Helvetica,sans-Serif" font-size="10.00" fill="#000000">/AliceO2Group/AliceO2</text>
<text text-anchor="start" x="508.8651" y="-443.5" font-family="Helvetica,sans-Serif" font-size="10.00" fill="#000000">/Detectors/ITSMFT/common</text>
<text text-anchor="start" x="508.8651" y="-432.5" font-family="Helvetica,sans-Serif" font-size="10.00" fill="#000000">/reconstruction/src/ChipMapping</text>
<text text-anchor="middle" x="587.3651" y="-421.5" font-family="Helvetica,sans-Serif" font-size="10.00" fill="#000000">ITS.cxx</text>
</g>
<!-- Node1 -->
<g id="node2" class="node">
<title>Node1</title>
<polygon fill="none" stroke="#bfbfbf" points="320.8651,-353 320.8651,-372 395.8651,-372 395.8651,-353 320.8651,-353"/>
<text text-anchor="middle" x="358.3651" y="-360" font-family="Helvetica,sans-Serif" font-size="10.00" fill="#000000">FairLogger.h</text>
</g>
<!-- Node0&#45;&gt;Node1 -->
<g id="edge1" class="edge">
<title>Node0&#45;&gt;Node1</title>
<path fill="none" stroke="#191970" d="M500.7901,-414.4322C463.7412,-400.9231 422.5381,-385.8993 394.0202,-375.5009"/>
<polygon fill="#191970" stroke="#191970" points="395.0836,-372.1633 384.4897,-372.0258 392.6856,-378.7397 395.0836,-372.1633"/>
</g>
<!-- Node2 -->
<g id="node3" class="node">
<title>Node2</title>
<g id="a_node3"><a xlink:href="../../d3/d57/ChipMappingITS_8h.html" target="_top" xlink:title="ITSMFTReconstruction\l/ChipMappingITS.h">
<polygon fill="none" stroke="#000000" points="525.8651,-347.5 525.8651,-377.5 648.8651,-377.5 648.8651,-347.5 525.8651,-347.5"/>
<text text-anchor="start" x="533.8651" y="-365.5" font-family="Helvetica,sans-Serif" font-size="10.00" fill="#000000">ITSMFTReconstruction</text>
<text text-anchor="middle" x="587.3651" y="-354.5" font-family="Helvetica,sans-Serif" font-size="10.00" fill="#000000">/ChipMappingITS.h</text>
</a>
</g>
</g>
<!-- Node0&#45;&gt;Node2 -->
<g id="edge2" class="edge">
<title>Node0&#45;&gt;Node2</title>
<path fill="none" stroke="#191970" d="M587.3651,-414.4322C587.3651,-405.6979 587.3651,-396.3303 587.3651,-387.989"/>
<polygon fill="#191970" stroke="#191970" points="590.8652,-387.7544 587.3651,-377.7545 583.8652,-387.7545 590.8652,-387.7544"/>
</g>
<!-- Node10 -->
<g id="node11" class="node">
<title>Node10</title>
<polygon fill="none" stroke="#bfbfbf" points="577.3651,-168.5 577.3651,-187.5 629.3651,-187.5 629.3651,-168.5 577.3651,-168.5"/>
<text text-anchor="middle" x="603.3651" y="-175.5" font-family="Helvetica,sans-Serif" font-size="10.00" fill="#000000">cassert</text>
</g>
<!-- Node0&#45;&gt;Node10 -->
<g id="edge49" class="edge">
<title>Node0&#45;&gt;Node10</title>
<path fill="none" stroke="#191970" d="M544.4383,-414.349C506.1289,-381.9503 459.3627,-329.4754 482.3651,-280 501.2833,-239.3094 545.3125,-209.0223 574.7116,-192.4261"/>
<polygon fill="#191970" stroke="#191970" points="576.5924,-195.387 583.6923,-187.523 573.238,-189.243 576.5924,-195.387"/>
</g>
<!-- Node33 -->
<g id="node34" class="node">
<title>Node33</title>
<polygon fill="none" stroke="#bfbfbf" points="667.3651,-353 667.3651,-372 723.3651,-372 723.3651,-353 667.3651,-353"/>
<text text-anchor="middle" x="695.3651" y="-360" font-family="Helvetica,sans-Serif" font-size="10.00" fill="#000000">sstream</text>
</g>
<!-- Node0&#45;&gt;Node33 -->
<g id="edge50" class="edge">
<title>Node0&#45;&gt;Node33</title>
<path fill="none" stroke="#191970" d="M628.1953,-414.4322C644.0714,-402.1576 661.565,-388.6325 674.7187,-378.4628"/>
<polygon fill="#191970" stroke="#191970" points="676.9048,-381.1967 682.6752,-372.3112 672.6231,-375.6589 676.9048,-381.1967"/>
</g>
<!-- Node34 -->
<g id="node35" class="node">
<title>Node34</title>
<polygon fill="none" stroke="#bfbfbf" points="741.3651,-353 741.3651,-372 797.3651,-372 797.3651,-353 741.3651,-353"/>
<text text-anchor="middle" x="769.3651" y="-360" font-family="Helvetica,sans-Serif" font-size="10.00" fill="#000000">iomanip</text>
</g>
<!-- Node0&#45;&gt;Node34 -->
<g id="edge51" class="edge">
<title>Node0&#45;&gt;Node34</title>
<path fill="none" stroke="#191970" d="M656.1715,-414.4322C684.7573,-401.3173 716.4548,-386.7748 739.0185,-376.4228"/>
<polygon fill="#191970" stroke="#191970" points="740.7663,-379.4718 748.3958,-372.1205 737.8472,-373.1094 740.7663,-379.4718"/>
</g>
<!-- Node3 -->
<g id="node4" class="node">
<title>Node3</title>
<polygon fill="none" stroke="#bfbfbf" points="596.8651,-224.5 596.8651,-243.5 655.8651,-243.5 655.8651,-224.5 596.8651,-224.5"/>
<text text-anchor="middle" x="626.3651" y="-231.5" font-family="Helvetica,sans-Serif" font-size="10.00" fill="#000000">Rtypes.h</text>
</g>
<!-- Node2&#45;&gt;Node3 -->
<g id="edge3" class="edge">
<title>Node2&#45;&gt;Node3</title>
<path fill="none" stroke="#191970" d="M591.9921,-347.2548C599.0894,-323.87 612.6584,-279.1619 620.457,-253.4665"/>
<polygon fill="#191970" stroke="#191970" points="623.8552,-254.3213 623.4103,-243.7358 617.1569,-252.2883 623.8552,-254.3213"/>
</g>
<!-- Node4 -->
<g id="node5" class="node">
<title>Node4</title>
<polygon fill="none" stroke="#bfbfbf" points="1701.3651,-112.5 1701.3651,-131.5 1743.3651,-131.5 1743.3651,-112.5 1701.3651,-112.5"/>
<text text-anchor="middle" x="1722.3651" y="-119.5" font-family="Helvetica,sans-Serif" font-size="10.00" fill="#000000">array</text>
</g>
<!-- Node2&#45;&gt;Node4 -->
<g id="edge4" class="edge">
<title>Node2&#45;&gt;Node4</title>
<path fill="none" stroke="#191970" d="M649.2452,-348.5745C652.3233,-348.0126 655.376,-347.4835 658.3651,-347 807.9349,-322.8061 846.9689,-329.3692 997.3651,-311 1213.3626,-284.6183 1269.5673,-289.4752 1482.3651,-244 1569.2913,-225.4237 1601.6554,-239.1324 1674.3651,-188 1691.5029,-175.948 1704.8578,-155.7975 1713.0817,-140.9259"/>
<polygon fill="#191970" stroke="#191970" points="1716.4063,-142.1212 1717.939,-131.6378 1710.2033,-138.8773 1716.4063,-142.1212"/>
</g>
<!-- Node5 -->
<g id="node6" class="node">
<title>Node5</title>
<polygon fill="none" stroke="#bfbfbf" points="490.8651,-286 490.8651,-305 539.8651,-305 539.8651,-286 490.8651,-286"/>
<text text-anchor="middle" x="515.3651" y="-293" font-family="Helvetica,sans-Serif" font-size="10.00" fill="#000000">cstdlib</text>
</g>
<!-- Node2&#45;&gt;Node5 -->
<g id="edge5" class="edge">
<title>Node2&#45;&gt;Node5</title>
<path fill="none" stroke="#191970" d="M571.0272,-347.2967C559.7004,-336.7564 544.6275,-322.7303 533.0237,-311.9323"/>
<polygon fill="#191970" stroke="#191970" points="535.3382,-309.3051 525.6332,-305.055 530.5696,-314.4296 535.3382,-309.3051"/>
</g>
<!-- Node6 -->
<g id="node7" class="node">
<title>Node6</title>
<polygon fill="none" stroke="#bfbfbf" points="1014.3651,-112.5 1014.3651,-131.5 1064.3651,-131.5 1064.3651,-112.5 1014.3651,-112.5"/>
<text text-anchor="middle" x="1039.3651" y="-119.5" font-family="Helvetica,sans-Serif" font-size="10.00" fill="#000000">cstdint</text>
</g>
<!-- Node2&#45;&gt;Node6 -->
<g id="edge6" class="edge">
<title>Node2&#45;&gt;Node6</title>
<path fill="none" stroke="#191970" d="M648.8694,-348.6997C652.0755,-348.0973 655.2552,-347.5261 658.3651,-347 789.9037,-324.7481 833.3209,-362.5523 956.3651,-311 1000.4101,-292.5463 1013.8796,-283.7368 1040.3651,-244 1059.5096,-215.2772 1062.443,-201.9789 1056.3651,-168 1054.7208,-158.8071 1051.3646,-149.047 1048.0654,-140.8935"/>
<polygon fill="#191970" stroke="#191970" points="1051.2258,-139.3833 1044.05,-131.5885 1044.7987,-142.1569 1051.2258,-139.3833"/>
</g>
<!-- Node7 -->
<g id="node8" class="node">
<title>Node7</title>
<polygon fill="none" stroke="#bfbfbf" points="647.3651,-168.5 647.3651,-187.5 691.3651,-187.5 691.3651,-168.5 647.3651,-168.5"/>
<text text-anchor="middle" x="669.3651" y="-175.5" font-family="Helvetica,sans-Serif" font-size="10.00" fill="#000000">string</text>
</g>
<!-- Node2&#45;&gt;Node7 -->
<g id="edge7" class="edge">
<title>Node2&#45;&gt;Node7</title>
<path fill="none" stroke="#191970" d="M582.9188,-347.4862C575.8897,-320.608 565.2387,-263.4013 588.3651,-224 594.0894,-214.2475 617.7329,-201.4223 638.0089,-191.7921"/>
<polygon fill="#191970" stroke="#191970" points="639.7045,-194.8639 647.3044,-187.482 636.7598,-188.5134 639.7045,-194.8639"/>
</g>
<!-- Node8 -->
<g id="node9" class="node">
<title>Node8</title>
<g id="a_node9"><a xlink:href="../../dc/dcd/DataHeader_8h.html" target="_top" xlink:title="Headers/DataHeader.h">
<polygon fill="none" stroke="#000000" points="268.8651,-224.5 268.8651,-243.5 395.8651,-243.5 395.8651,-224.5 268.8651,-224.5"/>
<text text-anchor="middle" x="332.3651" y="-231.5" font-family="Helvetica,sans-Serif" font-size="10.00" fill="#000000">Headers/DataHeader.h</text>
</a>
</g>
</g>
<!-- Node2&#45;&gt;Node8 -->
<g id="edge8" class="edge">
<title>Node2&#45;&gt;Node8</title>
<path fill="none" stroke="#191970" d="M556.0489,-347.3252C535.1361,-337.1461 507.0448,-323.3855 482.3651,-311 439.3992,-289.4374 389.8291,-263.8519 359.8102,-248.2786"/>
<polygon fill="#191970" stroke="#191970" points="361.2718,-245.0939 350.7839,-243.592 358.0461,-251.3064 361.2718,-245.0939"/>
</g>
<!-- Node17 -->
<g id="node18" class="node">
<title>Node17</title>
<g id="a_node18"><a xlink:href="../../dc/dd8/RUInfo_8h.html" target="_top" xlink:title="ITSMFTReconstruction\l/RUInfo.h">
<polygon fill="none" stroke="#000000" points="634.8651,-280.5 634.8651,-310.5 757.8651,-310.5 757.8651,-280.5 634.8651,-280.5"/>
<text text-anchor="start" x="642.8651" y="-298.5" font-family="Helvetica,sans-Serif" font-size="10.00" fill="#000000">ITSMFTReconstruction</text>
<text text-anchor="middle" x="696.3651" y="-287.5" font-family="Helvetica,sans-Serif" font-size="10.00" fill="#000000">/RUInfo.h</text>
</a>
</g>
</g>
<!-- Node2&#45;&gt;Node17 -->
<g id="edge19" class="edge">
<title>Node2&#45;&gt;Node17</title>
<path fill="none" stroke="#191970" d="M611.8269,-347.4639C626.8675,-338.2188 646.3468,-326.2452 662.8156,-316.1222"/>
<polygon fill="#191970" stroke="#191970" points="664.9215,-318.9361 671.6079,-310.7177 661.2558,-312.9726 664.9215,-318.9361"/>
</g>
<!-- Node18 -->
<g id="node19" class="node">
<title>Node18</title>
<g id="a_node19"><a xlink:href="../../d6/d31/DetID_8h.html" target="_top" xlink:title="DetectorsCommonDataFormats\l/DetID.h">
<polygon fill="none" stroke="#000000" points="775.8651,-280.5 775.8651,-310.5 946.8651,-310.5 946.8651,-280.5 775.8651,-280.5"/>
<text text-anchor="start" x="783.8651" y="-298.5" font-family="Helvetica,sans-Serif" font-size="10.00" fill="#000000">DetectorsCommonDataFormats</text>
<text text-anchor="middle" x="861.3651" y="-287.5" font-family="Helvetica,sans-Serif" font-size="10.00" fill="#000000">/DetID.h</text>
</a>
</g>
</g>
<!-- Node2&#45;&gt;Node18 -->
<g id="edge22" class="edge">
<title>Node2&#45;&gt;Node18</title>
<path fill="none" stroke="#191970" d="M648.8561,-347.4639C690.6621,-337.2412 746.1104,-323.6827 789.8852,-312.9787"/>
<polygon fill="#191970" stroke="#191970" points="790.7236,-316.3769 799.606,-310.6017 789.0608,-309.5772 790.7236,-316.3769"/>
</g>
<!-- Node8&#45;&gt;Node6 -->
<g id="edge9" class="edge">
<title>Node8&#45;&gt;Node6</title>
<path fill="none" stroke="#191970" d="M391.1321,-224.438C431.1445,-216.9431 484.8896,-204.9292 530.3651,-188 548.2512,-181.3415 550.0818,-173.4742 568.3651,-168 650.0255,-143.55 908.7541,-128.5141 1003.8515,-123.6947"/>
<polygon fill="#191970" stroke="#191970" points="1004.2849,-127.1775 1014.0979,-123.183 1003.9358,-120.1862 1004.2849,-127.1775"/>
</g>
<!-- Node8&#45;&gt;Node7 -->
<g id="edge15" class="edge">
<title>Node8&#45;&gt;Node7</title>
<path fill="none" stroke="#191970" d="M395.9369,-227.5016C455.979,-220.6744 548.6103,-208.364 637.1931,-187.9763"/>
<polygon fill="#191970" stroke="#191970" points="638.197,-191.336 647.1363,-185.6493 636.6018,-184.5202 638.197,-191.336"/>
</g>
<!-- Node9 -->
<g id="node10" class="node">
<title>Node9</title>
<polygon fill="none" stroke="#bfbfbf" points="79.3651,-168.5 79.3651,-187.5 137.3651,-187.5 137.3651,-168.5 79.3651,-168.5"/>
<text text-anchor="middle" x="108.3651" y="-175.5" font-family="Helvetica,sans-Serif" font-size="10.00" fill="#000000">memory</text>
</g>
<!-- Node8&#45;&gt;Node9 -->
<g id="edge10" class="edge">
<title>Node8&#45;&gt;Node9</title>
<path fill="none" stroke="#191970" d="M293.1332,-224.477C257.521,-215.7926 203.3037,-202.4717 147.1598,-188.178"/>
<polygon fill="#191970" stroke="#191970" points="147.9546,-184.7687 137.3997,-185.6882 146.2243,-191.5515 147.9546,-184.7687"/>
</g>
<!-- Node8&#45;&gt;Node10 -->
<g id="edge11" class="edge">
<title>Node8&#45;&gt;Node10</title>
<path fill="none" stroke="#191970" d="M383.8943,-224.479C430.8078,-215.6352 501.9205,-201.7899 563.3651,-188 564.6223,-187.7178 565.9005,-187.4259 567.1905,-187.127"/>
<polygon fill="#191970" stroke="#191970" points="568.2459,-190.4734 577.1583,-184.7446 566.6186,-183.6652 568.2459,-190.4734"/>
</g>
<!-- Node11 -->
<g id="node12" class="node">
<title>Node11</title>
<polygon fill="none" stroke="#bfbfbf" points="155.3651,-168.5 155.3651,-187.5 205.3651,-187.5 205.3651,-168.5 155.3651,-168.5"/>
<text text-anchor="middle" x="180.3651" y="-175.5" font-family="Helvetica,sans-Serif" font-size="10.00" fill="#000000">cstring</text>
</g>
<!-- Node8&#45;&gt;Node11 -->
<g id="edge12" class="edge">
<title>Node8&#45;&gt;Node11</title>
<path fill="none" stroke="#191970" d="M306.2354,-224.3733C281.0616,-215.0987 242.8179,-201.0089 215.0926,-190.7943"/>
<polygon fill="#191970" stroke="#191970" points="215.9911,-187.3954 205.3977,-187.2225 213.5711,-193.9638 215.9911,-187.3954"/>
</g>
<!-- Node12 -->
<g id="node13" class="node">
<title>Node12</title>
<polygon fill="none" stroke="#bfbfbf" points="645.3651,-56.5 645.3651,-75.5 709.3651,-75.5 709.3651,-56.5 645.3651,-56.5"/>
<text text-anchor="middle" x="677.3651" y="-63.5" font-family="Helvetica,sans-Serif" font-size="10.00" fill="#000000">algorithm</text>
</g>
<!-- Node8&#45;&gt;Node12 -->
<g id="edge13" class="edge">
<title>Node8&#45;&gt;Node12</title>
<path fill="none" stroke="#191970" d="M268.7995,-229.5246C178.3339,-222.4998 21.4384,-207.6347 4.3651,-188 -1.4675,-181.2923 -1.4302,-174.7399 4.3651,-168 45.8475,-119.7568 493.8214,-80.4971 635.0056,-69.248"/>
<polygon fill="#191970" stroke="#191970" points="635.3245,-72.7338 645.0175,-68.4564 634.7727,-65.7556 635.3245,-72.7338"/>
</g>
<!-- Node13 -->
<g id="node14" class="node">
<title>Node13</title>
<polygon fill="none" stroke="#bfbfbf" points="223.8651,-168.5 223.8651,-187.5 288.8651,-187.5 288.8651,-168.5 223.8651,-168.5"/>
<text text-anchor="middle" x="256.3651" y="-175.5" font-family="Helvetica,sans-Serif" font-size="10.00" fill="#000000">stdexcept</text>
</g>
<!-- Node8&#45;&gt;Node13 -->
<g id="edge14" class="edge">
<title>Node8&#45;&gt;Node13</title>
<path fill="none" stroke="#191970" d="M319.127,-224.2455C307.6842,-215.814 290.9355,-203.4729 277.6177,-193.6598"/>
<polygon fill="#191970" stroke="#191970" points="279.5784,-190.757 269.4516,-187.6427 275.426,-196.3924 279.5784,-190.757"/>
</g>
<!-- Node14 -->
<g id="node15" class="node">
<title>Node14</title>
<polygon fill="none" stroke="#bfbfbf" points="307.3651,-168.5 307.3651,-187.5 357.3651,-187.5 357.3651,-168.5 307.3651,-168.5"/>
<text text-anchor="middle" x="332.3651" y="-175.5" font-family="Helvetica,sans-Serif" font-size="10.00" fill="#000000">climits</text>
</g>
<!-- Node8&#45;&gt;Node14 -->
<g id="edge16" class="edge">
<title>Node8&#45;&gt;Node14</title>
<path fill="none" stroke="#191970" d="M332.3651,-224.2455C332.3651,-216.9382 332.3651,-206.6944 332.3651,-197.7046"/>
<polygon fill="#191970" stroke="#191970" points="335.8652,-197.6426 332.3651,-187.6427 328.8652,-197.6427 335.8652,-197.6426"/>
</g>
<!-- Node15 -->
<g id="node16" class="node">
<title>Node15</title>
<g id="a_node16"><a xlink:href="../../d7/df8/Types_8h.html" target="_top" xlink:title="MemoryResources/Types.h">
<polygon fill="none" stroke="#000000" points="375.3651,-168.5 375.3651,-187.5 521.3651,-187.5 521.3651,-168.5 375.3651,-168.5"/>
<text text-anchor="middle" x="448.3651" y="-175.5" font-family="Helvetica,sans-Serif" font-size="10.00" fill="#000000">MemoryResources/Types.h</text>
</a>
</g>
</g>
<!-- Node8&#45;&gt;Node15 -->
<g id="edge17" class="edge">
<title>Node8&#45;&gt;Node15</title>
<path fill="none" stroke="#191970" d="M352.3063,-224.3733C370.8438,-215.4241 398.668,-201.9917 419.6065,-191.8835"/>
<polygon fill="#191970" stroke="#191970" points="421.2004,-195.0006 428.6842,-187.5011 418.1571,-188.6967 421.2004,-195.0006"/>
</g>
<!-- Node16 -->
<g id="node17" class="node">
<title>Node16</title>
<polygon fill="none" stroke="#bfbfbf" points="13.8651,-168.5 13.8651,-187.5 60.8651,-187.5 60.8651,-168.5 13.8651,-168.5"/>
<text text-anchor="middle" x="37.3651" y="-175.5" font-family="Helvetica,sans-Serif" font-size="10.00" fill="#000000">cerrno</text>
</g>
<!-- Node8&#45;&gt;Node16 -->
<g id="edge18" class="edge">
<title>Node8&#45;&gt;Node16</title>
<path fill="none" stroke="#191970" d="M268.6628,-225.0125C217.6266,-217.3108 144.0639,-205.0897 70.9133,-187.9001"/>
<polygon fill="#191970" stroke="#191970" points="71.6038,-184.4667 61.065,-185.5547 69.982,-191.2763 71.6038,-184.4667"/>
</g>
<!-- Node17&#45;&gt;Node3 -->
<g id="edge20" class="edge">
<title>Node17&#45;&gt;Node3</title>
<path fill="none" stroke="#191970" d="M679.0618,-280.2977C668.839,-271.3163 655.8828,-259.9334 645.3756,-250.702"/>
<polygon fill="#191970" stroke="#191970" points="647.3956,-247.8178 637.573,-243.8469 642.7754,-253.0766 647.3956,-247.8178"/>
</g>
<!-- Node17&#45;&gt;Node6 -->
<g id="edge21" class="edge">
<title>Node17&#45;&gt;Node6</title>
<path fill="none" stroke="#191970" d="M710.7561,-280.3842C726.4255,-264.6153 752.8148,-240.0047 779.3651,-224 854.308,-178.824 952.7984,-146.652 1004.3926,-131.6003"/>
<polygon fill="#191970" stroke="#191970" points="1005.4216,-134.9463 1014.0652,-128.8194 1003.4874,-128.2188 1005.4216,-134.9463"/>
</g>
<!-- Node18&#45;&gt;Node3 -->
<g id="edge23" class="edge">
<title>Node18&#45;&gt;Node3</title>
<path fill="none" stroke="#191970" d="M803.8777,-280.4554C761.1514,-269.2738 703.9535,-254.305 666.1738,-244.418"/>
<polygon fill="#191970" stroke="#191970" points="666.6214,-240.9173 656.0611,-241.7715 664.8491,-247.6893 666.6214,-240.9173"/>
</g>
<!-- Node18&#45;&gt;Node4 -->
<g id="edge24" class="edge">
<title>Node18&#45;&gt;Node4</title>
<path fill="none" stroke="#191970" d="M947.0543,-290.3041C1124.0703,-278.519 1523.8027,-246.1679 1646.3651,-188 1670.6089,-176.494 1693.1139,-155.0434 1707.2426,-139.719"/>
<polygon fill="#191970" stroke="#191970" points="1710.1401,-141.7288 1714.188,-131.9377 1704.9178,-137.0675 1710.1401,-141.7288"/>
</g>
<!-- Node18&#45;&gt;Node6 -->
<g id="edge27" class="edge">
<title>Node18&#45;&gt;Node6</title>
<path fill="none" stroke="#191970" d="M931.3982,-280.4575C968.2555,-271.1065 1008.2694,-258.1861 1020.3651,-244 1044.9475,-215.1694 1044.6422,-167.9932 1042.0974,-141.5475"/>
<polygon fill="#191970" stroke="#191970" points="1045.5718,-141.1234 1040.9357,-131.5968 1038.619,-141.9352 1045.5718,-141.1234"/>
</g>
<!-- Node18&#45;&gt;Node7 -->
<g id="edge29" class="edge">
<title>Node18&#45;&gt;Node7</title>
<path fill="none" stroke="#191970" d="M836.6576,-280.3795C799.6835,-257.7521 730.3861,-215.3435 693.6564,-192.8657"/>
<polygon fill="#191970" stroke="#191970" points="695.416,-189.8392 685.0595,-187.6046 691.762,-195.8099 695.416,-189.8392"/>
</g>
<!-- Node18&#45;&gt;Node8 -->
<g id="edge48" class="edge">
<title>Node18&#45;&gt;Node8</title>
<path fill="none" stroke="#191970" d="M775.8396,-281.1811C772.9824,-280.7718 770.1516,-280.3767 767.3651,-280 640.681,-262.8718 492.5147,-248.3795 405.8938,-240.4626"/>
<polygon fill="#191970" stroke="#191970" points="406.1754,-236.9739 395.8994,-239.5534 405.5412,-243.9451 406.1754,-236.9739"/>
</g>
<!-- Node18&#45;&gt;Node10 -->
<g id="edge26" class="edge">
<title>Node18&#45;&gt;Node10</title>
<path fill="none" stroke="#191970" d="M826.1365,-280.4419C802.6196,-270.3121 771.047,-256.5625 743.3651,-244 704.8415,-226.5172 660.7513,-205.5758 632.5115,-192.0421"/>
<polygon fill="#191970" stroke="#191970" points="633.7488,-188.7537 623.2189,-187.5818 630.7197,-195.0644 633.7488,-188.7537"/>
</g>
<!-- Node19 -->
<g id="node20" class="node">
<title>Node19</title>
<polygon fill="none" stroke="#bfbfbf" points="788.3651,-224.5 788.3651,-243.5 832.3651,-243.5 832.3651,-224.5 788.3651,-224.5"/>
<text text-anchor="middle" x="810.3651" y="-231.5" font-family="Helvetica,sans-Serif" font-size="10.00" fill="#000000">bitset</text>
</g>
<!-- Node18&#45;&gt;Node19 -->
<g id="edge25" class="edge">
<title>Node18&#45;&gt;Node19</title>
<path fill="none" stroke="#191970" d="M848.7584,-280.2977C841.6053,-271.672 832.6154,-260.8312 825.1333,-251.8087"/>
<polygon fill="#191970" stroke="#191970" points="827.6084,-249.3103 818.5309,-243.8469 822.2201,-253.7787 827.6084,-249.3103"/>
</g>
<!-- Node20 -->
<g id="node21" class="node">
<title>Node20</title>
<polygon fill="none" stroke="#bfbfbf" points="850.8651,-224.5 850.8651,-243.5 923.8651,-243.5 923.8651,-224.5 850.8651,-224.5"/>
<text text-anchor="middle" x="887.3651" y="-231.5" font-family="Helvetica,sans-Serif" font-size="10.00" fill="#000000">string_view</text>
</g>
<!-- Node18&#45;&gt;Node20 -->
<g id="edge28" class="edge">
<title>Node18&#45;&gt;Node20</title>
<path fill="none" stroke="#191970" d="M867.7921,-280.2977C871.2508,-272.1166 875.5519,-261.943 879.2405,-253.2179"/>
<polygon fill="#191970" stroke="#191970" points="882.532,-254.4205 883.2022,-243.8469 876.0845,-251.6947 882.532,-254.4205"/>
</g>
<!-- Node21 -->
<g id="node22" class="node">
<title>Node21</title>
<polygon fill="none" stroke="#bfbfbf" points="941.8651,-224.5 941.8651,-243.5 1010.8651,-243.5 1010.8651,-224.5 941.8651,-224.5"/>
<text text-anchor="middle" x="976.3651" y="-231.5" font-family="Helvetica,sans-Serif" font-size="10.00" fill="#000000">type_traits</text>
</g>
<!-- Node18&#45;&gt;Node21 -->
<g id="edge30" class="edge">
<title>Node18&#45;&gt;Node21</title>
<path fill="none" stroke="#191970" d="M889.4973,-280.4554C907.8438,-270.644 931.6428,-257.9167 949.6902,-248.2653"/>
<polygon fill="#191970" stroke="#191970" points="951.3766,-251.3326 958.5442,-243.5303 948.0754,-245.1598 951.3766,-251.3326"/>
</g>
<!-- Node22 -->
<g id="node23" class="node">
<title>Node22</title>
<g id="a_node23"><a xlink:href="../../d9/d52/Common_2MathUtils_2include_2MathUtils_2Utils_8h.html" target="_top" xlink:title="MathUtils/Utils.h">
<polygon fill="none" stroke="#000000" points="1215.3651,-224.5 1215.3651,-243.5 1313.3651,-243.5 1313.3651,-224.5 1215.3651,-224.5"/>
<text text-anchor="middle" x="1264.3651" y="-231.5" font-family="Helvetica,sans-Serif" font-size="10.00" fill="#000000">MathUtils/Utils.h</text>
</a>
</g>
</g>
<!-- Node18&#45;&gt;Node22 -->
<g id="edge31" class="edge">
<title>Node18&#45;&gt;Node22</title>
<path fill="none" stroke="#191970" d="M947.3245,-282.3821C1024.9414,-270.5374 1137.1038,-253.4208 1205.1228,-243.0407"/>
<polygon fill="#191970" stroke="#191970" points="1205.8808,-246.4656 1215.2384,-241.497 1204.8248,-239.5457 1205.8808,-246.4656"/>
</g>
<!-- Node23 -->
<g id="node24" class="node">
<title>Node23</title>
<g id="a_node24"><a xlink:href="../../de/def/bitOps_8h.html" target="_top" xlink:title="MathUtils/detail/bitOps.h">
<polygon fill="none" stroke="#000000" points="1105.8651,-168.5 1105.8651,-187.5 1242.8651,-187.5 1242.8651,-168.5 1105.8651,-168.5"/>
<text text-anchor="middle" x="1174.3651" y="-175.5" font-family="Helvetica,sans-Serif" font-size="10.00" fill="#000000">MathUtils/detail/bitOps.h</text>
</a>
</g>
</g>
<!-- Node22&#45;&gt;Node23 -->
<g id="edge32" class="edge">
<title>Node22&#45;&gt;Node23</title>
<path fill="none" stroke="#191970" d="M1248.6883,-224.2455C1234.8796,-215.6534 1214.5459,-203.0014 1198.6359,-193.1018"/>
<polygon fill="#191970" stroke="#191970" points="1200.202,-189.954 1189.8623,-187.6427 1196.5038,-195.8974 1200.202,-189.954"/>
</g>
<!-- Node24 -->
<g id="node25" class="node">
<title>Node24</title>
<g id="a_node25"><a xlink:href="../../d3/dfc/StatAccumulator_8h.html" target="_top" xlink:title="MathUtils/detail/StatAccumulator.h">
<polygon fill="none" stroke="#000000" points="1261.3651,-168.5 1261.3651,-187.5 1447.3651,-187.5 1447.3651,-168.5 1261.3651,-168.5"/>
<text text-anchor="middle" x="1354.3651" y="-175.5" font-family="Helvetica,sans-Serif" font-size="10.00" fill="#000000">MathUtils/detail/StatAccumulator.h</text>
</a>
</g>
</g>
<!-- Node22&#45;&gt;Node24 -->
<g id="edge34" class="edge">
<title>Node22&#45;&gt;Node24</title>
<path fill="none" stroke="#191970" d="M1280.042,-224.2455C1293.8507,-215.6534 1314.1844,-203.0014 1330.0944,-193.1018"/>
<polygon fill="#191970" stroke="#191970" points="1332.2265,-195.8974 1338.868,-187.6427 1328.5283,-189.954 1332.2265,-195.8974"/>
</g>
<!-- Node26 -->
<g id="node27" class="node">
<title>Node26</title>
<g id="a_node27"><a xlink:href="../../dd/d7d/trigonometric_8h.html" target="_top" xlink:title="MathUtils/detail/trigonometric.h">
<polygon fill="none" stroke="#000000" points="1465.3651,-168.5 1465.3651,-187.5 1637.3651,-187.5 1637.3651,-168.5 1465.3651,-168.5"/>
<text text-anchor="middle" x="1551.3651" y="-175.5" font-family="Helvetica,sans-Serif" font-size="10.00" fill="#000000">MathUtils/detail/trigonometric.h</text>
</a>
</g>
</g>
<!-- Node22&#45;&gt;Node26 -->
<g id="edge36" class="edge">
<title>Node22&#45;&gt;Node26</title>
<path fill="none" stroke="#191970" d="M1313.3761,-224.4369C1363.0099,-214.7522 1439.7924,-199.7703 1492.6486,-189.4569"/>
<polygon fill="#191970" stroke="#191970" points="1493.4117,-192.8741 1502.5563,-187.5237 1492.0711,-186.0036 1493.4117,-192.8741"/>
</g>
<!-- Node23&#45;&gt;Node6 -->
<g id="edge33" class="edge">
<title>Node23&#45;&gt;Node6</title>
<path fill="none" stroke="#191970" d="M1151.1578,-168.3733C1129.1953,-159.2629 1096.032,-145.5062 1071.525,-135.3404"/>
<polygon fill="#191970" stroke="#191970" points="1072.8475,-132.0999 1062.2696,-131.5011 1070.1654,-138.5657 1072.8475,-132.0999"/>
</g>
<!-- Node25 -->
<g id="node26" class="node">
<title>Node25</title>
<polygon fill="none" stroke="#bfbfbf" points="1220.8651,-112.5 1220.8651,-131.5 1261.8651,-131.5 1261.8651,-112.5 1220.8651,-112.5"/>
<text text-anchor="middle" x="1241.3651" y="-119.5" font-family="Helvetica,sans-Serif" font-size="10.00" fill="#000000">tuple</text>
</g>
<!-- Node24&#45;&gt;Node25 -->
<g id="edge35" class="edge">
<title>Node24&#45;&gt;Node25</title>
<path fill="none" stroke="#191970" d="M1334.9398,-168.3733C1316.963,-159.4644 1290.0211,-146.1127 1269.6561,-136.0203"/>
<polygon fill="#191970" stroke="#191970" points="1271.0513,-132.8055 1260.5371,-131.5011 1267.943,-139.0776 1271.0513,-132.8055"/>
</g>
<!-- Node26&#45;&gt;Node4 -->
<g id="edge37" class="edge">
<title>Node26&#45;&gt;Node4</title>
<path fill="none" stroke="#191970" d="M1580.7611,-168.3733C1611.6946,-158.243 1660.17,-142.368 1691.607,-132.0728"/>
<polygon fill="#191970" stroke="#191970" points="1692.7572,-135.3791 1701.1713,-128.9407 1690.5786,-128.7268 1692.7572,-135.3791"/>
</g>
<!-- Node26&#45;&gt;Node25 -->
<g id="edge39" class="edge">
<title>Node26&#45;&gt;Node25</title>
<path fill="none" stroke="#191970" d="M1472.8401,-168.4994C1418.7632,-161.1695 1345.2024,-149.6493 1271.7822,-131.7687"/>
<polygon fill="#191970" stroke="#191970" points="1272.4436,-128.3268 1261.8956,-129.3216 1270.7617,-135.1218 1272.4436,-128.3268"/>
</g>
<!-- Node27 -->
<g id="node28" class="node">
<title>Node27</title>
<polygon fill="none" stroke="#bfbfbf" points="1356.8651,-56.5 1356.8651,-75.5 1403.8651,-75.5 1403.8651,-56.5 1356.8651,-56.5"/>
<text text-anchor="middle" x="1380.3651" y="-63.5" font-family="Helvetica,sans-Serif" font-size="10.00" fill="#000000">cmath</text>
</g>
<!-- Node26&#45;&gt;Node27 -->
<g id="edge38" class="edge">
<title>Node26&#45;&gt;Node27</title>
<path fill="none" stroke="#191970" d="M1519.0452,-168.3426C1496.3538,-160.6432 1465.9677,-148.4258 1442.3651,-132 1423.1303,-118.6139 1405.2746,-98.4396 1393.7135,-83.9209"/>
<polygon fill="#191970" stroke="#191970" points="1396.2592,-81.4915 1387.3724,-75.723 1390.7223,-85.7743 1396.2592,-81.4915"/>
</g>
<!-- Node28 -->
<g id="node29" class="node">
<title>Node28</title>
<g id="a_node29"><a xlink:href="../../df/d21/GPUCommonDef_8h.html" target="_top" xlink:title="GPUCommonDef.h">
<polygon fill="none" stroke="#000000" points="1541.8651,-56.5 1541.8651,-75.5 1648.8651,-75.5 1648.8651,-56.5 1541.8651,-56.5"/>
<text text-anchor="middle" x="1595.3651" y="-63.5" font-family="Helvetica,sans-Serif" font-size="10.00" fill="#000000">GPUCommonDef.h</text>
</a>
</g>
</g>
<!-- Node26&#45;&gt;Node28 -->
<g id="edge40" class="edge">
<title>Node26&#45;&gt;Node28</title>
<path fill="none" stroke="#191970" d="M1600.3353,-168.4436C1620.6529,-161.8037 1642.2695,-150.649 1654.3651,-132 1666.8787,-112.7066 1644.6097,-93.42 1623.9423,-80.723"/>
<polygon fill="#191970" stroke="#191970" points="1625.6954,-77.6937 1615.289,-75.7041 1622.1833,-83.7489 1625.6954,-77.6937"/>
</g>
<!-- Node31 -->
<g id="node32" class="node">
<title>Node31</title>
<g id="a_node32"><a xlink:href="../../d6/da2/GPUCommonMath_8h.html" target="_top" xlink:title="GPUCommonMath.h">
<polygon fill="none" stroke="#000000" points="1279.8651,-112.5 1279.8651,-131.5 1394.8651,-131.5 1394.8651,-112.5 1279.8651,-112.5"/>
<text text-anchor="middle" x="1337.3651" y="-119.5" font-family="Helvetica,sans-Serif" font-size="10.00" fill="#000000">GPUCommonMath.h</text>
</a>
</g>
</g>
<!-- Node26&#45;&gt;Node31 -->
<g id="edge43" class="edge">
<title>Node26&#45;&gt;Node31</title>
<path fill="none" stroke="#191970" d="M1514.5772,-168.3733C1478.2991,-158.8799 1422.7416,-144.3415 1383.5206,-134.0781"/>
<polygon fill="#191970" stroke="#191970" points="1384.2333,-130.6468 1373.673,-131.5011 1382.4612,-137.4188 1384.2333,-130.6468"/>
</g>
<!-- Node32 -->
<g id="node33" class="node">
<title>Node32</title>
<g id="a_node33"><a xlink:href="../../d6/d84/MathConstants_8h.html" target="_top" xlink:title="useful math constants ">
<polygon fill="none" stroke="#000000" points="1451.3651,-112.5 1451.3651,-131.5 1645.3651,-131.5 1645.3651,-112.5 1451.3651,-112.5"/>
<text text-anchor="middle" x="1548.3651" y="-119.5" font-family="Helvetica,sans-Serif" font-size="10.00" fill="#000000">CommonConstants/MathConstants.h</text>
</a>
</g>
</g>
<!-- Node26&#45;&gt;Node32 -->
<g id="edge47" class="edge">
<title>Node26&#45;&gt;Node32</title>
<path fill="none" stroke="#191970" d="M1550.8426,-168.2455C1550.4511,-160.9382 1549.9023,-150.6944 1549.4207,-141.7046"/>
<polygon fill="#191970" stroke="#191970" points="1552.9117,-141.4411 1548.8817,-131.6427 1545.9218,-141.8156 1552.9117,-141.4411"/>
</g>
<!-- Node29 -->
<g id="node30" class="node">
<title>Node29</title>
<g id="a_node30"><a xlink:href="../../d5/d93/GPUCommonDefSettings_8h.html" target="_top" xlink:title="GPUCommonDefSettings.h">
<polygon fill="none" stroke="#000000" points="1444.3651,-.5 1444.3651,-19.5 1592.3651,-19.5 1592.3651,-.5 1444.3651,-.5"/>
<text text-anchor="middle" x="1518.3651" y="-7.5" font-family="Helvetica,sans-Serif" font-size="10.00" fill="#000000">GPUCommonDefSettings.h</text>
</a>
</g>
</g>
<!-- Node28&#45;&gt;Node29 -->
<g id="edge41" class="edge">
<title>Node28&#45;&gt;Node29</title>
<path fill="none" stroke="#191970" d="M1581.9528,-56.2455C1570.3594,-47.814 1553.3904,-35.4729 1539.8973,-25.6598"/>
<polygon fill="#191970" stroke="#191970" points="1541.7698,-22.6938 1531.6238,-19.6427 1537.6526,-28.355 1541.7698,-22.6938"/>
</g>
<!-- Node30 -->
<g id="node31" class="node">
<title>Node30</title>
<g id="a_node31"><a xlink:href="../../da/d5a/GPUCommonDefAPI_8h.html" target="_top" xlink:title="GPUCommonDefAPI.h">
<polygon fill="none" stroke="#000000" points="1610.3651,-.5 1610.3651,-19.5 1734.3651,-19.5 1734.3651,-.5 1610.3651,-.5"/>
<text text-anchor="middle" x="1672.3651" y="-7.5" font-family="Helvetica,sans-Serif" font-size="10.00" fill="#000000">GPUCommonDefAPI.h</text>
</a>
</g>
</g>
<!-- Node28&#45;&gt;Node30 -->
<g id="edge42" class="edge">
<title>Node28&#45;&gt;Node30</title>
<path fill="none" stroke="#191970" d="M1608.7775,-56.2455C1620.3709,-47.814 1637.3399,-35.4729 1650.833,-25.6598"/>
<polygon fill="#191970" stroke="#191970" points="1653.0777,-28.355 1659.1065,-19.6427 1648.9605,-22.6938 1653.0777,-28.355"/>
</g>
<!-- Node31&#45;&gt;Node12 -->
<g id="edge46" class="edge">
<title>Node31&#45;&gt;Node12</title>
<path fill="none" stroke="#191970" d="M1279.8052,-113.0256C1276.9539,-112.6605 1274.1285,-112.3159 1271.3651,-112 1065.1299,-88.4225 817.1993,-73.542 719.6892,-68.2123"/>
<polygon fill="#191970" stroke="#191970" points="719.8133,-64.714 709.6386,-67.6678 719.4346,-71.7038 719.8133,-64.714"/>
</g>
<!-- Node31&#45;&gt;Node27 -->
<g id="edge45" class="edge">
<title>Node31&#45;&gt;Node27</title>
<path fill="none" stroke="#191970" d="M1344.8552,-112.2455C1350.8978,-104.3761 1359.5554,-93.101 1366.8093,-83.6542"/>
<polygon fill="#191970" stroke="#191970" points="1369.6467,-85.7058 1372.961,-75.6427 1364.0946,-81.4426 1369.6467,-85.7058"/>
</g>
<!-- Node31&#45;&gt;Node28 -->
<g id="edge44" class="edge">
<title>Node31&#45;&gt;Node28</title>
<path fill="none" stroke="#191970" d="M1381.4238,-112.4369C1425.764,-102.8127 1494.2063,-87.957 1541.69,-77.6504"/>
<polygon fill="#191970" stroke="#191970" points="1542.4582,-81.0653 1551.4882,-75.5237 1540.9734,-74.2245 1542.4582,-81.0653"/>
</g>
</g>
</svg>
        <g id="navigator" transform="translate(0 0)" fill="#404254">
                <rect fill="#f2f5e9" fill-opacity="0.5" stroke="#606060" stroke-width=".5" x="0" y="0" width="60" height="60"/>
                <use id="zoomplus" xlink:href="#zoomPlus" x="17" y="9" onmousedown="handleZoom(evt,'in')"/>
                <use id="zoomminus" xlink:href="#zoomMin" x="42" y="9" onmousedown="handleZoom(evt,'out')"/>
                <use id="reset" xlink:href="#resetDef" x="30" y="36" onmousedown="handleReset()"/>
                <g id="arrowUp" xlink:href="#dirArrow" transform="translate(30 24)" onmousedown="handlePan(0,-1)">
                  <use xlink:href="#rim" fill="#404040">
                        <set attributeName="fill" to="#808080" begin="arrowUp.mouseover" end="arrowUp.mouseout"/>
                  </use>
                  <path fill="none" stroke="white" stroke-width="1.5" d="M0,-3.0v7 M-2.5,-0.5L0,-3.0L2.5,-0.5"/>
                </g>
                <g id="arrowRight" xlink:href="#dirArrow" transform="rotate(90) translate(36 -43)" onmousedown="handlePan(1,0)">
                  <use xlink:href="#rim" fill="#404040">
                        <set attributeName="fill" to="#808080" begin="arrowRight.mouseover" end="arrowRight.mouseout"/>
                  </use>
                  <path fill="none" stroke="white" stroke-width="1.5" d="M0,-3.0v7 M-2.5,-0.5L0,-3.0L2.5,-0.5"/>
                </g>
                <g id="arrowDown" xlink:href="#dirArrow" transform="rotate(180) translate(-30 -48)" onmousedown="handlePan(0,1)">
                  <use xlink:href="#rim" fill="#404040">
                        <set attributeName="fill" to="#808080" begin="arrowDown.mouseover" end="arrowDown.mouseout"/>
                  </use>
                  <path fill="none" stroke="white" stroke-width="1.5" d="M0,-3.0v7 M-2.5,-0.5L0,-3.0L2.5,-0.5"/>
                </g>
                <g id="arrowLeft" xlink:href="#dirArrow" transform="rotate(270) translate(-36 17)" onmousedown="handlePan(-1,0)">
                  <use xlink:href="#rim" fill="#404040">
                        <set attributeName="fill" to="#808080" begin="arrowLeft.mouseover" end="arrowLeft.mouseout"/>
                  </use>
                  <path fill="none" stroke="white" stroke-width="1.5" d="M0,-3.0v7 M-2.5,-0.5L0,-3.0L2.5,-0.5"/>
                </g>
        </g>
        <svg viewBox="0 0 15 15" width="100%" height="30px" preserveAspectRatio="xMaxYMin meet">
         <g id="arrow_out" transform="scale(0.3 0.3)">
          <a xlink:href="ChipMappingITS_8cxx__incl_org.svg" target="_base">
           <rect id="button" ry="5" rx="5" y="6" x="6" height="38" width="38"
                fill="#f2f5e9" fill-opacity="0.5" stroke="#606060" stroke-width="1.0"/>
           <path id="arrow"
             d="M 11.500037,31.436501 C 11.940474,20.09759 22.043105,11.32322 32.158766,21.979434 L 37.068811,17.246167 C 37.068811,17.246167 37.088388,32 37.088388,32 L 22.160133,31.978069 C 22.160133,31.978069 26.997745,27.140456 26.997745,27.140456 C 18.528582,18.264221 13.291696,25.230495 11.500037,31.436501 z"
             style="fill:#404040;"/>
          </a>
         </g>
        </svg>
</svg>
