<?xml version="1.0" encoding="UTF-8" standalone="no"?>
<!DOCTYPE svg PUBLIC "-//W3C//DTD SVG 1.1//EN"
 "http://www.w3.org/Graphics/SVG/1.1/DTD/svg11.dtd">
<!-- Generated by graphviz version 2.40.1 (20161225.0304)
 -->
<!-- Title: /home/travis/build/AliceO2Group/AliceO2/Framework/Core/include/Framework/ASoA.h Pages: 1 -->
<svg width="3029pt" height="486pt"
 viewBox="0.00 0.00 3029.00 486.00" xmlns="http://www.w3.org/2000/svg" xmlns:xlink="http://www.w3.org/1999/xlink">
<g id="graph0" class="graph" transform="scale(1 1) rotate(0) translate(4 482)">
<title>/home/travis/build/AliceO2Group/AliceO2/Framework/Core/include/Framework/ASoA.h</title>
<!-- Node0 -->
<g id="node1" class="node">
<title>Node0</title>
<polygon fill="#bfbfbf" stroke="#000000" points="2294,-425.5 2294,-477.5 2431,-477.5 2431,-425.5 2294,-425.5"/>
<text text-anchor="start" x="2302" y="-465.5" font-family="Helvetica,sans-Serif" font-size="10.00" fill="#000000">/home/travis/build</text>
<text text-anchor="start" x="2302" y="-454.5" font-family="Helvetica,sans-Serif" font-size="10.00" fill="#000000">/AliceO2Group/AliceO2</text>
<text text-anchor="start" x="2302" y="-443.5" font-family="Helvetica,sans-Serif" font-size="10.00" fill="#000000">/Framework/Core/include</text>
<text text-anchor="middle" x="2362.5" y="-432.5" font-family="Helvetica,sans-Serif" font-size="10.00" fill="#000000">/Framework/ASoA.h</text>
</g>
<!-- Node1 -->
<g id="node2" class="node">
<title>Node1</title>
<g id="a_node2"><a xlink:href="../../dd/dce/Pack_8h.html" target="_top" xlink:title="Framework/Pack.h">
<polygon fill="none" stroke="#000000" points="83,-313.5 83,-332.5 188,-332.5 188,-313.5 83,-313.5"/>
<text text-anchor="middle" x="135.5" y="-320.5" font-family="Helvetica,sans-Serif" font-size="10.00" fill="#000000">Framework/Pack.h</text>
</a>
</g>
</g>
<!-- Node0&#45;&gt;Node1 -->
<g id="edge1" class="edge">
<title>Node0&#45;&gt;Node1</title>
<path fill="none" stroke="#191970" d="M2293.9745,-450.575C2068.5712,-447.1725 1329.7486,-433.1602 720.5,-389 490.6402,-372.339 430.8812,-364.2968 198.3642,-333.0622"/>
<polygon fill="#191970" stroke="#191970" points="198.6139,-329.5644 188.2369,-331.7018 197.6819,-336.5021 198.6139,-329.5644"/>
</g>
<!-- Node5 -->
<g id="node6" class="node">
<title>Node5</title>
<g id="a_node6"><a xlink:href="../../d1/d00/CheckTypes_8h.html" target="_top" xlink:title="Framework/CheckTypes.h">
<polygon fill="none" stroke="#000000" points="206.5,-313.5 206.5,-332.5 346.5,-332.5 346.5,-313.5 206.5,-313.5"/>
<text text-anchor="middle" x="276.5" y="-320.5" font-family="Helvetica,sans-Serif" font-size="10.00" fill="#000000">Framework/CheckTypes.h</text>
</a>
</g>
</g>
<!-- Node0&#45;&gt;Node5 -->
<g id="edge5" class="edge">
<title>Node0&#45;&gt;Node5</title>
<path fill="none" stroke="#191970" d="M2293.7672,-449.4207C2092.6929,-443.1129 1488.1971,-422.5467 987.5,-389 709.4386,-370.3699 637.5483,-363.3214 356.7721,-333.1089"/>
<polygon fill="#191970" stroke="#191970" points="357.0124,-329.6146 346.6952,-332.0243 356.2632,-336.5744 357.0124,-329.6146"/>
</g>
<!-- Node6 -->
<g id="node7" class="node">
<title>Node6</title>
<g id="a_node7"><a xlink:href="../../de/d9b/FunctionalHelpers_8h.html" target="_top" xlink:title="Framework/FunctionalHelpers.h">
<polygon fill="none" stroke="#000000" points="50.5,-369.5 50.5,-388.5 220.5,-388.5 220.5,-369.5 50.5,-369.5"/>
<text text-anchor="middle" x="135.5" y="-376.5" font-family="Helvetica,sans-Serif" font-size="10.00" fill="#000000">Framework/FunctionalHelpers.h</text>
</a>
</g>
</g>
<!-- Node0&#45;&gt;Node6 -->
<g id="edge6" class="edge">
<title>Node0&#45;&gt;Node6</title>
<path fill="none" stroke="#191970" d="M2293.9389,-449.7403C2037.9683,-443.0912 1113.903,-418.3799 352.5,-389 312.5438,-387.4582 268.4622,-385.4782 230.5261,-383.6875"/>
<polygon fill="#191970" stroke="#191970" points="230.6652,-380.1902 220.5106,-383.2124 230.3335,-387.1824 230.6652,-380.1902"/>
</g>
<!-- Node8 -->
<g id="node9" class="node">
<title>Node8</title>
<g id="a_node9"><a xlink:href="../../d9/de8/CompilerBuiltins_8h.html" target="_top" xlink:title="Framework/CompilerBuiltins.h">
<polygon fill="none" stroke="#000000" points="364.5,-313.5 364.5,-332.5 528.5,-332.5 528.5,-313.5 364.5,-313.5"/>
<text text-anchor="middle" x="446.5" y="-320.5" font-family="Helvetica,sans-Serif" font-size="10.00" fill="#000000">Framework/CompilerBuiltins.h</text>
</a>
</g>
</g>
<!-- Node0&#45;&gt;Node8 -->
<g id="edge9" class="edge">
<title>Node0&#45;&gt;Node8</title>
<path fill="none" stroke="#191970" d="M2293.8157,-448.2409C2052.9771,-436.5548 1224.4986,-394.1747 542.5,-333 541.2326,-332.8863 539.9559,-332.7706 538.6717,-332.653"/>
<polygon fill="#191970" stroke="#191970" points="538.987,-329.1673 528.7041,-331.7194 538.3341,-336.1368 538.987,-329.1673"/>
</g>
<!-- Node9 -->
<g id="node10" class="node">
<title>Node9</title>
<g id="a_node10"><a xlink:href="../../db/d31/Traits_8h.html" target="_top" xlink:title="Framework/Traits.h">
<polygon fill="none" stroke="#000000" points="2233,-185 2233,-204 2342,-204 2342,-185 2233,-185"/>
<text text-anchor="middle" x="2287.5" y="-192" font-family="Helvetica,sans-Serif" font-size="10.00" fill="#000000">Framework/Traits.h</text>
</a>
</g>
</g>
<!-- Node0&#45;&gt;Node9 -->
<g id="edge10" class="edge">
<title>Node0&#45;&gt;Node9</title>
<path fill="none" stroke="#191970" d="M2422.4947,-425.3958C2437.0822,-416.083 2450.9339,-404.0635 2459.5,-389 2476.203,-359.6276 2477.2965,-342.8697 2461.5,-313 2432.888,-258.8972 2367.2566,-224.8707 2325.2789,-207.8051"/>
<polygon fill="#191970" stroke="#191970" points="2326.5157,-204.5306 2315.9286,-204.1244 2323.9516,-211.0441 2326.5157,-204.5306"/>
</g>
<!-- Node11 -->
<g id="node12" class="node">
<title>Node11</title>
<g id="a_node12"><a xlink:href="../../d0/d91/Expressions_8h.html" target="_top" xlink:title="Framework/Expressions.h">
<polygon fill="none" stroke="#000000" points="1296,-369.5 1296,-388.5 1437,-388.5 1437,-369.5 1296,-369.5"/>
<text text-anchor="middle" x="1366.5" y="-376.5" font-family="Helvetica,sans-Serif" font-size="10.00" fill="#000000">Framework/Expressions.h</text>
</a>
</g>
</g>
<!-- Node0&#45;&gt;Node11 -->
<g id="edge12" class="edge">
<title>Node0&#45;&gt;Node11</title>
<path fill="none" stroke="#191970" d="M2293.6479,-446.4882C2115.1857,-433.4977 1638.2989,-398.7846 1447.2727,-384.8795"/>
<polygon fill="#191970" stroke="#191970" points="1447.2504,-381.3687 1437.0227,-384.1334 1446.7422,-388.3503 1447.2504,-381.3687"/>
</g>
<!-- Node16 -->
<g id="node17" class="node">
<title>Node16</title>
<g id="a_node17"><a xlink:href="../../d1/d76/RuntimeError_8h.html" target="_top" xlink:title="Framework/RuntimeError.h">
<polygon fill="none" stroke="#000000" points="1963.5,-.5 1963.5,-19.5 2109.5,-19.5 2109.5,-.5 1963.5,-.5"/>
<text text-anchor="middle" x="2036.5" y="-7.5" font-family="Helvetica,sans-Serif" font-size="10.00" fill="#000000">Framework/RuntimeError.h</text>
</a>
</g>
</g>
<!-- Node0&#45;&gt;Node16 -->
<g id="edge69" class="edge">
<title>Node0&#45;&gt;Node16</title>
<path fill="none" stroke="#191970" d="M2431.2694,-431.082C2479.9054,-411.9129 2536.5,-377.8275 2536.5,-323 2536.5,-323 2536.5,-323 2536.5,-127.5 2536.5,-42.9232 2261.9558,-19.1722 2119.7447,-12.5427"/>
<polygon fill="#191970" stroke="#191970" points="2119.8865,-9.0456 2109.7398,-12.0943 2119.573,-16.0386 2119.8865,-9.0456"/>
</g>
<!-- Node32 -->
<g id="node33" class="node">
<title>Node32</title>
<polygon fill="none" stroke="#bfbfbf" points="1931.5,-252 1931.5,-271 1983.5,-271 1983.5,-252 1931.5,-252"/>
<text text-anchor="middle" x="1957.5" y="-259" font-family="Helvetica,sans-Serif" font-size="10.00" fill="#000000">cassert</text>
</g>
<!-- Node0&#45;&gt;Node32 -->
<g id="edge75" class="edge">
<title>Node0&#45;&gt;Node32</title>
<path fill="none" stroke="#191970" d="M2409.5951,-425.2448C2422.3168,-415.6275 2434.4909,-403.4825 2441.5,-389 2456.2147,-358.5958 2464.0856,-338.1163 2441.5,-313 2411.6301,-279.7832 2100.8765,-266.3032 1993.6445,-262.6179"/>
<polygon fill="#191970" stroke="#191970" points="1993.7388,-259.1192 1983.6271,-262.282 1993.5041,-266.1153 1993.7388,-259.1192"/>
</g>
<!-- Node40 -->
<g id="node41" class="node">
<title>Node40</title>
<polygon fill="none" stroke="#bfbfbf" points="2067,-313.5 2067,-332.5 2148,-332.5 2148,-313.5 2067,-313.5"/>
<text text-anchor="middle" x="2107.5" y="-320.5" font-family="Helvetica,sans-Serif" font-size="10.00" fill="#000000">arrow/table.h</text>
</g>
<!-- Node0&#45;&gt;Node40 -->
<g id="edge70" class="edge">
<title>Node0&#45;&gt;Node40</title>
<path fill="none" stroke="#191970" d="M2310.8969,-425.4961C2257.9715,-398.8258 2177.6135,-358.3317 2135.4955,-337.1075"/>
<polygon fill="#191970" stroke="#191970" points="2136.8855,-333.8888 2126.3802,-332.5142 2133.7354,-340.1399 2136.8855,-333.8888"/>
</g>
<!-- Node41 -->
<g id="node42" class="node">
<title>Node41</title>
<polygon fill="none" stroke="#bfbfbf" points="2166,-313.5 2166,-332.5 2313,-332.5 2313,-313.5 2166,-313.5"/>
<text text-anchor="middle" x="2239.5" y="-320.5" font-family="Helvetica,sans-Serif" font-size="10.00" fill="#000000">gandiva/selection_vector.h</text>
</g>
<!-- Node0&#45;&gt;Node41 -->
<g id="edge74" class="edge">
<title>Node0&#45;&gt;Node41</title>
<path fill="none" stroke="#191970" d="M2325.2304,-425.266C2311.6399,-414.7952 2296.6418,-402.116 2284.5,-389 2270.8747,-374.2815 2258.2823,-355.1287 2249.9043,-341.2494"/>
<polygon fill="#191970" stroke="#191970" points="2252.9044,-339.4463 2244.8166,-332.6024 2246.8712,-342.9961 2252.9044,-339.4463"/>
</g>
<!-- Node46 -->
<g id="node47" class="node">
<title>Node46</title>
<g id="a_node47"><a xlink:href="../../d4/de7/ArrowTypes_8h.html" target="_top" xlink:title="Framework/ArrowTypes.h">
<polygon fill="none" stroke="#000000" points="2293,-369.5 2293,-388.5 2432,-388.5 2432,-369.5 2293,-369.5"/>
<text text-anchor="middle" x="2362.5" y="-376.5" font-family="Helvetica,sans-Serif" font-size="10.00" fill="#000000">Framework/ArrowTypes.h</text>
</a>
</g>
</g>
<!-- Node0&#45;&gt;Node46 -->
<g id="edge67" class="edge">
<title>Node0&#45;&gt;Node46</title>
<path fill="none" stroke="#191970" d="M2362.5,-425.3258C2362.5,-416.5142 2362.5,-406.8397 2362.5,-398.621"/>
<polygon fill="#191970" stroke="#191970" points="2366.0001,-398.534 2362.5,-388.534 2359.0001,-398.534 2366.0001,-398.534"/>
</g>
<!-- Node47 -->
<g id="node48" class="node">
<title>Node47</title>
<polygon fill="none" stroke="#bfbfbf" points="2564.5,-369.5 2564.5,-388.5 2644.5,-388.5 2644.5,-369.5 2564.5,-369.5"/>
<text text-anchor="middle" x="2604.5" y="-376.5" font-family="Helvetica,sans-Serif" font-size="10.00" fill="#000000">arrow/array.h</text>
</g>
<!-- Node0&#45;&gt;Node47 -->
<g id="edge71" class="edge">
<title>Node0&#45;&gt;Node47</title>
<path fill="none" stroke="#191970" d="M2431.2002,-430.9183C2473.6063,-418.214 2526.6247,-402.3304 2562.7778,-391.4994"/>
<polygon fill="#191970" stroke="#191970" points="2563.9299,-394.808 2572.5048,-388.5853 2561.9209,-388.1025 2563.9299,-394.808"/>
</g>
<!-- Node48 -->
<g id="node49" class="node">
<title>Node48</title>
<polygon fill="none" stroke="#bfbfbf" points="2662.5,-369.5 2662.5,-388.5 2772.5,-388.5 2772.5,-369.5 2662.5,-369.5"/>
<text text-anchor="middle" x="2717.5" y="-376.5" font-family="Helvetica,sans-Serif" font-size="10.00" fill="#000000">arrow/util/variant.h</text>
</g>
<!-- Node0&#45;&gt;Node48 -->
<g id="edge72" class="edge">
<title>Node0&#45;&gt;Node48</title>
<path fill="none" stroke="#191970" d="M2431.3685,-437.4353C2498.2184,-423.7829 2598.4707,-403.3088 2660.8352,-390.5724"/>
<polygon fill="#191970" stroke="#191970" points="2661.7888,-393.95 2670.8862,-388.5197 2660.388,-387.0915 2661.7888,-393.95"/>
</g>
<!-- Node49 -->
<g id="node50" class="node">
<title>Node49</title>
<polygon fill="none" stroke="#bfbfbf" points="2791,-369.5 2791,-388.5 2924,-388.5 2924,-369.5 2791,-369.5"/>
<text text-anchor="middle" x="2857.5" y="-376.5" font-family="Helvetica,sans-Serif" font-size="10.00" fill="#000000">arrow/compute/kernel.h</text>
</g>
<!-- Node0&#45;&gt;Node49 -->
<g id="edge73" class="edge">
<title>Node0&#45;&gt;Node49</title>
<path fill="none" stroke="#191970" d="M2431.0676,-441.4573C2523.2645,-427.9537 2686.6264,-404.0269 2782.1637,-390.0341"/>
<polygon fill="#191970" stroke="#191970" points="2782.943,-393.4574 2792.3301,-388.5451 2781.9285,-386.5313 2782.943,-393.4574"/>
</g>
<!-- Node50 -->
<g id="node51" class="node">
<title>Node50</title>
<polygon fill="none" stroke="#bfbfbf" points="2942,-369.5 2942,-388.5 3021,-388.5 3021,-369.5 2942,-369.5"/>
<text text-anchor="middle" x="2981.5" y="-376.5" font-family="Helvetica,sans-Serif" font-size="10.00" fill="#000000">fmt/format.h</text>
</g>
<!-- Node0&#45;&gt;Node50 -->
<g id="edge76" class="edge">
<title>Node0&#45;&gt;Node50</title>
<path fill="none" stroke="#191970" d="M2431.342,-446.1219C2537.0314,-437.3887 2745.7534,-418.2597 2931.7789,-389.1622"/>
<polygon fill="#191970" stroke="#191970" points="2932.4093,-392.6062 2941.7419,-387.5908 2931.3186,-385.6917 2932.4093,-392.6062"/>
</g>
<!-- Node2 -->
<g id="node3" class="node">
<title>Node2</title>
<polygon fill="none" stroke="#bfbfbf" points="177,-252 177,-271 230,-271 230,-252 177,-252"/>
<text text-anchor="middle" x="203.5" y="-259" font-family="Helvetica,sans-Serif" font-size="10.00" fill="#000000">cstddef</text>
</g>
<!-- Node1&#45;&gt;Node2 -->
<g id="edge2" class="edge">
<title>Node1&#45;&gt;Node2</title>
<path fill="none" stroke="#191970" d="M146.125,-313.3906C156.5431,-303.9683 172.6364,-289.4134 185.1304,-278.1137"/>
<polygon fill="#191970" stroke="#191970" points="187.6562,-280.5484 192.7252,-271.2449 182.9608,-275.3568 187.6562,-280.5484"/>
</g>
<!-- Node3 -->
<g id="node4" class="node">
<title>Node3</title>
<polygon fill="none" stroke="#bfbfbf" points="49,-252 49,-271 94,-271 94,-252 49,-252"/>
<text text-anchor="middle" x="71.5" y="-259" font-family="Helvetica,sans-Serif" font-size="10.00" fill="#000000">utility</text>
</g>
<!-- Node1&#45;&gt;Node3 -->
<g id="edge3" class="edge">
<title>Node1&#45;&gt;Node3</title>
<path fill="none" stroke="#191970" d="M125.5,-313.3906C115.7881,-304.0581 100.8361,-289.6902 89.1259,-278.4374"/>
<polygon fill="#191970" stroke="#191970" points="91.2766,-275.65 81.641,-271.2449 86.4264,-280.6974 91.2766,-275.65"/>
</g>
<!-- Node4 -->
<g id="node5" class="node">
<title>Node4</title>
<polygon fill="none" stroke="#bfbfbf" points="112.5,-252 112.5,-271 158.5,-271 158.5,-252 112.5,-252"/>
<text text-anchor="middle" x="135.5" y="-259" font-family="Helvetica,sans-Serif" font-size="10.00" fill="#000000">cstdio</text>
</g>
<!-- Node1&#45;&gt;Node4 -->
<g id="edge4" class="edge">
<title>Node1&#45;&gt;Node4</title>
<path fill="none" stroke="#191970" d="M135.5,-313.3906C135.5,-304.8657 135.5,-292.1392 135.5,-281.4235"/>
<polygon fill="#191970" stroke="#191970" points="139.0001,-281.2448 135.5,-271.2449 132.0001,-281.2449 139.0001,-281.2448"/>
</g>
<!-- Node6&#45;&gt;Node1 -->
<g id="edge7" class="edge">
<title>Node6&#45;&gt;Node1</title>
<path fill="none" stroke="#191970" d="M135.5,-369.2455C135.5,-361.9382 135.5,-351.6944 135.5,-342.7046"/>
<polygon fill="#191970" stroke="#191970" points="139.0001,-342.6426 135.5,-332.6427 132.0001,-342.6427 139.0001,-342.6426"/>
</g>
<!-- Node7 -->
<g id="node8" class="node">
<title>Node7</title>
<polygon fill="none" stroke="#bfbfbf" points="0,-313.5 0,-332.5 65,-332.5 65,-313.5 0,-313.5"/>
<text text-anchor="middle" x="32.5" y="-320.5" font-family="Helvetica,sans-Serif" font-size="10.00" fill="#000000">functional</text>
</g>
<!-- Node6&#45;&gt;Node7 -->
<g id="edge8" class="edge">
<title>Node6&#45;&gt;Node7</title>
<path fill="none" stroke="#191970" d="M117.5588,-369.2455C101.46,-360.4928 77.6121,-347.527 59.2609,-337.5496"/>
<polygon fill="#191970" stroke="#191970" points="60.6929,-334.3444 50.2356,-332.6427 57.3493,-340.4942 60.6929,-334.3444"/>
</g>
<!-- Node10 -->
<g id="node11" class="node">
<title>Node10</title>
<polygon fill="none" stroke="#bfbfbf" points="1874,-.5 1874,-19.5 1943,-19.5 1943,-.5 1874,-.5"/>
<text text-anchor="middle" x="1908.5" y="-7.5" font-family="Helvetica,sans-Serif" font-size="10.00" fill="#000000">type_traits</text>
</g>
<!-- Node9&#45;&gt;Node10 -->
<g id="edge11" class="edge">
<title>Node9&#45;&gt;Node10</title>
<path fill="none" stroke="#191970" d="M2267.9214,-184.969C2205.543,-154.6027 2011.2435,-60.0163 1937.3859,-24.0619"/>
<polygon fill="#191970" stroke="#191970" points="1938.7121,-20.8148 1928.189,-19.5847 1935.6482,-27.1087 1938.7121,-20.8148"/>
</g>
<!-- Node11&#45;&gt;Node1 -->
<g id="edge15" class="edge">
<title>Node11&#45;&gt;Node1</title>
<path fill="none" stroke="#191970" d="M1295.6985,-377.3354C1079.9398,-372.0881 431.7276,-354.9867 198.3395,-332.9317"/>
<polygon fill="#191970" stroke="#191970" points="198.5008,-329.4309 188.2085,-331.9448 197.822,-336.3979 198.5008,-329.4309"/>
</g>
<!-- Node11&#45;&gt;Node5 -->
<g id="edge16" class="edge">
<title>Node11&#45;&gt;Node5</title>
<path fill="none" stroke="#191970" d="M1295.8947,-377.7406C1132.5251,-374.4041 715.6337,-363.4686 356.7466,-333.041"/>
<polygon fill="#191970" stroke="#191970" points="356.9417,-329.545 346.6801,-332.181 356.3459,-336.5196 356.9417,-329.545"/>
</g>
<!-- Node11&#45;&gt;Node8 -->
<g id="edge14" class="edge">
<title>Node11&#45;&gt;Node8</title>
<path fill="none" stroke="#191970" d="M1295.7182,-375.4873C1123.8601,-366.8874 688.0005,-344.6327 542.5,-333 541.2316,-332.8986 539.9539,-332.7944 538.6687,-332.6877"/>
<polygon fill="#191970" stroke="#191970" points="538.9599,-329.1999 528.6952,-331.8242 538.356,-336.1738 538.9599,-329.1999"/>
</g>
<!-- Node12 -->
<g id="node13" class="node">
<title>Node12</title>
<g id="a_node13"><a xlink:href="../../dd/dc2/BasicOps_8h.html" target="_top" xlink:title="Framework/BasicOps.h">
<polygon fill="none" stroke="#000000" points="1210.5,-313.5 1210.5,-332.5 1338.5,-332.5 1338.5,-313.5 1210.5,-313.5"/>
<text text-anchor="middle" x="1274.5" y="-320.5" font-family="Helvetica,sans-Serif" font-size="10.00" fill="#000000">Framework/BasicOps.h</text>
</a>
</g>
</g>
<!-- Node11&#45;&gt;Node12 -->
<g id="edge13" class="edge">
<title>Node11&#45;&gt;Node12</title>
<path fill="none" stroke="#191970" d="M1350.4748,-369.2455C1336.3592,-360.6534 1315.5737,-348.0014 1299.3101,-338.1018"/>
<polygon fill="#191970" stroke="#191970" points="1300.7034,-334.8525 1290.3415,-332.6427 1297.0637,-340.8319 1300.7034,-334.8525"/>
</g>
<!-- Node13 -->
<g id="node14" class="node">
<title>Node13</title>
<g id="a_node14"><a xlink:href="../../d9/dff/Configurable_8h.html" target="_top" xlink:title="Framework/Configurable.h">
<polygon fill="none" stroke="#000000" points="809.5,-56.5 809.5,-75.5 953.5,-75.5 953.5,-56.5 809.5,-56.5"/>
<text text-anchor="middle" x="881.5" y="-63.5" font-family="Helvetica,sans-Serif" font-size="10.00" fill="#000000">Framework/Configurable.h</text>
</a>
</g>
</g>
<!-- Node11&#45;&gt;Node13 -->
<g id="edge17" class="edge">
<title>Node11&#45;&gt;Node13</title>
<path fill="none" stroke="#191970" d="M1295.9993,-375.9925C1104.7319,-367.6917 589.3784,-344.3284 575.5,-333 550.0278,-312.2081 556.5,-294.3806 556.5,-261.5 556.5,-261.5 556.5,-261.5 556.5,-194.5 556.5,-138.6667 724.4757,-96.6979 818.9044,-77.516"/>
<polygon fill="#191970" stroke="#191970" points="819.8036,-80.9055 828.9219,-75.5104 818.4294,-74.0417 819.8036,-80.9055"/>
</g>
<!-- Node14 -->
<g id="node15" class="node">
<title>Node14</title>
<polygon fill="none" stroke="#bfbfbf" points="1283.5,-.5 1283.5,-19.5 1327.5,-19.5 1327.5,-.5 1283.5,-.5"/>
<text text-anchor="middle" x="1305.5" y="-7.5" font-family="Helvetica,sans-Serif" font-size="10.00" fill="#000000">string</text>
</g>
<!-- Node11&#45;&gt;Node14 -->
<g id="edge65" class="edge">
<title>Node11&#45;&gt;Node14</title>
<path fill="none" stroke="#191970" d="M1363.8515,-369.1039C1360.3379,-356.1461 1353.8382,-332.7554 1347.5,-313 1330.4299,-259.7944 1305.5,-250.3768 1305.5,-194.5 1305.5,-194.5 1305.5,-194.5 1305.5,-127.5 1305.5,-93.1399 1305.5,-53.128 1305.5,-29.7764"/>
<polygon fill="#191970" stroke="#191970" points="1309.0001,-29.7489 1305.5,-19.7489 1302.0001,-29.749 1309.0001,-29.7489"/>
</g>
<!-- Node15 -->
<g id="node16" class="node">
<title>Node15</title>
<g id="a_node16"><a xlink:href="../../de/d56/Variant_8h.html" target="_top" xlink:title="Framework/Variant.h">
<polygon fill="none" stroke="#000000" points="1484,-56.5 1484,-75.5 1601,-75.5 1601,-56.5 1484,-56.5"/>
<text text-anchor="middle" x="1542.5" y="-63.5" font-family="Helvetica,sans-Serif" font-size="10.00" fill="#000000">Framework/Variant.h</text>
</a>
</g>
</g>
<!-- Node11&#45;&gt;Node15 -->
<g id="edge19" class="edge">
<title>Node11&#45;&gt;Node15</title>
<path fill="none" stroke="#191970" d="M1369.6271,-369.1655C1372.5491,-359.8761 1376.9772,-345.537 1380.5,-333 1407.9402,-235.3454 1371.7539,-189.2453 1437.5,-112 1450.8463,-96.3194 1470.5557,-85.7999 1489.3048,-78.831"/>
<polygon fill="#191970" stroke="#191970" points="1490.6654,-82.0643 1498.9831,-75.5018 1488.3884,-75.445 1490.6654,-82.0643"/>
</g>
<!-- Node11&#45;&gt;Node16 -->
<g id="edge54" class="edge">
<title>Node11&#45;&gt;Node16</title>
<path fill="none" stroke="#191970" d="M1437.2327,-376.2139C1601.6461,-369.4426 1997.326,-351.327 2019.5,-333 2044.8445,-312.0526 2038.5,-294.3806 2038.5,-261.5 2038.5,-261.5 2038.5,-261.5 2038.5,-127.5 2038.5,-93.1349 2037.6342,-53.1246 2037.0419,-29.7746"/>
<polygon fill="#191970" stroke="#191970" points="2040.54,-29.6524 2036.7781,-19.748 2033.5424,-29.8366 2040.54,-29.6524"/>
</g>
<!-- Node24 -->
<g id="node25" class="node">
<title>Node24</title>
<g id="a_node25"><a xlink:href="../../d4/d2b/InitContext_8h.html" target="_top" xlink:title="Framework/InitContext.h">
<polygon fill="none" stroke="#000000" points="1633,-313.5 1633,-332.5 1770,-332.5 1770,-313.5 1633,-313.5"/>
<text text-anchor="middle" x="1701.5" y="-320.5" font-family="Helvetica,sans-Serif" font-size="10.00" fill="#000000">Framework/InitContext.h</text>
</a>
</g>
</g>
<!-- Node11&#45;&gt;Node24 -->
<g id="edge30" class="edge">
<title>Node11&#45;&gt;Node24</title>
<path fill="none" stroke="#191970" d="M1423.7079,-369.4369C1482.1246,-359.6717 1572.7599,-344.5207 1634.4966,-334.2006"/>
<polygon fill="#191970" stroke="#191970" points="1635.242,-337.6246 1644.528,-332.5237 1634.0878,-330.7204 1635.242,-337.6246"/>
</g>
<!-- Node25 -->
<g id="node26" class="node">
<title>Node25</title>
<g id="a_node26"><a xlink:href="../../de/dc6/ConfigParamRegistry_8h.html" target="_top" xlink:title="Framework/ConfigParamRegistry.h">
<polygon fill="none" stroke="#000000" points="1432.5,-313.5 1432.5,-332.5 1614.5,-332.5 1614.5,-313.5 1432.5,-313.5"/>
<text text-anchor="middle" x="1523.5" y="-320.5" font-family="Helvetica,sans-Serif" font-size="10.00" fill="#000000">Framework/ConfigParamRegistry.h</text>
</a>
</g>
</g>
<!-- Node11&#45;&gt;Node25 -->
<g id="edge31" class="edge">
<title>Node11&#45;&gt;Node25</title>
<path fill="none" stroke="#191970" d="M1393.4893,-369.3733C1419.3699,-360.1419 1458.6248,-346.1402 1487.2289,-335.9375"/>
<polygon fill="#191970" stroke="#191970" points="1488.62,-339.1573 1496.8629,-332.5011 1486.2683,-332.5642 1488.62,-339.1573"/>
</g>
<!-- Node31 -->
<g id="node32" class="node">
<title>Node31</title>
<polygon fill="none" stroke="#bfbfbf" points="1790.5,-252 1790.5,-271 1848.5,-271 1848.5,-252 1790.5,-252"/>
<text text-anchor="middle" x="1819.5" y="-259" font-family="Helvetica,sans-Serif" font-size="10.00" fill="#000000">memory</text>
</g>
<!-- Node11&#45;&gt;Node31 -->
<g id="edge66" class="edge">
<title>Node11&#45;&gt;Node31</title>
<path fill="none" stroke="#191970" d="M1437.125,-374.5916C1547.3544,-367.1946 1750.6311,-351.2854 1778.5,-333 1796.8524,-320.9585 1807.9321,-297.6754 1813.8654,-280.9464"/>
<polygon fill="#191970" stroke="#191970" points="1817.3078,-281.6752 1817.0459,-271.0836 1810.6456,-279.5267 1817.3078,-281.6752"/>
</g>
<!-- Node33 -->
<g id="node34" class="node">
<title>Node33</title>
<g id="a_node34"><a xlink:href="../../da/d88/RootConfigParamHelpers_8h.html" target="_top" xlink:title="Framework/RootConfigParam\lHelpers.h">
<polygon fill="none" stroke="#000000" points="1790,-179.5 1790,-209.5 1947,-209.5 1947,-179.5 1790,-179.5"/>
<text text-anchor="start" x="1798" y="-197.5" font-family="Helvetica,sans-Serif" font-size="10.00" fill="#000000">Framework/RootConfigParam</text>
<text text-anchor="middle" x="1868.5" y="-186.5" font-family="Helvetica,sans-Serif" font-size="10.00" fill="#000000">Helpers.h</text>
</a>
</g>
</g>
<!-- Node11&#45;&gt;Node33 -->
<g id="edge47" class="edge">
<title>Node11&#45;&gt;Node33</title>
<path fill="none" stroke="#191970" d="M1437.3398,-377.298C1543.934,-373.7741 1739.7813,-363.2781 1802.5,-333 1833.916,-317.8336 1842.1858,-308.3443 1857.5,-277 1866.1897,-259.2144 1868.7292,-236.8392 1869.2124,-219.8795"/>
<polygon fill="#191970" stroke="#191970" points="1872.7138,-219.6411 1869.2769,-209.6193 1865.714,-219.597 1872.7138,-219.6411"/>
</g>
<!-- Node36 -->
<g id="node37" class="node">
<title>Node36</title>
<polygon fill="none" stroke="#bfbfbf" points="2331,-313.5 2331,-332.5 2432,-332.5 2432,-313.5 2331,-313.5"/>
<text text-anchor="middle" x="2381.5" y="-320.5" font-family="Helvetica,sans-Serif" font-size="10.00" fill="#000000">arrow/type_fwd.h</text>
</g>
<!-- Node11&#45;&gt;Node36 -->
<g id="edge55" class="edge">
<title>Node11&#45;&gt;Node36</title>
<path fill="none" stroke="#191970" d="M1437.1871,-378.4914C1594.3201,-376.7348 1984.6148,-368.9133 2320.2901,-333.1278"/>
<polygon fill="#191970" stroke="#191970" points="2321.1372,-336.5569 2330.7051,-332.0065 2320.3879,-329.5971 2321.1372,-336.5569"/>
</g>
<!-- Node37 -->
<g id="node38" class="node">
<title>Node37</title>
<polygon fill="none" stroke="#bfbfbf" points="1864.5,-313.5 1864.5,-332.5 2010.5,-332.5 2010.5,-313.5 1864.5,-313.5"/>
<text text-anchor="middle" x="1937.5" y="-320.5" font-family="Helvetica,sans-Serif" font-size="10.00" fill="#000000">gandiva/gandiva_aliases.h</text>
</g>
<!-- Node11&#45;&gt;Node37 -->
<g id="edge56" class="edge">
<title>Node11&#45;&gt;Node37</title>
<path fill="none" stroke="#191970" d="M1437.0803,-372.7305C1531.3639,-364.2552 1703.5961,-348.4222 1850.5,-333 1851.7758,-332.8661 1853.062,-332.7301 1854.3565,-332.5924"/>
<polygon fill="#191970" stroke="#191970" points="1854.8437,-336.0602 1864.4101,-331.5068 1854.0921,-329.1007 1854.8437,-336.0602"/>
</g>
<!-- Node38 -->
<g id="node39" class="node">
<title>Node38</title>
<polygon fill="none" stroke="#bfbfbf" points="584.5,-313.5 584.5,-332.5 662.5,-332.5 662.5,-313.5 584.5,-313.5"/>
<text text-anchor="middle" x="623.5" y="-320.5" font-family="Helvetica,sans-Serif" font-size="10.00" fill="#000000">arrow/type.h</text>
</g>
<!-- Node11&#45;&gt;Node38 -->
<g id="edge57" class="edge">
<title>Node11&#45;&gt;Node38</title>
<path fill="none" stroke="#191970" d="M1295.9219,-375.5815C1147.96,-368.2152 808.457,-350.2171 672.8888,-332.9796"/>
<polygon fill="#191970" stroke="#191970" points="673.0882,-329.4755 662.7156,-331.6341 672.1703,-336.4151 673.0882,-329.4755"/>
</g>
<!-- Node39 -->
<g id="node40" class="node">
<title>Node39</title>
<polygon fill="none" stroke="#bfbfbf" points="681,-313.5 681,-332.5 776,-332.5 776,-313.5 681,-313.5"/>
<text text-anchor="middle" x="728.5" y="-320.5" font-family="Helvetica,sans-Serif" font-size="10.00" fill="#000000">gandiva/arrow.h</text>
</g>
<!-- Node11&#45;&gt;Node39 -->
<g id="edge58" class="edge">
<title>Node11&#45;&gt;Node39</title>
<path fill="none" stroke="#191970" d="M1295.624,-375.5558C1187.8897,-369.841 976.2937,-356.7392 786.2163,-332.9722"/>
<polygon fill="#191970" stroke="#191970" points="786.3945,-329.4669 776.0347,-331.6861 785.5172,-336.4118 786.3945,-329.4669"/>
</g>
<!-- Node11&#45;&gt;Node40 -->
<g id="edge59" class="edge">
<title>Node11&#45;&gt;Node40</title>
<path fill="none" stroke="#191970" d="M1437.3596,-376.886C1562.1071,-372.5769 1828.9125,-360.7326 2052.5,-333 2053.8002,-332.8387 2055.1163,-332.6667 2056.4429,-332.4854"/>
<polygon fill="#191970" stroke="#191970" points="2057.3616,-335.8868 2066.7315,-330.9415 2056.3228,-328.9643 2057.3616,-335.8868"/>
</g>
<!-- Node11&#45;&gt;Node41 -->
<g id="edge60" class="edge">
<title>Node11&#45;&gt;Node41</title>
<path fill="none" stroke="#191970" d="M1437.1553,-376.3507C1573.7676,-370.9081 1883.8513,-356.9977 2155.6981,-333.0177"/>
<polygon fill="#191970" stroke="#191970" points="2156.1075,-336.4952 2165.7586,-332.1241 2155.4881,-329.5227 2156.1075,-336.4952"/>
</g>
<!-- Node42 -->
<g id="node43" class="node">
<title>Node42</title>
<polygon fill="none" stroke="#bfbfbf" points="794.5,-313.5 794.5,-332.5 886.5,-332.5 886.5,-313.5 794.5,-313.5"/>
<text text-anchor="middle" x="840.5" y="-320.5" font-family="Helvetica,sans-Serif" font-size="10.00" fill="#000000">gandiva/node.h</text>
</g>
<!-- Node11&#45;&gt;Node42 -->
<g id="edge61" class="edge">
<title>Node11&#45;&gt;Node42</title>
<path fill="none" stroke="#191970" d="M1295.6664,-373.9137C1205.3899,-367.0217 1044.3228,-353.3545 896.8144,-333.0872"/>
<polygon fill="#191970" stroke="#191970" points="897.0551,-329.5871 886.669,-331.6797 896.0931,-336.5207 897.0551,-329.5871"/>
</g>
<!-- Node43 -->
<g id="node44" class="node">
<title>Node43</title>
<polygon fill="none" stroke="#bfbfbf" points="905,-313.5 905,-332.5 994,-332.5 994,-313.5 905,-313.5"/>
<text text-anchor="middle" x="949.5" y="-320.5" font-family="Helvetica,sans-Serif" font-size="10.00" fill="#000000">gandiva/filter.h</text>
</g>
<!-- Node11&#45;&gt;Node43 -->
<g id="edge62" class="edge">
<title>Node11&#45;&gt;Node43</title>
<path fill="none" stroke="#191970" d="M1295.7247,-371.2417C1224.6605,-363.1768 1111.7998,-349.6229 1004.3058,-333.0521"/>
<polygon fill="#191970" stroke="#191970" points="1004.6741,-329.5674 994.2555,-331.4914 1003.5999,-336.4845 1004.6741,-329.5674"/>
</g>
<!-- Node44 -->
<g id="node45" class="node">
<title>Node44</title>
<polygon fill="none" stroke="#bfbfbf" points="1012.5,-313.5 1012.5,-332.5 1122.5,-332.5 1122.5,-313.5 1012.5,-313.5"/>
<text text-anchor="middle" x="1067.5" y="-320.5" font-family="Helvetica,sans-Serif" font-size="10.00" fill="#000000">gandiva/projector.h</text>
</g>
<!-- Node11&#45;&gt;Node44 -->
<g id="edge63" class="edge">
<title>Node11&#45;&gt;Node44</title>
<path fill="none" stroke="#191970" d="M1315.4398,-369.4369C1263.6232,-359.7321 1183.405,-344.708 1128.3285,-334.3926"/>
<polygon fill="#191970" stroke="#191970" points="1128.823,-330.9245 1118.3496,-332.5237 1127.5344,-337.8048 1128.823,-330.9245"/>
</g>
<!-- Node45 -->
<g id="node46" class="node">
<title>Node45</title>
<polygon fill="none" stroke="#bfbfbf" points="1141,-313.5 1141,-332.5 1192,-332.5 1192,-313.5 1141,-313.5"/>
<text text-anchor="middle" x="1166.5" y="-320.5" font-family="Helvetica,sans-Serif" font-size="10.00" fill="#000000">variant</text>
</g>
<!-- Node11&#45;&gt;Node45 -->
<g id="edge64" class="edge">
<title>Node11&#45;&gt;Node45</title>
<path fill="none" stroke="#191970" d="M1332.0356,-369.461C1300.6644,-360.7628 1252.813,-347.457 1201.9724,-333.121"/>
<polygon fill="#191970" stroke="#191970" points="1202.6836,-329.6851 1192.1088,-330.3373 1200.7822,-336.4219 1202.6836,-329.6851"/>
</g>
<!-- Node13&#45;&gt;Node14 -->
<g id="edge18" class="edge">
<title>Node13&#45;&gt;Node14</title>
<path fill="none" stroke="#191970" d="M953.9064,-56.4369C1047.3032,-44.1015 1205.7692,-23.172 1273.3829,-14.2419"/>
<polygon fill="#191970" stroke="#191970" points="1273.975,-17.6942 1283.4306,-12.9148 1273.0583,-10.7544 1273.975,-17.6942"/>
</g>
<!-- Node15&#45;&gt;Node10 -->
<g id="edge21" class="edge">
<title>Node15&#45;&gt;Node10</title>
<path fill="none" stroke="#191970" d="M1601.1972,-59.0754C1663.7706,-51.3654 1765.9483,-37.8379 1863.8933,-19.9829"/>
<polygon fill="#191970" stroke="#191970" points="1864.767,-23.381 1873.9679,-18.1281 1863.4994,-16.4967 1864.767,-23.381"/>
</g>
<!-- Node15&#45;&gt;Node14 -->
<g id="edge29" class="edge">
<title>Node15&#45;&gt;Node14</title>
<path fill="none" stroke="#191970" d="M1493.9077,-56.47C1454.1783,-48.3808 1396.3805,-35.9377 1337.6004,-20.1292"/>
<polygon fill="#191970" stroke="#191970" points="1338.3454,-16.7048 1327.7773,-17.4579 1336.5084,-23.4595 1338.3454,-16.7048"/>
</g>
<!-- Node15&#45;&gt;Node16 -->
<g id="edge20" class="edge">
<title>Node15&#45;&gt;Node16</title>
<path fill="none" stroke="#191970" d="M1601.097,-59.5048C1680.5147,-50.68 1826.7416,-34.3544 1951.5,-20 1952.0997,-19.931 1952.7017,-19.8617 1953.3059,-19.792"/>
<polygon fill="#191970" stroke="#191970" points="1953.7145,-23.2682 1963.2461,-18.6422 1952.9101,-16.3146 1953.7145,-23.2682"/>
</g>
<!-- Node17 -->
<g id="node18" class="node">
<title>Node17</title>
<polygon fill="none" stroke="#bfbfbf" points="1672.5,-.5 1672.5,-19.5 1722.5,-19.5 1722.5,-.5 1672.5,-.5"/>
<text text-anchor="middle" x="1697.5" y="-7.5" font-family="Helvetica,sans-Serif" font-size="10.00" fill="#000000">cstring</text>
</g>
<!-- Node15&#45;&gt;Node17 -->
<g id="edge22" class="edge">
<title>Node15&#45;&gt;Node17</title>
<path fill="none" stroke="#191970" d="M1569.1454,-56.3733C1595.0836,-47.0021 1634.6287,-32.7148 1662.9672,-22.4764"/>
<polygon fill="#191970" stroke="#191970" points="1664.2672,-25.7282 1672.4829,-19.0384 1661.8886,-19.1447 1664.2672,-25.7282"/>
</g>
<!-- Node18 -->
<g id="node19" class="node">
<title>Node18</title>
<polygon fill="none" stroke="#bfbfbf" points="1740.5,-.5 1740.5,-19.5 1790.5,-19.5 1790.5,-.5 1740.5,-.5"/>
<text text-anchor="middle" x="1765.5" y="-7.5" font-family="Helvetica,sans-Serif" font-size="10.00" fill="#000000">cstdint</text>
</g>
<!-- Node15&#45;&gt;Node18 -->
<g id="edge23" class="edge">
<title>Node15&#45;&gt;Node18</title>
<path fill="none" stroke="#191970" d="M1584.309,-56.4232C1620.6035,-47.9755 1674.7822,-35.0452 1730.588,-20.1621"/>
<polygon fill="#191970" stroke="#191970" points="1731.5351,-23.5318 1740.2865,-17.5599 1729.7211,-16.7709 1731.5351,-23.5318"/>
</g>
<!-- Node19 -->
<g id="node20" class="node">
<title>Node19</title>
<polygon fill="none" stroke="#bfbfbf" points="1346,-.5 1346,-19.5 1395,-19.5 1395,-.5 1346,-.5"/>
<text text-anchor="middle" x="1370.5" y="-7.5" font-family="Helvetica,sans-Serif" font-size="10.00" fill="#000000">cstdlib</text>
</g>
<!-- Node15&#45;&gt;Node19 -->
<g id="edge24" class="edge">
<title>Node15&#45;&gt;Node19</title>
<path fill="none" stroke="#191970" d="M1512.9321,-56.3733C1482.9444,-46.6098 1436.567,-31.5102 1404.9389,-21.2127"/>
<polygon fill="#191970" stroke="#191970" points="1405.8201,-17.8188 1395.2278,-18.0509 1403.6529,-24.4749 1405.8201,-17.8188"/>
</g>
<!-- Node20 -->
<g id="node21" class="node">
<title>Node20</title>
<polygon fill="none" stroke="#bfbfbf" points="1413,-.5 1413,-19.5 1462,-19.5 1462,-.5 1413,-.5"/>
<text text-anchor="middle" x="1437.5" y="-7.5" font-family="Helvetica,sans-Serif" font-size="10.00" fill="#000000">iosfwd</text>
</g>
<!-- Node15&#45;&gt;Node20 -->
<g id="edge25" class="edge">
<title>Node15&#45;&gt;Node20</title>
<path fill="none" stroke="#191970" d="M1524.2104,-56.2455C1507.7238,-47.4527 1483.2648,-34.4079 1464.5235,-24.4125"/>
<polygon fill="#191970" stroke="#191970" points="1466.0506,-21.2604 1455.58,-19.6427 1462.7565,-27.4368 1466.0506,-21.2604"/>
</g>
<!-- Node21 -->
<g id="node22" class="node">
<title>Node21</title>
<polygon fill="none" stroke="#bfbfbf" points="1480,-.5 1480,-19.5 1563,-19.5 1563,-.5 1480,-.5"/>
<text text-anchor="middle" x="1521.5" y="-7.5" font-family="Helvetica,sans-Serif" font-size="10.00" fill="#000000">initializer_list</text>
</g>
<!-- Node15&#45;&gt;Node21 -->
<g id="edge26" class="edge">
<title>Node15&#45;&gt;Node21</title>
<path fill="none" stroke="#191970" d="M1538.8421,-56.2455C1536.0416,-48.7776 1532.091,-38.2427 1528.6676,-29.1137"/>
<polygon fill="#191970" stroke="#191970" points="1531.9045,-27.777 1525.116,-19.6427 1525.3501,-30.2349 1531.9045,-27.777"/>
</g>
<!-- Node22 -->
<g id="node23" class="node">
<title>Node22</title>
<polygon fill="none" stroke="#bfbfbf" points="1581,-.5 1581,-19.5 1654,-19.5 1654,-.5 1581,-.5"/>
<text text-anchor="middle" x="1617.5" y="-7.5" font-family="Helvetica,sans-Serif" font-size="10.00" fill="#000000">string_view</text>
</g>
<!-- Node15&#45;&gt;Node22 -->
<g id="edge27" class="edge">
<title>Node15&#45;&gt;Node22</title>
<path fill="none" stroke="#191970" d="M1555.564,-56.2455C1566.8562,-47.814 1583.3845,-35.4729 1596.5271,-25.6598"/>
<polygon fill="#191970" stroke="#191970" points="1598.6669,-28.4301 1604.5857,-19.6427 1594.4789,-22.8211 1598.6669,-28.4301"/>
</g>
<!-- Node23 -->
<g id="node24" class="node">
<title>Node23</title>
<polygon fill="none" stroke="#bfbfbf" points="1809,-.5 1809,-19.5 1856,-19.5 1856,-.5 1809,-.5"/>
<text text-anchor="middle" x="1832.5" y="-7.5" font-family="Helvetica,sans-Serif" font-size="10.00" fill="#000000">vector</text>
</g>
<!-- Node15&#45;&gt;Node23 -->
<g id="edge28" class="edge">
<title>Node15&#45;&gt;Node23</title>
<path fill="none" stroke="#191970" d="M1601.0837,-57.5167C1651.1889,-49.8075 1725.3579,-37.3238 1798.8985,-19.9192"/>
<polygon fill="#191970" stroke="#191970" points="1799.8899,-23.2808 1808.7979,-17.5451 1798.2574,-16.4738 1799.8899,-23.2808"/>
</g>
<!-- Node25&#45;&gt;Node14 -->
<g id="edge45" class="edge">
<title>Node25&#45;&gt;Node14</title>
<path fill="none" stroke="#191970" d="M1483.1045,-313.387C1430.0345,-298.0729 1343.5,-262.653 1343.5,-194.5 1343.5,-194.5 1343.5,-194.5 1343.5,-127.5 1343.5,-91.2454 1326.9195,-51.6181 1315.663,-28.8929"/>
<polygon fill="#191970" stroke="#191970" points="1318.6292,-27.0073 1310.9445,-19.7137 1312.4035,-30.2076 1318.6292,-27.0073"/>
</g>
<!-- Node26 -->
<g id="node27" class="node">
<title>Node26</title>
<g id="a_node27"><a xlink:href="../../df/d72/ParamRetriever_8h.html" target="_top" xlink:title="Framework/ParamRetriever.h">
<polygon fill="none" stroke="#000000" points="1443,-185 1443,-204 1600,-204 1600,-185 1443,-185"/>
<text text-anchor="middle" x="1521.5" y="-192" font-family="Helvetica,sans-Serif" font-size="10.00" fill="#000000">Framework/ParamRetriever.h</text>
</a>
</g>
</g>
<!-- Node25&#45;&gt;Node26 -->
<g id="edge32" class="edge">
<title>Node25&#45;&gt;Node26</title>
<path fill="none" stroke="#191970" d="M1501.7342,-313.3857C1487.4336,-305.773 1469.8748,-293.6416 1461.5,-277 1455.3065,-264.6928 1455.7472,-258.5193 1461.5,-246 1468.4858,-230.7977 1482.4188,-218.3979 1495.1011,-209.5778"/>
<polygon fill="#191970" stroke="#191970" points="1497.1126,-212.4446 1503.5805,-204.0531 1493.2913,-206.5796 1497.1126,-212.4446"/>
</g>
<!-- Node29 -->
<g id="node30" class="node">
<title>Node29</title>
<g id="a_node30"><a xlink:href="../../dd/daf/ConfigParamStore_8h.html" target="_top" xlink:title="Framework/ConfigParamStore.h">
<polygon fill="none" stroke="#000000" points="1470.5,-252 1470.5,-271 1640.5,-271 1640.5,-252 1470.5,-252"/>
<text text-anchor="middle" x="1555.5" y="-259" font-family="Helvetica,sans-Serif" font-size="10.00" fill="#000000">Framework/ConfigParamStore.h</text>
</a>
</g>
</g>
<!-- Node25&#45;&gt;Node29 -->
<g id="edge39" class="edge">
<title>Node25&#45;&gt;Node29</title>
<path fill="none" stroke="#191970" d="M1528.5,-313.3906C1533.0758,-304.5965 1539.9781,-291.3312 1545.6583,-280.4145"/>
<polygon fill="#191970" stroke="#191970" points="1548.9185,-281.7314 1550.4295,-271.2449 1542.7088,-278.5003 1548.9185,-281.7314"/>
</g>
<!-- Node30 -->
<g id="node31" class="node">
<title>Node30</title>
<polygon fill="none" stroke="#bfbfbf" points="1659,-246.5 1659,-276.5 1772,-276.5 1772,-246.5 1659,-246.5"/>
<text text-anchor="start" x="1667" y="-264.5" font-family="Helvetica,sans-Serif" font-size="10.00" fill="#000000">boost/property_tree</text>
<text text-anchor="middle" x="1715.5" y="-253.5" font-family="Helvetica,sans-Serif" font-size="10.00" fill="#000000">/ptree.hpp</text>
</g>
<!-- Node25&#45;&gt;Node30 -->
<g id="edge43" class="edge">
<title>Node25&#45;&gt;Node30</title>
<path fill="none" stroke="#191970" d="M1553.5,-313.3906C1581.53,-304.4123 1624.1095,-290.7735 1658.5818,-279.7316"/>
<polygon fill="#191970" stroke="#191970" points="1660.0758,-282.9283 1668.5315,-276.5446 1657.9405,-276.2619 1660.0758,-282.9283"/>
</g>
<!-- Node25&#45;&gt;Node31 -->
<g id="edge44" class="edge">
<title>Node25&#45;&gt;Node31</title>
<path fill="none" stroke="#191970" d="M1599.475,-313.4982C1651.1238,-306.0448 1720.672,-294.0551 1780.5,-277 1782.9524,-276.3009 1785.4632,-275.5032 1787.9706,-274.647"/>
<polygon fill="#191970" stroke="#191970" points="1789.3199,-277.88 1797.4938,-271.1392 1786.9004,-271.3114 1789.3199,-277.88"/>
</g>
<!-- Node25&#45;&gt;Node32 -->
<g id="edge46" class="edge">
<title>Node25&#45;&gt;Node32</title>
<path fill="none" stroke="#191970" d="M1595.2183,-313.4794C1662.8874,-304.4119 1767.1503,-290.2228 1857.5,-277 1878.6206,-273.909 1902.2186,-270.2606 1921.1848,-267.2801"/>
<polygon fill="#191970" stroke="#191970" points="1921.8672,-270.7158 1931.1999,-265.7008 1920.7768,-263.8013 1921.8672,-270.7158"/>
</g>
<!-- Node26&#45;&gt;Node14 -->
<g id="edge37" class="edge">
<title>Node26&#45;&gt;Node14</title>
<path fill="none" stroke="#191970" d="M1502.4932,-184.8273C1484.7893,-175.3725 1458.104,-159.9582 1437.5,-143 1396.9417,-109.6183 1394.9996,-92.7844 1357.5,-56 1347.0132,-45.7132 1334.7258,-34.7953 1324.729,-26.1785"/>
<polygon fill="#191970" stroke="#191970" points="1326.8382,-23.3772 1316.9602,-19.5461 1322.2931,-28.701 1326.8382,-23.3772"/>
</g>
<!-- Node26&#45;&gt;Node23 -->
<g id="edge38" class="edge">
<title>Node26&#45;&gt;Node23</title>
<path fill="none" stroke="#191970" d="M1543.5188,-184.925C1564.4933,-175.4263 1596.6166,-159.881 1622.5,-143 1640.7563,-131.0933 1642.6323,-124.4823 1660.5,-112 1709.6669,-77.6521 1770.8039,-43.2115 1805.3646,-24.4454"/>
<polygon fill="#191970" stroke="#191970" points="1807.2385,-27.4113 1814.3757,-19.5812 1803.9134,-21.2515 1807.2385,-27.4113"/>
</g>
<!-- Node27 -->
<g id="node28" class="node">
<title>Node27</title>
<g id="a_node28"><a xlink:href="../../d0/d1c/ConfigParamSpec_8h.html" target="_top" xlink:title="Framework/ConfigParamSpec.h">
<polygon fill="none" stroke="#000000" points="1447,-118 1447,-137 1614,-137 1614,-118 1447,-118"/>
<text text-anchor="middle" x="1530.5" y="-125" font-family="Helvetica,sans-Serif" font-size="10.00" fill="#000000">Framework/ConfigParamSpec.h</text>
</a>
</g>
</g>
<!-- Node26&#45;&gt;Node27 -->
<g id="edge33" class="edge">
<title>Node26&#45;&gt;Node27</title>
<path fill="none" stroke="#191970" d="M1522.7895,-184.9005C1524.0994,-175.149 1526.1666,-159.7597 1527.831,-147.3695"/>
<polygon fill="#191970" stroke="#191970" points="1531.3503,-147.4586 1529.2129,-137.0817 1524.4127,-146.5266 1531.3503,-147.4586"/>
</g>
<!-- Node28 -->
<g id="node29" class="node">
<title>Node28</title>
<polygon fill="none" stroke="#bfbfbf" points="1670,-112.5 1670,-142.5 1783,-142.5 1783,-112.5 1670,-112.5"/>
<text text-anchor="start" x="1678" y="-130.5" font-family="Helvetica,sans-Serif" font-size="10.00" fill="#000000">boost/property_tree</text>
<text text-anchor="middle" x="1726.5" y="-119.5" font-family="Helvetica,sans-Serif" font-size="10.00" fill="#000000">/ptree_fwd.hpp</text>
</g>
<!-- Node26&#45;&gt;Node28 -->
<g id="edge36" class="edge">
<title>Node26&#45;&gt;Node28</title>
<path fill="none" stroke="#191970" d="M1550.8715,-184.9005C1582.1025,-174.6933 1632.2333,-158.3091 1670.9571,-145.6531"/>
<polygon fill="#191970" stroke="#191970" points="1672.12,-148.9552 1680.5379,-142.5218 1669.9453,-142.3016 1672.12,-148.9552"/>
</g>
<!-- Node27&#45;&gt;Node14 -->
<g id="edge35" class="edge">
<title>Node27&#45;&gt;Node14</title>
<path fill="none" stroke="#191970" d="M1512.6371,-117.933C1486.8366,-104.1391 1437.6139,-77.9134 1395.5,-56 1374.8794,-45.2704 1351.5008,-33.328 1333.7399,-24.3009"/>
<polygon fill="#191970" stroke="#191970" points="1335.0051,-21.018 1324.5039,-19.612 1331.8363,-27.2597 1335.0051,-21.018"/>
</g>
<!-- Node27&#45;&gt;Node15 -->
<g id="edge34" class="edge">
<title>Node27&#45;&gt;Node15</title>
<path fill="none" stroke="#191970" d="M1532.375,-117.8906C1534.0559,-109.276 1536.574,-96.3708 1538.6784,-85.5858"/>
<polygon fill="#191970" stroke="#191970" points="1542.1186,-86.2301 1540.5986,-75.7449 1535.2482,-84.8895 1542.1186,-86.2301"/>
</g>
<!-- Node29&#45;&gt;Node26 -->
<g id="edge40" class="edge">
<title>Node29&#45;&gt;Node26</title>
<path fill="none" stroke="#191970" d="M1550.6286,-251.9005C1545.5286,-241.8505 1537.3898,-225.8122 1531.01,-213.2403"/>
<polygon fill="#191970" stroke="#191970" points="1534.0088,-211.4153 1526.3623,-204.0817 1527.7666,-214.583 1534.0088,-211.4153"/>
</g>
<!-- Node29&#45;&gt;Node27 -->
<g id="edge41" class="edge">
<title>Node29&#45;&gt;Node27</title>
<path fill="none" stroke="#191970" d="M1570.8753,-251.8011C1583.6469,-242.7507 1600.908,-227.963 1608.5,-210 1613.8637,-197.3092 1615.0282,-191.133 1608.5,-179 1599.4376,-162.1569 1582.1853,-149.9063 1566.2058,-141.5897"/>
<polygon fill="#191970" stroke="#191970" points="1567.542,-138.3481 1557.0159,-137.1427 1564.4928,-144.6491 1567.542,-138.3481"/>
</g>
<!-- Node29&#45;&gt;Node28 -->
<g id="edge42" class="edge">
<title>Node29&#45;&gt;Node28</title>
<path fill="none" stroke="#191970" d="M1569.0703,-251.8268C1583.2842,-241.6227 1606.1854,-224.978 1625.5,-210 1651.4463,-189.8792 1680.4075,-166.0801 1700.6416,-149.2269"/>
<polygon fill="#191970" stroke="#191970" points="1703.0446,-151.7802 1708.4773,-142.6843 1698.558,-146.407 1703.0446,-151.7802"/>
</g>
<!-- Node33&#45;&gt;Node10 -->
<g id="edge52" class="edge">
<title>Node33&#45;&gt;Node10</title>
<path fill="none" stroke="#191970" d="M1853.226,-179.3254C1844.743,-169.7875 1835.0143,-156.7214 1830.5,-143 1826.1942,-129.9123 1826.0821,-125.0502 1830.5,-112 1842.2486,-77.2955 1871.0618,-45.1101 1890.1857,-26.5136"/>
<polygon fill="#191970" stroke="#191970" points="1892.6053,-29.0427 1897.4685,-19.6299 1887.7968,-23.9555 1892.6053,-29.0427"/>
</g>
<!-- Node33&#45;&gt;Node16 -->
<g id="edge49" class="edge">
<title>Node33&#45;&gt;Node16</title>
<path fill="none" stroke="#191970" d="M1921.3986,-179.4156C1941.9781,-171.3678 1964.4236,-159.607 1980.5,-143 1996.9386,-126.0188 2019.5642,-61.8265 2030.3282,-29.2358"/>
<polygon fill="#191970" stroke="#191970" points="2033.7273,-30.1011 2033.4978,-19.5087 2027.0717,-27.9323 2033.7273,-30.1011"/>
</g>
<!-- Node33&#45;&gt;Node27 -->
<g id="edge48" class="edge">
<title>Node33&#45;&gt;Node27</title>
<path fill="none" stroke="#191970" d="M1792.6462,-179.4639C1730.7691,-167.1983 1644.6647,-150.1303 1588.276,-138.9526"/>
<polygon fill="#191970" stroke="#191970" points="1588.9418,-135.5166 1578.452,-137.0053 1587.5806,-142.383 1588.9418,-135.5166"/>
</g>
<!-- Node33&#45;&gt;Node28 -->
<g id="edge51" class="edge">
<title>Node33&#45;&gt;Node28</title>
<path fill="none" stroke="#191970" d="M1836.6324,-179.4639C1816.3125,-169.8763 1789.7738,-157.3545 1767.8395,-147.0052"/>
<polygon fill="#191970" stroke="#191970" points="1769.2899,-143.8196 1758.7525,-142.7177 1766.3028,-150.1503 1769.2899,-143.8196"/>
</g>
<!-- Node34 -->
<g id="node35" class="node">
<title>Node34</title>
<polygon fill="none" stroke="#bfbfbf" points="1915,-118 1915,-137 1972,-137 1972,-118 1915,-118"/>
<text text-anchor="middle" x="1943.5" y="-125" font-family="Helvetica,sans-Serif" font-size="10.00" fill="#000000">TClass.h</text>
</g>
<!-- Node33&#45;&gt;Node34 -->
<g id="edge50" class="edge">
<title>Node33&#45;&gt;Node34</title>
<path fill="none" stroke="#191970" d="M1885.5187,-179.2967C1897.3175,-168.7564 1913.0184,-154.7303 1925.1057,-143.9323"/>
<polygon fill="#191970" stroke="#191970" points="1927.6783,-146.3273 1932.8041,-137.055 1923.0147,-141.107 1927.6783,-146.3273"/>
</g>
<!-- Node35 -->
<g id="node36" class="node">
<title>Node35</title>
<polygon fill="none" stroke="#bfbfbf" points="1840,-118 1840,-137 1897,-137 1897,-118 1840,-118"/>
<text text-anchor="middle" x="1868.5" y="-125" font-family="Helvetica,sans-Serif" font-size="10.00" fill="#000000">typeinfo</text>
</g>
<!-- Node33&#45;&gt;Node35 -->
<g id="edge53" class="edge">
<title>Node33&#45;&gt;Node35</title>
<path fill="none" stroke="#191970" d="M1868.5,-179.2967C1868.5,-169.7699 1868.5,-157.3954 1868.5,-147.1306"/>
<polygon fill="#191970" stroke="#191970" points="1872.0001,-147.0549 1868.5,-137.055 1865.0001,-147.055 1872.0001,-147.0549"/>
</g>
<!-- Node46&#45;&gt;Node36 -->
<g id="edge68" class="edge">
<title>Node46&#45;&gt;Node36</title>
<path fill="none" stroke="#191970" d="M2365.8095,-369.2455C2368.3433,-361.7776 2371.9177,-351.2427 2375.015,-342.1137"/>
<polygon fill="#191970" stroke="#191970" points="2378.3298,-343.237 2378.2284,-332.6427 2371.7009,-340.9879 2378.3298,-343.237"/>
</g>
</g>
</svg>
