<?xml version="1.0" encoding="UTF-8" standalone="no"?>
<!DOCTYPE svg PUBLIC "-//W3C//DTD SVG 1.1//EN"
 "http://www.w3.org/Graphics/SVG/1.1/DTD/svg11.dtd">
<!-- Generated by graphviz version 2.40.1 (20161225.0304)
 -->
<!-- Title: /home/travis/build/AliceO2Group/AliceO2/Detectors/EMCAL/simulation/include/EMCALSimulation/Detector.h Pages: 1 -->
<svg width="3260pt" height="419pt"
 viewBox="0.00 0.00 3260.00 419.00" xmlns="http://www.w3.org/2000/svg" xmlns:xlink="http://www.w3.org/1999/xlink">
<g id="graph0" class="graph" transform="scale(1 1) rotate(0) translate(4 415)">
<title>/home/travis/build/AliceO2Group/AliceO2/Detectors/EMCAL/simulation/include/EMCALSimulation/Detector.h</title>
<!-- Node0 -->
<g id="node1" class="node">
<title>Node0</title>
<polygon fill="#bfbfbf" stroke="#000000" points="1825.5,-358.5 1825.5,-410.5 2022.5,-410.5 2022.5,-358.5 1825.5,-358.5"/>
<text text-anchor="start" x="1833.5" y="-398.5" font-family="Helvetica,sans-Serif" font-size="10.00" fill="#000000">/home/travis/build</text>
<text text-anchor="start" x="1833.5" y="-387.5" font-family="Helvetica,sans-Serif" font-size="10.00" fill="#000000">/AliceO2Group/AliceO2</text>
<text text-anchor="start" x="1833.5" y="-376.5" font-family="Helvetica,sans-Serif" font-size="10.00" fill="#000000">/Detectors/EMCAL/simulation</text>
<text text-anchor="middle" x="1924" y="-365.5" font-family="Helvetica,sans-Serif" font-size="10.00" fill="#000000">/include/EMCALSimulation/Detector.h</text>
</g>
<!-- Node1 -->
<g id="node2" class="node">
<title>Node1</title>
<g id="a_node2"><a xlink:href="../../d1/d3a/Base_2include_2DetectorsBase_2Detector_8h.html" target="_top" xlink:title="DetectorsBase/Detector.h">
<polygon fill="none" stroke="#000000" points="2419.5,-302.5 2419.5,-321.5 2560.5,-321.5 2560.5,-302.5 2419.5,-302.5"/>
<text text-anchor="middle" x="2490" y="-309.5" font-family="Helvetica,sans-Serif" font-size="10.00" fill="#000000">DetectorsBase/Detector.h</text>
</a>
</g>
</g>
<!-- Node0&#45;&gt;Node1 -->
<g id="edge1" class="edge">
<title>Node0&#45;&gt;Node1</title>
<path fill="none" stroke="#191970" d="M2022.5897,-371.8715C2132.3228,-357.8155 2307.575,-335.3672 2409.4275,-322.3207"/>
<polygon fill="#191970" stroke="#191970" points="2409.8789,-325.7915 2419.3531,-321.0493 2408.9895,-318.8483 2409.8789,-325.7915"/>
</g>
<!-- Node3 -->
<g id="node4" class="node">
<title>Node3</title>
<polygon fill="none" stroke="#bfbfbf" points="1961.5,-241 1961.5,-260 2008.5,-260 2008.5,-241 1961.5,-241"/>
<text text-anchor="middle" x="1985" y="-248" font-family="Helvetica,sans-Serif" font-size="10.00" fill="#000000">vector</text>
</g>
<!-- Node0&#45;&gt;Node3 -->
<g id="edge57" class="edge">
<title>Node0&#45;&gt;Node3</title>
<path fill="none" stroke="#191970" d="M1935.9062,-358.3453C1947.8061,-332.2047 1965.8123,-292.6499 1976.3912,-269.4112"/>
<polygon fill="#191970" stroke="#191970" points="1979.5981,-270.8141 1980.5558,-260.2626 1973.2271,-267.9139 1979.5981,-270.8141"/>
</g>
<!-- Node9 -->
<g id="node10" class="node">
<title>Node9</title>
<polygon fill="none" stroke="#bfbfbf" points="2008.5,-56.5 2008.5,-75.5 2067.5,-75.5 2067.5,-56.5 2008.5,-56.5"/>
<text text-anchor="middle" x="2038" y="-63.5" font-family="Helvetica,sans-Serif" font-size="10.00" fill="#000000">Rtypes.h</text>
</g>
<!-- Node0&#45;&gt;Node9 -->
<g id="edge56" class="edge">
<title>Node0&#45;&gt;Node9</title>
<path fill="none" stroke="#191970" d="M1825.3116,-382.6049C1440.7809,-374.5821 64,-339.6334 64,-250.5 64,-250.5 64,-250.5 64,-189 64,-146.4214 83.2089,-131.6156 121,-112 164.1676,-89.5937 1726.7848,-69.7534 1998.0596,-66.4742"/>
<polygon fill="#191970" stroke="#191970" points="1998.2768,-69.9719 2008.2339,-66.3517 1998.1924,-62.9724 1998.2768,-69.9719"/>
</g>
<!-- Node10 -->
<g id="node11" class="node">
<title>Node10</title>
<polygon fill="none" stroke="#bfbfbf" points="1943.5,-179.5 1943.5,-198.5 2036.5,-198.5 2036.5,-179.5 1943.5,-179.5"/>
<text text-anchor="middle" x="1990" y="-186.5" font-family="Helvetica,sans-Serif" font-size="10.00" fill="#000000">unordered_map</text>
</g>
<!-- Node0&#45;&gt;Node10 -->
<g id="edge58" class="edge">
<title>Node0&#45;&gt;Node10</title>
<path fill="none" stroke="#191970" d="M1825.2886,-370.2583C1715.9562,-350.5134 1563.113,-308.6541 1628,-235 1628.6271,-234.2882 1831.2355,-208.8568 1933.0264,-196.12"/>
<polygon fill="#191970" stroke="#191970" points="1933.6568,-199.5685 1943.145,-194.8541 1932.7878,-192.6226 1933.6568,-199.5685"/>
</g>
<!-- Node27 -->
<g id="node28" class="node">
<title>Node27</title>
<g id="a_node28"><a xlink:href="../../d8/d16/Detectors_2EMCAL_2base_2include_2EMCALBase_2Hit_8h.html" target="_top" xlink:title="EMCALBase/Hit.h">
<polygon fill="none" stroke="#000000" points="1813,-302.5 1813,-321.5 1913,-321.5 1913,-302.5 1813,-302.5"/>
<text text-anchor="middle" x="1863" y="-309.5" font-family="Helvetica,sans-Serif" font-size="10.00" fill="#000000">EMCALBase/Hit.h</text>
</a>
</g>
</g>
<!-- Node0&#45;&gt;Node27 -->
<g id="edge32" class="edge">
<title>Node0&#45;&gt;Node27</title>
<path fill="none" stroke="#191970" d="M1901.9776,-358.3258C1893.8896,-348.7131 1884.9377,-338.0735 1877.6547,-329.4174"/>
<polygon fill="#191970" stroke="#191970" points="1880.138,-326.9325 1871.0217,-321.534 1874.7817,-331.4392 1880.138,-326.9325"/>
</g>
<!-- Node29 -->
<g id="node30" class="node">
<title>Node29</title>
<g id="a_node30"><a xlink:href="../../dc/d73/Cartesian_8h.html" target="_top" xlink:title="MathUtils/Cartesian.h">
<polygon fill="none" stroke="#000000" points="1170,-179.5 1170,-198.5 1292,-198.5 1292,-179.5 1170,-179.5"/>
<text text-anchor="middle" x="1231" y="-186.5" font-family="Helvetica,sans-Serif" font-size="10.00" fill="#000000">MathUtils/Cartesian.h</text>
</a>
</g>
</g>
<!-- Node0&#45;&gt;Node29 -->
<g id="edge54" class="edge">
<title>Node0&#45;&gt;Node29</title>
<path fill="none" stroke="#191970" d="M1825.3285,-366.6199C1767.4477,-355.3986 1693.1228,-339.7205 1628,-322 1491.9591,-284.982 1334.1664,-227.7097 1265.6769,-202.1249"/>
<polygon fill="#191970" stroke="#191970" points="1266.8254,-198.8177 1256.2331,-198.5862 1264.3692,-205.3726 1266.8254,-198.8177"/>
</g>
<!-- Node43 -->
<g id="node44" class="node">
<title>Node43</title>
<g id="a_node44"><a xlink:href="../../db/dcf/EMCAL_2base_2include_2EMCALBase_2GeometryBase_8h.html" target="_top" xlink:title="EMCALBase/GeometryBase.h">
<polygon fill="none" stroke="#000000" points="2579,-302.5 2579,-321.5 2737,-321.5 2737,-302.5 2579,-302.5"/>
<text text-anchor="middle" x="2658" y="-309.5" font-family="Helvetica,sans-Serif" font-size="10.00" fill="#000000">EMCALBase/GeometryBase.h</text>
</a>
</g>
</g>
<!-- Node0&#45;&gt;Node43 -->
<g id="edge52" class="edge">
<title>Node0&#45;&gt;Node43</title>
<path fill="none" stroke="#191970" d="M2022.5508,-375.481C2147.1741,-363.9595 2368.6343,-343.0983 2568.7373,-322.1197"/>
<polygon fill="#191970" stroke="#191970" points="2569.2731,-325.5827 2578.8528,-321.0571 2568.5418,-318.621 2569.2731,-325.5827"/>
</g>
<!-- Node44 -->
<g id="node45" class="node">
<title>Node44</title>
<polygon fill="none" stroke="#bfbfbf" points="2755,-302.5 2755,-321.5 2839,-321.5 2839,-302.5 2755,-302.5"/>
<text text-anchor="middle" x="2797" y="-309.5" font-family="Helvetica,sans-Serif" font-size="10.00" fill="#000000">RStringView.h</text>
</g>
<!-- Node0&#45;&gt;Node44 -->
<g id="edge55" class="edge">
<title>Node0&#45;&gt;Node44</title>
<path fill="none" stroke="#191970" d="M2022.7719,-380.7494C2175.5542,-374.1135 2478.4721,-357.6364 2744.5188,-322.0612"/>
<polygon fill="#191970" stroke="#191970" points="2745.3207,-325.4848 2754.763,-320.6794 2744.3849,-318.5476 2745.3207,-325.4848"/>
</g>
<!-- Node2 -->
<g id="node3" class="node">
<title>Node2</title>
<polygon fill="none" stroke="#bfbfbf" points="2452,-179.5 2452,-198.5 2490,-198.5 2490,-179.5 2452,-179.5"/>
<text text-anchor="middle" x="2471" y="-186.5" font-family="Helvetica,sans-Serif" font-size="10.00" fill="#000000">map</text>
</g>
<!-- Node1&#45;&gt;Node2 -->
<g id="edge2" class="edge">
<title>Node1&#45;&gt;Node2</title>
<path fill="none" stroke="#191970" d="M2488.5091,-302.3484C2485.4013,-282.2295 2478.1769,-235.4608 2474.0446,-208.7098"/>
<polygon fill="#191970" stroke="#191970" points="2477.4696,-207.9552 2472.484,-198.6068 2470.5517,-209.0239 2477.4696,-207.9552"/>
</g>
<!-- Node1&#45;&gt;Node3 -->
<g id="edge3" class="edge">
<title>Node1&#45;&gt;Node3</title>
<path fill="none" stroke="#191970" d="M2419.4925,-307.5578C2308.0287,-300.1131 2096.2482,-284.1378 2023,-266 2020.3676,-265.3482 2017.6779,-264.5475 2015.0062,-263.6567"/>
<polygon fill="#191970" stroke="#191970" points="2016.1364,-260.3429 2005.5435,-260.1405 2013.6982,-266.9045 2016.1364,-260.3429"/>
</g>
<!-- Node4 -->
<g id="node5" class="node">
<title>Node4</title>
<polygon fill="none" stroke="#bfbfbf" points="2508.5,-179.5 2508.5,-198.5 2591.5,-198.5 2591.5,-179.5 2508.5,-179.5"/>
<text text-anchor="middle" x="2550" y="-186.5" font-family="Helvetica,sans-Serif" font-size="10.00" fill="#000000">initializer_list</text>
</g>
<!-- Node1&#45;&gt;Node4 -->
<g id="edge4" class="edge">
<title>Node1&#45;&gt;Node4</title>
<path fill="none" stroke="#191970" d="M2494.7081,-302.3484C2504.6536,-281.9601 2527.9496,-234.2033 2540.9044,-207.6459"/>
<polygon fill="#191970" stroke="#191970" points="2544.0752,-209.129 2545.3138,-198.6068 2537.7838,-206.06 2544.0752,-209.129"/>
</g>
<!-- Node5 -->
<g id="node6" class="node">
<title>Node5</title>
<polygon fill="none" stroke="#bfbfbf" points="2537,-241 2537,-260 2595,-260 2595,-241 2537,-241"/>
<text text-anchor="middle" x="2566" y="-248" font-family="Helvetica,sans-Serif" font-size="10.00" fill="#000000">memory</text>
</g>
<!-- Node1&#45;&gt;Node5 -->
<g id="edge5" class="edge">
<title>Node1&#45;&gt;Node5</title>
<path fill="none" stroke="#191970" d="M2501.875,-302.3906C2513.6297,-292.8786 2531.8486,-278.1357 2545.8672,-266.7917"/>
<polygon fill="#191970" stroke="#191970" points="2548.3856,-269.2562 2553.9576,-260.2449 2543.9822,-263.8146 2548.3856,-269.2562"/>
</g>
<!-- Node6 -->
<g id="node7" class="node">
<title>Node6</title>
<polygon fill="none" stroke="#bfbfbf" points="2651,-241 2651,-260 2735,-260 2735,-241 2651,-241"/>
<text text-anchor="middle" x="2693" y="-248" font-family="Helvetica,sans-Serif" font-size="10.00" fill="#000000">FairDetector.h</text>
</g>
<!-- Node1&#45;&gt;Node6 -->
<g id="edge6" class="edge">
<title>Node1&#45;&gt;Node6</title>
<path fill="none" stroke="#191970" d="M2521.7188,-302.3906C2556.7272,-291.7846 2613.2019,-274.6753 2651.6551,-263.0257"/>
<polygon fill="#191970" stroke="#191970" points="2652.9484,-266.291 2661.504,-260.0419 2650.9187,-259.5917 2652.9484,-266.291"/>
</g>
<!-- Node7 -->
<g id="node8" class="node">
<title>Node7</title>
<polygon fill="none" stroke="#bfbfbf" points="2753,-241 2753,-260 2859,-260 2859,-241 2753,-241"/>
<text text-anchor="middle" x="2806" y="-248" font-family="Helvetica,sans-Serif" font-size="10.00" fill="#000000">FairRootManager.h</text>
</g>
<!-- Node1&#45;&gt;Node7 -->
<g id="edge7" class="edge">
<title>Node1&#45;&gt;Node7</title>
<path fill="none" stroke="#191970" d="M2548.7289,-302.4918C2600.349,-293.8662 2677.4079,-280.3377 2744,-266 2749.0233,-264.9184 2754.2583,-263.7209 2759.4638,-262.4848"/>
<polygon fill="#191970" stroke="#191970" points="2760.4819,-265.8394 2769.3749,-260.0804 2758.8316,-259.0367 2760.4819,-265.8394"/>
</g>
<!-- Node8 -->
<g id="node9" class="node">
<title>Node8</title>
<g id="a_node9"><a xlink:href="../../d0/d9a/MaterialManager_8h.html" target="_top" xlink:title="DetectorsBase/MaterialManager.h">
<polygon fill="none" stroke="#000000" points="2261.5,-241 2261.5,-260 2442.5,-260 2442.5,-241 2261.5,-241"/>
<text text-anchor="middle" x="2352" y="-248" font-family="Helvetica,sans-Serif" font-size="10.00" fill="#000000">DetectorsBase/MaterialManager.h</text>
</a>
</g>
</g>
<!-- Node1&#45;&gt;Node8 -->
<g id="edge8" class="edge">
<title>Node1&#45;&gt;Node8</title>
<path fill="none" stroke="#191970" d="M2468.4375,-302.3906C2445.4488,-292.1457 2408.844,-275.8326 2382.8176,-264.2339"/>
<polygon fill="#191970" stroke="#191970" points="2383.9698,-260.9156 2373.4111,-260.0419 2381.1204,-267.3095 2383.9698,-260.9156"/>
</g>
<!-- Node1&#45;&gt;Node9 -->
<g id="edge14" class="edge">
<title>Node1&#45;&gt;Node9</title>
<path fill="none" stroke="#191970" d="M2548.5167,-302.4429C2569.6253,-295.8619 2591.3454,-284.7523 2604,-266 2611.1,-255.4789 2609.1071,-191.4056 2601,-179 2564.7921,-123.594 2531.4879,-130.7115 2468,-112 2395.2759,-90.5663 2169.6632,-74.3211 2077.6634,-68.4182"/>
<polygon fill="#191970" stroke="#191970" points="2077.8398,-64.9225 2067.6382,-67.7821 2077.3965,-71.9084 2077.8398,-64.9225"/>
</g>
<!-- Node12 -->
<g id="node13" class="node">
<title>Node12</title>
<polygon fill="none" stroke="#bfbfbf" points="2877,-241 2877,-260 2935,-260 2935,-241 2877,-241"/>
<text text-anchor="middle" x="2906" y="-248" font-family="Helvetica,sans-Serif" font-size="10.00" fill="#000000">cxxabi.h</text>
</g>
<!-- Node1&#45;&gt;Node12 -->
<g id="edge15" class="edge">
<title>Node1&#45;&gt;Node12</title>
<path fill="none" stroke="#191970" d="M2560.6683,-303.1504C2563.8218,-302.7606 2566.9437,-302.3756 2570,-302 2702.4111,-285.7264 2738.8649,-299.4911 2868,-266 2870.6251,-265.3192 2873.3096,-264.4982 2875.9778,-263.5937"/>
<polygon fill="#191970" stroke="#191970" points="2877.2961,-266.8375 2885.4345,-260.054 2874.8422,-260.2817 2877.2961,-266.8375"/>
</g>
<!-- Node13 -->
<g id="node14" class="node">
<title>Node13</title>
<polygon fill="none" stroke="#bfbfbf" points="2953.5,-241 2953.5,-260 3010.5,-260 3010.5,-241 2953.5,-241"/>
<text text-anchor="middle" x="2982" y="-248" font-family="Helvetica,sans-Serif" font-size="10.00" fill="#000000">typeinfo</text>
</g>
<!-- Node1&#45;&gt;Node13 -->
<g id="edge16" class="edge">
<title>Node1&#45;&gt;Node13</title>
<path fill="none" stroke="#191970" d="M2560.6574,-303.0574C2563.8139,-302.6927 2566.9393,-302.3385 2570,-302 2735.9783,-283.6418 2781.8606,-305.958 2944,-266 2946.6331,-265.3511 2949.3233,-264.5525 2951.9954,-263.6631"/>
<polygon fill="#191970" stroke="#191970" points="2953.3023,-266.9113 2961.4586,-260.1493 2950.8657,-260.3491 2953.3023,-266.9113"/>
</g>
<!-- Node14 -->
<g id="node15" class="node">
<title>Node14</title>
<polygon fill="none" stroke="#bfbfbf" points="3028.5,-241 3028.5,-260 3097.5,-260 3097.5,-241 3028.5,-241"/>
<text text-anchor="middle" x="3063" y="-248" font-family="Helvetica,sans-Serif" font-size="10.00" fill="#000000">type_traits</text>
</g>
<!-- Node1&#45;&gt;Node14 -->
<g id="edge17" class="edge">
<title>Node1&#45;&gt;Node14</title>
<path fill="none" stroke="#191970" d="M2560.6508,-302.9955C2563.8091,-302.6476 2566.9367,-302.3138 2570,-302 2769.5943,-281.5518 2823.8909,-308.3938 3020,-266 3023.4394,-265.2565 3026.9775,-264.3055 3030.4769,-263.2412"/>
<polygon fill="#191970" stroke="#191970" points="3031.746,-266.5074 3040.1223,-260.0199 3029.5285,-259.8679 3031.746,-266.5074"/>
</g>
<!-- Node15 -->
<g id="node16" class="node">
<title>Node15</title>
<polygon fill="none" stroke="#bfbfbf" points="3208,-241 3208,-260 3252,-260 3252,-241 3208,-241"/>
<text text-anchor="middle" x="3230" y="-248" font-family="Helvetica,sans-Serif" font-size="10.00" fill="#000000">string</text>
</g>
<!-- Node1&#45;&gt;Node15 -->
<g id="edge18" class="edge">
<title>Node1&#45;&gt;Node15</title>
<path fill="none" stroke="#191970" d="M2560.6424,-302.9085C2563.8029,-302.5841 2566.9333,-302.2791 2570,-302 2709.4302,-289.31 3063.7138,-302.0484 3199,-266 3200.9187,-265.4887 3202.8579,-264.8517 3204.7804,-264.1299"/>
<polygon fill="#191970" stroke="#191970" points="3206.3603,-267.258 3214.0815,-260.0031 3203.5213,-260.8595 3206.3603,-267.258"/>
</g>
<!-- Node16 -->
<g id="node17" class="node">
<title>Node16</title>
<polygon fill="none" stroke="#bfbfbf" points="3116,-241 3116,-260 3190,-260 3190,-241 3116,-241"/>
<text text-anchor="middle" x="3153" y="-248" font-family="Helvetica,sans-Serif" font-size="10.00" fill="#000000">TMessage.h</text>
</g>
<!-- Node1&#45;&gt;Node16 -->
<g id="edge19" class="edge">
<title>Node1&#45;&gt;Node16</title>
<path fill="none" stroke="#191970" d="M2560.6459,-302.946C2563.8055,-302.6115 2566.9347,-302.2941 2570,-302 2808.1091,-279.1559 2872.3763,-312.5778 3107,-266 3110.8876,-265.2282 3114.8993,-264.2169 3118.8584,-263.08"/>
<polygon fill="#191970" stroke="#191970" points="3119.9952,-266.3917 3128.4904,-260.0606 3117.9013,-259.7122 3119.9952,-266.3917"/>
</g>
<!-- Node17 -->
<g id="node18" class="node">
<title>Node17</title>
<g id="a_node18"><a xlink:href="../../de/d61/ShmManager_8h.html" target="_top" xlink:title="CommonUtils/ShmManager.h">
<polygon fill="none" stroke="#000000" points="2154,-179.5 2154,-198.5 2312,-198.5 2312,-179.5 2154,-179.5"/>
<text text-anchor="middle" x="2233" y="-186.5" font-family="Helvetica,sans-Serif" font-size="10.00" fill="#000000">CommonUtils/ShmManager.h</text>
</a>
</g>
</g>
<!-- Node1&#45;&gt;Node17 -->
<g id="edge20" class="edge">
<title>Node1&#45;&gt;Node17</title>
<path fill="none" stroke="#191970" d="M2419.4304,-306.69C2358.1703,-300.6302 2275.6811,-288.5032 2252,-266 2236.6071,-251.3727 2232.8648,-226.4251 2232.3224,-208.8998"/>
<polygon fill="#191970" stroke="#191970" points="2235.8226,-208.6432 2232.3376,-198.638 2228.8226,-208.6328 2235.8226,-208.6432"/>
</g>
<!-- Node23 -->
<g id="node24" class="node">
<title>Node23</title>
<g id="a_node24"><a xlink:href="../../d0/d91/ShmAllocator_8h.html" target="_top" xlink:title="CommonUtils/ShmAllocator.h">
<polygon fill="none" stroke="#000000" points="1783,-241 1783,-260 1943,-260 1943,-241 1783,-241"/>
<text text-anchor="middle" x="1863" y="-248" font-family="Helvetica,sans-Serif" font-size="10.00" fill="#000000">CommonUtils/ShmAllocator.h</text>
</a>
</g>
</g>
<!-- Node1&#45;&gt;Node23 -->
<g id="edge26" class="edge">
<title>Node1&#45;&gt;Node23</title>
<path fill="none" stroke="#191970" d="M2419.2903,-307.9247C2316.237,-301.5389 2118.8746,-287.6235 1952,-266 1942.6494,-264.7884 1932.7824,-263.291 1923.1573,-261.709"/>
<polygon fill="#191970" stroke="#191970" points="1923.6889,-258.2493 1913.2461,-260.0381 1922.5251,-265.1519 1923.6889,-258.2493"/>
</g>
<!-- Node24 -->
<g id="node25" class="node">
<title>Node24</title>
<polygon fill="none" stroke="#bfbfbf" points="1849,-179.5 1849,-198.5 1901,-198.5 1901,-179.5 1849,-179.5"/>
<text text-anchor="middle" x="1875" y="-186.5" font-family="Helvetica,sans-Serif" font-size="10.00" fill="#000000">cassert</text>
</g>
<!-- Node1&#45;&gt;Node24 -->
<g id="edge31" class="edge">
<title>Node1&#45;&gt;Node24</title>
<path fill="none" stroke="#191970" d="M2419.4738,-309.3C2313.8354,-304.4538 2120.0721,-292.2324 2056,-266 2035.5088,-257.6105 2036.5112,-245.4683 2017,-235 1983.0919,-216.8073 1940.7437,-204.243 1911.1554,-196.8985"/>
<polygon fill="#191970" stroke="#191970" points="1911.7978,-193.4533 1901.2565,-194.5177 1910.1608,-200.2592 1911.7978,-193.4533"/>
</g>
<!-- Node25 -->
<g id="node26" class="node">
<title>Node25</title>
<polygon fill="none" stroke="#bfbfbf" points="2065,-241 2065,-260 2131,-260 2131,-241 2065,-241"/>
<text text-anchor="middle" x="2098" y="-248" font-family="Helvetica,sans-Serif" font-size="10.00" fill="#000000">sys/shm.h</text>
</g>
<!-- Node1&#45;&gt;Node25 -->
<g id="edge29" class="edge">
<title>Node1&#45;&gt;Node25</title>
<path fill="none" stroke="#191970" d="M2419.4196,-307.3635C2348.1175,-301.601 2235.1983,-289.5097 2140,-266 2137.0029,-265.2599 2133.9249,-264.3763 2130.8631,-263.4116"/>
<polygon fill="#191970" stroke="#191970" points="2131.8522,-260.0509 2121.2576,-260.1302 2129.5892,-266.6751 2131.8522,-260.0509"/>
</g>
<!-- Node26 -->
<g id="node27" class="node">
<title>Node26</title>
<polygon fill="none" stroke="#bfbfbf" points="2149,-241 2149,-260 2205,-260 2205,-241 2149,-241"/>
<text text-anchor="middle" x="2177" y="-248" font-family="Helvetica,sans-Serif" font-size="10.00" fill="#000000">unistd.h</text>
</g>
<!-- Node1&#45;&gt;Node26 -->
<g id="edge30" class="edge">
<title>Node1&#45;&gt;Node26</title>
<path fill="none" stroke="#191970" d="M2419.3276,-303.6582C2364.1867,-296.2754 2285.9709,-283.876 2219,-266 2216.184,-265.2483 2213.2917,-264.3843 2210.406,-263.4569"/>
<polygon fill="#191970" stroke="#191970" points="2211.3349,-260.0752 2200.7402,-260.1312 2209.0574,-266.6944 2211.3349,-260.0752"/>
</g>
<!-- Node8&#45;&gt;Node2 -->
<g id="edge10" class="edge">
<title>Node8&#45;&gt;Node2</title>
<path fill="none" stroke="#191970" d="M2370.5938,-240.8906C2390.1553,-230.7811 2421.1501,-214.7628 2443.5309,-203.1962"/>
<polygon fill="#191970" stroke="#191970" points="2445.26,-206.2425 2452.5368,-198.5419 2442.0461,-200.0238 2445.26,-206.2425"/>
</g>
<!-- Node8&#45;&gt;Node4 -->
<g id="edge12" class="edge">
<title>Node8&#45;&gt;Node4</title>
<path fill="none" stroke="#191970" d="M2382.9375,-240.8906C2417.0837,-230.2846 2472.1674,-213.1753 2509.6735,-201.5257"/>
<polygon fill="#191970" stroke="#191970" points="2510.768,-204.8507 2519.2797,-198.5419 2508.6916,-198.1658 2510.768,-204.8507"/>
</g>
<!-- Node8&#45;&gt;Node9 -->
<g id="edge9" class="edge">
<title>Node8&#45;&gt;Node9</title>
<path fill="none" stroke="#191970" d="M2366.0766,-240.949C2389.239,-224.273 2434.5576,-187.3596 2452,-143 2457.0417,-130.1778 2461.1887,-122.2662 2452,-112 2427.2786,-84.3797 2176.6021,-71.4954 2077.7606,-67.4597"/>
<polygon fill="#191970" stroke="#191970" points="2077.7107,-63.955 2067.5791,-67.0535 2077.4316,-70.9494 2077.7107,-63.955"/>
</g>
<!-- Node8&#45;&gt;Node10 -->
<g id="edge11" class="edge">
<title>Node8&#45;&gt;Node10</title>
<path fill="none" stroke="#191970" d="M2295.8347,-240.9581C2228.0214,-229.4373 2114.6262,-210.1727 2046.613,-198.618"/>
<polygon fill="#191970" stroke="#191970" points="2046.9548,-195.1259 2036.5098,-196.9015 2045.7823,-202.0271 2046.9548,-195.1259"/>
</g>
<!-- Node11 -->
<g id="node12" class="node">
<title>Node11</title>
<polygon fill="none" stroke="#bfbfbf" points="1868.5,-118 1868.5,-137 1917.5,-137 1917.5,-118 1868.5,-118"/>
<text text-anchor="middle" x="1893" y="-125" font-family="Helvetica,sans-Serif" font-size="10.00" fill="#000000">iosfwd</text>
</g>
<!-- Node8&#45;&gt;Node11 -->
<g id="edge13" class="edge">
<title>Node8&#45;&gt;Node11</title>
<path fill="none" stroke="#191970" d="M2309.7217,-240.9394C2216.8687,-219.7625 1997.6995,-168.7448 1926,-143 1924.4027,-142.4265 1922.778,-141.803 1921.1491,-141.1465"/>
<polygon fill="#191970" stroke="#191970" points="1922.503,-137.9186 1911.9368,-137.1401 1919.7113,-144.3379 1922.503,-137.9186"/>
</g>
<!-- Node18 -->
<g id="node19" class="node">
<title>Node18</title>
<polygon fill="none" stroke="#bfbfbf" points="2271,-118 2271,-137 2303,-137 2303,-118 2271,-118"/>
<text text-anchor="middle" x="2287" y="-125" font-family="Helvetica,sans-Serif" font-size="10.00" fill="#000000">list</text>
</g>
<!-- Node17&#45;&gt;Node18 -->
<g id="edge21" class="edge">
<title>Node17&#45;&gt;Node18</title>
<path fill="none" stroke="#191970" d="M2241.4375,-179.3906C2249.5531,-170.1478 2262.0055,-155.966 2271.8424,-144.7628"/>
<polygon fill="#191970" stroke="#191970" points="2274.4755,-147.0686 2278.4435,-137.2449 2269.2154,-142.45 2274.4755,-147.0686"/>
</g>
<!-- Node19 -->
<g id="node20" class="node">
<title>Node19</title>
<polygon fill="none" stroke="#bfbfbf" points="2321.5,-118 2321.5,-137 2374.5,-137 2374.5,-118 2321.5,-118"/>
<text text-anchor="middle" x="2348" y="-125" font-family="Helvetica,sans-Serif" font-size="10.00" fill="#000000">cstddef</text>
</g>
<!-- Node17&#45;&gt;Node19 -->
<g id="edge22" class="edge">
<title>Node17&#45;&gt;Node19</title>
<path fill="none" stroke="#191970" d="M2250.9688,-179.3906C2269.7884,-169.3262 2299.5585,-153.4057 2321.1641,-141.8514"/>
<polygon fill="#191970" stroke="#191970" points="2322.9898,-144.8442 2330.1574,-137.0419 2319.6886,-138.6714 2322.9898,-144.8442"/>
</g>
<!-- Node20 -->
<g id="node21" class="node">
<title>Node20</title>
<polygon fill="none" stroke="#bfbfbf" points="2393,-118 2393,-137 2443,-137 2443,-118 2393,-118"/>
<text text-anchor="middle" x="2418" y="-125" font-family="Helvetica,sans-Serif" font-size="10.00" fill="#000000">atomic</text>
</g>
<!-- Node17&#45;&gt;Node20 -->
<g id="edge23" class="edge">
<title>Node17&#45;&gt;Node20</title>
<path fill="none" stroke="#191970" d="M2268.2513,-179.4763C2298.903,-170.8911 2344.3386,-157.4301 2383,-143 2384.6266,-142.3929 2386.2856,-141.7483 2387.9536,-141.0801"/>
<polygon fill="#191970" stroke="#191970" points="2389.5775,-144.1943 2397.4406,-137.0934 2386.8655,-137.741 2389.5775,-144.1943"/>
</g>
<!-- Node21 -->
<g id="node22" class="node">
<title>Node21</title>
<polygon fill="none" stroke="#bfbfbf" points="1935.5,-112.5 1935.5,-142.5 2100.5,-142.5 2100.5,-112.5 1935.5,-112.5"/>
<text text-anchor="start" x="1943.5" y="-130.5" font-family="Helvetica,sans-Serif" font-size="10.00" fill="#000000">boost/interprocess</text>
<text text-anchor="middle" x="2018" y="-119.5" font-family="Helvetica,sans-Serif" font-size="10.00" fill="#000000">/managed_external_buffer.hpp</text>
</g>
<!-- Node17&#45;&gt;Node21 -->
<g id="edge24" class="edge">
<title>Node17&#45;&gt;Node21</title>
<path fill="none" stroke="#191970" d="M2199.4063,-179.3906C2167.6144,-170.2967 2119.1077,-156.4215 2080.2501,-145.3064"/>
<polygon fill="#191970" stroke="#191970" points="2081.1719,-141.9298 2070.5949,-142.5446 2079.2467,-148.6599 2081.1719,-141.9298"/>
</g>
<!-- Node22 -->
<g id="node23" class="node">
<title>Node22</title>
<polygon fill="none" stroke="#bfbfbf" points="2119,-112.5 2119,-142.5 2253,-142.5 2253,-112.5 2119,-112.5"/>
<text text-anchor="start" x="2127" y="-130.5" font-family="Helvetica,sans-Serif" font-size="10.00" fill="#000000">boost/interprocess</text>
<text text-anchor="middle" x="2186" y="-119.5" font-family="Helvetica,sans-Serif" font-size="10.00" fill="#000000">/allocators/allocator.hpp</text>
</g>
<!-- Node17&#45;&gt;Node22 -->
<g id="edge25" class="edge">
<title>Node17&#45;&gt;Node22</title>
<path fill="none" stroke="#191970" d="M2225.6563,-179.3906C2219.7665,-171.6839 2211.2527,-160.5434 2203.6222,-150.5589"/>
<polygon fill="#191970" stroke="#191970" points="2206.3505,-148.3648 2197.4975,-142.5446 2200.7887,-152.6153 2206.3505,-148.3648"/>
</g>
<!-- Node23&#45;&gt;Node17 -->
<g id="edge27" class="edge">
<title>Node23&#45;&gt;Node17</title>
<path fill="none" stroke="#191970" d="M1917.1098,-240.9858C1928.6228,-238.9869 1940.7106,-236.9071 1952,-235 2024.1927,-222.8049 2106.9066,-209.3237 2163.8039,-200.1265"/>
<polygon fill="#191970" stroke="#191970" points="2164.4515,-203.5674 2173.7654,-198.5174 2163.3352,-196.657 2164.4515,-203.5674"/>
</g>
<!-- Node23&#45;&gt;Node24 -->
<g id="edge28" class="edge">
<title>Node23&#45;&gt;Node24</title>
<path fill="none" stroke="#191970" d="M1864.875,-240.8906C1866.5559,-232.276 1869.074,-219.3708 1871.1784,-208.5858"/>
<polygon fill="#191970" stroke="#191970" points="1874.6186,-209.2301 1873.0986,-198.7449 1867.7482,-207.8895 1874.6186,-209.2301"/>
</g>
<!-- Node27&#45;&gt;Node23 -->
<g id="edge51" class="edge">
<title>Node27&#45;&gt;Node23</title>
<path fill="none" stroke="#191970" d="M1863,-302.3906C1863,-293.8657 1863,-281.1392 1863,-270.4235"/>
<polygon fill="#191970" stroke="#191970" points="1866.5001,-270.2448 1863,-260.2449 1859.5001,-270.2449 1866.5001,-270.2448"/>
</g>
<!-- Node28 -->
<g id="node29" class="node">
<title>Node28</title>
<g id="a_node29"><a xlink:href="../../d4/d25/BaseHits_8h.html" target="_top" xlink:title="SimulationDataFormat\l/BaseHits.h">
<polygon fill="none" stroke="#000000" points="1637.5,-235.5 1637.5,-265.5 1764.5,-265.5 1764.5,-235.5 1637.5,-235.5"/>
<text text-anchor="start" x="1645.5" y="-253.5" font-family="Helvetica,sans-Serif" font-size="10.00" fill="#000000">SimulationDataFormat</text>
<text text-anchor="middle" x="1701" y="-242.5" font-family="Helvetica,sans-Serif" font-size="10.00" fill="#000000">/BaseHits.h</text>
</a>
</g>
</g>
<!-- Node27&#45;&gt;Node28 -->
<g id="edge33" class="edge">
<title>Node27&#45;&gt;Node28</title>
<path fill="none" stroke="#191970" d="M1837.6875,-302.3906C1814.3417,-293.5279 1779.0338,-280.1239 1750.1516,-269.1594"/>
<polygon fill="#191970" stroke="#191970" points="1751.2209,-265.8217 1740.6297,-265.5446 1748.7364,-272.366 1751.2209,-265.8217"/>
</g>
<!-- Node28&#45;&gt;Node29 -->
<g id="edge34" class="edge">
<title>Node28&#45;&gt;Node29</title>
<path fill="none" stroke="#191970" d="M1637.1246,-242.1418C1549.6702,-230.6983 1393.1568,-210.2184 1302.083,-198.3013"/>
<polygon fill="#191970" stroke="#191970" points="1302.4933,-194.8252 1292.1237,-196.9981 1301.585,-201.7661 1302.4933,-194.8252"/>
</g>
<!-- Node29&#45;&gt;Node11 -->
<g id="edge48" class="edge">
<title>Node29&#45;&gt;Node11</title>
<path fill="none" stroke="#191970" d="M1292.0351,-187.2728C1428.1489,-182.9767 1752.8916,-170.1421 1859,-143 1861.1958,-142.4383 1863.4255,-141.7413 1865.6389,-140.9562"/>
<polygon fill="#191970" stroke="#191970" points="1867.1495,-144.12 1875.0836,-137.0985 1864.5026,-137.6398 1867.1495,-144.12"/>
</g>
<!-- Node30 -->
<g id="node31" class="node">
<title>Node30</title>
<g id="a_node31"><a xlink:href="../../df/d21/GPUCommonDef_8h.html" target="_top" xlink:title="GPUCommonDef.h">
<polygon fill="none" stroke="#000000" points="97.5,-56.5 97.5,-75.5 204.5,-75.5 204.5,-56.5 97.5,-56.5"/>
<text text-anchor="middle" x="151" y="-63.5" font-family="Helvetica,sans-Serif" font-size="10.00" fill="#000000">GPUCommonDef.h</text>
</a>
</g>
</g>
<!-- Node29&#45;&gt;Node30 -->
<g id="edge35" class="edge">
<title>Node29&#45;&gt;Node30</title>
<path fill="none" stroke="#191970" d="M1169.6539,-188.7789C942.0997,-187.6622 157.5118,-181.0563 121,-143 105.0382,-126.363 120.9383,-100.2706 134.9879,-83.15"/>
<polygon fill="#191970" stroke="#191970" points="137.6758,-85.3927 141.5886,-75.5468 132.3899,-80.8037 137.6758,-85.3927"/>
</g>
<!-- Node33 -->
<g id="node34" class="node">
<title>Node33</title>
<g id="a_node34"><a xlink:href="../../d2/d45/GPUCommonRtypes_8h.html" target="_top" xlink:title="GPUCommonRtypes.h">
<polygon fill="none" stroke="#000000" points="1542.5,-118 1542.5,-137 1667.5,-137 1667.5,-118 1542.5,-118"/>
<text text-anchor="middle" x="1605" y="-125" font-family="Helvetica,sans-Serif" font-size="10.00" fill="#000000">GPUCommonRtypes.h</text>
</a>
</g>
</g>
<!-- Node29&#45;&gt;Node33 -->
<g id="edge38" class="edge">
<title>Node29&#45;&gt;Node33</title>
<path fill="none" stroke="#191970" d="M1292.206,-180.7915C1353.3455,-172.3301 1449.9301,-158.2534 1533,-143 1539.3549,-141.8331 1546.0062,-140.523 1552.5895,-139.1716"/>
<polygon fill="#191970" stroke="#191970" points="1553.7554,-142.5035 1562.8261,-137.0287 1552.3211,-135.652 1553.7554,-142.5035"/>
</g>
<!-- Node34 -->
<g id="node35" class="node">
<title>Node34</title>
<polygon fill="none" stroke="#bfbfbf" points="1686,-112.5 1686,-142.5 1850,-142.5 1850,-112.5 1686,-112.5"/>
<text text-anchor="start" x="1694" y="-130.5" font-family="Helvetica,sans-Serif" font-size="10.00" fill="#000000">Math/GenVector/Displacement</text>
<text text-anchor="middle" x="1768" y="-119.5" font-family="Helvetica,sans-Serif" font-size="10.00" fill="#000000">Vector3D.h</text>
</g>
<!-- Node29&#45;&gt;Node34 -->
<g id="edge40" class="edge">
<title>Node29&#45;&gt;Node34</title>
<path fill="none" stroke="#191970" d="M1292.3315,-183.9091C1376.2736,-176.6641 1531.8813,-162.2453 1675.4649,-143.0127"/>
<polygon fill="#191970" stroke="#191970" points="1676.3393,-146.4265 1685.7809,-141.6197 1675.4025,-139.4895 1676.3393,-146.4265"/>
</g>
<!-- Node35 -->
<g id="node36" class="node">
<title>Node35</title>
<polygon fill="none" stroke="#bfbfbf" points="288.5,-118 288.5,-137 477.5,-137 477.5,-118 288.5,-118"/>
<text text-anchor="middle" x="383" y="-125" font-family="Helvetica,sans-Serif" font-size="10.00" fill="#000000">Math/GenVector/PositionVector3D.h</text>
</g>
<!-- Node29&#45;&gt;Node35 -->
<g id="edge41" class="edge">
<title>Node29&#45;&gt;Node35</title>
<path fill="none" stroke="#191970" d="M1169.6087,-186.9961C1042.1354,-182.4407 739.5789,-169.5802 487,-143 475.2987,-141.7686 462.8971,-140.1748 450.8896,-138.479"/>
<polygon fill="#191970" stroke="#191970" points="451.3182,-135.0047 440.92,-137.0363 450.3156,-141.9325 451.3182,-135.0047"/>
</g>
<!-- Node36 -->
<g id="node37" class="node">
<title>Node36</title>
<polygon fill="none" stroke="#bfbfbf" points="496,-118 496,-137 656,-137 656,-118 496,-118"/>
<text text-anchor="middle" x="576" y="-125" font-family="Helvetica,sans-Serif" font-size="10.00" fill="#000000">Math/GenVector/Rotation3D.h</text>
</g>
<!-- Node29&#45;&gt;Node36 -->
<g id="edge42" class="edge">
<title>Node29&#45;&gt;Node36</title>
<path fill="none" stroke="#191970" d="M1169.6677,-185.8557C1065.5927,-180.1088 847.8801,-166.307 665,-143 655.6469,-141.808 645.7786,-140.3211 636.1528,-138.7435"/>
<polygon fill="#191970" stroke="#191970" points="636.6836,-135.2837 626.2414,-137.0752 635.5217,-142.1866 636.6836,-135.2837"/>
</g>
<!-- Node37 -->
<g id="node38" class="node">
<title>Node37</title>
<polygon fill="none" stroke="#bfbfbf" points="674,-118 674,-137 842,-137 842,-118 674,-118"/>
<text text-anchor="middle" x="758" y="-125" font-family="Helvetica,sans-Serif" font-size="10.00" fill="#000000">Math/GenVector/Transform3D.h</text>
</g>
<!-- Node29&#45;&gt;Node37 -->
<g id="edge43" class="edge">
<title>Node29&#45;&gt;Node37</title>
<path fill="none" stroke="#191970" d="M1169.6811,-182.4304C1094.4721,-174.176 963.1504,-159.1257 851,-143 841.7409,-141.6687 831.9811,-140.1593 822.4056,-138.6177"/>
<polygon fill="#191970" stroke="#191970" points="822.9554,-135.1612 812.5223,-137.0057 821.8285,-142.0699 822.9554,-135.1612"/>
</g>
<!-- Node38 -->
<g id="node39" class="node">
<title>Node38</title>
<polygon fill="none" stroke="#bfbfbf" points="860.5,-118 860.5,-137 1033.5,-137 1033.5,-118 860.5,-118"/>
<text text-anchor="middle" x="947" y="-125" font-family="Helvetica,sans-Serif" font-size="10.00" fill="#000000">Math/GenVector/Translation3D.h</text>
</g>
<!-- Node29&#45;&gt;Node38 -->
<g id="edge44" class="edge">
<title>Node29&#45;&gt;Node38</title>
<path fill="none" stroke="#191970" d="M1186.9366,-179.4581C1136.8787,-168.6181 1055.1618,-150.9224 1001.2318,-139.2439"/>
<polygon fill="#191970" stroke="#191970" points="1001.681,-135.7601 991.1668,-137.0643 1000.1995,-142.6015 1001.681,-135.7601"/>
</g>
<!-- Node39 -->
<g id="node40" class="node">
<title>Node39</title>
<polygon fill="none" stroke="#bfbfbf" points="1052,-112.5 1052,-142.5 1216,-142.5 1216,-112.5 1052,-112.5"/>
<text text-anchor="start" x="1060" y="-130.5" font-family="Helvetica,sans-Serif" font-size="10.00" fill="#000000">Math/GenVector/Displacement</text>
<text text-anchor="middle" x="1134" y="-119.5" font-family="Helvetica,sans-Serif" font-size="10.00" fill="#000000">Vector2D.h</text>
</g>
<!-- Node29&#45;&gt;Node39 -->
<g id="edge45" class="edge">
<title>Node29&#45;&gt;Node39</title>
<path fill="none" stroke="#191970" d="M1215.8438,-179.3906C1202.716,-171.0673 1183.2711,-158.7389 1166.6285,-148.1872"/>
<polygon fill="#191970" stroke="#191970" points="1168.0486,-144.9433 1157.7289,-142.5446 1164.3003,-150.8553 1168.0486,-144.9433"/>
</g>
<!-- Node40 -->
<g id="node41" class="node">
<title>Node40</title>
<polygon fill="none" stroke="#bfbfbf" points="1234.5,-118 1234.5,-137 1423.5,-137 1423.5,-118 1234.5,-118"/>
<text text-anchor="middle" x="1329" y="-125" font-family="Helvetica,sans-Serif" font-size="10.00" fill="#000000">Math/GenVector/PositionVector2D.h</text>
</g>
<!-- Node29&#45;&gt;Node40 -->
<g id="edge46" class="edge">
<title>Node29&#45;&gt;Node40</title>
<path fill="none" stroke="#191970" d="M1246.3125,-179.3906C1262.0624,-169.5067 1286.8123,-153.9749 1305.1337,-142.4773"/>
<polygon fill="#191970" stroke="#191970" points="1307.1852,-145.3221 1313.795,-137.0419 1303.4643,-139.3929 1307.1852,-145.3221"/>
</g>
<!-- Node41 -->
<g id="node42" class="node">
<title>Node41</title>
<polygon fill="none" stroke="#bfbfbf" points="1442,-118 1442,-137 1524,-137 1524,-118 1442,-118"/>
<text text-anchor="middle" x="1483" y="-125" font-family="Helvetica,sans-Serif" font-size="10.00" fill="#000000">TGeoMatrix.h</text>
</g>
<!-- Node29&#45;&gt;Node41 -->
<g id="edge47" class="edge">
<title>Node29&#45;&gt;Node41</title>
<path fill="none" stroke="#191970" d="M1276.7261,-179.4911C1317.6122,-170.762 1379.0701,-157.0814 1432,-143 1435.6107,-142.0394 1439.3511,-140.9963 1443.0904,-139.9205"/>
<polygon fill="#191970" stroke="#191970" points="1444.2934,-143.2149 1452.8963,-137.031 1442.3148,-136.5003 1444.2934,-143.2149"/>
</g>
<!-- Node42 -->
<g id="node43" class="node">
<title>Node42</title>
<g id="a_node43"><a xlink:href="../../d1/da8/GPUROOTCartesianFwd_8h.html" target="_top" xlink:title="GPUROOTCartesianFwd.h">
<polygon fill="none" stroke="#000000" points="130,-118 130,-137 270,-137 270,-118 130,-118"/>
<text text-anchor="middle" x="200" y="-125" font-family="Helvetica,sans-Serif" font-size="10.00" fill="#000000">GPUROOTCartesianFwd.h</text>
</a>
</g>
</g>
<!-- Node29&#45;&gt;Node42 -->
<g id="edge49" class="edge">
<title>Node29&#45;&gt;Node42</title>
<path fill="none" stroke="#191970" d="M1169.805,-187.2087C987.9191,-181.6999 452.5002,-164.0986 279,-143 270.3306,-141.9457 261.1868,-140.4827 252.3167,-138.8733"/>
<polygon fill="#191970" stroke="#191970" points="252.9346,-135.4282 242.4582,-137.008 251.6332,-142.3061 252.9346,-135.4282"/>
</g>
<!-- Node31 -->
<g id="node32" class="node">
<title>Node31</title>
<g id="a_node32"><a xlink:href="../../d5/d93/GPUCommonDefSettings_8h.html" target="_top" xlink:title="GPUCommonDefSettings.h">
<polygon fill="none" stroke="#000000" points="0,-.5 0,-19.5 148,-19.5 148,-.5 0,-.5"/>
<text text-anchor="middle" x="74" y="-7.5" font-family="Helvetica,sans-Serif" font-size="10.00" fill="#000000">GPUCommonDefSettings.h</text>
</a>
</g>
</g>
<!-- Node30&#45;&gt;Node31 -->
<g id="edge36" class="edge">
<title>Node30&#45;&gt;Node31</title>
<path fill="none" stroke="#191970" d="M137.5876,-56.2455C125.9943,-47.814 109.0252,-35.4729 95.5322,-25.6598"/>
<polygon fill="#191970" stroke="#191970" points="97.4047,-22.6938 87.2587,-19.6427 93.2874,-28.355 97.4047,-22.6938"/>
</g>
<!-- Node32 -->
<g id="node33" class="node">
<title>Node32</title>
<g id="a_node33"><a xlink:href="../../da/d5a/GPUCommonDefAPI_8h.html" target="_top" xlink:title="GPUCommonDefAPI.h">
<polygon fill="none" stroke="#000000" points="166,-.5 166,-19.5 290,-19.5 290,-.5 166,-.5"/>
<text text-anchor="middle" x="228" y="-7.5" font-family="Helvetica,sans-Serif" font-size="10.00" fill="#000000">GPUCommonDefAPI.h</text>
</a>
</g>
</g>
<!-- Node30&#45;&gt;Node32 -->
<g id="edge37" class="edge">
<title>Node30&#45;&gt;Node32</title>
<path fill="none" stroke="#191970" d="M164.4124,-56.2455C176.0057,-47.814 192.9748,-35.4729 206.4678,-25.6598"/>
<polygon fill="#191970" stroke="#191970" points="208.7126,-28.355 214.7413,-19.6427 204.5953,-22.6938 208.7126,-28.355"/>
</g>
<!-- Node33&#45;&gt;Node9 -->
<g id="edge39" class="edge">
<title>Node33&#45;&gt;Node9</title>
<path fill="none" stroke="#191970" d="M1646.383,-117.9594C1656.3752,-115.8308 1667.0433,-113.7029 1677,-112 1793.1583,-92.1334 1931.6903,-76.797 1998.3296,-69.9357"/>
<polygon fill="#191970" stroke="#191970" points="1998.8005,-73.4059 2008.3931,-68.9078 1998.0892,-66.4421 1998.8005,-73.4059"/>
</g>
<!-- Node42&#45;&gt;Node30 -->
<g id="edge50" class="edge">
<title>Node42&#45;&gt;Node30</title>
<path fill="none" stroke="#191970" d="M192.3438,-117.8906C185.0511,-108.7376 173.8993,-94.7409 165.0148,-83.59"/>
<polygon fill="#191970" stroke="#191970" points="167.733,-81.3849 158.7642,-75.7449 162.2583,-85.747 167.733,-81.3849"/>
</g>
<!-- Node43&#45;&gt;Node15 -->
<g id="edge53" class="edge">
<title>Node43&#45;&gt;Node15</title>
<path fill="none" stroke="#191970" d="M2737.1408,-302.8788C2740.131,-302.5748 2743.0921,-302.2807 2746,-302 2947.0337,-282.5951 3004.4287,-320.1584 3199,-266 3200.7137,-265.523 3202.445,-264.9495 3204.167,-264.3081"/>
<polygon fill="#191970" stroke="#191970" points="3205.9991,-267.3256 3213.7401,-260.0918 3203.1776,-260.9194 3205.9991,-267.3256"/>
</g>
</g>
</svg>
