<?xml version="1.0" encoding="UTF-8" standalone="no"?>
<!DOCTYPE svg PUBLIC "-//W3C//DTD SVG 1.1//EN"
 "http://www.w3.org/Graphics/SVG/1.1/DTD/svg11.dtd">
<!-- Generated by graphviz version 2.40.1 (20161225.0304)
 -->
<!-- Title: o2::fdd::TCMdata Pages: 1 -->
<svg width="406pt" height="248pt"
 viewBox="0.00 0.00 405.50 248.00" xmlns="http://www.w3.org/2000/svg" xmlns:xlink="http://www.w3.org/1999/xlink">
<g id="graph0" class="graph" transform="scale(1 1) rotate(0) translate(4 244)">
<title>o2::fdd::TCMdata</title>
<!-- Node1 -->
<g id="node1" class="node">
<title>Node1</title>
<polygon fill="#bfbfbf" stroke="#000000" points="139.5,-.5 139.5,-57.5 237.5,-57.5 237.5,-.5 139.5,-.5"/>
<text text-anchor="middle" x="188.5" y="-45.5" font-family="Helvetica,sans-Serif" font-size="10.00" fill="#000000">o2::fdd::TCMdata</text>
<polyline fill="none" stroke="#000000" points="139.5,-38.5 237.5,-38.5 "/>
<text text-anchor="middle" x="188.5" y="-26.5" font-family="Helvetica,sans-Serif" font-size="10.00" fill="#000000"> </text>
<polyline fill="none" stroke="#000000" points="139.5,-19.5 237.5,-19.5 "/>
<text text-anchor="middle" x="188.5" y="-7.5" font-family="Helvetica,sans-Serif" font-size="10.00" fill="#000000"> </text>
</g>
<!-- Node2 -->
<g id="node2" class="node">
<title>Node2</title>
<polygon fill="none" stroke="#bfbfbf" points="0,-182.5 0,-239.5 107,-239.5 107,-182.5 0,-182.5"/>
<text text-anchor="middle" x="53.5" y="-227.5" font-family="Helvetica,sans-Serif" font-size="10.00" fill="#000000">anonymous:+@17</text>
<polyline fill="none" stroke="#bfbfbf" points="0,-220.5 107,-220.5 "/>
<text text-anchor="middle" x="53.5" y="-208.5" font-family="Helvetica,sans-Serif" font-size="10.00" fill="#000000"> </text>
<polyline fill="none" stroke="#bfbfbf" points="0,-201.5 107,-201.5 "/>
<text text-anchor="middle" x="53.5" y="-189.5" font-family="Helvetica,sans-Serif" font-size="10.00" fill="#000000"> </text>
</g>
<!-- Node2&#45;&gt;Node1 -->
<g id="edge1" class="edge">
<title>Node2&#45;&gt;Node1</title>
<path fill="none" stroke="#404040" d="M59.4504,-182.3029C66.7753,-152.8303 81.6747,-107.005 108.5,-76 114.436,-69.1391 121.6321,-63.0222 129.2467,-57.654"/>
<polygon fill="none" stroke="#404040" points="129.3694,-57.5742 132.2164,-50.9489 139.4271,-51.0286 136.5801,-57.654 129.3694,-57.5742"/>
<text text-anchor="middle" x="125.5" y="-117.5" font-family="Helvetica,sans-Serif" font-size="10.00" fill="#000000"> +@17</text>
</g>
<!-- Node3 -->
<g id="node3" class="node">
<title>Node3</title>
<g id="a_node3"><a xlink:href="../../d6/d30/classuint64__t.html" target="_top" xlink:title="{uint64_t\n||}">
<polygon fill="none" stroke="#000000" points="125.5,-182.5 125.5,-239.5 181.5,-239.5 181.5,-182.5 125.5,-182.5"/>
<text text-anchor="middle" x="153.5" y="-227.5" font-family="Helvetica,sans-Serif" font-size="10.00" fill="#000000">uint64_t</text>
<polyline fill="none" stroke="#000000" points="125.5,-220.5 181.5,-220.5 "/>
<text text-anchor="middle" x="153.5" y="-208.5" font-family="Helvetica,sans-Serif" font-size="10.00" fill="#000000"> </text>
<polyline fill="none" stroke="#000000" points="125.5,-201.5 181.5,-201.5 "/>
<text text-anchor="middle" x="153.5" y="-189.5" font-family="Helvetica,sans-Serif" font-size="10.00" fill="#000000"> </text>
</a>
</g>
</g>
<!-- Node3&#45;&gt;Node1 -->
<g id="edge2" class="edge">
<title>Node3&#45;&gt;Node1</title>
<path fill="none" stroke="#404040" d="M149.1339,-182.2845C145.9942,-154.3975 144.0793,-111.2304 155.5,-76 156.3369,-73.4185 157.3688,-70.8546 158.5449,-68.3338"/>
<polygon fill="none" stroke="#404040" points="158.6548,-68.1353 158.0609,-60.9486 164.4664,-57.6364 165.0602,-64.823 158.6548,-68.1353"/>
<text text-anchor="middle" x="178.5" y="-156" font-family="Helvetica,sans-Serif" font-size="10.00" fill="#000000"> +orA</text>
<text text-anchor="middle" x="178.5" y="-145" font-family="Helvetica,sans-Serif" font-size="10.00" fill="#000000">+nChanA</text>
<text text-anchor="middle" x="178.5" y="-134" font-family="Helvetica,sans-Serif" font-size="10.00" fill="#000000">+sCen</text>
<text text-anchor="middle" x="178.5" y="-123" font-family="Helvetica,sans-Serif" font-size="10.00" fill="#000000">+orC</text>
<text text-anchor="middle" x="178.5" y="-112" font-family="Helvetica,sans-Serif" font-size="10.00" fill="#000000">+word</text>
<text text-anchor="middle" x="178.5" y="-101" font-family="Helvetica,sans-Serif" font-size="10.00" fill="#000000">+nChanC</text>
<text text-anchor="middle" x="178.5" y="-90" font-family="Helvetica,sans-Serif" font-size="10.00" fill="#000000">+vertex</text>
<text text-anchor="middle" x="178.5" y="-79" font-family="Helvetica,sans-Serif" font-size="10.00" fill="#000000">+cen</text>
</g>
<!-- Node4 -->
<g id="node4" class="node">
<title>Node4</title>
<polygon fill="none" stroke="#bfbfbf" points="199.5,-182.5 199.5,-239.5 249.5,-239.5 249.5,-182.5 199.5,-182.5"/>
<text text-anchor="middle" x="224.5" y="-227.5" font-family="Helvetica,sans-Serif" font-size="10.00" fill="#000000">int64_t</text>
<polyline fill="none" stroke="#bfbfbf" points="199.5,-220.5 249.5,-220.5 "/>
<text text-anchor="middle" x="224.5" y="-208.5" font-family="Helvetica,sans-Serif" font-size="10.00" fill="#000000"> </text>
<polyline fill="none" stroke="#bfbfbf" points="199.5,-201.5 249.5,-201.5 "/>
<text text-anchor="middle" x="224.5" y="-189.5" font-family="Helvetica,sans-Serif" font-size="10.00" fill="#000000"> </text>
</g>
<!-- Node4&#45;&gt;Node1 -->
<g id="edge3" class="edge">
<title>Node4&#45;&gt;Node1</title>
<path fill="none" stroke="#404040" d="M220.4846,-182.3928C216.4312,-154.9541 209.6204,-112.4331 201.5,-76 201.0234,-73.8619 200.5104,-71.6758 199.9732,-69.4733"/>
<polygon fill="none" stroke="#404040" points="199.9379,-69.3363 194.5651,-64.5266 196.9383,-57.7172 202.3111,-62.5269 199.9379,-69.3363"/>
<text text-anchor="middle" x="256.5" y="-145" font-family="Helvetica,sans-Serif" font-size="10.00" fill="#000000"> +timeA</text>
<text text-anchor="middle" x="256.5" y="-134" font-family="Helvetica,sans-Serif" font-size="10.00" fill="#000000">+timeC</text>
<text text-anchor="middle" x="256.5" y="-123" font-family="Helvetica,sans-Serif" font-size="10.00" fill="#000000">+reservedField1</text>
<text text-anchor="middle" x="256.5" y="-112" font-family="Helvetica,sans-Serif" font-size="10.00" fill="#000000">+reservedField2</text>
<text text-anchor="middle" x="256.5" y="-101" font-family="Helvetica,sans-Serif" font-size="10.00" fill="#000000">+amplA</text>
<text text-anchor="middle" x="256.5" y="-90" font-family="Helvetica,sans-Serif" font-size="10.00" fill="#000000">+amplC</text>
</g>
<!-- Node5 -->
<g id="node5" class="node">
<title>Node5</title>
<polygon fill="none" stroke="#bfbfbf" points="304.5,-182.5 304.5,-239.5 348.5,-239.5 348.5,-182.5 304.5,-182.5"/>
<text text-anchor="middle" x="326.5" y="-227.5" font-family="Helvetica,sans-Serif" font-size="10.00" fill="#000000">static</text>
<polyline fill="none" stroke="#bfbfbf" points="304.5,-220.5 348.5,-220.5 "/>
<text text-anchor="middle" x="326.5" y="-208.5" font-family="Helvetica,sans-Serif" font-size="10.00" fill="#000000"> </text>
<polyline fill="none" stroke="#bfbfbf" points="304.5,-201.5 348.5,-201.5 "/>
<text text-anchor="middle" x="326.5" y="-189.5" font-family="Helvetica,sans-Serif" font-size="10.00" fill="#000000"> </text>
</g>
<!-- Node5&#45;&gt;Node1 -->
<g id="edge4" class="edge">
<title>Node5&#45;&gt;Node1</title>
<path fill="none" stroke="#404040" d="M328.407,-182.4547C328.8558,-152.6769 325.0198,-106.2059 300.5,-76 287.5072,-59.9941 268.104,-49.3588 249.0814,-42.3263"/>
<polygon fill="none" stroke="#404040" points="249.0391,-42.3122 242.0781,-44.1947 237.663,-38.4931 244.6241,-36.6106 249.0391,-42.3122"/>
<text text-anchor="middle" x="362.5" y="-117.5" font-family="Helvetica,sans-Serif" font-size="10.00" fill="#000000"> +PayloadSize</text>
</g>
</g>
</svg>
