<?xml version="1.0" encoding="UTF-8" standalone="no"?>
<!DOCTYPE svg PUBLIC "-//W3C//DTD SVG 1.1//EN"
 "http://www.w3.org/Graphics/SVG/1.1/DTD/svg11.dtd">
<!-- Generated by graphviz version 2.40.1 (20161225.0304)
 -->
<!-- Title: GPUCA_NAMESPACE::gpu::GPUCommonMath Pages: 1 -->
<svg width="389pt" height="710pt"
 viewBox="0.00 0.00 389.00 710.00" xmlns="http://www.w3.org/2000/svg" xmlns:xlink="http://www.w3.org/1999/xlink">
<g id="graph0" class="graph" transform="scale(1 1) rotate(0) translate(4 706)">
<title>GPUCA_NAMESPACE::gpu::GPUCommonMath</title>
<!-- Node1 -->
<g id="node1" class="node">
<title>Node1</title>
<polygon fill="#bfbfbf" stroke="#000000" points="123,-.5 123,-486.5 263,-486.5 263,-.5 123,-.5"/>
<text text-anchor="start" x="131" y="-474.5" font-family="Helvetica,sans-Serif" font-size="10.00" fill="#000000">GPUCA_NAMESPACE::gpu</text>
<text text-anchor="middle" x="193" y="-463.5" font-family="Helvetica,sans-Serif" font-size="10.00" fill="#000000">::GPUCommonMath</text>
<polyline fill="none" stroke="#000000" points="123,-456.5 263,-456.5 "/>
<text text-anchor="middle" x="193" y="-444.5" font-family="Helvetica,sans-Serif" font-size="10.00" fill="#000000"> </text>
<polyline fill="none" stroke="#000000" points="123,-437.5 263,-437.5 "/>
<text text-anchor="start" x="131" y="-425.5" font-family="Helvetica,sans-Serif" font-size="10.00" fill="#000000">+ GPUd()</text>
<text text-anchor="start" x="131" y="-414.5" font-family="Helvetica,sans-Serif" font-size="10.00" fill="#000000">+ GPUhd()</text>
<text text-anchor="start" x="131" y="-403.5" font-family="Helvetica,sans-Serif" font-size="10.00" fill="#000000">+ GPUhd()</text>
<text text-anchor="start" x="131" y="-392.5" font-family="Helvetica,sans-Serif" font-size="10.00" fill="#000000">+ GPUd()</text>
<text text-anchor="start" x="131" y="-381.5" font-family="Helvetica,sans-Serif" font-size="10.00" fill="#000000">+ GPUd()</text>
<text text-anchor="start" x="131" y="-370.5" font-family="Helvetica,sans-Serif" font-size="10.00" fill="#000000">+ GPUd()</text>
<text text-anchor="start" x="131" y="-359.5" font-family="Helvetica,sans-Serif" font-size="10.00" fill="#000000">+ GPUdi()</text>
<text text-anchor="start" x="131" y="-348.5" font-family="Helvetica,sans-Serif" font-size="10.00" fill="#000000">+ GPUhdni()</text>
<text text-anchor="start" x="131" y="-337.5" font-family="Helvetica,sans-Serif" font-size="10.00" fill="#000000">+ GPUd()</text>
<text text-anchor="start" x="131" y="-326.5" font-family="Helvetica,sans-Serif" font-size="10.00" fill="#000000">+ GPUhd()</text>
<text text-anchor="start" x="131" y="-315.5" font-family="Helvetica,sans-Serif" font-size="10.00" fill="#000000">+ GPUd()</text>
<text text-anchor="start" x="131" y="-304.5" font-family="Helvetica,sans-Serif" font-size="10.00" fill="#000000">+ GPUd()</text>
<text text-anchor="start" x="131" y="-293.5" font-family="Helvetica,sans-Serif" font-size="10.00" fill="#000000">+ GPUd()</text>
<text text-anchor="start" x="131" y="-282.5" font-family="Helvetica,sans-Serif" font-size="10.00" fill="#000000">+ GPUd()</text>
<text text-anchor="start" x="131" y="-271.5" font-family="Helvetica,sans-Serif" font-size="10.00" fill="#000000">+ GPUd()</text>
<text text-anchor="start" x="131" y="-260.5" font-family="Helvetica,sans-Serif" font-size="10.00" fill="#000000">+ GPUhdni()</text>
<text text-anchor="start" x="131" y="-249.5" font-family="Helvetica,sans-Serif" font-size="10.00" fill="#000000">+ GPUhdni()</text>
<text text-anchor="start" x="131" y="-238.5" font-family="Helvetica,sans-Serif" font-size="10.00" fill="#000000">+ GPUd()</text>
<text text-anchor="start" x="131" y="-227.5" font-family="Helvetica,sans-Serif" font-size="10.00" fill="#000000">+ GPUhdni()</text>
<text text-anchor="start" x="131" y="-216.5" font-family="Helvetica,sans-Serif" font-size="10.00" fill="#000000">+ GPUhdni()</text>
<text text-anchor="start" x="131" y="-205.5" font-family="Helvetica,sans-Serif" font-size="10.00" fill="#000000">+ GPUd()</text>
<text text-anchor="start" x="131" y="-194.5" font-family="Helvetica,sans-Serif" font-size="10.00" fill="#000000">+ GPUd()</text>
<text text-anchor="start" x="131" y="-183.5" font-family="Helvetica,sans-Serif" font-size="10.00" fill="#000000">+ GPUd()</text>
<text text-anchor="start" x="131" y="-172.5" font-family="Helvetica,sans-Serif" font-size="10.00" fill="#000000">+ GPUd()</text>
<text text-anchor="start" x="131" y="-161.5" font-family="Helvetica,sans-Serif" font-size="10.00" fill="#000000">+ GPUd()</text>
<text text-anchor="start" x="131" y="-150.5" font-family="Helvetica,sans-Serif" font-size="10.00" fill="#000000">+ GPUd()</text>
<text text-anchor="start" x="131" y="-139.5" font-family="Helvetica,sans-Serif" font-size="10.00" fill="#000000">+ GPUd()</text>
<text text-anchor="start" x="131" y="-128.5" font-family="Helvetica,sans-Serif" font-size="10.00" fill="#000000">+ GPUdi()</text>
<text text-anchor="start" x="131" y="-117.5" font-family="Helvetica,sans-Serif" font-size="10.00" fill="#000000">+ GPUdi()</text>
<text text-anchor="start" x="131" y="-106.5" font-family="Helvetica,sans-Serif" font-size="10.00" fill="#000000">+ GPUdi()</text>
<text text-anchor="start" x="131" y="-95.5" font-family="Helvetica,sans-Serif" font-size="10.00" fill="#000000">+ GPUdi()</text>
<text text-anchor="start" x="131" y="-84.5" font-family="Helvetica,sans-Serif" font-size="10.00" fill="#000000">+ GPUdi()</text>
<text text-anchor="start" x="131" y="-73.5" font-family="Helvetica,sans-Serif" font-size="10.00" fill="#000000">+ GPUdi()</text>
<text text-anchor="start" x="131" y="-62.5" font-family="Helvetica,sans-Serif" font-size="10.00" fill="#000000">+ GPUdi()</text>
<text text-anchor="start" x="131" y="-51.5" font-family="Helvetica,sans-Serif" font-size="10.00" fill="#000000">+ GPUdi()</text>
<text text-anchor="start" x="131" y="-40.5" font-family="Helvetica,sans-Serif" font-size="10.00" fill="#000000">+ GPUdi()</text>
<text text-anchor="start" x="131" y="-29.5" font-family="Helvetica,sans-Serif" font-size="10.00" fill="#000000">+ GPUd()</text>
<text text-anchor="start" x="131" y="-18.5" font-family="Helvetica,sans-Serif" font-size="10.00" fill="#000000">+ GPUd()</text>
<text text-anchor="start" x="131" y="-7.5" font-family="Helvetica,sans-Serif" font-size="10.00" fill="#000000">+ GPUd()</text>
</g>
<!-- Node2 -->
<g id="node2" class="node">
<title>Node2</title>
<polygon fill="none" stroke="#bfbfbf" points="0,-644.5 0,-701.5 46,-701.5 46,-644.5 0,-644.5"/>
<text text-anchor="middle" x="23" y="-689.5" font-family="Helvetica,sans-Serif" font-size="10.00" fill="#000000">return</text>
<polyline fill="none" stroke="#bfbfbf" points="0,-682.5 46,-682.5 "/>
<text text-anchor="middle" x="23" y="-670.5" font-family="Helvetica,sans-Serif" font-size="10.00" fill="#000000"> </text>
<polyline fill="none" stroke="#bfbfbf" points="0,-663.5 46,-663.5 "/>
<text text-anchor="middle" x="23" y="-651.5" font-family="Helvetica,sans-Serif" font-size="10.00" fill="#000000"> </text>
</g>
<!-- Node2&#45;&gt;Node1 -->
<g id="edge1" class="edge">
<title>Node2&#45;&gt;Node1</title>
<path fill="none" stroke="#404040" d="M26.3065,-644.4086C30.7951,-610.445 40.2461,-552.4182 57,-505 72.8784,-460.0599 95.2057,-413.2049 117.1874,-371.7775"/>
<polygon fill="none" stroke="#404040" points="117.2479,-371.6644 116.5559,-364.4866 122.9155,-361.0871 123.6075,-368.2649 117.2479,-371.6644"/>
<text text-anchor="middle" x="77" y="-563" font-family="Helvetica,sans-Serif" font-size="10.00" fill="#000000"> +retVal</text>
</g>
<!-- Node3 -->
<g id="node3" class="node">
<title>Node3</title>
<polygon fill="none" stroke="#bfbfbf" points="64,-644.5 64,-701.5 114,-701.5 114,-644.5 64,-644.5"/>
<text text-anchor="middle" x="89" y="-689.5" font-family="Helvetica,sans-Serif" font-size="10.00" fill="#000000">double</text>
<polyline fill="none" stroke="#bfbfbf" points="64,-682.5 114,-682.5 "/>
<text text-anchor="middle" x="89" y="-670.5" font-family="Helvetica,sans-Serif" font-size="10.00" fill="#000000"> </text>
<polyline fill="none" stroke="#bfbfbf" points="64,-663.5 114,-663.5 "/>
<text text-anchor="middle" x="89" y="-651.5" font-family="Helvetica,sans-Serif" font-size="10.00" fill="#000000"> </text>
</g>
<!-- Node3&#45;&gt;Node1 -->
<g id="edge2" class="edge">
<title>Node3&#45;&gt;Node1</title>
<path fill="none" stroke="#404040" d="M95.9043,-644.4867C103.6238,-612.6067 116.9363,-557.6284 131.2717,-498.4258"/>
<polygon fill="none" stroke="#404040" points="131.3269,-498.1975 128.8514,-491.4247 134.1511,-486.5346 136.6267,-493.3075 131.3269,-498.1975"/>
<text text-anchor="middle" x="136.5" y="-574" font-family="Helvetica,sans-Serif" font-size="10.00" fill="#000000"> +s</text>
<text text-anchor="middle" x="136.5" y="-563" font-family="Helvetica,sans-Serif" font-size="10.00" fill="#000000">+c</text>
<text text-anchor="middle" x="136.5" y="-552" font-family="Helvetica,sans-Serif" font-size="10.00" fill="#000000">+y</text>
</g>
<!-- Node4 -->
<g id="node4" class="node">
<title>Node4</title>
<g id="a_node4"><a xlink:href="../../d4/dc3/classfloat.html" target="_top" xlink:title="{float\n||}">
<polygon fill="none" stroke="#000000" points="132,-644.5 132,-701.5 170,-701.5 170,-644.5 132,-644.5"/>
<text text-anchor="middle" x="151" y="-689.5" font-family="Helvetica,sans-Serif" font-size="10.00" fill="#000000">float</text>
<polyline fill="none" stroke="#000000" points="132,-682.5 170,-682.5 "/>
<text text-anchor="middle" x="151" y="-670.5" font-family="Helvetica,sans-Serif" font-size="10.00" fill="#000000"> </text>
<polyline fill="none" stroke="#000000" points="132,-663.5 170,-663.5 "/>
<text text-anchor="middle" x="151" y="-651.5" font-family="Helvetica,sans-Serif" font-size="10.00" fill="#000000"> </text>
</a>
</g>
</g>
<!-- Node4&#45;&gt;Node1 -->
<g id="edge3" class="edge">
<title>Node4&#45;&gt;Node1</title>
<path fill="none" stroke="#404040" d="M153.1738,-644.4451C155.7673,-611.0037 160.3406,-553.9486 165,-505 165.1971,-502.9297 165.396,-500.8504 165.5966,-498.7629"/>
<polygon fill="none" stroke="#404040" points="165.6056,-498.6691 162.2033,-492.3111 166.7637,-486.7251 170.166,-493.0831 165.6056,-498.6691"/>
<text text-anchor="middle" x="174" y="-585" font-family="Helvetica,sans-Serif" font-size="10.00" fill="#000000"> +b</text>
<text text-anchor="middle" x="174" y="-574" font-family="Helvetica,sans-Serif" font-size="10.00" fill="#000000">+s</text>
<text text-anchor="middle" x="174" y="-563" font-family="Helvetica,sans-Serif" font-size="10.00" fill="#000000">+c</text>
<text text-anchor="middle" x="174" y="-552" font-family="Helvetica,sans-Serif" font-size="10.00" fill="#000000">+x</text>
<text text-anchor="middle" x="174" y="-541" font-family="Helvetica,sans-Serif" font-size="10.00" fill="#000000">+y</text>
</g>
<!-- Node5 -->
<g id="node5" class="node">
<title>Node5</title>
<polygon fill="none" stroke="#bfbfbf" points="188.5,-644.5 188.5,-701.5 217.5,-701.5 217.5,-644.5 188.5,-644.5"/>
<text text-anchor="middle" x="203" y="-689.5" font-family="Helvetica,sans-Serif" font-size="10.00" fill="#000000">*</text>
<polyline fill="none" stroke="#bfbfbf" points="188.5,-682.5 217.5,-682.5 "/>
<text text-anchor="middle" x="203" y="-670.5" font-family="Helvetica,sans-Serif" font-size="10.00" fill="#000000"> </text>
<polyline fill="none" stroke="#bfbfbf" points="188.5,-663.5 217.5,-663.5 "/>
<text text-anchor="middle" x="203" y="-651.5" font-family="Helvetica,sans-Serif" font-size="10.00" fill="#000000"> </text>
</g>
<!-- Node5&#45;&gt;Node1 -->
<g id="edge4" class="edge">
<title>Node5&#45;&gt;Node1</title>
<path fill="none" stroke="#404040" d="M196.623,-644.29C195.5353,-638.277 194.5728,-631.9543 194,-626 190.0559,-585.0017 187.9642,-541.417 187.0589,-498.9058"/>
<polygon fill="none" stroke="#404040" points="187.0542,-498.6478 182.9426,-492.7237 186.8297,-486.6499 190.9412,-492.574 187.0542,-498.6478"/>
<text text-anchor="middle" x="211" y="-563" font-family="Helvetica,sans-Serif" font-size="10.00" fill="#000000"> +addr</text>
</g>
<!-- Node6 -->
<g id="node6" class="node">
<title>Node6</title>
<polygon fill="none" stroke="#bfbfbf" points="235.5,-644.5 235.5,-701.5 264.5,-701.5 264.5,-644.5 235.5,-644.5"/>
<text text-anchor="middle" x="250" y="-689.5" font-family="Helvetica,sans-Serif" font-size="10.00" fill="#000000">int</text>
<polyline fill="none" stroke="#bfbfbf" points="235.5,-682.5 264.5,-682.5 "/>
<text text-anchor="middle" x="250" y="-670.5" font-family="Helvetica,sans-Serif" font-size="10.00" fill="#000000"> </text>
<polyline fill="none" stroke="#bfbfbf" points="235.5,-663.5 264.5,-663.5 "/>
<text text-anchor="middle" x="250" y="-651.5" font-family="Helvetica,sans-Serif" font-size="10.00" fill="#000000"> </text>
</g>
<!-- Node6&#45;&gt;Node1 -->
<g id="edge5" class="edge">
<title>Node6&#45;&gt;Node1</title>
<path fill="none" stroke="#404040" d="M246.2877,-644.4601C241.9339,-611.0328 234.4863,-553.9908 228,-505 227.7262,-502.9318 227.451,-500.8544 227.1747,-498.7689"/>
<polygon fill="none" stroke="#404040" points="227.1573,-498.6372 222.4032,-493.2152 225.5797,-486.7414 230.3338,-492.1634 227.1573,-498.6372"/>
<text text-anchor="middle" x="252" y="-563" font-family="Helvetica,sans-Serif" font-size="10.00" fill="#000000"> +b</text>
</g>
<!-- Node7 -->
<g id="node7" class="node">
<title>Node7</title>
<polygon fill="none" stroke="#bfbfbf" points="282.5,-644.5 282.5,-701.5 325.5,-701.5 325.5,-644.5 282.5,-644.5"/>
<text text-anchor="middle" x="304" y="-689.5" font-family="Helvetica,sans-Serif" font-size="10.00" fill="#000000">const</text>
<polyline fill="none" stroke="#bfbfbf" points="282.5,-682.5 325.5,-682.5 "/>
<text text-anchor="middle" x="304" y="-670.5" font-family="Helvetica,sans-Serif" font-size="10.00" fill="#000000"> </text>
<polyline fill="none" stroke="#bfbfbf" points="282.5,-663.5 325.5,-663.5 "/>
<text text-anchor="middle" x="304" y="-651.5" font-family="Helvetica,sans-Serif" font-size="10.00" fill="#000000"> </text>
</g>
<!-- Node7&#45;&gt;Node1 -->
<g id="edge6" class="edge">
<title>Node7&#45;&gt;Node1</title>
<path fill="none" stroke="#404040" d="M297.727,-644.378C290.298,-610.8735 277.3667,-553.7592 265,-505 264.4488,-502.8266 263.8931,-500.6435 263.3334,-498.452"/>
<polygon fill="none" stroke="#404040" points="263.2893,-498.2798 257.9223,-493.4637 260.3037,-486.6571 265.6707,-491.4733 263.2893,-498.2798"/>
<text text-anchor="middle" x="303.5" y="-574" font-family="Helvetica,sans-Serif" font-size="10.00" fill="#000000"> +hi</text>
<text text-anchor="middle" x="303.5" y="-563" font-family="Helvetica,sans-Serif" font-size="10.00" fill="#000000">+y</text>
<text text-anchor="middle" x="303.5" y="-552" font-family="Helvetica,sans-Serif" font-size="10.00" fill="#000000">+lo</text>
</g>
<!-- Node8 -->
<g id="node8" class="node">
<title>Node8</title>
<polygon fill="none" stroke="#bfbfbf" points="343.5,-644.5 343.5,-701.5 372.5,-701.5 372.5,-644.5 343.5,-644.5"/>
<text text-anchor="middle" x="358" y="-689.5" font-family="Helvetica,sans-Serif" font-size="10.00" fill="#000000">T</text>
<polyline fill="none" stroke="#bfbfbf" points="343.5,-682.5 372.5,-682.5 "/>
<text text-anchor="middle" x="358" y="-670.5" font-family="Helvetica,sans-Serif" font-size="10.00" fill="#000000"> </text>
<polyline fill="none" stroke="#bfbfbf" points="343.5,-663.5 372.5,-663.5 "/>
<text text-anchor="middle" x="358" y="-651.5" font-family="Helvetica,sans-Serif" font-size="10.00" fill="#000000"> </text>
</g>
<!-- Node8&#45;&gt;Node1 -->
<g id="edge7" class="edge">
<title>Node8&#45;&gt;Node1</title>
<path fill="none" stroke="#404040" d="M353.0772,-644.2301C346.8404,-610.3429 334.8392,-552.6306 318,-505 304.1846,-465.9225 286.3189,-424.9197 268.4394,-387.2761"/>
<polygon fill="none" stroke="#404040" points="268.3329,-387.0538 262.1331,-383.371 263.1481,-376.2317 269.3479,-379.9145 268.3329,-387.0538"/>
<text text-anchor="middle" x="365" y="-618" font-family="Helvetica,sans-Serif" font-size="10.00" fill="#000000"> +refY</text>
<text text-anchor="middle" x="365" y="-607" font-family="Helvetica,sans-Serif" font-size="10.00" fill="#000000">+val</text>
<text text-anchor="middle" x="365" y="-596" font-family="Helvetica,sans-Serif" font-size="10.00" fill="#000000">+refZ</text>
<text text-anchor="middle" x="365" y="-585" font-family="Helvetica,sans-Serif" font-size="10.00" fill="#000000">+r</text>
<text text-anchor="middle" x="365" y="-574" font-family="Helvetica,sans-Serif" font-size="10.00" fill="#000000">+cmp</text>
<text text-anchor="middle" x="365" y="-563" font-family="Helvetica,sans-Serif" font-size="10.00" fill="#000000">+w</text>
<text text-anchor="middle" x="365" y="-552" font-family="Helvetica,sans-Serif" font-size="10.00" fill="#000000">+y</text>
<text text-anchor="middle" x="365" y="-541" font-family="Helvetica,sans-Serif" font-size="10.00" fill="#000000">+z</text>
<text text-anchor="middle" x="365" y="-530" font-family="Helvetica,sans-Serif" font-size="10.00" fill="#000000">+refW</text>
<text text-anchor="middle" x="365" y="-519" font-family="Helvetica,sans-Serif" font-size="10.00" fill="#000000">+refX</text>
<text text-anchor="middle" x="365" y="-508" font-family="Helvetica,sans-Serif" font-size="10.00" fill="#000000">...</text>
</g>
</g>
</svg>
