<?xml version="1.0" encoding="UTF-8" standalone="no"?>
<!DOCTYPE svg PUBLIC "-//W3C//DTD SVG 1.1//EN"
 "http://www.w3.org/Graphics/SVG/1.1/DTD/svg11.dtd">
<!-- Generated by graphviz version 2.40.1 (20161225.0304)
 -->
<!-- Title: /home/travis/build/AliceO2Group/AliceO2/Detectors/TPC/base/include/TPCBase/CRU.h Pages: 1 -->
<!--zoomable 464 -->
<svg id="main" version="1.1" xmlns="http://www.w3.org/2000/svg" xmlns:xlink="http://www.w3.org/1999/xlink" xml:space="preserve" onload="init(evt)">
<style type="text/css"><![CDATA[
.edge:hover path { stroke: red; }
.edge:hover polygon { stroke: red; fill: red; }
]]></style>
<script type="text/javascript"><![CDATA[
var edges = document.getElementsByTagName('g');
if (edges && edges.length) {
  for (var i=0;i<edges.length;i++) {
    if (edges[i].id.substr(0,4)=='edge') {
      edges[i].setAttribute('class','edge');
    }
  }
}
]]></script>
        <defs>
                <circle id="rim" cx="0" cy="0" r="7"/>
                <circle id="rim2" cx="0" cy="0" r="3.5"/>
                <g id="zoomPlus">
                        <use xlink:href="#rim" fill="#404040">
                                <set attributeName="fill" to="#808080" begin="zoomplus.mouseover" end="zoomplus.mouseout"/>
                        </use>
                        <path d="M-4,0h8M0,-4v8" fill="none" stroke="white" stroke-width="1.5" pointer-events="none"/>
                </g>
                <g id="zoomMin">
                        <use xlink:href="#rim" fill="#404040">
                                <set attributeName="fill" to="#808080" begin="zoomminus.mouseover" end="zoomminus.mouseout"/>
                        </use>
                        <path d="M-4,0h8" fill="none" stroke="white" stroke-width="1.5" pointer-events="none"/>
                </g>
                <g id="dirArrow">
                        <path fill="none" stroke="white" stroke-width="1.5" d="M0,-3.0v7 M-2.5,-0.5L0,-3.0L2.5,-0.5"/>
                </g>
               <g id="resetDef">
                       <use xlink:href="#rim2" fill="#404040">
                               <set attributeName="fill" to="#808080" begin="reset.mouseover" end="reset.mouseout"/>
                       </use>
               </g>
        </defs>

<script type="text/javascript">
var viewWidth = 1834;
var viewHeight = 464;
var sectionId = 'dynsection-0';
</script>
<script xlink:href="../../svgpan.js"/>
<svg id="graph" class="graph">
<g id="viewport">
<title>/home/travis/build/AliceO2Group/AliceO2/Detectors/TPC/base/include/TPCBase/CRU.h</title>
<!-- Node0 -->
<g id="node1" class="node">
<title>Node0</title>
<polygon fill="#bfbfbf" stroke="#000000" points="468.5,-403.5 468.5,-455.5 621.5,-455.5 621.5,-403.5 468.5,-403.5"/>
<text text-anchor="start" x="476.5" y="-443.5" font-family="Helvetica,sans-Serif" font-size="10.00" fill="#000000">/home/travis/build</text>
<text text-anchor="start" x="476.5" y="-432.5" font-family="Helvetica,sans-Serif" font-size="10.00" fill="#000000">/AliceO2Group/AliceO2</text>
<text text-anchor="start" x="476.5" y="-421.5" font-family="Helvetica,sans-Serif" font-size="10.00" fill="#000000">/Detectors/TPC/base/include</text>
<text text-anchor="middle" x="545" y="-410.5" font-family="Helvetica,sans-Serif" font-size="10.00" fill="#000000">/TPCBase/CRU.h</text>
</g>
<!-- Node1 -->
<g id="node2" class="node">
<title>Node1</title>
<g id="a_node2"><a xlink:href="../../d1/d73/Defs_8h.html" target="_top" xlink:title="DataFormatsTPC/Defs.h">
<polygon fill="none" stroke="#000000" points="423.5,-235.5 423.5,-254.5 556.5,-254.5 556.5,-235.5 423.5,-235.5"/>
<text text-anchor="middle" x="490" y="-242.5" font-family="Helvetica,sans-Serif" font-size="10.00" fill="#000000">DataFormatsTPC/Defs.h</text>
</a>
</g>
</g>
<!-- Node0&#45;&gt;Node1 -->
<g id="edge1" class="edge">
<title>Node0&#45;&gt;Node1</title>
<path fill="none" stroke="#191970" d="M514.3052,-403.2246C504.6115,-393.018 495.1029,-380.5231 490,-367 477.0956,-332.8024 481.589,-289.2716 485.8883,-264.5306"/>
<polygon fill="#191970" stroke="#191970" points="489.3494,-265.0653 487.7868,-254.5863 482.4736,-263.7525 489.3494,-265.0653"/>
</g>
<!-- Node19 -->
<g id="node20" class="node">
<title>Node19</title>
<g id="a_node20"><a xlink:href="../../d3/dd6/Sector_8h.html" target="_top" xlink:title="TPCBase/Sector.h">
<polygon fill="none" stroke="#000000" points="560.5,-291.5 560.5,-310.5 661.5,-310.5 661.5,-291.5 560.5,-291.5"/>
<text text-anchor="middle" x="611" y="-298.5" font-family="Helvetica,sans-Serif" font-size="10.00" fill="#000000">TPCBase/Sector.h</text>
</a>
</g>
</g>
<!-- Node0&#45;&gt;Node19 -->
<g id="edge21" class="edge">
<title>Node0&#45;&gt;Node19</title>
<path fill="none" stroke="#191970" d="M573.8971,-403.3171C583.6589,-392.9443 593.6751,-380.3172 600,-367 606.8525,-352.5721 609.5172,-334.6028 610.516,-321.0586"/>
<polygon fill="#191970" stroke="#191970" points="614.0202,-321.0578 611.0184,-310.8971 607.0287,-320.7121 614.0202,-321.0578"/>
</g>
<!-- Node21 -->
<g id="node22" class="node">
<title>Node21</title>
<g id="a_node22"><a xlink:href="../../dc/d14/ROC_8h.html" target="_top" xlink:title="TPCBase/ROC.h">
<polygon fill="none" stroke="#000000" points="499,-347.5 499,-366.5 591,-366.5 591,-347.5 499,-347.5"/>
<text text-anchor="middle" x="545" y="-354.5" font-family="Helvetica,sans-Serif" font-size="10.00" fill="#000000">TPCBase/ROC.h</text>
</a>
</g>
</g>
<!-- Node0&#45;&gt;Node21 -->
<g id="edge24" class="edge">
<title>Node0&#45;&gt;Node21</title>
<path fill="none" stroke="#191970" d="M545,-403.3258C545,-394.5142 545,-384.8397 545,-376.621"/>
<polygon fill="#191970" stroke="#191970" points="548.5001,-376.534 545,-366.534 541.5001,-376.534 548.5001,-376.534"/>
</g>
<!-- Node2 -->
<g id="node3" class="node">
<title>Node2</title>
<polygon fill="none" stroke="#bfbfbf" points="414.5,-179.5 414.5,-198.5 461.5,-198.5 461.5,-179.5 414.5,-179.5"/>
<text text-anchor="middle" x="438" y="-186.5" font-family="Helvetica,sans-Serif" font-size="10.00" fill="#000000">cmath</text>
</g>
<!-- Node1&#45;&gt;Node2 -->
<g id="edge2" class="edge">
<title>Node1&#45;&gt;Node2</title>
<path fill="none" stroke="#191970" d="M480.9423,-235.2455C473.4858,-227.2155 462.7366,-215.6394 453.8583,-206.0781"/>
<polygon fill="#191970" stroke="#191970" points="456.3232,-203.589 446.9539,-198.6427 451.1937,-208.3522 456.3232,-203.589"/>
</g>
<!-- Node3 -->
<g id="node4" class="node">
<title>Node3</title>
<g id="a_node4"><a xlink:href="../../d1/da8/GPUROOTCartesianFwd_8h.html" target="_top" xlink:title="GPUROOTCartesianFwd.h">
<polygon fill="none" stroke="#000000" points="0,-118 0,-137 140,-137 140,-118 0,-118"/>
<text text-anchor="middle" x="70" y="-125" font-family="Helvetica,sans-Serif" font-size="10.00" fill="#000000">GPUROOTCartesianFwd.h</text>
</a>
</g>
</g>
<!-- Node1&#45;&gt;Node3 -->
<g id="edge3" class="edge">
<title>Node1&#45;&gt;Node3</title>
<path fill="none" stroke="#191970" d="M490.1511,-235.1382C489.7914,-220.4174 486.7486,-192.9397 470,-179 414.8284,-133.0812 219.9452,-153.9192 149,-143 141.3267,-141.819 133.2639,-140.4208 125.342,-138.9552"/>
<polygon fill="#191970" stroke="#191970" points="125.8999,-135.4986 115.4228,-137.074 124.5955,-142.3761 125.8999,-135.4986"/>
</g>
<!-- Node7 -->
<g id="node8" class="node">
<title>Node7</title>
<g id="a_node8"><a xlink:href="../../dc/d73/Cartesian_8h.html" target="_top" xlink:title="MathUtils/Cartesian.h">
<polygon fill="none" stroke="#000000" points="938,-179.5 938,-198.5 1060,-198.5 1060,-179.5 938,-179.5"/>
<text text-anchor="middle" x="999" y="-186.5" font-family="Helvetica,sans-Serif" font-size="10.00" fill="#000000">MathUtils/Cartesian.h</text>
</a>
</g>
</g>
<!-- Node1&#45;&gt;Node7 -->
<g id="edge7" class="edge">
<title>Node1&#45;&gt;Node7</title>
<path fill="none" stroke="#191970" d="M556.7163,-236.1257C559.8537,-235.7385 562.9605,-235.3614 566,-235 693.3194,-219.8632 841.9938,-204.5923 927.842,-196.0091"/>
<polygon fill="#191970" stroke="#191970" points="928.3912,-199.4718 937.9942,-194.996 927.6961,-192.5063 928.3912,-199.4718"/>
</g>
<!-- Node4 -->
<g id="node5" class="node">
<title>Node4</title>
<g id="a_node5"><a xlink:href="../../df/d21/GPUCommonDef_8h.html" target="_top" xlink:title="GPUCommonDef.h">
<polygon fill="none" stroke="#000000" points="812.5,-56.5 812.5,-75.5 919.5,-75.5 919.5,-56.5 812.5,-56.5"/>
<text text-anchor="middle" x="866" y="-63.5" font-family="Helvetica,sans-Serif" font-size="10.00" fill="#000000">GPUCommonDef.h</text>
</a>
</g>
</g>
<!-- Node3&#45;&gt;Node4 -->
<g id="edge4" class="edge">
<title>Node3&#45;&gt;Node4</title>
<path fill="none" stroke="#191970" d="M113.2973,-117.9552C124.849,-115.6968 137.3569,-113.5092 149,-112 388.7331,-80.9249 676.4095,-70.537 802.0468,-67.3236"/>
<polygon fill="#191970" stroke="#191970" points="802.3441,-70.8174 812.2538,-67.0693 802.1697,-63.8195 802.3441,-70.8174"/>
</g>
<!-- Node5 -->
<g id="node6" class="node">
<title>Node5</title>
<g id="a_node6"><a xlink:href="../../d5/d93/GPUCommonDefSettings_8h.html" target="_top" xlink:title="GPUCommonDefSettings.h">
<polygon fill="none" stroke="#000000" points="715,-.5 715,-19.5 863,-19.5 863,-.5 715,-.5"/>
<text text-anchor="middle" x="789" y="-7.5" font-family="Helvetica,sans-Serif" font-size="10.00" fill="#000000">GPUCommonDefSettings.h</text>
</a>
</g>
</g>
<!-- Node4&#45;&gt;Node5 -->
<g id="edge5" class="edge">
<title>Node4&#45;&gt;Node5</title>
<path fill="none" stroke="#191970" d="M852.5876,-56.2455C840.9943,-47.814 824.0252,-35.4729 810.5322,-25.6598"/>
<polygon fill="#191970" stroke="#191970" points="812.4047,-22.6938 802.2587,-19.6427 808.2874,-28.355 812.4047,-22.6938"/>
</g>
<!-- Node6 -->
<g id="node7" class="node">
<title>Node6</title>
<g id="a_node7"><a xlink:href="../../da/d5a/GPUCommonDefAPI_8h.html" target="_top" xlink:title="GPUCommonDefAPI.h">
<polygon fill="none" stroke="#000000" points="881,-.5 881,-19.5 1005,-19.5 1005,-.5 881,-.5"/>
<text text-anchor="middle" x="943" y="-7.5" font-family="Helvetica,sans-Serif" font-size="10.00" fill="#000000">GPUCommonDefAPI.h</text>
</a>
</g>
</g>
<!-- Node4&#45;&gt;Node6 -->
<g id="edge6" class="edge">
<title>Node4&#45;&gt;Node6</title>
<path fill="none" stroke="#191970" d="M879.4124,-56.2455C891.0057,-47.814 907.9748,-35.4729 921.4678,-25.6598"/>
<polygon fill="#191970" stroke="#191970" points="923.7126,-28.355 929.7413,-19.6427 919.5953,-22.6938 923.7126,-28.355"/>
</g>
<!-- Node7&#45;&gt;Node3 -->
<g id="edge20" class="edge">
<title>Node7&#45;&gt;Node3</title>
<path fill="none" stroke="#191970" d="M937.8594,-186.8032C769.5685,-180.5792 301.8852,-162.0405 149,-143 140.5265,-141.9447 131.5981,-140.5103 122.9146,-138.9379"/>
<polygon fill="#191970" stroke="#191970" points="123.3508,-135.4585 112.8752,-137.0431 122.0525,-142.3371 123.3508,-135.4585"/>
</g>
<!-- Node7&#45;&gt;Node4 -->
<g id="edge8" class="edge">
<title>Node7&#45;&gt;Node4</title>
<path fill="none" stroke="#191970" d="M1060.0755,-186.9367C1218.7141,-181.2825 1632.9428,-164.5175 1653,-143 1662.3944,-132.9217 1662.4539,-122.0226 1653,-112 1628.3014,-85.8156 1112.6125,-71.6 929.6713,-67.3663"/>
<polygon fill="#191970" stroke="#191970" points="929.7355,-63.867 919.6579,-67.1369 929.5751,-70.8651 929.7355,-63.867"/>
</g>
<!-- Node8 -->
<g id="node9" class="node">
<title>Node8</title>
<g id="a_node9"><a xlink:href="../../d2/d45/GPUCommonRtypes_8h.html" target="_top" xlink:title="GPUCommonRtypes.h">
<polygon fill="none" stroke="#000000" points="1700.5,-118 1700.5,-137 1825.5,-137 1825.5,-118 1700.5,-118"/>
<text text-anchor="middle" x="1763" y="-125" font-family="Helvetica,sans-Serif" font-size="10.00" fill="#000000">GPUCommonRtypes.h</text>
</a>
</g>
</g>
<!-- Node7&#45;&gt;Node8 -->
<g id="edge9" class="edge">
<title>Node7&#45;&gt;Node8</title>
<path fill="none" stroke="#191970" d="M1060.387,-187.6009C1180.8411,-184.2575 1456.4331,-173.6555 1686,-143 1694.0717,-141.9221 1702.5677,-140.5037 1710.8508,-138.9622"/>
<polygon fill="#191970" stroke="#191970" points="1711.6532,-142.3719 1720.806,-137.0355 1710.3231,-135.4994 1711.6532,-142.3719"/>
</g>
<!-- Node10 -->
<g id="node11" class="node">
<title>Node10</title>
<polygon fill="none" stroke="#bfbfbf" points="158,-112.5 158,-142.5 322,-142.5 322,-112.5 158,-112.5"/>
<text text-anchor="start" x="166" y="-130.5" font-family="Helvetica,sans-Serif" font-size="10.00" fill="#000000">Math/GenVector/Displacement</text>
<text text-anchor="middle" x="240" y="-119.5" font-family="Helvetica,sans-Serif" font-size="10.00" fill="#000000">Vector3D.h</text>
</g>
<!-- Node7&#45;&gt;Node10 -->
<g id="edge11" class="edge">
<title>Node7&#45;&gt;Node10</title>
<path fill="none" stroke="#191970" d="M937.5626,-186.8241C821.3593,-182.2605 561.2537,-169.9103 332.4685,-143.1002"/>
<polygon fill="#191970" stroke="#191970" points="332.6285,-139.5948 322.2863,-141.8949 331.8055,-146.5462 332.6285,-139.5948"/>
</g>
<!-- Node11 -->
<g id="node12" class="node">
<title>Node11</title>
<polygon fill="none" stroke="#bfbfbf" points="340.5,-118 340.5,-137 529.5,-137 529.5,-118 340.5,-118"/>
<text text-anchor="middle" x="435" y="-125" font-family="Helvetica,sans-Serif" font-size="10.00" fill="#000000">Math/GenVector/PositionVector3D.h</text>
</g>
<!-- Node7&#45;&gt;Node11 -->
<g id="edge12" class="edge">
<title>Node7&#45;&gt;Node11</title>
<path fill="none" stroke="#191970" d="M937.8801,-183.8339C849.6587,-176.1624 681.5647,-160.7415 539,-143 528.1818,-141.6537 516.7514,-140.0921 505.5831,-138.4888"/>
<polygon fill="#191970" stroke="#191970" points="505.8253,-134.9872 495.4253,-137.0097 504.8166,-141.9142 505.8253,-134.9872"/>
</g>
<!-- Node12 -->
<g id="node13" class="node">
<title>Node12</title>
<polygon fill="none" stroke="#bfbfbf" points="548,-118 548,-137 708,-137 708,-118 548,-118"/>
<text text-anchor="middle" x="628" y="-125" font-family="Helvetica,sans-Serif" font-size="10.00" fill="#000000">Math/GenVector/Rotation3D.h</text>
</g>
<!-- Node7&#45;&gt;Node12 -->
<g id="edge13" class="edge">
<title>Node7&#45;&gt;Node12</title>
<path fill="none" stroke="#191970" d="M939.553,-179.4929C882.4612,-170.3176 793.7962,-155.9504 717,-143 708.9736,-141.6465 700.5438,-140.2047 692.2039,-138.7661"/>
<polygon fill="#191970" stroke="#191970" points="692.5594,-135.2757 682.109,-137.0191 691.3657,-142.1732 692.5594,-135.2757"/>
</g>
<!-- Node13 -->
<g id="node14" class="node">
<title>Node13</title>
<polygon fill="none" stroke="#bfbfbf" points="726,-118 726,-137 894,-137 894,-118 726,-118"/>
<text text-anchor="middle" x="810" y="-125" font-family="Helvetica,sans-Serif" font-size="10.00" fill="#000000">Math/GenVector/Transform3D.h</text>
</g>
<!-- Node7&#45;&gt;Node13 -->
<g id="edge14" class="edge">
<title>Node7&#45;&gt;Node13</title>
<path fill="none" stroke="#191970" d="M969.4688,-179.3906C937.0134,-168.8298 884.7419,-151.8208 848.9514,-140.1747"/>
<polygon fill="#191970" stroke="#191970" points="849.9161,-136.808 839.3239,-137.0419 847.7501,-143.4645 849.9161,-136.808"/>
</g>
<!-- Node14 -->
<g id="node15" class="node">
<title>Node14</title>
<polygon fill="none" stroke="#bfbfbf" points="912.5,-118 912.5,-137 1085.5,-137 1085.5,-118 912.5,-118"/>
<text text-anchor="middle" x="999" y="-125" font-family="Helvetica,sans-Serif" font-size="10.00" fill="#000000">Math/GenVector/Translation3D.h</text>
</g>
<!-- Node7&#45;&gt;Node14 -->
<g id="edge15" class="edge">
<title>Node7&#45;&gt;Node14</title>
<path fill="none" stroke="#191970" d="M999,-179.3906C999,-170.8657 999,-158.1392 999,-147.4235"/>
<polygon fill="#191970" stroke="#191970" points="1002.5001,-147.2448 999,-137.2449 995.5001,-147.2449 1002.5001,-147.2448"/>
</g>
<!-- Node15 -->
<g id="node16" class="node">
<title>Node15</title>
<polygon fill="none" stroke="#bfbfbf" points="1104,-112.5 1104,-142.5 1268,-142.5 1268,-112.5 1104,-112.5"/>
<text text-anchor="start" x="1112" y="-130.5" font-family="Helvetica,sans-Serif" font-size="10.00" fill="#000000">Math/GenVector/Displacement</text>
<text text-anchor="middle" x="1186" y="-119.5" font-family="Helvetica,sans-Serif" font-size="10.00" fill="#000000">Vector2D.h</text>
</g>
<!-- Node7&#45;&gt;Node15 -->
<g id="edge16" class="edge">
<title>Node7&#45;&gt;Node15</title>
<path fill="none" stroke="#191970" d="M1028.2188,-179.3906C1055.5188,-170.4123 1096.9895,-156.7735 1130.564,-145.7316"/>
<polygon fill="#191970" stroke="#191970" points="1131.8487,-148.9936 1140.2547,-142.5446 1129.6617,-142.344 1131.8487,-148.9936"/>
</g>
<!-- Node16 -->
<g id="node17" class="node">
<title>Node16</title>
<polygon fill="none" stroke="#bfbfbf" points="1286.5,-118 1286.5,-137 1475.5,-137 1475.5,-118 1286.5,-118"/>
<text text-anchor="middle" x="1381" y="-125" font-family="Helvetica,sans-Serif" font-size="10.00" fill="#000000">Math/GenVector/PositionVector2D.h</text>
</g>
<!-- Node7&#45;&gt;Node16 -->
<g id="edge17" class="edge">
<title>Node7&#45;&gt;Node16</title>
<path fill="none" stroke="#191970" d="M1058.2684,-179.4581C1126.8197,-168.4217 1239.5116,-150.2789 1311.96,-138.6151"/>
<polygon fill="#191970" stroke="#191970" points="1312.5904,-142.0587 1321.9069,-137.0137 1311.4777,-135.1477 1312.5904,-142.0587"/>
</g>
<!-- Node17 -->
<g id="node18" class="node">
<title>Node17</title>
<polygon fill="none" stroke="#bfbfbf" points="1494,-118 1494,-137 1576,-137 1576,-118 1494,-118"/>
<text text-anchor="middle" x="1535" y="-125" font-family="Helvetica,sans-Serif" font-size="10.00" fill="#000000">TGeoMatrix.h</text>
</g>
<!-- Node7&#45;&gt;Node17 -->
<g id="edge18" class="edge">
<title>Node7&#45;&gt;Node17</title>
<path fill="none" stroke="#191970" d="M1060.1994,-187.2484C1152.9171,-183.6888 1334.1649,-173.1814 1485,-143 1489.2107,-142.1575 1493.5703,-141.0979 1497.8805,-139.9302"/>
<polygon fill="#191970" stroke="#191970" points="1499.1288,-143.2123 1507.7545,-137.0603 1497.175,-136.4904 1499.1288,-143.2123"/>
</g>
<!-- Node18 -->
<g id="node19" class="node">
<title>Node18</title>
<polygon fill="none" stroke="#bfbfbf" points="1594.5,-118 1594.5,-137 1643.5,-137 1643.5,-118 1594.5,-118"/>
<text text-anchor="middle" x="1619" y="-125" font-family="Helvetica,sans-Serif" font-size="10.00" fill="#000000">iosfwd</text>
</g>
<!-- Node7&#45;&gt;Node18 -->
<g id="edge19" class="edge">
<title>Node7&#45;&gt;Node18</title>
<path fill="none" stroke="#191970" d="M1060.0571,-186.8996C1189.3802,-182.0124 1487.065,-168.3239 1585,-143 1587.1943,-142.4326 1589.4229,-141.7314 1591.6357,-140.9434"/>
<polygon fill="#191970" stroke="#191970" points="1593.1488,-144.106 1601.0788,-137.0798 1590.4981,-137.6273 1593.1488,-144.106"/>
</g>
<!-- Node9 -->
<g id="node10" class="node">
<title>Node9</title>
<polygon fill="none" stroke="#bfbfbf" points="1733.5,-56.5 1733.5,-75.5 1792.5,-75.5 1792.5,-56.5 1733.5,-56.5"/>
<text text-anchor="middle" x="1763" y="-63.5" font-family="Helvetica,sans-Serif" font-size="10.00" fill="#000000">Rtypes.h</text>
</g>
<!-- Node8&#45;&gt;Node9 -->
<g id="edge10" class="edge">
<title>Node8&#45;&gt;Node9</title>
<path fill="none" stroke="#191970" d="M1763,-117.8906C1763,-109.3657 1763,-96.6392 1763,-85.9235"/>
<polygon fill="#191970" stroke="#191970" points="1766.5001,-85.7448 1763,-75.7449 1759.5001,-85.7449 1766.5001,-85.7448"/>
</g>
<!-- Node19&#45;&gt;Node1 -->
<g id="edge23" class="edge">
<title>Node19&#45;&gt;Node1</title>
<path fill="none" stroke="#191970" d="M590.1994,-291.3733C570.7757,-282.3838 541.5776,-268.8706 519.7036,-258.7471"/>
<polygon fill="#191970" stroke="#191970" points="521.0745,-255.5249 510.5292,-254.5011 518.1344,-261.8776 521.0745,-255.5249"/>
</g>
<!-- Node20 -->
<g id="node21" class="node">
<title>Node20</title>
<g id="a_node21"><a xlink:href="../../d0/dda/DataFormats_2Detectors_2TPC_2include_2DataFormatsTPC_2Constants_8h.html" target="_top" xlink:title="DataFormatsTPC/Constants.h">
<polygon fill="none" stroke="#000000" points="574.5,-235.5 574.5,-254.5 733.5,-254.5 733.5,-235.5 574.5,-235.5"/>
<text text-anchor="middle" x="654" y="-242.5" font-family="Helvetica,sans-Serif" font-size="10.00" fill="#000000">DataFormatsTPC/Constants.h</text>
</a>
</g>
</g>
<!-- Node19&#45;&gt;Node20 -->
<g id="edge22" class="edge">
<title>Node19&#45;&gt;Node20</title>
<path fill="none" stroke="#191970" d="M618.49,-291.2455C624.5326,-283.3761 633.1903,-272.101 640.4441,-262.6542"/>
<polygon fill="#191970" stroke="#191970" points="643.2815,-264.7058 646.5958,-254.6427 637.7295,-260.4426 643.2815,-264.7058"/>
</g>
<!-- Node21&#45;&gt;Node1 -->
<g id="edge25" class="edge">
<title>Node21&#45;&gt;Node1</title>
<path fill="none" stroke="#191970" d="M540.3107,-347.4509C531.2186,-328.936 511.0469,-287.8591 499.1922,-263.7187"/>
<polygon fill="#191970" stroke="#191970" points="502.227,-261.9582 494.6774,-254.5249 495.9437,-265.0438 502.227,-261.9582"/>
</g>
<!-- Node21&#45;&gt;Node19 -->
<g id="edge26" class="edge">
<title>Node21&#45;&gt;Node19</title>
<path fill="none" stroke="#191970" d="M556.4963,-347.2455C566.2442,-338.9746 580.4259,-326.9416 591.8798,-317.2232"/>
<polygon fill="#191970" stroke="#191970" points="594.2747,-319.7813 599.6354,-310.6427 589.7459,-314.4437 594.2747,-319.7813"/>
</g>
</g>
</svg>
        <g id="navigator" transform="translate(0 0)" fill="#404254">
                <rect fill="#f2f5e9" fill-opacity="0.5" stroke="#606060" stroke-width=".5" x="0" y="0" width="60" height="60"/>
                <use id="zoomplus" xlink:href="#zoomPlus" x="17" y="9" onmousedown="handleZoom(evt,'in')"/>
                <use id="zoomminus" xlink:href="#zoomMin" x="42" y="9" onmousedown="handleZoom(evt,'out')"/>
                <use id="reset" xlink:href="#resetDef" x="30" y="36" onmousedown="handleReset()"/>
                <g id="arrowUp" xlink:href="#dirArrow" transform="translate(30 24)" onmousedown="handlePan(0,-1)">
                  <use xlink:href="#rim" fill="#404040">
                        <set attributeName="fill" to="#808080" begin="arrowUp.mouseover" end="arrowUp.mouseout"/>
                  </use>
                  <path fill="none" stroke="white" stroke-width="1.5" d="M0,-3.0v7 M-2.5,-0.5L0,-3.0L2.5,-0.5"/>
                </g>
                <g id="arrowRight" xlink:href="#dirArrow" transform="rotate(90) translate(36 -43)" onmousedown="handlePan(1,0)">
                  <use xlink:href="#rim" fill="#404040">
                        <set attributeName="fill" to="#808080" begin="arrowRight.mouseover" end="arrowRight.mouseout"/>
                  </use>
                  <path fill="none" stroke="white" stroke-width="1.5" d="M0,-3.0v7 M-2.5,-0.5L0,-3.0L2.5,-0.5"/>
                </g>
                <g id="arrowDown" xlink:href="#dirArrow" transform="rotate(180) translate(-30 -48)" onmousedown="handlePan(0,1)">
                  <use xlink:href="#rim" fill="#404040">
                        <set attributeName="fill" to="#808080" begin="arrowDown.mouseover" end="arrowDown.mouseout"/>
                  </use>
                  <path fill="none" stroke="white" stroke-width="1.5" d="M0,-3.0v7 M-2.5,-0.5L0,-3.0L2.5,-0.5"/>
                </g>
                <g id="arrowLeft" xlink:href="#dirArrow" transform="rotate(270) translate(-36 17)" onmousedown="handlePan(-1,0)">
                  <use xlink:href="#rim" fill="#404040">
                        <set attributeName="fill" to="#808080" begin="arrowLeft.mouseover" end="arrowLeft.mouseout"/>
                  </use>
                  <path fill="none" stroke="white" stroke-width="1.5" d="M0,-3.0v7 M-2.5,-0.5L0,-3.0L2.5,-0.5"/>
                </g>
        </g>
        <svg viewBox="0 0 15 15" width="100%" height="30px" preserveAspectRatio="xMaxYMin meet">
         <g id="arrow_out" transform="scale(0.3 0.3)">
          <a xlink:href="CRU_8h__incl_org.svg" target="_base">
           <rect id="button" ry="5" rx="5" y="6" x="6" height="38" width="38"
                fill="#f2f5e9" fill-opacity="0.5" stroke="#606060" stroke-width="1.0"/>
           <path id="arrow"
             d="M 11.500037,31.436501 C 11.940474,20.09759 22.043105,11.32322 32.158766,21.979434 L 37.068811,17.246167 C 37.068811,17.246167 37.088388,32 37.088388,32 L 22.160133,31.978069 C 22.160133,31.978069 26.997745,27.140456 26.997745,27.140456 C 18.528582,18.264221 13.291696,25.230495 11.500037,31.436501 z"
             style="fill:#404040;"/>
          </a>
         </g>
        </svg>
</svg>
