<?xml version="1.0" encoding="UTF-8" standalone="no"?>
<!DOCTYPE svg PUBLIC "-//W3C//DTD SVG 1.1//EN"
 "http://www.w3.org/Graphics/SVG/1.1/DTD/svg11.dtd">
<!-- Generated by graphviz version 2.40.1 (20161225.0304)
 -->
<!-- Title: /home/travis/build/AliceO2Group/AliceO2/Detectors/FIT/FT0/reconstruction/include/FT0Reconstruction/InteractionTag.h Pages: 1 -->
<!--zoomable 339 -->
<svg id="main" version="1.1" xmlns="http://www.w3.org/2000/svg" xmlns:xlink="http://www.w3.org/1999/xlink" xml:space="preserve" onload="init(evt)">
<style type="text/css"><![CDATA[
.edge:hover path { stroke: red; }
.edge:hover polygon { stroke: red; fill: red; }
]]></style>
<script type="text/javascript"><![CDATA[
var edges = document.getElementsByTagName('g');
if (edges && edges.length) {
  for (var i=0;i<edges.length;i++) {
    if (edges[i].id.substr(0,4)=='edge') {
      edges[i].setAttribute('class','edge');
    }
  }
}
]]></script>
        <defs>
                <circle id="rim" cx="0" cy="0" r="7"/>
                <circle id="rim2" cx="0" cy="0" r="3.5"/>
                <g id="zoomPlus">
                        <use xlink:href="#rim" fill="#404040">
                                <set attributeName="fill" to="#808080" begin="zoomplus.mouseover" end="zoomplus.mouseout"/>
                        </use>
                        <path d="M-4,0h8M0,-4v8" fill="none" stroke="white" stroke-width="1.5" pointer-events="none"/>
                </g>
                <g id="zoomMin">
                        <use xlink:href="#rim" fill="#404040">
                                <set attributeName="fill" to="#808080" begin="zoomminus.mouseover" end="zoomminus.mouseout"/>
                        </use>
                        <path d="M-4,0h8" fill="none" stroke="white" stroke-width="1.5" pointer-events="none"/>
                </g>
                <g id="dirArrow">
                        <path fill="none" stroke="white" stroke-width="1.5" d="M0,-3.0v7 M-2.5,-0.5L0,-3.0L2.5,-0.5"/>
                </g>
               <g id="resetDef">
                       <use xlink:href="#rim2" fill="#404040">
                               <set attributeName="fill" to="#808080" begin="reset.mouseover" end="reset.mouseout"/>
                       </use>
               </g>
        </defs>

<script type="text/javascript">
var viewWidth = 1860;
var viewHeight = 339;
var sectionId = 'dynsection-1';
</script>
<script xlink:href="../../svgpan.js"/>
<svg id="graph" class="graph">
<g id="viewport">
<title>/home/travis/build/AliceO2Group/AliceO2/Detectors/FIT/FT0/reconstruction/include/FT0Reconstruction/InteractionTag.h</title>
<!-- Node31 -->
<g id="node1" class="node">
<title>Node31</title>
<polygon fill="#bfbfbf" stroke="#000000" points="648,-278.5 648,-330.5 876,-330.5 876,-278.5 648,-278.5"/>
<text text-anchor="start" x="656" y="-318.5" font-family="Helvetica,sans-Serif" font-size="10.00" fill="#000000">/home/travis/build</text>
<text text-anchor="start" x="656" y="-307.5" font-family="Helvetica,sans-Serif" font-size="10.00" fill="#000000">/AliceO2Group/AliceO2</text>
<text text-anchor="start" x="656" y="-296.5" font-family="Helvetica,sans-Serif" font-size="10.00" fill="#000000">/Detectors/FIT/FT0/reconstruction</text>
<text text-anchor="middle" x="762" y="-285.5" font-family="Helvetica,sans-Serif" font-size="10.00" fill="#000000">/include/FT0Reconstruction/InteractionTag.h</text>
</g>
<!-- Node32 -->
<g id="node2" class="node">
<title>Node32</title>
<g id="a_node2"><a xlink:href="../../d6/d6c/InteractionTag_8cxx.html" target="_top" xlink:title="/home/travis/build\l/AliceO2Group/AliceO2\l/Detectors/FIT/FT0/reconstruction\l/src/InteractionTag.cxx">
<polygon fill="none" stroke="#000000" points="464.5,-189.5 464.5,-241.5 641.5,-241.5 641.5,-189.5 464.5,-189.5"/>
<text text-anchor="start" x="472.5" y="-229.5" font-family="Helvetica,sans-Serif" font-size="10.00" fill="#000000">/home/travis/build</text>
<text text-anchor="start" x="472.5" y="-218.5" font-family="Helvetica,sans-Serif" font-size="10.00" fill="#000000">/AliceO2Group/AliceO2</text>
<text text-anchor="start" x="472.5" y="-207.5" font-family="Helvetica,sans-Serif" font-size="10.00" fill="#000000">/Detectors/FIT/FT0/reconstruction</text>
<text text-anchor="middle" x="553" y="-196.5" font-family="Helvetica,sans-Serif" font-size="10.00" fill="#000000">/src/InteractionTag.cxx</text>
</a>
</g>
</g>
<!-- Node31&#45;&gt;Node32 -->
<g id="edge1" class="edge">
<title>Node31&#45;&gt;Node32</title>
<path fill="none" stroke="#191970" d="M691.2853,-274.387C666.3018,-263.7481 638.4313,-251.8798 614.2936,-241.6011"/>
<polygon fill="#191970" stroke="#191970" points="690.1334,-277.7006 700.7053,-278.3984 692.876,-271.2602 690.1334,-277.7006"/>
</g>
<!-- Node33 -->
<g id="node3" class="node">
<title>Node33</title>
<g id="a_node3"><a xlink:href="../../d3/dac/MatchTPCITS_8h.html" target="_top" xlink:title="Class to perform TPC ITS matching. ">
<polygon fill="none" stroke="#000000" points="659.5,-189.5 659.5,-241.5 864.5,-241.5 864.5,-189.5 659.5,-189.5"/>
<text text-anchor="start" x="667.5" y="-229.5" font-family="Helvetica,sans-Serif" font-size="10.00" fill="#000000">/home/travis/build</text>
<text text-anchor="start" x="667.5" y="-218.5" font-family="Helvetica,sans-Serif" font-size="10.00" fill="#000000">/AliceO2Group/AliceO2</text>
<text text-anchor="start" x="667.5" y="-207.5" font-family="Helvetica,sans-Serif" font-size="10.00" fill="#000000">/Detectors/GlobalTracking</text>
<text text-anchor="middle" x="762" y="-196.5" font-family="Helvetica,sans-Serif" font-size="10.00" fill="#000000">/include/GlobalTracking/MatchTPCITS.h</text>
</a>
</g>
</g>
<!-- Node31&#45;&gt;Node33 -->
<g id="edge2" class="edge">
<title>Node31&#45;&gt;Node33</title>
<path fill="none" stroke="#191970" d="M762,-268.1155C762,-259.2061 762,-249.8475 762,-241.5341"/>
<polygon fill="#191970" stroke="#191970" points="758.5001,-268.2784 762,-278.2784 765.5001,-268.2785 758.5001,-268.2784"/>
</g>
<!-- Node44 -->
<g id="node14" class="node">
<title>Node44</title>
<g id="a_node14"><a xlink:href="../../d4/d02/PVertexer_8h.html" target="_top" xlink:title="Primary vertex finder. ">
<polygon fill="none" stroke="#000000" points="1261,-189.5 1261,-241.5 1433,-241.5 1433,-189.5 1261,-189.5"/>
<text text-anchor="start" x="1269" y="-229.5" font-family="Helvetica,sans-Serif" font-size="10.00" fill="#000000">/home/travis/build</text>
<text text-anchor="start" x="1269" y="-218.5" font-family="Helvetica,sans-Serif" font-size="10.00" fill="#000000">/AliceO2Group/AliceO2</text>
<text text-anchor="start" x="1269" y="-207.5" font-family="Helvetica,sans-Serif" font-size="10.00" fill="#000000">/Detectors/Vertexing/include</text>
<text text-anchor="middle" x="1347" y="-196.5" font-family="Helvetica,sans-Serif" font-size="10.00" fill="#000000">/DetectorsVertexing/PVertexer.h</text>
</a>
</g>
</g>
<!-- Node31&#45;&gt;Node44 -->
<g id="edge14" class="edge">
<title>Node31&#45;&gt;Node44</title>
<path fill="none" stroke="#191970" d="M886.2337,-285.5995C998.798,-268.4743 1161.7444,-243.6842 1260.6739,-228.6334"/>
<polygon fill="#191970" stroke="#191970" points="885.5424,-282.1643 876.1826,-287.1286 886.5953,-289.0847 885.5424,-282.1643"/>
</g>
<!-- Node34 -->
<g id="node4" class="node">
<title>Node34</title>
<g id="a_node4"><a xlink:href="../../d0/d74/MatchTOF_8h.html" target="_top" xlink:title="Class to perform TOF matching to global tracks. ">
<polygon fill="none" stroke="#000000" points="419,-95 419,-147 607,-147 607,-95 419,-95"/>
<text text-anchor="start" x="427" y="-135" font-family="Helvetica,sans-Serif" font-size="10.00" fill="#000000">/home/travis/build</text>
<text text-anchor="start" x="427" y="-124" font-family="Helvetica,sans-Serif" font-size="10.00" fill="#000000">/AliceO2Group/AliceO2</text>
<text text-anchor="start" x="427" y="-113" font-family="Helvetica,sans-Serif" font-size="10.00" fill="#000000">/Detectors/GlobalTracking</text>
<text text-anchor="middle" x="513" y="-102" font-family="Helvetica,sans-Serif" font-size="10.00" fill="#000000">/include/GlobalTracking/MatchTOF.h</text>
</a>
</g>
</g>
<!-- Node33&#45;&gt;Node34 -->
<g id="edge3" class="edge">
<title>Node33&#45;&gt;Node34</title>
<path fill="none" stroke="#191970" d="M683.784,-185.8156C651.1238,-173.4205 613.5087,-159.1449 581.9071,-147.1515"/>
<polygon fill="#191970" stroke="#191970" points="682.7093,-189.1513 693.3005,-189.4273 685.1931,-182.6067 682.7093,-189.1513"/>
</g>
<!-- Node36 -->
<g id="node6" class="node">
<title>Node36</title>
<g id="a_node6"><a xlink:href="../../db/d6a/MatchTOF_8cxx.html" target="_top" xlink:title="/home/travis/build\l/AliceO2Group/AliceO2\l/Detectors/GlobalTracking\l/src/MatchTOF.cxx">
<polygon fill="none" stroke="#000000" points="0,-.5 0,-52.5 142,-52.5 142,-.5 0,-.5"/>
<text text-anchor="start" x="8" y="-40.5" font-family="Helvetica,sans-Serif" font-size="10.00" fill="#000000">/home/travis/build</text>
<text text-anchor="start" x="8" y="-29.5" font-family="Helvetica,sans-Serif" font-size="10.00" fill="#000000">/AliceO2Group/AliceO2</text>
<text text-anchor="start" x="8" y="-18.5" font-family="Helvetica,sans-Serif" font-size="10.00" fill="#000000">/Detectors/GlobalTracking</text>
<text text-anchor="middle" x="71" y="-7.5" font-family="Helvetica,sans-Serif" font-size="10.00" fill="#000000">/src/MatchTOF.cxx</text>
</a>
</g>
</g>
<!-- Node33&#45;&gt;Node36 -->
<g id="edge8" class="edge">
<title>Node33&#45;&gt;Node36</title>
<path fill="none" stroke="#191970" d="M649.4033,-188.7742C542.8649,-169.0573 511.7875,-179.2854 410,-153 308.8819,-126.8874 196.1294,-81.3407 129.499,-52.6141"/>
<polygon fill="#191970" stroke="#191970" points="648.7829,-192.2188 659.2599,-190.6431 650.087,-185.3413 648.7829,-192.2188"/>
</g>
<!-- Node39 -->
<g id="node9" class="node">
<title>Node39</title>
<g id="a_node9"><a xlink:href="../../dc/d59/MatchTPCITS_8cxx.html" target="_top" xlink:title="/home/travis/build\l/AliceO2Group/AliceO2\l/Detectors/GlobalTracking\l/src/MatchTPCITS.cxx">
<polygon fill="none" stroke="#000000" points="691,-95 691,-147 833,-147 833,-95 691,-95"/>
<text text-anchor="start" x="699" y="-135" font-family="Helvetica,sans-Serif" font-size="10.00" fill="#000000">/home/travis/build</text>
<text text-anchor="start" x="699" y="-124" font-family="Helvetica,sans-Serif" font-size="10.00" fill="#000000">/AliceO2Group/AliceO2</text>
<text text-anchor="start" x="699" y="-113" font-family="Helvetica,sans-Serif" font-size="10.00" fill="#000000">/Detectors/GlobalTracking</text>
<text text-anchor="middle" x="762" y="-102" font-family="Helvetica,sans-Serif" font-size="10.00" fill="#000000">/src/MatchTPCITS.cxx</text>
</a>
</g>
</g>
<!-- Node33&#45;&gt;Node39 -->
<g id="edge9" class="edge">
<title>Node33&#45;&gt;Node39</title>
<path fill="none" stroke="#191970" d="M762,-179.1645C762,-168.5577 762,-157.1746 762,-147.3157"/>
<polygon fill="#191970" stroke="#191970" points="758.5001,-179.4273 762,-189.4273 765.5001,-179.4273 758.5001,-179.4273"/>
</g>
<!-- Node40 -->
<g id="node10" class="node">
<title>Node40</title>
<g id="a_node10"><a xlink:href="../../da/d20/TPCITSMatchingSpec_8h.html" target="_top" xlink:title="/home/travis/build\l/AliceO2Group/AliceO2\l/Detectors/GlobalTrackingWorkflow\l/include/GlobalTrackingWorkflow\l/TPCITSMatchingSpec.h">
<polygon fill="none" stroke="#000000" points="982.5,-89.5 982.5,-152.5 1169.5,-152.5 1169.5,-89.5 982.5,-89.5"/>
<text text-anchor="start" x="990.5" y="-140.5" font-family="Helvetica,sans-Serif" font-size="10.00" fill="#000000">/home/travis/build</text>
<text text-anchor="start" x="990.5" y="-129.5" font-family="Helvetica,sans-Serif" font-size="10.00" fill="#000000">/AliceO2Group/AliceO2</text>
<text text-anchor="start" x="990.5" y="-118.5" font-family="Helvetica,sans-Serif" font-size="10.00" fill="#000000">/Detectors/GlobalTrackingWorkflow</text>
<text text-anchor="start" x="990.5" y="-107.5" font-family="Helvetica,sans-Serif" font-size="10.00" fill="#000000">/include/GlobalTrackingWorkflow</text>
<text text-anchor="middle" x="1076" y="-96.5" font-family="Helvetica,sans-Serif" font-size="10.00" fill="#000000">/TPCITSMatchingSpec.h</text>
</a>
</g>
</g>
<!-- Node33&#45;&gt;Node40 -->
<g id="edge10" class="edge">
<title>Node33&#45;&gt;Node40</title>
<path fill="none" stroke="#191970" d="M858.2699,-186.527C897.7569,-174.6432 943.303,-160.9359 982.4988,-149.1397"/>
<polygon fill="#191970" stroke="#191970" points="857.2001,-183.1939 848.6331,-189.4273 859.2175,-189.8969 857.2001,-183.1939"/>
</g>
<!-- Node35 -->
<g id="node5" class="node">
<title>Node35</title>
<g id="a_node5"><a xlink:href="../../d6/dc9/AODProducerWorkflowSpec_8cxx.html" target="_top" xlink:title="/home/travis/build\l/AliceO2Group/AliceO2\l/Detectors/AOD/src/AODProducer\lWorkflowSpec.cxx">
<polygon fill="none" stroke="#000000" points="861,-.5 861,-52.5 1037,-52.5 1037,-.5 861,-.5"/>
<text text-anchor="start" x="869" y="-40.5" font-family="Helvetica,sans-Serif" font-size="10.00" fill="#000000">/home/travis/build</text>
<text text-anchor="start" x="869" y="-29.5" font-family="Helvetica,sans-Serif" font-size="10.00" fill="#000000">/AliceO2Group/AliceO2</text>
<text text-anchor="start" x="869" y="-18.5" font-family="Helvetica,sans-Serif" font-size="10.00" fill="#000000">/Detectors/AOD/src/AODProducer</text>
<text text-anchor="middle" x="949" y="-7.5" font-family="Helvetica,sans-Serif" font-size="10.00" fill="#000000">WorkflowSpec.cxx</text>
</a>
</g>
</g>
<!-- Node34&#45;&gt;Node35 -->
<g id="edge4" class="edge">
<title>Node34&#45;&gt;Node35</title>
<path fill="none" stroke="#191970" d="M617.167,-101.0192C700.0323,-84.965 809.1037,-63.434 853,-53 855.6073,-52.3803 858.2508,-51.7384 860.9166,-51.0794"/>
<polygon fill="#191970" stroke="#191970" points="616.3502,-97.6122 607.1975,-102.9488 617.6804,-104.4847 616.3502,-97.6122"/>
</g>
<!-- Node34&#45;&gt;Node36 -->
<g id="edge5" class="edge">
<title>Node34&#45;&gt;Node36</title>
<path fill="none" stroke="#191970" d="M408.7708,-105.231C335.9952,-93.2951 236.8907,-75.1858 151,-53 148.1668,-52.2682 145.288,-51.4889 142.388,-50.6742"/>
<polygon fill="#191970" stroke="#191970" points="408.4284,-108.7213 418.8609,-106.8741 409.5534,-101.8123 408.4284,-108.7213"/>
</g>
<!-- Node37 -->
<g id="node7" class="node">
<title>Node37</title>
<g id="a_node7"><a xlink:href="../../d8/d84/RecoWorkflowSpec_8cxx.html" target="_top" xlink:title="/home/travis/build\l/AliceO2Group/AliceO2\l/Detectors/GlobalTrackingWorkflow\l/tofworkflow/src/RecoWorkflowSpec.cxx">
<polygon fill="none" stroke="#000000" points="160.5,-.5 160.5,-52.5 369.5,-52.5 369.5,-.5 160.5,-.5"/>
<text text-anchor="start" x="168.5" y="-40.5" font-family="Helvetica,sans-Serif" font-size="10.00" fill="#000000">/home/travis/build</text>
<text text-anchor="start" x="168.5" y="-29.5" font-family="Helvetica,sans-Serif" font-size="10.00" fill="#000000">/AliceO2Group/AliceO2</text>
<text text-anchor="start" x="168.5" y="-18.5" font-family="Helvetica,sans-Serif" font-size="10.00" fill="#000000">/Detectors/GlobalTrackingWorkflow</text>
<text text-anchor="middle" x="265" y="-7.5" font-family="Helvetica,sans-Serif" font-size="10.00" fill="#000000">/tofworkflow/src/RecoWorkflowSpec.cxx</text>
</a>
</g>
</g>
<!-- Node34&#45;&gt;Node37 -->
<g id="edge6" class="edge">
<title>Node34&#45;&gt;Node37</title>
<path fill="none" stroke="#191970" d="M435.0981,-91.3156C402.569,-78.9205 365.105,-64.6449 333.6304,-52.6515"/>
<polygon fill="#191970" stroke="#191970" points="433.9856,-94.6371 444.5764,-94.9273 436.4781,-88.0959 433.9856,-94.6371"/>
</g>
<!-- Node38 -->
<g id="node8" class="node">
<title>Node38</title>
<g id="a_node8"><a xlink:href="../../d4/d76/RecoWorkflowWithTPCSpec_8cxx.html" target="_top" xlink:title="/home/travis/build\l/AliceO2Group/AliceO2\l/Detectors/GlobalTrackingWorkflow\l/tofworkflow/src/RecoWorkflowWithTPCSpec.cxx">
<polygon fill="none" stroke="#000000" points="387.5,-.5 387.5,-52.5 638.5,-52.5 638.5,-.5 387.5,-.5"/>
<text text-anchor="start" x="395.5" y="-40.5" font-family="Helvetica,sans-Serif" font-size="10.00" fill="#000000">/home/travis/build</text>
<text text-anchor="start" x="395.5" y="-29.5" font-family="Helvetica,sans-Serif" font-size="10.00" fill="#000000">/AliceO2Group/AliceO2</text>
<text text-anchor="start" x="395.5" y="-18.5" font-family="Helvetica,sans-Serif" font-size="10.00" fill="#000000">/Detectors/GlobalTrackingWorkflow</text>
<text text-anchor="middle" x="513" y="-7.5" font-family="Helvetica,sans-Serif" font-size="10.00" fill="#000000">/tofworkflow/src/RecoWorkflowWithTPCSpec.cxx</text>
</a>
</g>
</g>
<!-- Node34&#45;&gt;Node38 -->
<g id="edge7" class="edge">
<title>Node34&#45;&gt;Node38</title>
<path fill="none" stroke="#191970" d="M513,-84.6645C513,-74.0577 513,-62.6746 513,-52.8157"/>
<polygon fill="#191970" stroke="#191970" points="509.5001,-84.9273 513,-94.9273 516.5001,-84.9273 509.5001,-84.9273"/>
</g>
<!-- Node41 -->
<g id="node11" class="node">
<title>Node41</title>
<g id="a_node11"><a xlink:href="../../df/de7/AODProducerWorkflow_8cxx.html" target="_top" xlink:title="/home/travis/build\l/AliceO2Group/AliceO2\l/Detectors/AOD/src/AODProducer\lWorkflow.cxx">
<polygon fill="none" stroke="#000000" points="1259,-.5 1259,-52.5 1435,-52.5 1435,-.5 1259,-.5"/>
<text text-anchor="start" x="1267" y="-40.5" font-family="Helvetica,sans-Serif" font-size="10.00" fill="#000000">/home/travis/build</text>
<text text-anchor="start" x="1267" y="-29.5" font-family="Helvetica,sans-Serif" font-size="10.00" fill="#000000">/AliceO2Group/AliceO2</text>
<text text-anchor="start" x="1267" y="-18.5" font-family="Helvetica,sans-Serif" font-size="10.00" fill="#000000">/Detectors/AOD/src/AODProducer</text>
<text text-anchor="middle" x="1347" y="-7.5" font-family="Helvetica,sans-Serif" font-size="10.00" fill="#000000">Workflow.cxx</text>
</a>
</g>
</g>
<!-- Node40&#45;&gt;Node41 -->
<g id="edge11" class="edge">
<title>Node40&#45;&gt;Node41</title>
<path fill="none" stroke="#191970" d="M1176.3721,-85.9994C1208.1221,-74.9279 1242.636,-62.8926 1272.2622,-52.5617"/>
<polygon fill="#191970" stroke="#191970" points="1174.9058,-82.8039 1166.6158,-89.4015 1177.2107,-89.4136 1174.9058,-82.8039"/>
</g>
<!-- Node42 -->
<g id="node12" class="node">
<title>Node42</title>
<g id="a_node12"><a xlink:href="../../d5/db4/MatchTPCITSWorkflow_8cxx.html" target="_top" xlink:title="/home/travis/build\l/AliceO2Group/AliceO2\l/Detectors/GlobalTrackingWorkflow\l/src/MatchTPCITSWorkflow.cxx">
<polygon fill="none" stroke="#000000" points="656.5,-.5 656.5,-52.5 843.5,-52.5 843.5,-.5 656.5,-.5"/>
<text text-anchor="start" x="664.5" y="-40.5" font-family="Helvetica,sans-Serif" font-size="10.00" fill="#000000">/home/travis/build</text>
<text text-anchor="start" x="664.5" y="-29.5" font-family="Helvetica,sans-Serif" font-size="10.00" fill="#000000">/AliceO2Group/AliceO2</text>
<text text-anchor="start" x="664.5" y="-18.5" font-family="Helvetica,sans-Serif" font-size="10.00" fill="#000000">/Detectors/GlobalTrackingWorkflow</text>
<text text-anchor="middle" x="750" y="-7.5" font-family="Helvetica,sans-Serif" font-size="10.00" fill="#000000">/src/MatchTPCITSWorkflow.cxx</text>
</a>
</g>
</g>
<!-- Node40&#45;&gt;Node42 -->
<g id="edge12" class="edge">
<title>Node40&#45;&gt;Node42</title>
<path fill="none" stroke="#191970" d="M972.312,-90.9432C929.7195,-78.5966 880.8707,-64.4365 839.8308,-52.5399"/>
<polygon fill="#191970" stroke="#191970" points="971.5656,-94.3709 982.1447,-93.7935 973.5145,-87.6476 971.5656,-94.3709"/>
</g>
<!-- Node43 -->
<g id="node13" class="node">
<title>Node43</title>
<g id="a_node13"><a xlink:href="../../d6/d73/TPCITSMatchingSpec_8cxx.html" target="_top" xlink:title="/home/travis/build\l/AliceO2Group/AliceO2\l/Detectors/GlobalTrackingWorkflow\l/src/TPCITSMatchingSpec.cxx">
<polygon fill="none" stroke="#000000" points="1054.5,-.5 1054.5,-52.5 1241.5,-52.5 1241.5,-.5 1054.5,-.5"/>
<text text-anchor="start" x="1062.5" y="-40.5" font-family="Helvetica,sans-Serif" font-size="10.00" fill="#000000">/home/travis/build</text>
<text text-anchor="start" x="1062.5" y="-29.5" font-family="Helvetica,sans-Serif" font-size="10.00" fill="#000000">/AliceO2Group/AliceO2</text>
<text text-anchor="start" x="1062.5" y="-18.5" font-family="Helvetica,sans-Serif" font-size="10.00" fill="#000000">/Detectors/GlobalTrackingWorkflow</text>
<text text-anchor="middle" x="1148" y="-7.5" font-family="Helvetica,sans-Serif" font-size="10.00" fill="#000000">/src/TPCITSMatchingSpec.cxx</text>
</a>
</g>
</g>
<!-- Node40&#45;&gt;Node43 -->
<g id="edge13" class="edge">
<title>Node40&#45;&gt;Node43</title>
<path fill="none" stroke="#191970" d="M1106.2607,-81.2829C1113.6308,-71.6095 1121.3304,-61.5038 1128.0806,-52.6442"/>
<polygon fill="#191970" stroke="#191970" points="1103.4517,-79.1945 1100.1753,-89.27 1109.0197,-83.4368 1103.4517,-79.1945"/>
</g>
<!-- Node45 -->
<g id="node15" class="node">
<title>Node45</title>
<g id="a_node15"><a xlink:href="../../d8/d11/PrimaryVertexingSpec_8h.html" target="_top" xlink:title="/home/travis/build\l/AliceO2Group/AliceO2\l/Detectors/GlobalTrackingWorkflow\l/include/GlobalTrackingWorkflow\l/PrimaryVertexingSpec.h">
<polygon fill="none" stroke="#000000" points="1253.5,-89.5 1253.5,-152.5 1440.5,-152.5 1440.5,-89.5 1253.5,-89.5"/>
<text text-anchor="start" x="1261.5" y="-140.5" font-family="Helvetica,sans-Serif" font-size="10.00" fill="#000000">/home/travis/build</text>
<text text-anchor="start" x="1261.5" y="-129.5" font-family="Helvetica,sans-Serif" font-size="10.00" fill="#000000">/AliceO2Group/AliceO2</text>
<text text-anchor="start" x="1261.5" y="-118.5" font-family="Helvetica,sans-Serif" font-size="10.00" fill="#000000">/Detectors/GlobalTrackingWorkflow</text>
<text text-anchor="start" x="1261.5" y="-107.5" font-family="Helvetica,sans-Serif" font-size="10.00" fill="#000000">/include/GlobalTrackingWorkflow</text>
<text text-anchor="middle" x="1347" y="-96.5" font-family="Helvetica,sans-Serif" font-size="10.00" fill="#000000">/PrimaryVertexingSpec.h</text>
</a>
</g>
</g>
<!-- Node44&#45;&gt;Node45 -->
<g id="edge15" class="edge">
<title>Node44&#45;&gt;Node45</title>
<path fill="none" stroke="#191970" d="M1347,-179.1424C1347,-170.4277 1347,-161.1902 1347,-152.7054"/>
<polygon fill="#191970" stroke="#191970" points="1343.5001,-179.4273 1347,-189.4273 1350.5001,-179.4273 1343.5001,-179.4273"/>
</g>
<!-- Node48 -->
<g id="node18" class="node">
<title>Node48</title>
<g id="a_node18"><a xlink:href="../../da/d7a/PVertexer_8cxx.html" target="_top" xlink:title="Primary vertex finder. ">
<polygon fill="none" stroke="#000000" points="1459,-95 1459,-147 1593,-147 1593,-95 1459,-95"/>
<text text-anchor="start" x="1467" y="-135" font-family="Helvetica,sans-Serif" font-size="10.00" fill="#000000">/home/travis/build</text>
<text text-anchor="start" x="1467" y="-124" font-family="Helvetica,sans-Serif" font-size="10.00" fill="#000000">/AliceO2Group/AliceO2</text>
<text text-anchor="start" x="1467" y="-113" font-family="Helvetica,sans-Serif" font-size="10.00" fill="#000000">/Detectors/Vertexing/src</text>
<text text-anchor="middle" x="1526" y="-102" font-family="Helvetica,sans-Serif" font-size="10.00" fill="#000000">/PVertexer.cxx</text>
</a>
</g>
</g>
<!-- Node44&#45;&gt;Node48 -->
<g id="edge20" class="edge">
<title>Node44&#45;&gt;Node48</title>
<path fill="none" stroke="#191970" d="M1405.3531,-184.6935C1428.3271,-172.5648 1454.4293,-158.7845 1476.4644,-147.1515"/>
<polygon fill="#191970" stroke="#191970" points="1403.5956,-181.6634 1396.3864,-189.4273 1406.8637,-187.8537 1403.5956,-181.6634"/>
</g>
<!-- Node45&#45;&gt;Node35 -->
<g id="edge17" class="edge">
<title>Node45&#45;&gt;Node35</title>
<path fill="none" stroke="#191970" d="M1243.2632,-98.7581C1185.1158,-85.9919 1111.3543,-69.3009 1046,-53 1043.1205,-52.2818 1040.1956,-51.5421 1037.2442,-50.7869"/>
<polygon fill="#191970" stroke="#191970" points="1242.6761,-102.2124 1253.1935,-100.9335 1244.1741,-95.3746 1242.6761,-102.2124"/>
</g>
<!-- Node45&#45;&gt;Node41 -->
<g id="edge16" class="edge">
<title>Node45&#45;&gt;Node41</title>
<path fill="none" stroke="#191970" d="M1347,-79.2457C1347,-70.2008 1347,-60.8836 1347,-52.6442"/>
<polygon fill="#191970" stroke="#191970" points="1343.5001,-79.2699 1347,-89.27 1350.5001,-79.27 1343.5001,-79.2699"/>
</g>
<!-- Node46 -->
<g id="node16" class="node">
<title>Node46</title>
<g id="a_node16"><a xlink:href="../../d2/dfc/primary-vertexing-workflow_8cxx.html" target="_top" xlink:title="/home/travis/build\l/AliceO2Group/AliceO2\l/Detectors/GlobalTrackingWorkflow\l/src/primary&#45;vertexing&#45;workflow.cxx">
<polygon fill="none" stroke="#000000" points="1453.5,-.5 1453.5,-52.5 1646.5,-52.5 1646.5,-.5 1453.5,-.5"/>
<text text-anchor="start" x="1461.5" y="-40.5" font-family="Helvetica,sans-Serif" font-size="10.00" fill="#000000">/home/travis/build</text>
<text text-anchor="start" x="1461.5" y="-29.5" font-family="Helvetica,sans-Serif" font-size="10.00" fill="#000000">/AliceO2Group/AliceO2</text>
<text text-anchor="start" x="1461.5" y="-18.5" font-family="Helvetica,sans-Serif" font-size="10.00" fill="#000000">/Detectors/GlobalTrackingWorkflow</text>
<text text-anchor="middle" x="1550" y="-7.5" font-family="Helvetica,sans-Serif" font-size="10.00" fill="#000000">/src/primary&#45;vertexing&#45;workflow.cxx</text>
</a>
</g>
</g>
<!-- Node45&#45;&gt;Node46 -->
<g id="edge18" class="edge">
<title>Node45&#45;&gt;Node46</title>
<path fill="none" stroke="#191970" d="M1424.0358,-85.1385C1447.3045,-74.3065 1472.3972,-62.6254 1494.0156,-52.5617"/>
<polygon fill="#191970" stroke="#191970" points="1422.467,-82.0081 1414.8783,-89.4015 1425.4212,-88.3542 1422.467,-82.0081"/>
</g>
<!-- Node47 -->
<g id="node17" class="node">
<title>Node47</title>
<g id="a_node17"><a xlink:href="../../db/d2d/PrimaryVertexingSpec_8cxx.html" target="_top" xlink:title="/home/travis/build\l/AliceO2Group/AliceO2\l/Detectors/GlobalTrackingWorkflow\l/src/PrimaryVertexingSpec.cxx">
<polygon fill="none" stroke="#000000" points="1664.5,-.5 1664.5,-52.5 1851.5,-52.5 1851.5,-.5 1664.5,-.5"/>
<text text-anchor="start" x="1672.5" y="-40.5" font-family="Helvetica,sans-Serif" font-size="10.00" fill="#000000">/home/travis/build</text>
<text text-anchor="start" x="1672.5" y="-29.5" font-family="Helvetica,sans-Serif" font-size="10.00" fill="#000000">/AliceO2Group/AliceO2</text>
<text text-anchor="start" x="1672.5" y="-18.5" font-family="Helvetica,sans-Serif" font-size="10.00" fill="#000000">/Detectors/GlobalTrackingWorkflow</text>
<text text-anchor="middle" x="1758" y="-7.5" font-family="Helvetica,sans-Serif" font-size="10.00" fill="#000000">/src/PrimaryVertexingSpec.cxx</text>
</a>
</g>
</g>
<!-- Node45&#45;&gt;Node47 -->
<g id="edge19" class="edge">
<title>Node45&#45;&gt;Node47</title>
<path fill="none" stroke="#191970" d="M1450.5769,-88.9812C1542.1167,-67.5163 1568.2736,-72.0284 1656,-53 1658.7715,-52.3989 1661.5812,-51.7734 1664.4145,-51.1287"/>
<polygon fill="#191970" stroke="#191970" points="1449.5217,-85.6346 1440.607,-91.3598 1451.1463,-92.4435 1449.5217,-85.6346"/>
</g>
</g>
</svg>
        <g id="navigator" transform="translate(0 0)" fill="#404254">
                <rect fill="#f2f5e9" fill-opacity="0.5" stroke="#606060" stroke-width=".5" x="0" y="0" width="60" height="60"/>
                <use id="zoomplus" xlink:href="#zoomPlus" x="17" y="9" onmousedown="handleZoom(evt,'in')"/>
                <use id="zoomminus" xlink:href="#zoomMin" x="42" y="9" onmousedown="handleZoom(evt,'out')"/>
                <use id="reset" xlink:href="#resetDef" x="30" y="36" onmousedown="handleReset()"/>
                <g id="arrowUp" xlink:href="#dirArrow" transform="translate(30 24)" onmousedown="handlePan(0,-1)">
                  <use xlink:href="#rim" fill="#404040">
                        <set attributeName="fill" to="#808080" begin="arrowUp.mouseover" end="arrowUp.mouseout"/>
                  </use>
                  <path fill="none" stroke="white" stroke-width="1.5" d="M0,-3.0v7 M-2.5,-0.5L0,-3.0L2.5,-0.5"/>
                </g>
                <g id="arrowRight" xlink:href="#dirArrow" transform="rotate(90) translate(36 -43)" onmousedown="handlePan(1,0)">
                  <use xlink:href="#rim" fill="#404040">
                        <set attributeName="fill" to="#808080" begin="arrowRight.mouseover" end="arrowRight.mouseout"/>
                  </use>
                  <path fill="none" stroke="white" stroke-width="1.5" d="M0,-3.0v7 M-2.5,-0.5L0,-3.0L2.5,-0.5"/>
                </g>
                <g id="arrowDown" xlink:href="#dirArrow" transform="rotate(180) translate(-30 -48)" onmousedown="handlePan(0,1)">
                  <use xlink:href="#rim" fill="#404040">
                        <set attributeName="fill" to="#808080" begin="arrowDown.mouseover" end="arrowDown.mouseout"/>
                  </use>
                  <path fill="none" stroke="white" stroke-width="1.5" d="M0,-3.0v7 M-2.5,-0.5L0,-3.0L2.5,-0.5"/>
                </g>
                <g id="arrowLeft" xlink:href="#dirArrow" transform="rotate(270) translate(-36 17)" onmousedown="handlePan(-1,0)">
                  <use xlink:href="#rim" fill="#404040">
                        <set attributeName="fill" to="#808080" begin="arrowLeft.mouseover" end="arrowLeft.mouseout"/>
                  </use>
                  <path fill="none" stroke="white" stroke-width="1.5" d="M0,-3.0v7 M-2.5,-0.5L0,-3.0L2.5,-0.5"/>
                </g>
        </g>
        <svg viewBox="0 0 15 15" width="100%" height="30px" preserveAspectRatio="xMaxYMin meet">
         <g id="arrow_out" transform="scale(0.3 0.3)">
          <a xlink:href="InteractionTag_8h__dep__incl_org.svg" target="_base">
           <rect id="button" ry="5" rx="5" y="6" x="6" height="38" width="38"
                fill="#f2f5e9" fill-opacity="0.5" stroke="#606060" stroke-width="1.0"/>
           <path id="arrow"
             d="M 11.500037,31.436501 C 11.940474,20.09759 22.043105,11.32322 32.158766,21.979434 L 37.068811,17.246167 C 37.068811,17.246167 37.088388,32 37.088388,32 L 22.160133,31.978069 C 22.160133,31.978069 26.997745,27.140456 26.997745,27.140456 C 18.528582,18.264221 13.291696,25.230495 11.500037,31.436501 z"
             style="fill:#404040;"/>
          </a>
         </g>
        </svg>
</svg>
