<?xml version="1.0" encoding="UTF-8" standalone="no"?>
<!DOCTYPE svg PUBLIC "-//W3C//DTD SVG 1.1//EN"
 "http://www.w3.org/Graphics/SVG/1.1/DTD/svg11.dtd">
<!-- Generated by graphviz version 2.40.1 (20161225.0304)
 -->
<!-- Title: /home/travis/build/AliceO2Group/AliceO2/Common/Utils/include/CommonUtils/TreeStreamRedirector.h Pages: 1 -->
<svg width="1445pt" height="339pt"
 viewBox="0.00 0.00 1444.50 339.00" xmlns="http://www.w3.org/2000/svg" xmlns:xlink="http://www.w3.org/1999/xlink">
<g id="graph0" class="graph" transform="scale(1 1) rotate(0) translate(4 335)">
<title>/home/travis/build/AliceO2Group/AliceO2/Common/Utils/include/CommonUtils/TreeStreamRedirector.h</title>
<!-- Node7 -->
<g id="node1" class="node">
<title>Node7</title>
<polygon fill="#bfbfbf" stroke="#000000" points="508.5,-278.5 508.5,-330.5 711.5,-330.5 711.5,-278.5 508.5,-278.5"/>
<text text-anchor="start" x="516.5" y="-318.5" font-family="Helvetica,sans-Serif" font-size="10.00" fill="#000000">/home/travis/build</text>
<text text-anchor="start" x="516.5" y="-307.5" font-family="Helvetica,sans-Serif" font-size="10.00" fill="#000000">/AliceO2Group/AliceO2</text>
<text text-anchor="start" x="516.5" y="-296.5" font-family="Helvetica,sans-Serif" font-size="10.00" fill="#000000">/Common/Utils/include</text>
<text text-anchor="middle" x="610" y="-285.5" font-family="Helvetica,sans-Serif" font-size="10.00" fill="#000000">/CommonUtils/TreeStreamRedirector.h</text>
</g>
<!-- Node8 -->
<g id="node2" class="node">
<title>Node8</title>
<g id="a_node2"><a xlink:href="../../d8/dc3/TreeStreamRedirector_8cxx.html" target="_top" xlink:title="/home/travis/build\l/AliceO2Group/AliceO2\l/Common/Utils/src/TreeStream\lRedirector.cxx">
<polygon fill="none" stroke="#000000" points="13.5,-189.5 13.5,-241.5 178.5,-241.5 178.5,-189.5 13.5,-189.5"/>
<text text-anchor="start" x="21.5" y="-229.5" font-family="Helvetica,sans-Serif" font-size="10.00" fill="#000000">/home/travis/build</text>
<text text-anchor="start" x="21.5" y="-218.5" font-family="Helvetica,sans-Serif" font-size="10.00" fill="#000000">/AliceO2Group/AliceO2</text>
<text text-anchor="start" x="21.5" y="-207.5" font-family="Helvetica,sans-Serif" font-size="10.00" fill="#000000">/Common/Utils/src/TreeStream</text>
<text text-anchor="middle" x="96" y="-196.5" font-family="Helvetica,sans-Serif" font-size="10.00" fill="#000000">Redirector.cxx</text>
</a>
</g>
</g>
<!-- Node7&#45;&gt;Node8 -->
<g id="edge1" class="edge">
<title>Node7&#45;&gt;Node8</title>
<path fill="none" stroke="#191970" d="M498.4311,-292.2391C412.7032,-281.8014 291.6444,-264.8553 187,-242 184.2671,-241.4031 181.4959,-240.7686 178.7035,-240.1042"/>
<polygon fill="#191970" stroke="#191970" points="498.0971,-295.7241 508.4446,-293.4482 498.9364,-288.7746 498.0971,-295.7241"/>
</g>
<!-- Node9 -->
<g id="node3" class="node">
<title>Node9</title>
<g id="a_node3"><a xlink:href="../../dd/d75/testTreeStream_8cxx.html" target="_top" xlink:title="/home/travis/build\l/AliceO2Group/AliceO2\l/Common/Utils/test/testTreeStream.cxx">
<polygon fill="none" stroke="#000000" points="196.5,-195 196.5,-236 405.5,-236 405.5,-195 196.5,-195"/>
<text text-anchor="start" x="204.5" y="-224" font-family="Helvetica,sans-Serif" font-size="10.00" fill="#000000">/home/travis/build</text>
<text text-anchor="start" x="204.5" y="-213" font-family="Helvetica,sans-Serif" font-size="10.00" fill="#000000">/AliceO2Group/AliceO2</text>
<text text-anchor="middle" x="301" y="-202" font-family="Helvetica,sans-Serif" font-size="10.00" fill="#000000">/Common/Utils/test/testTreeStream.cxx</text>
</a>
</g>
</g>
<!-- Node7&#45;&gt;Node9 -->
<g id="edge2" class="edge">
<title>Node7&#45;&gt;Node9</title>
<path fill="none" stroke="#191970" d="M509.6466,-275.5956C464.8988,-262.7071 413.2135,-247.8204 372.4799,-236.0881"/>
<polygon fill="#191970" stroke="#191970" points="508.7996,-278.9939 519.3777,-278.3984 510.737,-272.2673 508.7996,-278.9939"/>
</g>
<!-- Node10 -->
<g id="node4" class="node">
<title>Node10</title>
<g id="a_node4"><a xlink:href="../../d0/daa/MatLayerCylSet_8cxx.html" target="_top" xlink:title="Implementation of the wrapper for the set of cylindrical material layers. ">
<polygon fill="none" stroke="#000000" points="423.5,-189.5 423.5,-241.5 582.5,-241.5 582.5,-189.5 423.5,-189.5"/>
<text text-anchor="start" x="431.5" y="-229.5" font-family="Helvetica,sans-Serif" font-size="10.00" fill="#000000">/home/travis/build</text>
<text text-anchor="start" x="431.5" y="-218.5" font-family="Helvetica,sans-Serif" font-size="10.00" fill="#000000">/AliceO2Group/AliceO2</text>
<text text-anchor="start" x="431.5" y="-207.5" font-family="Helvetica,sans-Serif" font-size="10.00" fill="#000000">/Detectors/Base/src/MatLayer</text>
<text text-anchor="middle" x="503" y="-196.5" font-family="Helvetica,sans-Serif" font-size="10.00" fill="#000000">CylSet.cxx</text>
</a>
</g>
</g>
<!-- Node7&#45;&gt;Node10 -->
<g id="edge3" class="edge">
<title>Node7&#45;&gt;Node10</title>
<path fill="none" stroke="#191970" d="M570.7601,-271.8612C558.7504,-261.8718 545.7065,-251.0222 534.2995,-241.5341"/>
<polygon fill="#191970" stroke="#191970" points="568.5489,-274.5745 578.4752,-278.2784 573.0253,-269.1928 568.5489,-274.5745"/>
</g>
<!-- Node11 -->
<g id="node5" class="node">
<title>Node11</title>
<g id="a_node5"><a xlink:href="../../d0/d74/MatchTOF_8h.html" target="_top" xlink:title="Class to perform TOF matching to global tracks. ">
<polygon fill="none" stroke="#000000" points="495,-95 495,-147 683,-147 683,-95 495,-95"/>
<text text-anchor="start" x="503" y="-135" font-family="Helvetica,sans-Serif" font-size="10.00" fill="#000000">/home/travis/build</text>
<text text-anchor="start" x="503" y="-124" font-family="Helvetica,sans-Serif" font-size="10.00" fill="#000000">/AliceO2Group/AliceO2</text>
<text text-anchor="start" x="503" y="-113" font-family="Helvetica,sans-Serif" font-size="10.00" fill="#000000">/Detectors/GlobalTracking</text>
<text text-anchor="middle" x="589" y="-102" font-family="Helvetica,sans-Serif" font-size="10.00" fill="#000000">/include/GlobalTracking/MatchTOF.h</text>
</a>
</g>
</g>
<!-- Node7&#45;&gt;Node11 -->
<g id="edge4" class="edge">
<title>Node7&#45;&gt;Node11</title>
<path fill="none" stroke="#191970" d="M605.8466,-268.2071C601.7645,-232.5371 595.6341,-178.9692 592.0032,-147.2423"/>
<polygon fill="#191970" stroke="#191970" points="602.3768,-268.6717 606.9912,-278.2089 609.3314,-267.8758 602.3768,-268.6717"/>
</g>
<!-- Node16 -->
<g id="node10" class="node">
<title>Node16</title>
<g id="a_node10"><a xlink:href="../../d3/dac/MatchTPCITS_8h.html" target="_top" xlink:title="Class to perform TPC ITS matching. ">
<polygon fill="none" stroke="#000000" points="638.5,-189.5 638.5,-241.5 843.5,-241.5 843.5,-189.5 638.5,-189.5"/>
<text text-anchor="start" x="646.5" y="-229.5" font-family="Helvetica,sans-Serif" font-size="10.00" fill="#000000">/home/travis/build</text>
<text text-anchor="start" x="646.5" y="-218.5" font-family="Helvetica,sans-Serif" font-size="10.00" fill="#000000">/AliceO2Group/AliceO2</text>
<text text-anchor="start" x="646.5" y="-207.5" font-family="Helvetica,sans-Serif" font-size="10.00" fill="#000000">/Detectors/GlobalTracking</text>
<text text-anchor="middle" x="741" y="-196.5" font-family="Helvetica,sans-Serif" font-size="10.00" fill="#000000">/include/GlobalTracking/MatchTPCITS.h</text>
</a>
</g>
</g>
<!-- Node7&#45;&gt;Node16 -->
<g id="edge9" class="edge">
<title>Node7&#45;&gt;Node16</title>
<path fill="none" stroke="#191970" d="M657.2026,-272.431C672.1358,-262.2856 688.4484,-251.203 702.6801,-241.5341"/>
<polygon fill="#191970" stroke="#191970" points="654.9005,-269.7637 648.5958,-278.2784 658.8343,-275.5538 654.9005,-269.7637"/>
</g>
<!-- Node22 -->
<g id="node16" class="node">
<title>Node22</title>
<g id="a_node16"><a xlink:href="../../d7/dc4/StandaloneDebugger_8cxx.html" target="_top" xlink:title="/home/travis/build\l/AliceO2Group/AliceO2\l/Detectors/ITSMFT/ITS\l/tracking/src/StandaloneDebugger.cxx">
<polygon fill="none" stroke="#000000" points="861.5,-189.5 861.5,-241.5 1062.5,-241.5 1062.5,-189.5 861.5,-189.5"/>
<text text-anchor="start" x="869.5" y="-229.5" font-family="Helvetica,sans-Serif" font-size="10.00" fill="#000000">/home/travis/build</text>
<text text-anchor="start" x="869.5" y="-218.5" font-family="Helvetica,sans-Serif" font-size="10.00" fill="#000000">/AliceO2Group/AliceO2</text>
<text text-anchor="start" x="869.5" y="-207.5" font-family="Helvetica,sans-Serif" font-size="10.00" fill="#000000">/Detectors/ITSMFT/ITS</text>
<text text-anchor="middle" x="962" y="-196.5" font-family="Helvetica,sans-Serif" font-size="10.00" fill="#000000">/tracking/src/StandaloneDebugger.cxx</text>
</a>
</g>
</g>
<!-- Node7&#45;&gt;Node22 -->
<g id="edge17" class="edge">
<title>Node7&#45;&gt;Node22</title>
<path fill="none" stroke="#191970" d="M721.5682,-276.291C766.3847,-264.9595 817.6678,-251.9931 861.3279,-240.954"/>
<polygon fill="#191970" stroke="#191970" points="720.6499,-272.9129 711.813,-278.7575 722.3659,-279.6994 720.6499,-272.9129"/>
</g>
<!-- Node23 -->
<g id="node17" class="node">
<title>Node23</title>
<g id="a_node17"><a xlink:href="../../dd/de2/testDCAFitterN_8cxx.html" target="_top" xlink:title="/home/travis/build\l/AliceO2Group/AliceO2\l/Detectors/Vertexing/test\l/testDCAFitterN.cxx">
<polygon fill="none" stroke="#000000" points="1081,-189.5 1081,-241.5 1219,-241.5 1219,-189.5 1081,-189.5"/>
<text text-anchor="start" x="1089" y="-229.5" font-family="Helvetica,sans-Serif" font-size="10.00" fill="#000000">/home/travis/build</text>
<text text-anchor="start" x="1089" y="-218.5" font-family="Helvetica,sans-Serif" font-size="10.00" fill="#000000">/AliceO2Group/AliceO2</text>
<text text-anchor="start" x="1089" y="-207.5" font-family="Helvetica,sans-Serif" font-size="10.00" fill="#000000">/Detectors/Vertexing/test</text>
<text text-anchor="middle" x="1150" y="-196.5" font-family="Helvetica,sans-Serif" font-size="10.00" fill="#000000">/testDCAFitterN.cxx</text>
</a>
</g>
</g>
<!-- Node7&#45;&gt;Node23 -->
<g id="edge18" class="edge">
<title>Node7&#45;&gt;Node23</title>
<path fill="none" stroke="#191970" d="M721.8222,-295.3025C815.8506,-286.1517 953.3712,-269.4428 1071,-242 1074.2402,-241.244 1077.5359,-240.41 1080.851,-239.5181"/>
<polygon fill="#191970" stroke="#191970" points="721.3396,-291.8326 711.7201,-296.2728 722.009,-298.8006 721.3396,-291.8326"/>
</g>
<!-- Node12 -->
<g id="node6" class="node">
<title>Node12</title>
<g id="a_node6"><a xlink:href="../../d6/dc9/AODProducerWorkflowSpec_8cxx.html" target="_top" xlink:title="/home/travis/build\l/AliceO2Group/AliceO2\l/Detectors/AOD/src/AODProducer\lWorkflowSpec.cxx">
<polygon fill="none" stroke="#000000" points="0,-.5 0,-52.5 176,-52.5 176,-.5 0,-.5"/>
<text text-anchor="start" x="8" y="-40.5" font-family="Helvetica,sans-Serif" font-size="10.00" fill="#000000">/home/travis/build</text>
<text text-anchor="start" x="8" y="-29.5" font-family="Helvetica,sans-Serif" font-size="10.00" fill="#000000">/AliceO2Group/AliceO2</text>
<text text-anchor="start" x="8" y="-18.5" font-family="Helvetica,sans-Serif" font-size="10.00" fill="#000000">/Detectors/AOD/src/AODProducer</text>
<text text-anchor="middle" x="88" y="-7.5" font-family="Helvetica,sans-Serif" font-size="10.00" fill="#000000">WorkflowSpec.cxx</text>
</a>
</g>
</g>
<!-- Node11&#45;&gt;Node12 -->
<g id="edge5" class="edge">
<title>Node11&#45;&gt;Node12</title>
<path fill="none" stroke="#191970" d="M484.5467,-106.3506C402.6484,-94.1595 286.021,-75.2427 185,-53 182.1017,-52.3618 179.1605,-51.6916 176.195,-50.9963"/>
<polygon fill="#191970" stroke="#191970" points="484.2046,-109.8381 494.6095,-107.8407 485.2301,-102.9136 484.2046,-109.8381"/>
</g>
<!-- Node13 -->
<g id="node7" class="node">
<title>Node13</title>
<g id="a_node7"><a xlink:href="../../db/d6a/MatchTOF_8cxx.html" target="_top" xlink:title="/home/travis/build\l/AliceO2Group/AliceO2\l/Detectors/GlobalTracking\l/src/MatchTOF.cxx">
<polygon fill="none" stroke="#000000" points="691,-.5 691,-52.5 833,-52.5 833,-.5 691,-.5"/>
<text text-anchor="start" x="699" y="-40.5" font-family="Helvetica,sans-Serif" font-size="10.00" fill="#000000">/home/travis/build</text>
<text text-anchor="start" x="699" y="-29.5" font-family="Helvetica,sans-Serif" font-size="10.00" fill="#000000">/AliceO2Group/AliceO2</text>
<text text-anchor="start" x="699" y="-18.5" font-family="Helvetica,sans-Serif" font-size="10.00" fill="#000000">/Detectors/GlobalTracking</text>
<text text-anchor="middle" x="762" y="-7.5" font-family="Helvetica,sans-Serif" font-size="10.00" fill="#000000">/src/MatchTOF.cxx</text>
</a>
</g>
</g>
<!-- Node11&#45;&gt;Node13 -->
<g id="edge6" class="edge">
<title>Node11&#45;&gt;Node13</title>
<path fill="none" stroke="#191970" d="M645.6921,-90.0324C667.8242,-77.9429 692.9225,-64.2331 714.1248,-52.6515"/>
<polygon fill="#191970" stroke="#191970" points="643.8292,-87.0618 636.731,-94.9273 647.1849,-93.205 643.8292,-87.0618"/>
</g>
<!-- Node14 -->
<g id="node8" class="node">
<title>Node14</title>
<g id="a_node8"><a xlink:href="../../d8/d84/RecoWorkflowSpec_8cxx.html" target="_top" xlink:title="/home/travis/build\l/AliceO2Group/AliceO2\l/Detectors/GlobalTrackingWorkflow\l/tofworkflow/src/RecoWorkflowSpec.cxx">
<polygon fill="none" stroke="#000000" points="194.5,-.5 194.5,-52.5 403.5,-52.5 403.5,-.5 194.5,-.5"/>
<text text-anchor="start" x="202.5" y="-40.5" font-family="Helvetica,sans-Serif" font-size="10.00" fill="#000000">/home/travis/build</text>
<text text-anchor="start" x="202.5" y="-29.5" font-family="Helvetica,sans-Serif" font-size="10.00" fill="#000000">/AliceO2Group/AliceO2</text>
<text text-anchor="start" x="202.5" y="-18.5" font-family="Helvetica,sans-Serif" font-size="10.00" fill="#000000">/Detectors/GlobalTrackingWorkflow</text>
<text text-anchor="middle" x="299" y="-7.5" font-family="Helvetica,sans-Serif" font-size="10.00" fill="#000000">/tofworkflow/src/RecoWorkflowSpec.cxx</text>
</a>
</g>
</g>
<!-- Node11&#45;&gt;Node14 -->
<g id="edge7" class="edge">
<title>Node11&#45;&gt;Node14</title>
<path fill="none" stroke="#191970" d="M499.3512,-91.7869C460.8943,-79.2552 416.3255,-64.7319 379.0017,-52.5695"/>
<polygon fill="#191970" stroke="#191970" points="498.3962,-95.1567 508.9886,-94.9273 500.565,-88.5012 498.3962,-95.1567"/>
</g>
<!-- Node15 -->
<g id="node9" class="node">
<title>Node15</title>
<g id="a_node9"><a xlink:href="../../d4/d76/RecoWorkflowWithTPCSpec_8cxx.html" target="_top" xlink:title="/home/travis/build\l/AliceO2Group/AliceO2\l/Detectors/GlobalTrackingWorkflow\l/tofworkflow/src/RecoWorkflowWithTPCSpec.cxx">
<polygon fill="none" stroke="#000000" points="421.5,-.5 421.5,-52.5 672.5,-52.5 672.5,-.5 421.5,-.5"/>
<text text-anchor="start" x="429.5" y="-40.5" font-family="Helvetica,sans-Serif" font-size="10.00" fill="#000000">/home/travis/build</text>
<text text-anchor="start" x="429.5" y="-29.5" font-family="Helvetica,sans-Serif" font-size="10.00" fill="#000000">/AliceO2Group/AliceO2</text>
<text text-anchor="start" x="429.5" y="-18.5" font-family="Helvetica,sans-Serif" font-size="10.00" fill="#000000">/Detectors/GlobalTrackingWorkflow</text>
<text text-anchor="middle" x="547" y="-7.5" font-family="Helvetica,sans-Serif" font-size="10.00" fill="#000000">/tofworkflow/src/RecoWorkflowWithTPCSpec.cxx</text>
</a>
</g>
</g>
<!-- Node11&#45;&gt;Node15 -->
<g id="edge8" class="edge">
<title>Node11&#45;&gt;Node15</title>
<path fill="none" stroke="#191970" d="M573.2918,-85.6565C568.4536,-74.7706 563.2145,-62.9827 558.6959,-52.8157"/>
<polygon fill="#191970" stroke="#191970" points="570.1523,-87.2107 577.4121,-94.9273 576.549,-84.3677 570.1523,-87.2107"/>
</g>
<!-- Node16&#45;&gt;Node11 -->
<g id="edge10" class="edge">
<title>Node16&#45;&gt;Node11</title>
<path fill="none" stroke="#191970" d="M690.4104,-184.0479C671.1566,-172.0776 649.444,-158.5786 631.0638,-147.1515"/>
<polygon fill="#191970" stroke="#191970" points="688.7225,-187.1198 699.063,-189.4273 692.4184,-181.175 688.7225,-187.1198"/>
</g>
<!-- Node16&#45;&gt;Node13 -->
<g id="edge11" class="edge">
<title>Node16&#45;&gt;Node13</title>
<path fill="none" stroke="#191970" d="M745.0733,-178.8402C749.1955,-141.7407 755.4651,-85.3142 759.1048,-52.5564"/>
<polygon fill="#191970" stroke="#191970" points="741.5458,-178.895 743.92,-189.2204 748.503,-179.6681 741.5458,-178.895"/>
</g>
<!-- Node17 -->
<g id="node11" class="node">
<title>Node17</title>
<g id="a_node11"><a xlink:href="../../dc/d59/MatchTPCITS_8cxx.html" target="_top" xlink:title="/home/travis/build\l/AliceO2Group/AliceO2\l/Detectors/GlobalTracking\l/src/MatchTPCITS.cxx">
<polygon fill="none" stroke="#000000" points="769,-95 769,-147 911,-147 911,-95 769,-95"/>
<text text-anchor="start" x="777" y="-135" font-family="Helvetica,sans-Serif" font-size="10.00" fill="#000000">/home/travis/build</text>
<text text-anchor="start" x="777" y="-124" font-family="Helvetica,sans-Serif" font-size="10.00" fill="#000000">/AliceO2Group/AliceO2</text>
<text text-anchor="start" x="777" y="-113" font-family="Helvetica,sans-Serif" font-size="10.00" fill="#000000">/Detectors/GlobalTracking</text>
<text text-anchor="middle" x="840" y="-102" font-family="Helvetica,sans-Serif" font-size="10.00" fill="#000000">/src/MatchTPCITS.cxx</text>
</a>
</g>
</g>
<!-- Node16&#45;&gt;Node17 -->
<g id="edge12" class="edge">
<title>Node16&#45;&gt;Node17</title>
<path fill="none" stroke="#191970" d="M775.6225,-182.4512C787.676,-170.9457 801.0269,-158.2016 812.4312,-147.3157"/>
<polygon fill="#191970" stroke="#191970" points="773.1312,-179.9908 768.3143,-189.4273 777.9645,-185.0543 773.1312,-179.9908"/>
</g>
<!-- Node18 -->
<g id="node12" class="node">
<title>Node18</title>
<g id="a_node12"><a xlink:href="../../da/d20/TPCITSMatchingSpec_8h.html" target="_top" xlink:title="/home/travis/build\l/AliceO2Group/AliceO2\l/Detectors/GlobalTrackingWorkflow\l/include/GlobalTrackingWorkflow\l/TPCITSMatchingSpec.h">
<polygon fill="none" stroke="#000000" points="997.5,-89.5 997.5,-152.5 1184.5,-152.5 1184.5,-89.5 997.5,-89.5"/>
<text text-anchor="start" x="1005.5" y="-140.5" font-family="Helvetica,sans-Serif" font-size="10.00" fill="#000000">/home/travis/build</text>
<text text-anchor="start" x="1005.5" y="-129.5" font-family="Helvetica,sans-Serif" font-size="10.00" fill="#000000">/AliceO2Group/AliceO2</text>
<text text-anchor="start" x="1005.5" y="-118.5" font-family="Helvetica,sans-Serif" font-size="10.00" fill="#000000">/Detectors/GlobalTrackingWorkflow</text>
<text text-anchor="start" x="1005.5" y="-107.5" font-family="Helvetica,sans-Serif" font-size="10.00" fill="#000000">/include/GlobalTrackingWorkflow</text>
<text text-anchor="middle" x="1091" y="-96.5" font-family="Helvetica,sans-Serif" font-size="10.00" fill="#000000">/TPCITSMatchingSpec.h</text>
</a>
</g>
</g>
<!-- Node16&#45;&gt;Node18 -->
<g id="edge13" class="edge">
<title>Node16&#45;&gt;Node18</title>
<path fill="none" stroke="#191970" d="M847.3374,-186.7889C895.2069,-173.8641 951.2226,-158.7399 997.4678,-146.2537"/>
<polygon fill="#191970" stroke="#191970" points="846.3075,-183.4416 837.5655,-189.4273 848.1322,-190.1996 846.3075,-183.4416"/>
</g>
<!-- Node19 -->
<g id="node13" class="node">
<title>Node19</title>
<g id="a_node13"><a xlink:href="../../df/de7/AODProducerWorkflow_8cxx.html" target="_top" xlink:title="/home/travis/build\l/AliceO2Group/AliceO2\l/Detectors/AOD/src/AODProducer\lWorkflow.cxx">
<polygon fill="none" stroke="#000000" points="851,-.5 851,-52.5 1027,-52.5 1027,-.5 851,-.5"/>
<text text-anchor="start" x="859" y="-40.5" font-family="Helvetica,sans-Serif" font-size="10.00" fill="#000000">/home/travis/build</text>
<text text-anchor="start" x="859" y="-29.5" font-family="Helvetica,sans-Serif" font-size="10.00" fill="#000000">/AliceO2Group/AliceO2</text>
<text text-anchor="start" x="859" y="-18.5" font-family="Helvetica,sans-Serif" font-size="10.00" fill="#000000">/Detectors/AOD/src/AODProducer</text>
<text text-anchor="middle" x="939" y="-7.5" font-family="Helvetica,sans-Serif" font-size="10.00" fill="#000000">Workflow.cxx</text>
</a>
</g>
</g>
<!-- Node18&#45;&gt;Node19 -->
<g id="edge14" class="edge">
<title>Node18&#45;&gt;Node19</title>
<path fill="none" stroke="#191970" d="M1031.2985,-83.883C1014.4992,-73.4387 996.585,-62.3012 981.052,-52.6442"/>
<polygon fill="#191970" stroke="#191970" points="1029.6228,-86.9624 1039.9634,-89.27 1033.3188,-81.0177 1029.6228,-86.9624"/>
</g>
<!-- Node20 -->
<g id="node14" class="node">
<title>Node20</title>
<g id="a_node14"><a xlink:href="../../d5/db4/MatchTPCITSWorkflow_8cxx.html" target="_top" xlink:title="/home/travis/build\l/AliceO2Group/AliceO2\l/Detectors/GlobalTrackingWorkflow\l/src/MatchTPCITSWorkflow.cxx">
<polygon fill="none" stroke="#000000" points="1044.5,-.5 1044.5,-52.5 1231.5,-52.5 1231.5,-.5 1044.5,-.5"/>
<text text-anchor="start" x="1052.5" y="-40.5" font-family="Helvetica,sans-Serif" font-size="10.00" fill="#000000">/home/travis/build</text>
<text text-anchor="start" x="1052.5" y="-29.5" font-family="Helvetica,sans-Serif" font-size="10.00" fill="#000000">/AliceO2Group/AliceO2</text>
<text text-anchor="start" x="1052.5" y="-18.5" font-family="Helvetica,sans-Serif" font-size="10.00" fill="#000000">/Detectors/GlobalTrackingWorkflow</text>
<text text-anchor="middle" x="1138" y="-7.5" font-family="Helvetica,sans-Serif" font-size="10.00" fill="#000000">/src/MatchTPCITSWorkflow.cxx</text>
</a>
</g>
</g>
<!-- Node18&#45;&gt;Node20 -->
<g id="edge15" class="edge">
<title>Node18&#45;&gt;Node20</title>
<path fill="none" stroke="#191970" d="M1111.3318,-80.1201C1115.9657,-70.8031 1120.767,-61.1494 1124.9971,-52.6442"/>
<polygon fill="#191970" stroke="#191970" points="1108.1005,-78.7576 1106.7811,-89.27 1114.3681,-81.8749 1108.1005,-78.7576"/>
</g>
<!-- Node21 -->
<g id="node15" class="node">
<title>Node21</title>
<g id="a_node15"><a xlink:href="../../d6/d73/TPCITSMatchingSpec_8cxx.html" target="_top" xlink:title="/home/travis/build\l/AliceO2Group/AliceO2\l/Detectors/GlobalTrackingWorkflow\l/src/TPCITSMatchingSpec.cxx">
<polygon fill="none" stroke="#000000" points="1249.5,-.5 1249.5,-52.5 1436.5,-52.5 1436.5,-.5 1249.5,-.5"/>
<text text-anchor="start" x="1257.5" y="-40.5" font-family="Helvetica,sans-Serif" font-size="10.00" fill="#000000">/home/travis/build</text>
<text text-anchor="start" x="1257.5" y="-29.5" font-family="Helvetica,sans-Serif" font-size="10.00" fill="#000000">/AliceO2Group/AliceO2</text>
<text text-anchor="start" x="1257.5" y="-18.5" font-family="Helvetica,sans-Serif" font-size="10.00" fill="#000000">/Detectors/GlobalTrackingWorkflow</text>
<text text-anchor="middle" x="1343" y="-7.5" font-family="Helvetica,sans-Serif" font-size="10.00" fill="#000000">/src/TPCITSMatchingSpec.cxx</text>
</a>
</g>
</g>
<!-- Node18&#45;&gt;Node21 -->
<g id="edge16" class="edge">
<title>Node18&#45;&gt;Node21</title>
<path fill="none" stroke="#191970" d="M1184.7168,-85.8562C1214.1355,-74.8242 1246.0718,-62.8481 1273.5022,-52.5617"/>
<polygon fill="#191970" stroke="#191970" points="1183.397,-82.613 1175.2627,-89.4015 1185.855,-89.1673 1183.397,-82.613"/>
</g>
</g>
</svg>
