<?xml version="1.0" encoding="UTF-8" standalone="no"?>
<!DOCTYPE svg PUBLIC "-//W3C//DTD SVG 1.1//EN"
 "http://www.w3.org/Graphics/SVG/1.1/DTD/svg11.dtd">
<!-- Generated by graphviz version 2.40.1 (20161225.0304)
 -->
<!-- Title: JetFinder Pages: 1 -->
<svg width="1329pt" height="490pt"
 viewBox="0.00 0.00 1329.00 490.00" xmlns="http://www.w3.org/2000/svg" xmlns:xlink="http://www.w3.org/1999/xlink">
<g id="graph0" class="graph" transform="scale(1 1) rotate(0) translate(4 486)">
<title>JetFinder</title>
<!-- Node1 -->
<g id="node1" class="node">
<title>Node1</title>
<polygon fill="#bfbfbf" stroke="#000000" points="523.5,-.5 523.5,-266.5 636.5,-266.5 636.5,-.5 523.5,-.5"/>
<text text-anchor="middle" x="580" y="-254.5" font-family="Helvetica,sans-Serif" font-size="10.00" fill="#000000">JetFinder</text>
<polyline fill="none" stroke="#000000" points="523.5,-247.5 636.5,-247.5 "/>
<text text-anchor="start" x="531.5" y="-235.5" font-family="Helvetica,sans-Serif" font-size="10.00" fill="#000000">+ phiMax</text>
<text text-anchor="start" x="531.5" y="-224.5" font-family="Helvetica,sans-Serif" font-size="10.00" fill="#000000">+ etaMin</text>
<text text-anchor="start" x="531.5" y="-213.5" font-family="Helvetica,sans-Serif" font-size="10.00" fill="#000000">+ etaMax</text>
<text text-anchor="start" x="531.5" y="-202.5" font-family="Helvetica,sans-Serif" font-size="10.00" fill="#000000">+ jetPtMin</text>
<text text-anchor="start" x="531.5" y="-191.5" font-family="Helvetica,sans-Serif" font-size="10.00" fill="#000000">+ jetPtMax</text>
<text text-anchor="start" x="531.5" y="-180.5" font-family="Helvetica,sans-Serif" font-size="10.00" fill="#000000">+ jetPhiMin</text>
<text text-anchor="start" x="531.5" y="-169.5" font-family="Helvetica,sans-Serif" font-size="10.00" fill="#000000">+ jetPhiMax</text>
<text text-anchor="start" x="531.5" y="-158.5" font-family="Helvetica,sans-Serif" font-size="10.00" fill="#000000">+ jetEtaMin</text>
<text text-anchor="start" x="531.5" y="-147.5" font-family="Helvetica,sans-Serif" font-size="10.00" fill="#000000">+ ghostEtaMin</text>
<text text-anchor="start" x="531.5" y="-136.5" font-family="Helvetica,sans-Serif" font-size="10.00" fill="#000000">+ jetBkgR</text>
<text text-anchor="start" x="531.5" y="-125.5" font-family="Helvetica,sans-Serif" font-size="10.00" fill="#000000">+ bkgPhiMin</text>
<text text-anchor="start" x="531.5" y="-114.5" font-family="Helvetica,sans-Serif" font-size="10.00" fill="#000000">+ bkgPhiMax</text>
<text text-anchor="start" x="531.5" y="-103.5" font-family="Helvetica,sans-Serif" font-size="10.00" fill="#000000">+ bkgEtaMin</text>
<text text-anchor="start" x="531.5" y="-92.5" font-family="Helvetica,sans-Serif" font-size="10.00" fill="#000000">+ bkgEtaMax</text>
<polyline fill="none" stroke="#000000" points="523.5,-85.5 636.5,-85.5 "/>
<text text-anchor="start" x="531.5" y="-73.5" font-family="Helvetica,sans-Serif" font-size="10.00" fill="#000000">+ setBkgSubMode()</text>
<text text-anchor="start" x="531.5" y="-62.5" font-family="Helvetica,sans-Serif" font-size="10.00" fill="#000000">+ JetFinder()</text>
<text text-anchor="start" x="531.5" y="-51.5" font-family="Helvetica,sans-Serif" font-size="10.00" fill="#000000">+ ~JetFinder()</text>
<text text-anchor="start" x="531.5" y="-40.5" font-family="Helvetica,sans-Serif" font-size="10.00" fill="#000000">+ setParams()</text>
<text text-anchor="start" x="531.5" y="-29.5" font-family="Helvetica,sans-Serif" font-size="10.00" fill="#000000">+ setBkgE()</text>
<text text-anchor="start" x="531.5" y="-18.5" font-family="Helvetica,sans-Serif" font-size="10.00" fill="#000000">+ setSub()</text>
<text text-anchor="start" x="531.5" y="-7.5" font-family="Helvetica,sans-Serif" font-size="10.00" fill="#000000">+ findJets()</text>
</g>
<!-- Node2 -->
<g id="node2" class="node">
<title>Node2</title>
<polygon fill="none" stroke="#bfbfbf" points="0,-424.5 0,-481.5 50,-481.5 50,-424.5 0,-424.5"/>
<text text-anchor="middle" x="25" y="-469.5" font-family="Helvetica,sans-Serif" font-size="10.00" fill="#000000">double</text>
<polyline fill="none" stroke="#bfbfbf" points="0,-462.5 50,-462.5 "/>
<text text-anchor="middle" x="25" y="-450.5" font-family="Helvetica,sans-Serif" font-size="10.00" fill="#000000"> </text>
<polyline fill="none" stroke="#bfbfbf" points="0,-443.5 50,-443.5 "/>
<text text-anchor="middle" x="25" y="-431.5" font-family="Helvetica,sans-Serif" font-size="10.00" fill="#000000"> </text>
</g>
<!-- Node2&#45;&gt;Node1 -->
<g id="edge1" class="edge">
<title>Node2&#45;&gt;Node1</title>
<path fill="none" stroke="#404040" d="M16.479,-424.3064C7.5459,-387.8261 -1.2746,-324.8114 30,-285 89.628,-209.0959 377.2965,-160.9505 511.1845,-142.296"/>
<polygon fill="none" stroke="#404040" points="511.3745,-142.2699 516.7736,-137.4898 523.2626,-140.6351 517.8635,-145.4152 511.3745,-142.2699"/>
<text text-anchor="middle" x="67.5" y="-343" font-family="Helvetica,sans-Serif" font-size="10.00" fill="#000000"> +ghostktMean</text>
</g>
<!-- Node3 -->
<g id="node3" class="node">
<title>Node3</title>
<polygon fill="none" stroke="#bfbfbf" points="95,-424.5 95,-481.5 151,-481.5 151,-424.5 95,-424.5"/>
<text text-anchor="middle" x="123" y="-469.5" font-family="Helvetica,sans-Serif" font-size="10.00" fill="#000000">Selector</text>
<polyline fill="none" stroke="#bfbfbf" points="95,-462.5 151,-462.5 "/>
<text text-anchor="middle" x="123" y="-450.5" font-family="Helvetica,sans-Serif" font-size="10.00" fill="#000000"> </text>
<polyline fill="none" stroke="#bfbfbf" points="95,-443.5 151,-443.5 "/>
<text text-anchor="middle" x="123" y="-431.5" font-family="Helvetica,sans-Serif" font-size="10.00" fill="#000000"> </text>
</g>
<!-- Node3&#45;&gt;Node1 -->
<g id="edge2" class="edge">
<title>Node3&#45;&gt;Node1</title>
<path fill="none" stroke="#404040" d="M115.3815,-424.1876C107.6149,-387.8686 100.5705,-325.322 131,-285 177.5599,-223.3038 397.6698,-170.5563 511.475,-146.8599"/>
<polygon fill="none" stroke="#404040" points="511.7252,-146.8084 516.7944,-141.6797 523.4783,-144.3863 518.4091,-149.515 511.7252,-146.8084"/>
<text text-anchor="middle" x="159.5" y="-354" font-family="Helvetica,sans-Serif" font-size="10.00" fill="#000000"> +selJets</text>
<text text-anchor="middle" x="159.5" y="-343" font-family="Helvetica,sans-Serif" font-size="10.00" fill="#000000">+selGhosts</text>
<text text-anchor="middle" x="159.5" y="-332" font-family="Helvetica,sans-Serif" font-size="10.00" fill="#000000">+selRho</text>
</g>
<!-- Node4 -->
<g id="node4" class="node">
<title>Node4</title>
<polygon fill="none" stroke="#bfbfbf" points="174,-424.5 174,-481.5 232,-481.5 232,-424.5 174,-424.5"/>
<text text-anchor="middle" x="203" y="-469.5" font-family="Helvetica,sans-Serif" font-size="10.00" fill="#000000">Strategy</text>
<polyline fill="none" stroke="#bfbfbf" points="174,-462.5 232,-462.5 "/>
<text text-anchor="middle" x="203" y="-450.5" font-family="Helvetica,sans-Serif" font-size="10.00" fill="#000000"> </text>
<polyline fill="none" stroke="#bfbfbf" points="174,-443.5 232,-443.5 "/>
<text text-anchor="middle" x="203" y="-431.5" font-family="Helvetica,sans-Serif" font-size="10.00" fill="#000000"> </text>
</g>
<!-- Node4&#45;&gt;Node1 -->
<g id="edge3" class="edge">
<title>Node4&#45;&gt;Node1</title>
<path fill="none" stroke="#404040" d="M196.4296,-424.433C189.8753,-388.3732 184.5427,-326.1002 214,-285 283.2794,-188.3382 425.9723,-153.1369 511.2821,-140.4698"/>
<polygon fill="none" stroke="#404040" points="511.2983,-140.4676 516.6817,-135.6698 523.181,-138.7938 517.7975,-143.5916 511.2983,-140.4676"/>
<text text-anchor="middle" x="249.5" y="-348.5" font-family="Helvetica,sans-Serif" font-size="10.00" fill="#000000"> +strategyBkg</text>
<text text-anchor="middle" x="249.5" y="-337.5" font-family="Helvetica,sans-Serif" font-size="10.00" fill="#000000">+strategy</text>
</g>
<!-- Node5 -->
<g id="node5" class="node">
<title>Node5</title>
<g id="a_node5"><a xlink:href="../../d4/dc3/classfloat.html" target="_top" xlink:title="{float\n||}">
<polygon fill="none" stroke="#000000" points="278,-424.5 278,-481.5 316,-481.5 316,-424.5 278,-424.5"/>
<text text-anchor="middle" x="297" y="-469.5" font-family="Helvetica,sans-Serif" font-size="10.00" fill="#000000">float</text>
<polyline fill="none" stroke="#000000" points="278,-462.5 316,-462.5 "/>
<text text-anchor="middle" x="297" y="-450.5" font-family="Helvetica,sans-Serif" font-size="10.00" fill="#000000"> </text>
<polyline fill="none" stroke="#000000" points="278,-443.5 316,-443.5 "/>
<text text-anchor="middle" x="297" y="-431.5" font-family="Helvetica,sans-Serif" font-size="10.00" fill="#000000"> </text>
</a>
</g>
</g>
<!-- Node5&#45;&gt;Node1 -->
<g id="edge4" class="edge">
<title>Node5&#45;&gt;Node1</title>
<path fill="none" stroke="#404040" d="M291.9698,-424.2793C287.3182,-388.6174 284.7078,-327.3308 312,-285 357.6687,-214.167 448.758,-173.1145 511.9865,-152.0298"/>
<polygon fill="none" stroke="#404040" points="512.0333,-152.0147 516.5115,-146.3627 523.4512,-148.3225 518.973,-153.9746 512.0333,-152.0147"/>
<text text-anchor="middle" x="352.5" y="-398" font-family="Helvetica,sans-Serif" font-size="10.00" fill="#000000"> +ghostArea</text>
<text text-anchor="middle" x="352.5" y="-387" font-family="Helvetica,sans-Serif" font-size="10.00" fill="#000000">+phiMin</text>
<text text-anchor="middle" x="352.5" y="-376" font-family="Helvetica,sans-Serif" font-size="10.00" fill="#000000">+constSubAlpha</text>
<text text-anchor="middle" x="352.5" y="-365" font-family="Helvetica,sans-Serif" font-size="10.00" fill="#000000">+jetEtaMax</text>
<text text-anchor="middle" x="352.5" y="-354" font-family="Helvetica,sans-Serif" font-size="10.00" fill="#000000">+jetR</text>
<text text-anchor="middle" x="352.5" y="-343" font-family="Helvetica,sans-Serif" font-size="10.00" fill="#000000">+constSubRMax</text>
<text text-anchor="middle" x="352.5" y="-332" font-family="Helvetica,sans-Serif" font-size="10.00" fill="#000000">+ghostEtaMax</text>
<text text-anchor="middle" x="352.5" y="-321" font-family="Helvetica,sans-Serif" font-size="10.00" fill="#000000">+mPion</text>
<text text-anchor="middle" x="352.5" y="-310" font-family="Helvetica,sans-Serif" font-size="10.00" fill="#000000">+ktScatter</text>
<text text-anchor="middle" x="352.5" y="-299" font-family="Helvetica,sans-Serif" font-size="10.00" fill="#000000">+gridScatter</text>
<text text-anchor="middle" x="352.5" y="-288" font-family="Helvetica,sans-Serif" font-size="10.00" fill="#000000">...</text>
</g>
<!-- Node6 -->
<g id="node6" class="node">
<title>Node6</title>
<polygon fill="none" stroke="#bfbfbf" points="360.5,-424.5 360.5,-481.5 437.5,-481.5 437.5,-424.5 360.5,-424.5"/>
<text text-anchor="middle" x="399" y="-469.5" font-family="Helvetica,sans-Serif" font-size="10.00" fill="#000000">JetDefinition</text>
<polyline fill="none" stroke="#bfbfbf" points="360.5,-462.5 437.5,-462.5 "/>
<text text-anchor="middle" x="399" y="-450.5" font-family="Helvetica,sans-Serif" font-size="10.00" fill="#000000"> </text>
<polyline fill="none" stroke="#bfbfbf" points="360.5,-443.5 437.5,-443.5 "/>
<text text-anchor="middle" x="399" y="-431.5" font-family="Helvetica,sans-Serif" font-size="10.00" fill="#000000"> </text>
</g>
<!-- Node6&#45;&gt;Node1 -->
<g id="edge5" class="edge">
<title>Node6&#45;&gt;Node1</title>
<path fill="none" stroke="#404040" d="M397.3577,-424.2644C396.577,-389.3942 399.2133,-329.7226 422,-285 443.2771,-243.2403 480.722,-206.5559 513.8194,-179.7483"/>
<polygon fill="none" stroke="#404040" points="514.0665,-179.5527 516.287,-172.692 523.474,-172.1029 521.2535,-178.9637 514.0665,-179.5527"/>
<text text-anchor="middle" x="452.5" y="-348.5" font-family="Helvetica,sans-Serif" font-size="10.00" fill="#000000"> +jetDefBkg</text>
<text text-anchor="middle" x="452.5" y="-337.5" font-family="Helvetica,sans-Serif" font-size="10.00" fill="#000000">+jetDef</text>
</g>
<!-- Node7 -->
<g id="node7" class="node">
<title>Node7</title>
<polygon fill="none" stroke="#bfbfbf" points="456,-424.5 456,-481.5 518,-481.5 518,-424.5 456,-424.5"/>
<text text-anchor="middle" x="487" y="-469.5" font-family="Helvetica,sans-Serif" font-size="10.00" fill="#000000">AreaType</text>
<polyline fill="none" stroke="#bfbfbf" points="456,-462.5 518,-462.5 "/>
<text text-anchor="middle" x="487" y="-450.5" font-family="Helvetica,sans-Serif" font-size="10.00" fill="#000000"> </text>
<polyline fill="none" stroke="#bfbfbf" points="456,-443.5 518,-443.5 "/>
<text text-anchor="middle" x="487" y="-431.5" font-family="Helvetica,sans-Serif" font-size="10.00" fill="#000000"> </text>
</g>
<!-- Node7&#45;&gt;Node1 -->
<g id="edge6" class="edge">
<title>Node7&#45;&gt;Node1</title>
<path fill="none" stroke="#404040" d="M486.7639,-424.4626C487.1912,-390.5509 490.17,-332.5739 504,-285 507.8825,-271.6445 512.9221,-258.0562 518.5591,-244.7764"/>
<polygon fill="none" stroke="#404040" points="518.596,-244.6924 517.347,-237.5903 523.4225,-233.7058 524.6714,-240.808 518.596,-244.6924"/>
<text text-anchor="middle" x="540" y="-348.5" font-family="Helvetica,sans-Serif" font-size="10.00" fill="#000000"> +areaType</text>
<text text-anchor="middle" x="540" y="-337.5" font-family="Helvetica,sans-Serif" font-size="10.00" fill="#000000">+areaTypeBkg</text>
</g>
<!-- Node8 -->
<g id="node8" class="node">
<title>Node8</title>
<polygon fill="none" stroke="#bfbfbf" points="565.5,-424.5 565.5,-481.5 594.5,-481.5 594.5,-424.5 565.5,-424.5"/>
<text text-anchor="middle" x="580" y="-469.5" font-family="Helvetica,sans-Serif" font-size="10.00" fill="#000000">int</text>
<polyline fill="none" stroke="#bfbfbf" points="565.5,-462.5 594.5,-462.5 "/>
<text text-anchor="middle" x="580" y="-450.5" font-family="Helvetica,sans-Serif" font-size="10.00" fill="#000000"> </text>
<polyline fill="none" stroke="#bfbfbf" points="565.5,-443.5 594.5,-443.5 "/>
<text text-anchor="middle" x="580" y="-431.5" font-family="Helvetica,sans-Serif" font-size="10.00" fill="#000000"> </text>
</g>
<!-- Node8&#45;&gt;Node1 -->
<g id="edge7" class="edge">
<title>Node8&#45;&gt;Node1</title>
<path fill="none" stroke="#404040" d="M580,-424.3653C580,-391.117 580,-333.7782 580,-278.7525"/>
<polygon fill="none" stroke="#404040" points="580.0001,-278.6877 576,-272.6878 580,-266.6877 584,-272.6877 580.0001,-278.6877"/>
<text text-anchor="middle" x="620" y="-343" font-family="Helvetica,sans-Serif" font-size="10.00" fill="#000000"> +ghostRepeatN</text>
</g>
<!-- Node9 -->
<g id="node9" class="node">
<title>Node9</title>
<polygon fill="none" stroke="#bfbfbf" points="644.5,-424.5 644.5,-481.5 721.5,-481.5 721.5,-424.5 644.5,-424.5"/>
<text text-anchor="middle" x="683" y="-469.5" font-family="Helvetica,sans-Serif" font-size="10.00" fill="#000000">JetAlgorithm</text>
<polyline fill="none" stroke="#bfbfbf" points="644.5,-462.5 721.5,-462.5 "/>
<text text-anchor="middle" x="683" y="-450.5" font-family="Helvetica,sans-Serif" font-size="10.00" fill="#000000"> </text>
<polyline fill="none" stroke="#bfbfbf" points="644.5,-443.5 721.5,-443.5 "/>
<text text-anchor="middle" x="683" y="-431.5" font-family="Helvetica,sans-Serif" font-size="10.00" fill="#000000"> </text>
</g>
<!-- Node9&#45;&gt;Node1 -->
<g id="edge8" class="edge">
<title>Node9&#45;&gt;Node1</title>
<path fill="none" stroke="#404040" d="M682.3687,-424.3794C680.9146,-390.3877 676.1935,-332.3338 661,-285 655.9755,-269.3466 649.3594,-253.4103 642.0701,-238.0387"/>
<polygon fill="none" stroke="#404040" points="641.9241,-237.7398 635.6963,-234.1046 636.6565,-226.9577 642.8843,-230.5928 641.9241,-237.7398"/>
<text text-anchor="middle" x="718.5" y="-348.5" font-family="Helvetica,sans-Serif" font-size="10.00" fill="#000000"> +algorithm</text>
<text text-anchor="middle" x="718.5" y="-337.5" font-family="Helvetica,sans-Serif" font-size="10.00" fill="#000000">+algorithmBkg</text>
</g>
<!-- Node10 -->
<g id="node10" class="node">
<title>Node10</title>
<polygon fill="none" stroke="#bfbfbf" points="762,-424.5 762,-481.5 800,-481.5 800,-424.5 762,-424.5"/>
<text text-anchor="middle" x="781" y="-469.5" font-family="Helvetica,sans-Serif" font-size="10.00" fill="#000000">bool</text>
<polyline fill="none" stroke="#bfbfbf" points="762,-462.5 800,-462.5 "/>
<text text-anchor="middle" x="781" y="-450.5" font-family="Helvetica,sans-Serif" font-size="10.00" fill="#000000"> </text>
<polyline fill="none" stroke="#bfbfbf" points="762,-443.5 800,-443.5 "/>
<text text-anchor="middle" x="781" y="-431.5" font-family="Helvetica,sans-Serif" font-size="10.00" fill="#000000"> </text>
</g>
<!-- Node10&#45;&gt;Node1 -->
<g id="edge9" class="edge">
<title>Node10&#45;&gt;Node1</title>
<path fill="none" stroke="#404040" d="M779.7238,-424.2082C777.4665,-382.676 771.7468,-308.3711 759,-285 733.1762,-237.6526 686.1486,-198.7398 646.7758,-172.2104"/>
<polygon fill="none" stroke="#404040" points="646.7089,-172.1663 639.4979,-172.207 636.6868,-165.5664 643.8979,-165.5257 646.7089,-172.1663"/>
<text text-anchor="middle" x="818" y="-343" font-family="Helvetica,sans-Serif" font-size="10.00" fill="#000000"> +isReclustering</text>
</g>
<!-- Node11 -->
<g id="node11" class="node">
<title>Node11</title>
<polygon fill="none" stroke="#bfbfbf" points="831,-424.5 831,-481.5 911,-481.5 911,-424.5 831,-424.5"/>
<text text-anchor="middle" x="871" y="-469.5" font-family="Helvetica,sans-Serif" font-size="10.00" fill="#000000">BkgSubMode</text>
<polyline fill="none" stroke="#bfbfbf" points="831,-462.5 911,-462.5 "/>
<text text-anchor="middle" x="871" y="-450.5" font-family="Helvetica,sans-Serif" font-size="10.00" fill="#000000"> </text>
<polyline fill="none" stroke="#bfbfbf" points="831,-443.5 911,-443.5 "/>
<text text-anchor="middle" x="871" y="-431.5" font-family="Helvetica,sans-Serif" font-size="10.00" fill="#000000"> </text>
</g>
<!-- Node11&#45;&gt;Node1 -->
<g id="edge10" class="edge">
<title>Node11&#45;&gt;Node1</title>
<path fill="none" stroke="#404040" d="M877.4262,-424.3059C883.7334,-388.6715 888.9267,-327.4131 862,-285 814.1591,-209.6444 715.3526,-169.2111 648.3591,-149.5411"/>
<polygon fill="none" stroke="#404040" points="648.1981,-149.4955 641.334,-151.7056 636.6539,-146.2196 643.518,-144.0095 648.1981,-149.4955"/>
<text text-anchor="middle" x="919" y="-343" font-family="Helvetica,sans-Serif" font-size="10.00" fill="#000000"> +bkgSubMode</text>
</g>
<!-- Node12 -->
<g id="node12" class="node">
<title>Node12</title>
<polygon fill="none" stroke="#bfbfbf" points="929.5,-424.5 929.5,-481.5 1032.5,-481.5 1032.5,-424.5 929.5,-424.5"/>
<text text-anchor="middle" x="981" y="-469.5" font-family="Helvetica,sans-Serif" font-size="10.00" fill="#000000">GhostedAreaSpec</text>
<polyline fill="none" stroke="#bfbfbf" points="929.5,-462.5 1032.5,-462.5 "/>
<text text-anchor="middle" x="981" y="-450.5" font-family="Helvetica,sans-Serif" font-size="10.00" fill="#000000"> </text>
<polyline fill="none" stroke="#bfbfbf" points="929.5,-443.5 1032.5,-443.5 "/>
<text text-anchor="middle" x="981" y="-431.5" font-family="Helvetica,sans-Serif" font-size="10.00" fill="#000000"> </text>
</g>
<!-- Node12&#45;&gt;Node1 -->
<g id="edge11" class="edge">
<title>Node12&#45;&gt;Node1</title>
<path fill="none" stroke="#404040" d="M980.6639,-424.3021C979.6122,-382.1346 975.4198,-306.1407 959,-285 883.4185,-187.6876 735.6555,-152.6751 648.6385,-140.226"/>
<polygon fill="none" stroke="#404040" points="648.4079,-140.1948 641.9246,-143.3519 636.5168,-138.5816 643.0001,-135.4245 648.4079,-140.1948"/>
<text text-anchor="middle" x="1021.5" y="-343" font-family="Helvetica,sans-Serif" font-size="10.00" fill="#000000"> +ghostAreaSpec</text>
</g>
<!-- Node13 -->
<g id="node13" class="node">
<title>Node13</title>
<polygon fill="none" stroke="#bfbfbf" points="1051,-424.5 1051,-481.5 1137,-481.5 1137,-424.5 1051,-424.5"/>
<text text-anchor="middle" x="1094" y="-469.5" font-family="Helvetica,sans-Serif" font-size="10.00" fill="#000000">AreaDefinition</text>
<polyline fill="none" stroke="#bfbfbf" points="1051,-462.5 1137,-462.5 "/>
<text text-anchor="middle" x="1094" y="-450.5" font-family="Helvetica,sans-Serif" font-size="10.00" fill="#000000"> </text>
<polyline fill="none" stroke="#bfbfbf" points="1051,-443.5 1137,-443.5 "/>
<text text-anchor="middle" x="1094" y="-431.5" font-family="Helvetica,sans-Serif" font-size="10.00" fill="#000000"> </text>
</g>
<!-- Node13&#45;&gt;Node1 -->
<g id="edge12" class="edge">
<title>Node13&#45;&gt;Node1</title>
<path fill="none" stroke="#404040" d="M1098.0295,-424.302C1101.4973,-387.5253 1101.539,-323.8894 1068,-285 1012.8273,-221.0259 769.6381,-168.3864 648.732,-145.6263"/>
<polygon fill="none" stroke="#404040" points="648.5172,-145.5863 641.8859,-148.4193 636.7203,-143.3877 643.3516,-140.5547 648.5172,-145.5863"/>
<text text-anchor="middle" x="1134" y="-348.5" font-family="Helvetica,sans-Serif" font-size="10.00" fill="#000000"> +areaDefBkg</text>
<text text-anchor="middle" x="1134" y="-337.5" font-family="Helvetica,sans-Serif" font-size="10.00" fill="#000000">+areaDef</text>
</g>
<!-- Node14 -->
<g id="node14" class="node">
<title>Node14</title>
<polygon fill="none" stroke="#bfbfbf" points="1155,-424.5 1155,-481.5 1283,-481.5 1283,-424.5 1155,-424.5"/>
<text text-anchor="middle" x="1219" y="-469.5" font-family="Helvetica,sans-Serif" font-size="10.00" fill="#000000">RecombinationScheme</text>
<polyline fill="none" stroke="#bfbfbf" points="1155,-462.5 1283,-462.5 "/>
<text text-anchor="middle" x="1219" y="-450.5" font-family="Helvetica,sans-Serif" font-size="10.00" fill="#000000"> </text>
<polyline fill="none" stroke="#bfbfbf" points="1155,-443.5 1283,-443.5 "/>
<text text-anchor="middle" x="1219" y="-431.5" font-family="Helvetica,sans-Serif" font-size="10.00" fill="#000000"> </text>
</g>
<!-- Node14&#45;&gt;Node1 -->
<g id="edge13" class="edge">
<title>Node14&#45;&gt;Node1</title>
<path fill="none" stroke="#404040" d="M1219.4333,-424.3285C1218.3778,-386.9829 1210.7395,-322.0985 1173,-285 1098.524,-211.7889 788.7984,-161.6854 649.0015,-142.3674"/>
<polygon fill="none" stroke="#404040" points="648.7088,-142.3275 642.2224,-145.4782 636.8193,-140.7026 643.3057,-137.5519 648.7088,-142.3275"/>
<text text-anchor="middle" x="1269.5" y="-348.5" font-family="Helvetica,sans-Serif" font-size="10.00" fill="#000000"> +recombScheme</text>
<text text-anchor="middle" x="1269.5" y="-337.5" font-family="Helvetica,sans-Serif" font-size="10.00" fill="#000000">+recombSchemeBkg</text>
</g>
</g>
</svg>
