<?xml version="1.0" encoding="UTF-8" standalone="no"?>
<!DOCTYPE svg PUBLIC "-//W3C//DTD SVG 1.1//EN"
 "http://www.w3.org/Graphics/SVG/1.1/DTD/svg11.dtd">
<!-- Generated by graphviz version 2.40.1 (20161225.0304)
 -->
<!-- Title: /home/travis/build/AliceO2Group/AliceO2/Detectors/ITSMFT/ITS/tracking/include/ITStracking/TrackerTraits.h Pages: 1 -->
<svg width="1764pt" height="587pt"
 viewBox="0.00 0.00 1764.48 587.00" xmlns="http://www.w3.org/2000/svg" xmlns:xlink="http://www.w3.org/1999/xlink">
<g id="graph0" class="graph" transform="scale(1 1) rotate(0) translate(4 583)">
<title>/home/travis/build/AliceO2Group/AliceO2/Detectors/ITSMFT/ITS/tracking/include/ITStracking/TrackerTraits.h</title>
<!-- Node0 -->
<g id="node1" class="node">
<title>Node0</title>
<polygon fill="#bfbfbf" stroke="#000000" points="994.5,-515.5 994.5,-578.5 1149.5,-578.5 1149.5,-515.5 994.5,-515.5"/>
<text text-anchor="start" x="1002.5" y="-566.5" font-family="Helvetica,sans-Serif" font-size="10.00" fill="#000000">/home/travis/build</text>
<text text-anchor="start" x="1002.5" y="-555.5" font-family="Helvetica,sans-Serif" font-size="10.00" fill="#000000">/AliceO2Group/AliceO2</text>
<text text-anchor="start" x="1002.5" y="-544.5" font-family="Helvetica,sans-Serif" font-size="10.00" fill="#000000">/Detectors/ITSMFT/ITS</text>
<text text-anchor="start" x="1002.5" y="-533.5" font-family="Helvetica,sans-Serif" font-size="10.00" fill="#000000">/tracking/include/ITStracking</text>
<text text-anchor="middle" x="1072" y="-522.5" font-family="Helvetica,sans-Serif" font-size="10.00" fill="#000000">/TrackerTraits.h</text>
</g>
<!-- Node1 -->
<g id="node2" class="node">
<title>Node1</title>
<polygon fill="none" stroke="#bfbfbf" points="788,-112.5 788,-131.5 830,-131.5 830,-112.5 788,-112.5"/>
<text text-anchor="middle" x="809" y="-119.5" font-family="Helvetica,sans-Serif" font-size="10.00" fill="#000000">array</text>
</g>
<!-- Node0&#45;&gt;Node1 -->
<g id="edge1" class="edge">
<title>Node0&#45;&gt;Node1</title>
<path fill="none" stroke="#191970" d="M1054.1043,-515.3895C1039.1863,-488.3899 1017.8837,-448.2763 1002,-412 954.7178,-304.0135 985.1928,-247.3354 898,-168 881.0973,-152.6205 858.1015,-140.9108 839.7192,-133.1551"/>
<polygon fill="#191970" stroke="#191970" points="840.9003,-129.8575 830.3172,-129.3582 838.2791,-136.3482 840.9003,-129.8575"/>
</g>
<!-- Node2 -->
<g id="node3" class="node">
<title>Node2</title>
<polygon fill="none" stroke="#bfbfbf" points="1227,-454 1227,-473 1277,-473 1277,-454 1227,-454"/>
<text text-anchor="middle" x="1252" y="-461" font-family="Helvetica,sans-Serif" font-size="10.00" fill="#000000">chrono</text>
</g>
<!-- Node0&#45;&gt;Node2 -->
<g id="edge2" class="edge">
<title>Node0&#45;&gt;Node2</title>
<path fill="none" stroke="#191970" d="M1140.0503,-515.4322C1168.322,-502.3173 1199.6711,-487.7748 1221.9868,-477.4228"/>
<polygon fill="#191970" stroke="#191970" points="1223.6625,-480.5038 1231.2611,-473.1205 1220.7168,-474.1537 1223.6625,-480.5038"/>
</g>
<!-- Node3 -->
<g id="node4" class="node">
<title>Node3</title>
<polygon fill="none" stroke="#bfbfbf" points="1696.5,-56.5 1696.5,-75.5 1743.5,-75.5 1743.5,-56.5 1696.5,-56.5"/>
<text text-anchor="middle" x="1720" y="-63.5" font-family="Helvetica,sans-Serif" font-size="10.00" fill="#000000">cmath</text>
</g>
<!-- Node0&#45;&gt;Node3 -->
<g id="edge3" class="edge">
<title>Node0&#45;&gt;Node3</title>
<path fill="none" stroke="#191970" d="M1110.7763,-515.4874C1139.0425,-493.861 1179.056,-465.9342 1218,-448 1419.2329,-355.3297 1529.9088,-448.8507 1694,-300 1752.8357,-246.6288 1752.8745,-211.4078 1755,-132 1755.2378,-123.1143 1757.8401,-120.423 1755,-112 1751.4305,-101.4138 1744.3465,-91.3356 1737.4798,-83.3256"/>
<polygon fill="#191970" stroke="#191970" points="1739.9019,-80.7886 1730.559,-75.7924 1734.747,-85.5244 1739.9019,-80.7886"/>
</g>
<!-- Node4 -->
<g id="node5" class="node">
<title>Node4</title>
<polygon fill="none" stroke="#bfbfbf" points="1295.5,-454 1295.5,-473 1350.5,-473 1350.5,-454 1295.5,-454"/>
<text text-anchor="middle" x="1323" y="-461" font-family="Helvetica,sans-Serif" font-size="10.00" fill="#000000">fstream</text>
</g>
<!-- Node0&#45;&gt;Node4 -->
<g id="edge4" class="edge">
<title>Node0&#45;&gt;Node4</title>
<path fill="none" stroke="#191970" d="M1149.5743,-524.1727C1190.4573,-511.6849 1241.2681,-495.4394 1286,-479 1287.863,-478.3153 1289.7699,-477.591 1291.6876,-476.8443"/>
<polygon fill="#191970" stroke="#191970" points="1293.2482,-479.9889 1301.2152,-473.0049 1290.6318,-473.4963 1293.2482,-479.9889"/>
</g>
<!-- Node5 -->
<g id="node6" class="node">
<title>Node5</title>
<polygon fill="none" stroke="#bfbfbf" points="1369,-454 1369,-473 1425,-473 1425,-454 1369,-454"/>
<text text-anchor="middle" x="1397" y="-461" font-family="Helvetica,sans-Serif" font-size="10.00" fill="#000000">iomanip</text>
</g>
<!-- Node0&#45;&gt;Node5 -->
<g id="edge5" class="edge">
<title>Node0&#45;&gt;Node5</title>
<path fill="none" stroke="#191970" d="M1149.658,-532.2869C1208.1708,-520.3324 1290.0104,-501.7508 1360,-479 1362.0988,-478.3178 1364.2449,-477.567 1366.3944,-476.775"/>
<polygon fill="#191970" stroke="#191970" points="1367.6723,-480.0334 1375.7045,-473.1244 1365.1169,-473.5165 1367.6723,-480.0334"/>
</g>
<!-- Node6 -->
<g id="node7" class="node">
<title>Node6</title>
<polygon fill="none" stroke="#bfbfbf" points="655.5,-392.5 655.5,-411.5 704.5,-411.5 704.5,-392.5 655.5,-392.5"/>
<text text-anchor="middle" x="680" y="-399.5" font-family="Helvetica,sans-Serif" font-size="10.00" fill="#000000">iosfwd</text>
</g>
<!-- Node0&#45;&gt;Node6 -->
<g id="edge6" class="edge">
<title>Node0&#45;&gt;Node6</title>
<path fill="none" stroke="#191970" d="M994.3904,-540.0316C903.9582,-530.5619 761.4804,-511.0355 719,-479 700.2741,-464.8783 689.8677,-439.242 684.6077,-421.4495"/>
<polygon fill="#191970" stroke="#191970" points="687.9283,-420.318 681.9692,-411.5579 681.1648,-422.1221 687.9283,-420.318"/>
</g>
<!-- Node7 -->
<g id="node8" class="node">
<title>Node7</title>
<polygon fill="none" stroke="#bfbfbf" points="1443,-454 1443,-473 1501,-473 1501,-454 1443,-454"/>
<text text-anchor="middle" x="1472" y="-461" font-family="Helvetica,sans-Serif" font-size="10.00" fill="#000000">memory</text>
</g>
<!-- Node0&#45;&gt;Node7 -->
<g id="edge7" class="edge">
<title>Node0&#45;&gt;Node7</title>
<path fill="none" stroke="#191970" d="M1149.6875,-537.0349C1223.7257,-526.4574 1337.8494,-507.3252 1434,-479 1436.3067,-478.3205 1438.6656,-477.5507 1441.0229,-476.7263"/>
<polygon fill="#191970" stroke="#191970" points="1442.4486,-479.9293 1450.5664,-473.1211 1439.9748,-473.3809 1442.4486,-479.9293"/>
</g>
<!-- Node8 -->
<g id="node9" class="node">
<title>Node8</title>
<polygon fill="none" stroke="#bfbfbf" points="792.5,-224.5 792.5,-243.5 837.5,-243.5 837.5,-224.5 792.5,-224.5"/>
<text text-anchor="middle" x="815" y="-231.5" font-family="Helvetica,sans-Serif" font-size="10.00" fill="#000000">utility</text>
</g>
<!-- Node0&#45;&gt;Node8 -->
<g id="edge8" class="edge">
<title>Node0&#45;&gt;Node8</title>
<path fill="none" stroke="#191970" d="M1005.8196,-515.3748C947.9881,-483.8156 867.4378,-429.4549 829,-356 811.8563,-323.2383 811.5161,-278.8709 813.0798,-253.6607"/>
<polygon fill="#191970" stroke="#191970" points="816.5811,-253.7806 813.8787,-243.5362 809.6028,-253.2299 816.5811,-253.7806"/>
</g>
<!-- Node9 -->
<g id="node10" class="node">
<title>Node9</title>
<polygon fill="none" stroke="#bfbfbf" points="1519.5,-454 1519.5,-473 1584.5,-473 1584.5,-454 1519.5,-454"/>
<text text-anchor="middle" x="1552" y="-461" font-family="Helvetica,sans-Serif" font-size="10.00" fill="#000000">functional</text>
</g>
<!-- Node0&#45;&gt;Node9 -->
<g id="edge9" class="edge">
<title>Node0&#45;&gt;Node9</title>
<path fill="none" stroke="#191970" d="M1149.6965,-539.6727C1238.0038,-530.2571 1385.9778,-511.1682 1510,-479 1512.9882,-478.2249 1516.0602,-477.3173 1519.118,-476.3368"/>
<polygon fill="#191970" stroke="#191970" points="1520.4022,-479.5963 1528.7171,-473.0302 1518.1224,-472.978 1520.4022,-479.5963"/>
</g>
<!-- Node10 -->
<g id="node11" class="node">
<title>Node10</title>
<g id="a_node11"><a xlink:href="../../d3/d59/Configuration_8h.html" target="_top" xlink:title="ITStracking/Configuration.h">
<polygon fill="none" stroke="#000000" points="651.5,-280.5 651.5,-299.5 800.5,-299.5 800.5,-280.5 651.5,-280.5"/>
<text text-anchor="middle" x="726" y="-287.5" font-family="Helvetica,sans-Serif" font-size="10.00" fill="#000000">ITStracking/Configuration.h</text>
</a>
</g>
</g>
<!-- Node0&#45;&gt;Node10 -->
<g id="edge10" class="edge">
<title>Node0&#45;&gt;Node10</title>
<path fill="none" stroke="#191970" d="M994.4428,-540.1716C911.951,-531.2497 789.0037,-512.6465 757,-479 712.7641,-432.4934 717.6131,-348.6638 722.6749,-310.2381"/>
<polygon fill="#191970" stroke="#191970" points="726.2085,-310.2646 724.1986,-299.8622 719.2828,-309.2475 726.2085,-310.2646"/>
</g>
<!-- Node14 -->
<g id="node15" class="node">
<title>Node14</title>
<g id="a_node15"><a xlink:href="../../df/d3d/Definitions_8h.html" target="_top" xlink:title="ITStracking/Definitions.h">
<polygon fill="none" stroke="#000000" points="156,-168.5 156,-187.5 292,-187.5 292,-168.5 156,-168.5"/>
<text text-anchor="middle" x="224" y="-175.5" font-family="Helvetica,sans-Serif" font-size="10.00" fill="#000000">ITStracking/Definitions.h</text>
</a>
</g>
</g>
<!-- Node0&#45;&gt;Node14 -->
<g id="edge24" class="edge">
<title>Node0&#45;&gt;Node14</title>
<path fill="none" stroke="#191970" d="M994.238,-544.549C793.2414,-536.8923 262.191,-507.8765 119,-412 48.805,-364.9994 27.0999,-279.2555 91,-224 109.8391,-207.7095 134.7633,-197.0989 157.9392,-190.2277"/>
<polygon fill="#191970" stroke="#191970" points="159.0427,-193.5538 167.742,-187.5062 157.1701,-186.8089 159.0427,-193.5538"/>
</g>
<!-- Node19 -->
<g id="node20" class="node">
<title>Node19</title>
<g id="a_node20"><a xlink:href="../../dc/d3e/MathUtils_8h.html" target="_top" xlink:title="ITStracking/MathUtils.h">
<polygon fill="none" stroke="#000000" points="1112,-280.5 1112,-299.5 1242,-299.5 1242,-280.5 1112,-280.5"/>
<text text-anchor="middle" x="1177" y="-287.5" font-family="Helvetica,sans-Serif" font-size="10.00" fill="#000000">ITStracking/MathUtils.h</text>
</a>
</g>
</g>
<!-- Node0&#45;&gt;Node19 -->
<g id="edge25" class="edge">
<title>Node0&#45;&gt;Node19</title>
<path fill="none" stroke="#191970" d="M1090.685,-515.3864C1105.981,-488.5509 1127.4016,-448.6703 1142,-412 1155.9938,-376.8484 1166.961,-333.9674 1172.6663,-309.5388"/>
<polygon fill="#191970" stroke="#191970" points="1176.0972,-310.2353 1174.9093,-299.7073 1169.2726,-308.6782 1176.0972,-310.2353"/>
</g>
<!-- Node31 -->
<g id="node32" class="node">
<title>Node31</title>
<g id="a_node32"><a xlink:href="../../d3/da9/PrimaryVertexContext_8h.html" target="_top" xlink:title="ITStracking/PrimaryVertex\lContext.h">
<polygon fill="none" stroke="#000000" points="376,-448.5 376,-478.5 520,-478.5 520,-448.5 376,-448.5"/>
<text text-anchor="start" x="384" y="-466.5" font-family="Helvetica,sans-Serif" font-size="10.00" fill="#000000">ITStracking/PrimaryVertex</text>
<text text-anchor="middle" x="448" y="-455.5" font-family="Helvetica,sans-Serif" font-size="10.00" fill="#000000">Context.h</text>
</a>
</g>
</g>
<!-- Node0&#45;&gt;Node31 -->
<g id="edge48" class="edge">
<title>Node0&#45;&gt;Node31</title>
<path fill="none" stroke="#191970" d="M994.2316,-536.5935C875.8608,-520.7538 651.4871,-490.7294 530.411,-474.5278"/>
<polygon fill="#191970" stroke="#191970" points="530.8252,-471.0521 520.4493,-473.1947 529.8967,-477.9902 530.8252,-471.0521"/>
</g>
<!-- Node33 -->
<g id="node34" class="node">
<title>Node33</title>
<g id="a_node34"><a xlink:href="../../d4/d5a/ITS_2tracking_2include_2ITStracking_2Road_8h.html" target="_top" xlink:title="ITStracking/Road.h">
<polygon fill="none" stroke="#000000" points="212.5,-280.5 212.5,-299.5 319.5,-299.5 319.5,-280.5 212.5,-280.5"/>
<text text-anchor="middle" x="266" y="-287.5" font-family="Helvetica,sans-Serif" font-size="10.00" fill="#000000">ITStracking/Road.h</text>
</a>
</g>
</g>
<!-- Node0&#45;&gt;Node33 -->
<g id="edge81" class="edge">
<title>Node0&#45;&gt;Node33</title>
<path fill="none" stroke="#191970" d="M994.2255,-543.5674C821.7922,-535.3791 418.5233,-512.8275 367,-479 306.0119,-438.9584 279.1942,-349.3575 269.9838,-309.6215"/>
<polygon fill="#191970" stroke="#191970" points="273.3509,-308.635 267.7969,-299.6126 266.5122,-310.1293 273.3509,-308.635"/>
</g>
<!-- Node10&#45;&gt;Node1 -->
<g id="edge11" class="edge">
<title>Node10&#45;&gt;Node1</title>
<path fill="none" stroke="#191970" d="M764.5713,-280.4404C796.195,-271.7303 837.2711,-258.1067 847,-244 863.4012,-220.2183 825.4831,-214.5086 814,-188 807.7195,-173.5015 806.7432,-155.5374 807.1851,-142.0132"/>
<polygon fill="#191970" stroke="#191970" points="810.6883,-142.0655 807.8045,-131.8707 803.7013,-141.6387 810.6883,-142.0655"/>
</g>
<!-- Node10&#45;&gt;Node3 -->
<g id="edge14" class="edge">
<title>Node10&#45;&gt;Node3</title>
<path fill="none" stroke="#191970" d="M800.5416,-286.5882C951.1734,-279.4194 1287.1518,-261.9654 1401,-244 1502.3652,-228.0044 1538.9989,-243.9873 1625,-188 1665.4962,-161.6367 1696.012,-112.03 1710.561,-84.9009"/>
<polygon fill="#191970" stroke="#191970" points="1713.8372,-86.1866 1715.3428,-75.6993 1707.6259,-82.9587 1713.8372,-86.1866"/>
</g>
<!-- Node11 -->
<g id="node12" class="node">
<title>Node11</title>
<polygon fill="none" stroke="#bfbfbf" points="566,-168.5 566,-187.5 616,-187.5 616,-168.5 566,-168.5"/>
<text text-anchor="middle" x="591" y="-175.5" font-family="Helvetica,sans-Serif" font-size="10.00" fill="#000000">climits</text>
</g>
<!-- Node10&#45;&gt;Node11 -->
<g id="edge12" class="edge">
<title>Node10&#45;&gt;Node11</title>
<path fill="none" stroke="#191970" d="M732.2789,-280.4889C740.5112,-266.7027 752.518,-240.9656 740,-224 726.4253,-205.6022 665.9004,-191.4569 626.2892,-183.9616"/>
<polygon fill="#191970" stroke="#191970" points="626.6871,-180.4762 616.2195,-182.1132 625.4232,-187.3612 626.6871,-180.4762"/>
</g>
<!-- Node12 -->
<g id="node13" class="node">
<title>Node12</title>
<polygon fill="none" stroke="#bfbfbf" points="494.5,-168.5 494.5,-187.5 541.5,-187.5 541.5,-168.5 494.5,-168.5"/>
<text text-anchor="middle" x="518" y="-175.5" font-family="Helvetica,sans-Serif" font-size="10.00" fill="#000000">vector</text>
</g>
<!-- Node10&#45;&gt;Node12 -->
<g id="edge13" class="edge">
<title>Node10&#45;&gt;Node12</title>
<path fill="none" stroke="#191970" d="M709.4693,-280.3604C686.9259,-267.2871 645.2002,-243.3469 609,-224 588.45,-213.0172 564.9751,-201.1677 547.0158,-192.2461"/>
<polygon fill="#191970" stroke="#191970" points="548.1742,-188.9142 537.6593,-187.615 545.069,-195.1878 548.1742,-188.9142"/>
</g>
<!-- Node13 -->
<g id="node14" class="node">
<title>Node13</title>
<g id="a_node14"><a xlink:href="../../d0/d86/Detectors_2ITSMFT_2ITS_2tracking_2include_2ITStracking_2Constants_8h.html" target="_top" xlink:title="ITStracking/Constants.h">
<polygon fill="none" stroke="#000000" points="452,-224.5 452,-243.5 584,-243.5 584,-224.5 452,-224.5"/>
<text text-anchor="middle" x="518" y="-231.5" font-family="Helvetica,sans-Serif" font-size="10.00" fill="#000000">ITStracking/Constants.h</text>
</a>
</g>
</g>
<!-- Node10&#45;&gt;Node13 -->
<g id="edge15" class="edge">
<title>Node10&#45;&gt;Node13</title>
<path fill="none" stroke="#191970" d="M690.2435,-280.3733C655.0574,-270.9001 601.2119,-256.4032 563.1044,-246.1435"/>
<polygon fill="#191970" stroke="#191970" points="563.856,-242.7213 553.2899,-243.5011 562.0361,-249.4806 563.856,-242.7213"/>
</g>
<!-- Node13&#45;&gt;Node11 -->
<g id="edge16" class="edge">
<title>Node13&#45;&gt;Node11</title>
<path fill="none" stroke="#191970" d="M530.7156,-224.2455C541.602,-215.8943 557.4883,-203.7076 570.22,-193.9408"/>
<polygon fill="#191970" stroke="#191970" points="572.6261,-196.5063 578.4301,-187.6427 568.3654,-190.9523 572.6261,-196.5063"/>
</g>
<!-- Node13&#45;&gt;Node12 -->
<g id="edge17" class="edge">
<title>Node13&#45;&gt;Node12</title>
<path fill="none" stroke="#191970" d="M518,-224.2455C518,-216.9382 518,-206.6944 518,-197.7046"/>
<polygon fill="#191970" stroke="#191970" points="521.5001,-197.6426 518,-187.6427 514.5001,-197.6427 521.5001,-197.6426"/>
</g>
<!-- Node13&#45;&gt;Node14 -->
<g id="edge18" class="edge">
<title>Node13&#45;&gt;Node14</title>
<path fill="none" stroke="#191970" d="M467.7937,-224.4369C416.9493,-214.7522 338.294,-199.7703 284.1487,-189.4569"/>
<polygon fill="#191970" stroke="#191970" points="284.4776,-185.9567 273.9993,-187.5237 283.1677,-192.8331 284.4776,-185.9567"/>
</g>
<!-- Node14&#45;&gt;Node1 -->
<g id="edge19" class="edge">
<title>Node14&#45;&gt;Node1</title>
<path fill="none" stroke="#191970" d="M292.2518,-171.4665C419.0921,-159.3245 686.5345,-133.7232 777.7506,-124.9914"/>
<polygon fill="#191970" stroke="#191970" points="778.116,-128.4725 787.7369,-124.0354 777.4489,-121.5044 778.116,-128.4725"/>
</g>
<!-- Node15 -->
<g id="node16" class="node">
<title>Node15</title>
<g id="a_node16"><a xlink:href="../../df/d21/GPUCommonDef_8h.html" target="_top" xlink:title="GPUCommonDef.h">
<polygon fill="none" stroke="#000000" points="639.5,-56.5 639.5,-75.5 746.5,-75.5 746.5,-56.5 639.5,-56.5"/>
<text text-anchor="middle" x="693" y="-63.5" font-family="Helvetica,sans-Serif" font-size="10.00" fill="#000000">GPUCommonDef.h</text>
</a>
</g>
</g>
<!-- Node14&#45;&gt;Node15 -->
<g id="edge20" class="edge">
<title>Node14&#45;&gt;Node15</title>
<path fill="none" stroke="#191970" d="M223.671,-168.1325C223.7703,-153.4042 226.3488,-125.9168 243,-112 271.9901,-87.7705 511.6865,-73.9747 628.9202,-68.6179"/>
<polygon fill="#191970" stroke="#191970" points="629.3585,-72.1018 639.1911,-68.1559 629.0439,-65.1089 629.3585,-72.1018"/>
</g>
<!-- Node18 -->
<g id="node19" class="node">
<title>Node18</title>
<polygon fill="none" stroke="#bfbfbf" points="252.5,-112.5 252.5,-131.5 305.5,-131.5 305.5,-112.5 252.5,-112.5"/>
<text text-anchor="middle" x="279" y="-119.5" font-family="Helvetica,sans-Serif" font-size="10.00" fill="#000000">cstddef</text>
</g>
<!-- Node14&#45;&gt;Node18 -->
<g id="edge23" class="edge">
<title>Node14&#45;&gt;Node18</title>
<path fill="none" stroke="#191970" d="M233.5803,-168.2455C241.5458,-160.1352 253.0641,-148.4075 262.5079,-138.7919"/>
<polygon fill="#191970" stroke="#191970" points="265.0195,-141.2297 269.5295,-131.6427 260.0253,-136.3247 265.0195,-141.2297"/>
</g>
<!-- Node16 -->
<g id="node17" class="node">
<title>Node16</title>
<g id="a_node17"><a xlink:href="../../d5/d93/GPUCommonDefSettings_8h.html" target="_top" xlink:title="GPUCommonDefSettings.h">
<polygon fill="none" stroke="#000000" points="542,-.5 542,-19.5 690,-19.5 690,-.5 542,-.5"/>
<text text-anchor="middle" x="616" y="-7.5" font-family="Helvetica,sans-Serif" font-size="10.00" fill="#000000">GPUCommonDefSettings.h</text>
</a>
</g>
</g>
<!-- Node15&#45;&gt;Node16 -->
<g id="edge21" class="edge">
<title>Node15&#45;&gt;Node16</title>
<path fill="none" stroke="#191970" d="M679.5876,-56.2455C667.9943,-47.814 651.0252,-35.4729 637.5322,-25.6598"/>
<polygon fill="#191970" stroke="#191970" points="639.4047,-22.6938 629.2587,-19.6427 635.2874,-28.355 639.4047,-22.6938"/>
</g>
<!-- Node17 -->
<g id="node18" class="node">
<title>Node17</title>
<g id="a_node18"><a xlink:href="../../da/d5a/GPUCommonDefAPI_8h.html" target="_top" xlink:title="GPUCommonDefAPI.h">
<polygon fill="none" stroke="#000000" points="708,-.5 708,-19.5 832,-19.5 832,-.5 708,-.5"/>
<text text-anchor="middle" x="770" y="-7.5" font-family="Helvetica,sans-Serif" font-size="10.00" fill="#000000">GPUCommonDefAPI.h</text>
</a>
</g>
</g>
<!-- Node15&#45;&gt;Node17 -->
<g id="edge22" class="edge">
<title>Node15&#45;&gt;Node17</title>
<path fill="none" stroke="#191970" d="M706.4124,-56.2455C718.0057,-47.814 734.9748,-35.4729 748.4678,-25.6598"/>
<polygon fill="#191970" stroke="#191970" points="750.7126,-28.355 756.7413,-19.6427 746.5953,-22.6938 750.7126,-28.355"/>
</g>
<!-- Node19&#45;&gt;Node1 -->
<g id="edge26" class="edge">
<title>Node19&#45;&gt;Node1</title>
<path fill="none" stroke="#191970" d="M1170.1196,-280.0887C1159.7278,-265.804 1138.7069,-239.452 1115,-224 1091.2456,-208.517 913.5388,-153.6867 840.3531,-131.4613"/>
<polygon fill="#191970" stroke="#191970" points="840.9297,-127.9789 830.3444,-128.4273 838.899,-134.6779 840.9297,-127.9789"/>
</g>
<!-- Node19&#45;&gt;Node3 -->
<g id="edge27" class="edge">
<title>Node19&#45;&gt;Node3</title>
<path fill="none" stroke="#191970" d="M1242.1569,-288.6598C1376.419,-284.3155 1676.1828,-265.9094 1734,-188 1756.5446,-157.6209 1741.1095,-110.741 1729.5141,-84.831"/>
<polygon fill="#191970" stroke="#191970" points="1732.6384,-83.2508 1725.1972,-75.709 1726.3112,-86.2451 1732.6384,-83.2508"/>
</g>
<!-- Node19&#45;&gt;Node13 -->
<g id="edge45" class="edge">
<title>Node19&#45;&gt;Node13</title>
<path fill="none" stroke="#191970" d="M1111.7064,-284.4515C989.1952,-274.0409 725.4564,-251.6291 594.7083,-240.5185"/>
<polygon fill="#191970" stroke="#191970" points="594.6443,-237.0005 584.3839,-239.6411 594.0516,-243.9754 594.6443,-237.0005"/>
</g>
<!-- Node19&#45;&gt;Node15 -->
<g id="edge47" class="edge">
<title>Node19&#45;&gt;Node15</title>
<path fill="none" stroke="#191970" d="M1242.1235,-285.0272C1354.7657,-274.9124 1578.4255,-247.6515 1625,-188 1630.4703,-180.9937 1627.9055,-176.4006 1625,-168 1614.6539,-138.0862 1609.1005,-126.5684 1581,-112 1508.4562,-74.3903 948.4808,-67.5263 756.975,-66.277"/>
<polygon fill="#191970" stroke="#191970" points="756.8057,-62.7759 746.7841,-66.2136 756.7621,-69.7758 756.8057,-62.7759"/>
</g>
<!-- Node20 -->
<g id="node21" class="node">
<title>Node20</title>
<polygon fill="none" stroke="#bfbfbf" points="1162,-224.5 1162,-243.5 1214,-243.5 1214,-224.5 1162,-224.5"/>
<text text-anchor="middle" x="1188" y="-231.5" font-family="Helvetica,sans-Serif" font-size="10.00" fill="#000000">cassert</text>
</g>
<!-- Node19&#45;&gt;Node20 -->
<g id="edge28" class="edge">
<title>Node19&#45;&gt;Node20</title>
<path fill="none" stroke="#191970" d="M1178.9161,-280.2455C1180.3514,-272.9382 1182.3636,-262.6944 1184.1295,-253.7046"/>
<polygon fill="#191970" stroke="#191970" points="1187.6127,-254.1298 1186.1059,-243.6427 1180.744,-252.7805 1187.6127,-254.1298"/>
</g>
<!-- Node21 -->
<g id="node22" class="node">
<title>Node21</title>
<polygon fill="none" stroke="#bfbfbf" points="1046,-224.5 1046,-243.5 1106,-243.5 1106,-224.5 1046,-224.5"/>
<text text-anchor="middle" x="1076" y="-231.5" font-family="Helvetica,sans-Serif" font-size="10.00" fill="#000000">iostream</text>
</g>
<!-- Node19&#45;&gt;Node21 -->
<g id="edge29" class="edge">
<title>Node19&#45;&gt;Node21</title>
<path fill="none" stroke="#191970" d="M1159.4071,-280.2455C1143.621,-271.4928 1120.2361,-258.527 1102.2413,-248.5496"/>
<polygon fill="#191970" stroke="#191970" points="1103.8341,-245.4308 1093.3913,-243.6427 1100.4397,-251.5528 1103.8341,-245.4308"/>
</g>
<!-- Node22 -->
<g id="node23" class="node">
<title>Node22</title>
<g id="a_node23"><a xlink:href="../../d9/d52/Common_2MathUtils_2include_2MathUtils_2Utils_8h.html" target="_top" xlink:title="MathUtils/Utils.h">
<polygon fill="none" stroke="#000000" points="1294,-224.5 1294,-243.5 1392,-243.5 1392,-224.5 1294,-224.5"/>
<text text-anchor="middle" x="1343" y="-231.5" font-family="Helvetica,sans-Serif" font-size="10.00" fill="#000000">MathUtils/Utils.h</text>
</a>
</g>
</g>
<!-- Node19&#45;&gt;Node22 -->
<g id="edge30" class="edge">
<title>Node19&#45;&gt;Node22</title>
<path fill="none" stroke="#191970" d="M1205.5364,-280.3733C1233.0202,-271.1016 1274.7686,-257.0178 1305.0452,-246.804"/>
<polygon fill="#191970" stroke="#191970" points="1306.4794,-250.0141 1314.836,-243.5011 1304.2418,-243.3813 1306.4794,-250.0141"/>
</g>
<!-- Node28 -->
<g id="node29" class="node">
<title>Node28</title>
<g id="a_node29"><a xlink:href="../../d6/da2/GPUCommonMath_8h.html" target="_top" xlink:title="GPUCommonMath.h">
<polygon fill="none" stroke="#000000" points="904.5,-112.5 904.5,-131.5 1019.5,-131.5 1019.5,-112.5 904.5,-112.5"/>
<text text-anchor="middle" x="962" y="-119.5" font-family="Helvetica,sans-Serif" font-size="10.00" fill="#000000">GPUCommonMath.h</text>
</a>
</g>
</g>
<!-- Node19&#45;&gt;Node28 -->
<g id="edge46" class="edge">
<title>Node19&#45;&gt;Node28</title>
<path fill="none" stroke="#191970" d="M1192.119,-280.3546C1210.7512,-267.2747 1238.1894,-243.327 1223,-224 1181.1695,-170.7748 1137.7754,-213.337 1075,-188 1041.4848,-174.4728 1005.9876,-152.2713 983.9139,-137.3998"/>
<polygon fill="#191970" stroke="#191970" points="985.8253,-134.4668 975.5948,-131.7122 981.8745,-140.2454 985.8253,-134.4668"/>
</g>
<!-- Node23 -->
<g id="node24" class="node">
<title>Node23</title>
<g id="a_node24"><a xlink:href="../../de/def/bitOps_8h.html" target="_top" xlink:title="MathUtils/detail/bitOps.h">
<polygon fill="none" stroke="#000000" points="1478.5,-168.5 1478.5,-187.5 1615.5,-187.5 1615.5,-168.5 1478.5,-168.5"/>
<text text-anchor="middle" x="1547" y="-175.5" font-family="Helvetica,sans-Serif" font-size="10.00" fill="#000000">MathUtils/detail/bitOps.h</text>
</a>
</g>
</g>
<!-- Node22&#45;&gt;Node23 -->
<g id="edge31" class="edge">
<title>Node22&#45;&gt;Node23</title>
<path fill="none" stroke="#191970" d="M1378.0689,-224.3733C1412.4315,-214.9404 1464.9392,-200.5265 1502.2851,-190.2747"/>
<polygon fill="#191970" stroke="#191970" points="1503.672,-193.5235 1512.3888,-187.5011 1501.819,-186.7732 1503.672,-193.5235"/>
</g>
<!-- Node25 -->
<g id="node26" class="node">
<title>Node25</title>
<g id="a_node26"><a xlink:href="../../d3/dfc/StatAccumulator_8h.html" target="_top" xlink:title="MathUtils/detail/StatAccumulator.h">
<polygon fill="none" stroke="#000000" points="1274,-168.5 1274,-187.5 1460,-187.5 1460,-168.5 1274,-168.5"/>
<text text-anchor="middle" x="1367" y="-175.5" font-family="Helvetica,sans-Serif" font-size="10.00" fill="#000000">MathUtils/detail/StatAccumulator.h</text>
</a>
</g>
</g>
<!-- Node22&#45;&gt;Node25 -->
<g id="edge33" class="edge">
<title>Node22&#45;&gt;Node25</title>
<path fill="none" stroke="#191970" d="M1347.1805,-224.2455C1350.381,-216.7776 1354.896,-206.2427 1358.8084,-197.1137"/>
<polygon fill="#191970" stroke="#191970" points="1362.1452,-198.2129 1362.8674,-187.6427 1355.7112,-195.4554 1362.1452,-198.2129"/>
</g>
<!-- Node27 -->
<g id="node28" class="node">
<title>Node27</title>
<g id="a_node28"><a xlink:href="../../dd/d7d/trigonometric_8h.html" target="_top" xlink:title="MathUtils/detail/trigonometric.h">
<polygon fill="none" stroke="#000000" points="1084,-168.5 1084,-187.5 1256,-187.5 1256,-168.5 1084,-168.5"/>
<text text-anchor="middle" x="1170" y="-175.5" font-family="Helvetica,sans-Serif" font-size="10.00" fill="#000000">MathUtils/detail/trigonometric.h</text>
</a>
</g>
</g>
<!-- Node22&#45;&gt;Node27 -->
<g id="edge35" class="edge">
<title>Node22&#45;&gt;Node27</title>
<path fill="none" stroke="#191970" d="M1313.2602,-224.3733C1284.493,-215.0613 1240.73,-200.8953 1209.1444,-190.671"/>
<polygon fill="#191970" stroke="#191970" points="1209.9436,-187.251 1199.3517,-187.5011 1207.7878,-193.9107 1209.9436,-187.251"/>
</g>
<!-- Node24 -->
<g id="node25" class="node">
<title>Node24</title>
<polygon fill="none" stroke="#bfbfbf" points="1522,-112.5 1522,-131.5 1572,-131.5 1572,-112.5 1522,-112.5"/>
<text text-anchor="middle" x="1547" y="-119.5" font-family="Helvetica,sans-Serif" font-size="10.00" fill="#000000">cstdint</text>
</g>
<!-- Node23&#45;&gt;Node24 -->
<g id="edge32" class="edge">
<title>Node23&#45;&gt;Node24</title>
<path fill="none" stroke="#191970" d="M1547,-168.2455C1547,-160.9382 1547,-150.6944 1547,-141.7046"/>
<polygon fill="#191970" stroke="#191970" points="1550.5001,-141.6426 1547,-131.6427 1543.5001,-141.6427 1550.5001,-141.6426"/>
</g>
<!-- Node26 -->
<g id="node27" class="node">
<title>Node26</title>
<polygon fill="none" stroke="#bfbfbf" points="1340.5,-112.5 1340.5,-131.5 1381.5,-131.5 1381.5,-112.5 1340.5,-112.5"/>
<text text-anchor="middle" x="1361" y="-119.5" font-family="Helvetica,sans-Serif" font-size="10.00" fill="#000000">tuple</text>
</g>
<!-- Node25&#45;&gt;Node26 -->
<g id="edge34" class="edge">
<title>Node25&#45;&gt;Node26</title>
<path fill="none" stroke="#191970" d="M1365.9549,-168.2455C1365.172,-160.9382 1364.0744,-150.6944 1363.1112,-141.7046"/>
<polygon fill="#191970" stroke="#191970" points="1366.5786,-141.2129 1362.0331,-131.6427 1359.6185,-141.9587 1366.5786,-141.2129"/>
</g>
<!-- Node27&#45;&gt;Node1 -->
<g id="edge36" class="edge">
<title>Node27&#45;&gt;Node1</title>
<path fill="none" stroke="#191970" d="M1108.3521,-168.4369C1030.4633,-156.3544 899.4226,-136.0268 839.983,-126.8062"/>
<polygon fill="#191970" stroke="#191970" points="840.4962,-123.3441 830.0779,-125.2697 839.4231,-130.2613 840.4962,-123.3441"/>
</g>
<!-- Node27&#45;&gt;Node3 -->
<g id="edge37" class="edge">
<title>Node27&#45;&gt;Node3</title>
<path fill="none" stroke="#191970" d="M1192.6659,-168.3702C1233.8173,-150.9455 1317.8846,-115.641 1332,-112 1460.1241,-78.9512 1618.2671,-69.5593 1686.2932,-66.9606"/>
<polygon fill="#191970" stroke="#191970" points="1686.55,-70.4538 1696.4188,-66.5993 1686.3003,-63.4582 1686.55,-70.4538"/>
</g>
<!-- Node27&#45;&gt;Node15 -->
<g id="edge39" class="edge">
<title>Node27&#45;&gt;Node15</title>
<path fill="none" stroke="#191970" d="M1147.3031,-168.3638C1126.3034,-159.3303 1094.3038,-145.2651 1067,-132 1049.8335,-123.6599 1047.174,-117.827 1029,-112 979.6862,-96.1888 839.4901,-80.3866 756.5983,-72.0469"/>
<polygon fill="#191970" stroke="#191970" points="756.8342,-68.5531 746.5361,-71.0428 756.1391,-75.5185 756.8342,-68.5531"/>
</g>
<!-- Node27&#45;&gt;Node26 -->
<g id="edge38" class="edge">
<title>Node27&#45;&gt;Node26</title>
<path fill="none" stroke="#191970" d="M1202.8341,-168.3733C1238.7525,-157.8422 1295.8457,-141.1028 1330.7204,-130.8778"/>
<polygon fill="#191970" stroke="#191970" points="1331.7456,-134.2246 1340.3569,-128.0524 1329.7761,-127.5074 1331.7456,-134.2246"/>
</g>
<!-- Node27&#45;&gt;Node28 -->
<g id="edge40" class="edge">
<title>Node27&#45;&gt;Node28</title>
<path fill="none" stroke="#191970" d="M1134.2435,-168.3733C1099.0574,-158.9001 1045.2119,-144.4032 1007.1044,-134.1435"/>
<polygon fill="#191970" stroke="#191970" points="1007.856,-130.7213 997.2899,-131.5011 1006.0361,-137.4806 1007.856,-130.7213"/>
</g>
<!-- Node30 -->
<g id="node31" class="node">
<title>Node30</title>
<g id="a_node31"><a xlink:href="../../d6/d84/MathConstants_8h.html" target="_top" xlink:title="useful math constants ">
<polygon fill="none" stroke="#000000" points="1076,-112.5 1076,-131.5 1270,-131.5 1270,-112.5 1076,-112.5"/>
<text text-anchor="middle" x="1173" y="-119.5" font-family="Helvetica,sans-Serif" font-size="10.00" fill="#000000">CommonConstants/MathConstants.h</text>
</a>
</g>
</g>
<!-- Node27&#45;&gt;Node30 -->
<g id="edge44" class="edge">
<title>Node27&#45;&gt;Node30</title>
<path fill="none" stroke="#191970" d="M1170.5226,-168.2455C1170.914,-160.9382 1171.4628,-150.6944 1171.9444,-141.7046"/>
<polygon fill="#191970" stroke="#191970" points="1175.4434,-141.8156 1172.4834,-131.6427 1168.4534,-141.4411 1175.4434,-141.8156"/>
</g>
<!-- Node28&#45;&gt;Node3 -->
<g id="edge42" class="edge">
<title>Node28&#45;&gt;Node3</title>
<path fill="none" stroke="#191970" d="M1019.7444,-116.2429C1035.0963,-114.7828 1051.6707,-113.2697 1067,-112 1303.8961,-92.3783 1589.5909,-74.1129 1686.2082,-68.0858"/>
<polygon fill="#191970" stroke="#191970" points="1686.501,-71.5744 1696.2643,-67.4601 1686.0663,-64.5879 1686.501,-71.5744"/>
</g>
<!-- Node28&#45;&gt;Node15 -->
<g id="edge41" class="edge">
<title>Node28&#45;&gt;Node15</title>
<path fill="none" stroke="#191970" d="M916.0629,-112.4369C869.7355,-102.7925 798.1732,-87.8948 748.6531,-77.5858"/>
<polygon fill="#191970" stroke="#191970" points="749.2511,-74.1353 738.7476,-75.5237 747.8244,-80.9884 749.2511,-74.1353"/>
</g>
<!-- Node29 -->
<g id="node30" class="node">
<title>Node29</title>
<polygon fill="none" stroke="#bfbfbf" points="397,-56.5 397,-75.5 461,-75.5 461,-56.5 397,-56.5"/>
<text text-anchor="middle" x="429" y="-63.5" font-family="Helvetica,sans-Serif" font-size="10.00" fill="#000000">algorithm</text>
</g>
<!-- Node28&#45;&gt;Node29 -->
<g id="edge43" class="edge">
<title>Node28&#45;&gt;Node29</title>
<path fill="none" stroke="#191970" d="M904.4532,-115.9538C796.519,-104.6136 566.0395,-80.3981 471.1527,-70.4288"/>
<polygon fill="#191970" stroke="#191970" points="471.3778,-66.9333 461.0668,-69.3691 470.6464,-73.895 471.3778,-66.9333"/>
</g>
<!-- Node31&#45;&gt;Node1 -->
<g id="edge50" class="edge">
<title>Node31&#45;&gt;Node1</title>
<path fill="none" stroke="#191970" d="M495.7026,-448.4091C567.7692,-424.2282 706.8229,-372.0884 809,-300 842.8576,-276.1127 872.9882,-264.2141 863,-224 855.1195,-192.2719 835.349,-159.554 822.0456,-139.9963"/>
<polygon fill="#191970" stroke="#191970" points="824.881,-137.9434 816.2845,-131.7505 819.1428,-141.9526 824.881,-137.9434"/>
</g>
<!-- Node31&#45;&gt;Node6 -->
<g id="edge51" class="edge">
<title>Node31&#45;&gt;Node6</title>
<path fill="none" stroke="#191970" d="M504.7536,-448.4554C548.7737,-436.7863 608.3538,-420.9924 645.4665,-411.1544"/>
<polygon fill="#191970" stroke="#191970" points="646.5374,-414.4914 655.3067,-408.5458 644.7437,-407.7251 646.5374,-414.4914"/>
</g>
<!-- Node31&#45;&gt;Node10 -->
<g id="edge58" class="edge">
<title>Node31&#45;&gt;Node10</title>
<path fill="none" stroke="#191970" d="M472.1844,-448.4065C524.8981,-415.5079 649.6189,-337.6695 702.0857,-304.9249"/>
<polygon fill="#191970" stroke="#191970" points="704.0932,-307.7978 710.7236,-299.534 700.3871,-301.8594 704.0932,-307.7978"/>
</g>
<!-- Node31&#45;&gt;Node12 -->
<g id="edge52" class="edge">
<title>Node31&#45;&gt;Node12</title>
<path fill="none" stroke="#191970" d="M433.6201,-448.1407C415.3047,-426.9086 386,-386.5944 386,-346 386,-346 386,-346 386,-290 386,-238.1892 445.8579,-205.3688 484.9569,-189.457"/>
<polygon fill="#191970" stroke="#191970" points="486.3557,-192.6684 494.401,-185.7747 483.8127,-186.1466 486.3557,-192.6684"/>
</g>
<!-- Node31&#45;&gt;Node13 -->
<g id="edge59" class="edge">
<title>Node31&#45;&gt;Node13</title>
<path fill="none" stroke="#191970" d="M446.061,-448.217C442.6194,-415.3895 438.278,-336.5381 467,-280 473.1599,-267.8745 483.9552,-257.4222 494.0323,-249.5593"/>
<polygon fill="#191970" stroke="#191970" points="496.2013,-252.3093 502.2107,-243.5836 492.0715,-246.6573 496.2013,-252.3093"/>
</g>
<!-- Node31&#45;&gt;Node14 -->
<g id="edge60" class="edge">
<title>Node31&#45;&gt;Node14</title>
<path fill="none" stroke="#191970" d="M375.8336,-455.5746C267.6539,-441.6592 76,-408.2255 76,-346 76,-346 76,-346 76,-290 76,-237.5755 135.7767,-206.5491 179.3505,-190.8967"/>
<polygon fill="#191970" stroke="#191970" points="180.6061,-194.1662 188.9261,-187.6065 178.3314,-187.5461 180.6061,-194.1662"/>
</g>
<!-- Node31&#45;&gt;Node29 -->
<g id="edge49" class="edge">
<title>Node31&#45;&gt;Node29</title>
<path fill="none" stroke="#191970" d="M375.68,-458.116C292.4489,-450.8978 161.7308,-436.122 119,-412 36.1304,-365.2193 0,-329.162 0,-234 0,-234 0,-234 0,-178 0,-98.663 278.1531,-74.475 386.5117,-68.0623"/>
<polygon fill="#191970" stroke="#191970" points="386.9703,-71.542 396.7553,-67.4795 386.5726,-64.5533 386.9703,-71.542"/>
</g>
<!-- Node32 -->
<g id="node33" class="node">
<title>Node32</title>
<g id="a_node33"><a xlink:href="../../d3/d78/Detectors_2ITSMFT_2ITS_2tracking_2include_2ITStracking_2Cell_8h.html" target="_top" xlink:title="ITStracking/Cell.h">
<polygon fill="none" stroke="#000000" points="218,-224.5 218,-243.5 320,-243.5 320,-224.5 218,-224.5"/>
<text text-anchor="middle" x="269" y="-231.5" font-family="Helvetica,sans-Serif" font-size="10.00" fill="#000000">ITStracking/Cell.h</text>
</a>
</g>
</g>
<!-- Node31&#45;&gt;Node32 -->
<g id="edge53" class="edge">
<title>Node31&#45;&gt;Node32</title>
<path fill="none" stroke="#191970" d="M400.5097,-448.4093C341.0286,-426.5612 242.1698,-379.7494 203,-300 192.561,-278.7464 215.5429,-260.2522 237.1935,-248.2921"/>
<polygon fill="#191970" stroke="#191970" points="239.0219,-251.2866 246.2895,-243.5773 235.8006,-245.0718 239.0219,-251.2866"/>
</g>
<!-- Node31&#45;&gt;Node33 -->
<g id="edge61" class="edge">
<title>Node31&#45;&gt;Node33</title>
<path fill="none" stroke="#191970" d="M422.1565,-448.3448C406.8581,-438.8137 387.5019,-425.748 372,-412 334.6074,-378.8381 297.9317,-332.7594 279.0785,-307.7939"/>
<polygon fill="#191970" stroke="#191970" points="281.7582,-305.5329 272.9706,-299.6144 276.1494,-309.7211 281.7582,-305.5329"/>
</g>
<!-- Node34 -->
<g id="node35" class="node">
<title>Node34</title>
<g id="a_node35"><a xlink:href="../../d8/db3/ITSMFT_2ITS_2tracking_2include_2ITStracking_2Tracklet_8h.html" target="_top" xlink:title="ITStracking/Tracklet.h">
<polygon fill="none" stroke="#000000" points="1011,-392.5 1011,-411.5 1133,-411.5 1133,-392.5 1011,-392.5"/>
<text text-anchor="middle" x="1072" y="-399.5" font-family="Helvetica,sans-Serif" font-size="10.00" fill="#000000">ITStracking/Tracklet.h</text>
</a>
</g>
</g>
<!-- Node31&#45;&gt;Node34 -->
<g id="edge65" class="edge">
<title>Node31&#45;&gt;Node34</title>
<path fill="none" stroke="#191970" d="M520.1903,-456.3851C640.517,-444.526 880.6735,-420.8567 1000.524,-409.0445"/>
<polygon fill="#191970" stroke="#191970" points="1001.0824,-412.5065 1010.6909,-408.0425 1000.3958,-405.5403 1001.0824,-412.5065"/>
</g>
<!-- Node32&#45;&gt;Node1 -->
<g id="edge54" class="edge">
<title>Node32&#45;&gt;Node1</title>
<path fill="none" stroke="#191970" d="M290.0025,-224.4751C322.9535,-209.9428 389.1248,-182.4074 448,-168 567.7977,-138.6841 714.8001,-127.33 777.8624,-123.5906"/>
<polygon fill="#191970" stroke="#191970" points="778.1582,-127.0795 787.9428,-123.016 777.7598,-120.0908 778.1582,-127.0795"/>
</g>
<!-- Node32&#45;&gt;Node12 -->
<g id="edge55" class="edge">
<title>Node32&#45;&gt;Node12</title>
<path fill="none" stroke="#191970" d="M311.5217,-224.4369C360.4898,-213.424 439.916,-195.5611 484.6403,-185.5026"/>
<polygon fill="#191970" stroke="#191970" points="485.4409,-188.91 494.4292,-183.3011 483.9049,-182.0806 485.4409,-188.91"/>
</g>
<!-- Node32&#45;&gt;Node14 -->
<g id="edge56" class="edge">
<title>Node32&#45;&gt;Node14</title>
<path fill="none" stroke="#191970" d="M261.1616,-224.2455C254.838,-216.3761 245.7776,-205.101 238.1864,-195.6542"/>
<polygon fill="#191970" stroke="#191970" points="240.7408,-193.2454 231.7486,-187.6427 235.2842,-197.6302 240.7408,-193.2454"/>
</g>
<!-- Node32&#45;&gt;Node15 -->
<g id="edge57" class="edge">
<title>Node32&#45;&gt;Node15</title>
<path fill="none" stroke="#191970" d="M276.6845,-224.4048C296.16,-200.83 350.1758,-139.9603 410,-112 447.8769,-94.2974 557.9047,-80.02 629.0821,-72.2954"/>
<polygon fill="#191970" stroke="#191970" points="629.7176,-75.7475 639.2886,-71.2037 628.973,-68.7872 629.7176,-75.7475"/>
</g>
<!-- Node33&#45;&gt;Node1 -->
<g id="edge62" class="edge">
<title>Node33&#45;&gt;Node1</title>
<path fill="none" stroke="#191970" d="M280.4778,-280.3607C300.6418,-267.0809 338.484,-242.6816 372,-224 420.9593,-196.7105 431.4617,-184.5946 485,-168 588.9627,-135.7759 718.7719,-126.0204 777.5223,-123.1511"/>
<polygon fill="#191970" stroke="#191970" points="777.8121,-126.6416 787.6431,-122.6916 777.4946,-119.6488 777.8121,-126.6416"/>
</g>
<!-- Node33&#45;&gt;Node13 -->
<g id="edge63" class="edge">
<title>Node33&#45;&gt;Node13</title>
<path fill="none" stroke="#191970" d="M309.034,-280.4369C352.2525,-270.8328 418.9141,-256.0191 465.2818,-245.7152"/>
<polygon fill="#191970" stroke="#191970" points="466.1409,-249.1097 475.1435,-243.5237 464.6223,-242.2764 466.1409,-249.1097"/>
</g>
<!-- Node33&#45;&gt;Node15 -->
<g id="edge64" class="edge">
<title>Node33&#45;&gt;Node15</title>
<path fill="none" stroke="#191970" d="M244.4301,-280.3847C214.6028,-265.6121 162.664,-234.1193 147,-188 131.3315,-141.8673 180.358,-129.0453 226,-112 298.1793,-85.0442 518.6403,-72.8095 628.86,-68.2577"/>
<polygon fill="#191970" stroke="#191970" points="629.3231,-71.742 639.1736,-67.841 629.0404,-64.7477 629.3231,-71.742"/>
</g>
<!-- Node34&#45;&gt;Node15 -->
<g id="edge80" class="edge">
<title>Node34&#45;&gt;Node15</title>
<path fill="none" stroke="#191970" d="M1133.0004,-397.1738C1287.4908,-384.1362 1682,-345.418 1682,-290 1682,-290 1682,-290 1682,-178 1682,-133.9305 1648.7725,-128.7251 1608,-112 1529.8427,-79.9394 951.2495,-69.4115 756.6484,-66.7573"/>
<polygon fill="#191970" stroke="#191970" points="756.6225,-63.2567 746.5765,-66.6223 756.5286,-70.2561 756.6225,-63.2567"/>
</g>
<!-- Node34&#45;&gt;Node21 -->
<g id="edge78" class="edge">
<title>Node34&#45;&gt;Node21</title>
<path fill="none" stroke="#191970" d="M1072.2265,-392.4862C1072.8588,-365.9293 1074.6532,-290.5651 1075.5199,-254.1655"/>
<polygon fill="#191970" stroke="#191970" points="1079.0269,-253.9084 1075.766,-243.8279 1072.0289,-253.7417 1079.0269,-253.9084"/>
</g>
<!-- Node34&#45;&gt;Node28 -->
<g id="edge79" class="edge">
<title>Node34&#45;&gt;Node28</title>
<path fill="none" stroke="#191970" d="M1068.2136,-392.3618C1052.3467,-351.9735 991.039,-195.9174 969.5188,-141.1388"/>
<polygon fill="#191970" stroke="#191970" points="972.6847,-139.6254 965.7705,-131.5977 966.1695,-142.185 972.6847,-139.6254"/>
</g>
<!-- Node35 -->
<g id="node36" class="node">
<title>Node35</title>
<g id="a_node36"><a xlink:href="../../da/d7f/Detectors_2ITSMFT_2ITS_2tracking_2include_2ITStracking_2Cluster_8h.html" target="_top" xlink:title="ITStracking/Cluster.h">
<polygon fill="none" stroke="#000000" points="837.5,-336.5 837.5,-355.5 954.5,-355.5 954.5,-336.5 837.5,-336.5"/>
<text text-anchor="middle" x="896" y="-343.5" font-family="Helvetica,sans-Serif" font-size="10.00" fill="#000000">ITStracking/Cluster.h</text>
</a>
</g>
</g>
<!-- Node34&#45;&gt;Node35 -->
<g id="edge66" class="edge">
<title>Node34&#45;&gt;Node35</title>
<path fill="none" stroke="#191970" d="M1041.7445,-392.3733C1012.3517,-383.021 967.5708,-368.7725 935.4066,-358.5385"/>
<polygon fill="#191970" stroke="#191970" points="936.4512,-355.198 925.8607,-355.5011 934.3287,-361.8685 936.4512,-355.198"/>
</g>
<!-- Node35&#45;&gt;Node1 -->
<g id="edge67" class="edge">
<title>Node35&#45;&gt;Node1</title>
<path fill="none" stroke="#191970" d="M901.3212,-336.3924C912.296,-315.2172 935.0438,-263.2918 918,-224 901.1167,-185.0782 861.2557,-154.2261 834.7068,-137.0383"/>
<polygon fill="#191970" stroke="#191970" points="836.2628,-133.8829 825.9307,-131.5378 832.5452,-139.8142 836.2628,-133.8829"/>
</g>
<!-- Node35&#45;&gt;Node14 -->
<g id="edge68" class="edge">
<title>Node35&#45;&gt;Node14</title>
<path fill="none" stroke="#191970" d="M837.4714,-341.5753C754.6621,-334.8952 598.7054,-320.769 467,-300 436.9504,-295.2614 218.1852,-267.6084 199,-244 187.6094,-229.9833 197.6252,-210.2259 208.172,-195.9862"/>
<polygon fill="#191970" stroke="#191970" points="211.1018,-197.927 214.621,-187.9336 205.638,-193.5512 211.1018,-197.927"/>
</g>
<!-- Node35&#45;&gt;Node19 -->
<g id="edge69" class="edge">
<title>Node35&#45;&gt;Node19</title>
<path fill="none" stroke="#191970" d="M943.9863,-336.4369C992.4814,-326.7724 1067.4473,-311.8326 1119.1879,-301.5213"/>
<polygon fill="#191970" stroke="#191970" points="1120.0885,-304.9107 1129.2116,-299.5237 1118.7203,-298.0457 1120.0885,-304.9107"/>
</g>
<!-- Node36 -->
<g id="node37" class="node">
<title>Node36</title>
<g id="a_node37"><a xlink:href="../../dc/ddf/ITS_2tracking_2include_2ITStracking_2IndexTableUtils_8h.html" target="_top" xlink:title="ITStracking/IndexTableUtils.h">
<polygon fill="none" stroke="#000000" points="476,-280.5 476,-299.5 634,-299.5 634,-280.5 476,-280.5"/>
<text text-anchor="middle" x="555" y="-287.5" font-family="Helvetica,sans-Serif" font-size="10.00" fill="#000000">ITStracking/IndexTableUtils.h</text>
</a>
</g>
</g>
<!-- Node35&#45;&gt;Node36 -->
<g id="edge70" class="edge">
<title>Node35&#45;&gt;Node36</title>
<path fill="none" stroke="#191970" d="M837.7675,-336.4369C778.3045,-326.6717 686.0459,-311.5207 623.2035,-301.2006"/>
<polygon fill="#191970" stroke="#191970" points="623.4274,-297.6905 612.9924,-299.5237 622.293,-304.598 623.4274,-297.6905"/>
</g>
<!-- Node36&#45;&gt;Node1 -->
<g id="edge71" class="edge">
<title>Node36&#45;&gt;Node1</title>
<path fill="none" stroke="#191970" d="M569.3839,-280.4862C611.4595,-252.6567 734.5687,-171.2301 786.0027,-137.2108"/>
<polygon fill="#191970" stroke="#191970" points="788.0492,-140.0536 794.459,-131.6177 784.1875,-134.2151 788.0492,-140.0536"/>
</g>
<!-- Node36&#45;&gt;Node8 -->
<g id="edge72" class="edge">
<title>Node36&#45;&gt;Node8</title>
<path fill="none" stroke="#191970" d="M599.4002,-280.4369C651.4482,-269.2265 736.4505,-250.9184 782.643,-240.9692"/>
<polygon fill="#191970" stroke="#191970" points="783.3878,-244.3891 792.4266,-238.862 781.9138,-237.5461 783.3878,-244.3891"/>
</g>
<!-- Node36&#45;&gt;Node12 -->
<g id="edge73" class="edge">
<title>Node36&#45;&gt;Node12</title>
<path fill="none" stroke="#191970" d="M567.3999,-280.4228C582.3946,-267.6184 604.3019,-244.1902 593,-224 583.9792,-207.8848 566.7499,-196.731 551.0779,-189.4469"/>
<polygon fill="#191970" stroke="#191970" points="552.1794,-186.1115 541.6084,-185.4017 549.4295,-192.5488 552.1794,-186.1115"/>
</g>
<!-- Node36&#45;&gt;Node13 -->
<g id="edge74" class="edge">
<title>Node36&#45;&gt;Node13</title>
<path fill="none" stroke="#191970" d="M548.5551,-280.2455C543.4618,-272.5367 536.2092,-261.5598 530.048,-252.2348"/>
<polygon fill="#191970" stroke="#191970" points="532.8038,-250.0566 524.3711,-243.6427 526.9635,-253.9155 532.8038,-250.0566"/>
</g>
<!-- Node36&#45;&gt;Node14 -->
<g id="edge75" class="edge">
<title>Node36&#45;&gt;Node14</title>
<path fill="none" stroke="#191970" d="M475.7545,-284.9076C379.088,-277.873 226.3179,-263.7727 209,-244 197.5684,-230.948 204.314,-210.9956 212.0714,-196.445"/>
<polygon fill="#191970" stroke="#191970" points="215.106,-198.1889 217.1342,-187.79 209.0639,-194.6544 215.106,-198.1889"/>
</g>
<!-- Node36&#45;&gt;Node15 -->
<g id="edge77" class="edge">
<title>Node36&#45;&gt;Node15</title>
<path fill="none" stroke="#191970" d="M498.3634,-280.4697C477.347,-273.8875 455.5824,-262.77 443,-244 438.0506,-236.6166 440.1891,-232.4327 443,-224 471.1654,-139.5038 575.951,-96.9717 640.5862,-78.3302"/>
<polygon fill="#191970" stroke="#191970" points="641.9036,-81.5966 650.5971,-75.5407 640.0246,-74.8534 641.9036,-81.5966"/>
</g>
<!-- Node36&#45;&gt;Node28 -->
<g id="edge76" class="edge">
<title>Node36&#45;&gt;Node28</title>
<path fill="none" stroke="#191970" d="M578.0482,-280.4862C646.6658,-252.1625 849.7816,-168.3211 929.4309,-135.4438"/>
<polygon fill="#191970" stroke="#191970" points="931.0449,-138.5641 938.9529,-131.5133 928.374,-132.0936 931.0449,-138.5641"/>
</g>
</g>
</svg>
