<?xml version="1.0" encoding="UTF-8" standalone="no"?>
<!DOCTYPE svg PUBLIC "-//W3C//DTD SVG 1.1//EN"
 "http://www.w3.org/Graphics/SVG/1.1/DTD/svg11.dtd">
<!-- Generated by graphviz version 2.40.1 (20161225.0304)
 -->
<!-- Title: ReconstructedTask Pages: 1 -->
<svg width="1378pt" height="926pt"
 viewBox="0.00 0.00 1377.67 926.00" xmlns="http://www.w3.org/2000/svg" xmlns:xlink="http://www.w3.org/1999/xlink">
<g id="graph0" class="graph" transform="scale(1 1) rotate(0) translate(4 922)">
<title>ReconstructedTask</title>
<!-- Node1 -->
<g id="node1" class="node">
<title>Node1</title>
<polygon fill="#bfbfbf" stroke="#000000" points="793.6684,-.5 793.6684,-68.5 900.6684,-68.5 900.6684,-.5 793.6684,-.5"/>
<text text-anchor="middle" x="847.1684" y="-56.5" font-family="Helvetica,sans-Serif" font-size="10.00" fill="#000000">ReconstructedTask</text>
<polyline fill="none" stroke="#000000" points="793.6684,-49.5 900.6684,-49.5 "/>
<text text-anchor="start" x="801.6684" y="-37.5" font-family="Helvetica,sans-Serif" font-size="10.00" fill="#000000">+ etaH</text>
<text text-anchor="start" x="801.6684" y="-26.5" font-family="Helvetica,sans-Serif" font-size="10.00" fill="#000000">+ dcaxysecH</text>
<polyline fill="none" stroke="#000000" points="793.6684,-19.5 900.6684,-19.5 "/>
<text text-anchor="start" x="801.6684" y="-7.5" font-family="Helvetica,sans-Serif" font-size="10.00" fill="#000000">+ process()</text>
</g>
<!-- Node2 -->
<g id="node2" class="node">
<title>Node2</title>
<g id="a_node2"><a xlink:href="../../d4/d79/structo2_1_1framework_1_1OutputObj.html" target="_top" xlink:title="{o2::framework::OutputObj\l\&lt; TH2F \&gt;\n||+ spec()\l+ OutputObj()\l+ OutputObj()\l+ setObject()\l+ setObject()\l+ setObject()\l+ setObject()\l+ setHash()\l+ operator&#45;\&gt;()\l+ operator*()\l+ ref()\l}">
<polygon fill="none" stroke="#000000" points="442.6684,-226.5 442.6684,-404.5 585.6684,-404.5 585.6684,-226.5 442.6684,-226.5"/>
<text text-anchor="start" x="450.6684" y="-392.5" font-family="Helvetica,sans-Serif" font-size="10.00" fill="#000000">o2::framework::OutputObj</text>
<text text-anchor="middle" x="514.1684" y="-381.5" font-family="Helvetica,sans-Serif" font-size="10.00" fill="#000000">&lt; TH2F &gt;</text>
<polyline fill="none" stroke="#000000" points="442.6684,-374.5 585.6684,-374.5 "/>
<text text-anchor="middle" x="514.1684" y="-362.5" font-family="Helvetica,sans-Serif" font-size="10.00" fill="#000000"> </text>
<polyline fill="none" stroke="#000000" points="442.6684,-355.5 585.6684,-355.5 "/>
<text text-anchor="start" x="450.6684" y="-343.5" font-family="Helvetica,sans-Serif" font-size="10.00" fill="#000000">+ spec()</text>
<text text-anchor="start" x="450.6684" y="-332.5" font-family="Helvetica,sans-Serif" font-size="10.00" fill="#000000">+ OutputObj()</text>
<text text-anchor="start" x="450.6684" y="-321.5" font-family="Helvetica,sans-Serif" font-size="10.00" fill="#000000">+ OutputObj()</text>
<text text-anchor="start" x="450.6684" y="-310.5" font-family="Helvetica,sans-Serif" font-size="10.00" fill="#000000">+ setObject()</text>
<text text-anchor="start" x="450.6684" y="-299.5" font-family="Helvetica,sans-Serif" font-size="10.00" fill="#000000">+ setObject()</text>
<text text-anchor="start" x="450.6684" y="-288.5" font-family="Helvetica,sans-Serif" font-size="10.00" fill="#000000">+ setObject()</text>
<text text-anchor="start" x="450.6684" y="-277.5" font-family="Helvetica,sans-Serif" font-size="10.00" fill="#000000">+ setObject()</text>
<text text-anchor="start" x="450.6684" y="-266.5" font-family="Helvetica,sans-Serif" font-size="10.00" fill="#000000">+ setHash()</text>
<text text-anchor="start" x="450.6684" y="-255.5" font-family="Helvetica,sans-Serif" font-size="10.00" fill="#000000">+ operator&#45;&gt;()</text>
<text text-anchor="start" x="450.6684" y="-244.5" font-family="Helvetica,sans-Serif" font-size="10.00" fill="#000000">+ operator*()</text>
<text text-anchor="start" x="450.6684" y="-233.5" font-family="Helvetica,sans-Serif" font-size="10.00" fill="#000000">+ ref()</text>
</a>
</g>
</g>
<!-- Node2&#45;&gt;Node1 -->
<g id="edge1" class="edge">
<title>Node2&#45;&gt;Node1</title>
<path fill="none" stroke="#404040" d="M586.0145,-254.8731C649.816,-201.0346 741.3844,-123.7652 797.4243,-76.4763"/>
<polygon fill="none" stroke="#404040" points="797.6101,-76.3195 799.616,-69.3929 806.7812,-68.5805 804.7753,-75.507 797.6101,-76.3195"/>
<text text-anchor="middle" x="811.6684" y="-200" font-family="Helvetica,sans-Serif" font-size="10.00" fill="#000000"> +dcaxyH</text>
<text text-anchor="middle" x="811.6684" y="-189" font-family="Helvetica,sans-Serif" font-size="10.00" fill="#000000">+etaDiff</text>
<text text-anchor="middle" x="811.6684" y="-178" font-family="Helvetica,sans-Serif" font-size="10.00" fill="#000000">+phiH</text>
<text text-anchor="middle" x="811.6684" y="-167" font-family="Helvetica,sans-Serif" font-size="10.00" fill="#000000">+pH</text>
<text text-anchor="middle" x="811.6684" y="-156" font-family="Helvetica,sans-Serif" font-size="10.00" fill="#000000">+pDiff</text>
<text text-anchor="middle" x="811.6684" y="-145" font-family="Helvetica,sans-Serif" font-size="10.00" fill="#000000">+dcazH</text>
<text text-anchor="middle" x="811.6684" y="-134" font-family="Helvetica,sans-Serif" font-size="10.00" fill="#000000">+ptH</text>
<text text-anchor="middle" x="811.6684" y="-123" font-family="Helvetica,sans-Serif" font-size="10.00" fill="#000000">+dcazsecH</text>
<text text-anchor="middle" x="811.6684" y="-112" font-family="Helvetica,sans-Serif" font-size="10.00" fill="#000000">+ptDiff</text>
<text text-anchor="middle" x="811.6684" y="-101" font-family="Helvetica,sans-Serif" font-size="10.00" fill="#000000">+phiDiff</text>
<text text-anchor="middle" x="811.6684" y="-90" font-family="Helvetica,sans-Serif" font-size="10.00" fill="#000000">...</text>
</g>
<!-- Node3 -->
<g id="node3" class="node">
<title>Node3</title>
<polygon fill="none" stroke="#bfbfbf" points="732.6684,-695 732.6684,-752 871.6684,-752 871.6684,-695 732.6684,-695"/>
<text text-anchor="middle" x="802.1684" y="-740" font-family="Helvetica,sans-Serif" font-size="10.00" fill="#000000">OutputObjHandlingPolicy</text>
<polyline fill="none" stroke="#bfbfbf" points="732.6684,-733 871.6684,-733 "/>
<text text-anchor="middle" x="802.1684" y="-721" font-family="Helvetica,sans-Serif" font-size="10.00" fill="#000000"> </text>
<polyline fill="none" stroke="#bfbfbf" points="732.6684,-714 871.6684,-714 "/>
<text text-anchor="middle" x="802.1684" y="-702" font-family="Helvetica,sans-Serif" font-size="10.00" fill="#000000"> </text>
</g>
<!-- Node3&#45;&gt;Node2 -->
<g id="edge2" class="edge">
<title>Node3&#45;&gt;Node2</title>
<path fill="none" stroke="#404040" d="M791.4017,-694.9472C784.1376,-674.4077 775.0223,-645.8799 770.1684,-620 762.078,-576.864 781.3772,-458.9262 756.1684,-423 719.6975,-371.0237 652.1393,-343.8407 597.6538,-329.8273"/>
<polygon fill="none" stroke="#404040" points="597.5454,-329.8009 590.767,-332.2613 585.8888,-326.9507 592.6671,-324.4902 597.5454,-329.8009"/>
<text text-anchor="middle" x="790.6684" y="-533.5" font-family="Helvetica,sans-Serif" font-size="10.00" fill="#000000"> +policy</text>
</g>
<!-- Node12 -->
<g id="node12" class="node">
<title>Node12</title>
<g id="a_node12"><a xlink:href="../../d4/d79/structo2_1_1framework_1_1OutputObj.html" target="_top" xlink:title="{o2::framework::OutputObj\&lt; T \&gt;\n||+ OutputObj()\l+ OutputObj()\l+ setObject()\l+ setObject()\l+ setObject()\l+ setObject()\l+ setHash()\l+ spec()\l+ operator&#45;\&gt;()\l+ operator*()\l+ ref()\l}">
<polygon fill="none" stroke="#000000" points="562.1684,-452.5 562.1684,-619.5 734.1684,-619.5 734.1684,-452.5 562.1684,-452.5"/>
<text text-anchor="middle" x="648.1684" y="-607.5" font-family="Helvetica,sans-Serif" font-size="10.00" fill="#000000">o2::framework::OutputObj&lt; T &gt;</text>
<polyline fill="none" stroke="#000000" points="562.1684,-600.5 734.1684,-600.5 "/>
<text text-anchor="middle" x="648.1684" y="-588.5" font-family="Helvetica,sans-Serif" font-size="10.00" fill="#000000"> </text>
<polyline fill="none" stroke="#000000" points="562.1684,-581.5 734.1684,-581.5 "/>
<text text-anchor="start" x="570.1684" y="-569.5" font-family="Helvetica,sans-Serif" font-size="10.00" fill="#000000">+ OutputObj()</text>
<text text-anchor="start" x="570.1684" y="-558.5" font-family="Helvetica,sans-Serif" font-size="10.00" fill="#000000">+ OutputObj()</text>
<text text-anchor="start" x="570.1684" y="-547.5" font-family="Helvetica,sans-Serif" font-size="10.00" fill="#000000">+ setObject()</text>
<text text-anchor="start" x="570.1684" y="-536.5" font-family="Helvetica,sans-Serif" font-size="10.00" fill="#000000">+ setObject()</text>
<text text-anchor="start" x="570.1684" y="-525.5" font-family="Helvetica,sans-Serif" font-size="10.00" fill="#000000">+ setObject()</text>
<text text-anchor="start" x="570.1684" y="-514.5" font-family="Helvetica,sans-Serif" font-size="10.00" fill="#000000">+ setObject()</text>
<text text-anchor="start" x="570.1684" y="-503.5" font-family="Helvetica,sans-Serif" font-size="10.00" fill="#000000">+ setHash()</text>
<text text-anchor="start" x="570.1684" y="-492.5" font-family="Helvetica,sans-Serif" font-size="10.00" fill="#000000">+ spec()</text>
<text text-anchor="start" x="570.1684" y="-481.5" font-family="Helvetica,sans-Serif" font-size="10.00" fill="#000000">+ operator&#45;&gt;()</text>
<text text-anchor="start" x="570.1684" y="-470.5" font-family="Helvetica,sans-Serif" font-size="10.00" fill="#000000">+ operator*()</text>
<text text-anchor="start" x="570.1684" y="-459.5" font-family="Helvetica,sans-Serif" font-size="10.00" fill="#000000">+ ref()</text>
</a>
</g>
</g>
<!-- Node3&#45;&gt;Node12 -->
<g id="edge13" class="edge">
<title>Node3&#45;&gt;Node12</title>
<path fill="none" stroke="#404040" d="M763.2855,-694.7838C747.2838,-681.8551 729.2418,-665.7452 715.1684,-649 710.0417,-642.9 705.0664,-636.3603 700.2967,-629.6146"/>
<polygon fill="none" stroke="#404040" points="700.2316,-629.5193 693.5441,-626.8217 693.462,-619.6111 700.1495,-622.3086 700.2316,-629.5193"/>
<text text-anchor="middle" x="735.6684" y="-641" font-family="Helvetica,sans-Serif" font-size="10.00" fill="#000000"> +policy</text>
</g>
<!-- Node14 -->
<g id="node14" class="node">
<title>Node14</title>
<g id="a_node14"><a xlink:href="../../d4/d79/structo2_1_1framework_1_1OutputObj.html" target="_top" xlink:title="{o2::framework::OutputObj\l\&lt; TH1F \&gt;\n||+ spec()\l+ OutputObj()\l+ OutputObj()\l+ setObject()\l+ setObject()\l+ setObject()\l+ setObject()\l+ setHash()\l+ operator&#45;\&gt;()\l+ operator*()\l+ ref()\l}">
<polygon fill="none" stroke="#000000" points="775.6684,-226.5 775.6684,-404.5 918.6684,-404.5 918.6684,-226.5 775.6684,-226.5"/>
<text text-anchor="start" x="783.6684" y="-392.5" font-family="Helvetica,sans-Serif" font-size="10.00" fill="#000000">o2::framework::OutputObj</text>
<text text-anchor="middle" x="847.1684" y="-381.5" font-family="Helvetica,sans-Serif" font-size="10.00" fill="#000000">&lt; TH1F &gt;</text>
<polyline fill="none" stroke="#000000" points="775.6684,-374.5 918.6684,-374.5 "/>
<text text-anchor="middle" x="847.1684" y="-362.5" font-family="Helvetica,sans-Serif" font-size="10.00" fill="#000000"> </text>
<polyline fill="none" stroke="#000000" points="775.6684,-355.5 918.6684,-355.5 "/>
<text text-anchor="start" x="783.6684" y="-343.5" font-family="Helvetica,sans-Serif" font-size="10.00" fill="#000000">+ spec()</text>
<text text-anchor="start" x="783.6684" y="-332.5" font-family="Helvetica,sans-Serif" font-size="10.00" fill="#000000">+ OutputObj()</text>
<text text-anchor="start" x="783.6684" y="-321.5" font-family="Helvetica,sans-Serif" font-size="10.00" fill="#000000">+ OutputObj()</text>
<text text-anchor="start" x="783.6684" y="-310.5" font-family="Helvetica,sans-Serif" font-size="10.00" fill="#000000">+ setObject()</text>
<text text-anchor="start" x="783.6684" y="-299.5" font-family="Helvetica,sans-Serif" font-size="10.00" fill="#000000">+ setObject()</text>
<text text-anchor="start" x="783.6684" y="-288.5" font-family="Helvetica,sans-Serif" font-size="10.00" fill="#000000">+ setObject()</text>
<text text-anchor="start" x="783.6684" y="-277.5" font-family="Helvetica,sans-Serif" font-size="10.00" fill="#000000">+ setObject()</text>
<text text-anchor="start" x="783.6684" y="-266.5" font-family="Helvetica,sans-Serif" font-size="10.00" fill="#000000">+ setHash()</text>
<text text-anchor="start" x="783.6684" y="-255.5" font-family="Helvetica,sans-Serif" font-size="10.00" fill="#000000">+ operator&#45;&gt;()</text>
<text text-anchor="start" x="783.6684" y="-244.5" font-family="Helvetica,sans-Serif" font-size="10.00" fill="#000000">+ operator*()</text>
<text text-anchor="start" x="783.6684" y="-233.5" font-family="Helvetica,sans-Serif" font-size="10.00" fill="#000000">+ ref()</text>
</a>
</g>
</g>
<!-- Node3&#45;&gt;Node14 -->
<g id="edge20" class="edge">
<title>Node3&#45;&gt;Node14</title>
<path fill="none" stroke="#404040" d="M805.9104,-694.9636C808.5962,-674.1883 812.2427,-645.3668 815.1684,-620 822.9744,-552.319 830.9853,-476.0816 837.0392,-416.8208"/>
<polygon fill="none" stroke="#404040" points="837.0452,-416.761 833.6742,-410.3863 838.2619,-404.8228 841.6329,-411.1974 837.0452,-416.761"/>
<text text-anchor="middle" x="853.6684" y="-533.5" font-family="Helvetica,sans-Serif" font-size="10.00" fill="#000000"> +policy</text>
</g>
<!-- Node4 -->
<g id="node4" class="node">
<title>Node4</title>
<g id="a_node4"><a xlink:href="../../d3/d87/classuint32__t.html" target="_top" xlink:title="{uint32_t\n||}">
<polygon fill="none" stroke="#000000" points="118.1684,-695 118.1684,-752 174.1684,-752 174.1684,-695 118.1684,-695"/>
<text text-anchor="middle" x="146.1684" y="-740" font-family="Helvetica,sans-Serif" font-size="10.00" fill="#000000">uint32_t</text>
<polyline fill="none" stroke="#000000" points="118.1684,-733 174.1684,-733 "/>
<text text-anchor="middle" x="146.1684" y="-721" font-family="Helvetica,sans-Serif" font-size="10.00" fill="#000000"> </text>
<polyline fill="none" stroke="#000000" points="118.1684,-714 174.1684,-714 "/>
<text text-anchor="middle" x="146.1684" y="-702" font-family="Helvetica,sans-Serif" font-size="10.00" fill="#000000"> </text>
</a>
</g>
</g>
<!-- Node4&#45;&gt;Node2 -->
<g id="edge3" class="edge">
<title>Node4&#45;&gt;Node2</title>
<path fill="none" stroke="#404040" d="M117.7828,-701.0192C96.285,-682.0462 68.4296,-652.7861 56.1684,-620 30.014,-550.0639 13.8154,-513.4926 56.1684,-452 98.7681,-390.1492 310.1521,-347.515 430.3027,-327.849"/>
<polygon fill="none" stroke="#404040" points="430.502,-327.8169 435.7877,-322.9117 442.3486,-325.9043 437.0628,-330.8095 430.502,-327.8169"/>
<text text-anchor="middle" x="90.1684" y="-533.5" font-family="Helvetica,sans-Serif" font-size="10.00" fill="#000000"> +mTaskHash</text>
</g>
<!-- Node4&#45;&gt;Node12 -->
<g id="edge14" class="edge">
<title>Node4&#45;&gt;Node12</title>
<path fill="none" stroke="#404040" d="M174.3591,-713.9346C225.9719,-696.7107 339.3478,-660.2104 437.1684,-638 485.9057,-626.9341 502.7343,-640.8212 548.1684,-620 549.1829,-619.5351 550.1954,-619.057 551.2055,-618.5664"/>
<polygon fill="none" stroke="#404040" points="551.3312,-618.4996 554.7492,-612.15 561.925,-612.863 558.5069,-619.2125 551.3312,-618.4996"/>
<text text-anchor="middle" x="471.1684" y="-641" font-family="Helvetica,sans-Serif" font-size="10.00" fill="#000000"> +mTaskHash</text>
</g>
<!-- Node4&#45;&gt;Node14 -->
<g id="edge21" class="edge">
<title>Node4&#45;&gt;Node14</title>
<path fill="none" stroke="#404040" d="M142.7914,-694.8613C136.1137,-632.5844 124.3829,-487.5715 155.1684,-452 203.0347,-396.6923 244.5588,-431.8299 317.1684,-423 439.6369,-408.1069 473.3173,-429.8066 594.1684,-405 652.4763,-393.0314 715.5975,-370.7183 764.206,-351.3666"/>
<polygon fill="none" stroke="#404040" points="764.4752,-351.2582 768.547,-345.3067 775.6068,-346.7763 771.535,-352.7278 764.4752,-351.2582"/>
<text text-anchor="middle" x="189.1684" y="-533.5" font-family="Helvetica,sans-Serif" font-size="10.00" fill="#000000"> +mTaskHash</text>
</g>
<!-- Node5 -->
<g id="node5" class="node">
<title>Node5</title>
<polygon fill="none" stroke="#bfbfbf" points="730.6684,-844 730.6684,-901 759.6684,-901 759.6684,-844 730.6684,-844"/>
<text text-anchor="middle" x="745.1684" y="-889" font-family="Helvetica,sans-Serif" font-size="10.00" fill="#000000">int</text>
<polyline fill="none" stroke="#bfbfbf" points="730.6684,-882 759.6684,-882 "/>
<text text-anchor="middle" x="745.1684" y="-870" font-family="Helvetica,sans-Serif" font-size="10.00" fill="#000000"> </text>
<polyline fill="none" stroke="#bfbfbf" points="730.6684,-863 759.6684,-863 "/>
<text text-anchor="middle" x="745.1684" y="-851" font-family="Helvetica,sans-Serif" font-size="10.00" fill="#000000"> </text>
</g>
<!-- Node5&#45;&gt;Node2 -->
<g id="edge4" class="edge">
<title>Node5&#45;&gt;Node2</title>
<path fill="none" stroke="#404040" d="M730.4358,-871.9929C645.3785,-868.8272 217.1393,-849.5908 109.1684,-780 51.0338,-742.5303 44.6202,-715.3719 25.1684,-649 .5437,-564.9774 -16.3329,-528.5494 26.1684,-452 65.5728,-381.0285 301.7674,-341.4458 430.5479,-324.8787"/>
<polygon fill="none" stroke="#404040" points="430.7598,-324.852 436.2107,-320.1311 442.665,-323.347 437.2141,-328.0679 430.7598,-324.852"/>
<text text-anchor="middle" x="43.1684" y="-641" font-family="Helvetica,sans-Serif" font-size="10.00" fill="#000000"> +label</text>
</g>
<!-- Node7 -->
<g id="node7" class="node">
<title>Node7</title>
<g id="a_node7"><a xlink:href="../../da/d96/structo2_1_1framework_1_1InputSpec.html" target="_top" xlink:title="{o2::framework::InputSpec\n||+ InputSpec()\l+ InputSpec()\l+ InputSpec()\l+ InputSpec()\l+ InputSpec()\l+ operator==()\l}">
<polygon fill="none" stroke="#000000" points="937.1684,-667.5 937.1684,-779.5 1079.1684,-779.5 1079.1684,-667.5 937.1684,-667.5"/>
<text text-anchor="middle" x="1008.1684" y="-767.5" font-family="Helvetica,sans-Serif" font-size="10.00" fill="#000000">o2::framework::InputSpec</text>
<polyline fill="none" stroke="#000000" points="937.1684,-760.5 1079.1684,-760.5 "/>
<text text-anchor="middle" x="1008.1684" y="-748.5" font-family="Helvetica,sans-Serif" font-size="10.00" fill="#000000"> </text>
<polyline fill="none" stroke="#000000" points="937.1684,-741.5 1079.1684,-741.5 "/>
<text text-anchor="start" x="945.1684" y="-729.5" font-family="Helvetica,sans-Serif" font-size="10.00" fill="#000000">+ InputSpec()</text>
<text text-anchor="start" x="945.1684" y="-718.5" font-family="Helvetica,sans-Serif" font-size="10.00" fill="#000000">+ InputSpec()</text>
<text text-anchor="start" x="945.1684" y="-707.5" font-family="Helvetica,sans-Serif" font-size="10.00" fill="#000000">+ InputSpec()</text>
<text text-anchor="start" x="945.1684" y="-696.5" font-family="Helvetica,sans-Serif" font-size="10.00" fill="#000000">+ InputSpec()</text>
<text text-anchor="start" x="945.1684" y="-685.5" font-family="Helvetica,sans-Serif" font-size="10.00" fill="#000000">+ InputSpec()</text>
<text text-anchor="start" x="945.1684" y="-674.5" font-family="Helvetica,sans-Serif" font-size="10.00" fill="#000000">+ operator==()</text>
</a>
</g>
</g>
<!-- Node5&#45;&gt;Node7 -->
<g id="edge10" class="edge">
<title>Node5&#45;&gt;Node7</title>
<path fill="none" stroke="#404040" d="M759.7218,-868.8281C789.6043,-860.8928 859.4181,-840.2965 911.1684,-809 921.6493,-802.6616 932.0688,-795.1411 941.9771,-787.2303"/>
<polygon fill="none" stroke="#404040" points="942.0404,-787.1783 944.1308,-780.2768 951.3054,-779.5521 949.215,-786.4535 942.0404,-787.1783"/>
<text text-anchor="middle" x="950.1684" y="-801" font-family="Helvetica,sans-Serif" font-size="10.00" fill="#000000"> +binding</text>
</g>
<!-- Node5&#45;&gt;Node12 -->
<g id="edge15" class="edge">
<title>Node5&#45;&gt;Node12</title>
<path fill="none" stroke="#404040" d="M730.5634,-869.8732C695.6667,-862.7197 607.7088,-839.3045 572.1684,-780 546.3519,-736.9212 559.119,-715.4973 572.1684,-667 574.4998,-658.3356 580.9899,-644.98 589.2555,-630.0505"/>
<polygon fill="none" stroke="#404040" points="589.3168,-629.9423 588.7943,-622.7501 595.2323,-619.5016 595.7548,-626.6938 589.3168,-629.9423"/>
<text text-anchor="middle" x="590.1684" y="-721" font-family="Helvetica,sans-Serif" font-size="10.00" fill="#000000"> +label</text>
</g>
<!-- Node5&#45;&gt;Node14 -->
<g id="edge22" class="edge">
<title>Node5&#45;&gt;Node14</title>
<path fill="none" stroke="#404040" d="M760.1107,-867.5954C789.5292,-857.0272 854.3374,-829.0119 880.1684,-780 888.132,-764.8899 890.1871,-554.8668 878.1684,-452 876.8147,-440.4142 874.8789,-428.3742 872.6267,-416.4577"/>
<polygon fill="none" stroke="#404040" points="872.6104,-416.3751 867.5209,-411.2666 870.2789,-404.6037 875.3684,-409.7122 872.6104,-416.3751"/>
<text text-anchor="middle" x="905.1684" y="-641" font-family="Helvetica,sans-Serif" font-size="10.00" fill="#000000"> +label</text>
</g>
<!-- Node6 -->
<g id="node6" class="node">
<title>Node6</title>
<polygon fill="none" stroke="#bfbfbf" points="463.1684,-695 463.1684,-752 501.1684,-752 501.1684,-695 463.1684,-695"/>
<text text-anchor="middle" x="482.1684" y="-740" font-family="Helvetica,sans-Serif" font-size="10.00" fill="#000000">bool</text>
<polyline fill="none" stroke="#bfbfbf" points="463.1684,-733 501.1684,-733 "/>
<text text-anchor="middle" x="482.1684" y="-721" font-family="Helvetica,sans-Serif" font-size="10.00" fill="#000000"> </text>
<polyline fill="none" stroke="#bfbfbf" points="463.1684,-714 501.1684,-714 "/>
<text text-anchor="middle" x="482.1684" y="-702" font-family="Helvetica,sans-Serif" font-size="10.00" fill="#000000"> </text>
</g>
<!-- Node6&#45;&gt;Node2 -->
<g id="edge5" class="edge">
<title>Node6&#45;&gt;Node2</title>
<path fill="none" stroke="#404040" d="M481.8619,-694.8818C481.6107,-645.2886 482.3139,-540.22 491.1684,-452 492.3084,-440.6419 493.8172,-428.7993 495.5187,-417.0431"/>
<polygon fill="none" stroke="#404040" points="495.5682,-416.7135 492.5057,-410.185 497.3542,-404.8471 500.4166,-411.3756 495.5682,-416.7135"/>
<text text-anchor="middle" x="522.1684" y="-533.5" font-family="Helvetica,sans-Serif" font-size="10.00" fill="#000000"> +isdangling</text>
</g>
<!-- Node6&#45;&gt;Node12 -->
<g id="edge17" class="edge">
<title>Node6&#45;&gt;Node12</title>
<path fill="none" stroke="#404040" d="M488.3743,-694.7332C493.4238,-676.7853 502.0789,-654.1148 516.1684,-638 526.9091,-625.7155 534.7518,-629.288 548.1684,-620 549.453,-619.1107 550.7408,-618.2085 552.0309,-617.2946"/>
<polygon fill="none" stroke="#404040" points="552.2415,-617.1414 554.7405,-610.3771 561.9456,-610.0823 559.4466,-616.8466 552.2415,-617.1414"/>
<text text-anchor="middle" x="547.1684" y="-641" font-family="Helvetica,sans-Serif" font-size="10.00" fill="#000000"> +isdangling</text>
</g>
<!-- Node6&#45;&gt;Node14 -->
<g id="edge23" class="edge">
<title>Node6&#45;&gt;Node14</title>
<path fill="none" stroke="#404040" d="M463.1208,-701.4791C447.3349,-681.6692 426.0933,-650.9925 417.1684,-620 396.5063,-548.2491 371.6475,-511.1858 417.1684,-452 466.7899,-387.4826 516.4056,-429.0362 594.1684,-405 651.3464,-387.3265 714.8421,-364.8555 763.9197,-346.8512"/>
<polygon fill="none" stroke="#404040" points="764.1735,-346.7579 768.422,-340.9312 775.4346,-342.612 771.186,-348.4386 764.1735,-346.7579"/>
<text text-anchor="middle" x="448.1684" y="-533.5" font-family="Helvetica,sans-Serif" font-size="10.00" fill="#000000"> +isdangling</text>
</g>
<!-- Node7&#45;&gt;Node2 -->
<g id="edge6" class="edge">
<title>Node7&#45;&gt;Node2</title>
<path fill="none" stroke="#404040" d="M1001.4503,-667.4584C998.8338,-657.2551 995.2036,-647.0026 990.1684,-638 984.4903,-627.8478 978.2911,-629.1965 971.1684,-620 918.9102,-552.5268 942.7789,-507.7588 878.1684,-452 866.995,-442.3574 701.1083,-382.1495 597.1779,-344.9886"/>
<polygon fill="none" stroke="#404040" points="597.0629,-344.9476 590.0669,-346.6959 585.7623,-340.9104 592.7583,-339.1622 597.0629,-344.9476"/>
<text text-anchor="middle" x="988.1684" y="-533.5" font-family="Helvetica,sans-Serif" font-size="10.00" fill="#000000"> +spec</text>
</g>
<!-- Node7&#45;&gt;Node12 -->
<g id="edge18" class="edge">
<title>Node7&#45;&gt;Node12</title>
<path fill="none" stroke="#404040" d="M972.2221,-667.1779C962.2612,-655.7197 950.4729,-645.0345 937.1684,-638 862.5734,-598.5591 825.9922,-652.6107 748.1684,-620 747.1392,-619.5687 746.1125,-619.123 745.0888,-618.6635"/>
<polygon fill="none" stroke="#404040" points="744.979,-618.6087 737.8239,-619.5061 734.2436,-613.2466 741.3986,-612.3492 744.979,-618.6087"/>
<text text-anchor="middle" x="969.1684" y="-641" font-family="Helvetica,sans-Serif" font-size="10.00" fill="#000000"> +spec</text>
</g>
<!-- Node7&#45;&gt;Node14 -->
<g id="edge24" class="edge">
<title>Node7&#45;&gt;Node14</title>
<path fill="none" stroke="#404040" d="M1079.3593,-685.0853C1102.866,-668.4431 1126.2804,-646.6076 1139.1684,-620 1171.7176,-552.8013 1179.2568,-514.9923 1139.1684,-452 1126.9371,-432.7805 1012.1175,-382.7814 930.1709,-348.9369"/>
<polygon fill="none" stroke="#404040" points="929.937,-348.8407 922.8661,-350.256 918.8401,-344.2734 925.911,-342.8581 929.937,-348.8407"/>
<text text-anchor="middle" x="1183.1684" y="-533.5" font-family="Helvetica,sans-Serif" font-size="10.00" fill="#000000"> +spec</text>
</g>
<!-- Node8 -->
<g id="node8" class="node">
<title>Node8</title>
<polygon fill="none" stroke="#bfbfbf" points="1212.1684,-838.5 1212.1684,-906.5 1342.1684,-906.5 1342.1684,-838.5 1212.1684,-838.5"/>
<text text-anchor="start" x="1220.1684" y="-894.5" font-family="Helvetica,sans-Serif" font-size="10.00" fill="#000000">vector&lt; o2::framework</text>
<text text-anchor="middle" x="1277.1684" y="-883.5" font-family="Helvetica,sans-Serif" font-size="10.00" fill="#000000">::ConfigParamSpec &gt;</text>
<polyline fill="none" stroke="#bfbfbf" points="1212.1684,-876.5 1342.1684,-876.5 "/>
<text text-anchor="middle" x="1277.1684" y="-864.5" font-family="Helvetica,sans-Serif" font-size="10.00" fill="#000000"> </text>
<polyline fill="none" stroke="#bfbfbf" points="1212.1684,-857.5 1342.1684,-857.5 "/>
<text text-anchor="middle" x="1277.1684" y="-845.5" font-family="Helvetica,sans-Serif" font-size="10.00" fill="#000000"> </text>
</g>
<!-- Node8&#45;&gt;Node7 -->
<g id="edge7" class="edge">
<title>Node8&#45;&gt;Node7</title>
<path fill="none" stroke="#404040" d="M1222.442,-838.3179C1215.9808,-834.4408 1209.452,-830.5946 1203.1684,-827 1166.5368,-806.0447 1125.342,-783.9684 1090.2862,-765.6121"/>
<polygon fill="none" stroke="#404040" points="1090.2529,-765.5947 1083.0828,-766.3631 1079.6158,-760.0401 1086.7859,-759.2717 1090.2529,-765.5947"/>
<text text-anchor="middle" x="1195.6684" y="-801" font-family="Helvetica,sans-Serif" font-size="10.00" fill="#000000"> +metadata</text>
</g>
<!-- Node9 -->
<g id="node9" class="node">
<title>Node9</title>
<polygon fill="none" stroke="#bfbfbf" points="924.1684,-844 924.1684,-901 1012.1684,-901 1012.1684,-844 924.1684,-844"/>
<text text-anchor="middle" x="968.1684" y="-889" font-family="Helvetica,sans-Serif" font-size="10.00" fill="#000000">enum Lifetime</text>
<polyline fill="none" stroke="#bfbfbf" points="924.1684,-882 1012.1684,-882 "/>
<text text-anchor="middle" x="968.1684" y="-870" font-family="Helvetica,sans-Serif" font-size="10.00" fill="#000000"> </text>
<polyline fill="none" stroke="#bfbfbf" points="924.1684,-863 1012.1684,-863 "/>
<text text-anchor="middle" x="968.1684" y="-851" font-family="Helvetica,sans-Serif" font-size="10.00" fill="#000000"> </text>
</g>
<!-- Node9&#45;&gt;Node7 -->
<g id="edge8" class="edge">
<title>Node9&#45;&gt;Node7</title>
<path fill="none" stroke="#404040" d="M975.8808,-843.7713C979.9038,-828.7857 985.0098,-809.766 989.9671,-791.2998"/>
<polygon fill="none" stroke="#404040" points="989.9953,-791.1946 987.6878,-784.3626 993.1067,-779.6049 995.4142,-786.4369 989.9953,-791.1946"/>
<text text-anchor="middle" x="1013.1684" y="-801" font-family="Helvetica,sans-Serif" font-size="10.00" fill="#000000"> +lifetime</text>
</g>
<!-- Node10 -->
<g id="node10" class="node">
<title>Node10</title>
<polygon fill="none" stroke="#bfbfbf" points="1030.1684,-827.5 1030.1684,-917.5 1194.1684,-917.5 1194.1684,-827.5 1030.1684,-827.5"/>
<text text-anchor="start" x="1038.1684" y="-905.5" font-family="Helvetica,sans-Serif" font-size="10.00" fill="#000000">variant&lt; o2::framework</text>
<text text-anchor="start" x="1038.1684" y="-894.5" font-family="Helvetica,sans-Serif" font-size="10.00" fill="#000000">::ConcreteDataMatcher,</text>
<text text-anchor="start" x="1038.1684" y="-883.5" font-family="Helvetica,sans-Serif" font-size="10.00" fill="#000000"> o2::framework::data_matcher</text>
<text text-anchor="middle" x="1112.1684" y="-872.5" font-family="Helvetica,sans-Serif" font-size="10.00" fill="#000000">::DataDescriptorMatcher &gt;</text>
<polyline fill="none" stroke="#bfbfbf" points="1030.1684,-865.5 1194.1684,-865.5 "/>
<text text-anchor="middle" x="1112.1684" y="-853.5" font-family="Helvetica,sans-Serif" font-size="10.00" fill="#000000"> </text>
<polyline fill="none" stroke="#bfbfbf" points="1030.1684,-846.5 1194.1684,-846.5 "/>
<text text-anchor="middle" x="1112.1684" y="-834.5" font-family="Helvetica,sans-Serif" font-size="10.00" fill="#000000"> </text>
</g>
<!-- Node10&#45;&gt;Node7 -->
<g id="edge9" class="edge">
<title>Node10&#45;&gt;Node7</title>
<path fill="none" stroke="#404040" d="M1080.6827,-827.3907C1072.3801,-815.4956 1063.2465,-802.41 1054.3436,-789.6548"/>
<polygon fill="none" stroke="#404040" points="1054.1416,-789.3654 1047.4275,-786.7348 1047.2733,-779.5254 1053.9875,-782.156 1054.1416,-789.3654"/>
<text text-anchor="middle" x="1093.1684" y="-801" font-family="Helvetica,sans-Serif" font-size="10.00" fill="#000000"> +matcher</text>
</g>
<!-- Node11 -->
<g id="node11" class="node">
<title>Node11</title>
<polygon fill="none" stroke="#bfbfbf" points="232.1684,-507.5 232.1684,-564.5 348.1684,-564.5 348.1684,-507.5 232.1684,-507.5"/>
<text text-anchor="middle" x="290.1684" y="-552.5" font-family="Helvetica,sans-Serif" font-size="10.00" fill="#000000">shared_ptr&lt; TH2F &gt;</text>
<polyline fill="none" stroke="#bfbfbf" points="232.1684,-545.5 348.1684,-545.5 "/>
<text text-anchor="middle" x="290.1684" y="-533.5" font-family="Helvetica,sans-Serif" font-size="10.00" fill="#000000"> </text>
<polyline fill="none" stroke="#bfbfbf" points="232.1684,-526.5 348.1684,-526.5 "/>
<text text-anchor="middle" x="290.1684" y="-514.5" font-family="Helvetica,sans-Serif" font-size="10.00" fill="#000000"> </text>
</g>
<!-- Node11&#45;&gt;Node2 -->
<g id="edge11" class="edge">
<title>Node11&#45;&gt;Node2</title>
<path fill="none" stroke="#404040" d="M294.0255,-507.2616C298.5885,-482.623 308.2503,-447.3521 328.1684,-423 355.2389,-389.9033 395.3644,-364.8911 431.4237,-347.3599"/>
<polygon fill="none" stroke="#404040" points="431.6092,-347.2725 435.3325,-341.097 442.465,-342.1587 438.7417,-348.3342 431.6092,-347.2725"/>
<text text-anchor="middle" x="349.1684" y="-426" font-family="Helvetica,sans-Serif" font-size="10.00" fill="#000000"> +object</text>
</g>
<!-- Node12&#45;&gt;Node2 -->
<g id="edge12" class="edge">
<title>Node12&#45;&gt;Node2</title>
<path fill="none" stroke="#ffa500" d="M591.944,-443.4815C584.1278,-430.6198 576.1107,-417.4275 568.3333,-404.6296"/>
<polygon fill="#ffa500" stroke="#ffa500" points="589.1333,-445.5959 597.3177,-452.324 595.1153,-441.9606 589.1333,-445.5959"/>
<text text-anchor="middle" x="611.6684" y="-426" font-family="Helvetica,sans-Serif" font-size="10.00" fill="#000000"> &lt; TH2F &gt;</text>
</g>
<!-- Node12&#45;&gt;Node14 -->
<g id="edge26" class="edge">
<title>Node12&#45;&gt;Node14</title>
<path fill="none" stroke="#ffa500" d="M730.5237,-444.747C745.4996,-428.1531 761.0099,-410.9671 775.6417,-394.7545"/>
<polygon fill="#ffa500" stroke="#ffa500" points="727.7871,-442.5553 723.6855,-452.324 732.9837,-447.2452 727.7871,-442.5553"/>
<text text-anchor="middle" x="773.6684" y="-426" font-family="Helvetica,sans-Serif" font-size="10.00" fill="#000000"> &lt; TH1F &gt;</text>
</g>
<!-- Node13 -->
<g id="node13" class="node">
<title>Node13</title>
<polygon fill="none" stroke="#bfbfbf" points="617.6684,-695 617.6684,-752 714.6684,-752 714.6684,-695 617.6684,-695"/>
<text text-anchor="middle" x="666.1684" y="-740" font-family="Helvetica,sans-Serif" font-size="10.00" fill="#000000">shared_ptr&lt; T &gt;</text>
<polyline fill="none" stroke="#bfbfbf" points="617.6684,-733 714.6684,-733 "/>
<text text-anchor="middle" x="666.1684" y="-721" font-family="Helvetica,sans-Serif" font-size="10.00" fill="#000000"> </text>
<polyline fill="none" stroke="#bfbfbf" points="617.6684,-714 714.6684,-714 "/>
<text text-anchor="middle" x="666.1684" y="-702" font-family="Helvetica,sans-Serif" font-size="10.00" fill="#000000"> </text>
</g>
<!-- Node13&#45;&gt;Node12 -->
<g id="edge16" class="edge">
<title>Node13&#45;&gt;Node12</title>
<path fill="none" stroke="#404040" d="M658.6214,-694.705C655.3732,-680.9706 651.9235,-664.2449 650.1684,-649 649.5222,-643.3868 648.996,-637.6066 648.5711,-631.768"/>
<polygon fill="none" stroke="#404040" points="648.5679,-631.7138 644.2089,-625.9693 647.835,-619.7362 652.194,-625.4807 648.5679,-631.7138"/>
<text text-anchor="middle" x="671.1684" y="-641" font-family="Helvetica,sans-Serif" font-size="10.00" fill="#000000"> +object</text>
</g>
<!-- Node14&#45;&gt;Node1 -->
<g id="edge19" class="edge">
<title>Node14&#45;&gt;Node1</title>
<path fill="none" stroke="#404040" d="M847.1684,-226.2037C847.1684,-177.9151 847.1684,-120.2781 847.1684,-80.8971"/>
<polygon fill="none" stroke="#404040" points="847.1685,-80.7876 843.1685,-74.7876 847.1684,-68.7876 851.1685,-74.7875 847.1685,-80.7876"/>
<text text-anchor="middle" x="872.6684" y="-150.5" font-family="Helvetica,sans-Serif" font-size="10.00" fill="#000000"> +pdgH</text>
<text text-anchor="middle" x="872.6684" y="-139.5" font-family="Helvetica,sans-Serif" font-size="10.00" fill="#000000">+pdgsecH</text>
</g>
<!-- Node15 -->
<g id="node15" class="node">
<title>Node15</title>
<polygon fill="none" stroke="#bfbfbf" points="1014.1684,-507.5 1014.1684,-564.5 1130.1684,-564.5 1130.1684,-507.5 1014.1684,-507.5"/>
<text text-anchor="middle" x="1072.1684" y="-552.5" font-family="Helvetica,sans-Serif" font-size="10.00" fill="#000000">shared_ptr&lt; TH1F &gt;</text>
<polyline fill="none" stroke="#bfbfbf" points="1014.1684,-545.5 1130.1684,-545.5 "/>
<text text-anchor="middle" x="1072.1684" y="-533.5" font-family="Helvetica,sans-Serif" font-size="10.00" fill="#000000"> </text>
<polyline fill="none" stroke="#bfbfbf" points="1014.1684,-526.5 1130.1684,-526.5 "/>
<text text-anchor="middle" x="1072.1684" y="-514.5" font-family="Helvetica,sans-Serif" font-size="10.00" fill="#000000"> </text>
</g>
<!-- Node15&#45;&gt;Node14 -->
<g id="edge25" class="edge">
<title>Node15&#45;&gt;Node14</title>
<path fill="none" stroke="#404040" d="M1050.1564,-507.426C1031.4686,-483.8438 1003.4183,-449.9923 976.1684,-423 961.2785,-408.2509 944.5784,-393.308 928.2589,-379.4432"/>
<polygon fill="none" stroke="#404040" points="927.8951,-379.1373 920.7285,-378.3371 918.7108,-371.414 925.8774,-372.2142 927.8951,-379.1373"/>
<text text-anchor="middle" x="1006.1684" y="-426" font-family="Helvetica,sans-Serif" font-size="10.00" fill="#000000"> +object</text>
</g>
<!-- Node16 -->
<g id="node16" class="node">
<title>Node16</title>
<g id="a_node16"><a xlink:href="../../d1/d9a/structo2_1_1framework_1_1expressions_1_1Filter.html" target="_top" xlink:title="A struct, containing the root of the expression tree. ">
<polygon fill="none" stroke="#000000" points="1077.1684,-276 1077.1684,-355 1229.1684,-355 1229.1684,-276 1077.1684,-276"/>
<text text-anchor="start" x="1085.1684" y="-343" font-family="Helvetica,sans-Serif" font-size="10.00" fill="#000000">o2::framework::expressions</text>
<text text-anchor="middle" x="1153.1684" y="-332" font-family="Helvetica,sans-Serif" font-size="10.00" fill="#000000">::Filter</text>
<polyline fill="none" stroke="#000000" points="1077.1684,-325 1229.1684,-325 "/>
<text text-anchor="middle" x="1153.1684" y="-313" font-family="Helvetica,sans-Serif" font-size="10.00" fill="#000000"> </text>
<polyline fill="none" stroke="#000000" points="1077.1684,-306 1229.1684,-306 "/>
<text text-anchor="start" x="1085.1684" y="-294" font-family="Helvetica,sans-Serif" font-size="10.00" fill="#000000">+ Filter()</text>
<text text-anchor="start" x="1085.1684" y="-283" font-family="Helvetica,sans-Serif" font-size="10.00" fill="#000000">+ Filter()</text>
</a>
</g>
</g>
<!-- Node16&#45;&gt;Node1 -->
<g id="edge27" class="edge">
<title>Node16&#45;&gt;Node1</title>
<path fill="none" stroke="#404040" d="M1109.9751,-275.8355C1052.7406,-223.2771 952.1766,-130.9291 893.4369,-76.9884"/>
<polygon fill="none" stroke="#404040" points="893.2204,-76.7896 886.0955,-75.6775 884.3817,-68.673 891.5066,-69.7851 893.2204,-76.7896"/>
<text text-anchor="middle" x="1074.6684" y="-150.5" font-family="Helvetica,sans-Serif" font-size="10.00" fill="#000000"> +trackAcceptance</text>
<text text-anchor="middle" x="1074.6684" y="-139.5" font-family="Helvetica,sans-Serif" font-size="10.00" fill="#000000">+trackCuts</text>
</g>
<!-- Node17 -->
<g id="node17" class="node">
<title>Node17</title>
<polygon fill="none" stroke="#bfbfbf" points="1218.6684,-502 1218.6684,-570 1369.6684,-570 1369.6684,-502 1218.6684,-502"/>
<text text-anchor="start" x="1226.6684" y="-558" font-family="Helvetica,sans-Serif" font-size="10.00" fill="#000000">unique_ptr&lt; o2::framework</text>
<text text-anchor="middle" x="1294.1684" y="-547" font-family="Helvetica,sans-Serif" font-size="10.00" fill="#000000">::expressions::Node &gt;</text>
<polyline fill="none" stroke="#bfbfbf" points="1218.6684,-540 1369.6684,-540 "/>
<text text-anchor="middle" x="1294.1684" y="-528" font-family="Helvetica,sans-Serif" font-size="10.00" fill="#000000"> </text>
<polyline fill="none" stroke="#bfbfbf" points="1218.6684,-521 1369.6684,-521 "/>
<text text-anchor="middle" x="1294.1684" y="-509" font-family="Helvetica,sans-Serif" font-size="10.00" fill="#000000"> </text>
</g>
<!-- Node17&#45;&gt;Node16 -->
<g id="edge28" class="edge">
<title>Node17&#45;&gt;Node16</title>
<path fill="none" stroke="#404040" d="M1272.1372,-501.5469C1248.7885,-465.0336 1211.6928,-407.0222 1185.1318,-365.4853"/>
<polygon fill="none" stroke="#404040" points="1185.0856,-365.413 1178.4833,-362.513 1178.6208,-355.3032 1185.2231,-358.2031 1185.0856,-365.413"/>
<text text-anchor="middle" x="1245.1684" y="-426" font-family="Helvetica,sans-Serif" font-size="10.00" fill="#000000"> +node</text>
</g>
</g>
</svg>
