<?xml version="1.0" encoding="UTF-8" standalone="no"?>
<!DOCTYPE svg PUBLIC "-//W3C//DTD SVG 1.1//EN"
 "http://www.w3.org/Graphics/SVG/1.1/DTD/svg11.dtd">
<!-- Generated by graphviz version 2.40.1 (20161225.0304)
 -->
<!-- Title: /home/travis/build/AliceO2Group/AliceO2/Detectors/Vertexing/include/DetectorsVertexing/SVertexerParams.h Pages: 1 -->
<svg width="681pt" height="428pt"
 viewBox="0.00 0.00 680.50 428.00" xmlns="http://www.w3.org/2000/svg" xmlns:xlink="http://www.w3.org/1999/xlink">
<g id="graph0" class="graph" transform="scale(1 1) rotate(0) translate(4 424)">
<title>/home/travis/build/AliceO2Group/AliceO2/Detectors/Vertexing/include/DetectorsVertexing/SVertexerParams.h</title>
<!-- Node12 -->
<g id="node1" class="node">
<title>Node12</title>
<polygon fill="#bfbfbf" stroke="#000000" points="319,-367.5 319,-419.5 528,-419.5 528,-367.5 319,-367.5"/>
<text text-anchor="start" x="327" y="-407.5" font-family="Helvetica,sans-Serif" font-size="10.00" fill="#000000">/home/travis/build</text>
<text text-anchor="start" x="327" y="-396.5" font-family="Helvetica,sans-Serif" font-size="10.00" fill="#000000">/AliceO2Group/AliceO2</text>
<text text-anchor="start" x="327" y="-385.5" font-family="Helvetica,sans-Serif" font-size="10.00" fill="#000000">/Detectors/Vertexing/include</text>
<text text-anchor="middle" x="423.5" y="-374.5" font-family="Helvetica,sans-Serif" font-size="10.00" fill="#000000">/DetectorsVertexing/SVertexerParams.h</text>
</g>
<!-- Node13 -->
<g id="node2" class="node">
<title>Node13</title>
<g id="a_node2"><a xlink:href="../../db/dbe/SVertexer_8h.html" target="_top" xlink:title="Secondary vertex finder. ">
<polygon fill="none" stroke="#000000" points="212.5,-189.5 212.5,-241.5 384.5,-241.5 384.5,-189.5 212.5,-189.5"/>
<text text-anchor="start" x="220.5" y="-229.5" font-family="Helvetica,sans-Serif" font-size="10.00" fill="#000000">/home/travis/build</text>
<text text-anchor="start" x="220.5" y="-218.5" font-family="Helvetica,sans-Serif" font-size="10.00" fill="#000000">/AliceO2Group/AliceO2</text>
<text text-anchor="start" x="220.5" y="-207.5" font-family="Helvetica,sans-Serif" font-size="10.00" fill="#000000">/Detectors/Vertexing/include</text>
<text text-anchor="middle" x="298.5" y="-196.5" font-family="Helvetica,sans-Serif" font-size="10.00" fill="#000000">/DetectorsVertexing/SVertexer.h</text>
</a>
</g>
</g>
<!-- Node12&#45;&gt;Node13 -->
<g id="edge1" class="edge">
<title>Node12&#45;&gt;Node13</title>
<path fill="none" stroke="#191970" d="M351.2402,-361.9387C338.6763,-353.5322 326.9514,-343.2829 318.5,-331 300.2738,-304.511 296.9271,-266.723 297.0358,-241.6735"/>
<polygon fill="#191970" stroke="#191970" points="349.7125,-365.1123 360.0425,-367.4666 353.4353,-359.1843 349.7125,-365.1123"/>
</g>
<!-- Node18 -->
<g id="node7" class="node">
<title>Node18</title>
<g id="a_node7"><a xlink:href="../../d0/de6/V0Hypothesis_8h.html" target="_top" xlink:title="V0 hypothesis checker. ">
<polygon fill="none" stroke="#000000" points="327,-278.5 327,-330.5 520,-330.5 520,-278.5 327,-278.5"/>
<text text-anchor="start" x="335" y="-318.5" font-family="Helvetica,sans-Serif" font-size="10.00" fill="#000000">/home/travis/build</text>
<text text-anchor="start" x="335" y="-307.5" font-family="Helvetica,sans-Serif" font-size="10.00" fill="#000000">/AliceO2Group/AliceO2</text>
<text text-anchor="start" x="335" y="-296.5" font-family="Helvetica,sans-Serif" font-size="10.00" fill="#000000">/Detectors/Vertexing/include</text>
<text text-anchor="middle" x="423.5" y="-285.5" font-family="Helvetica,sans-Serif" font-size="10.00" fill="#000000">/DetectorsVertexing/V0Hypothesis.h</text>
</a>
</g>
</g>
<!-- Node12&#45;&gt;Node18 -->
<g id="edge6" class="edge">
<title>Node12&#45;&gt;Node18</title>
<path fill="none" stroke="#191970" d="M423.5,-357.1155C423.5,-348.2061 423.5,-338.8475 423.5,-330.5341"/>
<polygon fill="#191970" stroke="#191970" points="420.0001,-357.2784 423.5,-367.2784 427.0001,-357.2785 420.0001,-357.2784"/>
</g>
<!-- Node20 -->
<g id="node9" class="node">
<title>Node20</title>
<g id="a_node9"><a xlink:href="../../d3/d56/SVertexerParams_8cxx.html" target="_top" xlink:title="/home/travis/build\l/AliceO2Group/AliceO2\l/Detectors/Vertexing/src\l/SVertexerParams.cxx">
<polygon fill="none" stroke="#000000" points="538.5,-278.5 538.5,-330.5 672.5,-330.5 672.5,-278.5 538.5,-278.5"/>
<text text-anchor="start" x="546.5" y="-318.5" font-family="Helvetica,sans-Serif" font-size="10.00" fill="#000000">/home/travis/build</text>
<text text-anchor="start" x="546.5" y="-307.5" font-family="Helvetica,sans-Serif" font-size="10.00" fill="#000000">/AliceO2Group/AliceO2</text>
<text text-anchor="start" x="546.5" y="-296.5" font-family="Helvetica,sans-Serif" font-size="10.00" fill="#000000">/Detectors/Vertexing/src</text>
<text text-anchor="middle" x="605.5" y="-285.5" font-family="Helvetica,sans-Serif" font-size="10.00" fill="#000000">/SVertexerParams.cxx</text>
</a>
</g>
</g>
<!-- Node12&#45;&gt;Node20 -->
<g id="edge9" class="edge">
<title>Node12&#45;&gt;Node20</title>
<path fill="none" stroke="#191970" d="M486.1838,-362.8469C507.7016,-352.3245 531.5655,-340.6548 552.2616,-330.5341"/>
<polygon fill="#191970" stroke="#191970" points="484.5675,-359.7412 477.1216,-367.2784 487.6426,-366.0296 484.5675,-359.7412"/>
</g>
<!-- Node14 -->
<g id="node3" class="node">
<title>Node14</title>
<g id="a_node3"><a xlink:href="../../de/d21/SecondaryVertexingSpec_8h.html" target="_top" xlink:title="/home/travis/build\l/AliceO2Group/AliceO2\l/Detectors/GlobalTrackingWorkflow\l/include/GlobalTrackingWorkflow\l/SecondaryVertexingSpec.h">
<polygon fill="none" stroke="#000000" points="116,-89.5 116,-152.5 303,-152.5 303,-89.5 116,-89.5"/>
<text text-anchor="start" x="124" y="-140.5" font-family="Helvetica,sans-Serif" font-size="10.00" fill="#000000">/home/travis/build</text>
<text text-anchor="start" x="124" y="-129.5" font-family="Helvetica,sans-Serif" font-size="10.00" fill="#000000">/AliceO2Group/AliceO2</text>
<text text-anchor="start" x="124" y="-118.5" font-family="Helvetica,sans-Serif" font-size="10.00" fill="#000000">/Detectors/GlobalTrackingWorkflow</text>
<text text-anchor="start" x="124" y="-107.5" font-family="Helvetica,sans-Serif" font-size="10.00" fill="#000000">/include/GlobalTrackingWorkflow</text>
<text text-anchor="middle" x="209.5" y="-96.5" font-family="Helvetica,sans-Serif" font-size="10.00" fill="#000000">/SecondaryVertexingSpec.h</text>
</a>
</g>
</g>
<!-- Node13&#45;&gt;Node14 -->
<g id="edge2" class="edge">
<title>Node13&#45;&gt;Node14</title>
<path fill="none" stroke="#191970" d="M266.9447,-181.9947C257.9716,-172.467 248.2292,-162.1226 239.3601,-152.7054"/>
<polygon fill="#191970" stroke="#191970" points="264.5408,-184.5472 273.9448,-189.4273 269.6366,-179.7479 264.5408,-184.5472"/>
</g>
<!-- Node17 -->
<g id="node6" class="node">
<title>Node17</title>
<g id="a_node6"><a xlink:href="../../d4/d3b/SVertexer_8cxx.html" target="_top" xlink:title="Secondary vertex finder. ">
<polygon fill="none" stroke="#000000" points="321.5,-95 321.5,-147 455.5,-147 455.5,-95 321.5,-95"/>
<text text-anchor="start" x="329.5" y="-135" font-family="Helvetica,sans-Serif" font-size="10.00" fill="#000000">/home/travis/build</text>
<text text-anchor="start" x="329.5" y="-124" font-family="Helvetica,sans-Serif" font-size="10.00" fill="#000000">/AliceO2Group/AliceO2</text>
<text text-anchor="start" x="329.5" y="-113" font-family="Helvetica,sans-Serif" font-size="10.00" fill="#000000">/Detectors/Vertexing/src</text>
<text text-anchor="middle" x="388.5" y="-102" font-family="Helvetica,sans-Serif" font-size="10.00" fill="#000000">/SVertexer.cxx</text>
</a>
</g>
</g>
<!-- Node13&#45;&gt;Node17 -->
<g id="edge5" class="edge">
<title>Node13&#45;&gt;Node17</title>
<path fill="none" stroke="#191970" d="M330.2855,-182.1253C341.1616,-170.7054 353.1677,-158.0989 363.4375,-147.3157"/>
<polygon fill="#191970" stroke="#191970" points="327.6932,-179.7721 323.3311,-189.4273 332.7622,-184.5997 327.6932,-179.7721"/>
</g>
<!-- Node15 -->
<g id="node4" class="node">
<title>Node15</title>
<g id="a_node4"><a xlink:href="../../d9/d62/secondary-vertexing-workflow_8cxx.html" target="_top" xlink:title="/home/travis/build\l/AliceO2Group/AliceO2\l/Detectors/GlobalTrackingWorkflow\l/src/secondary&#45;vertexing&#45;workflow.cxx">
<polygon fill="none" stroke="#000000" points="0,-.5 0,-52.5 205,-52.5 205,-.5 0,-.5"/>
<text text-anchor="start" x="8" y="-40.5" font-family="Helvetica,sans-Serif" font-size="10.00" fill="#000000">/home/travis/build</text>
<text text-anchor="start" x="8" y="-29.5" font-family="Helvetica,sans-Serif" font-size="10.00" fill="#000000">/AliceO2Group/AliceO2</text>
<text text-anchor="start" x="8" y="-18.5" font-family="Helvetica,sans-Serif" font-size="10.00" fill="#000000">/Detectors/GlobalTrackingWorkflow</text>
<text text-anchor="middle" x="102.5" y="-7.5" font-family="Helvetica,sans-Serif" font-size="10.00" fill="#000000">/src/secondary&#45;vertexing&#45;workflow.cxx</text>
</a>
</g>
</g>
<!-- Node14&#45;&gt;Node15 -->
<g id="edge3" class="edge">
<title>Node14&#45;&gt;Node15</title>
<path fill="none" stroke="#191970" d="M165.8412,-82.4415C154.4941,-72.42 142.5352,-61.8582 132.1024,-52.6442"/>
<polygon fill="#191970" stroke="#191970" points="163.7606,-85.2736 173.5729,-89.27 168.3945,-80.0269 163.7606,-85.2736"/>
</g>
<!-- Node16 -->
<g id="node5" class="node">
<title>Node16</title>
<g id="a_node5"><a xlink:href="../../d9/dfc/SecondaryVertexingSpec_8cxx.html" target="_top" xlink:title="/home/travis/build\l/AliceO2Group/AliceO2\l/Detectors/GlobalTrackingWorkflow\l/src/SecondaryVertexingSpec.cxx">
<polygon fill="none" stroke="#000000" points="223,-.5 223,-52.5 410,-52.5 410,-.5 223,-.5"/>
<text text-anchor="start" x="231" y="-40.5" font-family="Helvetica,sans-Serif" font-size="10.00" fill="#000000">/home/travis/build</text>
<text text-anchor="start" x="231" y="-29.5" font-family="Helvetica,sans-Serif" font-size="10.00" fill="#000000">/AliceO2Group/AliceO2</text>
<text text-anchor="start" x="231" y="-18.5" font-family="Helvetica,sans-Serif" font-size="10.00" fill="#000000">/Detectors/GlobalTrackingWorkflow</text>
<text text-anchor="middle" x="316.5" y="-7.5" font-family="Helvetica,sans-Serif" font-size="10.00" fill="#000000">/src/SecondaryVertexingSpec.cxx</text>
</a>
</g>
</g>
<!-- Node14&#45;&gt;Node16 -->
<g id="edge4" class="edge">
<title>Node14&#45;&gt;Node16</title>
<path fill="none" stroke="#191970" d="M253.1588,-82.4415C264.5059,-72.42 276.4648,-61.8582 286.8976,-52.6442"/>
<polygon fill="#191970" stroke="#191970" points="250.6055,-80.0269 245.4271,-89.27 255.2394,-85.2736 250.6055,-80.0269"/>
</g>
<!-- Node18&#45;&gt;Node13 -->
<g id="edge7" class="edge">
<title>Node18&#45;&gt;Node13</title>
<path fill="none" stroke="#191970" d="M378.4593,-272.431C364.2101,-262.2856 348.6446,-251.203 335.0648,-241.5341"/>
<polygon fill="#191970" stroke="#191970" points="376.4958,-275.3295 386.672,-278.2784 380.5558,-269.6272 376.4958,-275.3295"/>
</g>
<!-- Node19 -->
<g id="node8" class="node">
<title>Node19</title>
<g id="a_node8"><a xlink:href="../../d9/d13/V0Hypothesis_8cxx.html" target="_top" xlink:title="V0 hypothesis checker. ">
<polygon fill="none" stroke="#000000" points="402.5,-189.5 402.5,-241.5 536.5,-241.5 536.5,-189.5 402.5,-189.5"/>
<text text-anchor="start" x="410.5" y="-229.5" font-family="Helvetica,sans-Serif" font-size="10.00" fill="#000000">/home/travis/build</text>
<text text-anchor="start" x="410.5" y="-218.5" font-family="Helvetica,sans-Serif" font-size="10.00" fill="#000000">/AliceO2Group/AliceO2</text>
<text text-anchor="start" x="410.5" y="-207.5" font-family="Helvetica,sans-Serif" font-size="10.00" fill="#000000">/Detectors/Vertexing/src</text>
<text text-anchor="middle" x="469.5" y="-196.5" font-family="Helvetica,sans-Serif" font-size="10.00" fill="#000000">/V0Hypothesis.cxx</text>
</a>
</g>
</g>
<!-- Node18&#45;&gt;Node19 -->
<g id="edge8" class="edge">
<title>Node18&#45;&gt;Node19</title>
<path fill="none" stroke="#191970" d="M441.7062,-269.2749C446.4887,-260.0219 451.5605,-250.209 456.0441,-241.5341"/>
<polygon fill="#191970" stroke="#191970" points="438.535,-267.7878 437.0527,-278.2784 444.7535,-271.0019 438.535,-267.7878"/>
</g>
</g>
</svg>
