<?xml version="1.0" encoding="UTF-8" standalone="no"?>
<!DOCTYPE svg PUBLIC "-//W3C//DTD SVG 1.1//EN"
 "http://www.w3.org/Graphics/SVG/1.1/DTD/svg11.dtd">
<!-- Generated by graphviz version 2.40.1 (20161225.0304)
 -->
<!-- Title: /home/travis/build/AliceO2Group/AliceO2/Detectors/MUON/MID/Raw/include/MIDRaw/CrateMapper.h Pages: 1 -->
<svg width="1304pt" height="339pt"
 viewBox="0.00 0.00 1304.00 339.00" xmlns="http://www.w3.org/2000/svg" xmlns:xlink="http://www.w3.org/1999/xlink">
<g id="graph0" class="graph" transform="scale(1 1) rotate(0) translate(4 335)">
<title>/home/travis/build/AliceO2Group/AliceO2/Detectors/MUON/MID/Raw/include/MIDRaw/CrateMapper.h</title>
<!-- Node3 -->
<g id="node1" class="node">
<title>Node3</title>
<polygon fill="#bfbfbf" stroke="#000000" points="870.5,-278.5 870.5,-330.5 1041.5,-330.5 1041.5,-278.5 870.5,-278.5"/>
<text text-anchor="start" x="878.5" y="-318.5" font-family="Helvetica,sans-Serif" font-size="10.00" fill="#000000">/home/travis/build</text>
<text text-anchor="start" x="878.5" y="-307.5" font-family="Helvetica,sans-Serif" font-size="10.00" fill="#000000">/AliceO2Group/AliceO2</text>
<text text-anchor="start" x="878.5" y="-296.5" font-family="Helvetica,sans-Serif" font-size="10.00" fill="#000000">/Detectors/MUON/MID/Raw</text>
<text text-anchor="middle" x="956" y="-285.5" font-family="Helvetica,sans-Serif" font-size="10.00" fill="#000000">/include/MIDRaw/CrateMapper.h</text>
</g>
<!-- Node4 -->
<g id="node2" class="node">
<title>Node4</title>
<g id="a_node2"><a xlink:href="../../d2/db5/ColumnDataToLocalBoard_8h.html" target="_top" xlink:title="Converter from ColumnData to raw local boards. ">
<polygon fill="none" stroke="#000000" points="447.5,-178.5 447.5,-241.5 644.5,-241.5 644.5,-178.5 447.5,-178.5"/>
<text text-anchor="start" x="455.5" y="-229.5" font-family="Helvetica,sans-Serif" font-size="10.00" fill="#000000">/home/travis/build</text>
<text text-anchor="start" x="455.5" y="-218.5" font-family="Helvetica,sans-Serif" font-size="10.00" fill="#000000">/AliceO2Group/AliceO2</text>
<text text-anchor="start" x="455.5" y="-207.5" font-family="Helvetica,sans-Serif" font-size="10.00" fill="#000000">/Detectors/MUON/MID/Raw</text>
<text text-anchor="start" x="455.5" y="-196.5" font-family="Helvetica,sans-Serif" font-size="10.00" fill="#000000">/include/MIDRaw/ColumnDataToLocal</text>
<text text-anchor="middle" x="546" y="-185.5" font-family="Helvetica,sans-Serif" font-size="10.00" fill="#000000">Board.h</text>
</a>
</g>
</g>
<!-- Node3&#45;&gt;Node4 -->
<g id="edge1" class="edge">
<title>Node3&#45;&gt;Node4</title>
<path fill="none" stroke="#191970" d="M860.2461,-282.4299C795.4925,-267.505 710.1952,-247.845 644.8086,-232.7742"/>
<polygon fill="#191970" stroke="#191970" points="859.5199,-285.8542 870.0506,-284.6897 861.0922,-279.0331 859.5199,-285.8542"/>
</g>
<!-- Node12 -->
<g id="node10" class="node">
<title>Node12</title>
<g id="a_node10"><a xlink:href="../../d7/d48/DecodedDataAggregator_8h.html" target="_top" xlink:title="MID decoded raw data aggregator. ">
<polygon fill="none" stroke="#000000" points="738.5,-184 738.5,-236 967.5,-236 967.5,-184 738.5,-184"/>
<text text-anchor="start" x="746.5" y="-224" font-family="Helvetica,sans-Serif" font-size="10.00" fill="#000000">/home/travis/build</text>
<text text-anchor="start" x="746.5" y="-213" font-family="Helvetica,sans-Serif" font-size="10.00" fill="#000000">/AliceO2Group/AliceO2</text>
<text text-anchor="start" x="746.5" y="-202" font-family="Helvetica,sans-Serif" font-size="10.00" fill="#000000">/Detectors/MUON/MID/Raw</text>
<text text-anchor="middle" x="853" y="-191" font-family="Helvetica,sans-Serif" font-size="10.00" fill="#000000">/include/MIDRaw/DecodedDataAggregator.h</text>
</a>
</g>
</g>
<!-- Node3&#45;&gt;Node12 -->
<g id="edge10" class="edge">
<title>Node3&#45;&gt;Node12</title>
<path fill="none" stroke="#191970" d="M919.9786,-271.4512C907.4381,-259.9457 893.5478,-247.2016 881.6827,-236.3157"/>
<polygon fill="#191970" stroke="#191970" points="917.8474,-274.2458 927.5821,-278.4273 922.5797,-269.0878 917.8474,-274.2458"/>
</g>
<!-- Node15 -->
<g id="node13" class="node">
<title>Node15</title>
<g id="a_node13"><a xlink:href="../../d5/dc0/CrateMapper_8cxx.html" target="_top" xlink:title="FEE ID to board ID converter. ">
<polygon fill="none" stroke="#000000" points="986,-184 986,-236 1132,-236 1132,-184 986,-184"/>
<text text-anchor="start" x="994" y="-224" font-family="Helvetica,sans-Serif" font-size="10.00" fill="#000000">/home/travis/build</text>
<text text-anchor="start" x="994" y="-213" font-family="Helvetica,sans-Serif" font-size="10.00" fill="#000000">/AliceO2Group/AliceO2</text>
<text text-anchor="start" x="994" y="-202" font-family="Helvetica,sans-Serif" font-size="10.00" fill="#000000">/Detectors/MUON/MID/Raw</text>
<text text-anchor="middle" x="1059" y="-191" font-family="Helvetica,sans-Serif" font-size="10.00" fill="#000000">/src/CrateMapper.cxx</text>
</a>
</g>
</g>
<!-- Node3&#45;&gt;Node15 -->
<g id="edge15" class="edge">
<title>Node3&#45;&gt;Node15</title>
<path fill="none" stroke="#191970" d="M992.0214,-271.4512C1004.5619,-259.9457 1018.4522,-247.2016 1030.3173,-236.3157"/>
<polygon fill="#191970" stroke="#191970" points="989.4203,-269.0878 984.4179,-278.4273 994.1526,-274.2458 989.4203,-269.0878"/>
</g>
<!-- Node16 -->
<g id="node14" class="node">
<title>Node16</title>
<g id="a_node14"><a xlink:href="../../db/d42/testCrateMapper_8cxx.html" target="_top" xlink:title="/home/travis/build\l/AliceO2Group/AliceO2\l/Detectors/MUON/MID/Raw\l/test/testCrateMapper.cxx">
<polygon fill="none" stroke="#000000" points="1150,-184 1150,-236 1296,-236 1296,-184 1150,-184"/>
<text text-anchor="start" x="1158" y="-224" font-family="Helvetica,sans-Serif" font-size="10.00" fill="#000000">/home/travis/build</text>
<text text-anchor="start" x="1158" y="-213" font-family="Helvetica,sans-Serif" font-size="10.00" fill="#000000">/AliceO2Group/AliceO2</text>
<text text-anchor="start" x="1158" y="-202" font-family="Helvetica,sans-Serif" font-size="10.00" fill="#000000">/Detectors/MUON/MID/Raw</text>
<text text-anchor="middle" x="1223" y="-191" font-family="Helvetica,sans-Serif" font-size="10.00" fill="#000000">/test/testCrateMapper.cxx</text>
</a>
</g>
</g>
<!-- Node3&#45;&gt;Node16 -->
<g id="edge16" class="edge">
<title>Node3&#45;&gt;Node16</title>
<path fill="none" stroke="#191970" d="M1045.6818,-275.1313C1076.0512,-264.9395 1110.0967,-253.2433 1141,-242 1146.1699,-240.1191 1151.5073,-238.1344 1156.863,-236.1122"/>
<polygon fill="#191970" stroke="#191970" points="1044.3317,-271.8922 1035.9594,-278.3849 1046.5533,-278.5304 1044.3317,-271.8922"/>
</g>
<!-- Node5 -->
<g id="node3" class="node">
<title>Node5</title>
<g id="a_node3"><a xlink:href="../../d1/dcf/Detectors_2MUON_2MID_2Raw_2include_2MIDRaw_2Encoder_8h.html" target="_top" xlink:title="MID raw data encoder. ">
<polygon fill="none" stroke="#000000" points="251,-89.5 251,-141.5 399,-141.5 399,-89.5 251,-89.5"/>
<text text-anchor="start" x="259" y="-129.5" font-family="Helvetica,sans-Serif" font-size="10.00" fill="#000000">/home/travis/build</text>
<text text-anchor="start" x="259" y="-118.5" font-family="Helvetica,sans-Serif" font-size="10.00" fill="#000000">/AliceO2Group/AliceO2</text>
<text text-anchor="start" x="259" y="-107.5" font-family="Helvetica,sans-Serif" font-size="10.00" fill="#000000">/Detectors/MUON/MID/Raw</text>
<text text-anchor="middle" x="325" y="-96.5" font-family="Helvetica,sans-Serif" font-size="10.00" fill="#000000">/include/MIDRaw/Encoder.h</text>
</a>
</g>
</g>
<!-- Node4&#45;&gt;Node5 -->
<g id="edge2" class="edge">
<title>Node4&#45;&gt;Node5</title>
<path fill="none" stroke="#191970" d="M462.8055,-174.4259C437.2853,-163.5134 409.6921,-151.7145 385.9485,-141.5617"/>
<polygon fill="#191970" stroke="#191970" points="461.5322,-177.6879 472.1029,-178.4015 464.2844,-171.2516 461.5322,-177.6879"/>
</g>
<!-- Node8 -->
<g id="node6" class="node">
<title>Node8</title>
<g id="a_node6"><a xlink:href="../../d8/d4c/testRaw_8cxx.html" target="_top" xlink:title="Test MID raw data decoder. ">
<polygon fill="none" stroke="#000000" points="516,-.5 516,-52.5 662,-52.5 662,-.5 516,-.5"/>
<text text-anchor="start" x="524" y="-40.5" font-family="Helvetica,sans-Serif" font-size="10.00" fill="#000000">/home/travis/build</text>
<text text-anchor="start" x="524" y="-29.5" font-family="Helvetica,sans-Serif" font-size="10.00" fill="#000000">/AliceO2Group/AliceO2</text>
<text text-anchor="start" x="524" y="-18.5" font-family="Helvetica,sans-Serif" font-size="10.00" fill="#000000">/Detectors/MUON/MID/Raw</text>
<text text-anchor="middle" x="589" y="-7.5" font-family="Helvetica,sans-Serif" font-size="10.00" fill="#000000">/test/testRaw.cxx</text>
</a>
</g>
</g>
<!-- Node4&#45;&gt;Node8 -->
<g id="edge8" class="edge">
<title>Node4&#45;&gt;Node8</title>
<path fill="none" stroke="#191970" d="M471.7153,-172.2419C461.3722,-163.7298 452.183,-153.6814 446,-142 434.9805,-121.1809 433.1033,-108.7114 446,-89 454.6779,-75.7366 485.2932,-61.542 515.981,-50.0377"/>
<polygon fill="#191970" stroke="#191970" points="469.753,-175.1476 479.819,-178.4532 474.0114,-169.5919 469.753,-175.1476"/>
</g>
<!-- Node10 -->
<g id="node8" class="node">
<title>Node10</title>
<g id="a_node8"><a xlink:href="../../d6/db2/ColumnDataToLocalBoard_8cxx.html" target="_top" xlink:title="Converter from ColumnData to raw local boards. ">
<polygon fill="none" stroke="#000000" points="455,-89.5 455,-141.5 637,-141.5 637,-89.5 455,-89.5"/>
<text text-anchor="start" x="463" y="-129.5" font-family="Helvetica,sans-Serif" font-size="10.00" fill="#000000">/home/travis/build</text>
<text text-anchor="start" x="463" y="-118.5" font-family="Helvetica,sans-Serif" font-size="10.00" fill="#000000">/AliceO2Group/AliceO2</text>
<text text-anchor="start" x="463" y="-107.5" font-family="Helvetica,sans-Serif" font-size="10.00" fill="#000000">/Detectors/MUON/MID/Raw</text>
<text text-anchor="middle" x="546" y="-96.5" font-family="Helvetica,sans-Serif" font-size="10.00" fill="#000000">/src/ColumnDataToLocalBoard.cxx</text>
</a>
</g>
</g>
<!-- Node4&#45;&gt;Node10 -->
<g id="edge7" class="edge">
<title>Node4&#45;&gt;Node10</title>
<path fill="none" stroke="#191970" d="M546,-168.2457C546,-159.2008 546,-149.8836 546,-141.6442"/>
<polygon fill="#191970" stroke="#191970" points="542.5001,-168.2699 546,-178.27 549.5001,-168.27 542.5001,-168.2699"/>
</g>
<!-- Node11 -->
<g id="node9" class="node">
<title>Node11</title>
<g id="a_node9"><a xlink:href="../../de/d2b/ZeroSuppressionSpec_8cxx.html" target="_top" xlink:title="MID zero suppression spec. ">
<polygon fill="none" stroke="#000000" points="655,-89.5 655,-141.5 825,-141.5 825,-89.5 655,-89.5"/>
<text text-anchor="start" x="663" y="-129.5" font-family="Helvetica,sans-Serif" font-size="10.00" fill="#000000">/home/travis/build</text>
<text text-anchor="start" x="663" y="-118.5" font-family="Helvetica,sans-Serif" font-size="10.00" fill="#000000">/AliceO2Group/AliceO2</text>
<text text-anchor="start" x="663" y="-107.5" font-family="Helvetica,sans-Serif" font-size="10.00" fill="#000000">/Detectors/MUON/MID/Workflow</text>
<text text-anchor="middle" x="740" y="-96.5" font-family="Helvetica,sans-Serif" font-size="10.00" fill="#000000">/src/ZeroSuppressionSpec.cxx</text>
</a>
</g>
</g>
<!-- Node4&#45;&gt;Node11 -->
<g id="edge9" class="edge">
<title>Node4&#45;&gt;Node11</title>
<path fill="none" stroke="#191970" d="M619.9157,-173.9947C642.0696,-163.2032 665.9291,-151.5809 686.4977,-141.5617"/>
<polygon fill="#191970" stroke="#191970" points="618.3263,-170.8757 610.8689,-178.4015 621.3918,-177.1688 618.3263,-170.8757"/>
</g>
<!-- Node6 -->
<g id="node4" class="node">
<title>Node6</title>
<g id="a_node4"><a xlink:href="../../d8/dc6/MUON_2MID_2Raw_2src_2Encoder_8cxx.html" target="_top" xlink:title="MID raw data encoder. ">
<polygon fill="none" stroke="#000000" points="0,-.5 0,-52.5 146,-52.5 146,-.5 0,-.5"/>
<text text-anchor="start" x="8" y="-40.5" font-family="Helvetica,sans-Serif" font-size="10.00" fill="#000000">/home/travis/build</text>
<text text-anchor="start" x="8" y="-29.5" font-family="Helvetica,sans-Serif" font-size="10.00" fill="#000000">/AliceO2Group/AliceO2</text>
<text text-anchor="start" x="8" y="-18.5" font-family="Helvetica,sans-Serif" font-size="10.00" fill="#000000">/Detectors/MUON/MID/Raw</text>
<text text-anchor="middle" x="73" y="-7.5" font-family="Helvetica,sans-Serif" font-size="10.00" fill="#000000">/src/Encoder.cxx</text>
</a>
</g>
</g>
<!-- Node5&#45;&gt;Node6 -->
<g id="edge3" class="edge">
<title>Node5&#45;&gt;Node6</title>
<path fill="none" stroke="#191970" d="M241.6376,-86.0585C210.733,-75.1438 175.9489,-62.8589 146.0342,-52.2938"/>
<polygon fill="#191970" stroke="#191970" points="240.4996,-89.3684 251.0944,-89.3984 242.8308,-82.768 240.4996,-89.3684"/>
</g>
<!-- Node7 -->
<g id="node5" class="node">
<title>Node7</title>
<g id="a_node5"><a xlink:href="../../d5/d52/bench__Raw_8cxx.html" target="_top" xlink:title="Benchmark MID raw data decoder. ">
<polygon fill="none" stroke="#000000" points="164,-.5 164,-52.5 310,-52.5 310,-.5 164,-.5"/>
<text text-anchor="start" x="172" y="-40.5" font-family="Helvetica,sans-Serif" font-size="10.00" fill="#000000">/home/travis/build</text>
<text text-anchor="start" x="172" y="-29.5" font-family="Helvetica,sans-Serif" font-size="10.00" fill="#000000">/AliceO2Group/AliceO2</text>
<text text-anchor="start" x="172" y="-18.5" font-family="Helvetica,sans-Serif" font-size="10.00" fill="#000000">/Detectors/MUON/MID/Raw</text>
<text text-anchor="middle" x="237" y="-7.5" font-family="Helvetica,sans-Serif" font-size="10.00" fill="#000000">/test/bench_Raw.cxx</text>
</a>
</g>
</g>
<!-- Node5&#45;&gt;Node7 -->
<g id="edge4" class="edge">
<title>Node5&#45;&gt;Node7</title>
<path fill="none" stroke="#191970" d="M291.8793,-82.0029C282.2389,-72.2529 271.8551,-61.7511 262.7416,-52.5341"/>
<polygon fill="#191970" stroke="#191970" points="289.5532,-84.6284 299.0731,-89.2784 294.5309,-79.7066 289.5532,-84.6284"/>
</g>
<!-- Node5&#45;&gt;Node8 -->
<g id="edge5" class="edge">
<title>Node5&#45;&gt;Node8</title>
<path fill="none" stroke="#191970" d="M408.7912,-87.2522C443.1586,-75.6662 482.5803,-62.3763 515.7722,-51.1867"/>
<polygon fill="#191970" stroke="#191970" points="407.5992,-83.9605 399.2413,-90.4717 409.8354,-90.5937 407.5992,-83.9605"/>
</g>
<!-- Node9 -->
<g id="node7" class="node">
<title>Node9</title>
<g id="a_node7"><a xlink:href="../../db/dd6/RawWriterSpec_8cxx.html" target="_top" xlink:title="Digits to raw converter spec for MID. ">
<polygon fill="none" stroke="#000000" points="328,-.5 328,-52.5 498,-52.5 498,-.5 328,-.5"/>
<text text-anchor="start" x="336" y="-40.5" font-family="Helvetica,sans-Serif" font-size="10.00" fill="#000000">/home/travis/build</text>
<text text-anchor="start" x="336" y="-29.5" font-family="Helvetica,sans-Serif" font-size="10.00" fill="#000000">/AliceO2Group/AliceO2</text>
<text text-anchor="start" x="336" y="-18.5" font-family="Helvetica,sans-Serif" font-size="10.00" fill="#000000">/Detectors/MUON/MID/Workflow</text>
<text text-anchor="middle" x="413" y="-7.5" font-family="Helvetica,sans-Serif" font-size="10.00" fill="#000000">/src/RawWriterSpec.cxx</text>
</a>
</g>
</g>
<!-- Node5&#45;&gt;Node9 -->
<g id="edge6" class="edge">
<title>Node5&#45;&gt;Node9</title>
<path fill="none" stroke="#191970" d="M358.1207,-82.0029C367.7611,-72.2529 378.1449,-61.7511 387.2584,-52.5341"/>
<polygon fill="#191970" stroke="#191970" points="355.4691,-79.7066 350.9269,-89.2784 360.4468,-84.6284 355.4691,-79.7066"/>
</g>
<!-- Node12&#45;&gt;Node8 -->
<g id="edge12" class="edge">
<title>Node12&#45;&gt;Node8</title>
<path fill="none" stroke="#191970" d="M857.109,-173.7318C858.0412,-147.0501 854.5961,-111.6297 834,-89 811.0273,-63.7591 725.5673,-46.1219 662.0084,-36.1639"/>
<polygon fill="#191970" stroke="#191970" points="853.6074,-173.6629 856.5362,-183.8449 860.5962,-174.0588 853.6074,-173.6629"/>
</g>
<!-- Node12&#45;&gt;Node11 -->
<g id="edge14" class="edge">
<title>Node12&#45;&gt;Node11</title>
<path fill="none" stroke="#191970" d="M813.8703,-177.2765C800.0111,-165.6863 784.6072,-152.8043 771.4674,-141.8157"/>
<polygon fill="#191970" stroke="#191970" points="811.9067,-180.197 821.8231,-183.9273 816.3974,-174.8272 811.9067,-180.197"/>
</g>
<!-- Node13 -->
<g id="node11" class="node">
<title>Node13</title>
<g id="a_node11"><a xlink:href="../../d1/d9a/DecodedDataAggregator_8cxx.html" target="_top" xlink:title="MID decoded raw data aggregator. ">
<polygon fill="none" stroke="#000000" points="881,-89.5 881,-141.5 1057,-141.5 1057,-89.5 881,-89.5"/>
<text text-anchor="start" x="889" y="-129.5" font-family="Helvetica,sans-Serif" font-size="10.00" fill="#000000">/home/travis/build</text>
<text text-anchor="start" x="889" y="-118.5" font-family="Helvetica,sans-Serif" font-size="10.00" fill="#000000">/AliceO2Group/AliceO2</text>
<text text-anchor="start" x="889" y="-107.5" font-family="Helvetica,sans-Serif" font-size="10.00" fill="#000000">/Detectors/MUON/MID/Raw</text>
<text text-anchor="middle" x="969" y="-96.5" font-family="Helvetica,sans-Serif" font-size="10.00" fill="#000000">/src/DecodedDataAggregator.cxx</text>
</a>
</g>
</g>
<!-- Node12&#45;&gt;Node13 -->
<g id="edge11" class="edge">
<title>Node12&#45;&gt;Node13</title>
<path fill="none" stroke="#191970" d="M892.7701,-177.6011C907.0999,-165.9272 923.0824,-152.907 936.6972,-141.8157"/>
<polygon fill="#191970" stroke="#191970" points="890.5469,-174.8977 885.0046,-183.9273 894.9682,-180.3248 890.5469,-174.8977"/>
</g>
<!-- Node14 -->
<g id="node12" class="node">
<title>Node14</title>
<g id="a_node12"><a xlink:href="../../db/de7/RawAggregatorSpec_8cxx.html" target="_top" xlink:title="Data processor spec for MID raw data aggregator device. ">
<polygon fill="none" stroke="#000000" points="1075,-89.5 1075,-141.5 1245,-141.5 1245,-89.5 1075,-89.5"/>
<text text-anchor="start" x="1083" y="-129.5" font-family="Helvetica,sans-Serif" font-size="10.00" fill="#000000">/home/travis/build</text>
<text text-anchor="start" x="1083" y="-118.5" font-family="Helvetica,sans-Serif" font-size="10.00" fill="#000000">/AliceO2Group/AliceO2</text>
<text text-anchor="start" x="1083" y="-107.5" font-family="Helvetica,sans-Serif" font-size="10.00" fill="#000000">/Detectors/MUON/MID/Workflow</text>
<text text-anchor="middle" x="1160" y="-96.5" font-family="Helvetica,sans-Serif" font-size="10.00" fill="#000000">/src/RawAggregatorSpec.cxx</text>
</a>
</g>
</g>
<!-- Node12&#45;&gt;Node14 -->
<g id="edge13" class="edge">
<title>Node12&#45;&gt;Node14</title>
<path fill="none" stroke="#191970" d="M947.3869,-180.946C988.2154,-168.3783 1035.6294,-153.7835 1075.3086,-141.5695"/>
<polygon fill="#191970" stroke="#191970" points="946.2295,-177.6402 937.7018,-183.9273 948.2889,-184.3304 946.2295,-177.6402"/>
</g>
</g>
</svg>
