<?xml version="1.0" encoding="UTF-8" standalone="no"?>
<!DOCTYPE svg PUBLIC "-//W3C//DTD SVG 1.1//EN"
 "http://www.w3.org/Graphics/SVG/1.1/DTD/svg11.dtd">
<!-- Generated by graphviz version 2.40.1 (20161225.0304)
 -->
<!-- Title: /home/travis/build/AliceO2Group/AliceO2/Analysis/DataModel/include/Analysis Pages: 1 -->
<svg width="176pt" height="295pt"
 viewBox="0.00 0.00 176.10 295.00" xmlns="http://www.w3.org/2000/svg" xmlns:xlink="http://www.w3.org/1999/xlink">
<g id="graph0" class="graph" transform="scale(1 1) rotate(0) translate(4 291)">
<title>/home/travis/build/AliceO2Group/AliceO2/Analysis/DataModel/include/Analysis</title>
<g id="clust1" class="cluster">
<title>clusterdir_7683e4c5aa7478ea0e5a46a41c8497b7</title>
<g id="a_clust1"><a xlink:href="dir_7683e4c5aa7478ea0e5a46a41c8497b7.html" target="_top" xlink:title="include">
<polygon fill="#ddddee" stroke="#000000" points="54.5,-208 54.5,-279 128.5,-279 128.5,-208 54.5,-208"/>
<text text-anchor="middle" x="91.5" y="-267" font-family="Helvetica,sans-Serif" font-size="10.00" fill="#000000">include</text>
</a>
</g>
</g>
<!-- dir_5288c54a69662669867ddb130abdbf12 -->
<g id="node1" class="node">
<title>dir_5288c54a69662669867ddb130abdbf12</title>
<g id="a_node1"><a xlink:href="dir_5288c54a69662669867ddb130abdbf12.html" target="_top" xlink:title="Analysis">
<polygon fill="#eeeeff" stroke="#000000" points="120.5,-252 62.5,-252 62.5,-216 120.5,-216 120.5,-252"/>
<text text-anchor="middle" x="91.5" y="-231.5" font-family="Helvetica,sans-Serif" font-size="10.00" fill="#000000">Analysis</text>
</a>
</g>
</g>
<!-- dir_4ab6b4cc6a7edbff49100e9123df213f -->
<g id="node2" class="node">
<title>dir_4ab6b4cc6a7edbff49100e9123df213f</title>
<g id="a_node2"><a xlink:href="dir_4ab6b4cc6a7edbff49100e9123df213f.html" target="_top" xlink:title="Common">
<polygon fill="none" stroke="#ff0000" points="61,-108 0,-108 0,-72 61,-72 61,-108"/>
<text text-anchor="middle" x="30.5" y="-87.5" font-family="Helvetica,sans-Serif" font-size="10.00" fill="#000000">Common</text>
</a>
</g>
</g>
<!-- dir_5288c54a69662669867ddb130abdbf12&#45;&gt;dir_4ab6b4cc6a7edbff49100e9123df213f -->
<g id="edge3" class="edge">
<title>dir_5288c54a69662669867ddb130abdbf12&#45;&gt;dir_4ab6b4cc6a7edbff49100e9123df213f</title>
<path fill="none" stroke="#000000" d="M62.2082,-220.4164C46.4443,-211.3885 28.4443,-197.8885 19.5,-180 9.8776,-160.7552 13.6666,-136.4035 19.2887,-117.8849"/>
<polygon fill="#000000" stroke="#000000" points="22.6532,-118.8604 22.527,-108.2664 16.0191,-116.6268 22.6532,-118.8604"/>
<g id="a_edge3&#45;headlabel"><a xlink:href="dir_000011_000036.html" target="_top" xlink:title="1">
<text text-anchor="middle" x="24.1971" y="-120.6731" font-family="Helvetica,sans-Serif" font-size="10.00" fill="#000000">1</text>
</a>
</g>
</g>
<!-- dir_fbd351ec6b98f95c9f7c5b7ed91033e7 -->
<g id="node3" class="node">
<title>dir_fbd351ec6b98f95c9f7c5b7ed91033e7</title>
<g id="a_node3"><a xlink:href="dir_fbd351ec6b98f95c9f7c5b7ed91033e7.html" target="_top" xlink:title="PID">
<polygon fill="none" stroke="#000000" points="154.5,-180 100.5,-180 100.5,-144 154.5,-144 154.5,-180"/>
<text text-anchor="middle" x="127.5" y="-159.5" font-family="Helvetica,sans-Serif" font-size="10.00" fill="#000000">PID</text>
</a>
</g>
</g>
<!-- dir_5288c54a69662669867ddb130abdbf12&#45;&gt;dir_fbd351ec6b98f95c9f7c5b7ed91033e7 -->
<g id="edge4" class="edge">
<title>dir_5288c54a69662669867ddb130abdbf12&#45;&gt;dir_fbd351ec6b98f95c9f7c5b7ed91033e7</title>
<path fill="none" stroke="#000000" d="M100.5843,-215.8314C104.5615,-207.8771 109.3155,-198.369 113.7139,-189.5723"/>
<polygon fill="#000000" stroke="#000000" points="116.9517,-190.9228 118.2934,-180.4133 110.6907,-187.7923 116.9517,-190.9228"/>
<g id="a_edge4&#45;headlabel"><a xlink:href="dir_000011_000012.html" target="_top" xlink:title="2">
<text text-anchor="middle" x="117.8837" y="-192.9077" font-family="Helvetica,sans-Serif" font-size="10.00" fill="#000000">2</text>
</a>
</g>
</g>
<!-- dir_8d04f135a1eb0fdc4d561ef87bbea216 -->
<g id="node4" class="node">
<title>dir_8d04f135a1eb0fdc4d561ef87bbea216</title>
<g id="a_node4"><a xlink:href="dir_8d04f135a1eb0fdc4d561ef87bbea216.html" target="_top" xlink:title="Core">
<polygon fill="none" stroke="#ff0000" points="82.5,-180 28.5,-180 28.5,-144 82.5,-144 82.5,-180"/>
<text text-anchor="middle" x="55.5" y="-159.5" font-family="Helvetica,sans-Serif" font-size="10.00" fill="#000000">Core</text>
</a>
</g>
</g>
<!-- dir_5288c54a69662669867ddb130abdbf12&#45;&gt;dir_8d04f135a1eb0fdc4d561ef87bbea216 -->
<g id="edge5" class="edge">
<title>dir_5288c54a69662669867ddb130abdbf12&#45;&gt;dir_8d04f135a1eb0fdc4d561ef87bbea216</title>
<path fill="none" stroke="#000000" d="M82.4157,-215.8314C78.4385,-207.8771 73.6845,-198.369 69.2861,-189.5723"/>
<polygon fill="#000000" stroke="#000000" points="72.3093,-187.7923 64.7066,-180.4133 66.0483,-190.9228 72.3093,-187.7923"/>
<g id="a_edge5&#45;headlabel"><a xlink:href="dir_000011_000005.html" target="_top" xlink:title="3">
<text text-anchor="middle" x="76.4563" y="-187.2377" font-family="Helvetica,sans-Serif" font-size="10.00" fill="#000000">3</text>
</a>
</g>
</g>
<!-- dir_bcbb2cf9a3d3d83e5515c82071a07177 -->
<g id="node5" class="node">
<title>dir_bcbb2cf9a3d3d83e5515c82071a07177</title>
<g id="a_node5"><a xlink:href="dir_bcbb2cf9a3d3d83e5515c82071a07177.html" target="_top" xlink:title="Framework">
<polygon fill="none" stroke="#ff0000" points="125,-36 54,-36 54,0 125,0 125,-36"/>
<text text-anchor="middle" x="89.5" y="-15.5" font-family="Helvetica,sans-Serif" font-size="10.00" fill="#000000">Framework</text>
</a>
</g>
</g>
<!-- dir_5288c54a69662669867ddb130abdbf12&#45;&gt;dir_bcbb2cf9a3d3d83e5515c82071a07177 -->
<g id="edge6" class="edge">
<title>dir_5288c54a69662669867ddb130abdbf12&#45;&gt;dir_bcbb2cf9a3d3d83e5515c82071a07177</title>
<path fill="none" stroke="#000000" d="M120.7918,-220.4164C136.5557,-211.3885 154.5557,-197.8885 163.5,-180 170.6554,-165.6892 167.5951,-159.4671 163.5,-144 153.51,-106.2681 128.7982,-68.3776 110.6691,-44.1486"/>
<polygon fill="#000000" stroke="#000000" points="113.422,-41.9867 104.5661,-36.1709 107.8623,-46.2399 113.422,-41.9867"/>
<g id="a_edge6&#45;headlabel"><a xlink:href="dir_000011_000063.html" target="_top" xlink:title="11">
<text text-anchor="middle" x="117.8611" y="-40.6165" font-family="Helvetica,sans-Serif" font-size="10.00" fill="#000000">11</text>
</a>
</g>
</g>
<!-- dir_4ab6b4cc6a7edbff49100e9123df213f&#45;&gt;dir_bcbb2cf9a3d3d83e5515c82071a07177 -->
<g id="edge1" class="edge">
<title>dir_4ab6b4cc6a7edbff49100e9123df213f&#45;&gt;dir_bcbb2cf9a3d3d83e5515c82071a07177</title>
<path fill="none" stroke="#000000" d="M39.4358,-71.8314C45.5453,-63.3694 53.7352,-53.1489 61.7708,-43.8971"/>
<polygon fill="#000000" stroke="#000000" points="64.3987,-46.209 68.4353,-36.4133 59.171,-41.5536 64.3987,-46.209"/>
<g id="a_edge1&#45;headlabel"><a xlink:href="dir_000036_000063.html" target="_top" xlink:title="2">
<text text-anchor="middle" x="64.1285" y="-48.2817" font-family="Helvetica,sans-Serif" font-size="10.00" fill="#000000">2</text>
</a>
</g>
</g>
<!-- dir_fbd351ec6b98f95c9f7c5b7ed91033e7&#45;&gt;dir_bcbb2cf9a3d3d83e5515c82071a07177 -->
<g id="edge2" class="edge">
<title>dir_fbd351ec6b98f95c9f7c5b7ed91033e7&#45;&gt;dir_bcbb2cf9a3d3d83e5515c82071a07177</title>
<path fill="none" stroke="#000000" d="M122.6873,-143.7623C116.1773,-119.0928 104.5047,-74.8598 96.8818,-45.9731"/>
<polygon fill="#000000" stroke="#000000" points="100.2094,-44.8656 94.2736,-36.0896 93.4411,-46.6517 100.2094,-44.8656"/>
<g id="a_edge2&#45;headlabel"><a xlink:href="dir_000012_000063.html" target="_top" xlink:title="5">
<text text-anchor="middle" x="103.8718" y="-45.1168" font-family="Helvetica,sans-Serif" font-size="10.00" fill="#000000">5</text>
</a>
</g>
</g>
<!-- dir_8d04f135a1eb0fdc4d561ef87bbea216&#45;&gt;dir_4ab6b4cc6a7edbff49100e9123df213f -->
<g id="edge7" class="edge">
<title>dir_8d04f135a1eb0fdc4d561ef87bbea216&#45;&gt;dir_4ab6b4cc6a7edbff49100e9123df213f</title>
<path fill="none" stroke="#000000" d="M49.1914,-143.8314C46.4883,-136.0463 43.2684,-126.7729 40.269,-118.1347"/>
<polygon fill="#000000" stroke="#000000" points="43.48,-116.7119 36.8935,-108.4133 36.8673,-119.0081 43.48,-116.7119"/>
<g id="a_edge7&#45;headlabel"><a xlink:href="dir_000005_000036.html" target="_top" xlink:title="1">
<text text-anchor="middle" x="47.3412" y="-116.6764" font-family="Helvetica,sans-Serif" font-size="10.00" fill="#000000">1</text>
</a>
</g>
</g>
<!-- dir_8d04f135a1eb0fdc4d561ef87bbea216&#45;&gt;dir_bcbb2cf9a3d3d83e5515c82071a07177 -->
<g id="edge8" class="edge">
<title>dir_8d04f135a1eb0fdc4d561ef87bbea216&#45;&gt;dir_bcbb2cf9a3d3d83e5515c82071a07177</title>
<path fill="none" stroke="#000000" d="M60.4551,-143.5457C63.2086,-133.1311 66.6447,-119.8643 69.5,-108 74.4546,-87.4128 79.6294,-64.0687 83.4737,-46.3149"/>
<polygon fill="#000000" stroke="#000000" points="86.9435,-46.8274 85.6266,-36.3148 80.1003,-45.3542 86.9435,-46.8274"/>
<g id="a_edge8&#45;headlabel"><a xlink:href="dir_000005_000063.html" target="_top" xlink:title="12">
<text text-anchor="middle" x="88.9628" y="-48.4391" font-family="Helvetica,sans-Serif" font-size="10.00" fill="#000000">12</text>
</a>
</g>
</g>
<!-- dir_bcbb2cf9a3d3d83e5515c82071a07177&#45;&gt;dir_4ab6b4cc6a7edbff49100e9123df213f -->
<g id="edge9" class="edge">
<title>dir_bcbb2cf9a3d3d83e5515c82071a07177&#45;&gt;dir_4ab6b4cc6a7edbff49100e9123df213f</title>
<path fill="none" stroke="#000000" d="M80.3874,-36.4133C74.2996,-44.8239 66.1938,-54.9323 58.2384,-64.0923"/>
<polygon fill="#000000" stroke="#000000" points="55.3815,-62.0374 51.3406,-71.8314 60.6071,-66.695 55.3815,-62.0374"/>
<g id="a_edge9&#45;headlabel"><a xlink:href="dir_000063_000036.html" target="_top" xlink:title="8">
<text text-anchor="middle" x="55.6537" y="-54.9648" font-family="Helvetica,sans-Serif" font-size="10.00" fill="#000000">8</text>
</a>
</g>
</g>
</g>
</svg>
