<?xml version="1.0" encoding="UTF-8" standalone="no"?>
<!DOCTYPE svg PUBLIC "-//W3C//DTD SVG 1.1//EN"
 "http://www.w3.org/Graphics/SVG/1.1/DTD/svg11.dtd">
<!-- Generated by graphviz version 2.40.1 (20161225.0304)
 -->
<!-- Title: /home/travis/build/AliceO2Group/AliceO2/Detectors/GlobalTrackingWorkflow/tofworkflow Pages: 1 -->
<svg width="804pt" height="682pt"
 viewBox="0.00 0.00 804.00 682.25" xmlns="http://www.w3.org/2000/svg" xmlns:xlink="http://www.w3.org/1999/xlink">
<g id="graph0" class="graph" transform="scale(1 1) rotate(0) translate(4 678.2546)">
<title>/home/travis/build/AliceO2Group/AliceO2/Detectors/GlobalTrackingWorkflow/tofworkflow</title>
<g id="clust1" class="cluster">
<title>clusterdir_109ace25e426b841fbcad1590c555213</title>
<g id="a_clust1"><a xlink:href="dir_109ace25e426b841fbcad1590c555213.html" target="_top" xlink:title="GlobalTrackingWorkflow">
<polygon fill="#ddddee" stroke="#000000" points="126,-488 126,-647 304,-647 304,-488 126,-488"/>
<text text-anchor="middle" x="215" y="-635" font-family="Helvetica,sans-Serif" font-size="10.00" fill="#000000">GlobalTrackingWorkflow</text>
</a>
</g>
</g>
<g id="clust2" class="cluster">
<title>clusterdir_57f28544222c2e6ef6ccc73f132144c0</title>
<g id="a_clust2"><a xlink:href="dir_57f28544222c2e6ef6ccc73f132144c0.html" target="_top">
<polygon fill="#eeeeff" stroke="#000000" points="134,-496 134,-620 296,-620 296,-496 134,-496"/>
</a>
</g>
</g>
<!-- dir_57f28544222c2e6ef6ccc73f132144c0 -->
<g id="node1" class="node">
<title>dir_57f28544222c2e6ef6ccc73f132144c0</title>
<text text-anchor="middle" x="251" y="-591.5" font-family="Helvetica,sans-Serif" font-size="10.00" fill="#000000">tofworkflow</text>
</g>
<!-- dir_8feb20fbc7831f8f200feef6e6d9e0a3 -->
<g id="node2" class="node">
<title>dir_8feb20fbc7831f8f200feef6e6d9e0a3</title>
<g id="a_node2"><a xlink:href="dir_8feb20fbc7831f8f200feef6e6d9e0a3.html" target="_top" xlink:title="include">
<polygon fill="#ffffff" stroke="#ff0000" points="196,-540 142,-540 142,-504 196,-504 196,-540"/>
<text text-anchor="middle" x="169" y="-519.5" font-family="Helvetica,sans-Serif" font-size="10.00" fill="#000000">include</text>
</a>
</g>
</g>
<!-- dir_bcbb2cf9a3d3d83e5515c82071a07177 -->
<g id="node12" class="node">
<title>dir_bcbb2cf9a3d3d83e5515c82071a07177</title>
<g id="a_node12"><a xlink:href="dir_bcbb2cf9a3d3d83e5515c82071a07177.html" target="_top" xlink:title="Framework">
<polygon fill="none" stroke="#ff0000" points="357.5,-396 286.5,-396 286.5,-360 357.5,-360 357.5,-396"/>
<text text-anchor="middle" x="322" y="-375.5" font-family="Helvetica,sans-Serif" font-size="10.00" fill="#000000">Framework</text>
</a>
</g>
</g>
<!-- dir_8feb20fbc7831f8f200feef6e6d9e0a3&#45;&gt;dir_bcbb2cf9a3d3d83e5515c82071a07177 -->
<g id="edge49" class="edge">
<title>dir_8feb20fbc7831f8f200feef6e6d9e0a3&#45;&gt;dir_bcbb2cf9a3d3d83e5515c82071a07177</title>
<path fill="none" stroke="#000000" d="M185.4155,-503.8065C202.4838,-485.1842 230.2576,-455.6964 256,-432 266.9564,-421.9144 279.4921,-411.4178 290.6746,-402.3902"/>
<polygon fill="#000000" stroke="#000000" points="292.9123,-405.0822 298.5361,-396.1031 288.5403,-399.6154 292.9123,-405.0822"/>
<g id="a_edge49&#45;headlabel"><a xlink:href="dir_000534_000063.html" target="_top" xlink:title="8">
<text text-anchor="middle" x="291.8783" y="-407.0446" font-family="Helvetica,sans-Serif" font-size="10.00" fill="#000000">8</text>
</a>
</g>
</g>
<!-- dir_2171f7ec022c5423887b07c69b2f5b48 -->
<g id="node13" class="node">
<title>dir_2171f7ec022c5423887b07c69b2f5b48</title>
<g id="a_node13"><a xlink:href="dir_2171f7ec022c5423887b07c69b2f5b48.html" target="_top" xlink:title="DataFormats">
<polygon fill="none" stroke="#ff0000" points="336,-180 256,-180 256,-144 336,-144 336,-180"/>
<text text-anchor="middle" x="296" y="-159.5" font-family="Helvetica,sans-Serif" font-size="10.00" fill="#000000">DataFormats</text>
</a>
</g>
</g>
<!-- dir_8feb20fbc7831f8f200feef6e6d9e0a3&#45;&gt;dir_2171f7ec022c5423887b07c69b2f5b48 -->
<g id="edge50" class="edge">
<title>dir_8feb20fbc7831f8f200feef6e6d9e0a3&#45;&gt;dir_2171f7ec022c5423887b07c69b2f5b48</title>
<path fill="none" stroke="#000000" d="M160.2176,-503.7869C141.9519,-463.1852 104.1917,-362.9337 137,-288 158.0551,-239.9104 208.492,-205.1063 246.9593,-184.4192"/>
<polygon fill="#000000" stroke="#000000" points="248.717,-187.4499 255.9589,-179.7164 245.475,-181.2458 248.717,-187.4499"/>
<g id="a_edge50&#45;headlabel"><a xlink:href="dir_000534_000090.html" target="_top" xlink:title="5">
<text text-anchor="middle" x="246.8461" y="-189.131" font-family="Helvetica,sans-Serif" font-size="10.00" fill="#000000">5</text>
</a>
</g>
</g>
<!-- dir_1f12aa5b71899e653444b1540988c8e0 -->
<g id="node3" class="node">
<title>dir_1f12aa5b71899e653444b1540988c8e0</title>
<g id="a_node3"><a xlink:href="dir_1f12aa5b71899e653444b1540988c8e0.html" target="_top" xlink:title="src">
<polygon fill="#ffffff" stroke="#000000" points="196,-612 142,-612 142,-576 196,-576 196,-612"/>
<text text-anchor="middle" x="169" y="-591.5" font-family="Helvetica,sans-Serif" font-size="10.00" fill="#000000">src</text>
</a>
</g>
</g>
<!-- dir_1f12aa5b71899e653444b1540988c8e0&#45;&gt;dir_8feb20fbc7831f8f200feef6e6d9e0a3 -->
<g id="edge20" class="edge">
<title>dir_1f12aa5b71899e653444b1540988c8e0&#45;&gt;dir_8feb20fbc7831f8f200feef6e6d9e0a3</title>
<path fill="none" stroke="#000000" d="M169,-575.8314C169,-568.131 169,-558.9743 169,-550.4166"/>
<polygon fill="#000000" stroke="#000000" points="172.5001,-550.4132 169,-540.4133 165.5001,-550.4133 172.5001,-550.4132"/>
<g id="a_edge20&#45;headlabel"><a xlink:href="dir_000536_000534.html" target="_top" xlink:title="17">
<text text-anchor="middle" x="175.3393" y="-551.5079" font-family="Helvetica,sans-Serif" font-size="10.00" fill="#000000">17</text>
</a>
</g>
</g>
<!-- dir_abf14b5a84807c7615b6f574ef2c4a02 -->
<g id="node4" class="node">
<title>dir_abf14b5a84807c7615b6f574ef2c4a02</title>
<g id="a_node4"><a xlink:href="dir_abf14b5a84807c7615b6f574ef2c4a02.html" target="_top" xlink:title="include">
<polygon fill="none" stroke="#ff0000" points="494,-612 440,-612 440,-576 494,-576 494,-612"/>
<text text-anchor="middle" x="467" y="-591.5" font-family="Helvetica,sans-Serif" font-size="10.00" fill="#000000">include</text>
</a>
</g>
</g>
<!-- dir_1f12aa5b71899e653444b1540988c8e0&#45;&gt;dir_abf14b5a84807c7615b6f574ef2c4a02 -->
<g id="edge10" class="edge">
<title>dir_1f12aa5b71899e653444b1540988c8e0&#45;&gt;dir_abf14b5a84807c7615b6f574ef2c4a02</title>
<path fill="none" stroke="#000000" d="M174.7294,-612.0384C181.2342,-629.1355 193.6695,-653.8155 214,-665 243.9844,-681.4954 257.4048,-671.521 291,-665 341.5559,-655.1868 395.9875,-630.8887 430.7153,-613.452"/>
<polygon fill="#000000" stroke="#000000" points="432.6496,-616.3944 439.9682,-608.7336 429.4696,-610.1584 432.6496,-616.3944"/>
<g id="a_edge10&#45;headlabel"><a xlink:href="dir_000536_000530.html" target="_top" xlink:title="3">
<text text-anchor="middle" x="430.7371" y="-618.0567" font-family="Helvetica,sans-Serif" font-size="10.00" fill="#000000">3</text>
</a>
</g>
</g>
<!-- dir_4ab6b4cc6a7edbff49100e9123df213f -->
<g id="node5" class="node">
<title>dir_4ab6b4cc6a7edbff49100e9123df213f</title>
<g id="a_node5"><a xlink:href="dir_4ab6b4cc6a7edbff49100e9123df213f.html" target="_top" xlink:title="Common">
<polygon fill="none" stroke="#ff0000" points="487.5,-252 426.5,-252 426.5,-216 487.5,-216 487.5,-252"/>
<text text-anchor="middle" x="457" y="-231.5" font-family="Helvetica,sans-Serif" font-size="10.00" fill="#000000">Common</text>
</a>
</g>
</g>
<!-- dir_1f12aa5b71899e653444b1540988c8e0&#45;&gt;dir_4ab6b4cc6a7edbff49100e9123df213f -->
<g id="edge11" class="edge">
<title>dir_1f12aa5b71899e653444b1540988c8e0&#45;&gt;dir_4ab6b4cc6a7edbff49100e9123df213f</title>
<path fill="none" stroke="#000000" d="M196.069,-580.4207C267.2098,-544.72 454,-450.8976 454,-450 454,-450 454,-450 454,-378 454,-337.8673 455.1792,-291.4566 456.0589,-262.414"/>
<polygon fill="#000000" stroke="#000000" points="459.5645,-262.2872 456.3784,-252.1828 452.5679,-262.0687 459.5645,-262.2872"/>
<g id="a_edge11&#45;headlabel"><a xlink:href="dir_000536_000036.html" target="_top" xlink:title="5">
<text text-anchor="middle" x="462.2903" y="-263.4687" font-family="Helvetica,sans-Serif" font-size="10.00" fill="#000000">5</text>
</a>
</g>
</g>
<!-- dir_d14e88a79bca429480864605ee348cef -->
<g id="node6" class="node">
<title>dir_d14e88a79bca429480864605ee348cef</title>
<g id="a_node6"><a xlink:href="dir_d14e88a79bca429480864605ee348cef.html" target="_top" xlink:title="FIT">
<polygon fill="none" stroke="#ff0000" points="446,-108 392,-108 392,-72 446,-72 446,-108"/>
<text text-anchor="middle" x="419" y="-87.5" font-family="Helvetica,sans-Serif" font-size="10.00" fill="#000000">FIT</text>
</a>
</g>
</g>
<!-- dir_1f12aa5b71899e653444b1540988c8e0&#45;&gt;dir_d14e88a79bca429480864605ee348cef -->
<g id="edge12" class="edge">
<title>dir_1f12aa5b71899e653444b1540988c8e0&#45;&gt;dir_d14e88a79bca429480864605ee348cef</title>
<path fill="none" stroke="#000000" d="M196.0826,-579.1135C199.0318,-577.9012 202.0387,-576.8268 205,-576 395.6876,-522.7582 460.769,-601.364 649,-540 721.8332,-516.2561 796,-526.6058 796,-450 796,-450 796,-450 796,-234 796,-161.7409 551.2496,-112.4393 456.1557,-96.011"/>
<polygon fill="#000000" stroke="#000000" points="456.5583,-92.5292 446.1129,-94.3025 455.3843,-99.4301 456.5583,-92.5292"/>
<g id="a_edge12&#45;headlabel"><a xlink:href="dir_000536_000180.html" target="_top" xlink:title="3">
<text text-anchor="middle" x="460.5781" y="-87.833" font-family="Helvetica,sans-Serif" font-size="10.00" fill="#000000">3</text>
</a>
</g>
</g>
<!-- dir_a597e8e061b11201a1dff411feb10d0b -->
<g id="node7" class="node">
<title>dir_a597e8e061b11201a1dff411feb10d0b</title>
<g id="a_node7"><a xlink:href="dir_a597e8e061b11201a1dff411feb10d0b.html" target="_top" xlink:title="TPC">
<polygon fill="none" stroke="#ff0000" points="200,-324 146,-324 146,-288 200,-288 200,-324"/>
<text text-anchor="middle" x="173" y="-303.5" font-family="Helvetica,sans-Serif" font-size="10.00" fill="#000000">TPC</text>
</a>
</g>
</g>
<!-- dir_1f12aa5b71899e653444b1540988c8e0&#45;&gt;dir_a597e8e061b11201a1dff411feb10d0b -->
<g id="edge13" class="edge">
<title>dir_1f12aa5b71899e653444b1540988c8e0&#45;&gt;dir_a597e8e061b11201a1dff411feb10d0b</title>
<path fill="none" stroke="#000000" d="M153.0095,-575.9169C145.3462,-566.0371 136.9834,-553.1563 133,-540 110.9596,-467.2055 141.482,-377.7626 160.2386,-333.502"/>
<polygon fill="#000000" stroke="#000000" points="163.4788,-334.8275 164.2645,-324.2618 157.0615,-332.0314 163.4788,-334.8275"/>
<g id="a_edge13&#45;headlabel"><a xlink:href="dir_000536_000059.html" target="_top" xlink:title="1">
<text text-anchor="middle" x="164.646" y="-336.757" font-family="Helvetica,sans-Serif" font-size="10.00" fill="#000000">1</text>
</a>
</g>
</g>
<!-- dir_37c90836491b695b472bf98d1be8336b -->
<g id="node8" class="node">
<title>dir_37c90836491b695b472bf98d1be8336b</title>
<g id="a_node8"><a xlink:href="dir_37c90836491b695b472bf98d1be8336b.html" target="_top" xlink:title="Base">
<polygon fill="none" stroke="#ff0000" points="391,-36 337,-36 337,0 391,0 391,-36"/>
<text text-anchor="middle" x="364" y="-15.5" font-family="Helvetica,sans-Serif" font-size="10.00" fill="#000000">Base</text>
</a>
</g>
</g>
<!-- dir_1f12aa5b71899e653444b1540988c8e0&#45;&gt;dir_37c90836491b695b472bf98d1be8336b -->
<g id="edge14" class="edge">
<title>dir_1f12aa5b71899e653444b1540988c8e0&#45;&gt;dir_37c90836491b695b472bf98d1be8336b</title>
<path fill="none" stroke="#000000" d="M141.7581,-588.818C113.1235,-582.089 68.3733,-567.7619 40,-540 8.7128,-509.387 0,-493.7727 0,-450 0,-450 0,-450 0,-162 0,-92.2269 234.182,-41.7397 326.8733,-24.4892"/>
<polygon fill="#000000" stroke="#000000" points="327.7335,-27.8899 336.9382,-22.6436 326.4709,-21.0047 327.7335,-27.8899"/>
<g id="a_edge14&#45;headlabel"><a xlink:href="dir_000536_000297.html" target="_top" xlink:title="8">
<text text-anchor="middle" x="324.7099" y="-28.8309" font-family="Helvetica,sans-Serif" font-size="10.00" fill="#000000">8</text>
</a>
</g>
</g>
<!-- dir_8ba487e25de5ee77e05e9dce7582cb98 -->
<g id="node9" class="node">
<title>dir_8ba487e25de5ee77e05e9dce7582cb98</title>
<g id="a_node9"><a xlink:href="dir_8ba487e25de5ee77e05e9dce7582cb98.html" target="_top" xlink:title="Algorithm">
<polygon fill="none" stroke="#ff0000" points="260.5,-108 195.5,-108 195.5,-72 260.5,-72 260.5,-108"/>
<text text-anchor="middle" x="228" y="-87.5" font-family="Helvetica,sans-Serif" font-size="10.00" fill="#000000">Algorithm</text>
</a>
</g>
</g>
<!-- dir_1f12aa5b71899e653444b1540988c8e0&#45;&gt;dir_8ba487e25de5ee77e05e9dce7582cb98 -->
<g id="edge15" class="edge">
<title>dir_1f12aa5b71899e653444b1540988c8e0&#45;&gt;dir_8ba487e25de5ee77e05e9dce7582cb98</title>
<path fill="none" stroke="#000000" d="M141.6062,-582.8937C122.0404,-573.8036 96.2343,-559.2999 79,-540 49.7231,-507.2142 38,-493.9551 38,-450 38,-450 38,-450 38,-234 38,-160.4 129.675,-119.5684 185.666,-101.4939"/>
<polygon fill="#000000" stroke="#000000" points="186.8306,-104.7971 195.3378,-98.4822 184.7494,-98.1136 186.8306,-104.7971"/>
<g id="a_edge15&#45;headlabel"><a xlink:href="dir_000536_000000.html" target="_top" xlink:title="4">
<text text-anchor="middle" x="184.2427" y="-106.0766" font-family="Helvetica,sans-Serif" font-size="10.00" fill="#000000">4</text>
</a>
</g>
</g>
<!-- dir_577c839d346a264df4e9e588ca2a45dd -->
<g id="node10" class="node">
<title>dir_577c839d346a264df4e9e588ca2a45dd</title>
<g id="a_node10"><a xlink:href="dir_577c839d346a264df4e9e588ca2a45dd.html" target="_top" xlink:title="TOF">
<polygon fill="none" stroke="#ff0000" points="548,-468 494,-468 494,-432 548,-432 548,-468"/>
<text text-anchor="middle" x="521" y="-447.5" font-family="Helvetica,sans-Serif" font-size="10.00" fill="#000000">TOF</text>
</a>
</g>
</g>
<!-- dir_1f12aa5b71899e653444b1540988c8e0&#45;&gt;dir_577c839d346a264df4e9e588ca2a45dd -->
<g id="edge16" class="edge">
<title>dir_1f12aa5b71899e653444b1540988c8e0&#45;&gt;dir_577c839d346a264df4e9e588ca2a45dd</title>
<path fill="none" stroke="#000000" d="M196.1318,-579.2808C199.0714,-578.0358 202.0626,-576.9081 205,-576 317.715,-541.1527 369.7905,-605.3751 468,-540 489.9224,-525.4069 504.029,-498.4049 512.1321,-477.7705"/>
<polygon fill="#000000" stroke="#000000" points="515.4721,-478.8283 515.6356,-468.2347 508.9016,-476.4142 515.4721,-478.8283"/>
<g id="a_edge16&#45;headlabel"><a xlink:href="dir_000536_000154.html" target="_top" xlink:title="11">
<text text-anchor="middle" x="516.8976" y="-480.6815" font-family="Helvetica,sans-Serif" font-size="10.00" fill="#000000">11</text>
</a>
</g>
</g>
<!-- dir_18e0e8b4b629c3c13e7ad1457bcd5f89 -->
<g id="node11" class="node">
<title>dir_18e0e8b4b629c3c13e7ad1457bcd5f89</title>
<g id="a_node11"><a xlink:href="dir_18e0e8b4b629c3c13e7ad1457bcd5f89.html" target="_top" xlink:title="GlobalTracking">
<polygon fill="none" stroke="#ff0000" points="639.5,-540 550.5,-540 550.5,-504 639.5,-504 639.5,-540"/>
<text text-anchor="middle" x="595" y="-519.5" font-family="Helvetica,sans-Serif" font-size="10.00" fill="#000000">GlobalTracking</text>
</a>
</g>
</g>
<!-- dir_1f12aa5b71899e653444b1540988c8e0&#45;&gt;dir_18e0e8b4b629c3c13e7ad1457bcd5f89 -->
<g id="edge17" class="edge">
<title>dir_1f12aa5b71899e653444b1540988c8e0&#45;&gt;dir_18e0e8b4b629c3c13e7ad1457bcd5f89</title>
<path fill="none" stroke="#000000" d="M196.1098,-579.2081C199.0537,-577.9773 202.0519,-576.8728 205,-576 342.2314,-535.3713 384.2408,-565.8844 525,-540 530.0387,-539.0734 535.2507,-537.9846 540.4525,-536.8088"/>
<polygon fill="#000000" stroke="#000000" points="541.4676,-540.1654 550.3952,-534.4602 539.8584,-533.3528 541.4676,-540.1654"/>
<g id="a_edge17&#45;headlabel"><a xlink:href="dir_000536_000525.html" target="_top" xlink:title="2">
<text text-anchor="middle" x="538.6219" y="-541.2549" font-family="Helvetica,sans-Serif" font-size="10.00" fill="#000000">2</text>
</a>
</g>
</g>
<!-- dir_1f12aa5b71899e653444b1540988c8e0&#45;&gt;dir_bcbb2cf9a3d3d83e5515c82071a07177 -->
<g id="edge18" class="edge">
<title>dir_1f12aa5b71899e653444b1540988c8e0&#45;&gt;dir_bcbb2cf9a3d3d83e5515c82071a07177</title>
<path fill="none" stroke="#000000" d="M181.7815,-575.9555C208.7815,-537.8379 271.7275,-448.973 303.2761,-404.4337"/>
<polygon fill="#000000" stroke="#000000" points="306.2231,-406.3284 309.1472,-396.1451 300.5109,-402.2823 306.2231,-406.3284"/>
<g id="a_edge18&#45;headlabel"><a xlink:href="dir_000536_000063.html" target="_top" xlink:title="35">
<text text-anchor="middle" x="306.4623" y="-408.4028" font-family="Helvetica,sans-Serif" font-size="10.00" fill="#000000">35</text>
</a>
</g>
</g>
<!-- dir_1f12aa5b71899e653444b1540988c8e0&#45;&gt;dir_2171f7ec022c5423887b07c69b2f5b48 -->
<g id="edge19" class="edge">
<title>dir_1f12aa5b71899e653444b1540988c8e0&#45;&gt;dir_2171f7ec022c5423887b07c69b2f5b48</title>
<path fill="none" stroke="#000000" d="M147.4302,-575.9468C119.957,-550.7991 76,-502.3785 76,-450 76,-450 76,-450 76,-306 76,-225.2965 180.9223,-187.3832 245.8496,-171.648"/>
<polygon fill="#000000" stroke="#000000" points="246.9571,-174.9839 255.9044,-169.3098 245.3715,-168.1658 246.9571,-174.9839"/>
<g id="a_edge19&#45;headlabel"><a xlink:href="dir_000536_000090.html" target="_top" xlink:title="31">
<text text-anchor="middle" x="244.0989" y="-176.0635" font-family="Helvetica,sans-Serif" font-size="10.00" fill="#000000">31</text>
</a>
</g>
</g>
<!-- dir_abf14b5a84807c7615b6f574ef2c4a02&#45;&gt;dir_18e0e8b4b629c3c13e7ad1457bcd5f89 -->
<g id="edge1" class="edge">
<title>dir_abf14b5a84807c7615b6f574ef2c4a02&#45;&gt;dir_18e0e8b4b629c3c13e7ad1457bcd5f89</title>
<path fill="none" stroke="#000000" d="M494.1455,-578.7307C511.5825,-568.9223 534.5563,-555.9996 554.1724,-544.9655"/>
<polygon fill="#000000" stroke="#000000" points="555.9172,-547.9999 562.917,-540.0467 552.4853,-541.8988 555.9172,-547.9999"/>
<g id="a_edge1&#45;headlabel"><a xlink:href="dir_000530_000525.html" target="_top" xlink:title="1">
<text text-anchor="middle" x="554.1762" y="-549.7368" font-family="Helvetica,sans-Serif" font-size="10.00" fill="#000000">1</text>
</a>
</g>
</g>
<!-- dir_abf14b5a84807c7615b6f574ef2c4a02&#45;&gt;dir_bcbb2cf9a3d3d83e5515c82071a07177 -->
<g id="edge2" class="edge">
<title>dir_abf14b5a84807c7615b6f574ef2c4a02&#45;&gt;dir_bcbb2cf9a3d3d83e5515c82071a07177</title>
<path fill="none" stroke="#000000" d="M454.8868,-575.9555C429.3519,-537.9173 369.8923,-449.3431 339.9321,-404.7127"/>
<polygon fill="#000000" stroke="#000000" points="342.6603,-402.497 334.1807,-396.1451 336.8484,-406.3986 342.6603,-402.497"/>
<g id="a_edge2&#45;headlabel"><a xlink:href="dir_000530_000063.html" target="_top" xlink:title="18">
<text text-anchor="middle" x="347.0211" y="-401.399" font-family="Helvetica,sans-Serif" font-size="10.00" fill="#000000">18</text>
</a>
</g>
</g>
<!-- dir_abf14b5a84807c7615b6f574ef2c4a02&#45;&gt;dir_2171f7ec022c5423887b07c69b2f5b48 -->
<g id="edge3" class="edge">
<title>dir_abf14b5a84807c7615b6f574ef2c4a02&#45;&gt;dir_2171f7ec022c5423887b07c69b2f5b48</title>
<path fill="none" stroke="#000000" d="M494.0456,-589.9687C540.0477,-582.4982 630.3702,-564.96 649,-540 687.2848,-488.7063 653.8703,-445.4501 588,-288 573.9544,-254.4267 578.1399,-237.8016 549,-216 517.4671,-192.408 410.4113,-175.7981 346.1012,-167.6753"/>
<polygon fill="#000000" stroke="#000000" points="346.5193,-164.2004 336.165,-166.4447 345.6589,-171.1473 346.5193,-164.2004"/>
<g id="a_edge3&#45;headlabel"><a xlink:href="dir_000530_000090.html" target="_top" xlink:title="11">
<text text-anchor="middle" x="350.4356" y="-159.3244" font-family="Helvetica,sans-Serif" font-size="10.00" fill="#000000">11</text>
</a>
</g>
</g>
<!-- dir_4ab6b4cc6a7edbff49100e9123df213f&#45;&gt;dir_bcbb2cf9a3d3d83e5515c82071a07177 -->
<g id="edge4" class="edge">
<title>dir_4ab6b4cc6a7edbff49100e9123df213f&#45;&gt;dir_bcbb2cf9a3d3d83e5515c82071a07177</title>
<path fill="none" stroke="#000000" d="M447.3808,-252.0352C432.9148,-270.2814 406.3239,-299.2502 383,-324 374.055,-333.4918 364.145,-343.8271 354.8562,-352.8909"/>
<polygon fill="#000000" stroke="#000000" points="352.3863,-350.41 347.5703,-359.847 357.2202,-355.4731 352.3863,-350.41"/>
<g id="a_edge4&#45;headlabel"><a xlink:href="dir_000036_000063.html" target="_top" xlink:title="2">
<text text-anchor="middle" x="353.0256" y="-343.3742" font-family="Helvetica,sans-Serif" font-size="10.00" fill="#000000">2</text>
</a>
</g>
</g>
<!-- dir_4ab6b4cc6a7edbff49100e9123df213f&#45;&gt;dir_2171f7ec022c5423887b07c69b2f5b48 -->
<g id="edge5" class="edge">
<title>dir_4ab6b4cc6a7edbff49100e9123df213f&#45;&gt;dir_2171f7ec022c5423887b07c69b2f5b48</title>
<path fill="none" stroke="#000000" d="M426.4003,-222.5914C401.8768,-212.3759 367.3127,-197.1 339.8789,-184.4426"/>
<polygon fill="#000000" stroke="#000000" points="341.0447,-181.125 330.5008,-180.0873 338.0962,-187.4738 341.0447,-181.125"/>
<g id="a_edge5&#45;headlabel"><a xlink:href="dir_000036_000090.html" target="_top" xlink:title="2">
<text text-anchor="middle" x="345.5008" y="-177.5639" font-family="Helvetica,sans-Serif" font-size="10.00" fill="#000000">2</text>
</a>
</g>
</g>
<!-- dir_d14e88a79bca429480864605ee348cef&#45;&gt;dir_4ab6b4cc6a7edbff49100e9123df213f -->
<g id="edge6" class="edge">
<title>dir_d14e88a79bca429480864605ee348cef&#45;&gt;dir_4ab6b4cc6a7edbff49100e9123df213f</title>
<path fill="none" stroke="#000000" d="M423.7736,-108.0896C430.2629,-132.6805 441.9333,-176.905 449.5723,-205.8531"/>
<polygon fill="#000000" stroke="#000000" points="446.2515,-206.9864 452.1873,-215.7623 453.0198,-205.2002 446.2515,-206.9864"/>
<g id="a_edge6&#45;headlabel"><a xlink:href="dir_000180_000036.html" target="_top" xlink:title="35">
<text text-anchor="middle" x="442.5891" y="-201.7352" font-family="Helvetica,sans-Serif" font-size="10.00" fill="#000000">35</text>
</a>
</g>
</g>
<!-- dir_d14e88a79bca429480864605ee348cef&#45;&gt;dir_37c90836491b695b472bf98d1be8336b -->
<g id="edge7" class="edge">
<title>dir_d14e88a79bca429480864605ee348cef&#45;&gt;dir_37c90836491b695b472bf98d1be8336b</title>
<path fill="none" stroke="#000000" d="M405.1212,-71.8314C398.7864,-63.5386 391.1616,-53.557 384.2074,-44.4533"/>
<polygon fill="#000000" stroke="#000000" points="386.9175,-42.2353 378.0657,-36.4133 381.3548,-46.4847 386.9175,-42.2353"/>
<g id="a_edge7&#45;headlabel"><a xlink:href="dir_000180_000297.html" target="_top" xlink:title="6">
<text text-anchor="middle" x="391.3558" y="-40.8683" font-family="Helvetica,sans-Serif" font-size="10.00" fill="#000000">6</text>
</a>
</g>
</g>
<!-- dir_d14e88a79bca429480864605ee348cef&#45;&gt;dir_bcbb2cf9a3d3d83e5515c82071a07177 -->
<g id="edge8" class="edge">
<title>dir_d14e88a79bca429480864605ee348cef&#45;&gt;dir_bcbb2cf9a3d3d83e5515c82071a07177</title>
<path fill="none" stroke="#000000" d="M414.7061,-108.1969C407.4096,-138.4031 391.6537,-200.657 374,-252 362.1123,-286.5734 345.6346,-325.3062 334.4363,-350.5867"/>
<polygon fill="#000000" stroke="#000000" points="331.1584,-349.3436 330.279,-359.9019 337.5507,-352.1965 331.1584,-349.3436"/>
<g id="a_edge8&#45;headlabel"><a xlink:href="dir_000180_000063.html" target="_top" xlink:title="126">
<text text-anchor="middle" x="330.0306" y="-342.4039" font-family="Helvetica,sans-Serif" font-size="10.00" fill="#000000">126</text>
</a>
</g>
</g>
<!-- dir_d14e88a79bca429480864605ee348cef&#45;&gt;dir_2171f7ec022c5423887b07c69b2f5b48 -->
<g id="edge9" class="edge">
<title>dir_d14e88a79bca429480864605ee348cef&#45;&gt;dir_2171f7ec022c5423887b07c69b2f5b48</title>
<path fill="none" stroke="#000000" d="M393.9237,-108.1628C378.9531,-117.4565 359.5856,-128.8724 341.9947,-138.7967"/>
<polygon fill="#000000" stroke="#000000" points="340.0106,-135.8961 332.9905,-143.8314 343.4269,-142.0058 340.0106,-135.8961"/>
<g id="a_edge9&#45;headlabel"><a xlink:href="dir_000180_000090.html" target="_top" xlink:title="156">
<text text-anchor="middle" x="341.7624" y="-129.1636" font-family="Helvetica,sans-Serif" font-size="10.00" fill="#000000">156</text>
</a>
</g>
</g>
<!-- dir_a597e8e061b11201a1dff411feb10d0b&#45;&gt;dir_4ab6b4cc6a7edbff49100e9123df213f -->
<g id="edge21" class="edge">
<title>dir_a597e8e061b11201a1dff411feb10d0b&#45;&gt;dir_4ab6b4cc6a7edbff49100e9123df213f</title>
<path fill="none" stroke="#000000" d="M200.2311,-299.0963C250.3927,-286.3793 357.6243,-259.1938 416.4005,-244.2928"/>
<polygon fill="#000000" stroke="#000000" points="417.6074,-247.5977 426.4406,-241.7475 415.8871,-240.8123 417.6074,-247.5977"/>
<g id="a_edge21&#45;headlabel"><a xlink:href="dir_000059_000036.html" target="_top" xlink:title="42">
<text text-anchor="middle" x="414.8207" y="-248.7332" font-family="Helvetica,sans-Serif" font-size="10.00" fill="#000000">42</text>
</a>
</g>
</g>
<!-- dir_a597e8e061b11201a1dff411feb10d0b&#45;&gt;dir_37c90836491b695b472bf98d1be8336b -->
<g id="edge22" class="edge">
<title>dir_a597e8e061b11201a1dff411feb10d0b&#45;&gt;dir_37c90836491b695b472bf98d1be8336b</title>
<path fill="none" stroke="#000000" d="M167.8155,-287.7775C156.8219,-244.9373 136.1286,-136.5791 187,-72 204.3276,-50.0034 280.1249,-32.9253 326.7311,-24.2664"/>
<polygon fill="#000000" stroke="#000000" points="327.5511,-27.6749 336.7667,-22.4477 326.3029,-20.7871 327.5511,-27.6749"/>
<g id="a_edge22&#45;headlabel"><a xlink:href="dir_000059_000297.html" target="_top" xlink:title="4">
<text text-anchor="middle" x="324.5204" y="-28.6095" font-family="Helvetica,sans-Serif" font-size="10.00" fill="#000000">4</text>
</a>
</g>
</g>
<!-- dir_a597e8e061b11201a1dff411feb10d0b&#45;&gt;dir_8ba487e25de5ee77e05e9dce7582cb98 -->
<g id="edge23" class="edge">
<title>dir_a597e8e061b11201a1dff411feb10d0b&#45;&gt;dir_8ba487e25de5ee77e05e9dce7582cb98</title>
<path fill="none" stroke="#000000" d="M177.6383,-287.5268C185.2006,-257.4414 200.681,-195.9929 214,-144 216.1293,-135.6881 218.4615,-126.662 220.6012,-118.4114"/>
<polygon fill="#000000" stroke="#000000" points="224.0523,-119.0463 223.1787,-108.4875 217.2771,-117.2865 224.0523,-119.0463"/>
<g id="a_edge23&#45;headlabel"><a xlink:href="dir_000059_000000.html" target="_top" xlink:title="5">
<text text-anchor="middle" x="225.8968" y="-120.7392" font-family="Helvetica,sans-Serif" font-size="10.00" fill="#000000">5</text>
</a>
</g>
</g>
<!-- dir_a597e8e061b11201a1dff411feb10d0b&#45;&gt;dir_bcbb2cf9a3d3d83e5515c82071a07177 -->
<g id="edge24" class="edge">
<title>dir_a597e8e061b11201a1dff411feb10d0b&#45;&gt;dir_bcbb2cf9a3d3d83e5515c82071a07177</title>
<path fill="none" stroke="#000000" d="M200.2784,-316.7743C222.9821,-326.8971 255.4502,-342.3696 281.2008,-355.2273"/>
<polygon fill="#000000" stroke="#000000" points="279.8471,-358.4642 290.3534,-359.8314 282.9928,-352.2108 279.8471,-358.4642"/>
<g id="a_edge24&#45;headlabel"><a xlink:href="dir_000059_000063.html" target="_top" xlink:title="105">
<text text-anchor="middle" x="275.36" y="-356.8854" font-family="Helvetica,sans-Serif" font-size="10.00" fill="#000000">105</text>
</a>
</g>
</g>
<!-- dir_a597e8e061b11201a1dff411feb10d0b&#45;&gt;dir_2171f7ec022c5423887b07c69b2f5b48 -->
<g id="edge25" class="edge">
<title>dir_a597e8e061b11201a1dff411feb10d0b&#45;&gt;dir_2171f7ec022c5423887b07c69b2f5b48</title>
<path fill="none" stroke="#000000" d="M188.578,-287.7623C210.2044,-262.4436 249.4324,-216.5182 274.0265,-187.7251"/>
<polygon fill="#000000" stroke="#000000" points="276.7149,-189.9666 280.5485,-180.0896 271.3922,-185.4202 276.7149,-189.9666"/>
<g id="a_edge25&#45;headlabel"><a xlink:href="dir_000059_000090.html" target="_top" xlink:title="186">
<text text-anchor="middle" x="276.5392" y="-192.0439" font-family="Helvetica,sans-Serif" font-size="10.00" fill="#000000">186</text>
</a>
</g>
</g>
<!-- dir_37c90836491b695b472bf98d1be8336b&#45;&gt;dir_4ab6b4cc6a7edbff49100e9123df213f -->
<g id="edge26" class="edge">
<title>dir_37c90836491b695b472bf98d1be8336b&#45;&gt;dir_4ab6b4cc6a7edbff49100e9123df213f</title>
<path fill="none" stroke="#000000" d="M391.2279,-25.9927C412.7281,-33.893 441.3092,-48.2974 455,-72 479.0963,-113.7174 471.8438,-172.1308 464.4047,-206.2238"/>
<polygon fill="#000000" stroke="#000000" points="460.9927,-205.444 462.1245,-215.9782 467.8089,-207.0375 460.9927,-205.444"/>
<g id="a_edge26&#45;headlabel"><a xlink:href="dir_000297_000036.html" target="_top" xlink:title="16">
<text text-anchor="middle" x="459.0461" y="-198.7975" font-family="Helvetica,sans-Serif" font-size="10.00" fill="#000000">16</text>
</a>
</g>
</g>
<!-- dir_37c90836491b695b472bf98d1be8336b&#45;&gt;dir_bcbb2cf9a3d3d83e5515c82071a07177 -->
<g id="edge27" class="edge">
<title>dir_37c90836491b695b472bf98d1be8336b&#45;&gt;dir_bcbb2cf9a3d3d83e5515c82071a07177</title>
<path fill="none" stroke="#000000" d="M361.8638,-36.3104C355.0169,-94.9977 333.5842,-278.7068 325.3074,-349.6506"/>
<polygon fill="#000000" stroke="#000000" points="321.823,-349.3144 324.1405,-359.6526 328.7758,-350.1256 321.823,-349.3144"/>
<g id="a_edge27&#45;headlabel"><a xlink:href="dir_000297_000063.html" target="_top" xlink:title="1">
<text text-anchor="middle" x="319.4193" y="-342.915" font-family="Helvetica,sans-Serif" font-size="10.00" fill="#000000">1</text>
</a>
</g>
</g>
<!-- dir_37c90836491b695b472bf98d1be8336b&#45;&gt;dir_2171f7ec022c5423887b07c69b2f5b48 -->
<g id="edge28" class="edge">
<title>dir_37c90836491b695b472bf98d1be8336b&#45;&gt;dir_2171f7ec022c5423887b07c69b2f5b48</title>
<path fill="none" stroke="#000000" d="M360.116,-36.0896C350.8629,-61.0041 329.8301,-106.0722 314.1622,-134.9877"/>
<polygon fill="#000000" stroke="#000000" points="311.0842,-133.3213 309.2854,-143.7623 317.2027,-136.7219 311.0842,-133.3213"/>
<g id="a_edge28&#45;headlabel"><a xlink:href="dir_000297_000090.html" target="_top" xlink:title="15">
<text text-anchor="middle" x="310.3486" y="-126.3" font-family="Helvetica,sans-Serif" font-size="10.00" fill="#000000">15</text>
</a>
</g>
</g>
<!-- dir_8ba487e25de5ee77e05e9dce7582cb98&#45;&gt;dir_2171f7ec022c5423887b07c69b2f5b48 -->
<g id="edge29" class="edge">
<title>dir_8ba487e25de5ee77e05e9dce7582cb98&#45;&gt;dir_2171f7ec022c5423887b07c69b2f5b48</title>
<path fill="none" stroke="#000000" d="M251.1056,-108.1628C259.9006,-116.6038 269.7127,-126.7956 277.9846,-136.0303"/>
<polygon fill="#000000" stroke="#000000" points="275.5806,-138.5987 284.7931,-143.8314 280.8545,-133.9958 275.5806,-138.5987"/>
<g id="a_edge29&#45;headlabel"><a xlink:href="dir_000000_000090.html" target="_top" xlink:title="8">
<text text-anchor="middle" x="271.0779" y="-135.2575" font-family="Helvetica,sans-Serif" font-size="10.00" fill="#000000">8</text>
</a>
</g>
</g>
<!-- dir_577c839d346a264df4e9e588ca2a45dd&#45;&gt;dir_4ab6b4cc6a7edbff49100e9123df213f -->
<g id="edge30" class="edge">
<title>dir_577c839d346a264df4e9e588ca2a45dd&#45;&gt;dir_4ab6b4cc6a7edbff49100e9123df213f</title>
<path fill="none" stroke="#000000" d="M515.6535,-431.9555C504.477,-394.235 478.576,-306.8188 465.2489,-261.8399"/>
<polygon fill="#000000" stroke="#000000" points="468.5731,-260.7387 462.3763,-252.1451 461.8615,-262.7274 468.5731,-260.7387"/>
<g id="a_edge30&#45;headlabel"><a xlink:href="dir_000154_000036.html" target="_top" xlink:title="25">
<text text-anchor="middle" x="472.3165" y="-260.8786" font-family="Helvetica,sans-Serif" font-size="10.00" fill="#000000">25</text>
</a>
</g>
</g>
<!-- dir_577c839d346a264df4e9e588ca2a45dd&#45;&gt;dir_37c90836491b695b472bf98d1be8336b -->
<g id="edge31" class="edge">
<title>dir_577c839d346a264df4e9e588ca2a45dd&#45;&gt;dir_37c90836491b695b472bf98d1be8336b</title>
<path fill="none" stroke="#000000" d="M532.3196,-431.7678C537.9396,-421.6415 544.1294,-408.5789 547,-396 550.5597,-380.401 547.1111,-375.9996 547,-360 546.0838,-228.0638 561.7802,-171.3841 475,-72 455.5502,-49.7253 424.8181,-35.7744 400.6173,-27.6456"/>
<polygon fill="#000000" stroke="#000000" points="401.6229,-24.2928 391.0329,-24.6107 399.5098,-30.9662 401.6229,-24.2928"/>
<g id="a_edge31&#45;headlabel"><a xlink:href="dir_000154_000297.html" target="_top" xlink:title="5">
<text text-anchor="middle" x="405.9069" y="-20.171" font-family="Helvetica,sans-Serif" font-size="10.00" fill="#000000">5</text>
</a>
</g>
</g>
<!-- dir_577c839d346a264df4e9e588ca2a45dd&#45;&gt;dir_bcbb2cf9a3d3d83e5515c82071a07177 -->
<g id="edge32" class="edge">
<title>dir_577c839d346a264df4e9e588ca2a45dd&#45;&gt;dir_bcbb2cf9a3d3d83e5515c82071a07177</title>
<path fill="none" stroke="#000000" d="M493.7472,-440.1397C461.1676,-428.3521 406.1668,-408.4523 367.1926,-394.3511"/>
<polygon fill="#000000" stroke="#000000" points="368.2468,-391.0105 357.6526,-390.8994 365.8652,-397.5929 368.2468,-391.0105"/>
<g id="a_edge32&#45;headlabel"><a xlink:href="dir_000154_000063.html" target="_top" xlink:title="111">
<text text-anchor="middle" x="372.593" y="-387.0636" font-family="Helvetica,sans-Serif" font-size="10.00" fill="#000000">111</text>
</a>
</g>
</g>
<!-- dir_577c839d346a264df4e9e588ca2a45dd&#45;&gt;dir_2171f7ec022c5423887b07c69b2f5b48 -->
<g id="edge33" class="edge">
<title>dir_577c839d346a264df4e9e588ca2a45dd&#45;&gt;dir_2171f7ec022c5423887b07c69b2f5b48</title>
<path fill="none" stroke="#000000" d="M525.3522,-431.8327C534.5343,-388.6391 550.8733,-278.7415 497,-216 477.4845,-193.272 398.9249,-177.3318 345.9952,-168.9214"/>
<polygon fill="#000000" stroke="#000000" points="346.5213,-165.4612 336.1034,-167.3893 345.4498,-172.3787 346.5213,-165.4612"/>
<g id="a_edge33&#45;headlabel"><a xlink:href="dir_000154_000090.html" target="_top" xlink:title="77">
<text text-anchor="middle" x="350.5081" y="-160.7055" font-family="Helvetica,sans-Serif" font-size="10.00" fill="#000000">77</text>
</a>
</g>
</g>
<!-- dir_18e0e8b4b629c3c13e7ad1457bcd5f89&#45;&gt;dir_4ab6b4cc6a7edbff49100e9123df213f -->
<g id="edge34" class="edge">
<title>dir_18e0e8b4b629c3c13e7ad1457bcd5f89&#45;&gt;dir_4ab6b4cc6a7edbff49100e9123df213f</title>
<path fill="none" stroke="#000000" d="M588.2479,-503.8954C573.081,-463.9251 534.3115,-365.5354 492,-288 486.9954,-278.8291 480.9767,-269.1526 475.3526,-260.5636"/>
<polygon fill="#000000" stroke="#000000" points="478.1522,-258.4533 469.6936,-252.0735 472.3275,-262.3357 478.1522,-258.4533"/>
<g id="a_edge34&#45;headlabel"><a xlink:href="dir_000525_000036.html" target="_top" xlink:title="18">
<text text-anchor="middle" x="482.5084" y="-257.3696" font-family="Helvetica,sans-Serif" font-size="10.00" fill="#000000">18</text>
</a>
</g>
</g>
<!-- dir_18e0e8b4b629c3c13e7ad1457bcd5f89&#45;&gt;dir_d14e88a79bca429480864605ee348cef -->
<g id="edge35" class="edge">
<title>dir_18e0e8b4b629c3c13e7ad1457bcd5f89&#45;&gt;dir_d14e88a79bca429480864605ee348cef</title>
<path fill="none" stroke="#000000" d="M626.8662,-503.8474C663.9006,-480.1071 720,-434.7753 720,-378 720,-378 720,-378 720,-234 720,-176.0858 536.3793,-120.794 455.9709,-99.3579"/>
<polygon fill="#000000" stroke="#000000" points="456.8043,-95.9581 446.2426,-96.7956 455.0214,-102.7272 456.8043,-95.9581"/>
<g id="a_edge35&#45;headlabel"><a xlink:href="dir_000525_000180.html" target="_top" xlink:title="1">
<text text-anchor="middle" x="461.0035" y="-91.6279" font-family="Helvetica,sans-Serif" font-size="10.00" fill="#000000">1</text>
</a>
</g>
</g>
<!-- dir_18e0e8b4b629c3c13e7ad1457bcd5f89&#45;&gt;dir_a597e8e061b11201a1dff411feb10d0b -->
<g id="edge36" class="edge">
<title>dir_18e0e8b4b629c3c13e7ad1457bcd5f89&#45;&gt;dir_a597e8e061b11201a1dff411feb10d0b</title>
<path fill="none" stroke="#000000" d="M550.3103,-509.3788C486.9023,-490.3569 368.4811,-450.6657 278,-396 247.9338,-377.835 217.9379,-351.0363 197.7525,-331.4058"/>
<polygon fill="#000000" stroke="#000000" points="200.0934,-328.7986 190.517,-324.2661 195.1768,-333.7812 200.0934,-328.7986"/>
<g id="a_edge36&#45;headlabel"><a xlink:href="dir_000525_000059.html" target="_top" xlink:title="6">
<text text-anchor="middle" x="204.6463" y="-326.8023" font-family="Helvetica,sans-Serif" font-size="10.00" fill="#000000">6</text>
</a>
</g>
</g>
<!-- dir_18e0e8b4b629c3c13e7ad1457bcd5f89&#45;&gt;dir_37c90836491b695b472bf98d1be8336b -->
<g id="edge37" class="edge">
<title>dir_18e0e8b4b629c3c13e7ad1457bcd5f89&#45;&gt;dir_37c90836491b695b472bf98d1be8336b</title>
<path fill="none" stroke="#000000" d="M639.5405,-505.1392C687.8018,-483.6283 758,-441.4367 758,-378 758,-378 758,-378 758,-162 758,-86.4621 499.2936,-38.7911 401.1497,-23.4242"/>
<polygon fill="#000000" stroke="#000000" points="401.4975,-19.9365 391.0812,-21.8733 400.4318,-26.8549 401.4975,-19.9365"/>
<g id="a_edge37&#45;headlabel"><a xlink:href="dir_000525_000297.html" target="_top" xlink:title="5">
<text text-anchor="middle" x="405.4825" y="-15.1775" font-family="Helvetica,sans-Serif" font-size="10.00" fill="#000000">5</text>
</a>
</g>
</g>
<!-- dir_18e0e8b4b629c3c13e7ad1457bcd5f89&#45;&gt;dir_577c839d346a264df4e9e588ca2a45dd -->
<g id="edge38" class="edge">
<title>dir_18e0e8b4b629c3c13e7ad1457bcd5f89&#45;&gt;dir_577c839d346a264df4e9e588ca2a45dd</title>
<path fill="none" stroke="#000000" d="M576.3267,-503.8314C567.4751,-495.219 556.7514,-484.7851 547.1105,-475.4048"/>
<polygon fill="#000000" stroke="#000000" points="549.2754,-472.6279 539.6674,-468.1628 544.3939,-477.645 549.2754,-472.6279"/>
<g id="a_edge38&#45;headlabel"><a xlink:href="dir_000525_000154.html" target="_top" xlink:title="2">
<text text-anchor="middle" x="553.8317" y="-470.5996" font-family="Helvetica,sans-Serif" font-size="10.00" fill="#000000">2</text>
</a>
</g>
</g>
<!-- dir_18e0e8b4b629c3c13e7ad1457bcd5f89&#45;&gt;dir_2171f7ec022c5423887b07c69b2f5b48 -->
<g id="edge39" class="edge">
<title>dir_18e0e8b4b629c3c13e7ad1457bcd5f89&#45;&gt;dir_2171f7ec022c5423887b07c69b2f5b48</title>
<path fill="none" stroke="#000000" d="M596.6735,-503.6489C600.4126,-450.6213 603.4127,-295.8888 521,-216 496.4428,-192.1948 405.0105,-176.167 346.5304,-168.1021"/>
<polygon fill="#000000" stroke="#000000" points="346.7522,-164.6005 336.3748,-166.7356 345.8187,-171.5379 346.7522,-164.6005"/>
<g id="a_edge39&#45;headlabel"><a xlink:href="dir_000525_000090.html" target="_top" xlink:title="34">
<text text-anchor="middle" x="350.6933" y="-159.7658" font-family="Helvetica,sans-Serif" font-size="10.00" fill="#000000">34</text>
</a>
</g>
</g>
<!-- dir_bcbb2cf9a3d3d83e5515c82071a07177&#45;&gt;dir_4ab6b4cc6a7edbff49100e9123df213f -->
<g id="edge40" class="edge">
<title>dir_bcbb2cf9a3d3d83e5515c82071a07177&#45;&gt;dir_4ab6b4cc6a7edbff49100e9123df213f</title>
<path fill="none" stroke="#000000" d="M331.9816,-359.6C340.9804,-349.2024 353.7531,-335.9345 365,-324 385.4084,-302.3439 408.3181,-277.4576 426.3617,-259.351"/>
<polygon fill="#000000" stroke="#000000" points="429.1158,-261.5505 433.7753,-252.0352 424.199,-256.5679 429.1158,-261.5505"/>
<g id="a_edge40&#45;headlabel"><a xlink:href="dir_000063_000036.html" target="_top" xlink:title="8">
<text text-anchor="middle" x="428.5515" y="-263.5962" font-family="Helvetica,sans-Serif" font-size="10.00" fill="#000000">8</text>
</a>
</g>
</g>
<!-- dir_bcbb2cf9a3d3d83e5515c82071a07177&#45;&gt;dir_a597e8e061b11201a1dff411feb10d0b -->
<g id="edge41" class="edge">
<title>dir_bcbb2cf9a3d3d83e5515c82071a07177&#45;&gt;dir_a597e8e061b11201a1dff411feb10d0b</title>
<path fill="none" stroke="#000000" d="M286.299,-363.4297C263.0193,-352.8372 232.8391,-338.353 209.4246,-326.581"/>
<polygon fill="#000000" stroke="#000000" points="210.9919,-323.4515 200.4899,-322.0518 207.8269,-329.6951 210.9919,-323.4515"/>
<g id="a_edge41&#45;headlabel"><a xlink:href="dir_000063_000059.html" target="_top" xlink:title="1">
<text text-anchor="middle" x="215.4818" y="-320.0442" font-family="Helvetica,sans-Serif" font-size="10.00" fill="#000000">1</text>
</a>
</g>
</g>
<!-- dir_bcbb2cf9a3d3d83e5515c82071a07177&#45;&gt;dir_8ba487e25de5ee77e05e9dce7582cb98 -->
<g id="edge42" class="edge">
<title>dir_bcbb2cf9a3d3d83e5515c82071a07177&#45;&gt;dir_8ba487e25de5ee77e05e9dce7582cb98</title>
<path fill="none" stroke="#000000" d="M313.8649,-359.6112C309.343,-349.2171 303.6979,-335.949 299,-324 274.1025,-260.6736 265.6278,-245.4456 247,-180 241.1801,-159.5529 236.2752,-136.0337 232.9074,-118.1669"/>
<polygon fill="#000000" stroke="#000000" points="236.3091,-117.3126 231.0608,-108.109 229.4242,-118.5767 236.3091,-117.3126"/>
<g id="a_edge42&#45;headlabel"><a xlink:href="dir_000063_000000.html" target="_top" xlink:title="1">
<text text-anchor="middle" x="239.7507" y="-117.8354" font-family="Helvetica,sans-Serif" font-size="10.00" fill="#000000">1</text>
</a>
</g>
</g>
<!-- dir_bcbb2cf9a3d3d83e5515c82071a07177&#45;&gt;dir_2171f7ec022c5423887b07c69b2f5b48 -->
<g id="edge43" class="edge">
<title>dir_bcbb2cf9a3d3d83e5515c82071a07177&#45;&gt;dir_2171f7ec022c5423887b07c69b2f5b48</title>
<path fill="none" stroke="#000000" d="M308.4485,-359.6814C304.4126,-349.3092 300.99,-336.0397 299,-324 291.3146,-277.5026 288.5495,-222.6797 290.0592,-190.2136"/>
<polygon fill="#000000" stroke="#000000" points="293.5601,-190.3157 290.7342,-180.1047 286.5756,-189.8493 293.5601,-190.3157"/>
<g id="a_edge43&#45;headlabel"><a xlink:href="dir_000063_000090.html" target="_top" xlink:title="73">
<text text-anchor="middle" x="296.1537" y="-191.5915" font-family="Helvetica,sans-Serif" font-size="10.00" fill="#000000">73</text>
</a>
</g>
</g>
<!-- dir_2171f7ec022c5423887b07c69b2f5b48&#45;&gt;dir_4ab6b4cc6a7edbff49100e9123df213f -->
<g id="edge44" class="edge">
<title>dir_2171f7ec022c5423887b07c69b2f5b48&#45;&gt;dir_4ab6b4cc6a7edbff49100e9123df213f</title>
<path fill="none" stroke="#000000" d="M336.1129,-177.4106C360.8691,-187.9163 392.4128,-201.9462 417.1209,-213.4078"/>
<polygon fill="#000000" stroke="#000000" points="415.6859,-216.6004 426.2274,-217.6621 418.6488,-210.2584 415.6859,-216.6004"/>
<g id="a_edge44&#45;headlabel"><a xlink:href="dir_000090_000036.html" target="_top" xlink:title="38">
<text text-anchor="middle" x="411.2274" y="-215.1514" font-family="Helvetica,sans-Serif" font-size="10.00" fill="#000000">38</text>
</a>
</g>
</g>
<!-- dir_2171f7ec022c5423887b07c69b2f5b48&#45;&gt;dir_d14e88a79bca429480864605ee348cef -->
<g id="edge45" class="edge">
<title>dir_2171f7ec022c5423887b07c69b2f5b48&#45;&gt;dir_d14e88a79bca429480864605ee348cef</title>
<path fill="none" stroke="#000000" d="M321.0857,-143.8314C339.0097,-132.7045 363.2335,-118.5372 383.165,-107.5296"/>
<polygon fill="#000000" stroke="#000000" points="384.8819,-110.58 391.9826,-102.7168 381.5281,-104.4357 384.8819,-110.58"/>
<g id="a_edge45&#45;headlabel"><a xlink:href="dir_000090_000180.html" target="_top" xlink:title="5">
<text text-anchor="middle" x="383.087" y="-112.2943" font-family="Helvetica,sans-Serif" font-size="10.00" fill="#000000">5</text>
</a>
</g>
</g>
<!-- dir_2171f7ec022c5423887b07c69b2f5b48&#45;&gt;dir_37c90836491b695b472bf98d1be8336b -->
<g id="edge46" class="edge">
<title>dir_2171f7ec022c5423887b07c69b2f5b48&#45;&gt;dir_37c90836491b695b472bf98d1be8336b</title>
<path fill="none" stroke="#000000" d="M299.9391,-143.7623C309.2387,-118.7682 330.2841,-73.6924 345.9307,-44.8409"/>
<polygon fill="#000000" stroke="#000000" points="348.9962,-46.5299 350.7994,-36.0896 342.8792,-43.1267 348.9962,-46.5299"/>
<g id="a_edge46&#45;headlabel"><a xlink:href="dir_000090_000297.html" target="_top" xlink:title="1">
<text text-anchor="middle" x="349.7299" y="-48.5514" font-family="Helvetica,sans-Serif" font-size="10.00" fill="#000000">1</text>
</a>
</g>
</g>
<!-- dir_2171f7ec022c5423887b07c69b2f5b48&#45;&gt;dir_8ba487e25de5ee77e05e9dce7582cb98 -->
<g id="edge47" class="edge">
<title>dir_2171f7ec022c5423887b07c69b2f5b48&#45;&gt;dir_8ba487e25de5ee77e05e9dce7582cb98</title>
<path fill="none" stroke="#000000" d="M272.8883,-143.8314C264.16,-135.454 254.4306,-125.3531 246.1994,-116.1749"/>
<polygon fill="#000000" stroke="#000000" points="248.631,-113.6386 239.4143,-108.4133 243.3608,-118.2457 248.631,-113.6386"/>
<g id="a_edge47&#45;headlabel"><a xlink:href="dir_000090_000000.html" target="_top" xlink:title="2">
<text text-anchor="middle" x="253.1344" y="-111.9762" font-family="Helvetica,sans-Serif" font-size="10.00" fill="#000000">2</text>
</a>
</g>
</g>
<!-- dir_2171f7ec022c5423887b07c69b2f5b48&#45;&gt;dir_bcbb2cf9a3d3d83e5515c82071a07177 -->
<g id="edge48" class="edge">
<title>dir_2171f7ec022c5423887b07c69b2f5b48&#45;&gt;dir_bcbb2cf9a3d3d83e5515c82071a07177</title>
<path fill="none" stroke="#000000" d="M301.8303,-180.1047C305.9872,-210.1786 308.4458,-272.2464 317,-324 318.3992,-332.4654 320.5067,-341.5388 322.2916,-349.7856"/>
<polygon fill="#000000" stroke="#000000" points="318.8811,-350.5786 324.3024,-359.6814 325.7409,-349.1847 318.8811,-350.5786"/>
<g id="a_edge48&#45;headlabel"><a xlink:href="dir_000090_000063.html" target="_top" xlink:title="22">
<text text-anchor="middle" x="315.383" y="-345.1213" font-family="Helvetica,sans-Serif" font-size="10.00" fill="#000000">22</text>
</a>
</g>
</g>
</g>
</svg>
