<?xml version="1.0" encoding="UTF-8" standalone="no"?>
<!DOCTYPE svg PUBLIC "-//W3C//DTD SVG 1.1//EN"
 "http://www.w3.org/Graphics/SVG/1.1/DTD/svg11.dtd">
<!-- Generated by graphviz version 2.40.1 (20161225.0304)
 -->
<!-- Title: /home/travis/build/AliceO2Group/AliceO2/Detectors/FIT/FDD/simulation Pages: 1 -->
<!--zoomable 519 -->
<svg id="main" version="1.1" xmlns="http://www.w3.org/2000/svg" xmlns:xlink="http://www.w3.org/1999/xlink" xml:space="preserve" onload="init(evt)">
<style type="text/css"><![CDATA[
.edge:hover path { stroke: red; }
.edge:hover polygon { stroke: red; fill: red; }
]]></style>
<script type="text/javascript"><![CDATA[
var edges = document.getElementsByTagName('g');
if (edges && edges.length) {
  for (var i=0;i<edges.length;i++) {
    if (edges[i].id.substr(0,4)=='edge') {
      edges[i].setAttribute('class','edge');
    }
  }
}
]]></script>
        <defs>
                <circle id="rim" cx="0" cy="0" r="7"/>
                <circle id="rim2" cx="0" cy="0" r="3.5"/>
                <g id="zoomPlus">
                        <use xlink:href="#rim" fill="#404040">
                                <set attributeName="fill" to="#808080" begin="zoomplus.mouseover" end="zoomplus.mouseout"/>
                        </use>
                        <path d="M-4,0h8M0,-4v8" fill="none" stroke="white" stroke-width="1.5" pointer-events="none"/>
                </g>
                <g id="zoomMin">
                        <use xlink:href="#rim" fill="#404040">
                                <set attributeName="fill" to="#808080" begin="zoomminus.mouseover" end="zoomminus.mouseout"/>
                        </use>
                        <path d="M-4,0h8" fill="none" stroke="white" stroke-width="1.5" pointer-events="none"/>
                </g>
                <g id="dirArrow">
                        <path fill="none" stroke="white" stroke-width="1.5" d="M0,-3.0v7 M-2.5,-0.5L0,-3.0L2.5,-0.5"/>
                </g>
               <g id="resetDef">
                       <use xlink:href="#rim2" fill="#404040">
                               <set attributeName="fill" to="#808080" begin="reset.mouseover" end="reset.mouseout"/>
                       </use>
               </g>
        </defs>

<script type="text/javascript">
var viewWidth = 420;
var viewHeight = 519;
var sectionId = 'dynsection-0';
</script>
<script xlink:href="svgpan.js"/>
<svg id="graph" class="graph">
<g id="viewport">
<title>/home/travis/build/AliceO2Group/AliceO2/Detectors/FIT/FDD/simulation</title>
<g id="clust1" class="cluster">
<title>clusterdir_a5b1c90a9b4d60b6556bfe35a03caaa0</title>
<g id="a_clust1"><a xlink:href="dir_a5b1c90a9b4d60b6556bfe35a03caaa0.html" target="_top" xlink:title="FDD">
<polygon fill="#ddddee" stroke="#000000" points="109,-344 109,-503 281,-503 281,-344 109,-344"/>
<text text-anchor="middle" x="195" y="-491" font-family="Helvetica,sans-Serif" font-size="10.00" fill="#000000">FDD</text>
</a>
</g>
</g>
<g id="clust2" class="cluster">
<title>clusterdir_f0fa586345106a7c1715ccd7aa13aaee</title>
<g id="a_clust2"><a xlink:href="dir_f0fa586345106a7c1715ccd7aa13aaee.html" target="_top">
<polygon fill="#eeeeff" stroke="#000000" points="117,-352 117,-476 273,-476 273,-352 117,-352"/>
</a>
</g>
</g>
<!-- dir_f0fa586345106a7c1715ccd7aa13aaee -->
<g id="node1" class="node">
<title>dir_f0fa586345106a7c1715ccd7aa13aaee</title>
<text text-anchor="middle" x="231" y="-447.5" font-family="Helvetica,sans-Serif" font-size="10.00" fill="#000000">simulation</text>
</g>
<!-- dir_1ea4f5023fc6129dbdfa67598ac85edc -->
<g id="node2" class="node">
<title>dir_1ea4f5023fc6129dbdfa67598ac85edc</title>
<g id="a_node2"><a xlink:href="dir_1ea4f5023fc6129dbdfa67598ac85edc.html" target="_top" xlink:title="include">
<polygon fill="#ffffff" stroke="#ff0000" points="179,-396 125,-396 125,-360 179,-360 179,-396"/>
<text text-anchor="middle" x="152" y="-375.5" font-family="Helvetica,sans-Serif" font-size="10.00" fill="#000000">include</text>
</a>
</g>
</g>
<!-- dir_4ab6b4cc6a7edbff49100e9123df213f -->
<g id="node4" class="node">
<title>dir_4ab6b4cc6a7edbff49100e9123df213f</title>
<g id="a_node4"><a xlink:href="dir_4ab6b4cc6a7edbff49100e9123df213f.html" target="_top" xlink:title="Common">
<polygon fill="none" stroke="#ff0000" points="267.5,-252 206.5,-252 206.5,-216 267.5,-216 267.5,-252"/>
<text text-anchor="middle" x="237" y="-231.5" font-family="Helvetica,sans-Serif" font-size="10.00" fill="#000000">Common</text>
</a>
</g>
</g>
<!-- dir_1ea4f5023fc6129dbdfa67598ac85edc&#45;&gt;dir_4ab6b4cc6a7edbff49100e9123df213f -->
<g id="edge1" class="edge">
<title>dir_1ea4f5023fc6129dbdfa67598ac85edc&#45;&gt;dir_4ab6b4cc6a7edbff49100e9123df213f</title>
<path fill="none" stroke="#000000" d="M152.3441,-359.8015C153.4674,-340.6442 157.4708,-310.238 171,-288 177.9218,-276.6227 188.1281,-266.5736 198.456,-258.3241"/>
<polygon fill="#000000" stroke="#000000" points="200.8282,-260.9189 206.7045,-252.103 196.6131,-255.3302 200.8282,-260.9189"/>
<g id="a_edge1&#45;headlabel"><a xlink:href="dir_000307_000036.html" target="_top" xlink:title="2">
<text text-anchor="middle" x="199.668" y="-262.8502" font-family="Helvetica,sans-Serif" font-size="10.00" fill="#000000">2</text>
</a>
</g>
</g>
<!-- dir_37c90836491b695b472bf98d1be8336b -->
<g id="node5" class="node">
<title>dir_37c90836491b695b472bf98d1be8336b</title>
<g id="a_node5"><a xlink:href="dir_37c90836491b695b472bf98d1be8336b.html" target="_top" xlink:title="Base">
<polygon fill="none" stroke="#ff0000" points="332,-36 278,-36 278,0 332,0 332,-36"/>
<text text-anchor="middle" x="305" y="-15.5" font-family="Helvetica,sans-Serif" font-size="10.00" fill="#000000">Base</text>
</a>
</g>
</g>
<!-- dir_1ea4f5023fc6129dbdfa67598ac85edc&#45;&gt;dir_37c90836491b695b472bf98d1be8336b -->
<g id="edge2" class="edge">
<title>dir_1ea4f5023fc6129dbdfa67598ac85edc&#45;&gt;dir_37c90836491b695b472bf98d1be8336b</title>
<path fill="none" stroke="#000000" d="M179.3331,-366.0645C246.0871,-336.5041 412,-260.3803 412,-234 412,-234 412,-234 412,-162 412,-112.2513 370.3459,-68.5243 339.0163,-42.6715"/>
<polygon fill="#000000" stroke="#000000" points="340.8962,-39.6931 330.9017,-36.1774 336.5223,-45.1584 340.8962,-39.6931"/>
<g id="a_edge2&#45;headlabel"><a xlink:href="dir_000307_000297.html" target="_top" xlink:title="1">
<text text-anchor="middle" x="345.4768" y="-37.2224" font-family="Helvetica,sans-Serif" font-size="10.00" fill="#000000">1</text>
</a>
</g>
</g>
<!-- dir_e3378330628bb5a530079636b74abbc9 -->
<g id="node6" class="node">
<title>dir_e3378330628bb5a530079636b74abbc9</title>
<g id="a_node6"><a xlink:href="dir_e3378330628bb5a530079636b74abbc9.html" target="_top" xlink:title="base">
<polygon fill="none" stroke="#ff0000" points="131,-36 77,-36 77,0 131,0 131,-36"/>
<text text-anchor="middle" x="104" y="-15.5" font-family="Helvetica,sans-Serif" font-size="10.00" fill="#000000">base</text>
</a>
</g>
</g>
<!-- dir_1ea4f5023fc6129dbdfa67598ac85edc&#45;&gt;dir_e3378330628bb5a530079636b74abbc9 -->
<g id="edge3" class="edge">
<title>dir_1ea4f5023fc6129dbdfa67598ac85edc&#45;&gt;dir_e3378330628bb5a530079636b74abbc9</title>
<path fill="none" stroke="#000000" d="M149.5537,-359.6526C141.7217,-300.9129 117.2268,-117.2013 107.774,-46.3047"/>
<polygon fill="#000000" stroke="#000000" points="111.2324,-45.7601 106.4414,-36.3104 104.2938,-46.6853 111.2324,-45.7601"/>
<g id="a_edge3&#45;headlabel"><a xlink:href="dir_000307_000182.html" target="_top" xlink:title="2">
<text text-anchor="middle" x="114.5218" y="-46.448" font-family="Helvetica,sans-Serif" font-size="10.00" fill="#000000">2</text>
</a>
</g>
</g>
<!-- dir_26637d1bd82229bc9ed97f7e706be743 -->
<g id="node8" class="node">
<title>dir_26637d1bd82229bc9ed97f7e706be743</title>
<g id="a_node8"><a xlink:href="dir_26637d1bd82229bc9ed97f7e706be743.html" target="_top" xlink:title="Raw">
<polygon fill="none" stroke="#ff0000" points="234,-324 180,-324 180,-288 234,-288 234,-324"/>
<text text-anchor="middle" x="207" y="-303.5" font-family="Helvetica,sans-Serif" font-size="10.00" fill="#000000">Raw</text>
</a>
</g>
</g>
<!-- dir_1ea4f5023fc6129dbdfa67598ac85edc&#45;&gt;dir_26637d1bd82229bc9ed97f7e706be743 -->
<g id="edge4" class="edge">
<title>dir_1ea4f5023fc6129dbdfa67598ac85edc&#45;&gt;dir_26637d1bd82229bc9ed97f7e706be743</title>
<path fill="none" stroke="#000000" d="M165.8788,-359.8314C172.2136,-351.5386 179.8384,-341.557 186.7926,-332.4533"/>
<polygon fill="#000000" stroke="#000000" points="189.6452,-334.4847 192.9343,-324.4133 184.0825,-330.2353 189.6452,-334.4847"/>
<g id="a_edge4&#45;headlabel"><a xlink:href="dir_000307_000647.html" target="_top" xlink:title="2">
<text text-anchor="middle" x="189.7195" y="-336.5647" font-family="Helvetica,sans-Serif" font-size="10.00" fill="#000000">2</text>
</a>
</g>
</g>
<!-- dir_2171f7ec022c5423887b07c69b2f5b48 -->
<g id="node9" class="node">
<title>dir_2171f7ec022c5423887b07c69b2f5b48</title>
<g id="a_node9"><a xlink:href="dir_2171f7ec022c5423887b07c69b2f5b48.html" target="_top" xlink:title="DataFormats">
<polygon fill="none" stroke="#ff0000" points="277,-108 197,-108 197,-72 277,-72 277,-108"/>
<text text-anchor="middle" x="237" y="-87.5" font-family="Helvetica,sans-Serif" font-size="10.00" fill="#000000">DataFormats</text>
</a>
</g>
</g>
<!-- dir_1ea4f5023fc6129dbdfa67598ac85edc&#45;&gt;dir_2171f7ec022c5423887b07c69b2f5b48 -->
<g id="edge5" class="edge">
<title>dir_1ea4f5023fc6129dbdfa67598ac85edc&#45;&gt;dir_2171f7ec022c5423887b07c69b2f5b48</title>
<path fill="none" stroke="#000000" d="M150.8274,-359.9173C150.0091,-341.6342 149.7205,-312.6373 154,-288 165.5453,-221.5333 172.7529,-204.7924 202,-144 206.4575,-134.7348 212.2334,-125.1523 217.8037,-116.6782"/>
<polygon fill="#000000" stroke="#000000" points="220.7624,-118.5511 223.4703,-108.3081 214.9658,-114.6268 220.7624,-118.5511"/>
<g id="a_edge5&#45;headlabel"><a xlink:href="dir_000307_000090.html" target="_top" xlink:title="14">
<text text-anchor="middle" x="221.0984" y="-120.6194" font-family="Helvetica,sans-Serif" font-size="10.00" fill="#000000">14</text>
</a>
</g>
</g>
<!-- dir_9f2f79ca7be5af085ed9b57fc482ece6 -->
<g id="node3" class="node">
<title>dir_9f2f79ca7be5af085ed9b57fc482ece6</title>
<g id="a_node3"><a xlink:href="dir_9f2f79ca7be5af085ed9b57fc482ece6.html" target="_top" xlink:title="src">
<polygon fill="#ffffff" stroke="#000000" points="179,-468 125,-468 125,-432 179,-432 179,-468"/>
<text text-anchor="middle" x="152" y="-447.5" font-family="Helvetica,sans-Serif" font-size="10.00" fill="#000000">src</text>
</a>
</g>
</g>
<!-- dir_9f2f79ca7be5af085ed9b57fc482ece6&#45;&gt;dir_1ea4f5023fc6129dbdfa67598ac85edc -->
<g id="edge6" class="edge">
<title>dir_9f2f79ca7be5af085ed9b57fc482ece6&#45;&gt;dir_1ea4f5023fc6129dbdfa67598ac85edc</title>
<path fill="none" stroke="#000000" d="M152,-431.8314C152,-424.131 152,-414.9743 152,-406.4166"/>
<polygon fill="#000000" stroke="#000000" points="155.5001,-406.4132 152,-396.4133 148.5001,-406.4133 155.5001,-406.4132"/>
<g id="a_edge6&#45;headlabel"><a xlink:href="dir_000351_000307.html" target="_top" xlink:title="4">
<text text-anchor="middle" x="158.3393" y="-407.5079" font-family="Helvetica,sans-Serif" font-size="10.00" fill="#000000">4</text>
</a>
</g>
</g>
<!-- dir_9f2f79ca7be5af085ed9b57fc482ece6&#45;&gt;dir_4ab6b4cc6a7edbff49100e9123df213f -->
<g id="edge7" class="edge">
<title>dir_9f2f79ca7be5af085ed9b57fc482ece6&#45;&gt;dir_4ab6b4cc6a7edbff49100e9123df213f</title>
<path fill="none" stroke="#000000" d="M174.7642,-431.9322C186.0622,-422.1531 199.3253,-409.3587 209,-396 229.7573,-367.3385 235.2568,-358.531 243,-324 247.5614,-303.6582 245.7563,-280.1348 242.9725,-262.2397"/>
<polygon fill="#000000" stroke="#000000" points="246.3807,-261.4105 241.2113,-252.1624 239.4853,-262.6157 246.3807,-261.4105"/>
<g id="a_edge7&#45;headlabel"><a xlink:href="dir_000351_000036.html" target="_top" xlink:title="3">
<text text-anchor="middle" x="249.7964" y="-261.9626" font-family="Helvetica,sans-Serif" font-size="10.00" fill="#000000">3</text>
</a>
</g>
</g>
<!-- dir_9f2f79ca7be5af085ed9b57fc482ece6&#45;&gt;dir_e3378330628bb5a530079636b74abbc9 -->
<g id="edge8" class="edge">
<title>dir_9f2f79ca7be5af085ed9b57fc482ece6&#45;&gt;dir_e3378330628bb5a530079636b74abbc9</title>
<path fill="none" stroke="#000000" d="M124.8254,-439.0704C81.1049,-419.4794 0,-373.9758 0,-306 0,-306 0,-306 0,-162 0,-112.6014 40.7193,-68.6421 71.1997,-42.6562"/>
<polygon fill="#000000" stroke="#000000" points="73.6152,-45.2004 79.0894,-36.1293 69.1533,-39.8068 73.6152,-45.2004"/>
<g id="a_edge8&#45;headlabel"><a xlink:href="dir_000351_000182.html" target="_top" xlink:title="2">
<text text-anchor="middle" x="72.6554" y="-47.1794" font-family="Helvetica,sans-Serif" font-size="10.00" fill="#000000">2</text>
</a>
</g>
</g>
<!-- dir_bcbb2cf9a3d3d83e5515c82071a07177 -->
<g id="node7" class="node">
<title>dir_bcbb2cf9a3d3d83e5515c82071a07177</title>
<g id="a_node7"><a xlink:href="dir_bcbb2cf9a3d3d83e5515c82071a07177.html" target="_top" xlink:title="Framework">
<polygon fill="none" stroke="#ff0000" points="383.5,-180 312.5,-180 312.5,-144 383.5,-144 383.5,-180"/>
<text text-anchor="middle" x="348" y="-159.5" font-family="Helvetica,sans-Serif" font-size="10.00" fill="#000000">Framework</text>
</a>
</g>
</g>
<!-- dir_9f2f79ca7be5af085ed9b57fc482ece6&#45;&gt;dir_bcbb2cf9a3d3d83e5515c82071a07177 -->
<g id="edge9" class="edge">
<title>dir_9f2f79ca7be5af085ed9b57fc482ece6&#45;&gt;dir_bcbb2cf9a3d3d83e5515c82071a07177</title>
<path fill="none" stroke="#000000" d="M179.077,-435.2243C200.8333,-422.9555 229.1669,-405.9572 238,-396 293.8056,-333.0924 326.8409,-236.9495 340.5481,-189.898"/>
<polygon fill="#000000" stroke="#000000" points="343.9654,-190.6761 343.3279,-180.1005 337.2312,-188.7654 343.9654,-190.6761"/>
<g id="a_edge9&#45;headlabel"><a xlink:href="dir_000351_000063.html" target="_top" xlink:title="1">
<text text-anchor="middle" x="345.7157" y="-192.4092" font-family="Helvetica,sans-Serif" font-size="10.00" fill="#000000">1</text>
</a>
</g>
</g>
<!-- dir_9f2f79ca7be5af085ed9b57fc482ece6&#45;&gt;dir_26637d1bd82229bc9ed97f7e706be743 -->
<g id="edge10" class="edge">
<title>dir_9f2f79ca7be5af085ed9b57fc482ece6&#45;&gt;dir_26637d1bd82229bc9ed97f7e706be743</title>
<path fill="none" stroke="#000000" d="M166.8853,-431.5185C174.2462,-421.5296 182.672,-408.6716 188,-396 196.3306,-376.1876 201.1533,-352.3321 203.8541,-334.1605"/>
<polygon fill="#000000" stroke="#000000" points="207.3302,-334.5721 205.2095,-324.1917 200.3941,-333.6289 207.3302,-334.5721"/>
<g id="a_edge10&#45;headlabel"><a xlink:href="dir_000351_000647.html" target="_top" xlink:title="1">
<text text-anchor="middle" x="209.6594" y="-336.0164" font-family="Helvetica,sans-Serif" font-size="10.00" fill="#000000">1</text>
</a>
</g>
</g>
<!-- dir_9f2f79ca7be5af085ed9b57fc482ece6&#45;&gt;dir_2171f7ec022c5423887b07c69b2f5b48 -->
<g id="edge11" class="edge">
<title>dir_9f2f79ca7be5af085ed9b57fc482ece6&#45;&gt;dir_2171f7ec022c5423887b07c69b2f5b48</title>
<path fill="none" stroke="#000000" d="M136.0095,-431.9169C128.3462,-422.0371 119.9834,-409.1563 116,-396 109.3028,-373.8805 112.4323,-366.8341 116,-344 130.4499,-251.5182 131.9316,-223.0875 182,-144 188.7104,-133.4003 197.882,-123.3221 206.8123,-114.805"/>
<polygon fill="#000000" stroke="#000000" points="209.1873,-117.3759 214.1976,-108.0405 204.4593,-112.2139 209.1873,-117.3759"/>
<g id="a_edge11&#45;headlabel"><a xlink:href="dir_000351_000090.html" target="_top" xlink:title="5">
<text text-anchor="middle" x="208.4543" y="-119.3975" font-family="Helvetica,sans-Serif" font-size="10.00" fill="#000000">5</text>
</a>
</g>
</g>
<!-- dir_4ab6b4cc6a7edbff49100e9123df213f&#45;&gt;dir_bcbb2cf9a3d3d83e5515c82071a07177 -->
<g id="edge12" class="edge">
<title>dir_4ab6b4cc6a7edbff49100e9123df213f&#45;&gt;dir_bcbb2cf9a3d3d83e5515c82071a07177</title>
<path fill="none" stroke="#000000" d="M259.0576,-215.8314C272.3577,-206.6221 289.6261,-195.3301 305.4435,-185.4706"/>
<polygon fill="#000000" stroke="#000000" points="307.3741,-188.3921 314.0471,-180.1628 303.6987,-182.4346 307.3741,-188.3921"/>
<g id="a_edge12&#45;headlabel"><a xlink:href="dir_000036_000063.html" target="_top" xlink:title="2">
<text text-anchor="middle" x="305.8055" y="-190.1958" font-family="Helvetica,sans-Serif" font-size="10.00" fill="#000000">2</text>
</a>
</g>
</g>
<!-- dir_4ab6b4cc6a7edbff49100e9123df213f&#45;&gt;dir_2171f7ec022c5423887b07c69b2f5b48 -->
<g id="edge13" class="edge">
<title>dir_4ab6b4cc6a7edbff49100e9123df213f&#45;&gt;dir_2171f7ec022c5423887b07c69b2f5b48</title>
<path fill="none" stroke="#000000" d="M232.3268,-215.7623C229.867,-191.201 229.5923,-147.2474 231.5026,-118.3541"/>
<polygon fill="#000000" stroke="#000000" points="235.0152,-118.3416 232.3417,-108.0896 228.0385,-117.7712 235.0152,-118.3416"/>
<g id="a_edge13&#45;headlabel"><a xlink:href="dir_000036_000090.html" target="_top" xlink:title="2">
<text text-anchor="middle" x="237.5522" y="-119.6556" font-family="Helvetica,sans-Serif" font-size="10.00" fill="#000000">2</text>
</a>
</g>
</g>
<!-- dir_37c90836491b695b472bf98d1be8336b&#45;&gt;dir_4ab6b4cc6a7edbff49100e9123df213f -->
<g id="edge14" class="edge">
<title>dir_37c90836491b695b472bf98d1be8336b&#45;&gt;dir_4ab6b4cc6a7edbff49100e9123df213f</title>
<path fill="none" stroke="#000000" d="M301.9392,-36.109C298.668,-54.4125 292.9948,-83.4251 286,-108 276.6861,-140.7228 272.4487,-148.3368 260,-180 256.6234,-188.5883 252.7575,-197.8581 249.1709,-206.2525"/>
<polygon fill="#000000" stroke="#000000" points="245.8811,-205.0427 245.1351,-215.6112 252.3089,-207.8146 245.8811,-205.0427"/>
<g id="a_edge14&#45;headlabel"><a xlink:href="dir_000297_000036.html" target="_top" xlink:title="16">
<text text-anchor="middle" x="244.6973" y="-198.1176" font-family="Helvetica,sans-Serif" font-size="10.00" fill="#000000">16</text>
</a>
</g>
</g>
<!-- dir_37c90836491b695b472bf98d1be8336b&#45;&gt;dir_bcbb2cf9a3d3d83e5515c82071a07177 -->
<g id="edge15" class="edge">
<title>dir_37c90836491b695b472bf98d1be8336b&#45;&gt;dir_bcbb2cf9a3d3d83e5515c82071a07177</title>
<path fill="none" stroke="#000000" d="M310.4018,-36.0896C317.7449,-60.6805 330.9508,-104.905 339.595,-133.8531"/>
<polygon fill="#000000" stroke="#000000" points="336.339,-135.1818 342.554,-143.7623 343.0464,-133.1789 336.339,-135.1818"/>
<g id="a_edge15&#45;headlabel"><a xlink:href="dir_000297_000063.html" target="_top" xlink:title="1">
<text text-anchor="middle" x="332.59" y="-130.0499" font-family="Helvetica,sans-Serif" font-size="10.00" fill="#000000">1</text>
</a>
</g>
</g>
<!-- dir_37c90836491b695b472bf98d1be8336b&#45;&gt;dir_2171f7ec022c5423887b07c69b2f5b48 -->
<g id="edge16" class="edge">
<title>dir_37c90836491b695b472bf98d1be8336b&#45;&gt;dir_2171f7ec022c5423887b07c69b2f5b48</title>
<path fill="none" stroke="#000000" d="M293.5857,-36.4133C286.3024,-44.9938 276.6978,-55.3414 267.4257,-64.6463"/>
<polygon fill="#000000" stroke="#000000" points="264.7926,-62.3266 260.1117,-71.8314 269.6981,-67.3202 264.7926,-62.3266"/>
<g id="a_edge16&#45;headlabel"><a xlink:href="dir_000297_000090.html" target="_top" xlink:title="15">
<text text-anchor="middle" x="265.3671" y="-55.2822" font-family="Helvetica,sans-Serif" font-size="10.00" fill="#000000">15</text>
</a>
</g>
</g>
<!-- dir_e3378330628bb5a530079636b74abbc9&#45;&gt;dir_4ab6b4cc6a7edbff49100e9123df213f -->
<g id="edge17" class="edge">
<title>dir_e3378330628bb5a530079636b74abbc9&#45;&gt;dir_4ab6b4cc6a7edbff49100e9123df213f</title>
<path fill="none" stroke="#000000" d="M115.1727,-36.1451C138.649,-74.2721 193.1913,-162.8521 220.6244,-207.405"/>
<polygon fill="#000000" stroke="#000000" points="217.6657,-209.2754 225.8893,-215.9555 223.6264,-205.6051 217.6657,-209.2754"/>
<g id="a_edge17&#45;headlabel"><a xlink:href="dir_000182_000036.html" target="_top" xlink:title="1">
<text text-anchor="middle" x="213.3633" y="-205.2031" font-family="Helvetica,sans-Serif" font-size="10.00" fill="#000000">1</text>
</a>
</g>
</g>
<!-- dir_bcbb2cf9a3d3d83e5515c82071a07177&#45;&gt;dir_4ab6b4cc6a7edbff49100e9123df213f -->
<g id="edge18" class="edge">
<title>dir_bcbb2cf9a3d3d83e5515c82071a07177&#45;&gt;dir_4ab6b4cc6a7edbff49100e9123df213f</title>
<path fill="none" stroke="#000000" d="M325.998,-180.1301C311.8653,-189.9179 293.2358,-202.0668 276.6282,-212.3486"/>
<polygon fill="#000000" stroke="#000000" points="274.354,-209.6368 267.6511,-217.8418 278.0077,-215.6077 274.354,-209.6368"/>
<g id="a_edge18&#45;headlabel"><a xlink:href="dir_000063_000036.html" target="_top" xlink:title="8">
<text text-anchor="middle" x="275.9382" y="-202.8389" font-family="Helvetica,sans-Serif" font-size="10.00" fill="#000000">8</text>
</a>
</g>
</g>
<!-- dir_bcbb2cf9a3d3d83e5515c82071a07177&#45;&gt;dir_2171f7ec022c5423887b07c69b2f5b48 -->
<g id="edge19" class="edge">
<title>dir_bcbb2cf9a3d3d83e5515c82071a07177&#45;&gt;dir_2171f7ec022c5423887b07c69b2f5b48</title>
<path fill="none" stroke="#000000" d="M314.0376,-143.8314C299.2221,-134.7927 282.0431,-123.7476 267.6244,-114.0198"/>
<polygon fill="#000000" stroke="#000000" points="269.2809,-110.9128 259.0492,-108.1628 265.3328,-116.6932 269.2809,-110.9128"/>
<g id="a_edge19&#45;headlabel"><a xlink:href="dir_000063_000090.html" target="_top" xlink:title="73">
<text text-anchor="middle" x="273.8506" y="-108.0956" font-family="Helvetica,sans-Serif" font-size="10.00" fill="#000000">73</text>
</a>
</g>
</g>
<!-- dir_26637d1bd82229bc9ed97f7e706be743&#45;&gt;dir_4ab6b4cc6a7edbff49100e9123df213f -->
<g id="edge20" class="edge">
<title>dir_26637d1bd82229bc9ed97f7e706be743&#45;&gt;dir_4ab6b4cc6a7edbff49100e9123df213f</title>
<path fill="none" stroke="#000000" d="M214.5703,-287.8314C217.8493,-279.9617 221.762,-270.5712 225.3945,-261.8533"/>
<polygon fill="#000000" stroke="#000000" points="228.7124,-262.9902 229.3278,-252.4133 222.2508,-260.2979 228.7124,-262.9902"/>
<g id="a_edge20&#45;headlabel"><a xlink:href="dir_000647_000036.html" target="_top" xlink:title="10">
<text text-anchor="middle" x="229.9507" y="-264.9003" font-family="Helvetica,sans-Serif" font-size="10.00" fill="#000000">10</text>
</a>
</g>
</g>
<!-- dir_26637d1bd82229bc9ed97f7e706be743&#45;&gt;dir_bcbb2cf9a3d3d83e5515c82071a07177 -->
<g id="edge21" class="edge">
<title>dir_26637d1bd82229bc9ed97f7e706be743&#45;&gt;dir_bcbb2cf9a3d3d83e5515c82071a07177</title>
<path fill="none" stroke="#000000" d="M233.5168,-287.9272C247.1657,-278.0501 263.6875,-265.1688 277,-252 296.7874,-232.4262 316.1444,-207.3791 329.6359,-188.6803"/>
<polygon fill="#000000" stroke="#000000" points="332.638,-190.4983 335.583,-180.321 326.9341,-186.4404 332.638,-190.4983"/>
<g id="a_edge21&#45;headlabel"><a xlink:href="dir_000647_000063.html" target="_top" xlink:title="25">
<text text-anchor="middle" x="332.8678" y="-192.5732" font-family="Helvetica,sans-Serif" font-size="10.00" fill="#000000">25</text>
</a>
</g>
</g>
<!-- dir_26637d1bd82229bc9ed97f7e706be743&#45;&gt;dir_2171f7ec022c5423887b07c69b2f5b48 -->
<g id="edge22" class="edge">
<title>dir_26637d1bd82229bc9ed97f7e706be743&#45;&gt;dir_2171f7ec022c5423887b07c69b2f5b48</title>
<path fill="none" stroke="#000000" d="M202.7325,-287.6221C200.538,-277.2314 198.0984,-263.963 197,-252 195.5372,-236.067 194.5505,-231.8114 197,-216 202.3734,-181.3151 215.6015,-143.1055 225.3821,-117.9602"/>
<polygon fill="#000000" stroke="#000000" points="228.759,-118.9399 229.1989,-108.3541 222.2537,-116.355 228.759,-118.9399"/>
<g id="a_edge22&#45;headlabel"><a xlink:href="dir_000647_000090.html" target="_top" xlink:title="15">
<text text-anchor="middle" x="230.0703" y="-120.8288" font-family="Helvetica,sans-Serif" font-size="10.00" fill="#000000">15</text>
</a>
</g>
</g>
<!-- dir_2171f7ec022c5423887b07c69b2f5b48&#45;&gt;dir_4ab6b4cc6a7edbff49100e9123df213f -->
<g id="edge23" class="edge">
<title>dir_2171f7ec022c5423887b07c69b2f5b48&#45;&gt;dir_4ab6b4cc6a7edbff49100e9123df213f</title>
<path fill="none" stroke="#000000" d="M241.6583,-108.0896C244.1269,-132.5727 244.4104,-176.5174 242.5089,-205.4713"/>
<polygon fill="#000000" stroke="#000000" points="238.9942,-205.5118 241.6732,-215.7623 245.9712,-206.0785 238.9942,-205.5118"/>
<g id="a_edge23&#45;headlabel"><a xlink:href="dir_000090_000036.html" target="_top" xlink:title="38">
<text text-anchor="middle" x="236.4551" y="-199.1992" font-family="Helvetica,sans-Serif" font-size="10.00" fill="#000000">38</text>
</a>
</g>
</g>
<!-- dir_2171f7ec022c5423887b07c69b2f5b48&#45;&gt;dir_37c90836491b695b472bf98d1be8336b -->
<g id="edge24" class="edge">
<title>dir_2171f7ec022c5423887b07c69b2f5b48&#45;&gt;dir_37c90836491b695b472bf98d1be8336b</title>
<path fill="none" stroke="#000000" d="M248.2069,-71.8314C255.5015,-63.219 265.1788,-52.7851 274.5234,-43.4048"/>
<polygon fill="#000000" stroke="#000000" points="277.2141,-45.6679 281.8944,-36.1628 272.3082,-40.6746 277.2141,-45.6679"/>
<g id="a_edge24&#45;headlabel"><a xlink:href="dir_000090_000297.html" target="_top" xlink:title="1">
<text text-anchor="middle" x="276.6399" y="-47.7124" font-family="Helvetica,sans-Serif" font-size="10.00" fill="#000000">1</text>
</a>
</g>
</g>
<!-- dir_2171f7ec022c5423887b07c69b2f5b48&#45;&gt;dir_e3378330628bb5a530079636b74abbc9 -->
<g id="edge25" class="edge">
<title>dir_2171f7ec022c5423887b07c69b2f5b48&#45;&gt;dir_e3378330628bb5a530079636b74abbc9</title>
<path fill="none" stroke="#000000" d="M203.4385,-71.8314C184.1731,-61.402 159.9733,-48.3013 140.2708,-37.6353"/>
<polygon fill="#000000" stroke="#000000" points="141.7461,-34.454 131.2857,-32.7712 138.4136,-40.6099 141.7461,-34.454"/>
<g id="a_edge25&#45;headlabel"><a xlink:href="dir_000090_000182.html" target="_top" xlink:title="2">
<text text-anchor="middle" x="146.2589" y="-31.1684" font-family="Helvetica,sans-Serif" font-size="10.00" fill="#000000">2</text>
</a>
</g>
</g>
<!-- dir_2171f7ec022c5423887b07c69b2f5b48&#45;&gt;dir_bcbb2cf9a3d3d83e5515c82071a07177 -->
<g id="edge26" class="edge">
<title>dir_2171f7ec022c5423887b07c69b2f5b48&#45;&gt;dir_bcbb2cf9a3d3d83e5515c82071a07177</title>
<path fill="none" stroke="#000000" d="M270.9529,-108.1628C285.7673,-117.2007 302.9465,-128.2456 317.3664,-137.9739"/>
<polygon fill="#000000" stroke="#000000" points="315.7106,-141.0815 325.9424,-143.8314 319.6587,-135.3011 315.7106,-141.0815"/>
<g id="a_edge26&#45;headlabel"><a xlink:href="dir_000090_000063.html" target="_top" xlink:title="22">
<text text-anchor="middle" x="311.141" y="-138.8988" font-family="Helvetica,sans-Serif" font-size="10.00" fill="#000000">22</text>
</a>
</g>
</g>
</g>
</svg>
        <g id="navigator" transform="translate(0 0)" fill="#404254">
                <rect fill="#f2f5e9" fill-opacity="0.5" stroke="#606060" stroke-width=".5" x="0" y="0" width="60" height="60"/>
                <use id="zoomplus" xlink:href="#zoomPlus" x="17" y="9" onmousedown="handleZoom(evt,'in')"/>
                <use id="zoomminus" xlink:href="#zoomMin" x="42" y="9" onmousedown="handleZoom(evt,'out')"/>
                <use id="reset" xlink:href="#resetDef" x="30" y="36" onmousedown="handleReset()"/>
                <g id="arrowUp" xlink:href="#dirArrow" transform="translate(30 24)" onmousedown="handlePan(0,-1)">
                  <use xlink:href="#rim" fill="#404040">
                        <set attributeName="fill" to="#808080" begin="arrowUp.mouseover" end="arrowUp.mouseout"/>
                  </use>
                  <path fill="none" stroke="white" stroke-width="1.5" d="M0,-3.0v7 M-2.5,-0.5L0,-3.0L2.5,-0.5"/>
                </g>
                <g id="arrowRight" xlink:href="#dirArrow" transform="rotate(90) translate(36 -43)" onmousedown="handlePan(1,0)">
                  <use xlink:href="#rim" fill="#404040">
                        <set attributeName="fill" to="#808080" begin="arrowRight.mouseover" end="arrowRight.mouseout"/>
                  </use>
                  <path fill="none" stroke="white" stroke-width="1.5" d="M0,-3.0v7 M-2.5,-0.5L0,-3.0L2.5,-0.5"/>
                </g>
                <g id="arrowDown" xlink:href="#dirArrow" transform="rotate(180) translate(-30 -48)" onmousedown="handlePan(0,1)">
                  <use xlink:href="#rim" fill="#404040">
                        <set attributeName="fill" to="#808080" begin="arrowDown.mouseover" end="arrowDown.mouseout"/>
                  </use>
                  <path fill="none" stroke="white" stroke-width="1.5" d="M0,-3.0v7 M-2.5,-0.5L0,-3.0L2.5,-0.5"/>
                </g>
                <g id="arrowLeft" xlink:href="#dirArrow" transform="rotate(270) translate(-36 17)" onmousedown="handlePan(-1,0)">
                  <use xlink:href="#rim" fill="#404040">
                        <set attributeName="fill" to="#808080" begin="arrowLeft.mouseover" end="arrowLeft.mouseout"/>
                  </use>
                  <path fill="none" stroke="white" stroke-width="1.5" d="M0,-3.0v7 M-2.5,-0.5L0,-3.0L2.5,-0.5"/>
                </g>
        </g>
        <svg viewBox="0 0 15 15" width="100%" height="30px" preserveAspectRatio="xMaxYMin meet">
         <g id="arrow_out" transform="scale(0.3 0.3)">
          <a xlink:href="dir_f0fa586345106a7c1715ccd7aa13aaee_dep_org.svg" target="_base">
           <rect id="button" ry="5" rx="5" y="6" x="6" height="38" width="38"
                fill="#f2f5e9" fill-opacity="0.5" stroke="#606060" stroke-width="1.0"/>
           <path id="arrow"
             d="M 11.500037,31.436501 C 11.940474,20.09759 22.043105,11.32322 32.158766,21.979434 L 37.068811,17.246167 C 37.068811,17.246167 37.088388,32 37.088388,32 L 22.160133,31.978069 C 22.160133,31.978069 26.997745,27.140456 26.997745,27.140456 C 18.528582,18.264221 13.291696,25.230495 11.500037,31.436501 z"
             style="fill:#404040;"/>
          </a>
         </g>
        </svg>
</svg>
