<?xml version="1.0" encoding="UTF-8" standalone="no"?>
<!DOCTYPE svg PUBLIC "-//W3C//DTD SVG 1.1//EN"
 "http://www.w3.org/Graphics/SVG/1.1/DTD/svg11.dtd">
<!-- Generated by graphviz version 2.40.1 (20161225.0304)
 -->
<!-- Title: /home/travis/build/AliceO2Group/AliceO2/Detectors/FIT/FDD/simulation/include Pages: 1 -->
<svg width="226pt" height="375pt"
 viewBox="0.00 0.00 226.26 375.00" xmlns="http://www.w3.org/2000/svg" xmlns:xlink="http://www.w3.org/1999/xlink">
<g id="graph0" class="graph" transform="scale(1 1) rotate(0) translate(4 371)">
<title>/home/travis/build/AliceO2Group/AliceO2/Detectors/FIT/FDD/simulation/include</title>
<g id="clust1" class="cluster">
<title>clusterdir_f0fa586345106a7c1715ccd7aa13aaee</title>
<g id="a_clust1"><a xlink:href="dir_f0fa586345106a7c1715ccd7aa13aaee.html" target="_top" xlink:title="simulation">
<polygon fill="#ddddee" stroke="#000000" points="17.2648,-272 17.2648,-359 210.2648,-359 210.2648,-272 17.2648,-272"/>
<text text-anchor="middle" x="113.7648" y="-347" font-family="Helvetica,sans-Serif" font-size="10.00" fill="#000000">simulation</text>
</a>
</g>
</g>
<g id="clust2" class="cluster">
<title>clusterdir_1ea4f5023fc6129dbdfa67598ac85edc</title>
<g id="a_clust2"><a xlink:href="dir_1ea4f5023fc6129dbdfa67598ac85edc.html" target="_top">
<polygon fill="#eeeeff" stroke="#000000" points="25.2648,-280 25.2648,-332 202.2648,-332 202.2648,-280 25.2648,-280"/>
</a>
</g>
</g>
<!-- dir_1ea4f5023fc6129dbdfa67598ac85edc -->
<g id="node1" class="node">
<title>dir_1ea4f5023fc6129dbdfa67598ac85edc</title>
<text text-anchor="middle" x="167.2648" y="-303.5" font-family="Helvetica,sans-Serif" font-size="10.00" fill="#000000">include</text>
</g>
<!-- dir_dae7313b484fd6ca1f3ad8a29411a3b6 -->
<g id="node2" class="node">
<title>dir_dae7313b484fd6ca1f3ad8a29411a3b6</title>
<g id="a_node2"><a xlink:href="dir_dae7313b484fd6ca1f3ad8a29411a3b6.html" target="_top" xlink:title="FDDSimulation">
<polygon fill="#ffffff" stroke="#000000" points="121.7648,-324 32.7648,-324 32.7648,-288 121.7648,-288 121.7648,-324"/>
<text text-anchor="middle" x="77.2648" y="-303.5" font-family="Helvetica,sans-Serif" font-size="10.00" fill="#000000">FDDSimulation</text>
</a>
</g>
</g>
<!-- dir_4ab6b4cc6a7edbff49100e9123df213f -->
<g id="node3" class="node">
<title>dir_4ab6b4cc6a7edbff49100e9123df213f</title>
<g id="a_node3"><a xlink:href="dir_4ab6b4cc6a7edbff49100e9123df213f.html" target="_top" xlink:title="Common">
<polygon fill="none" stroke="#ff0000" points="150.7648,-180 89.7648,-180 89.7648,-144 150.7648,-144 150.7648,-180"/>
<text text-anchor="middle" x="120.2648" y="-159.5" font-family="Helvetica,sans-Serif" font-size="10.00" fill="#000000">Common</text>
</a>
</g>
</g>
<!-- dir_dae7313b484fd6ca1f3ad8a29411a3b6&#45;&gt;dir_4ab6b4cc6a7edbff49100e9123df213f -->
<g id="edge7" class="edge">
<title>dir_dae7313b484fd6ca1f3ad8a29411a3b6&#45;&gt;dir_4ab6b4cc6a7edbff49100e9123df213f</title>
<path fill="none" stroke="#000000" d="M92.8382,-287.7818C100.3874,-277.8649 108.7739,-264.9919 113.2648,-252 120.1236,-232.158 121.7211,-208.4384 121.6854,-190.3323"/>
<polygon fill="#000000" stroke="#000000" points="125.1811,-190.0635 121.494,-180.131 118.1823,-190.1949 125.1811,-190.0635"/>
<g id="a_edge7&#45;headlabel"><a xlink:href="dir_000308_000036.html" target="_top" xlink:title="2">
<text text-anchor="middle" x="128.0872" y="-191.1043" font-family="Helvetica,sans-Serif" font-size="10.00" fill="#000000">2</text>
</a>
</g>
</g>
<!-- dir_37c90836491b695b472bf98d1be8336b -->
<g id="node4" class="node">
<title>dir_37c90836491b695b472bf98d1be8336b</title>
<g id="a_node4"><a xlink:href="dir_37c90836491b695b472bf98d1be8336b.html" target="_top" xlink:title="Base">
<polygon fill="none" stroke="#ff0000" points="79.2648,-36 25.2648,-36 25.2648,0 79.2648,0 79.2648,-36"/>
<text text-anchor="middle" x="52.2648" y="-15.5" font-family="Helvetica,sans-Serif" font-size="10.00" fill="#000000">Base</text>
</a>
</g>
</g>
<!-- dir_dae7313b484fd6ca1f3ad8a29411a3b6&#45;&gt;dir_37c90836491b695b472bf98d1be8336b -->
<g id="edge8" class="edge">
<title>dir_dae7313b484fd6ca1f3ad8a29411a3b6&#45;&gt;dir_37c90836491b695b472bf98d1be8336b</title>
<path fill="none" stroke="#000000" d="M57.5405,-287.7455C48.1853,-278.0123 37.6771,-265.3149 31.2648,-252 2.9757,-193.2583 9.5159,-172.8983 3.2648,-108 1.7308,-92.0737 -2.4978,-86.9262 3.2648,-72 7.384,-61.3306 14.6984,-51.4665 22.4398,-43.1681"/>
<polygon fill="#000000" stroke="#000000" points="24.9996,-45.558 29.5898,-36.0091 20.0467,-40.6113 24.9996,-45.558"/>
<g id="a_edge8&#45;headlabel"><a xlink:href="dir_000308_000297.html" target="_top" xlink:title="1">
<text text-anchor="middle" x="24.4684" y="-47.6077" font-family="Helvetica,sans-Serif" font-size="10.00" fill="#000000">1</text>
</a>
</g>
</g>
<!-- dir_e3378330628bb5a530079636b74abbc9 -->
<g id="node5" class="node">
<title>dir_e3378330628bb5a530079636b74abbc9</title>
<g id="a_node5"><a xlink:href="dir_e3378330628bb5a530079636b74abbc9.html" target="_top" xlink:title="base">
<polygon fill="none" stroke="#ff0000" points="185.2648,-36 131.2648,-36 131.2648,0 185.2648,0 185.2648,-36"/>
<text text-anchor="middle" x="158.2648" y="-15.5" font-family="Helvetica,sans-Serif" font-size="10.00" fill="#000000">base</text>
</a>
</g>
</g>
<!-- dir_dae7313b484fd6ca1f3ad8a29411a3b6&#45;&gt;dir_e3378330628bb5a530079636b74abbc9 -->
<g id="edge9" class="edge">
<title>dir_dae7313b484fd6ca1f3ad8a29411a3b6&#45;&gt;dir_e3378330628bb5a530079636b74abbc9</title>
<path fill="none" stroke="#000000" d="M99.0964,-287.9519C109.8699,-278.178 122.4176,-265.3824 131.2648,-252 150.2902,-223.2223 153.7005,-213.8679 160.2648,-180 169.2087,-133.8557 165.6237,-78.9249 162.0558,-46.3413"/>
<polygon fill="#000000" stroke="#000000" points="165.5066,-45.7166 160.8646,-36.1929 158.5543,-46.5328 165.5066,-45.7166"/>
<g id="a_edge9&#45;headlabel"><a xlink:href="dir_000308_000182.html" target="_top" xlink:title="2">
<text text-anchor="middle" x="168.7455" y="-46.4558" font-family="Helvetica,sans-Serif" font-size="10.00" fill="#000000">2</text>
</a>
</g>
</g>
<!-- dir_26637d1bd82229bc9ed97f7e706be743 -->
<g id="node6" class="node">
<title>dir_26637d1bd82229bc9ed97f7e706be743</title>
<g id="a_node6"><a xlink:href="dir_26637d1bd82229bc9ed97f7e706be743.html" target="_top" xlink:title="Raw">
<polygon fill="none" stroke="#ff0000" points="104.2648,-252 50.2648,-252 50.2648,-216 104.2648,-216 104.2648,-252"/>
<text text-anchor="middle" x="77.2648" y="-231.5" font-family="Helvetica,sans-Serif" font-size="10.00" fill="#000000">Raw</text>
</a>
</g>
</g>
<!-- dir_dae7313b484fd6ca1f3ad8a29411a3b6&#45;&gt;dir_26637d1bd82229bc9ed97f7e706be743 -->
<g id="edge10" class="edge">
<title>dir_dae7313b484fd6ca1f3ad8a29411a3b6&#45;&gt;dir_26637d1bd82229bc9ed97f7e706be743</title>
<path fill="none" stroke="#000000" d="M77.2648,-287.8314C77.2648,-280.131 77.2648,-270.9743 77.2648,-262.4166"/>
<polygon fill="#000000" stroke="#000000" points="80.7649,-262.4132 77.2648,-252.4133 73.7649,-262.4133 80.7649,-262.4132"/>
<g id="a_edge10&#45;headlabel"><a xlink:href="dir_000308_000647.html" target="_top" xlink:title="2">
<text text-anchor="middle" x="83.6041" y="-263.5079" font-family="Helvetica,sans-Serif" font-size="10.00" fill="#000000">2</text>
</a>
</g>
</g>
<!-- dir_2171f7ec022c5423887b07c69b2f5b48 -->
<g id="node7" class="node">
<title>dir_2171f7ec022c5423887b07c69b2f5b48</title>
<g id="a_node7"><a xlink:href="dir_2171f7ec022c5423887b07c69b2f5b48.html" target="_top" xlink:title="DataFormats">
<polygon fill="none" stroke="#ff0000" points="92.2648,-108 12.2648,-108 12.2648,-72 92.2648,-72 92.2648,-108"/>
<text text-anchor="middle" x="52.2648" y="-87.5" font-family="Helvetica,sans-Serif" font-size="10.00" fill="#000000">DataFormats</text>
</a>
</g>
</g>
<!-- dir_dae7313b484fd6ca1f3ad8a29411a3b6&#45;&gt;dir_2171f7ec022c5423887b07c69b2f5b48 -->
<g id="edge11" class="edge">
<title>dir_dae7313b484fd6ca1f3ad8a29411a3b6&#45;&gt;dir_2171f7ec022c5423887b07c69b2f5b48</title>
<path fill="none" stroke="#000000" d="M61.2744,-287.9169C53.611,-278.0371 45.2483,-265.1563 41.2648,-252 27.5544,-206.7175 36.5494,-151.1789 44.3711,-118.2956"/>
<polygon fill="#000000" stroke="#000000" points="47.8008,-119.0081 46.8391,-108.457 41.0111,-117.3049 47.8008,-119.0081"/>
<g id="a_edge11&#45;headlabel"><a xlink:href="dir_000308_000090.html" target="_top" xlink:title="14">
<text text-anchor="middle" x="49.6802" y="-120.6855" font-family="Helvetica,sans-Serif" font-size="10.00" fill="#000000">14</text>
</a>
</g>
</g>
<!-- dir_4ab6b4cc6a7edbff49100e9123df213f&#45;&gt;dir_2171f7ec022c5423887b07c69b2f5b48 -->
<g id="edge1" class="edge">
<title>dir_4ab6b4cc6a7edbff49100e9123df213f&#45;&gt;dir_2171f7ec022c5423887b07c69b2f5b48</title>
<path fill="none" stroke="#000000" d="M97.1532,-143.8314C88.4248,-135.454 78.6954,-125.3531 70.4642,-116.1749"/>
<polygon fill="#000000" stroke="#000000" points="72.8958,-113.6386 63.6791,-108.4133 67.6256,-118.2457 72.8958,-113.6386"/>
<g id="a_edge1&#45;headlabel"><a xlink:href="dir_000036_000090.html" target="_top" xlink:title="2">
<text text-anchor="middle" x="77.3992" y="-111.9762" font-family="Helvetica,sans-Serif" font-size="10.00" fill="#000000">2</text>
</a>
</g>
</g>
<!-- dir_37c90836491b695b472bf98d1be8336b&#45;&gt;dir_4ab6b4cc6a7edbff49100e9123df213f -->
<g id="edge2" class="edge">
<title>dir_37c90836491b695b472bf98d1be8336b&#45;&gt;dir_4ab6b4cc6a7edbff49100e9123df213f</title>
<path fill="none" stroke="#000000" d="M73.2053,-36.075C83.1528,-45.7624 94.3515,-58.4731 101.2648,-72 111.1067,-91.2568 115.8528,-115.3251 118.1404,-133.7258"/>
<polygon fill="#000000" stroke="#000000" points="114.677,-134.2557 119.2231,-143.8257 121.6372,-133.5095 114.677,-134.2557"/>
<g id="a_edge2&#45;headlabel"><a xlink:href="dir_000297_000036.html" target="_top" xlink:title="16">
<text text-anchor="middle" x="111.4709" y="-128.4842" font-family="Helvetica,sans-Serif" font-size="10.00" fill="#000000">16</text>
</a>
</g>
</g>
<!-- dir_37c90836491b695b472bf98d1be8336b&#45;&gt;dir_2171f7ec022c5423887b07c69b2f5b48 -->
<g id="edge3" class="edge">
<title>dir_37c90836491b695b472bf98d1be8336b&#45;&gt;dir_2171f7ec022c5423887b07c69b2f5b48</title>
<path fill="none" stroke="#000000" d="M58.2408,-36.4133C58.972,-44.0593 59.1851,-53.1084 58.8803,-61.5726"/>
<polygon fill="#000000" stroke="#000000" points="55.3696,-61.6264 58.2172,-71.8314 62.355,-62.078 55.3696,-61.6264"/>
<g id="a_edge3&#45;headlabel"><a xlink:href="dir_000297_000090.html" target="_top" xlink:title="15">
<text text-anchor="middle" x="52.768" y="-55.3562" font-family="Helvetica,sans-Serif" font-size="10.00" fill="#000000">15</text>
</a>
</g>
</g>
<!-- dir_e3378330628bb5a530079636b74abbc9&#45;&gt;dir_4ab6b4cc6a7edbff49100e9123df213f -->
<g id="edge4" class="edge">
<title>dir_e3378330628bb5a530079636b74abbc9&#45;&gt;dir_4ab6b4cc6a7edbff49100e9123df213f</title>
<path fill="none" stroke="#000000" d="M153.4912,-36.0896C147.0019,-60.6805 135.3316,-104.905 127.6925,-133.8531"/>
<polygon fill="#000000" stroke="#000000" points="124.245,-133.2002 125.0776,-143.7623 131.0133,-134.9864 124.245,-133.2002"/>
<g id="a_edge4&#45;headlabel"><a xlink:href="dir_000182_000036.html" target="_top" xlink:title="1">
<text text-anchor="middle" x="122.4168" y="-126.5002" font-family="Helvetica,sans-Serif" font-size="10.00" fill="#000000">1</text>
</a>
</g>
</g>
<!-- dir_26637d1bd82229bc9ed97f7e706be743&#45;&gt;dir_4ab6b4cc6a7edbff49100e9123df213f -->
<g id="edge5" class="edge">
<title>dir_26637d1bd82229bc9ed97f7e706be743&#45;&gt;dir_4ab6b4cc6a7edbff49100e9123df213f</title>
<path fill="none" stroke="#000000" d="M88.1156,-215.8314C92.9671,-207.7079 98.7865,-197.9637 104.1328,-189.0118"/>
<polygon fill="#000000" stroke="#000000" points="107.1455,-190.7933 109.268,-180.4133 101.1357,-187.2041 107.1455,-190.7933"/>
<g id="a_edge5&#45;headlabel"><a xlink:href="dir_000647_000036.html" target="_top" xlink:title="10">
<text text-anchor="middle" x="107.74" y="-192.8352" font-family="Helvetica,sans-Serif" font-size="10.00" fill="#000000">10</text>
</a>
</g>
</g>
<!-- dir_26637d1bd82229bc9ed97f7e706be743&#45;&gt;dir_2171f7ec022c5423887b07c69b2f5b48 -->
<g id="edge6" class="edge">
<title>dir_26637d1bd82229bc9ed97f7e706be743&#45;&gt;dir_2171f7ec022c5423887b07c69b2f5b48</title>
<path fill="none" stroke="#000000" d="M74.0986,-215.7623C69.8157,-191.0928 62.1363,-146.8598 57.1213,-117.9731"/>
<polygon fill="#000000" stroke="#000000" points="60.5644,-117.3435 55.4054,-108.0896 53.6676,-118.541 60.5644,-117.3435"/>
<g id="a_edge6&#45;headlabel"><a xlink:href="dir_000647_000090.html" target="_top" xlink:title="15">
<text text-anchor="middle" x="63.9766" y="-117.8995" font-family="Helvetica,sans-Serif" font-size="10.00" fill="#000000">15</text>
</a>
</g>
</g>
<!-- dir_2171f7ec022c5423887b07c69b2f5b48&#45;&gt;dir_4ab6b4cc6a7edbff49100e9123df213f -->
<g id="edge12" class="edge">
<title>dir_2171f7ec022c5423887b07c69b2f5b48&#45;&gt;dir_4ab6b4cc6a7edbff49100e9123df213f</title>
<path fill="none" stroke="#000000" d="M75.3704,-108.1628C84.1655,-116.6038 93.9776,-126.7956 102.2495,-136.0303"/>
<polygon fill="#000000" stroke="#000000" points="99.8455,-138.5987 109.058,-143.8314 105.1193,-133.9958 99.8455,-138.5987"/>
<g id="a_edge12&#45;headlabel"><a xlink:href="dir_000090_000036.html" target="_top" xlink:title="38">
<text text-anchor="middle" x="95.3427" y="-135.2575" font-family="Helvetica,sans-Serif" font-size="10.00" fill="#000000">38</text>
</a>
</g>
</g>
<!-- dir_2171f7ec022c5423887b07c69b2f5b48&#45;&gt;dir_37c90836491b695b472bf98d1be8336b -->
<g id="edge13" class="edge">
<title>dir_2171f7ec022c5423887b07c69b2f5b48&#45;&gt;dir_37c90836491b695b472bf98d1be8336b</title>
<path fill="none" stroke="#000000" d="M46.3124,-71.8314C45.562,-64.131 45.3411,-54.9743 45.6497,-46.4166"/>
<polygon fill="#000000" stroke="#000000" points="49.144,-46.6161 46.2888,-36.4133 42.1583,-46.1697 49.144,-46.6161"/>
<g id="a_edge13&#45;headlabel"><a xlink:href="dir_000090_000297.html" target="_top" xlink:title="1">
<text text-anchor="middle" x="51.7485" y="-47.8844" font-family="Helvetica,sans-Serif" font-size="10.00" fill="#000000">1</text>
</a>
</g>
</g>
<!-- dir_2171f7ec022c5423887b07c69b2f5b48&#45;&gt;dir_e3378330628bb5a530079636b74abbc9 -->
<g id="edge14" class="edge">
<title>dir_2171f7ec022c5423887b07c69b2f5b48&#45;&gt;dir_e3378330628bb5a530079636b74abbc9</title>
<path fill="none" stroke="#000000" d="M79.0131,-71.8314C92.3201,-62.7927 108.5809,-51.7476 122.9023,-42.0198"/>
<polygon fill="#000000" stroke="#000000" points="125.2195,-44.677 131.5251,-36.1628 121.2863,-38.8864 125.2195,-44.677"/>
<g id="a_edge14&#45;headlabel"><a xlink:href="dir_000090_000182.html" target="_top" xlink:title="2">
<text text-anchor="middle" x="123.8414" y="-46.5454" font-family="Helvetica,sans-Serif" font-size="10.00" fill="#000000">2</text>
</a>
</g>
</g>
</g>
</svg>
