<?xml version="1.0" encoding="UTF-8" standalone="no"?>
<!DOCTYPE svg PUBLIC "-//W3C//DTD SVG 1.1//EN"
 "http://www.w3.org/Graphics/SVG/1.1/DTD/svg11.dtd">
<!-- Generated by graphviz version 2.40.1 (20161225.0304)
 -->
<!-- Title: /home/travis/build/AliceO2Group/AliceO2/Detectors/MUON/MCH/Workflow Pages: 1 -->
<svg width="740pt" height="519pt"
 viewBox="0.00 0.00 740.09 519.00" xmlns="http://www.w3.org/2000/svg" xmlns:xlink="http://www.w3.org/1999/xlink">
<g id="graph0" class="graph" transform="scale(1 1) rotate(0) translate(4 515)">
<title>/home/travis/build/AliceO2Group/AliceO2/Detectors/MUON/MCH/Workflow</title>
<g id="clust1" class="cluster">
<title>clusterdir_061f7088060f41729027f6c2fce0273e</title>
<g id="a_clust1"><a xlink:href="dir_061f7088060f41729027f6c2fce0273e.html" target="_top" xlink:title="MCH">
<polygon fill="#ddddee" stroke="#000000" points="101,-344 101,-503 267,-503 267,-344 101,-344"/>
<text text-anchor="middle" x="184" y="-491" font-family="Helvetica,sans-Serif" font-size="10.00" fill="#000000">MCH</text>
</a>
</g>
</g>
<g id="clust2" class="cluster">
<title>clusterdir_04ece05d7c7fe751e39bd0511b9068fc</title>
<g id="a_clust2"><a xlink:href="dir_04ece05d7c7fe751e39bd0511b9068fc.html" target="_top">
<polygon fill="#eeeeff" stroke="#000000" points="109,-352 109,-476 259,-476 259,-352 109,-352"/>
</a>
</g>
</g>
<!-- dir_04ece05d7c7fe751e39bd0511b9068fc -->
<g id="node1" class="node">
<title>dir_04ece05d7c7fe751e39bd0511b9068fc</title>
<text text-anchor="middle" x="220" y="-447.5" font-family="Helvetica,sans-Serif" font-size="10.00" fill="#000000">Workflow</text>
</g>
<!-- dir_ade19310a6abca7155cb213ca0a7e06d -->
<g id="node2" class="node">
<title>dir_ade19310a6abca7155cb213ca0a7e06d</title>
<g id="a_node2"><a xlink:href="dir_ade19310a6abca7155cb213ca0a7e06d.html" target="_top" xlink:title="include">
<polygon fill="#ffffff" stroke="#ff0000" points="171,-396 117,-396 117,-360 171,-360 171,-396"/>
<text text-anchor="middle" x="144" y="-375.5" font-family="Helvetica,sans-Serif" font-size="10.00" fill="#000000">include</text>
</a>
</g>
</g>
<!-- dir_bcbb2cf9a3d3d83e5515c82071a07177 -->
<g id="node10" class="node">
<title>dir_bcbb2cf9a3d3d83e5515c82071a07177</title>
<g id="a_node10"><a xlink:href="dir_bcbb2cf9a3d3d83e5515c82071a07177.html" target="_top" xlink:title="Framework">
<polygon fill="none" stroke="#ff0000" points="163.5,-252 92.5,-252 92.5,-216 163.5,-216 163.5,-252"/>
<text text-anchor="middle" x="128" y="-231.5" font-family="Helvetica,sans-Serif" font-size="10.00" fill="#000000">Framework</text>
</a>
</g>
</g>
<!-- dir_ade19310a6abca7155cb213ca0a7e06d&#45;&gt;dir_bcbb2cf9a3d3d83e5515c82071a07177 -->
<g id="edge25" class="edge">
<title>dir_ade19310a6abca7155cb213ca0a7e06d&#45;&gt;dir_bcbb2cf9a3d3d83e5515c82071a07177</title>
<path fill="none" stroke="#000000" d="M141.9736,-359.7623C139.2446,-335.201 134.3608,-291.2474 131.1505,-262.3541"/>
<polygon fill="#000000" stroke="#000000" points="134.593,-261.6419 130.01,-252.0896 127.6358,-262.415 134.593,-261.6419"/>
<g id="a_edge25&#45;headlabel"><a xlink:href="dir_000626_000063.html" target="_top" xlink:title="3">
<text text-anchor="middle" x="137.8117" y="-262.401" font-family="Helvetica,sans-Serif" font-size="10.00" fill="#000000">3</text>
</a>
</g>
</g>
<!-- dir_e2a306cbeddc37280b8dde7d223d74dd -->
<g id="node3" class="node">
<title>dir_e2a306cbeddc37280b8dde7d223d74dd</title>
<g id="a_node3"><a xlink:href="dir_e2a306cbeddc37280b8dde7d223d74dd.html" target="_top" xlink:title="src">
<polygon fill="#ffffff" stroke="#000000" points="171,-468 117,-468 117,-432 171,-432 171,-468"/>
<text text-anchor="middle" x="144" y="-447.5" font-family="Helvetica,sans-Serif" font-size="10.00" fill="#000000">src</text>
</a>
</g>
</g>
<!-- dir_e2a306cbeddc37280b8dde7d223d74dd&#45;&gt;dir_ade19310a6abca7155cb213ca0a7e06d -->
<g id="edge17" class="edge">
<title>dir_e2a306cbeddc37280b8dde7d223d74dd&#45;&gt;dir_ade19310a6abca7155cb213ca0a7e06d</title>
<path fill="none" stroke="#000000" d="M144,-431.8314C144,-424.131 144,-414.9743 144,-406.4166"/>
<polygon fill="#000000" stroke="#000000" points="147.5001,-406.4132 144,-396.4133 140.5001,-406.4133 147.5001,-406.4132"/>
<g id="a_edge17&#45;headlabel"><a xlink:href="dir_000509_000626.html" target="_top" xlink:title="7">
<text text-anchor="middle" x="150.3393" y="-407.5079" font-family="Helvetica,sans-Serif" font-size="10.00" fill="#000000">7</text>
</a>
</g>
</g>
<!-- dir_6229e1f1a243f5ed3f0013dfa4f13deb -->
<g id="node4" class="node">
<title>dir_6229e1f1a243f5ed3f0013dfa4f13deb</title>
<g id="a_node4"><a xlink:href="dir_6229e1f1a243f5ed3f0013dfa4f13deb.html" target="_top" xlink:title="PreClustering">
<polygon fill="none" stroke="#ff0000" points="714,-324 632,-324 632,-288 714,-288 714,-324"/>
<text text-anchor="middle" x="673" y="-303.5" font-family="Helvetica,sans-Serif" font-size="10.00" fill="#000000">PreClustering</text>
</a>
</g>
</g>
<!-- dir_e2a306cbeddc37280b8dde7d223d74dd&#45;&gt;dir_6229e1f1a243f5ed3f0013dfa4f13deb -->
<g id="edge11" class="edge">
<title>dir_e2a306cbeddc37280b8dde7d223d74dd&#45;&gt;dir_6229e1f1a243f5ed3f0013dfa4f13deb</title>
<path fill="none" stroke="#000000" d="M171.0803,-435.1055C174.03,-433.8947 177.0376,-432.8229 180,-432 278.5803,-404.6153 557.1759,-457.4232 639,-396 658.2239,-381.5691 666.5788,-354.9207 670.2097,-334.3519"/>
<polygon fill="#000000" stroke="#000000" points="673.7034,-334.6524 671.7104,-324.2468 666.7793,-333.6241 673.7034,-334.6524"/>
<g id="a_edge11&#45;headlabel"><a xlink:href="dir_000509_000603.html" target="_top" xlink:title="1">
<text text-anchor="middle" x="675.9839" y="-336.1251" font-family="Helvetica,sans-Serif" font-size="10.00" fill="#000000">1</text>
</a>
</g>
</g>
<!-- dir_4ab6b4cc6a7edbff49100e9123df213f -->
<g id="node5" class="node">
<title>dir_4ab6b4cc6a7edbff49100e9123df213f</title>
<g id="a_node5"><a xlink:href="dir_4ab6b4cc6a7edbff49100e9123df213f.html" target="_top" xlink:title="Common">
<polygon fill="none" stroke="#ff0000" points="226.5,-180 165.5,-180 165.5,-144 226.5,-144 226.5,-180"/>
<text text-anchor="middle" x="196" y="-159.5" font-family="Helvetica,sans-Serif" font-size="10.00" fill="#000000">Common</text>
</a>
</g>
</g>
<!-- dir_e2a306cbeddc37280b8dde7d223d74dd&#45;&gt;dir_4ab6b4cc6a7edbff49100e9123df213f -->
<g id="edge12" class="edge">
<title>dir_e2a306cbeddc37280b8dde7d223d74dd&#45;&gt;dir_4ab6b4cc6a7edbff49100e9123df213f</title>
<path fill="none" stroke="#000000" d="M123.7731,-431.974C114.2897,-422.2991 103.8186,-409.5848 98,-396 66.3928,-322.2068 40.1878,-283.9084 83,-216 98.8158,-190.9131 129.8555,-177.2295 155.4072,-169.9195"/>
<polygon fill="#000000" stroke="#000000" points="156.4625,-173.261 165.244,-167.3336 154.6828,-166.4911 156.4625,-173.261"/>
<g id="a_edge12&#45;headlabel"><a xlink:href="dir_000509_000036.html" target="_top" xlink:title="3">
<text text-anchor="middle" x="153.7079" y="-174.4209" font-family="Helvetica,sans-Serif" font-size="10.00" fill="#000000">3</text>
</a>
</g>
</g>
<!-- dir_1155c84989a046e7de4bf0156dc4b34c -->
<g id="node6" class="node">
<title>dir_1155c84989a046e7de4bf0156dc4b34c</title>
<g id="a_node6"><a xlink:href="dir_1155c84989a046e7de4bf0156dc4b34c.html" target="_top" xlink:title="Base">
<polygon fill="none" stroke="#ff0000" points="555,-252 501,-252 501,-216 555,-216 555,-252"/>
<text text-anchor="middle" x="528" y="-231.5" font-family="Helvetica,sans-Serif" font-size="10.00" fill="#000000">Base</text>
</a>
</g>
</g>
<!-- dir_e2a306cbeddc37280b8dde7d223d74dd&#45;&gt;dir_1155c84989a046e7de4bf0156dc4b34c -->
<g id="edge13" class="edge">
<title>dir_e2a306cbeddc37280b8dde7d223d74dd&#45;&gt;dir_1155c84989a046e7de4bf0156dc4b34c</title>
<path fill="none" stroke="#000000" d="M171.1394,-435.3053C174.0776,-434.0556 177.0663,-432.9201 180,-432 286.2737,-398.6709 334.8955,-457.1269 428,-396 476.7418,-363.999 505.7943,-299.1719 519.1472,-261.9575"/>
<polygon fill="#000000" stroke="#000000" points="522.5458,-262.8383 522.5005,-252.2435 515.9289,-260.5541 522.5458,-262.8383"/>
<g id="a_edge13&#45;headlabel"><a xlink:href="dir_000509_000151.html" target="_top" xlink:title="21">
<text text-anchor="middle" x="524.0568" y="-264.6626" font-family="Helvetica,sans-Serif" font-size="10.00" fill="#000000">21</text>
</a>
</g>
</g>
<!-- dir_37c90836491b695b472bf98d1be8336b -->
<g id="node7" class="node">
<title>dir_37c90836491b695b472bf98d1be8336b</title>
<g id="a_node7"><a xlink:href="dir_37c90836491b695b472bf98d1be8336b.html" target="_top" xlink:title="Base">
<polygon fill="none" stroke="#ff0000" points="155,-36 101,-36 101,0 155,0 155,-36"/>
<text text-anchor="middle" x="128" y="-15.5" font-family="Helvetica,sans-Serif" font-size="10.00" fill="#000000">Base</text>
</a>
</g>
</g>
<!-- dir_e2a306cbeddc37280b8dde7d223d74dd&#45;&gt;dir_37c90836491b695b472bf98d1be8336b -->
<g id="edge14" class="edge">
<title>dir_e2a306cbeddc37280b8dde7d223d74dd&#45;&gt;dir_37c90836491b695b472bf98d1be8336b</title>
<path fill="none" stroke="#000000" d="M116.9147,-438.008C75.2014,-417.4821 0,-371.4074 0,-306 0,-306 0,-306 0,-162 0,-106.2606 54.2365,-62.0711 92.1001,-38.013"/>
<polygon fill="#000000" stroke="#000000" points="94.1765,-40.8447 100.8545,-32.6194 90.5047,-34.885 94.1765,-40.8447"/>
<g id="a_edge14&#45;headlabel"><a xlink:href="dir_000509_000297.html" target="_top" xlink:title="1">
<text text-anchor="middle" x="92.6054" y="-42.6475" font-family="Helvetica,sans-Serif" font-size="10.00" fill="#000000">1</text>
</a>
</g>
</g>
<!-- dir_888858b226b7bc70f7e8b18d57d75108 -->
<g id="node8" class="node">
<title>dir_888858b226b7bc70f7e8b18d57d75108</title>
<g id="a_node8"><a xlink:href="dir_888858b226b7bc70f7e8b18d57d75108.html" target="_top" xlink:title="Clustering">
<polygon fill="none" stroke="#ff0000" points="630,-396 564,-396 564,-360 630,-360 630,-396"/>
<text text-anchor="middle" x="597" y="-375.5" font-family="Helvetica,sans-Serif" font-size="10.00" fill="#000000">Clustering</text>
</a>
</g>
</g>
<!-- dir_e2a306cbeddc37280b8dde7d223d74dd&#45;&gt;dir_888858b226b7bc70f7e8b18d57d75108 -->
<g id="edge15" class="edge">
<title>dir_e2a306cbeddc37280b8dde7d223d74dd&#45;&gt;dir_888858b226b7bc70f7e8b18d57d75108</title>
<path fill="none" stroke="#000000" d="M171.0983,-435.169C174.0445,-433.9458 177.0463,-432.8538 180,-432 335.3238,-387.103 383.7925,-429.3411 542,-396 545.9247,-395.1729 549.9629,-394.166 553.9837,-393.0555"/>
<polygon fill="#000000" stroke="#000000" points="555.2754,-396.3233 563.8681,-390.1252 553.2857,-389.612 555.2754,-396.3233"/>
<g id="a_edge15&#45;headlabel"><a xlink:href="dir_000509_000590.html" target="_top" xlink:title="1">
<text text-anchor="middle" x="552.636" y="-397.5671" font-family="Helvetica,sans-Serif" font-size="10.00" fill="#000000">1</text>
</a>
</g>
</g>
<!-- dir_09445408fa345a18838fb91740d089d0 -->
<g id="node9" class="node">
<title>dir_09445408fa345a18838fb91740d089d0</title>
<g id="a_node9"><a xlink:href="dir_09445408fa345a18838fb91740d089d0.html" target="_top" xlink:title="Tracking">
<polygon fill="none" stroke="#ff0000" points="385.5,-324 328.5,-324 328.5,-288 385.5,-288 385.5,-324"/>
<text text-anchor="middle" x="357" y="-303.5" font-family="Helvetica,sans-Serif" font-size="10.00" fill="#000000">Tracking</text>
</a>
</g>
</g>
<!-- dir_e2a306cbeddc37280b8dde7d223d74dd&#45;&gt;dir_09445408fa345a18838fb91740d089d0 -->
<g id="edge16" class="edge">
<title>dir_e2a306cbeddc37280b8dde7d223d74dd&#45;&gt;dir_09445408fa345a18838fb91740d089d0</title>
<path fill="none" stroke="#000000" d="M171.2198,-435.5448C174.1423,-434.2484 177.1054,-433.0364 180,-432 247.8064,-407.7214 287.481,-447.3322 338,-396 353.8568,-379.888 357.9867,-354.0755 358.5103,-334.2171"/>
<polygon fill="#000000" stroke="#000000" points="362.0104,-334.1709 358.4904,-324.1779 355.0104,-334.1849 362.0104,-334.1709"/>
<g id="a_edge16&#45;headlabel"><a xlink:href="dir_000509_000134.html" target="_top" xlink:title="15">
<text text-anchor="middle" x="364.8567" y="-335.2599" font-family="Helvetica,sans-Serif" font-size="10.00" fill="#000000">15</text>
</a>
</g>
</g>
<!-- dir_e2a306cbeddc37280b8dde7d223d74dd&#45;&gt;dir_bcbb2cf9a3d3d83e5515c82071a07177 -->
<g id="edge18" class="edge">
<title>dir_e2a306cbeddc37280b8dde7d223d74dd&#45;&gt;dir_bcbb2cf9a3d3d83e5515c82071a07177</title>
<path fill="none" stroke="#000000" d="M128.0095,-431.9169C120.3462,-422.0371 111.9834,-409.1563 108,-396 94.2172,-350.4786 107.1031,-295.0143 117.6134,-262.2106"/>
<polygon fill="#000000" stroke="#000000" points="121.0431,-262.9915 120.9056,-252.3976 114.4066,-260.765 121.0431,-262.9915"/>
<g id="a_edge18&#45;headlabel"><a xlink:href="dir_000509_000063.html" target="_top" xlink:title="175">
<text text-anchor="middle" x="122.5917" y="-264.8025" font-family="Helvetica,sans-Serif" font-size="10.00" fill="#000000">175</text>
</a>
</g>
</g>
<!-- dir_f8de85f281636d081fd2e7e06b0134d2 -->
<g id="node11" class="node">
<title>dir_f8de85f281636d081fd2e7e06b0134d2</title>
<g id="a_node11"><a xlink:href="dir_f8de85f281636d081fd2e7e06b0134d2.html" target="_top" xlink:title="Raw">
<polygon fill="none" stroke="#ff0000" points="329,-396 275,-396 275,-360 329,-360 329,-396"/>
<text text-anchor="middle" x="302" y="-375.5" font-family="Helvetica,sans-Serif" font-size="10.00" fill="#000000">Raw</text>
</a>
</g>
</g>
<!-- dir_e2a306cbeddc37280b8dde7d223d74dd&#45;&gt;dir_f8de85f281636d081fd2e7e06b0134d2 -->
<g id="edge19" class="edge">
<title>dir_e2a306cbeddc37280b8dde7d223d74dd&#45;&gt;dir_f8de85f281636d081fd2e7e06b0134d2</title>
<path fill="none" stroke="#000000" d="M171.05,-436.2777C174.0585,-434.8104 177.087,-433.3588 180,-432 216.4401,-415.0026 226.2989,-412.4261 263,-396 263.8338,-395.6268 264.6771,-395.2481 265.5271,-394.8653"/>
<polygon fill="#000000" stroke="#000000" points="267.1054,-397.9926 274.7616,-390.6691 264.2094,-391.6197 267.1054,-397.9926"/>
<g id="a_edge19&#45;headlabel"><a xlink:href="dir_000509_000456.html" target="_top" xlink:title="5">
<text text-anchor="middle" x="265.0074" y="-399.5646" font-family="Helvetica,sans-Serif" font-size="10.00" fill="#000000">5</text>
</a>
</g>
</g>
<!-- dir_26637d1bd82229bc9ed97f7e706be743 -->
<g id="node12" class="node">
<title>dir_26637d1bd82229bc9ed97f7e706be743</title>
<g id="a_node12"><a xlink:href="dir_26637d1bd82229bc9ed97f7e706be743.html" target="_top" xlink:title="Raw">
<polygon fill="none" stroke="#ff0000" points="234,-324 180,-324 180,-288 234,-288 234,-324"/>
<text text-anchor="middle" x="207" y="-303.5" font-family="Helvetica,sans-Serif" font-size="10.00" fill="#000000">Raw</text>
</a>
</g>
</g>
<!-- dir_e2a306cbeddc37280b8dde7d223d74dd&#45;&gt;dir_26637d1bd82229bc9ed97f7e706be743 -->
<g id="edge20" class="edge">
<title>dir_e2a306cbeddc37280b8dde7d223d74dd&#45;&gt;dir_26637d1bd82229bc9ed97f7e706be743</title>
<path fill="none" stroke="#000000" d="M158.0996,-431.8184C165.4202,-421.7069 174.0524,-408.6424 180,-396 189.3461,-376.1337 196.3277,-352.2809 200.8478,-334.1241"/>
<polygon fill="#000000" stroke="#000000" points="204.3076,-334.7043 203.224,-324.165 197.4987,-333.0797 204.3076,-334.7043"/>
<g id="a_edge20&#45;headlabel"><a xlink:href="dir_000509_000647.html" target="_top" xlink:title="2">
<text text-anchor="middle" x="206.2351" y="-336.3597" font-family="Helvetica,sans-Serif" font-size="10.00" fill="#000000">2</text>
</a>
</g>
</g>
<!-- dir_2171f7ec022c5423887b07c69b2f5b48 -->
<g id="node13" class="node">
<title>dir_2171f7ec022c5423887b07c69b2f5b48</title>
<g id="a_node13"><a xlink:href="dir_2171f7ec022c5423887b07c69b2f5b48.html" target="_top" xlink:title="DataFormats">
<polygon fill="none" stroke="#ff0000" points="236,-108 156,-108 156,-72 236,-72 236,-108"/>
<text text-anchor="middle" x="196" y="-87.5" font-family="Helvetica,sans-Serif" font-size="10.00" fill="#000000">DataFormats</text>
</a>
</g>
</g>
<!-- dir_e2a306cbeddc37280b8dde7d223d74dd&#45;&gt;dir_2171f7ec022c5423887b07c69b2f5b48 -->
<g id="edge21" class="edge">
<title>dir_e2a306cbeddc37280b8dde7d223d74dd&#45;&gt;dir_2171f7ec022c5423887b07c69b2f5b48</title>
<path fill="none" stroke="#000000" d="M171.1908,-435.4621C174.119,-434.1818 177.0913,-432.9963 180,-432 257.5948,-405.4227 294.1247,-443.4869 361,-396 398.849,-369.1241 414,-352.4205 414,-306 414,-306 414,-306 414,-234 414,-154.0247 310.589,-115.9056 246.2135,-99.9238"/>
<polygon fill="#000000" stroke="#000000" points="246.7777,-96.4603 236.2386,-97.5459 245.1544,-103.2695 246.7777,-96.4603"/>
<g id="a_edge21&#45;headlabel"><a xlink:href="dir_000509_000090.html" target="_top" xlink:title="8">
<text text-anchor="middle" x="250.9327" y="-92.0319" font-family="Helvetica,sans-Serif" font-size="10.00" fill="#000000">8</text>
</a>
</g>
</g>
<!-- dir_b098e3604916eca5f90f2bb1c75b7880 -->
<g id="node14" class="node">
<title>dir_b098e3604916eca5f90f2bb1c75b7880</title>
<g id="a_node14"><a xlink:href="dir_b098e3604916eca5f90f2bb1c75b7880.html" target="_top" xlink:title="Mapping">
<polygon fill="none" stroke="#ff0000" points="667,-252 609,-252 609,-216 667,-216 667,-252"/>
<text text-anchor="middle" x="638" y="-231.5" font-family="Helvetica,sans-Serif" font-size="10.00" fill="#000000">Mapping</text>
</a>
</g>
</g>
<!-- dir_e2a306cbeddc37280b8dde7d223d74dd&#45;&gt;dir_b098e3604916eca5f90f2bb1c75b7880 -->
<g id="edge22" class="edge">
<title>dir_e2a306cbeddc37280b8dde7d223d74dd&#45;&gt;dir_b098e3604916eca5f90f2bb1c75b7880</title>
<path fill="none" stroke="#000000" d="M171.0766,-435.0918C174.027,-433.8837 177.0357,-432.8163 180,-432 284.623,-403.1891 571.342,-447.2406 667,-396 714.6617,-370.4693 749.0365,-335.3873 723,-288 713.0552,-269.9002 694.1903,-257.0065 676.7546,-248.3681"/>
<polygon fill="#000000" stroke="#000000" points="677.8277,-245.0088 667.2809,-244.0008 674.8971,-251.3659 677.8277,-245.0088"/>
<g id="a_edge22&#45;headlabel"><a xlink:href="dir_000509_000579.html" target="_top" xlink:title="4">
<text text-anchor="middle" x="682.2808" y="-241.4352" font-family="Helvetica,sans-Serif" font-size="10.00" fill="#000000">4</text>
</a>
</g>
</g>
<!-- dir_6229e1f1a243f5ed3f0013dfa4f13deb&#45;&gt;dir_1155c84989a046e7de4bf0156dc4b34c -->
<g id="edge1" class="edge">
<title>dir_6229e1f1a243f5ed3f0013dfa4f13deb&#45;&gt;dir_1155c84989a046e7de4bf0156dc4b34c</title>
<path fill="none" stroke="#000000" d="M636.4104,-287.8314C614.3875,-276.8959 586.4503,-263.0236 564.4521,-252.1004"/>
<polygon fill="#000000" stroke="#000000" points="565.9357,-248.9294 555.4225,-247.6167 562.8225,-255.199 565.9357,-248.9294"/>
<g id="a_edge1&#45;headlabel"><a xlink:href="dir_000603_000151.html" target="_top" xlink:title="2">
<text text-anchor="middle" x="570.418" y="-245.485" font-family="Helvetica,sans-Serif" font-size="10.00" fill="#000000">2</text>
</a>
</g>
</g>
<!-- dir_6229e1f1a243f5ed3f0013dfa4f13deb&#45;&gt;dir_b098e3604916eca5f90f2bb1c75b7880 -->
<g id="edge2" class="edge">
<title>dir_6229e1f1a243f5ed3f0013dfa4f13deb&#45;&gt;dir_b098e3604916eca5f90f2bb1c75b7880</title>
<path fill="none" stroke="#000000" d="M664.168,-287.8314C660.3014,-279.8771 655.6794,-270.369 651.4032,-261.5723"/>
<polygon fill="#000000" stroke="#000000" points="654.4707,-259.8768 646.9509,-252.4133 648.1751,-262.9371 654.4707,-259.8768"/>
<g id="a_edge2&#45;headlabel"><a xlink:href="dir_000603_000579.html" target="_top" xlink:title="2">
<text text-anchor="middle" x="658.5957" y="-259.3683" font-family="Helvetica,sans-Serif" font-size="10.00" fill="#000000">2</text>
</a>
</g>
</g>
<!-- dir_4ab6b4cc6a7edbff49100e9123df213f&#45;&gt;dir_bcbb2cf9a3d3d83e5515c82071a07177 -->
<g id="edge3" class="edge">
<title>dir_4ab6b4cc6a7edbff49100e9123df213f&#45;&gt;dir_bcbb2cf9a3d3d83e5515c82071a07177</title>
<path fill="none" stroke="#000000" d="M184.5857,-180.4133C177.3024,-188.9938 167.6978,-199.3414 158.4257,-208.6463"/>
<polygon fill="#000000" stroke="#000000" points="155.7926,-206.3266 151.1117,-215.8314 160.6981,-211.3202 155.7926,-206.3266"/>
<g id="a_edge3&#45;headlabel"><a xlink:href="dir_000036_000063.html" target="_top" xlink:title="2">
<text text-anchor="middle" x="156.3671" y="-199.2822" font-family="Helvetica,sans-Serif" font-size="10.00" fill="#000000">2</text>
</a>
</g>
</g>
<!-- dir_4ab6b4cc6a7edbff49100e9123df213f&#45;&gt;dir_2171f7ec022c5423887b07c69b2f5b48 -->
<g id="edge4" class="edge">
<title>dir_4ab6b4cc6a7edbff49100e9123df213f&#45;&gt;dir_2171f7ec022c5423887b07c69b2f5b48</title>
<path fill="none" stroke="#000000" d="M190.0476,-143.8314C189.2972,-136.131 189.0763,-126.9743 189.3849,-118.4166"/>
<polygon fill="#000000" stroke="#000000" points="192.8792,-118.6161 190.024,-108.4133 185.8935,-118.1697 192.8792,-118.6161"/>
<g id="a_edge4&#45;headlabel"><a xlink:href="dir_000036_000090.html" target="_top" xlink:title="2">
<text text-anchor="middle" x="195.4836" y="-119.8844" font-family="Helvetica,sans-Serif" font-size="10.00" fill="#000000">2</text>
</a>
</g>
</g>
<!-- dir_37c90836491b695b472bf98d1be8336b&#45;&gt;dir_4ab6b4cc6a7edbff49100e9123df213f -->
<g id="edge5" class="edge">
<title>dir_37c90836491b695b472bf98d1be8336b&#45;&gt;dir_4ab6b4cc6a7edbff49100e9123df213f</title>
<path fill="none" stroke="#000000" d="M129.0418,-36.1743C130.7453,-55.0422 135.2266,-84.9638 147,-108 152.2931,-118.3566 160.0981,-128.2346 167.9303,-136.6437"/>
<polygon fill="#000000" stroke="#000000" points="165.5626,-139.2284 175.0595,-143.925 170.5643,-134.3311 165.5626,-139.2284"/>
<g id="a_edge5&#45;headlabel"><a xlink:href="dir_000297_000036.html" target="_top" xlink:title="16">
<text text-anchor="middle" x="161.0191" y="-136.1463" font-family="Helvetica,sans-Serif" font-size="10.00" fill="#000000">16</text>
</a>
</g>
</g>
<!-- dir_37c90836491b695b472bf98d1be8336b&#45;&gt;dir_bcbb2cf9a3d3d83e5515c82071a07177 -->
<g id="edge6" class="edge">
<title>dir_37c90836491b695b472bf98d1be8336b&#45;&gt;dir_bcbb2cf9a3d3d83e5515c82071a07177</title>
<path fill="none" stroke="#000000" d="M128,-36.1451C128,-73.7945 128,-160.6409 128,-205.7103"/>
<polygon fill="#000000" stroke="#000000" points="124.5001,-205.9554 128,-215.9555 131.5001,-205.9555 124.5001,-205.9554"/>
<g id="a_edge6&#45;headlabel"><a xlink:href="dir_000297_000063.html" target="_top" xlink:title="1">
<text text-anchor="middle" x="121.6607" y="-199.8609" font-family="Helvetica,sans-Serif" font-size="10.00" fill="#000000">1</text>
</a>
</g>
</g>
<!-- dir_37c90836491b695b472bf98d1be8336b&#45;&gt;dir_2171f7ec022c5423887b07c69b2f5b48 -->
<g id="edge7" class="edge">
<title>dir_37c90836491b695b472bf98d1be8336b&#45;&gt;dir_2171f7ec022c5423887b07c69b2f5b48</title>
<path fill="none" stroke="#000000" d="M151.1056,-36.1628C159.9006,-44.6038 169.7127,-54.7956 177.9846,-64.0303"/>
<polygon fill="#000000" stroke="#000000" points="175.5806,-66.5987 184.7931,-71.8314 180.8545,-61.9958 175.5806,-66.5987"/>
<g id="a_edge7&#45;headlabel"><a xlink:href="dir_000297_000090.html" target="_top" xlink:title="15">
<text text-anchor="middle" x="171.0779" y="-63.2575" font-family="Helvetica,sans-Serif" font-size="10.00" fill="#000000">15</text>
</a>
</g>
</g>
<!-- dir_888858b226b7bc70f7e8b18d57d75108&#45;&gt;dir_6229e1f1a243f5ed3f0013dfa4f13deb -->
<g id="edge8" class="edge">
<title>dir_888858b226b7bc70f7e8b18d57d75108&#45;&gt;dir_6229e1f1a243f5ed3f0013dfa4f13deb</title>
<path fill="none" stroke="#000000" d="M616.178,-359.8314C625.3588,-351.1337 636.5006,-340.5783 646.4776,-331.1265"/>
<polygon fill="#000000" stroke="#000000" points="648.9757,-333.5811 653.8281,-324.1628 644.1615,-328.4995 648.9757,-333.5811"/>
<g id="a_edge8&#45;headlabel"><a xlink:href="dir_000590_000603.html" target="_top" xlink:title="1">
<text text-anchor="middle" x="648.3189" y="-335.6145" font-family="Helvetica,sans-Serif" font-size="10.00" fill="#000000">1</text>
</a>
</g>
</g>
<!-- dir_888858b226b7bc70f7e8b18d57d75108&#45;&gt;dir_1155c84989a046e7de4bf0156dc4b34c -->
<g id="edge9" class="edge">
<title>dir_888858b226b7bc70f7e8b18d57d75108&#45;&gt;dir_1155c84989a046e7de4bf0156dc4b34c</title>
<path fill="none" stroke="#000000" d="M588.2611,-359.7623C576.3366,-334.8764 554.8727,-290.0822 541.0412,-261.2165"/>
<polygon fill="#000000" stroke="#000000" points="544.1456,-259.5953 536.6679,-252.0896 537.8328,-262.6202 544.1456,-259.5953"/>
<g id="a_edge9&#45;headlabel"><a xlink:href="dir_000590_000151.html" target="_top" xlink:title="2">
<text text-anchor="middle" x="548.2593" y="-259.1101" font-family="Helvetica,sans-Serif" font-size="10.00" fill="#000000">2</text>
</a>
</g>
</g>
<!-- dir_888858b226b7bc70f7e8b18d57d75108&#45;&gt;dir_b098e3604916eca5f90f2bb1c75b7880 -->
<g id="edge10" class="edge">
<title>dir_888858b226b7bc70f7e8b18d57d75108&#45;&gt;dir_b098e3604916eca5f90f2bb1c75b7880</title>
<path fill="none" stroke="#000000" d="M602.1927,-359.7623C609.2166,-335.0928 621.8108,-290.8598 630.0354,-261.9731"/>
<polygon fill="#000000" stroke="#000000" points="633.4772,-262.6658 632.8495,-252.0896 626.7448,-260.7489 633.4772,-262.6658"/>
<g id="a_edge10&#45;headlabel"><a xlink:href="dir_000590_000579.html" target="_top" xlink:title="1">
<text text-anchor="middle" x="635.2237" y="-264.4005" font-family="Helvetica,sans-Serif" font-size="10.00" fill="#000000">1</text>
</a>
</g>
</g>
<!-- dir_09445408fa345a18838fb91740d089d0&#45;&gt;dir_4ab6b4cc6a7edbff49100e9123df213f -->
<g id="edge23" class="edge">
<title>dir_09445408fa345a18838fb91740d089d0&#45;&gt;dir_4ab6b4cc6a7edbff49100e9123df213f</title>
<path fill="none" stroke="#000000" d="M336.6092,-287.7623C308.0596,-262.2272 256.0749,-215.7316 223.9408,-186.9906"/>
<polygon fill="#000000" stroke="#000000" points="226.0122,-184.1475 216.2252,-180.0896 221.3455,-189.365 226.0122,-184.1475"/>
<g id="a_edge23&#45;headlabel"><a xlink:href="dir_000134_000036.html" target="_top" xlink:title="3">
<text text-anchor="middle" x="230.5843" y="-181.9275" font-family="Helvetica,sans-Serif" font-size="10.00" fill="#000000">3</text>
</a>
</g>
</g>
<!-- dir_09445408fa345a18838fb91740d089d0&#45;&gt;dir_1155c84989a046e7de4bf0156dc4b34c -->
<g id="edge24" class="edge">
<title>dir_09445408fa345a18838fb91740d089d0&#45;&gt;dir_1155c84989a046e7de4bf0156dc4b34c</title>
<path fill="none" stroke="#000000" d="M385.6216,-293.9488C414.7449,-281.6864 459.9817,-262.6393 491.6278,-249.3146"/>
<polygon fill="#000000" stroke="#000000" points="493.1216,-252.4833 500.9797,-245.3769 490.4052,-246.0319 493.1216,-252.4833"/>
<g id="a_edge24&#45;headlabel"><a xlink:href="dir_000134_000151.html" target="_top" xlink:title="2">
<text text-anchor="middle" x="490.9105" y="-253.9949" font-family="Helvetica,sans-Serif" font-size="10.00" fill="#000000">2</text>
</a>
</g>
</g>
<!-- dir_bcbb2cf9a3d3d83e5515c82071a07177&#45;&gt;dir_4ab6b4cc6a7edbff49100e9123df213f -->
<g id="edge26" class="edge">
<title>dir_bcbb2cf9a3d3d83e5515c82071a07177&#45;&gt;dir_4ab6b4cc6a7edbff49100e9123df213f</title>
<path fill="none" stroke="#000000" d="M139.2069,-215.8314C146.5015,-207.219 156.1788,-196.7851 165.5234,-187.4048"/>
<polygon fill="#000000" stroke="#000000" points="168.2141,-189.6679 172.8944,-180.1628 163.3082,-184.6746 168.2141,-189.6679"/>
<g id="a_edge26&#45;headlabel"><a xlink:href="dir_000063_000036.html" target="_top" xlink:title="8">
<text text-anchor="middle" x="167.6399" y="-191.7124" font-family="Helvetica,sans-Serif" font-size="10.00" fill="#000000">8</text>
</a>
</g>
</g>
<!-- dir_bcbb2cf9a3d3d83e5515c82071a07177&#45;&gt;dir_2171f7ec022c5423887b07c69b2f5b48 -->
<g id="edge27" class="edge">
<title>dir_bcbb2cf9a3d3d83e5515c82071a07177&#45;&gt;dir_2171f7ec022c5423887b07c69b2f5b48</title>
<path fill="none" stroke="#000000" d="M125.3241,-215.7588C127.6705,-197.0985 136.0632,-167.5808 148,-144 152.9079,-134.3045 159.4675,-124.451 166.2501,-115.8618"/>
<polygon fill="#000000" stroke="#000000" points="169.0439,-117.9769 172.7747,-108.0606 163.6743,-113.486 169.0439,-117.9769"/>
<g id="a_edge27&#45;headlabel"><a xlink:href="dir_000063_000090.html" target="_top" xlink:title="73">
<text text-anchor="middle" x="168.9158" y="-120.0557" font-family="Helvetica,sans-Serif" font-size="10.00" fill="#000000">73</text>
</a>
</g>
</g>
<!-- dir_f8de85f281636d081fd2e7e06b0134d2&#45;&gt;dir_4ab6b4cc6a7edbff49100e9123df213f -->
<g id="edge31" class="edge">
<title>dir_f8de85f281636d081fd2e7e06b0134d2&#45;&gt;dir_4ab6b4cc6a7edbff49100e9123df213f</title>
<path fill="none" stroke="#000000" d="M293.1448,-359.9555C274.5559,-322.0762 231.3735,-234.0818 209.3845,-189.274"/>
<polygon fill="#000000" stroke="#000000" points="212.4521,-187.5804 204.9045,-180.1451 206.168,-190.6643 212.4521,-187.5804"/>
<g id="a_edge31&#45;headlabel"><a xlink:href="dir_000456_000036.html" target="_top" xlink:title="1">
<text text-anchor="middle" x="216.5846" y="-187.0566" font-family="Helvetica,sans-Serif" font-size="10.00" fill="#000000">1</text>
</a>
</g>
</g>
<!-- dir_f8de85f281636d081fd2e7e06b0134d2&#45;&gt;dir_1155c84989a046e7de4bf0156dc4b34c -->
<g id="edge32" class="edge">
<title>dir_f8de85f281636d081fd2e7e06b0134d2&#45;&gt;dir_1155c84989a046e7de4bf0156dc4b34c</title>
<path fill="none" stroke="#000000" d="M329.1522,-362.8877C347.8574,-352.3184 373.1772,-337.6967 395,-324 429.3063,-302.4683 467.5076,-276.3907 494.135,-257.8608"/>
<polygon fill="#000000" stroke="#000000" points="496.1563,-260.7182 502.3539,-252.1251 492.1503,-254.9778 496.1563,-260.7182"/>
<g id="a_edge32&#45;headlabel"><a xlink:href="dir_000456_000151.html" target="_top" xlink:title="5">
<text text-anchor="middle" x="494.8334" y="-262.6036" font-family="Helvetica,sans-Serif" font-size="10.00" fill="#000000">5</text>
</a>
</g>
</g>
<!-- dir_f8de85f281636d081fd2e7e06b0134d2&#45;&gt;dir_bcbb2cf9a3d3d83e5515c82071a07177 -->
<g id="edge33" class="edge">
<title>dir_f8de85f281636d081fd2e7e06b0134d2&#45;&gt;dir_bcbb2cf9a3d3d83e5515c82071a07177</title>
<path fill="none" stroke="#000000" d="M284.7592,-359.6487C278.425,-353.8604 270.8661,-347.9517 263,-344 225.6091,-325.2162 203.8093,-349.9705 171,-324 151.5752,-308.6241 140.4321,-282.3265 134.3809,-262.116"/>
<polygon fill="#000000" stroke="#000000" points="137.6803,-260.9128 131.6637,-252.1922 130.9288,-262.7615 137.6803,-260.9128"/>
<g id="a_edge33&#45;headlabel"><a xlink:href="dir_000456_000063.html" target="_top" xlink:title="2">
<text text-anchor="middle" x="141.368" y="-261.1301" font-family="Helvetica,sans-Serif" font-size="10.00" fill="#000000">2</text>
</a>
</g>
</g>
<!-- dir_f8de85f281636d081fd2e7e06b0134d2&#45;&gt;dir_26637d1bd82229bc9ed97f7e706be743 -->
<g id="edge34" class="edge">
<title>dir_f8de85f281636d081fd2e7e06b0134d2&#45;&gt;dir_26637d1bd82229bc9ed97f7e706be743</title>
<path fill="none" stroke="#000000" d="M282.1488,-359.8771C276.1246,-354.6023 269.4033,-348.9349 263,-344 256.5874,-339.058 249.5698,-334.0233 242.7373,-329.3039"/>
<polygon fill="#000000" stroke="#000000" points="244.4785,-326.2553 234.2414,-323.5253 240.5416,-332.0434 244.4785,-326.2553"/>
<g id="a_edge34&#45;headlabel"><a xlink:href="dir_000456_000647.html" target="_top" xlink:title="11">
<text text-anchor="middle" x="249.0475" y="-323.4292" font-family="Helvetica,sans-Serif" font-size="10.00" fill="#000000">11</text>
</a>
</g>
</g>
<!-- dir_f8de85f281636d081fd2e7e06b0134d2&#45;&gt;dir_2171f7ec022c5423887b07c69b2f5b48 -->
<g id="edge35" class="edge">
<title>dir_f8de85f281636d081fd2e7e06b0134d2&#45;&gt;dir_2171f7ec022c5423887b07c69b2f5b48</title>
<path fill="none" stroke="#000000" d="M301.6608,-359.7335C300.1686,-318.5982 292.3452,-216.6308 252,-144 245.9539,-133.1157 237.0004,-123.0678 228.0174,-114.6655"/>
<polygon fill="#000000" stroke="#000000" points="230.3286,-112.037 220.528,-108.0122 225.6796,-117.2703 230.3286,-112.037"/>
<g id="a_edge35&#45;headlabel"><a xlink:href="dir_000456_000090.html" target="_top" xlink:title="13">
<text text-anchor="middle" x="234.9016" y="-109.8016" font-family="Helvetica,sans-Serif" font-size="10.00" fill="#000000">13</text>
</a>
</g>
</g>
<!-- dir_f8de85f281636d081fd2e7e06b0134d2&#45;&gt;dir_b098e3604916eca5f90f2bb1c75b7880 -->
<g id="edge36" class="edge">
<title>dir_f8de85f281636d081fd2e7e06b0134d2&#45;&gt;dir_b098e3604916eca5f90f2bb1c75b7880</title>
<path fill="none" stroke="#000000" d="M329.1396,-367.1481C355.8883,-356.3936 397.8823,-339.3515 434,-324 491.8827,-299.3975 558.4645,-269.7716 599.3881,-251.4086"/>
<polygon fill="#000000" stroke="#000000" points="601.0302,-254.508 608.7181,-247.2178 598.1619,-248.1226 601.0302,-254.508"/>
<g id="a_edge36&#45;headlabel"><a xlink:href="dir_000456_000579.html" target="_top" xlink:title="1">
<text text-anchor="middle" x="598.9145" y="-256.0708" font-family="Helvetica,sans-Serif" font-size="10.00" fill="#000000">1</text>
</a>
</g>
</g>
<!-- dir_26637d1bd82229bc9ed97f7e706be743&#45;&gt;dir_4ab6b4cc6a7edbff49100e9123df213f -->
<g id="edge28" class="edge">
<title>dir_26637d1bd82229bc9ed97f7e706be743&#45;&gt;dir_4ab6b4cc6a7edbff49100e9123df213f</title>
<path fill="none" stroke="#000000" d="M205.6068,-287.7623C203.7306,-263.201 200.3731,-219.2474 198.1659,-190.3541"/>
<polygon fill="#000000" stroke="#000000" points="201.6334,-189.794 197.3818,-180.0896 194.6538,-190.3272 201.6334,-189.794"/>
<g id="a_edge28&#45;headlabel"><a xlink:href="dir_000647_000036.html" target="_top" xlink:title="10">
<text text-anchor="middle" x="204.7382" y="-190.6619" font-family="Helvetica,sans-Serif" font-size="10.00" fill="#000000">10</text>
</a>
</g>
</g>
<!-- dir_26637d1bd82229bc9ed97f7e706be743&#45;&gt;dir_bcbb2cf9a3d3d83e5515c82071a07177 -->
<g id="edge29" class="edge">
<title>dir_26637d1bd82229bc9ed97f7e706be743&#45;&gt;dir_bcbb2cf9a3d3d83e5515c82071a07177</title>
<path fill="none" stroke="#000000" d="M187.065,-287.8314C177.5217,-279.1337 165.9401,-268.5783 155.5694,-259.1265"/>
<polygon fill="#000000" stroke="#000000" points="157.6772,-256.3121 147.9287,-252.1628 152.962,-261.4857 157.6772,-256.3121"/>
<g id="a_edge29&#45;headlabel"><a xlink:href="dir_000647_000063.html" target="_top" xlink:title="25">
<text text-anchor="middle" x="162.2465" y="-254.1349" font-family="Helvetica,sans-Serif" font-size="10.00" fill="#000000">25</text>
</a>
</g>
</g>
<!-- dir_26637d1bd82229bc9ed97f7e706be743&#45;&gt;dir_2171f7ec022c5423887b07c69b2f5b48 -->
<g id="edge30" class="edge">
<title>dir_26637d1bd82229bc9ed97f7e706be743&#45;&gt;dir_2171f7ec022c5423887b07c69b2f5b48</title>
<path fill="none" stroke="#000000" d="M216.0549,-287.6066C229.7996,-257.1176 252.6555,-194.4667 236,-144 232.7092,-134.0288 226.7884,-124.3944 220.4936,-116.0924"/>
<polygon fill="#000000" stroke="#000000" points="223.172,-113.8384 214.1576,-108.2714 217.7328,-118.2448 223.172,-113.8384"/>
<g id="a_edge30&#45;headlabel"><a xlink:href="dir_000647_000090.html" target="_top" xlink:title="15">
<text text-anchor="middle" x="227.6408" y="-112.3442" font-family="Helvetica,sans-Serif" font-size="10.00" fill="#000000">15</text>
</a>
</g>
</g>
<!-- dir_2171f7ec022c5423887b07c69b2f5b48&#45;&gt;dir_4ab6b4cc6a7edbff49100e9123df213f -->
<g id="edge37" class="edge">
<title>dir_2171f7ec022c5423887b07c69b2f5b48&#45;&gt;dir_4ab6b4cc6a7edbff49100e9123df213f</title>
<path fill="none" stroke="#000000" d="M201.976,-108.4133C202.7071,-116.0593 202.9203,-125.1084 202.6155,-133.5726"/>
<polygon fill="#000000" stroke="#000000" points="199.1048,-133.6264 201.9524,-143.8314 206.0902,-134.078 199.1048,-133.6264"/>
<g id="a_edge37&#45;headlabel"><a xlink:href="dir_000090_000036.html" target="_top" xlink:title="38">
<text text-anchor="middle" x="196.5032" y="-127.3562" font-family="Helvetica,sans-Serif" font-size="10.00" fill="#000000">38</text>
</a>
</g>
</g>
<!-- dir_2171f7ec022c5423887b07c69b2f5b48&#45;&gt;dir_37c90836491b695b472bf98d1be8336b -->
<g id="edge38" class="edge">
<title>dir_2171f7ec022c5423887b07c69b2f5b48&#45;&gt;dir_37c90836491b695b472bf98d1be8336b</title>
<path fill="none" stroke="#000000" d="M172.8883,-71.8314C164.16,-63.454 154.4306,-53.3531 146.1994,-44.1749"/>
<polygon fill="#000000" stroke="#000000" points="148.631,-41.6386 139.4143,-36.4133 143.3608,-46.2457 148.631,-41.6386"/>
<g id="a_edge38&#45;headlabel"><a xlink:href="dir_000090_000297.html" target="_top" xlink:title="1">
<text text-anchor="middle" x="153.1344" y="-39.9762" font-family="Helvetica,sans-Serif" font-size="10.00" fill="#000000">1</text>
</a>
</g>
</g>
<!-- dir_2171f7ec022c5423887b07c69b2f5b48&#45;&gt;dir_bcbb2cf9a3d3d83e5515c82071a07177 -->
<g id="edge39" class="edge">
<title>dir_2171f7ec022c5423887b07c69b2f5b48&#45;&gt;dir_bcbb2cf9a3d3d83e5515c82071a07177</title>
<path fill="none" stroke="#000000" d="M188.7291,-108.0606C181.829,-118.1367 172.4764,-131.206 166,-144 155.9283,-163.8963 148.3797,-188.0192 142.1678,-206.2806"/>
<polygon fill="#000000" stroke="#000000" points="138.8504,-205.1639 138.8466,-215.7588 145.4566,-207.4788 138.8504,-205.1639"/>
<g id="a_edge39&#45;headlabel"><a xlink:href="dir_000090_000063.html" target="_top" xlink:title="22">
<text text-anchor="middle" x="137.3595" y="-198.3327" font-family="Helvetica,sans-Serif" font-size="10.00" fill="#000000">22</text>
</a>
</g>
</g>
</g>
</svg>
