<?xml version="1.0" encoding="UTF-8" standalone="no"?>
<!DOCTYPE svg PUBLIC "-//W3C//DTD SVG 1.1//EN"
 "http://www.w3.org/Graphics/SVG/1.1/DTD/svg11.dtd">
<!-- Generated by graphviz version 2.40.1 (20161225.0304)
 -->
<!-- Title: /home/travis/build/AliceO2Group/AliceO2/Detectors/DCS/include Pages: 1 -->
<svg width="225pt" height="303pt"
 viewBox="0.00 0.00 224.50 303.00" xmlns="http://www.w3.org/2000/svg" xmlns:xlink="http://www.w3.org/1999/xlink">
<g id="graph0" class="graph" transform="scale(1 1) rotate(0) translate(4 299)">
<title>/home/travis/build/AliceO2Group/AliceO2/Detectors/DCS/include</title>
<g id="clust1" class="cluster">
<title>clusterdir_ca1300042d29623fa0e05e87bb12f4ef</title>
<g id="a_clust1"><a xlink:href="dir_ca1300042d29623fa0e05e87bb12f4ef.html" target="_top" xlink:title="DCS">
<polygon fill="#ddddee" stroke="#000000" points="20.5,-200 20.5,-287 208.5,-287 208.5,-200 20.5,-200"/>
<text text-anchor="middle" x="114.5" y="-275" font-family="Helvetica,sans-Serif" font-size="10.00" fill="#000000">DCS</text>
</a>
</g>
</g>
<g id="clust2" class="cluster">
<title>clusterdir_c95f3e1f9928aa536053908b0b0602c6</title>
<g id="a_clust2"><a xlink:href="dir_c95f3e1f9928aa536053908b0b0602c6.html" target="_top">
<polygon fill="#eeeeff" stroke="#000000" points="28.5,-208 28.5,-260 200.5,-260 200.5,-208 28.5,-208"/>
</a>
</g>
</g>
<!-- dir_c95f3e1f9928aa536053908b0b0602c6 -->
<g id="node1" class="node">
<title>dir_c95f3e1f9928aa536053908b0b0602c6</title>
<text text-anchor="middle" x="165.5" y="-231.5" font-family="Helvetica,sans-Serif" font-size="10.00" fill="#000000">include</text>
</g>
<!-- dir_9a464a5d7576b97b39f904b6d49c2b1d -->
<g id="node2" class="node">
<title>dir_9a464a5d7576b97b39f904b6d49c2b1d</title>
<g id="a_node2"><a xlink:href="dir_9a464a5d7576b97b39f904b6d49c2b1d.html" target="_top" xlink:title="DetectorsDCS">
<polygon fill="#ffffff" stroke="#000000" points="120.5,-252 36.5,-252 36.5,-216 120.5,-216 120.5,-252"/>
<text text-anchor="middle" x="78.5" y="-231.5" font-family="Helvetica,sans-Serif" font-size="10.00" fill="#000000">DetectorsDCS</text>
</a>
</g>
</g>
<!-- dir_4ab6b4cc6a7edbff49100e9123df213f -->
<g id="node3" class="node">
<title>dir_4ab6b4cc6a7edbff49100e9123df213f</title>
<g id="a_node3"><a xlink:href="dir_4ab6b4cc6a7edbff49100e9123df213f.html" target="_top" xlink:title="Common">
<polygon fill="none" stroke="#ff0000" points="61,-108 0,-108 0,-72 61,-72 61,-108"/>
<text text-anchor="middle" x="30.5" y="-87.5" font-family="Helvetica,sans-Serif" font-size="10.00" fill="#000000">Common</text>
</a>
</g>
</g>
<!-- dir_9a464a5d7576b97b39f904b6d49c2b1d&#45;&gt;dir_4ab6b4cc6a7edbff49100e9123df213f -->
<g id="edge4" class="edge">
<title>dir_9a464a5d7576b97b39f904b6d49c2b1d&#45;&gt;dir_4ab6b4cc6a7edbff49100e9123df213f</title>
<path fill="none" stroke="#000000" d="M63.2185,-215.6764C55.7492,-205.7307 47.346,-192.8636 42.5,-180 35.0559,-160.2396 32.1166,-136.5163 31.0059,-118.388"/>
<polygon fill="#000000" stroke="#000000" points="34.4919,-117.9997 30.5348,-108.1715 27.4993,-118.3222 34.4919,-117.9997"/>
<g id="a_edge4&#45;headlabel"><a xlink:href="dir_000087_000036.html" target="_top" xlink:title="1">
<text text-anchor="middle" x="37.4936" y="-118.9597" font-family="Helvetica,sans-Serif" font-size="10.00" fill="#000000">1</text>
</a>
</g>
</g>
<!-- dir_6af676bf18881990e4083e191d0e63e0 -->
<g id="node4" class="node">
<title>dir_6af676bf18881990e4083e191d0e63e0</title>
<g id="a_node4"><a xlink:href="dir_6af676bf18881990e4083e191d0e63e0.html" target="_top" xlink:title="CCDB">
<polygon fill="none" stroke="#ff0000" points="105.5,-180 51.5,-180 51.5,-144 105.5,-144 105.5,-180"/>
<text text-anchor="middle" x="78.5" y="-159.5" font-family="Helvetica,sans-Serif" font-size="10.00" fill="#000000">CCDB</text>
</a>
</g>
</g>
<!-- dir_9a464a5d7576b97b39f904b6d49c2b1d&#45;&gt;dir_6af676bf18881990e4083e191d0e63e0 -->
<g id="edge5" class="edge">
<title>dir_9a464a5d7576b97b39f904b6d49c2b1d&#45;&gt;dir_6af676bf18881990e4083e191d0e63e0</title>
<path fill="none" stroke="#000000" d="M78.5,-215.8314C78.5,-208.131 78.5,-198.9743 78.5,-190.4166"/>
<polygon fill="#000000" stroke="#000000" points="82.0001,-190.4132 78.5,-180.4133 75.0001,-190.4133 82.0001,-190.4132"/>
<g id="a_edge5&#45;headlabel"><a xlink:href="dir_000087_000028.html" target="_top" xlink:title="2">
<text text-anchor="middle" x="84.8393" y="-191.5079" font-family="Helvetica,sans-Serif" font-size="10.00" fill="#000000">2</text>
</a>
</g>
</g>
<!-- dir_bcbb2cf9a3d3d83e5515c82071a07177 -->
<g id="node5" class="node">
<title>dir_bcbb2cf9a3d3d83e5515c82071a07177</title>
<g id="a_node5"><a xlink:href="dir_bcbb2cf9a3d3d83e5515c82071a07177.html" target="_top" xlink:title="Framework">
<polygon fill="none" stroke="#ff0000" points="95,-36 24,-36 24,0 95,0 95,-36"/>
<text text-anchor="middle" x="59.5" y="-15.5" font-family="Helvetica,sans-Serif" font-size="10.00" fill="#000000">Framework</text>
</a>
</g>
</g>
<!-- dir_9a464a5d7576b97b39f904b6d49c2b1d&#45;&gt;dir_bcbb2cf9a3d3d83e5515c82071a07177 -->
<g id="edge6" class="edge">
<title>dir_9a464a5d7576b97b39f904b6d49c2b1d&#45;&gt;dir_bcbb2cf9a3d3d83e5515c82071a07177</title>
<path fill="none" stroke="#000000" d="M94.4905,-215.9169C102.1538,-206.0371 110.5166,-193.1563 114.5,-180 119.1365,-164.6865 117.4502,-159.7257 114.5,-144 107.7489,-108.0134 89.3396,-69.9118 75.6681,-45.1518"/>
<polygon fill="#000000" stroke="#000000" points="78.6606,-43.333 70.6945,-36.3478 72.5658,-46.776 78.6606,-43.333"/>
<g id="a_edge6&#45;headlabel"><a xlink:href="dir_000087_000063.html" target="_top" xlink:title="1">
<text text-anchor="middle" x="82.9006" y="-42.5662" font-family="Helvetica,sans-Serif" font-size="10.00" fill="#000000">1</text>
</a>
</g>
</g>
<!-- dir_4ab6b4cc6a7edbff49100e9123df213f&#45;&gt;dir_bcbb2cf9a3d3d83e5515c82071a07177 -->
<g id="edge1" class="edge">
<title>dir_4ab6b4cc6a7edbff49100e9123df213f&#45;&gt;dir_bcbb2cf9a3d3d83e5515c82071a07177</title>
<path fill="none" stroke="#000000" d="M31.8655,-71.8314C34.2942,-63.8771 37.9137,-54.369 41.8117,-45.5723"/>
<polygon fill="#000000" stroke="#000000" points="45.0298,-46.9532 46.1075,-36.4133 38.6923,-43.9806 45.0298,-46.9532"/>
<g id="a_edge1&#45;headlabel"><a xlink:href="dir_000036_000063.html" target="_top" xlink:title="2">
<text text-anchor="middle" x="46.074" y="-48.9132" font-family="Helvetica,sans-Serif" font-size="10.00" fill="#000000">2</text>
</a>
</g>
</g>
<!-- dir_6af676bf18881990e4083e191d0e63e0&#45;&gt;dir_4ab6b4cc6a7edbff49100e9123df213f -->
<g id="edge2" class="edge">
<title>dir_6af676bf18881990e4083e191d0e63e0&#45;&gt;dir_4ab6b4cc6a7edbff49100e9123df213f</title>
<path fill="none" stroke="#000000" d="M66.3876,-143.8314C60.9719,-135.7079 54.4758,-125.9637 48.5079,-117.0118"/>
<polygon fill="#000000" stroke="#000000" points="51.2347,-114.7923 42.7755,-108.4133 45.4104,-118.6753 51.2347,-114.7923"/>
<g id="a_edge2&#45;headlabel"><a xlink:href="dir_000028_000036.html" target="_top" xlink:title="4">
<text text-anchor="middle" x="55.591" y="-113.7083" font-family="Helvetica,sans-Serif" font-size="10.00" fill="#000000">4</text>
</a>
</g>
</g>
<!-- dir_6af676bf18881990e4083e191d0e63e0&#45;&gt;dir_bcbb2cf9a3d3d83e5515c82071a07177 -->
<g id="edge3" class="edge">
<title>dir_6af676bf18881990e4083e191d0e63e0&#45;&gt;dir_bcbb2cf9a3d3d83e5515c82071a07177</title>
<path fill="none" stroke="#000000" d="M77.1182,-143.6745C75.6381,-125.4502 73.0184,-96.7185 69.5,-72 68.3097,-63.6374 66.7456,-54.5956 65.209,-46.3463"/>
<polygon fill="#000000" stroke="#000000" points="68.6285,-45.5935 63.3075,-36.4317 61.7538,-46.912 68.6285,-45.5935"/>
<g id="a_edge3&#45;headlabel"><a xlink:href="dir_000028_000063.html" target="_top" xlink:title="2">
<text text-anchor="middle" x="72.0939" y="-46.089" font-family="Helvetica,sans-Serif" font-size="10.00" fill="#000000">2</text>
</a>
</g>
</g>
<!-- dir_bcbb2cf9a3d3d83e5515c82071a07177&#45;&gt;dir_4ab6b4cc6a7edbff49100e9123df213f -->
<g id="edge7" class="edge">
<title>dir_bcbb2cf9a3d3d83e5515c82071a07177&#45;&gt;dir_4ab6b4cc6a7edbff49100e9123df213f</title>
<path fill="none" stroke="#000000" d="M58.0596,-36.4133C55.6066,-44.3991 51.9722,-53.9155 48.0686,-62.6975"/>
<polygon fill="#000000" stroke="#000000" points="44.8615,-61.2929 43.7703,-71.8314 51.1952,-64.2735 44.8615,-61.2929"/>
<g id="a_edge7&#45;headlabel"><a xlink:href="dir_000063_000036.html" target="_top" xlink:title="8">
<text text-anchor="middle" x="43.823" y="-54.3315" font-family="Helvetica,sans-Serif" font-size="10.00" fill="#000000">8</text>
</a>
</g>
</g>
</g>
</svg>
