<?xml version="1.0" encoding="UTF-8" standalone="no"?>
<!DOCTYPE svg PUBLIC "-//W3C//DTD SVG 1.1//EN"
 "http://www.w3.org/Graphics/SVG/1.1/DTD/svg11.dtd">
<!-- Generated by graphviz version 2.40.1 (20161225.0304)
 -->
<!-- Title: /home/travis/build/AliceO2Group/AliceO2/Detectors/FIT/FDD/reconstruction/src Pages: 1 -->
<svg width="241pt" height="367pt"
 viewBox="0.00 0.00 240.78 367.00" xmlns="http://www.w3.org/2000/svg" xmlns:xlink="http://www.w3.org/1999/xlink">
<g id="graph0" class="graph" transform="scale(1 1) rotate(0) translate(4 363)">
<title>/home/travis/build/AliceO2Group/AliceO2/Detectors/FIT/FDD/reconstruction/src</title>
<g id="clust1" class="cluster">
<title>clusterdir_d5c094e363832484c79758a29eb05a6f</title>
<g id="a_clust1"><a xlink:href="dir_d5c094e363832484c79758a29eb05a6f.html" target="_top" xlink:title="reconstruction">
<polygon fill="#ddddee" stroke="#000000" points="61.7771,-280 61.7771,-351 147.7771,-351 147.7771,-280 61.7771,-280"/>
<text text-anchor="middle" x="104.7771" y="-339" font-family="Helvetica,sans-Serif" font-size="10.00" fill="#000000">reconstruction</text>
</a>
</g>
</g>
<!-- dir_4d650ce6f8ed000c2c2a6bba7466aa94 -->
<g id="node1" class="node">
<title>dir_4d650ce6f8ed000c2c2a6bba7466aa94</title>
<g id="a_node1"><a xlink:href="dir_4d650ce6f8ed000c2c2a6bba7466aa94.html" target="_top" xlink:title="src">
<polygon fill="#eeeeff" stroke="#000000" points="131.7771,-324 77.7771,-324 77.7771,-288 131.7771,-288 131.7771,-324"/>
<text text-anchor="middle" x="104.7771" y="-303.5" font-family="Helvetica,sans-Serif" font-size="10.00" fill="#000000">src</text>
</a>
</g>
</g>
<!-- dir_4ab6b4cc6a7edbff49100e9123df213f -->
<g id="node2" class="node">
<title>dir_4ab6b4cc6a7edbff49100e9123df213f</title>
<g id="a_node2"><a xlink:href="dir_4ab6b4cc6a7edbff49100e9123df213f.html" target="_top" xlink:title="Common">
<polygon fill="none" stroke="#ff0000" points="122.2771,-180 61.2771,-180 61.2771,-144 122.2771,-144 122.2771,-180"/>
<text text-anchor="middle" x="91.7771" y="-159.5" font-family="Helvetica,sans-Serif" font-size="10.00" fill="#000000">Common</text>
</a>
</g>
</g>
<!-- dir_4d650ce6f8ed000c2c2a6bba7466aa94&#45;&gt;dir_4ab6b4cc6a7edbff49100e9123df213f -->
<g id="edge1" class="edge">
<title>dir_4d650ce6f8ed000c2c2a6bba7466aa94&#45;&gt;dir_4ab6b4cc6a7edbff49100e9123df213f</title>
<path fill="none" stroke="#000000" d="M103.1306,-287.7623C100.9133,-263.201 96.9453,-219.2474 94.3368,-190.3541"/>
<polygon fill="#000000" stroke="#000000" points="97.7952,-189.7344 93.4102,-180.0896 90.8236,-190.3638 97.7952,-189.7344"/>
<g id="a_edge1&#45;headlabel"><a xlink:href="dir_000486_000036.html" target="_top" xlink:title="1">
<text text-anchor="middle" x="100.9461" y="-190.5592" font-family="Helvetica,sans-Serif" font-size="10.00" fill="#000000">1</text>
</a>
</g>
</g>
<!-- dir_022348068a13a69c0e47fc289d66acb8 -->
<g id="node3" class="node">
<title>dir_022348068a13a69c0e47fc289d66acb8</title>
<g id="a_node3"><a xlink:href="dir_022348068a13a69c0e47fc289d66acb8.html" target="_top" xlink:title="include">
<polygon fill="none" stroke="#ff0000" points="76.7771,-252 22.7771,-252 22.7771,-216 76.7771,-216 76.7771,-252"/>
<text text-anchor="middle" x="49.7771" y="-231.5" font-family="Helvetica,sans-Serif" font-size="10.00" fill="#000000">include</text>
</a>
</g>
</g>
<!-- dir_4d650ce6f8ed000c2c2a6bba7466aa94&#45;&gt;dir_022348068a13a69c0e47fc289d66acb8 -->
<g id="edge2" class="edge">
<title>dir_4d650ce6f8ed000c2c2a6bba7466aa94&#45;&gt;dir_022348068a13a69c0e47fc289d66acb8</title>
<path fill="none" stroke="#000000" d="M90.8983,-287.8314C84.5635,-279.5386 76.9387,-269.557 69.9845,-260.4533"/>
<polygon fill="#000000" stroke="#000000" points="72.6946,-258.2353 63.8428,-252.4133 67.1319,-262.4847 72.6946,-258.2353"/>
<g id="a_edge2&#45;headlabel"><a xlink:href="dir_000486_000470.html" target="_top" xlink:title="3">
<text text-anchor="middle" x="77.1329" y="-256.8683" font-family="Helvetica,sans-Serif" font-size="10.00" fill="#000000">3</text>
</a>
</g>
</g>
<!-- dir_bcbb2cf9a3d3d83e5515c82071a07177 -->
<g id="node4" class="node">
<title>dir_bcbb2cf9a3d3d83e5515c82071a07177</title>
<g id="a_node4"><a xlink:href="dir_bcbb2cf9a3d3d83e5515c82071a07177.html" target="_top" xlink:title="Framework">
<polygon fill="none" stroke="#ff0000" points="188.2771,-108 117.2771,-108 117.2771,-72 188.2771,-72 188.2771,-108"/>
<text text-anchor="middle" x="152.7771" y="-87.5" font-family="Helvetica,sans-Serif" font-size="10.00" fill="#000000">Framework</text>
</a>
</g>
</g>
<!-- dir_4d650ce6f8ed000c2c2a6bba7466aa94&#45;&gt;dir_bcbb2cf9a3d3d83e5515c82071a07177 -->
<g id="edge3" class="edge">
<title>dir_4d650ce6f8ed000c2c2a6bba7466aa94&#45;&gt;dir_bcbb2cf9a3d3d83e5515c82071a07177</title>
<path fill="none" stroke="#000000" d="M108.787,-287.9555C117.1517,-250.3144 136.5134,-163.1867 146.5272,-118.1246"/>
<polygon fill="#000000" stroke="#000000" points="149.9921,-118.6662 148.7449,-108.1451 143.1588,-117.1477 149.9921,-118.6662"/>
<g id="a_edge3&#45;headlabel"><a xlink:href="dir_000486_000063.html" target="_top" xlink:title="1">
<text text-anchor="middle" x="151.9841" y="-120.2911" font-family="Helvetica,sans-Serif" font-size="10.00" fill="#000000">1</text>
</a>
</g>
</g>
<!-- dir_26637d1bd82229bc9ed97f7e706be743 -->
<g id="node5" class="node">
<title>dir_26637d1bd82229bc9ed97f7e706be743</title>
<g id="a_node5"><a xlink:href="dir_26637d1bd82229bc9ed97f7e706be743.html" target="_top" xlink:title="Raw">
<polygon fill="none" stroke="#ff0000" points="232.7771,-252 178.7771,-252 178.7771,-216 232.7771,-216 232.7771,-252"/>
<text text-anchor="middle" x="205.7771" y="-231.5" font-family="Helvetica,sans-Serif" font-size="10.00" fill="#000000">Raw</text>
</a>
</g>
</g>
<!-- dir_4d650ce6f8ed000c2c2a6bba7466aa94&#45;&gt;dir_26637d1bd82229bc9ed97f7e706be743 -->
<g id="edge4" class="edge">
<title>dir_4d650ce6f8ed000c2c2a6bba7466aa94&#45;&gt;dir_26637d1bd82229bc9ed97f7e706be743</title>
<path fill="none" stroke="#000000" d="M130.2637,-287.8314C142.9429,-278.7927 158.4367,-267.7476 172.0826,-258.0198"/>
<polygon fill="#000000" stroke="#000000" points="174.1876,-260.8176 180.2987,-252.1628 170.1242,-255.1176 174.1876,-260.8176"/>
<g id="a_edge4&#45;headlabel"><a xlink:href="dir_000486_000647.html" target="_top" xlink:title="1">
<text text-anchor="middle" x="172.9087" y="-262.7161" font-family="Helvetica,sans-Serif" font-size="10.00" fill="#000000">1</text>
</a>
</g>
</g>
<!-- dir_2171f7ec022c5423887b07c69b2f5b48 -->
<g id="node6" class="node">
<title>dir_2171f7ec022c5423887b07c69b2f5b48</title>
<g id="a_node6"><a xlink:href="dir_2171f7ec022c5423887b07c69b2f5b48.html" target="_top" xlink:title="DataFormats">
<polygon fill="none" stroke="#ff0000" points="119.7771,-36 39.7771,-36 39.7771,0 119.7771,0 119.7771,-36"/>
<text text-anchor="middle" x="79.7771" y="-15.5" font-family="Helvetica,sans-Serif" font-size="10.00" fill="#000000">DataFormats</text>
</a>
</g>
</g>
<!-- dir_4d650ce6f8ed000c2c2a6bba7466aa94&#45;&gt;dir_2171f7ec022c5423887b07c69b2f5b48 -->
<g id="edge5" class="edge">
<title>dir_4d650ce6f8ed000c2c2a6bba7466aa94&#45;&gt;dir_2171f7ec022c5423887b07c69b2f5b48</title>
<path fill="none" stroke="#000000" d="M77.4724,-298.0514C55.9264,-290.1773 27.3214,-275.7867 13.7771,-252 -25.3843,-183.2241 28.2248,-89.6668 59.7179,-44.5232"/>
<polygon fill="#000000" stroke="#000000" points="62.7255,-46.334 65.6876,-36.1617 57.0285,-42.2666 62.7255,-46.334"/>
<g id="a_edge5&#45;headlabel"><a xlink:href="dir_000486_000090.html" target="_top" xlink:title="1">
<text text-anchor="middle" x="62.9477" y="-48.4093" font-family="Helvetica,sans-Serif" font-size="10.00" fill="#000000">1</text>
</a>
</g>
</g>
<!-- dir_4ab6b4cc6a7edbff49100e9123df213f&#45;&gt;dir_bcbb2cf9a3d3d83e5515c82071a07177 -->
<g id="edge7" class="edge">
<title>dir_4ab6b4cc6a7edbff49100e9123df213f&#45;&gt;dir_bcbb2cf9a3d3d83e5515c82071a07177</title>
<path fill="none" stroke="#000000" d="M101.2176,-143.8314C107.5621,-135.3694 116.0359,-125.1489 124.3285,-115.8971"/>
<polygon fill="#000000" stroke="#000000" points="127.0151,-118.1462 131.201,-108.4133 121.8592,-113.4115 127.0151,-118.1462"/>
<g id="a_edge7&#45;headlabel"><a xlink:href="dir_000036_000063.html" target="_top" xlink:title="2">
<text text-anchor="middle" x="126.675" y="-120.2142" font-family="Helvetica,sans-Serif" font-size="10.00" fill="#000000">2</text>
</a>
</g>
</g>
<!-- dir_4ab6b4cc6a7edbff49100e9123df213f&#45;&gt;dir_2171f7ec022c5423887b07c69b2f5b48 -->
<g id="edge8" class="edge">
<title>dir_4ab6b4cc6a7edbff49100e9123df213f&#45;&gt;dir_2171f7ec022c5423887b07c69b2f5b48</title>
<path fill="none" stroke="#000000" d="M85.5841,-143.7623C81.0775,-119.201 77.14,-75.2474 76.6425,-46.3541"/>
<polygon fill="#000000" stroke="#000000" points="80.1422,-46.084 76.6263,-36.0896 73.1422,-46.0952 80.1422,-46.084"/>
<g id="a_edge8&#45;headlabel"><a xlink:href="dir_000036_000090.html" target="_top" xlink:title="2">
<text text-anchor="middle" x="82.987" y="-47.1742" font-family="Helvetica,sans-Serif" font-size="10.00" fill="#000000">2</text>
</a>
</g>
</g>
<!-- dir_022348068a13a69c0e47fc289d66acb8&#45;&gt;dir_2171f7ec022c5423887b07c69b2f5b48 -->
<g id="edge6" class="edge">
<title>dir_022348068a13a69c0e47fc289d66acb8&#45;&gt;dir_2171f7ec022c5423887b07c69b2f5b48</title>
<path fill="none" stroke="#000000" d="M49.1424,-215.9965C48.7424,-197.775 48.7725,-168.825 51.7771,-144 55.9183,-109.7833 65.1907,-71.1991 71.9336,-45.847"/>
<polygon fill="#000000" stroke="#000000" points="75.3191,-46.7351 74.5566,-36.1678 68.5628,-44.9042 75.3191,-46.7351"/>
<g id="a_edge6&#45;headlabel"><a xlink:href="dir_000470_000090.html" target="_top" xlink:title="11">
<text text-anchor="middle" x="77.1195" y="-48.4472" font-family="Helvetica,sans-Serif" font-size="10.00" fill="#000000">11</text>
</a>
</g>
</g>
<!-- dir_bcbb2cf9a3d3d83e5515c82071a07177&#45;&gt;dir_4ab6b4cc6a7edbff49100e9123df213f -->
<g id="edge9" class="edge">
<title>dir_bcbb2cf9a3d3d83e5515c82071a07177&#45;&gt;dir_4ab6b4cc6a7edbff49100e9123df213f</title>
<path fill="none" stroke="#000000" d="M143.153,-108.4133C136.7677,-116.9088 128.2754,-127.1366 119.9865,-136.3696"/>
<polygon fill="#000000" stroke="#000000" points="117.3167,-134.1021 113.1224,-143.8314 122.4685,-138.8412 117.3167,-134.1021"/>
<g id="a_edge9&#45;headlabel"><a xlink:href="dir_000063_000036.html" target="_top" xlink:title="8">
<text text-anchor="middle" x="117.6606" y="-127.0344" font-family="Helvetica,sans-Serif" font-size="10.00" fill="#000000">8</text>
</a>
</g>
</g>
<!-- dir_bcbb2cf9a3d3d83e5515c82071a07177&#45;&gt;dir_2171f7ec022c5423887b07c69b2f5b48 -->
<g id="edge10" class="edge">
<title>dir_bcbb2cf9a3d3d83e5515c82071a07177&#45;&gt;dir_2171f7ec022c5423887b07c69b2f5b48</title>
<path fill="none" stroke="#000000" d="M128.4037,-71.8314C118.9996,-63.3694 108.4519,-53.1489 99.5259,-43.8971"/>
<polygon fill="#000000" stroke="#000000" points="101.8767,-41.2884 92.4701,-36.4133 96.7834,-46.0904 101.8767,-41.2884"/>
<g id="a_edge10&#45;headlabel"><a xlink:href="dir_000063_000090.html" target="_top" xlink:title="73">
<text text-anchor="middle" x="106.4084" y="-39.4561" font-family="Helvetica,sans-Serif" font-size="10.00" fill="#000000">73</text>
</a>
</g>
</g>
<!-- dir_26637d1bd82229bc9ed97f7e706be743&#45;&gt;dir_4ab6b4cc6a7edbff49100e9123df213f -->
<g id="edge11" class="edge">
<title>dir_26637d1bd82229bc9ed97f7e706be743&#45;&gt;dir_4ab6b4cc6a7edbff49100e9123df213f</title>
<path fill="none" stroke="#000000" d="M178.7607,-216.937C163.9832,-207.6038 145.4469,-195.8967 129.2868,-185.6904"/>
<polygon fill="#000000" stroke="#000000" points="130.9163,-182.5799 120.5924,-180.1992 127.1783,-188.4984 130.9163,-182.5799"/>
<g id="a_edge11&#45;headlabel"><a xlink:href="dir_000647_000036.html" target="_top" xlink:title="10">
<text text-anchor="middle" x="135.4717" y="-179.5988" font-family="Helvetica,sans-Serif" font-size="10.00" fill="#000000">10</text>
</a>
</g>
</g>
<!-- dir_26637d1bd82229bc9ed97f7e706be743&#45;&gt;dir_bcbb2cf9a3d3d83e5515c82071a07177 -->
<g id="edge12" class="edge">
<title>dir_26637d1bd82229bc9ed97f7e706be743&#45;&gt;dir_bcbb2cf9a3d3d83e5515c82071a07177</title>
<path fill="none" stroke="#000000" d="M199.0646,-215.7623C189.945,-190.9846 173.5617,-146.4714 162.9332,-117.5939"/>
<polygon fill="#000000" stroke="#000000" points="166.1738,-116.2652 159.4351,-108.0896 159.6046,-118.6831 166.1738,-116.2652"/>
<g id="a_edge12&#45;headlabel"><a xlink:href="dir_000647_000063.html" target="_top" xlink:title="25">
<text text-anchor="middle" x="170.0798" y="-116.1579" font-family="Helvetica,sans-Serif" font-size="10.00" fill="#000000">25</text>
</a>
</g>
</g>
<!-- dir_26637d1bd82229bc9ed97f7e706be743&#45;&gt;dir_2171f7ec022c5423887b07c69b2f5b48 -->
<g id="edge13" class="edge">
<title>dir_26637d1bd82229bc9ed97f7e706be743&#45;&gt;dir_2171f7ec022c5423887b07c69b2f5b48</title>
<path fill="none" stroke="#000000" d="M210.3448,-215.8218C217.2973,-183.7034 226.7824,-116.1476 196.7771,-72 181.4139,-49.3958 154.0686,-36.068 129.6762,-28.3108"/>
<polygon fill="#000000" stroke="#000000" points="130.3822,-24.8704 119.8012,-25.412 128.4105,-31.587 130.3822,-24.8704"/>
<g id="a_edge13&#45;headlabel"><a xlink:href="dir_000647_000090.html" target="_top" xlink:title="15">
<text text-anchor="middle" x="134.6309" y="-20.6585" font-family="Helvetica,sans-Serif" font-size="10.00" fill="#000000">15</text>
</a>
</g>
</g>
<!-- dir_2171f7ec022c5423887b07c69b2f5b48&#45;&gt;dir_4ab6b4cc6a7edbff49100e9123df213f -->
<g id="edge14" class="edge">
<title>dir_2171f7ec022c5423887b07c69b2f5b48&#45;&gt;dir_4ab6b4cc6a7edbff49100e9123df213f</title>
<path fill="none" stroke="#000000" d="M85.9428,-36.0896C90.4517,-60.5727 94.3973,-104.5174 94.9086,-133.4713"/>
<polygon fill="#000000" stroke="#000000" points="91.4092,-133.7698 94.9305,-143.7623 98.4091,-133.7549 91.4092,-133.7698"/>
<g id="a_edge14&#45;headlabel"><a xlink:href="dir_000090_000036.html" target="_top" xlink:title="38">
<text text-anchor="middle" x="88.5624" y="-127.6812" font-family="Helvetica,sans-Serif" font-size="10.00" fill="#000000">38</text>
</a>
</g>
</g>
<!-- dir_2171f7ec022c5423887b07c69b2f5b48&#45;&gt;dir_bcbb2cf9a3d3d83e5515c82071a07177 -->
<g id="edge15" class="edge">
<title>dir_2171f7ec022c5423887b07c69b2f5b48&#45;&gt;dir_bcbb2cf9a3d3d83e5515c82071a07177</title>
<path fill="none" stroke="#000000" d="M104.144,-36.1628C113.62,-44.6891 124.2577,-55.0016 133.2279,-64.3099"/>
<polygon fill="#000000" stroke="#000000" points="130.9056,-66.9492 140.3085,-71.8314 136.0024,-62.151 130.9056,-66.9492"/>
<g id="a_edge15&#45;headlabel"><a xlink:href="dir_000090_000063.html" target="_top" xlink:title="22">
<text text-anchor="middle" x="126.3743" y="-63.778" font-family="Helvetica,sans-Serif" font-size="10.00" fill="#000000">22</text>
</a>
</g>
</g>
</g>
</svg>
