<?xml version="1.0" encoding="UTF-8" standalone="no"?>
<!DOCTYPE svg PUBLIC "-//W3C//DTD SVG 1.1//EN"
 "http://www.w3.org/Graphics/SVG/1.1/DTD/svg11.dtd">
<!-- Generated by graphviz version 2.40.1 (20161225.0304)
 -->
<!-- Title: /home/travis/build/AliceO2Group/AliceO2/Framework Pages: 1 -->
<svg width="476pt" height="292pt"
 viewBox="0.00 0.00 476.28 291.71" xmlns="http://www.w3.org/2000/svg" xmlns:xlink="http://www.w3.org/1999/xlink">
<g id="graph0" class="graph" transform="scale(1 1) rotate(0) translate(4 287.7079)">
<title>/home/travis/build/AliceO2Group/AliceO2/Framework</title>
<g id="clust1" class="cluster">
<title>clusterdir_bcbb2cf9a3d3d83e5515c82071a07177</title>
<g id="a_clust1"><a xlink:href="dir_bcbb2cf9a3d3d83e5515c82071a07177.html" target="_top">
<polygon fill="#eeeeff" stroke="#000000" points="196.2758,-64 196.2758,-260 460.2758,-260 460.2758,-64 196.2758,-64"/>
</a>
</g>
</g>
<!-- dir_bcbb2cf9a3d3d83e5515c82071a07177 -->
<g id="node1" class="node">
<title>dir_bcbb2cf9a3d3d83e5515c82071a07177</title>
<text text-anchor="middle" x="416.2758" y="-231.5" font-family="Helvetica,sans-Serif" font-size="10.00" fill="#000000">Framework</text>
</g>
<!-- dir_6a8da6aee604753bfbf1b13d1451fb0d -->
<g id="node2" class="node">
<title>dir_6a8da6aee604753bfbf1b13d1451fb0d</title>
<g id="a_node2"><a xlink:href="dir_6a8da6aee604753bfbf1b13d1451fb0d.html" target="_top" xlink:title="AnalysisTools">
<polygon fill="#ffffff" stroke="#ff0000" points="445.7758,-180 362.7758,-180 362.7758,-144 445.7758,-144 445.7758,-180"/>
<text text-anchor="middle" x="404.2758" y="-159.5" font-family="Helvetica,sans-Serif" font-size="10.00" fill="#000000">AnalysisTools</text>
</a>
</g>
</g>
<!-- dir_ab5a80d4bd40f73f0851d5ff6a022779 -->
<g id="node5" class="node">
<title>dir_ab5a80d4bd40f73f0851d5ff6a022779</title>
<g id="a_node5"><a xlink:href="dir_ab5a80d4bd40f73f0851d5ff6a022779.html" target="_top" xlink:title="Logger">
<polygon fill="#ffffff" stroke="#ff0000" points="350.2758,-108 296.2758,-108 296.2758,-72 350.2758,-72 350.2758,-108"/>
<text text-anchor="middle" x="323.2758" y="-87.5" font-family="Helvetica,sans-Serif" font-size="10.00" fill="#000000">Logger</text>
</a>
</g>
</g>
<!-- dir_6a8da6aee604753bfbf1b13d1451fb0d&#45;&gt;dir_ab5a80d4bd40f73f0851d5ff6a022779 -->
<g id="edge29" class="edge">
<title>dir_6a8da6aee604753bfbf1b13d1451fb0d&#45;&gt;dir_ab5a80d4bd40f73f0851d5ff6a022779</title>
<path fill="none" stroke="#000000" d="M383.836,-143.8314C373.9553,-135.0485 361.9434,-124.3712 351.2307,-114.8489"/>
<polygon fill="#000000" stroke="#000000" points="353.5083,-112.1906 343.7089,-108.1628 348.8578,-117.4224 353.5083,-112.1906"/>
<g id="a_edge29&#45;headlabel"><a xlink:href="dir_000736_000750.html" target="_top" xlink:title="1">
<text text-anchor="middle" x="358.0813" y="-109.9566" font-family="Helvetica,sans-Serif" font-size="10.00" fill="#000000">1</text>
</a>
</g>
</g>
<!-- dir_9f165b2481dacfe69aa54d326bd5cd47 -->
<g id="node3" class="node">
<title>dir_9f165b2481dacfe69aa54d326bd5cd47</title>
<g id="a_node3"><a xlink:href="dir_9f165b2481dacfe69aa54d326bd5cd47.html" target="_top" xlink:title="Core">
<polygon fill="#ffffff" stroke="#ff0000" points="304.2758,-180 250.2758,-180 250.2758,-144 304.2758,-144 304.2758,-180"/>
<text text-anchor="middle" x="277.2758" y="-159.5" font-family="Helvetica,sans-Serif" font-size="10.00" fill="#000000">Core</text>
</a>
</g>
</g>
<!-- dir_5d813cdce1e9826318f2aba62999ca51 -->
<g id="node4" class="node">
<title>dir_5d813cdce1e9826318f2aba62999ca51</title>
<g id="a_node4"><a xlink:href="dir_5d813cdce1e9826318f2aba62999ca51.html" target="_top" xlink:title="Foundation">
<polygon fill="#ffffff" stroke="#ff0000" points="277.7758,-108 206.7758,-108 206.7758,-72 277.7758,-72 277.7758,-108"/>
<text text-anchor="middle" x="242.2758" y="-87.5" font-family="Helvetica,sans-Serif" font-size="10.00" fill="#000000">Foundation</text>
</a>
</g>
</g>
<!-- dir_9f165b2481dacfe69aa54d326bd5cd47&#45;&gt;dir_5d813cdce1e9826318f2aba62999ca51 -->
<g id="edge13" class="edge">
<title>dir_9f165b2481dacfe69aa54d326bd5cd47&#45;&gt;dir_5d813cdce1e9826318f2aba62999ca51</title>
<path fill="none" stroke="#000000" d="M262.4914,-143.8314C257.8989,-135.9617 253.1202,-126.5712 249.2216,-117.8533"/>
<polygon fill="#000000" stroke="#000000" points="252.3543,-116.2738 245.2506,-108.4133 245.9019,-118.9881 252.3543,-116.2738"/>
<g id="a_edge13&#45;headlabel"><a xlink:href="dir_000740_000745.html" target="_top" xlink:title="73">
<text text-anchor="middle" x="256.3652" y="-115.9864" font-family="Helvetica,sans-Serif" font-size="10.00" fill="#000000">73</text>
</a>
</g>
</g>
<!-- dir_9f165b2481dacfe69aa54d326bd5cd47&#45;&gt;dir_ab5a80d4bd40f73f0851d5ff6a022779 -->
<g id="edge14" class="edge">
<title>dir_9f165b2481dacfe69aa54d326bd5cd47&#45;&gt;dir_ab5a80d4bd40f73f0851d5ff6a022779</title>
<path fill="none" stroke="#000000" d="M288.8835,-143.8314C294.0735,-135.7079 300.2989,-125.9637 306.0182,-117.0118"/>
<polygon fill="#000000" stroke="#000000" points="309.0772,-118.7246 311.5117,-108.4133 303.1783,-114.9559 309.0772,-118.7246"/>
<g id="a_edge14&#45;headlabel"><a xlink:href="dir_000740_000750.html" target="_top" xlink:title="43">
<text text-anchor="middle" x="309.5346" y="-120.7824" font-family="Helvetica,sans-Serif" font-size="10.00" fill="#000000">43</text>
</a>
</g>
</g>
<!-- dir_4ab6b4cc6a7edbff49100e9123df213f -->
<g id="node9" class="node">
<title>dir_4ab6b4cc6a7edbff49100e9123df213f</title>
<g id="a_node9"><a xlink:href="dir_4ab6b4cc6a7edbff49100e9123df213f.html" target="_top" xlink:title="Common">
<polygon fill="none" stroke="#ff0000" points="164.7758,-252 103.7758,-252 103.7758,-216 164.7758,-216 164.7758,-252"/>
<text text-anchor="middle" x="134.2758" y="-231.5" font-family="Helvetica,sans-Serif" font-size="10.00" fill="#000000">Common</text>
</a>
</g>
</g>
<!-- dir_9f165b2481dacfe69aa54d326bd5cd47&#45;&gt;dir_4ab6b4cc6a7edbff49100e9123df213f -->
<g id="edge11" class="edge">
<title>dir_9f165b2481dacfe69aa54d326bd5cd47&#45;&gt;dir_4ab6b4cc6a7edbff49100e9123df213f</title>
<path fill="none" stroke="#000000" d="M250.0288,-175.7188C228.4934,-186.5617 198.1312,-201.849 173.9058,-214.0464"/>
<polygon fill="#000000" stroke="#000000" points="172.3106,-210.9309 164.9528,-218.5542 175.4586,-217.1832 172.3106,-210.9309"/>
<g id="a_edge11&#45;headlabel"><a xlink:href="dir_000740_000036.html" target="_top" xlink:title="6">
<text text-anchor="middle" x="174.2444" y="-204.2785" font-family="Helvetica,sans-Serif" font-size="10.00" fill="#000000">6</text>
</a>
</g>
</g>
<!-- dir_8ba487e25de5ee77e05e9dce7582cb98 -->
<g id="node11" class="node">
<title>dir_8ba487e25de5ee77e05e9dce7582cb98</title>
<g id="a_node11"><a xlink:href="dir_8ba487e25de5ee77e05e9dce7582cb98.html" target="_top" xlink:title="Algorithm">
<polygon fill="none" stroke="#ff0000" points="201.7758,-36 136.7758,-36 136.7758,0 201.7758,0 201.7758,-36"/>
<text text-anchor="middle" x="169.2758" y="-15.5" font-family="Helvetica,sans-Serif" font-size="10.00" fill="#000000">Algorithm</text>
</a>
</g>
</g>
<!-- dir_9f165b2481dacfe69aa54d326bd5cd47&#45;&gt;dir_8ba487e25de5ee77e05e9dce7582cb98 -->
<g id="edge12" class="edge">
<title>dir_9f165b2481dacfe69aa54d326bd5cd47&#45;&gt;dir_8ba487e25de5ee77e05e9dce7582cb98</title>
<path fill="none" stroke="#000000" d="M304.3433,-152.2673C323.4821,-143.7934 347.7134,-129.4586 359.2758,-108 368.5519,-90.7845 371.3678,-79.3689 359.2758,-64 341.3113,-41.1672 262.3969,-28.3005 212.0902,-22.2819"/>
<polygon fill="#000000" stroke="#000000" points="212.4643,-18.802 202.1294,-21.1345 211.6632,-25.756 212.4643,-18.802"/>
<g id="a_edge12&#45;headlabel"><a xlink:href="dir_000740_000000.html" target="_top" xlink:title="1">
<text text-anchor="middle" x="216.3602" y="-13.8926" font-family="Helvetica,sans-Serif" font-size="10.00" fill="#000000">1</text>
</a>
</g>
</g>
<!-- dir_2171f7ec022c5423887b07c69b2f5b48 -->
<g id="node12" class="node">
<title>dir_2171f7ec022c5423887b07c69b2f5b48</title>
<g id="a_node12"><a xlink:href="dir_2171f7ec022c5423887b07c69b2f5b48.html" target="_top" xlink:title="DataFormats">
<polygon fill="none" stroke="#ff0000" points="174.2758,-180 94.2758,-180 94.2758,-144 174.2758,-144 174.2758,-180"/>
<text text-anchor="middle" x="134.2758" y="-159.5" font-family="Helvetica,sans-Serif" font-size="10.00" fill="#000000">DataFormats</text>
</a>
</g>
</g>
<!-- dir_9f165b2481dacfe69aa54d326bd5cd47&#45;&gt;dir_2171f7ec022c5423887b07c69b2f5b48 -->
<g id="edge15" class="edge">
<title>dir_9f165b2481dacfe69aa54d326bd5cd47&#45;&gt;dir_2171f7ec022c5423887b07c69b2f5b48</title>
<path fill="none" stroke="#000000" d="M249.9745,-162C228.1561,-162 206.3376,-162 184.5192,-162"/>
<polygon fill="#000000" stroke="#000000" points="184.4945,-158.5001 174.4945,-162 184.4945,-165.5001 184.4945,-158.5001"/>
<g id="a_edge15&#45;headlabel"><a xlink:href="dir_000740_000090.html" target="_top" xlink:title="56">
<text text-anchor="middle" x="188.0891" y="-153.1607" font-family="Helvetica,sans-Serif" font-size="10.00" fill="#000000">56</text>
</a>
</g>
</g>
<!-- dir_5d813cdce1e9826318f2aba62999ca51&#45;&gt;dir_9f165b2481dacfe69aa54d326bd5cd47 -->
<g id="edge24" class="edge">
<title>dir_5d813cdce1e9826318f2aba62999ca51&#45;&gt;dir_9f165b2481dacfe69aa54d326bd5cd47</title>
<path fill="none" stroke="#000000" d="M257.2027,-108.4133C261.7988,-116.3141 266.5703,-125.7132 270.4506,-134.417"/>
<polygon fill="#000000" stroke="#000000" points="267.3029,-135.9614 274.3962,-143.8314 273.7588,-133.2557 267.3029,-135.9614"/>
<g id="a_edge24&#45;headlabel"><a xlink:href="dir_000745_000740.html" target="_top" xlink:title="1">
<text text-anchor="middle" x="263.2949" y="-131.2436" font-family="Helvetica,sans-Serif" font-size="10.00" fill="#000000">1</text>
</a>
</g>
</g>
<!-- dir_a8f73827fca2a0188d35dc47dc5b0ea3 -->
<g id="node6" class="node">
<title>dir_a8f73827fca2a0188d35dc47dc5b0ea3</title>
<g id="a_node6"><a xlink:href="dir_a8f73827fca2a0188d35dc47dc5b0ea3.html" target="_top" xlink:title="TestWorkflows">
<polygon fill="#ffffff" stroke="#ff0000" points="362.2758,-252 276.2758,-252 276.2758,-216 362.2758,-216 362.2758,-252"/>
<text text-anchor="middle" x="319.2758" y="-231.5" font-family="Helvetica,sans-Serif" font-size="10.00" fill="#000000">TestWorkflows</text>
</a>
</g>
</g>
<!-- dir_a8f73827fca2a0188d35dc47dc5b0ea3&#45;&gt;dir_9f165b2481dacfe69aa54d326bd5cd47 -->
<g id="edge3" class="edge">
<title>dir_a8f73827fca2a0188d35dc47dc5b0ea3&#45;&gt;dir_9f165b2481dacfe69aa54d326bd5cd47</title>
<path fill="none" stroke="#000000" d="M308.6774,-215.8314C303.988,-207.7925 298.3729,-198.1666 293.196,-189.2918"/>
<polygon fill="#000000" stroke="#000000" points="296.0788,-187.2875 288.0168,-180.4133 290.0324,-190.8146 296.0788,-187.2875"/>
<g id="a_edge3&#45;headlabel"><a xlink:href="dir_000754_000740.html" target="_top" xlink:title="96">
<text text-anchor="middle" x="300.3425" y="-186.4618" font-family="Helvetica,sans-Serif" font-size="10.00" fill="#000000">96</text>
</a>
</g>
</g>
<!-- dir_a8f73827fca2a0188d35dc47dc5b0ea3&#45;&gt;dir_ab5a80d4bd40f73f0851d5ff6a022779 -->
<g id="edge5" class="edge">
<title>dir_a8f73827fca2a0188d35dc47dc5b0ea3&#45;&gt;dir_ab5a80d4bd40f73f0851d5ff6a022779</title>
<path fill="none" stroke="#000000" d="M323.1171,-215.6001C325.0923,-205.2025 327.288,-191.9346 328.2758,-180 329.9753,-159.4648 328.6038,-136.2444 326.8708,-118.5337"/>
<polygon fill="#000000" stroke="#000000" points="330.3186,-117.8599 325.7693,-108.2915 323.3587,-118.6085 330.3186,-117.8599"/>
<g id="a_edge5&#45;headlabel"><a xlink:href="dir_000754_000750.html" target="_top" xlink:title="11">
<text text-anchor="middle" x="333.5259" y="-118.6303" font-family="Helvetica,sans-Serif" font-size="10.00" fill="#000000">11</text>
</a>
</g>
</g>
<!-- dir_0b342c6c6b7d2278121a0bb9c4985063 -->
<g id="node8" class="node">
<title>dir_0b342c6c6b7d2278121a0bb9c4985063</title>
<g id="a_node8"><a xlink:href="dir_0b342c6c6b7d2278121a0bb9c4985063.html" target="_top" xlink:title="Generators">
<polygon fill="none" stroke="#ff0000" points="108.7758,-36 37.7758,-36 37.7758,0 108.7758,0 108.7758,-36"/>
<text text-anchor="middle" x="73.2758" y="-15.5" font-family="Helvetica,sans-Serif" font-size="10.00" fill="#000000">Generators</text>
</a>
</g>
</g>
<!-- dir_a8f73827fca2a0188d35dc47dc5b0ea3&#45;&gt;dir_0b342c6c6b7d2278121a0bb9c4985063 -->
<g id="edge1" class="edge">
<title>dir_a8f73827fca2a0188d35dc47dc5b0ea3&#45;&gt;dir_0b342c6c6b7d2278121a0bb9c4985063</title>
<path fill="none" stroke="#000000" d="M362.5683,-218.1434C401.3129,-203.7479 452.4576,-184.1511 455.2758,-180 464.2626,-166.7623 462.0622,-158.4894 455.2758,-144 390.1777,-5.0129 277.0223,-69.6324 127.2758,-36 124.4736,-35.3706 121.6117,-34.6522 118.7397,-33.873"/>
<polygon fill="#000000" stroke="#000000" points="119.589,-30.4749 109.0088,-31.0309 117.6265,-37.1942 119.589,-30.4749"/>
<g id="a_edge1&#45;headlabel"><a xlink:href="dir_000754_000758.html" target="_top" xlink:title="1">
<text text-anchor="middle" x="123.8354" y="-26.2572" font-family="Helvetica,sans-Serif" font-size="10.00" fill="#000000">1</text>
</a>
</g>
</g>
<!-- dir_a8f73827fca2a0188d35dc47dc5b0ea3&#45;&gt;dir_4ab6b4cc6a7edbff49100e9123df213f -->
<g id="edge2" class="edge">
<title>dir_a8f73827fca2a0188d35dc47dc5b0ea3&#45;&gt;dir_4ab6b4cc6a7edbff49100e9123df213f</title>
<path fill="none" stroke="#000000" d="M300.7044,-252.1468C289.4306,-261.8624 274.1806,-272.8624 258.2758,-278 234.1689,-285.7871 225.5473,-285.2573 201.2758,-278 187.6763,-273.9337 174.2776,-266.1227 163.0785,-258.1965"/>
<polygon fill="#000000" stroke="#000000" points="165.0897,-255.3305 154.9763,-252.1729 160.9133,-260.9481 165.0897,-255.3305"/>
<g id="a_edge2&#45;headlabel"><a xlink:href="dir_000754_000036.html" target="_top" xlink:title="2">
<text text-anchor="middle" x="169.6684" y="-252.6965" font-family="Helvetica,sans-Serif" font-size="10.00" fill="#000000">2</text>
</a>
</g>
</g>
<!-- dir_051dca18e802f8e9474f2e30d29c04e0 -->
<g id="node10" class="node">
<title>dir_051dca18e802f8e9474f2e30d29c04e0</title>
<g id="a_node10"><a xlink:href="dir_051dca18e802f8e9474f2e30d29c04e0.html" target="_top" xlink:title="Detectors">
<polygon fill="none" stroke="#ff0000" points="94.2758,-108 30.2758,-108 30.2758,-72 94.2758,-72 94.2758,-108"/>
<text text-anchor="middle" x="62.2758" y="-87.5" font-family="Helvetica,sans-Serif" font-size="10.00" fill="#000000">Detectors</text>
</a>
</g>
</g>
<!-- dir_a8f73827fca2a0188d35dc47dc5b0ea3&#45;&gt;dir_051dca18e802f8e9474f2e30d29c04e0 -->
<g id="edge4" class="edge">
<title>dir_a8f73827fca2a0188d35dc47dc5b0ea3&#45;&gt;dir_051dca18e802f8e9474f2e30d29c04e0</title>
<path fill="none" stroke="#000000" d="M276.0035,-218.5206C273.0634,-217.6237 270.1345,-216.7735 267.2758,-216 187.6821,-194.4626 145.1599,-236.6825 85.2758,-180 68.6958,-164.3065 63.4194,-138.4497 62.0153,-118.468"/>
<polygon fill="#000000" stroke="#000000" points="65.5072,-118.2011 61.5903,-108.3569 58.5134,-118.4951 65.5072,-118.2011"/>
<g id="a_edge4&#45;headlabel"><a xlink:href="dir_000754_000049.html" target="_top" xlink:title="4">
<text text-anchor="middle" x="68.4949" y="-119.1734" font-family="Helvetica,sans-Serif" font-size="10.00" fill="#000000">4</text>
</a>
</g>
</g>
<!-- dir_a8f73827fca2a0188d35dc47dc5b0ea3&#45;&gt;dir_2171f7ec022c5423887b07c69b2f5b48 -->
<g id="edge6" class="edge">
<title>dir_a8f73827fca2a0188d35dc47dc5b0ea3&#45;&gt;dir_2171f7ec022c5423887b07c69b2f5b48</title>
<path fill="none" stroke="#000000" d="M275.9015,-217.1192C248.3635,-206.4017 212.6422,-192.4994 183.9646,-181.3384"/>
<polygon fill="#000000" stroke="#000000" points="185.1197,-178.0322 174.5312,-177.667 182.5808,-184.5556 185.1197,-178.0322"/>
<g id="a_edge6&#45;headlabel"><a xlink:href="dir_000754_000090.html" target="_top" xlink:title="5">
<text text-anchor="middle" x="189.4993" y="-174.19" font-family="Helvetica,sans-Serif" font-size="10.00" fill="#000000">5</text>
</a>
</g>
</g>
<!-- dir_86f64936653d09622c529b3cc7c8edcd -->
<g id="node7" class="node">
<title>dir_86f64936653d09622c529b3cc7c8edcd</title>
<g id="a_node7"><a xlink:href="dir_86f64936653d09622c529b3cc7c8edcd.html" target="_top" xlink:title="Utils">
<polygon fill="#ffffff" stroke="#ff0000" points="258.2758,-252 204.2758,-252 204.2758,-216 258.2758,-216 258.2758,-252"/>
<text text-anchor="middle" x="231.2758" y="-231.5" font-family="Helvetica,sans-Serif" font-size="10.00" fill="#000000">Utils</text>
</a>
</g>
</g>
<!-- dir_86f64936653d09622c529b3cc7c8edcd&#45;&gt;dir_9f165b2481dacfe69aa54d326bd5cd47 -->
<g id="edge25" class="edge">
<title>dir_86f64936653d09622c529b3cc7c8edcd&#45;&gt;dir_9f165b2481dacfe69aa54d326bd5cd47</title>
<path fill="none" stroke="#000000" d="M242.8835,-215.8314C248.0735,-207.7079 254.2989,-197.9637 260.0182,-189.0118"/>
<polygon fill="#000000" stroke="#000000" points="263.0772,-190.7246 265.5117,-180.4133 257.1783,-186.9559 263.0772,-190.7246"/>
<g id="a_edge25&#45;headlabel"><a xlink:href="dir_000064_000740.html" target="_top" xlink:title="92">
<text text-anchor="middle" x="263.5346" y="-192.7824" font-family="Helvetica,sans-Serif" font-size="10.00" fill="#000000">92</text>
</a>
</g>
</g>
<!-- dir_86f64936653d09622c529b3cc7c8edcd&#45;&gt;dir_5d813cdce1e9826318f2aba62999ca51 -->
<g id="edge26" class="edge">
<title>dir_86f64936653d09622c529b3cc7c8edcd&#45;&gt;dir_5d813cdce1e9826318f2aba62999ca51</title>
<path fill="none" stroke="#000000" d="M232.6689,-215.7623C234.5451,-191.201 237.9027,-147.2474 240.1098,-118.3541"/>
<polygon fill="#000000" stroke="#000000" points="243.622,-118.3272 240.8939,-108.0896 236.6423,-117.794 243.622,-118.3272"/>
<g id="a_edge26&#45;headlabel"><a xlink:href="dir_000064_000745.html" target="_top" xlink:title="1">
<text text-anchor="middle" x="246.1793" y="-119.6276" font-family="Helvetica,sans-Serif" font-size="10.00" fill="#000000">1</text>
</a>
</g>
</g>
<!-- dir_86f64936653d09622c529b3cc7c8edcd&#45;&gt;dir_ab5a80d4bd40f73f0851d5ff6a022779 -->
<g id="edge27" class="edge">
<title>dir_86f64936653d09622c529b3cc7c8edcd&#45;&gt;dir_ab5a80d4bd40f73f0851d5ff6a022779</title>
<path fill="none" stroke="#000000" d="M258.3751,-219.4997C279.5937,-207.5676 306.5985,-190.9019 313.2758,-180 324.5165,-161.6474 326.5949,-137.1871 326.0957,-118.3991"/>
<polygon fill="#000000" stroke="#000000" points="329.5879,-118.1564 325.5745,-108.3512 322.5973,-118.5191 329.5879,-118.1564"/>
<g id="a_edge27&#45;headlabel"><a xlink:href="dir_000064_000750.html" target="_top" xlink:title="12">
<text text-anchor="middle" x="332.6094" y="-119.0992" font-family="Helvetica,sans-Serif" font-size="10.00" fill="#000000">12</text>
</a>
</g>
</g>
<!-- dir_86f64936653d09622c529b3cc7c8edcd&#45;&gt;dir_2171f7ec022c5423887b07c69b2f5b48 -->
<g id="edge28" class="edge">
<title>dir_86f64936653d09622c529b3cc7c8edcd&#45;&gt;dir_2171f7ec022c5423887b07c69b2f5b48</title>
<path fill="none" stroke="#000000" d="M206.7986,-215.8314C194.7363,-206.8779 180.0218,-195.9558 167.0072,-186.2955"/>
<polygon fill="#000000" stroke="#000000" points="168.8609,-183.3127 158.7451,-180.1628 164.6888,-188.9335 168.8609,-183.3127"/>
<g id="a_edge28&#45;headlabel"><a xlink:href="dir_000064_000090.html" target="_top" xlink:title="12">
<text text-anchor="middle" x="173.4395" y="-180.6752" font-family="Helvetica,sans-Serif" font-size="10.00" fill="#000000">12</text>
</a>
</g>
</g>
<!-- dir_0b342c6c6b7d2278121a0bb9c4985063&#45;&gt;dir_4ab6b4cc6a7edbff49100e9123df213f -->
<g id="edge7" class="edge">
<title>dir_0b342c6c6b7d2278121a0bb9c4985063&#45;&gt;dir_4ab6b4cc6a7edbff49100e9123df213f</title>
<path fill="none" stroke="#000000" d="M46.3884,-36.1207C37.0924,-43.69 27.4656,-53.2384 21.2758,-64 11.4575,-81.0698 -9.8548,-157.2635 5.2758,-180 24.7679,-209.2905 63.5284,-222.7236 93.4968,-228.8663"/>
<polygon fill="#000000" stroke="#000000" points="93.2147,-232.3734 103.6843,-230.7491 94.4869,-225.49 93.2147,-232.3734"/>
<g id="a_edge7&#45;headlabel"><a xlink:href="dir_000758_000036.html" target="_top" xlink:title="23">
<text text-anchor="middle" x="89.164" y="-232.0122" font-family="Helvetica,sans-Serif" font-size="10.00" fill="#000000">23</text>
</a>
</g>
</g>
<!-- dir_0b342c6c6b7d2278121a0bb9c4985063&#45;&gt;dir_2171f7ec022c5423887b07c69b2f5b48 -->
<g id="edge8" class="edge">
<title>dir_0b342c6c6b7d2278121a0bb9c4985063&#45;&gt;dir_2171f7ec022c5423887b07c69b2f5b48</title>
<path fill="none" stroke="#000000" d="M86.7366,-36.1285C92.3934,-44.3372 98.7067,-54.3483 103.2758,-64 114.0039,-86.6623 122.2942,-113.9699 127.5909,-133.9967"/>
<polygon fill="#000000" stroke="#000000" points="124.2149,-134.9224 130.0849,-143.7425 130.9964,-133.187 124.2149,-134.9224"/>
<g id="a_edge8&#45;headlabel"><a xlink:href="dir_000758_000090.html" target="_top" xlink:title="1">
<text text-anchor="middle" x="120.5732" y="-129.6439" font-family="Helvetica,sans-Serif" font-size="10.00" fill="#000000">1</text>
</a>
</g>
</g>
<!-- dir_4ab6b4cc6a7edbff49100e9123df213f&#45;&gt;dir_ab5a80d4bd40f73f0851d5ff6a022779 -->
<g id="edge9" class="edge">
<title>dir_4ab6b4cc6a7edbff49100e9123df213f&#45;&gt;dir_ab5a80d4bd40f73f0851d5ff6a022779</title>
<path fill="none" stroke="#000000" d="M154.6024,-215.6697C175.7041,-196.9384 209.9486,-167.3652 241.2758,-144 255.9857,-133.0287 272.8251,-121.7352 287.4016,-112.3308"/>
<polygon fill="#000000" stroke="#000000" points="289.6067,-115.0752 296.1458,-106.739 285.8354,-109.1778 289.6067,-115.0752"/>
<g id="a_edge9&#45;headlabel"><a xlink:href="dir_000036_000750.html" target="_top" xlink:title="2">
<text text-anchor="middle" x="288.1079" y="-116.9037" font-family="Helvetica,sans-Serif" font-size="10.00" fill="#000000">2</text>
</a>
</g>
</g>
<!-- dir_4ab6b4cc6a7edbff49100e9123df213f&#45;&gt;dir_2171f7ec022c5423887b07c69b2f5b48 -->
<g id="edge10" class="edge">
<title>dir_4ab6b4cc6a7edbff49100e9123df213f&#45;&gt;dir_2171f7ec022c5423887b07c69b2f5b48</title>
<path fill="none" stroke="#000000" d="M128.3234,-215.8314C127.5729,-208.131 127.352,-198.9743 127.6607,-190.4166"/>
<polygon fill="#000000" stroke="#000000" points="131.155,-190.6161 128.2998,-180.4133 124.1692,-190.1697 131.155,-190.6161"/>
<g id="a_edge10&#45;headlabel"><a xlink:href="dir_000036_000090.html" target="_top" xlink:title="2">
<text text-anchor="middle" x="133.7594" y="-191.8844" font-family="Helvetica,sans-Serif" font-size="10.00" fill="#000000">2</text>
</a>
</g>
</g>
<!-- dir_051dca18e802f8e9474f2e30d29c04e0&#45;&gt;dir_9f165b2481dacfe69aa54d326bd5cd47 -->
<g id="edge18" class="edge">
<title>dir_051dca18e802f8e9474f2e30d29c04e0&#45;&gt;dir_9f165b2481dacfe69aa54d326bd5cd47</title>
<path fill="none" stroke="#000000" d="M94.5343,-100.8029C133.6318,-113.896 199.364,-135.9086 240.4219,-149.6582"/>
<polygon fill="#000000" stroke="#000000" points="239.452,-153.0244 250.0459,-152.8812 241.6749,-146.3867 239.452,-153.0244"/>
<g id="a_edge18&#45;headlabel"><a xlink:href="dir_000049_000740.html" target="_top" xlink:title="899">
<text text-anchor="middle" x="235.1418" y="-152.0753" font-family="Helvetica,sans-Serif" font-size="10.00" fill="#000000">899</text>
</a>
</g>
</g>
<!-- dir_051dca18e802f8e9474f2e30d29c04e0&#45;&gt;dir_ab5a80d4bd40f73f0851d5ff6a022779 -->
<g id="edge21" class="edge">
<title>dir_051dca18e802f8e9474f2e30d29c04e0&#45;&gt;dir_ab5a80d4bd40f73f0851d5ff6a022779</title>
<path fill="none" stroke="#000000" d="M94.6095,-105.1455C137.611,-123.113 215.496,-148.022 278.2758,-126 285.4154,-123.4955 292.2639,-119.3291 298.3701,-114.7013"/>
<polygon fill="#000000" stroke="#000000" points="300.7279,-117.293 306.1943,-108.2173 296.2613,-111.9032 300.7279,-117.293"/>
<g id="a_edge21&#45;headlabel"><a xlink:href="dir_000049_000750.html" target="_top" xlink:title="121">
<text text-anchor="middle" x="299.7718" y="-119.2728" font-family="Helvetica,sans-Serif" font-size="10.00" fill="#000000">121</text>
</a>
</g>
</g>
<!-- dir_051dca18e802f8e9474f2e30d29c04e0&#45;&gt;dir_86f64936653d09622c529b3cc7c8edcd -->
<g id="edge20" class="edge">
<title>dir_051dca18e802f8e9474f2e30d29c04e0&#45;&gt;dir_86f64936653d09622c529b3cc7c8edcd</title>
<path fill="none" stroke="#000000" d="M53.5047,-108.1494C45.4047,-127.8291 36.7678,-159.2062 52.2758,-180 85.8192,-224.9765 119.5928,-199.6846 173.2758,-216 180.0534,-218.0599 187.2685,-220.2783 194.2246,-222.4303"/>
<polygon fill="#000000" stroke="#000000" points="193.5616,-225.8891 204.1497,-225.5094 195.6358,-219.2035 193.5616,-225.8891"/>
<g id="a_edge20&#45;headlabel"><a xlink:href="dir_000049_000064.html" target="_top" xlink:title="47">
<text text-anchor="middle" x="189.2872" y="-225.0359" font-family="Helvetica,sans-Serif" font-size="10.00" fill="#000000">47</text>
</a>
</g>
</g>
<!-- dir_051dca18e802f8e9474f2e30d29c04e0&#45;&gt;dir_0b342c6c6b7d2278121a0bb9c4985063 -->
<g id="edge16" class="edge">
<title>dir_051dca18e802f8e9474f2e30d29c04e0&#45;&gt;dir_0b342c6c6b7d2278121a0bb9c4985063</title>
<path fill="none" stroke="#000000" d="M65.0515,-71.8314C66.228,-64.131 67.6269,-54.9743 68.9343,-46.4166"/>
<polygon fill="#000000" stroke="#000000" points="72.4121,-46.8272 70.4626,-36.4133 65.4924,-45.7699 72.4121,-46.8272"/>
<g id="a_edge16&#45;headlabel"><a xlink:href="dir_000049_000758.html" target="_top" xlink:title="2">
<text text-anchor="middle" x="74.6761" y="-48.3093" font-family="Helvetica,sans-Serif" font-size="10.00" fill="#000000">2</text>
</a>
</g>
</g>
<!-- dir_051dca18e802f8e9474f2e30d29c04e0&#45;&gt;dir_4ab6b4cc6a7edbff49100e9123df213f -->
<g id="edge17" class="edge">
<title>dir_051dca18e802f8e9474f2e30d29c04e0&#45;&gt;dir_4ab6b4cc6a7edbff49100e9123df213f</title>
<path fill="none" stroke="#000000" d="M40.956,-108.0922C21.7716,-126.6337 -1.2046,-156.0583 14.2758,-180 31.7312,-206.9963 66.2548,-220.6299 93.8083,-227.4344"/>
<polygon fill="#000000" stroke="#000000" points="93.0745,-230.8568 103.5997,-229.6445 94.6157,-224.0285 93.0745,-230.8568"/>
<g id="a_edge17&#45;headlabel"><a xlink:href="dir_000049_000036.html" target="_top" xlink:title="324">
<text text-anchor="middle" x="88.943" y="-230.335" font-family="Helvetica,sans-Serif" font-size="10.00" fill="#000000">324</text>
</a>
</g>
</g>
<!-- dir_051dca18e802f8e9474f2e30d29c04e0&#45;&gt;dir_8ba487e25de5ee77e05e9dce7582cb98 -->
<g id="edge19" class="edge">
<title>dir_051dca18e802f8e9474f2e30d29c04e0&#45;&gt;dir_8ba487e25de5ee77e05e9dce7582cb98</title>
<path fill="none" stroke="#000000" d="M89.2764,-71.8314C102.7089,-62.7927 119.1231,-51.7476 133.5796,-42.0198"/>
<polygon fill="#000000" stroke="#000000" points="135.9412,-44.6494 142.2838,-36.1628 132.0332,-38.8418 135.9412,-44.6494"/>
<g id="a_edge19&#45;headlabel"><a xlink:href="dir_000049_000000.html" target="_top" xlink:title="20">
<text text-anchor="middle" x="134.544" y="-46.5118" font-family="Helvetica,sans-Serif" font-size="10.00" fill="#000000">20</text>
</a>
</g>
</g>
<!-- dir_051dca18e802f8e9474f2e30d29c04e0&#45;&gt;dir_2171f7ec022c5423887b07c69b2f5b48 -->
<g id="edge22" class="edge">
<title>dir_051dca18e802f8e9474f2e30d29c04e0&#45;&gt;dir_2171f7ec022c5423887b07c69b2f5b48</title>
<path fill="none" stroke="#000000" d="M86.3904,-108.1628C95.748,-116.6891 106.2425,-127.0016 115.0834,-136.3099"/>
<polygon fill="#000000" stroke="#000000" points="112.693,-138.8796 122.0595,-143.8314 117.8253,-134.1194 112.693,-138.8796"/>
<g id="a_edge22&#45;headlabel"><a xlink:href="dir_000049_000090.html" target="_top" xlink:title="1353">
<text text-anchor="middle" x="108.1669" y="-135.6749" font-family="Helvetica,sans-Serif" font-size="10.00" fill="#000000">1353</text>
</a>
</g>
</g>
<!-- dir_8ba487e25de5ee77e05e9dce7582cb98&#45;&gt;dir_2171f7ec022c5423887b07c69b2f5b48 -->
<g id="edge23" class="edge">
<title>dir_8ba487e25de5ee77e05e9dce7582cb98&#45;&gt;dir_2171f7ec022c5423887b07c69b2f5b48</title>
<path fill="none" stroke="#000000" d="M169.5373,-36.0896C166.0245,-60.7884 155.4739,-105.2933 146.4828,-134.2331"/>
<polygon fill="#000000" stroke="#000000" points="143.1482,-133.17 143.3817,-143.7623 149.8046,-135.3363 143.1482,-133.17"/>
<g id="a_edge23&#45;headlabel"><a xlink:href="dir_000000_000090.html" target="_top" xlink:title="8">
<text text-anchor="middle" x="141.5606" y="-126.3733" font-family="Helvetica,sans-Serif" font-size="10.00" fill="#000000">8</text>
</a>
</g>
</g>
<!-- dir_2171f7ec022c5423887b07c69b2f5b48&#45;&gt;dir_5d813cdce1e9826318f2aba62999ca51 -->
<g id="edge33" class="edge">
<title>dir_2171f7ec022c5423887b07c69b2f5b48&#45;&gt;dir_5d813cdce1e9826318f2aba62999ca51</title>
<path fill="none" stroke="#000000" d="M161.5287,-143.8314C175.2147,-134.7074 191.9672,-123.539 206.6585,-113.7449"/>
<polygon fill="#000000" stroke="#000000" points="208.6525,-116.6221 215.0315,-108.1628 204.7695,-110.7977 208.6525,-116.6221"/>
<g id="a_edge33&#45;headlabel"><a xlink:href="dir_000090_000745.html" target="_top" xlink:title="1">
<text text-anchor="middle" x="207.2365" y="-118.4784" font-family="Helvetica,sans-Serif" font-size="10.00" fill="#000000">1</text>
</a>
</g>
</g>
<!-- dir_2171f7ec022c5423887b07c69b2f5b48&#45;&gt;dir_ab5a80d4bd40f73f0851d5ff6a022779 -->
<g id="edge34" class="edge">
<title>dir_2171f7ec022c5423887b07c69b2f5b48&#45;&gt;dir_ab5a80d4bd40f73f0851d5ff6a022779</title>
<path fill="none" stroke="#000000" d="M174.4203,-149.3493C203.4571,-139.8612 243.7115,-126.016 286.4732,-108.1203"/>
<polygon fill="#000000" stroke="#000000" points="288.0815,-111.2401 295.9232,-104.1157 285.3502,-104.795 288.0815,-111.2401"/>
<g id="a_edge34&#45;headlabel"><a xlink:href="dir_000090_000750.html" target="_top" xlink:title="21">
<text text-anchor="middle" x="285.8796" y="-112.7569" font-family="Helvetica,sans-Serif" font-size="10.00" fill="#000000">21</text>
</a>
</g>
</g>
<!-- dir_2171f7ec022c5423887b07c69b2f5b48&#45;&gt;dir_4ab6b4cc6a7edbff49100e9123df213f -->
<g id="edge30" class="edge">
<title>dir_2171f7ec022c5423887b07c69b2f5b48&#45;&gt;dir_4ab6b4cc6a7edbff49100e9123df213f</title>
<path fill="none" stroke="#000000" d="M140.2518,-180.4133C140.9829,-188.0593 141.196,-197.1084 140.8912,-205.5726"/>
<polygon fill="#000000" stroke="#000000" points="137.3805,-205.6264 140.2282,-215.8314 144.366,-206.078 137.3805,-205.6264"/>
<g id="a_edge30&#45;headlabel"><a xlink:href="dir_000090_000036.html" target="_top" xlink:title="38">
<text text-anchor="middle" x="134.7789" y="-199.3562" font-family="Helvetica,sans-Serif" font-size="10.00" fill="#000000">38</text>
</a>
</g>
</g>
<!-- dir_2171f7ec022c5423887b07c69b2f5b48&#45;&gt;dir_051dca18e802f8e9474f2e30d29c04e0 -->
<g id="edge31" class="edge">
<title>dir_2171f7ec022c5423887b07c69b2f5b48&#45;&gt;dir_051dca18e802f8e9474f2e30d29c04e0</title>
<path fill="none" stroke="#000000" d="M110.1547,-143.8314C100.8681,-135.3694 90.4624,-125.1489 81.6649,-115.8971"/>
<polygon fill="#000000" stroke="#000000" points="84.0833,-113.3579 74.713,-108.4133 78.9546,-118.122 84.0833,-113.3579"/>
<g id="a_edge31&#45;headlabel"><a xlink:href="dir_000090_000049.html" target="_top" xlink:title="18">
<text text-anchor="middle" x="88.6099" y="-111.5592" font-family="Helvetica,sans-Serif" font-size="10.00" fill="#000000">18</text>
</a>
</g>
</g>
<!-- dir_2171f7ec022c5423887b07c69b2f5b48&#45;&gt;dir_8ba487e25de5ee77e05e9dce7582cb98 -->
<g id="edge32" class="edge">
<title>dir_2171f7ec022c5423887b07c69b2f5b48&#45;&gt;dir_8ba487e25de5ee77e05e9dce7582cb98</title>
<path fill="none" stroke="#000000" d="M134.0354,-143.7623C137.5608,-119.0928 148.0456,-74.8598 157.0047,-45.9731"/>
<polygon fill="#000000" stroke="#000000" points="160.4546,-46.6819 160.2207,-36.0896 153.7982,-44.5159 160.4546,-46.6819"/>
<g id="a_edge32&#45;headlabel"><a xlink:href="dir_000090_000000.html" target="_top" xlink:title="2">
<text text-anchor="middle" x="162.0424" y="-48.4786" font-family="Helvetica,sans-Serif" font-size="10.00" fill="#000000">2</text>
</a>
</g>
</g>
</g>
</svg>
