<?xml version="1.0" encoding="UTF-8" standalone="no"?>
<!DOCTYPE svg PUBLIC "-//W3C//DTD SVG 1.1//EN"
 "http://www.w3.org/Graphics/SVG/1.1/DTD/svg11.dtd">
<!-- Generated by graphviz version 2.40.1 (20161225.0304)
 -->
<!-- Title: /home/travis/build/AliceO2Group/AliceO2/Detectors/FIT/FDD Pages: 1 -->
<!--zoomable 591 -->
<svg id="main" version="1.1" xmlns="http://www.w3.org/2000/svg" xmlns:xlink="http://www.w3.org/1999/xlink" xml:space="preserve" onload="init(evt)">
<style type="text/css"><![CDATA[
.edge:hover path { stroke: red; }
.edge:hover polygon { stroke: red; fill: red; }
]]></style>
<script type="text/javascript"><![CDATA[
var edges = document.getElementsByTagName('g');
if (edges && edges.length) {
  for (var i=0;i<edges.length;i++) {
    if (edges[i].id.substr(0,4)=='edge') {
      edges[i].setAttribute('class','edge');
    }
  }
}
]]></script>
        <defs>
                <circle id="rim" cx="0" cy="0" r="7"/>
                <circle id="rim2" cx="0" cy="0" r="3.5"/>
                <g id="zoomPlus">
                        <use xlink:href="#rim" fill="#404040">
                                <set attributeName="fill" to="#808080" begin="zoomplus.mouseover" end="zoomplus.mouseout"/>
                        </use>
                        <path d="M-4,0h8M0,-4v8" fill="none" stroke="white" stroke-width="1.5" pointer-events="none"/>
                </g>
                <g id="zoomMin">
                        <use xlink:href="#rim" fill="#404040">
                                <set attributeName="fill" to="#808080" begin="zoomminus.mouseover" end="zoomminus.mouseout"/>
                        </use>
                        <path d="M-4,0h8" fill="none" stroke="white" stroke-width="1.5" pointer-events="none"/>
                </g>
                <g id="dirArrow">
                        <path fill="none" stroke="white" stroke-width="1.5" d="M0,-3.0v7 M-2.5,-0.5L0,-3.0L2.5,-0.5"/>
                </g>
               <g id="resetDef">
                       <use xlink:href="#rim2" fill="#404040">
                               <set attributeName="fill" to="#808080" begin="reset.mouseover" end="reset.mouseout"/>
                       </use>
               </g>
        </defs>

<script type="text/javascript">
var viewWidth = 506;
var viewHeight = 591;
var sectionId = 'dynsection-0';
</script>
<script xlink:href="svgpan.js"/>
<svg id="graph" class="graph">
<g id="viewport">
<title>/home/travis/build/AliceO2Group/AliceO2/Detectors/FIT/FDD</title>
<g id="clust1" class="cluster">
<title>clusterdir_d14e88a79bca429480864605ee348cef</title>
<g id="a_clust1"><a xlink:href="dir_d14e88a79bca429480864605ee348cef.html" target="_top" xlink:title="FIT">
<polygon fill="#ddddee" stroke="#000000" points="177.5,-344 177.5,-575 381.5,-575 381.5,-344 177.5,-344"/>
<text text-anchor="middle" x="279.5" y="-563" font-family="Helvetica,sans-Serif" font-size="10.00" fill="#000000">FIT</text>
</a>
</g>
</g>
<g id="clust2" class="cluster">
<title>clusterdir_a5b1c90a9b4d60b6556bfe35a03caaa0</title>
<g id="a_clust2"><a xlink:href="dir_a5b1c90a9b4d60b6556bfe35a03caaa0.html" target="_top">
<polygon fill="#eeeeff" stroke="#000000" points="185.5,-352 185.5,-548 373.5,-548 373.5,-352 185.5,-352"/>
</a>
</g>
</g>
<!-- dir_a5b1c90a9b4d60b6556bfe35a03caaa0 -->
<g id="node1" class="node">
<title>dir_a5b1c90a9b4d60b6556bfe35a03caaa0</title>
<text text-anchor="middle" x="328.5" y="-519.5" font-family="Helvetica,sans-Serif" font-size="10.00" fill="#000000">FDD</text>
</g>
<!-- dir_e3378330628bb5a530079636b74abbc9 -->
<g id="node2" class="node">
<title>dir_e3378330628bb5a530079636b74abbc9</title>
<g id="a_node2"><a xlink:href="dir_e3378330628bb5a530079636b74abbc9.html" target="_top" xlink:title="base">
<polygon fill="#ffffff" stroke="#ff0000" points="279.5,-396 225.5,-396 225.5,-360 279.5,-360 279.5,-396"/>
<text text-anchor="middle" x="252.5" y="-375.5" font-family="Helvetica,sans-Serif" font-size="10.00" fill="#000000">base</text>
</a>
</g>
</g>
<!-- dir_4ab6b4cc6a7edbff49100e9123df213f -->
<g id="node6" class="node">
<title>dir_4ab6b4cc6a7edbff49100e9123df213f</title>
<g id="a_node6"><a xlink:href="dir_4ab6b4cc6a7edbff49100e9123df213f.html" target="_top" xlink:title="Common">
<polygon fill="none" stroke="#ff0000" points="177,-324 116,-324 116,-288 177,-288 177,-324"/>
<text text-anchor="middle" x="146.5" y="-303.5" font-family="Helvetica,sans-Serif" font-size="10.00" fill="#000000">Common</text>
</a>
</g>
</g>
<!-- dir_e3378330628bb5a530079636b74abbc9&#45;&gt;dir_4ab6b4cc6a7edbff49100e9123df213f -->
<g id="edge27" class="edge">
<title>dir_e3378330628bb5a530079636b74abbc9&#45;&gt;dir_4ab6b4cc6a7edbff49100e9123df213f</title>
<path fill="none" stroke="#000000" d="M231.7399,-359.6719C225.4098,-354.3913 218.3182,-348.7723 211.5,-344 203.4724,-338.3812 194.5728,-332.7948 186.0003,-327.7035"/>
<polygon fill="#000000" stroke="#000000" points="187.6377,-324.6069 177.2353,-322.5966 184.1136,-330.6551 187.6377,-324.6069"/>
<g id="a_edge27&#45;headlabel"><a xlink:href="dir_000182_000036.html" target="_top" xlink:title="1">
<text text-anchor="middle" x="192.173" y="-321.4633" font-family="Helvetica,sans-Serif" font-size="10.00" fill="#000000">1</text>
</a>
</g>
</g>
<!-- dir_d5c094e363832484c79758a29eb05a6f -->
<g id="node3" class="node">
<title>dir_d5c094e363832484c79758a29eb05a6f</title>
<g id="a_node3"><a xlink:href="dir_d5c094e363832484c79758a29eb05a6f.html" target="_top" xlink:title="reconstruction">
<polygon fill="#ffffff" stroke="#ff0000" points="365.5,-468 279.5,-468 279.5,-432 365.5,-432 365.5,-468"/>
<text text-anchor="middle" x="322.5" y="-447.5" font-family="Helvetica,sans-Serif" font-size="10.00" fill="#000000">reconstruction</text>
</a>
</g>
</g>
<!-- dir_d5c094e363832484c79758a29eb05a6f&#45;&gt;dir_e3378330628bb5a530079636b74abbc9 -->
<g id="edge4" class="edge">
<title>dir_d5c094e363832484c79758a29eb05a6f&#45;&gt;dir_e3378330628bb5a530079636b74abbc9</title>
<path fill="none" stroke="#000000" d="M304.836,-431.8314C296.5268,-423.2848 286.4736,-412.9443 277.4082,-403.6198"/>
<polygon fill="#000000" stroke="#000000" points="279.8821,-401.1435 270.4018,-396.4133 274.8631,-406.023 279.8821,-401.1435"/>
<g id="a_edge4&#45;headlabel"><a xlink:href="dir_000469_000182.html" target="_top" xlink:title="1">
<text text-anchor="middle" x="284.4235" y="-399.2416" font-family="Helvetica,sans-Serif" font-size="10.00" fill="#000000">1</text>
</a>
</g>
</g>
<!-- dir_d5c094e363832484c79758a29eb05a6f&#45;&gt;dir_4ab6b4cc6a7edbff49100e9123df213f -->
<g id="edge1" class="edge">
<title>dir_d5c094e363832484c79758a29eb05a6f&#45;&gt;dir_4ab6b4cc6a7edbff49100e9123df213f</title>
<path fill="none" stroke="#000000" d="M279.4765,-433.6174C259.0247,-424.5087 235.054,-411.8012 216.5,-396 194.7075,-377.4408 196.1739,-366.5165 178.5,-344 175.4646,-340.1329 172.1944,-336.1039 168.9446,-332.177"/>
<polygon fill="#000000" stroke="#000000" points="171.4882,-329.763 162.384,-324.3441 166.1218,-334.2577 171.4882,-329.763"/>
<g id="a_edge1&#45;headlabel"><a xlink:href="dir_000469_000036.html" target="_top" xlink:title="1">
<text text-anchor="middle" x="175.9729" y="-328.1956" font-family="Helvetica,sans-Serif" font-size="10.00" fill="#000000">1</text>
</a>
</g>
</g>
<!-- dir_b05a5fa85f84bfc9013183c9d87f9a36 -->
<g id="node7" class="node">
<title>dir_b05a5fa85f84bfc9013183c9d87f9a36</title>
<g id="a_node7"><a xlink:href="dir_b05a5fa85f84bfc9013183c9d87f9a36.html" target="_top" xlink:title="Utilities">
<polygon fill="none" stroke="#ff0000" points="201,-36 146,-36 146,0 201,0 201,-36"/>
<text text-anchor="middle" x="173.5" y="-15.5" font-family="Helvetica,sans-Serif" font-size="10.00" fill="#000000">Utilities</text>
</a>
</g>
</g>
<!-- dir_d5c094e363832484c79758a29eb05a6f&#45;&gt;dir_b05a5fa85f84bfc9013183c9d87f9a36 -->
<g id="edge2" class="edge">
<title>dir_d5c094e363832484c79758a29eb05a6f&#45;&gt;dir_b05a5fa85f84bfc9013183c9d87f9a36</title>
<path fill="none" stroke="#000000" d="M362.0955,-431.9213C378.8147,-422.8781 397.5888,-410.7041 411.5,-396 442.6553,-363.0689 459.5,-351.3333 459.5,-306 459.5,-306 459.5,-306 459.5,-162 459.5,-52.228 289.341,-26.1241 211.523,-19.9257"/>
<polygon fill="#000000" stroke="#000000" points="211.4095,-16.4084 201.1827,-19.1765 210.9037,-23.3901 211.4095,-16.4084"/>
<g id="a_edge2&#45;headlabel"><a xlink:href="dir_000469_000642.html" target="_top" xlink:title="1">
<text text-anchor="middle" x="215.1999" y="-11.3362" font-family="Helvetica,sans-Serif" font-size="10.00" fill="#000000">1</text>
</a>
</g>
</g>
<!-- dir_37c90836491b695b472bf98d1be8336b -->
<g id="node8" class="node">
<title>dir_37c90836491b695b472bf98d1be8336b</title>
<g id="a_node8"><a xlink:href="dir_37c90836491b695b472bf98d1be8336b.html" target="_top" xlink:title="Base">
<polygon fill="none" stroke="#ff0000" points="264.5,-108 210.5,-108 210.5,-72 264.5,-72 264.5,-108"/>
<text text-anchor="middle" x="237.5" y="-87.5" font-family="Helvetica,sans-Serif" font-size="10.00" fill="#000000">Base</text>
</a>
</g>
</g>
<!-- dir_d5c094e363832484c79758a29eb05a6f&#45;&gt;dir_37c90836491b695b472bf98d1be8336b -->
<g id="edge3" class="edge">
<title>dir_d5c094e363832484c79758a29eb05a6f&#45;&gt;dir_37c90836491b695b472bf98d1be8336b</title>
<path fill="none" stroke="#000000" d="M345.9616,-431.8196C375.2373,-406.8885 421.5,-359.092 421.5,-306 421.5,-306 421.5,-306 421.5,-234 421.5,-159.9166 327.8526,-118.2476 274.1757,-100.4484"/>
<polygon fill="#000000" stroke="#000000" points="275.2408,-97.1145 264.6498,-97.4003 273.1074,-103.7815 275.2408,-97.1145"/>
<g id="a_edge3&#45;headlabel"><a xlink:href="dir_000469_000297.html" target="_top" xlink:title="1">
<text text-anchor="middle" x="279.5297" y="-93.0057" font-family="Helvetica,sans-Serif" font-size="10.00" fill="#000000">1</text>
</a>
</g>
</g>
<!-- dir_bcbb2cf9a3d3d83e5515c82071a07177 -->
<g id="node9" class="node">
<title>dir_bcbb2cf9a3d3d83e5515c82071a07177</title>
<g id="a_node9"><a xlink:href="dir_bcbb2cf9a3d3d83e5515c82071a07177.html" target="_top" xlink:title="Framework">
<polygon fill="none" stroke="#ff0000" points="71,-252 0,-252 0,-216 71,-216 71,-252"/>
<text text-anchor="middle" x="35.5" y="-231.5" font-family="Helvetica,sans-Serif" font-size="10.00" fill="#000000">Framework</text>
</a>
</g>
</g>
<!-- dir_d5c094e363832484c79758a29eb05a6f&#45;&gt;dir_bcbb2cf9a3d3d83e5515c82071a07177 -->
<g id="edge5" class="edge">
<title>dir_d5c094e363832484c79758a29eb05a6f&#45;&gt;dir_bcbb2cf9a3d3d83e5515c82071a07177</title>
<path fill="none" stroke="#000000" d="M279.4929,-434.6779C276.4618,-433.7323 273.4425,-432.8292 270.5,-432 198.6729,-411.7601 164.8598,-442.5072 106.5,-396 64.4248,-362.4701 46.6856,-298.9554 39.6794,-262.204"/>
<polygon fill="#000000" stroke="#000000" points="43.091,-261.3965 37.9052,-252.1575 36.1976,-262.6138 43.091,-261.3965"/>
<g id="a_edge5&#45;headlabel"><a xlink:href="dir_000469_000063.html" target="_top" xlink:title="1">
<text text-anchor="middle" x="46.512" y="-261.9426" font-family="Helvetica,sans-Serif" font-size="10.00" fill="#000000">1</text>
</a>
</g>
</g>
<!-- dir_26637d1bd82229bc9ed97f7e706be743 -->
<g id="node10" class="node">
<title>dir_26637d1bd82229bc9ed97f7e706be743</title>
<g id="a_node10"><a xlink:href="dir_26637d1bd82229bc9ed97f7e706be743.html" target="_top" xlink:title="Raw">
<polygon fill="none" stroke="#ff0000" points="169.5,-396 115.5,-396 115.5,-360 169.5,-360 169.5,-396"/>
<text text-anchor="middle" x="142.5" y="-375.5" font-family="Helvetica,sans-Serif" font-size="10.00" fill="#000000">Raw</text>
</a>
</g>
</g>
<!-- dir_d5c094e363832484c79758a29eb05a6f&#45;&gt;dir_26637d1bd82229bc9ed97f7e706be743 -->
<g id="edge6" class="edge">
<title>dir_d5c094e363832484c79758a29eb05a6f&#45;&gt;dir_26637d1bd82229bc9ed97f7e706be743</title>
<path fill="none" stroke="#000000" d="M279.3183,-434.3125C251.2573,-423.9098 213.986,-409.6995 181.5,-396 180.6583,-395.645 179.8078,-395.2828 178.9514,-394.9149"/>
<polygon fill="#000000" stroke="#000000" points="180.2341,-391.6554 169.6722,-390.8216 177.4089,-398.06 180.2341,-391.6554"/>
<g id="a_edge6&#45;headlabel"><a xlink:href="dir_000469_000647.html" target="_top" xlink:title="1">
<text text-anchor="middle" x="184.6689" y="-388.0084" font-family="Helvetica,sans-Serif" font-size="10.00" fill="#000000">1</text>
</a>
</g>
</g>
<!-- dir_2171f7ec022c5423887b07c69b2f5b48 -->
<g id="node11" class="node">
<title>dir_2171f7ec022c5423887b07c69b2f5b48</title>
<g id="a_node11"><a xlink:href="dir_2171f7ec022c5423887b07c69b2f5b48.html" target="_top" xlink:title="DataFormats">
<polygon fill="none" stroke="#ff0000" points="277.5,-180 197.5,-180 197.5,-144 277.5,-144 277.5,-180"/>
<text text-anchor="middle" x="237.5" y="-159.5" font-family="Helvetica,sans-Serif" font-size="10.00" fill="#000000">DataFormats</text>
</a>
</g>
</g>
<!-- dir_d5c094e363832484c79758a29eb05a6f&#45;&gt;dir_2171f7ec022c5423887b07c69b2f5b48 -->
<g id="edge7" class="edge">
<title>dir_d5c094e363832484c79758a29eb05a6f&#45;&gt;dir_2171f7ec022c5423887b07c69b2f5b48</title>
<path fill="none" stroke="#000000" d="M324.2327,-431.807C327.2955,-390.389 329.8744,-287.1536 288.5,-216 282.4838,-205.6536 274.1264,-195.7115 265.9162,-187.2405"/>
<polygon fill="#000000" stroke="#000000" points="268.3721,-184.7468 258.8016,-180.2018 263.4489,-189.723 268.3721,-184.7468"/>
<g id="a_edge7&#45;headlabel"><a xlink:href="dir_000469_000090.html" target="_top" xlink:title="12">
<text text-anchor="middle" x="272.9243" y="-182.7565" font-family="Helvetica,sans-Serif" font-size="10.00" fill="#000000">12</text>
</a>
</g>
</g>
<!-- dir_f0fa586345106a7c1715ccd7aa13aaee -->
<g id="node4" class="node">
<title>dir_f0fa586345106a7c1715ccd7aa13aaee</title>
<g id="a_node4"><a xlink:href="dir_f0fa586345106a7c1715ccd7aa13aaee.html" target="_top" xlink:title="simulation">
<polygon fill="#ffffff" stroke="#ff0000" points="261.5,-468 193.5,-468 193.5,-432 261.5,-432 261.5,-468"/>
<text text-anchor="middle" x="227.5" y="-447.5" font-family="Helvetica,sans-Serif" font-size="10.00" fill="#000000">simulation</text>
</a>
</g>
</g>
<!-- dir_f0fa586345106a7c1715ccd7aa13aaee&#45;&gt;dir_e3378330628bb5a530079636b74abbc9 -->
<g id="edge10" class="edge">
<title>dir_f0fa586345106a7c1715ccd7aa13aaee&#45;&gt;dir_e3378330628bb5a530079636b74abbc9</title>
<path fill="none" stroke="#000000" d="M233.8086,-431.8314C236.5117,-424.0463 239.7316,-414.7729 242.731,-406.1347"/>
<polygon fill="#000000" stroke="#000000" points="246.1327,-407.0081 246.1065,-396.4133 239.52,-404.7119 246.1327,-407.0081"/>
<g id="a_edge10&#45;headlabel"><a xlink:href="dir_000306_000182.html" target="_top" xlink:title="4">
<text text-anchor="middle" x="247.6359" y="-408.8351" font-family="Helvetica,sans-Serif" font-size="10.00" fill="#000000">4</text>
</a>
</g>
</g>
<!-- dir_f0fa586345106a7c1715ccd7aa13aaee&#45;&gt;dir_4ab6b4cc6a7edbff49100e9123df213f -->
<g id="edge8" class="edge">
<title>dir_f0fa586345106a7c1715ccd7aa13aaee&#45;&gt;dir_4ab6b4cc6a7edbff49100e9123df213f</title>
<path fill="none" stroke="#000000" d="M193.2388,-445.0282C164.6199,-438.8704 125.531,-425.3333 106.5,-396 93.9213,-376.6119 97.3828,-365.2368 106.5,-344 108.4295,-339.5056 111.1807,-335.2923 114.349,-331.4268"/>
<polygon fill="#000000" stroke="#000000" points="117.0233,-333.6915 121.3086,-324.002 111.9162,-328.9043 117.0233,-333.6915"/>
<g id="a_edge8&#45;headlabel"><a xlink:href="dir_000306_000036.html" target="_top" xlink:title="5">
<text text-anchor="middle" x="116.6366" y="-335.7558" font-family="Helvetica,sans-Serif" font-size="10.00" fill="#000000">5</text>
</a>
</g>
</g>
<!-- dir_f0fa586345106a7c1715ccd7aa13aaee&#45;&gt;dir_37c90836491b695b472bf98d1be8336b -->
<g id="edge9" class="edge">
<title>dir_f0fa586345106a7c1715ccd7aa13aaee&#45;&gt;dir_37c90836491b695b472bf98d1be8336b</title>
<path fill="none" stroke="#000000" d="M261.7047,-435.9897C278.5894,-427.1635 297.45,-413.9947 307.5,-396 323.1169,-368.0377 309.8332,-356.0208 310.5,-324 312.1803,-243.3095 321.6793,-216.6374 286.5,-144 281.4726,-133.6195 273.8172,-123.788 266.0412,-115.4296"/>
<polygon fill="#000000" stroke="#000000" points="268.4412,-112.8782 258.938,-108.1941 263.446,-117.7821 268.4412,-112.8782"/>
<g id="a_edge9&#45;headlabel"><a xlink:href="dir_000306_000297.html" target="_top" xlink:title="1">
<text text-anchor="middle" x="272.9855" y="-110.9542" font-family="Helvetica,sans-Serif" font-size="10.00" fill="#000000">1</text>
</a>
</g>
</g>
<!-- dir_f0fa586345106a7c1715ccd7aa13aaee&#45;&gt;dir_bcbb2cf9a3d3d83e5515c82071a07177 -->
<g id="edge11" class="edge">
<title>dir_f0fa586345106a7c1715ccd7aa13aaee&#45;&gt;dir_bcbb2cf9a3d3d83e5515c82071a07177</title>
<path fill="none" stroke="#000000" d="M193.4155,-445.3684C143.5431,-437.814 54.5272,-421.1169 35.5,-396 6.1803,-357.2965 16.4057,-297.1194 26.1737,-262.0331"/>
<polygon fill="#000000" stroke="#000000" points="29.6609,-262.5836 29.1462,-252.0013 22.9493,-260.5949 29.6609,-262.5836"/>
<g id="a_edge11&#45;headlabel"><a xlink:href="dir_000306_000063.html" target="_top" xlink:title="1">
<text text-anchor="middle" x="31.362" y="-264.3367" font-family="Helvetica,sans-Serif" font-size="10.00" fill="#000000">1</text>
</a>
</g>
</g>
<!-- dir_f0fa586345106a7c1715ccd7aa13aaee&#45;&gt;dir_26637d1bd82229bc9ed97f7e706be743 -->
<g id="edge12" class="edge">
<title>dir_f0fa586345106a7c1715ccd7aa13aaee&#45;&gt;dir_26637d1bd82229bc9ed97f7e706be743</title>
<path fill="none" stroke="#000000" d="M206.0509,-431.8314C195.6822,-423.0485 183.0771,-412.3712 171.8354,-402.8489"/>
<polygon fill="#000000" stroke="#000000" points="173.8349,-399.9556 163.9422,-396.1628 169.3105,-405.297 173.8349,-399.9556"/>
<g id="a_edge12&#45;headlabel"><a xlink:href="dir_000306_000647.html" target="_top" xlink:title="3">
<text text-anchor="middle" x="178.4129" y="-397.6125" font-family="Helvetica,sans-Serif" font-size="10.00" fill="#000000">3</text>
</a>
</g>
</g>
<!-- dir_f0fa586345106a7c1715ccd7aa13aaee&#45;&gt;dir_2171f7ec022c5423887b07c69b2f5b48 -->
<g id="edge13" class="edge">
<title>dir_f0fa586345106a7c1715ccd7aa13aaee&#45;&gt;dir_2171f7ec022c5423887b07c69b2f5b48</title>
<path fill="none" stroke="#000000" d="M257.1941,-431.9172C269.2836,-422.8022 281.9379,-410.5731 288.5,-396 320.2962,-325.3875 278.8304,-233.6609 253.8752,-188.9201"/>
<polygon fill="#000000" stroke="#000000" points="256.8381,-187.0509 248.8329,-180.1106 250.7629,-190.5282 256.8381,-187.0509"/>
<g id="a_edge13&#45;headlabel"><a xlink:href="dir_000306_000090.html" target="_top" xlink:title="19">
<text text-anchor="middle" x="261.0879" y="-186.2602" font-family="Helvetica,sans-Serif" font-size="10.00" fill="#000000">19</text>
</a>
</g>
</g>
<!-- dir_a58d63da91ebc530ad40649c3f01757f -->
<g id="node5" class="node">
<title>dir_a58d63da91ebc530ad40649c3f01757f</title>
<g id="a_node5"><a xlink:href="dir_a58d63da91ebc530ad40649c3f01757f.html" target="_top" xlink:title="workflow">
<polygon fill="#ffffff" stroke="#ff0000" points="274,-540 213,-540 213,-504 274,-504 274,-540"/>
<text text-anchor="middle" x="243.5" y="-519.5" font-family="Helvetica,sans-Serif" font-size="10.00" fill="#000000">workflow</text>
</a>
</g>
</g>
<!-- dir_a58d63da91ebc530ad40649c3f01757f&#45;&gt;dir_d5c094e363832484c79758a29eb05a6f -->
<g id="edge23" class="edge">
<title>dir_a58d63da91ebc530ad40649c3f01757f&#45;&gt;dir_d5c094e363832484c79758a29eb05a6f</title>
<path fill="none" stroke="#000000" d="M263.435,-503.8314C272.9783,-495.1337 284.5599,-484.5783 294.9306,-475.1265"/>
<polygon fill="#000000" stroke="#000000" points="297.538,-477.4857 302.5713,-468.1628 292.8228,-472.3121 297.538,-477.4857"/>
<g id="a_edge23&#45;headlabel"><a xlink:href="dir_000427_000469.html" target="_top" xlink:title="3">
<text text-anchor="middle" x="296.7938" y="-479.5055" font-family="Helvetica,sans-Serif" font-size="10.00" fill="#000000">3</text>
</a>
</g>
</g>
<!-- dir_a58d63da91ebc530ad40649c3f01757f&#45;&gt;dir_4ab6b4cc6a7edbff49100e9123df213f -->
<g id="edge24" class="edge">
<title>dir_a58d63da91ebc530ad40649c3f01757f&#45;&gt;dir_4ab6b4cc6a7edbff49100e9123df213f</title>
<path fill="none" stroke="#000000" d="M212.8762,-506.7574C176.8317,-486.8893 118.8106,-448.3957 94.5,-396 84.7729,-375.0356 84.0362,-364.6066 94.5,-344 97.6633,-337.7705 102.3803,-332.3181 107.704,-327.6347"/>
<polygon fill="#000000" stroke="#000000" points="110.0791,-330.2216 115.8279,-321.322 105.784,-324.6942 110.0791,-330.2216"/>
<g id="a_edge24&#45;headlabel"><a xlink:href="dir_000427_000036.html" target="_top" xlink:title="3">
<text text-anchor="middle" x="108.9828" y="-332.1691" font-family="Helvetica,sans-Serif" font-size="10.00" fill="#000000">3</text>
</a>
</g>
</g>
<!-- dir_a58d63da91ebc530ad40649c3f01757f&#45;&gt;dir_bcbb2cf9a3d3d83e5515c82071a07177 -->
<g id="edge25" class="edge">
<title>dir_a58d63da91ebc530ad40649c3f01757f&#45;&gt;dir_bcbb2cf9a3d3d83e5515c82071a07177</title>
<path fill="none" stroke="#000000" d="M212.8157,-514.2405C185.1988,-506.1232 144.6023,-491.273 115.5,-468 54.0469,-418.8562 36.538,-398.9252 12.5,-324 5.849,-303.2691 12.6088,-279.3746 20.4848,-261.4182"/>
<polygon fill="#000000" stroke="#000000" points="23.7759,-262.6465 24.8971,-252.1111 17.4507,-259.6478 23.7759,-262.6465"/>
<g id="a_edge25&#45;headlabel"><a xlink:href="dir_000427_000063.html" target="_top" xlink:title="34">
<text text-anchor="middle" x="24.8016" y="-264.6108" font-family="Helvetica,sans-Serif" font-size="10.00" fill="#000000">34</text>
</a>
</g>
</g>
<!-- dir_a58d63da91ebc530ad40649c3f01757f&#45;&gt;dir_2171f7ec022c5423887b07c69b2f5b48 -->
<g id="edge26" class="edge">
<title>dir_a58d63da91ebc530ad40649c3f01757f&#45;&gt;dir_2171f7ec022c5423887b07c69b2f5b48</title>
<path fill="none" stroke="#000000" d="M274.0813,-510.3653C306.8883,-497.7125 356.6796,-477.9655 374.5,-468 421.9853,-441.4453 429.7365,-428.3226 473.5,-396 484.2252,-388.0786 497.5,-391.3333 497.5,-378 497.5,-378 497.5,-378 497.5,-306 497.5,-211.1328 363.3988,-178.2565 287.8124,-167.2606"/>
<polygon fill="#000000" stroke="#000000" points="287.9388,-163.7451 277.5552,-165.8501 286.9851,-170.6798 287.9388,-163.7451"/>
<g id="a_edge26&#45;headlabel"><a xlink:href="dir_000427_000090.html" target="_top" xlink:title="12">
<text text-anchor="middle" x="291.8867" y="-158.9219" font-family="Helvetica,sans-Serif" font-size="10.00" fill="#000000">12</text>
</a>
</g>
</g>
<!-- dir_4ab6b4cc6a7edbff49100e9123df213f&#45;&gt;dir_bcbb2cf9a3d3d83e5515c82071a07177 -->
<g id="edge14" class="edge">
<title>dir_4ab6b4cc6a7edbff49100e9123df213f&#45;&gt;dir_bcbb2cf9a3d3d83e5515c82071a07177</title>
<path fill="none" stroke="#000000" d="M115.8489,-289.8418C100.2136,-280.3965 81.3494,-268.3011 65.7747,-257.7838"/>
<polygon fill="#000000" stroke="#000000" points="67.733,-254.8829 57.502,-252.1301 63.7833,-260.6622 67.733,-254.8829"/>
<g id="a_edge14&#45;headlabel"><a xlink:href="dir_000036_000063.html" target="_top" xlink:title="2">
<text text-anchor="middle" x="72.3027" y="-252.0669" font-family="Helvetica,sans-Serif" font-size="10.00" fill="#000000">2</text>
</a>
</g>
</g>
<!-- dir_4ab6b4cc6a7edbff49100e9123df213f&#45;&gt;dir_2171f7ec022c5423887b07c69b2f5b48 -->
<g id="edge15" class="edge">
<title>dir_4ab6b4cc6a7edbff49100e9123df213f&#45;&gt;dir_2171f7ec022c5423887b07c69b2f5b48</title>
<path fill="none" stroke="#000000" d="M153.352,-287.7623C166.7013,-262.66 195.1336,-217.3017 215.4063,-188.4671"/>
<polygon fill="#000000" stroke="#000000" points="218.4297,-190.2566 221.4101,-180.0896 212.74,-186.179 218.4297,-190.2566"/>
<g id="a_edge15&#45;headlabel"><a xlink:href="dir_000036_000090.html" target="_top" xlink:title="2">
<text text-anchor="middle" x="218.6437" y="-192.3323" font-family="Helvetica,sans-Serif" font-size="10.00" fill="#000000">2</text>
</a>
</g>
</g>
<!-- dir_b05a5fa85f84bfc9013183c9d87f9a36&#45;&gt;dir_4ab6b4cc6a7edbff49100e9123df213f -->
<g id="edge16" class="edge">
<title>dir_b05a5fa85f84bfc9013183c9d87f9a36&#45;&gt;dir_4ab6b4cc6a7edbff49100e9123df213f</title>
<path fill="none" stroke="#000000" d="M170.9397,-36.2467C166.147,-71.1018 155.8256,-149.5964 150.5,-216 148.8536,-236.5281 147.8427,-259.7487 147.249,-277.4613"/>
<polygon fill="#000000" stroke="#000000" points="143.7431,-277.6011 146.9314,-287.7048 150.7397,-277.8181 143.7431,-277.6011"/>
<g id="a_edge16&#45;headlabel"><a xlink:href="dir_000642_000036.html" target="_top" xlink:title="1">
<text text-anchor="middle" x="141.0165" y="-271.4202" font-family="Helvetica,sans-Serif" font-size="10.00" fill="#000000">1</text>
</a>
</g>
</g>
<!-- dir_b05a5fa85f84bfc9013183c9d87f9a36&#45;&gt;dir_bcbb2cf9a3d3d83e5515c82071a07177 -->
<g id="edge17" class="edge">
<title>dir_b05a5fa85f84bfc9013183c9d87f9a36&#45;&gt;dir_bcbb2cf9a3d3d83e5515c82071a07177</title>
<path fill="none" stroke="#000000" d="M145.6476,-27.2933C124.5015,-35.7421 96.2883,-50.2469 79.5,-72 48.9724,-111.5557 39.5996,-170.7883 36.7384,-205.6012"/>
<polygon fill="#000000" stroke="#000000" points="33.2182,-205.7724 36.0196,-215.9901 40.2015,-206.2555 33.2182,-205.7724"/>
<g id="a_edge17&#45;headlabel"><a xlink:href="dir_000642_000063.html" target="_top" xlink:title="99">
<text text-anchor="middle" x="30.6337" y="-199.4904" font-family="Helvetica,sans-Serif" font-size="10.00" fill="#000000">99</text>
</a>
</g>
</g>
<!-- dir_b05a5fa85f84bfc9013183c9d87f9a36&#45;&gt;dir_2171f7ec022c5423887b07c69b2f5b48 -->
<g id="edge18" class="edge">
<title>dir_b05a5fa85f84bfc9013183c9d87f9a36&#45;&gt;dir_2171f7ec022c5423887b07c69b2f5b48</title>
<path fill="none" stroke="#000000" d="M184.2838,-36.1581C191.0118,-54.7523 199.1638,-84.2181 210.5,-108 214.9149,-117.2619 220.744,-126.7674 226.0176,-135.1712"/>
<polygon fill="#000000" stroke="#000000" points="223.1487,-137.1842 231.4288,-143.7942 229.078,-133.4634 223.1487,-137.1842"/>
<g id="a_edge18&#45;headlabel"><a xlink:href="dir_000642_000090.html" target="_top" xlink:title="59">
<text text-anchor="middle" x="218.8332" y="-133.1486" font-family="Helvetica,sans-Serif" font-size="10.00" fill="#000000">59</text>
</a>
</g>
</g>
<!-- dir_37c90836491b695b472bf98d1be8336b&#45;&gt;dir_4ab6b4cc6a7edbff49100e9123df213f -->
<g id="edge19" class="edge">
<title>dir_37c90836491b695b472bf98d1be8336b&#45;&gt;dir_4ab6b4cc6a7edbff49100e9123df213f</title>
<path fill="none" stroke="#000000" d="M216.8192,-108.2115C206.9379,-117.9337 195.7201,-130.6343 188.5,-144 165.074,-187.366 154.252,-244.3952 149.6164,-277.9367"/>
<polygon fill="#000000" stroke="#000000" points="146.1324,-277.5881 148.3206,-287.9545 153.0746,-278.4861 146.1324,-277.5881"/>
<g id="a_edge19&#45;headlabel"><a xlink:href="dir_000297_000036.html" target="_top" xlink:title="16">
<text text-anchor="middle" x="143.7777" y="-271.1589" font-family="Helvetica,sans-Serif" font-size="10.00" fill="#000000">16</text>
</a>
</g>
</g>
<!-- dir_37c90836491b695b472bf98d1be8336b&#45;&gt;dir_b05a5fa85f84bfc9013183c9d87f9a36 -->
<g id="edge20" class="edge">
<title>dir_37c90836491b695b472bf98d1be8336b&#45;&gt;dir_b05a5fa85f84bfc9013183c9d87f9a36</title>
<path fill="none" stroke="#000000" d="M221.3501,-71.8314C213.8283,-63.3694 204.7435,-53.1489 196.5196,-43.8971"/>
<polygon fill="#000000" stroke="#000000" points="199.127,-41.5621 189.8673,-36.4133 193.8951,-46.2127 199.127,-41.5621"/>
<g id="a_edge20&#45;headlabel"><a xlink:href="dir_000297_000642.html" target="_top" xlink:title="1">
<text text-anchor="middle" x="203.6372" y="-39.8624" font-family="Helvetica,sans-Serif" font-size="10.00" fill="#000000">1</text>
</a>
</g>
</g>
<!-- dir_37c90836491b695b472bf98d1be8336b&#45;&gt;dir_bcbb2cf9a3d3d83e5515c82071a07177 -->
<g id="edge21" class="edge">
<title>dir_37c90836491b695b472bf98d1be8336b&#45;&gt;dir_bcbb2cf9a3d3d83e5515c82071a07177</title>
<path fill="none" stroke="#000000" d="M210.2602,-107.3441C194.1673,-117.7376 173.4863,-131.3505 155.5,-144 124.8221,-165.5753 90.6824,-191.3594 66.6854,-209.7883"/>
<polygon fill="#000000" stroke="#000000" points="64.4306,-207.1071 58.6426,-215.9812 68.7013,-212.6534 64.4306,-207.1071"/>
<g id="a_edge21&#45;headlabel"><a xlink:href="dir_000297_000063.html" target="_top" xlink:title="1">
<text text-anchor="middle" x="65.5466" y="-200.1644" font-family="Helvetica,sans-Serif" font-size="10.00" fill="#000000">1</text>
</a>
</g>
</g>
<!-- dir_37c90836491b695b472bf98d1be8336b&#45;&gt;dir_2171f7ec022c5423887b07c69b2f5b48 -->
<g id="edge22" class="edge">
<title>dir_37c90836491b695b472bf98d1be8336b&#45;&gt;dir_2171f7ec022c5423887b07c69b2f5b48</title>
<path fill="none" stroke="#000000" d="M243.476,-108.4133C244.2071,-116.0593 244.4203,-125.1084 244.1155,-133.5726"/>
<polygon fill="#000000" stroke="#000000" points="240.6048,-133.6264 243.4524,-143.8314 247.5902,-134.078 240.6048,-133.6264"/>
<g id="a_edge22&#45;headlabel"><a xlink:href="dir_000297_000090.html" target="_top" xlink:title="15">
<text text-anchor="middle" x="238.0032" y="-127.3562" font-family="Helvetica,sans-Serif" font-size="10.00" fill="#000000">15</text>
</a>
</g>
</g>
<!-- dir_bcbb2cf9a3d3d83e5515c82071a07177&#45;&gt;dir_4ab6b4cc6a7edbff49100e9123df213f -->
<g id="edge28" class="edge">
<title>dir_bcbb2cf9a3d3d83e5515c82071a07177&#45;&gt;dir_4ab6b4cc6a7edbff49100e9123df213f</title>
<path fill="none" stroke="#000000" d="M69.4529,-252.1628C84.2673,-261.2007 101.4465,-272.2456 115.8664,-281.9739"/>
<polygon fill="#000000" stroke="#000000" points="114.2106,-285.0815 124.4424,-287.8314 118.1587,-279.3011 114.2106,-285.0815"/>
<g id="a_edge28&#45;headlabel"><a xlink:href="dir_000063_000036.html" target="_top" xlink:title="8">
<text text-anchor="middle" x="109.641" y="-282.8988" font-family="Helvetica,sans-Serif" font-size="10.00" fill="#000000">8</text>
</a>
</g>
</g>
<!-- dir_bcbb2cf9a3d3d83e5515c82071a07177&#45;&gt;dir_2171f7ec022c5423887b07c69b2f5b48 -->
<g id="edge29" class="edge">
<title>dir_bcbb2cf9a3d3d83e5515c82071a07177&#45;&gt;dir_2171f7ec022c5423887b07c69b2f5b48</title>
<path fill="none" stroke="#000000" d="M71.2944,-219.256C103.6334,-207.1844 151.3958,-190.145 187.4844,-177.7961"/>
<polygon fill="#000000" stroke="#000000" points="188.9918,-180.9803 197.3312,-174.4455 186.7368,-174.3535 188.9918,-180.9803"/>
<g id="a_edge29&#45;headlabel"><a xlink:href="dir_000063_000090.html" target="_top" xlink:title="73">
<text text-anchor="middle" x="186.5034" y="-182.3261" font-family="Helvetica,sans-Serif" font-size="10.00" fill="#000000">73</text>
</a>
</g>
</g>
<!-- dir_26637d1bd82229bc9ed97f7e706be743&#45;&gt;dir_4ab6b4cc6a7edbff49100e9123df213f -->
<g id="edge30" class="edge">
<title>dir_26637d1bd82229bc9ed97f7e706be743&#45;&gt;dir_4ab6b4cc6a7edbff49100e9123df213f</title>
<path fill="none" stroke="#000000" d="M143.5094,-359.8314C143.9372,-352.131 144.4459,-342.9743 144.9213,-334.4166"/>
<polygon fill="#000000" stroke="#000000" points="148.4169,-334.592 145.477,-324.4133 141.4276,-334.2037 148.4169,-334.592"/>
<g id="a_edge30&#45;headlabel"><a xlink:href="dir_000647_000036.html" target="_top" xlink:title="10">
<text text-anchor="middle" x="151.0525" y="-335.8386" font-family="Helvetica,sans-Serif" font-size="10.00" fill="#000000">10</text>
</a>
</g>
</g>
<!-- dir_26637d1bd82229bc9ed97f7e706be743&#45;&gt;dir_bcbb2cf9a3d3d83e5515c82071a07177 -->
<g id="edge31" class="edge">
<title>dir_26637d1bd82229bc9ed97f7e706be743&#45;&gt;dir_bcbb2cf9a3d3d83e5515c82071a07177</title>
<path fill="none" stroke="#000000" d="M128.9484,-359.7623C110.296,-334.66 76.5922,-289.3017 55.1665,-260.4671"/>
<polygon fill="#000000" stroke="#000000" points="57.7152,-258.0288 48.9416,-252.0896 52.0966,-262.2038 57.7152,-258.0288"/>
<g id="a_edge31&#45;headlabel"><a xlink:href="dir_000647_000063.html" target="_top" xlink:title="25">
<text text-anchor="middle" x="62.1381" y="-256.7207" font-family="Helvetica,sans-Serif" font-size="10.00" fill="#000000">25</text>
</a>
</g>
</g>
<!-- dir_26637d1bd82229bc9ed97f7e706be743&#45;&gt;dir_2171f7ec022c5423887b07c69b2f5b48 -->
<g id="edge32" class="edge">
<title>dir_26637d1bd82229bc9ed97f7e706be743&#45;&gt;dir_2171f7ec022c5423887b07c69b2f5b48</title>
<path fill="none" stroke="#000000" d="M159.9435,-359.5826C168.735,-349.6113 179.076,-336.7496 186.5,-324 211.6701,-280.7744 225.8768,-223.6995 232.5974,-190.1112"/>
<polygon fill="#000000" stroke="#000000" points="236.0753,-190.5586 234.5208,-180.0785 229.2005,-189.2406 236.0753,-190.5586"/>
<g id="a_edge32&#45;headlabel"><a xlink:href="dir_000647_000090.html" target="_top" xlink:title="15">
<text text-anchor="middle" x="238.1871" y="-192.1235" font-family="Helvetica,sans-Serif" font-size="10.00" fill="#000000">15</text>
</a>
</g>
</g>
<!-- dir_2171f7ec022c5423887b07c69b2f5b48&#45;&gt;dir_e3378330628bb5a530079636b74abbc9 -->
<g id="edge36" class="edge">
<title>dir_2171f7ec022c5423887b07c69b2f5b48&#45;&gt;dir_e3378330628bb5a530079636b74abbc9</title>
<path fill="none" stroke="#000000" d="M240.7162,-180.4364C242.41,-190.8454 244.3657,-204.1126 245.5,-216 249.9685,-262.8307 251.586,-317.5517 252.1705,-349.907"/>
<polygon fill="#000000" stroke="#000000" points="248.672,-350.0358 252.3317,-359.9785 255.6711,-349.9237 248.672,-350.0358"/>
<g id="a_edge36&#45;headlabel"><a xlink:href="dir_000090_000182.html" target="_top" xlink:title="2">
<text text-anchor="middle" x="245.7756" y="-343.9871" font-family="Helvetica,sans-Serif" font-size="10.00" fill="#000000">2</text>
</a>
</g>
</g>
<!-- dir_2171f7ec022c5423887b07c69b2f5b48&#45;&gt;dir_4ab6b4cc6a7edbff49100e9123df213f -->
<g id="edge33" class="edge">
<title>dir_2171f7ec022c5423887b07c69b2f5b48&#45;&gt;dir_4ab6b4cc6a7edbff49100e9123df213f</title>
<path fill="none" stroke="#000000" d="M230.7267,-180.0896C217.4369,-205.1119 189.0183,-250.4628 168.7136,-279.3623"/>
<polygon fill="#000000" stroke="#000000" points="165.675,-277.5942 162.6984,-287.7623 171.3662,-281.6697 165.675,-277.5942"/>
<g id="a_edge33&#45;headlabel"><a xlink:href="dir_000090_000036.html" target="_top" xlink:title="38">
<text text-anchor="middle" x="165.4593" y="-270.5186" font-family="Helvetica,sans-Serif" font-size="10.00" fill="#000000">38</text>
</a>
</g>
</g>
<!-- dir_2171f7ec022c5423887b07c69b2f5b48&#45;&gt;dir_b05a5fa85f84bfc9013183c9d87f9a36 -->
<g id="edge34" class="edge">
<title>dir_2171f7ec022c5423887b07c69b2f5b48&#45;&gt;dir_b05a5fa85f84bfc9013183c9d87f9a36</title>
<path fill="none" stroke="#000000" d="M215.4743,-143.7942C207.1459,-133.6755 198.5118,-120.612 192.5,-108 183.0237,-88.1198 175.7724,-64.2677 172.3335,-46.1147"/>
<polygon fill="#000000" stroke="#000000" points="175.7783,-45.4898 170.7613,-36.1581 168.864,-46.5817 175.7783,-45.4898"/>
<g id="a_edge34&#45;headlabel"><a xlink:href="dir_000090_000642.html" target="_top" xlink:title="1">
<text text-anchor="middle" x="179.1434" y="-46.0976" font-family="Helvetica,sans-Serif" font-size="10.00" fill="#000000">1</text>
</a>
</g>
</g>
<!-- dir_2171f7ec022c5423887b07c69b2f5b48&#45;&gt;dir_37c90836491b695b472bf98d1be8336b -->
<g id="edge35" class="edge">
<title>dir_2171f7ec022c5423887b07c69b2f5b48&#45;&gt;dir_37c90836491b695b472bf98d1be8336b</title>
<path fill="none" stroke="#000000" d="M231.5476,-143.8314C230.7972,-136.131 230.5763,-126.9743 230.8849,-118.4166"/>
<polygon fill="#000000" stroke="#000000" points="234.3792,-118.6161 231.524,-108.4133 227.3935,-118.1697 234.3792,-118.6161"/>
<g id="a_edge35&#45;headlabel"><a xlink:href="dir_000090_000297.html" target="_top" xlink:title="1">
<text text-anchor="middle" x="236.9836" y="-119.8844" font-family="Helvetica,sans-Serif" font-size="10.00" fill="#000000">1</text>
</a>
</g>
</g>
<!-- dir_2171f7ec022c5423887b07c69b2f5b48&#45;&gt;dir_bcbb2cf9a3d3d83e5515c82071a07177 -->
<g id="edge37" class="edge">
<title>dir_2171f7ec022c5423887b07c69b2f5b48&#45;&gt;dir_bcbb2cf9a3d3d83e5515c82071a07177</title>
<path fill="none" stroke="#000000" d="M197.2685,-178.3956C163.5876,-190.8982 115.6855,-207.9397 80.6935,-219.8497"/>
<polygon fill="#000000" stroke="#000000" points="79.54,-216.5449 71.1888,-223.0647 81.7831,-223.1758 79.54,-216.5449"/>
<g id="a_edge37&#45;headlabel"><a xlink:href="dir_000090_000063.html" target="_top" xlink:title="22">
<text text-anchor="middle" x="82.0353" y="-210.2036" font-family="Helvetica,sans-Serif" font-size="10.00" fill="#000000">22</text>
</a>
</g>
</g>
</g>
</svg>
        <g id="navigator" transform="translate(0 0)" fill="#404254">
                <rect fill="#f2f5e9" fill-opacity="0.5" stroke="#606060" stroke-width=".5" x="0" y="0" width="60" height="60"/>
                <use id="zoomplus" xlink:href="#zoomPlus" x="17" y="9" onmousedown="handleZoom(evt,'in')"/>
                <use id="zoomminus" xlink:href="#zoomMin" x="42" y="9" onmousedown="handleZoom(evt,'out')"/>
                <use id="reset" xlink:href="#resetDef" x="30" y="36" onmousedown="handleReset()"/>
                <g id="arrowUp" xlink:href="#dirArrow" transform="translate(30 24)" onmousedown="handlePan(0,-1)">
                  <use xlink:href="#rim" fill="#404040">
                        <set attributeName="fill" to="#808080" begin="arrowUp.mouseover" end="arrowUp.mouseout"/>
                  </use>
                  <path fill="none" stroke="white" stroke-width="1.5" d="M0,-3.0v7 M-2.5,-0.5L0,-3.0L2.5,-0.5"/>
                </g>
                <g id="arrowRight" xlink:href="#dirArrow" transform="rotate(90) translate(36 -43)" onmousedown="handlePan(1,0)">
                  <use xlink:href="#rim" fill="#404040">
                        <set attributeName="fill" to="#808080" begin="arrowRight.mouseover" end="arrowRight.mouseout"/>
                  </use>
                  <path fill="none" stroke="white" stroke-width="1.5" d="M0,-3.0v7 M-2.5,-0.5L0,-3.0L2.5,-0.5"/>
                </g>
                <g id="arrowDown" xlink:href="#dirArrow" transform="rotate(180) translate(-30 -48)" onmousedown="handlePan(0,1)">
                  <use xlink:href="#rim" fill="#404040">
                        <set attributeName="fill" to="#808080" begin="arrowDown.mouseover" end="arrowDown.mouseout"/>
                  </use>
                  <path fill="none" stroke="white" stroke-width="1.5" d="M0,-3.0v7 M-2.5,-0.5L0,-3.0L2.5,-0.5"/>
                </g>
                <g id="arrowLeft" xlink:href="#dirArrow" transform="rotate(270) translate(-36 17)" onmousedown="handlePan(-1,0)">
                  <use xlink:href="#rim" fill="#404040">
                        <set attributeName="fill" to="#808080" begin="arrowLeft.mouseover" end="arrowLeft.mouseout"/>
                  </use>
                  <path fill="none" stroke="white" stroke-width="1.5" d="M0,-3.0v7 M-2.5,-0.5L0,-3.0L2.5,-0.5"/>
                </g>
        </g>
        <svg viewBox="0 0 15 15" width="100%" height="30px" preserveAspectRatio="xMaxYMin meet">
         <g id="arrow_out" transform="scale(0.3 0.3)">
          <a xlink:href="dir_a5b1c90a9b4d60b6556bfe35a03caaa0_dep_org.svg" target="_base">
           <rect id="button" ry="5" rx="5" y="6" x="6" height="38" width="38"
                fill="#f2f5e9" fill-opacity="0.5" stroke="#606060" stroke-width="1.0"/>
           <path id="arrow"
             d="M 11.500037,31.436501 C 11.940474,20.09759 22.043105,11.32322 32.158766,21.979434 L 37.068811,17.246167 C 37.068811,17.246167 37.088388,32 37.088388,32 L 22.160133,31.978069 C 22.160133,31.978069 26.997745,27.140456 26.997745,27.140456 C 18.528582,18.264221 13.291696,25.230495 11.500037,31.436501 z"
             style="fill:#404040;"/>
          </a>
         </g>
        </svg>
</svg>
