<?xml version="1.0" encoding="UTF-8" standalone="no"?>
<!DOCTYPE svg PUBLIC "-//W3C//DTD SVG 1.1//EN"
 "http://www.w3.org/Graphics/SVG/1.1/DTD/svg11.dtd">
<!-- Generated by graphviz version 2.40.1 (20161225.0304)
 -->
<!-- Title: /home/travis/build/AliceO2Group/AliceO2/Detectors/TPC/reconstruction Pages: 1 -->
<svg width="752pt" height="663pt"
 viewBox="0.00 0.00 752.00 663.00" xmlns="http://www.w3.org/2000/svg" xmlns:xlink="http://www.w3.org/1999/xlink">
<g id="graph0" class="graph" transform="scale(1 1) rotate(0) translate(4 659)">
<title>/home/travis/build/AliceO2Group/AliceO2/Detectors/TPC/reconstruction</title>
<g id="clust1" class="cluster">
<title>clusterdir_a597e8e061b11201a1dff411feb10d0b</title>
<g id="a_clust1"><a xlink:href="dir_a597e8e061b11201a1dff411feb10d0b.html" target="_top" xlink:title="TPC">
<polygon fill="#ddddee" stroke="#000000" points="132,-488 132,-647 466,-647 466,-488 132,-488"/>
<text text-anchor="middle" x="299" y="-635" font-family="Helvetica,sans-Serif" font-size="10.00" fill="#000000">TPC</text>
</a>
</g>
</g>
<g id="clust2" class="cluster">
<title>clusterdir_a5de047958dd458e809773c6ffaa8478</title>
<g id="a_clust2"><a xlink:href="dir_a5de047958dd458e809773c6ffaa8478.html" target="_top">
<polygon fill="#eeeeff" stroke="#000000" points="140,-496 140,-620 458,-620 458,-496 140,-496"/>
</a>
</g>
</g>
<!-- dir_a5de047958dd458e809773c6ffaa8478 -->
<g id="node1" class="node">
<title>dir_a5de047958dd458e809773c6ffaa8478</title>
<text text-anchor="middle" x="407" y="-591.5" font-family="Helvetica,sans-Serif" font-size="10.00" fill="#000000">reconstruction</text>
</g>
<!-- dir_396d171119822f66a36fe1ebf998d1a3 -->
<g id="node2" class="node">
<title>dir_396d171119822f66a36fe1ebf998d1a3</title>
<g id="a_node2"><a xlink:href="dir_396d171119822f66a36fe1ebf998d1a3.html" target="_top" xlink:title="include">
<polygon fill="#ffffff" stroke="#ff0000" points="312,-540 258,-540 258,-504 312,-504 312,-540"/>
<text text-anchor="middle" x="285" y="-519.5" font-family="Helvetica,sans-Serif" font-size="10.00" fill="#000000">include</text>
</a>
</g>
</g>
<!-- dir_677b030cc750909e4cd27413873678d8 -->
<g id="node6" class="node">
<title>dir_677b030cc750909e4cd27413873678d8</title>
<g id="a_node6"><a xlink:href="dir_677b030cc750909e4cd27413873678d8.html" target="_top" xlink:title="base">
<polygon fill="none" stroke="#ff0000" points="528,-540 474,-540 474,-504 528,-504 528,-540"/>
<text text-anchor="middle" x="501" y="-519.5" font-family="Helvetica,sans-Serif" font-size="10.00" fill="#000000">base</text>
</a>
</g>
</g>
<!-- dir_396d171119822f66a36fe1ebf998d1a3&#45;&gt;dir_677b030cc750909e4cd27413873678d8 -->
<g id="edge19" class="edge">
<title>dir_396d171119822f66a36fe1ebf998d1a3&#45;&gt;dir_677b030cc750909e4cd27413873678d8</title>
<path fill="none" stroke="#000000" d="M312.4219,-522C362.8352,-522 413.2486,-522 463.6619,-522"/>
<polygon fill="#000000" stroke="#000000" points="463.7446,-525.5001 473.7446,-522 463.7445,-518.5001 463.7446,-525.5001"/>
<g id="a_edge19&#45;headlabel"><a xlink:href="dir_000406_000060.html" target="_top" xlink:title="9">
<text text-anchor="middle" x="460.15" y="-525.8393" font-family="Helvetica,sans-Serif" font-size="10.00" fill="#000000">9</text>
</a>
</g>
</g>
<!-- dir_4ab6b4cc6a7edbff49100e9123df213f -->
<g id="node7" class="node">
<title>dir_4ab6b4cc6a7edbff49100e9123df213f</title>
<g id="a_node7"><a xlink:href="dir_4ab6b4cc6a7edbff49100e9123df213f.html" target="_top" xlink:title="Common">
<polygon fill="none" stroke="#ff0000" points="545.5,-468 484.5,-468 484.5,-432 545.5,-432 545.5,-468"/>
<text text-anchor="middle" x="515" y="-447.5" font-family="Helvetica,sans-Serif" font-size="10.00" fill="#000000">Common</text>
</a>
</g>
</g>
<!-- dir_396d171119822f66a36fe1ebf998d1a3&#45;&gt;dir_4ab6b4cc6a7edbff49100e9123df213f -->
<g id="edge20" class="edge">
<title>dir_396d171119822f66a36fe1ebf998d1a3&#45;&gt;dir_4ab6b4cc6a7edbff49100e9123df213f</title>
<path fill="none" stroke="#000000" d="M312.2872,-513.4579C352.5291,-500.8605 428.0504,-477.219 474.6889,-462.6191"/>
<polygon fill="#000000" stroke="#000000" points="475.9657,-465.887 484.4633,-459.5593 473.8744,-459.2067 475.9657,-465.887"/>
<g id="a_edge20&#45;headlabel"><a xlink:href="dir_000406_000036.html" target="_top" xlink:title="2">
<text text-anchor="middle" x="473.3834" y="-467.1704" font-family="Helvetica,sans-Serif" font-size="10.00" fill="#000000">2</text>
</a>
</g>
</g>
<!-- dir_b05a5fa85f84bfc9013183c9d87f9a36 -->
<g id="node8" class="node">
<title>dir_b05a5fa85f84bfc9013183c9d87f9a36</title>
<g id="a_node8"><a xlink:href="dir_b05a5fa85f84bfc9013183c9d87f9a36.html" target="_top" xlink:title="Utilities">
<polygon fill="none" stroke="#ff0000" points="404.5,-108 349.5,-108 349.5,-72 404.5,-72 404.5,-108"/>
<text text-anchor="middle" x="377" y="-87.5" font-family="Helvetica,sans-Serif" font-size="10.00" fill="#000000">Utilities</text>
</a>
</g>
</g>
<!-- dir_396d171119822f66a36fe1ebf998d1a3&#45;&gt;dir_b05a5fa85f84bfc9013183c9d87f9a36 -->
<g id="edge21" class="edge">
<title>dir_396d171119822f66a36fe1ebf998d1a3&#45;&gt;dir_b05a5fa85f84bfc9013183c9d87f9a36</title>
<path fill="none" stroke="#000000" d="M257.6751,-510.2506C238.3943,-500.9309 212.911,-486.4203 195,-468 133.8432,-405.1045 74.8389,-366.501 114,-288 161.4892,-192.8048 278.9611,-131.3649 339.5404,-104.9206"/>
<polygon fill="#000000" stroke="#000000" points="341.2885,-107.9797 349.107,-100.8297 338.5362,-101.5435 341.2885,-107.9797"/>
<g id="a_edge21&#45;headlabel"><a xlink:href="dir_000406_000642.html" target="_top" xlink:title="1">
<text text-anchor="middle" x="339.0997" y="-109.5036" font-family="Helvetica,sans-Serif" font-size="10.00" fill="#000000">1</text>
</a>
</g>
</g>
<!-- dir_37c90836491b695b472bf98d1be8336b -->
<g id="node9" class="node">
<title>dir_37c90836491b695b472bf98d1be8336b</title>
<g id="a_node9"><a xlink:href="dir_37c90836491b695b472bf98d1be8336b.html" target="_top" xlink:title="Base">
<polygon fill="none" stroke="#ff0000" points="460,-180 406,-180 406,-144 460,-144 460,-180"/>
<text text-anchor="middle" x="433" y="-159.5" font-family="Helvetica,sans-Serif" font-size="10.00" fill="#000000">Base</text>
</a>
</g>
</g>
<!-- dir_396d171119822f66a36fe1ebf998d1a3&#45;&gt;dir_37c90836491b695b472bf98d1be8336b -->
<g id="edge22" class="edge">
<title>dir_396d171119822f66a36fe1ebf998d1a3&#45;&gt;dir_37c90836491b695b472bf98d1be8336b</title>
<path fill="none" stroke="#000000" d="M287.2807,-503.7228C289.8983,-485.2884 294.9061,-456.1762 303,-432 334.1232,-339.0361 389.8644,-236.6394 417.1186,-189.0662"/>
<polygon fill="#000000" stroke="#000000" points="420.2093,-190.7127 422.1739,-180.3016 414.1457,-187.2152 420.2093,-190.7127"/>
<g id="a_edge22&#45;headlabel"><a xlink:href="dir_000406_000297.html" target="_top" xlink:title="1">
<text text-anchor="middle" x="420.8729" y="-192.7451" font-family="Helvetica,sans-Serif" font-size="10.00" fill="#000000">1</text>
</a>
</g>
</g>
<!-- dir_f511f1e9c03c071966ae594f00bbc5e0 -->
<g id="node10" class="node">
<title>dir_f511f1e9c03c071966ae594f00bbc5e0</title>
<g id="a_node10"><a xlink:href="dir_f511f1e9c03c071966ae594f00bbc5e0.html" target="_top" xlink:title="GPU">
<polygon fill="none" stroke="#ff0000" points="470,-396 416,-396 416,-360 470,-360 470,-396"/>
<text text-anchor="middle" x="443" y="-375.5" font-family="Helvetica,sans-Serif" font-size="10.00" fill="#000000">GPU</text>
</a>
</g>
</g>
<!-- dir_396d171119822f66a36fe1ebf998d1a3&#45;&gt;dir_f511f1e9c03c071966ae594f00bbc5e0 -->
<g id="edge23" class="edge">
<title>dir_396d171119822f66a36fe1ebf998d1a3&#45;&gt;dir_f511f1e9c03c071966ae594f00bbc5e0</title>
<path fill="none" stroke="#000000" d="M299.1466,-503.991C314.524,-484.9921 340.3481,-454.7167 366,-432 378.7345,-420.7226 393.8563,-409.681 407.3134,-400.5509"/>
<polygon fill="#000000" stroke="#000000" points="409.4952,-403.303 415.8744,-394.8439 405.6124,-397.4785 409.4952,-403.303"/>
<g id="a_edge23&#45;headlabel"><a xlink:href="dir_000406_000762.html" target="_top" xlink:title="1">
<text text-anchor="middle" x="408.0791" y="-405.1592" font-family="Helvetica,sans-Serif" font-size="10.00" fill="#000000">1</text>
</a>
</g>
</g>
<!-- dir_26637d1bd82229bc9ed97f7e706be743 -->
<g id="node12" class="node">
<title>dir_26637d1bd82229bc9ed97f7e706be743</title>
<g id="a_node12"><a xlink:href="dir_26637d1bd82229bc9ed97f7e706be743.html" target="_top" xlink:title="Raw">
<polygon fill="none" stroke="#ff0000" points="554,-324 500,-324 500,-288 554,-288 554,-324"/>
<text text-anchor="middle" x="527" y="-303.5" font-family="Helvetica,sans-Serif" font-size="10.00" fill="#000000">Raw</text>
</a>
</g>
</g>
<!-- dir_396d171119822f66a36fe1ebf998d1a3&#45;&gt;dir_26637d1bd82229bc9ed97f7e706be743 -->
<g id="edge24" class="edge">
<title>dir_396d171119822f66a36fe1ebf998d1a3&#45;&gt;dir_26637d1bd82229bc9ed97f7e706be743</title>
<path fill="none" stroke="#000000" d="M290.9802,-503.9403C297.822,-484.8989 310.2763,-454.5885 327,-432 355.4634,-393.5548 366.931,-386.1281 407,-360 433.0697,-343.0005 465.3755,-328.8016 489.8978,-319.2367"/>
<polygon fill="#000000" stroke="#000000" points="491.4588,-322.3873 499.5537,-315.5519 488.963,-315.8473 491.4588,-322.3873"/>
<g id="a_edge24&#45;headlabel"><a xlink:href="dir_000406_000647.html" target="_top" xlink:title="1">
<text text-anchor="middle" x="489.1127" y="-323.8215" font-family="Helvetica,sans-Serif" font-size="10.00" fill="#000000">1</text>
</a>
</g>
</g>
<!-- dir_2171f7ec022c5423887b07c69b2f5b48 -->
<g id="node13" class="node">
<title>dir_2171f7ec022c5423887b07c69b2f5b48</title>
<g id="a_node13"><a xlink:href="dir_2171f7ec022c5423887b07c69b2f5b48.html" target="_top" xlink:title="DataFormats">
<polygon fill="none" stroke="#ff0000" points="315,-252 235,-252 235,-216 315,-216 315,-252"/>
<text text-anchor="middle" x="275" y="-231.5" font-family="Helvetica,sans-Serif" font-size="10.00" fill="#000000">DataFormats</text>
</a>
</g>
</g>
<!-- dir_396d171119822f66a36fe1ebf998d1a3&#45;&gt;dir_2171f7ec022c5423887b07c69b2f5b48 -->
<g id="edge25" class="edge">
<title>dir_396d171119822f66a36fe1ebf998d1a3&#45;&gt;dir_2171f7ec022c5423887b07c69b2f5b48</title>
<path fill="none" stroke="#000000" d="M257.9153,-509.3611C241.9557,-500.3078 223.1492,-486.4534 214,-468 178.4638,-396.3259 181.1531,-360.9458 214,-288 219.1267,-276.6148 227.9717,-266.6602 237.3608,-258.5035"/>
<polygon fill="#000000" stroke="#000000" points="239.7281,-261.0905 245.3059,-252.0828 235.3282,-255.646 239.7281,-261.0905"/>
<g id="a_edge25&#45;headlabel"><a xlink:href="dir_000406_000090.html" target="_top" xlink:title="23">
<text text-anchor="middle" x="238.7169" y="-263.0581" font-family="Helvetica,sans-Serif" font-size="10.00" fill="#000000">23</text>
</a>
</g>
</g>
<!-- dir_f9c1a6d4eb662f0614520771b81d0fc2 -->
<g id="node3" class="node">
<title>dir_f9c1a6d4eb662f0614520771b81d0fc2</title>
<g id="a_node3"><a xlink:href="dir_f9c1a6d4eb662f0614520771b81d0fc2.html" target="_top" xlink:title="run">
<polygon fill="#ffffff" stroke="#000000" points="202,-612 148,-612 148,-576 202,-576 202,-612"/>
<text text-anchor="middle" x="175" y="-591.5" font-family="Helvetica,sans-Serif" font-size="10.00" fill="#000000">run</text>
</a>
</g>
</g>
<!-- dir_f9c1a6d4eb662f0614520771b81d0fc2&#45;&gt;dir_396d171119822f66a36fe1ebf998d1a3 -->
<g id="edge2" class="edge">
<title>dir_f9c1a6d4eb662f0614520771b81d0fc2&#45;&gt;dir_396d171119822f66a36fe1ebf998d1a3</title>
<path fill="none" stroke="#000000" d="M202.191,-576.2022C216.3378,-566.9425 233.8157,-555.5025 249.063,-545.5224"/>
<polygon fill="#000000" stroke="#000000" points="251.2903,-548.2476 257.7406,-539.8425 247.4567,-542.3907 251.2903,-548.2476"/>
<g id="a_edge2&#45;headlabel"><a xlink:href="dir_000689_000406.html" target="_top" xlink:title="5">
<text text-anchor="middle" x="249.8377" y="-550.0918" font-family="Helvetica,sans-Serif" font-size="10.00" fill="#000000">5</text>
</a>
</g>
</g>
<!-- dir_f9c1a6d4eb662f0614520771b81d0fc2&#45;&gt;dir_677b030cc750909e4cd27413873678d8 -->
<g id="edge1" class="edge">
<title>dir_f9c1a6d4eb662f0614520771b81d0fc2&#45;&gt;dir_677b030cc750909e4cd27413873678d8</title>
<path fill="none" stroke="#000000" d="M202.1378,-579.3002C205.0763,-578.0515 208.0655,-576.9176 211,-576 318.5616,-542.3674 353.9262,-571.9485 462,-540 462.7241,-539.786 463.4519,-539.5607 464.182,-539.3254"/>
<polygon fill="#000000" stroke="#000000" points="465.5264,-542.5599 473.6869,-535.8029 463.0938,-535.9961 465.5264,-542.5599"/>
<g id="a_edge1&#45;headlabel"><a xlink:href="dir_000689_000060.html" target="_top" xlink:title="1">
<text text-anchor="middle" x="463.1424" y="-543.9713" font-family="Helvetica,sans-Serif" font-size="10.00" fill="#000000">1</text>
</a>
</g>
</g>
<!-- dir_f9c1a6d4eb662f0614520771b81d0fc2&#45;&gt;dir_2171f7ec022c5423887b07c69b2f5b48 -->
<g id="edge3" class="edge">
<title>dir_f9c1a6d4eb662f0614520771b81d0fc2&#45;&gt;dir_2171f7ec022c5423887b07c69b2f5b48</title>
<path fill="none" stroke="#000000" d="M147.7403,-578.5476C133.5507,-569.1552 117.1014,-555.9078 107,-540 63.9016,-472.1286 75.6278,-439.2792 89,-360 94.634,-326.5977 89.9209,-311.8255 114,-288 143.5646,-258.7467 189.4372,-245.336 224.6659,-239.1908"/>
<polygon fill="#000000" stroke="#000000" points="225.4401,-242.6115 234.7613,-237.5751 224.3339,-235.6994 225.4401,-242.6115"/>
<g id="a_edge3&#45;headlabel"><a xlink:href="dir_000689_000090.html" target="_top" xlink:title="1">
<text text-anchor="middle" x="222.3394" y="-243.4831" font-family="Helvetica,sans-Serif" font-size="10.00" fill="#000000">1</text>
</a>
</g>
</g>
<!-- dir_0c8c50542de1d83a040084fab225b0f7 -->
<g id="node4" class="node">
<title>dir_0c8c50542de1d83a040084fab225b0f7</title>
<g id="a_node4"><a xlink:href="dir_0c8c50542de1d83a040084fab225b0f7.html" target="_top" xlink:title="src">
<polygon fill="#ffffff" stroke="#000000" points="346,-612 292,-612 292,-576 346,-576 346,-612"/>
<text text-anchor="middle" x="319" y="-591.5" font-family="Helvetica,sans-Serif" font-size="10.00" fill="#000000">src</text>
</a>
</g>
</g>
<!-- dir_0c8c50542de1d83a040084fab225b0f7&#45;&gt;dir_396d171119822f66a36fe1ebf998d1a3 -->
<g id="edge39" class="edge">
<title>dir_0c8c50542de1d83a040084fab225b0f7&#45;&gt;dir_396d171119822f66a36fe1ebf998d1a3</title>
<path fill="none" stroke="#000000" d="M310.4204,-575.8314C306.6642,-567.8771 302.1743,-558.369 298.0202,-549.5723"/>
<polygon fill="#000000" stroke="#000000" points="301.1301,-547.9612 293.6952,-540.4133 294.8004,-550.9503 301.1301,-547.9612"/>
<g id="a_edge39&#45;headlabel"><a xlink:href="dir_000490_000406.html" target="_top" xlink:title="21">
<text text-anchor="middle" x="305.2324" y="-547.4993" font-family="Helvetica,sans-Serif" font-size="10.00" fill="#000000">21</text>
</a>
</g>
</g>
<!-- dir_0c8c50542de1d83a040084fab225b0f7&#45;&gt;dir_677b030cc750909e4cd27413873678d8 -->
<g id="edge38" class="edge">
<title>dir_0c8c50542de1d83a040084fab225b0f7&#45;&gt;dir_677b030cc750909e4cd27413873678d8</title>
<path fill="none" stroke="#000000" d="M346.3345,-579.8413C349.2346,-578.4871 352.1611,-577.1806 355,-576 401.3287,-556.734 415.376,-558.5401 462,-540 462.8489,-539.6625 463.7058,-539.316 464.568,-538.9622"/>
<polygon fill="#000000" stroke="#000000" points="466.0753,-542.1242 473.8875,-534.9674 463.3174,-535.6904 466.0753,-542.1242"/>
<g id="a_edge38&#45;headlabel"><a xlink:href="dir_000490_000060.html" target="_top" xlink:title="21">
<text text-anchor="middle" x="463.8901" y="-543.65" font-family="Helvetica,sans-Serif" font-size="10.00" fill="#000000">21</text>
</a>
</g>
</g>
<!-- dir_0c8c50542de1d83a040084fab225b0f7&#45;&gt;dir_f511f1e9c03c071966ae594f00bbc5e0 -->
<g id="edge40" class="edge">
<title>dir_0c8c50542de1d83a040084fab225b0f7&#45;&gt;dir_f511f1e9c03c071966ae594f00bbc5e0</title>
<path fill="none" stroke="#000000" d="M346.0783,-580.3956C362.1345,-571.0525 381.69,-557.2341 394,-540 423.1265,-499.2227 435.192,-440.88 440.0017,-406.4725"/>
<polygon fill="#000000" stroke="#000000" points="443.5192,-406.5591 441.3208,-396.1949 436.5762,-405.668 443.5192,-406.5591"/>
<g id="a_edge40&#45;headlabel"><a xlink:href="dir_000490_000762.html" target="_top" xlink:title="10">
<text text-anchor="middle" x="445.8779" y="-407.9859" font-family="Helvetica,sans-Serif" font-size="10.00" fill="#000000">10</text>
</a>
</g>
</g>
<!-- dir_bcbb2cf9a3d3d83e5515c82071a07177 -->
<g id="node11" class="node">
<title>dir_bcbb2cf9a3d3d83e5515c82071a07177</title>
<g id="a_node11"><a xlink:href="dir_bcbb2cf9a3d3d83e5515c82071a07177.html" target="_top" xlink:title="Framework">
<polygon fill="none" stroke="#ff0000" points="468.5,-36 397.5,-36 397.5,0 468.5,0 468.5,-36"/>
<text text-anchor="middle" x="433" y="-15.5" font-family="Helvetica,sans-Serif" font-size="10.00" fill="#000000">Framework</text>
</a>
</g>
</g>
<!-- dir_0c8c50542de1d83a040084fab225b0f7&#45;&gt;dir_bcbb2cf9a3d3d83e5515c82071a07177 -->
<g id="edge41" class="edge">
<title>dir_0c8c50542de1d83a040084fab225b0f7&#45;&gt;dir_bcbb2cf9a3d3d83e5515c82071a07177</title>
<path fill="none" stroke="#000000" d="M291.6755,-579.8172C288.7735,-578.4676 285.8438,-577.1688 283,-576 235.4216,-556.4445 212.7954,-572.5952 173,-540 52.1371,-441.0047 0,-390.2303 0,-234 0,-234 0,-234 0,-162 0,-81.0474 275.9572,-37.5736 387.2674,-23.3308"/>
<polygon fill="#000000" stroke="#000000" points="387.7123,-26.8025 397.1974,-22.0821 386.8388,-19.8572 387.7123,-26.8025"/>
<g id="a_edge41&#45;headlabel"><a xlink:href="dir_000490_000063.html" target="_top" xlink:title="2">
<text text-anchor="middle" x="384.5" y="-27.568" font-family="Helvetica,sans-Serif" font-size="10.00" fill="#000000">2</text>
</a>
</g>
</g>
<!-- dir_0c8c50542de1d83a040084fab225b0f7&#45;&gt;dir_26637d1bd82229bc9ed97f7e706be743 -->
<g id="edge42" class="edge">
<title>dir_0c8c50542de1d83a040084fab225b0f7&#45;&gt;dir_26637d1bd82229bc9ed97f7e706be743</title>
<path fill="none" stroke="#000000" d="M346.1898,-579.459C349.1181,-578.1793 352.0908,-576.9947 355,-576 433.0213,-549.3224 471.6989,-590.3466 537,-540 601.3493,-490.3872 596.9644,-436.2906 569,-360 565.3212,-349.9638 559.0381,-340.3102 552.4364,-332.0105"/>
<polygon fill="#000000" stroke="#000000" points="554.9496,-329.5625 545.8132,-324.1981 549.6102,-334.0892 554.9496,-329.5625"/>
<g id="a_edge42&#45;headlabel"><a xlink:href="dir_000490_000647.html" target="_top" xlink:title="2">
<text text-anchor="middle" x="559.4398" y="-327.9683" font-family="Helvetica,sans-Serif" font-size="10.00" fill="#000000">2</text>
</a>
</g>
</g>
<!-- dir_0c8c50542de1d83a040084fab225b0f7&#45;&gt;dir_2171f7ec022c5423887b07c69b2f5b48 -->
<g id="edge43" class="edge">
<title>dir_0c8c50542de1d83a040084fab225b0f7&#45;&gt;dir_2171f7ec022c5423887b07c69b2f5b48</title>
<path fill="none" stroke="#000000" d="M291.7969,-577.7048C244.4755,-548.399 152,-486.4647 152,-450 152,-450 152,-450 152,-378 152,-333.4756 166.8777,-321.6795 196,-288 206.0649,-276.3601 219.1885,-266.074 231.8398,-257.6858"/>
<polygon fill="#000000" stroke="#000000" points="233.9215,-260.5098 240.4795,-252.1886 230.1637,-254.6039 233.9215,-260.5098"/>
<g id="a_edge43&#45;headlabel"><a xlink:href="dir_000490_000090.html" target="_top" xlink:title="14">
<text text-anchor="middle" x="232.4129" y="-262.3349" font-family="Helvetica,sans-Serif" font-size="10.00" fill="#000000">14</text>
</a>
</g>
</g>
<!-- dir_064d7f478c030df51e47c94b08ab25b1 -->
<g id="node5" class="node">
<title>dir_064d7f478c030df51e47c94b08ab25b1</title>
<g id="a_node5"><a xlink:href="dir_064d7f478c030df51e47c94b08ab25b1.html" target="_top" xlink:title="test">
<polygon fill="#ffffff" stroke="#000000" points="274,-612 220,-612 220,-576 274,-576 274,-612"/>
<text text-anchor="middle" x="247" y="-591.5" font-family="Helvetica,sans-Serif" font-size="10.00" fill="#000000">test</text>
</a>
</g>
</g>
<!-- dir_064d7f478c030df51e47c94b08ab25b1&#45;&gt;dir_396d171119822f66a36fe1ebf998d1a3 -->
<g id="edge27" class="edge">
<title>dir_064d7f478c030df51e47c94b08ab25b1&#45;&gt;dir_396d171119822f66a36fe1ebf998d1a3</title>
<path fill="none" stroke="#000000" d="M256.589,-575.8314C260.8317,-567.7925 265.9121,-558.1666 270.596,-549.2918"/>
<polygon fill="#000000" stroke="#000000" points="273.7096,-550.8908 275.2819,-540.4133 267.5189,-547.6235 273.7096,-550.8908"/>
<g id="a_edge27&#45;headlabel"><a xlink:href="dir_000690_000406.html" target="_top" xlink:title="6">
<text text-anchor="middle" x="274.5428" y="-552.895" font-family="Helvetica,sans-Serif" font-size="10.00" fill="#000000">6</text>
</a>
</g>
</g>
<!-- dir_064d7f478c030df51e47c94b08ab25b1&#45;&gt;dir_677b030cc750909e4cd27413873678d8 -->
<g id="edge26" class="edge">
<title>dir_064d7f478c030df51e47c94b08ab25b1&#45;&gt;dir_677b030cc750909e4cd27413873678d8</title>
<path fill="none" stroke="#000000" d="M274.193,-579.4685C277.1207,-578.187 280.0924,-576.9994 283,-576 359.7421,-549.6231 384.8553,-565.175 462,-540 462.7178,-539.7658 463.4398,-539.5219 464.1646,-539.2695"/>
<polygon fill="#000000" stroke="#000000" points="465.5659,-542.4801 473.6243,-535.6017 463.0353,-535.9535 465.5659,-542.4801"/>
<g id="a_edge26&#45;headlabel"><a xlink:href="dir_000690_000060.html" target="_top" xlink:title="7">
<text text-anchor="middle" x="463.2408" y="-543.9268" font-family="Helvetica,sans-Serif" font-size="10.00" fill="#000000">7</text>
</a>
</g>
</g>
<!-- dir_064d7f478c030df51e47c94b08ab25b1&#45;&gt;dir_f511f1e9c03c071966ae594f00bbc5e0 -->
<g id="edge28" class="edge">
<title>dir_064d7f478c030df51e47c94b08ab25b1&#45;&gt;dir_f511f1e9c03c071966ae594f00bbc5e0</title>
<path fill="none" stroke="#000000" d="M274.1746,-577.0105C288.8621,-567.1527 306.8371,-553.9511 321,-540 364.1036,-497.5412 404.3121,-439.088 426.0899,-405.2451"/>
<polygon fill="#000000" stroke="#000000" points="429.3121,-406.7011 431.7307,-396.386 423.4074,-402.9414 429.3121,-406.7011"/>
<g id="a_edge28&#45;headlabel"><a xlink:href="dir_000690_000762.html" target="_top" xlink:title="5">
<text text-anchor="middle" x="429.7765" y="-408.7582" font-family="Helvetica,sans-Serif" font-size="10.00" fill="#000000">5</text>
</a>
</g>
</g>
<!-- dir_064d7f478c030df51e47c94b08ab25b1&#45;&gt;dir_2171f7ec022c5423887b07c69b2f5b48 -->
<g id="edge29" class="edge">
<title>dir_064d7f478c030df51e47c94b08ab25b1&#45;&gt;dir_2171f7ec022c5423887b07c69b2f5b48</title>
<path fill="none" stroke="#000000" d="M219.8812,-580.4206C216.8856,-578.9266 213.8789,-577.4296 211,-576 178.5996,-559.9109 157.1029,-570.7201 138,-540 78.8566,-444.8892 74.9759,-380.5849 138,-288 148.3113,-272.8523 190.0317,-257.7369 224.7525,-247.3672"/>
<polygon fill="#000000" stroke="#000000" points="226.1726,-250.5989 234.793,-244.4396 224.2131,-243.8788 226.1726,-250.5989"/>
<g id="a_edge29&#45;headlabel"><a xlink:href="dir_000690_000090.html" target="_top" xlink:title="10">
<text text-anchor="middle" x="223.5164" y="-251.8309" font-family="Helvetica,sans-Serif" font-size="10.00" fill="#000000">10</text>
</a>
</g>
</g>
<!-- dir_677b030cc750909e4cd27413873678d8&#45;&gt;dir_4ab6b4cc6a7edbff49100e9123df213f -->
<g id="edge4" class="edge">
<title>dir_677b030cc750909e4cd27413873678d8&#45;&gt;dir_4ab6b4cc6a7edbff49100e9123df213f</title>
<path fill="none" stroke="#000000" d="M504.5328,-503.8314C506.0301,-496.131 507.8105,-486.9743 509.4745,-478.4166"/>
<polygon fill="#000000" stroke="#000000" points="512.9465,-478.8975 511.4196,-468.4133 506.0752,-477.5614 512.9465,-478.8975"/>
<g id="a_edge4&#45;headlabel"><a xlink:href="dir_000060_000036.html" target="_top" xlink:title="15">
<text text-anchor="middle" x="515.0476" y="-480.4679" font-family="Helvetica,sans-Serif" font-size="10.00" fill="#000000">15</text>
</a>
</g>
</g>
<!-- dir_677b030cc750909e4cd27413873678d8&#45;&gt;dir_bcbb2cf9a3d3d83e5515c82071a07177 -->
<g id="edge5" class="edge">
<title>dir_677b030cc750909e4cd27413873678d8&#45;&gt;dir_bcbb2cf9a3d3d83e5515c82071a07177</title>
<path fill="none" stroke="#000000" d="M528.4028,-518.7723C591.9535,-509.6073 744,-477.3032 744,-378 744,-378 744,-378 744,-162 744,-114.1711 724.453,-99.0382 685,-72 651.9615,-49.3579 541.8836,-31.9744 478.6798,-23.5684"/>
<polygon fill="#000000" stroke="#000000" points="478.9506,-20.0741 468.5813,-22.2486 478.0434,-27.0151 478.9506,-20.0741"/>
<g id="a_edge5&#45;headlabel"><a xlink:href="dir_000060_000063.html" target="_top" xlink:title="3">
<text text-anchor="middle" x="482.8828" y="-15.2245" font-family="Helvetica,sans-Serif" font-size="10.00" fill="#000000">3</text>
</a>
</g>
</g>
<!-- dir_677b030cc750909e4cd27413873678d8&#45;&gt;dir_26637d1bd82229bc9ed97f7e706be743 -->
<g id="edge6" class="edge">
<title>dir_677b030cc750909e4cd27413873678d8&#45;&gt;dir_26637d1bd82229bc9ed97f7e706be743</title>
<path fill="none" stroke="#000000" d="M526.5052,-503.9627C537.4753,-494.6284 549.1145,-482.2089 555,-468 573.5103,-423.3122 555.2431,-366.7971 540.7791,-333.6972"/>
<polygon fill="#000000" stroke="#000000" points="543.7897,-331.8632 536.4573,-324.2155 537.4201,-334.7665 543.7897,-331.8632"/>
<g id="a_edge6&#45;headlabel"><a xlink:href="dir_000060_000647.html" target="_top" xlink:title="2">
<text text-anchor="middle" x="547.8641" y="-331.4565" font-family="Helvetica,sans-Serif" font-size="10.00" fill="#000000">2</text>
</a>
</g>
</g>
<!-- dir_677b030cc750909e4cd27413873678d8&#45;&gt;dir_2171f7ec022c5423887b07c69b2f5b48 -->
<g id="edge7" class="edge">
<title>dir_677b030cc750909e4cd27413873678d8&#45;&gt;dir_2171f7ec022c5423887b07c69b2f5b48</title>
<path fill="none" stroke="#000000" d="M480.5006,-503.7903C447.6061,-474.4629 384.6349,-417.8484 364,-396 335.5931,-365.9226 324.9839,-360.225 305,-324 294.1759,-304.3791 286.3834,-280.193 281.4575,-261.8361"/>
<polygon fill="#000000" stroke="#000000" points="284.8211,-260.8623 278.951,-252.0423 278.0397,-262.5979 284.8211,-260.8623"/>
<g id="a_edge7&#45;headlabel"><a xlink:href="dir_000060_000090.html" target="_top" xlink:title="21">
<text text-anchor="middle" x="288.4629" y="-261.1407" font-family="Helvetica,sans-Serif" font-size="10.00" fill="#000000">21</text>
</a>
</g>
</g>
<!-- dir_4ab6b4cc6a7edbff49100e9123df213f&#45;&gt;dir_f511f1e9c03c071966ae594f00bbc5e0 -->
<g id="edge8" class="edge">
<title>dir_4ab6b4cc6a7edbff49100e9123df213f&#45;&gt;dir_f511f1e9c03c071966ae594f00bbc5e0</title>
<path fill="none" stroke="#000000" d="M490.879,-431.8314C481.5923,-423.3694 471.1867,-413.1489 462.3891,-403.8971"/>
<polygon fill="#000000" stroke="#000000" points="464.8075,-401.3579 455.4373,-396.4133 459.6788,-406.122 464.8075,-401.3579"/>
<g id="a_edge8&#45;headlabel"><a xlink:href="dir_000036_000762.html" target="_top" xlink:title="11">
<text text-anchor="middle" x="469.3342" y="-399.5592" font-family="Helvetica,sans-Serif" font-size="10.00" fill="#000000">11</text>
</a>
</g>
</g>
<!-- dir_4ab6b4cc6a7edbff49100e9123df213f&#45;&gt;dir_bcbb2cf9a3d3d83e5515c82071a07177 -->
<g id="edge9" class="edge">
<title>dir_4ab6b4cc6a7edbff49100e9123df213f&#45;&gt;dir_bcbb2cf9a3d3d83e5515c82071a07177</title>
<path fill="none" stroke="#000000" d="M545.6537,-439.3896C595.5052,-421.4059 688,-379.5315 688,-306 688,-306 688,-306 688,-162 688,-66.1386 552.1891,-33.7101 478.7065,-23.0355"/>
<polygon fill="#000000" stroke="#000000" points="479.1557,-19.5644 468.7721,-21.6693 478.202,-26.4992 479.1557,-19.5644"/>
<g id="a_edge9&#45;headlabel"><a xlink:href="dir_000036_000063.html" target="_top" xlink:title="2">
<text text-anchor="middle" x="483.1036" y="-14.7413" font-family="Helvetica,sans-Serif" font-size="10.00" fill="#000000">2</text>
</a>
</g>
</g>
<!-- dir_4ab6b4cc6a7edbff49100e9123df213f&#45;&gt;dir_2171f7ec022c5423887b07c69b2f5b48 -->
<g id="edge10" class="edge">
<title>dir_4ab6b4cc6a7edbff49100e9123df213f&#45;&gt;dir_2171f7ec022c5423887b07c69b2f5b48</title>
<path fill="none" stroke="#000000" d="M484.0622,-440.6945C459.2187,-431.2663 424.6323,-415.3373 398,-396 346.7469,-358.7858 304.0085,-296.9852 284.8632,-261.4408"/>
<polygon fill="#000000" stroke="#000000" points="287.7785,-259.4555 280.1014,-252.154 281.5496,-262.6494 287.7785,-259.4555"/>
<g id="a_edge10&#45;headlabel"><a xlink:href="dir_000036_000090.html" target="_top" xlink:title="2">
<text text-anchor="middle" x="291.9451" y="-258.8587" font-family="Helvetica,sans-Serif" font-size="10.00" fill="#000000">2</text>
</a>
</g>
</g>
<!-- dir_b05a5fa85f84bfc9013183c9d87f9a36&#45;&gt;dir_4ab6b4cc6a7edbff49100e9123df213f -->
<g id="edge11" class="edge">
<title>dir_b05a5fa85f84bfc9013183c9d87f9a36&#45;&gt;dir_4ab6b4cc6a7edbff49100e9123df213f</title>
<path fill="none" stroke="#000000" d="M404.8024,-103.7886C423.7269,-113.7671 448.89,-128.2266 469,-144 532.5821,-193.8708 559.3179,-209.8845 580,-288 592.3379,-334.5997 591.6719,-352.9409 570,-396 564.556,-406.8165 556.0884,-416.7335 547.415,-425.0353"/>
<polygon fill="#000000" stroke="#000000" points="544.8903,-422.5992 539.8108,-431.8971 549.5798,-427.7962 544.8903,-422.5992"/>
<g id="a_edge11&#45;headlabel"><a xlink:href="dir_000642_000036.html" target="_top" xlink:title="1">
<text text-anchor="middle" x="545.6568" y="-415.5832" font-family="Helvetica,sans-Serif" font-size="10.00" fill="#000000">1</text>
</a>
</g>
</g>
<!-- dir_b05a5fa85f84bfc9013183c9d87f9a36&#45;&gt;dir_bcbb2cf9a3d3d83e5515c82071a07177 -->
<g id="edge12" class="edge">
<title>dir_b05a5fa85f84bfc9013183c9d87f9a36&#45;&gt;dir_bcbb2cf9a3d3d83e5515c82071a07177</title>
<path fill="none" stroke="#000000" d="M391.1312,-71.8314C397.5811,-63.5386 405.3445,-53.557 412.4252,-44.4533"/>
<polygon fill="#000000" stroke="#000000" points="415.3019,-46.4556 418.6786,-36.4133 409.7764,-42.158 415.3019,-46.4556"/>
<g id="a_edge12&#45;headlabel"><a xlink:href="dir_000642_000063.html" target="_top" xlink:title="99">
<text text-anchor="middle" x="415.3362" y="-48.5361" font-family="Helvetica,sans-Serif" font-size="10.00" fill="#000000">99</text>
</a>
</g>
</g>
<!-- dir_b05a5fa85f84bfc9013183c9d87f9a36&#45;&gt;dir_2171f7ec022c5423887b07c69b2f5b48 -->
<g id="edge13" class="edge">
<title>dir_b05a5fa85f84bfc9013183c9d87f9a36&#45;&gt;dir_2171f7ec022c5423887b07c69b2f5b48</title>
<path fill="none" stroke="#000000" d="M368.8448,-108.0896C353.5781,-133.2198 321.4856,-178.8541 298.9579,-207.7351"/>
<polygon fill="#000000" stroke="#000000" points="296.0632,-205.7524 292.5915,-215.7623 301.5477,-210.1022 296.0632,-205.7524"/>
<g id="a_edge13&#45;headlabel"><a xlink:href="dir_000642_000090.html" target="_top" xlink:title="59">
<text text-anchor="middle" x="296.0723" y="-198.6717" font-family="Helvetica,sans-Serif" font-size="10.00" fill="#000000">59</text>
</a>
</g>
</g>
<!-- dir_37c90836491b695b472bf98d1be8336b&#45;&gt;dir_4ab6b4cc6a7edbff49100e9123df213f -->
<g id="edge14" class="edge">
<title>dir_37c90836491b695b472bf98d1be8336b&#45;&gt;dir_4ab6b4cc6a7edbff49100e9123df213f</title>
<path fill="none" stroke="#000000" d="M460.1028,-178.4465C491.6758,-199.3778 542.1673,-238.7962 563,-288 582.4444,-333.925 554.891,-390.302 534.1883,-422.9924"/>
<polygon fill="#000000" stroke="#000000" points="531.1298,-421.274 528.5755,-431.5563 536.9844,-425.1112 531.1298,-421.274"/>
<g id="a_edge14&#45;headlabel"><a xlink:href="dir_000297_000036.html" target="_top" xlink:title="16">
<text text-anchor="middle" x="530.7255" y="-414.2112" font-family="Helvetica,sans-Serif" font-size="10.00" fill="#000000">16</text>
</a>
</g>
</g>
<!-- dir_37c90836491b695b472bf98d1be8336b&#45;&gt;dir_b05a5fa85f84bfc9013183c9d87f9a36 -->
<g id="edge15" class="edge">
<title>dir_37c90836491b695b472bf98d1be8336b&#45;&gt;dir_b05a5fa85f84bfc9013183c9d87f9a36</title>
<path fill="none" stroke="#000000" d="M418.8688,-143.8314C412.4189,-135.5386 404.6555,-125.557 397.5748,-116.4533"/>
<polygon fill="#000000" stroke="#000000" points="400.2236,-114.158 391.3214,-108.4133 394.6981,-118.4556 400.2236,-114.158"/>
<g id="a_edge15&#45;headlabel"><a xlink:href="dir_000297_000642.html" target="_top" xlink:title="1">
<text text-anchor="middle" x="404.6716" y="-112.7523" font-family="Helvetica,sans-Serif" font-size="10.00" fill="#000000">1</text>
</a>
</g>
</g>
<!-- dir_37c90836491b695b472bf98d1be8336b&#45;&gt;dir_f511f1e9c03c071966ae594f00bbc5e0 -->
<g id="edge16" class="edge">
<title>dir_37c90836491b695b472bf98d1be8336b&#45;&gt;dir_f511f1e9c03c071966ae594f00bbc5e0</title>
<path fill="none" stroke="#000000" d="M437.7952,-180.1451C442.9837,-217.7945 447.2642,-304.6409 446.4249,-349.7103"/>
<polygon fill="#000000" stroke="#000000" points="442.919,-349.8528 446.1105,-359.9555 449.9157,-350.0676 442.919,-349.8528"/>
<g id="a_edge16&#45;headlabel"><a xlink:href="dir_000297_000762.html" target="_top" xlink:title="15">
<text text-anchor="middle" x="440.1912" y="-343.6728" font-family="Helvetica,sans-Serif" font-size="10.00" fill="#000000">15</text>
</a>
</g>
</g>
<!-- dir_37c90836491b695b472bf98d1be8336b&#45;&gt;dir_bcbb2cf9a3d3d83e5515c82071a07177 -->
<g id="edge17" class="edge">
<title>dir_37c90836491b695b472bf98d1be8336b&#45;&gt;dir_bcbb2cf9a3d3d83e5515c82071a07177</title>
<path fill="none" stroke="#000000" d="M433,-143.7623C433,-119.201 433,-75.2474 433,-46.3541"/>
<polygon fill="#000000" stroke="#000000" points="436.5001,-46.0896 433,-36.0896 429.5001,-46.0897 436.5001,-46.0896"/>
<g id="a_edge17&#45;headlabel"><a xlink:href="dir_000297_000063.html" target="_top" xlink:title="1">
<text text-anchor="middle" x="439.3393" y="-47.1842" font-family="Helvetica,sans-Serif" font-size="10.00" fill="#000000">1</text>
</a>
</g>
</g>
<!-- dir_37c90836491b695b472bf98d1be8336b&#45;&gt;dir_2171f7ec022c5423887b07c69b2f5b48 -->
<g id="edge18" class="edge">
<title>dir_37c90836491b695b472bf98d1be8336b&#45;&gt;dir_2171f7ec022c5423887b07c69b2f5b48</title>
<path fill="none" stroke="#000000" d="M405.8868,-176.9031C383.5619,-187.6914 351.4876,-202.3856 324.6306,-214.1654"/>
<polygon fill="#000000" stroke="#000000" points="323.1424,-210.9959 315.3731,-218.1993 325.9387,-217.4132 323.1424,-210.9959"/>
<g id="a_edge18&#45;headlabel"><a xlink:href="dir_000297_000090.html" target="_top" xlink:title="15">
<text text-anchor="middle" x="325.3036" y="-204.4572" font-family="Helvetica,sans-Serif" font-size="10.00" fill="#000000">15</text>
</a>
</g>
</g>
<!-- dir_f511f1e9c03c071966ae594f00bbc5e0&#45;&gt;dir_677b030cc750909e4cd27413873678d8 -->
<g id="edge30" class="edge">
<title>dir_f511f1e9c03c071966ae594f00bbc5e0&#45;&gt;dir_677b030cc750909e4cd27413873678d8</title>
<path fill="none" stroke="#000000" d="M449.1445,-396.0974C455.4704,-414.3918 465.8146,-443.3974 476,-468 479.6177,-476.7384 483.845,-486.1326 487.7833,-494.5961"/>
<polygon fill="#000000" stroke="#000000" points="484.6308,-496.117 492.059,-503.6716 490.9632,-493.1336 484.6308,-496.117"/>
<g id="a_edge30&#45;headlabel"><a xlink:href="dir_000762_000060.html" target="_top" xlink:title="1">
<text text-anchor="middle" x="480.5303" y="-491.5753" font-family="Helvetica,sans-Serif" font-size="10.00" fill="#000000">1</text>
</a>
</g>
</g>
<!-- dir_f511f1e9c03c071966ae594f00bbc5e0&#45;&gt;dir_4ab6b4cc6a7edbff49100e9123df213f -->
<g id="edge31" class="edge">
<title>dir_f511f1e9c03c071966ae594f00bbc5e0&#45;&gt;dir_4ab6b4cc6a7edbff49100e9123df213f</title>
<path fill="none" stroke="#000000" d="M467.1147,-396.1628C476.4722,-404.6891 486.9667,-415.0016 495.8076,-424.3099"/>
<polygon fill="#000000" stroke="#000000" points="493.4173,-426.8796 502.7838,-431.8314 498.5496,-422.1194 493.4173,-426.8796"/>
<g id="a_edge31&#45;headlabel"><a xlink:href="dir_000762_000036.html" target="_top" xlink:title="4">
<text text-anchor="middle" x="488.8912" y="-423.6749" font-family="Helvetica,sans-Serif" font-size="10.00" fill="#000000">4</text>
</a>
</g>
</g>
<!-- dir_f511f1e9c03c071966ae594f00bbc5e0&#45;&gt;dir_b05a5fa85f84bfc9013183c9d87f9a36 -->
<g id="edge32" class="edge">
<title>dir_f511f1e9c03c071966ae594f00bbc5e0&#45;&gt;dir_b05a5fa85f84bfc9013183c9d87f9a36</title>
<path fill="none" stroke="#000000" d="M438.756,-359.9951C430.5745,-325.2278 412.0944,-246.417 397,-180 392.3293,-159.4485 387.1723,-136.2286 383.2649,-118.5222"/>
<polygon fill="#000000" stroke="#000000" points="386.5787,-117.2957 381.009,-108.2831 379.7427,-118.8019 386.5787,-117.2957"/>
<g id="a_edge32&#45;headlabel"><a xlink:href="dir_000762_000642.html" target="_top" xlink:title="4">
<text text-anchor="middle" x="390.1248" y="-117.6953" font-family="Helvetica,sans-Serif" font-size="10.00" fill="#000000">4</text>
</a>
</g>
</g>
<!-- dir_f511f1e9c03c071966ae594f00bbc5e0&#45;&gt;dir_37c90836491b695b472bf98d1be8336b -->
<g id="edge33" class="edge">
<title>dir_f511f1e9c03c071966ae594f00bbc5e0&#45;&gt;dir_37c90836491b695b472bf98d1be8336b</title>
<path fill="none" stroke="#000000" d="M438.2187,-359.9555C433.0286,-322.3938 428.7427,-235.5541 429.5729,-190.4103"/>
<polygon fill="#000000" stroke="#000000" points="433.0794,-190.2468 429.8849,-180.1451 426.0826,-190.0341 433.0794,-190.2468"/>
<g id="a_edge33&#45;headlabel"><a xlink:href="dir_000762_000297.html" target="_top" xlink:title="1">
<text text-anchor="middle" x="435.8082" y="-191.426" font-family="Helvetica,sans-Serif" font-size="10.00" fill="#000000">1</text>
</a>
</g>
</g>
<!-- dir_f511f1e9c03c071966ae594f00bbc5e0&#45;&gt;dir_26637d1bd82229bc9ed97f7e706be743 -->
<g id="edge34" class="edge">
<title>dir_f511f1e9c03c071966ae594f00bbc5e0&#45;&gt;dir_26637d1bd82229bc9ed97f7e706be743</title>
<path fill="none" stroke="#000000" d="M458.2444,-359.8314C467.7263,-350.9632 480.1638,-340.1637 491.8947,-330.5718"/>
<polygon fill="#000000" stroke="#000000" points="494.2622,-333.1592 499.8582,-324.1628 489.8734,-327.7059 494.2622,-333.1592"/>
<g id="a_edge34&#45;headlabel"><a xlink:href="dir_000762_000647.html" target="_top" xlink:title="1">
<text text-anchor="middle" x="493.242" y="-335.1248" font-family="Helvetica,sans-Serif" font-size="10.00" fill="#000000">1</text>
</a>
</g>
</g>
<!-- dir_f511f1e9c03c071966ae594f00bbc5e0&#45;&gt;dir_2171f7ec022c5423887b07c69b2f5b48 -->
<g id="edge35" class="edge">
<title>dir_f511f1e9c03c071966ae594f00bbc5e0&#45;&gt;dir_2171f7ec022c5423887b07c69b2f5b48</title>
<path fill="none" stroke="#000000" d="M417.0495,-359.7623C384.7013,-334.2272 330.2608,-287.7316 298.8958,-258.9906"/>
<polygon fill="#000000" stroke="#000000" points="301.1608,-256.3178 291.4463,-252.0896 296.4037,-261.4531 301.1608,-256.3178"/>
<g id="a_edge35&#45;headlabel"><a xlink:href="dir_000762_000090.html" target="_top" xlink:title="19">
<text text-anchor="middle" x="305.7273" y="-254.1778" font-family="Helvetica,sans-Serif" font-size="10.00" fill="#000000">19</text>
</a>
</g>
</g>
<!-- dir_bcbb2cf9a3d3d83e5515c82071a07177&#45;&gt;dir_4ab6b4cc6a7edbff49100e9123df213f -->
<g id="edge36" class="edge">
<title>dir_bcbb2cf9a3d3d83e5515c82071a07177&#45;&gt;dir_4ab6b4cc6a7edbff49100e9123df213f</title>
<path fill="none" stroke="#000000" d="M468.688,-20.5248C542.8467,-28.0657 706,-56.931 706,-162 706,-306 706,-306 706,-306 706,-380.3078 611.5419,-422.2865 555.359,-439.9512"/>
<polygon fill="#000000" stroke="#000000" points="554.244,-436.6317 545.6818,-442.8718 556.2666,-443.3331 554.244,-436.6317"/>
<g id="a_edge36&#45;headlabel"><a xlink:href="dir_000063_000036.html" target="_top" xlink:title="8">
<text text-anchor="middle" x="556.865" y="-430.375" font-family="Helvetica,sans-Serif" font-size="10.00" fill="#000000">8</text>
</a>
</g>
</g>
<!-- dir_bcbb2cf9a3d3d83e5515c82071a07177&#45;&gt;dir_2171f7ec022c5423887b07c69b2f5b48 -->
<g id="edge37" class="edge">
<title>dir_bcbb2cf9a3d3d83e5515c82071a07177&#45;&gt;dir_2171f7ec022c5423887b07c69b2f5b48</title>
<path fill="none" stroke="#000000" d="M397.3423,-36.0734C380.921,-44.8575 362.2921,-56.8375 349,-72 314.6024,-111.2378 297.0709,-170.9813 286.5399,-205.8946"/>
<polygon fill="#000000" stroke="#000000" points="283.063,-205.2961 283.4855,-215.8825 289.757,-207.3432 283.063,-205.2961"/>
<g id="a_edge37&#45;headlabel"><a xlink:href="dir_000063_000090.html" target="_top" xlink:title="73">
<text text-anchor="middle" x="281.399" y="-198.5283" font-family="Helvetica,sans-Serif" font-size="10.00" fill="#000000">73</text>
</a>
</g>
</g>
<!-- dir_26637d1bd82229bc9ed97f7e706be743&#45;&gt;dir_4ab6b4cc6a7edbff49100e9123df213f -->
<g id="edge44" class="edge">
<title>dir_26637d1bd82229bc9ed97f7e706be743&#45;&gt;dir_4ab6b4cc6a7edbff49100e9123df213f</title>
<path fill="none" stroke="#000000" d="M525.2203,-324.4884C524.2338,-334.9137 523.0069,-348.1798 522,-360 520.2486,-380.5614 518.447,-403.781 517.1101,-421.4848"/>
<polygon fill="#000000" stroke="#000000" points="513.6001,-421.4883 516.3425,-431.7221 520.5805,-422.0118 513.6001,-421.4883"/>
<g id="a_edge44&#45;headlabel"><a xlink:href="dir_000647_000036.html" target="_top" xlink:title="10">
<text text-anchor="middle" x="511.0375" y="-415.1915" font-family="Helvetica,sans-Serif" font-size="10.00" fill="#000000">10</text>
</a>
</g>
</g>
<!-- dir_26637d1bd82229bc9ed97f7e706be743&#45;&gt;dir_f511f1e9c03c071966ae594f00bbc5e0 -->
<g id="edge45" class="edge">
<title>dir_26637d1bd82229bc9ed97f7e706be743&#45;&gt;dir_f511f1e9c03c071966ae594f00bbc5e0</title>
<path fill="none" stroke="#000000" d="M511.7619,-324.1628C502.2812,-333.0301 489.8442,-343.8295 478.113,-353.4219"/>
<polygon fill="#000000" stroke="#000000" points="475.745,-350.8349 470.1491,-359.8314 480.1339,-356.2881 475.745,-350.8349"/>
<g id="a_edge45&#45;headlabel"><a xlink:href="dir_000647_000762.html" target="_top" xlink:title="2">
<text text-anchor="middle" x="476.7652" y="-343.8693" font-family="Helvetica,sans-Serif" font-size="10.00" fill="#000000">2</text>
</a>
</g>
</g>
<!-- dir_26637d1bd82229bc9ed97f7e706be743&#45;&gt;dir_bcbb2cf9a3d3d83e5515c82071a07177 -->
<g id="edge46" class="edge">
<title>dir_26637d1bd82229bc9ed97f7e706be743&#45;&gt;dir_bcbb2cf9a3d3d83e5515c82071a07177</title>
<path fill="none" stroke="#000000" d="M521.1199,-287.9843C505.1949,-239.1929 461.147,-104.2377 442.0386,-45.6927"/>
<polygon fill="#000000" stroke="#000000" points="445.308,-44.4293 438.8779,-36.0089 438.6535,-46.6013 445.308,-44.4293"/>
<g id="a_edge46&#45;headlabel"><a xlink:href="dir_000647_000063.html" target="_top" xlink:title="25">
<text text-anchor="middle" x="449.1224" y="-44.4656" font-family="Helvetica,sans-Serif" font-size="10.00" fill="#000000">25</text>
</a>
</g>
</g>
<!-- dir_26637d1bd82229bc9ed97f7e706be743&#45;&gt;dir_2171f7ec022c5423887b07c69b2f5b48 -->
<g id="edge47" class="edge">
<title>dir_26637d1bd82229bc9ed97f7e706be743&#45;&gt;dir_2171f7ec022c5423887b07c69b2f5b48</title>
<path fill="none" stroke="#000000" d="M499.5519,-298.1577C457.7275,-286.2079 377.3866,-263.2533 325.0098,-248.2885"/>
<polygon fill="#000000" stroke="#000000" points="325.8259,-244.8817 315.2491,-245.4998 323.9028,-251.6124 325.8259,-244.8817"/>
<g id="a_edge47&#45;headlabel"><a xlink:href="dir_000647_000090.html" target="_top" xlink:title="15">
<text text-anchor="middle" x="330.0622" y="-240.6391" font-family="Helvetica,sans-Serif" font-size="10.00" fill="#000000">15</text>
</a>
</g>
</g>
<!-- dir_2171f7ec022c5423887b07c69b2f5b48&#45;&gt;dir_4ab6b4cc6a7edbff49100e9123df213f -->
<g id="edge48" class="edge">
<title>dir_2171f7ec022c5423887b07c69b2f5b48&#45;&gt;dir_4ab6b4cc6a7edbff49100e9123df213f</title>
<path fill="none" stroke="#000000" d="M290.6256,-252.154C314.0475,-285.1472 359.9282,-355.2871 416,-396 434.2845,-409.2761 456.3182,-420.9457 475.0306,-430.008"/>
<polygon fill="#000000" stroke="#000000" points="473.6631,-433.2334 484.1965,-434.3731 476.673,-426.9134 473.6631,-433.2334"/>
<g id="a_edge48&#45;headlabel"><a xlink:href="dir_000090_000036.html" target="_top" xlink:title="38">
<text text-anchor="middle" x="469.197" y="-431.7513" font-family="Helvetica,sans-Serif" font-size="10.00" fill="#000000">38</text>
</a>
</g>
</g>
<!-- dir_2171f7ec022c5423887b07c69b2f5b48&#45;&gt;dir_b05a5fa85f84bfc9013183c9d87f9a36 -->
<g id="edge49" class="edge">
<title>dir_2171f7ec022c5423887b07c69b2f5b48&#45;&gt;dir_b05a5fa85f84bfc9013183c9d87f9a36</title>
<path fill="none" stroke="#000000" d="M283.2452,-215.7623C298.5778,-190.5518 330.6845,-144.9103 353.1746,-116.0952"/>
<polygon fill="#000000" stroke="#000000" points="356.0531,-118.0983 359.5282,-108.0896 350.5701,-113.7467 356.0531,-118.0983"/>
<g id="a_edge49&#45;headlabel"><a xlink:href="dir_000090_000642.html" target="_top" xlink:title="1">
<text text-anchor="middle" x="356.0424" y="-120.179" font-family="Helvetica,sans-Serif" font-size="10.00" fill="#000000">1</text>
</a>
</g>
</g>
<!-- dir_2171f7ec022c5423887b07c69b2f5b48&#45;&gt;dir_37c90836491b695b472bf98d1be8336b -->
<g id="edge50" class="edge">
<title>dir_2171f7ec022c5423887b07c69b2f5b48&#45;&gt;dir_37c90836491b695b472bf98d1be8336b</title>
<path fill="none" stroke="#000000" d="M308.9177,-215.8314C334.7485,-203.5133 370.1115,-187.469 396.5463,-176.1107"/>
<polygon fill="#000000" stroke="#000000" points="398.0157,-179.2892 405.8473,-172.1536 395.2752,-172.8479 398.0157,-179.2892"/>
<g id="a_edge50&#45;headlabel"><a xlink:href="dir_000090_000297.html" target="_top" xlink:title="1">
<text text-anchor="middle" x="395.8195" y="-180.809" font-family="Helvetica,sans-Serif" font-size="10.00" fill="#000000">1</text>
</a>
</g>
</g>
<!-- dir_2171f7ec022c5423887b07c69b2f5b48&#45;&gt;dir_f511f1e9c03c071966ae594f00bbc5e0 -->
<g id="edge51" class="edge">
<title>dir_2171f7ec022c5423887b07c69b2f5b48&#45;&gt;dir_f511f1e9c03c071966ae594f00bbc5e0</title>
<path fill="none" stroke="#000000" d="M300.7628,-252.0896C333.0254,-277.5434 387.4676,-324.0326 418.9218,-352.8423"/>
<polygon fill="#000000" stroke="#000000" points="416.6802,-355.5367 426.3959,-359.7623 421.4359,-350.4002 416.6802,-355.5367"/>
<g id="a_edge51&#45;headlabel"><a xlink:href="dir_000090_000762.html" target="_top" xlink:title="28">
<text text-anchor="middle" x="412.1136" y="-352.6779" font-family="Helvetica,sans-Serif" font-size="10.00" fill="#000000">28</text>
</a>
</g>
</g>
<!-- dir_2171f7ec022c5423887b07c69b2f5b48&#45;&gt;dir_bcbb2cf9a3d3d83e5515c82071a07177 -->
<g id="edge52" class="edge">
<title>dir_2171f7ec022c5423887b07c69b2f5b48&#45;&gt;dir_bcbb2cf9a3d3d83e5515c82071a07177</title>
<path fill="none" stroke="#000000" d="M272.8444,-215.8825C275.6242,-183.5614 293.044,-115.2969 331,-72 346.1935,-54.6685 368.3599,-41.4952 388.2503,-32.5"/>
<polygon fill="#000000" stroke="#000000" points="389.6787,-35.6958 397.4925,-28.5407 386.9222,-29.2613 389.6787,-35.6958"/>
<g id="a_edge52&#45;headlabel"><a xlink:href="dir_000090_000063.html" target="_top" xlink:title="22">
<text text-anchor="middle" x="387.4925" y="-37.2211" font-family="Helvetica,sans-Serif" font-size="10.00" fill="#000000">22</text>
</a>
</g>
</g>
</g>
</svg>
