<?xml version="1.0" encoding="UTF-8" standalone="no"?>
<!DOCTYPE svg PUBLIC "-//W3C//DTD SVG 1.1//EN"
 "http://www.w3.org/Graphics/SVG/1.1/DTD/svg11.dtd">
<!-- Generated by graphviz version 2.40.1 (20161225.0304)
 -->
<!-- Title: /home/travis/build/AliceO2Group/AliceO2/DataFormats/Reconstruction Pages: 1 -->
<svg width="435pt" height="375pt"
 viewBox="0.00 0.00 434.72 375.00" xmlns="http://www.w3.org/2000/svg" xmlns:xlink="http://www.w3.org/1999/xlink">
<g id="graph0" class="graph" transform="scale(1 1) rotate(0) translate(4 371)">
<title>/home/travis/build/AliceO2Group/AliceO2/DataFormats/Reconstruction</title>
<g id="clust1" class="cluster">
<title>clusterdir_2171f7ec022c5423887b07c69b2f5b48</title>
<g id="a_clust1"><a xlink:href="dir_2171f7ec022c5423887b07c69b2f5b48.html" target="_top" xlink:title="DataFormats">
<polygon fill="#ddddee" stroke="#000000" points="8,-200 8,-359 273,-359 273,-200 8,-200"/>
<text text-anchor="middle" x="140.5" y="-347" font-family="Helvetica,sans-Serif" font-size="10.00" fill="#000000">DataFormats</text>
</a>
</g>
</g>
<g id="clust2" class="cluster">
<title>clusterdir_d269712cc31e133b892a3b3f6424741a</title>
<g id="a_clust2"><a xlink:href="dir_d269712cc31e133b892a3b3f6424741a.html" target="_top">
<polygon fill="#eeeeff" stroke="#000000" points="16,-208 16,-332 265,-332 265,-208 16,-208"/>
</a>
</g>
</g>
<!-- dir_d269712cc31e133b892a3b3f6424741a -->
<g id="node1" class="node">
<title>dir_d269712cc31e133b892a3b3f6424741a</title>
<text text-anchor="middle" x="213" y="-303.5" font-family="Helvetica,sans-Serif" font-size="10.00" fill="#000000">Reconstruction</text>
</g>
<!-- dir_99c43ad88135ecdb15d6d5c818628268 -->
<g id="node2" class="node">
<title>dir_99c43ad88135ecdb15d6d5c818628268</title>
<g id="a_node2"><a xlink:href="dir_99c43ad88135ecdb15d6d5c818628268.html" target="_top" xlink:title="include">
<polygon fill="#ffffff" stroke="#ff0000" points="129,-252 75,-252 75,-216 129,-216 129,-252"/>
<text text-anchor="middle" x="102" y="-231.5" font-family="Helvetica,sans-Serif" font-size="10.00" fill="#000000">include</text>
</a>
</g>
</g>
<!-- dir_4ab6b4cc6a7edbff49100e9123df213f -->
<g id="node5" class="node">
<title>dir_4ab6b4cc6a7edbff49100e9123df213f</title>
<g id="a_node5"><a xlink:href="dir_4ab6b4cc6a7edbff49100e9123df213f.html" target="_top" xlink:title="Common">
<polygon fill="none" stroke="#ff0000" points="342.5,-252 281.5,-252 281.5,-216 342.5,-216 342.5,-252"/>
<text text-anchor="middle" x="312" y="-231.5" font-family="Helvetica,sans-Serif" font-size="10.00" fill="#000000">Common</text>
</a>
</g>
</g>
<!-- dir_99c43ad88135ecdb15d6d5c818628268&#45;&gt;dir_4ab6b4cc6a7edbff49100e9123df213f -->
<g id="edge19" class="edge">
<title>dir_99c43ad88135ecdb15d6d5c818628268&#45;&gt;dir_4ab6b4cc6a7edbff49100e9123df213f</title>
<path fill="none" stroke="#000000" d="M129.0703,-234C176.4356,-234 223.801,-234 271.1663,-234"/>
<polygon fill="#000000" stroke="#000000" points="271.2736,-237.5001 281.2735,-234 271.2735,-230.5001 271.2736,-237.5001"/>
<g id="a_edge19&#45;headlabel"><a xlink:href="dir_000255_000036.html" target="_top" xlink:title="9">
<text text-anchor="middle" x="267.6789" y="-237.8393" font-family="Helvetica,sans-Serif" font-size="10.00" fill="#000000">9</text>
</a>
</g>
</g>
<!-- dir_2801adc79bf3c286b1b479858d2cade4 -->
<g id="node6" class="node">
<title>dir_2801adc79bf3c286b1b479858d2cade4</title>
<g id="a_node6"><a xlink:href="dir_2801adc79bf3c286b1b479858d2cade4.html" target="_top" xlink:title="Detectors">
<polygon fill="none" stroke="#ff0000" points="287,-180 223,-180 223,-144 287,-144 287,-180"/>
<text text-anchor="middle" x="255" y="-159.5" font-family="Helvetica,sans-Serif" font-size="10.00" fill="#000000">Detectors</text>
</a>
</g>
</g>
<!-- dir_99c43ad88135ecdb15d6d5c818628268&#45;&gt;dir_2801adc79bf3c286b1b479858d2cade4 -->
<g id="edge20" class="edge">
<title>dir_99c43ad88135ecdb15d6d5c818628268&#45;&gt;dir_2801adc79bf3c286b1b479858d2cade4</title>
<path fill="none" stroke="#000000" d="M129.165,-218.5542C152.6575,-206.8372 186.7907,-190.7515 213.644,-178.7303"/>
<polygon fill="#000000" stroke="#000000" points="215.0896,-181.918 222.8094,-174.6616 212.2494,-175.52 215.0896,-181.918"/>
<g id="a_edge20&#45;headlabel"><a xlink:href="dir_000255_000104.html" target="_top" xlink:title="1">
<text text-anchor="middle" x="212.9562" y="-183.4715" font-family="Helvetica,sans-Serif" font-size="10.00" fill="#000000">1</text>
</a>
</g>
</g>
<!-- dir_7924ba4398ae4560cd37376e44666c6d -->
<g id="node7" class="node">
<title>dir_7924ba4398ae4560cd37376e44666c6d</title>
<g id="a_node7"><a xlink:href="dir_7924ba4398ae4560cd37376e44666c6d.html" target="_top" xlink:title="common">
<polygon fill="none" stroke="#ff0000" points="215.5,-108 156.5,-108 156.5,-72 215.5,-72 215.5,-108"/>
<text text-anchor="middle" x="186" y="-87.5" font-family="Helvetica,sans-Serif" font-size="10.00" fill="#000000">common</text>
</a>
</g>
</g>
<!-- dir_99c43ad88135ecdb15d6d5c818628268&#45;&gt;dir_7924ba4398ae4560cd37376e44666c6d -->
<g id="edge21" class="edge">
<title>dir_99c43ad88135ecdb15d6d5c818628268&#45;&gt;dir_7924ba4398ae4560cd37376e44666c6d</title>
<path fill="none" stroke="#000000" d="M108.7789,-215.7532C116.0602,-197.0884 128.5517,-167.5673 143,-144 148.8859,-134.3992 156.2445,-124.5709 163.2016,-115.9756"/>
<polygon fill="#000000" stroke="#000000" points="165.9945,-118.0907 169.6875,-108.1603 160.6079,-113.6203 165.9945,-118.0907"/>
<g id="a_edge21&#45;headlabel"><a xlink:href="dir_000255_000095.html" target="_top" xlink:title="6">
<text text-anchor="middle" x="165.8838" y="-120.17" font-family="Helvetica,sans-Serif" font-size="10.00" fill="#000000">6</text>
</a>
</g>
</g>
<!-- dir_f511f1e9c03c071966ae594f00bbc5e0 -->
<g id="node8" class="node">
<title>dir_f511f1e9c03c071966ae594f00bbc5e0</title>
<g id="a_node8"><a xlink:href="dir_f511f1e9c03c071966ae594f00bbc5e0.html" target="_top" xlink:title="GPU">
<polygon fill="none" stroke="#ff0000" points="280,-36 226,-36 226,0 280,0 280,-36"/>
<text text-anchor="middle" x="253" y="-15.5" font-family="Helvetica,sans-Serif" font-size="10.00" fill="#000000">GPU</text>
</a>
</g>
</g>
<!-- dir_99c43ad88135ecdb15d6d5c818628268&#45;&gt;dir_f511f1e9c03c071966ae594f00bbc5e0 -->
<g id="edge22" class="edge">
<title>dir_99c43ad88135ecdb15d6d5c818628268&#45;&gt;dir_f511f1e9c03c071966ae594f00bbc5e0</title>
<path fill="none" stroke="#000000" d="M102.1615,-215.9958C103.4127,-183.2463 110.6217,-113.4878 148,-72 166.2867,-51.7028 193.992,-37.9035 216.3524,-29.3376"/>
<polygon fill="#000000" stroke="#000000" points="217.6775,-32.5801 225.8803,-25.8746 215.2862,-26.0012 217.6775,-32.5801"/>
<g id="a_edge22&#45;headlabel"><a xlink:href="dir_000255_000762.html" target="_top" xlink:title="7">
<text text-anchor="middle" x="215.269" y="-33.9764" font-family="Helvetica,sans-Serif" font-size="10.00" fill="#000000">7</text>
</a>
</g>
</g>
<!-- dir_46bf9eb01275b6b66c6fbadfa4838276 -->
<g id="node3" class="node">
<title>dir_46bf9eb01275b6b66c6fbadfa4838276</title>
<g id="a_node3"><a xlink:href="dir_46bf9eb01275b6b66c6fbadfa4838276.html" target="_top" xlink:title="src">
<polygon fill="#ffffff" stroke="#000000" points="150,-324 96,-324 96,-288 150,-288 150,-324"/>
<text text-anchor="middle" x="123" y="-303.5" font-family="Helvetica,sans-Serif" font-size="10.00" fill="#000000">src</text>
</a>
</g>
</g>
<!-- dir_46bf9eb01275b6b66c6fbadfa4838276&#45;&gt;dir_99c43ad88135ecdb15d6d5c818628268 -->
<g id="edge6" class="edge">
<title>dir_46bf9eb01275b6b66c6fbadfa4838276&#45;&gt;dir_99c43ad88135ecdb15d6d5c818628268</title>
<path fill="none" stroke="#000000" d="M117.7008,-287.8314C115.4302,-280.0463 112.7254,-270.7729 110.206,-262.1347"/>
<polygon fill="#000000" stroke="#000000" points="113.5306,-261.0332 107.3705,-252.4133 106.8106,-262.9933 113.5306,-261.0332"/>
<g id="a_edge6&#45;headlabel"><a xlink:href="dir_000283_000255.html" target="_top" xlink:title="18">
<text text-anchor="middle" x="117.2627" y="-261.1891" font-family="Helvetica,sans-Serif" font-size="10.00" fill="#000000">18</text>
</a>
</g>
</g>
<!-- dir_46bf9eb01275b6b66c6fbadfa4838276&#45;&gt;dir_4ab6b4cc6a7edbff49100e9123df213f -->
<g id="edge5" class="edge">
<title>dir_46bf9eb01275b6b66c6fbadfa4838276&#45;&gt;dir_4ab6b4cc6a7edbff49100e9123df213f</title>
<path fill="none" stroke="#000000" d="M150.2941,-292.217C153.5371,-290.73 156.8233,-289.2906 160,-288 207.2666,-268.7977 221.2113,-269.8634 269,-252 269.8623,-251.6777 270.7329,-251.3485 271.6093,-251.0136"/>
<polygon fill="#000000" stroke="#000000" points="273.0924,-254.1911 281.1113,-247.2666 270.5245,-247.6791 273.0924,-254.1911"/>
<g id="a_edge5&#45;headlabel"><a xlink:href="dir_000283_000036.html" target="_top" xlink:title="2">
<text text-anchor="middle" x="270.7899" y="-255.651" font-family="Helvetica,sans-Serif" font-size="10.00" fill="#000000">2</text>
</a>
</g>
</g>
<!-- dir_46bf9eb01275b6b66c6fbadfa4838276&#45;&gt;dir_f511f1e9c03c071966ae594f00bbc5e0 -->
<g id="edge7" class="edge">
<title>dir_46bf9eb01275b6b66c6fbadfa4838276&#45;&gt;dir_f511f1e9c03c071966ae594f00bbc5e0</title>
<path fill="none" stroke="#000000" d="M150.1186,-291.7334C153.3931,-290.3331 156.7347,-289.0463 160,-288 251.4298,-258.7019 304.2808,-319.0481 373,-252 430.8548,-195.5522 445.1902,-138.3324 399,-72 386.2409,-53.6771 329.1286,-36.5106 290.2339,-26.6411"/>
<polygon fill="#000000" stroke="#000000" points="290.8363,-23.1846 280.2878,-24.1744 289.1513,-29.9787 290.8363,-23.1846"/>
<g id="a_edge7&#45;headlabel"><a xlink:href="dir_000283_000762.html" target="_top" xlink:title="2">
<text text-anchor="middle" x="295.0087" y="-18.794" font-family="Helvetica,sans-Serif" font-size="10.00" fill="#000000">2</text>
</a>
</g>
</g>
<!-- dir_bcbb2cf9a3d3d83e5515c82071a07177 -->
<g id="node9" class="node">
<title>dir_bcbb2cf9a3d3d83e5515c82071a07177</title>
<g id="a_node9"><a xlink:href="dir_bcbb2cf9a3d3d83e5515c82071a07177.html" target="_top" xlink:title="Framework">
<polygon fill="none" stroke="#ff0000" points="361.5,-108 290.5,-108 290.5,-72 361.5,-72 361.5,-108"/>
<text text-anchor="middle" x="326" y="-87.5" font-family="Helvetica,sans-Serif" font-size="10.00" fill="#000000">Framework</text>
</a>
</g>
</g>
<!-- dir_46bf9eb01275b6b66c6fbadfa4838276&#45;&gt;dir_bcbb2cf9a3d3d83e5515c82071a07177 -->
<g id="edge8" class="edge">
<title>dir_46bf9eb01275b6b66c6fbadfa4838276&#45;&gt;dir_bcbb2cf9a3d3d83e5515c82071a07177</title>
<path fill="none" stroke="#000000" d="M150.1375,-291.7912C153.4086,-290.3806 156.7442,-289.0755 160,-288 242.4385,-260.7664 296.5534,-318.8091 352,-252 383.6766,-213.832 360.2318,-152.6362 341.9962,-117.3979"/>
<polygon fill="#000000" stroke="#000000" points="344.8614,-115.3361 337.0411,-108.188 338.6969,-118.6527 344.8614,-115.3361"/>
<g id="a_edge8&#45;headlabel"><a xlink:href="dir_000283_000063.html" target="_top" xlink:title="2">
<text text-anchor="middle" x="349.0648" y="-114.6564" font-family="Helvetica,sans-Serif" font-size="10.00" fill="#000000">2</text>
</a>
</g>
</g>
<!-- dir_c5b7346fd504360471cc9fe5be83ae72 -->
<g id="node4" class="node">
<title>dir_c5b7346fd504360471cc9fe5be83ae72</title>
<g id="a_node4"><a xlink:href="dir_c5b7346fd504360471cc9fe5be83ae72.html" target="_top" xlink:title="test">
<polygon fill="#ffffff" stroke="#000000" points="78,-324 24,-324 24,-288 78,-288 78,-324"/>
<text text-anchor="middle" x="51" y="-303.5" font-family="Helvetica,sans-Serif" font-size="10.00" fill="#000000">test</text>
</a>
</g>
</g>
<!-- dir_c5b7346fd504360471cc9fe5be83ae72&#45;&gt;dir_99c43ad88135ecdb15d6d5c818628268 -->
<g id="edge18" class="edge">
<title>dir_c5b7346fd504360471cc9fe5be83ae72&#45;&gt;dir_99c43ad88135ecdb15d6d5c818628268</title>
<path fill="none" stroke="#000000" d="M63.8695,-287.8314C69.6835,-279.6232 76.6696,-269.7606 83.0646,-260.7323"/>
<polygon fill="#000000" stroke="#000000" points="86.0331,-262.5966 88.9573,-252.4133 80.321,-258.5505 86.0331,-262.5966"/>
<g id="a_edge18&#45;headlabel"><a xlink:href="dir_000285_000255.html" target="_top" xlink:title="4">
<text text-anchor="middle" x="86.2723" y="-264.671" font-family="Helvetica,sans-Serif" font-size="10.00" fill="#000000">4</text>
</a>
</g>
</g>
<!-- dir_c5b7346fd504360471cc9fe5be83ae72&#45;&gt;dir_4ab6b4cc6a7edbff49100e9123df213f -->
<g id="edge16" class="edge">
<title>dir_c5b7346fd504360471cc9fe5be83ae72&#45;&gt;dir_4ab6b4cc6a7edbff49100e9123df213f</title>
<path fill="none" stroke="#000000" d="M78.1898,-291.459C81.1181,-290.1793 84.0908,-288.9947 87,-288 165.0213,-261.3224 190.1265,-276.0412 269,-252 269.8806,-251.7316 270.7678,-251.4515 271.6593,-251.1613"/>
<polygon fill="#000000" stroke="#000000" points="273.0256,-254.3901 281.2704,-247.7362 270.6758,-247.7963 273.0256,-254.3901"/>
<g id="a_edge16&#45;headlabel"><a xlink:href="dir_000285_000036.html" target="_top" xlink:title="1">
<text text-anchor="middle" x="270.5927" y="-255.7712" font-family="Helvetica,sans-Serif" font-size="10.00" fill="#000000">1</text>
</a>
</g>
</g>
<!-- dir_c5b7346fd504360471cc9fe5be83ae72&#45;&gt;dir_7924ba4398ae4560cd37376e44666c6d -->
<g id="edge17" class="edge">
<title>dir_c5b7346fd504360471cc9fe5be83ae72&#45;&gt;dir_7924ba4398ae4560cd37376e44666c6d</title>
<path fill="none" stroke="#000000" d="M78.3518,-291.8232C100.6711,-279.7649 129.8055,-262.7418 138,-252 168.4224,-212.1205 179.619,-153.2391 183.7005,-118.5326"/>
<polygon fill="#000000" stroke="#000000" points="187.2252,-118.4798 184.7909,-108.1685 180.2637,-117.7473 187.2252,-118.4798"/>
<g id="a_edge17&#45;headlabel"><a xlink:href="dir_000285_000095.html" target="_top" xlink:title="1">
<text text-anchor="middle" x="189.6729" y="-119.8518" font-family="Helvetica,sans-Serif" font-size="10.00" fill="#000000">1</text>
</a>
</g>
</g>
<!-- dir_4ab6b4cc6a7edbff49100e9123df213f&#45;&gt;dir_99c43ad88135ecdb15d6d5c818628268 -->
<g id="edge2" class="edge">
<title>dir_4ab6b4cc6a7edbff49100e9123df213f&#45;&gt;dir_99c43ad88135ecdb15d6d5c818628268</title>
<path fill="none" stroke="#000000" d="M281.2735,-234C233.9082,-234 186.5429,-234 139.1776,-234"/>
<polygon fill="#000000" stroke="#000000" points="139.0703,-230.5001 129.0703,-234 139.0703,-237.5001 139.0703,-230.5001"/>
<g id="a_edge2&#45;headlabel"><a xlink:href="dir_000036_000255.html" target="_top" xlink:title="1">
<text text-anchor="middle" x="142.6649" y="-225.1607" font-family="Helvetica,sans-Serif" font-size="10.00" fill="#000000">1</text>
</a>
</g>
</g>
<!-- dir_4ab6b4cc6a7edbff49100e9123df213f&#45;&gt;dir_2801adc79bf3c286b1b479858d2cade4 -->
<g id="edge1" class="edge">
<title>dir_4ab6b4cc6a7edbff49100e9123df213f&#45;&gt;dir_2801adc79bf3c286b1b479858d2cade4</title>
<path fill="none" stroke="#000000" d="M291.6641,-215.8314C284.3661,-207.6232 276.3599,-197.7606 269.6159,-188.7323"/>
<polygon fill="#000000" stroke="#000000" points="272.2966,-186.4663 263.6012,-180.4133 266.624,-190.5677 272.2966,-186.4663"/>
<g id="a_edge1&#45;headlabel"><a xlink:href="dir_000036_000104.html" target="_top" xlink:title="1">
<text text-anchor="middle" x="276.7036" y="-185.2157" font-family="Helvetica,sans-Serif" font-size="10.00" fill="#000000">1</text>
</a>
</g>
</g>
<!-- dir_4ab6b4cc6a7edbff49100e9123df213f&#45;&gt;dir_f511f1e9c03c071966ae594f00bbc5e0 -->
<g id="edge3" class="edge">
<title>dir_4ab6b4cc6a7edbff49100e9123df213f&#45;&gt;dir_f511f1e9c03c071966ae594f00bbc5e0</title>
<path fill="none" stroke="#000000" d="M323.2773,-215.8046C346.3334,-184.5231 392.4048,-119.3513 362,-72 345.8983,-46.9237 314.9325,-33.3444 290.0036,-26.0759"/>
<polygon fill="#000000" stroke="#000000" points="290.6635,-22.6293 280.0981,-23.4174 288.849,-29.39 290.6635,-22.6293"/>
<g id="a_edge3&#45;headlabel"><a xlink:href="dir_000036_000762.html" target="_top" xlink:title="11">
<text text-anchor="middle" x="294.8712" y="-18.3187" font-family="Helvetica,sans-Serif" font-size="10.00" fill="#000000">11</text>
</a>
</g>
</g>
<!-- dir_4ab6b4cc6a7edbff49100e9123df213f&#45;&gt;dir_bcbb2cf9a3d3d83e5515c82071a07177 -->
<g id="edge4" class="edge">
<title>dir_4ab6b4cc6a7edbff49100e9123df213f&#45;&gt;dir_bcbb2cf9a3d3d83e5515c82071a07177</title>
<path fill="none" stroke="#000000" d="M309.0999,-215.7623C309.0277,-191.0928 313.0619,-146.8598 317.8083,-117.9731"/>
<polygon fill="#000000" stroke="#000000" points="321.2605,-118.5508 319.583,-108.0896 314.3707,-117.3136 321.2605,-118.5508"/>
<g id="a_edge4&#45;headlabel"><a xlink:href="dir_000036_000063.html" target="_top" xlink:title="2">
<text text-anchor="middle" x="323.4199" y="-120.0906" font-family="Helvetica,sans-Serif" font-size="10.00" fill="#000000">2</text>
</a>
</g>
</g>
<!-- dir_2801adc79bf3c286b1b479858d2cade4&#45;&gt;dir_99c43ad88135ecdb15d6d5c818628268 -->
<g id="edge11" class="edge">
<title>dir_2801adc79bf3c286b1b479858d2cade4&#45;&gt;dir_99c43ad88135ecdb15d6d5c818628268</title>
<path fill="none" stroke="#000000" d="M222.9499,-179.8697C198.285,-192.0483 164.3218,-207.973 138.5956,-219.392"/>
<polygon fill="#000000" stroke="#000000" points="136.9231,-216.3038 129.1756,-223.5306 139.7388,-222.7125 136.9231,-216.3038"/>
<g id="a_edge11&#45;headlabel"><a xlink:href="dir_000104_000255.html" target="_top" xlink:title="6">
<text text-anchor="middle" x="139.0721" y="-209.7585" font-family="Helvetica,sans-Serif" font-size="10.00" fill="#000000">6</text>
</a>
</g>
</g>
<!-- dir_2801adc79bf3c286b1b479858d2cade4&#45;&gt;dir_4ab6b4cc6a7edbff49100e9123df213f -->
<g id="edge9" class="edge">
<title>dir_2801adc79bf3c286b1b479858d2cade4&#45;&gt;dir_4ab6b4cc6a7edbff49100e9123df213f</title>
<path fill="none" stroke="#000000" d="M275.5532,-180.4133C282.865,-188.654 290.8655,-198.5245 297.5843,-207.536"/>
<polygon fill="#000000" stroke="#000000" points="294.8797,-209.7693 303.5689,-215.8314 300.5566,-205.6738 294.8797,-209.7693"/>
<g id="a_edge9&#45;headlabel"><a xlink:href="dir_000104_000036.html" target="_top" xlink:title="16">
<text text-anchor="middle" x="290.474" y="-206.0153" font-family="Helvetica,sans-Serif" font-size="10.00" fill="#000000">16</text>
</a>
</g>
</g>
<!-- dir_2801adc79bf3c286b1b479858d2cade4&#45;&gt;dir_7924ba4398ae4560cd37376e44666c6d -->
<g id="edge10" class="edge">
<title>dir_2801adc79bf3c286b1b479858d2cade4&#45;&gt;dir_7924ba4398ae4560cd37376e44666c6d</title>
<path fill="none" stroke="#000000" d="M237.5884,-143.8314C229.479,-135.3694 219.6844,-125.1489 210.818,-115.8971"/>
<polygon fill="#000000" stroke="#000000" points="213.0921,-113.2115 203.646,-108.4133 208.0382,-118.0549 213.0921,-113.2115"/>
<g id="a_edge10&#45;headlabel"><a xlink:href="dir_000104_000095.html" target="_top" xlink:title="48">
<text text-anchor="middle" x="217.6291" y="-111.3422" font-family="Helvetica,sans-Serif" font-size="10.00" fill="#000000">48</text>
</a>
</g>
</g>
<!-- dir_2801adc79bf3c286b1b479858d2cade4&#45;&gt;dir_f511f1e9c03c071966ae594f00bbc5e0 -->
<g id="edge12" class="edge">
<title>dir_2801adc79bf3c286b1b479858d2cade4&#45;&gt;dir_f511f1e9c03c071966ae594f00bbc5e0</title>
<path fill="none" stroke="#000000" d="M250.0735,-143.7623C247.2726,-119.201 246.3874,-75.2474 247.8964,-46.3541"/>
<polygon fill="#000000" stroke="#000000" points="251.4078,-46.3037 248.593,-36.0896 244.4238,-45.8297 251.4078,-46.3037"/>
<g id="a_edge12&#45;headlabel"><a xlink:href="dir_000104_000762.html" target="_top" xlink:title="10">
<text text-anchor="middle" x="253.9972" y="-47.5822" font-family="Helvetica,sans-Serif" font-size="10.00" fill="#000000">10</text>
</a>
</g>
</g>
<!-- dir_2801adc79bf3c286b1b479858d2cade4&#45;&gt;dir_bcbb2cf9a3d3d83e5515c82071a07177 -->
<g id="edge13" class="edge">
<title>dir_2801adc79bf3c286b1b479858d2cade4&#45;&gt;dir_bcbb2cf9a3d3d83e5515c82071a07177</title>
<path fill="none" stroke="#000000" d="M266.9639,-143.8314C274.6931,-135.1337 284.9299,-124.5783 294.7539,-115.1265"/>
<polygon fill="#000000" stroke="#000000" points="297.264,-117.5702 302.1376,-108.1628 292.4612,-112.4778 297.264,-117.5702"/>
<g id="a_edge13&#45;headlabel"><a xlink:href="dir_000104_000063.html" target="_top" xlink:title="18">
<text text-anchor="middle" x="296.5971" y="-119.6021" font-family="Helvetica,sans-Serif" font-size="10.00" fill="#000000">18</text>
</a>
</g>
</g>
<!-- dir_7924ba4398ae4560cd37376e44666c6d&#45;&gt;dir_4ab6b4cc6a7edbff49100e9123df213f -->
<g id="edge14" class="edge">
<title>dir_7924ba4398ae4560cd37376e44666c6d&#45;&gt;dir_4ab6b4cc6a7edbff49100e9123df213f</title>
<path fill="none" stroke="#000000" d="M186.9967,-108.2617C189.0435,-128.3376 195.2505,-160.3449 214,-180 231.9535,-198.8206 246.2857,-187.3271 269,-200 273.9866,-202.7821 278.9978,-206.1278 283.7481,-209.6201"/>
<polygon fill="#000000" stroke="#000000" points="281.9055,-212.6199 291.9553,-215.9743 286.1909,-207.0849 281.9055,-212.6199"/>
<g id="a_edge14&#45;headlabel"><a xlink:href="dir_000095_000036.html" target="_top" xlink:title="2">
<text text-anchor="middle" x="277.3251" y="-210.1644" font-family="Helvetica,sans-Serif" font-size="10.00" fill="#000000">2</text>
</a>
</g>
</g>
<!-- dir_7924ba4398ae4560cd37376e44666c6d&#45;&gt;dir_f511f1e9c03c071966ae594f00bbc5e0 -->
<g id="edge15" class="edge">
<title>dir_7924ba4398ae4560cd37376e44666c6d&#45;&gt;dir_f511f1e9c03c071966ae594f00bbc5e0</title>
<path fill="none" stroke="#000000" d="M202.9069,-71.8314C210.7813,-63.3694 220.292,-53.1489 228.9013,-43.8971"/>
<polygon fill="#000000" stroke="#000000" points="231.6153,-46.1183 235.8654,-36.4133 226.4908,-41.3497 231.6153,-46.1183"/>
<g id="a_edge15&#45;headlabel"><a xlink:href="dir_000095_000762.html" target="_top" xlink:title="4">
<text text-anchor="middle" x="231.2451" y="-48.184" font-family="Helvetica,sans-Serif" font-size="10.00" fill="#000000">4</text>
</a>
</g>
</g>
<!-- dir_f511f1e9c03c071966ae594f00bbc5e0&#45;&gt;dir_99c43ad88135ecdb15d6d5c818628268 -->
<g id="edge25" class="edge">
<title>dir_f511f1e9c03c071966ae594f00bbc5e0&#45;&gt;dir_99c43ad88135ecdb15d6d5c818628268</title>
<path fill="none" stroke="#000000" d="M225.9231,-21.8881C195.9893,-27.6143 148.391,-41.1895 121,-72 88.4328,-108.633 91.2197,-169.7898 96.4405,-205.5593"/>
<polygon fill="#000000" stroke="#000000" points="93.0442,-206.4805 98.1024,-215.7898 99.9536,-205.358 93.0442,-206.4805"/>
<g id="a_edge25&#45;headlabel"><a xlink:href="dir_000762_000255.html" target="_top" xlink:title="1">
<text text-anchor="middle" x="89.6653" y="-200.8876" font-family="Helvetica,sans-Serif" font-size="10.00" fill="#000000">1</text>
</a>
</g>
</g>
<!-- dir_f511f1e9c03c071966ae594f00bbc5e0&#45;&gt;dir_4ab6b4cc6a7edbff49100e9123df213f -->
<g id="edge23" class="edge">
<title>dir_f511f1e9c03c071966ae594f00bbc5e0&#45;&gt;dir_4ab6b4cc6a7edbff49100e9123df213f</title>
<path fill="none" stroke="#000000" d="M280.167,-20.7494C310.8364,-25.6232 358.5757,-38.6346 380,-72 408.1482,-115.8369 370.7509,-174.9473 341.094,-208.3007"/>
<polygon fill="#000000" stroke="#000000" points="338.3726,-206.0883 334.1483,-215.8046 343.5097,-210.8433 338.3726,-206.0883"/>
<g id="a_edge23&#45;headlabel"><a xlink:href="dir_000762_000036.html" target="_top" xlink:title="4">
<text text-anchor="middle" x="338.7306" y="-199.0217" font-family="Helvetica,sans-Serif" font-size="10.00" fill="#000000">4</text>
</a>
</g>
</g>
<!-- dir_f511f1e9c03c071966ae594f00bbc5e0&#45;&gt;dir_2801adc79bf3c286b1b479858d2cade4 -->
<g id="edge24" class="edge">
<title>dir_f511f1e9c03c071966ae594f00bbc5e0&#45;&gt;dir_2801adc79bf3c286b1b479858d2cade4</title>
<path fill="none" stroke="#000000" d="M257.9095,-36.0896C260.7182,-60.5727 261.6121,-104.5174 260.1127,-133.4713"/>
<polygon fill="#000000" stroke="#000000" points="256.5996,-133.5498 259.4199,-143.7623 263.5838,-134.02 256.5996,-133.5498"/>
<g id="a_edge24&#45;headlabel"><a xlink:href="dir_000762_000104.html" target="_top" xlink:title="14">
<text text-anchor="middle" x="254.0081" y="-127.2726" font-family="Helvetica,sans-Serif" font-size="10.00" fill="#000000">14</text>
</a>
</g>
</g>
<!-- dir_bcbb2cf9a3d3d83e5515c82071a07177&#45;&gt;dir_4ab6b4cc6a7edbff49100e9123df213f -->
<g id="edge26" class="edge">
<title>dir_bcbb2cf9a3d3d83e5515c82071a07177&#45;&gt;dir_4ab6b4cc6a7edbff49100e9123df213f</title>
<path fill="none" stroke="#000000" d="M328.8996,-108.0896C328.9883,-132.6805 324.9638,-176.905 320.2202,-205.8531"/>
<polygon fill="#000000" stroke="#000000" points="316.7633,-205.302 318.4463,-215.7623 323.6537,-206.5356 316.7633,-205.302"/>
<g id="a_edge26&#45;headlabel"><a xlink:href="dir_000063_000036.html" target="_top" xlink:title="8">
<text text-anchor="middle" x="314.6018" y="-198.7633" font-family="Helvetica,sans-Serif" font-size="10.00" fill="#000000">8</text>
</a>
</g>
</g>
<!-- dir_bcbb2cf9a3d3d83e5515c82071a07177&#45;&gt;dir_2801adc79bf3c286b1b479858d2cade4 -->
<g id="edge27" class="edge">
<title>dir_bcbb2cf9a3d3d83e5515c82071a07177&#45;&gt;dir_2801adc79bf3c286b1b479858d2cade4</title>
<path fill="none" stroke="#000000" d="M313.8185,-108.4133C306.102,-117.0787 295.9429,-127.5464 286.1953,-136.9223"/>
<polygon fill="#000000" stroke="#000000" points="283.7428,-134.4242 278.8687,-143.8314 288.5453,-139.517 283.7428,-134.4242"/>
<g id="a_edge27&#45;headlabel"><a xlink:href="dir_000063_000104.html" target="_top" xlink:title="2">
<text text-anchor="middle" x="284.4101" y="-127.3925" font-family="Helvetica,sans-Serif" font-size="10.00" fill="#000000">2</text>
</a>
</g>
</g>
</g>
</svg>
