<?xml version="1.0" encoding="UTF-8" standalone="no"?>
<!DOCTYPE svg PUBLIC "-//W3C//DTD SVG 1.1//EN"
 "http://www.w3.org/Graphics/SVG/1.1/DTD/svg11.dtd">
<!-- Generated by graphviz version 2.40.1 (20161225.0304)
 -->
<!-- Title: /home/travis/build/AliceO2Group/AliceO2/Detectors/Base/src Pages: 1 -->
<svg width="168pt" height="367pt"
 viewBox="0.00 0.00 168.36 367.00" xmlns="http://www.w3.org/2000/svg" xmlns:xlink="http://www.w3.org/1999/xlink">
<g id="graph0" class="graph" transform="scale(1 1) rotate(0) translate(4 363)">
<title>/home/travis/build/AliceO2Group/AliceO2/Detectors/Base/src</title>
<g id="clust1" class="cluster">
<title>clusterdir_37c90836491b695b472bf98d1be8336b</title>
<g id="a_clust1"><a xlink:href="dir_37c90836491b695b472bf98d1be8336b.html" target="_top" xlink:title="Base">
<polygon fill="#ddddee" stroke="#000000" points="39.3558,-280 39.3558,-351 109.3558,-351 109.3558,-280 39.3558,-280"/>
<text text-anchor="middle" x="74.3558" y="-339" font-family="Helvetica,sans-Serif" font-size="10.00" fill="#000000">Base</text>
</a>
</g>
</g>
<!-- dir_eeeef6c2eb7f500b211a8736eff99ff9 -->
<g id="node1" class="node">
<title>dir_eeeef6c2eb7f500b211a8736eff99ff9</title>
<g id="a_node1"><a xlink:href="dir_eeeef6c2eb7f500b211a8736eff99ff9.html" target="_top" xlink:title="src">
<polygon fill="#eeeeff" stroke="#000000" points="101.3558,-324 47.3558,-324 47.3558,-288 101.3558,-288 101.3558,-324"/>
<text text-anchor="middle" x="74.3558" y="-303.5" font-family="Helvetica,sans-Serif" font-size="10.00" fill="#000000">src</text>
</a>
</g>
</g>
<!-- dir_548839eeca1931d32df07653a7903e44 -->
<g id="node2" class="node">
<title>dir_548839eeca1931d32df07653a7903e44</title>
<g id="a_node2"><a xlink:href="dir_548839eeca1931d32df07653a7903e44.html" target="_top" xlink:title="include">
<polygon fill="none" stroke="#ff0000" points="74.3558,-252 20.3558,-252 20.3558,-216 74.3558,-216 74.3558,-252"/>
<text text-anchor="middle" x="47.3558" y="-231.5" font-family="Helvetica,sans-Serif" font-size="10.00" fill="#000000">include</text>
</a>
</g>
</g>
<!-- dir_eeeef6c2eb7f500b211a8736eff99ff9&#45;&gt;dir_548839eeca1931d32df07653a7903e44 -->
<g id="edge9" class="edge">
<title>dir_eeeef6c2eb7f500b211a8736eff99ff9&#45;&gt;dir_548839eeca1931d32df07653a7903e44</title>
<path fill="none" stroke="#000000" d="M67.5426,-287.8314C64.5915,-279.9617 61.07,-270.5712 57.8008,-261.8533"/>
<polygon fill="#000000" stroke="#000000" points="61.0493,-260.5476 54.2608,-252.4133 54.495,-263.0055 61.0493,-260.5476"/>
<g id="a_edge9&#45;headlabel"><a xlink:href="dir_000348_000298.html" target="_top" xlink:title="15">
<text text-anchor="middle" x="64.9699" y="-260.4164" font-family="Helvetica,sans-Serif" font-size="10.00" fill="#000000">15</text>
</a>
</g>
</g>
<!-- dir_4ab6b4cc6a7edbff49100e9123df213f -->
<g id="node3" class="node">
<title>dir_4ab6b4cc6a7edbff49100e9123df213f</title>
<g id="a_node3"><a xlink:href="dir_4ab6b4cc6a7edbff49100e9123df213f.html" target="_top" xlink:title="Common">
<polygon fill="none" stroke="#ff0000" points="105.8558,-180 44.8558,-180 44.8558,-144 105.8558,-144 105.8558,-180"/>
<text text-anchor="middle" x="75.3558" y="-159.5" font-family="Helvetica,sans-Serif" font-size="10.00" fill="#000000">Common</text>
</a>
</g>
</g>
<!-- dir_eeeef6c2eb7f500b211a8736eff99ff9&#45;&gt;dir_4ab6b4cc6a7edbff49100e9123df213f -->
<g id="edge10" class="edge">
<title>dir_eeeef6c2eb7f500b211a8736eff99ff9&#45;&gt;dir_4ab6b4cc6a7edbff49100e9123df213f</title>
<path fill="none" stroke="#000000" d="M78.1972,-287.6001C80.1724,-277.2025 82.3681,-263.9346 83.3558,-252 84.6755,-236.0545 84.5314,-231.9568 83.3558,-216 82.7389,-207.6264 81.5909,-198.5812 80.3532,-190.3322"/>
<polygon fill="#000000" stroke="#000000" points="83.8036,-189.7428 78.7708,-180.4196 76.8911,-190.8463 83.8036,-189.7428"/>
<g id="a_edge10&#45;headlabel"><a xlink:href="dir_000348_000036.html" target="_top" xlink:title="9">
<text text-anchor="middle" x="87.1739" y="-190.3449" font-family="Helvetica,sans-Serif" font-size="10.00" fill="#000000">9</text>
</a>
</g>
</g>
<!-- dir_f511f1e9c03c071966ae594f00bbc5e0 -->
<g id="node4" class="node">
<title>dir_f511f1e9c03c071966ae594f00bbc5e0</title>
<g id="a_node4"><a xlink:href="dir_f511f1e9c03c071966ae594f00bbc5e0.html" target="_top" xlink:title="GPU">
<polygon fill="none" stroke="#ff0000" points="160.3558,-108 106.3558,-108 106.3558,-72 160.3558,-72 160.3558,-108"/>
<text text-anchor="middle" x="133.3558" y="-87.5" font-family="Helvetica,sans-Serif" font-size="10.00" fill="#000000">GPU</text>
</a>
</g>
</g>
<!-- dir_eeeef6c2eb7f500b211a8736eff99ff9&#45;&gt;dir_f511f1e9c03c071966ae594f00bbc5e0 -->
<g id="edge11" class="edge">
<title>dir_eeeef6c2eb7f500b211a8736eff99ff9&#45;&gt;dir_f511f1e9c03c071966ae594f00bbc5e0</title>
<path fill="none" stroke="#000000" d="M88.5325,-287.6627C105.6715,-264.2213 133.5593,-221.6653 144.3558,-180 149.637,-159.6192 146.3972,-135.9678 142.0985,-118.0267"/>
<polygon fill="#000000" stroke="#000000" points="145.4385,-116.9661 139.5016,-108.1909 138.6704,-118.7531 145.4385,-116.9661"/>
<g id="a_edge11&#45;headlabel"><a xlink:href="dir_000348_000762.html" target="_top" xlink:title="4">
<text text-anchor="middle" x="149.1013" y="-117.2168" font-family="Helvetica,sans-Serif" font-size="10.00" fill="#000000">4</text>
</a>
</g>
</g>
<!-- dir_2171f7ec022c5423887b07c69b2f5b48 -->
<g id="node5" class="node">
<title>dir_2171f7ec022c5423887b07c69b2f5b48</title>
<g id="a_node5"><a xlink:href="dir_2171f7ec022c5423887b07c69b2f5b48.html" target="_top" xlink:title="DataFormats">
<polygon fill="none" stroke="#ff0000" points="109.3558,-36 29.3558,-36 29.3558,0 109.3558,0 109.3558,-36"/>
<text text-anchor="middle" x="69.3558" y="-15.5" font-family="Helvetica,sans-Serif" font-size="10.00" fill="#000000">DataFormats</text>
</a>
</g>
</g>
<!-- dir_eeeef6c2eb7f500b211a8736eff99ff9&#45;&gt;dir_2171f7ec022c5423887b07c69b2f5b48 -->
<g id="edge12" class="edge">
<title>dir_eeeef6c2eb7f500b211a8736eff99ff9&#45;&gt;dir_2171f7ec022c5423887b07c69b2f5b48</title>
<path fill="none" stroke="#000000" d="M47.3332,-290.6789C33.8342,-281.4052 18.82,-268.2286 11.3558,-252 -21.2861,-181.0292 24.4978,-89.1629 51.7024,-44.5936"/>
<polygon fill="#000000" stroke="#000000" points="54.6933,-46.4119 57.0288,-36.0777 48.7585,-42.6999 54.6933,-46.4119"/>
<g id="a_edge12&#45;headlabel"><a xlink:href="dir_000348_000090.html" target="_top" xlink:title="7">
<text text-anchor="middle" x="55.1944" y="-48.4651" font-family="Helvetica,sans-Serif" font-size="10.00" fill="#000000">7</text>
</a>
</g>
</g>
<!-- dir_548839eeca1931d32df07653a7903e44&#45;&gt;dir_4ab6b4cc6a7edbff49100e9123df213f -->
<g id="edge1" class="edge">
<title>dir_548839eeca1931d32df07653a7903e44&#45;&gt;dir_4ab6b4cc6a7edbff49100e9123df213f</title>
<path fill="none" stroke="#000000" d="M54.4214,-215.8314C57.4818,-207.9617 61.1337,-198.5712 64.524,-189.8533"/>
<polygon fill="#000000" stroke="#000000" points="67.8326,-191.0019 68.1951,-180.4133 61.3086,-188.4647 67.8326,-191.0019"/>
<g id="a_edge1&#45;headlabel"><a xlink:href="dir_000298_000036.html" target="_top" xlink:title="7">
<text text-anchor="middle" x="69.176" y="-192.8812" font-family="Helvetica,sans-Serif" font-size="10.00" fill="#000000">7</text>
</a>
</g>
</g>
<!-- dir_548839eeca1931d32df07653a7903e44&#45;&gt;dir_f511f1e9c03c071966ae594f00bbc5e0 -->
<g id="edge2" class="edge">
<title>dir_548839eeca1931d32df07653a7903e44&#45;&gt;dir_f511f1e9c03c071966ae594f00bbc5e0</title>
<path fill="none" stroke="#000000" d="M69.9047,-215.988C82.19,-206.8136 96.4504,-194.5174 105.3558,-180 116.7869,-161.3655 121.4257,-136.9248 124.6439,-118.2161"/>
<polygon fill="#000000" stroke="#000000" points="128.1176,-118.6675 126.3673,-108.2183 121.2193,-117.4784 128.1176,-118.6675"/>
<g id="a_edge2&#45;headlabel"><a xlink:href="dir_000298_000762.html" target="_top" xlink:title="11">
<text text-anchor="middle" x="130.3051" y="-120.1922" font-family="Helvetica,sans-Serif" font-size="10.00" fill="#000000">11</text>
</a>
</g>
</g>
<!-- dir_548839eeca1931d32df07653a7903e44&#45;&gt;dir_2171f7ec022c5423887b07c69b2f5b48 -->
<g id="edge3" class="edge">
<title>dir_548839eeca1931d32df07653a7903e44&#45;&gt;dir_2171f7ec022c5423887b07c69b2f5b48</title>
<path fill="none" stroke="#000000" d="M34.3098,-215.6727C30.6038,-205.2978 27.6762,-192.0284 26.3558,-180 21.0985,-132.1071 37.31,-77.4626 51.6531,-45.4513"/>
<polygon fill="#000000" stroke="#000000" points="54.8827,-46.8097 56.0186,-36.276 48.5617,-43.8023 54.8827,-46.8097"/>
<g id="a_edge3&#45;headlabel"><a xlink:href="dir_000298_000090.html" target="_top" xlink:title="8">
<text text-anchor="middle" x="55.9023" y="-48.7755" font-family="Helvetica,sans-Serif" font-size="10.00" fill="#000000">8</text>
</a>
</g>
</g>
<!-- dir_4ab6b4cc6a7edbff49100e9123df213f&#45;&gt;dir_f511f1e9c03c071966ae594f00bbc5e0 -->
<g id="edge4" class="edge">
<title>dir_4ab6b4cc6a7edbff49100e9123df213f&#45;&gt;dir_f511f1e9c03c071966ae594f00bbc5e0</title>
<path fill="none" stroke="#000000" d="M84.0393,-143.8314C89.9713,-135.454 97.9185,-125.3531 105.7491,-116.1749"/>
<polygon fill="#000000" stroke="#000000" points="108.5913,-118.242 112.5469,-108.4133 103.3254,-113.63 108.5913,-118.242"/>
<g id="a_edge4&#45;headlabel"><a xlink:href="dir_000036_000762.html" target="_top" xlink:title="11">
<text text-anchor="middle" x="108.3589" y="-120.3167" font-family="Helvetica,sans-Serif" font-size="10.00" fill="#000000">11</text>
</a>
</g>
</g>
<!-- dir_4ab6b4cc6a7edbff49100e9123df213f&#45;&gt;dir_2171f7ec022c5423887b07c69b2f5b48 -->
<g id="edge5" class="edge">
<title>dir_4ab6b4cc6a7edbff49100e9123df213f&#45;&gt;dir_2171f7ec022c5423887b07c69b2f5b48</title>
<path fill="none" stroke="#000000" d="M69.9228,-143.7623C66.4396,-119.201 64.3334,-75.2474 65.0398,-46.3541"/>
<polygon fill="#000000" stroke="#000000" points="68.5479,-46.2218 65.4513,-36.0896 61.5535,-45.9414 68.5479,-46.2218"/>
<g id="a_edge5&#45;headlabel"><a xlink:href="dir_000036_000090.html" target="_top" xlink:title="2">
<text text-anchor="middle" x="71.241" y="-47.4272" font-family="Helvetica,sans-Serif" font-size="10.00" fill="#000000">2</text>
</a>
</g>
</g>
<!-- dir_f511f1e9c03c071966ae594f00bbc5e0&#45;&gt;dir_548839eeca1931d32df07653a7903e44 -->
<g id="edge6" class="edge">
<title>dir_f511f1e9c03c071966ae594f00bbc5e0&#45;&gt;dir_548839eeca1931d32df07653a7903e44</title>
<path fill="none" stroke="#000000" d="M139.7209,-108.2183C140.9479,-127.392 136.9668,-157.812 123.3558,-180 113.8462,-195.5023 98.2304,-208.4718 83.4983,-217.8119"/>
<polygon fill="#000000" stroke="#000000" points="81.317,-215.0364 74.5022,-223.1487 84.8884,-221.0568 81.317,-215.0364"/>
<g id="a_edge6&#45;headlabel"><a xlink:href="dir_000762_000298.html" target="_top" xlink:title="1">
<text text-anchor="middle" x="82.9599" y="-208.2605" font-family="Helvetica,sans-Serif" font-size="10.00" fill="#000000">1</text>
</a>
</g>
</g>
<!-- dir_f511f1e9c03c071966ae594f00bbc5e0&#45;&gt;dir_4ab6b4cc6a7edbff49100e9123df213f -->
<g id="edge7" class="edge">
<title>dir_f511f1e9c03c071966ae594f00bbc5e0&#45;&gt;dir_4ab6b4cc6a7edbff49100e9123df213f</title>
<path fill="none" stroke="#000000" d="M124.4989,-108.4133C118.528,-116.8239 110.5626,-126.9323 102.7345,-136.0923"/>
<polygon fill="#000000" stroke="#000000" points="99.9086,-134.0062 95.9441,-143.8314 105.1703,-138.6229 99.9086,-134.0062"/>
<g id="a_edge7&#45;headlabel"><a xlink:href="dir_000762_000036.html" target="_top" xlink:title="4">
<text text-anchor="middle" x="100.1451" y="-126.9316" font-family="Helvetica,sans-Serif" font-size="10.00" fill="#000000">4</text>
</a>
</g>
</g>
<!-- dir_f511f1e9c03c071966ae594f00bbc5e0&#45;&gt;dir_2171f7ec022c5423887b07c69b2f5b48 -->
<g id="edge8" class="edge">
<title>dir_f511f1e9c03c071966ae594f00bbc5e0&#45;&gt;dir_2171f7ec022c5423887b07c69b2f5b48</title>
<path fill="none" stroke="#000000" d="M111.2536,-71.8314C102.9906,-63.454 93.8224,-53.3531 86.101,-44.1749"/>
<polygon fill="#000000" stroke="#000000" points="88.7899,-41.9341 79.7472,-36.4133 83.3734,-46.3683 88.7899,-41.9341"/>
<g id="a_edge8&#45;headlabel"><a xlink:href="dir_000762_000090.html" target="_top" xlink:title="19">
<text text-anchor="middle" x="93.2638" y="-40.4171" font-family="Helvetica,sans-Serif" font-size="10.00" fill="#000000">19</text>
</a>
</g>
</g>
<!-- dir_2171f7ec022c5423887b07c69b2f5b48&#45;&gt;dir_548839eeca1931d32df07653a7903e44 -->
<g id="edge13" class="edge">
<title>dir_2171f7ec022c5423887b07c69b2f5b48&#45;&gt;dir_548839eeca1931d32df07653a7903e44</title>
<path fill="none" stroke="#000000" d="M67.2255,-36.276C58.8939,-66.0846 38.5547,-127.1526 44.3558,-180 45.2842,-188.4575 47.0072,-197.5285 48.4906,-205.7754"/>
<polygon fill="#000000" stroke="#000000" points="45.0458,-206.3959 50.1636,-215.6727 51.9479,-205.2291 45.0458,-206.3959"/>
<g id="a_edge13&#45;headlabel"><a xlink:href="dir_000090_000298.html" target="_top" xlink:title="1">
<text text-anchor="middle" x="41.6472" y="-200.8248" font-family="Helvetica,sans-Serif" font-size="10.00" fill="#000000">1</text>
</a>
</g>
</g>
<!-- dir_2171f7ec022c5423887b07c69b2f5b48&#45;&gt;dir_4ab6b4cc6a7edbff49100e9123df213f -->
<g id="edge14" class="edge">
<title>dir_2171f7ec022c5423887b07c69b2f5b48&#45;&gt;dir_4ab6b4cc6a7edbff49100e9123df213f</title>
<path fill="none" stroke="#000000" d="M74.7679,-36.0896C78.2566,-60.5727 80.3712,-104.5174 79.6761,-133.4713"/>
<polygon fill="#000000" stroke="#000000" points="76.1671,-133.6318 79.2691,-143.7623 83.1616,-133.9084 76.1671,-133.6318"/>
<g id="a_edge14&#45;headlabel"><a xlink:href="dir_000090_000036.html" target="_top" xlink:title="38">
<text text-anchor="middle" x="73.472" y="-127.4278" font-family="Helvetica,sans-Serif" font-size="10.00" fill="#000000">38</text>
</a>
</g>
</g>
<!-- dir_2171f7ec022c5423887b07c69b2f5b48&#45;&gt;dir_f511f1e9c03c071966ae594f00bbc5e0 -->
<g id="edge15" class="edge">
<title>dir_2171f7ec022c5423887b07c69b2f5b48&#45;&gt;dir_f511f1e9c03c071966ae594f00bbc5e0</title>
<path fill="none" stroke="#000000" d="M91.6992,-36.4133C99.8959,-44.7389 108.9572,-54.7282 116.6017,-63.8144"/>
<polygon fill="#000000" stroke="#000000" points="114.1182,-66.3063 123.1583,-71.8314 119.5368,-61.8747 114.1182,-66.3063"/>
<g id="a_edge15&#45;headlabel"><a xlink:href="dir_000090_000762.html" target="_top" xlink:title="28">
<text text-anchor="middle" x="109.6447" y="-62.8213" font-family="Helvetica,sans-Serif" font-size="10.00" fill="#000000">28</text>
</a>
</g>
</g>
</g>
</svg>
