<?xml version="1.0" encoding="UTF-8" standalone="no"?>
<!DOCTYPE svg PUBLIC "-//W3C//DTD SVG 1.1//EN"
 "http://www.w3.org/Graphics/SVG/1.1/DTD/svg11.dtd">
<!-- Generated by graphviz version 2.40.1 (20161225.0304)
 -->
<!-- Title: /home/travis/build/AliceO2Group/AliceO2/Detectors/Base/include Pages: 1 -->
<svg width="342pt" height="339pt"
 viewBox="0.00 0.00 341.92 339.00" xmlns="http://www.w3.org/2000/svg" xmlns:xlink="http://www.w3.org/1999/xlink">
<g id="graph0" class="graph" transform="scale(1 1) rotate(0) translate(4 335)">
<title>/home/travis/build/AliceO2Group/AliceO2/Detectors/Base/include</title>
<g id="clust1" class="cluster">
<title>clusterdir_37c90836491b695b472bf98d1be8336b</title>
<g id="a_clust1"><a xlink:href="dir_37c90836491b695b472bf98d1be8336b.html" target="_top" xlink:title="Base">
<polygon fill="#ddddee" stroke="#000000" points="45.5152,-200 45.5152,-287 237.5152,-287 237.5152,-200 45.5152,-200"/>
<text text-anchor="middle" x="141.5152" y="-275" font-family="Helvetica,sans-Serif" font-size="10.00" fill="#000000">Base</text>
</a>
</g>
</g>
<g id="clust2" class="cluster">
<title>clusterdir_548839eeca1931d32df07653a7903e44</title>
<g id="a_clust2"><a xlink:href="dir_548839eeca1931d32df07653a7903e44.html" target="_top">
<polygon fill="#eeeeff" stroke="#000000" points="53.5152,-208 53.5152,-260 229.5152,-260 229.5152,-208 53.5152,-208"/>
</a>
</g>
</g>
<!-- dir_548839eeca1931d32df07653a7903e44 -->
<g id="node1" class="node">
<title>dir_548839eeca1931d32df07653a7903e44</title>
<text text-anchor="middle" x="194.5152" y="-231.5" font-family="Helvetica,sans-Serif" font-size="10.00" fill="#000000">include</text>
</g>
<!-- dir_ebd881cb3be9af9de1e2db4daa6c5c6f -->
<g id="node2" class="node">
<title>dir_ebd881cb3be9af9de1e2db4daa6c5c6f</title>
<g id="a_node2"><a xlink:href="dir_ebd881cb3be9af9de1e2db4daa6c5c6f.html" target="_top" xlink:title="DetectorsBase">
<polygon fill="#ffffff" stroke="#000000" points="149.5152,-252 61.5152,-252 61.5152,-216 149.5152,-216 149.5152,-252"/>
<text text-anchor="middle" x="105.5152" y="-231.5" font-family="Helvetica,sans-Serif" font-size="10.00" fill="#000000">DetectorsBase</text>
</a>
</g>
</g>
<!-- dir_4ab6b4cc6a7edbff49100e9123df213f -->
<g id="node3" class="node">
<title>dir_4ab6b4cc6a7edbff49100e9123df213f</title>
<g id="a_node3"><a xlink:href="dir_4ab6b4cc6a7edbff49100e9123df213f.html" target="_top" xlink:title="Common">
<polygon fill="none" stroke="#ff0000" points="219.0152,-331 158.0152,-331 158.0152,-295 219.0152,-295 219.0152,-331"/>
<text text-anchor="middle" x="188.5152" y="-310.5" font-family="Helvetica,sans-Serif" font-size="10.00" fill="#000000">Common</text>
</a>
</g>
</g>
<!-- dir_ebd881cb3be9af9de1e2db4daa6c5c6f&#45;&gt;dir_4ab6b4cc6a7edbff49100e9123df213f -->
<g id="edge18" class="edge">
<title>dir_ebd881cb3be9af9de1e2db4daa6c5c6f&#45;&gt;dir_4ab6b4cc6a7edbff49100e9123df213f</title>
<path fill="none" stroke="#000000" d="M123.3531,-252.4773C133.4889,-262.8131 146.5155,-275.8269 158.5152,-287 158.8557,-287.317 159.1991,-287.6354 159.5449,-287.9549"/>
<polygon fill="#000000" stroke="#000000" points="157.2746,-290.6205 167.0443,-294.7198 161.9633,-285.4228 157.2746,-290.6205"/>
<g id="a_edge18&#45;headlabel"><a xlink:href="dir_000299_000036.html" target="_top" xlink:title="7">
<text text-anchor="middle" x="152.7038" y="-287.821" font-family="Helvetica,sans-Serif" font-size="10.00" fill="#000000">7</text>
</a>
</g>
</g>
<!-- dir_b05a5fa85f84bfc9013183c9d87f9a36 -->
<g id="node4" class="node">
<title>dir_b05a5fa85f84bfc9013183c9d87f9a36</title>
<g id="a_node4"><a xlink:href="dir_b05a5fa85f84bfc9013183c9d87f9a36.html" target="_top" xlink:title="Utilities">
<polygon fill="none" stroke="#ff0000" points="199.0152,-108 144.0152,-108 144.0152,-72 199.0152,-72 199.0152,-108"/>
<text text-anchor="middle" x="171.5152" y="-87.5" font-family="Helvetica,sans-Serif" font-size="10.00" fill="#000000">Utilities</text>
</a>
</g>
</g>
<!-- dir_ebd881cb3be9af9de1e2db4daa6c5c6f&#45;&gt;dir_b05a5fa85f84bfc9013183c9d87f9a36 -->
<g id="edge19" class="edge">
<title>dir_ebd881cb3be9af9de1e2db4daa6c5c6f&#45;&gt;dir_b05a5fa85f84bfc9013183c9d87f9a36</title>
<path fill="none" stroke="#000000" d="M113.8741,-215.7623C125.2802,-190.8764 145.8108,-146.0822 159.041,-117.2165"/>
<polygon fill="#000000" stroke="#000000" points="162.2392,-118.6386 163.2241,-108.0896 155.8758,-115.722 162.2392,-118.6386"/>
<g id="a_edge19&#45;headlabel"><a xlink:href="dir_000299_000642.html" target="_top" xlink:title="1">
<text text-anchor="middle" x="163.3227" y="-120.5893" font-family="Helvetica,sans-Serif" font-size="10.00" fill="#000000">1</text>
</a>
</g>
</g>
<!-- dir_f511f1e9c03c071966ae594f00bbc5e0 -->
<g id="node5" class="node">
<title>dir_f511f1e9c03c071966ae594f00bbc5e0</title>
<g id="a_node5"><a xlink:href="dir_f511f1e9c03c071966ae594f00bbc5e0.html" target="_top" xlink:title="GPU">
<polygon fill="none" stroke="#ff0000" points="299.5152,-252 245.5152,-252 245.5152,-216 299.5152,-216 299.5152,-252"/>
<text text-anchor="middle" x="272.5152" y="-231.5" font-family="Helvetica,sans-Serif" font-size="10.00" fill="#000000">GPU</text>
</a>
</g>
</g>
<!-- dir_ebd881cb3be9af9de1e2db4daa6c5c6f&#45;&gt;dir_f511f1e9c03c071966ae594f00bbc5e0 -->
<g id="edge20" class="edge">
<title>dir_ebd881cb3be9af9de1e2db4daa6c5c6f&#45;&gt;dir_f511f1e9c03c071966ae594f00bbc5e0</title>
<path fill="none" stroke="#000000" d="M116.9211,-252.0012C127.7598,-266.903 145.6316,-286.356 167.5152,-291 181.8887,-294.0503 222.0651,-296.2086 233.5152,-287 242.5552,-279.7297 250.5599,-269.8879 256.9283,-260.6586"/>
<polygon fill="#000000" stroke="#000000" points="259.9785,-262.3887 262.513,-252.1015 254.1165,-258.5629 259.9785,-262.3887"/>
<g id="a_edge20&#45;headlabel"><a xlink:href="dir_000299_000762.html" target="_top" xlink:title="11">
<text text-anchor="middle" x="260.3916" y="-264.4507" font-family="Helvetica,sans-Serif" font-size="10.00" fill="#000000">11</text>
</a>
</g>
</g>
<!-- dir_bcbb2cf9a3d3d83e5515c82071a07177 -->
<g id="node6" class="node">
<title>dir_bcbb2cf9a3d3d83e5515c82071a07177</title>
<g id="a_node6"><a xlink:href="dir_bcbb2cf9a3d3d83e5515c82071a07177.html" target="_top" xlink:title="Framework">
<polygon fill="none" stroke="#ff0000" points="169.0152,-36 98.0152,-36 98.0152,0 169.0152,0 169.0152,-36"/>
<text text-anchor="middle" x="133.5152" y="-15.5" font-family="Helvetica,sans-Serif" font-size="10.00" fill="#000000">Framework</text>
</a>
</g>
</g>
<!-- dir_ebd881cb3be9af9de1e2db4daa6c5c6f&#45;&gt;dir_bcbb2cf9a3d3d83e5515c82071a07177 -->
<g id="edge21" class="edge">
<title>dir_ebd881cb3be9af9de1e2db4daa6c5c6f&#45;&gt;dir_bcbb2cf9a3d3d83e5515c82071a07177</title>
<path fill="none" stroke="#000000" d="M107.8543,-215.9555C112.7337,-178.3144 124.028,-91.1867 129.8694,-46.1246"/>
<polygon fill="#000000" stroke="#000000" points="133.3484,-46.5121 131.1631,-36.1451 126.4065,-45.6121 133.3484,-46.5121"/>
<g id="a_edge21&#45;headlabel"><a xlink:href="dir_000299_000063.html" target="_top" xlink:title="1">
<text text-anchor="middle" x="135.7021" y="-47.9418" font-family="Helvetica,sans-Serif" font-size="10.00" fill="#000000">1</text>
</a>
</g>
</g>
<!-- dir_2171f7ec022c5423887b07c69b2f5b48 -->
<g id="node7" class="node">
<title>dir_2171f7ec022c5423887b07c69b2f5b48</title>
<g id="a_node7"><a xlink:href="dir_2171f7ec022c5423887b07c69b2f5b48.html" target="_top" xlink:title="DataFormats">
<polygon fill="none" stroke="#ff0000" points="289.5152,-180 209.5152,-180 209.5152,-144 289.5152,-144 289.5152,-180"/>
<text text-anchor="middle" x="249.5152" y="-159.5" font-family="Helvetica,sans-Serif" font-size="10.00" fill="#000000">DataFormats</text>
</a>
</g>
</g>
<!-- dir_ebd881cb3be9af9de1e2db4daa6c5c6f&#45;&gt;dir_2171f7ec022c5423887b07c69b2f5b48 -->
<g id="edge22" class="edge">
<title>dir_ebd881cb3be9af9de1e2db4daa6c5c6f&#45;&gt;dir_2171f7ec022c5423887b07c69b2f5b48</title>
<path fill="none" stroke="#000000" d="M123.0942,-215.9437C131.0548,-210.4998 140.5114,-204.7216 149.5152,-200 165.3587,-191.6916 183.4295,-183.8348 199.8818,-177.4451"/>
<polygon fill="#000000" stroke="#000000" points="201.2392,-180.6737 209.3525,-173.8601 198.761,-174.127 201.2392,-180.6737"/>
<g id="a_edge22&#45;headlabel"><a xlink:href="dir_000299_000090.html" target="_top" xlink:title="8">
<text text-anchor="middle" x="198.8825" y="-182.1016" font-family="Helvetica,sans-Serif" font-size="10.00" fill="#000000">8</text>
</a>
</g>
</g>
<!-- dir_4ab6b4cc6a7edbff49100e9123df213f&#45;&gt;dir_f511f1e9c03c071966ae594f00bbc5e0 -->
<g id="edge1" class="edge">
<title>dir_4ab6b4cc6a7edbff49100e9123df213f&#45;&gt;dir_f511f1e9c03c071966ae594f00bbc5e0</title>
<path fill="none" stroke="#000000" d="M214.4881,-294.8053C217.9888,-292.3813 221.4228,-289.7683 224.5152,-287 233.1173,-279.2992 241.0057,-269.4187 247.9569,-260.2796"/>
<polygon fill="#000000" stroke="#000000" points="250.8404,-262.2691 254.0709,-252.1787 245.2531,-258.0521 250.8404,-262.2691"/>
<g id="a_edge1&#45;headlabel"><a xlink:href="dir_000036_000762.html" target="_top" xlink:title="11">
<text text-anchor="middle" x="250.9412" y="-264.3486" font-family="Helvetica,sans-Serif" font-size="10.00" fill="#000000">11</text>
</a>
</g>
</g>
<!-- dir_4ab6b4cc6a7edbff49100e9123df213f&#45;&gt;dir_bcbb2cf9a3d3d83e5515c82071a07177 -->
<g id="edge2" class="edge">
<title>dir_4ab6b4cc6a7edbff49100e9123df213f&#45;&gt;dir_bcbb2cf9a3d3d83e5515c82071a07177</title>
<path fill="none" stroke="#000000" d="M157.7153,-310.6135C111.6504,-306.3634 29.9933,-296.9872 21.5152,-287 -41.8732,-212.328 52.031,-94.4508 103.6745,-43.1936"/>
<polygon fill="#000000" stroke="#000000" points="106.2196,-45.6009 110.9636,-36.1275 101.3474,-40.5748 106.2196,-45.6009"/>
<g id="a_edge2&#45;headlabel"><a xlink:href="dir_000036_000063.html" target="_top" xlink:title="2">
<text text-anchor="middle" x="105.6149" y="-47.6415" font-family="Helvetica,sans-Serif" font-size="10.00" fill="#000000">2</text>
</a>
</g>
</g>
<!-- dir_4ab6b4cc6a7edbff49100e9123df213f&#45;&gt;dir_2171f7ec022c5423887b07c69b2f5b48 -->
<g id="edge3" class="edge">
<title>dir_4ab6b4cc6a7edbff49100e9123df213f&#45;&gt;dir_2171f7ec022c5423887b07c69b2f5b48</title>
<path fill="none" stroke="#000000" d="M219.1101,-309.9246C248.414,-306.5011 289.2776,-299.6933 299.5152,-287 323.7898,-256.9026 318.0293,-233.9461 299.5152,-200 296.7806,-194.9861 293.0694,-190.5343 288.886,-186.6068"/>
<polygon fill="#000000" stroke="#000000" points="290.905,-183.7359 280.9551,-180.0956 286.4631,-189.1462 290.905,-183.7359"/>
<g id="a_edge3&#45;headlabel"><a xlink:href="dir_000036_000090.html" target="_top" xlink:title="2">
<text text-anchor="middle" x="295.4848" y="-181.3224" font-family="Helvetica,sans-Serif" font-size="10.00" fill="#000000">2</text>
</a>
</g>
</g>
<!-- dir_b05a5fa85f84bfc9013183c9d87f9a36&#45;&gt;dir_4ab6b4cc6a7edbff49100e9123df213f -->
<g id="edge4" class="edge">
<title>dir_b05a5fa85f84bfc9013183c9d87f9a36&#45;&gt;dir_4ab6b4cc6a7edbff49100e9123df213f</title>
<path fill="none" stroke="#000000" d="M143.7469,-105.3533C114.0669,-123.536 68.6979,-156.8754 49.5152,-200 33.8001,-235.3291 24.8148,-257.251 49.5152,-287 61.7908,-301.7846 111.0315,-308.2099 147.4378,-310.9709"/>
<polygon fill="#000000" stroke="#000000" points="147.5787,-314.4888 157.796,-311.6859 148.0608,-307.5055 147.5787,-314.4888"/>
<g id="a_edge4&#45;headlabel"><a xlink:href="dir_000642_000036.html" target="_top" xlink:title="1">
<text text-anchor="middle" x="143.7971" y="-314.5739" font-family="Helvetica,sans-Serif" font-size="10.00" fill="#000000">1</text>
</a>
</g>
</g>
<!-- dir_b05a5fa85f84bfc9013183c9d87f9a36&#45;&gt;dir_bcbb2cf9a3d3d83e5515c82071a07177 -->
<g id="edge5" class="edge">
<title>dir_b05a5fa85f84bfc9013183c9d87f9a36&#45;&gt;dir_bcbb2cf9a3d3d83e5515c82071a07177</title>
<path fill="none" stroke="#000000" d="M161.9262,-71.8314C157.6834,-63.7925 152.6031,-54.1666 147.9192,-45.2918"/>
<polygon fill="#000000" stroke="#000000" points="150.9963,-43.6235 143.2333,-36.4133 144.8056,-46.8908 150.9963,-43.6235"/>
<g id="a_edge5&#45;headlabel"><a xlink:href="dir_000642_000063.html" target="_top" xlink:title="99">
<text text-anchor="middle" x="155.1851" y="-42.9772" font-family="Helvetica,sans-Serif" font-size="10.00" fill="#000000">99</text>
</a>
</g>
</g>
<!-- dir_b05a5fa85f84bfc9013183c9d87f9a36&#45;&gt;dir_2171f7ec022c5423887b07c69b2f5b48 -->
<g id="edge6" class="edge">
<title>dir_b05a5fa85f84bfc9013183c9d87f9a36&#45;&gt;dir_2171f7ec022c5423887b07c69b2f5b48</title>
<path fill="none" stroke="#000000" d="M197.1434,-108.1628C207.3122,-116.7744 218.7926,-127.2081 228.4699,-136.5888"/>
<polygon fill="#000000" stroke="#000000" points="226.2162,-139.2827 235.7849,-143.8314 231.1412,-134.3084 226.2162,-139.2827"/>
<g id="a_edge6&#45;headlabel"><a xlink:href="dir_000642_000090.html" target="_top" xlink:title="59">
<text text-anchor="middle" x="221.6642" y="-136.2713" font-family="Helvetica,sans-Serif" font-size="10.00" fill="#000000">59</text>
</a>
</g>
</g>
<!-- dir_f511f1e9c03c071966ae594f00bbc5e0&#45;&gt;dir_ebd881cb3be9af9de1e2db4daa6c5c6f -->
<g id="edge10" class="edge">
<title>dir_f511f1e9c03c071966ae594f00bbc5e0&#45;&gt;dir_ebd881cb3be9af9de1e2db4daa6c5c6f</title>
<path fill="none" stroke="#000000" d="M262.513,-252.1015C255.5706,-263.3346 245.4443,-277.4062 233.5152,-287 222.0651,-296.2086 181.8887,-294.0503 167.5152,-291 149.3929,-287.1542 134.0217,-273.1525 123.1177,-259.99"/>
<polygon fill="#000000" stroke="#000000" points="125.8157,-257.7577 116.9211,-252.0012 120.2846,-262.048 125.8157,-257.7577"/>
<g id="a_edge10&#45;headlabel"><a xlink:href="dir_000762_000299.html" target="_top" xlink:title="1">
<text text-anchor="middle" x="130.2623" y="-256.3578" font-family="Helvetica,sans-Serif" font-size="10.00" fill="#000000">1</text>
</a>
</g>
</g>
<!-- dir_f511f1e9c03c071966ae594f00bbc5e0&#45;&gt;dir_4ab6b4cc6a7edbff49100e9123df213f -->
<g id="edge7" class="edge">
<title>dir_f511f1e9c03c071966ae594f00bbc5e0&#45;&gt;dir_4ab6b4cc6a7edbff49100e9123df213f</title>
<path fill="none" stroke="#000000" d="M269.6033,-252.1787C263.7684,-263.1651 253.7506,-276.9419 242.5152,-287 238.2086,-290.8554 233.2394,-294.4093 228.0679,-297.5713"/>
<polygon fill="#000000" stroke="#000000" points="226.2697,-294.5668 219.2548,-302.5067 229.69,-300.6743 226.2697,-294.5668"/>
<g id="a_edge7&#45;headlabel"><a xlink:href="dir_000762_000036.html" target="_top" xlink:title="4">
<text text-anchor="middle" x="228.0187" y="-287.8332" font-family="Helvetica,sans-Serif" font-size="10.00" fill="#000000">4</text>
</a>
</g>
</g>
<!-- dir_f511f1e9c03c071966ae594f00bbc5e0&#45;&gt;dir_b05a5fa85f84bfc9013183c9d87f9a36 -->
<g id="edge8" class="edge">
<title>dir_f511f1e9c03c071966ae594f00bbc5e0&#45;&gt;dir_b05a5fa85f84bfc9013183c9d87f9a36</title>
<path fill="none" stroke="#000000" d="M252.8211,-215.6677C246.8013,-210.387 240.0431,-204.769 233.5152,-200 219.667,-189.8832 211.1493,-193.4551 200.5152,-180 186.4299,-162.1783 179.0987,-137.3275 175.3353,-118.2535"/>
<polygon fill="#000000" stroke="#000000" points="178.7698,-117.5755 173.5913,-108.3324 171.8755,-118.7874 178.7698,-117.5755"/>
<g id="a_edge8&#45;headlabel"><a xlink:href="dir_000762_000642.html" target="_top" xlink:title="4">
<text text-anchor="middle" x="182.1885" y="-118.1243" font-family="Helvetica,sans-Serif" font-size="10.00" fill="#000000">4</text>
</a>
</g>
</g>
<!-- dir_f511f1e9c03c071966ae594f00bbc5e0&#45;&gt;dir_2171f7ec022c5423887b07c69b2f5b48 -->
<g id="edge9" class="edge">
<title>dir_f511f1e9c03c071966ae594f00bbc5e0&#45;&gt;dir_2171f7ec022c5423887b07c69b2f5b48</title>
<path fill="none" stroke="#000000" d="M260.7589,-215.8314C257.5134,-208.0463 254.3336,-198.7729 251.898,-190.1347"/>
<polygon fill="#000000" stroke="#000000" points="255.2818,-189.2396 249.4212,-180.4133 248.4985,-190.9678 255.2818,-189.2396"/>
<g id="a_edge9&#45;headlabel"><a xlink:href="dir_000762_000090.html" target="_top" xlink:title="19">
<text text-anchor="middle" x="258.9206" y="-189.522" font-family="Helvetica,sans-Serif" font-size="10.00" fill="#000000">19</text>
</a>
</g>
</g>
<!-- dir_bcbb2cf9a3d3d83e5515c82071a07177&#45;&gt;dir_4ab6b4cc6a7edbff49100e9123df213f -->
<g id="edge11" class="edge">
<title>dir_bcbb2cf9a3d3d83e5515c82071a07177&#45;&gt;dir_4ab6b4cc6a7edbff49100e9123df213f</title>
<path fill="none" stroke="#000000" d="M119.6528,-36.1275C79.6479,-82.7518 -26.9907,-208.6556 39.5152,-287 46.6675,-295.4255 105.9017,-303.4161 147.5955,-308.2609"/>
<polygon fill="#000000" stroke="#000000" points="147.4429,-311.7661 157.7754,-309.4232 148.237,-304.8113 147.4429,-311.7661"/>
<g id="a_edge11&#45;headlabel"><a xlink:href="dir_000063_000036.html" target="_top" xlink:title="8">
<text text-anchor="middle" x="143.5494" y="-311.6794" font-family="Helvetica,sans-Serif" font-size="10.00" fill="#000000">8</text>
</a>
</g>
</g>
<!-- dir_bcbb2cf9a3d3d83e5515c82071a07177&#45;&gt;dir_2171f7ec022c5423887b07c69b2f5b48 -->
<g id="edge12" class="edge">
<title>dir_bcbb2cf9a3d3d83e5515c82071a07177&#45;&gt;dir_2171f7ec022c5423887b07c69b2f5b48</title>
<path fill="none" stroke="#000000" d="M169.1199,-33.0924C185.7382,-42.6231 204.4882,-56.1231 217.5152,-72 232.5858,-90.3675 243.3432,-115.174 248.6257,-134.0922"/>
<polygon fill="#000000" stroke="#000000" points="245.2476,-135.0144 250.9898,-143.9182 252.0534,-133.3769 245.2476,-135.0144"/>
<g id="a_edge12&#45;headlabel"><a xlink:href="dir_000063_000090.html" target="_top" xlink:title="73">
<text text-anchor="middle" x="241.6464" y="-129.6836" font-family="Helvetica,sans-Serif" font-size="10.00" fill="#000000">73</text>
</a>
</g>
</g>
<!-- dir_2171f7ec022c5423887b07c69b2f5b48&#45;&gt;dir_ebd881cb3be9af9de1e2db4daa6c5c6f -->
<g id="edge17" class="edge">
<title>dir_2171f7ec022c5423887b07c69b2f5b48&#45;&gt;dir_ebd881cb3be9af9de1e2db4daa6c5c6f</title>
<path fill="none" stroke="#000000" d="M210.1711,-180.1856C196.4598,-186.0228 181.1614,-192.8439 167.5152,-200 161.4657,-203.1723 155.2119,-206.8216 149.083,-210.526"/>
<polygon fill="#000000" stroke="#000000" points="146.9334,-207.7381 140.2312,-215.9437 150.5876,-213.7086 146.9334,-207.7381"/>
<g id="a_edge17&#45;headlabel"><a xlink:href="dir_000090_000299.html" target="_top" xlink:title="1">
<text text-anchor="middle" x="148.5172" y="-200.94" font-family="Helvetica,sans-Serif" font-size="10.00" fill="#000000">1</text>
</a>
</g>
</g>
<!-- dir_2171f7ec022c5423887b07c69b2f5b48&#45;&gt;dir_4ab6b4cc6a7edbff49100e9123df213f -->
<g id="edge13" class="edge">
<title>dir_2171f7ec022c5423887b07c69b2f5b48&#45;&gt;dir_4ab6b4cc6a7edbff49100e9123df213f</title>
<path fill="none" stroke="#000000" d="M289.5229,-174.6898C300.7819,-180.6795 311.5065,-188.9828 317.5152,-200 336.0293,-233.9461 341.7898,-256.9026 317.5152,-287 306.873,-300.195 263.1361,-307.0301 229.376,-310.3147"/>
<polygon fill="#000000" stroke="#000000" points="228.9132,-306.8421 219.2667,-311.2233 229.5398,-313.814 228.9132,-306.8421"/>
<g id="a_edge13&#45;headlabel"><a xlink:href="dir_000090_000036.html" target="_top" xlink:title="38">
<text text-anchor="middle" x="232.2393" y="-301.1926" font-family="Helvetica,sans-Serif" font-size="10.00" fill="#000000">38</text>
</a>
</g>
</g>
<!-- dir_2171f7ec022c5423887b07c69b2f5b48&#45;&gt;dir_b05a5fa85f84bfc9013183c9d87f9a36 -->
<g id="edge14" class="edge">
<title>dir_2171f7ec022c5423887b07c69b2f5b48&#45;&gt;dir_b05a5fa85f84bfc9013183c9d87f9a36</title>
<path fill="none" stroke="#000000" d="M223.8801,-143.8314C213.7884,-135.2848 202.4057,-124.9443 192.7759,-115.6198"/>
<polygon fill="#000000" stroke="#000000" points="195.0588,-112.9551 185.4869,-108.4133 190.1373,-117.933 195.0588,-112.9551"/>
<g id="a_edge14&#45;headlabel"><a xlink:href="dir_000090_000642.html" target="_top" xlink:title="1">
<text text-anchor="middle" x="199.6112" y="-110.9634" font-family="Helvetica,sans-Serif" font-size="10.00" fill="#000000">1</text>
</a>
</g>
</g>
<!-- dir_2171f7ec022c5423887b07c69b2f5b48&#45;&gt;dir_f511f1e9c03c071966ae594f00bbc5e0 -->
<g id="edge15" class="edge">
<title>dir_2171f7ec022c5423887b07c69b2f5b48&#45;&gt;dir_f511f1e9c03c071966ae594f00bbc5e0</title>
<path fill="none" stroke="#000000" d="M261.3732,-180.4133C264.6173,-188.2292 267.7886,-197.5113 270.2086,-206.136"/>
<polygon fill="#000000" stroke="#000000" points="266.8159,-206.9965 272.6637,-215.8314 273.6018,-205.2781 266.8159,-206.9965"/>
<g id="a_edge15&#45;headlabel"><a xlink:href="dir_000090_000762.html" target="_top" xlink:title="28">
<text text-anchor="middle" x="263.1812" y="-201.7089" font-family="Helvetica,sans-Serif" font-size="10.00" fill="#000000">28</text>
</a>
</g>
</g>
<!-- dir_2171f7ec022c5423887b07c69b2f5b48&#45;&gt;dir_bcbb2cf9a3d3d83e5515c82071a07177 -->
<g id="edge16" class="edge">
<title>dir_2171f7ec022c5423887b07c69b2f5b48&#45;&gt;dir_bcbb2cf9a3d3d83e5515c82071a07177</title>
<path fill="none" stroke="#000000" d="M237.7222,-143.9182C229.1795,-124.5824 217.3766,-93.7689 199.5152,-72 190.0972,-60.5216 177.6879,-50.2856 166.1057,-41.8936"/>
<polygon fill="#000000" stroke="#000000" points="168.0692,-38.9957 157.8728,-36.1174 164.0488,-44.726 168.0692,-38.9957"/>
<g id="a_edge16&#45;headlabel"><a xlink:href="dir_000090_000063.html" target="_top" xlink:title="22">
<text text-anchor="middle" x="172.6424" y="-36.2359" font-family="Helvetica,sans-Serif" font-size="10.00" fill="#000000">22</text>
</a>
</g>
</g>
</g>
</svg>
