<?xml version="1.0" encoding="UTF-8" standalone="no"?>
<!DOCTYPE svg PUBLIC "-//W3C//DTD SVG 1.1//EN"
 "http://www.w3.org/Graphics/SVG/1.1/DTD/svg11.dtd">
<!-- Generated by graphviz version 2.40.1 (20161225.0304)
 -->
<!-- Title: /home/travis/build/AliceO2Group/AliceO2/Detectors/EMCAL Pages: 1 -->
<!--zoomable 663 -->
<svg id="main" version="1.1" xmlns="http://www.w3.org/2000/svg" xmlns:xlink="http://www.w3.org/1999/xlink" xml:space="preserve" onload="init(evt)">
<style type="text/css"><![CDATA[
.edge:hover path { stroke: red; }
.edge:hover polygon { stroke: red; fill: red; }
]]></style>
<script type="text/javascript"><![CDATA[
var edges = document.getElementsByTagName('g');
if (edges && edges.length) {
  for (var i=0;i<edges.length;i++) {
    if (edges[i].id.substr(0,4)=='edge') {
      edges[i].setAttribute('class','edge');
    }
  }
}
]]></script>
        <defs>
                <circle id="rim" cx="0" cy="0" r="7"/>
                <circle id="rim2" cx="0" cy="0" r="3.5"/>
                <g id="zoomPlus">
                        <use xlink:href="#rim" fill="#404040">
                                <set attributeName="fill" to="#808080" begin="zoomplus.mouseover" end="zoomplus.mouseout"/>
                        </use>
                        <path d="M-4,0h8M0,-4v8" fill="none" stroke="white" stroke-width="1.5" pointer-events="none"/>
                </g>
                <g id="zoomMin">
                        <use xlink:href="#rim" fill="#404040">
                                <set attributeName="fill" to="#808080" begin="zoomminus.mouseover" end="zoomminus.mouseout"/>
                        </use>
                        <path d="M-4,0h8" fill="none" stroke="white" stroke-width="1.5" pointer-events="none"/>
                </g>
                <g id="dirArrow">
                        <path fill="none" stroke="white" stroke-width="1.5" d="M0,-3.0v7 M-2.5,-0.5L0,-3.0L2.5,-0.5"/>
                </g>
               <g id="resetDef">
                       <use xlink:href="#rim2" fill="#404040">
                               <set attributeName="fill" to="#808080" begin="reset.mouseover" end="reset.mouseout"/>
                       </use>
               </g>
        </defs>

<script type="text/javascript">
var viewWidth = 702;
var viewHeight = 663;
var sectionId = 'dynsection-0';
</script>
<script xlink:href="svgpan.js"/>
<svg id="graph" class="graph">
<g id="viewport">
<title>/home/travis/build/AliceO2Group/AliceO2/Detectors/EMCAL</title>
<g id="clust1" class="cluster">
<title>clusterdir_051dca18e802f8e9474f2e30d29c04e0</title>
<g id="a_clust1"><a xlink:href="dir_051dca18e802f8e9474f2e30d29c04e0.html" target="_top" xlink:title="Detectors">
<polygon fill="#ddddee" stroke="#000000" points="8,-416 8,-647 304,-647 304,-416 8,-416"/>
<text text-anchor="middle" x="156" y="-635" font-family="Helvetica,sans-Serif" font-size="10.00" fill="#000000">Detectors</text>
</a>
</g>
</g>
<g id="clust2" class="cluster">
<title>clusterdir_088378b58cb1ba39db48039cbd66d10f</title>
<g id="a_clust2"><a xlink:href="dir_088378b58cb1ba39db48039cbd66d10f.html" target="_top">
<polygon fill="#eeeeff" stroke="#000000" points="16,-424 16,-620 296,-620 296,-424 16,-424"/>
</a>
</g>
</g>
<!-- dir_088378b58cb1ba39db48039cbd66d10f -->
<g id="node1" class="node">
<title>dir_088378b58cb1ba39db48039cbd66d10f</title>
<text text-anchor="middle" x="261" y="-591.5" font-family="Helvetica,sans-Serif" font-size="10.00" fill="#000000">EMCAL</text>
</g>
<!-- dir_478733f24fb8878a4cdf7773310adedd -->
<g id="node2" class="node">
<title>dir_478733f24fb8878a4cdf7773310adedd</title>
<g id="a_node2"><a xlink:href="dir_478733f24fb8878a4cdf7773310adedd.html" target="_top" xlink:title="base">
<polygon fill="#ffffff" stroke="#ff0000" points="218,-468 164,-468 164,-432 218,-432 218,-468"/>
<text text-anchor="middle" x="191" y="-447.5" font-family="Helvetica,sans-Serif" font-size="10.00" fill="#000000">base</text>
</a>
</g>
</g>
<!-- dir_4ab6b4cc6a7edbff49100e9123df213f -->
<g id="node7" class="node">
<title>dir_4ab6b4cc6a7edbff49100e9123df213f</title>
<g id="a_node7"><a xlink:href="dir_4ab6b4cc6a7edbff49100e9123df213f.html" target="_top" xlink:title="Common">
<polygon fill="none" stroke="#ff0000" points="369.5,-396 308.5,-396 308.5,-360 369.5,-360 369.5,-396"/>
<text text-anchor="middle" x="339" y="-375.5" font-family="Helvetica,sans-Serif" font-size="10.00" fill="#000000">Common</text>
</a>
</g>
</g>
<!-- dir_478733f24fb8878a4cdf7773310adedd&#45;&gt;dir_4ab6b4cc6a7edbff49100e9123df213f -->
<g id="edge26" class="edge">
<title>dir_478733f24fb8878a4cdf7773310adedd&#45;&gt;dir_4ab6b4cc6a7edbff49100e9123df213f</title>
<path fill="none" stroke="#000000" d="M218.1455,-436.7941C240.8882,-425.7301 273.6613,-409.7864 299.343,-397.2926"/>
<polygon fill="#000000" stroke="#000000" points="300.9909,-400.3832 308.4521,-392.8611 297.9286,-394.0885 300.9909,-400.3832"/>
<g id="a_edge26&#45;headlabel"><a xlink:href="dir_000225_000036.html" target="_top" xlink:title="5">
<text text-anchor="middle" x="299.0006" y="-402.0088" font-family="Helvetica,sans-Serif" font-size="10.00" fill="#000000">5</text>
</a>
</g>
</g>
<!-- dir_2171f7ec022c5423887b07c69b2f5b48 -->
<g id="node14" class="node">
<title>dir_2171f7ec022c5423887b07c69b2f5b48</title>
<g id="a_node14"><a xlink:href="dir_2171f7ec022c5423887b07c69b2f5b48.html" target="_top" xlink:title="DataFormats">
<polygon fill="none" stroke="#ff0000" points="278,-252 198,-252 198,-216 278,-216 278,-252"/>
<text text-anchor="middle" x="238" y="-231.5" font-family="Helvetica,sans-Serif" font-size="10.00" fill="#000000">DataFormats</text>
</a>
</g>
</g>
<!-- dir_478733f24fb8878a4cdf7773310adedd&#45;&gt;dir_2171f7ec022c5423887b07c69b2f5b48 -->
<g id="edge27" class="edge">
<title>dir_478733f24fb8878a4cdf7773310adedd&#45;&gt;dir_2171f7ec022c5423887b07c69b2f5b48</title>
<path fill="none" stroke="#000000" d="M188.4214,-431.8525C184.7915,-401.1905 180.4261,-337.6228 198,-288 201.5053,-278.1022 207.4898,-268.4896 213.777,-260.185"/>
<polygon fill="#000000" stroke="#000000" points="216.5373,-262.3376 220.0846,-252.3542 211.0858,-257.9465 216.5373,-262.3376"/>
<g id="a_edge27&#45;headlabel"><a xlink:href="dir_000225_000090.html" target="_top" xlink:title="13">
<text text-anchor="middle" x="216.4936" y="-264.4181" font-family="Helvetica,sans-Serif" font-size="10.00" fill="#000000">13</text>
</a>
</g>
</g>
<!-- dir_17f5b3462f0641fcb82883c36b9bb9fd -->
<g id="node3" class="node">
<title>dir_17f5b3462f0641fcb82883c36b9bb9fd</title>
<g id="a_node3"><a xlink:href="dir_17f5b3462f0641fcb82883c36b9bb9fd.html" target="_top" xlink:title="calib">
<polygon fill="#ffffff" stroke="#ff0000" points="288,-540 234,-540 234,-504 288,-504 288,-540"/>
<text text-anchor="middle" x="261" y="-519.5" font-family="Helvetica,sans-Serif" font-size="10.00" fill="#000000">calib</text>
</a>
</g>
</g>
<!-- dir_17f5b3462f0641fcb82883c36b9bb9fd&#45;&gt;dir_478733f24fb8878a4cdf7773310adedd -->
<g id="edge29" class="edge">
<title>dir_17f5b3462f0641fcb82883c36b9bb9fd&#45;&gt;dir_478733f24fb8878a4cdf7773310adedd</title>
<path fill="none" stroke="#000000" d="M243.336,-503.8314C235.0268,-495.2848 224.9736,-484.9443 215.9082,-475.6198"/>
<polygon fill="#000000" stroke="#000000" points="218.3821,-473.1435 208.9018,-468.4133 213.3631,-478.023 218.3821,-473.1435"/>
<g id="a_edge29&#45;headlabel"><a xlink:href="dir_000384_000225.html" target="_top" xlink:title="3">
<text text-anchor="middle" x="222.9235" y="-471.2416" font-family="Helvetica,sans-Serif" font-size="10.00" fill="#000000">3</text>
</a>
</g>
</g>
<!-- dir_6af676bf18881990e4083e191d0e63e0 -->
<g id="node8" class="node">
<title>dir_6af676bf18881990e4083e191d0e63e0</title>
<g id="a_node8"><a xlink:href="dir_6af676bf18881990e4083e191d0e63e0.html" target="_top" xlink:title="CCDB">
<polygon fill="none" stroke="#ff0000" points="514,-468 460,-468 460,-432 514,-432 514,-468"/>
<text text-anchor="middle" x="487" y="-447.5" font-family="Helvetica,sans-Serif" font-size="10.00" fill="#000000">CCDB</text>
</a>
</g>
</g>
<!-- dir_17f5b3462f0641fcb82883c36b9bb9fd&#45;&gt;dir_6af676bf18881990e4083e191d0e63e0 -->
<g id="edge28" class="edge">
<title>dir_17f5b3462f0641fcb82883c36b9bb9fd&#45;&gt;dir_6af676bf18881990e4083e191d0e63e0</title>
<path fill="none" stroke="#000000" d="M288.0048,-515.2933C324.35,-506.0014 390.8174,-488.071 446,-468 447.4155,-467.4852 448.8515,-466.9452 450.2969,-466.3867"/>
<polygon fill="#000000" stroke="#000000" points="451.9051,-469.5113 459.8532,-462.5057 449.2712,-463.0257 451.9051,-469.5113"/>
<g id="a_edge28&#45;headlabel"><a xlink:href="dir_000384_000028.html" target="_top" xlink:title="1">
<text text-anchor="middle" x="449.643" y="-470.9944" font-family="Helvetica,sans-Serif" font-size="10.00" fill="#000000">1</text>
</a>
</g>
</g>
<!-- dir_43247e9473992ee8ffdfc874c5267163 -->
<g id="node4" class="node">
<title>dir_43247e9473992ee8ffdfc874c5267163</title>
<g id="a_node4"><a xlink:href="dir_43247e9473992ee8ffdfc874c5267163.html" target="_top" xlink:title="reconstruction">
<polygon fill="#ffffff" stroke="#ff0000" points="130,-540 44,-540 44,-504 130,-504 130,-540"/>
<text text-anchor="middle" x="87" y="-519.5" font-family="Helvetica,sans-Serif" font-size="10.00" fill="#000000">reconstruction</text>
</a>
</g>
</g>
<!-- dir_43247e9473992ee8ffdfc874c5267163&#45;&gt;dir_478733f24fb8878a4cdf7773310adedd -->
<g id="edge4" class="edge">
<title>dir_43247e9473992ee8ffdfc874c5267163&#45;&gt;dir_478733f24fb8878a4cdf7773310adedd</title>
<path fill="none" stroke="#000000" d="M113.2436,-503.8314C126.2995,-494.7927 142.2535,-483.7476 156.3047,-474.0198"/>
<polygon fill="#000000" stroke="#000000" points="158.5351,-476.7326 164.7648,-468.1628 154.5506,-470.9773 158.5351,-476.7326"/>
<g id="a_edge4&#45;headlabel"><a xlink:href="dir_000463_000225.html" target="_top" xlink:title="4">
<text text-anchor="middle" x="157.1958" y="-478.6131" font-family="Helvetica,sans-Serif" font-size="10.00" fill="#000000">4</text>
</a>
</g>
</g>
<!-- dir_43247e9473992ee8ffdfc874c5267163&#45;&gt;dir_4ab6b4cc6a7edbff49100e9123df213f -->
<g id="edge1" class="edge">
<title>dir_43247e9473992ee8ffdfc874c5267163&#45;&gt;dir_4ab6b4cc6a7edbff49100e9123df213f</title>
<path fill="none" stroke="#000000" d="M130.0812,-506.9236C133.0946,-505.9195 136.0898,-504.9361 139,-504 192.4122,-486.8192 213.2076,-498.9599 260,-468 285.0104,-451.452 283.1207,-438.4537 303,-416 306.5241,-412.0196 310.3174,-407.874 314.073,-403.8466"/>
<polygon fill="#000000" stroke="#000000" points="316.8541,-405.9989 321.1677,-396.3219 311.761,-401.1967 316.8541,-405.9989"/>
<g id="a_edge1&#45;headlabel"><a xlink:href="dir_000463_000036.html" target="_top" xlink:title="2">
<text text-anchor="middle" x="316.454" y="-408.062" font-family="Helvetica,sans-Serif" font-size="10.00" fill="#000000">2</text>
</a>
</g>
</g>
<!-- dir_b05a5fa85f84bfc9013183c9d87f9a36 -->
<g id="node9" class="node">
<title>dir_b05a5fa85f84bfc9013183c9d87f9a36</title>
<g id="a_node9"><a xlink:href="dir_b05a5fa85f84bfc9013183c9d87f9a36.html" target="_top" xlink:title="Utilities">
<polygon fill="none" stroke="#ff0000" points="309.5,-108 254.5,-108 254.5,-72 309.5,-72 309.5,-108"/>
<text text-anchor="middle" x="282" y="-87.5" font-family="Helvetica,sans-Serif" font-size="10.00" fill="#000000">Utilities</text>
</a>
</g>
</g>
<!-- dir_43247e9473992ee8ffdfc874c5267163&#45;&gt;dir_b05a5fa85f84bfc9013183c9d87f9a36 -->
<g id="edge2" class="edge">
<title>dir_43247e9473992ee8ffdfc874c5267163&#45;&gt;dir_b05a5fa85f84bfc9013183c9d87f9a36</title>
<path fill="none" stroke="#000000" d="M86.1904,-503.8363C85.5875,-482.5982 85.6329,-446.4696 91,-416 113.089,-290.5991 211.4972,-167.9341 257.7843,-115.9568"/>
<polygon fill="#000000" stroke="#000000" points="260.6513,-118.0037 264.746,-108.2321 255.4513,-113.3174 260.6513,-118.0037"/>
<g id="a_edge2&#45;headlabel"><a xlink:href="dir_000463_000642.html" target="_top" xlink:title="1">
<text text-anchor="middle" x="260.354" y="-120.0747" font-family="Helvetica,sans-Serif" font-size="10.00" fill="#000000">1</text>
</a>
</g>
</g>
<!-- dir_37c90836491b695b472bf98d1be8336b -->
<g id="node10" class="node">
<title>dir_37c90836491b695b472bf98d1be8336b</title>
<g id="a_node10"><a xlink:href="dir_37c90836491b695b472bf98d1be8336b.html" target="_top" xlink:title="Base">
<polygon fill="none" stroke="#ff0000" points="398,-180 344,-180 344,-144 398,-144 398,-180"/>
<text text-anchor="middle" x="371" y="-159.5" font-family="Helvetica,sans-Serif" font-size="10.00" fill="#000000">Base</text>
</a>
</g>
</g>
<!-- dir_43247e9473992ee8ffdfc874c5267163&#45;&gt;dir_37c90836491b695b472bf98d1be8336b -->
<g id="edge3" class="edge">
<title>dir_43247e9473992ee8ffdfc874c5267163&#45;&gt;dir_37c90836491b695b472bf98d1be8336b</title>
<path fill="none" stroke="#000000" d="M130.0611,-506.274C169.7875,-491.6299 223.1981,-471.5386 227,-468 249.217,-447.3217 329.4896,-260.4134 359.539,-189.2977"/>
<polygon fill="#000000" stroke="#000000" points="362.7735,-190.635 363.4345,-180.0608 356.3236,-187.9148 362.7735,-190.635"/>
<g id="a_edge3&#45;headlabel"><a xlink:href="dir_000463_000297.html" target="_top" xlink:title="1">
<text text-anchor="middle" x="363.9929" y="-192.5504" font-family="Helvetica,sans-Serif" font-size="10.00" fill="#000000">1</text>
</a>
</g>
</g>
<!-- dir_26637d1bd82229bc9ed97f7e706be743 -->
<g id="node13" class="node">
<title>dir_26637d1bd82229bc9ed97f7e706be743</title>
<g id="a_node13"><a xlink:href="dir_26637d1bd82229bc9ed97f7e706be743.html" target="_top" xlink:title="Raw">
<polygon fill="none" stroke="#ff0000" points="366,-468 312,-468 312,-432 366,-432 366,-468"/>
<text text-anchor="middle" x="339" y="-447.5" font-family="Helvetica,sans-Serif" font-size="10.00" fill="#000000">Raw</text>
</a>
</g>
</g>
<!-- dir_43247e9473992ee8ffdfc874c5267163&#45;&gt;dir_26637d1bd82229bc9ed97f7e706be743 -->
<g id="edge5" class="edge">
<title>dir_43247e9473992ee8ffdfc874c5267163&#45;&gt;dir_26637d1bd82229bc9ed97f7e706be743</title>
<path fill="none" stroke="#000000" d="M130.0108,-506.6911C133.041,-505.7423 136.0591,-504.8349 139,-504 209.5352,-483.9756 230.5439,-491.4956 300,-468 300.7152,-467.7581 301.4349,-467.5071 302.1575,-467.2482"/>
<polygon fill="#000000" stroke="#000000" points="303.5801,-470.4496 311.5988,-463.5249 301.012,-463.9376 303.5801,-470.4496"/>
<g id="a_edge5&#45;headlabel"><a xlink:href="dir_000463_000647.html" target="_top" xlink:title="2">
<text text-anchor="middle" x="301.2777" y="-471.9095" font-family="Helvetica,sans-Serif" font-size="10.00" fill="#000000">2</text>
</a>
</g>
</g>
<!-- dir_43247e9473992ee8ffdfc874c5267163&#45;&gt;dir_2171f7ec022c5423887b07c69b2f5b48 -->
<g id="edge6" class="edge">
<title>dir_43247e9473992ee8ffdfc874c5267163&#45;&gt;dir_2171f7ec022c5423887b07c69b2f5b48</title>
<path fill="none" stroke="#000000" d="M89.1305,-503.8627C94.7957,-462.1191 113.4143,-357.5041 164,-288 172.51,-276.3074 184.3106,-266.1083 195.9907,-257.8169"/>
<polygon fill="#000000" stroke="#000000" points="198.0957,-260.6187 204.4254,-252.1225 194.1789,-254.817 198.0957,-260.6187"/>
<g id="a_edge6&#45;headlabel"><a xlink:href="dir_000463_000090.html" target="_top" xlink:title="24">
<text text-anchor="middle" x="196.7051" y="-262.4832" font-family="Helvetica,sans-Serif" font-size="10.00" fill="#000000">24</text>
</a>
</g>
</g>
<!-- dir_40743f2e882add17463d3ecfa83bffd4 -->
<g id="node5" class="node">
<title>dir_40743f2e882add17463d3ecfa83bffd4</title>
<g id="a_node5"><a xlink:href="dir_40743f2e882add17463d3ecfa83bffd4.html" target="_top" xlink:title="simulation">
<polygon fill="#ffffff" stroke="#ff0000" points="216,-540 148,-540 148,-504 216,-504 216,-540"/>
<text text-anchor="middle" x="182" y="-519.5" font-family="Helvetica,sans-Serif" font-size="10.00" fill="#000000">simulation</text>
</a>
</g>
</g>
<!-- dir_40743f2e882add17463d3ecfa83bffd4&#45;&gt;dir_478733f24fb8878a4cdf7773310adedd -->
<g id="edge9" class="edge">
<title>dir_40743f2e882add17463d3ecfa83bffd4&#45;&gt;dir_478733f24fb8878a4cdf7773310adedd</title>
<path fill="none" stroke="#000000" d="M184.2711,-503.8314C185.2336,-496.131 186.3782,-486.9743 187.4479,-478.4166"/>
<polygon fill="#000000" stroke="#000000" points="190.9309,-478.7702 188.6983,-468.4133 183.9849,-477.9019 190.9309,-478.7702"/>
<g id="a_edge9&#45;headlabel"><a xlink:href="dir_000303_000225.html" target="_top" xlink:title="19">
<text text-anchor="middle" x="193.3025" y="-480.1892" font-family="Helvetica,sans-Serif" font-size="10.00" fill="#000000">19</text>
</a>
</g>
</g>
<!-- dir_40743f2e882add17463d3ecfa83bffd4&#45;&gt;dir_4ab6b4cc6a7edbff49100e9123df213f -->
<g id="edge7" class="edge">
<title>dir_40743f2e882add17463d3ecfa83bffd4&#45;&gt;dir_4ab6b4cc6a7edbff49100e9123df213f</title>
<path fill="none" stroke="#000000" d="M216.0799,-507.1512C219.0742,-506.0243 222.0769,-504.9557 225,-504 290.1653,-482.6943 332.553,-521.8396 375,-468 389.3086,-449.851 383.555,-437.4694 375,-416 373.2886,-411.7051 370.8356,-407.6164 368.0034,-403.8217"/>
<polygon fill="#000000" stroke="#000000" points="370.4942,-401.3489 361.3382,-396.018 365.1714,-405.8951 370.4942,-401.3489"/>
<g id="a_edge7&#45;headlabel"><a xlink:href="dir_000303_000036.html" target="_top" xlink:title="6">
<text text-anchor="middle" x="374.9877" y="-399.7382" font-family="Helvetica,sans-Serif" font-size="10.00" fill="#000000">6</text>
</a>
</g>
</g>
<!-- dir_40743f2e882add17463d3ecfa83bffd4&#45;&gt;dir_37c90836491b695b472bf98d1be8336b -->
<g id="edge8" class="edge">
<title>dir_40743f2e882add17463d3ecfa83bffd4&#45;&gt;dir_37c90836491b695b472bf98d1be8336b</title>
<path fill="none" stroke="#000000" d="M216.4473,-506.6168C219.3083,-505.6352 222.1832,-504.7443 225,-504 289.4903,-486.9593 478.7521,-517.915 523,-468 601.677,-379.2464 464.7276,-242.4635 400.985,-186.8205"/>
<polygon fill="#000000" stroke="#000000" points="403.0902,-184.0143 393.2306,-180.1364 398.5199,-189.3165 403.0902,-184.0143"/>
<g id="a_edge8&#45;headlabel"><a xlink:href="dir_000303_000297.html" target="_top" xlink:title="1">
<text text-anchor="middle" x="407.6667" y="-181.7106" font-family="Helvetica,sans-Serif" font-size="10.00" fill="#000000">1</text>
</a>
</g>
</g>
<!-- dir_bcbb2cf9a3d3d83e5515c82071a07177 -->
<g id="node12" class="node">
<title>dir_bcbb2cf9a3d3d83e5515c82071a07177</title>
<g id="a_node12"><a xlink:href="dir_bcbb2cf9a3d3d83e5515c82071a07177.html" target="_top" xlink:title="Framework">
<polygon fill="none" stroke="#ff0000" points="481.5,-324 410.5,-324 410.5,-288 481.5,-288 481.5,-324"/>
<text text-anchor="middle" x="446" y="-303.5" font-family="Helvetica,sans-Serif" font-size="10.00" fill="#000000">Framework</text>
</a>
</g>
</g>
<!-- dir_40743f2e882add17463d3ecfa83bffd4&#45;&gt;dir_bcbb2cf9a3d3d83e5515c82071a07177 -->
<g id="edge10" class="edge">
<title>dir_40743f2e882add17463d3ecfa83bffd4&#45;&gt;dir_bcbb2cf9a3d3d83e5515c82071a07177</title>
<path fill="none" stroke="#000000" d="M216.0549,-507.0733C219.0547,-505.9633 222.0655,-504.9199 225,-504 297.8656,-481.1589 336.2427,-519.0854 393,-468 431.2709,-433.5536 442.002,-371.0928 444.95,-334.6131"/>
<polygon fill="#000000" stroke="#000000" points="448.4719,-334.3941 445.6369,-324.1857 441.487,-333.9339 448.4719,-334.3941"/>
<g id="a_edge10&#45;headlabel"><a xlink:href="dir_000303_000063.html" target="_top" xlink:title="1">
<text text-anchor="middle" x="451.0688" y="-335.6676" font-family="Helvetica,sans-Serif" font-size="10.00" fill="#000000">1</text>
</a>
</g>
</g>
<!-- dir_40743f2e882add17463d3ecfa83bffd4&#45;&gt;dir_26637d1bd82229bc9ed97f7e706be743 -->
<g id="edge11" class="edge">
<title>dir_40743f2e882add17463d3ecfa83bffd4&#45;&gt;dir_26637d1bd82229bc9ed97f7e706be743</title>
<path fill="none" stroke="#000000" d="M216.0938,-506.4329C239.6677,-495.6606 271.7501,-480.9831 300,-468 300.83,-467.6185 301.67,-467.2323 302.5169,-466.8428"/>
<polygon fill="#000000" stroke="#000000" points="304.1111,-469.962 311.7301,-462.5997 301.1829,-463.6038 304.1111,-469.962"/>
<g id="a_edge11&#45;headlabel"><a xlink:href="dir_000303_000647.html" target="_top" xlink:title="1">
<text text-anchor="middle" x="302.0338" y="-471.5445" font-family="Helvetica,sans-Serif" font-size="10.00" fill="#000000">1</text>
</a>
</g>
</g>
<!-- dir_40743f2e882add17463d3ecfa83bffd4&#45;&gt;dir_2171f7ec022c5423887b07c69b2f5b48 -->
<g id="edge12" class="edge">
<title>dir_40743f2e882add17463d3ecfa83bffd4&#45;&gt;dir_2171f7ec022c5423887b07c69b2f5b48</title>
<path fill="none" stroke="#000000" d="M170.2492,-503.8241C164.4142,-493.7142 157.9861,-480.6495 155,-468 149.6902,-445.5071 152.3456,-438.9582 155,-416 161.7111,-357.9562 156.8263,-339.1895 185,-288 190.8296,-277.408 199.3182,-267.4522 207.8003,-259.0442"/>
<polygon fill="#000000" stroke="#000000" points="210.3135,-261.485 215.1856,-252.0768 205.5099,-256.3933 210.3135,-261.485"/>
<g id="a_edge12&#45;headlabel"><a xlink:href="dir_000303_000090.html" target="_top" xlink:title="14">
<text text-anchor="middle" x="209.6473" y="-263.5169" font-family="Helvetica,sans-Serif" font-size="10.00" fill="#000000">14</text>
</a>
</g>
</g>
<!-- dir_ee205545fda14b0cface4520402ad101 -->
<g id="node6" class="node">
<title>dir_ee205545fda14b0cface4520402ad101</title>
<g id="a_node6"><a xlink:href="dir_ee205545fda14b0cface4520402ad101.html" target="_top" xlink:title="workflow">
<polygon fill="#ffffff" stroke="#ff0000" points="215.5,-612 154.5,-612 154.5,-576 215.5,-576 215.5,-612"/>
<text text-anchor="middle" x="185" y="-591.5" font-family="Helvetica,sans-Serif" font-size="10.00" fill="#000000">workflow</text>
</a>
</g>
</g>
<!-- dir_ee205545fda14b0cface4520402ad101&#45;&gt;dir_478733f24fb8878a4cdf7773310adedd -->
<g id="edge34" class="edge">
<title>dir_ee205545fda14b0cface4520402ad101&#45;&gt;dir_478733f24fb8878a4cdf7773310adedd</title>
<path fill="none" stroke="#000000" d="M154.3927,-588.6785C101.4127,-578.0936 1.3544,-551.2509 35,-504 49.0522,-484.2654 112.579,-467.0456 154.1066,-457.6257"/>
<polygon fill="#000000" stroke="#000000" points="154.8841,-461.0384 163.89,-455.4576 153.3696,-454.2042 154.8841,-461.0384"/>
<g id="a_edge34&#45;headlabel"><a xlink:href="dir_000415_000225.html" target="_top" xlink:title="8">
<text text-anchor="middle" x="151.9889" y="-462.088" font-family="Helvetica,sans-Serif" font-size="10.00" fill="#000000">8</text>
</a>
</g>
</g>
<!-- dir_ee205545fda14b0cface4520402ad101&#45;&gt;dir_43247e9473992ee8ffdfc874c5267163 -->
<g id="edge30" class="edge">
<title>dir_ee205545fda14b0cface4520402ad101&#45;&gt;dir_43247e9473992ee8ffdfc874c5267163</title>
<path fill="none" stroke="#000000" d="M160.2705,-575.8314C148.0838,-566.8779 133.2177,-555.9558 120.0688,-546.2955"/>
<polygon fill="#000000" stroke="#000000" points="121.8527,-543.263 111.7216,-540.1628 117.7082,-548.9042 121.8527,-543.263"/>
<g id="a_edge30&#45;headlabel"><a xlink:href="dir_000415_000463.html" target="_top" xlink:title="10">
<text text-anchor="middle" x="126.4306" y="-540.6032" font-family="Helvetica,sans-Serif" font-size="10.00" fill="#000000">10</text>
</a>
</g>
</g>
<!-- dir_ee205545fda14b0cface4520402ad101&#45;&gt;dir_4ab6b4cc6a7edbff49100e9123df213f -->
<g id="edge31" class="edge">
<title>dir_ee205545fda14b0cface4520402ad101&#45;&gt;dir_4ab6b4cc6a7edbff49100e9123df213f</title>
<path fill="none" stroke="#000000" d="M215.9098,-579.8143C218.968,-578.4941 222.0361,-577.202 225,-576 355.5475,-523.0577 442.1187,-583.3419 523,-468 536.269,-449.0776 537.5961,-433.9186 523,-416 505.295,-394.2648 428.4134,-384.5858 379.8038,-380.5719"/>
<polygon fill="#000000" stroke="#000000" points="379.8362,-377.0639 369.5947,-379.7773 379.293,-384.0428 379.8362,-377.0639"/>
<g id="a_edge31&#45;headlabel"><a xlink:href="dir_000415_000036.html" target="_top" xlink:title="1">
<text text-anchor="middle" x="383.6403" y="-372.012" font-family="Helvetica,sans-Serif" font-size="10.00" fill="#000000">1</text>
</a>
</g>
</g>
<!-- dir_ee205545fda14b0cface4520402ad101&#45;&gt;dir_37c90836491b695b472bf98d1be8336b -->
<g id="edge32" class="edge">
<title>dir_ee205545fda14b0cface4520402ad101&#45;&gt;dir_37c90836491b695b472bf98d1be8336b</title>
<path fill="none" stroke="#000000" d="M215.6685,-579.109C218.7756,-577.9316 221.921,-576.8655 225,-576 348.3338,-541.33 406.0398,-613.4615 511,-540 540.4758,-519.37 537.6197,-502.4481 548,-468 571.3209,-390.6071 565.1981,-356.3188 522,-288 499.8898,-253.0322 494.4408,-242.8902 463,-216 446.1004,-201.5464 424.8149,-188.7718 406.9754,-179.2809"/>
<polygon fill="#000000" stroke="#000000" points="408.4904,-176.1239 398.002,-174.6255 405.2668,-182.3375 408.4904,-176.1239"/>
<g id="a_edge32&#45;headlabel"><a xlink:href="dir_000415_000297.html" target="_top" xlink:title="1">
<text text-anchor="middle" x="412.9887" y="-172.7589" font-family="Helvetica,sans-Serif" font-size="10.00" fill="#000000">1</text>
</a>
</g>
</g>
<!-- dir_8ba487e25de5ee77e05e9dce7582cb98 -->
<g id="node11" class="node">
<title>dir_8ba487e25de5ee77e05e9dce7582cb98</title>
<g id="a_node11"><a xlink:href="dir_8ba487e25de5ee77e05e9dce7582cb98.html" target="_top" xlink:title="Algorithm">
<polygon fill="none" stroke="#ff0000" points="314.5,-36 249.5,-36 249.5,0 314.5,0 314.5,-36"/>
<text text-anchor="middle" x="282" y="-15.5" font-family="Helvetica,sans-Serif" font-size="10.00" fill="#000000">Algorithm</text>
</a>
</g>
</g>
<!-- dir_ee205545fda14b0cface4520402ad101&#45;&gt;dir_8ba487e25de5ee77e05e9dce7582cb98 -->
<g id="edge33" class="edge">
<title>dir_ee205545fda14b0cface4520402ad101&#45;&gt;dir_8ba487e25de5ee77e05e9dce7582cb98</title>
<path fill="none" stroke="#000000" d="M215.6589,-579.0744C218.7679,-577.904 221.9164,-576.849 225,-576 360.0042,-538.8278 405.0317,-583.9014 538,-540 614.0088,-514.9046 694,-530.0444 694,-450 694,-450 694,-450 694,-162 694,-84.3629 429.9954,-38.7481 324.6535,-23.6374"/>
<polygon fill="#000000" stroke="#000000" points="325.0643,-20.1607 314.6733,-22.2292 324.0862,-27.0921 325.0643,-20.1607"/>
<g id="a_edge33&#45;headlabel"><a xlink:href="dir_000415_000000.html" target="_top" xlink:title="2">
<text text-anchor="middle" x="329.0203" y="-15.3514" font-family="Helvetica,sans-Serif" font-size="10.00" fill="#000000">2</text>
</a>
</g>
</g>
<!-- dir_ee205545fda14b0cface4520402ad101&#45;&gt;dir_bcbb2cf9a3d3d83e5515c82071a07177 -->
<g id="edge35" class="edge">
<title>dir_ee205545fda14b0cface4520402ad101&#45;&gt;dir_bcbb2cf9a3d3d83e5515c82071a07177</title>
<path fill="none" stroke="#000000" d="M215.6865,-579.1719C218.7899,-577.9817 221.9296,-576.8955 225,-576 331.5002,-544.9377 373.1975,-590.4503 472,-540 511.7487,-519.7036 525.2113,-509.3527 542,-468 563.037,-416.1831 513.0948,-361.2813 477.6386,-330.554"/>
<polygon fill="#000000" stroke="#000000" points="479.78,-327.7814 469.8795,-324.0089 475.2665,-333.132 479.78,-327.7814"/>
<g id="a_edge35&#45;headlabel"><a xlink:href="dir_000415_000063.html" target="_top" xlink:title="41">
<text text-anchor="middle" x="484.3583" y="-325.4288" font-family="Helvetica,sans-Serif" font-size="10.00" fill="#000000">41</text>
</a>
</g>
</g>
<!-- dir_ee205545fda14b0cface4520402ad101&#45;&gt;dir_26637d1bd82229bc9ed97f7e706be743 -->
<g id="edge36" class="edge">
<title>dir_ee205545fda14b0cface4520402ad101&#45;&gt;dir_26637d1bd82229bc9ed97f7e706be743</title>
<path fill="none" stroke="#000000" d="M215.6282,-579.852C247.6943,-564.9465 293.8528,-543.1872 297,-540 313.9446,-522.8399 324.9107,-497.5664 331.3731,-478.1669"/>
<polygon fill="#000000" stroke="#000000" points="334.7962,-478.9462 334.4295,-468.3577 328.1131,-476.8638 334.7962,-478.9462"/>
<g id="a_edge36&#45;headlabel"><a xlink:href="dir_000415_000647.html" target="_top" xlink:title="1">
<text text-anchor="middle" x="336.4376" y="-480.7227" font-family="Helvetica,sans-Serif" font-size="10.00" fill="#000000">1</text>
</a>
</g>
</g>
<!-- dir_ee205545fda14b0cface4520402ad101&#45;&gt;dir_2171f7ec022c5423887b07c69b2f5b48 -->
<g id="edge37" class="edge">
<title>dir_ee205545fda14b0cface4520402ad101&#45;&gt;dir_2171f7ec022c5423887b07c69b2f5b48</title>
<path fill="none" stroke="#000000" d="M154.2473,-588.0963C111.9831,-579.2864 39.4083,-561.4199 24,-540 14.6567,-527.0114 20.1531,-519.5307 24,-504 50.0989,-398.6342 61.6094,-365.1206 138,-288 152.1759,-273.6886 170.9494,-262.2037 188.3989,-253.567"/>
<polygon fill="#000000" stroke="#000000" points="190.3772,-256.503 197.9192,-249.062 187.3831,-250.1757 190.3772,-256.503"/>
<g id="a_edge37&#45;headlabel"><a xlink:href="dir_000415_000090.html" target="_top" xlink:title="41">
<text text-anchor="middle" x="188.3424" y="-258.1069" font-family="Helvetica,sans-Serif" font-size="10.00" fill="#000000">41</text>
</a>
</g>
</g>
<!-- dir_4ab6b4cc6a7edbff49100e9123df213f&#45;&gt;dir_bcbb2cf9a3d3d83e5515c82071a07177 -->
<g id="edge13" class="edge">
<title>dir_4ab6b4cc6a7edbff49100e9123df213f&#45;&gt;dir_bcbb2cf9a3d3d83e5515c82071a07177</title>
<path fill="none" stroke="#000000" d="M360.0482,-359.8314C372.7183,-350.7074 389.17,-339.539 404.3229,-329.7449"/>
<polygon fill="#000000" stroke="#000000" points="406.5152,-332.4975 413.0562,-324.1628 402.7453,-326.5993 406.5152,-332.4975"/>
<g id="a_edge13&#45;headlabel"><a xlink:href="dir_000036_000063.html" target="_top" xlink:title="2">
<text text-anchor="middle" x="405.0155" y="-334.3257" font-family="Helvetica,sans-Serif" font-size="10.00" fill="#000000">2</text>
</a>
</g>
</g>
<!-- dir_4ab6b4cc6a7edbff49100e9123df213f&#45;&gt;dir_2171f7ec022c5423887b07c69b2f5b48 -->
<g id="edge14" class="edge">
<title>dir_4ab6b4cc6a7edbff49100e9123df213f&#45;&gt;dir_2171f7ec022c5423887b07c69b2f5b48</title>
<path fill="none" stroke="#000000" d="M321.5351,-359.7623C301.5014,-334.7682 269.6453,-289.6924 251.4315,-260.8409"/>
<polygon fill="#000000" stroke="#000000" points="254.2605,-258.7606 246.0296,-252.0896 248.3039,-262.4375 254.2605,-258.7606"/>
<g id="a_edge14&#45;headlabel"><a xlink:href="dir_000036_000090.html" target="_top" xlink:title="2">
<text text-anchor="middle" x="258.5647" y="-257.828" font-family="Helvetica,sans-Serif" font-size="10.00" fill="#000000">2</text>
</a>
</g>
</g>
<!-- dir_6af676bf18881990e4083e191d0e63e0&#45;&gt;dir_4ab6b4cc6a7edbff49100e9123df213f -->
<g id="edge15" class="edge">
<title>dir_6af676bf18881990e4083e191d0e63e0&#45;&gt;dir_4ab6b4cc6a7edbff49100e9123df213f</title>
<path fill="none" stroke="#000000" d="M459.8545,-436.7941C437.1118,-425.7301 404.3387,-409.7864 378.657,-397.2926"/>
<polygon fill="#000000" stroke="#000000" points="380.0714,-394.0885 369.5479,-392.8611 377.0091,-400.3832 380.0714,-394.0885"/>
<g id="a_edge15&#45;headlabel"><a xlink:href="dir_000028_000036.html" target="_top" xlink:title="4">
<text text-anchor="middle" x="384.5459" y="-390.6078" font-family="Helvetica,sans-Serif" font-size="10.00" fill="#000000">4</text>
</a>
</g>
</g>
<!-- dir_6af676bf18881990e4083e191d0e63e0&#45;&gt;dir_bcbb2cf9a3d3d83e5515c82071a07177 -->
<g id="edge16" class="edge">
<title>dir_6af676bf18881990e4083e191d0e63e0&#45;&gt;dir_bcbb2cf9a3d3d83e5515c82071a07177</title>
<path fill="none" stroke="#000000" d="M481.8073,-431.7623C474.7834,-407.0928 462.1892,-362.8598 453.9646,-333.9731"/>
<polygon fill="#000000" stroke="#000000" points="457.2552,-332.7489 451.1505,-324.0896 450.5228,-334.6658 457.2552,-332.7489"/>
<g id="a_edge16&#45;headlabel"><a xlink:href="dir_000028_000063.html" target="_top" xlink:title="2">
<text text-anchor="middle" x="460.9702" y="-332.9286" font-family="Helvetica,sans-Serif" font-size="10.00" fill="#000000">2</text>
</a>
</g>
</g>
<!-- dir_b05a5fa85f84bfc9013183c9d87f9a36&#45;&gt;dir_4ab6b4cc6a7edbff49100e9123df213f -->
<g id="edge17" class="edge">
<title>dir_b05a5fa85f84bfc9013183c9d87f9a36&#45;&gt;dir_4ab6b4cc6a7edbff49100e9123df213f</title>
<path fill="none" stroke="#000000" d="M285.5643,-108.0089C295.1993,-156.6912 321.8186,-291.1886 333.4454,-349.9345"/>
<polygon fill="#000000" stroke="#000000" points="330.0594,-350.8541 335.4344,-359.9843 336.9262,-349.495 330.0594,-350.8541"/>
<g id="a_edge17&#45;headlabel"><a xlink:href="dir_000642_000036.html" target="_top" xlink:title="1">
<text text-anchor="middle" x="326.5763" y="-345.3791" font-family="Helvetica,sans-Serif" font-size="10.00" fill="#000000">1</text>
</a>
</g>
</g>
<!-- dir_b05a5fa85f84bfc9013183c9d87f9a36&#45;&gt;dir_8ba487e25de5ee77e05e9dce7582cb98 -->
<g id="edge18" class="edge">
<title>dir_b05a5fa85f84bfc9013183c9d87f9a36&#45;&gt;dir_8ba487e25de5ee77e05e9dce7582cb98</title>
<path fill="none" stroke="#000000" d="M282,-71.8314C282,-64.131 282,-54.9743 282,-46.4166"/>
<polygon fill="#000000" stroke="#000000" points="285.5001,-46.4132 282,-36.4133 278.5001,-46.4133 285.5001,-46.4132"/>
<g id="a_edge18&#45;headlabel"><a xlink:href="dir_000642_000000.html" target="_top" xlink:title="1">
<text text-anchor="middle" x="288.3393" y="-47.5079" font-family="Helvetica,sans-Serif" font-size="10.00" fill="#000000">1</text>
</a>
</g>
</g>
<!-- dir_b05a5fa85f84bfc9013183c9d87f9a36&#45;&gt;dir_bcbb2cf9a3d3d83e5515c82071a07177 -->
<g id="edge19" class="edge">
<title>dir_b05a5fa85f84bfc9013183c9d87f9a36&#45;&gt;dir_bcbb2cf9a3d3d83e5515c82071a07177</title>
<path fill="none" stroke="#000000" d="M309.6803,-94.5297C338.2957,-100.6882 382.1874,-114.5192 407,-144 439.1596,-182.21 445.6804,-242.5592 446.5171,-277.81"/>
<polygon fill="#000000" stroke="#000000" points="443.018,-277.9268 446.6164,-287.8918 450.0177,-277.8578 443.018,-277.9268"/>
<g id="a_edge19&#45;headlabel"><a xlink:href="dir_000642_000063.html" target="_top" xlink:title="99">
<text text-anchor="middle" x="440.1436" y="-271.8603" font-family="Helvetica,sans-Serif" font-size="10.00" fill="#000000">99</text>
</a>
</g>
</g>
<!-- dir_b05a5fa85f84bfc9013183c9d87f9a36&#45;&gt;dir_2171f7ec022c5423887b07c69b2f5b48 -->
<g id="edge20" class="edge">
<title>dir_b05a5fa85f84bfc9013183c9d87f9a36&#45;&gt;dir_2171f7ec022c5423887b07c69b2f5b48</title>
<path fill="none" stroke="#000000" d="M281.1309,-108.0896C276.0744,-132.7884 262.7423,-177.2933 251.9425,-206.2331"/>
<polygon fill="#000000" stroke="#000000" points="248.5995,-205.1734 248.2458,-215.7623 255.1257,-207.7051 248.5995,-205.1734"/>
<g id="a_edge20&#45;headlabel"><a xlink:href="dir_000642_000090.html" target="_top" xlink:title="59">
<text text-anchor="middle" x="247.2525" y="-198.2952" font-family="Helvetica,sans-Serif" font-size="10.00" fill="#000000">59</text>
</a>
</g>
</g>
<!-- dir_37c90836491b695b472bf98d1be8336b&#45;&gt;dir_4ab6b4cc6a7edbff49100e9123df213f -->
<g id="edge21" class="edge">
<title>dir_37c90836491b695b472bf98d1be8336b&#45;&gt;dir_4ab6b4cc6a7edbff49100e9123df213f</title>
<path fill="none" stroke="#000000" d="M371.0603,-180.1983C370.823,-210.4067 368.899,-272.6635 358,-324 356.1511,-332.7085 353.2698,-341.9343 350.3049,-350.2492"/>
<polygon fill="#000000" stroke="#000000" points="346.9413,-349.2513 346.7108,-359.8436 353.4964,-351.7069 346.9413,-349.2513"/>
<g id="a_edge21&#45;headlabel"><a xlink:href="dir_000297_000036.html" target="_top" xlink:title="16">
<text text-anchor="middle" x="345.5434" y="-342.3891" font-family="Helvetica,sans-Serif" font-size="10.00" fill="#000000">16</text>
</a>
</g>
</g>
<!-- dir_37c90836491b695b472bf98d1be8336b&#45;&gt;dir_b05a5fa85f84bfc9013183c9d87f9a36 -->
<g id="edge22" class="edge">
<title>dir_37c90836491b695b472bf98d1be8336b&#45;&gt;dir_b05a5fa85f84bfc9013183c9d87f9a36</title>
<path fill="none" stroke="#000000" d="M348.5415,-143.8314C337.5795,-134.9632 324.2301,-124.1637 312.3735,-114.5718"/>
<polygon fill="#000000" stroke="#000000" points="314.4271,-111.7313 304.4513,-108.1628 310.0245,-117.1734 314.4271,-111.7313"/>
<g id="a_edge22&#45;headlabel"><a xlink:href="dir_000297_000642.html" target="_top" xlink:title="1">
<text text-anchor="middle" x="319.0075" y="-109.2847" font-family="Helvetica,sans-Serif" font-size="10.00" fill="#000000">1</text>
</a>
</g>
</g>
<!-- dir_37c90836491b695b472bf98d1be8336b&#45;&gt;dir_bcbb2cf9a3d3d83e5515c82071a07177 -->
<g id="edge23" class="edge">
<title>dir_37c90836491b695b472bf98d1be8336b&#45;&gt;dir_bcbb2cf9a3d3d83e5515c82071a07177</title>
<path fill="none" stroke="#000000" d="M380.4217,-180.0896C393.3418,-204.8962 416.6679,-249.6824 431.7351,-278.6113"/>
<polygon fill="#000000" stroke="#000000" points="428.7776,-280.5099 436.5012,-287.7623 434.986,-277.2764 428.7776,-280.5099"/>
<g id="a_edge23&#45;headlabel"><a xlink:href="dir_000297_000063.html" target="_top" xlink:title="1">
<text text-anchor="middle" x="424.599" y="-276.1334" font-family="Helvetica,sans-Serif" font-size="10.00" fill="#000000">1</text>
</a>
</g>
</g>
<!-- dir_37c90836491b695b472bf98d1be8336b&#45;&gt;dir_2171f7ec022c5423887b07c69b2f5b48 -->
<g id="edge24" class="edge">
<title>dir_37c90836491b695b472bf98d1be8336b&#45;&gt;dir_2171f7ec022c5423887b07c69b2f5b48</title>
<path fill="none" stroke="#000000" d="M343.8372,-179.9134C327.3128,-189.3677 305.8302,-201.0703 286.505,-211.1692"/>
<polygon fill="#000000" stroke="#000000" points="284.7803,-208.1209 277.5139,-215.8314 288.0026,-214.3352 284.7803,-208.1209"/>
<g id="a_edge24&#45;headlabel"><a xlink:href="dir_000297_000090.html" target="_top" xlink:title="15">
<text text-anchor="middle" x="286.6644" y="-201.4457" font-family="Helvetica,sans-Serif" font-size="10.00" fill="#000000">15</text>
</a>
</g>
</g>
<!-- dir_8ba487e25de5ee77e05e9dce7582cb98&#45;&gt;dir_2171f7ec022c5423887b07c69b2f5b48 -->
<g id="edge25" class="edge">
<title>dir_8ba487e25de5ee77e05e9dce7582cb98&#45;&gt;dir_2171f7ec022c5423887b07c69b2f5b48</title>
<path fill="none" stroke="#000000" d="M274.3012,-36.1671C267.6847,-46.07 259.3068,-58.9459 255,-72 240.1775,-116.9278 241.3648,-172.6592 241.3882,-205.6632"/>
<polygon fill="#000000" stroke="#000000" points="237.8868,-205.9154 241.3267,-215.9362 244.8866,-205.9573 237.8868,-205.9154"/>
<g id="a_edge25&#45;headlabel"><a xlink:href="dir_000000_000090.html" target="_top" xlink:title="8">
<text text-anchor="middle" x="235.069" y="-199.8038" font-family="Helvetica,sans-Serif" font-size="10.00" fill="#000000">8</text>
</a>
</g>
</g>
<!-- dir_bcbb2cf9a3d3d83e5515c82071a07177&#45;&gt;dir_4ab6b4cc6a7edbff49100e9123df213f -->
<g id="edge38" class="edge">
<title>dir_bcbb2cf9a3d3d83e5515c82071a07177&#45;&gt;dir_4ab6b4cc6a7edbff49100e9123df213f</title>
<path fill="none" stroke="#000000" d="M425.0163,-324.1222C411.6443,-333.754 394.042,-345.6742 378.1998,-355.8516"/>
<polygon fill="#000000" stroke="#000000" points="376.1836,-352.9858 369.6177,-361.3008 379.9358,-358.8952 376.1836,-352.9858"/>
<g id="a_edge38&#45;headlabel"><a xlink:href="dir_000063_000036.html" target="_top" xlink:title="8">
<text text-anchor="middle" x="377.6962" y="-346.1621" font-family="Helvetica,sans-Serif" font-size="10.00" fill="#000000">8</text>
</a>
</g>
</g>
<!-- dir_bcbb2cf9a3d3d83e5515c82071a07177&#45;&gt;dir_8ba487e25de5ee77e05e9dce7582cb98 -->
<g id="edge39" class="edge">
<title>dir_bcbb2cf9a3d3d83e5515c82071a07177&#45;&gt;dir_8ba487e25de5ee77e05e9dce7582cb98</title>
<path fill="none" stroke="#000000" d="M450.2675,-287.6221C452.462,-277.2314 454.9016,-263.963 456,-252 460.5046,-202.9371 458.8812,-184.6213 431,-144 401.6107,-101.1815 353.9886,-64.4616 320.5095,-41.891"/>
<polygon fill="#000000" stroke="#000000" points="322.1657,-38.7899 311.8961,-36.1848 318.2997,-44.6255 322.1657,-38.7899"/>
<g id="a_edge39&#45;headlabel"><a xlink:href="dir_000063_000000.html" target="_top" xlink:title="1">
<text text-anchor="middle" x="326.7304" y="-35.9081" font-family="Helvetica,sans-Serif" font-size="10.00" fill="#000000">1</text>
</a>
</g>
</g>
<!-- dir_bcbb2cf9a3d3d83e5515c82071a07177&#45;&gt;dir_2171f7ec022c5423887b07c69b2f5b48 -->
<g id="edge40" class="edge">
<title>dir_bcbb2cf9a3d3d83e5515c82071a07177&#45;&gt;dir_2171f7ec022c5423887b07c69b2f5b48</title>
<path fill="none" stroke="#000000" d="M410.3535,-295.3762C376.5711,-284.3523 325.6945,-266.8692 287.914,-253.3773"/>
<polygon fill="#000000" stroke="#000000" points="288.7154,-249.9464 278.1209,-249.8634 286.3512,-256.5351 288.7154,-249.9464"/>
<g id="a_edge40&#45;headlabel"><a xlink:href="dir_000063_000090.html" target="_top" xlink:title="73">
<text text-anchor="middle" x="293.0577" y="-245.9879" font-family="Helvetica,sans-Serif" font-size="10.00" fill="#000000">73</text>
</a>
</g>
</g>
<!-- dir_26637d1bd82229bc9ed97f7e706be743&#45;&gt;dir_4ab6b4cc6a7edbff49100e9123df213f -->
<g id="edge41" class="edge">
<title>dir_26637d1bd82229bc9ed97f7e706be743&#45;&gt;dir_4ab6b4cc6a7edbff49100e9123df213f</title>
<path fill="none" stroke="#000000" d="M339,-431.8314C339,-424.131 339,-414.9743 339,-406.4166"/>
<polygon fill="#000000" stroke="#000000" points="342.5001,-406.4132 339,-396.4133 335.5001,-406.4133 342.5001,-406.4132"/>
<g id="a_edge41&#45;headlabel"><a xlink:href="dir_000647_000036.html" target="_top" xlink:title="10">
<text text-anchor="middle" x="345.3393" y="-407.5079" font-family="Helvetica,sans-Serif" font-size="10.00" fill="#000000">10</text>
</a>
</g>
</g>
<!-- dir_26637d1bd82229bc9ed97f7e706be743&#45;&gt;dir_bcbb2cf9a3d3d83e5515c82071a07177 -->
<g id="edge42" class="edge">
<title>dir_26637d1bd82229bc9ed97f7e706be743&#45;&gt;dir_bcbb2cf9a3d3d83e5515c82071a07177</title>
<path fill="none" stroke="#000000" d="M352.5516,-431.7623C371.204,-406.66 404.9078,-361.3017 426.3335,-332.4671"/>
<polygon fill="#000000" stroke="#000000" points="429.4034,-334.2038 432.5584,-324.0896 423.7848,-330.0288 429.4034,-334.2038"/>
<g id="a_edge42&#45;headlabel"><a xlink:href="dir_000647_000063.html" target="_top" xlink:title="25">
<text text-anchor="middle" x="429.5385" y="-336.2825" font-family="Helvetica,sans-Serif" font-size="10.00" fill="#000000">25</text>
</a>
</g>
</g>
<!-- dir_26637d1bd82229bc9ed97f7e706be743&#45;&gt;dir_2171f7ec022c5423887b07c69b2f5b48 -->
<g id="edge43" class="edge">
<title>dir_26637d1bd82229bc9ed97f7e706be743&#45;&gt;dir_2171f7ec022c5423887b07c69b2f5b48</title>
<path fill="none" stroke="#000000" d="M324.0515,-431.7821C316.2163,-421.6599 306.8521,-408.5968 300,-396 275.7191,-351.362 256.5105,-295.1867 246.2367,-262.0767"/>
<polygon fill="#000000" stroke="#000000" points="249.4839,-260.7257 243.2198,-252.181 242.7882,-262.7671 249.4839,-260.7257"/>
<g id="a_edge43&#45;headlabel"><a xlink:href="dir_000647_000090.html" target="_top" xlink:title="15">
<text text-anchor="middle" x="253.2479" y="-260.8362" font-family="Helvetica,sans-Serif" font-size="10.00" fill="#000000">15</text>
</a>
</g>
</g>
<!-- dir_2171f7ec022c5423887b07c69b2f5b48&#45;&gt;dir_4ab6b4cc6a7edbff49100e9123df213f -->
<g id="edge44" class="edge">
<title>dir_2171f7ec022c5423887b07c69b2f5b48&#45;&gt;dir_4ab6b4cc6a7edbff49100e9123df213f</title>
<path fill="none" stroke="#000000" d="M255.3461,-252.0896C275.333,-277.0041 307.1926,-322.0722 325.4603,-350.9877"/>
<polygon fill="#000000" stroke="#000000" points="322.6478,-353.0946 330.8815,-359.7623 328.6029,-349.4154 322.6478,-353.0946"/>
<g id="a_edge44&#45;headlabel"><a xlink:href="dir_000090_000036.html" target="_top" xlink:title="38">
<text text-anchor="middle" x="318.3431" y="-349.0289" font-family="Helvetica,sans-Serif" font-size="10.00" fill="#000000">38</text>
</a>
</g>
</g>
<!-- dir_2171f7ec022c5423887b07c69b2f5b48&#45;&gt;dir_b05a5fa85f84bfc9013183c9d87f9a36 -->
<g id="edge45" class="edge">
<title>dir_2171f7ec022c5423887b07c69b2f5b48&#45;&gt;dir_b05a5fa85f84bfc9013183c9d87f9a36</title>
<path fill="none" stroke="#000000" d="M238.8995,-215.7623C243.9889,-190.9846 257.3325,-146.4714 268.1221,-117.5939"/>
<polygon fill="#000000" stroke="#000000" points="271.4556,-118.6784 271.8143,-108.0896 264.9306,-116.1435 271.4556,-118.6784"/>
<g id="a_edge45&#45;headlabel"><a xlink:href="dir_000090_000642.html" target="_top" xlink:title="1">
<text text-anchor="middle" x="272.8006" y="-120.5572" font-family="Helvetica,sans-Serif" font-size="10.00" fill="#000000">1</text>
</a>
</g>
</g>
<!-- dir_2171f7ec022c5423887b07c69b2f5b48&#45;&gt;dir_37c90836491b695b472bf98d1be8336b -->
<g id="edge46" class="edge">
<title>dir_2171f7ec022c5423887b07c69b2f5b48&#45;&gt;dir_37c90836491b695b472bf98d1be8336b</title>
<path fill="none" stroke="#000000" d="M265.6091,-215.8314C285.7642,-204.3126 313.1231,-189.5355 334.9795,-178.3787"/>
<polygon fill="#000000" stroke="#000000" points="336.6228,-181.4699 343.9726,-173.8389 333.4682,-175.221 336.6228,-181.4699"/>
<g id="a_edge46&#45;headlabel"><a xlink:href="dir_000090_000297.html" target="_top" xlink:title="1">
<text text-anchor="middle" x="334.6934" y="-183.1244" font-family="Helvetica,sans-Serif" font-size="10.00" fill="#000000">1</text>
</a>
</g>
</g>
<!-- dir_2171f7ec022c5423887b07c69b2f5b48&#45;&gt;dir_8ba487e25de5ee77e05e9dce7582cb98 -->
<g id="edge47" class="edge">
<title>dir_2171f7ec022c5423887b07c69b2f5b48&#45;&gt;dir_8ba487e25de5ee77e05e9dce7582cb98</title>
<path fill="none" stroke="#000000" d="M230.3425,-215.9362C223.8379,-185.3974 220.502,-122.0066 237,-72 240.2301,-62.2094 245.7502,-52.5191 251.9216,-44.108"/>
<polygon fill="#000000" stroke="#000000" points="254.7546,-46.169 258.2494,-36.1671 249.2801,-41.8066 254.7546,-46.169"/>
<g id="a_edge47&#45;headlabel"><a xlink:href="dir_000090_000000.html" target="_top" xlink:title="2">
<text text-anchor="middle" x="254.735" y="-48.2496" font-family="Helvetica,sans-Serif" font-size="10.00" fill="#000000">2</text>
</a>
</g>
</g>
<!-- dir_2171f7ec022c5423887b07c69b2f5b48&#45;&gt;dir_bcbb2cf9a3d3d83e5515c82071a07177 -->
<g id="edge48" class="edge">
<title>dir_2171f7ec022c5423887b07c69b2f5b48&#45;&gt;dir_bcbb2cf9a3d3d83e5515c82071a07177</title>
<path fill="none" stroke="#000000" d="M278.3406,-246.161C313.5609,-257.7326 364.4637,-275.2732 400.9848,-288.3762"/>
<polygon fill="#000000" stroke="#000000" points="399.8153,-291.675 410.4096,-291.7751 402.1901,-285.0901 399.8153,-291.675"/>
<g id="a_edge48&#45;headlabel"><a xlink:href="dir_000090_000063.html" target="_top" xlink:title="22">
<text text-anchor="middle" x="395.4706" y="-290.6264" font-family="Helvetica,sans-Serif" font-size="10.00" fill="#000000">22</text>
</a>
</g>
</g>
</g>
</svg>
        <g id="navigator" transform="translate(0 0)" fill="#404254">
                <rect fill="#f2f5e9" fill-opacity="0.5" stroke="#606060" stroke-width=".5" x="0" y="0" width="60" height="60"/>
                <use id="zoomplus" xlink:href="#zoomPlus" x="17" y="9" onmousedown="handleZoom(evt,'in')"/>
                <use id="zoomminus" xlink:href="#zoomMin" x="42" y="9" onmousedown="handleZoom(evt,'out')"/>
                <use id="reset" xlink:href="#resetDef" x="30" y="36" onmousedown="handleReset()"/>
                <g id="arrowUp" xlink:href="#dirArrow" transform="translate(30 24)" onmousedown="handlePan(0,-1)">
                  <use xlink:href="#rim" fill="#404040">
                        <set attributeName="fill" to="#808080" begin="arrowUp.mouseover" end="arrowUp.mouseout"/>
                  </use>
                  <path fill="none" stroke="white" stroke-width="1.5" d="M0,-3.0v7 M-2.5,-0.5L0,-3.0L2.5,-0.5"/>
                </g>
                <g id="arrowRight" xlink:href="#dirArrow" transform="rotate(90) translate(36 -43)" onmousedown="handlePan(1,0)">
                  <use xlink:href="#rim" fill="#404040">
                        <set attributeName="fill" to="#808080" begin="arrowRight.mouseover" end="arrowRight.mouseout"/>
                  </use>
                  <path fill="none" stroke="white" stroke-width="1.5" d="M0,-3.0v7 M-2.5,-0.5L0,-3.0L2.5,-0.5"/>
                </g>
                <g id="arrowDown" xlink:href="#dirArrow" transform="rotate(180) translate(-30 -48)" onmousedown="handlePan(0,1)">
                  <use xlink:href="#rim" fill="#404040">
                        <set attributeName="fill" to="#808080" begin="arrowDown.mouseover" end="arrowDown.mouseout"/>
                  </use>
                  <path fill="none" stroke="white" stroke-width="1.5" d="M0,-3.0v7 M-2.5,-0.5L0,-3.0L2.5,-0.5"/>
                </g>
                <g id="arrowLeft" xlink:href="#dirArrow" transform="rotate(270) translate(-36 17)" onmousedown="handlePan(-1,0)">
                  <use xlink:href="#rim" fill="#404040">
                        <set attributeName="fill" to="#808080" begin="arrowLeft.mouseover" end="arrowLeft.mouseout"/>
                  </use>
                  <path fill="none" stroke="white" stroke-width="1.5" d="M0,-3.0v7 M-2.5,-0.5L0,-3.0L2.5,-0.5"/>
                </g>
        </g>
        <svg viewBox="0 0 15 15" width="100%" height="30px" preserveAspectRatio="xMaxYMin meet">
         <g id="arrow_out" transform="scale(0.3 0.3)">
          <a xlink:href="dir_088378b58cb1ba39db48039cbd66d10f_dep_org.svg" target="_base">
           <rect id="button" ry="5" rx="5" y="6" x="6" height="38" width="38"
                fill="#f2f5e9" fill-opacity="0.5" stroke="#606060" stroke-width="1.0"/>
           <path id="arrow"
             d="M 11.500037,31.436501 C 11.940474,20.09759 22.043105,11.32322 32.158766,21.979434 L 37.068811,17.246167 C 37.068811,17.246167 37.088388,32 37.088388,32 L 22.160133,31.978069 C 22.160133,31.978069 26.997745,27.140456 26.997745,27.140456 C 18.528582,18.264221 13.291696,25.230495 11.500037,31.436501 z"
             style="fill:#404040;"/>
          </a>
         </g>
        </svg>
</svg>
