<?xml version="1.0" encoding="UTF-8" standalone="no"?>
<!DOCTYPE svg PUBLIC "-//W3C//DTD SVG 1.1//EN"
 "http://www.w3.org/Graphics/SVG/1.1/DTD/svg11.dtd">
<!-- Generated by graphviz version 2.40.1 (20161225.0304)
 -->
<!-- Title: Graphical Class Hierarchy Pages: 1 -->
<svg width="411pt" height="176pt"
 viewBox="0.00 0.00 411.00 175.50" xmlns="http://www.w3.org/2000/svg" xmlns:xlink="http://www.w3.org/1999/xlink">
<g id="graph0" class="graph" transform="scale(1 1) rotate(0) translate(4 171.5)">
<title>Graphical Class Hierarchy</title>
<!-- Node3286 -->
<g id="node1" class="node">
<title>Node3286</title>
<polygon fill="none" stroke="#bfbfbf" points="0,-68.5 0,-87.5 29,-87.5 29,-68.5 0,-68.5"/>
<text text-anchor="middle" x="14.5" y="-75.5" font-family="Helvetica,sans-Serif" font-size="10.00" fill="#000000">T</text>
</g>
<!-- Node0 -->
<g id="node2" class="node">
<title>Node0</title>
<g id="a_node2"><a xlink:href="dd/d0d/classo2_1_1soa_1_1FilteredPolicy.html" target="_top" xlink:title="o2::soa::FilteredPolicy\l\&lt; T::table_t \&gt;">
<polygon fill="none" stroke="#000000" points="93.5,-137 93.5,-167 216.5,-167 216.5,-137 93.5,-137"/>
<text text-anchor="start" x="101.5" y="-155" font-family="Helvetica,sans-Serif" font-size="10.00" fill="#000000">o2::soa::FilteredPolicy</text>
<text text-anchor="middle" x="155" y="-144" font-family="Helvetica,sans-Serif" font-size="10.00" fill="#000000">&lt; T::table_t &gt;</text>
</a>
</g>
</g>
<!-- Node3286&#45;&gt;Node0 -->
<g id="edge1" class="edge">
<title>Node3286&#45;&gt;Node0</title>
<path fill="none" stroke="#191970" d="M28.1743,-95.6074C37.4654,-106.4361 50.6419,-119.7693 65,-128 73.6982,-132.9862 83.4622,-136.9649 93.2655,-140.1317"/>
<polygon fill="#191970" stroke="#191970" points="30.657,-93.1155 21.6077,-87.6054 25.2457,-97.5561 30.657,-93.1155"/>
</g>
<!-- Node3289 -->
<g id="node4" class="node">
<title>Node3289</title>
<g id="a_node4"><a xlink:href="df/d27/classGPUCA__NAMESPACE_1_1gpu_1_1GPUReconstructionKernels.html" target="_top" xlink:title="GPUCA_NAMESPACE::gpu\l::GPUReconstructionKernels\&lt; T \&gt;">
<polygon fill="none" stroke="#000000" points="65,-88 65,-118 245,-118 245,-88 65,-88"/>
<text text-anchor="start" x="73" y="-106" font-family="Helvetica,sans-Serif" font-size="10.00" fill="#000000">GPUCA_NAMESPACE::gpu</text>
<text text-anchor="middle" x="155" y="-95" font-family="Helvetica,sans-Serif" font-size="10.00" fill="#000000">::GPUReconstructionKernels&lt; T &gt;</text>
</a>
</g>
</g>
<!-- Node3286&#45;&gt;Node3289 -->
<g id="edge3" class="edge">
<title>Node3286&#45;&gt;Node3289</title>
<path fill="none" stroke="#191970" d="M39.1308,-82.3827C48.233,-84.0023 59.1357,-85.9423 70.5609,-87.9752"/>
<polygon fill="#191970" stroke="#191970" points="39.4653,-78.8873 29.0068,-80.5813 38.239,-85.7791 39.4653,-78.8873"/>
</g>
<!-- Node3290 -->
<g id="node5" class="node">
<title>Node3290</title>
<g id="a_node5"><a xlink:href="d6/deb/classGPUCA__NAMESPACE_1_1gpu_1_1GPUTRDTrack__t.html" target="_top" xlink:title="GPUCA_NAMESPACE::gpu\l::GPUTRDTrack_t\&lt; T \&gt;">
<polygon fill="none" stroke="#000000" points="85,-39 85,-69 225,-69 225,-39 85,-39"/>
<text text-anchor="start" x="93" y="-57" font-family="Helvetica,sans-Serif" font-size="10.00" fill="#000000">GPUCA_NAMESPACE::gpu</text>
<text text-anchor="middle" x="155" y="-46" font-family="Helvetica,sans-Serif" font-size="10.00" fill="#000000">::GPUTRDTrack_t&lt; T &gt;</text>
</a>
</g>
</g>
<!-- Node3286&#45;&gt;Node3290 -->
<g id="edge4" class="edge">
<title>Node3286&#45;&gt;Node3290</title>
<path fill="none" stroke="#191970" d="M38.9116,-73.83C51.8265,-71.6239 68.41,-68.7912 84.9767,-65.9613"/>
<polygon fill="#191970" stroke="#191970" points="38.2746,-70.3881 29.0068,-75.522 39.4534,-77.2881 38.2746,-70.3881"/>
</g>
<!-- Node3291 -->
<g id="node6" class="node">
<title>Node3291</title>
<g id="a_node6"><a xlink:href="dd/d0d/classo2_1_1soa_1_1FilteredPolicy.html" target="_top" xlink:title="o2::soa::FilteredPolicy\&lt; T \&gt;">
<polygon fill="none" stroke="#000000" points="79,-.5 79,-19.5 231,-19.5 231,-.5 79,-.5"/>
<text text-anchor="middle" x="155" y="-7.5" font-family="Helvetica,sans-Serif" font-size="10.00" fill="#000000">o2::soa::FilteredPolicy&lt; T &gt;</text>
</a>
</g>
</g>
<!-- Node3286&#45;&gt;Node3291 -->
<g id="edge5" class="edge">
<title>Node3286&#45;&gt;Node3291</title>
<path fill="none" stroke="#191970" d="M28.1017,-60.4961C37.3637,-49.7845 50.5351,-36.7004 65,-29 72.3301,-25.0978 80.3958,-21.997 88.5957,-19.5329"/>
<polygon fill="#191970" stroke="#191970" points="25.2218,-58.4872 21.5618,-68.4298 30.6233,-62.9397 25.2218,-58.4872"/>
</g>
<!-- Node1 -->
<g id="node3" class="node">
<title>Node1</title>
<g id="a_node3"><a xlink:href="d8/d07/classo2_1_1soa_1_1Filtered_3_01Filtered_3_01T_01_4_01_4.html" target="_top" xlink:title="o2::soa::Filtered\&lt;\l Filtered\&lt; T \&gt; \&gt;">
<polygon fill="none" stroke="#000000" points="291,-137 291,-167 393,-167 393,-137 291,-137"/>
<text text-anchor="start" x="299" y="-155" font-family="Helvetica,sans-Serif" font-size="10.00" fill="#000000">o2::soa::Filtered&lt;</text>
<text text-anchor="middle" x="342" y="-144" font-family="Helvetica,sans-Serif" font-size="10.00" fill="#000000"> Filtered&lt; T &gt; &gt;</text>
</a>
</g>
</g>
<!-- Node0&#45;&gt;Node1 -->
<g id="edge2" class="edge">
<title>Node0&#45;&gt;Node1</title>
<path fill="none" stroke="#191970" d="M226.7695,-152C248.1547,-152 271.1455,-152 290.9227,-152"/>
<polygon fill="#191970" stroke="#191970" points="226.7491,-148.5001 216.749,-152 226.749,-155.5001 226.7491,-148.5001"/>
</g>
<!-- Node3292 -->
<g id="node7" class="node">
<title>Node3292</title>
<g id="a_node7"><a xlink:href="dd/ddc/classo2_1_1soa_1_1Filtered.html" target="_top" xlink:title="o2::soa::Filtered\&lt; T \&gt;">
<polygon fill="none" stroke="#000000" points="281,-.5 281,-19.5 403,-19.5 403,-.5 281,-.5"/>
<text text-anchor="middle" x="342" y="-7.5" font-family="Helvetica,sans-Serif" font-size="10.00" fill="#000000">o2::soa::Filtered&lt; T &gt;</text>
</a>
</g>
</g>
<!-- Node3291&#45;&gt;Node3292 -->
<g id="edge6" class="edge">
<title>Node3291&#45;&gt;Node3292</title>
<path fill="none" stroke="#191970" d="M241.241,-10C254.6295,-10 268.2177,-10 280.8986,-10"/>
<polygon fill="#191970" stroke="#191970" points="241.0601,-6.5001 231.0601,-10 241.06,-13.5001 241.0601,-6.5001"/>
</g>
</g>
</svg>
