<?xml version="1.0" encoding="UTF-8" standalone="no"?>
<!DOCTYPE svg PUBLIC "-//W3C//DTD SVG 1.1//EN"
 "http://www.w3.org/Graphics/SVG/1.1/DTD/svg11.dtd">
<!-- Generated by graphviz version 2.40.1 (20161225.0304)
 -->
<!-- Title: Graphical Class Hierarchy Pages: 1 -->
<svg width="563pt" height="39pt"
 viewBox="0.00 0.00 563.00 39.00" xmlns="http://www.w3.org/2000/svg" xmlns:xlink="http://www.w3.org/1999/xlink">
<g id="graph0" class="graph" transform="scale(1 1) rotate(0) translate(4 35)">
<title>Graphical Class Hierarchy</title>
<!-- Node0 -->
<g id="node1" class="node">
<title>Node0</title>
<g id="a_node1"><a xlink:href="da/d2f/structo2_1_1framework_1_1ConfigurableBase.html" target="_top" xlink:title="o2::framework::Configurable\lBase\&lt; configurableCut \&gt;">
<polygon fill="none" stroke="#000000" points="0,-.5 0,-30.5 155,-30.5 155,-.5 0,-.5"/>
<text text-anchor="start" x="8" y="-18.5" font-family="Helvetica,sans-Serif" font-size="10.00" fill="#000000">o2::framework::Configurable</text>
<text text-anchor="middle" x="77.5" y="-7.5" font-family="Helvetica,sans-Serif" font-size="10.00" fill="#000000">Base&lt; configurableCut &gt;</text>
</a>
</g>
</g>
<!-- Node1 -->
<g id="node2" class="node">
<title>Node1</title>
<g id="a_node2"><a xlink:href="da/def/structo2_1_1framework_1_1ConfigurablePolicyConst.html" target="_top" xlink:title="o2::framework::Configurable\lPolicyConst\&lt; configurableCut \&gt;">
<polygon fill="none" stroke="#000000" points="191,-.5 191,-30.5 364,-30.5 364,-.5 191,-.5"/>
<text text-anchor="start" x="199" y="-18.5" font-family="Helvetica,sans-Serif" font-size="10.00" fill="#000000">o2::framework::Configurable</text>
<text text-anchor="middle" x="277.5" y="-7.5" font-family="Helvetica,sans-Serif" font-size="10.00" fill="#000000">PolicyConst&lt; configurableCut &gt;</text>
</a>
</g>
</g>
<!-- Node0&#45;&gt;Node1 -->
<g id="edge1" class="edge">
<title>Node0&#45;&gt;Node1</title>
<path fill="none" stroke="#191970" d="M165.1122,-15.5C173.6929,-15.5 182.3971,-15.5 190.967,-15.5"/>
<polygon fill="#191970" stroke="#191970" points="165.1115,-12.0001 155.1115,-15.5 165.1114,-19.0001 165.1115,-12.0001"/>
</g>
<!-- Node2 -->
<g id="node3" class="node">
<title>Node2</title>
<g id="a_node3"><a xlink:href="d8/d71/structo2_1_1framework_1_1Configurable.html" target="_top" xlink:title="o2::framework::Configurable\l\&lt; configurableCut \&gt;">
<polygon fill="none" stroke="#000000" points="400,-.5 400,-30.5 555,-30.5 555,-.5 400,-.5"/>
<text text-anchor="start" x="408" y="-18.5" font-family="Helvetica,sans-Serif" font-size="10.00" fill="#000000">o2::framework::Configurable</text>
<text text-anchor="middle" x="477.5" y="-7.5" font-family="Helvetica,sans-Serif" font-size="10.00" fill="#000000">&lt; configurableCut &gt;</text>
</a>
</g>
</g>
<!-- Node1&#45;&gt;Node2 -->
<g id="edge2" class="edge">
<title>Node1&#45;&gt;Node2</title>
<path fill="none" stroke="#191970" d="M374.1714,-15.5C382.8113,-15.5 391.4843,-15.5 399.9321,-15.5"/>
<polygon fill="#191970" stroke="#191970" points="374.0597,-12.0001 364.0597,-15.5 374.0597,-19.0001 374.0597,-12.0001"/>
</g>
</g>
</svg>
