<?xml version="1.0" encoding="UTF-8" standalone="no"?>
<!DOCTYPE svg PUBLIC "-//W3C//DTD SVG 1.1//EN"
 "http://www.w3.org/Graphics/SVG/1.1/DTD/svg11.dtd">
<!-- Generated by graphviz version 2.40.1 (20161225.0304)
 -->
<!-- Title: Graphical Class Hierarchy Pages: 1 -->
<svg width="481pt" height="764pt"
 viewBox="0.00 0.00 481.00 764.00" xmlns="http://www.w3.org/2000/svg" xmlns:xlink="http://www.w3.org/1999/xlink">
<g id="graph0" class="graph" transform="scale(1 1) rotate(0) translate(4 760)">
<title>Graphical Class Hierarchy</title>
<!-- Node3258 -->
<g id="node1" class="node">
<title>Node3258</title>
<polygon fill="none" stroke="#bfbfbf" points="0,-398.5 0,-417.5 58,-417.5 58,-398.5 0,-398.5"/>
<text text-anchor="middle" x="29" y="-405.5" font-family="Helvetica,sans-Serif" font-size="10.00" fill="#000000">TNamed</text>
</g>
<!-- Node0 -->
<g id="node2" class="node">
<title>Node0</title>
<g id="a_node2"><a xlink:href="dc/def/classAliTPCPoissonSolver.html" target="_top" xlink:title="AliTPCPoissonSolver">
<polygon fill="none" stroke="#000000" points="123.5,-736.5 123.5,-755.5 239.5,-755.5 239.5,-736.5 123.5,-736.5"/>
<text text-anchor="middle" x="181.5" y="-743.5" font-family="Helvetica,sans-Serif" font-size="10.00" fill="#000000">AliTPCPoissonSolver</text>
</a>
</g>
</g>
<!-- Node3258&#45;&gt;Node0 -->
<g id="edge1" class="edge">
<title>Node3258&#45;&gt;Node0</title>
<path fill="none" stroke="#191970" d="M30.2623,-427.7308C34.6845,-490.5093 51.5713,-684.0242 94,-727 101.8633,-734.9648 112.2249,-739.9523 123.0575,-743.0072"/>
<polygon fill="#191970" stroke="#191970" points="33.7438,-427.3375 29.5783,-417.5959 26.7597,-427.8089 33.7438,-427.3375"/>
</g>
<!-- Node3260 -->
<g id="node3" class="node">
<title>Node3260</title>
<g id="a_node3"><a xlink:href="de/df4/classAnalysisCut.html" target="_top" xlink:title="AnalysisCut">
<polygon fill="none" stroke="#000000" points="144.5,-698.5 144.5,-717.5 218.5,-717.5 218.5,-698.5 144.5,-698.5"/>
<text text-anchor="middle" x="181.5" y="-705.5" font-family="Helvetica,sans-Serif" font-size="10.00" fill="#000000">AnalysisCut</text>
</a>
</g>
</g>
<!-- Node3258&#45;&gt;Node3260 -->
<g id="edge2" class="edge">
<title>Node3258&#45;&gt;Node3260</title>
<path fill="none" stroke="#191970" d="M30.8385,-427.6074C36.6342,-485.1618 56.4057,-651.9096 94,-689 107.1684,-701.9919 127.0013,-707.0109 144.4573,-708.662"/>
<polygon fill="#191970" stroke="#191970" points="34.3189,-427.2361 29.8645,-417.6231 27.352,-427.9157 34.3189,-427.2361"/>
</g>
<!-- Node3262 -->
<g id="node5" class="node">
<title>Node3262</title>
<g id="a_node5"><a xlink:href="d8/d8f/classCorrelationContainer.html" target="_top" xlink:title="CorrelationContainer">
<polygon fill="none" stroke="#000000" points="122.5,-660.5 122.5,-679.5 240.5,-679.5 240.5,-660.5 122.5,-660.5"/>
<text text-anchor="middle" x="181.5" y="-667.5" font-family="Helvetica,sans-Serif" font-size="10.00" fill="#000000">CorrelationContainer</text>
</a>
</g>
</g>
<!-- Node3258&#45;&gt;Node3262 -->
<g id="edge4" class="edge">
<title>Node3258&#45;&gt;Node3262</title>
<path fill="none" stroke="#191970" d="M31.6064,-427.6522C38.9166,-479.7887 61.2428,-619.7644 94,-651 101.7626,-658.402 111.6973,-663.1942 122.0693,-666.2456"/>
<polygon fill="#191970" stroke="#191970" points="35.0643,-427.1056 30.2416,-417.6721 28.1289,-428.0541 35.0643,-427.1056"/>
</g>
<!-- Node3263 -->
<g id="node6" class="node">
<title>Node3263</title>
<g id="a_node6"><a xlink:href="d7/d2c/classHistogramManager.html" target="_top" xlink:title="HistogramManager">
<polygon fill="none" stroke="#000000" points="126.5,-622.5 126.5,-641.5 236.5,-641.5 236.5,-622.5 126.5,-622.5"/>
<text text-anchor="middle" x="181.5" y="-629.5" font-family="Helvetica,sans-Serif" font-size="10.00" fill="#000000">HistogramManager</text>
</a>
</g>
</g>
<!-- Node3258&#45;&gt;Node3263 -->
<g id="edge5" class="edge">
<title>Node3258&#45;&gt;Node3263</title>
<path fill="none" stroke="#191970" d="M32.631,-427.5903C41.5805,-473.7761 66.014,-587.5084 94,-613 102.9639,-621.1649 114.5884,-626.1182 126.4201,-629.059"/>
<polygon fill="#191970" stroke="#191970" points="36.044,-426.8024 30.7398,-417.6309 29.1669,-428.1083 36.044,-426.8024"/>
</g>
<!-- Node3264 -->
<g id="node7" class="node">
<title>Node3264</title>
<g id="a_node7"><a xlink:href="db/dee/classo2_1_1analysis_1_1SimpleInclusiveCut.html" target="_top" xlink:title="o2::analysis::SimpleInclusiveCut">
<polygon fill="none" stroke="#000000" points="94,-584.5 94,-603.5 269,-603.5 269,-584.5 94,-584.5"/>
<text text-anchor="middle" x="181.5" y="-591.5" font-family="Helvetica,sans-Serif" font-size="10.00" fill="#000000">o2::analysis::SimpleInclusiveCut</text>
</a>
</g>
</g>
<!-- Node3258&#45;&gt;Node3264 -->
<g id="edge6" class="edge">
<title>Node3258&#45;&gt;Node3264</title>
<path fill="none" stroke="#191970" d="M30.7431,-427.7034C34.9573,-462.9125 48.9519,-536.5361 94,-575 98.4923,-578.8357 103.5789,-581.9514 108.9844,-584.4762"/>
<polygon fill="#191970" stroke="#191970" points="34.2193,-427.2935 29.6915,-417.7149 27.2578,-428.0265 34.2193,-427.2935"/>
</g>
<!-- Node3265 -->
<g id="node8" class="node">
<title>Node3265</title>
<g id="a_node8"><a xlink:href="d2/d97/classo2_1_1cpv_1_1GeometryParams.html" target="_top" xlink:title="o2::cpv::GeometryParams">
<polygon fill="none" stroke="#000000" points="110.5,-546.5 110.5,-565.5 252.5,-565.5 252.5,-546.5 110.5,-546.5"/>
<text text-anchor="middle" x="181.5" y="-553.5" font-family="Helvetica,sans-Serif" font-size="10.00" fill="#000000">o2::cpv::GeometryParams</text>
</a>
</g>
</g>
<!-- Node3258&#45;&gt;Node3265 -->
<g id="edge7" class="edge">
<title>Node3258&#45;&gt;Node3265</title>
<path fill="none" stroke="#191970" d="M33.2298,-427.5837C40.4831,-456.243 58.1161,-509.2113 94,-537 98.9162,-540.8071 104.4323,-543.8884 110.2409,-546.3777"/>
<polygon fill="#191970" stroke="#191970" points="36.5711,-426.5028 30.8717,-417.5716 29.7575,-428.1076 36.5711,-426.5028"/>
</g>
<!-- Node3266 -->
<g id="node9" class="node">
<title>Node3266</title>
<g id="a_node9"><a xlink:href="dc/d50/classo2_1_1detectors_1_1AlignParam.html" target="_top" xlink:title="o2::detectors::AlignParam">
<polygon fill="none" stroke="#000000" points="110.5,-508.5 110.5,-527.5 252.5,-527.5 252.5,-508.5 110.5,-508.5"/>
<text text-anchor="middle" x="181.5" y="-515.5" font-family="Helvetica,sans-Serif" font-size="10.00" fill="#000000">o2::detectors::AlignParam</text>
</a>
</g>
</g>
<!-- Node3258&#45;&gt;Node3266 -->
<g id="edge8" class="edge">
<title>Node3258&#45;&gt;Node3266</title>
<path fill="none" stroke="#191970" d="M37.3382,-426.9905C47.5742,-447.9909 66.9639,-481.2022 94,-499 99.8429,-502.8463 106.3353,-505.9275 113.0683,-508.3937"/>
<polygon fill="#191970" stroke="#191970" points="40.4464,-425.3739 33.0551,-417.7831 34.0995,-428.3264 40.4464,-425.3739"/>
</g>
<!-- Node3267 -->
<g id="node10" class="node">
<title>Node3267</title>
<g id="a_node10"><a xlink:href="db/d53/classo2_1_1field_1_1MagneticWrapperChebyshev.html" target="_top" xlink:title="o2::field::MagneticWrapper\lChebyshev">
<polygon fill="none" stroke="#000000" points="108.5,-459 108.5,-489 254.5,-489 254.5,-459 108.5,-459"/>
<text text-anchor="start" x="116.5" y="-477" font-family="Helvetica,sans-Serif" font-size="10.00" fill="#000000">o2::field::MagneticWrapper</text>
<text text-anchor="middle" x="181.5" y="-466" font-family="Helvetica,sans-Serif" font-size="10.00" fill="#000000">Chebyshev</text>
</a>
</g>
</g>
<!-- Node3258&#45;&gt;Node3267 -->
<g id="edge9" class="edge">
<title>Node3258&#45;&gt;Node3267</title>
<path fill="none" stroke="#191970" d="M50.0568,-423.4428C62.3782,-431.9157 78.5146,-442.075 94,-449 102.365,-452.7408 111.431,-456.0698 120.4511,-458.9816"/>
<polygon fill="#191970" stroke="#191970" points="52.0137,-420.5401 41.8231,-417.6415 47.9819,-426.2624 52.0137,-420.5401"/>
</g>
<!-- Node3268 -->
<g id="node11" class="node">
<title>Node3268</title>
<g id="a_node11"><a xlink:href="da/dd1/classo2_1_1math__utils_1_1Chebyshev3D.html" target="_top" xlink:title="o2::math_utils::Chebyshev3D">
<polygon fill="none" stroke="#000000" points="101.5,-420.5 101.5,-439.5 261.5,-439.5 261.5,-420.5 101.5,-420.5"/>
<text text-anchor="middle" x="181.5" y="-427.5" font-family="Helvetica,sans-Serif" font-size="10.00" fill="#000000">o2::math_utils::Chebyshev3D</text>
</a>
</g>
</g>
<!-- Node3258&#45;&gt;Node3268 -->
<g id="edge10" class="edge">
<title>Node3258&#45;&gt;Node3268</title>
<path fill="none" stroke="#191970" d="M68.1157,-413.6429C82.5801,-415.7296 99.4032,-418.1565 115.5926,-420.492"/>
<polygon fill="#191970" stroke="#191970" points="68.4404,-410.1536 58.043,-412.1898 67.4408,-417.0819 68.4404,-410.1536"/>
</g>
<!-- Node3269 -->
<g id="node12" class="node">
<title>Node3269</title>
<g id="a_node12"><a xlink:href="df/d49/classo2_1_1math__utils_1_1Chebyshev3DCalc.html" target="_top" xlink:title="o2::math_utils::Chebyshev3\lDCalc">
<polygon fill="none" stroke="#000000" points="105.5,-371 105.5,-401 257.5,-401 257.5,-371 105.5,-371"/>
<text text-anchor="start" x="113.5" y="-389" font-family="Helvetica,sans-Serif" font-size="10.00" fill="#000000">o2::math_utils::Chebyshev3</text>
<text text-anchor="middle" x="181.5" y="-378" font-family="Helvetica,sans-Serif" font-size="10.00" fill="#000000">DCalc</text>
</a>
</g>
</g>
<!-- Node3258&#45;&gt;Node3269 -->
<g id="edge11" class="edge">
<title>Node3258&#45;&gt;Node3269</title>
<path fill="none" stroke="#191970" d="M68.0823,-402.3619C79.5115,-400.7131 92.4156,-398.8515 105.3172,-396.9903"/>
<polygon fill="#191970" stroke="#191970" points="67.4408,-398.9181 58.043,-403.8102 68.4404,-405.8464 67.4408,-398.9181"/>
</g>
<!-- Node3270 -->
<g id="node13" class="node">
<title>Node3270</title>
<g id="a_node13"><a xlink:href="d8/db1/classo2_1_1mft_1_1Geometry.html" target="_top" xlink:title="o2::mft::Geometry">
<polygon fill="none" stroke="#000000" points="128,-332.5 128,-351.5 235,-351.5 235,-332.5 128,-332.5"/>
<text text-anchor="middle" x="181.5" y="-339.5" font-family="Helvetica,sans-Serif" font-size="10.00" fill="#000000">o2::mft::Geometry</text>
</a>
</g>
</g>
<!-- Node3258&#45;&gt;Node3270 -->
<g id="edge12" class="edge">
<title>Node3258&#45;&gt;Node3270</title>
<path fill="none" stroke="#191970" d="M47.4513,-391.9608C59.8485,-381.968 76.9767,-369.6081 94,-362 104.5277,-357.295 116.2803,-353.6389 127.67,-350.8185"/>
<polygon fill="#191970" stroke="#191970" points="45.1395,-389.3311 39.6838,-398.4133 49.6125,-394.7156 45.1395,-389.3311"/>
</g>
<!-- Node3271 -->
<g id="node14" class="node">
<title>Node3271</title>
<g id="a_node14"><a xlink:href="d6/daf/classo2_1_1mft_1_1HalfDetector.html" target="_top" xlink:title="o2::mft::HalfDetector">
<polygon fill="none" stroke="#000000" points="121.5,-294.5 121.5,-313.5 241.5,-313.5 241.5,-294.5 121.5,-294.5"/>
<text text-anchor="middle" x="181.5" y="-301.5" font-family="Helvetica,sans-Serif" font-size="10.00" fill="#000000">o2::mft::HalfDetector</text>
</a>
</g>
</g>
<!-- Node3258&#45;&gt;Node3271 -->
<g id="edge13" class="edge">
<title>Node3258&#45;&gt;Node3271</title>
<path fill="none" stroke="#191970" d="M38.1377,-389.3758C48.7804,-369.7173 68.2435,-339.36 94,-323 102.2667,-317.7492 111.7638,-313.932 121.3851,-311.161"/>
<polygon fill="#191970" stroke="#191970" points="35.0043,-387.8154 33.511,-398.3045 41.2195,-391.0361 35.0043,-387.8154"/>
</g>
<!-- Node3272 -->
<g id="node15" class="node">
<title>Node3272</title>
<g id="a_node15"><a xlink:href="d6/d53/classo2_1_1mft_1_1HalfDisk.html" target="_top" xlink:title="o2::mft::HalfDisk">
<polygon fill="none" stroke="#000000" points="131.5,-256.5 131.5,-275.5 231.5,-275.5 231.5,-256.5 131.5,-256.5"/>
<text text-anchor="middle" x="181.5" y="-263.5" font-family="Helvetica,sans-Serif" font-size="10.00" fill="#000000">o2::mft::HalfDisk</text>
</a>
</g>
</g>
<!-- Node3258&#45;&gt;Node3272 -->
<g id="edge14" class="edge">
<title>Node3258&#45;&gt;Node3272</title>
<path fill="none" stroke="#191970" d="M33.7302,-388.5021C41.4624,-360.9762 59.5223,-311.1685 94,-285 104.6488,-276.9176 118.0176,-272.1213 131.0773,-269.3155"/>
<polygon fill="#191970" stroke="#191970" points="30.344,-387.6169 31.1826,-398.1785 37.1134,-389.3991 30.344,-387.6169"/>
</g>
<!-- Node3273 -->
<g id="node16" class="node">
<title>Node3273</title>
<g id="a_node16"><a xlink:href="d6/d35/classo2_1_1mft_1_1Ladder.html" target="_top" xlink:title="o2::mft::Ladder">
<polygon fill="none" stroke="#000000" points="136,-218.5 136,-237.5 227,-237.5 227,-218.5 136,-218.5"/>
<text text-anchor="middle" x="181.5" y="-225.5" font-family="Helvetica,sans-Serif" font-size="10.00" fill="#000000">o2::mft::Ladder</text>
</a>
</g>
</g>
<!-- Node3258&#45;&gt;Node3273 -->
<g id="edge15" class="edge">
<title>Node3258&#45;&gt;Node3273</title>
<path fill="none" stroke="#191970" d="M31.1003,-388.0557C35.8227,-353.7321 50.5184,-283.6577 94,-247 105.6472,-237.1807 121.1998,-232.0949 135.9608,-229.5575"/>
<polygon fill="#191970" stroke="#191970" points="27.5965,-387.8739 29.854,-398.2254 34.5445,-388.7254 27.5965,-387.8739"/>
</g>
<!-- Node3274 -->
<g id="node17" class="node">
<title>Node3274</title>
<g id="a_node17"><a xlink:href="d5/db8/classo2_1_1mft_1_1VSegmentation.html" target="_top" xlink:title="o2::mft::VSegmentation">
<polygon fill="none" stroke="#000000" points="115,-180.5 115,-199.5 248,-199.5 248,-180.5 115,-180.5"/>
<text text-anchor="middle" x="181.5" y="-187.5" font-family="Helvetica,sans-Serif" font-size="10.00" fill="#000000">o2::mft::VSegmentation</text>
</a>
</g>
</g>
<!-- Node3258&#45;&gt;Node3274 -->
<g id="edge16" class="edge">
<title>Node3258&#45;&gt;Node3274</title>
<path fill="none" stroke="#191970" d="M32.8346,-388.3826C42.0626,-343.1612 66.77,-233.588 94,-209 99.9995,-203.5826 107.1719,-199.5822 114.7932,-196.6465"/>
<polygon fill="#191970" stroke="#191970" points="29.3599,-387.9098 30.8299,-398.4022 36.2238,-389.2832 29.3599,-387.9098"/>
</g>
<!-- Node3279 -->
<g id="node22" class="node">
<title>Node3279</title>
<g id="a_node22"><a xlink:href="d4/d4b/classo2_1_1phos_1_1GeometryParams.html" target="_top" xlink:title="o2::phos::GeometryParams">
<polygon fill="none" stroke="#000000" points="107,-142.5 107,-161.5 256,-161.5 256,-142.5 107,-142.5"/>
<text text-anchor="middle" x="181.5" y="-149.5" font-family="Helvetica,sans-Serif" font-size="10.00" fill="#000000">o2::phos::GeometryParams</text>
</a>
</g>
</g>
<!-- Node3258&#45;&gt;Node3279 -->
<g id="edge21" class="edge">
<title>Node3258&#45;&gt;Node3279</title>
<path fill="none" stroke="#191970" d="M31.7762,-388.1608C39.3645,-336.7823 62.0402,-201.2834 94,-171 97.9494,-167.2578 102.4544,-164.1837 107.2893,-161.665"/>
<polygon fill="#191970" stroke="#191970" points="28.2784,-387.8957 30.3159,-398.2927 35.2068,-388.8943 28.2784,-387.8957"/>
</g>
<!-- Node3280 -->
<g id="node23" class="node">
<title>Node3280</title>
<g id="a_node23"><a xlink:href="de/dbd/classo2_1_1pid_1_1Parametrization.html" target="_top" xlink:title="Class to handle the parameters and the parametrization of a given detector response. ">
<polygon fill="none" stroke="#000000" points="115,-85.5 115,-104.5 248,-104.5 248,-85.5 115,-85.5"/>
<text text-anchor="middle" x="181.5" y="-92.5" font-family="Helvetica,sans-Serif" font-size="10.00" fill="#000000">o2::pid::Parametrization</text>
</a>
</g>
</g>
<!-- Node3258&#45;&gt;Node3280 -->
<g id="edge22" class="edge">
<title>Node3258&#45;&gt;Node3280</title>
<path fill="none" stroke="#191970" d="M31.3375,-388.4051C38.3767,-332.2963 60.9449,-172.5166 94,-133 105.5825,-119.1534 123.1646,-110.209 139.5375,-104.5026"/>
<polygon fill="#191970" stroke="#191970" points="27.8487,-388.1006 30.1054,-398.4523 34.7966,-388.9527 27.8487,-388.1006"/>
</g>
<!-- Node3284 -->
<g id="node27" class="node">
<title>Node3284</title>
<g id="a_node27"><a xlink:href="d7/ddd/classStepTHn.html" target="_top" xlink:title="StepTHn">
<polygon fill="none" stroke="#000000" points="152.5,-28.5 152.5,-47.5 210.5,-47.5 210.5,-28.5 152.5,-28.5"/>
<text text-anchor="middle" x="181.5" y="-35.5" font-family="Helvetica,sans-Serif" font-size="10.00" fill="#000000">StepTHn</text>
</a>
</g>
</g>
<!-- Node3258&#45;&gt;Node3284 -->
<g id="edge26" class="edge">
<title>Node3258&#45;&gt;Node3284</title>
<path fill="none" stroke="#191970" d="M30.4844,-388.2059C35.6318,-324.3344 54.594,-125.0088 94,-76 108.4253,-58.0594 132.982,-48.3982 152.4151,-43.3147"/>
<polygon fill="#191970" stroke="#191970" points="26.9945,-387.9418 29.7052,-398.184 33.9733,-388.4868 26.9945,-387.9418"/>
</g>
<!-- Node3261 -->
<g id="node4" class="node">
<title>Node3261</title>
<g id="a_node4"><a xlink:href="db/d7a/classAnalysisCompositeCut.html" target="_top" xlink:title="AnalysisCompositeCut">
<polygon fill="none" stroke="#000000" points="325.5,-698.5 325.5,-717.5 452.5,-717.5 452.5,-698.5 325.5,-698.5"/>
<text text-anchor="middle" x="389" y="-705.5" font-family="Helvetica,sans-Serif" font-size="10.00" fill="#000000">AnalysisCompositeCut</text>
</a>
</g>
</g>
<!-- Node3260&#45;&gt;Node3261 -->
<g id="edge3" class="edge">
<title>Node3260&#45;&gt;Node3261</title>
<path fill="none" stroke="#191970" d="M228.7372,-708C257.3444,-708 294.2009,-708 325.3551,-708"/>
<polygon fill="#191970" stroke="#191970" points="228.5969,-704.5001 218.5968,-708 228.5968,-711.5001 228.5969,-704.5001"/>
</g>
<!-- Node3275 -->
<g id="node18" class="node">
<title>Node3275</title>
<g id="a_node18"><a xlink:href="d1/d8e/classo2_1_1mft_1_1ChipSegmentation.html" target="_top" xlink:title="o2::mft::ChipSegmentation">
<polygon fill="none" stroke="#000000" points="315,-266.5 315,-285.5 463,-285.5 463,-266.5 315,-266.5"/>
<text text-anchor="middle" x="389" y="-273.5" font-family="Helvetica,sans-Serif" font-size="10.00" fill="#000000">o2::mft::ChipSegmentation</text>
</a>
</g>
</g>
<!-- Node3274&#45;&gt;Node3275 -->
<g id="edge17" class="edge">
<title>Node3274&#45;&gt;Node3275</title>
<path fill="none" stroke="#191970" d="M257.5618,-202.8588C261.5504,-204.6498 265.3941,-206.6859 269,-209 291.4426,-223.4027 282.6197,-242.5006 305,-257 311.0232,-260.9022 317.7409,-264.0091 324.6808,-266.4817"/>
<polygon fill="#191970" stroke="#191970" points="258.6232,-199.5152 248.0361,-199.1087 256.0589,-206.0286 258.6232,-199.5152"/>
</g>
<!-- Node3276 -->
<g id="node19" class="node">
<title>Node3276</title>
<g id="a_node19"><a xlink:href="d2/ddf/classo2_1_1mft_1_1HalfDiskSegmentation.html" target="_top" xlink:title="o2::mft::HalfDiskSegmentation">
<polygon fill="none" stroke="#000000" points="305,-228.5 305,-247.5 473,-247.5 473,-228.5 305,-228.5"/>
<text text-anchor="middle" x="389" y="-235.5" font-family="Helvetica,sans-Serif" font-size="10.00" fill="#000000">o2::mft::HalfDiskSegmentation</text>
</a>
</g>
</g>
<!-- Node3274&#45;&gt;Node3276 -->
<g id="edge18" class="edge">
<title>Node3274&#45;&gt;Node3276</title>
<path fill="none" stroke="#191970" d="M237.7703,-201.7217C248.1783,-204.0307 258.9365,-206.5118 269,-209 285.1204,-212.9857 288.8969,-214.9448 305,-219 317.9042,-222.2496 331.9886,-225.5362 344.8729,-228.4412"/>
<polygon fill="#191970" stroke="#191970" points="238.4504,-198.2877 227.933,-199.5661 236.952,-205.1255 238.4504,-198.2877"/>
</g>
<!-- Node3277 -->
<g id="node20" class="node">
<title>Node3277</title>
<g id="a_node20"><a xlink:href="d2/da0/classo2_1_1mft_1_1HalfSegmentation.html" target="_top" xlink:title="o2::mft::HalfSegmentation">
<polygon fill="none" stroke="#000000" points="316,-190.5 316,-209.5 462,-209.5 462,-190.5 316,-190.5"/>
<text text-anchor="middle" x="389" y="-197.5" font-family="Helvetica,sans-Serif" font-size="10.00" fill="#000000">o2::mft::HalfSegmentation</text>
</a>
</g>
</g>
<!-- Node3274&#45;&gt;Node3277 -->
<g id="edge19" class="edge">
<title>Node3274&#45;&gt;Node3277</title>
<path fill="none" stroke="#191970" d="M258.0273,-193.6881C276.8665,-194.596 296.9943,-195.566 315.6779,-196.4664"/>
<polygon fill="#191970" stroke="#191970" points="258.1674,-190.1908 248.0105,-193.2053 257.8304,-197.1827 258.1674,-190.1908"/>
</g>
<!-- Node3278 -->
<g id="node21" class="node">
<title>Node3278</title>
<g id="a_node21"><a xlink:href="df/dc2/classo2_1_1mft_1_1LadderSegmentation.html" target="_top" xlink:title="o2::mft::LadderSegmentation">
<polygon fill="none" stroke="#000000" points="309.5,-152.5 309.5,-171.5 468.5,-171.5 468.5,-152.5 309.5,-152.5"/>
<text text-anchor="middle" x="389" y="-159.5" font-family="Helvetica,sans-Serif" font-size="10.00" fill="#000000">o2::mft::LadderSegmentation</text>
</a>
</g>
</g>
<!-- Node3274&#45;&gt;Node3278 -->
<g id="edge20" class="edge">
<title>Node3274&#45;&gt;Node3278</title>
<path fill="none" stroke="#191970" d="M257.93,-179.6866C277.7739,-177.0088 299.0534,-174.1374 318.5724,-171.5035"/>
<polygon fill="#191970" stroke="#191970" points="257.4526,-176.2192 248.0105,-181.0251 258.3888,-183.1563 257.4526,-176.2192"/>
</g>
<!-- Node3281 -->
<g id="node24" class="node">
<title>Node3281</title>
<g id="a_node24"><a xlink:href="df/d86/classo2_1_1pid_1_1tof_1_1TOFReso.html" target="_top" xlink:title="o2::pid::tof::TOFReso">
<polygon fill="none" stroke="#000000" points="330.5,-114.5 330.5,-133.5 447.5,-133.5 447.5,-114.5 330.5,-114.5"/>
<text text-anchor="middle" x="389" y="-121.5" font-family="Helvetica,sans-Serif" font-size="10.00" fill="#000000">o2::pid::tof::TOFReso</text>
</a>
</g>
</g>
<!-- Node3280&#45;&gt;Node3281 -->
<g id="edge23" class="edge">
<title>Node3280&#45;&gt;Node3281</title>
<path fill="none" stroke="#191970" d="M258.0817,-105.703C281.9126,-109.0336 307.8008,-112.6517 330.2167,-115.7845"/>
<polygon fill="#191970" stroke="#191970" points="258.3987,-102.2134 248.0105,-104.2954 257.4298,-109.146 258.3987,-102.2134"/>
</g>
<!-- Node3282 -->
<g id="node25" class="node">
<title>Node3282</title>
<g id="a_node25"><a xlink:href="d1/d03/classo2_1_1pid_1_1tpc_1_1BetheBloch.html" target="_top" xlink:title="o2::pid::tpc::BetheBloch">
<polygon fill="none" stroke="#000000" points="323,-76.5 323,-95.5 455,-95.5 455,-76.5 323,-76.5"/>
<text text-anchor="middle" x="389" y="-83.5" font-family="Helvetica,sans-Serif" font-size="10.00" fill="#000000">o2::pid::tpc::BetheBloch</text>
</a>
</g>
</g>
<!-- Node3280&#45;&gt;Node3282 -->
<g id="edge24" class="edge">
<title>Node3280&#45;&gt;Node3282</title>
<path fill="none" stroke="#191970" d="M258.2764,-91.6699C279.4876,-90.7499 302.3152,-89.7598 322.8655,-88.8685"/>
<polygon fill="#191970" stroke="#191970" points="257.8494,-88.1851 248.0105,-92.1152 258.1528,-95.1785 257.8494,-88.1851"/>
</g>
<!-- Node3283 -->
<g id="node26" class="node">
<title>Node3283</title>
<g id="a_node26"><a xlink:href="d9/d25/classo2_1_1pid_1_1tpc_1_1TPCReso.html" target="_top" xlink:title="o2::pid::tpc::TPCReso">
<polygon fill="none" stroke="#000000" points="329.5,-38.5 329.5,-57.5 448.5,-57.5 448.5,-38.5 329.5,-38.5"/>
<text text-anchor="middle" x="389" y="-45.5" font-family="Helvetica,sans-Serif" font-size="10.00" fill="#000000">o2::pid::tpc::TPCReso</text>
</a>
</g>
</g>
<!-- Node3280&#45;&gt;Node3283 -->
<g id="edge25" class="edge">
<title>Node3280&#45;&gt;Node3283</title>
<path fill="none" stroke="#191970" d="M233.3562,-83.237C255.4376,-78.2297 281.4781,-72.3267 305,-67 318.5617,-63.9289 333.3558,-60.5816 346.697,-57.5642"/>
<polygon fill="#191970" stroke="#191970" points="232.4908,-79.8443 223.5125,-85.4694 234.039,-86.671 232.4908,-79.8443"/>
</g>
<!-- Node3285 -->
<g id="node28" class="node">
<title>Node3285</title>
<g id="a_node28"><a xlink:href="d2/d3f/classStepTHnT.html" target="_top" xlink:title="StepTHnT\&lt; TemplateArray \&gt;">
<polygon fill="none" stroke="#000000" points="310,-.5 310,-19.5 468,-19.5 468,-.5 310,-.5"/>
<text text-anchor="middle" x="389" y="-7.5" font-family="Helvetica,sans-Serif" font-size="10.00" fill="#000000">StepTHnT&lt; TemplateArray &gt;</text>
</a>
</g>
</g>
<!-- Node3284&#45;&gt;Node3285 -->
<g id="edge27" class="edge">
<title>Node3284&#45;&gt;Node3285</title>
<path fill="none" stroke="#191970" d="M220.7931,-32.6978C248.249,-28.9929 285.6788,-23.9421 318.2601,-19.5456"/>
<polygon fill="#191970" stroke="#191970" points="220.2317,-29.2417 210.7896,-34.0477 221.1678,-36.1789 220.2317,-29.2417"/>
</g>
</g>
</svg>
