<?xml version="1.0" encoding="UTF-8" standalone="no"?>
<!DOCTYPE svg PUBLIC "-//W3C//DTD SVG 1.1//EN"
 "http://www.w3.org/Graphics/SVG/1.1/DTD/svg11.dtd">
<!-- Generated by graphviz version 2.40.1 (20161225.0304)
 -->
<!-- Title: Graphical Class Hierarchy Pages: 1 -->
<svg width="285pt" height="294pt"
 viewBox="0.00 0.00 285.00 294.00" xmlns="http://www.w3.org/2000/svg" xmlns:xlink="http://www.w3.org/1999/xlink">
<g id="graph0" class="graph" transform="scale(1 1) rotate(0) translate(4 290)">
<title>Graphical Class Hierarchy</title>
<!-- Node0 -->
<g id="node1" class="node">
<title>Node0</title>
<g id="a_node1"><a xlink:href="d1/db7/classo2_1_1ctf_1_1CTFCoderBase.html" target="_top" xlink:title="o2::ctf::CTFCoderBase">
<polygon fill="none" stroke="#000000" points="0,-133.5 0,-152.5 124,-152.5 124,-133.5 0,-133.5"/>
<text text-anchor="middle" x="62" y="-140.5" font-family="Helvetica,sans-Serif" font-size="10.00" fill="#000000">o2::ctf::CTFCoderBase</text>
</a>
</g>
</g>
<!-- Node1 -->
<g id="node2" class="node">
<title>Node1</title>
<g id="a_node2"><a xlink:href="dd/d89/classo2_1_1emcal_1_1CTFCoder.html" target="_top" xlink:title="o2::emcal::CTFCoder">
<polygon fill="none" stroke="#000000" points="160,-266.5 160,-285.5 277,-285.5 277,-266.5 160,-266.5"/>
<text text-anchor="middle" x="218.5" y="-273.5" font-family="Helvetica,sans-Serif" font-size="10.00" fill="#000000">o2::emcal::CTFCoder</text>
</a>
</g>
</g>
<!-- Node0&#45;&gt;Node1 -->
<g id="edge1" class="edge">
<title>Node0&#45;&gt;Node1</title>
<path fill="none" stroke="#191970" d="M73.158,-161.4081C89.2941,-186.5288 121.472,-231.3491 160,-257 165.7777,-260.8466 172.3928,-263.9648 179.0475,-266.4764"/>
<polygon fill="#191970" stroke="#191970" points="76.0555,-159.4406 67.7793,-152.8259 70.1241,-163.158 76.0555,-159.4406"/>
</g>
<!-- Node2 -->
<g id="node3" class="node">
<title>Node2</title>
<g id="a_node3"><a xlink:href="dc/dd0/classo2_1_1fdd_1_1CTFCoder.html" target="_top" xlink:title="o2::fdd::CTFCoder">
<polygon fill="none" stroke="#000000" points="167,-228.5 167,-247.5 270,-247.5 270,-228.5 167,-228.5"/>
<text text-anchor="middle" x="218.5" y="-235.5" font-family="Helvetica,sans-Serif" font-size="10.00" fill="#000000">o2::fdd::CTFCoder</text>
</a>
</g>
</g>
<!-- Node0&#45;&gt;Node2 -->
<g id="edge2" class="edge">
<title>Node0&#45;&gt;Node2</title>
<path fill="none" stroke="#191970" d="M79.4587,-159.6079C98.108,-176.5748 129.1684,-202.68 160,-219 166.984,-222.6968 174.8185,-225.844 182.4282,-228.4504"/>
<polygon fill="#191970" stroke="#191970" points="81.752,-156.9614 72.0356,-152.7372 76.997,-162.0986 81.752,-156.9614"/>
</g>
<!-- Node3 -->
<g id="node4" class="node">
<title>Node3</title>
<g id="a_node4"><a xlink:href="d1/df2/classo2_1_1ft0_1_1CTFCoder.html" target="_top" xlink:title="o2::ft0::CTFCoder">
<polygon fill="none" stroke="#000000" points="168,-190.5 168,-209.5 269,-209.5 269,-190.5 168,-190.5"/>
<text text-anchor="middle" x="218.5" y="-197.5" font-family="Helvetica,sans-Serif" font-size="10.00" fill="#000000">o2::ft0::CTFCoder</text>
</a>
</g>
</g>
<!-- Node0&#45;&gt;Node3 -->
<g id="edge3" class="edge">
<title>Node0&#45;&gt;Node3</title>
<path fill="none" stroke="#191970" d="M94.9949,-156.3232C113.9223,-163.8328 138.1869,-173.2355 160,-181 169.0541,-184.2229 178.9725,-187.528 188.0283,-190.4592"/>
<polygon fill="#191970" stroke="#191970" points="96.2099,-153.0398 85.6248,-152.5875 93.6175,-159.5421 96.2099,-153.0398"/>
</g>
<!-- Node4 -->
<g id="node5" class="node">
<title>Node4</title>
<g id="a_node5"><a xlink:href="d5/ddc/classo2_1_1fv0_1_1CTFCoder.html" target="_top" xlink:title="o2::fv0::CTFCoder">
<polygon fill="none" stroke="#000000" points="167,-152.5 167,-171.5 270,-171.5 270,-152.5 167,-152.5"/>
<text text-anchor="middle" x="218.5" y="-159.5" font-family="Helvetica,sans-Serif" font-size="10.00" fill="#000000">o2::fv0::CTFCoder</text>
</a>
</g>
</g>
<!-- Node0&#45;&gt;Node4 -->
<g id="edge4" class="edge">
<title>Node0&#45;&gt;Node4</title>
<path fill="none" stroke="#191970" d="M134.3462,-151.7832C145.3581,-153.1201 156.5267,-154.4761 166.9732,-155.7444"/>
<polygon fill="#191970" stroke="#191970" points="134.6516,-148.2947 124.3026,-150.5639 133.8079,-155.2437 134.6516,-148.2947"/>
</g>
<!-- Node5 -->
<g id="node6" class="node">
<title>Node5</title>
<g id="a_node6"><a xlink:href="d0/d32/classo2_1_1itsmft_1_1CTFCoder.html" target="_top" xlink:title="o2::itsmft::CTFCoder">
<polygon fill="none" stroke="#000000" points="160.5,-114.5 160.5,-133.5 276.5,-133.5 276.5,-114.5 160.5,-114.5"/>
<text text-anchor="middle" x="218.5" y="-121.5" font-family="Helvetica,sans-Serif" font-size="10.00" fill="#000000">o2::itsmft::CTFCoder</text>
</a>
</g>
</g>
<!-- Node0&#45;&gt;Node5 -->
<g id="edge5" class="edge">
<title>Node0&#45;&gt;Node5</title>
<path fill="none" stroke="#191970" d="M134.4681,-134.202C143.1875,-133.1434 152.0031,-132.0731 160.4788,-131.0441"/>
<polygon fill="#191970" stroke="#191970" points="133.8079,-130.7563 124.3026,-135.4361 134.6516,-137.7053 133.8079,-130.7563"/>
</g>
<!-- Node6 -->
<g id="node7" class="node">
<title>Node6</title>
<g id="a_node7"><a xlink:href="df/d51/classo2_1_1mid_1_1CTFCoder.html" target="_top" xlink:title="o2::mid::CTFCoder">
<polygon fill="none" stroke="#000000" points="165.5,-76.5 165.5,-95.5 271.5,-95.5 271.5,-76.5 165.5,-76.5"/>
<text text-anchor="middle" x="218.5" y="-83.5" font-family="Helvetica,sans-Serif" font-size="10.00" fill="#000000">o2::mid::CTFCoder</text>
</a>
</g>
</g>
<!-- Node0&#45;&gt;Node6 -->
<g id="edge6" class="edge">
<title>Node0&#45;&gt;Node6</title>
<path fill="none" stroke="#191970" d="M94.9949,-129.6768C113.9223,-122.1672 138.1869,-112.7645 160,-105 169.0541,-101.7771 178.9725,-98.472 188.0283,-95.5408"/>
<polygon fill="#191970" stroke="#191970" points="93.6175,-126.4579 85.6248,-133.4125 96.2099,-132.9602 93.6175,-126.4579"/>
</g>
<!-- Node7 -->
<g id="node8" class="node">
<title>Node7</title>
<g id="a_node8"><a xlink:href="da/d9a/classo2_1_1tof_1_1CTFCoder.html" target="_top" xlink:title="o2::tof::CTFCoder">
<polygon fill="none" stroke="#000000" points="168,-38.5 168,-57.5 269,-57.5 269,-38.5 168,-38.5"/>
<text text-anchor="middle" x="218.5" y="-45.5" font-family="Helvetica,sans-Serif" font-size="10.00" fill="#000000">o2::tof::CTFCoder</text>
</a>
</g>
</g>
<!-- Node0&#45;&gt;Node7 -->
<g id="edge7" class="edge">
<title>Node0&#45;&gt;Node7</title>
<path fill="none" stroke="#191970" d="M79.4587,-126.3921C98.108,-109.4252 129.1684,-83.32 160,-67 166.984,-63.3032 174.8185,-60.156 182.4282,-57.5496"/>
<polygon fill="#191970" stroke="#191970" points="76.997,-123.9014 72.0356,-133.2628 81.752,-129.0386 76.997,-123.9014"/>
</g>
<!-- Node8 -->
<g id="node9" class="node">
<title>Node8</title>
<g id="a_node9"><a xlink:href="d4/d75/classo2_1_1tpc_1_1CTFCoder.html" target="_top" xlink:title="o2::tpc::CTFCoder">
<polygon fill="none" stroke="#000000" points="167.5,-.5 167.5,-19.5 269.5,-19.5 269.5,-.5 167.5,-.5"/>
<text text-anchor="middle" x="218.5" y="-7.5" font-family="Helvetica,sans-Serif" font-size="10.00" fill="#000000">o2::tpc::CTFCoder</text>
</a>
</g>
</g>
<!-- Node0&#45;&gt;Node8 -->
<g id="edge8" class="edge">
<title>Node0&#45;&gt;Node8</title>
<path fill="none" stroke="#191970" d="M73.158,-124.5919C89.2941,-99.4712 121.472,-54.6509 160,-29 165.7777,-25.1534 172.3928,-22.0352 179.0475,-19.5236"/>
<polygon fill="#191970" stroke="#191970" points="70.1241,-122.842 67.7793,-133.1741 76.0555,-126.5594 70.1241,-122.842"/>
</g>
</g>
</svg>
