<?xml version="1.0" encoding="UTF-8" standalone="no"?>
<!DOCTYPE svg PUBLIC "-//W3C//DTD SVG 1.1//EN"
 "http://www.w3.org/Graphics/SVG/1.1/DTD/svg11.dtd">
<!-- Generated by graphviz version 2.40.1 (20161225.0304)
 -->
<!-- Title: Graphical Class Hierarchy Pages: 1 -->
<svg width="519pt" height="196pt"
 viewBox="0.00 0.00 519.00 195.50" xmlns="http://www.w3.org/2000/svg" xmlns:xlink="http://www.w3.org/1999/xlink">
<g id="graph0" class="graph" transform="scale(1 1) rotate(0) translate(4 191.5)">
<title>Graphical Class Hierarchy</title>
<!-- Node2932 -->
<g id="node1" class="node">
<title>Node2932</title>
<polygon fill="none" stroke="#bfbfbf" points="42,-64.5 42,-83.5 71,-83.5 71,-64.5 42,-64.5"/>
<text text-anchor="middle" x="56.5" y="-71.5" font-family="Helvetica,sans-Serif" font-size="10.00" fill="#000000">C</text>
</g>
<!-- Node1418 -->
<g id="node2" class="node">
<title>Node1418</title>
<g id="a_node2"><a xlink:href="d7/d57/structo2_1_1soa_1_1RowViewCore.html" target="_top" xlink:title="o2::soa::RowViewCore\l\&lt; IP, C \&gt;">
<polygon fill="none" stroke="#000000" points="164,-108 164,-138 289,-138 289,-108 164,-108"/>
<text text-anchor="start" x="172" y="-126" font-family="Helvetica,sans-Serif" font-size="10.00" fill="#000000">o2::soa::RowViewCore</text>
<text text-anchor="middle" x="226.5" y="-115" font-family="Helvetica,sans-Serif" font-size="10.00" fill="#000000">&lt; IP, C &gt;</text>
</a>
</g>
</g>
<!-- Node2932&#45;&gt;Node1418 -->
<g id="edge1" class="edge">
<title>Node2932&#45;&gt;Node1418</title>
<path fill="none" stroke="#191970" d="M81.0898,-81.0877C105.3211,-88.072 143.1078,-98.9634 174.0882,-107.8931"/>
<polygon fill="#191970" stroke="#191970" points="81.8672,-77.6693 71.289,-78.2627 79.9284,-84.3955 81.8672,-77.6693"/>
</g>
<!-- Node1419 -->
<g id="node3" class="node">
<title>Node1419</title>
<g id="a_node3"><a xlink:href="d7/d57/structo2_1_1soa_1_1RowViewCore.html" target="_top" xlink:title="o2::soa::RowViewCore\l\&lt; IP, C... \&gt;">
<polygon fill="none" stroke="#000000" points="164,-59 164,-89 289,-89 289,-59 164,-59"/>
<text text-anchor="start" x="172" y="-77" font-family="Helvetica,sans-Serif" font-size="10.00" fill="#000000">o2::soa::RowViewCore</text>
<text text-anchor="middle" x="226.5" y="-66" font-family="Helvetica,sans-Serif" font-size="10.00" fill="#000000">&lt; IP, C... &gt;</text>
</a>
</g>
</g>
<!-- Node2932&#45;&gt;Node1419 -->
<g id="edge2" class="edge">
<title>Node2932&#45;&gt;Node1419</title>
<path fill="none" stroke="#191970" d="M81.531,-74C103.0871,-74 135.1316,-74 163.6153,-74"/>
<polygon fill="#191970" stroke="#191970" points="81.289,-70.5001 71.289,-74 81.289,-77.5001 81.289,-70.5001"/>
</g>
<!-- Node1 -->
<g id="node5" class="node">
<title>Node1</title>
<g id="a_node5"><a xlink:href="d7/d57/structo2_1_1soa_1_1RowViewCore.html" target="_top" xlink:title="o2::soa::RowViewCore\l\&lt; table_t, C... \&gt;">
<polygon fill="none" stroke="#000000" points="164,-9 164,-39 289,-39 289,-9 164,-9"/>
<text text-anchor="start" x="172" y="-27" font-family="Helvetica,sans-Serif" font-size="10.00" fill="#000000">o2::soa::RowViewCore</text>
<text text-anchor="middle" x="226.5" y="-16" font-family="Helvetica,sans-Serif" font-size="10.00" fill="#000000">&lt; table_t, C... &gt;</text>
</a>
</g>
</g>
<!-- Node2932&#45;&gt;Node1 -->
<g id="edge4" class="edge">
<title>Node2932&#45;&gt;Node1</title>
<path fill="none" stroke="#191970" d="M81.2048,-66.7339C105.7379,-59.5183 144.0847,-48.2398 175.2242,-39.0811"/>
<polygon fill="#191970" stroke="#191970" points="79.895,-63.4708 71.289,-69.6503 81.8703,-70.1863 79.895,-63.4708"/>
</g>
<!-- Node1420 -->
<g id="node4" class="node">
<title>Node1420</title>
<g id="a_node4"><a xlink:href="d5/d04/structo2_1_1soa_1_1Table_1_1RowViewBase.html" target="_top" xlink:title="o2::soa::Table\&lt; C \&gt;\l::RowViewBase\&lt; IP, Parent, T \&gt;">
<polygon fill="none" stroke="#000000" points="340,-61 340,-91 511,-91 511,-61 340,-61"/>
<text text-anchor="start" x="348" y="-79" font-family="Helvetica,sans-Serif" font-size="10.00" fill="#000000">o2::soa::Table&lt; C &gt;</text>
<text text-anchor="middle" x="425.5" y="-68" font-family="Helvetica,sans-Serif" font-size="10.00" fill="#000000">::RowViewBase&lt; IP, Parent, T &gt;</text>
</a>
</g>
</g>
<!-- Node1419&#45;&gt;Node1420 -->
<g id="edge3" class="edge">
<title>Node1419&#45;&gt;Node1420</title>
<path fill="none" stroke="#191970" d="M299.5368,-74.734C312.6365,-74.8657 326.3962,-75.004 339.814,-75.1388"/>
<polygon fill="#191970" stroke="#191970" points="299.2264,-71.2308 289.1917,-74.6301 299.156,-78.2305 299.2264,-71.2308"/>
</g>
<!-- Node2 -->
<g id="node6" class="node">
<title>Node2</title>
<g id="a_node6"><a xlink:href="d5/d04/structo2_1_1soa_1_1Table_1_1RowViewBase.html" target="_top" xlink:title="o2::soa::Table\&lt; C \&gt;\l::RowViewBase\&lt; table\l_t, table_t \&gt;">
<polygon fill="none" stroke="#000000" points="362,-.5 362,-41.5 489,-41.5 489,-.5 362,-.5"/>
<text text-anchor="start" x="370" y="-29.5" font-family="Helvetica,sans-Serif" font-size="10.00" fill="#000000">o2::soa::Table&lt; C &gt;</text>
<text text-anchor="start" x="370" y="-18.5" font-family="Helvetica,sans-Serif" font-size="10.00" fill="#000000">::RowViewBase&lt; table</text>
<text text-anchor="middle" x="425.5" y="-7.5" font-family="Helvetica,sans-Serif" font-size="10.00" fill="#000000">_t, table_t &gt;</text>
</a>
</g>
</g>
<!-- Node1&#45;&gt;Node2 -->
<g id="edge5" class="edge">
<title>Node1&#45;&gt;Node2</title>
<path fill="none" stroke="#191970" d="M299.3947,-22.9011C319.8343,-22.5929 341.8906,-22.2604 361.7542,-21.961"/>
<polygon fill="#191970" stroke="#191970" points="299.1378,-19.4045 289.1917,-23.0549 299.2434,-26.4037 299.1378,-19.4045"/>
</g>
<!-- Node1416 -->
<g id="node7" class="node">
<title>Node1416</title>
<polygon fill="none" stroke="#bfbfbf" points="42,-113.5 42,-132.5 71,-132.5 71,-113.5 42,-113.5"/>
<text text-anchor="middle" x="56.5" y="-120.5" font-family="Helvetica,sans-Serif" font-size="10.00" fill="#000000">IP</text>
</g>
<!-- Node1416&#45;&gt;Node1418 -->
<g id="edge7" class="edge">
<title>Node1416&#45;&gt;Node1418</title>
<path fill="none" stroke="#191970" d="M81.531,-123C103.0871,-123 135.1316,-123 163.6153,-123"/>
<polygon fill="#191970" stroke="#191970" points="81.289,-119.5001 71.289,-123 81.289,-126.5001 81.289,-119.5001"/>
</g>
<!-- Node1416&#45;&gt;Node1419 -->
<g id="edge8" class="edge">
<title>Node1416&#45;&gt;Node1419</title>
<path fill="none" stroke="#191970" d="M81.0898,-115.9123C105.3211,-108.928 143.1078,-98.0366 174.0882,-89.1069"/>
<polygon fill="#191970" stroke="#191970" points="79.9284,-112.6045 71.289,-118.7373 81.8672,-119.3307 79.9284,-112.6045"/>
</g>
<!-- Node1417 -->
<g id="node8" class="node">
<title>Node1417</title>
<g id="a_node8"><a xlink:href="d8/d71/structo2_1_1framework_1_1Configurable.html" target="_top" xlink:title="o2::framework::Configurable\l\&lt; T, IP \&gt;">
<polygon fill="none" stroke="#000000" points="149,-157 149,-187 304,-187 304,-157 149,-157"/>
<text text-anchor="start" x="157" y="-175" font-family="Helvetica,sans-Serif" font-size="10.00" fill="#000000">o2::framework::Configurable</text>
<text text-anchor="middle" x="226.5" y="-164" font-family="Helvetica,sans-Serif" font-size="10.00" fill="#000000">&lt; T, IP &gt;</text>
</a>
</g>
</g>
<!-- Node1416&#45;&gt;Node1417 -->
<g id="edge6" class="edge">
<title>Node1416&#45;&gt;Node1417</title>
<path fill="none" stroke="#191970" d="M81.0898,-130.0877C105.3211,-137.072 143.1078,-147.9634 174.0882,-156.8931"/>
<polygon fill="#191970" stroke="#191970" points="81.8672,-126.6693 71.289,-127.2627 79.9284,-133.3955 81.8672,-126.6693"/>
</g>
<!-- Node0 -->
<g id="node9" class="node">
<title>Node0</title>
<g id="a_node9"><a xlink:href="de/dbc/classo2_1_1soa_1_1Table.html" target="_top" xlink:title="o2::soa::Table\&lt; C \&gt;">
<polygon fill="none" stroke="#000000" points="0,-14.5 0,-33.5 113,-33.5 113,-14.5 0,-14.5"/>
<text text-anchor="middle" x="56.5" y="-21.5" font-family="Helvetica,sans-Serif" font-size="10.00" fill="#000000">o2::soa::Table&lt; C &gt;</text>
</a>
</g>
</g>
<!-- Node0&#45;&gt;Node1 -->
<g id="edge9" class="edge">
<title>Node0&#45;&gt;Node1</title>
<path fill="none" stroke="#191970" d="M123.2263,-24C136.6522,-24 150.7166,-24 163.9922,-24"/>
<polygon fill="#191970" stroke="#191970" points="123.1076,-20.5001 113.1075,-24 123.1075,-27.5001 123.1076,-20.5001"/>
</g>
</g>
</svg>
