<?xml version="1.0" encoding="UTF-8" standalone="no"?>
<!DOCTYPE svg PUBLIC "-//W3C//DTD SVG 1.1//EN"
 "http://www.w3.org/Graphics/SVG/1.1/DTD/svg11.dtd">
<!-- Generated by graphviz version 2.40.1 (20161225.0304)
 -->
<!-- Title: Graphical Class Hierarchy Pages: 1 -->
<svg width="571pt" height="1731pt"
 viewBox="0.00 0.00 571.00 1731.00" xmlns="http://www.w3.org/2000/svg" xmlns:xlink="http://www.w3.org/1999/xlink">
<g id="graph0" class="graph" transform="scale(1 1) rotate(0) translate(4 1727)">
<title>Graphical Class Hierarchy</title>
<!-- Node131 -->
<g id="node1" class="node">
<title>Node131</title>
<polygon fill="none" stroke="#bfbfbf" points="0,-754 0,-773 63,-773 63,-754 0,-754"/>
<text text-anchor="middle" x="31.5" y="-761" font-family="Helvetica,sans-Serif" font-size="10.00" fill="#000000">true_type</text>
</g>
<!-- Node0 -->
<g id="node2" class="node">
<title>Node0</title>
<g id="a_node2"><a xlink:href="dd/dde/structnlohmann_1_1detail_1_1conjunction.html" target="_top" xlink:title="nlohmann::detail::conjunction\l\&lt; is_complete_type\&lt; CompatibleType\l \&gt;, is_compatible_complete_type\l\&lt; BasicJsonType, CompatibleType \&gt; \&gt;">
<polygon fill="none" stroke="#000000" points="130.5,-1670.5 130.5,-1722.5 334.5,-1722.5 334.5,-1670.5 130.5,-1670.5"/>
<text text-anchor="start" x="138.5" y="-1710.5" font-family="Helvetica,sans-Serif" font-size="10.00" fill="#000000">nlohmann::detail::conjunction</text>
<text text-anchor="start" x="138.5" y="-1699.5" font-family="Helvetica,sans-Serif" font-size="10.00" fill="#000000">&lt; is_complete_type&lt; CompatibleType</text>
<text text-anchor="start" x="138.5" y="-1688.5" font-family="Helvetica,sans-Serif" font-size="10.00" fill="#000000"> &gt;, is_compatible_complete_type</text>
<text text-anchor="middle" x="232.5" y="-1677.5" font-family="Helvetica,sans-Serif" font-size="10.00" fill="#000000">&lt; BasicJsonType, CompatibleType &gt; &gt;</text>
</a>
</g>
</g>
<!-- Node131&#45;&gt;Node0 -->
<g id="edge1" class="edge">
<title>Node131&#45;&gt;Node0</title>
<path fill="none" stroke="#191970" d="M31.6314,-783.0603C32.6439,-908.0302 40.8278,-1591.6894 99,-1661.5 107.4362,-1671.624 118.4095,-1679.0134 130.4404,-1684.3759"/>
<polygon fill="#191970" stroke="#191970" points="35.1312,-782.9988 31.5563,-773.0253 28.1314,-783.0513 35.1312,-782.9988"/>
</g>
<!-- Node134 -->
<g id="node4" class="node">
<title>Node134</title>
<g id="a_node4"><a xlink:href="dd/dde/structnlohmann_1_1detail_1_1conjunction.html" target="_top" xlink:title="nlohmann::detail::conjunction\l\&lt;... \&gt;">
<polygon fill="none" stroke="#000000" points="152,-1621.5 152,-1651.5 313,-1651.5 313,-1621.5 152,-1621.5"/>
<text text-anchor="start" x="160" y="-1639.5" font-family="Helvetica,sans-Serif" font-size="10.00" fill="#000000">nlohmann::detail::conjunction</text>
<text text-anchor="middle" x="232.5" y="-1628.5" font-family="Helvetica,sans-Serif" font-size="10.00" fill="#000000">&lt;... &gt;</text>
</a>
</g>
</g>
<!-- Node131&#45;&gt;Node134 -->
<g id="edge3" class="edge">
<title>Node131&#45;&gt;Node134</title>
<path fill="none" stroke="#191970" d="M31.6615,-783.1367C32.8392,-904.3646 41.7698,-1547.8774 99,-1611.5 112.483,-1626.489 131.8511,-1634.2545 151.6693,-1637.9495"/>
<polygon fill="#191970" stroke="#191970" points="35.1609,-783.0403 31.5704,-773.0724 28.1612,-783.1038 35.1609,-783.0403"/>
</g>
<!-- Node135 -->
<g id="node5" class="node">
<title>Node135</title>
<g id="a_node5"><a xlink:href="d8/d25/structnlohmann_1_1detail_1_1is__basic__json_3_01NLOHMANN__BASIC__JSON__TPL_01_4.html" target="_top" xlink:title="nlohmann::detail::is\l_basic_json\&lt; NLOHMANN\l_BASIC_JSON_TPL \&gt;">
<polygon fill="none" stroke="#000000" points="161.5,-1561 161.5,-1602 303.5,-1602 303.5,-1561 161.5,-1561"/>
<text text-anchor="start" x="169.5" y="-1590" font-family="Helvetica,sans-Serif" font-size="10.00" fill="#000000">nlohmann::detail::is</text>
<text text-anchor="start" x="169.5" y="-1579" font-family="Helvetica,sans-Serif" font-size="10.00" fill="#000000">_basic_json&lt; NLOHMANN</text>
<text text-anchor="middle" x="232.5" y="-1568" font-family="Helvetica,sans-Serif" font-size="10.00" fill="#000000">_BASIC_JSON_TPL &gt;</text>
</a>
</g>
</g>
<!-- Node131&#45;&gt;Node135 -->
<g id="edge4" class="edge">
<title>Node131&#45;&gt;Node135</title>
<path fill="none" stroke="#191970" d="M31.8249,-783.5003C33.9031,-900.3746 46.9522,-1491.869 99,-1551.5 114.5427,-1569.3073 138.1707,-1577.8041 161.2509,-1581.5379"/>
<polygon fill="#191970" stroke="#191970" points="35.3189,-783.1175 31.6484,-773.1789 28.32,-783.2373 35.3189,-783.1175"/>
</g>
<!-- Node136 -->
<g id="node6" class="node">
<title>Node136</title>
<g id="a_node6"><a xlink:href="dd/dcd/structnlohmann_1_1detail_1_1is__complete__type_3_01T_00_01decltype_07void_07sizeof_07T_08_08_08_4.html" target="_top" xlink:title="nlohmann::detail::is\l_complete_type\&lt; T, decltype\l(void(sizeof(T)))\&gt;">
<polygon fill="none" stroke="#000000" points="152.5,-1501 152.5,-1542 312.5,-1542 312.5,-1501 152.5,-1501"/>
<text text-anchor="start" x="160.5" y="-1530" font-family="Helvetica,sans-Serif" font-size="10.00" fill="#000000">nlohmann::detail::is</text>
<text text-anchor="start" x="160.5" y="-1519" font-family="Helvetica,sans-Serif" font-size="10.00" fill="#000000">_complete_type&lt; T, decltype</text>
<text text-anchor="middle" x="232.5" y="-1508" font-family="Helvetica,sans-Serif" font-size="10.00" fill="#000000">(void(sizeof(T)))&gt;</text>
</a>
</g>
</g>
<!-- Node131&#45;&gt;Node136 -->
<g id="edge5" class="edge">
<title>Node131&#45;&gt;Node136</title>
<path fill="none" stroke="#191970" d="M31.9699,-783.3491C34.7796,-894.5091 50.893,-1436.772 99,-1491.5 112.5662,-1506.9333 132.2063,-1515.3621 152.2668,-1519.758"/>
<polygon fill="#191970" stroke="#191970" points="35.4654,-783.1189 31.7208,-773.2079 28.4676,-783.2909 35.4654,-783.1189"/>
</g>
<!-- Node137 -->
<g id="node7" class="node">
<title>Node137</title>
<g id="a_node7"><a xlink:href="d0/d5e/structo2_1_1experimental_1_1histhelpers_1_1is__shared__ptr_3_01std_1_1shared__ptr_3_01T_01_4_01_4.html" target="_top" xlink:title="o2::experimental::histhelpers\l::is_shared_ptr\&lt; std::shared\l_ptr\&lt; T \&gt; \&gt;">
<polygon fill="none" stroke="#000000" points="152.5,-1441 152.5,-1482 312.5,-1482 312.5,-1441 152.5,-1441"/>
<text text-anchor="start" x="160.5" y="-1470" font-family="Helvetica,sans-Serif" font-size="10.00" fill="#000000">o2::experimental::histhelpers</text>
<text text-anchor="start" x="160.5" y="-1459" font-family="Helvetica,sans-Serif" font-size="10.00" fill="#000000">::is_shared_ptr&lt; std::shared</text>
<text text-anchor="middle" x="232.5" y="-1448" font-family="Helvetica,sans-Serif" font-size="10.00" fill="#000000">_ptr&lt; T &gt; &gt;</text>
</a>
</g>
</g>
<!-- Node131&#45;&gt;Node137 -->
<g id="edge6" class="edge">
<title>Node131&#45;&gt;Node137</title>
<path fill="none" stroke="#191970" d="M32.1434,-783.3318C35.7446,-888.8755 54.8451,-1381.6839 99,-1431.5 112.6297,-1446.8772 132.2904,-1455.2878 152.3504,-1459.6842"/>
<polygon fill="#191970" stroke="#191970" points="35.6349,-783.0163 31.8032,-773.1386 28.6388,-783.2498 35.6349,-783.0163"/>
</g>
<!-- Node138 -->
<g id="node8" class="node">
<title>Node138</title>
<g id="a_node8"><a xlink:href="d2/ddb/structo2_1_1framework_1_1detail_1_1is__noarg__callable__t_3_01T_00_01decltype_07std_1_1declval_3401e25e905445557be4fe360a68747b2.html" target="_top" xlink:title="o2::framework::detail\l::is_noarg_callable_t\l\&lt; T, decltype(std::declval\l\&lt; T &amp;&amp; \&gt;()())\&gt;">
<polygon fill="none" stroke="#000000" points="161.5,-1369.5 161.5,-1421.5 303.5,-1421.5 303.5,-1369.5 161.5,-1369.5"/>
<text text-anchor="start" x="169.5" y="-1409.5" font-family="Helvetica,sans-Serif" font-size="10.00" fill="#000000">o2::framework::detail</text>
<text text-anchor="start" x="169.5" y="-1398.5" font-family="Helvetica,sans-Serif" font-size="10.00" fill="#000000">::is_noarg_callable_t</text>
<text text-anchor="start" x="169.5" y="-1387.5" font-family="Helvetica,sans-Serif" font-size="10.00" fill="#000000">&lt; T, decltype(std::declval</text>
<text text-anchor="middle" x="232.5" y="-1376.5" font-family="Helvetica,sans-Serif" font-size="10.00" fill="#000000">&lt; T &amp;&amp; &gt;()())&gt;</text>
</a>
</g>
</g>
<!-- Node131&#45;&gt;Node138 -->
<g id="edge7" class="edge">
<title>Node131&#45;&gt;Node138</title>
<path fill="none" stroke="#191970" d="M32.4491,-783.5972C37.2948,-882.5225 60.5551,-1314.7799 99,-1359.5 114.5706,-1377.6121 138.2048,-1387.0832 161.2822,-1391.8943"/>
<polygon fill="#191970" stroke="#191970" points="35.9379,-783.2789 31.9603,-773.4591 28.9461,-783.6161 35.9379,-783.2789"/>
</g>
<!-- Node139 -->
<g id="node9" class="node">
<title>Node139</title>
<g id="a_node9"><a xlink:href="d0/d43/structo2_1_1framework_1_1has__root__dictionary_3_01std_1_1unordered__map_3_01o2_1_1dcs_1_1DataPof4a1062e12ebfe4020453cf9fea32929.html" target="_top" xlink:title="o2::framework::has\l_root_dictionary\&lt; std\l::unordered_map\&lt; o2::dcs\l::DataPointIdentifier, o2\l::dcs::DataPointValue \&gt;, void \&gt;">
<polygon fill="none" stroke="#000000" points="147.5,-1287 147.5,-1350 317.5,-1350 317.5,-1287 147.5,-1287"/>
<text text-anchor="start" x="155.5" y="-1338" font-family="Helvetica,sans-Serif" font-size="10.00" fill="#000000">o2::framework::has</text>
<text text-anchor="start" x="155.5" y="-1327" font-family="Helvetica,sans-Serif" font-size="10.00" fill="#000000">_root_dictionary&lt; std</text>
<text text-anchor="start" x="155.5" y="-1316" font-family="Helvetica,sans-Serif" font-size="10.00" fill="#000000">::unordered_map&lt; o2::dcs</text>
<text text-anchor="start" x="155.5" y="-1305" font-family="Helvetica,sans-Serif" font-size="10.00" fill="#000000">::DataPointIdentifier, o2</text>
<text text-anchor="middle" x="232.5" y="-1294" font-family="Helvetica,sans-Serif" font-size="10.00" fill="#000000">::dcs::DataPointValue &gt;, void &gt;</text>
</a>
</g>
</g>
<!-- Node131&#45;&gt;Node139 -->
<g id="edge8" class="edge">
<title>Node131&#45;&gt;Node139</title>
<path fill="none" stroke="#191970" d="M32.8607,-783.5712C39.1443,-873.7791 66.4399,-1238.9763 99,-1277.5 111.4424,-1292.2213 129.0316,-1301.7534 147.371,-1307.8994"/>
<polygon fill="#191970" stroke="#191970" points="36.3353,-783.0807 32.1568,-773.3447 29.3518,-783.5614 36.3353,-783.0807"/>
</g>
<!-- Node140 -->
<g id="node10" class="node">
<title>Node140</title>
<g id="a_node10"><a xlink:href="d0/d7f/structo2_1_1framework_1_1has__root__dictionary_3_01T_00_01std_1_1conditional__t_3_01false_00_01c3a7047afd30b3fd4df3d429b8c4e1a22.html" target="_top" xlink:title="o2::framework::has\l_root_dictionary\&lt; T,\l std::conditional_t\&lt;\l false, class_member_checker\l\&lt; decltype(std::declval\&lt; T\l \&gt;().Class())\&gt;, void \&gt; \&gt;">
<polygon fill="none" stroke="#000000" points="150.5,-1193.5 150.5,-1267.5 314.5,-1267.5 314.5,-1193.5 150.5,-1193.5"/>
<text text-anchor="start" x="158.5" y="-1255.5" font-family="Helvetica,sans-Serif" font-size="10.00" fill="#000000">o2::framework::has</text>
<text text-anchor="start" x="158.5" y="-1244.5" font-family="Helvetica,sans-Serif" font-size="10.00" fill="#000000">_root_dictionary&lt; T,</text>
<text text-anchor="start" x="158.5" y="-1233.5" font-family="Helvetica,sans-Serif" font-size="10.00" fill="#000000"> std::conditional_t&lt;</text>
<text text-anchor="start" x="158.5" y="-1222.5" font-family="Helvetica,sans-Serif" font-size="10.00" fill="#000000"> false, class_member_checker</text>
<text text-anchor="start" x="158.5" y="-1211.5" font-family="Helvetica,sans-Serif" font-size="10.00" fill="#000000">&lt; decltype(std::declval&lt; T</text>
<text text-anchor="middle" x="232.5" y="-1200.5" font-family="Helvetica,sans-Serif" font-size="10.00" fill="#000000"> &gt;().Class())&gt;, void &gt; &gt;</text>
</a>
</g>
</g>
<!-- Node131&#45;&gt;Node140 -->
<g id="edge9" class="edge">
<title>Node131&#45;&gt;Node140</title>
<path fill="none" stroke="#191970" d="M32.0811,-783.6053C34.6409,-858.6838 47.2108,-1121.4894 99,-1183.5 112.1518,-1199.2475 130.9269,-1209.7225 150.2579,-1216.6891"/>
<polygon fill="#191970" stroke="#191970" points="35.5673,-783.1109 31.7518,-773.227 28.5708,-783.333 35.5673,-783.1109"/>
</g>
<!-- Node141 -->
<g id="node11" class="node">
<title>Node141</title>
<g id="a_node11"><a xlink:href="da/d79/structo2_1_1framework_1_1has__root__setowner_3_01T_00_01std_1_1conditional__t_3_01false_00_01clab3eb568d3aa63dda30124b6acde88d98.html" target="_top" xlink:title="o2::framework::has\l_root_setowner\&lt; T, std\l::conditional_t\&lt; false,\l class_member_checker\&lt;\l decltype(std::declval\&lt;\l T \&gt;().SetOwner(true))\&gt;,\l void \&gt; \&gt;">
<polygon fill="none" stroke="#000000" points="161,-1089 161,-1174 304,-1174 304,-1089 161,-1089"/>
<text text-anchor="start" x="169" y="-1162" font-family="Helvetica,sans-Serif" font-size="10.00" fill="#000000">o2::framework::has</text>
<text text-anchor="start" x="169" y="-1151" font-family="Helvetica,sans-Serif" font-size="10.00" fill="#000000">_root_setowner&lt; T, std</text>
<text text-anchor="start" x="169" y="-1140" font-family="Helvetica,sans-Serif" font-size="10.00" fill="#000000">::conditional_t&lt; false,</text>
<text text-anchor="start" x="169" y="-1129" font-family="Helvetica,sans-Serif" font-size="10.00" fill="#000000"> class_member_checker&lt;</text>
<text text-anchor="start" x="169" y="-1118" font-family="Helvetica,sans-Serif" font-size="10.00" fill="#000000"> decltype(std::declval&lt;</text>
<text text-anchor="start" x="169" y="-1107" font-family="Helvetica,sans-Serif" font-size="10.00" fill="#000000"> T &gt;().SetOwner(true))&gt;,</text>
<text text-anchor="middle" x="232.5" y="-1096" font-family="Helvetica,sans-Serif" font-size="10.00" fill="#000000"> void &gt; &gt;</text>
</a>
</g>
</g>
<!-- Node131&#45;&gt;Node141 -->
<g id="edge10" class="edge">
<title>Node131&#45;&gt;Node141</title>
<path fill="none" stroke="#191970" d="M33.2777,-783.2004C39.2213,-845.0488 60.2459,-1033.9448 99,-1079.5 114.7945,-1098.0664 138.0602,-1110.0382 160.7623,-1117.7437"/>
<polygon fill="#191970" stroke="#191970" points="36.7579,-782.8246 32.3425,-773.1936 29.7883,-783.476 36.7579,-782.8246"/>
</g>
<!-- Node142 -->
<g id="node12" class="node">
<title>Node142</title>
<g id="a_node12"><a xlink:href="da/da0/structo2_1_1framework_1_1is__boost__serializable__base_3_01Type_00_01Archive_00_01std_1_1void__td3dce5790dbc08a548e1efe654c16a22.html" target="_top" xlink:title="o2::framework::is_boost\l_serializable_base\&lt; Type,\l Archive, std::void_t\&lt; decltype\l(std::declval\&lt; Type &amp; \&gt;().serialize\l(std::declval\&lt; Archive &amp; \&gt;(), 0))\&gt; \&gt;">
<polygon fill="none" stroke="#000000" points="136,-1007 136,-1070 329,-1070 329,-1007 136,-1007"/>
<text text-anchor="start" x="144" y="-1058" font-family="Helvetica,sans-Serif" font-size="10.00" fill="#000000">o2::framework::is_boost</text>
<text text-anchor="start" x="144" y="-1047" font-family="Helvetica,sans-Serif" font-size="10.00" fill="#000000">_serializable_base&lt; Type,</text>
<text text-anchor="start" x="144" y="-1036" font-family="Helvetica,sans-Serif" font-size="10.00" fill="#000000"> Archive, std::void_t&lt; decltype</text>
<text text-anchor="start" x="144" y="-1025" font-family="Helvetica,sans-Serif" font-size="10.00" fill="#000000">(std::declval&lt; Type &amp; &gt;().serialize</text>
<text text-anchor="middle" x="232.5" y="-1014" font-family="Helvetica,sans-Serif" font-size="10.00" fill="#000000">(std::declval&lt; Archive &amp; &gt;(), 0))&gt; &gt;</text>
</a>
</g>
</g>
<!-- Node131&#45;&gt;Node142 -->
<g id="edge11" class="edge">
<title>Node131&#45;&gt;Node142</title>
<path fill="none" stroke="#191970" d="M34.6761,-782.9511C43.2715,-833.3449 68.4126,-966.384 99,-997.5 109.283,-1007.9607 122.1617,-1015.767 135.8351,-1021.5892"/>
<polygon fill="#191970" stroke="#191970" points="38.1161,-782.301 33.0146,-773.0152 31.212,-783.4555 38.1161,-782.301"/>
</g>
<!-- Node143 -->
<g id="node13" class="node">
<title>Node143</title>
<g id="a_node13"><a xlink:href="d5/d30/structo2_1_1framework_1_1is__bounded__array_3_01std_1_1array_3_01T_00_01N_01_4_01_4.html" target="_top" xlink:title="o2::framework::is_bounded\l_array\&lt; std::array\&lt; T, N \&gt; \&gt;">
<polygon fill="none" stroke="#000000" points="153.5,-957.5 153.5,-987.5 311.5,-987.5 311.5,-957.5 153.5,-957.5"/>
<text text-anchor="start" x="161.5" y="-975.5" font-family="Helvetica,sans-Serif" font-size="10.00" fill="#000000">o2::framework::is_bounded</text>
<text text-anchor="middle" x="232.5" y="-964.5" font-family="Helvetica,sans-Serif" font-size="10.00" fill="#000000">_array&lt; std::array&lt; T, N &gt; &gt;</text>
</a>
</g>
</g>
<!-- Node131&#45;&gt;Node143 -->
<g id="edge12" class="edge">
<title>Node131&#45;&gt;Node143</title>
<path fill="none" stroke="#191970" d="M32.5318,-783.3209C35.6598,-821.6302 48.2614,-905.8148 99,-948.5 114.1368,-961.2342 133.7135,-968.1956 153.1866,-971.8015"/>
<polygon fill="#191970" stroke="#191970" points="36.0008,-782.7422 31.8335,-773.0014 29.0167,-783.2149 36.0008,-782.7422"/>
</g>
<!-- Node144 -->
<g id="node14" class="node">
<title>Node144</title>
<g id="a_node14"><a xlink:href="d1/d33/structo2_1_1framework_1_1is__bounded__array_3_01T[N]_4.html" target="_top" xlink:title="o2::framework::is_bounded\l_array\&lt; T[N]\&gt;">
<polygon fill="none" stroke="#000000" points="158,-908.5 158,-938.5 307,-938.5 307,-908.5 158,-908.5"/>
<text text-anchor="start" x="166" y="-926.5" font-family="Helvetica,sans-Serif" font-size="10.00" fill="#000000">o2::framework::is_bounded</text>
<text text-anchor="middle" x="232.5" y="-915.5" font-family="Helvetica,sans-Serif" font-size="10.00" fill="#000000">_array&lt; T[N]&gt;</text>
</a>
</g>
</g>
<!-- Node131&#45;&gt;Node144 -->
<g id="edge13" class="edge">
<title>Node131&#45;&gt;Node144</title>
<path fill="none" stroke="#191970" d="M35.5357,-783.2934C42.7384,-813.2559 60.7837,-869.6801 99,-898.5 115.8498,-911.2069 137.2352,-918.0845 157.9253,-921.6558"/>
<polygon fill="#191970" stroke="#191970" points="38.8814,-782.2156 33.2867,-773.2183 32.0495,-783.7407 38.8814,-782.2156"/>
</g>
<!-- Node145 -->
<g id="node15" class="node">
<title>Node145</title>
<g id="a_node15"><a xlink:href="de/d5c/structo2_1_1framework_1_1is__container_3_01T_00_01std_1_1conditional__t_3_01false_00_01class__mef60b0640f3a7413451971b3764fe2133.html" target="_top" xlink:title="o2::framework::is_container\l\&lt; T, std::conditional_t\l\&lt; false, class_member_checker\l\&lt; typename T::value_type, typename\l T::size_type, typename T::allocator\l_type, typename T::iterator, typename\l T::const_iterator, decltype(std::declval\l\&lt; T \&gt;().size()), decltype(std::declval\&lt;\l T \&gt;().begin()), decltype(std::declval\&lt; T\l \&gt;().end()), decltype(std::declval\&lt; T \&gt;().cbegin\l()), decltype(std::declval\&lt; T \&gt;().cend())\&gt;, void \&gt; \&gt;">
<polygon fill="none" stroke="#000000" points="99,-760 99,-889 366,-889 366,-760 99,-760"/>
<text text-anchor="start" x="107" y="-877" font-family="Helvetica,sans-Serif" font-size="10.00" fill="#000000">o2::framework::is_container</text>
<text text-anchor="start" x="107" y="-866" font-family="Helvetica,sans-Serif" font-size="10.00" fill="#000000">&lt; T, std::conditional_t</text>
<text text-anchor="start" x="107" y="-855" font-family="Helvetica,sans-Serif" font-size="10.00" fill="#000000">&lt; false, class_member_checker</text>
<text text-anchor="start" x="107" y="-844" font-family="Helvetica,sans-Serif" font-size="10.00" fill="#000000">&lt; typename T::value_type, typename</text>
<text text-anchor="start" x="107" y="-833" font-family="Helvetica,sans-Serif" font-size="10.00" fill="#000000"> T::size_type, typename T::allocator</text>
<text text-anchor="start" x="107" y="-822" font-family="Helvetica,sans-Serif" font-size="10.00" fill="#000000">_type, typename T::iterator, typename</text>
<text text-anchor="start" x="107" y="-811" font-family="Helvetica,sans-Serif" font-size="10.00" fill="#000000"> T::const_iterator, decltype(std::declval</text>
<text text-anchor="start" x="107" y="-800" font-family="Helvetica,sans-Serif" font-size="10.00" fill="#000000">&lt; T &gt;().size()), decltype(std::declval&lt;</text>
<text text-anchor="start" x="107" y="-789" font-family="Helvetica,sans-Serif" font-size="10.00" fill="#000000"> T &gt;().begin()), decltype(std::declval&lt; T</text>
<text text-anchor="start" x="107" y="-778" font-family="Helvetica,sans-Serif" font-size="10.00" fill="#000000"> &gt;().end()), decltype(std::declval&lt; T &gt;().cbegin</text>
<text text-anchor="middle" x="232.5" y="-767" font-family="Helvetica,sans-Serif" font-size="10.00" fill="#000000">()), decltype(std::declval&lt; T &gt;().cend())&gt;, void &gt; &gt;</text>
</a>
</g>
</g>
<!-- Node131&#45;&gt;Node145 -->
<g id="edge14" class="edge">
<title>Node131&#45;&gt;Node145</title>
<path fill="none" stroke="#191970" d="M72.6262,-775.9811C80.6543,-778.4175 89.4703,-781.093 98.7095,-783.8969"/>
<polygon fill="#191970" stroke="#191970" points="73.4917,-772.5862 62.9063,-773.0313 71.4589,-779.2845 73.4917,-772.5862"/>
</g>
<!-- Node146 -->
<g id="node16" class="node">
<title>Node146</title>
<g id="a_node16"><a xlink:href="df/ddf/structo2_1_1framework_1_1is__forced__non__messageable_3_01T_00_01typename_01std_1_1enable__if_3_9497e1cc58c5001cfb1a9a57a11a8068.html" target="_top" xlink:title="o2::framework::is_forced\l_non_messageable\&lt; T, typename\l std::enable_if\&lt; std::is_same\l\&lt; typename T::non_messageable,\l MarkAsNonMessageable \&gt;::value\l \&gt;::type \&gt;">
<polygon fill="none" stroke="#000000" points="141,-666.5 141,-740.5 324,-740.5 324,-666.5 141,-666.5"/>
<text text-anchor="start" x="149" y="-728.5" font-family="Helvetica,sans-Serif" font-size="10.00" fill="#000000">o2::framework::is_forced</text>
<text text-anchor="start" x="149" y="-717.5" font-family="Helvetica,sans-Serif" font-size="10.00" fill="#000000">_non_messageable&lt; T, typename</text>
<text text-anchor="start" x="149" y="-706.5" font-family="Helvetica,sans-Serif" font-size="10.00" fill="#000000"> std::enable_if&lt; std::is_same</text>
<text text-anchor="start" x="149" y="-695.5" font-family="Helvetica,sans-Serif" font-size="10.00" fill="#000000">&lt; typename T::non_messageable,</text>
<text text-anchor="start" x="149" y="-684.5" font-family="Helvetica,sans-Serif" font-size="10.00" fill="#000000"> MarkAsNonMessageable &gt;::value</text>
<text text-anchor="middle" x="232.5" y="-673.5" font-family="Helvetica,sans-Serif" font-size="10.00" fill="#000000"> &gt;::type &gt;</text>
</a>
</g>
</g>
<!-- Node131&#45;&gt;Node146 -->
<g id="edge15" class="edge">
<title>Node131&#45;&gt;Node146</title>
<path fill="none" stroke="#191970" d="M73.1948,-751.0538C92.8863,-745.1757 117.2243,-737.9106 140.8985,-730.8437"/>
<polygon fill="#191970" stroke="#191970" points="71.9301,-747.7786 63.349,-753.9928 73.9324,-754.4862 71.9301,-747.7786"/>
</g>
<!-- Node147 -->
<g id="node17" class="node">
<title>Node147</title>
<g id="a_node17"><a xlink:href="dc/d89/structo2_1_1framework_1_1is__messageable_3_01o2_1_1dataformats_1_1PrimaryVertex_01_4.html" target="_top" xlink:title="o2::framework::is_messageable\l\&lt; o2::dataformats::PrimaryVertex \&gt;">
<polygon fill="none" stroke="#000000" points="136,-617.5 136,-647.5 329,-647.5 329,-617.5 136,-617.5"/>
<text text-anchor="start" x="144" y="-635.5" font-family="Helvetica,sans-Serif" font-size="10.00" fill="#000000">o2::framework::is_messageable</text>
<text text-anchor="middle" x="232.5" y="-624.5" font-family="Helvetica,sans-Serif" font-size="10.00" fill="#000000">&lt; o2::dataformats::PrimaryVertex &gt;</text>
</a>
</g>
</g>
<!-- Node131&#45;&gt;Node147 -->
<g id="edge16" class="edge">
<title>Node131&#45;&gt;Node147</title>
<path fill="none" stroke="#191970" d="M38.2669,-744.1104C47.8182,-719.7797 67.6679,-678.6808 99,-657.5 110.0373,-650.0387 122.7055,-644.6531 135.747,-640.7904"/>
<polygon fill="#191970" stroke="#191970" points="34.909,-743.0986 34.6994,-753.6914 41.469,-745.5413 34.909,-743.0986"/>
</g>
<!-- Node148 -->
<g id="node18" class="node">
<title>Node148</title>
<g id="a_node18"><a xlink:href="d2/dd2/structo2_1_1framework_1_1is__messageable_3_01o2_1_1itsmft_1_1Cluster_01_4.html" target="_top" xlink:title="o2::framework::is_messageable\l\&lt; o2::itsmft::Cluster \&gt;">
<polygon fill="none" stroke="#000000" points="146,-568.5 146,-598.5 319,-598.5 319,-568.5 146,-568.5"/>
<text text-anchor="start" x="154" y="-586.5" font-family="Helvetica,sans-Serif" font-size="10.00" fill="#000000">o2::framework::is_messageable</text>
<text text-anchor="middle" x="232.5" y="-575.5" font-family="Helvetica,sans-Serif" font-size="10.00" fill="#000000">&lt; o2::itsmft::Cluster &gt;</text>
</a>
</g>
</g>
<!-- Node131&#45;&gt;Node148 -->
<g id="edge17" class="edge">
<title>Node131&#45;&gt;Node148</title>
<path fill="none" stroke="#191970" d="M34.1417,-743.6569C39.7063,-710.1932 55.8906,-642.8365 99,-608.5 112.3722,-597.8491 128.8775,-591.2259 145.6688,-587.2032"/>
<polygon fill="#191970" stroke="#191970" points="30.6713,-743.1987 32.6382,-753.6094 37.5928,-744.2444 30.6713,-743.1987"/>
</g>
<!-- Node149 -->
<g id="node19" class="node">
<title>Node149</title>
<g id="a_node19"><a xlink:href="d0/d3d/structo2_1_1framework_1_1is__messageable_3_01o2_1_1mft_1_1TrackCA_01_4.html" target="_top" xlink:title="o2::framework::is_messageable\l\&lt; o2::mft::TrackCA \&gt;">
<polygon fill="none" stroke="#000000" points="146,-519.5 146,-549.5 319,-549.5 319,-519.5 146,-519.5"/>
<text text-anchor="start" x="154" y="-537.5" font-family="Helvetica,sans-Serif" font-size="10.00" fill="#000000">o2::framework::is_messageable</text>
<text text-anchor="middle" x="232.5" y="-526.5" font-family="Helvetica,sans-Serif" font-size="10.00" fill="#000000">&lt; o2::mft::TrackCA &gt;</text>
</a>
</g>
</g>
<!-- Node131&#45;&gt;Node149 -->
<g id="edge18" class="edge">
<title>Node131&#45;&gt;Node149</title>
<path fill="none" stroke="#191970" d="M35.346,-743.9432C44.806,-697.8458 70.5188,-584.3888 99,-559.5 112.1392,-548.0181 128.8372,-541.0852 145.9387,-537.0309"/>
<polygon fill="#191970" stroke="#191970" points="31.8872,-743.3905 33.3451,-753.8845 38.7495,-744.7717 31.8872,-743.3905"/>
</g>
<!-- Node150 -->
<g id="node20" class="node">
<title>Node150</title>
<g id="a_node20"><a xlink:href="d0/dd9/structo2_1_1framework_1_1is__messageable_3_01o2_1_1mft_1_1TrackLTF_01_4.html" target="_top" xlink:title="o2::framework::is_messageable\l\&lt; o2::mft::TrackLTF \&gt;">
<polygon fill="none" stroke="#000000" points="146,-470.5 146,-500.5 319,-500.5 319,-470.5 146,-470.5"/>
<text text-anchor="start" x="154" y="-488.5" font-family="Helvetica,sans-Serif" font-size="10.00" fill="#000000">o2::framework::is_messageable</text>
<text text-anchor="middle" x="232.5" y="-477.5" font-family="Helvetica,sans-Serif" font-size="10.00" fill="#000000">&lt; o2::mft::TrackLTF &gt;</text>
</a>
</g>
</g>
<!-- Node131&#45;&gt;Node150 -->
<g id="edge19" class="edge">
<title>Node131&#45;&gt;Node150</title>
<path fill="none" stroke="#191970" d="M34.0031,-744.0515C41.2933,-690.5044 64.2198,-542.7453 99,-510.5 111.8824,-498.5565 128.5729,-491.4473 145.7642,-487.3701"/>
<polygon fill="#191970" stroke="#191970" points="30.5326,-743.5988 32.6862,-753.9725 37.4717,-744.52 30.5326,-743.5988"/>
</g>
<!-- Node151 -->
<g id="node21" class="node">
<title>Node151</title>
<g id="a_node21"><a xlink:href="dd/dc9/structo2_1_1framework_1_1is__messageable_3_01o2_1_1mft_1_1TrackMFT_01_4.html" target="_top" xlink:title="o2::framework::is_messageable\l\&lt; o2::mft::TrackMFT \&gt;">
<polygon fill="none" stroke="#000000" points="146,-421.5 146,-451.5 319,-451.5 319,-421.5 146,-421.5"/>
<text text-anchor="start" x="154" y="-439.5" font-family="Helvetica,sans-Serif" font-size="10.00" fill="#000000">o2::framework::is_messageable</text>
<text text-anchor="middle" x="232.5" y="-428.5" font-family="Helvetica,sans-Serif" font-size="10.00" fill="#000000">&lt; o2::mft::TrackMFT &gt;</text>
</a>
</g>
</g>
<!-- Node131&#45;&gt;Node151 -->
<g id="edge20" class="edge">
<title>Node131&#45;&gt;Node151</title>
<path fill="none" stroke="#191970" d="M33.1421,-743.5814C38.5705,-682.7493 57.9768,-501.1209 99,-461.5 111.7207,-449.2141 128.4463,-441.9813 145.7383,-437.8951"/>
<polygon fill="#191970" stroke="#191970" points="29.6359,-743.504 32.2646,-753.7676 36.61,-744.1049 29.6359,-743.504"/>
</g>
<!-- Node152 -->
<g id="node22" class="node">
<title>Node152</title>
<g id="a_node22"><a xlink:href="d5/d34/structo2_1_1framework_1_1is__messageable_3_01o2_1_1tof_1_1Cluster_01_4.html" target="_top" xlink:title="o2::framework::is_messageable\l\&lt; o2::tof::Cluster \&gt;">
<polygon fill="none" stroke="#000000" points="146,-372.5 146,-402.5 319,-402.5 319,-372.5 146,-372.5"/>
<text text-anchor="start" x="154" y="-390.5" font-family="Helvetica,sans-Serif" font-size="10.00" fill="#000000">o2::framework::is_messageable</text>
<text text-anchor="middle" x="232.5" y="-379.5" font-family="Helvetica,sans-Serif" font-size="10.00" fill="#000000">&lt; o2::tof::Cluster &gt;</text>
</a>
</g>
</g>
<!-- Node131&#45;&gt;Node152 -->
<g id="edge21" class="edge">
<title>Node131&#45;&gt;Node152</title>
<path fill="none" stroke="#191970" d="M32.4493,-743.936C36.1001,-677.1627 51.4948,-459.7746 99,-412.5 111.6191,-399.9421 128.4066,-392.617 145.8062,-388.5303"/>
<polygon fill="#191970" stroke="#191970" points="28.9527,-743.7824 31.9297,-753.9504 35.9433,-744.1452 28.9527,-743.7824"/>
</g>
<!-- Node153 -->
<g id="node23" class="node">
<title>Node153</title>
<g id="a_node23"><a xlink:href="d2/dc9/structo2_1_1framework_1_1is__messageable_3_01o2_1_1zdc_1_1RecEvent_01_4.html" target="_top" xlink:title="o2::framework::is_messageable\l\&lt; o2::zdc::RecEvent \&gt;">
<polygon fill="none" stroke="#000000" points="146,-323.5 146,-353.5 319,-353.5 319,-323.5 146,-323.5"/>
<text text-anchor="start" x="154" y="-341.5" font-family="Helvetica,sans-Serif" font-size="10.00" fill="#000000">o2::framework::is_messageable</text>
<text text-anchor="middle" x="232.5" y="-330.5" font-family="Helvetica,sans-Serif" font-size="10.00" fill="#000000">&lt; o2::zdc::RecEvent &gt;</text>
</a>
</g>
</g>
<!-- Node131&#45;&gt;Node153 -->
<g id="edge22" class="edge">
<title>Node131&#45;&gt;Node153</title>
<path fill="none" stroke="#191970" d="M31.9553,-743.6189C34.0498,-670.5617 45.1294,-418.3462 99,-363.5 111.5577,-350.7149 128.4252,-343.3176 145.9369,-339.2359"/>
<polygon fill="#191970" stroke="#191970" points="28.4532,-743.6603 31.6912,-753.7482 35.4508,-743.8428 28.4532,-743.6603"/>
</g>
<!-- Node154 -->
<g id="node24" class="node">
<title>Node154</title>
<g id="a_node24"><a xlink:href="d2/d85/structo2_1_1framework_1_1is__specialization_3_01o2_1_1dataformats_1_1ConstMCTruthContainer_3_01T_01_4_00_01std_1_1vector_01_4.html" target="_top" xlink:title="o2::framework::is_specialization\l\&lt; o2::dataformats::ConstMCTruthContainer\l\&lt; T \&gt;, std::vector \&gt;">
<polygon fill="none" stroke="#000000" points="119.5,-263 119.5,-304 345.5,-304 345.5,-263 119.5,-263"/>
<text text-anchor="start" x="127.5" y="-292" font-family="Helvetica,sans-Serif" font-size="10.00" fill="#000000">o2::framework::is_specialization</text>
<text text-anchor="start" x="127.5" y="-281" font-family="Helvetica,sans-Serif" font-size="10.00" fill="#000000">&lt; o2::dataformats::ConstMCTruthContainer</text>
<text text-anchor="middle" x="232.5" y="-270" font-family="Helvetica,sans-Serif" font-size="10.00" fill="#000000">&lt; T &gt;, std::vector &gt;</text>
</a>
</g>
</g>
<!-- Node131&#45;&gt;Node154 -->
<g id="edge23" class="edge">
<title>Node131&#45;&gt;Node154</title>
<path fill="none" stroke="#191970" d="M33.1791,-743.6064C40.338,-660.847 69.3022,-346.6401 99,-314.5 104.8939,-308.1214 111.821,-302.9315 119.3668,-298.7211"/>
<polygon fill="#191970" stroke="#191970" points="29.6813,-743.4326 32.3159,-753.6946 36.6558,-744.0295 29.6813,-743.4326"/>
</g>
<!-- Node155 -->
<g id="node25" class="node">
<title>Node155</title>
<g id="a_node25"><a xlink:href="d4/d04/structo2_1_1framework_1_1is__specialization_3_01Ref_3_01Args_8_8_8_01_4_00_01Ref_01_4.html" target="_top" xlink:title="o2::framework::is_specialization\l\&lt; Ref\&lt; Args... \&gt;, Ref \&gt;">
<polygon fill="none" stroke="#000000" points="145,-213.5 145,-243.5 320,-243.5 320,-213.5 145,-213.5"/>
<text text-anchor="start" x="153" y="-231.5" font-family="Helvetica,sans-Serif" font-size="10.00" fill="#000000">o2::framework::is_specialization</text>
<text text-anchor="middle" x="232.5" y="-220.5" font-family="Helvetica,sans-Serif" font-size="10.00" fill="#000000">&lt; Ref&lt; Args... &gt;, Ref &gt;</text>
</a>
</g>
</g>
<!-- Node131&#45;&gt;Node155 -->
<g id="edge24" class="edge">
<title>Node131&#45;&gt;Node155</title>
<path fill="none" stroke="#191970" d="M32.7738,-743.4971C38.6783,-653.6078 64.566,-289.8285 99,-253.5 111.166,-240.6646 127.6619,-233.2042 144.9064,-229.071"/>
<polygon fill="#191970" stroke="#191970" points="29.2675,-743.4827 32.1135,-753.6881 36.2528,-743.9353 29.2675,-743.4827"/>
</g>
<!-- Node156 -->
<g id="node26" class="node">
<title>Node156</title>
<g id="a_node26"><a xlink:href="d0/d7f/structo2_1_1framework_1_1MakeRootTreeWriterSpec_1_1StringAssignable_3_01T_00_01std_1_1enable__if66c05a5661a1f9dce6d76d2039b1dcfd.html" target="_top" xlink:title="o2::framework::MakeRootTree\lWriterSpec::StringAssignable\l\&lt; T, std::enable_if_t\&lt; std\l::is_same_v\&lt; std::decay_t\&lt; T\l \&gt;, char const * \&gt;\|\|std::is_same\l_v\&lt; std::decay_t\&lt; T \&gt;, char * \&gt;\|\l\|std::is_same_v\&lt; std::decay_t\&lt; T\l \&gt;, std::string \&gt; \&gt; \&gt;">
<polygon fill="none" stroke="#000000" points="142.5,-98.5 142.5,-194.5 322.5,-194.5 322.5,-98.5 142.5,-98.5"/>
<text text-anchor="start" x="150.5" y="-182.5" font-family="Helvetica,sans-Serif" font-size="10.00" fill="#000000">o2::framework::MakeRootTree</text>
<text text-anchor="start" x="150.5" y="-171.5" font-family="Helvetica,sans-Serif" font-size="10.00" fill="#000000">WriterSpec::StringAssignable</text>
<text text-anchor="start" x="150.5" y="-160.5" font-family="Helvetica,sans-Serif" font-size="10.00" fill="#000000">&lt; T, std::enable_if_t&lt; std</text>
<text text-anchor="start" x="150.5" y="-149.5" font-family="Helvetica,sans-Serif" font-size="10.00" fill="#000000">::is_same_v&lt; std::decay_t&lt; T</text>
<text text-anchor="start" x="150.5" y="-138.5" font-family="Helvetica,sans-Serif" font-size="10.00" fill="#000000"> &gt;, char const * &gt;||std::is_same</text>
<text text-anchor="start" x="150.5" y="-127.5" font-family="Helvetica,sans-Serif" font-size="10.00" fill="#000000">_v&lt; std::decay_t&lt; T &gt;, char * &gt;|</text>
<text text-anchor="start" x="150.5" y="-116.5" font-family="Helvetica,sans-Serif" font-size="10.00" fill="#000000">|std::is_same_v&lt; std::decay_t&lt; T</text>
<text text-anchor="middle" x="232.5" y="-105.5" font-family="Helvetica,sans-Serif" font-size="10.00" fill="#000000"> &gt;, std::string &gt; &gt; &gt;</text>
</a>
</g>
</g>
<!-- Node131&#45;&gt;Node156 -->
<g id="edge25" class="edge">
<title>Node131&#45;&gt;Node156</title>
<path fill="none" stroke="#191970" d="M32.7363,-743.5823C38.756,-649.0861 66.0516,-248.7018 99,-204.5 110.0247,-189.7098 125.6174,-178.6384 142.2763,-170.3676"/>
<polygon fill="#191970" stroke="#191970" points="29.2308,-743.5617 32.0952,-753.7619 36.2169,-744.0017 29.2308,-743.5617"/>
</g>
<!-- Node157 -->
<g id="node27" class="node">
<title>Node157</title>
<g id="a_node27"><a xlink:href="db/d8e/structo2_1_1soa_1_1is__index_3_01Ref_3_01Args_8_8_8_01_4_00_01Ref_01_4.html" target="_top" xlink:title="o2::soa::is_index\&lt;\l Ref\&lt; Args... \&gt;, Ref \&gt;">
<polygon fill="none" stroke="#000000" points="171.5,-49.5 171.5,-79.5 293.5,-79.5 293.5,-49.5 171.5,-49.5"/>
<text text-anchor="start" x="179.5" y="-67.5" font-family="Helvetica,sans-Serif" font-size="10.00" fill="#000000">o2::soa::is_index&lt;</text>
<text text-anchor="middle" x="232.5" y="-56.5" font-family="Helvetica,sans-Serif" font-size="10.00" fill="#000000"> Ref&lt; Args... &gt;, Ref &gt;</text>
</a>
</g>
</g>
<!-- Node131&#45;&gt;Node157 -->
<g id="edge26" class="edge">
<title>Node131&#45;&gt;Node157</title>
<path fill="none" stroke="#191970" d="M32.0994,-743.4625C35.472,-636.8277 53.5789,-138.971 99,-89.5 117.1003,-69.7858 145.3925,-62.6383 171.2813,-60.7897"/>
<polygon fill="#191970" stroke="#191970" points="28.5918,-743.658 31.7815,-753.7612 35.5884,-743.874 28.5918,-743.658"/>
</g>
<!-- Node158 -->
<g id="node28" class="node">
<title>Node158</title>
<g id="a_node28"><a xlink:href="d6/d8e/structstd_1_1is__trivially__copyable_3_01o2_1_1math__utils_1_1Point3D_3_01T_01_4_01_4.html" target="_top" xlink:title="std::is_trivially_copyable\l\&lt; o2::math_utils::Point3D\&lt; T \&gt; \&gt;">
<polygon fill="none" stroke="#000000" points="141.5,-.5 141.5,-30.5 323.5,-30.5 323.5,-.5 141.5,-.5"/>
<text text-anchor="start" x="149.5" y="-18.5" font-family="Helvetica,sans-Serif" font-size="10.00" fill="#000000">std::is_trivially_copyable</text>
<text text-anchor="middle" x="232.5" y="-7.5" font-family="Helvetica,sans-Serif" font-size="10.00" fill="#000000">&lt; o2::math_utils::Point3D&lt; T &gt; &gt;</text>
</a>
</g>
</g>
<!-- Node131&#45;&gt;Node158 -->
<g id="edge27" class="edge">
<title>Node131&#45;&gt;Node158</title>
<path fill="none" stroke="#191970" d="M31.949,-743.7592C34.644,-633.2095 50.2349,-93.9729 99,-40.5 110.2017,-28.2169 125.3584,-20.8031 141.4421,-16.5082"/>
<polygon fill="#191970" stroke="#191970" points="28.448,-743.7649 31.7104,-753.8449 35.446,-743.9305 28.448,-743.7649"/>
</g>
<!-- Node1 -->
<g id="node3" class="node">
<title>Node1</title>
<g id="a_node3"><a xlink:href="d3/d71/structnlohmann_1_1detail_1_1is__compatible__type.html" target="_top" xlink:title="nlohmann::detail::is\l_compatible_type\&lt; BasicJson\lType, CompatibleType \&gt;">
<polygon fill="none" stroke="#000000" points="402,-1676 402,-1717 563,-1717 563,-1676 402,-1676"/>
<text text-anchor="start" x="410" y="-1705" font-family="Helvetica,sans-Serif" font-size="10.00" fill="#000000">nlohmann::detail::is</text>
<text text-anchor="start" x="410" y="-1694" font-family="Helvetica,sans-Serif" font-size="10.00" fill="#000000">_compatible_type&lt; BasicJson</text>
<text text-anchor="middle" x="482.5" y="-1683" font-family="Helvetica,sans-Serif" font-size="10.00" fill="#000000">Type, CompatibleType &gt;</text>
</a>
</g>
</g>
<!-- Node0&#45;&gt;Node1 -->
<g id="edge2" class="edge">
<title>Node0&#45;&gt;Node1</title>
<path fill="none" stroke="#191970" d="M344.5832,-1696.5C363.87,-1696.5 383.5714,-1696.5 401.8243,-1696.5"/>
<polygon fill="#191970" stroke="#191970" points="344.5452,-1693.0001 334.5451,-1696.5 344.5451,-1700.0001 344.5452,-1693.0001"/>
</g>
</g>
</svg>
