<?xml version="1.0" encoding="UTF-8" standalone="no"?>
<!DOCTYPE svg PUBLIC "-//W3C//DTD SVG 1.1//EN"
 "http://www.w3.org/Graphics/SVG/1.1/DTD/svg11.dtd">
<!-- Generated by graphviz version 2.40.1 (20161225.0304)
 -->
<!-- Title: /home/travis/build/AliceO2Group/AliceO2/Detectors/MUON/MCH/Raw/Decoder/include/MCHRawDecoder/PageDecoder.h Pages: 1 -->
<svg width="1002pt" height="350pt"
 viewBox="0.00 0.00 1002.11 350.00" xmlns="http://www.w3.org/2000/svg" xmlns:xlink="http://www.w3.org/1999/xlink">
<g id="graph0" class="graph" transform="scale(1 1) rotate(0) translate(4 346)">
<title>/home/travis/build/AliceO2Group/AliceO2/Detectors/MUON/MCH/Raw/Decoder/include/MCHRawDecoder/PageDecoder.h</title>
<!-- Node21 -->
<g id="node1" class="node">
<title>Node21</title>
<polygon fill="#bfbfbf" stroke="#000000" points="414.6054,-278.5 414.6054,-341.5 599.6054,-341.5 599.6054,-278.5 414.6054,-278.5"/>
<text text-anchor="start" x="422.6054" y="-329.5" font-family="Helvetica,sans-Serif" font-size="10.00" fill="#000000">/home/travis/build</text>
<text text-anchor="start" x="422.6054" y="-318.5" font-family="Helvetica,sans-Serif" font-size="10.00" fill="#000000">/AliceO2Group/AliceO2</text>
<text text-anchor="start" x="422.6054" y="-307.5" font-family="Helvetica,sans-Serif" font-size="10.00" fill="#000000">/Detectors/MUON/MCH/Raw</text>
<text text-anchor="start" x="422.6054" y="-296.5" font-family="Helvetica,sans-Serif" font-size="10.00" fill="#000000">/Decoder/include/MCHRawDecoder</text>
<text text-anchor="middle" x="507.1054" y="-285.5" font-family="Helvetica,sans-Serif" font-size="10.00" fill="#000000">/PageDecoder.h</text>
</g>
<!-- Node22 -->
<g id="node2" class="node">
<title>Node22</title>
<g id="a_node2"><a xlink:href="../../d0/da1/PayloadDecoder_8h.html" target="_top" xlink:title="/home/travis/build\l/AliceO2Group/AliceO2\l/Detectors/MUON/MCH/Raw\l/Decoder/src/PayloadDecoder.h">
<polygon fill="none" stroke="#000000" points="234.6054,-189.5 234.6054,-241.5 401.6054,-241.5 401.6054,-189.5 234.6054,-189.5"/>
<text text-anchor="start" x="242.6054" y="-229.5" font-family="Helvetica,sans-Serif" font-size="10.00" fill="#000000">/home/travis/build</text>
<text text-anchor="start" x="242.6054" y="-218.5" font-family="Helvetica,sans-Serif" font-size="10.00" fill="#000000">/AliceO2Group/AliceO2</text>
<text text-anchor="start" x="242.6054" y="-207.5" font-family="Helvetica,sans-Serif" font-size="10.00" fill="#000000">/Detectors/MUON/MCH/Raw</text>
<text text-anchor="middle" x="318.1054" y="-196.5" font-family="Helvetica,sans-Serif" font-size="10.00" fill="#000000">/Decoder/src/PayloadDecoder.h</text>
</a>
</g>
</g>
<!-- Node21&#45;&gt;Node22 -->
<g id="edge1" class="edge">
<title>Node21&#45;&gt;Node22</title>
<path fill="none" stroke="#191970" d="M434.8069,-273.8507C413.3053,-263.0999 390.1782,-251.5364 370.2288,-241.5617"/>
<polygon fill="#191970" stroke="#191970" points="433.3988,-277.0598 443.9084,-278.4015 436.5294,-270.7988 433.3988,-277.0598"/>
</g>
<!-- Node24 -->
<g id="node4" class="node">
<title>Node24</title>
<g id="a_node4"><a xlink:href="../../df/dcf/PageDecoder_8cxx.html" target="_top" xlink:title="/home/travis/build\l/AliceO2Group/AliceO2\l/Detectors/MUON/MCH/Raw\l/Decoder/src/PageDecoder.cxx">
<polygon fill="none" stroke="#000000" points="22.1054,-6 22.1054,-58 186.1054,-58 186.1054,-6 22.1054,-6"/>
<text text-anchor="start" x="30.1054" y="-46" font-family="Helvetica,sans-Serif" font-size="10.00" fill="#000000">/home/travis/build</text>
<text text-anchor="start" x="30.1054" y="-35" font-family="Helvetica,sans-Serif" font-size="10.00" fill="#000000">/AliceO2Group/AliceO2</text>
<text text-anchor="start" x="30.1054" y="-24" font-family="Helvetica,sans-Serif" font-size="10.00" fill="#000000">/Detectors/MUON/MCH/Raw</text>
<text text-anchor="middle" x="104.1054" y="-13" font-family="Helvetica,sans-Serif" font-size="10.00" fill="#000000">/Decoder/src/PageDecoder.cxx</text>
</a>
</g>
</g>
<!-- Node21&#45;&gt;Node24 -->
<g id="edge7" class="edge">
<title>Node21&#45;&gt;Node24</title>
<path fill="none" stroke="#191970" d="M404.4335,-292.962C272.0544,-268.5686 53.5204,-219.2217 9.1054,-153 -4.0154,-133.4371 -1.6627,-120.9502 9.1054,-100 18.053,-82.592 33.7538,-68.6456 49.8452,-58.0247"/>
<polygon fill="#191970" stroke="#191970" points="404.1338,-296.465 414.5997,-294.8175 405.3907,-289.5788 404.1338,-296.465"/>
</g>
<!-- Node26 -->
<g id="node6" class="node">
<title>Node26</title>
<g id="a_node6"><a xlink:href="../../d8/dcb/testUserLogicEndpointDecoder_8cxx.html" target="_top" xlink:title="/home/travis/build\l/AliceO2Group/AliceO2\l/Detectors/MUON/MCH/Raw\l/Decoder/src/testUserLogicEndpoint\lDecoder.cxx">
<polygon fill="none" stroke="#000000" points="292.1054,-.5 292.1054,-63.5 482.1054,-63.5 482.1054,-.5 292.1054,-.5"/>
<text text-anchor="start" x="300.1054" y="-51.5" font-family="Helvetica,sans-Serif" font-size="10.00" fill="#000000">/home/travis/build</text>
<text text-anchor="start" x="300.1054" y="-40.5" font-family="Helvetica,sans-Serif" font-size="10.00" fill="#000000">/AliceO2Group/AliceO2</text>
<text text-anchor="start" x="300.1054" y="-29.5" font-family="Helvetica,sans-Serif" font-size="10.00" fill="#000000">/Detectors/MUON/MCH/Raw</text>
<text text-anchor="start" x="300.1054" y="-18.5" font-family="Helvetica,sans-Serif" font-size="10.00" fill="#000000">/Decoder/src/testUserLogicEndpoint</text>
<text text-anchor="middle" x="387.1054" y="-7.5" font-family="Helvetica,sans-Serif" font-size="10.00" fill="#000000">Decoder.cxx</text>
</a>
</g>
</g>
<!-- Node21&#45;&gt;Node26 -->
<g id="edge8" class="edge">
<title>Node21&#45;&gt;Node26</title>
<path fill="none" stroke="#191970" d="M486.3939,-269.0396C482.3527,-260.2417 478.364,-250.9086 475.1054,-242 452.6627,-180.6439 465.3901,-158.8916 437.1054,-100 431.0151,-87.3194 422.4613,-74.5868 414.1481,-63.6243"/>
<polygon fill="#191970" stroke="#191970" points="483.3418,-270.7739 490.7677,-278.3308 489.6752,-267.7925 483.3418,-270.7739"/>
</g>
<!-- Node27 -->
<g id="node7" class="node">
<title>Node27</title>
<g id="a_node7"><a xlink:href="../../d2/ddb/testClosureCoDec_8cxx.html" target="_top" xlink:title="/home/travis/build\l/AliceO2Group/AliceO2\l/Detectors/MUON/MCH/Raw\l/test/testClosureCoDec.cxx">
<polygon fill="none" stroke="#000000" points="484.1054,-189.5 484.1054,-241.5 634.1054,-241.5 634.1054,-189.5 484.1054,-189.5"/>
<text text-anchor="start" x="492.1054" y="-229.5" font-family="Helvetica,sans-Serif" font-size="10.00" fill="#000000">/home/travis/build</text>
<text text-anchor="start" x="492.1054" y="-218.5" font-family="Helvetica,sans-Serif" font-size="10.00" fill="#000000">/AliceO2Group/AliceO2</text>
<text text-anchor="start" x="492.1054" y="-207.5" font-family="Helvetica,sans-Serif" font-size="10.00" fill="#000000">/Detectors/MUON/MCH/Raw</text>
<text text-anchor="middle" x="559.1054" y="-196.5" font-family="Helvetica,sans-Serif" font-size="10.00" fill="#000000">/test/testClosureCoDec.cxx</text>
</a>
</g>
</g>
<!-- Node21&#45;&gt;Node27 -->
<g id="edge9" class="edge">
<title>Node21&#45;&gt;Node27</title>
<path fill="none" stroke="#191970" d="M529.44,-269.4112C534.6163,-260.0043 539.9903,-250.238 544.7192,-241.6442"/>
<polygon fill="#191970" stroke="#191970" points="526.3199,-267.8214 524.5653,-278.27 532.4528,-271.1961 526.3199,-267.8214"/>
</g>
<!-- Node28 -->
<g id="node8" class="node">
<title>Node28</title>
<g id="a_node8"><a xlink:href="../../d0/d3e/MCH_2Raw_2Tools_2rawdump_8cxx.html" target="_top" xlink:title="/home/travis/build\l/AliceO2Group/AliceO2\l/Detectors/MUON/MCH/Raw\l/Tools/rawdump.cxx">
<polygon fill="none" stroke="#000000" points="652.1054,-189.5 652.1054,-241.5 802.1054,-241.5 802.1054,-189.5 652.1054,-189.5"/>
<text text-anchor="start" x="660.1054" y="-229.5" font-family="Helvetica,sans-Serif" font-size="10.00" fill="#000000">/home/travis/build</text>
<text text-anchor="start" x="660.1054" y="-218.5" font-family="Helvetica,sans-Serif" font-size="10.00" fill="#000000">/AliceO2Group/AliceO2</text>
<text text-anchor="start" x="660.1054" y="-207.5" font-family="Helvetica,sans-Serif" font-size="10.00" fill="#000000">/Detectors/MUON/MCH/Raw</text>
<text text-anchor="middle" x="727.1054" y="-196.5" font-family="Helvetica,sans-Serif" font-size="10.00" fill="#000000">/Tools/rawdump.cxx</text>
</a>
</g>
</g>
<!-- Node21&#45;&gt;Node28 -->
<g id="edge10" class="edge">
<title>Node21&#45;&gt;Node28</title>
<path fill="none" stroke="#191970" d="M589.9235,-274.4259C615.3282,-263.5134 642.7965,-251.7145 666.4327,-241.5617"/>
<polygon fill="#191970" stroke="#191970" points="588.4749,-271.2388 580.6681,-278.4015 591.2377,-277.6705 588.4749,-271.2388"/>
</g>
<!-- Node29 -->
<g id="node9" class="node">
<title>Node29</title>
<g id="a_node9"><a xlink:href="../../d0/d75/DataDecoderSpec_8cxx.html" target="_top" xlink:title="/home/travis/build\l/AliceO2Group/AliceO2\l/Detectors/MUON/MCH/Workflow\l/src/DataDecoderSpec.cxx">
<polygon fill="none" stroke="#000000" points="820.1054,-189.5 820.1054,-241.5 994.1054,-241.5 994.1054,-189.5 820.1054,-189.5"/>
<text text-anchor="start" x="828.1054" y="-229.5" font-family="Helvetica,sans-Serif" font-size="10.00" fill="#000000">/home/travis/build</text>
<text text-anchor="start" x="828.1054" y="-218.5" font-family="Helvetica,sans-Serif" font-size="10.00" fill="#000000">/AliceO2Group/AliceO2</text>
<text text-anchor="start" x="828.1054" y="-207.5" font-family="Helvetica,sans-Serif" font-size="10.00" fill="#000000">/Detectors/MUON/MCH/Workflow</text>
<text text-anchor="middle" x="907.1054" y="-196.5" font-family="Helvetica,sans-Serif" font-size="10.00" fill="#000000">/src/DataDecoderSpec.cxx</text>
</a>
</g>
</g>
<!-- Node21&#45;&gt;Node29 -->
<g id="edge11" class="edge">
<title>Node21&#45;&gt;Node29</title>
<path fill="none" stroke="#191970" d="M609.9227,-288.3207C668.9581,-275.5435 744.3915,-258.6586 811.1054,-242 814.041,-241.267 817.0239,-240.5103 820.0339,-239.7367"/>
<polygon fill="#191970" stroke="#191970" points="608.8825,-284.9645 599.8464,-290.4961 610.3598,-291.8069 608.8825,-284.9645"/>
</g>
<!-- Node23 -->
<g id="node3" class="node">
<title>Node23</title>
<g id="a_node3"><a xlink:href="../../da/db7/BareGBTDecoder_8h.html" target="_top" xlink:title="/home/travis/build\l/AliceO2Group/AliceO2\l/Detectors/MUON/MCH/Raw\l/Decoder/src/BareGBTDecoder.h">
<polygon fill="none" stroke="#000000" points="18.1054,-100.5 18.1054,-152.5 190.1054,-152.5 190.1054,-100.5 18.1054,-100.5"/>
<text text-anchor="start" x="26.1054" y="-140.5" font-family="Helvetica,sans-Serif" font-size="10.00" fill="#000000">/home/travis/build</text>
<text text-anchor="start" x="26.1054" y="-129.5" font-family="Helvetica,sans-Serif" font-size="10.00" fill="#000000">/AliceO2Group/AliceO2</text>
<text text-anchor="start" x="26.1054" y="-118.5" font-family="Helvetica,sans-Serif" font-size="10.00" fill="#000000">/Detectors/MUON/MCH/Raw</text>
<text text-anchor="middle" x="104.1054" y="-107.5" font-family="Helvetica,sans-Serif" font-size="10.00" fill="#000000">/Decoder/src/BareGBTDecoder.h</text>
</a>
</g>
</g>
<!-- Node22&#45;&gt;Node23 -->
<g id="edge2" class="edge">
<title>Node22&#45;&gt;Node23</title>
<path fill="none" stroke="#191970" d="M246.0369,-185.5276C220.3693,-174.8527 191.6894,-162.9251 166.8654,-152.6011"/>
<polygon fill="#191970" stroke="#191970" points="244.767,-188.79 255.3443,-189.3984 247.455,-182.3267 244.767,-188.79"/>
</g>
<!-- Node25 -->
<g id="node5" class="node">
<title>Node25</title>
<g id="a_node5"><a xlink:href="../../db/d18/UserLogicEndpointDecoder_8h.html" target="_top" xlink:title="/home/travis/build\l/AliceO2Group/AliceO2\l/Detectors/MUON/MCH/Raw\l/Decoder/src/UserLogicEndpointDecoder.h">
<polygon fill="none" stroke="#000000" points="208.1054,-100.5 208.1054,-152.5 428.1054,-152.5 428.1054,-100.5 208.1054,-100.5"/>
<text text-anchor="start" x="216.1054" y="-140.5" font-family="Helvetica,sans-Serif" font-size="10.00" fill="#000000">/home/travis/build</text>
<text text-anchor="start" x="216.1054" y="-129.5" font-family="Helvetica,sans-Serif" font-size="10.00" fill="#000000">/AliceO2Group/AliceO2</text>
<text text-anchor="start" x="216.1054" y="-118.5" font-family="Helvetica,sans-Serif" font-size="10.00" fill="#000000">/Detectors/MUON/MCH/Raw</text>
<text text-anchor="middle" x="318.1054" y="-107.5" font-family="Helvetica,sans-Serif" font-size="10.00" fill="#000000">/Decoder/src/UserLogicEndpointDecoder.h</text>
</a>
</g>
</g>
<!-- Node22&#45;&gt;Node25 -->
<g id="edge4" class="edge">
<title>Node22&#45;&gt;Node25</title>
<path fill="none" stroke="#191970" d="M318.1054,-179.1155C318.1054,-170.2061 318.1054,-160.8475 318.1054,-152.5341"/>
<polygon fill="#191970" stroke="#191970" points="314.6055,-179.2784 318.1054,-189.2784 321.6055,-179.2785 314.6055,-179.2784"/>
</g>
<!-- Node23&#45;&gt;Node24 -->
<g id="edge3" class="edge">
<title>Node23&#45;&gt;Node24</title>
<path fill="none" stroke="#191970" d="M104.1054,-90.1645C104.1054,-79.5577 104.1054,-68.1746 104.1054,-58.3157"/>
<polygon fill="#191970" stroke="#191970" points="100.6055,-90.4273 104.1054,-100.4273 107.6055,-90.4273 100.6055,-90.4273"/>
</g>
<!-- Node25&#45;&gt;Node24 -->
<g id="edge5" class="edge">
<title>Node25&#45;&gt;Node24</title>
<path fill="none" stroke="#191970" d="M249.7973,-96.3359C221.9826,-84.0532 190.1367,-69.9904 163.3268,-58.1515"/>
<polygon fill="#191970" stroke="#191970" points="248.5008,-99.5894 259.0625,-100.4273 251.3286,-93.186 248.5008,-99.5894"/>
</g>
<!-- Node25&#45;&gt;Node26 -->
<g id="edge6" class="edge">
<title>Node25&#45;&gt;Node26</title>
<path fill="none" stroke="#191970" d="M343.1911,-92.1436C349.9745,-82.8533 357.2836,-72.8429 363.9555,-63.7054"/>
<polygon fill="#191970" stroke="#191970" points="340.2129,-90.2871 337.1426,-100.4273 345.8663,-94.415 340.2129,-90.2871"/>
</g>
</g>
</svg>
