<?xml version="1.0" encoding="UTF-8" standalone="no"?>
<!DOCTYPE svg PUBLIC "-//W3C//DTD SVG 1.1//EN"
 "http://www.w3.org/Graphics/SVG/1.1/DTD/svg11.dtd">
<!-- Generated by graphviz version 2.40.1 (20161225.0304)
 -->
<!-- Title: o2::mid::ROFRecord Pages: 1 -->
<svg width="378pt" height="716pt"
 viewBox="0.00 0.00 378.00 716.00" xmlns="http://www.w3.org/2000/svg" xmlns:xlink="http://www.w3.org/1999/xlink">
<g id="graph0" class="graph" transform="scale(1 1) rotate(0) translate(4 712)">
<title>o2::mid::ROFRecord</title>
<!-- Node1 -->
<g id="node1" class="node">
<title>Node1</title>
<polygon fill="#bfbfbf" stroke="#000000" points="188,-.5 188,-90.5 300,-90.5 300,-.5 188,-.5"/>
<text text-anchor="middle" x="244" y="-78.5" font-family="Helvetica,sans-Serif" font-size="10.00" fill="#000000">o2::mid::ROFRecord</text>
<polyline fill="none" stroke="#000000" points="188,-71.5 300,-71.5 "/>
<text text-anchor="middle" x="244" y="-59.5" font-family="Helvetica,sans-Serif" font-size="10.00" fill="#000000"> </text>
<polyline fill="none" stroke="#000000" points="188,-52.5 300,-52.5 "/>
<text text-anchor="start" x="196" y="-40.5" font-family="Helvetica,sans-Serif" font-size="10.00" fill="#000000">+ ROFRecord()</text>
<text text-anchor="start" x="196" y="-29.5" font-family="Helvetica,sans-Serif" font-size="10.00" fill="#000000">+ ROFRecord()</text>
<text text-anchor="start" x="196" y="-18.5" font-family="Helvetica,sans-Serif" font-size="10.00" fill="#000000">+ ROFRecord()</text>
<text text-anchor="start" x="196" y="-7.5" font-family="Helvetica,sans-Serif" font-size="10.00" fill="#000000">+ ClassDefNV()</text>
</g>
<!-- Node2 -->
<g id="node2" class="node">
<title>Node2</title>
<g id="a_node2"><a xlink:href="../../d1/d21/structo2_1_1InteractionRecord.html" target="_top" xlink:title="{o2::InteractionRecord\n||+ InteractionRecord()\l+ InteractionRecord()\l+ InteractionRecord()\l+ InteractionRecord()\l+ clear()\l+ isDummy()\l+ setFromNS()\l+ bc2ns()\l+ operator==()\l+ operator!=()\l+ differenceInBC()\l+ differenceInBCNS()\l+ differenceInBCMS()\l+ toLong()\l+ setFromLong()\l+ operator\&gt;()\l+ operator\&gt;=()\l+ operator\&lt;()\l+ operator\&lt;=()\l+ operator&#45;&#45;()\l+ operator&#45;&#45;()\l+ operator++()\l+ operator++()\l+ operator+=()\l+ operator&#45;=()\l+ operator+=()\l+ operator&#45;=()\l+ operator+()\l+ operator&#45;()\l+ operator+()\l+ operator&#45;()\l+ print()\l+ asString()\l+ ClassDefNV()\l+ bc2ns()\l+ ns2bc()\l}">
<polygon fill="none" stroke="#000000" points="63.5,-149.5 63.5,-591.5 184.5,-591.5 184.5,-149.5 63.5,-149.5"/>
<text text-anchor="middle" x="124" y="-579.5" font-family="Helvetica,sans-Serif" font-size="10.00" fill="#000000">o2::InteractionRecord</text>
<polyline fill="none" stroke="#000000" points="63.5,-572.5 184.5,-572.5 "/>
<text text-anchor="middle" x="124" y="-560.5" font-family="Helvetica,sans-Serif" font-size="10.00" fill="#000000"> </text>
<polyline fill="none" stroke="#000000" points="63.5,-553.5 184.5,-553.5 "/>
<text text-anchor="start" x="71.5" y="-541.5" font-family="Helvetica,sans-Serif" font-size="10.00" fill="#000000">+ InteractionRecord()</text>
<text text-anchor="start" x="71.5" y="-530.5" font-family="Helvetica,sans-Serif" font-size="10.00" fill="#000000">+ InteractionRecord()</text>
<text text-anchor="start" x="71.5" y="-519.5" font-family="Helvetica,sans-Serif" font-size="10.00" fill="#000000">+ InteractionRecord()</text>
<text text-anchor="start" x="71.5" y="-508.5" font-family="Helvetica,sans-Serif" font-size="10.00" fill="#000000">+ InteractionRecord()</text>
<text text-anchor="start" x="71.5" y="-497.5" font-family="Helvetica,sans-Serif" font-size="10.00" fill="#000000">+ clear()</text>
<text text-anchor="start" x="71.5" y="-486.5" font-family="Helvetica,sans-Serif" font-size="10.00" fill="#000000">+ isDummy()</text>
<text text-anchor="start" x="71.5" y="-475.5" font-family="Helvetica,sans-Serif" font-size="10.00" fill="#000000">+ setFromNS()</text>
<text text-anchor="start" x="71.5" y="-464.5" font-family="Helvetica,sans-Serif" font-size="10.00" fill="#000000">+ bc2ns()</text>
<text text-anchor="start" x="71.5" y="-453.5" font-family="Helvetica,sans-Serif" font-size="10.00" fill="#000000">+ operator==()</text>
<text text-anchor="start" x="71.5" y="-442.5" font-family="Helvetica,sans-Serif" font-size="10.00" fill="#000000">+ operator!=()</text>
<text text-anchor="start" x="71.5" y="-431.5" font-family="Helvetica,sans-Serif" font-size="10.00" fill="#000000">+ differenceInBC()</text>
<text text-anchor="start" x="71.5" y="-420.5" font-family="Helvetica,sans-Serif" font-size="10.00" fill="#000000">+ differenceInBCNS()</text>
<text text-anchor="start" x="71.5" y="-409.5" font-family="Helvetica,sans-Serif" font-size="10.00" fill="#000000">+ differenceInBCMS()</text>
<text text-anchor="start" x="71.5" y="-398.5" font-family="Helvetica,sans-Serif" font-size="10.00" fill="#000000">+ toLong()</text>
<text text-anchor="start" x="71.5" y="-387.5" font-family="Helvetica,sans-Serif" font-size="10.00" fill="#000000">+ setFromLong()</text>
<text text-anchor="start" x="71.5" y="-376.5" font-family="Helvetica,sans-Serif" font-size="10.00" fill="#000000">+ operator&gt;()</text>
<text text-anchor="start" x="71.5" y="-365.5" font-family="Helvetica,sans-Serif" font-size="10.00" fill="#000000">+ operator&gt;=()</text>
<text text-anchor="start" x="71.5" y="-354.5" font-family="Helvetica,sans-Serif" font-size="10.00" fill="#000000">+ operator&lt;()</text>
<text text-anchor="start" x="71.5" y="-343.5" font-family="Helvetica,sans-Serif" font-size="10.00" fill="#000000">+ operator&lt;=()</text>
<text text-anchor="start" x="71.5" y="-332.5" font-family="Helvetica,sans-Serif" font-size="10.00" fill="#000000">+ operator&#45;&#45;()</text>
<text text-anchor="start" x="71.5" y="-321.5" font-family="Helvetica,sans-Serif" font-size="10.00" fill="#000000">+ operator&#45;&#45;()</text>
<text text-anchor="start" x="71.5" y="-310.5" font-family="Helvetica,sans-Serif" font-size="10.00" fill="#000000">+ operator++()</text>
<text text-anchor="start" x="71.5" y="-299.5" font-family="Helvetica,sans-Serif" font-size="10.00" fill="#000000">+ operator++()</text>
<text text-anchor="start" x="71.5" y="-288.5" font-family="Helvetica,sans-Serif" font-size="10.00" fill="#000000">+ operator+=()</text>
<text text-anchor="start" x="71.5" y="-277.5" font-family="Helvetica,sans-Serif" font-size="10.00" fill="#000000">+ operator&#45;=()</text>
<text text-anchor="start" x="71.5" y="-266.5" font-family="Helvetica,sans-Serif" font-size="10.00" fill="#000000">+ operator+=()</text>
<text text-anchor="start" x="71.5" y="-255.5" font-family="Helvetica,sans-Serif" font-size="10.00" fill="#000000">+ operator&#45;=()</text>
<text text-anchor="start" x="71.5" y="-244.5" font-family="Helvetica,sans-Serif" font-size="10.00" fill="#000000">+ operator+()</text>
<text text-anchor="start" x="71.5" y="-233.5" font-family="Helvetica,sans-Serif" font-size="10.00" fill="#000000">+ operator&#45;()</text>
<text text-anchor="start" x="71.5" y="-222.5" font-family="Helvetica,sans-Serif" font-size="10.00" fill="#000000">+ operator+()</text>
<text text-anchor="start" x="71.5" y="-211.5" font-family="Helvetica,sans-Serif" font-size="10.00" fill="#000000">+ operator&#45;()</text>
<text text-anchor="start" x="71.5" y="-200.5" font-family="Helvetica,sans-Serif" font-size="10.00" fill="#000000">+ print()</text>
<text text-anchor="start" x="71.5" y="-189.5" font-family="Helvetica,sans-Serif" font-size="10.00" fill="#000000">+ asString()</text>
<text text-anchor="start" x="71.5" y="-178.5" font-family="Helvetica,sans-Serif" font-size="10.00" fill="#000000">+ ClassDefNV()</text>
<text text-anchor="start" x="71.5" y="-167.5" font-family="Helvetica,sans-Serif" font-size="10.00" fill="#000000">+ bc2ns()</text>
<text text-anchor="start" x="71.5" y="-156.5" font-family="Helvetica,sans-Serif" font-size="10.00" fill="#000000">+ ns2bc()</text>
</a>
</g>
</g>
<!-- Node2&#45;&gt;Node1 -->
<g id="edge1" class="edge">
<title>Node2&#45;&gt;Node1</title>
<path fill="none" stroke="#404040" d="M124.8448,-149.2422C129.4825,-135.1462 135.4396,-121.5833 143,-109 151.288,-95.2058 163.8484,-83.9356 177.3244,-74.9279"/>
<polygon fill="none" stroke="#404040" points="177.5476,-74.7899 180.5456,-68.2315 187.7525,-68.4764 184.7546,-75.0348 177.5476,-74.7899"/>
<text text-anchor="middle" x="191.5" y="-117.5" font-family="Helvetica,sans-Serif" font-size="10.00" fill="#000000"> +interactionRecord</text>
</g>
<!-- Node3 -->
<g id="node3" class="node">
<title>Node3</title>
<polygon fill="none" stroke="#bfbfbf" points="0,-650.5 0,-707.5 50,-707.5 50,-650.5 0,-650.5"/>
<text text-anchor="middle" x="25" y="-695.5" font-family="Helvetica,sans-Serif" font-size="10.00" fill="#000000">double</text>
<polyline fill="none" stroke="#bfbfbf" points="0,-688.5 50,-688.5 "/>
<text text-anchor="middle" x="25" y="-676.5" font-family="Helvetica,sans-Serif" font-size="10.00" fill="#000000"> </text>
<polyline fill="none" stroke="#bfbfbf" points="0,-669.5 50,-669.5 "/>
<text text-anchor="middle" x="25" y="-657.5" font-family="Helvetica,sans-Serif" font-size="10.00" fill="#000000"> </text>
</g>
<!-- Node3&#45;&gt;Node2 -->
<g id="edge2" class="edge">
<title>Node3&#45;&gt;Node2</title>
<path fill="none" stroke="#404040" d="M32.5154,-650.3657C35.8775,-637.9184 39.9831,-623.1938 44,-610 48.9536,-593.7295 54.2432,-576.8899 59.6532,-560.0274"/>
<polygon fill="none" stroke="#404040" points="59.7336,-559.7777 57.7672,-552.8399 63.4151,-548.3564 65.3815,-555.2942 59.7336,-559.7777"/>
<text text-anchor="middle" x="82" y="-618.5" font-family="Helvetica,sans-Serif" font-size="10.00" fill="#000000"> +DummyTime</text>
</g>
<!-- Node4 -->
<g id="node4" class="node">
<title>Node4</title>
<polygon fill="none" stroke="#bfbfbf" points="96,-650.5 96,-707.5 152,-707.5 152,-650.5 96,-650.5"/>
<text text-anchor="middle" x="124" y="-695.5" font-family="Helvetica,sans-Serif" font-size="10.00" fill="#000000">uint16_t</text>
<polyline fill="none" stroke="#bfbfbf" points="96,-688.5 152,-688.5 "/>
<text text-anchor="middle" x="124" y="-676.5" font-family="Helvetica,sans-Serif" font-size="10.00" fill="#000000"> </text>
<polyline fill="none" stroke="#bfbfbf" points="96,-669.5 152,-669.5 "/>
<text text-anchor="middle" x="124" y="-657.5" font-family="Helvetica,sans-Serif" font-size="10.00" fill="#000000"> </text>
</g>
<!-- Node4&#45;&gt;Node2 -->
<g id="edge3" class="edge">
<title>Node4&#45;&gt;Node2</title>
<path fill="none" stroke="#404040" d="M124,-650.2541C124,-637.6771 124,-621.6862 124,-603.7419"/>
<polygon fill="none" stroke="#404040" points="124.0001,-603.6841 120,-597.6842 124,-591.6841 128,-597.6841 124.0001,-603.6841"/>
<text text-anchor="middle" x="156" y="-624" font-family="Helvetica,sans-Serif" font-size="10.00" fill="#000000"> +DummyBC</text>
<text text-anchor="middle" x="156" y="-613" font-family="Helvetica,sans-Serif" font-size="10.00" fill="#000000">+bc</text>
</g>
<!-- Node5 -->
<g id="node5" class="node">
<title>Node5</title>
<g id="a_node5"><a xlink:href="../../d3/d87/classuint32__t.html" target="_top" xlink:title="{uint32_t\n||}">
<polygon fill="none" stroke="#000000" points="183,-650.5 183,-707.5 239,-707.5 239,-650.5 183,-650.5"/>
<text text-anchor="middle" x="211" y="-695.5" font-family="Helvetica,sans-Serif" font-size="10.00" fill="#000000">uint32_t</text>
<polyline fill="none" stroke="#000000" points="183,-688.5 239,-688.5 "/>
<text text-anchor="middle" x="211" y="-676.5" font-family="Helvetica,sans-Serif" font-size="10.00" fill="#000000"> </text>
<polyline fill="none" stroke="#000000" points="183,-669.5 239,-669.5 "/>
<text text-anchor="middle" x="211" y="-657.5" font-family="Helvetica,sans-Serif" font-size="10.00" fill="#000000"> </text>
</a>
</g>
</g>
<!-- Node5&#45;&gt;Node2 -->
<g id="edge4" class="edge">
<title>Node5&#45;&gt;Node2</title>
<path fill="none" stroke="#404040" d="M202.8934,-650.2541C198.9071,-636.1188 193.7047,-617.6712 187.8709,-596.9847"/>
<polygon fill="none" stroke="#404040" points="187.8258,-596.8246 182.3474,-592.1356 184.5687,-585.2751 190.0471,-589.9641 187.8258,-596.8246"/>
<text text-anchor="middle" x="232" y="-624" font-family="Helvetica,sans-Serif" font-size="10.00" fill="#000000"> +orbit</text>
<text text-anchor="middle" x="232" y="-613" font-family="Helvetica,sans-Serif" font-size="10.00" fill="#000000">+DummyOrbit</text>
</g>
<!-- Node6 -->
<g id="node6" class="node">
<title>Node6</title>
<polygon fill="none" stroke="#bfbfbf" points="221.5,-342 221.5,-399 266.5,-399 266.5,-342 221.5,-342"/>
<text text-anchor="middle" x="244" y="-387" font-family="Helvetica,sans-Serif" font-size="10.00" fill="#000000">size_t</text>
<polyline fill="none" stroke="#bfbfbf" points="221.5,-380 266.5,-380 "/>
<text text-anchor="middle" x="244" y="-368" font-family="Helvetica,sans-Serif" font-size="10.00" fill="#000000"> </text>
<polyline fill="none" stroke="#bfbfbf" points="221.5,-361 266.5,-361 "/>
<text text-anchor="middle" x="244" y="-349" font-family="Helvetica,sans-Serif" font-size="10.00" fill="#000000"> </text>
</g>
<!-- Node6&#45;&gt;Node1 -->
<g id="edge5" class="edge">
<title>Node6&#45;&gt;Node1</title>
<path fill="none" stroke="#404040" d="M244,-341.9433C244,-288.536 244,-172.6205 244,-102.6079"/>
<polygon fill="none" stroke="#404040" points="244.0001,-102.5168 240,-96.5168 244,-90.5168 248,-96.5168 244.0001,-102.5168"/>
<text text-anchor="middle" x="272" y="-123" font-family="Helvetica,sans-Serif" font-size="10.00" fill="#000000"> +firstEntry</text>
<text text-anchor="middle" x="272" y="-112" font-family="Helvetica,sans-Serif" font-size="10.00" fill="#000000">+nEntries</text>
</g>
<!-- Node7 -->
<g id="node7" class="node">
<title>Node7</title>
<polygon fill="none" stroke="#bfbfbf" points="289.5,-342 289.5,-399 356.5,-399 356.5,-342 289.5,-342"/>
<text text-anchor="middle" x="323" y="-387" font-family="Helvetica,sans-Serif" font-size="10.00" fill="#000000">EventType</text>
<polyline fill="none" stroke="#bfbfbf" points="289.5,-380 356.5,-380 "/>
<text text-anchor="middle" x="323" y="-368" font-family="Helvetica,sans-Serif" font-size="10.00" fill="#000000"> </text>
<polyline fill="none" stroke="#bfbfbf" points="289.5,-361 356.5,-361 "/>
<text text-anchor="middle" x="323" y="-349" font-family="Helvetica,sans-Serif" font-size="10.00" fill="#000000"> </text>
</g>
<!-- Node7&#45;&gt;Node1 -->
<g id="edge6" class="edge">
<title>Node7&#45;&gt;Node1</title>
<path fill="none" stroke="#404040" d="M326.3204,-341.9901C330.8855,-292.3557 335.0529,-187.8402 301,-109 299.7921,-106.2035 298.4106,-103.4466 296.891,-100.7409"/>
<polygon fill="none" stroke="#404040" points="296.8681,-100.7049 290.2709,-97.7933 290.4212,-90.5837 297.0184,-93.4953 296.8681,-100.7049"/>
<text text-anchor="middle" x="339" y="-117.5" font-family="Helvetica,sans-Serif" font-size="10.00" fill="#000000"> +eventType</text>
</g>
</g>
</svg>
