<?xml version="1.0" encoding="UTF-8" standalone="no"?>
<!DOCTYPE svg PUBLIC "-//W3C//DTD SVG 1.1//EN"
 "http://www.w3.org/Graphics/SVG/1.1/DTD/svg11.dtd">
<!-- Generated by graphviz version 2.40.1 (20161225.0304)
 -->
<!-- Title: /home/travis/build/AliceO2Group/AliceO2/GPU/GPUTracking/Interface/GPUO2InterfaceConfigurableParam.h Pages: 1 -->
<!--zoomable 486 -->
<svg id="main" version="1.1" xmlns="http://www.w3.org/2000/svg" xmlns:xlink="http://www.w3.org/1999/xlink" xml:space="preserve" onload="init(evt)">
<style type="text/css"><![CDATA[
.edge:hover path { stroke: red; }
.edge:hover polygon { stroke: red; fill: red; }
]]></style>
<script type="text/javascript"><![CDATA[
var edges = document.getElementsByTagName('g');
if (edges && edges.length) {
  for (var i=0;i<edges.length;i++) {
    if (edges[i].id.substr(0,4)=='edge') {
      edges[i].setAttribute('class','edge');
    }
  }
}
]]></script>
        <defs>
                <circle id="rim" cx="0" cy="0" r="7"/>
                <circle id="rim2" cx="0" cy="0" r="3.5"/>
                <g id="zoomPlus">
                        <use xlink:href="#rim" fill="#404040">
                                <set attributeName="fill" to="#808080" begin="zoomplus.mouseover" end="zoomplus.mouseout"/>
                        </use>
                        <path d="M-4,0h8M0,-4v8" fill="none" stroke="white" stroke-width="1.5" pointer-events="none"/>
                </g>
                <g id="zoomMin">
                        <use xlink:href="#rim" fill="#404040">
                                <set attributeName="fill" to="#808080" begin="zoomminus.mouseover" end="zoomminus.mouseout"/>
                        </use>
                        <path d="M-4,0h8" fill="none" stroke="white" stroke-width="1.5" pointer-events="none"/>
                </g>
                <g id="dirArrow">
                        <path fill="none" stroke="white" stroke-width="1.5" d="M0,-3.0v7 M-2.5,-0.5L0,-3.0L2.5,-0.5"/>
                </g>
               <g id="resetDef">
                       <use xlink:href="#rim2" fill="#404040">
                               <set attributeName="fill" to="#808080" begin="reset.mouseover" end="reset.mouseout"/>
                       </use>
               </g>
        </defs>

<script type="text/javascript">
var viewWidth = 797;
var viewHeight = 486;
var sectionId = 'dynsection-0';
</script>
<script xlink:href="../../svgpan.js"/>
<svg id="graph" class="graph">
<g id="viewport">
<title>/home/travis/build/AliceO2Group/AliceO2/GPU/GPUTracking/Interface/GPUO2InterfaceConfigurableParam.h</title>
<!-- Node0 -->
<g id="node1" class="node">
<title>Node0</title>
<polygon fill="#bfbfbf" stroke="#000000" points="297.5,-425.5 297.5,-477.5 496.5,-477.5 496.5,-425.5 297.5,-425.5"/>
<text text-anchor="start" x="305.5" y="-465.5" font-family="Helvetica,sans-Serif" font-size="10.00" fill="#000000">/home/travis/build</text>
<text text-anchor="start" x="305.5" y="-454.5" font-family="Helvetica,sans-Serif" font-size="10.00" fill="#000000">/AliceO2Group/AliceO2</text>
<text text-anchor="start" x="305.5" y="-443.5" font-family="Helvetica,sans-Serif" font-size="10.00" fill="#000000">/GPU/GPUTracking/Interface</text>
<text text-anchor="middle" x="397" y="-432.5" font-family="Helvetica,sans-Serif" font-size="10.00" fill="#000000">/GPUO2InterfaceConfigurableParam.h</text>
</g>
<!-- Node1 -->
<g id="node2" class="node">
<title>Node1</title>
<g id="a_node2"><a xlink:href="../../db/d2c/ConfigurableParam_8h.html" target="_top" xlink:title="CommonUtils/Configurable\lParam.h">
<polygon fill="none" stroke="#000000" points="374,-291.5 374,-321.5 522,-321.5 522,-291.5 374,-291.5"/>
<text text-anchor="start" x="382" y="-309.5" font-family="Helvetica,sans-Serif" font-size="10.00" fill="#000000">CommonUtils/Configurable</text>
<text text-anchor="middle" x="448" y="-298.5" font-family="Helvetica,sans-Serif" font-size="10.00" fill="#000000">Param.h</text>
</a>
</g>
</g>
<!-- Node0&#45;&gt;Node1 -->
<g id="edge1" class="edge">
<title>Node0&#45;&gt;Node1</title>
<path fill="none" stroke="#191970" d="M406.2357,-425.2416C415.6118,-398.584 430.0229,-357.6114 439.2285,-331.4387"/>
<polygon fill="#191970" stroke="#191970" points="442.579,-332.4612 442.5953,-321.8663 435.9755,-330.1385 442.579,-332.4612"/>
</g>
<!-- Node2 -->
<g id="node3" class="node">
<title>Node2</title>
<polygon fill="none" stroke="#bfbfbf" points="284.5,-230 284.5,-249 331.5,-249 331.5,-230 284.5,-230"/>
<text text-anchor="middle" x="308" y="-237" font-family="Helvetica,sans-Serif" font-size="10.00" fill="#000000">vector</text>
</g>
<!-- Node0&#45;&gt;Node2 -->
<g id="edge27" class="edge">
<title>Node0&#45;&gt;Node2</title>
<path fill="none" stroke="#191970" d="M385.908,-425.0787C367.6781,-381.6547 331.8207,-296.2415 315.9176,-258.36"/>
<polygon fill="#191970" stroke="#191970" points="319.0906,-256.8759 311.9925,-249.0102 312.6363,-259.5855 319.0906,-256.8759"/>
</g>
<!-- Node8 -->
<g id="node9" class="node">
<title>Node8</title>
<g id="a_node9"><a xlink:href="../../da/d6b/ConfigurableParamHelper_8h.html" target="_top" xlink:title="CommonUtils/Configurable\lParamHelper.h">
<polygon fill="none" stroke="#000000" points="476,-358.5 476,-388.5 624,-388.5 624,-358.5 476,-358.5"/>
<text text-anchor="start" x="484" y="-376.5" font-family="Helvetica,sans-Serif" font-size="10.00" fill="#000000">CommonUtils/Configurable</text>
<text text-anchor="middle" x="550" y="-365.5" font-family="Helvetica,sans-Serif" font-size="10.00" fill="#000000">ParamHelper.h</text>
</a>
</g>
</g>
<!-- Node0&#45;&gt;Node8 -->
<g id="edge8" class="edge">
<title>Node0&#45;&gt;Node8</title>
<path fill="none" stroke="#191970" d="M448.3724,-425.3101C468.9633,-414.8128 492.2864,-402.9226 511.3914,-393.1828"/>
<polygon fill="#191970" stroke="#191970" points="513.0815,-396.2498 520.4009,-388.5897 509.9022,-390.0135 513.0815,-396.2498"/>
</g>
<!-- Node12 -->
<g id="node13" class="node">
<title>Node12</title>
<g id="a_node13"><a xlink:href="../../dd/dc6/GPUSettings_8h.html" target="_top" xlink:title="GPUSettings.h">
<polygon fill="none" stroke="#000000" points="190,-364 190,-383 276,-383 276,-364 190,-364"/>
<text text-anchor="middle" x="233" y="-371" font-family="Helvetica,sans-Serif" font-size="10.00" fill="#000000">GPUSettings.h</text>
</a>
</g>
</g>
<!-- Node0&#45;&gt;Node12 -->
<g id="edge14" class="edge">
<title>Node0&#45;&gt;Node12</title>
<path fill="none" stroke="#191970" d="M341.9341,-425.3101C315.3468,-412.665 284.5097,-397.9985 262.4457,-387.5046"/>
<polygon fill="#191970" stroke="#191970" points="263.8029,-384.2745 253.269,-383.1401 260.7963,-390.596 263.8029,-384.2745"/>
</g>
<!-- Node19 -->
<g id="node20" class="node">
<title>Node19</title>
<g id="a_node20"><a xlink:href="../../d4/d57/GPUSettingsList_8h.html" target="_top" xlink:title="GPUSettingsList.h">
<polygon fill="none" stroke="#000000" points="42,-168.5 42,-187.5 146,-187.5 146,-168.5 42,-168.5"/>
<text text-anchor="middle" x="94" y="-175.5" font-family="Helvetica,sans-Serif" font-size="10.00" fill="#000000">GPUSettingsList.h</text>
</a>
</g>
</g>
<!-- Node0&#45;&gt;Node19 -->
<g id="edge28" class="edge">
<title>Node0&#45;&gt;Node19</title>
<path fill="none" stroke="#191970" d="M297.4297,-436.7198C225.22,-420.7416 130.8006,-388.0492 75,-322 45.7664,-287.3973 29.4403,-265.7565 47,-224 51.9978,-212.1153 61.7314,-201.765 71.0503,-193.908"/>
<polygon fill="#191970" stroke="#191970" points="73.2957,-196.5951 79.0035,-187.6692 68.9752,-191.0874 73.2957,-196.5951"/>
</g>
<!-- Node21 -->
<g id="node22" class="node">
<title>Node21</title>
<g id="a_node22"><a xlink:href="../../d6/dff/GPUDefMacros_8h.html" target="_top" xlink:title="GPUDefMacros.h">
<polygon fill="none" stroke="#000000" points="642,-364 642,-383 740,-383 740,-364 642,-364"/>
<text text-anchor="middle" x="691" y="-371" font-family="Helvetica,sans-Serif" font-size="10.00" fill="#000000">GPUDefMacros.h</text>
</a>
</g>
</g>
<!-- Node0&#45;&gt;Node21 -->
<g id="edge26" class="edge">
<title>Node0&#45;&gt;Node21</title>
<path fill="none" stroke="#191970" d="M495.4742,-425.4739C537.8081,-414.2717 587.8416,-401.0137 633,-389 637.0793,-387.9147 641.3196,-386.7849 645.5678,-385.6518"/>
<polygon fill="#191970" stroke="#191970" points="646.6634,-388.982 655.4224,-383.0213 644.858,-382.2188 646.6634,-388.982"/>
</g>
<!-- Node1&#45;&gt;Node2 -->
<g id="edge2" class="edge">
<title>Node1&#45;&gt;Node2</title>
<path fill="none" stroke="#191970" d="M416.5813,-291.4639C392.7736,-280.0702 360.3071,-264.5327 337.0905,-253.4219"/>
<polygon fill="#191970" stroke="#191970" points="338.5991,-250.2637 328.0679,-249.1039 335.5772,-256.5779 338.5991,-250.2637"/>
</g>
<!-- Node3 -->
<g id="node4" class="node">
<title>Node3</title>
<polygon fill="none" stroke="#bfbfbf" points="428,-230 428,-249 466,-249 466,-230 428,-230"/>
<text text-anchor="middle" x="447" y="-237" font-family="Helvetica,sans-Serif" font-size="10.00" fill="#000000">map</text>
</g>
<!-- Node1&#45;&gt;Node3 -->
<g id="edge3" class="edge">
<title>Node1&#45;&gt;Node3</title>
<path fill="none" stroke="#191970" d="M447.7731,-291.2967C447.6309,-281.7699 447.4462,-269.3954 447.293,-259.1306"/>
<polygon fill="#191970" stroke="#191970" points="450.7916,-259.0016 447.1426,-249.055 443.7923,-259.1061 450.7916,-259.0016"/>
</g>
<!-- Node4 -->
<g id="node5" class="node">
<title>Node4</title>
<polygon fill="none" stroke="#bfbfbf" points="484.5,-230 484.5,-249 577.5,-249 577.5,-230 484.5,-230"/>
<text text-anchor="middle" x="531" y="-237" font-family="Helvetica,sans-Serif" font-size="10.00" fill="#000000">unordered_map</text>
</g>
<!-- Node1&#45;&gt;Node4 -->
<g id="edge4" class="edge">
<title>Node1&#45;&gt;Node4</title>
<path fill="none" stroke="#191970" d="M466.834,-291.2967C480.0169,-280.6551 497.6015,-266.4602 511.0284,-255.6217"/>
<polygon fill="#191970" stroke="#191970" points="513.5805,-258.0596 519.1632,-249.055 509.1836,-252.6128 513.5805,-258.0596"/>
</g>
<!-- Node5 -->
<g id="node6" class="node">
<title>Node5</title>
<polygon fill="none" stroke="#bfbfbf" points="595.5,-224.5 595.5,-254.5 708.5,-254.5 708.5,-224.5 595.5,-224.5"/>
<text text-anchor="start" x="603.5" y="-242.5" font-family="Helvetica,sans-Serif" font-size="10.00" fill="#000000">boost/property_tree</text>
<text text-anchor="middle" x="652" y="-231.5" font-family="Helvetica,sans-Serif" font-size="10.00" fill="#000000">/ptree.hpp</text>
</g>
<!-- Node1&#45;&gt;Node5 -->
<g id="edge5" class="edge">
<title>Node1&#45;&gt;Node5</title>
<path fill="none" stroke="#191970" d="M493.7816,-291.4639C524.1226,-281.499 564.1149,-268.3642 596.3002,-257.7936"/>
<polygon fill="#191970" stroke="#191970" points="597.6102,-261.0473 606.0187,-254.6017 595.4259,-254.3968 597.6102,-261.0473"/>
</g>
<!-- Node6 -->
<g id="node7" class="node">
<title>Node6</title>
<polygon fill="none" stroke="#bfbfbf" points="726.5,-230 726.5,-249 783.5,-249 783.5,-230 726.5,-230"/>
<text text-anchor="middle" x="755" y="-237" font-family="Helvetica,sans-Serif" font-size="10.00" fill="#000000">typeinfo</text>
</g>
<!-- Node1&#45;&gt;Node6 -->
<g id="edge6" class="edge">
<title>Node1&#45;&gt;Node6</title>
<path fill="none" stroke="#191970" d="M522.3132,-293.1463C595.6504,-279.8353 699.4376,-260.5917 718,-255 720.1673,-254.3471 722.3806,-253.6102 724.5933,-252.8211"/>
<polygon fill="#191970" stroke="#191970" points="726.082,-255.9981 734.1461,-249.1263 723.5568,-249.4694 726.082,-255.9981"/>
</g>
<!-- Node7 -->
<g id="node8" class="node">
<title>Node7</title>
<polygon fill="none" stroke="#bfbfbf" points="350,-230 350,-249 410,-249 410,-230 350,-230"/>
<text text-anchor="middle" x="380" y="-237" font-family="Helvetica,sans-Serif" font-size="10.00" fill="#000000">iostream</text>
</g>
<!-- Node1&#45;&gt;Node7 -->
<g id="edge7" class="edge">
<title>Node1&#45;&gt;Node7</title>
<path fill="none" stroke="#191970" d="M432.5697,-291.2967C421.975,-280.8578 407.9101,-266.9997 396.9946,-256.2446"/>
<polygon fill="#191970" stroke="#191970" points="399.2773,-253.5804 389.6976,-249.055 394.3644,-258.5666 399.2773,-253.5804"/>
</g>
<!-- Node8&#45;&gt;Node1 -->
<g id="edge9" class="edge">
<title>Node8&#45;&gt;Node1</title>
<path fill="none" stroke="#191970" d="M527.1092,-358.4639C513.1648,-349.3044 495.1433,-337.4667 479.8238,-327.4038"/>
<polygon fill="#191970" stroke="#191970" points="481.447,-324.2826 471.1673,-321.7177 477.6039,-330.1333 481.447,-324.2826"/>
</g>
<!-- Node8&#45;&gt;Node6 -->
<g id="edge12" class="edge">
<title>Node8&#45;&gt;Node6</title>
<path fill="none" stroke="#191970" d="M549.2595,-358.4736C549.2133,-340.0093 552.0825,-308.9314 570,-291 617.8496,-243.1134 653.6911,-276.1443 718,-255 720.0965,-254.3107 722.2408,-253.5546 724.3891,-252.7587"/>
<polygon fill="#191970" stroke="#191970" points="725.6705,-256.0157 733.6962,-249.0991 723.109,-249.5012 725.6705,-256.0157"/>
</g>
<!-- Node9 -->
<g id="node10" class="node">
<title>Node9</title>
<polygon fill="none" stroke="#bfbfbf" points="578.5,-297 578.5,-316 635.5,-316 635.5,-297 578.5,-297"/>
<text text-anchor="middle" x="607" y="-304" font-family="Helvetica,sans-Serif" font-size="10.00" fill="#000000">TClass.h</text>
</g>
<!-- Node8&#45;&gt;Node9 -->
<g id="edge10" class="edge">
<title>Node8&#45;&gt;Node9</title>
<path fill="none" stroke="#191970" d="M562.9342,-358.2967C571.6426,-348.0605 583.148,-334.5366 592.2186,-323.8746"/>
<polygon fill="#191970" stroke="#191970" points="595.0571,-325.9395 598.8711,-316.055 589.7255,-321.4036 595.0571,-325.9395"/>
</g>
<!-- Node10 -->
<g id="node11" class="node">
<title>Node10</title>
<polygon fill="none" stroke="#bfbfbf" points="653.5,-297 653.5,-316 722.5,-316 722.5,-297 653.5,-297"/>
<text text-anchor="middle" x="688" y="-304" font-family="Helvetica,sans-Serif" font-size="10.00" fill="#000000">type_traits</text>
</g>
<!-- Node8&#45;&gt;Node10 -->
<g id="edge11" class="edge">
<title>Node8&#45;&gt;Node10</title>
<path fill="none" stroke="#191970" d="M580.9699,-358.4639C604.3331,-347.1209 636.1559,-331.6707 659.0194,-320.5703"/>
<polygon fill="#191970" stroke="#191970" points="660.7516,-323.62 668.2188,-316.1039 657.6943,-317.323 660.7516,-323.62"/>
</g>
<!-- Node11 -->
<g id="node12" class="node">
<title>Node11</title>
<polygon fill="none" stroke="#bfbfbf" points="741,-297 741,-316 789,-316 789,-297 741,-297"/>
<text text-anchor="middle" x="765" y="-304" font-family="Helvetica,sans-Serif" font-size="10.00" fill="#000000">TFile.h</text>
</g>
<!-- Node8&#45;&gt;Node11 -->
<g id="edge13" class="edge">
<title>Node8&#45;&gt;Node11</title>
<path fill="none" stroke="#191970" d="M612.7256,-358.4546C648.1897,-349.279 693.0855,-336.5337 732,-322 733.5899,-321.4062 735.2087,-320.7668 736.833,-320.0978"/>
<polygon fill="#191970" stroke="#191970" points="738.2854,-323.2826 746.0319,-316.0547 735.4688,-316.8743 738.2854,-323.2826"/>
</g>
<!-- Node12&#45;&gt;Node2 -->
<g id="edge18" class="edge">
<title>Node12&#45;&gt;Node2</title>
<path fill="none" stroke="#191970" d="M247.7155,-363.8619C260.5854,-354.6483 278.7733,-339.5832 289,-322 300.3355,-302.5105 304.9083,-276.7556 306.7529,-259.2417"/>
<polygon fill="#191970" stroke="#191970" points="310.2578,-259.3312 307.6148,-249.0714 303.2828,-258.7401 310.2578,-259.3312"/>
</g>
<!-- Node13 -->
<g id="node14" class="node">
<title>Node13</title>
<g id="a_node14"><a xlink:href="../../df/d21/GPUCommonDef_8h.html" target="_top" xlink:title="GPUCommonDef.h">
<polygon fill="none" stroke="#000000" points="97.5,-56.5 97.5,-75.5 204.5,-75.5 204.5,-56.5 97.5,-56.5"/>
<text text-anchor="middle" x="151" y="-63.5" font-family="Helvetica,sans-Serif" font-size="10.00" fill="#000000">GPUCommonDef.h</text>
</a>
</g>
</g>
<!-- Node12&#45;&gt;Node13 -->
<g id="edge15" class="edge">
<title>Node12&#45;&gt;Node13</title>
<path fill="none" stroke="#191970" d="M229.9345,-363.8635C223.2588,-341.9942 208,-286.8306 208,-239.5 208,-239.5 208,-239.5 208,-178 208,-147.3494 202.3115,-139.1042 188,-112 182.5445,-101.6681 174.6106,-91.4161 167.4875,-83.2217"/>
<polygon fill="#191970" stroke="#191970" points="170.0624,-80.8508 160.7564,-75.7864 164.873,-85.5488 170.0624,-80.8508"/>
</g>
<!-- Node16 -->
<g id="node17" class="node">
<title>Node16</title>
<polygon fill="none" stroke="#bfbfbf" points="236,-297 236,-316 280,-316 280,-297 236,-297"/>
<text text-anchor="middle" x="258" y="-304" font-family="Helvetica,sans-Serif" font-size="10.00" fill="#000000">string</text>
</g>
<!-- Node12&#45;&gt;Node16 -->
<g id="edge19" class="edge">
<title>Node12&#45;&gt;Node16</title>
<path fill="none" stroke="#191970" d="M236.5819,-363.9005C240.2948,-353.95 246.198,-338.1292 250.8676,-325.6147"/>
<polygon fill="#191970" stroke="#191970" points="254.2079,-326.6743 254.4248,-316.0817 247.6496,-324.2271 254.2079,-326.6743"/>
</g>
<!-- Node17 -->
<g id="node18" class="node">
<title>Node17</title>
<g id="a_node18"><a xlink:href="../../da/d08/qconfig_8h.html" target="_top" xlink:title="utils/qconfig.h">
<polygon fill="none" stroke="#000000" points="94.5,-297 94.5,-316 179.5,-316 179.5,-297 94.5,-297"/>
<text text-anchor="middle" x="137" y="-304" font-family="Helvetica,sans-Serif" font-size="10.00" fill="#000000">utils/qconfig.h</text>
</a>
</g>
</g>
<!-- Node12&#45;&gt;Node17 -->
<g id="edge20" class="edge">
<title>Node12&#45;&gt;Node17</title>
<path fill="none" stroke="#191970" d="M219.2455,-363.9005C203.5623,-352.9549 177.7017,-334.9064 159.1642,-321.9688"/>
<polygon fill="#191970" stroke="#191970" points="160.9324,-318.9347 150.7289,-316.0817 156.9262,-324.675 160.9324,-318.9347"/>
</g>
<!-- Node14 -->
<g id="node15" class="node">
<title>Node14</title>
<g id="a_node15"><a xlink:href="../../d5/d93/GPUCommonDefSettings_8h.html" target="_top" xlink:title="GPUCommonDefSettings.h">
<polygon fill="none" stroke="#000000" points="0,-.5 0,-19.5 148,-19.5 148,-.5 0,-.5"/>
<text text-anchor="middle" x="74" y="-7.5" font-family="Helvetica,sans-Serif" font-size="10.00" fill="#000000">GPUCommonDefSettings.h</text>
</a>
</g>
</g>
<!-- Node13&#45;&gt;Node14 -->
<g id="edge16" class="edge">
<title>Node13&#45;&gt;Node14</title>
<path fill="none" stroke="#191970" d="M137.5876,-56.2455C125.9943,-47.814 109.0252,-35.4729 95.5322,-25.6598"/>
<polygon fill="#191970" stroke="#191970" points="97.4047,-22.6938 87.2587,-19.6427 93.2874,-28.355 97.4047,-22.6938"/>
</g>
<!-- Node15 -->
<g id="node16" class="node">
<title>Node15</title>
<g id="a_node16"><a xlink:href="../../da/d5a/GPUCommonDefAPI_8h.html" target="_top" xlink:title="GPUCommonDefAPI.h">
<polygon fill="none" stroke="#000000" points="166,-.5 166,-19.5 290,-19.5 290,-.5 166,-.5"/>
<text text-anchor="middle" x="228" y="-7.5" font-family="Helvetica,sans-Serif" font-size="10.00" fill="#000000">GPUCommonDefAPI.h</text>
</a>
</g>
</g>
<!-- Node13&#45;&gt;Node15 -->
<g id="edge17" class="edge">
<title>Node13&#45;&gt;Node15</title>
<path fill="none" stroke="#191970" d="M164.4124,-56.2455C176.0057,-47.814 192.9748,-35.4729 206.4678,-25.6598"/>
<polygon fill="#191970" stroke="#191970" points="208.7126,-28.355 214.7413,-19.6427 204.5953,-22.6938 208.7126,-28.355"/>
</g>
<!-- Node18 -->
<g id="node19" class="node">
<title>Node18</title>
<g id="a_node19"><a xlink:href="../../d8/de9/qconfigoptions_8h.html" target="_top" xlink:title="qconfigoptions.h">
<polygon fill="none" stroke="#000000" points="56.5,-230 56.5,-249 153.5,-249 153.5,-230 56.5,-230"/>
<text text-anchor="middle" x="105" y="-237" font-family="Helvetica,sans-Serif" font-size="10.00" fill="#000000">qconfigoptions.h</text>
</a>
</g>
</g>
<!-- Node17&#45;&gt;Node18 -->
<g id="edge21" class="edge">
<title>Node17&#45;&gt;Node18</title>
<path fill="none" stroke="#191970" d="M132.4152,-296.9005C127.6152,-286.8505 119.9551,-270.8122 113.9506,-258.2403"/>
<polygon fill="#191970" stroke="#191970" points="117.0444,-256.5968 109.5763,-249.0817 110.7279,-259.6137 117.0444,-256.5968"/>
</g>
<!-- Node18&#45;&gt;Node12 -->
<g id="edge22" class="edge">
<title>Node18&#45;&gt;Node12</title>
<path fill="none" stroke="#191970" d="M98.1184,-249.0903C87.2581,-265.51 68.9472,-299.4171 85,-322 96.3946,-338.0297 142.1248,-352.3798 179.773,-361.8347"/>
<polygon fill="#191970" stroke="#191970" points="179.0967,-365.2724 189.642,-364.2498 180.7607,-358.473 179.0967,-365.2724"/>
</g>
<!-- Node18&#45;&gt;Node19 -->
<g id="edge23" class="edge">
<title>Node18&#45;&gt;Node19</title>
<path fill="none" stroke="#191970" d="M103.2813,-229.8906C101.7565,-221.3657 99.4802,-208.6392 97.5636,-197.9235"/>
<polygon fill="#191970" stroke="#191970" points="100.9491,-196.9724 95.743,-187.7449 94.0584,-198.2049 100.9491,-196.9724"/>
</g>
<!-- Node20 -->
<g id="node21" class="node">
<title>Node20</title>
<g id="a_node21"><a xlink:href="../../d2/d37/GPUDefConstantsAndSettings_8h.html" target="_top" xlink:title="GPUDefConstantsAndSettings.h">
<polygon fill="none" stroke="#000000" points="8.5,-112.5 8.5,-131.5 179.5,-131.5 179.5,-112.5 8.5,-112.5"/>
<text text-anchor="middle" x="94" y="-119.5" font-family="Helvetica,sans-Serif" font-size="10.00" fill="#000000">GPUDefConstantsAndSettings.h</text>
</a>
</g>
</g>
<!-- Node19&#45;&gt;Node20 -->
<g id="edge24" class="edge">
<title>Node19&#45;&gt;Node20</title>
<path fill="none" stroke="#191970" d="M94,-168.2455C94,-160.9382 94,-150.6944 94,-141.7046"/>
<polygon fill="#191970" stroke="#191970" points="97.5001,-141.6426 94,-131.6427 90.5001,-141.6427 97.5001,-141.6426"/>
</g>
<!-- Node20&#45;&gt;Node13 -->
<g id="edge25" class="edge">
<title>Node20&#45;&gt;Node13</title>
<path fill="none" stroke="#191970" d="M103.9286,-112.2455C112.1838,-104.1352 124.1209,-92.4075 133.9082,-82.7919"/>
<polygon fill="#191970" stroke="#191970" points="136.5046,-85.1476 141.1851,-75.6427 131.5989,-80.1542 136.5046,-85.1476"/>
</g>
</g>
</svg>
        <g id="navigator" transform="translate(0 0)" fill="#404254">
                <rect fill="#f2f5e9" fill-opacity="0.5" stroke="#606060" stroke-width=".5" x="0" y="0" width="60" height="60"/>
                <use id="zoomplus" xlink:href="#zoomPlus" x="17" y="9" onmousedown="handleZoom(evt,'in')"/>
                <use id="zoomminus" xlink:href="#zoomMin" x="42" y="9" onmousedown="handleZoom(evt,'out')"/>
                <use id="reset" xlink:href="#resetDef" x="30" y="36" onmousedown="handleReset()"/>
                <g id="arrowUp" xlink:href="#dirArrow" transform="translate(30 24)" onmousedown="handlePan(0,-1)">
                  <use xlink:href="#rim" fill="#404040">
                        <set attributeName="fill" to="#808080" begin="arrowUp.mouseover" end="arrowUp.mouseout"/>
                  </use>
                  <path fill="none" stroke="white" stroke-width="1.5" d="M0,-3.0v7 M-2.5,-0.5L0,-3.0L2.5,-0.5"/>
                </g>
                <g id="arrowRight" xlink:href="#dirArrow" transform="rotate(90) translate(36 -43)" onmousedown="handlePan(1,0)">
                  <use xlink:href="#rim" fill="#404040">
                        <set attributeName="fill" to="#808080" begin="arrowRight.mouseover" end="arrowRight.mouseout"/>
                  </use>
                  <path fill="none" stroke="white" stroke-width="1.5" d="M0,-3.0v7 M-2.5,-0.5L0,-3.0L2.5,-0.5"/>
                </g>
                <g id="arrowDown" xlink:href="#dirArrow" transform="rotate(180) translate(-30 -48)" onmousedown="handlePan(0,1)">
                  <use xlink:href="#rim" fill="#404040">
                        <set attributeName="fill" to="#808080" begin="arrowDown.mouseover" end="arrowDown.mouseout"/>
                  </use>
                  <path fill="none" stroke="white" stroke-width="1.5" d="M0,-3.0v7 M-2.5,-0.5L0,-3.0L2.5,-0.5"/>
                </g>
                <g id="arrowLeft" xlink:href="#dirArrow" transform="rotate(270) translate(-36 17)" onmousedown="handlePan(-1,0)">
                  <use xlink:href="#rim" fill="#404040">
                        <set attributeName="fill" to="#808080" begin="arrowLeft.mouseover" end="arrowLeft.mouseout"/>
                  </use>
                  <path fill="none" stroke="white" stroke-width="1.5" d="M0,-3.0v7 M-2.5,-0.5L0,-3.0L2.5,-0.5"/>
                </g>
        </g>
        <svg viewBox="0 0 15 15" width="100%" height="30px" preserveAspectRatio="xMaxYMin meet">
         <g id="arrow_out" transform="scale(0.3 0.3)">
          <a xlink:href="GPUO2InterfaceConfigurableParam_8h__incl_org.svg" target="_base">
           <rect id="button" ry="5" rx="5" y="6" x="6" height="38" width="38"
                fill="#f2f5e9" fill-opacity="0.5" stroke="#606060" stroke-width="1.0"/>
           <path id="arrow"
             d="M 11.500037,31.436501 C 11.940474,20.09759 22.043105,11.32322 32.158766,21.979434 L 37.068811,17.246167 C 37.068811,17.246167 37.088388,32 37.088388,32 L 22.160133,31.978069 C 22.160133,31.978069 26.997745,27.140456 26.997745,27.140456 C 18.528582,18.264221 13.291696,25.230495 11.500037,31.436501 z"
             style="fill:#404040;"/>
          </a>
         </g>
        </svg>
</svg>
