<?xml version="1.0" encoding="UTF-8" standalone="no"?>
<!DOCTYPE svg PUBLIC "-//W3C//DTD SVG 1.1//EN"
 "http://www.w3.org/Graphics/SVG/1.1/DTD/svg11.dtd">
<!-- Generated by graphviz version 2.40.1 (20161225.0304)
 -->
<!-- Title: /home/travis/build/AliceO2Group/AliceO2/Algorithm/include/Algorithm/RangeTokenizer.h Pages: 1 -->
<svg width="3732pt" height="161pt"
 viewBox="0.00 0.00 3731.50 161.00" xmlns="http://www.w3.org/2000/svg" xmlns:xlink="http://www.w3.org/1999/xlink">
<g id="graph0" class="graph" transform="scale(1 1) rotate(0) translate(4 157)">
<title>/home/travis/build/AliceO2Group/AliceO2/Algorithm/include/Algorithm/RangeTokenizer.h</title>
<!-- Node6 -->
<g id="node1" class="node">
<title>Node6</title>
<polygon fill="#bfbfbf" stroke="#000000" points="1762,-100.5 1762,-152.5 1919,-152.5 1919,-100.5 1762,-100.5"/>
<text text-anchor="start" x="1770" y="-140.5" font-family="Helvetica,sans-Serif" font-size="10.00" fill="#000000">/home/travis/build</text>
<text text-anchor="start" x="1770" y="-129.5" font-family="Helvetica,sans-Serif" font-size="10.00" fill="#000000">/AliceO2Group/AliceO2</text>
<text text-anchor="start" x="1770" y="-118.5" font-family="Helvetica,sans-Serif" font-size="10.00" fill="#000000">/Algorithm/include/Algorithm</text>
<text text-anchor="middle" x="1840.5" y="-107.5" font-family="Helvetica,sans-Serif" font-size="10.00" fill="#000000">/RangeTokenizer.h</text>
</g>
<!-- Node7 -->
<g id="node2" class="node">
<title>Node7</title>
<g id="a_node2"><a xlink:href="../../de/d83/test__RangeTokenizer_8cxx.html" target="_top" xlink:title="/home/travis/build\l/AliceO2Group/AliceO2\l/Algorithm/test/test_RangeTokenizer.cxx">
<polygon fill="none" stroke="#000000" points="0,-11.5 0,-52.5 213,-52.5 213,-11.5 0,-11.5"/>
<text text-anchor="start" x="8" y="-40.5" font-family="Helvetica,sans-Serif" font-size="10.00" fill="#000000">/home/travis/build</text>
<text text-anchor="start" x="8" y="-29.5" font-family="Helvetica,sans-Serif" font-size="10.00" fill="#000000">/AliceO2Group/AliceO2</text>
<text text-anchor="middle" x="106.5" y="-18.5" font-family="Helvetica,sans-Serif" font-size="10.00" fill="#000000">/Algorithm/test/test_RangeTokenizer.cxx</text>
</a>
</g>
</g>
<!-- Node6&#45;&gt;Node7 -->
<g id="edge1" class="edge">
<title>Node6&#45;&gt;Node7</title>
<path fill="none" stroke="#191970" d="M1751.5029,-125.7894C1457.6323,-123.0156 520.018,-110.6414 221.5,-64 204.6078,-61.3607 186.6598,-57.0992 170.0909,-52.535"/>
<polygon fill="#191970" stroke="#191970" points="1751.651,-129.2908 1761.6831,-125.8841 1751.7161,-122.2911 1751.651,-129.2908"/>
</g>
<!-- Node8 -->
<g id="node3" class="node">
<title>Node8</title>
<g id="a_node3"><a xlink:href="../../df/de7/AODProducerWorkflow_8cxx.html" target="_top" xlink:title="/home/travis/build\l/AliceO2Group/AliceO2\l/Detectors/AOD/src/AODProducer\lWorkflow.cxx">
<polygon fill="none" stroke="#000000" points="230.5,-6 230.5,-58 406.5,-58 406.5,-6 230.5,-6"/>
<text text-anchor="start" x="238.5" y="-46" font-family="Helvetica,sans-Serif" font-size="10.00" fill="#000000">/home/travis/build</text>
<text text-anchor="start" x="238.5" y="-35" font-family="Helvetica,sans-Serif" font-size="10.00" fill="#000000">/AliceO2Group/AliceO2</text>
<text text-anchor="start" x="238.5" y="-24" font-family="Helvetica,sans-Serif" font-size="10.00" fill="#000000">/Detectors/AOD/src/AODProducer</text>
<text text-anchor="middle" x="318.5" y="-13" font-family="Helvetica,sans-Serif" font-size="10.00" fill="#000000">Workflow.cxx</text>
</a>
</g>
</g>
<!-- Node6&#45;&gt;Node8 -->
<g id="edge2" class="edge">
<title>Node6&#45;&gt;Node8</title>
<path fill="none" stroke="#191970" d="M1751.6549,-125.7898C1481.6862,-123.129 673.721,-111.32 415.5,-64 407.1276,-62.4657 398.4847,-60.3818 389.967,-58.0083"/>
<polygon fill="#191970" stroke="#191970" points="1751.7665,-129.2909 1761.7999,-125.888 1751.8343,-122.2913 1751.7665,-129.2909"/>
</g>
<!-- Node9 -->
<g id="node4" class="node">
<title>Node9</title>
<g id="a_node4"><a xlink:href="../../d7/d07/cpv-reco-workflow_8cxx.html" target="_top" xlink:title="Basic DPL workflow for CPV reconstruction starting from digits. ">
<polygon fill="none" stroke="#000000" points="424.5,-6 424.5,-58 570.5,-58 570.5,-6 424.5,-6"/>
<text text-anchor="start" x="432.5" y="-46" font-family="Helvetica,sans-Serif" font-size="10.00" fill="#000000">/home/travis/build</text>
<text text-anchor="start" x="432.5" y="-35" font-family="Helvetica,sans-Serif" font-size="10.00" fill="#000000">/AliceO2Group/AliceO2</text>
<text text-anchor="start" x="432.5" y="-24" font-family="Helvetica,sans-Serif" font-size="10.00" fill="#000000">/Detectors/CPV/workflow</text>
<text text-anchor="middle" x="497.5" y="-13" font-family="Helvetica,sans-Serif" font-size="10.00" fill="#000000">/src/cpv&#45;reco&#45;workflow.cxx</text>
</a>
</g>
</g>
<!-- Node6&#45;&gt;Node9 -->
<g id="edge3" class="edge">
<title>Node6&#45;&gt;Node9</title>
<path fill="none" stroke="#191970" d="M1751.6068,-125.8036C1502.9047,-123.2667 803.5946,-111.9505 579.5,-64 572.3271,-62.4652 564.9613,-60.3809 557.727,-58.0072"/>
<polygon fill="#191970" stroke="#191970" points="1751.6522,-129.3042 1761.6867,-125.9042 1751.7221,-122.3045 1751.6522,-129.3042"/>
</g>
<!-- Node10 -->
<g id="node5" class="node">
<title>Node10</title>
<g id="a_node5"><a xlink:href="../../dd/d16/CPV_2workflow_2src_2RecoWorkflow_8cxx.html" target="_top" xlink:title="/home/travis/build\l/AliceO2Group/AliceO2\l/Detectors/CPV/workflow\l/src/RecoWorkflow.cxx">
<polygon fill="none" stroke="#000000" points="589,-6 589,-58 726,-58 726,-6 589,-6"/>
<text text-anchor="start" x="597" y="-46" font-family="Helvetica,sans-Serif" font-size="10.00" fill="#000000">/home/travis/build</text>
<text text-anchor="start" x="597" y="-35" font-family="Helvetica,sans-Serif" font-size="10.00" fill="#000000">/AliceO2Group/AliceO2</text>
<text text-anchor="start" x="597" y="-24" font-family="Helvetica,sans-Serif" font-size="10.00" fill="#000000">/Detectors/CPV/workflow</text>
<text text-anchor="middle" x="657.5" y="-13" font-family="Helvetica,sans-Serif" font-size="10.00" fill="#000000">/src/RecoWorkflow.cxx</text>
</a>
</g>
</g>
<!-- Node6&#45;&gt;Node10 -->
<g id="edge4" class="edge">
<title>Node6&#45;&gt;Node10</title>
<path fill="none" stroke="#191970" d="M1751.5589,-125.3249C1524.42,-121.7082 927.321,-108.1643 734.5,-64 727.8678,-62.4809 721.0754,-60.441 714.4053,-58.1228"/>
<polygon fill="#191970" stroke="#191970" points="1751.7133,-128.8277 1761.7669,-125.4848 1751.8229,-121.8286 1751.7133,-128.8277"/>
</g>
<!-- Node11 -->
<g id="node6" class="node">
<title>Node11</title>
<g id="a_node6"><a xlink:href="../../d8/d12/CTFReaderSpec_8cxx.html" target="_top" xlink:title="/home/travis/build\l/AliceO2Group/AliceO2\l/Detectors/CTF/workflow\l/src/CTFReaderSpec.cxx">
<polygon fill="none" stroke="#000000" points="744,-6 744,-58 879,-58 879,-6 744,-6"/>
<text text-anchor="start" x="752" y="-46" font-family="Helvetica,sans-Serif" font-size="10.00" fill="#000000">/home/travis/build</text>
<text text-anchor="start" x="752" y="-35" font-family="Helvetica,sans-Serif" font-size="10.00" fill="#000000">/AliceO2Group/AliceO2</text>
<text text-anchor="start" x="752" y="-24" font-family="Helvetica,sans-Serif" font-size="10.00" fill="#000000">/Detectors/CTF/workflow</text>
<text text-anchor="middle" x="811.5" y="-13" font-family="Helvetica,sans-Serif" font-size="10.00" fill="#000000">/src/CTFReaderSpec.cxx</text>
</a>
</g>
</g>
<!-- Node6&#45;&gt;Node11 -->
<g id="edge5" class="edge">
<title>Node6&#45;&gt;Node11</title>
<path fill="none" stroke="#191970" d="M1751.8174,-124.3824C1547.9659,-118.9161 1051.0703,-102.0155 888.5,-64 881.8748,-62.4508 875.0868,-60.3918 868.4192,-58.0624"/>
<polygon fill="#191970" stroke="#191970" points="1751.7987,-127.883 1761.888,-124.6495 1751.9844,-120.8855 1751.7987,-127.883"/>
</g>
<!-- Node12 -->
<g id="node7" class="node">
<title>Node12</title>
<g id="a_node7"><a xlink:href="../../d2/d6d/emc-reco-workflow_8cxx.html" target="_top" xlink:title="Basic DPL workflow for EMCAL reconstruction starting from digits (adapted from tpc&#45;reco&#45;workflow.cxx) ">
<polygon fill="none" stroke="#000000" points="897.5,-6 897.5,-58 1047.5,-58 1047.5,-6 897.5,-6"/>
<text text-anchor="start" x="905.5" y="-46" font-family="Helvetica,sans-Serif" font-size="10.00" fill="#000000">/home/travis/build</text>
<text text-anchor="start" x="905.5" y="-35" font-family="Helvetica,sans-Serif" font-size="10.00" fill="#000000">/AliceO2Group/AliceO2</text>
<text text-anchor="start" x="905.5" y="-24" font-family="Helvetica,sans-Serif" font-size="10.00" fill="#000000">/Detectors/EMCAL/workflow</text>
<text text-anchor="middle" x="972.5" y="-13" font-family="Helvetica,sans-Serif" font-size="10.00" fill="#000000">/src/emc&#45;reco&#45;workflow.cxx</text>
</a>
</g>
</g>
<!-- Node6&#45;&gt;Node12 -->
<g id="edge6" class="edge">
<title>Node6&#45;&gt;Node12</title>
<path fill="none" stroke="#191970" d="M1751.8624,-122.6066C1575.5768,-114.3423 1186.7543,-93.3689 1056.5,-64 1049.4972,-62.421 1042.2988,-60.3763 1035.2013,-58.0842"/>
<polygon fill="#191970" stroke="#191970" points="1751.7331,-126.1043 1761.8851,-123.0735 1752.0589,-119.1119 1751.7331,-126.1043"/>
</g>
<!-- Node13 -->
<g id="node8" class="node">
<title>Node13</title>
<g id="a_node8"><a xlink:href="../../d2/dbf/EMCAL_2workflow_2src_2RecoWorkflow_8cxx.html" target="_top" xlink:title="/home/travis/build\l/AliceO2Group/AliceO2\l/Detectors/EMCAL/workflow\l/src/RecoWorkflow.cxx">
<polygon fill="none" stroke="#000000" points="1065.5,-6 1065.5,-58 1215.5,-58 1215.5,-6 1065.5,-6"/>
<text text-anchor="start" x="1073.5" y="-46" font-family="Helvetica,sans-Serif" font-size="10.00" fill="#000000">/home/travis/build</text>
<text text-anchor="start" x="1073.5" y="-35" font-family="Helvetica,sans-Serif" font-size="10.00" fill="#000000">/AliceO2Group/AliceO2</text>
<text text-anchor="start" x="1073.5" y="-24" font-family="Helvetica,sans-Serif" font-size="10.00" fill="#000000">/Detectors/EMCAL/workflow</text>
<text text-anchor="middle" x="1140.5" y="-13" font-family="Helvetica,sans-Serif" font-size="10.00" fill="#000000">/src/RecoWorkflow.cxx</text>
</a>
</g>
</g>
<!-- Node6&#45;&gt;Node13 -->
<g id="edge7" class="edge">
<title>Node6&#45;&gt;Node13</title>
<path fill="none" stroke="#191970" d="M1751.5596,-120.4253C1605.5388,-109.9592 1321.4196,-87.3891 1223.5,-64 1216.7405,-62.3854 1209.7928,-60.3497 1202.9319,-58.0908"/>
<polygon fill="#191970" stroke="#191970" points="1751.6063,-123.9375 1761.83,-121.1578 1752.1043,-116.9552 1751.6063,-123.9375"/>
</g>
<!-- Node14 -->
<g id="node9" class="node">
<title>Node14</title>
<g id="a_node9"><a xlink:href="../../d5/db4/MatchTPCITSWorkflow_8cxx.html" target="_top" xlink:title="/home/travis/build\l/AliceO2Group/AliceO2\l/Detectors/GlobalTrackingWorkflow\l/src/MatchTPCITSWorkflow.cxx">
<polygon fill="none" stroke="#000000" points="1233,-6 1233,-58 1420,-58 1420,-6 1233,-6"/>
<text text-anchor="start" x="1241" y="-46" font-family="Helvetica,sans-Serif" font-size="10.00" fill="#000000">/home/travis/build</text>
<text text-anchor="start" x="1241" y="-35" font-family="Helvetica,sans-Serif" font-size="10.00" fill="#000000">/AliceO2Group/AliceO2</text>
<text text-anchor="start" x="1241" y="-24" font-family="Helvetica,sans-Serif" font-size="10.00" fill="#000000">/Detectors/GlobalTrackingWorkflow</text>
<text text-anchor="middle" x="1326.5" y="-13" font-family="Helvetica,sans-Serif" font-size="10.00" fill="#000000">/src/MatchTPCITSWorkflow.cxx</text>
</a>
</g>
</g>
<!-- Node6&#45;&gt;Node14 -->
<g id="edge8" class="edge">
<title>Node6&#45;&gt;Node14</title>
<path fill="none" stroke="#191970" d="M1751.9832,-117.056C1668.0447,-107.1647 1538.7343,-89.4941 1428.5,-64 1420.9055,-62.2436 1413.0575,-60.2022 1405.2436,-58.0166"/>
<polygon fill="#191970" stroke="#191970" points="1751.652,-120.541 1761.9903,-118.2237 1752.4634,-113.5882 1751.652,-120.541"/>
</g>
<!-- Node15 -->
<g id="node10" class="node">
<title>Node15</title>
<g id="a_node10"><a xlink:href="../../d6/d1f/tof-calibinfo-reader_8cxx.html" target="_top" xlink:title="/home/travis/build\l/AliceO2Group/AliceO2\l/Detectors/GlobalTrackingWorkflow\l/tofworkflow/src/tof&#45;calibinfo\l&#45;reader.cxx">
<polygon fill="none" stroke="#000000" points="1438,-.5 1438,-63.5 1625,-63.5 1625,-.5 1438,-.5"/>
<text text-anchor="start" x="1446" y="-51.5" font-family="Helvetica,sans-Serif" font-size="10.00" fill="#000000">/home/travis/build</text>
<text text-anchor="start" x="1446" y="-40.5" font-family="Helvetica,sans-Serif" font-size="10.00" fill="#000000">/AliceO2Group/AliceO2</text>
<text text-anchor="start" x="1446" y="-29.5" font-family="Helvetica,sans-Serif" font-size="10.00" fill="#000000">/Detectors/GlobalTrackingWorkflow</text>
<text text-anchor="start" x="1446" y="-18.5" font-family="Helvetica,sans-Serif" font-size="10.00" fill="#000000">/tofworkflow/src/tof&#45;calibinfo</text>
<text text-anchor="middle" x="1531.5" y="-7.5" font-family="Helvetica,sans-Serif" font-size="10.00" fill="#000000">&#45;reader.cxx</text>
</a>
</g>
</g>
<!-- Node6&#45;&gt;Node15 -->
<g id="edge9" class="edge">
<title>Node6&#45;&gt;Node15</title>
<path fill="none" stroke="#191970" d="M1752.1184,-100.0431C1715.3994,-88.992 1672.3637,-75.963 1633.5,-64 1630.7506,-63.1537 1627.9602,-62.2925 1625.1439,-61.4215"/>
<polygon fill="#191970" stroke="#191970" points="1751.2191,-103.4275 1761.8034,-102.9562 1753.2354,-96.7241 1751.2191,-103.4275"/>
</g>
<!-- Node16 -->
<g id="node11" class="node">
<title>Node16</title>
<g id="a_node11"><a xlink:href="../../de/d48/tof-matcher-global_8cxx.html" target="_top" xlink:title="/home/travis/build\l/AliceO2Group/AliceO2\l/Detectors/GlobalTrackingWorkflow\l/tofworkflow/src/tof&#45;matcher\l&#45;global.cxx">
<polygon fill="none" stroke="#000000" points="1643,-.5 1643,-63.5 1830,-63.5 1830,-.5 1643,-.5"/>
<text text-anchor="start" x="1651" y="-51.5" font-family="Helvetica,sans-Serif" font-size="10.00" fill="#000000">/home/travis/build</text>
<text text-anchor="start" x="1651" y="-40.5" font-family="Helvetica,sans-Serif" font-size="10.00" fill="#000000">/AliceO2Group/AliceO2</text>
<text text-anchor="start" x="1651" y="-29.5" font-family="Helvetica,sans-Serif" font-size="10.00" fill="#000000">/Detectors/GlobalTrackingWorkflow</text>
<text text-anchor="start" x="1651" y="-18.5" font-family="Helvetica,sans-Serif" font-size="10.00" fill="#000000">/tofworkflow/src/tof&#45;matcher</text>
<text text-anchor="middle" x="1736.5" y="-7.5" font-family="Helvetica,sans-Serif" font-size="10.00" fill="#000000">&#45;global.cxx</text>
</a>
</g>
</g>
<!-- Node6&#45;&gt;Node16 -->
<g id="edge10" class="edge">
<title>Node6&#45;&gt;Node16</title>
<path fill="none" stroke="#191970" d="M1804.2483,-93.5597C1793.5922,-83.877 1781.9619,-73.3091 1771.3927,-63.7054"/>
<polygon fill="#191970" stroke="#191970" points="1802.0515,-96.2927 1811.8062,-100.4273 1806.7589,-91.112 1802.0515,-96.2927"/>
</g>
<!-- Node17 -->
<g id="node12" class="node">
<title>Node17</title>
<g id="a_node12"><a xlink:href="../../da/d65/tof-matcher-tpc_8cxx.html" target="_top" xlink:title="/home/travis/build\l/AliceO2Group/AliceO2\l/Detectors/GlobalTrackingWorkflow\l/tofworkflow/src/tof&#45;matcher&#45;tpc.cxx">
<polygon fill="none" stroke="#000000" points="1848,-6 1848,-58 2041,-58 2041,-6 1848,-6"/>
<text text-anchor="start" x="1856" y="-46" font-family="Helvetica,sans-Serif" font-size="10.00" fill="#000000">/home/travis/build</text>
<text text-anchor="start" x="1856" y="-35" font-family="Helvetica,sans-Serif" font-size="10.00" fill="#000000">/AliceO2Group/AliceO2</text>
<text text-anchor="start" x="1856" y="-24" font-family="Helvetica,sans-Serif" font-size="10.00" fill="#000000">/Detectors/GlobalTrackingWorkflow</text>
<text text-anchor="middle" x="1944.5" y="-13" font-family="Helvetica,sans-Serif" font-size="10.00" fill="#000000">/tofworkflow/src/tof&#45;matcher&#45;tpc.cxx</text>
</a>
</g>
</g>
<!-- Node6&#45;&gt;Node17 -->
<g id="edge11" class="edge">
<title>Node6&#45;&gt;Node17</title>
<path fill="none" stroke="#191970" d="M1876.8712,-93.4512C1889.5334,-81.9457 1903.5586,-69.2016 1915.5388,-58.3157"/>
<polygon fill="#191970" stroke="#191970" points="1874.241,-91.112 1869.1938,-100.4273 1878.9485,-96.2927 1874.241,-91.112"/>
</g>
<!-- Node18 -->
<g id="node13" class="node">
<title>Node18</title>
<g id="a_node13"><a xlink:href="../../da/dfd/tof-reco-workflow_8cxx.html" target="_top" xlink:title="Basic DPL workflow for TOF reconstruction starting from digits. ">
<polygon fill="none" stroke="#000000" points="2059,-6 2059,-58 2262,-58 2262,-6 2059,-6"/>
<text text-anchor="start" x="2067" y="-46" font-family="Helvetica,sans-Serif" font-size="10.00" fill="#000000">/home/travis/build</text>
<text text-anchor="start" x="2067" y="-35" font-family="Helvetica,sans-Serif" font-size="10.00" fill="#000000">/AliceO2Group/AliceO2</text>
<text text-anchor="start" x="2067" y="-24" font-family="Helvetica,sans-Serif" font-size="10.00" fill="#000000">/Detectors/GlobalTrackingWorkflow</text>
<text text-anchor="middle" x="2160.5" y="-13" font-family="Helvetica,sans-Serif" font-size="10.00" fill="#000000">/tofworkflow/src/tof&#45;reco&#45;workflow.cxx</text>
</a>
</g>
</g>
<!-- Node6&#45;&gt;Node18 -->
<g id="edge12" class="edge">
<title>Node6&#45;&gt;Node18</title>
<path fill="none" stroke="#191970" d="M1928.8638,-100.4051C1973.5302,-87.2145 2027.5827,-71.2522 2072.2351,-58.0657"/>
<polygon fill="#191970" stroke="#191970" points="1927.7899,-97.0727 1919.1907,-103.2617 1929.7725,-103.7861 1927.7899,-97.0727"/>
</g>
<!-- Node19 -->
<g id="node14" class="node">
<title>Node19</title>
<g id="a_node14"><a xlink:href="../../d1/d67/TrackInterpolationWorkflow_8cxx.html" target="_top" xlink:title="/home/travis/build\l/AliceO2Group/AliceO2\l/Detectors/GlobalTrackingWorkflow\l/tpcinterpolationworkflow/src\l/TrackInterpolationWorkflow.cxx">
<polygon fill="none" stroke="#000000" points="2280,-.5 2280,-63.5 2467,-63.5 2467,-.5 2280,-.5"/>
<text text-anchor="start" x="2288" y="-51.5" font-family="Helvetica,sans-Serif" font-size="10.00" fill="#000000">/home/travis/build</text>
<text text-anchor="start" x="2288" y="-40.5" font-family="Helvetica,sans-Serif" font-size="10.00" fill="#000000">/AliceO2Group/AliceO2</text>
<text text-anchor="start" x="2288" y="-29.5" font-family="Helvetica,sans-Serif" font-size="10.00" fill="#000000">/Detectors/GlobalTrackingWorkflow</text>
<text text-anchor="start" x="2288" y="-18.5" font-family="Helvetica,sans-Serif" font-size="10.00" fill="#000000">/tpcinterpolationworkflow/src</text>
<text text-anchor="middle" x="2373.5" y="-7.5" font-family="Helvetica,sans-Serif" font-size="10.00" fill="#000000">/TrackInterpolationWorkflow.cxx</text>
</a>
</g>
</g>
<!-- Node6&#45;&gt;Node19 -->
<g id="edge13" class="edge">
<title>Node6&#45;&gt;Node19</title>
<path fill="none" stroke="#191970" d="M1929.2284,-117.8314C2016.9045,-108.284 2154.4947,-90.6571 2271.5,-64 2274.2143,-63.3816 2276.9608,-62.7258 2279.7263,-62.0391"/>
<polygon fill="#191970" stroke="#191970" points="1928.6208,-114.3765 1919.0532,-118.9275 1929.3706,-121.3362 1928.6208,-114.3765"/>
</g>
<!-- Node20 -->
<g id="node15" class="node">
<title>Node20</title>
<g id="a_node15"><a xlink:href="../../d3/d7b/phos-reco-workflow_8cxx.html" target="_top" xlink:title="Basic DPL workflow for PHOS reconstruction starting from digits. ">
<polygon fill="none" stroke="#000000" points="2485.5,-6 2485.5,-58 2637.5,-58 2637.5,-6 2485.5,-6"/>
<text text-anchor="start" x="2493.5" y="-46" font-family="Helvetica,sans-Serif" font-size="10.00" fill="#000000">/home/travis/build</text>
<text text-anchor="start" x="2493.5" y="-35" font-family="Helvetica,sans-Serif" font-size="10.00" fill="#000000">/AliceO2Group/AliceO2</text>
<text text-anchor="start" x="2493.5" y="-24" font-family="Helvetica,sans-Serif" font-size="10.00" fill="#000000">/Detectors/PHOS/workflow</text>
<text text-anchor="middle" x="2561.5" y="-13" font-family="Helvetica,sans-Serif" font-size="10.00" fill="#000000">/src/phos&#45;reco&#45;workflow.cxx</text>
</a>
</g>
</g>
<!-- Node6&#45;&gt;Node20 -->
<g id="edge14" class="edge">
<title>Node6&#45;&gt;Node20</title>
<path fill="none" stroke="#191970" d="M1929.0715,-120.6738C2078.6042,-110.356 2374.77,-87.713 2476.5,-64 2483.4104,-62.3892 2490.5177,-60.356 2497.5393,-58.0985"/>
<polygon fill="#191970" stroke="#191970" points="1928.7372,-117.1885 1919.0005,-121.3654 1929.2168,-124.172 1928.7372,-117.1885"/>
</g>
<!-- Node21 -->
<g id="node16" class="node">
<title>Node21</title>
<g id="a_node16"><a xlink:href="../../d8/d7e/PHOS_2workflow_2src_2RecoWorkflow_8cxx.html" target="_top" xlink:title="/home/travis/build\l/AliceO2Group/AliceO2\l/Detectors/PHOS/workflow\l/src/RecoWorkflow.cxx">
<polygon fill="none" stroke="#000000" points="2655.5,-6 2655.5,-58 2799.5,-58 2799.5,-6 2655.5,-6"/>
<text text-anchor="start" x="2663.5" y="-46" font-family="Helvetica,sans-Serif" font-size="10.00" fill="#000000">/home/travis/build</text>
<text text-anchor="start" x="2663.5" y="-35" font-family="Helvetica,sans-Serif" font-size="10.00" fill="#000000">/AliceO2Group/AliceO2</text>
<text text-anchor="start" x="2663.5" y="-24" font-family="Helvetica,sans-Serif" font-size="10.00" fill="#000000">/Detectors/PHOS/workflow</text>
<text text-anchor="middle" x="2727.5" y="-13" font-family="Helvetica,sans-Serif" font-size="10.00" fill="#000000">/src/RecoWorkflow.cxx</text>
</a>
</g>
</g>
<!-- Node6&#45;&gt;Node21 -->
<g id="edge15" class="edge">
<title>Node6&#45;&gt;Node21</title>
<path fill="none" stroke="#191970" d="M1929.2803,-122.9585C2109.4262,-115.2249 2512.1807,-94.9991 2646.5,-64 2653.2771,-62.4359 2660.234,-60.4007 2667.0872,-58.1143"/>
<polygon fill="#191970" stroke="#191970" points="1928.8861,-119.4721 1919.0442,-123.3948 1929.1842,-126.4657 1928.8861,-119.4721"/>
</g>
<!-- Node22 -->
<g id="node17" class="node">
<title>Node22</title>
<g id="a_node17"><a xlink:href="../../d0/d80/TPC_2workflow_2src_2RecoWorkflow_8cxx.html" target="_top" xlink:title="/home/travis/build\l/AliceO2Group/AliceO2\l/Detectors/TPC/workflow\l/src/RecoWorkflow.cxx">
<polygon fill="none" stroke="#000000" points="2817.5,-6 2817.5,-58 2953.5,-58 2953.5,-6 2817.5,-6"/>
<text text-anchor="start" x="2825.5" y="-46" font-family="Helvetica,sans-Serif" font-size="10.00" fill="#000000">/home/travis/build</text>
<text text-anchor="start" x="2825.5" y="-35" font-family="Helvetica,sans-Serif" font-size="10.00" fill="#000000">/AliceO2Group/AliceO2</text>
<text text-anchor="start" x="2825.5" y="-24" font-family="Helvetica,sans-Serif" font-size="10.00" fill="#000000">/Detectors/TPC/workflow</text>
<text text-anchor="middle" x="2885.5" y="-13" font-family="Helvetica,sans-Serif" font-size="10.00" fill="#000000">/src/RecoWorkflow.cxx</text>
</a>
</g>
</g>
<!-- Node6&#45;&gt;Node22 -->
<g id="edge16" class="edge">
<title>Node6&#45;&gt;Node22</title>
<path fill="none" stroke="#191970" d="M1929.5373,-124.4855C2136.0972,-119.2091 2642.8858,-102.6329 2808.5,-64 2815.1261,-62.4543 2821.9145,-60.3976 2828.5824,-58.0696"/>
<polygon fill="#191970" stroke="#191970" points="1929.2442,-120.9917 1919.3357,-124.7431 1929.4209,-127.9895 1929.2442,-120.9917"/>
</g>
<!-- Node23 -->
<g id="node18" class="node">
<title>Node23</title>
<g id="a_node18"><a xlink:href="../../db/d8e/tpc-raw-to-digits-workflow_8cxx.html" target="_top" xlink:title="/home/travis/build\l/AliceO2Group/AliceO2\l/Detectors/TPC/workflow\l/src/tpc&#45;raw&#45;to&#45;digits&#45;workflow.cxx">
<polygon fill="none" stroke="#000000" points="2972,-6 2972,-58 3157,-58 3157,-6 2972,-6"/>
<text text-anchor="start" x="2980" y="-46" font-family="Helvetica,sans-Serif" font-size="10.00" fill="#000000">/home/travis/build</text>
<text text-anchor="start" x="2980" y="-35" font-family="Helvetica,sans-Serif" font-size="10.00" fill="#000000">/AliceO2Group/AliceO2</text>
<text text-anchor="start" x="2980" y="-24" font-family="Helvetica,sans-Serif" font-size="10.00" fill="#000000">/Detectors/TPC/workflow</text>
<text text-anchor="middle" x="3064.5" y="-13" font-family="Helvetica,sans-Serif" font-size="10.00" fill="#000000">/src/tpc&#45;raw&#45;to&#45;digits&#45;workflow.cxx</text>
</a>
</g>
</g>
<!-- Node6&#45;&gt;Node23 -->
<g id="edge17" class="edge">
<title>Node6&#45;&gt;Node23</title>
<path fill="none" stroke="#191970" d="M1929.693,-124.3884C2158.9894,-118.5021 2764.8326,-99.9335 2962.5,-64 2971.0822,-62.4399 2979.9513,-60.374 2988.7125,-58.0406"/>
<polygon fill="#191970" stroke="#191970" points="1929.2979,-120.8972 1919.3903,-124.6508 1929.4762,-127.8949 1929.2979,-120.8972"/>
</g>
<!-- Node24 -->
<g id="node19" class="node">
<title>Node24</title>
<g id="a_node19"><a xlink:href="../../d3/dbf/tpc-reco-workflow_8cxx.html" target="_top" xlink:title="Basic DPL workflow for TPC reconstruction starting from digits. ">
<polygon fill="none" stroke="#000000" points="3175.5,-6 3175.5,-58 3319.5,-58 3319.5,-6 3175.5,-6"/>
<text text-anchor="start" x="3183.5" y="-46" font-family="Helvetica,sans-Serif" font-size="10.00" fill="#000000">/home/travis/build</text>
<text text-anchor="start" x="3183.5" y="-35" font-family="Helvetica,sans-Serif" font-size="10.00" fill="#000000">/AliceO2Group/AliceO2</text>
<text text-anchor="start" x="3183.5" y="-24" font-family="Helvetica,sans-Serif" font-size="10.00" fill="#000000">/Detectors/TPC/workflow</text>
<text text-anchor="middle" x="3247.5" y="-13" font-family="Helvetica,sans-Serif" font-size="10.00" fill="#000000">/src/tpc&#45;reco&#45;workflow.cxx</text>
</a>
</g>
</g>
<!-- Node6&#45;&gt;Node24 -->
<g id="edge18" class="edge">
<title>Node6&#45;&gt;Node24</title>
<path fill="none" stroke="#191970" d="M1929.4765,-126.1037C2186.9697,-124.356 2929.5586,-114.9163 3166.5,-64 3173.5957,-62.4752 3180.8781,-60.3972 3188.0279,-58.0271"/>
<polygon fill="#191970" stroke="#191970" points="1929.3952,-122.6041 1919.4184,-126.1697 1929.4412,-129.6039 1929.3952,-122.6041"/>
</g>
<!-- Node25 -->
<g id="node20" class="node">
<title>Node25</title>
<g id="a_node20"><a xlink:href="../../d2/dc0/TRDTrapSimulatorWorkFlow_8cxx.html" target="_top" xlink:title="/home/travis/build\l/AliceO2Group/AliceO2\l/Detectors/TRD/workflow\l/src/TRDTrapSimulatorWorkFlow.cxx">
<polygon fill="none" stroke="#000000" points="3338,-6 3338,-58 3529,-58 3529,-6 3338,-6"/>
<text text-anchor="start" x="3346" y="-46" font-family="Helvetica,sans-Serif" font-size="10.00" fill="#000000">/home/travis/build</text>
<text text-anchor="start" x="3346" y="-35" font-family="Helvetica,sans-Serif" font-size="10.00" fill="#000000">/AliceO2Group/AliceO2</text>
<text text-anchor="start" x="3346" y="-24" font-family="Helvetica,sans-Serif" font-size="10.00" fill="#000000">/Detectors/TRD/workflow</text>
<text text-anchor="middle" x="3433.5" y="-13" font-family="Helvetica,sans-Serif" font-size="10.00" fill="#000000">/src/TRDTrapSimulatorWorkFlow.cxx</text>
</a>
</g>
</g>
<!-- Node6&#45;&gt;Node25 -->
<g id="edge19" class="edge">
<title>Node6&#45;&gt;Node25</title>
<path fill="none" stroke="#191970" d="M1929.3942,-125.7199C2207.2603,-122.8164 3057.0599,-110.2869 3328.5,-64 3337.5172,-62.4624 3346.8443,-60.3763 3356.0482,-58.0016"/>
<polygon fill="#191970" stroke="#191970" points="1929.3203,-122.2204 1919.3569,-125.8232 1929.3924,-129.22 1929.3203,-122.2204"/>
</g>
<!-- Node26 -->
<g id="node21" class="node">
<title>Node26</title>
<g id="a_node21"><a xlink:href="../../d2/dd7/SimpleDigitizerWorkflow_8cxx.html" target="_top" xlink:title="/home/travis/build\l/AliceO2Group/AliceO2\l/Steer/DigitizerWorkflow\l/src/SimpleDigitizerWorkflow.cxx">
<polygon fill="none" stroke="#000000" points="3547.5,-6 3547.5,-58 3723.5,-58 3723.5,-6 3547.5,-6"/>
<text text-anchor="start" x="3555.5" y="-46" font-family="Helvetica,sans-Serif" font-size="10.00" fill="#000000">/home/travis/build</text>
<text text-anchor="start" x="3555.5" y="-35" font-family="Helvetica,sans-Serif" font-size="10.00" fill="#000000">/AliceO2Group/AliceO2</text>
<text text-anchor="start" x="3555.5" y="-24" font-family="Helvetica,sans-Serif" font-size="10.00" fill="#000000">/Steer/DigitizerWorkflow</text>
<text text-anchor="middle" x="3635.5" y="-13" font-family="Helvetica,sans-Serif" font-size="10.00" fill="#000000">/src/SimpleDigitizerWorkflow.cxx</text>
</a>
</g>
</g>
<!-- Node6&#45;&gt;Node26 -->
<g id="edge20" class="edge">
<title>Node6&#45;&gt;Node26</title>
<path fill="none" stroke="#191970" d="M1929.4655,-124.692C2256.3097,-117.8483 3379.9872,-92.4718 3538.5,-64 3546.8778,-62.4952 3555.524,-60.4297 3564.0436,-58.0667"/>
<polygon fill="#191970" stroke="#191970" points="1929.0269,-121.2003 1919.1022,-124.9084 1929.1731,-128.1988 1929.0269,-121.2003"/>
</g>
</g>
</svg>
