<?xml version="1.0" encoding="UTF-8" standalone="no"?>
<!DOCTYPE svg PUBLIC "-//W3C//DTD SVG 1.1//EN"
 "http://www.w3.org/Graphics/SVG/1.1/DTD/svg11.dtd">
<!-- Generated by graphviz version 2.40.1 (20161225.0304)
 -->
<!-- Title: GPUCA_NAMESPACE::gpu::GPUTPCCompressionGatherKernels Pages: 1 -->
<!--zoomable 683 -->
<svg id="main" version="1.1" xmlns="http://www.w3.org/2000/svg" xmlns:xlink="http://www.w3.org/1999/xlink" xml:space="preserve" onload="init(evt)">
<style type="text/css"><![CDATA[
.edge:hover path { stroke: red; }
.edge:hover polygon { stroke: red; fill: red; }
]]></style>
<script type="text/javascript"><![CDATA[
var edges = document.getElementsByTagName('g');
if (edges && edges.length) {
  for (var i=0;i<edges.length;i++) {
    if (edges[i].id.substr(0,4)=='edge') {
      edges[i].setAttribute('class','edge');
    }
  }
}
]]></script>
        <defs>
                <circle id="rim" cx="0" cy="0" r="7"/>
                <circle id="rim2" cx="0" cy="0" r="3.5"/>
                <g id="zoomPlus">
                        <use xlink:href="#rim" fill="#404040">
                                <set attributeName="fill" to="#808080" begin="zoomplus.mouseover" end="zoomplus.mouseout"/>
                        </use>
                        <path d="M-4,0h8M0,-4v8" fill="none" stroke="white" stroke-width="1.5" pointer-events="none"/>
                </g>
                <g id="zoomMin">
                        <use xlink:href="#rim" fill="#404040">
                                <set attributeName="fill" to="#808080" begin="zoomminus.mouseover" end="zoomminus.mouseout"/>
                        </use>
                        <path d="M-4,0h8" fill="none" stroke="white" stroke-width="1.5" pointer-events="none"/>
                </g>
                <g id="dirArrow">
                        <path fill="none" stroke="white" stroke-width="1.5" d="M0,-3.0v7 M-2.5,-0.5L0,-3.0L2.5,-0.5"/>
                </g>
               <g id="resetDef">
                       <use xlink:href="#rim2" fill="#404040">
                               <set attributeName="fill" to="#808080" begin="reset.mouseover" end="reset.mouseout"/>
                       </use>
               </g>
        </defs>

<script type="text/javascript">
var viewWidth = 491;
var viewHeight = 683;
var sectionId = 'dynsection-1';
</script>
<script xlink:href="../../svgpan.js"/>
<svg id="graph" class="graph">
<g id="viewport">
<title>GPUCA_NAMESPACE::gpu::GPUTPCCompressionGatherKernels</title>
<!-- Node2 -->
<g id="node1" class="node">
<title>Node2</title>
<polygon fill="#bfbfbf" stroke="#000000" points="179.064,-.5 179.064,-277.5 374.064,-277.5 374.064,-.5 179.064,-.5"/>
<text text-anchor="start" x="187.064" y="-265.5" font-family="Helvetica,sans-Serif" font-size="10.00" fill="#000000">GPUCA_NAMESPACE::gpu</text>
<text text-anchor="middle" x="276.564" y="-254.5" font-family="Helvetica,sans-Serif" font-size="10.00" fill="#000000">::GPUTPCCompressionGatherKernels</text>
<polyline fill="none" stroke="#000000" points="179.064,-247.5 374.064,-247.5 "/>
<text text-anchor="start" x="187.064" y="-235.5" font-family="Helvetica,sans-Serif" font-size="10.00" fill="#000000">+ dst</text>
<text text-anchor="start" x="187.064" y="-224.5" font-family="Helvetica,sans-Serif" font-size="10.00" fill="#000000">+ srcOffets</text>
<text text-anchor="start" x="187.064" y="-213.5" font-family="Helvetica,sans-Serif" font-size="10.00" fill="#000000">+ diff</text>
<text text-anchor="start" x="187.064" y="-202.5" font-family="Helvetica,sans-Serif" font-size="10.00" fill="#000000">+ end</text>
<text text-anchor="start" x="187.064" y="-191.5" font-family="Helvetica,sans-Serif" font-size="10.00" fill="#000000">+ nWarps</text>
<polyline fill="none" stroke="#000000" points="179.064,-184.5 374.064,-184.5 "/>
<text text-anchor="start" x="187.064" y="-172.5" font-family="Helvetica,sans-Serif" font-size="10.00" fill="#000000">+ GPUd()</text>
<text text-anchor="start" x="187.064" y="-161.5" font-family="Helvetica,sans-Serif" font-size="10.00" fill="#000000">+ GPUsharedref()</text>
<text text-anchor="start" x="187.064" y="-150.5" font-family="Helvetica,sans-Serif" font-size="10.00" fill="#000000">+ GPUrestrict()</text>
<text text-anchor="start" x="187.064" y="-139.5" font-family="Helvetica,sans-Serif" font-size="10.00" fill="#000000">+ GPUdi()</text>
<text text-anchor="start" x="187.064" y="-128.5" font-family="Helvetica,sans-Serif" font-size="10.00" fill="#000000">+ GPUdi()</text>
<text text-anchor="start" x="187.064" y="-117.5" font-family="Helvetica,sans-Serif" font-size="10.00" fill="#000000">+ GPUgeneric()</text>
<text text-anchor="start" x="187.064" y="-106.5" font-family="Helvetica,sans-Serif" font-size="10.00" fill="#000000">+ GPUdi()</text>
<text text-anchor="start" x="187.064" y="-95.5" font-family="Helvetica,sans-Serif" font-size="10.00" fill="#000000">+ GPUdi()</text>
<text text-anchor="start" x="187.064" y="-84.5" font-family="Helvetica,sans-Serif" font-size="10.00" fill="#000000">+ GPUdi()</text>
<text text-anchor="start" x="187.064" y="-73.5" font-family="Helvetica,sans-Serif" font-size="10.00" fill="#000000">+ GPUdi()</text>
<text text-anchor="start" x="187.064" y="-62.5" font-family="Helvetica,sans-Serif" font-size="10.00" fill="#000000">+ GPUdii()</text>
<text text-anchor="start" x="187.064" y="-51.5" font-family="Helvetica,sans-Serif" font-size="10.00" fill="#000000">+ GPUsharedref()</text>
<text text-anchor="start" x="187.064" y="-40.5" font-family="Helvetica,sans-Serif" font-size="10.00" fill="#000000">+ GPUrestrict()</text>
<text text-anchor="start" x="187.064" y="-29.5" font-family="Helvetica,sans-Serif" font-size="10.00" fill="#000000">+ GPUdii()</text>
<text text-anchor="start" x="187.064" y="-18.5" font-family="Helvetica,sans-Serif" font-size="10.00" fill="#000000">+ GPUsharedref()</text>
<text text-anchor="start" x="187.064" y="-7.5" font-family="Helvetica,sans-Serif" font-size="10.00" fill="#000000">+ GPUrestrict()</text>
</g>
<!-- Node3 -->
<g id="node2" class="node">
<title>Node3</title>
<g id="a_node2"><a xlink:href="../../d3/d60/classGPUCA__NAMESPACE_1_1gpu_1_1GPUKernelTemplate.html" target="_top" xlink:title="{GPUCA_NAMESPACE::gpu\l::GPUKernelTemplate\n||+ GPUconstantref()\l+ GPUhdi()\l+ GPUhdi()\l+ GPUd()\l+ GPUsharedref()\l}">
<polygon fill="none" stroke="#000000" points="76.564,-435.5 76.564,-547.5 216.564,-547.5 216.564,-435.5 76.564,-435.5"/>
<text text-anchor="start" x="84.564" y="-535.5" font-family="Helvetica,sans-Serif" font-size="10.00" fill="#000000">GPUCA_NAMESPACE::gpu</text>
<text text-anchor="middle" x="146.564" y="-524.5" font-family="Helvetica,sans-Serif" font-size="10.00" fill="#000000">::GPUKernelTemplate</text>
<polyline fill="none" stroke="#000000" points="76.564,-517.5 216.564,-517.5 "/>
<text text-anchor="middle" x="146.564" y="-505.5" font-family="Helvetica,sans-Serif" font-size="10.00" fill="#000000"> </text>
<polyline fill="none" stroke="#000000" points="76.564,-498.5 216.564,-498.5 "/>
<text text-anchor="start" x="84.564" y="-486.5" font-family="Helvetica,sans-Serif" font-size="10.00" fill="#000000">+ GPUconstantref()</text>
<text text-anchor="start" x="84.564" y="-475.5" font-family="Helvetica,sans-Serif" font-size="10.00" fill="#000000">+ GPUhdi()</text>
<text text-anchor="start" x="84.564" y="-464.5" font-family="Helvetica,sans-Serif" font-size="10.00" fill="#000000">+ GPUhdi()</text>
<text text-anchor="start" x="84.564" y="-453.5" font-family="Helvetica,sans-Serif" font-size="10.00" fill="#000000">+ GPUd()</text>
<text text-anchor="start" x="84.564" y="-442.5" font-family="Helvetica,sans-Serif" font-size="10.00" fill="#000000">+ GPUsharedref()</text>
</a>
</g>
</g>
<!-- Node3&#45;&gt;Node2 -->
<g id="edge1" class="edge">
<title>Node3&#45;&gt;Node2</title>
<path fill="none" stroke="#191970" d="M170.8015,-425.7792C186.1674,-384.114 206.6291,-328.6313 225.4588,-277.5737"/>
<polygon fill="none" stroke="#191970" points="167.4831,-424.6622 167.3067,-435.2556 174.0507,-427.0843 167.4831,-424.6622"/>
</g>
<!-- Node4 -->
<g id="node3" class="node">
<title>Node4</title>
<polygon fill="none" stroke="#bfbfbf" points="6.064,-617.5 6.064,-674.5 35.064,-674.5 35.064,-617.5 6.064,-617.5"/>
<text text-anchor="middle" x="20.564" y="-662.5" font-family="Helvetica,sans-Serif" font-size="10.00" fill="#000000">int</text>
<polyline fill="none" stroke="#bfbfbf" points="6.064,-655.5 35.064,-655.5 "/>
<text text-anchor="middle" x="20.564" y="-643.5" font-family="Helvetica,sans-Serif" font-size="10.00" fill="#000000"> </text>
<polyline fill="none" stroke="#bfbfbf" points="6.064,-636.5 35.064,-636.5 "/>
<text text-anchor="middle" x="20.564" y="-624.5" font-family="Helvetica,sans-Serif" font-size="10.00" fill="#000000"> </text>
</g>
<!-- Node4&#45;&gt;Node2 -->
<g id="edge4" class="edge">
<title>Node4&#45;&gt;Node2</title>
<path fill="none" stroke="#404040" d="M12.8005,-617.2103C3.0358,-575.4913 -9.8102,-496.4983 13.564,-435 45.0997,-352.0286 111.7307,-277.4531 170.0315,-223.912"/>
<polygon fill="none" stroke="#404040" points="170.0493,-223.8959 171.8066,-216.9022 178.9383,-215.8345 177.1809,-222.8282 170.0493,-223.8959"/>
<text text-anchor="middle" x="40.564" y="-500" font-family="Helvetica,sans-Serif" font-size="10.00" fill="#000000"> +iThread</text>
<text text-anchor="middle" x="40.564" y="-489" font-family="Helvetica,sans-Serif" font-size="10.00" fill="#000000">+iBlock</text>
<text text-anchor="middle" x="40.564" y="-478" font-family="Helvetica,sans-Serif" font-size="10.00" fill="#000000">+nThreads</text>
</g>
<!-- Node4&#45;&gt;Node3 -->
<g id="edge2" class="edge">
<title>Node4&#45;&gt;Node3</title>
<path fill="none" stroke="#404040" d="M35.2644,-627.9745C49.5451,-610.4637 72.1007,-582.8062 93.1841,-556.9539"/>
<polygon fill="none" stroke="#404040" points="93.2829,-556.8328 93.9751,-549.6549 100.867,-547.5332 100.1748,-554.711 93.2829,-556.8328"/>
<text text-anchor="middle" x="110.564" y="-591" font-family="Helvetica,sans-Serif" font-size="10.00" fill="#000000"> +iThread</text>
<text text-anchor="middle" x="110.564" y="-580" font-family="Helvetica,sans-Serif" font-size="10.00" fill="#000000">+iBlock</text>
<text text-anchor="middle" x="110.564" y="-569" font-family="Helvetica,sans-Serif" font-size="10.00" fill="#000000">+nThreads</text>
</g>
<!-- Node5 -->
<g id="node4" class="node">
<title>Node5</title>
<polygon fill="none" stroke="#bfbfbf" points="234.564,-463 234.564,-520 318.564,-520 318.564,-463 234.564,-463"/>
<text text-anchor="middle" x="276.564" y="-508" font-family="Helvetica,sans-Serif" font-size="10.00" fill="#000000">const Scalar *</text>
<polyline fill="none" stroke="#bfbfbf" points="234.564,-501 318.564,-501 "/>
<text text-anchor="middle" x="276.564" y="-489" font-family="Helvetica,sans-Serif" font-size="10.00" fill="#000000"> </text>
<polyline fill="none" stroke="#bfbfbf" points="234.564,-482 318.564,-482 "/>
<text text-anchor="middle" x="276.564" y="-470" font-family="Helvetica,sans-Serif" font-size="10.00" fill="#000000"> </text>
</g>
<!-- Node5&#45;&gt;Node2 -->
<g id="edge3" class="edge">
<title>Node5&#45;&gt;Node2</title>
<path fill="none" stroke="#404040" d="M276.564,-462.952C276.564,-424.9945 276.564,-355.0972 276.564,-289.9197"/>
<polygon fill="none" stroke="#404040" points="276.5641,-289.8133 272.5641,-283.8133 276.564,-277.8133 280.5641,-283.8133 276.5641,-289.8133"/>
<text text-anchor="middle" x="289.564" y="-354" font-family="Helvetica,sans-Serif" font-size="10.00" fill="#000000"> +src</text>
</g>
<!-- Node6 -->
<g id="node5" class="node">
<title>Node6</title>
<polygon fill="none" stroke="#bfbfbf" points="337.064,-463 337.064,-520 398.064,-520 398.064,-463 337.064,-463"/>
<text text-anchor="middle" x="367.564" y="-508" font-family="Helvetica,sans-Serif" font-size="10.00" fill="#000000">unsigned</text>
<polyline fill="none" stroke="#bfbfbf" points="337.064,-501 398.064,-501 "/>
<text text-anchor="middle" x="367.564" y="-489" font-family="Helvetica,sans-Serif" font-size="10.00" fill="#000000"> </text>
<polyline fill="none" stroke="#bfbfbf" points="337.064,-482 398.064,-482 "/>
<text text-anchor="middle" x="367.564" y="-470" font-family="Helvetica,sans-Serif" font-size="10.00" fill="#000000"> </text>
</g>
<!-- Node6&#45;&gt;Node2 -->
<g id="edge5" class="edge">
<title>Node6&#45;&gt;Node2</title>
<path fill="none" stroke="#404040" d="M360.1942,-462.952C350.3749,-424.9158 332.2759,-354.8071 315.4201,-289.5141"/>
<polygon fill="none" stroke="#404040" points="315.3991,-289.4324 310.0263,-284.6227 312.3995,-277.8133 317.7723,-282.623 315.3991,-289.4324"/>
<text text-anchor="middle" x="374.564" y="-365" font-family="Helvetica,sans-Serif" font-size="10.00" fill="#000000"> +iThread</text>
<text text-anchor="middle" x="374.564" y="-354" font-family="Helvetica,sans-Serif" font-size="10.00" fill="#000000">+size</text>
<text text-anchor="middle" x="374.564" y="-343" font-family="Helvetica,sans-Serif" font-size="10.00" fill="#000000">+nThreads</text>
</g>
<!-- Node7 -->
<g id="node6" class="node">
<title>Node7</title>
<polygon fill="none" stroke="#bfbfbf" points="423.064,-463 423.064,-520 452.064,-520 452.064,-463 423.064,-463"/>
<text text-anchor="middle" x="437.564" y="-508" font-family="Helvetica,sans-Serif" font-size="10.00" fill="#000000">T</text>
<polyline fill="none" stroke="#bfbfbf" points="423.064,-501 452.064,-501 "/>
<text text-anchor="middle" x="437.564" y="-489" font-family="Helvetica,sans-Serif" font-size="10.00" fill="#000000"> </text>
<polyline fill="none" stroke="#bfbfbf" points="423.064,-482 452.064,-482 "/>
<text text-anchor="middle" x="437.564" y="-470" font-family="Helvetica,sans-Serif" font-size="10.00" fill="#000000"> </text>
</g>
<!-- Node7&#45;&gt;Node2 -->
<g id="edge6" class="edge">
<title>Node7&#45;&gt;Node2</title>
<path fill="none" stroke="#404040" d="M437.474,-462.9821C436.3537,-423.6858 430.6655,-351.4588 405.564,-296 398.8919,-281.2588 390.4696,-266.7599 381.1384,-252.8899"/>
<polygon fill="none" stroke="#404040" points="381.0471,-252.7585 374.3373,-250.1167 374.1953,-242.907 380.9051,-245.5488 381.0471,-252.7585"/>
<text text-anchor="middle" x="458.064" y="-409" font-family="Helvetica,sans-Serif" font-size="10.00" fill="#000000"> +iThread</text>
<text text-anchor="middle" x="458.064" y="-398" font-family="Helvetica,sans-Serif" font-size="10.00" fill="#000000">+iBlock</text>
<text text-anchor="middle" x="458.064" y="-387" font-family="Helvetica,sans-Serif" font-size="10.00" fill="#000000">+iWarp</text>
<text text-anchor="middle" x="458.064" y="-376" font-family="Helvetica,sans-Serif" font-size="10.00" fill="#000000">+nLanes</text>
<text text-anchor="middle" x="458.064" y="-365" font-family="Helvetica,sans-Serif" font-size="10.00" fill="#000000">+start</text>
<text text-anchor="middle" x="458.064" y="-354" font-family="Helvetica,sans-Serif" font-size="10.00" fill="#000000">+nums</text>
<text text-anchor="middle" x="458.064" y="-343" font-family="Helvetica,sans-Serif" font-size="10.00" fill="#000000">+nBlocks</text>
<text text-anchor="middle" x="458.064" y="-332" font-family="Helvetica,sans-Serif" font-size="10.00" fill="#000000">+iLane</text>
<text text-anchor="middle" x="458.064" y="-321" font-family="Helvetica,sans-Serif" font-size="10.00" fill="#000000">+src</text>
<text text-anchor="middle" x="458.064" y="-310" font-family="Helvetica,sans-Serif" font-size="10.00" fill="#000000">+nTracks</text>
<text text-anchor="middle" x="458.064" y="-299" font-family="Helvetica,sans-Serif" font-size="10.00" fill="#000000">...</text>
</g>
</g>
</svg>
        <g id="navigator" transform="translate(0 0)" fill="#404254">
                <rect fill="#f2f5e9" fill-opacity="0.5" stroke="#606060" stroke-width=".5" x="0" y="0" width="60" height="60"/>
                <use id="zoomplus" xlink:href="#zoomPlus" x="17" y="9" onmousedown="handleZoom(evt,'in')"/>
                <use id="zoomminus" xlink:href="#zoomMin" x="42" y="9" onmousedown="handleZoom(evt,'out')"/>
                <use id="reset" xlink:href="#resetDef" x="30" y="36" onmousedown="handleReset()"/>
                <g id="arrowUp" xlink:href="#dirArrow" transform="translate(30 24)" onmousedown="handlePan(0,-1)">
                  <use xlink:href="#rim" fill="#404040">
                        <set attributeName="fill" to="#808080" begin="arrowUp.mouseover" end="arrowUp.mouseout"/>
                  </use>
                  <path fill="none" stroke="white" stroke-width="1.5" d="M0,-3.0v7 M-2.5,-0.5L0,-3.0L2.5,-0.5"/>
                </g>
                <g id="arrowRight" xlink:href="#dirArrow" transform="rotate(90) translate(36 -43)" onmousedown="handlePan(1,0)">
                  <use xlink:href="#rim" fill="#404040">
                        <set attributeName="fill" to="#808080" begin="arrowRight.mouseover" end="arrowRight.mouseout"/>
                  </use>
                  <path fill="none" stroke="white" stroke-width="1.5" d="M0,-3.0v7 M-2.5,-0.5L0,-3.0L2.5,-0.5"/>
                </g>
                <g id="arrowDown" xlink:href="#dirArrow" transform="rotate(180) translate(-30 -48)" onmousedown="handlePan(0,1)">
                  <use xlink:href="#rim" fill="#404040">
                        <set attributeName="fill" to="#808080" begin="arrowDown.mouseover" end="arrowDown.mouseout"/>
                  </use>
                  <path fill="none" stroke="white" stroke-width="1.5" d="M0,-3.0v7 M-2.5,-0.5L0,-3.0L2.5,-0.5"/>
                </g>
                <g id="arrowLeft" xlink:href="#dirArrow" transform="rotate(270) translate(-36 17)" onmousedown="handlePan(-1,0)">
                  <use xlink:href="#rim" fill="#404040">
                        <set attributeName="fill" to="#808080" begin="arrowLeft.mouseover" end="arrowLeft.mouseout"/>
                  </use>
                  <path fill="none" stroke="white" stroke-width="1.5" d="M0,-3.0v7 M-2.5,-0.5L0,-3.0L2.5,-0.5"/>
                </g>
        </g>
        <svg viewBox="0 0 15 15" width="100%" height="30px" preserveAspectRatio="xMaxYMin meet">
         <g id="arrow_out" transform="scale(0.3 0.3)">
          <a xlink:href="classGPUCA__NAMESPACE_1_1gpu_1_1GPUTPCCompressionGatherKernels__coll__graph_org.svg" target="_base">
           <rect id="button" ry="5" rx="5" y="6" x="6" height="38" width="38"
                fill="#f2f5e9" fill-opacity="0.5" stroke="#606060" stroke-width="1.0"/>
           <path id="arrow"
             d="M 11.500037,31.436501 C 11.940474,20.09759 22.043105,11.32322 32.158766,21.979434 L 37.068811,17.246167 C 37.068811,17.246167 37.088388,32 37.088388,32 L 22.160133,31.978069 C 22.160133,31.978069 26.997745,27.140456 26.997745,27.140456 C 18.528582,18.264221 13.291696,25.230495 11.500037,31.436501 z"
             style="fill:#404040;"/>
          </a>
         </g>
        </svg>
</svg>
