<?xml version="1.0" encoding="UTF-8" standalone="no"?>
<!DOCTYPE svg PUBLIC "-//W3C//DTD SVG 1.1//EN"
 "http://www.w3.org/Graphics/SVG/1.1/DTD/svg11.dtd">
<!-- Generated by graphviz version 2.40.1 (20161225.0304)
 -->
<!-- Title: o2::framework::ReaderHolder&lt; T[N]&gt; Pages: 1 -->
<svg width="317pt" height="215pt"
 viewBox="0.00 0.00 316.50 215.00" xmlns="http://www.w3.org/2000/svg" xmlns:xlink="http://www.w3.org/1999/xlink">
<g id="graph0" class="graph" transform="scale(1 1) rotate(0) translate(4 211)">
<title>o2::framework::ReaderHolder&lt; T[N]&gt;</title>
<!-- Node1 -->
<g id="node1" class="node">
<title>Node1</title>
<polygon fill="#bfbfbf" stroke="#000000" points="119.5,-.5 119.5,-90.5 279.5,-90.5 279.5,-.5 119.5,-.5"/>
<text text-anchor="start" x="127.5" y="-78.5" font-family="Helvetica,sans-Serif" font-size="10.00" fill="#000000">o2::framework::ReaderHolder</text>
<text text-anchor="middle" x="199.5" y="-67.5" font-family="Helvetica,sans-Serif" font-size="10.00" fill="#000000">&lt; T[N]&gt;</text>
<polyline fill="none" stroke="#000000" points="119.5,-60.5 279.5,-60.5 "/>
<text text-anchor="middle" x="199.5" y="-48.5" font-family="Helvetica,sans-Serif" font-size="10.00" fill="#000000"> </text>
<polyline fill="none" stroke="#000000" points="119.5,-41.5 279.5,-41.5 "/>
<text text-anchor="start" x="127.5" y="-29.5" font-family="Helvetica,sans-Serif" font-size="10.00" fill="#000000">+ ReaderHolder()</text>
<text text-anchor="start" x="127.5" y="-18.5" font-family="Helvetica,sans-Serif" font-size="10.00" fill="#000000">+ ReaderHolder()</text>
<text text-anchor="start" x="127.5" y="-7.5" font-family="Helvetica,sans-Serif" font-size="10.00" fill="#000000">+ operator=()</text>
</g>
<!-- Node2 -->
<g id="node2" class="node">
<title>Node2</title>
<polygon fill="none" stroke="#bfbfbf" points="0,-149.5 0,-206.5 125,-206.5 125,-149.5 0,-149.5"/>
<text text-anchor="middle" x="62.5" y="-194.5" font-family="Helvetica,sans-Serif" font-size="10.00" fill="#000000">unique_ptr&lt; Reader &gt;</text>
<polyline fill="none" stroke="#bfbfbf" points="0,-187.5 125,-187.5 "/>
<text text-anchor="middle" x="62.5" y="-175.5" font-family="Helvetica,sans-Serif" font-size="10.00" fill="#000000"> </text>
<polyline fill="none" stroke="#bfbfbf" points="0,-168.5 125,-168.5 "/>
<text text-anchor="middle" x="62.5" y="-156.5" font-family="Helvetica,sans-Serif" font-size="10.00" fill="#000000"> </text>
</g>
<!-- Node2&#45;&gt;Node1 -->
<g id="edge1" class="edge">
<title>Node2&#45;&gt;Node1</title>
<path fill="none" stroke="#404040" d="M92.227,-149.2495C107.3054,-134.6663 126.1212,-116.4685 143.7656,-99.4037"/>
<polygon fill="none" stroke="#404040" points="144.2338,-98.9508 145.7659,-91.9043 152.8596,-90.6084 151.3276,-97.6549 144.2338,-98.9508"/>
<text text-anchor="middle" x="153" y="-117.5" font-family="Helvetica,sans-Serif" font-size="10.00" fill="#000000"> +reader</text>
</g>
<!-- Node3 -->
<g id="node3" class="node">
<title>Node3</title>
<polygon fill="none" stroke="#bfbfbf" points="143,-149.5 143,-206.5 256,-206.5 256,-149.5 143,-149.5"/>
<text text-anchor="middle" x="199.5" y="-194.5" font-family="Helvetica,sans-Serif" font-size="10.00" fill="#000000">Remap64Bit_t&lt; T &gt;</text>
<polyline fill="none" stroke="#bfbfbf" points="143,-187.5 256,-187.5 "/>
<text text-anchor="middle" x="199.5" y="-175.5" font-family="Helvetica,sans-Serif" font-size="10.00" fill="#000000"> </text>
<polyline fill="none" stroke="#bfbfbf" points="143,-168.5 256,-168.5 "/>
<text text-anchor="middle" x="199.5" y="-156.5" font-family="Helvetica,sans-Serif" font-size="10.00" fill="#000000"> </text>
</g>
<!-- Node3&#45;&gt;Node1 -->
<g id="edge2" class="edge">
<title>Node3&#45;&gt;Node1</title>
<path fill="none" stroke="#404040" d="M199.5,-149.2495C199.5,-135.6028 199.5,-118.791 199.5,-102.7042"/>
<polygon fill="none" stroke="#404040" points="199.5001,-102.6084 195.5,-96.6084 199.5,-90.6084 203.5,-96.6083 199.5001,-102.6084"/>
<text text-anchor="middle" x="219.5" y="-117.5" font-family="Helvetica,sans-Serif" font-size="10.00" fill="#000000"> +buffer</text>
</g>
<!-- Node4 -->
<g id="node4" class="node">
<title>Node4</title>
<polygon fill="none" stroke="#bfbfbf" points="274,-149.5 274,-206.5 303,-206.5 303,-149.5 274,-149.5"/>
<text text-anchor="middle" x="288.5" y="-194.5" font-family="Helvetica,sans-Serif" font-size="10.00" fill="#000000">int</text>
<polyline fill="none" stroke="#bfbfbf" points="274,-187.5 303,-187.5 "/>
<text text-anchor="middle" x="288.5" y="-175.5" font-family="Helvetica,sans-Serif" font-size="10.00" fill="#000000"> </text>
<polyline fill="none" stroke="#bfbfbf" points="274,-168.5 303,-168.5 "/>
<text text-anchor="middle" x="288.5" y="-156.5" font-family="Helvetica,sans-Serif" font-size="10.00" fill="#000000"> </text>
</g>
<!-- Node4&#45;&gt;Node1 -->
<g id="edge3" class="edge">
<title>Node4&#45;&gt;Node1</title>
<path fill="none" stroke="#404040" d="M273.8639,-155.2083C265.1399,-141.7112 253.7939,-124.3103 243.5,-109 241.7028,-106.327 239.8555,-103.5966 237.9835,-100.8433"/>
<polygon fill="none" stroke="#404040" points="237.9132,-100.7403 231.225,-98.0444 231.1412,-90.8337 237.8294,-93.5297 237.9132,-100.7403"/>
<text text-anchor="middle" x="282.5" y="-123" font-family="Helvetica,sans-Serif" font-size="10.00" fill="#000000"> +pos</text>
<text text-anchor="middle" x="282.5" y="-112" font-family="Helvetica,sans-Serif" font-size="10.00" fill="#000000">+itemSize</text>
</g>
</g>
</svg>
