<?xml version="1.0" encoding="UTF-8" standalone="no"?>
<!DOCTYPE svg PUBLIC "-//W3C//DTD SVG 1.1//EN"
 "http://www.w3.org/Graphics/SVG/1.1/DTD/svg11.dtd">
<!-- Generated by graphviz version 2.40.1 (20161225.0304)
 -->
<!-- Title: /home/travis/build/AliceO2Group/AliceO2/GPU/GPUTracking/DataCompression/TPCClusterDecompressor.h Pages: 1 -->
<!--zoomable 565 -->
<svg id="main" version="1.1" xmlns="http://www.w3.org/2000/svg" xmlns:xlink="http://www.w3.org/1999/xlink" xml:space="preserve" onload="init(evt)">
<style type="text/css"><![CDATA[
.edge:hover path { stroke: red; }
.edge:hover polygon { stroke: red; fill: red; }
]]></style>
<script type="text/javascript"><![CDATA[
var edges = document.getElementsByTagName('g');
if (edges && edges.length) {
  for (var i=0;i<edges.length;i++) {
    if (edges[i].id.substr(0,4)=='edge') {
      edges[i].setAttribute('class','edge');
    }
  }
}
]]></script>
        <defs>
                <circle id="rim" cx="0" cy="0" r="7"/>
                <circle id="rim2" cx="0" cy="0" r="3.5"/>
                <g id="zoomPlus">
                        <use xlink:href="#rim" fill="#404040">
                                <set attributeName="fill" to="#808080" begin="zoomplus.mouseover" end="zoomplus.mouseout"/>
                        </use>
                        <path d="M-4,0h8M0,-4v8" fill="none" stroke="white" stroke-width="1.5" pointer-events="none"/>
                </g>
                <g id="zoomMin">
                        <use xlink:href="#rim" fill="#404040">
                                <set attributeName="fill" to="#808080" begin="zoomminus.mouseover" end="zoomminus.mouseout"/>
                        </use>
                        <path d="M-4,0h8" fill="none" stroke="white" stroke-width="1.5" pointer-events="none"/>
                </g>
                <g id="dirArrow">
                        <path fill="none" stroke="white" stroke-width="1.5" d="M0,-3.0v7 M-2.5,-0.5L0,-3.0L2.5,-0.5"/>
                </g>
               <g id="resetDef">
                       <use xlink:href="#rim2" fill="#404040">
                               <set attributeName="fill" to="#808080" begin="reset.mouseover" end="reset.mouseout"/>
                       </use>
               </g>
        </defs>

<script type="text/javascript">
var viewWidth = 1064;
var viewHeight = 565;
var sectionId = 'dynsection-0';
</script>
<script xlink:href="../../svgpan.js"/>
<svg id="graph" class="graph">
<g id="viewport">
<title>/home/travis/build/AliceO2Group/AliceO2/GPU/GPUTracking/DataCompression/TPCClusterDecompressor.h</title>
<!-- Node0 -->
<g id="node1" class="node">
<title>Node0</title>
<polygon fill="#bfbfbf" stroke="#000000" points="861,-504.5 861,-556.5 1056,-556.5 1056,-504.5 861,-504.5"/>
<text text-anchor="start" x="869" y="-544.5" font-family="Helvetica,sans-Serif" font-size="10.00" fill="#000000">/home/travis/build</text>
<text text-anchor="start" x="869" y="-533.5" font-family="Helvetica,sans-Serif" font-size="10.00" fill="#000000">/AliceO2Group/AliceO2</text>
<text text-anchor="start" x="869" y="-522.5" font-family="Helvetica,sans-Serif" font-size="10.00" fill="#000000">/GPU/GPUTracking/DataCompression</text>
<text text-anchor="middle" x="958.5" y="-511.5" font-family="Helvetica,sans-Serif" font-size="10.00" fill="#000000">/TPCClusterDecompressor.h</text>
</g>
<!-- Node1 -->
<g id="node2" class="node">
<title>Node1</title>
<g id="a_node2"><a xlink:href="../../d5/d92/GPUTPCCompression_8h.html" target="_top" xlink:title="GPUTPCCompression.h">
<polygon fill="none" stroke="#000000" points="418,-448.5 418,-467.5 547,-467.5 547,-448.5 418,-448.5"/>
<text text-anchor="middle" x="482.5" y="-455.5" font-family="Helvetica,sans-Serif" font-size="10.00" fill="#000000">GPUTPCCompression.h</text>
</a>
</g>
</g>
<!-- Node0&#45;&gt;Node1 -->
<g id="edge1" class="edge">
<title>Node0&#45;&gt;Node1</title>
<path fill="none" stroke="#191970" d="M860.7378,-515.6097C769.9396,-501.7802 636.8112,-481.5033 555.1111,-469.0595"/>
<polygon fill="#191970" stroke="#191970" points="555.3308,-465.5526 544.9178,-467.5069 554.2767,-472.4728 555.3308,-465.5526"/>
</g>
<!-- Node19 -->
<g id="node20" class="node">
<title>Node19</title>
<polygon fill="none" stroke="#bfbfbf" points="956,-280.5 956,-299.5 1003,-299.5 1003,-280.5 956,-280.5"/>
<text text-anchor="middle" x="979.5" y="-287.5" font-family="Helvetica,sans-Serif" font-size="10.00" fill="#000000">vector</text>
</g>
<!-- Node0&#45;&gt;Node19 -->
<g id="edge40" class="edge">
<title>Node0&#45;&gt;Node19</title>
<path fill="none" stroke="#191970" d="M960.7873,-504.3045C965.0225,-455.8023 973.9967,-353.0256 977.7706,-309.8056"/>
<polygon fill="#191970" stroke="#191970" points="981.2674,-309.9935 978.6507,-299.7269 974.294,-309.3845 981.2674,-309.9935"/>
</g>
<!-- Node27 -->
<g id="node28" class="node">
<title>Node27</title>
<polygon fill="none" stroke="#bfbfbf" points="987,-448.5 987,-467.5 1052,-467.5 1052,-448.5 987,-448.5"/>
<text text-anchor="middle" x="1019.5" y="-455.5" font-family="Helvetica,sans-Serif" font-size="10.00" fill="#000000">functional</text>
</g>
<!-- Node0&#45;&gt;Node27 -->
<g id="edge41" class="edge">
<title>Node0&#45;&gt;Node27</title>
<path fill="none" stroke="#191970" d="M980.5224,-504.3258C988.6104,-494.7131 997.5623,-484.0735 1004.8453,-475.4174"/>
<polygon fill="#191970" stroke="#191970" points="1007.7183,-477.4392 1011.4783,-467.534 1002.362,-472.9325 1007.7183,-477.4392"/>
</g>
<!-- Node2 -->
<g id="node3" class="node">
<title>Node2</title>
<g id="a_node3"><a xlink:href="../../d2/d6d/GPUDef_8h.html" target="_top" xlink:title="GPUDef.h">
<polygon fill="none" stroke="#000000" points="378,-224.5 378,-243.5 441,-243.5 441,-224.5 378,-224.5"/>
<text text-anchor="middle" x="409.5" y="-231.5" font-family="Helvetica,sans-Serif" font-size="10.00" fill="#000000">GPUDef.h</text>
</a>
</g>
</g>
<!-- Node1&#45;&gt;Node2 -->
<g id="edge2" class="edge">
<title>Node1&#45;&gt;Node2</title>
<path fill="none" stroke="#191970" d="M506.7073,-448.4615C548.2366,-430.4842 626.5697,-388.6213 604.5,-336 579.1852,-275.6415 500.4258,-250.3883 451.0883,-240.2858"/>
<polygon fill="#191970" stroke="#191970" points="451.5176,-236.8043 441.0366,-238.3528 450.1957,-243.6783 451.5176,-236.8043"/>
</g>
<!-- Node12 -->
<g id="node13" class="node">
<title>Node12</title>
<g id="a_node13"><a xlink:href="../../d6/d57/GPUProcessor_8h.html" target="_top" xlink:title="GPUProcessor.h">
<polygon fill="none" stroke="#000000" points="73,-336.5 73,-355.5 166,-355.5 166,-336.5 73,-336.5"/>
<text text-anchor="middle" x="119.5" y="-343.5" font-family="Helvetica,sans-Serif" font-size="10.00" fill="#000000">GPUProcessor.h</text>
</a>
</g>
</g>
<!-- Node1&#45;&gt;Node12 -->
<g id="edge13" class="edge">
<title>Node1&#45;&gt;Node12</title>
<path fill="none" stroke="#191970" d="M451.5508,-448.4509C386.0507,-428.2415 233.4288,-381.1516 160.1647,-358.5467"/>
<polygon fill="#191970" stroke="#191970" points="160.9583,-355.1288 150.3708,-355.5249 158.8944,-361.8176 160.9583,-355.1288"/>
</g>
<!-- Node15 -->
<g id="node16" class="node">
<title>Node15</title>
<g id="a_node16"><a xlink:href="../../d6/da2/GPUCommonMath_8h.html" target="_top" xlink:title="GPUCommonMath.h">
<polygon fill="none" stroke="#000000" points="228,-336.5 228,-355.5 343,-355.5 343,-336.5 228,-336.5"/>
<text text-anchor="middle" x="285.5" y="-343.5" font-family="Helvetica,sans-Serif" font-size="10.00" fill="#000000">GPUCommonMath.h</text>
</a>
</g>
</g>
<!-- Node1&#45;&gt;Node15 -->
<g id="edge18" class="edge">
<title>Node1&#45;&gt;Node15</title>
<path fill="none" stroke="#191970" d="M465.7039,-448.4509C431.1747,-428.8201 352.033,-383.8259 311.0875,-360.5472"/>
<polygon fill="#191970" stroke="#191970" points="312.6767,-357.4247 302.2536,-355.5249 309.217,-363.51 312.6767,-357.4247"/>
</g>
<!-- Node17 -->
<g id="node18" class="node">
<title>Node17</title>
<g id="a_node18"><a xlink:href="../../df/d13/GPUParam_8h.html" target="_top" xlink:title="GPUParam.h">
<polygon fill="none" stroke="#000000" points="444,-392.5 444,-411.5 521,-411.5 521,-392.5 444,-392.5"/>
<text text-anchor="middle" x="482.5" y="-399.5" font-family="Helvetica,sans-Serif" font-size="10.00" fill="#000000">GPUParam.h</text>
</a>
</g>
</g>
<!-- Node1&#45;&gt;Node17 -->
<g id="edge22" class="edge">
<title>Node1&#45;&gt;Node17</title>
<path fill="none" stroke="#191970" d="M482.5,-448.2455C482.5,-440.9382 482.5,-430.6944 482.5,-421.7046"/>
<polygon fill="#191970" stroke="#191970" points="486.0001,-421.6426 482.5,-411.6427 479.0001,-421.6427 486.0001,-421.6426"/>
</g>
<!-- Node3 -->
<g id="node4" class="node">
<title>Node3</title>
<g id="a_node4"><a xlink:href="../../df/d21/GPUCommonDef_8h.html" target="_top" xlink:title="GPUCommonDef.h">
<polygon fill="none" stroke="#000000" points="154,-56.5 154,-75.5 261,-75.5 261,-56.5 154,-56.5"/>
<text text-anchor="middle" x="207.5" y="-63.5" font-family="Helvetica,sans-Serif" font-size="10.00" fill="#000000">GPUCommonDef.h</text>
</a>
</g>
</g>
<!-- Node2&#45;&gt;Node3 -->
<g id="edge3" class="edge">
<title>Node2&#45;&gt;Node3</title>
<path fill="none" stroke="#191970" d="M377.8374,-228.0092C328.2249,-218.3346 236.7384,-199.2238 226.5,-188 200.9662,-160.0086 201.6338,-112.5128 204.4942,-85.7888"/>
<polygon fill="#191970" stroke="#191970" points="207.9843,-86.0887 205.7843,-75.7248 201.0411,-85.1986 207.9843,-86.0887"/>
</g>
<!-- Node6 -->
<g id="node7" class="node">
<title>Node6</title>
<g id="a_node7"><a xlink:href="../../d2/d37/GPUDefConstantsAndSettings_8h.html" target="_top" xlink:title="GPUDefConstantsAndSettings.h">
<polygon fill="none" stroke="#000000" points="570,-112.5 570,-131.5 741,-131.5 741,-112.5 570,-112.5"/>
<text text-anchor="middle" x="655.5" y="-119.5" font-family="Helvetica,sans-Serif" font-size="10.00" fill="#000000">GPUDefConstantsAndSettings.h</text>
</a>
</g>
</g>
<!-- Node2&#45;&gt;Node6 -->
<g id="edge6" class="edge">
<title>Node2&#45;&gt;Node6</title>
<path fill="none" stroke="#191970" d="M408.3641,-224.4122C407.2424,-210.0493 407.4738,-183.0327 422.5,-168 433.6022,-156.893 514.0101,-142.7144 577.3019,-133.0538"/>
<polygon fill="#191970" stroke="#191970" points="577.9348,-136.498 587.2997,-131.5433 576.889,-129.5766 577.9348,-136.498"/>
</g>
<!-- Node7 -->
<g id="node8" class="node">
<title>Node7</title>
<g id="a_node8"><a xlink:href="../../dc/de9/GPUDefGPUParameters_8h.html" target="_top" xlink:title="GPUDefGPUParameters.h">
<polygon fill="none" stroke="#000000" points="235.5,-168.5 235.5,-187.5 375.5,-187.5 375.5,-168.5 235.5,-168.5"/>
<text text-anchor="middle" x="305.5" y="-175.5" font-family="Helvetica,sans-Serif" font-size="10.00" fill="#000000">GPUDefGPUParameters.h</text>
</a>
</g>
</g>
<!-- Node2&#45;&gt;Node7 -->
<g id="edge8" class="edge">
<title>Node2&#45;&gt;Node7</title>
<path fill="none" stroke="#191970" d="M391.3846,-224.2455C375.055,-215.4527 350.829,-202.4079 332.2661,-192.4125"/>
<polygon fill="#191970" stroke="#191970" points="333.8719,-189.3021 323.4078,-187.6427 330.5532,-195.4654 333.8719,-189.3021"/>
</g>
<!-- Node9 -->
<g id="node10" class="node">
<title>Node9</title>
<g id="a_node10"><a xlink:href="../../d3/d4c/GPUDefOpenCL12Templates_8h.html" target="_top" xlink:title="GPUDefOpenCL12Templates.h">
<polygon fill="none" stroke="#000000" points="431.5,-168.5 431.5,-187.5 595.5,-187.5 595.5,-168.5 431.5,-168.5"/>
<text text-anchor="middle" x="513.5" y="-175.5" font-family="Helvetica,sans-Serif" font-size="10.00" fill="#000000">GPUDefOpenCL12Templates.h</text>
</a>
</g>
</g>
<!-- Node2&#45;&gt;Node9 -->
<g id="edge10" class="edge">
<title>Node2&#45;&gt;Node9</title>
<path fill="none" stroke="#191970" d="M427.6154,-224.2455C443.945,-215.4527 468.171,-202.4079 486.7339,-192.4125"/>
<polygon fill="#191970" stroke="#191970" points="488.4468,-195.4654 495.5922,-187.6427 485.1281,-189.3021 488.4468,-195.4654"/>
</g>
<!-- Node10 -->
<g id="node11" class="node">
<title>Node10</title>
<g id="a_node11"><a xlink:href="../../d2/d45/GPUCommonRtypes_8h.html" target="_top" xlink:title="GPUCommonRtypes.h">
<polygon fill="none" stroke="#000000" points="614,-168.5 614,-187.5 739,-187.5 739,-168.5 614,-168.5"/>
<text text-anchor="middle" x="676.5" y="-175.5" font-family="Helvetica,sans-Serif" font-size="10.00" fill="#000000">GPUCommonRtypes.h</text>
</a>
</g>
</g>
<!-- Node2&#45;&gt;Node10 -->
<g id="edge11" class="edge">
<title>Node2&#45;&gt;Node10</title>
<path fill="none" stroke="#191970" d="M441.1769,-227.3562C485.5212,-218.0555 566.7683,-201.0149 621.2101,-189.5964"/>
<polygon fill="#191970" stroke="#191970" points="621.9802,-193.0111 631.0488,-187.5328 620.5432,-186.1602 621.9802,-193.0111"/>
</g>
<!-- Node4 -->
<g id="node5" class="node">
<title>Node4</title>
<g id="a_node5"><a xlink:href="../../d5/d93/GPUCommonDefSettings_8h.html" target="_top" xlink:title="GPUCommonDefSettings.h">
<polygon fill="none" stroke="#000000" points="56.5,-.5 56.5,-19.5 204.5,-19.5 204.5,-.5 56.5,-.5"/>
<text text-anchor="middle" x="130.5" y="-7.5" font-family="Helvetica,sans-Serif" font-size="10.00" fill="#000000">GPUCommonDefSettings.h</text>
</a>
</g>
</g>
<!-- Node3&#45;&gt;Node4 -->
<g id="edge4" class="edge">
<title>Node3&#45;&gt;Node4</title>
<path fill="none" stroke="#191970" d="M194.0876,-56.2455C182.4943,-47.814 165.5252,-35.4729 152.0322,-25.6598"/>
<polygon fill="#191970" stroke="#191970" points="153.9047,-22.6938 143.7587,-19.6427 149.7874,-28.355 153.9047,-22.6938"/>
</g>
<!-- Node5 -->
<g id="node6" class="node">
<title>Node5</title>
<g id="a_node6"><a xlink:href="../../da/d5a/GPUCommonDefAPI_8h.html" target="_top" xlink:title="GPUCommonDefAPI.h">
<polygon fill="none" stroke="#000000" points="222.5,-.5 222.5,-19.5 346.5,-19.5 346.5,-.5 222.5,-.5"/>
<text text-anchor="middle" x="284.5" y="-7.5" font-family="Helvetica,sans-Serif" font-size="10.00" fill="#000000">GPUCommonDefAPI.h</text>
</a>
</g>
</g>
<!-- Node3&#45;&gt;Node5 -->
<g id="edge5" class="edge">
<title>Node3&#45;&gt;Node5</title>
<path fill="none" stroke="#191970" d="M220.9124,-56.2455C232.5057,-47.814 249.4748,-35.4729 262.9678,-25.6598"/>
<polygon fill="#191970" stroke="#191970" points="265.2126,-28.355 271.2413,-19.6427 261.0953,-22.6938 265.2126,-28.355"/>
</g>
<!-- Node6&#45;&gt;Node3 -->
<g id="edge7" class="edge">
<title>Node6&#45;&gt;Node3</title>
<path fill="none" stroke="#191970" d="M579.2492,-112.4686C492.5387,-101.6298 352.5099,-84.1262 271.329,-73.9786"/>
<polygon fill="#191970" stroke="#191970" points="271.6014,-70.4855 261.2445,-72.7181 270.7331,-77.4315 271.6014,-70.4855"/>
</g>
<!-- Node8 -->
<g id="node9" class="node">
<title>Node8</title>
<g id="a_node9"><a xlink:href="../../d6/dff/GPUDefMacros_8h.html" target="_top" xlink:title="GPUDefMacros.h">
<polygon fill="none" stroke="#000000" points="256.5,-112.5 256.5,-131.5 354.5,-131.5 354.5,-112.5 256.5,-112.5"/>
<text text-anchor="middle" x="305.5" y="-119.5" font-family="Helvetica,sans-Serif" font-size="10.00" fill="#000000">GPUDefMacros.h</text>
</a>
</g>
</g>
<!-- Node7&#45;&gt;Node8 -->
<g id="edge9" class="edge">
<title>Node7&#45;&gt;Node8</title>
<path fill="none" stroke="#191970" d="M305.5,-168.2455C305.5,-160.9382 305.5,-150.6944 305.5,-141.7046"/>
<polygon fill="#191970" stroke="#191970" points="309.0001,-141.6426 305.5,-131.6427 302.0001,-141.6427 309.0001,-141.6426"/>
</g>
<!-- Node11 -->
<g id="node12" class="node">
<title>Node11</title>
<polygon fill="none" stroke="#bfbfbf" points="493,-112.5 493,-131.5 552,-131.5 552,-112.5 493,-112.5"/>
<text text-anchor="middle" x="522.5" y="-119.5" font-family="Helvetica,sans-Serif" font-size="10.00" fill="#000000">Rtypes.h</text>
</g>
<!-- Node10&#45;&gt;Node11 -->
<g id="edge12" class="edge">
<title>Node10&#45;&gt;Node11</title>
<path fill="none" stroke="#191970" d="M650.0265,-168.3733C624.6403,-159.1419 586.1355,-145.1402 558.078,-134.9375"/>
<polygon fill="#191970" stroke="#191970" points="559.2222,-131.6293 548.6281,-131.5011 556.8299,-138.2079 559.2222,-131.6293"/>
</g>
<!-- Node12&#45;&gt;Node2 -->
<g id="edge15" class="edge">
<title>Node12&#45;&gt;Node2</title>
<path fill="none" stroke="#191970" d="M119.2888,-336.2688C119.5422,-321.7187 122.319,-294.4608 138.5,-280 142.7693,-276.1846 293.0266,-252.2243 367.9226,-240.4774"/>
<polygon fill="#191970" stroke="#191970" points="368.6295,-243.9094 377.9675,-238.9043 367.5464,-236.9937 368.6295,-243.9094"/>
</g>
<!-- Node12&#45;&gt;Node3 -->
<g id="edge14" class="edge">
<title>Node12&#45;&gt;Node3</title>
<path fill="none" stroke="#191970" d="M113.893,-336.4834C103.3226,-317.6141 81.5,-273.8343 81.5,-234 81.5,-234 81.5,-234 81.5,-178 81.5,-129.3709 134.5767,-96.6863 171.833,-79.7339"/>
<polygon fill="#191970" stroke="#191970" points="173.6249,-82.7709 181.3927,-75.5659 170.8272,-76.3542 173.6249,-82.7709"/>
</g>
<!-- Node13 -->
<g id="node14" class="node">
<title>Node13</title>
<polygon fill="none" stroke="#bfbfbf" points="0,-280.5 0,-299.5 53,-299.5 53,-280.5 0,-280.5"/>
<text text-anchor="middle" x="26.5" y="-287.5" font-family="Helvetica,sans-Serif" font-size="10.00" fill="#000000">cstddef</text>
</g>
<!-- Node12&#45;&gt;Node13 -->
<g id="edge16" class="edge">
<title>Node12&#45;&gt;Node13</title>
<path fill="none" stroke="#191970" d="M103.3006,-336.2455C88.8982,-327.5731 67.6268,-314.7645 51.1201,-304.825"/>
<polygon fill="#191970" stroke="#191970" points="52.886,-301.8028 42.5137,-299.6427 49.275,-307.7996 52.886,-301.8028"/>
</g>
<!-- Node14 -->
<g id="node15" class="node">
<title>Node14</title>
<polygon fill="none" stroke="#bfbfbf" points="147.5,-280.5 147.5,-299.5 211.5,-299.5 211.5,-280.5 147.5,-280.5"/>
<text text-anchor="middle" x="179.5" y="-287.5" font-family="Helvetica,sans-Serif" font-size="10.00" fill="#000000">algorithm</text>
</g>
<!-- Node12&#45;&gt;Node14 -->
<g id="edge17" class="edge">
<title>Node12&#45;&gt;Node14</title>
<path fill="none" stroke="#191970" d="M129.9512,-336.2455C138.7269,-328.0549 151.4554,-316.1749 161.814,-306.5069"/>
<polygon fill="#191970" stroke="#191970" points="164.2461,-309.0246 169.1686,-299.6427 159.4699,-303.9072 164.2461,-309.0246"/>
</g>
<!-- Node15&#45;&gt;Node3 -->
<g id="edge19" class="edge">
<title>Node15&#45;&gt;Node3</title>
<path fill="none" stroke="#191970" d="M275.8505,-336.4347C253.4752,-313.4257 198.726,-252.1227 182.5,-188 174.2131,-155.2515 172.9062,-144.6693 181.5,-112 184.1112,-102.0734 189.4067,-92.0366 194.5412,-83.8822"/>
<polygon fill="#191970" stroke="#191970" points="197.4463,-85.8342 200.1181,-75.5817 191.636,-81.9303 197.4463,-85.8342"/>
</g>
<!-- Node15&#45;&gt;Node14 -->
<g id="edge21" class="edge">
<title>Node15&#45;&gt;Node14</title>
<path fill="none" stroke="#191970" d="M267.0362,-336.2455C250.3926,-327.4527 225.7007,-314.4079 206.7808,-304.4125"/>
<polygon fill="#191970" stroke="#191970" points="208.2291,-301.2193 197.7522,-299.6427 204.9592,-307.4086 208.2291,-301.2193"/>
</g>
<!-- Node16 -->
<g id="node17" class="node">
<title>Node16</title>
<polygon fill="none" stroke="#bfbfbf" points="268,-280.5 268,-299.5 315,-299.5 315,-280.5 268,-280.5"/>
<text text-anchor="middle" x="291.5" y="-287.5" font-family="Helvetica,sans-Serif" font-size="10.00" fill="#000000">cmath</text>
</g>
<!-- Node15&#45;&gt;Node16 -->
<g id="edge20" class="edge">
<title>Node15&#45;&gt;Node16</title>
<path fill="none" stroke="#191970" d="M286.5451,-336.2455C287.328,-328.9382 288.4256,-318.6944 289.3888,-309.7046"/>
<polygon fill="#191970" stroke="#191970" points="292.8815,-309.9587 290.4669,-299.6427 285.9214,-309.2129 292.8815,-309.9587"/>
</g>
<!-- Node17&#45;&gt;Node2 -->
<g id="edge25" class="edge">
<title>Node17&#45;&gt;Node2</title>
<path fill="none" stroke="#191970" d="M465.7628,-392.3458C453.3819,-384.2736 437.2154,-371.5861 428.5,-356 410.3551,-323.5507 408.0753,-279.0724 408.4921,-253.7582"/>
<polygon fill="#191970" stroke="#191970" points="411.9959,-253.6974 408.8261,-243.5879 404.9997,-253.4676 411.9959,-253.6974"/>
</g>
<!-- Node17&#45;&gt;Node3 -->
<g id="edge23" class="edge">
<title>Node17&#45;&gt;Node3</title>
<path fill="none" stroke="#191970" d="M517.7104,-392.4996C542.9607,-384.8067 577.1977,-372.5311 604.5,-356 679.8956,-310.3492 675.6727,-267.1979 752.5,-224 803.1004,-195.5488 901.6834,-216.964 870.5,-168 838.8846,-118.3576 807.3682,-127.1629 750.5,-112 661.6959,-88.322 394.9247,-74.0889 271.4682,-68.6027"/>
<polygon fill="#191970" stroke="#191970" points="271.5471,-65.1029 261.4032,-68.1607 271.24,-72.0961 271.5471,-65.1029"/>
</g>
<!-- Node17&#45;&gt;Node15 -->
<g id="edge24" class="edge">
<title>Node17&#45;&gt;Node15</title>
<path fill="none" stroke="#191970" d="M448.6345,-392.3733C415.451,-382.9404 364.745,-368.5265 328.6806,-358.2747"/>
<polygon fill="#191970" stroke="#191970" points="329.4995,-354.8689 318.9236,-355.5011 327.5855,-361.6021 329.4995,-354.8689"/>
</g>
<!-- Node18 -->
<g id="node19" class="node">
<title>Node18</title>
<g id="a_node19"><a xlink:href="../../dd/dc6/GPUSettings_8h.html" target="_top" xlink:title="GPUSettings.h">
<polygon fill="none" stroke="#000000" points="804.5,-336.5 804.5,-355.5 890.5,-355.5 890.5,-336.5 804.5,-336.5"/>
<text text-anchor="middle" x="847.5" y="-343.5" font-family="Helvetica,sans-Serif" font-size="10.00" fill="#000000">GPUSettings.h</text>
</a>
</g>
</g>
<!-- Node17&#45;&gt;Node18 -->
<g id="edge26" class="edge">
<title>Node17&#45;&gt;Node18</title>
<path fill="none" stroke="#191970" d="M521.2158,-396.06C586.8392,-385.9918 720.0099,-365.5601 794.3267,-354.1581"/>
<polygon fill="#191970" stroke="#191970" points="795.0558,-357.5873 804.4093,-352.6112 793.9942,-350.6682 795.0558,-357.5873"/>
</g>
<!-- Node24 -->
<g id="node25" class="node">
<title>Node24</title>
<g id="a_node25"><a xlink:href="../../d6/d1b/GPUTPCGeometry_8h.html" target="_top" xlink:title="GPUTPCGeometry.h">
<polygon fill="none" stroke="#000000" points="221,-224.5 221,-243.5 334,-243.5 334,-224.5 221,-224.5"/>
<text text-anchor="middle" x="277.5" y="-231.5" font-family="Helvetica,sans-Serif" font-size="10.00" fill="#000000">GPUTPCGeometry.h</text>
</a>
</g>
</g>
<!-- Node17&#45;&gt;Node24 -->
<g id="edge35" class="edge">
<title>Node17&#45;&gt;Node24</title>
<path fill="none" stroke="#191970" d="M467.7445,-392.4035C454.1423,-383.3975 433.542,-369.3503 416.5,-356 371.1122,-320.4443 321.0085,-274.7436 295.1356,-250.6236"/>
<polygon fill="#191970" stroke="#191970" points="297.3157,-247.8702 287.6235,-243.591 292.5317,-252.9803 297.3157,-247.8702"/>
</g>
<!-- Node25 -->
<g id="node26" class="node">
<title>Node25</title>
<g id="a_node26"><a xlink:href="../../d9/d9c/GPUTPCGMPolynomialField_8h.html" target="_top" xlink:title="GPUTPCGMPolynomialField.h">
<polygon fill="none" stroke="#000000" points="437.5,-336.5 437.5,-355.5 595.5,-355.5 595.5,-336.5 437.5,-336.5"/>
<text text-anchor="middle" x="516.5" y="-343.5" font-family="Helvetica,sans-Serif" font-size="10.00" fill="#000000">GPUTPCGMPolynomialField.h</text>
</a>
</g>
</g>
<!-- Node17&#45;&gt;Node25 -->
<g id="edge37" class="edge">
<title>Node17&#45;&gt;Node25</title>
<path fill="none" stroke="#191970" d="M488.4223,-392.2455C493.1027,-384.5367 499.7673,-373.5598 505.4289,-364.2348"/>
<polygon fill="#191970" stroke="#191970" points="508.4475,-366.007 510.6455,-355.6427 502.4639,-362.3741 508.4475,-366.007"/>
</g>
<!-- Node18&#45;&gt;Node3 -->
<g id="edge27" class="edge">
<title>Node18&#45;&gt;Node3</title>
<path fill="none" stroke="#191970" d="M865.8124,-336.4926C879.4787,-328.4993 897.6009,-315.8464 908.5,-300 925.7981,-274.8499 927.5,-264.5246 927.5,-234 927.5,-234 927.5,-234 927.5,-178 927.5,-146.7875 928.4605,-130.7402 903.5,-112 878.4377,-93.1833 438.6757,-74.7151 271.384,-68.3392"/>
<polygon fill="#191970" stroke="#191970" points="271.3662,-64.8361 261.2408,-67.9548 271.101,-71.8311 271.3662,-64.8361"/>
</g>
<!-- Node18&#45;&gt;Node19 -->
<g id="edge28" class="edge">
<title>Node18&#45;&gt;Node19</title>
<path fill="none" stroke="#191970" d="M870.1916,-336.3733C891.5711,-327.3032 923.8057,-313.6279 947.7362,-303.4755"/>
<polygon fill="#191970" stroke="#191970" points="949.2656,-306.6287 957.1045,-299.5011 946.5317,-300.1846 949.2656,-306.6287"/>
</g>
<!-- Node20 -->
<g id="node21" class="node">
<title>Node20</title>
<polygon fill="none" stroke="#bfbfbf" points="855.5,-280.5 855.5,-299.5 899.5,-299.5 899.5,-280.5 855.5,-280.5"/>
<text text-anchor="middle" x="877.5" y="-287.5" font-family="Helvetica,sans-Serif" font-size="10.00" fill="#000000">string</text>
</g>
<!-- Node18&#45;&gt;Node20 -->
<g id="edge29" class="edge">
<title>Node18&#45;&gt;Node20</title>
<path fill="none" stroke="#191970" d="M852.7256,-336.2455C856.8123,-328.617 862.6135,-317.7881 867.575,-308.5267"/>
<polygon fill="#191970" stroke="#191970" points="870.6972,-310.1103 872.3343,-299.6427 864.5268,-306.8047 870.6972,-310.1103"/>
</g>
<!-- Node21 -->
<g id="node22" class="node">
<title>Node21</title>
<g id="a_node22"><a xlink:href="../../da/d08/qconfig_8h.html" target="_top" xlink:title="utils/qconfig.h">
<polygon fill="none" stroke="#000000" points="714,-280.5 714,-299.5 799,-299.5 799,-280.5 714,-280.5"/>
<text text-anchor="middle" x="756.5" y="-287.5" font-family="Helvetica,sans-Serif" font-size="10.00" fill="#000000">utils/qconfig.h</text>
</a>
</g>
</g>
<!-- Node18&#45;&gt;Node21 -->
<g id="edge30" class="edge">
<title>Node18&#45;&gt;Node21</title>
<path fill="none" stroke="#191970" d="M831.649,-336.2455C817.6868,-327.6534 797.1272,-315.0014 781.0404,-305.1018"/>
<polygon fill="#191970" stroke="#191970" points="782.5203,-301.9029 772.1693,-299.6427 778.8516,-307.8645 782.5203,-301.9029"/>
</g>
<!-- Node22 -->
<g id="node23" class="node">
<title>Node22</title>
<g id="a_node23"><a xlink:href="../../d8/de9/qconfigoptions_8h.html" target="_top" xlink:title="qconfigoptions.h">
<polygon fill="none" stroke="#000000" points="761,-224.5 761,-243.5 858,-243.5 858,-224.5 761,-224.5"/>
<text text-anchor="middle" x="809.5" y="-231.5" font-family="Helvetica,sans-Serif" font-size="10.00" fill="#000000">qconfigoptions.h</text>
</a>
</g>
</g>
<!-- Node21&#45;&gt;Node22 -->
<g id="edge31" class="edge">
<title>Node21&#45;&gt;Node22</title>
<path fill="none" stroke="#191970" d="M765.7319,-280.2455C773.3317,-272.2155 784.2877,-260.6394 793.3368,-251.0781"/>
<polygon fill="#191970" stroke="#191970" points="796.0421,-253.3115 800.3739,-243.6427 790.958,-248.4998 796.0421,-253.3115"/>
</g>
<!-- Node22&#45;&gt;Node18 -->
<g id="edge32" class="edge">
<title>Node22&#45;&gt;Node18</title>
<path fill="none" stroke="#191970" d="M812.7317,-243.5249C818.9788,-261.9376 832.8185,-302.7284 841.0282,-326.9253"/>
<polygon fill="#191970" stroke="#191970" points="837.7327,-328.1057 844.2601,-336.4509 844.3615,-325.8566 837.7327,-328.1057"/>
</g>
<!-- Node23 -->
<g id="node24" class="node">
<title>Node23</title>
<g id="a_node24"><a xlink:href="../../d4/d57/GPUSettingsList_8h.html" target="_top" xlink:title="GPUSettingsList.h">
<polygon fill="none" stroke="#000000" points="757.5,-168.5 757.5,-187.5 861.5,-187.5 861.5,-168.5 757.5,-168.5"/>
<text text-anchor="middle" x="809.5" y="-175.5" font-family="Helvetica,sans-Serif" font-size="10.00" fill="#000000">GPUSettingsList.h</text>
</a>
</g>
</g>
<!-- Node22&#45;&gt;Node23 -->
<g id="edge33" class="edge">
<title>Node22&#45;&gt;Node23</title>
<path fill="none" stroke="#191970" d="M809.5,-224.2455C809.5,-216.9382 809.5,-206.6944 809.5,-197.7046"/>
<polygon fill="#191970" stroke="#191970" points="813.0001,-197.6426 809.5,-187.6427 806.0001,-197.6427 813.0001,-197.6426"/>
</g>
<!-- Node23&#45;&gt;Node6 -->
<g id="edge34" class="edge">
<title>Node23&#45;&gt;Node6</title>
<path fill="none" stroke="#191970" d="M783.0265,-168.3733C757.6403,-159.1419 719.1355,-145.1402 691.078,-134.9375"/>
<polygon fill="#191970" stroke="#191970" points="692.2222,-131.6293 681.6281,-131.5011 689.8299,-138.2079 692.2222,-131.6293"/>
</g>
<!-- Node24&#45;&gt;Node3 -->
<g id="edge36" class="edge">
<title>Node24&#45;&gt;Node3</title>
<path fill="none" stroke="#191970" d="M242.7773,-224.4044C224.6949,-217.4487 204.1791,-206.0236 193.5,-188 174.3968,-155.7587 188.1286,-110.2733 198.6102,-84.933"/>
<polygon fill="#191970" stroke="#191970" points="201.8512,-86.2572 202.6631,-75.6935 195.4408,-83.4452 201.8512,-86.2572"/>
</g>
<!-- Node26 -->
<g id="node27" class="node">
<title>Node26</title>
<g id="a_node27"><a xlink:href="../../da/dab/GPUTPCDef_8h.html" target="_top" xlink:title="GPUTPCDef.h">
<polygon fill="none" stroke="#000000" points="456.5,-280.5 456.5,-299.5 538.5,-299.5 538.5,-280.5 456.5,-280.5"/>
<text text-anchor="middle" x="497.5" y="-287.5" font-family="Helvetica,sans-Serif" font-size="10.00" fill="#000000">GPUTPCDef.h</text>
</a>
</g>
</g>
<!-- Node25&#45;&gt;Node26 -->
<g id="edge38" class="edge">
<title>Node25&#45;&gt;Node26</title>
<path fill="none" stroke="#191970" d="M513.1905,-336.2455C510.6567,-328.7776 507.0823,-318.2427 503.985,-309.1137"/>
<polygon fill="#191970" stroke="#191970" points="507.2991,-307.9879 500.7716,-299.6427 500.6702,-310.237 507.2991,-307.9879"/>
</g>
<!-- Node26&#45;&gt;Node2 -->
<g id="edge39" class="edge">
<title>Node26&#45;&gt;Node2</title>
<path fill="none" stroke="#191970" d="M482.1716,-280.2455C468.6697,-271.6534 448.7878,-259.0014 433.2314,-249.1018"/>
<polygon fill="#191970" stroke="#191970" points="434.9685,-246.0587 424.6528,-243.6427 431.2103,-251.9643 434.9685,-246.0587"/>
</g>
</g>
</svg>
        <g id="navigator" transform="translate(0 0)" fill="#404254">
                <rect fill="#f2f5e9" fill-opacity="0.5" stroke="#606060" stroke-width=".5" x="0" y="0" width="60" height="60"/>
                <use id="zoomplus" xlink:href="#zoomPlus" x="17" y="9" onmousedown="handleZoom(evt,'in')"/>
                <use id="zoomminus" xlink:href="#zoomMin" x="42" y="9" onmousedown="handleZoom(evt,'out')"/>
                <use id="reset" xlink:href="#resetDef" x="30" y="36" onmousedown="handleReset()"/>
                <g id="arrowUp" xlink:href="#dirArrow" transform="translate(30 24)" onmousedown="handlePan(0,-1)">
                  <use xlink:href="#rim" fill="#404040">
                        <set attributeName="fill" to="#808080" begin="arrowUp.mouseover" end="arrowUp.mouseout"/>
                  </use>
                  <path fill="none" stroke="white" stroke-width="1.5" d="M0,-3.0v7 M-2.5,-0.5L0,-3.0L2.5,-0.5"/>
                </g>
                <g id="arrowRight" xlink:href="#dirArrow" transform="rotate(90) translate(36 -43)" onmousedown="handlePan(1,0)">
                  <use xlink:href="#rim" fill="#404040">
                        <set attributeName="fill" to="#808080" begin="arrowRight.mouseover" end="arrowRight.mouseout"/>
                  </use>
                  <path fill="none" stroke="white" stroke-width="1.5" d="M0,-3.0v7 M-2.5,-0.5L0,-3.0L2.5,-0.5"/>
                </g>
                <g id="arrowDown" xlink:href="#dirArrow" transform="rotate(180) translate(-30 -48)" onmousedown="handlePan(0,1)">
                  <use xlink:href="#rim" fill="#404040">
                        <set attributeName="fill" to="#808080" begin="arrowDown.mouseover" end="arrowDown.mouseout"/>
                  </use>
                  <path fill="none" stroke="white" stroke-width="1.5" d="M0,-3.0v7 M-2.5,-0.5L0,-3.0L2.5,-0.5"/>
                </g>
                <g id="arrowLeft" xlink:href="#dirArrow" transform="rotate(270) translate(-36 17)" onmousedown="handlePan(-1,0)">
                  <use xlink:href="#rim" fill="#404040">
                        <set attributeName="fill" to="#808080" begin="arrowLeft.mouseover" end="arrowLeft.mouseout"/>
                  </use>
                  <path fill="none" stroke="white" stroke-width="1.5" d="M0,-3.0v7 M-2.5,-0.5L0,-3.0L2.5,-0.5"/>
                </g>
        </g>
        <svg viewBox="0 0 15 15" width="100%" height="30px" preserveAspectRatio="xMaxYMin meet">
         <g id="arrow_out" transform="scale(0.3 0.3)">
          <a xlink:href="TPCClusterDecompressor_8h__incl_org.svg" target="_base">
           <rect id="button" ry="5" rx="5" y="6" x="6" height="38" width="38"
                fill="#f2f5e9" fill-opacity="0.5" stroke="#606060" stroke-width="1.0"/>
           <path id="arrow"
             d="M 11.500037,31.436501 C 11.940474,20.09759 22.043105,11.32322 32.158766,21.979434 L 37.068811,17.246167 C 37.068811,17.246167 37.088388,32 37.088388,32 L 22.160133,31.978069 C 22.160133,31.978069 26.997745,27.140456 26.997745,27.140456 C 18.528582,18.264221 13.291696,25.230495 11.500037,31.436501 z"
             style="fill:#404040;"/>
          </a>
         </g>
        </svg>
</svg>
