<?xml version="1.0" encoding="UTF-8" standalone="no"?>
<!DOCTYPE svg PUBLIC "-//W3C//DTD SVG 1.1//EN"
 "http://www.w3.org/Graphics/SVG/1.1/DTD/svg11.dtd">
<!-- Generated by graphviz version 2.40.1 (20161225.0304)
 -->
<!-- Title: /home/travis/build/AliceO2Group/AliceO2/Framework/Core/include/Framework/SimpleOptionsRetriever.h Pages: 1 -->
<svg width="952pt" height="307pt"
 viewBox="0.00 0.00 952.00 307.00" xmlns="http://www.w3.org/2000/svg" xmlns:xlink="http://www.w3.org/1999/xlink">
<g id="graph0" class="graph" transform="scale(1 1) rotate(0) translate(4 303)">
<title>/home/travis/build/AliceO2Group/AliceO2/Framework/Core/include/Framework/SimpleOptionsRetriever.h</title>
<!-- Node0 -->
<g id="node1" class="node">
<title>Node0</title>
<polygon fill="#bfbfbf" stroke="#000000" points="702.5,-246.5 702.5,-298.5 902.5,-298.5 902.5,-246.5 702.5,-246.5"/>
<text text-anchor="start" x="710.5" y="-286.5" font-family="Helvetica,sans-Serif" font-size="10.00" fill="#000000">/home/travis/build</text>
<text text-anchor="start" x="710.5" y="-275.5" font-family="Helvetica,sans-Serif" font-size="10.00" fill="#000000">/AliceO2Group/AliceO2</text>
<text text-anchor="start" x="710.5" y="-264.5" font-family="Helvetica,sans-Serif" font-size="10.00" fill="#000000">/Framework/Core/include</text>
<text text-anchor="middle" x="802.5" y="-253.5" font-family="Helvetica,sans-Serif" font-size="10.00" fill="#000000">/Framework/SimpleOptionsRetriever.h</text>
</g>
<!-- Node1 -->
<g id="node2" class="node">
<title>Node1</title>
<g id="a_node2"><a xlink:href="../../df/d72/ParamRetriever_8h.html" target="_top" xlink:title="Framework/ParamRetriever.h">
<polygon fill="none" stroke="#000000" points="554,-185 554,-204 711,-204 711,-185 554,-185"/>
<text text-anchor="middle" x="632.5" y="-192" font-family="Helvetica,sans-Serif" font-size="10.00" fill="#000000">Framework/ParamRetriever.h</text>
</a>
</g>
</g>
<!-- Node0&#45;&gt;Node1 -->
<g id="edge1" class="edge">
<title>Node0&#45;&gt;Node1</title>
<path fill="none" stroke="#191970" d="M745.4195,-246.3101C717.7359,-233.6083 685.6075,-218.867 662.7158,-208.3637"/>
<polygon fill="#191970" stroke="#191970" points="664.0591,-205.1293 653.5105,-204.1401 661.1399,-211.4915 664.0591,-205.1293"/>
</g>
<!-- Node13 -->
<g id="node14" class="node">
<title>Node13</title>
<polygon fill="none" stroke="#bfbfbf" points="780.5,-.5 780.5,-19.5 824.5,-19.5 824.5,-.5 780.5,-.5"/>
<text text-anchor="middle" x="802.5" y="-7.5" font-family="Helvetica,sans-Serif" font-size="10.00" fill="#000000">string</text>
</g>
<!-- Node0&#45;&gt;Node13 -->
<g id="edge19" class="edge">
<title>Node0&#45;&gt;Node13</title>
<path fill="none" stroke="#191970" d="M802.5,-246.3708C802.5,-193.7776 802.5,-76.1954 802.5,-29.5802"/>
<polygon fill="#191970" stroke="#191970" points="806.0001,-29.5731 802.5,-19.5731 799.0001,-29.5732 806.0001,-29.5731"/>
</g>
<!-- Node15 -->
<g id="node16" class="node">
<title>Node15</title>
<polygon fill="none" stroke="#bfbfbf" points="831,-179.5 831,-209.5 944,-209.5 944,-179.5 831,-179.5"/>
<text text-anchor="start" x="839" y="-197.5" font-family="Helvetica,sans-Serif" font-size="10.00" fill="#000000">boost/property_tree</text>
<text text-anchor="middle" x="887.5" y="-186.5" font-family="Helvetica,sans-Serif" font-size="10.00" fill="#000000">/ptree.hpp</text>
</g>
<!-- Node0&#45;&gt;Node15 -->
<g id="edge18" class="edge">
<title>Node0&#45;&gt;Node15</title>
<path fill="none" stroke="#191970" d="M831.2771,-246.0928C841.766,-236.4677 853.5041,-225.6963 863.531,-216.4951"/>
<polygon fill="#191970" stroke="#191970" points="866.1473,-218.8445 871.1489,-209.5046 861.4145,-213.687 866.1473,-218.8445"/>
</g>
<!-- Node2 -->
<g id="node3" class="node">
<title>Node2</title>
<g id="a_node3"><a xlink:href="../../d0/d1c/ConfigParamSpec_8h.html" target="_top" xlink:title="Framework/ConfigParamSpec.h">
<polygon fill="none" stroke="#000000" points="438,-118 438,-137 605,-137 605,-118 438,-118"/>
<text text-anchor="middle" x="521.5" y="-125" font-family="Helvetica,sans-Serif" font-size="10.00" fill="#000000">Framework/ConfigParamSpec.h</text>
</a>
</g>
</g>
<!-- Node1&#45;&gt;Node2 -->
<g id="edge2" class="edge">
<title>Node1&#45;&gt;Node2</title>
<path fill="none" stroke="#191970" d="M616.5964,-184.9005C598.133,-173.7559 567.4701,-155.2477 545.9668,-142.2682"/>
<polygon fill="#191970" stroke="#191970" points="547.7441,-139.2529 537.3741,-137.0817 544.1267,-145.2458 547.7441,-139.2529"/>
</g>
<!-- Node12 -->
<g id="node13" class="node">
<title>Node12</title>
<polygon fill="none" stroke="#bfbfbf" points="0,-.5 0,-19.5 47,-19.5 47,-.5 0,-.5"/>
<text text-anchor="middle" x="23.5" y="-7.5" font-family="Helvetica,sans-Serif" font-size="10.00" fill="#000000">vector</text>
</g>
<!-- Node1&#45;&gt;Node12 -->
<g id="edge17" class="edge">
<title>Node1&#45;&gt;Node12</title>
<path fill="none" stroke="#191970" d="M591.2451,-184.9817C549.8757,-175.227 484.4558,-159.2293 428.5,-143 288.9436,-102.5234 125.2207,-45.8994 56.4937,-21.7071"/>
<polygon fill="#191970" stroke="#191970" points="57.652,-18.4043 47.0572,-18.3788 55.3236,-25.0058 57.652,-18.4043"/>
</g>
<!-- Node1&#45;&gt;Node13 -->
<g id="edge16" class="edge">
<title>Node1&#45;&gt;Node13</title>
<path fill="none" stroke="#191970" d="M632.6446,-184.9509C633.3332,-168.5934 636.7247,-134.7776 652.5,-112 682.3289,-68.9307 736.7337,-38.7639 771.177,-22.9183"/>
<polygon fill="#191970" stroke="#191970" points="772.6237,-26.1055 780.3255,-18.83 769.7676,-19.7146 772.6237,-26.1055"/>
</g>
<!-- Node14 -->
<g id="node15" class="node">
<title>Node14</title>
<polygon fill="none" stroke="#bfbfbf" points="661,-112.5 661,-142.5 774,-142.5 774,-112.5 661,-112.5"/>
<text text-anchor="start" x="669" y="-130.5" font-family="Helvetica,sans-Serif" font-size="10.00" fill="#000000">boost/property_tree</text>
<text text-anchor="middle" x="717.5" y="-119.5" font-family="Helvetica,sans-Serif" font-size="10.00" fill="#000000">/ptree_fwd.hpp</text>
</g>
<!-- Node1&#45;&gt;Node14 -->
<g id="edge15" class="edge">
<title>Node1&#45;&gt;Node14</title>
<path fill="none" stroke="#191970" d="M644.6784,-184.9005C656.5305,-175.5583 674.947,-161.0417 690.2937,-148.945"/>
<polygon fill="#191970" stroke="#191970" points="692.7556,-151.461 698.4425,-142.5218 688.4223,-145.9635 692.7556,-151.461"/>
</g>
<!-- Node3 -->
<g id="node4" class="node">
<title>Node3</title>
<g id="a_node4"><a xlink:href="../../de/d56/Variant_8h.html" target="_top" xlink:title="Framework/Variant.h">
<polygon fill="none" stroke="#000000" points="319,-56.5 319,-75.5 436,-75.5 436,-56.5 319,-56.5"/>
<text text-anchor="middle" x="377.5" y="-63.5" font-family="Helvetica,sans-Serif" font-size="10.00" fill="#000000">Framework/Variant.h</text>
</a>
</g>
</g>
<!-- Node2&#45;&gt;Node3 -->
<g id="edge3" class="edge">
<title>Node2&#45;&gt;Node3</title>
<path fill="none" stroke="#191970" d="M499,-117.8906C474.9062,-107.6005 436.4787,-91.1888 409.2992,-79.5809"/>
<polygon fill="#191970" stroke="#191970" points="410.4131,-76.2508 399.842,-75.5419 407.6637,-82.6883 410.4131,-76.2508"/>
</g>
<!-- Node2&#45;&gt;Node13 -->
<g id="edge14" class="edge">
<title>Node2&#45;&gt;Node13</title>
<path fill="none" stroke="#191970" d="M531.6386,-117.8001C548.3577,-102.3505 583.3707,-72.245 618.5,-56 679.0574,-27.9962 702.1169,-37.7385 770.2871,-20.1039"/>
<polygon fill="#191970" stroke="#191970" points="771.4703,-23.41 780.2142,-17.4272 769.6478,-16.6514 771.4703,-23.41"/>
</g>
<!-- Node4 -->
<g id="node5" class="node">
<title>Node4</title>
<g id="a_node5"><a xlink:href="../../d1/d76/RuntimeError_8h.html" target="_top" xlink:title="Framework/RuntimeError.h">
<polygon fill="none" stroke="#000000" points="528.5,-.5 528.5,-19.5 674.5,-19.5 674.5,-.5 528.5,-.5"/>
<text text-anchor="middle" x="601.5" y="-7.5" font-family="Helvetica,sans-Serif" font-size="10.00" fill="#000000">Framework/RuntimeError.h</text>
</a>
</g>
</g>
<!-- Node3&#45;&gt;Node4 -->
<g id="edge4" class="edge">
<title>Node3&#45;&gt;Node4</title>
<path fill="none" stroke="#191970" d="M415.7525,-56.4369C453.8467,-46.9133 512.4313,-32.2672 553.5987,-21.9753"/>
<polygon fill="#191970" stroke="#191970" points="554.5528,-25.3446 563.4053,-19.5237 552.855,-18.5536 554.5528,-25.3446"/>
</g>
<!-- Node5 -->
<g id="node6" class="node">
<title>Node5</title>
<polygon fill="none" stroke="#bfbfbf" points="693,-.5 693,-19.5 762,-19.5 762,-.5 693,-.5"/>
<text text-anchor="middle" x="727.5" y="-7.5" font-family="Helvetica,sans-Serif" font-size="10.00" fill="#000000">type_traits</text>
</g>
<!-- Node3&#45;&gt;Node5 -->
<g id="edge5" class="edge">
<title>Node3&#45;&gt;Node5</title>
<path fill="none" stroke="#191970" d="M436.0948,-58.5082C495.6768,-50.5936 590.8614,-37.1366 682.9152,-19.9926"/>
<polygon fill="#191970" stroke="#191970" points="683.782,-23.3911 692.9634,-18.104 682.4889,-16.5115 683.782,-23.3911"/>
</g>
<!-- Node6 -->
<g id="node7" class="node">
<title>Node6</title>
<polygon fill="none" stroke="#bfbfbf" points="65.5,-.5 65.5,-19.5 115.5,-19.5 115.5,-.5 65.5,-.5"/>
<text text-anchor="middle" x="90.5" y="-7.5" font-family="Helvetica,sans-Serif" font-size="10.00" fill="#000000">cstring</text>
</g>
<!-- Node3&#45;&gt;Node6 -->
<g id="edge6" class="edge">
<title>Node3&#45;&gt;Node6</title>
<path fill="none" stroke="#191970" d="M318.8516,-57.1491C269.6522,-49.3133 197.3756,-36.8481 125.7685,-20.1161"/>
<polygon fill="#191970" stroke="#191970" points="126.2085,-16.6237 115.6713,-17.7269 124.5966,-23.4356 126.2085,-16.6237"/>
</g>
<!-- Node7 -->
<g id="node8" class="node">
<title>Node7</title>
<polygon fill="none" stroke="#bfbfbf" points="133.5,-.5 133.5,-19.5 183.5,-19.5 183.5,-.5 133.5,-.5"/>
<text text-anchor="middle" x="158.5" y="-7.5" font-family="Helvetica,sans-Serif" font-size="10.00" fill="#000000">cstdint</text>
</g>
<!-- Node3&#45;&gt;Node7 -->
<g id="edge7" class="edge">
<title>Node3&#45;&gt;Node7</title>
<path fill="none" stroke="#191970" d="M336.9528,-56.4406C301.5137,-47.9687 248.4459,-35.0028 193.6102,-20.2265"/>
<polygon fill="#191970" stroke="#191970" points="194.2846,-16.7831 183.7173,-17.5459 192.4539,-23.5395 194.2846,-16.7831"/>
</g>
<!-- Node8 -->
<g id="node9" class="node">
<title>Node8</title>
<polygon fill="none" stroke="#bfbfbf" points="202,-.5 202,-19.5 251,-19.5 251,-.5 202,-.5"/>
<text text-anchor="middle" x="226.5" y="-7.5" font-family="Helvetica,sans-Serif" font-size="10.00" fill="#000000">cstdlib</text>
</g>
<!-- Node3&#45;&gt;Node8 -->
<g id="edge8" class="edge">
<title>Node3&#45;&gt;Node8</title>
<path fill="none" stroke="#191970" d="M351.5422,-56.3733C326.4589,-47.0708 288.3136,-32.9242 260.7512,-22.7024"/>
<polygon fill="#191970" stroke="#191970" points="261.7122,-19.326 251.1192,-19.1303 259.2782,-25.8892 261.7122,-19.326"/>
</g>
<!-- Node9 -->
<g id="node10" class="node">
<title>Node9</title>
<polygon fill="none" stroke="#bfbfbf" points="269,-.5 269,-19.5 318,-19.5 318,-.5 269,-.5"/>
<text text-anchor="middle" x="293.5" y="-7.5" font-family="Helvetica,sans-Serif" font-size="10.00" fill="#000000">iosfwd</text>
</g>
<!-- Node3&#45;&gt;Node9 -->
<g id="edge9" class="edge">
<title>Node3&#45;&gt;Node9</title>
<path fill="none" stroke="#191970" d="M362.8683,-56.2455C350.1006,-47.7337 331.3562,-35.2375 316.5701,-25.3801"/>
<polygon fill="#191970" stroke="#191970" points="318.226,-22.2775 307.964,-19.6427 314.3431,-28.1019 318.226,-22.2775"/>
</g>
<!-- Node10 -->
<g id="node11" class="node">
<title>Node10</title>
<polygon fill="none" stroke="#bfbfbf" points="336,-.5 336,-19.5 419,-19.5 419,-.5 336,-.5"/>
<text text-anchor="middle" x="377.5" y="-7.5" font-family="Helvetica,sans-Serif" font-size="10.00" fill="#000000">initializer_list</text>
</g>
<!-- Node3&#45;&gt;Node10 -->
<g id="edge10" class="edge">
<title>Node3&#45;&gt;Node10</title>
<path fill="none" stroke="#191970" d="M377.5,-56.2455C377.5,-48.9382 377.5,-38.6944 377.5,-29.7046"/>
<polygon fill="#191970" stroke="#191970" points="381.0001,-29.6426 377.5,-19.6427 374.0001,-29.6427 381.0001,-29.6426"/>
</g>
<!-- Node11 -->
<g id="node12" class="node">
<title>Node11</title>
<polygon fill="none" stroke="#bfbfbf" points="437,-.5 437,-19.5 510,-19.5 510,-.5 437,-.5"/>
<text text-anchor="middle" x="473.5" y="-7.5" font-family="Helvetica,sans-Serif" font-size="10.00" fill="#000000">string_view</text>
</g>
<!-- Node3&#45;&gt;Node11 -->
<g id="edge11" class="edge">
<title>Node3&#45;&gt;Node11</title>
<path fill="none" stroke="#191970" d="M394.2219,-56.2455C409.0889,-47.5731 431.0466,-34.7645 448.0858,-24.825"/>
<polygon fill="#191970" stroke="#191970" points="450.0955,-27.7047 456.9697,-19.6427 446.5683,-21.6582 450.0955,-27.7047"/>
</g>
<!-- Node3&#45;&gt;Node12 -->
<g id="edge12" class="edge">
<title>Node3&#45;&gt;Node12</title>
<path fill="none" stroke="#191970" d="M318.7366,-60.289C256.1485,-53.6002 154.1063,-40.961 57.1487,-19.8507"/>
<polygon fill="#191970" stroke="#191970" points="57.6988,-16.3878 47.1789,-17.6456 56.187,-23.2227 57.6988,-16.3878"/>
</g>
<!-- Node3&#45;&gt;Node13 -->
<g id="edge13" class="edge">
<title>Node3&#45;&gt;Node13</title>
<path fill="none" stroke="#191970" d="M436.1676,-62.7466C511.6216,-57.7679 646.7106,-46.17 770.2791,-19.9056"/>
<polygon fill="#191970" stroke="#191970" points="771.2578,-23.275 780.2916,-17.7394 769.7776,-16.4333 771.2578,-23.275"/>
</g>
</g>
</svg>
