<?xml version="1.0" encoding="UTF-8" standalone="no"?>
<!DOCTYPE svg PUBLIC "-//W3C//DTD SVG 1.1//EN"
 "http://www.w3.org/Graphics/SVG/1.1/DTD/svg11.dtd">
<!-- Generated by graphviz version 2.40.1 (20161225.0304)
 -->
<!-- Title: FixtureFull&lt; CODER_T, STREAM_T, P &gt; Pages: 1 -->
<svg width="160pt" height="215pt"
 viewBox="0.00 0.00 160.00 215.00" xmlns="http://www.w3.org/2000/svg" xmlns:xlink="http://www.w3.org/1999/xlink">
<g id="graph0" class="graph" transform="scale(1 1) rotate(0) translate(4 211)">
<title>FixtureFull&lt; CODER_T, STREAM_T, P &gt;</title>
<!-- Node0 -->
<g id="node1" class="node">
<title>Node0</title>
<polygon fill="#bfbfbf" stroke="#000000" points="20,-.5 20,-68.5 132,-68.5 132,-.5 20,-.5"/>
<text text-anchor="start" x="28" y="-56.5" font-family="Helvetica,sans-Serif" font-size="10.00" fill="#000000">FixtureFull&lt; CODER</text>
<text text-anchor="middle" x="76" y="-45.5" font-family="Helvetica,sans-Serif" font-size="10.00" fill="#000000">_T, STREAM_T, P &gt;</text>
<polyline fill="none" stroke="#000000" points="20,-38.5 132,-38.5 "/>
<text text-anchor="start" x="28" y="-26.5" font-family="Helvetica,sans-Serif" font-size="10.00" fill="#000000">+ source</text>
<polyline fill="none" stroke="#000000" points="20,-19.5 132,-19.5 "/>
<text text-anchor="middle" x="76" y="-7.5" font-family="Helvetica,sans-Serif" font-size="10.00" fill="#000000"> </text>
</g>
<!-- Node1 -->
<g id="node2" class="node">
<title>Node1</title>
<g id="a_node2"><a xlink:href="../../d0/dea/structFixture.html" target="_top" xlink:title="{Fixture\&lt; CODER_T, STREAM\l_T, P \&gt;\n|+ probabilityBits\l+ source\l|+ Fixture()\l+ ~Fixture()\l+ Fixture()\l}">
<polygon fill="none" stroke="#000000" points="0,-105.5 0,-206.5 152,-206.5 152,-105.5 0,-105.5"/>
<text text-anchor="start" x="8" y="-194.5" font-family="Helvetica,sans-Serif" font-size="10.00" fill="#000000">Fixture&lt; CODER_T, STREAM</text>
<text text-anchor="middle" x="76" y="-183.5" font-family="Helvetica,sans-Serif" font-size="10.00" fill="#000000">_T, P &gt;</text>
<polyline fill="none" stroke="#000000" points="0,-176.5 152,-176.5 "/>
<text text-anchor="start" x="8" y="-164.5" font-family="Helvetica,sans-Serif" font-size="10.00" fill="#000000">+ probabilityBits</text>
<text text-anchor="start" x="8" y="-153.5" font-family="Helvetica,sans-Serif" font-size="10.00" fill="#000000">+ source</text>
<polyline fill="none" stroke="#000000" points="0,-146.5 152,-146.5 "/>
<text text-anchor="start" x="8" y="-134.5" font-family="Helvetica,sans-Serif" font-size="10.00" fill="#000000">+ Fixture()</text>
<text text-anchor="start" x="8" y="-123.5" font-family="Helvetica,sans-Serif" font-size="10.00" fill="#000000">+ ~Fixture()</text>
<text text-anchor="start" x="8" y="-112.5" font-family="Helvetica,sans-Serif" font-size="10.00" fill="#000000">+ Fixture()</text>
</a>
</g>
</g>
<!-- Node1&#45;&gt;Node0 -->
<g id="edge1" class="edge">
<title>Node1&#45;&gt;Node0</title>
<path fill="none" stroke="#191970" d="M76,-94.9589C76,-85.8735 76,-76.7967 76,-68.5415"/>
<polygon fill="none" stroke="#191970" points="72.5001,-95.177 76,-105.1771 79.5001,-95.1771 72.5001,-95.177"/>
</g>
</g>
</svg>
