<?xml version="1.0" encoding="UTF-8" standalone="no"?>
<!DOCTYPE svg PUBLIC "-//W3C//DTD SVG 1.1//EN"
 "http://www.w3.org/Graphics/SVG/1.1/DTD/svg11.dtd">
<!-- Generated by graphviz version 2.40.1 (20161225.0304)
 -->
<!-- Title: HFD0CandidateSelector Pages: 1 -->
<!--zoomable 855 -->
<svg id="main" version="1.1" xmlns="http://www.w3.org/2000/svg" xmlns:xlink="http://www.w3.org/1999/xlink" xml:space="preserve" onload="init(evt)">
<style type="text/css"><![CDATA[
.edge:hover path { stroke: red; }
.edge:hover polygon { stroke: red; fill: red; }
]]></style>
<script type="text/javascript"><![CDATA[
var edges = document.getElementsByTagName('g');
if (edges && edges.length) {
  for (var i=0;i<edges.length;i++) {
    if (edges[i].id.substr(0,4)=='edge') {
      edges[i].setAttribute('class','edge');
    }
  }
}
]]></script>
        <defs>
                <circle id="rim" cx="0" cy="0" r="7"/>
                <circle id="rim2" cx="0" cy="0" r="3.5"/>
                <g id="zoomPlus">
                        <use xlink:href="#rim" fill="#404040">
                                <set attributeName="fill" to="#808080" begin="zoomplus.mouseover" end="zoomplus.mouseout"/>
                        </use>
                        <path d="M-4,0h8M0,-4v8" fill="none" stroke="white" stroke-width="1.5" pointer-events="none"/>
                </g>
                <g id="zoomMin">
                        <use xlink:href="#rim" fill="#404040">
                                <set attributeName="fill" to="#808080" begin="zoomminus.mouseover" end="zoomminus.mouseout"/>
                        </use>
                        <path d="M-4,0h8" fill="none" stroke="white" stroke-width="1.5" pointer-events="none"/>
                </g>
                <g id="dirArrow">
                        <path fill="none" stroke="white" stroke-width="1.5" d="M0,-3.0v7 M-2.5,-0.5L0,-3.0L2.5,-0.5"/>
                </g>
               <g id="resetDef">
                       <use xlink:href="#rim2" fill="#404040">
                               <set attributeName="fill" to="#808080" begin="reset.mouseover" end="reset.mouseout"/>
                       </use>
               </g>
        </defs>

<script type="text/javascript">
var viewWidth = 521;
var viewHeight = 855;
var sectionId = 'dynsection-0';
</script>
<script xlink:href="../../svgpan.js"/>
<svg id="graph" class="graph">
<g id="viewport">
<title>HFD0CandidateSelector</title>
<!-- Node1 -->
<g id="node1" class="node">
<title>Node1</title>
<polygon fill="#bfbfbf" stroke="#000000" points="95,-.5 95,-156.5 250,-156.5 250,-.5 95,-.5"/>
<text text-anchor="middle" x="172.5" y="-144.5" font-family="Helvetica,sans-Serif" font-size="10.00" fill="#000000">HFD0CandidateSelector</text>
<polyline fill="none" stroke="#000000" points="95,-137.5 250,-137.5 "/>
<text text-anchor="start" x="103" y="-125.5" font-family="Helvetica,sans-Serif" font-size="10.00" fill="#000000">+ d_pTCandMax</text>
<polyline fill="none" stroke="#000000" points="95,-118.5 250,-118.5 "/>
<text text-anchor="start" x="103" y="-106.5" font-family="Helvetica,sans-Serif" font-size="10.00" fill="#000000">+ getpTBin()</text>
<text text-anchor="start" x="103" y="-95.5" font-family="Helvetica,sans-Serif" font-size="10.00" fill="#000000">+ daughterSelection()</text>
<text text-anchor="start" x="103" y="-84.5" font-family="Helvetica,sans-Serif" font-size="10.00" fill="#000000">+ selectionTopol()</text>
<text text-anchor="start" x="103" y="-73.5" font-family="Helvetica,sans-Serif" font-size="10.00" fill="#000000">+ selectionTopolConjugate()</text>
<text text-anchor="start" x="103" y="-62.5" font-family="Helvetica,sans-Serif" font-size="10.00" fill="#000000">+ validTPCPID()</text>
<text text-anchor="start" x="103" y="-51.5" font-family="Helvetica,sans-Serif" font-size="10.00" fill="#000000">+ validTOFPID()</text>
<text text-anchor="start" x="103" y="-40.5" font-family="Helvetica,sans-Serif" font-size="10.00" fill="#000000">+ selectionPIDTPC()</text>
<text text-anchor="start" x="103" y="-29.5" font-family="Helvetica,sans-Serif" font-size="10.00" fill="#000000">+ selectionPIDTOF()</text>
<text text-anchor="start" x="103" y="-18.5" font-family="Helvetica,sans-Serif" font-size="10.00" fill="#000000">+ selectionPID()</text>
<text text-anchor="start" x="103" y="-7.5" font-family="Helvetica,sans-Serif" font-size="10.00" fill="#000000">+ process()</text>
</g>
<!-- Node2 -->
<g id="node2" class="node">
<title>Node2</title>
<g id="a_node2"><a xlink:href="../../d6/d86/structo2_1_1framework_1_1Produces.html" target="_top" xlink:title="{o2::framework::Produces\l\&lt; aod::HFSelD0Candidate \&gt;\n||}">
<polygon fill="none" stroke="#000000" points="9.5,-314.5 9.5,-382.5 163.5,-382.5 163.5,-314.5 9.5,-314.5"/>
<text text-anchor="start" x="17.5" y="-370.5" font-family="Helvetica,sans-Serif" font-size="10.00" fill="#000000">o2::framework::Produces</text>
<text text-anchor="middle" x="86.5" y="-359.5" font-family="Helvetica,sans-Serif" font-size="10.00" fill="#000000">&lt; aod::HFSelD0Candidate &gt;</text>
<polyline fill="none" stroke="#000000" points="9.5,-352.5 163.5,-352.5 "/>
<text text-anchor="middle" x="86.5" y="-340.5" font-family="Helvetica,sans-Serif" font-size="10.00" fill="#000000"> </text>
<polyline fill="none" stroke="#000000" points="9.5,-333.5 163.5,-333.5 "/>
<text text-anchor="middle" x="86.5" y="-321.5" font-family="Helvetica,sans-Serif" font-size="10.00" fill="#000000"> </text>
</a>
</g>
</g>
<!-- Node2&#45;&gt;Node1 -->
<g id="edge1" class="edge">
<title>Node2&#45;&gt;Node1</title>
<path fill="none" stroke="#404040" d="M92.1046,-314.2973C98.4388,-278.8495 110.0538,-222.1356 126.5,-175 127.324,-172.6384 128.1887,-170.2581 129.0875,-167.8675"/>
<polygon fill="none" stroke="#404040" points="129.1144,-167.7993 127.5956,-160.75 133.5186,-156.6368 135.0373,-163.6861 129.1144,-167.7993"/>
<text text-anchor="middle" x="176.5" y="-233" font-family="Helvetica,sans-Serif" font-size="10.00" fill="#000000"> +hfSelD0Candidate</text>
</g>
<!-- Node3 -->
<g id="node3" class="node">
<title>Node3</title>
<g id="a_node3"><a xlink:href="../../d6/d86/structo2_1_1framework_1_1Produces.html" target="_top" xlink:title="{o2::framework::Produces\&lt; T \&gt;\n||}">
<polygon fill="none" stroke="#000000" points="0,-436 0,-493 167,-493 167,-436 0,-436"/>
<text text-anchor="middle" x="83.5" y="-481" font-family="Helvetica,sans-Serif" font-size="10.00" fill="#000000">o2::framework::Produces&lt; T &gt;</text>
<polyline fill="none" stroke="#000000" points="0,-474 167,-474 "/>
<text text-anchor="middle" x="83.5" y="-462" font-family="Helvetica,sans-Serif" font-size="10.00" fill="#000000"> </text>
<polyline fill="none" stroke="#000000" points="0,-455 167,-455 "/>
<text text-anchor="middle" x="83.5" y="-443" font-family="Helvetica,sans-Serif" font-size="10.00" fill="#000000"> </text>
</a>
</g>
</g>
<!-- Node3&#45;&gt;Node2 -->
<g id="edge2" class="edge">
<title>Node3&#45;&gt;Node2</title>
<path fill="none" stroke="#ffa500" d="M84.5068,-425.569C84.8667,-411.6554 85.2691,-396.0944 85.6176,-382.6178"/>
<polygon fill="#ffa500" stroke="#ffa500" points="81.0014,-425.7387 84.2416,-435.8258 87.999,-425.9197 81.0014,-425.7387"/>
<text text-anchor="middle" x="156" y="-404" font-family="Helvetica,sans-Serif" font-size="10.00" fill="#000000"> &lt; aod::HFSelD0Candidate &gt;</text>
</g>
<!-- Node4 -->
<g id="node4" class="node">
<title>Node4</title>
<g id="a_node4"><a xlink:href="../../d8/d71/structo2_1_1framework_1_1Configurable.html" target="_top" xlink:title="{o2::framework::Configurable\l\&lt; double \&gt;\n||+ Configurable()\l}">
<polygon fill="none" stroke="#000000" points="185,-314.5 185,-382.5 340,-382.5 340,-314.5 185,-314.5"/>
<text text-anchor="start" x="193" y="-370.5" font-family="Helvetica,sans-Serif" font-size="10.00" fill="#000000">o2::framework::Configurable</text>
<text text-anchor="middle" x="262.5" y="-359.5" font-family="Helvetica,sans-Serif" font-size="10.00" fill="#000000">&lt; double &gt;</text>
<polyline fill="none" stroke="#000000" points="185,-352.5 340,-352.5 "/>
<text text-anchor="middle" x="262.5" y="-340.5" font-family="Helvetica,sans-Serif" font-size="10.00" fill="#000000"> </text>
<polyline fill="none" stroke="#000000" points="185,-333.5 340,-333.5 "/>
<text text-anchor="start" x="193" y="-321.5" font-family="Helvetica,sans-Serif" font-size="10.00" fill="#000000">+ Configurable()</text>
</a>
</g>
</g>
<!-- Node4&#45;&gt;Node1 -->
<g id="edge3" class="edge">
<title>Node4&#45;&gt;Node1</title>
<path fill="none" stroke="#404040" d="M258.5548,-314.3857C253.7192,-278.7644 243.9338,-221.6874 226.5,-175 225.608,-172.6113 224.6633,-170.2108 223.6736,-167.806"/>
<polygon fill="none" stroke="#404040" points="223.5581,-167.5421 217.487,-163.6507 218.744,-156.55 224.815,-160.4413 223.5581,-167.5421"/>
<text text-anchor="middle" x="323" y="-288" font-family="Helvetica,sans-Serif" font-size="10.00" fill="#000000"> +d_nSigmaTOFCombined</text>
<text text-anchor="middle" x="323" y="-277" font-family="Helvetica,sans-Serif" font-size="10.00" fill="#000000">+d_TPCNClsFindablePIDCut</text>
<text text-anchor="middle" x="323" y="-266" font-family="Helvetica,sans-Serif" font-size="10.00" fill="#000000">+d_pidTOFMinpT</text>
<text text-anchor="middle" x="323" y="-255" font-family="Helvetica,sans-Serif" font-size="10.00" fill="#000000">+d_pidTOFMaxpT</text>
<text text-anchor="middle" x="323" y="-244" font-family="Helvetica,sans-Serif" font-size="10.00" fill="#000000">+d_pidTPCMinpT</text>
<text text-anchor="middle" x="323" y="-233" font-family="Helvetica,sans-Serif" font-size="10.00" fill="#000000">+d_pidTPCMaxpT</text>
<text text-anchor="middle" x="323" y="-222" font-family="Helvetica,sans-Serif" font-size="10.00" fill="#000000">+d_nSigmaTPC</text>
<text text-anchor="middle" x="323" y="-211" font-family="Helvetica,sans-Serif" font-size="10.00" fill="#000000">+d_nSigmaTPCCombined</text>
<text text-anchor="middle" x="323" y="-200" font-family="Helvetica,sans-Serif" font-size="10.00" fill="#000000">+d_pTCandMin</text>
<text text-anchor="middle" x="323" y="-189" font-family="Helvetica,sans-Serif" font-size="10.00" fill="#000000">+d_nSigmaTOF</text>
<text text-anchor="middle" x="323" y="-178" font-family="Helvetica,sans-Serif" font-size="10.00" fill="#000000">...</text>
</g>
<!-- Node5 -->
<g id="node5" class="node">
<title>Node5</title>
<g id="a_node5"><a xlink:href="../../da/def/structo2_1_1framework_1_1ConfigurablePolicyConst.html" target="_top" xlink:title="{o2::framework::Configurable\lPolicyConst\&lt; double \&gt;\n||+ ConfigurablePolicyConst()\l}">
<polygon fill="none" stroke="#000000" points="185,-430.5 185,-498.5 340,-498.5 340,-430.5 185,-430.5"/>
<text text-anchor="start" x="193" y="-486.5" font-family="Helvetica,sans-Serif" font-size="10.00" fill="#000000">o2::framework::Configurable</text>
<text text-anchor="middle" x="262.5" y="-475.5" font-family="Helvetica,sans-Serif" font-size="10.00" fill="#000000">PolicyConst&lt; double &gt;</text>
<polyline fill="none" stroke="#000000" points="185,-468.5 340,-468.5 "/>
<text text-anchor="middle" x="262.5" y="-456.5" font-family="Helvetica,sans-Serif" font-size="10.00" fill="#000000"> </text>
<polyline fill="none" stroke="#000000" points="185,-449.5 340,-449.5 "/>
<text text-anchor="start" x="193" y="-437.5" font-family="Helvetica,sans-Serif" font-size="10.00" fill="#000000">+ ConfigurablePolicyConst()</text>
</a>
</g>
</g>
<!-- Node5&#45;&gt;Node4 -->
<g id="edge4" class="edge">
<title>Node5&#45;&gt;Node4</title>
<path fill="none" stroke="#191970" d="M262.5,-420.1851C262.5,-407.8048 262.5,-394.5422 262.5,-382.833"/>
<polygon fill="none" stroke="#191970" points="259.0001,-420.3235 262.5,-430.3236 266.0001,-420.3236 259.0001,-420.3235"/>
</g>
<!-- Node6 -->
<g id="node6" class="node">
<title>Node6</title>
<g id="a_node6"><a xlink:href="../../da/d2f/structo2_1_1framework_1_1ConfigurableBase.html" target="_top" xlink:title="{o2::framework::Configurable\lBase\&lt; double \&gt;\n||+ ConfigurableBase()\l}">
<polygon fill="none" stroke="#000000" points="68,-546.5 68,-614.5 223,-614.5 223,-546.5 68,-546.5"/>
<text text-anchor="start" x="76" y="-602.5" font-family="Helvetica,sans-Serif" font-size="10.00" fill="#000000">o2::framework::Configurable</text>
<text text-anchor="middle" x="145.5" y="-591.5" font-family="Helvetica,sans-Serif" font-size="10.00" fill="#000000">Base&lt; double &gt;</text>
<polyline fill="none" stroke="#000000" points="68,-584.5 223,-584.5 "/>
<text text-anchor="middle" x="145.5" y="-572.5" font-family="Helvetica,sans-Serif" font-size="10.00" fill="#000000"> </text>
<polyline fill="none" stroke="#000000" points="68,-565.5 223,-565.5 "/>
<text text-anchor="start" x="76" y="-553.5" font-family="Helvetica,sans-Serif" font-size="10.00" fill="#000000">+ ConfigurableBase()</text>
</a>
</g>
</g>
<!-- Node6&#45;&gt;Node5 -->
<g id="edge5" class="edge">
<title>Node6&#45;&gt;Node5</title>
<path fill="none" stroke="#191970" d="M187.2184,-539.1382C200.5337,-525.9367 215.1161,-511.4789 227.871,-498.833"/>
<polygon fill="none" stroke="#191970" points="184.6082,-536.7974 179.971,-546.3236 189.5367,-541.7684 184.6082,-536.7974"/>
</g>
<!-- Node7 -->
<g id="node7" class="node">
<title>Node7</title>
<polygon fill="none" stroke="#bfbfbf" points="69.5,-668 69.5,-725 119.5,-725 119.5,-668 69.5,-668"/>
<text text-anchor="middle" x="94.5" y="-713" font-family="Helvetica,sans-Serif" font-size="10.00" fill="#000000">double</text>
<polyline fill="none" stroke="#bfbfbf" points="69.5,-706 119.5,-706 "/>
<text text-anchor="middle" x="94.5" y="-694" font-family="Helvetica,sans-Serif" font-size="10.00" fill="#000000"> </text>
<polyline fill="none" stroke="#bfbfbf" points="69.5,-687 119.5,-687 "/>
<text text-anchor="middle" x="94.5" y="-675" font-family="Helvetica,sans-Serif" font-size="10.00" fill="#000000"> </text>
</g>
<!-- Node7&#45;&gt;Node6 -->
<g id="edge6" class="edge">
<title>Node7&#45;&gt;Node6</title>
<path fill="none" stroke="#404040" d="M94.7324,-667.791C95.68,-656.5686 97.8507,-643.8217 102.5,-633 103.7005,-630.2058 105.096,-627.4414 106.6351,-624.7291"/>
<polygon fill="none" stroke="#404040" points="106.6775,-624.6631 106.5625,-617.4529 113.1738,-614.5735 113.2889,-621.7837 106.6775,-624.6631"/>
<text text-anchor="middle" x="122" y="-636" font-family="Helvetica,sans-Serif" font-size="10.00" fill="#000000"> +value</text>
</g>
<!-- Node8 -->
<g id="node8" class="node">
<title>Node8</title>
<polygon fill="none" stroke="#bfbfbf" points="160,-789.5 160,-846.5 189,-846.5 189,-789.5 160,-789.5"/>
<text text-anchor="middle" x="174.5" y="-834.5" font-family="Helvetica,sans-Serif" font-size="10.00" fill="#000000">int</text>
<polyline fill="none" stroke="#bfbfbf" points="160,-827.5 189,-827.5 "/>
<text text-anchor="middle" x="174.5" y="-815.5" font-family="Helvetica,sans-Serif" font-size="10.00" fill="#000000"> </text>
<polyline fill="none" stroke="#bfbfbf" points="160,-808.5 189,-808.5 "/>
<text text-anchor="middle" x="174.5" y="-796.5" font-family="Helvetica,sans-Serif" font-size="10.00" fill="#000000"> </text>
</g>
<!-- Node8&#45;&gt;Node6 -->
<g id="edge7" class="edge">
<title>Node8&#45;&gt;Node6</title>
<path fill="none" stroke="#404040" d="M171.0019,-789.352C166.0684,-748.9478 157.0125,-674.7836 151.1264,-626.578"/>
<polygon fill="none" stroke="#404040" points="151.1206,-626.5303 146.4228,-621.0594 149.6661,-614.6188 154.3639,-620.0897 151.1206,-626.5303"/>
<text text-anchor="middle" x="184.5" y="-699.5" font-family="Helvetica,sans-Serif" font-size="10.00" fill="#000000"> +name</text>
<text text-anchor="middle" x="184.5" y="-688.5" font-family="Helvetica,sans-Serif" font-size="10.00" fill="#000000">+help</text>
</g>
<!-- Node9 -->
<g id="node9" class="node">
<title>Node9</title>
<g id="a_node9"><a xlink:href="../../da/d2f/structo2_1_1framework_1_1ConfigurableBase.html" target="_top" xlink:title="{o2::framework::Configurable\lBase\&lt; T \&gt;\n||+ ConfigurableBase()\l}">
<polygon fill="none" stroke="#000000" points="214,-662.5 214,-730.5 369,-730.5 369,-662.5 214,-662.5"/>
<text text-anchor="start" x="222" y="-718.5" font-family="Helvetica,sans-Serif" font-size="10.00" fill="#000000">o2::framework::Configurable</text>
<text text-anchor="middle" x="291.5" y="-707.5" font-family="Helvetica,sans-Serif" font-size="10.00" fill="#000000">Base&lt; T &gt;</text>
<polyline fill="none" stroke="#000000" points="214,-700.5 369,-700.5 "/>
<text text-anchor="middle" x="291.5" y="-688.5" font-family="Helvetica,sans-Serif" font-size="10.00" fill="#000000"> </text>
<polyline fill="none" stroke="#000000" points="214,-681.5 369,-681.5 "/>
<text text-anchor="start" x="222" y="-669.5" font-family="Helvetica,sans-Serif" font-size="10.00" fill="#000000">+ ConfigurableBase()</text>
</a>
</g>
</g>
<!-- Node8&#45;&gt;Node9 -->
<g id="edge9" class="edge">
<title>Node8&#45;&gt;Node9</title>
<path fill="none" stroke="#404040" d="M189.3181,-802.6119C204.5586,-786.7853 228.9888,-761.4154 250.1402,-739.4506"/>
<polygon fill="none" stroke="#404040" points="250.3396,-739.2435 251.6202,-732.1469 258.6634,-730.5996 257.3828,-737.6961 250.3396,-739.2435"/>
<text text-anchor="middle" x="260.5" y="-763" font-family="Helvetica,sans-Serif" font-size="10.00" fill="#000000"> +name</text>
<text text-anchor="middle" x="260.5" y="-752" font-family="Helvetica,sans-Serif" font-size="10.00" fill="#000000">+help</text>
</g>
<!-- Node9&#45;&gt;Node6 -->
<g id="edge8" class="edge">
<title>Node9&#45;&gt;Node6</title>
<path fill="none" stroke="#ffa500" d="M240.3256,-655.8409C223.3855,-642.3816 204.7185,-627.5504 188.4598,-614.6324"/>
<polygon fill="#ffa500" stroke="#ffa500" points="238.478,-658.8431 248.4848,-662.3236 242.8325,-653.3624 238.478,-658.8431"/>
<text text-anchor="middle" x="253" y="-636" font-family="Helvetica,sans-Serif" font-size="10.00" fill="#000000"> &lt; double &gt;</text>
</g>
<!-- Node11 -->
<g id="node11" class="node">
<title>Node11</title>
<g id="a_node11"><a xlink:href="../../da/def/structo2_1_1framework_1_1ConfigurablePolicyConst.html" target="_top" xlink:title="{o2::framework::Configurable\lPolicyConst\&lt; T \&gt;\n||+ ConfigurablePolicyConst()\l}">
<polygon fill="none" stroke="#000000" points="241,-546.5 241,-614.5 396,-614.5 396,-546.5 241,-546.5"/>
<text text-anchor="start" x="249" y="-602.5" font-family="Helvetica,sans-Serif" font-size="10.00" fill="#000000">o2::framework::Configurable</text>
<text text-anchor="middle" x="318.5" y="-591.5" font-family="Helvetica,sans-Serif" font-size="10.00" fill="#000000">PolicyConst&lt; T &gt;</text>
<polyline fill="none" stroke="#000000" points="241,-584.5 396,-584.5 "/>
<text text-anchor="middle" x="318.5" y="-572.5" font-family="Helvetica,sans-Serif" font-size="10.00" fill="#000000"> </text>
<polyline fill="none" stroke="#000000" points="241,-565.5 396,-565.5 "/>
<text text-anchor="start" x="249" y="-553.5" font-family="Helvetica,sans-Serif" font-size="10.00" fill="#000000">+ ConfigurablePolicyConst()</text>
</a>
</g>
</g>
<!-- Node9&#45;&gt;Node11 -->
<g id="edge12" class="edge">
<title>Node9&#45;&gt;Node11</title>
<path fill="none" stroke="#191970" d="M301.7283,-652.5562C304.6345,-640.0702 307.756,-626.6593 310.5087,-614.833"/>
<polygon fill="none" stroke="#191970" points="298.313,-651.7905 299.4549,-662.3236 305.1308,-653.3774 298.313,-651.7905"/>
</g>
<!-- Node10 -->
<g id="node10" class="node">
<title>Node10</title>
<polygon fill="none" stroke="#bfbfbf" points="277,-789.5 277,-846.5 306,-846.5 306,-789.5 277,-789.5"/>
<text text-anchor="middle" x="291.5" y="-834.5" font-family="Helvetica,sans-Serif" font-size="10.00" fill="#000000">T</text>
<polyline fill="none" stroke="#bfbfbf" points="277,-827.5 306,-827.5 "/>
<text text-anchor="middle" x="291.5" y="-815.5" font-family="Helvetica,sans-Serif" font-size="10.00" fill="#000000"> </text>
<polyline fill="none" stroke="#bfbfbf" points="277,-808.5 306,-808.5 "/>
<text text-anchor="middle" x="291.5" y="-796.5" font-family="Helvetica,sans-Serif" font-size="10.00" fill="#000000"> </text>
</g>
<!-- Node10&#45;&gt;Node9 -->
<g id="edge10" class="edge">
<title>Node10&#45;&gt;Node9</title>
<path fill="none" stroke="#404040" d="M291.5,-789.2062C291.5,-775.3632 291.5,-758.4255 291.5,-742.8327"/>
<polygon fill="none" stroke="#404040" points="291.5001,-742.7007 287.5,-736.7008 291.5,-730.7007 295.5,-736.7007 291.5001,-742.7007"/>
<text text-anchor="middle" x="311" y="-757.5" font-family="Helvetica,sans-Serif" font-size="10.00" fill="#000000"> +value</text>
</g>
<!-- Node11&#45;&gt;Node5 -->
<g id="edge11" class="edge">
<title>Node11&#45;&gt;Node5</title>
<path fill="none" stroke="#ffa500" d="M297.6433,-537.2969C291.5147,-524.6019 284.8969,-510.8935 279.0745,-498.833"/>
<polygon fill="#ffa500" stroke="#ffa500" points="294.5016,-538.8397 302.001,-546.3236 300.8054,-535.7964 294.5016,-538.8397"/>
<text text-anchor="middle" x="322" y="-520" font-family="Helvetica,sans-Serif" font-size="10.00" fill="#000000"> &lt; double &gt;</text>
</g>
<!-- Node12 -->
<g id="node12" class="node">
<title>Node12</title>
<g id="a_node12"><a xlink:href="../../d8/d71/structo2_1_1framework_1_1Configurable.html" target="_top" xlink:title="{o2::framework::Configurable\l\&lt; T, IP \&gt;\n||+ Configurable()\l}">
<polygon fill="none" stroke="#000000" points="358,-430.5 358,-498.5 513,-498.5 513,-430.5 358,-430.5"/>
<text text-anchor="start" x="366" y="-486.5" font-family="Helvetica,sans-Serif" font-size="10.00" fill="#000000">o2::framework::Configurable</text>
<text text-anchor="middle" x="435.5" y="-475.5" font-family="Helvetica,sans-Serif" font-size="10.00" fill="#000000">&lt; T, IP &gt;</text>
<polyline fill="none" stroke="#000000" points="358,-468.5 513,-468.5 "/>
<text text-anchor="middle" x="435.5" y="-456.5" font-family="Helvetica,sans-Serif" font-size="10.00" fill="#000000"> </text>
<polyline fill="none" stroke="#000000" points="358,-449.5 513,-449.5 "/>
<text text-anchor="start" x="366" y="-437.5" font-family="Helvetica,sans-Serif" font-size="10.00" fill="#000000">+ Configurable()</text>
</a>
</g>
</g>
<!-- Node12&#45;&gt;Node4 -->
<g id="edge13" class="edge">
<title>Node12&#45;&gt;Node4</title>
<path fill="none" stroke="#ffa500" d="M375.9547,-424.5737C355.5943,-410.9216 333.0202,-395.7852 313.4044,-382.6324"/>
<polygon fill="#ffa500" stroke="#ffa500" points="374.2751,-427.6614 384.53,-430.3236 378.1735,-421.8474 374.2751,-427.6614"/>
<text text-anchor="middle" x="384" y="-404" font-family="Helvetica,sans-Serif" font-size="10.00" fill="#000000"> &lt; double &gt;</text>
</g>
<!-- Node13 -->
<g id="node13" class="node">
<title>Node13</title>
<polygon fill="none" stroke="#bfbfbf" points="421,-552 421,-609 450,-609 450,-552 421,-552"/>
<text text-anchor="middle" x="435.5" y="-597" font-family="Helvetica,sans-Serif" font-size="10.00" fill="#000000">IP</text>
<polyline fill="none" stroke="#bfbfbf" points="421,-590 450,-590 "/>
<text text-anchor="middle" x="435.5" y="-578" font-family="Helvetica,sans-Serif" font-size="10.00" fill="#000000"> </text>
<polyline fill="none" stroke="#bfbfbf" points="421,-571 450,-571 "/>
<text text-anchor="middle" x="435.5" y="-559" font-family="Helvetica,sans-Serif" font-size="10.00" fill="#000000"> </text>
</g>
<!-- Node13&#45;&gt;Node12 -->
<g id="edge14" class="edge">
<title>Node13&#45;&gt;Node12</title>
<path fill="none" stroke="#191970" d="M435.5,-541.569C435.5,-527.6554 435.5,-512.0944 435.5,-498.6178"/>
<polygon fill="none" stroke="#191970" points="432.0001,-541.8258 435.5,-551.8258 439.0001,-541.8259 432.0001,-541.8258"/>
</g>
</g>
</svg>
        <g id="navigator" transform="translate(0 0)" fill="#404254">
                <rect fill="#f2f5e9" fill-opacity="0.5" stroke="#606060" stroke-width=".5" x="0" y="0" width="60" height="60"/>
                <use id="zoomplus" xlink:href="#zoomPlus" x="17" y="9" onmousedown="handleZoom(evt,'in')"/>
                <use id="zoomminus" xlink:href="#zoomMin" x="42" y="9" onmousedown="handleZoom(evt,'out')"/>
                <use id="reset" xlink:href="#resetDef" x="30" y="36" onmousedown="handleReset()"/>
                <g id="arrowUp" xlink:href="#dirArrow" transform="translate(30 24)" onmousedown="handlePan(0,-1)">
                  <use xlink:href="#rim" fill="#404040">
                        <set attributeName="fill" to="#808080" begin="arrowUp.mouseover" end="arrowUp.mouseout"/>
                  </use>
                  <path fill="none" stroke="white" stroke-width="1.5" d="M0,-3.0v7 M-2.5,-0.5L0,-3.0L2.5,-0.5"/>
                </g>
                <g id="arrowRight" xlink:href="#dirArrow" transform="rotate(90) translate(36 -43)" onmousedown="handlePan(1,0)">
                  <use xlink:href="#rim" fill="#404040">
                        <set attributeName="fill" to="#808080" begin="arrowRight.mouseover" end="arrowRight.mouseout"/>
                  </use>
                  <path fill="none" stroke="white" stroke-width="1.5" d="M0,-3.0v7 M-2.5,-0.5L0,-3.0L2.5,-0.5"/>
                </g>
                <g id="arrowDown" xlink:href="#dirArrow" transform="rotate(180) translate(-30 -48)" onmousedown="handlePan(0,1)">
                  <use xlink:href="#rim" fill="#404040">
                        <set attributeName="fill" to="#808080" begin="arrowDown.mouseover" end="arrowDown.mouseout"/>
                  </use>
                  <path fill="none" stroke="white" stroke-width="1.5" d="M0,-3.0v7 M-2.5,-0.5L0,-3.0L2.5,-0.5"/>
                </g>
                <g id="arrowLeft" xlink:href="#dirArrow" transform="rotate(270) translate(-36 17)" onmousedown="handlePan(-1,0)">
                  <use xlink:href="#rim" fill="#404040">
                        <set attributeName="fill" to="#808080" begin="arrowLeft.mouseover" end="arrowLeft.mouseout"/>
                  </use>
                  <path fill="none" stroke="white" stroke-width="1.5" d="M0,-3.0v7 M-2.5,-0.5L0,-3.0L2.5,-0.5"/>
                </g>
        </g>
        <svg viewBox="0 0 15 15" width="100%" height="30px" preserveAspectRatio="xMaxYMin meet">
         <g id="arrow_out" transform="scale(0.3 0.3)">
          <a xlink:href="structHFD0CandidateSelector__coll__graph_org.svg" target="_base">
           <rect id="button" ry="5" rx="5" y="6" x="6" height="38" width="38"
                fill="#f2f5e9" fill-opacity="0.5" stroke="#606060" stroke-width="1.0"/>
           <path id="arrow"
             d="M 11.500037,31.436501 C 11.940474,20.09759 22.043105,11.32322 32.158766,21.979434 L 37.068811,17.246167 C 37.068811,17.246167 37.088388,32 37.088388,32 L 22.160133,31.978069 C 22.160133,31.978069 26.997745,27.140456 26.997745,27.140456 C 18.528582,18.264221 13.291696,25.230495 11.500037,31.436501 z"
             style="fill:#404040;"/>
          </a>
         </g>
        </svg>
</svg>
