<?xml version="1.0" encoding="UTF-8" standalone="no"?>
<!DOCTYPE svg PUBLIC "-//W3C//DTD SVG 1.1//EN"
 "http://www.w3.org/Graphics/SVG/1.1/DTD/svg11.dtd">
<!-- Generated by graphviz version 2.40.1 (20161225.0304)
 -->
<!-- Title: /home/travis/build/AliceO2Group/AliceO2/GPU/TPCFastTransformation/SplineHelper.cxx Pages: 1 -->
<!--zoomable 509 -->
<svg id="main" version="1.1" xmlns="http://www.w3.org/2000/svg" xmlns:xlink="http://www.w3.org/1999/xlink" xml:space="preserve" onload="init(evt)">
<style type="text/css"><![CDATA[
.edge:hover path { stroke: red; }
.edge:hover polygon { stroke: red; fill: red; }
]]></style>
<script type="text/javascript"><![CDATA[
var edges = document.getElementsByTagName('g');
if (edges && edges.length) {
  for (var i=0;i<edges.length;i++) {
    if (edges[i].id.substr(0,4)=='edge') {
      edges[i].setAttribute('class','edge');
    }
  }
}
]]></script>
        <defs>
                <circle id="rim" cx="0" cy="0" r="7"/>
                <circle id="rim2" cx="0" cy="0" r="3.5"/>
                <g id="zoomPlus">
                        <use xlink:href="#rim" fill="#404040">
                                <set attributeName="fill" to="#808080" begin="zoomplus.mouseover" end="zoomplus.mouseout"/>
                        </use>
                        <path d="M-4,0h8M0,-4v8" fill="none" stroke="white" stroke-width="1.5" pointer-events="none"/>
                </g>
                <g id="zoomMin">
                        <use xlink:href="#rim" fill="#404040">
                                <set attributeName="fill" to="#808080" begin="zoomminus.mouseover" end="zoomminus.mouseout"/>
                        </use>
                        <path d="M-4,0h8" fill="none" stroke="white" stroke-width="1.5" pointer-events="none"/>
                </g>
                <g id="dirArrow">
                        <path fill="none" stroke="white" stroke-width="1.5" d="M0,-3.0v7 M-2.5,-0.5L0,-3.0L2.5,-0.5"/>
                </g>
               <g id="resetDef">
                       <use xlink:href="#rim2" fill="#404040">
                               <set attributeName="fill" to="#808080" begin="reset.mouseover" end="reset.mouseout"/>
                       </use>
               </g>
        </defs>

<script type="text/javascript">
var viewWidth = 1641;
var viewHeight = 509;
var sectionId = 'dynsection-0';
</script>
<script xlink:href="../../svgpan.js"/>
<svg id="graph" class="graph">
<g id="viewport">
<title>/home/travis/build/AliceO2Group/AliceO2/GPU/TPCFastTransformation/SplineHelper.cxx</title>
<!-- Node0 -->
<g id="node1" class="node">
<title>Node0</title>
<polygon fill="#bfbfbf" stroke="#000000" points="1004,-448.5 1004,-500.5 1159,-500.5 1159,-448.5 1004,-448.5"/>
<text text-anchor="start" x="1012" y="-488.5" font-family="Helvetica,sans-Serif" font-size="10.00" fill="#000000">/home/travis/build</text>
<text text-anchor="start" x="1012" y="-477.5" font-family="Helvetica,sans-Serif" font-size="10.00" fill="#000000">/AliceO2Group/AliceO2</text>
<text text-anchor="start" x="1012" y="-466.5" font-family="Helvetica,sans-Serif" font-size="10.00" fill="#000000">/GPU/TPCFastTransformation</text>
<text text-anchor="middle" x="1081.5" y="-455.5" font-family="Helvetica,sans-Serif" font-size="10.00" fill="#000000">/SplineHelper.cxx</text>
</g>
<!-- Node1 -->
<g id="node2" class="node">
<title>Node1</title>
<g id="a_node2"><a xlink:href="../../de/d4d/SplineHelper_8h.html" target="_top" xlink:title="Definition of SplineHelper class. ">
<polygon fill="none" stroke="#000000" points="357,-392.5 357,-411.5 444,-411.5 444,-392.5 357,-392.5"/>
<text text-anchor="middle" x="400.5" y="-399.5" font-family="Helvetica,sans-Serif" font-size="10.00" fill="#000000">SplineHelper.h</text>
</a>
</g>
</g>
<!-- Node0&#45;&gt;Node1 -->
<g id="edge1" class="edge">
<title>Node0&#45;&gt;Node1</title>
<path fill="none" stroke="#191970" d="M1003.7124,-466.2187C864,-451.3447 573.9863,-420.4695 454.1274,-407.7092"/>
<polygon fill="#191970" stroke="#191970" points="454.4032,-404.2189 444.0888,-406.6405 453.6621,-411.1796 454.4032,-404.2189"/>
</g>
<!-- Node3 -->
<g id="node4" class="node">
<title>Node3</title>
<polygon fill="none" stroke="#bfbfbf" points="651,-280.5 651,-299.5 698,-299.5 698,-280.5 651,-280.5"/>
<text text-anchor="middle" x="674.5" y="-287.5" font-family="Helvetica,sans-Serif" font-size="10.00" fill="#000000">vector</text>
</g>
<!-- Node0&#45;&gt;Node3 -->
<g id="edge53" class="edge">
<title>Node0&#45;&gt;Node3</title>
<path fill="none" stroke="#191970" d="M1003.8888,-449.6491C972.8929,-439.0256 937.1213,-425.8778 905.5,-412 828.0868,-378.0253 740.9366,-328.845 699.2719,-304.6152"/>
<polygon fill="#191970" stroke="#191970" points="701.0232,-301.5848 690.623,-299.5632 697.4925,-307.6292 701.0232,-301.5848"/>
</g>
<!-- Node18 -->
<g id="node19" class="node">
<title>Node18</title>
<polygon fill="none" stroke="#bfbfbf" points="909.5,-.5 909.5,-19.5 969.5,-19.5 969.5,-.5 909.5,-.5"/>
<text text-anchor="middle" x="939.5" y="-7.5" font-family="Helvetica,sans-Serif" font-size="10.00" fill="#000000">iostream</text>
</g>
<!-- Node0&#45;&gt;Node18 -->
<g id="edge62" class="edge">
<title>Node0&#45;&gt;Node18</title>
<path fill="none" stroke="#191970" d="M1003.8213,-448.6846C987.7977,-439.6491 972.945,-427.6906 963.5,-412 924.7342,-347.5994 997.8877,-151.0263 1002.5,-76 1003.0454,-67.1279 1006.5261,-63.9248 1002.5,-56 995.639,-42.4951 982.7468,-32.0099 970.4034,-24.4839"/>
<polygon fill="#191970" stroke="#191970" points="972.0367,-21.3868 961.6066,-19.5258 968.5997,-27.4849 972.0367,-21.3868"/>
</g>
<!-- Node26 -->
<g id="node27" class="node">
<title>Node26</title>
<g id="a_node27"><a xlink:href="../../dd/d27/Spline2D_8h.html" target="_top" xlink:title="Definition of Spline2D class. ">
<polygon fill="none" stroke="#000000" points="842,-336.5 842,-355.5 911,-355.5 911,-336.5 842,-336.5"/>
<text text-anchor="middle" x="876.5" y="-343.5" font-family="Helvetica,sans-Serif" font-size="10.00" fill="#000000">Spline2D.h</text>
</a>
</g>
</g>
<!-- Node0&#45;&gt;Node26 -->
<g id="edge40" class="edge">
<title>Node0&#45;&gt;Node26</title>
<path fill="none" stroke="#191970" d="M1003.9029,-450.8051C979.0683,-441.0874 952.3672,-428.2387 930.5,-412 912.9497,-398.967 897.6802,-379.0117 887.899,-364.4552"/>
<polygon fill="#191970" stroke="#191970" points="890.6667,-362.2898 882.2952,-355.7961 884.79,-366.093 890.6667,-362.2898"/>
</g>
<!-- Node28 -->
<g id="node29" class="node">
<title>Node28</title>
<polygon fill="none" stroke="#bfbfbf" points="972.5,-392.5 972.5,-411.5 1028.5,-411.5 1028.5,-392.5 972.5,-392.5"/>
<text text-anchor="middle" x="1000.5" y="-399.5" font-family="Helvetica,sans-Serif" font-size="10.00" fill="#000000">TMath.h</text>
</g>
<!-- Node0&#45;&gt;Node28 -->
<g id="edge49" class="edge">
<title>Node0&#45;&gt;Node28</title>
<path fill="none" stroke="#191970" d="M1052.2571,-448.3258C1041.0699,-438.3126 1028.6378,-427.1851 1018.7624,-418.346"/>
<polygon fill="#191970" stroke="#191970" points="1020.9373,-415.5954 1011.1518,-411.534 1016.2688,-420.8113 1020.9373,-415.5954"/>
</g>
<!-- Node29 -->
<g id="node30" class="node">
<title>Node29</title>
<polygon fill="none" stroke="#bfbfbf" points="1046.5,-392.5 1046.5,-411.5 1116.5,-411.5 1116.5,-392.5 1046.5,-392.5"/>
<text text-anchor="middle" x="1081.5" y="-399.5" font-family="Helvetica,sans-Serif" font-size="10.00" fill="#000000">TMatrixD.h</text>
</g>
<!-- Node0&#45;&gt;Node29 -->
<g id="edge50" class="edge">
<title>Node0&#45;&gt;Node29</title>
<path fill="none" stroke="#191970" d="M1081.5,-448.3258C1081.5,-439.5142 1081.5,-429.8397 1081.5,-421.621"/>
<polygon fill="#191970" stroke="#191970" points="1085.0001,-421.534 1081.5,-411.534 1078.0001,-421.534 1085.0001,-421.534"/>
</g>
<!-- Node30 -->
<g id="node31" class="node">
<title>Node30</title>
<polygon fill="none" stroke="#bfbfbf" points="1134.5,-392.5 1134.5,-411.5 1204.5,-411.5 1204.5,-392.5 1134.5,-392.5"/>
<text text-anchor="middle" x="1169.5" y="-399.5" font-family="Helvetica,sans-Serif" font-size="10.00" fill="#000000">TVectorD.h</text>
</g>
<!-- Node0&#45;&gt;Node30 -->
<g id="edge51" class="edge">
<title>Node0&#45;&gt;Node30</title>
<path fill="none" stroke="#191970" d="M1113.27,-448.3258C1125.5456,-438.2124 1139.2008,-426.9624 1149.9804,-418.0815"/>
<polygon fill="#191970" stroke="#191970" points="1152.4352,-420.594 1157.9277,-411.534 1147.9841,-415.1913 1152.4352,-420.594"/>
</g>
<!-- Node31 -->
<g id="node32" class="node">
<title>Node31</title>
<polygon fill="none" stroke="#bfbfbf" points="1222.5,-392.5 1222.5,-411.5 1308.5,-411.5 1308.5,-392.5 1222.5,-392.5"/>
<text text-anchor="middle" x="1265.5" y="-399.5" font-family="Helvetica,sans-Serif" font-size="10.00" fill="#000000">TDecompBK.h</text>
</g>
<!-- Node0&#45;&gt;Node31 -->
<g id="edge52" class="edge">
<title>Node0&#45;&gt;Node31</title>
<path fill="none" stroke="#191970" d="M1147.6683,-448.4283C1176.1559,-437.2035 1208.2393,-424.5619 1231.7267,-415.3074"/>
<polygon fill="#191970" stroke="#191970" points="1233.2101,-418.4849 1241.2308,-411.5626 1230.6439,-411.9722 1233.2101,-418.4849"/>
</g>
<!-- Node32 -->
<g id="node33" class="node">
<title>Node32</title>
<polygon fill="none" stroke="#bfbfbf" points="1326.5,-392.5 1326.5,-411.5 1398.5,-411.5 1398.5,-392.5 1326.5,-392.5"/>
<text text-anchor="middle" x="1362.5" y="-399.5" font-family="Helvetica,sans-Serif" font-size="10.00" fill="#000000">TRandom.h</text>
</g>
<!-- Node0&#45;&gt;Node32 -->
<g id="edge54" class="edge">
<title>Node0&#45;&gt;Node32</title>
<path fill="none" stroke="#191970" d="M1159.0283,-454.4971C1209.5604,-441.4595 1273.7949,-424.8865 1316.4303,-413.8863"/>
<polygon fill="#191970" stroke="#191970" points="1317.4413,-417.2402 1326.2498,-411.3528 1315.6924,-410.4621 1317.4413,-417.2402"/>
</g>
<!-- Node33 -->
<g id="node34" class="node">
<title>Node33</title>
<polygon fill="none" stroke="#bfbfbf" points="1417,-392.5 1417,-411.5 1484,-411.5 1484,-392.5 1417,-392.5"/>
<text text-anchor="middle" x="1450.5" y="-399.5" font-family="Helvetica,sans-Serif" font-size="10.00" fill="#000000">TCanvas.h</text>
</g>
<!-- Node0&#45;&gt;Node33 -->
<g id="edge55" class="edge">
<title>Node0&#45;&gt;Node33</title>
<path fill="none" stroke="#191970" d="M1159.0662,-460.511C1222.8986,-448.7954 1315.9757,-431.248 1406.8081,-412.0864"/>
<polygon fill="#191970" stroke="#191970" points="1407.669,-415.4818 1416.7267,-409.9856 1406.2184,-408.6337 1407.669,-415.4818"/>
</g>
<!-- Node34 -->
<g id="node35" class="node">
<title>Node34</title>
<polygon fill="none" stroke="#bfbfbf" points="1502.5,-392.5 1502.5,-411.5 1566.5,-411.5 1566.5,-392.5 1502.5,-392.5"/>
<text text-anchor="middle" x="1534.5" y="-399.5" font-family="Helvetica,sans-Serif" font-size="10.00" fill="#000000">TNtuple.h</text>
</g>
<!-- Node0&#45;&gt;Node34 -->
<g id="edge56" class="edge">
<title>Node0&#45;&gt;Node34</title>
<path fill="none" stroke="#191970" d="M1159.3089,-464.7896C1240.2223,-454.2171 1370.7047,-435.8384 1492.4594,-412.0742"/>
<polygon fill="#191970" stroke="#191970" points="1493.1948,-415.4967 1502.3308,-410.1317 1491.8432,-408.6284 1493.1948,-415.4967"/>
</g>
<!-- Node35 -->
<g id="node36" class="node">
<title>Node35</title>
<polygon fill="none" stroke="#bfbfbf" points="1584.5,-392.5 1584.5,-411.5 1632.5,-411.5 1632.5,-392.5 1584.5,-392.5"/>
<text text-anchor="middle" x="1608.5" y="-399.5" font-family="Helvetica,sans-Serif" font-size="10.00" fill="#000000">TFile.h</text>
</g>
<!-- Node0&#45;&gt;Node35 -->
<g id="edge57" class="edge">
<title>Node0&#45;&gt;Node35</title>
<path fill="none" stroke="#191970" d="M1159.1861,-468.7422C1254.9644,-460.7344 1422.6787,-443.752 1574.4956,-411.9111"/>
<polygon fill="#191970" stroke="#191970" points="1575.4169,-415.2936 1584.4715,-409.7923 1573.9626,-408.4463 1575.4169,-415.2936"/>
</g>
<!-- Node36 -->
<g id="node37" class="node">
<title>Node36</title>
<g id="a_node37"><a xlink:href="../../d6/da2/GPUCommonMath_8h.html" target="_top" xlink:title="GPUCommonMath.h">
<polygon fill="none" stroke="#000000" points="0,-336.5 0,-355.5 115,-355.5 115,-336.5 0,-336.5"/>
<text text-anchor="middle" x="57.5" y="-343.5" font-family="Helvetica,sans-Serif" font-size="10.00" fill="#000000">GPUCommonMath.h</text>
</a>
</g>
</g>
<!-- Node0&#45;&gt;Node36 -->
<g id="edge58" class="edge">
<title>Node0&#45;&gt;Node36</title>
<path fill="none" stroke="#191970" d="M1003.7758,-471.3994C869.4826,-465.2571 585.6101,-448.8175 348.5,-412 260.3689,-398.3154 159.1649,-373.1869 102.3307,-358.196"/>
<polygon fill="#191970" stroke="#191970" points="103.149,-354.7921 92.5858,-355.6101 101.3536,-361.5579 103.149,-354.7921"/>
</g>
<!-- Node2 -->
<g id="node3" class="node">
<title>Node2</title>
<polygon fill="none" stroke="#bfbfbf" points="273,-280.5 273,-299.5 320,-299.5 320,-280.5 273,-280.5"/>
<text text-anchor="middle" x="296.5" y="-287.5" font-family="Helvetica,sans-Serif" font-size="10.00" fill="#000000">cmath</text>
</g>
<!-- Node1&#45;&gt;Node2 -->
<g id="edge2" class="edge">
<title>Node1&#45;&gt;Node2</title>
<path fill="none" stroke="#191970" d="M392.2289,-392.4804C380.9345,-379.5431 359.9765,-355.7564 341.5,-336 332.3857,-326.2543 321.9808,-315.5895 313.4734,-306.9845"/>
<polygon fill="#191970" stroke="#191970" points="315.8155,-304.3759 306.2855,-299.7466 310.8486,-309.3084 315.8155,-304.3759"/>
</g>
<!-- Node1&#45;&gt;Node3 -->
<g id="edge3" class="edge">
<title>Node1&#45;&gt;Node3</title>
<path fill="none" stroke="#191970" d="M444.3369,-395.6626C482.2021,-389.0949 537.7218,-376.8042 582.5,-356 610.3827,-343.0456 638.5361,-321.2844 656.2215,-306.3131"/>
<polygon fill="#191970" stroke="#191970" points="658.738,-308.7643 664.0155,-299.5774 654.1609,-303.468 658.738,-308.7643"/>
</g>
<!-- Node4 -->
<g id="node5" class="node">
<title>Node4</title>
<g id="a_node5"><a xlink:href="../../df/d21/GPUCommonDef_8h.html" target="_top" xlink:title="GPUCommonDef.h">
<polygon fill="none" stroke="#000000" points="316,-56.5 316,-75.5 423,-75.5 423,-56.5 316,-56.5"/>
<text text-anchor="middle" x="369.5" y="-63.5" font-family="Helvetica,sans-Serif" font-size="10.00" fill="#000000">GPUCommonDef.h</text>
</a>
</g>
</g>
<!-- Node1&#45;&gt;Node4 -->
<g id="edge4" class="edge">
<title>Node1&#45;&gt;Node4</title>
<path fill="none" stroke="#191970" d="M356.9626,-396.3375C299.765,-386.1788 206.5,-359.0305 206.5,-290 206.5,-290 206.5,-290 206.5,-178 206.5,-123.2319 269.7831,-93.2317 317.4873,-78.3974"/>
<polygon fill="#191970" stroke="#191970" points="318.5086,-81.7452 327.0992,-75.5442 316.5166,-75.0346 318.5086,-81.7452"/>
</g>
<!-- Node7 -->
<g id="node8" class="node">
<title>Node7</title>
<polygon fill="none" stroke="#bfbfbf" points="143,-.5 143,-19.5 202,-19.5 202,-.5 143,-.5"/>
<text text-anchor="middle" x="172.5" y="-7.5" font-family="Helvetica,sans-Serif" font-size="10.00" fill="#000000">Rtypes.h</text>
</g>
<!-- Node1&#45;&gt;Node7 -->
<g id="edge7" class="edge">
<title>Node1&#45;&gt;Node7</title>
<path fill="none" stroke="#191970" d="M356.9653,-398.8234C318.76,-394.2543 263.1116,-383.1204 222.5,-356 166.0239,-318.2853 130.5,-301.9113 130.5,-234 130.5,-234 130.5,-234 130.5,-122 130.5,-87.2434 148.4519,-50.0613 160.8826,-28.4811"/>
<polygon fill="#191970" stroke="#191970" points="163.9887,-30.1065 166.1211,-19.7285 157.9823,-26.5116 163.9887,-30.1065"/>
</g>
<!-- Node8 -->
<g id="node9" class="node">
<title>Node8</title>
<polygon fill="none" stroke="#bfbfbf" points="272.5,-336.5 272.5,-355.5 332.5,-355.5 332.5,-336.5 272.5,-336.5"/>
<text text-anchor="middle" x="302.5" y="-343.5" font-family="Helvetica,sans-Serif" font-size="10.00" fill="#000000">TString.h</text>
</g>
<!-- Node1&#45;&gt;Node8 -->
<g id="edge8" class="edge">
<title>Node1&#45;&gt;Node8</title>
<path fill="none" stroke="#191970" d="M383.4297,-392.2455C368.253,-383.5731 345.8379,-370.7645 328.4437,-360.825"/>
<polygon fill="#191970" stroke="#191970" points="329.7936,-357.5653 319.3747,-355.6427 326.3206,-363.643 329.7936,-357.5653"/>
</g>
<!-- Node9 -->
<g id="node10" class="node">
<title>Node9</title>
<g id="a_node10"><a xlink:href="../../de/da6/Spline1D_8h.html" target="_top" xlink:title="Definition of Spline1D class. ">
<polygon fill="none" stroke="#000000" points="629,-224.5 629,-243.5 698,-243.5 698,-224.5 629,-224.5"/>
<text text-anchor="middle" x="663.5" y="-231.5" font-family="Helvetica,sans-Serif" font-size="10.00" fill="#000000">Spline1D.h</text>
</a>
</g>
</g>
<!-- Node1&#45;&gt;Node9 -->
<g id="edge9" class="edge">
<title>Node1&#45;&gt;Node9</title>
<path fill="none" stroke="#191970" d="M444.3162,-396.6541C488.0331,-390.3666 556.5631,-377.8992 612.5,-356 658.139,-338.1324 683.1862,-342.556 707.5,-300 717.6225,-282.2827 701.287,-262.9645 685.7301,-249.834"/>
<polygon fill="#191970" stroke="#191970" points="687.8253,-247.0288 677.81,-243.5728 683.4842,-252.5201 687.8253,-247.0288"/>
</g>
<!-- Node21 -->
<g id="node22" class="node">
<title>Node21</title>
<polygon fill="none" stroke="#bfbfbf" points="293,-112.5 293,-131.5 358,-131.5 358,-112.5 293,-112.5"/>
<text text-anchor="middle" x="325.5" y="-119.5" font-family="Helvetica,sans-Serif" font-size="10.00" fill="#000000">functional</text>
</g>
<!-- Node1&#45;&gt;Node21 -->
<g id="edge39" class="edge">
<title>Node1&#45;&gt;Node21</title>
<path fill="none" stroke="#191970" d="M358.6031,-392.472C323.419,-383.6774 276.816,-369.9101 263.5,-356 242.3919,-333.95 244.5,-320.5246 244.5,-290 244.5,-290 244.5,-290 244.5,-234 244.5,-193.4297 279.8281,-157.5972 303.8218,-137.9394"/>
<polygon fill="#191970" stroke="#191970" points="306.0747,-140.6202 311.7595,-131.6795 301.74,-135.1237 306.0747,-140.6202"/>
</g>
<!-- Node22 -->
<g id="node23" class="node">
<title>Node22</title>
<g id="a_node23"><a xlink:href="../../dc/d67/Spline_8h.html" target="_top" xlink:title="Definition of Spline class. ">
<polygon fill="none" stroke="#000000" points="517.5,-336.5 517.5,-355.5 573.5,-355.5 573.5,-336.5 517.5,-336.5"/>
<text text-anchor="middle" x="545.5" y="-343.5" font-family="Helvetica,sans-Serif" font-size="10.00" fill="#000000">Spline.h</text>
</a>
</g>
</g>
<!-- Node1&#45;&gt;Node22 -->
<g id="edge25" class="edge">
<title>Node1&#45;&gt;Node22</title>
<path fill="none" stroke="#191970" d="M425.4264,-392.3733C449.1202,-383.2226 484.9511,-369.3844 511.3068,-359.2057"/>
<polygon fill="#191970" stroke="#191970" points="512.8314,-362.3689 520.8989,-355.5011 510.3094,-355.8389 512.8314,-362.3689"/>
</g>
<!-- Node24 -->
<g id="node25" class="node">
<title>Node24</title>
<g id="a_node25"><a xlink:href="../../de/dc8/Spline1DHelper_8h.html" target="_top" xlink:title="Definition of Spline1DHelper class. ">
<polygon fill="none" stroke="#000000" points="389,-336.5 389,-355.5 490,-355.5 490,-336.5 389,-336.5"/>
<text text-anchor="middle" x="439.5" y="-343.5" font-family="Helvetica,sans-Serif" font-size="10.00" fill="#000000">Spline1DHelper.h</text>
</a>
</g>
</g>
<!-- Node1&#45;&gt;Node24 -->
<g id="edge31" class="edge">
<title>Node1&#45;&gt;Node24</title>
<path fill="none" stroke="#191970" d="M407.2933,-392.2455C412.7178,-384.4564 420.4661,-373.3308 427.0033,-363.9439"/>
<polygon fill="#191970" stroke="#191970" points="429.9417,-365.849 432.7846,-355.6427 424.1975,-361.8485 429.9417,-365.849"/>
</g>
<!-- Node5 -->
<g id="node6" class="node">
<title>Node5</title>
<g id="a_node6"><a xlink:href="../../d5/d93/GPUCommonDefSettings_8h.html" target="_top" xlink:title="GPUCommonDefSettings.h">
<polygon fill="none" stroke="#000000" points="270.5,-.5 270.5,-19.5 418.5,-19.5 418.5,-.5 270.5,-.5"/>
<text text-anchor="middle" x="344.5" y="-7.5" font-family="Helvetica,sans-Serif" font-size="10.00" fill="#000000">GPUCommonDefSettings.h</text>
</a>
</g>
</g>
<!-- Node4&#45;&gt;Node5 -->
<g id="edge5" class="edge">
<title>Node4&#45;&gt;Node5</title>
<path fill="none" stroke="#191970" d="M365.1453,-56.2455C361.7756,-48.6973 357.007,-38.0158 352.9017,-28.8197"/>
<polygon fill="#191970" stroke="#191970" points="356.0773,-27.3473 348.8048,-19.6427 349.6853,-30.2009 356.0773,-27.3473"/>
</g>
<!-- Node6 -->
<g id="node7" class="node">
<title>Node6</title>
<g id="a_node7"><a xlink:href="../../da/d5a/GPUCommonDefAPI_8h.html" target="_top" xlink:title="GPUCommonDefAPI.h">
<polygon fill="none" stroke="#000000" points="436.5,-.5 436.5,-19.5 560.5,-19.5 560.5,-.5 436.5,-.5"/>
<text text-anchor="middle" x="498.5" y="-7.5" font-family="Helvetica,sans-Serif" font-size="10.00" fill="#000000">GPUCommonDefAPI.h</text>
</a>
</g>
</g>
<!-- Node4&#45;&gt;Node6 -->
<g id="edge6" class="edge">
<title>Node4&#45;&gt;Node6</title>
<path fill="none" stroke="#191970" d="M391.6759,-56.3733C412.4766,-47.3435 443.7917,-33.7494 467.1458,-23.6111"/>
<polygon fill="#191970" stroke="#191970" points="468.8343,-26.6938 476.6135,-19.5011 466.0468,-20.2727 468.8343,-26.6938"/>
</g>
<!-- Node10 -->
<g id="node11" class="node">
<title>Node10</title>
<g id="a_node11"><a xlink:href="../../d0/d51/Spline1DSpec_8h.html" target="_top" xlink:title="Definition of Spline1DSpec class. ">
<polygon fill="none" stroke="#000000" points="642.5,-168.5 642.5,-187.5 734.5,-187.5 734.5,-168.5 642.5,-168.5"/>
<text text-anchor="middle" x="688.5" y="-175.5" font-family="Helvetica,sans-Serif" font-size="10.00" fill="#000000">Spline1DSpec.h</text>
</a>
</g>
</g>
<!-- Node9&#45;&gt;Node10 -->
<g id="edge10" class="edge">
<title>Node9&#45;&gt;Node10</title>
<path fill="none" stroke="#191970" d="M667.8547,-224.2455C671.2244,-216.6973 675.993,-206.0158 680.0983,-196.8197"/>
<polygon fill="#191970" stroke="#191970" points="683.3147,-198.2009 684.1952,-187.6427 676.9227,-195.3473 683.3147,-198.2009"/>
</g>
<!-- Node10&#45;&gt;Node4 -->
<g id="edge11" class="edge">
<title>Node10&#45;&gt;Node4</title>
<path fill="none" stroke="#191970" d="M687.309,-168.1393C684.9733,-153.42 678.353,-125.9442 660.5,-112 582.1767,-50.8248 536.725,-89.4458 433.3079,-75.9839"/>
<polygon fill="#191970" stroke="#191970" points="433.5131,-72.4774 423.1158,-74.5135 432.5135,-79.4056 433.5131,-72.4774"/>
</g>
<!-- Node11 -->
<g id="node12" class="node">
<title>Node11</title>
<g id="a_node12"><a xlink:href="../../db/dff/FlatObject_8h.html" target="_top" xlink:title="Definition of FlatObject class. ">
<polygon fill="none" stroke="#000000" points="829,-112.5 829,-131.5 904,-131.5 904,-112.5 829,-112.5"/>
<text text-anchor="middle" x="866.5" y="-119.5" font-family="Helvetica,sans-Serif" font-size="10.00" fill="#000000">FlatObject.h</text>
</a>
</g>
</g>
<!-- Node10&#45;&gt;Node11 -->
<g id="edge12" class="edge">
<title>Node10&#45;&gt;Node11</title>
<path fill="none" stroke="#191970" d="M719.0993,-168.3733C748.8261,-159.021 794.1159,-144.7725 826.6456,-134.5385"/>
<polygon fill="#191970" stroke="#191970" points="827.8113,-137.8409 836.3,-131.5011 825.7105,-131.1636 827.8113,-137.8409"/>
</g>
<!-- Node20 -->
<g id="node21" class="node">
<title>Node20</title>
<g id="a_node21"><a xlink:href="../../db/d04/SplineUtil_8h.html" target="_top" xlink:title="SplineUtil.h">
<polygon fill="none" stroke="#000000" points="578,-112.5 578,-131.5 651,-131.5 651,-112.5 578,-112.5"/>
<text text-anchor="middle" x="614.5" y="-119.5" font-family="Helvetica,sans-Serif" font-size="10.00" fill="#000000">SplineUtil.h</text>
</a>
</g>
</g>
<!-- Node10&#45;&gt;Node20 -->
<g id="edge23" class="edge">
<title>Node10&#45;&gt;Node20</title>
<path fill="none" stroke="#191970" d="M675.6102,-168.2455C664.5746,-159.8943 648.4708,-147.7076 635.5647,-137.9408"/>
<polygon fill="#191970" stroke="#191970" points="637.3283,-134.8862 627.2421,-131.6427 633.1041,-140.4681 637.3283,-134.8862"/>
</g>
<!-- Node10&#45;&gt;Node21 -->
<g id="edge24" class="edge">
<title>Node10&#45;&gt;Node21</title>
<path fill="none" stroke="#191970" d="M642.1571,-170.8507C571.2548,-159.9126 436.8685,-139.1808 368.209,-128.5887"/>
<polygon fill="#191970" stroke="#191970" points="368.589,-125.106 358.1722,-127.0403 367.5216,-132.0242 368.589,-125.106"/>
</g>
<!-- Node11&#45;&gt;Node4 -->
<g id="edge17" class="edge">
<title>Node11&#45;&gt;Node4</title>
<path fill="none" stroke="#191970" d="M828.7979,-114.3088C823.9972,-113.4594 819.1414,-112.6634 814.5,-112 648.9005,-88.3296 603.4059,-97.0276 433.1419,-76.0009"/>
<polygon fill="#191970" stroke="#191970" points="433.4404,-72.511 423.0832,-74.7423 432.5712,-79.4569 433.4404,-72.511"/>
</g>
<!-- Node12 -->
<g id="node13" class="node">
<title>Node12</title>
<polygon fill="none" stroke="#bfbfbf" points="655,-56.5 655,-75.5 708,-75.5 708,-56.5 655,-56.5"/>
<text text-anchor="middle" x="681.5" y="-63.5" font-family="Helvetica,sans-Serif" font-size="10.00" fill="#000000">cstddef</text>
</g>
<!-- Node11&#45;&gt;Node12 -->
<g id="edge13" class="edge">
<title>Node11&#45;&gt;Node12</title>
<path fill="none" stroke="#191970" d="M834.6974,-112.3733C802.3035,-102.5676 752.1282,-87.3793 718.1009,-77.0792"/>
<polygon fill="#191970" stroke="#191970" points="718.6819,-73.5983 708.0967,-74.0509 716.6538,-80.2981 718.6819,-73.5983"/>
</g>
<!-- Node13 -->
<g id="node14" class="node">
<title>Node13</title>
<polygon fill="none" stroke="#bfbfbf" points="867.5,-56.5 867.5,-75.5 925.5,-75.5 925.5,-56.5 867.5,-56.5"/>
<text text-anchor="middle" x="896.5" y="-63.5" font-family="Helvetica,sans-Serif" font-size="10.00" fill="#000000">memory</text>
</g>
<!-- Node11&#45;&gt;Node13 -->
<g id="edge14" class="edge">
<title>Node11&#45;&gt;Node13</title>
<path fill="none" stroke="#191970" d="M871.7256,-112.2455C875.8123,-104.617 881.6135,-93.7881 886.575,-84.5267"/>
<polygon fill="#191970" stroke="#191970" points="889.6972,-86.1103 891.3343,-75.6427 883.5268,-82.8047 889.6972,-86.1103"/>
</g>
<!-- Node14 -->
<g id="node15" class="node">
<title>Node14</title>
<polygon fill="none" stroke="#bfbfbf" points="943.5,-56.5 943.5,-75.5 993.5,-75.5 993.5,-56.5 943.5,-56.5"/>
<text text-anchor="middle" x="968.5" y="-63.5" font-family="Helvetica,sans-Serif" font-size="10.00" fill="#000000">cstring</text>
</g>
<!-- Node11&#45;&gt;Node14 -->
<g id="edge15" class="edge">
<title>Node11&#45;&gt;Node14</title>
<path fill="none" stroke="#191970" d="M884.267,-112.2455C900.2095,-103.4928 923.8259,-90.527 941.9989,-80.5496"/>
<polygon fill="#191970" stroke="#191970" points="943.8552,-83.5233 950.9366,-75.6427 940.4863,-77.3873 943.8552,-83.5233"/>
</g>
<!-- Node15 -->
<g id="node16" class="node">
<title>Node15</title>
<polygon fill="none" stroke="#bfbfbf" points="584.5,-56.5 584.5,-75.5 636.5,-75.5 636.5,-56.5 584.5,-56.5"/>
<text text-anchor="middle" x="610.5" y="-63.5" font-family="Helvetica,sans-Serif" font-size="10.00" fill="#000000">cassert</text>
</g>
<!-- Node11&#45;&gt;Node15 -->
<g id="edge16" class="edge">
<title>Node11&#45;&gt;Node15</title>
<path fill="none" stroke="#191970" d="M828.8662,-114.4385C775.5258,-103.6685 680.624,-84.2977 646.5,-76 646.4015,-75.9761 646.3029,-75.952 646.2041,-75.9279"/>
<polygon fill="#191970" stroke="#191970" points="647.3505,-72.6087 636.7946,-73.516 645.6123,-79.3895 647.3505,-72.6087"/>
</g>
<!-- Node16 -->
<g id="node17" class="node">
<title>Node16</title>
<g id="a_node17"><a xlink:href="../../d2/d45/GPUCommonRtypes_8h.html" target="_top" xlink:title="GPUCommonRtypes.h">
<polygon fill="none" stroke="#000000" points="441,-56.5 441,-75.5 566,-75.5 566,-56.5 441,-56.5"/>
<text text-anchor="middle" x="503.5" y="-63.5" font-family="Helvetica,sans-Serif" font-size="10.00" fill="#000000">GPUCommonRtypes.h</text>
</a>
</g>
</g>
<!-- Node11&#45;&gt;Node16 -->
<g id="edge18" class="edge">
<title>Node11&#45;&gt;Node16</title>
<path fill="none" stroke="#191970" d="M828.761,-114.5444C823.9665,-113.6555 819.1222,-112.7859 814.5,-112 770.0202,-104.4372 653.2827,-87.4575 576.1681,-76.3781"/>
<polygon fill="#191970" stroke="#191970" points="576.4268,-72.8794 566.0309,-74.9228 575.4321,-79.8084 576.4268,-72.8794"/>
</g>
<!-- Node17 -->
<g id="node18" class="node">
<title>Node17</title>
<g id="a_node18"><a xlink:href="../../df/d5b/GPUCommonLogger_8h.html" target="_top" xlink:title="GPUCommonLogger.h">
<polygon fill="none" stroke="#000000" points="726,-56.5 726,-75.5 849,-75.5 849,-56.5 726,-56.5"/>
<text text-anchor="middle" x="787.5" y="-63.5" font-family="Helvetica,sans-Serif" font-size="10.00" fill="#000000">GPUCommonLogger.h</text>
</a>
</g>
</g>
<!-- Node11&#45;&gt;Node17 -->
<g id="edge20" class="edge">
<title>Node11&#45;&gt;Node17</title>
<path fill="none" stroke="#191970" d="M852.7393,-112.2455C840.8448,-103.814 823.435,-91.4729 809.5915,-81.6598"/>
<polygon fill="#191970" stroke="#191970" points="811.2854,-78.5704 801.1031,-75.6427 807.2372,-84.2811 811.2854,-78.5704"/>
</g>
<!-- Node16&#45;&gt;Node7 -->
<g id="edge19" class="edge">
<title>Node16&#45;&gt;Node7</title>
<path fill="none" stroke="#191970" d="M446.9752,-56.4369C380.088,-45.1206 270.4509,-26.5718 212.0394,-16.6894"/>
<polygon fill="#191970" stroke="#191970" points="212.5362,-13.2238 202.0924,-15.0066 211.3684,-20.1257 212.5362,-13.2238"/>
</g>
<!-- Node17&#45;&gt;Node18 -->
<g id="edge21" class="edge">
<title>Node17&#45;&gt;Node18</title>
<path fill="none" stroke="#191970" d="M813.6297,-56.3733C838.5768,-47.1822 876.3592,-33.2624 904.0206,-23.0713"/>
<polygon fill="#191970" stroke="#191970" points="905.5378,-26.2424 913.7112,-19.5011 903.1178,-19.674 905.5378,-26.2424"/>
</g>
<!-- Node19 -->
<g id="node20" class="node">
<title>Node19</title>
<polygon fill="none" stroke="#bfbfbf" points="764.5,-.5 764.5,-19.5 810.5,-19.5 810.5,-.5 764.5,-.5"/>
<text text-anchor="middle" x="787.5" y="-7.5" font-family="Helvetica,sans-Serif" font-size="10.00" fill="#000000">cstdio</text>
</g>
<!-- Node17&#45;&gt;Node19 -->
<g id="edge22" class="edge">
<title>Node17&#45;&gt;Node19</title>
<path fill="none" stroke="#191970" d="M787.5,-56.2455C787.5,-48.9382 787.5,-38.6944 787.5,-29.7046"/>
<polygon fill="#191970" stroke="#191970" points="791.0001,-29.6426 787.5,-19.6427 784.0001,-29.6427 791.0001,-29.6426"/>
</g>
<!-- Node23 -->
<g id="node24" class="node">
<title>Node23</title>
<g id="a_node24"><a xlink:href="../../db/d58/SplineSpec_8h.html" target="_top" xlink:title="Definition of SplineSpec class. ">
<polygon fill="none" stroke="#000000" points="515,-280.5 515,-299.5 594,-299.5 594,-280.5 515,-280.5"/>
<text text-anchor="middle" x="554.5" y="-287.5" font-family="Helvetica,sans-Serif" font-size="10.00" fill="#000000">SplineSpec.h</text>
</a>
</g>
</g>
<!-- Node22&#45;&gt;Node23 -->
<g id="edge26" class="edge">
<title>Node22&#45;&gt;Node23</title>
<path fill="none" stroke="#191970" d="M547.0677,-336.2455C548.2421,-328.9382 549.8884,-318.6944 551.3332,-309.7046"/>
<polygon fill="#191970" stroke="#191970" points="554.8191,-310.0714 552.9503,-299.6427 547.9078,-308.9606 554.8191,-310.0714"/>
</g>
<!-- Node23&#45;&gt;Node4 -->
<g id="edge29" class="edge">
<title>Node23&#45;&gt;Node4</title>
<path fill="none" stroke="#191970" d="M546.4691,-280.1436C535.9384,-267.2287 516.8773,-243.8843 500.5,-224 458.4139,-172.9018 408.4208,-112.7573 384.1618,-83.6074"/>
<polygon fill="#191970" stroke="#191970" points="386.5843,-81.0468 377.4966,-75.6003 381.2043,-85.5252 386.5843,-81.0468"/>
</g>
<!-- Node23&#45;&gt;Node9 -->
<g id="edge27" class="edge">
<title>Node23&#45;&gt;Node9</title>
<path fill="none" stroke="#191970" d="M573.4864,-280.2455C590.6792,-271.4125 616.2238,-258.2887 635.7132,-248.2758"/>
<polygon fill="#191970" stroke="#191970" points="637.4359,-251.3257 644.7312,-243.6427 634.237,-245.0993 637.4359,-251.3257"/>
</g>
<!-- Node23&#45;&gt;Node11 -->
<g id="edge28" class="edge">
<title>Node23&#45;&gt;Node11</title>
<path fill="none" stroke="#191970" d="M561.4965,-280.4135C572.4743,-266.0524 595.1297,-239.038 620.5,-224 669.4991,-194.9563 690.7871,-209.5822 743.5,-188 779.1382,-173.4087 817.9254,-151.5019 842.2208,-136.9835"/>
<polygon fill="#191970" stroke="#191970" points="844.3387,-139.7932 851.0886,-131.6268 840.7193,-133.8015 844.3387,-139.7932"/>
</g>
<!-- Node23&#45;&gt;Node20 -->
<g id="edge30" class="edge">
<title>Node23&#45;&gt;Node20</title>
<path fill="none" stroke="#191970" d="M557.8978,-280.4862C567.4234,-253.8144 594.5315,-177.9117 607.4661,-141.695"/>
<polygon fill="#191970" stroke="#191970" points="610.9227,-142.4225 610.99,-131.8279 604.3305,-140.0681 610.9227,-142.4225"/>
</g>
<!-- Node24&#45;&gt;Node2 -->
<g id="edge32" class="edge">
<title>Node24&#45;&gt;Node2</title>
<path fill="none" stroke="#191970" d="M414.9174,-336.3733C391.4088,-327.1671 355.785,-313.2165 329.75,-303.021"/>
<polygon fill="#191970" stroke="#191970" points="330.8744,-299.7025 320.2866,-299.315 328.3218,-306.2206 330.8744,-299.7025"/>
</g>
<!-- Node24&#45;&gt;Node3 -->
<g id="edge33" class="edge">
<title>Node24&#45;&gt;Node3</title>
<path fill="none" stroke="#191970" d="M481.8536,-336.47C521.8035,-327.3958 583.325,-313.2022 636.5,-300 637.9483,-299.6404 639.4266,-299.2693 640.9191,-298.8912"/>
<polygon fill="#191970" stroke="#191970" points="641.9986,-302.2274 650.8095,-296.3436 640.2525,-295.4487 641.9986,-302.2274"/>
</g>
<!-- Node24&#45;&gt;Node4 -->
<g id="edge34" class="edge">
<title>Node24&#45;&gt;Node4</title>
<path fill="none" stroke="#191970" d="M430.8316,-336.4431C423.1968,-327.5751 412.2676,-313.7145 405.5,-300 391.9923,-272.6267 386.5,-264.5246 386.5,-234 386.5,-234 386.5,-234 386.5,-178 386.5,-145.192 379.2815,-107.584 374.252,-85.3624"/>
<polygon fill="#191970" stroke="#191970" points="377.6324,-84.4474 371.9357,-75.5144 370.8184,-86.0502 377.6324,-84.4474"/>
</g>
<!-- Node24&#45;&gt;Node9 -->
<g id="edge36" class="edge">
<title>Node24&#45;&gt;Node9</title>
<path fill="none" stroke="#191970" d="M490.15,-339.2888C524.1607,-333.0489 568.9049,-321.3641 603.5,-300 623.3581,-287.7367 640.6308,-267.0363 651.479,-252.0842"/>
<polygon fill="#191970" stroke="#191970" points="654.5164,-253.8476 657.3691,-243.644 648.776,-249.8416 654.5164,-253.8476"/>
</g>
<!-- Node24&#45;&gt;Node16 -->
<g id="edge35" class="edge">
<title>Node24&#45;&gt;Node16</title>
<path fill="none" stroke="#191970" d="M446.6383,-336.3839C459.7864,-317.6891 486.5,-274.6982 486.5,-234 486.5,-234 486.5,-234 486.5,-178 486.5,-145.192 493.7185,-107.584 498.748,-85.3624"/>
<polygon fill="#191970" stroke="#191970" points="502.1816,-86.0502 501.0643,-75.5144 495.3676,-84.4474 502.1816,-86.0502"/>
</g>
<!-- Node24&#45;&gt;Node21 -->
<g id="edge37" class="edge">
<title>Node24&#45;&gt;Node21</title>
<path fill="none" stroke="#191970" d="M418.0215,-336.3384C403.1179,-328.5675 383.9563,-316.2648 372.5,-300 337.7742,-250.699 328.7053,-177.3837 326.337,-142.2299"/>
<polygon fill="#191970" stroke="#191970" points="329.8105,-141.6523 325.7633,-131.8609 322.8212,-142.039 329.8105,-141.6523"/>
</g>
<!-- Node25 -->
<g id="node26" class="node">
<title>Node25</title>
<polygon fill="none" stroke="#bfbfbf" points="414.5,-280.5 414.5,-299.5 458.5,-299.5 458.5,-280.5 414.5,-280.5"/>
<text text-anchor="middle" x="436.5" y="-287.5" font-family="Helvetica,sans-Serif" font-size="10.00" fill="#000000">string</text>
</g>
<!-- Node24&#45;&gt;Node25 -->
<g id="edge38" class="edge">
<title>Node24&#45;&gt;Node25</title>
<path fill="none" stroke="#191970" d="M438.9774,-336.2455C438.586,-328.9382 438.0372,-318.6944 437.5556,-309.7046"/>
<polygon fill="#191970" stroke="#191970" points="441.0466,-309.4411 437.0166,-299.6427 434.0566,-309.8156 441.0466,-309.4411"/>
</g>
<!-- Node26&#45;&gt;Node4 -->
<g id="edge48" class="edge">
<title>Node26&#45;&gt;Node4</title>
<path fill="none" stroke="#191970" d="M862.2363,-336.192C850.3913,-327.5796 833.5858,-314.2331 821.5,-300 754.069,-220.5884 775.796,-156.2878 681.5,-112 583.1561,-65.811 545.2138,-91.2229 433.1034,-75.9985"/>
<polygon fill="#191970" stroke="#191970" points="433.5048,-72.5203 423.1084,-74.5609 432.5083,-79.449 433.5048,-72.5203"/>
</g>
<!-- Node26&#45;&gt;Node9 -->
<g id="edge41" class="edge">
<title>Node26&#45;&gt;Node9</title>
<path fill="none" stroke="#191970" d="M857.9471,-336.3302C840.1297,-327.0371 812.4602,-312.5877 788.5,-300 754.788,-282.2891 716.0174,-261.7993 690.7074,-248.4069"/>
<polygon fill="#191970" stroke="#191970" points="692.1805,-245.2266 681.7047,-243.6422 688.906,-251.4135 692.1805,-245.2266"/>
</g>
<!-- Node26&#45;&gt;Node11 -->
<g id="edge47" class="edge">
<title>Node26&#45;&gt;Node11</title>
<path fill="none" stroke="#191970" d="M894.7833,-336.4509C907.6858,-328.5902 923.9641,-316.1269 931.5,-300 935.2631,-291.947 933.2236,-288.7202 931.5,-280 921.0044,-226.9005 892.4437,-169.2189 876.9057,-140.4689"/>
<polygon fill="#191970" stroke="#191970" points="879.8915,-138.6348 872.0038,-131.5612 873.7587,-142.0097 879.8915,-138.6348"/>
</g>
<!-- Node27 -->
<g id="node28" class="node">
<title>Node27</title>
<g id="a_node28"><a xlink:href="../../d7/d2f/Spline2DSpec_8h.html" target="_top" xlink:title="Definition of Spline2DSpec class. ">
<polygon fill="none" stroke="#000000" points="830.5,-280.5 830.5,-299.5 922.5,-299.5 922.5,-280.5 830.5,-280.5"/>
<text text-anchor="middle" x="876.5" y="-287.5" font-family="Helvetica,sans-Serif" font-size="10.00" fill="#000000">Spline2DSpec.h</text>
</a>
</g>
</g>
<!-- Node26&#45;&gt;Node27 -->
<g id="edge42" class="edge">
<title>Node26&#45;&gt;Node27</title>
<path fill="none" stroke="#191970" d="M876.5,-336.2455C876.5,-328.9382 876.5,-318.6944 876.5,-309.7046"/>
<polygon fill="#191970" stroke="#191970" points="880.0001,-309.6426 876.5,-299.6427 873.0001,-309.6427 880.0001,-309.6426"/>
</g>
<!-- Node27&#45;&gt;Node4 -->
<g id="edge45" class="edge">
<title>Node27&#45;&gt;Node4</title>
<path fill="none" stroke="#191970" d="M874.3233,-280.1317C866.9204,-249.1587 839.5857,-153.4767 776.5,-112 714.6589,-71.3416 523.6218,-84.9025 433.0938,-75.8557"/>
<polygon fill="#191970" stroke="#191970" points="433.4226,-72.3705 423.0881,-74.7046 432.6225,-79.3246 433.4226,-72.3705"/>
</g>
<!-- Node27&#45;&gt;Node9 -->
<g id="edge43" class="edge">
<title>Node27&#45;&gt;Node9</title>
<path fill="none" stroke="#191970" d="M839.884,-280.3733C803.3377,-270.7648 747.1341,-255.9883 708.0274,-245.7067"/>
<polygon fill="#191970" stroke="#191970" points="708.7891,-242.2881 698.2278,-243.1303 707.0091,-249.058 708.7891,-242.2881"/>
</g>
<!-- Node27&#45;&gt;Node11 -->
<g id="edge44" class="edge">
<title>Node27&#45;&gt;Node11</title>
<path fill="none" stroke="#191970" d="M875.9337,-280.4862C874.3529,-253.9293 869.867,-178.5651 867.7003,-142.1655"/>
<polygon fill="#191970" stroke="#191970" points="871.1731,-141.6022 867.085,-131.8279 864.1855,-142.0182 871.1731,-141.6022"/>
</g>
<!-- Node27&#45;&gt;Node20 -->
<g id="edge46" class="edge">
<title>Node27&#45;&gt;Node20</title>
<path fill="none" stroke="#191970" d="M851.8976,-280.3381C791.6917,-256.6054 641.2719,-196.7399 633.5,-188 622.2463,-175.3446 617.6314,-156.4161 615.7529,-142.0709"/>
<polygon fill="#191970" stroke="#191970" points="619.2021,-141.3742 614.7584,-131.7562 612.2344,-142.046 619.2021,-141.3742"/>
</g>
<!-- Node36&#45;&gt;Node2 -->
<g id="edge60" class="edge">
<title>Node36&#45;&gt;Node2</title>
<path fill="none" stroke="#191970" d="M98.314,-336.4369C144.7481,-325.5569 219.7155,-307.9913 262.9109,-297.8702"/>
<polygon fill="#191970" stroke="#191970" points="263.976,-301.2156 272.9138,-295.5265 262.379,-294.4001 263.976,-301.2156"/>
</g>
<!-- Node36&#45;&gt;Node4 -->
<g id="edge59" class="edge">
<title>Node36&#45;&gt;Node4</title>
<path fill="none" stroke="#191970" d="M78.6395,-336.4901C110.8452,-320.3882 168.5,-284.5089 168.5,-234 168.5,-234 168.5,-234 168.5,-178 168.5,-146.7875 169.4115,-133.0034 192.5,-112 209.2229,-96.7873 262.1125,-84.2651 305.7564,-76.1476"/>
<polygon fill="#191970" stroke="#191970" points="306.551,-79.5606 315.7656,-74.3316 305.3014,-72.6731 306.551,-79.5606"/>
</g>
<!-- Node37 -->
<g id="node38" class="node">
<title>Node37</title>
<polygon fill="none" stroke="#bfbfbf" points="25.5,-280.5 25.5,-299.5 89.5,-299.5 89.5,-280.5 25.5,-280.5"/>
<text text-anchor="middle" x="57.5" y="-287.5" font-family="Helvetica,sans-Serif" font-size="10.00" fill="#000000">algorithm</text>
</g>
<!-- Node36&#45;&gt;Node37 -->
<g id="edge61" class="edge">
<title>Node36&#45;&gt;Node37</title>
<path fill="none" stroke="#191970" d="M57.5,-336.2455C57.5,-328.9382 57.5,-318.6944 57.5,-309.7046"/>
<polygon fill="#191970" stroke="#191970" points="61.0001,-309.6426 57.5,-299.6427 54.0001,-309.6427 61.0001,-309.6426"/>
</g>
</g>
</svg>
        <g id="navigator" transform="translate(0 0)" fill="#404254">
                <rect fill="#f2f5e9" fill-opacity="0.5" stroke="#606060" stroke-width=".5" x="0" y="0" width="60" height="60"/>
                <use id="zoomplus" xlink:href="#zoomPlus" x="17" y="9" onmousedown="handleZoom(evt,'in')"/>
                <use id="zoomminus" xlink:href="#zoomMin" x="42" y="9" onmousedown="handleZoom(evt,'out')"/>
                <use id="reset" xlink:href="#resetDef" x="30" y="36" onmousedown="handleReset()"/>
                <g id="arrowUp" xlink:href="#dirArrow" transform="translate(30 24)" onmousedown="handlePan(0,-1)">
                  <use xlink:href="#rim" fill="#404040">
                        <set attributeName="fill" to="#808080" begin="arrowUp.mouseover" end="arrowUp.mouseout"/>
                  </use>
                  <path fill="none" stroke="white" stroke-width="1.5" d="M0,-3.0v7 M-2.5,-0.5L0,-3.0L2.5,-0.5"/>
                </g>
                <g id="arrowRight" xlink:href="#dirArrow" transform="rotate(90) translate(36 -43)" onmousedown="handlePan(1,0)">
                  <use xlink:href="#rim" fill="#404040">
                        <set attributeName="fill" to="#808080" begin="arrowRight.mouseover" end="arrowRight.mouseout"/>
                  </use>
                  <path fill="none" stroke="white" stroke-width="1.5" d="M0,-3.0v7 M-2.5,-0.5L0,-3.0L2.5,-0.5"/>
                </g>
                <g id="arrowDown" xlink:href="#dirArrow" transform="rotate(180) translate(-30 -48)" onmousedown="handlePan(0,1)">
                  <use xlink:href="#rim" fill="#404040">
                        <set attributeName="fill" to="#808080" begin="arrowDown.mouseover" end="arrowDown.mouseout"/>
                  </use>
                  <path fill="none" stroke="white" stroke-width="1.5" d="M0,-3.0v7 M-2.5,-0.5L0,-3.0L2.5,-0.5"/>
                </g>
                <g id="arrowLeft" xlink:href="#dirArrow" transform="rotate(270) translate(-36 17)" onmousedown="handlePan(-1,0)">
                  <use xlink:href="#rim" fill="#404040">
                        <set attributeName="fill" to="#808080" begin="arrowLeft.mouseover" end="arrowLeft.mouseout"/>
                  </use>
                  <path fill="none" stroke="white" stroke-width="1.5" d="M0,-3.0v7 M-2.5,-0.5L0,-3.0L2.5,-0.5"/>
                </g>
        </g>
        <svg viewBox="0 0 15 15" width="100%" height="30px" preserveAspectRatio="xMaxYMin meet">
         <g id="arrow_out" transform="scale(0.3 0.3)">
          <a xlink:href="SplineHelper_8cxx__incl_org.svg" target="_base">
           <rect id="button" ry="5" rx="5" y="6" x="6" height="38" width="38"
                fill="#f2f5e9" fill-opacity="0.5" stroke="#606060" stroke-width="1.0"/>
           <path id="arrow"
             d="M 11.500037,31.436501 C 11.940474,20.09759 22.043105,11.32322 32.158766,21.979434 L 37.068811,17.246167 C 37.068811,17.246167 37.088388,32 37.088388,32 L 22.160133,31.978069 C 22.160133,31.978069 26.997745,27.140456 26.997745,27.140456 C 18.528582,18.264221 13.291696,25.230495 11.500037,31.436501 z"
             style="fill:#404040;"/>
          </a>
         </g>
        </svg>
</svg>
