<?xml version="1.0" encoding="UTF-8" standalone="no"?>
<!DOCTYPE svg PUBLIC "-//W3C//DTD SVG 1.1//EN"
 "http://www.w3.org/Graphics/SVG/1.1/DTD/svg11.dtd">
<!-- Generated by graphviz version 2.40.1 (20161225.0304)
 -->
<!-- Title: o2::framework::FileAndFolder Pages: 1 -->
<svg width="167pt" height="171pt"
 viewBox="0.00 0.00 167.00 171.00" xmlns="http://www.w3.org/2000/svg" xmlns:xlink="http://www.w3.org/1999/xlink">
<g id="graph0" class="graph" transform="scale(1 1) rotate(0) translate(4 167)">
<title>o2::framework::FileAndFolder</title>
<!-- Node1 -->
<g id="node1" class="node">
<title>Node1</title>
<polygon fill="#bfbfbf" stroke="#000000" points="0,-.5 0,-57.5 159,-57.5 159,-.5 0,-.5"/>
<text text-anchor="middle" x="79.5" y="-45.5" font-family="Helvetica,sans-Serif" font-size="10.00" fill="#000000">o2::framework::FileAndFolder</text>
<polyline fill="none" stroke="#000000" points="0,-38.5 159,-38.5 "/>
<text text-anchor="middle" x="79.5" y="-26.5" font-family="Helvetica,sans-Serif" font-size="10.00" fill="#000000"> </text>
<polyline fill="none" stroke="#000000" points="0,-19.5 159,-19.5 "/>
<text text-anchor="middle" x="79.5" y="-7.5" font-family="Helvetica,sans-Serif" font-size="10.00" fill="#000000"> </text>
</g>
<!-- Node2 -->
<g id="node2" class="node">
<title>Node2</title>
<polygon fill="none" stroke="#bfbfbf" points="19,-105.5 19,-162.5 48,-162.5 48,-105.5 19,-105.5"/>
<text text-anchor="middle" x="33.5" y="-150.5" font-family="Helvetica,sans-Serif" font-size="10.00" fill="#000000">int</text>
<polyline fill="none" stroke="#bfbfbf" points="19,-143.5 48,-143.5 "/>
<text text-anchor="middle" x="33.5" y="-131.5" font-family="Helvetica,sans-Serif" font-size="10.00" fill="#000000"> </text>
<polyline fill="none" stroke="#bfbfbf" points="19,-124.5 48,-124.5 "/>
<text text-anchor="middle" x="33.5" y="-112.5" font-family="Helvetica,sans-Serif" font-size="10.00" fill="#000000"> </text>
</g>
<!-- Node2&#45;&gt;Node1 -->
<g id="edge1" class="edge">
<title>Node2&#45;&gt;Node1</title>
<path fill="none" stroke="#404040" d="M29.8799,-105.421C29.7167,-95.7654 30.7436,-85.1267 34.5,-76 35.6851,-73.1207 37.1366,-70.3165 38.7835,-67.6048"/>
<polygon fill="none" stroke="#404040" points="38.9448,-67.3805 39.2021,-60.174 45.9533,-57.6398 45.696,-64.8463 38.9448,-67.3805"/>
<text text-anchor="middle" x="69.5" y="-79" font-family="Helvetica,sans-Serif" font-size="10.00" fill="#000000"> +folderName</text>
</g>
<!-- Node3 -->
<g id="node3" class="node">
<title>Node3</title>
<polygon fill="none" stroke="#bfbfbf" points="107,-105.5 107,-162.5 146,-162.5 146,-105.5 107,-105.5"/>
<text text-anchor="middle" x="126.5" y="-150.5" font-family="Helvetica,sans-Serif" font-size="10.00" fill="#000000">TFile</text>
<polyline fill="none" stroke="#bfbfbf" points="107,-143.5 146,-143.5 "/>
<text text-anchor="middle" x="126.5" y="-131.5" font-family="Helvetica,sans-Serif" font-size="10.00" fill="#000000"> </text>
<polyline fill="none" stroke="#bfbfbf" points="107,-124.5 146,-124.5 "/>
<text text-anchor="middle" x="126.5" y="-112.5" font-family="Helvetica,sans-Serif" font-size="10.00" fill="#000000"> </text>
</g>
<!-- Node3&#45;&gt;Node1 -->
<g id="edge2" class="edge">
<title>Node3&#45;&gt;Node1</title>
<path fill="none" stroke="#404040" d="M116.4642,-105.3859C112.9306,-95.9262 108.7694,-85.416 104.5,-76 103.3836,-73.5379 102.196,-71.0249 100.968,-68.5047"/>
<polygon fill="none" stroke="#404040" points="100.8401,-68.252 94.5616,-64.7051 95.4209,-57.5453 101.6994,-61.0923 100.8401,-68.252"/>
<text text-anchor="middle" x="122" y="-79" font-family="Helvetica,sans-Serif" font-size="10.00" fill="#000000"> +file</text>
</g>
</g>
</svg>
