<?xml version="1.0" encoding="UTF-8" standalone="no"?>
<!DOCTYPE svg PUBLIC "-//W3C//DTD SVG 1.1//EN"
 "http://www.w3.org/Graphics/SVG/1.1/DTD/svg11.dtd">
<!-- Generated by graphviz version 2.40.1 (20161225.0304)
 -->
<!-- Title: /home/travis/build/AliceO2Group/AliceO2/Detectors/TPC/base/src/PadInfo.cxx Pages: 1 -->
<svg width="1871pt" height="408pt"
 viewBox="0.00 0.00 1870.50 408.00" xmlns="http://www.w3.org/2000/svg" xmlns:xlink="http://www.w3.org/1999/xlink">
<g id="graph0" class="graph" transform="scale(1 1) rotate(0) translate(4 404)">
<title>/home/travis/build/AliceO2Group/AliceO2/Detectors/TPC/base/src/PadInfo.cxx</title>
<!-- Node0 -->
<g id="node1" class="node">
<title>Node0</title>
<polygon fill="#bfbfbf" stroke="#000000" points="1159,-347.5 1159,-399.5 1291,-399.5 1291,-347.5 1159,-347.5"/>
<text text-anchor="start" x="1167" y="-387.5" font-family="Helvetica,sans-Serif" font-size="10.00" fill="#000000">/home/travis/build</text>
<text text-anchor="start" x="1167" y="-376.5" font-family="Helvetica,sans-Serif" font-size="10.00" fill="#000000">/AliceO2Group/AliceO2</text>
<text text-anchor="start" x="1167" y="-365.5" font-family="Helvetica,sans-Serif" font-size="10.00" fill="#000000">/Detectors/TPC/base/src</text>
<text text-anchor="middle" x="1225" y="-354.5" font-family="Helvetica,sans-Serif" font-size="10.00" fill="#000000">/PadInfo.cxx</text>
</g>
<!-- Node1 -->
<g id="node2" class="node">
<title>Node1</title>
<g id="a_node2"><a xlink:href="../../d6/d84/PadInfo_8h.html" target="_top" xlink:title="TPCBase/PadInfo.h">
<polygon fill="none" stroke="#000000" points="1171.5,-291.5 1171.5,-310.5 1278.5,-310.5 1278.5,-291.5 1171.5,-291.5"/>
<text text-anchor="middle" x="1225" y="-298.5" font-family="Helvetica,sans-Serif" font-size="10.00" fill="#000000">TPCBase/PadInfo.h</text>
</a>
</g>
</g>
<!-- Node0&#45;&gt;Node1 -->
<g id="edge1" class="edge">
<title>Node0&#45;&gt;Node1</title>
<path fill="none" stroke="#191970" d="M1225,-347.3258C1225,-338.5142 1225,-328.8397 1225,-320.621"/>
<polygon fill="#191970" stroke="#191970" points="1228.5001,-320.534 1225,-310.534 1221.5001,-320.534 1228.5001,-320.534"/>
</g>
<!-- Node2 -->
<g id="node3" class="node">
<title>Node2</title>
<g id="a_node3"><a xlink:href="../../d1/d73/Defs_8h.html" target="_top" xlink:title="DataFormatsTPC/Defs.h">
<polygon fill="none" stroke="#000000" points="826.5,-235.5 826.5,-254.5 959.5,-254.5 959.5,-235.5 826.5,-235.5"/>
<text text-anchor="middle" x="893" y="-242.5" font-family="Helvetica,sans-Serif" font-size="10.00" fill="#000000">DataFormatsTPC/Defs.h</text>
</a>
</g>
</g>
<!-- Node1&#45;&gt;Node2 -->
<g id="edge2" class="edge">
<title>Node1&#45;&gt;Node2</title>
<path fill="none" stroke="#191970" d="M1171.2895,-291.9404C1113.5733,-282.2051 1021.7636,-266.7192 959.5198,-256.2202"/>
<polygon fill="#191970" stroke="#191970" points="959.8532,-252.7271 949.4103,-254.515 958.6889,-259.6296 959.8532,-252.7271"/>
</g>
<!-- Node20 -->
<g id="node21" class="node">
<title>Node20</title>
<g id="a_node21"><a xlink:href="../../de/d41/PadPos_8h.html" target="_top" xlink:title="TPCBase/PadPos.h">
<polygon fill="none" stroke="#000000" points="1172,-235.5 1172,-254.5 1278,-254.5 1278,-235.5 1172,-235.5"/>
<text text-anchor="middle" x="1225" y="-242.5" font-family="Helvetica,sans-Serif" font-size="10.00" fill="#000000">TPCBase/PadPos.h</text>
</a>
</g>
</g>
<!-- Node1&#45;&gt;Node20 -->
<g id="edge22" class="edge">
<title>Node1&#45;&gt;Node20</title>
<path fill="none" stroke="#191970" d="M1225,-291.2455C1225,-283.9382 1225,-273.6944 1225,-264.7046"/>
<polygon fill="#191970" stroke="#191970" points="1228.5001,-264.6426 1225,-254.6427 1221.5001,-264.6427 1228.5001,-264.6426"/>
</g>
<!-- Node21 -->
<g id="node22" class="node">
<title>Node21</title>
<g id="a_node22"><a xlink:href="../../d1/d1f/FECInfo_8h.html" target="_top" xlink:title="TPCBase/FECInfo.h">
<polygon fill="none" stroke="#000000" points="1446,-179.5 1446,-198.5 1554,-198.5 1554,-179.5 1446,-179.5"/>
<text text-anchor="middle" x="1500" y="-186.5" font-family="Helvetica,sans-Serif" font-size="10.00" fill="#000000">TPCBase/FECInfo.h</text>
</a>
</g>
</g>
<!-- Node1&#45;&gt;Node21 -->
<g id="edge23" class="edge">
<title>Node1&#45;&gt;Node21</title>
<path fill="none" stroke="#191970" d="M1248.4463,-291.4509C1297.4588,-271.4895 1410.8629,-225.3031 1467.1234,-202.3897"/>
<polygon fill="#191970" stroke="#191970" points="1468.6718,-205.5383 1476.613,-198.5249 1466.0314,-199.0554 1468.6718,-205.5383"/>
</g>
<!-- Node3 -->
<g id="node4" class="node">
<title>Node3</title>
<polygon fill="none" stroke="#bfbfbf" points="773.5,-179.5 773.5,-198.5 820.5,-198.5 820.5,-179.5 773.5,-179.5"/>
<text text-anchor="middle" x="797" y="-186.5" font-family="Helvetica,sans-Serif" font-size="10.00" fill="#000000">cmath</text>
</g>
<!-- Node2&#45;&gt;Node3 -->
<g id="edge3" class="edge">
<title>Node2&#45;&gt;Node3</title>
<path fill="none" stroke="#191970" d="M876.2781,-235.2455C861.4111,-226.5731 839.4534,-213.7645 822.4142,-203.825"/>
<polygon fill="#191970" stroke="#191970" points="823.9317,-200.6582 813.5303,-198.6427 820.4045,-206.7047 823.9317,-200.6582"/>
</g>
<!-- Node4 -->
<g id="node5" class="node">
<title>Node4</title>
<g id="a_node5"><a xlink:href="../../d1/da8/GPUROOTCartesianFwd_8h.html" target="_top" xlink:title="GPUROOTCartesianFwd.h">
<polygon fill="none" stroke="#000000" points="37,-118 37,-137 177,-137 177,-118 37,-118"/>
<text text-anchor="middle" x="107" y="-125" font-family="Helvetica,sans-Serif" font-size="10.00" fill="#000000">GPUROOTCartesianFwd.h</text>
</a>
</g>
</g>
<!-- Node2&#45;&gt;Node4 -->
<g id="edge4" class="edge">
<title>Node2&#45;&gt;Node4</title>
<path fill="none" stroke="#191970" d="M886.999,-235.1707C877.088,-219.9608 855.712,-191.2046 829,-179 699.8396,-119.9871 331.992,-159.9176 191,-143 181.9172,-141.9102 172.3342,-140.4455 163.0195,-138.85"/>
<polygon fill="#191970" stroke="#191970" points="163.512,-135.3828 153.0538,-137.0789 162.2871,-142.2748 163.512,-135.3828"/>
</g>
<!-- Node8 -->
<g id="node9" class="node">
<title>Node8</title>
<g id="a_node9"><a xlink:href="../../dc/d73/Cartesian_8h.html" target="_top" xlink:title="MathUtils/Cartesian.h">
<polygon fill="none" stroke="#000000" points="877,-179.5 877,-198.5 999,-198.5 999,-179.5 877,-179.5"/>
<text text-anchor="middle" x="938" y="-186.5" font-family="Helvetica,sans-Serif" font-size="10.00" fill="#000000">MathUtils/Cartesian.h</text>
</a>
</g>
</g>
<!-- Node2&#45;&gt;Node8 -->
<g id="edge8" class="edge">
<title>Node2&#45;&gt;Node8</title>
<path fill="none" stroke="#191970" d="M900.8384,-235.2455C907.162,-227.3761 916.2224,-216.101 923.8136,-206.6542"/>
<polygon fill="#191970" stroke="#191970" points="926.7158,-208.6302 930.2514,-198.6427 921.2592,-204.2454 926.7158,-208.6302"/>
</g>
<!-- Node5 -->
<g id="node6" class="node">
<title>Node5</title>
<g id="a_node6"><a xlink:href="../../df/d21/GPUCommonDef_8h.html" target="_top" xlink:title="GPUCommonDef.h">
<polygon fill="none" stroke="#000000" points="97.5,-56.5 97.5,-75.5 204.5,-75.5 204.5,-56.5 97.5,-56.5"/>
<text text-anchor="middle" x="151" y="-63.5" font-family="Helvetica,sans-Serif" font-size="10.00" fill="#000000">GPUCommonDef.h</text>
</a>
</g>
</g>
<!-- Node4&#45;&gt;Node5 -->
<g id="edge5" class="edge">
<title>Node4&#45;&gt;Node5</title>
<path fill="none" stroke="#191970" d="M113.875,-117.8906C120.3593,-108.8273 130.2414,-95.0149 138.1801,-83.9188"/>
<polygon fill="#191970" stroke="#191970" points="141.0559,-85.9143 144.0281,-75.7449 135.3629,-81.8412 141.0559,-85.9143"/>
</g>
<!-- Node6 -->
<g id="node7" class="node">
<title>Node6</title>
<g id="a_node7"><a xlink:href="../../d5/d93/GPUCommonDefSettings_8h.html" target="_top" xlink:title="GPUCommonDefSettings.h">
<polygon fill="none" stroke="#000000" points="0,-.5 0,-19.5 148,-19.5 148,-.5 0,-.5"/>
<text text-anchor="middle" x="74" y="-7.5" font-family="Helvetica,sans-Serif" font-size="10.00" fill="#000000">GPUCommonDefSettings.h</text>
</a>
</g>
</g>
<!-- Node5&#45;&gt;Node6 -->
<g id="edge6" class="edge">
<title>Node5&#45;&gt;Node6</title>
<path fill="none" stroke="#191970" d="M137.5876,-56.2455C125.9943,-47.814 109.0252,-35.4729 95.5322,-25.6598"/>
<polygon fill="#191970" stroke="#191970" points="97.4047,-22.6938 87.2587,-19.6427 93.2874,-28.355 97.4047,-22.6938"/>
</g>
<!-- Node7 -->
<g id="node8" class="node">
<title>Node7</title>
<g id="a_node8"><a xlink:href="../../da/d5a/GPUCommonDefAPI_8h.html" target="_top" xlink:title="GPUCommonDefAPI.h">
<polygon fill="none" stroke="#000000" points="166,-.5 166,-19.5 290,-19.5 290,-.5 166,-.5"/>
<text text-anchor="middle" x="228" y="-7.5" font-family="Helvetica,sans-Serif" font-size="10.00" fill="#000000">GPUCommonDefAPI.h</text>
</a>
</g>
</g>
<!-- Node5&#45;&gt;Node7 -->
<g id="edge7" class="edge">
<title>Node5&#45;&gt;Node7</title>
<path fill="none" stroke="#191970" d="M164.4124,-56.2455C176.0057,-47.814 192.9748,-35.4729 206.4678,-25.6598"/>
<polygon fill="#191970" stroke="#191970" points="208.7126,-28.355 214.7413,-19.6427 204.5953,-22.6938 208.7126,-28.355"/>
</g>
<!-- Node8&#45;&gt;Node4 -->
<g id="edge21" class="edge">
<title>Node8&#45;&gt;Node4</title>
<path fill="none" stroke="#191970" d="M876.6499,-180.4184C872.0356,-179.896 867.4469,-179.4149 863,-179 565.1986,-151.2136 488.0152,-178.2101 191,-143 181.8075,-141.9103 172.1036,-140.4304 162.6843,-138.8154"/>
<polygon fill="#191970" stroke="#191970" points="163.0715,-135.3294 152.6127,-137.0221 161.8443,-142.221 163.0715,-135.3294"/>
</g>
<!-- Node8&#45;&gt;Node5 -->
<g id="edge9" class="edge">
<title>Node8&#45;&gt;Node5</title>
<path fill="none" stroke="#191970" d="M876.5709,-180.984C869.9712,-180.2518 863.3505,-179.572 857,-179 716.674,-166.3615 351.8061,-202.3019 224,-143 209.7446,-136.3855 182.0631,-104.3827 165.1853,-83.7727"/>
<polygon fill="#191970" stroke="#191970" points="167.6974,-81.3133 158.6841,-75.7446 162.2575,-85.7186 167.6974,-81.3133"/>
</g>
<!-- Node9 -->
<g id="node10" class="node">
<title>Node9</title>
<g id="a_node10"><a xlink:href="../../d2/d45/GPUCommonRtypes_8h.html" target="_top" xlink:title="GPUCommonRtypes.h">
<polygon fill="none" stroke="#000000" points="233.5,-118 233.5,-137 358.5,-137 358.5,-118 233.5,-118"/>
<text text-anchor="middle" x="296" y="-125" font-family="Helvetica,sans-Serif" font-size="10.00" fill="#000000">GPUCommonRtypes.h</text>
</a>
</g>
</g>
<!-- Node8&#45;&gt;Node9 -->
<g id="edge10" class="edge">
<title>Node8&#45;&gt;Node9</title>
<path fill="none" stroke="#191970" d="M876.6405,-180.5141C872.0284,-179.9696 867.4428,-179.4573 863,-179 643.5784,-156.4134 586.3509,-174.2873 368,-143 360.6075,-141.9407 352.8404,-140.558 345.2544,-139.0545"/>
<polygon fill="#191970" stroke="#191970" points="345.9344,-135.6212 335.433,-137.0256 344.5181,-142.4764 345.9344,-135.6212"/>
</g>
<!-- Node11 -->
<g id="node12" class="node">
<title>Node11</title>
<polygon fill="none" stroke="#bfbfbf" points="377,-112.5 377,-142.5 541,-142.5 541,-112.5 377,-112.5"/>
<text text-anchor="start" x="385" y="-130.5" font-family="Helvetica,sans-Serif" font-size="10.00" fill="#000000">Math/GenVector/Displacement</text>
<text text-anchor="middle" x="459" y="-119.5" font-family="Helvetica,sans-Serif" font-size="10.00" fill="#000000">Vector3D.h</text>
</g>
<!-- Node8&#45;&gt;Node11 -->
<g id="edge12" class="edge">
<title>Node8&#45;&gt;Node11</title>
<path fill="none" stroke="#191970" d="M876.6167,-180.7239C872.0101,-180.1309 867.4322,-179.5503 863,-179 727.2958,-162.1504 690.3433,-162.7258 551.4852,-143.1686"/>
<polygon fill="#191970" stroke="#191970" points="551.701,-139.6643 541.3086,-141.7252 550.7179,-146.5949 551.701,-139.6643"/>
</g>
<!-- Node12 -->
<g id="node13" class="node">
<title>Node12</title>
<polygon fill="none" stroke="#bfbfbf" points="559.5,-118 559.5,-137 748.5,-137 748.5,-118 559.5,-118"/>
<text text-anchor="middle" x="654" y="-125" font-family="Helvetica,sans-Serif" font-size="10.00" fill="#000000">Math/GenVector/PositionVector3D.h</text>
</g>
<!-- Node8&#45;&gt;Node12 -->
<g id="edge13" class="edge">
<title>Node8&#45;&gt;Node12</title>
<path fill="none" stroke="#191970" d="M893.9366,-179.4581C843.8787,-168.6181 762.1618,-150.9224 708.2318,-139.2439"/>
<polygon fill="#191970" stroke="#191970" points="708.681,-135.7601 698.1668,-137.0643 707.1995,-142.6015 708.681,-135.7601"/>
</g>
<!-- Node13 -->
<g id="node14" class="node">
<title>Node13</title>
<polygon fill="none" stroke="#bfbfbf" points="767,-118 767,-137 927,-137 927,-118 767,-118"/>
<text text-anchor="middle" x="847" y="-125" font-family="Helvetica,sans-Serif" font-size="10.00" fill="#000000">Math/GenVector/Rotation3D.h</text>
</g>
<!-- Node8&#45;&gt;Node13 -->
<g id="edge14" class="edge">
<title>Node8&#45;&gt;Node13</title>
<path fill="none" stroke="#191970" d="M923.7813,-179.3906C909.3566,-169.6421 886.8024,-154.3994 869.864,-142.9521"/>
<polygon fill="#191970" stroke="#191970" points="871.3641,-139.7415 861.1189,-137.0419 867.4444,-145.5412 871.3641,-139.7415"/>
</g>
<!-- Node14 -->
<g id="node15" class="node">
<title>Node14</title>
<polygon fill="none" stroke="#bfbfbf" points="945,-118 945,-137 1113,-137 1113,-118 945,-118"/>
<text text-anchor="middle" x="1029" y="-125" font-family="Helvetica,sans-Serif" font-size="10.00" fill="#000000">Math/GenVector/Transform3D.h</text>
</g>
<!-- Node8&#45;&gt;Node14 -->
<g id="edge15" class="edge">
<title>Node8&#45;&gt;Node14</title>
<path fill="none" stroke="#191970" d="M952.2188,-179.3906C966.6434,-169.6421 989.1976,-154.3994 1006.136,-142.9521"/>
<polygon fill="#191970" stroke="#191970" points="1008.5556,-145.5412 1014.8811,-137.0419 1004.6359,-139.7415 1008.5556,-145.5412"/>
</g>
<!-- Node15 -->
<g id="node16" class="node">
<title>Node15</title>
<polygon fill="none" stroke="#bfbfbf" points="1131.5,-118 1131.5,-137 1304.5,-137 1304.5,-118 1131.5,-118"/>
<text text-anchor="middle" x="1218" y="-125" font-family="Helvetica,sans-Serif" font-size="10.00" fill="#000000">Math/GenVector/Translation3D.h</text>
</g>
<!-- Node8&#45;&gt;Node15 -->
<g id="edge16" class="edge">
<title>Node8&#45;&gt;Node15</title>
<path fill="none" stroke="#191970" d="M981.4428,-179.4581C1030.7956,-168.6181 1111.3616,-150.9224 1164.532,-139.2439"/>
<polygon fill="#191970" stroke="#191970" points="1165.439,-142.6282 1174.4553,-137.0643 1163.9372,-135.7911 1165.439,-142.6282"/>
</g>
<!-- Node16 -->
<g id="node17" class="node">
<title>Node16</title>
<polygon fill="none" stroke="#bfbfbf" points="1323,-112.5 1323,-142.5 1487,-142.5 1487,-112.5 1323,-112.5"/>
<text text-anchor="start" x="1331" y="-130.5" font-family="Helvetica,sans-Serif" font-size="10.00" fill="#000000">Math/GenVector/Displacement</text>
<text text-anchor="middle" x="1405" y="-119.5" font-family="Helvetica,sans-Serif" font-size="10.00" fill="#000000">Vector2D.h</text>
</g>
<!-- Node8&#45;&gt;Node16 -->
<g id="edge17" class="edge">
<title>Node8&#45;&gt;Node16</title>
<path fill="none" stroke="#191970" d="M999.1683,-182.3496C1071.39,-174.3064 1195.3835,-159.9001 1312.5446,-143.0236"/>
<polygon fill="#191970" stroke="#191970" points="1313.3754,-146.4399 1322.77,-141.5418 1312.3714,-139.5122 1313.3754,-146.4399"/>
</g>
<!-- Node17 -->
<g id="node18" class="node">
<title>Node17</title>
<polygon fill="none" stroke="#bfbfbf" points="1505.5,-118 1505.5,-137 1694.5,-137 1694.5,-118 1505.5,-118"/>
<text text-anchor="middle" x="1600" y="-125" font-family="Helvetica,sans-Serif" font-size="10.00" fill="#000000">Math/GenVector/PositionVector2D.h</text>
</g>
<!-- Node8&#45;&gt;Node17 -->
<g id="edge18" class="edge">
<title>Node8&#45;&gt;Node17</title>
<path fill="none" stroke="#191970" d="M999.2307,-185.2733C1102.0692,-178.7184 1315.9148,-163.8199 1496,-143 1507.2205,-141.7028 1519.0926,-140.1271 1530.6458,-138.4835"/>
<polygon fill="#191970" stroke="#191970" points="1531.2978,-141.9256 1540.6921,-137.0268 1530.2933,-134.9981 1531.2978,-141.9256"/>
</g>
<!-- Node18 -->
<g id="node19" class="node">
<title>Node18</title>
<polygon fill="none" stroke="#bfbfbf" points="1713,-118 1713,-137 1795,-137 1795,-118 1713,-118"/>
<text text-anchor="middle" x="1754" y="-125" font-family="Helvetica,sans-Serif" font-size="10.00" fill="#000000">TGeoMatrix.h</text>
</g>
<!-- Node8&#45;&gt;Node18 -->
<g id="edge19" class="edge">
<title>Node8&#45;&gt;Node18</title>
<path fill="none" stroke="#191970" d="M999.0832,-187.2283C1155.7665,-182.3799 1569.0837,-167.5915 1704,-143 1708.4452,-142.1898 1713.0498,-141.1096 1717.5841,-139.8949"/>
<polygon fill="#191970" stroke="#191970" points="1718.6803,-143.2213 1727.3091,-137.0735 1716.7298,-136.4985 1718.6803,-143.2213"/>
</g>
<!-- Node19 -->
<g id="node20" class="node">
<title>Node19</title>
<polygon fill="none" stroke="#bfbfbf" points="1813.5,-118 1813.5,-137 1862.5,-137 1862.5,-118 1813.5,-118"/>
<text text-anchor="middle" x="1838" y="-125" font-family="Helvetica,sans-Serif" font-size="10.00" fill="#000000">iosfwd</text>
</g>
<!-- Node8&#45;&gt;Node19 -->
<g id="edge20" class="edge">
<title>Node8&#45;&gt;Node19</title>
<path fill="none" stroke="#191970" d="M999.0926,-188.7081C1170.1097,-187.4231 1651.0988,-180.4825 1804,-143 1806.3391,-142.4266 1808.7149,-141.6935 1811.0674,-140.8591"/>
<polygon fill="#191970" stroke="#191970" points="1812.5308,-144.0419 1820.4542,-137.0085 1809.874,-137.5657 1812.5308,-144.0419"/>
</g>
<!-- Node10 -->
<g id="node11" class="node">
<title>Node10</title>
<polygon fill="none" stroke="#bfbfbf" points="266.5,-56.5 266.5,-75.5 325.5,-75.5 325.5,-56.5 266.5,-56.5"/>
<text text-anchor="middle" x="296" y="-63.5" font-family="Helvetica,sans-Serif" font-size="10.00" fill="#000000">Rtypes.h</text>
</g>
<!-- Node9&#45;&gt;Node10 -->
<g id="edge11" class="edge">
<title>Node9&#45;&gt;Node10</title>
<path fill="none" stroke="#191970" d="M296,-117.8906C296,-109.3657 296,-96.6392 296,-85.9235"/>
<polygon fill="#191970" stroke="#191970" points="299.5001,-85.7448 296,-75.7449 292.5001,-85.7449 299.5001,-85.7448"/>
</g>
<!-- Node21&#45;&gt;Node19 -->
<g id="edge24" class="edge">
<title>Node21&#45;&gt;Node19</title>
<path fill="none" stroke="#191970" d="M1554.2522,-185.3502C1615.8386,-180.1662 1718.8093,-168.3251 1804,-143 1805.9121,-142.4316 1807.8554,-141.7761 1809.7949,-141.0626"/>
<polygon fill="#191970" stroke="#191970" points="1811.3849,-144.193 1819.2973,-137.1471 1808.718,-137.7209 1811.3849,-144.193"/>
</g>
</g>
</svg>
