<?xml version="1.0" encoding="UTF-8" standalone="no"?>
<!DOCTYPE svg PUBLIC "-//W3C//DTD SVG 1.1//EN"
 "http://www.w3.org/Graphics/SVG/1.1/DTD/svg11.dtd">
<!-- Generated by graphviz version 2.40.1 (20161225.0304)
 -->
<!-- Title: o2::header::RAWDataHeaderV2 Pages: 1 -->
<svg width="683pt" height="369pt"
 viewBox="0.00 0.00 683.00 369.00" xmlns="http://www.w3.org/2000/svg" xmlns:xlink="http://www.w3.org/1999/xlink">
<g id="graph0" class="graph" transform="scale(1 1) rotate(0) translate(4 365)">
<title>o2::header::RAWDataHeaderV2</title>
<!-- Node1 -->
<g id="node1" class="node">
<title>Node1</title>
<polygon fill="#bfbfbf" stroke="#000000" points="222,-.5 222,-145.5 389,-145.5 389,-.5 222,-.5"/>
<text text-anchor="middle" x="305.5" y="-133.5" font-family="Helvetica,sans-Serif" font-size="10.00" fill="#000000">o2::header::RAWDataHeaderV2</text>
<polyline fill="none" stroke="#000000" points="222,-126.5 389,-126.5 "/>
<text text-anchor="start" x="230" y="-114.5" font-family="Helvetica,sans-Serif" font-size="10.00" fill="#000000">+ zero0</text>
<text text-anchor="start" x="230" y="-103.5" font-family="Helvetica,sans-Serif" font-size="10.00" fill="#000000">+ word1</text>
<text text-anchor="start" x="230" y="-92.5" font-family="Helvetica,sans-Serif" font-size="10.00" fill="#000000">+ word2</text>
<text text-anchor="start" x="230" y="-81.5" font-family="Helvetica,sans-Serif" font-size="10.00" fill="#000000">+ zero2</text>
<text text-anchor="start" x="230" y="-70.5" font-family="Helvetica,sans-Serif" font-size="10.00" fill="#000000">+ word3</text>
<text text-anchor="start" x="230" y="-59.5" font-family="Helvetica,sans-Serif" font-size="10.00" fill="#000000">+ pageCnt</text>
<text text-anchor="start" x="230" y="-48.5" font-family="Helvetica,sans-Serif" font-size="10.00" fill="#000000">+ stop</text>
<text text-anchor="start" x="230" y="-37.5" font-family="Helvetica,sans-Serif" font-size="10.00" fill="#000000">+ detectorField</text>
<text text-anchor="start" x="230" y="-26.5" font-family="Helvetica,sans-Serif" font-size="10.00" fill="#000000">+ zero3</text>
<polyline fill="none" stroke="#000000" points="222,-19.5 389,-19.5 "/>
<text text-anchor="middle" x="305.5" y="-7.5" font-family="Helvetica,sans-Serif" font-size="10.00" fill="#000000"> </text>
</g>
<!-- Node2 -->
<g id="node2" class="node">
<title>Node2</title>
<polygon fill="none" stroke="#bfbfbf" points="0,-303.5 0,-360.5 113,-360.5 113,-303.5 0,-303.5"/>
<text text-anchor="middle" x="56.5" y="-348.5" font-family="Helvetica,sans-Serif" font-size="10.00" fill="#000000">anonymous:+@190</text>
<polyline fill="none" stroke="#bfbfbf" points="0,-341.5 113,-341.5 "/>
<text text-anchor="middle" x="56.5" y="-329.5" font-family="Helvetica,sans-Serif" font-size="10.00" fill="#000000"> </text>
<polyline fill="none" stroke="#bfbfbf" points="0,-322.5 113,-322.5 "/>
<text text-anchor="middle" x="56.5" y="-310.5" font-family="Helvetica,sans-Serif" font-size="10.00" fill="#000000"> </text>
</g>
<!-- Node2&#45;&gt;Node1 -->
<g id="edge1" class="edge">
<title>Node2&#45;&gt;Node1</title>
<path fill="none" stroke="#404040" d="M57.5291,-303.3165C60.2905,-266.847 70.1154,-203.8438 104.5,-164 131.8864,-132.2655 172.5867,-111.0338 210.2145,-97.1244"/>
<polygon fill="none" stroke="#404040" points="210.4609,-97.0374 214.7854,-91.2668 221.7753,-93.0392 217.4508,-98.8098 210.4609,-97.0374"/>
<text text-anchor="middle" x="124.5" y="-222" font-family="Helvetica,sans-Serif" font-size="10.00" fill="#000000"> +@190</text>
</g>
<!-- Node3 -->
<g id="node3" class="node">
<title>Node3</title>
<g id="a_node3"><a xlink:href="../../d6/d30/classuint64__t.html" target="_top" xlink:title="{uint64_t\n||}">
<polygon fill="none" stroke="#000000" points="131.5,-303.5 131.5,-360.5 187.5,-360.5 187.5,-303.5 131.5,-303.5"/>
<text text-anchor="middle" x="159.5" y="-348.5" font-family="Helvetica,sans-Serif" font-size="10.00" fill="#000000">uint64_t</text>
<polyline fill="none" stroke="#000000" points="131.5,-341.5 187.5,-341.5 "/>
<text text-anchor="middle" x="159.5" y="-329.5" font-family="Helvetica,sans-Serif" font-size="10.00" fill="#000000"> </text>
<polyline fill="none" stroke="#000000" points="131.5,-322.5 187.5,-322.5 "/>
<text text-anchor="middle" x="159.5" y="-310.5" font-family="Helvetica,sans-Serif" font-size="10.00" fill="#000000"> </text>
</a>
</g>
</g>
<!-- Node3&#45;&gt;Node1 -->
<g id="edge2" class="edge">
<title>Node3&#45;&gt;Node1</title>
<path fill="none" stroke="#404040" d="M153.205,-303.4018C147.04,-268.1383 141.781,-207.5362 166.5,-164 177.2544,-145.0588 193.7592,-129.3739 211.686,-116.6724"/>
<polygon fill="none" stroke="#404040" points="211.7944,-116.5998 214.553,-109.9372 221.7641,-109.9212 219.0055,-116.5838 211.7944,-116.5998"/>
<text text-anchor="middle" x="201.5" y="-277" font-family="Helvetica,sans-Serif" font-size="10.00" fill="#000000"> +triggerType</text>
<text text-anchor="middle" x="201.5" y="-266" font-family="Helvetica,sans-Serif" font-size="10.00" fill="#000000">+par</text>
<text text-anchor="middle" x="201.5" y="-255" font-family="Helvetica,sans-Serif" font-size="10.00" fill="#000000">+feeId</text>
<text text-anchor="middle" x="201.5" y="-244" font-family="Helvetica,sans-Serif" font-size="10.00" fill="#000000">+linkId</text>
<text text-anchor="middle" x="201.5" y="-233" font-family="Helvetica,sans-Serif" font-size="10.00" fill="#000000">+headerSize</text>
<text text-anchor="middle" x="201.5" y="-222" font-family="Helvetica,sans-Serif" font-size="10.00" fill="#000000">+version</text>
<text text-anchor="middle" x="201.5" y="-211" font-family="Helvetica,sans-Serif" font-size="10.00" fill="#000000">+triggerBC</text>
<text text-anchor="middle" x="201.5" y="-200" font-family="Helvetica,sans-Serif" font-size="10.00" fill="#000000">+blockLength</text>
<text text-anchor="middle" x="201.5" y="-189" font-family="Helvetica,sans-Serif" font-size="10.00" fill="#000000">+heartbeatBC</text>
<text text-anchor="middle" x="201.5" y="-178" font-family="Helvetica,sans-Serif" font-size="10.00" fill="#000000">+word0</text>
<text text-anchor="middle" x="201.5" y="-167" font-family="Helvetica,sans-Serif" font-size="10.00" fill="#000000">...</text>
</g>
<!-- Node4 -->
<g id="node4" class="node">
<title>Node4</title>
<g id="a_node4"><a xlink:href="../../d3/d87/classuint32__t.html" target="_top" xlink:title="{uint32_t\n||}">
<polygon fill="none" stroke="#000000" points="224.5,-303.5 224.5,-360.5 280.5,-360.5 280.5,-303.5 224.5,-303.5"/>
<text text-anchor="middle" x="252.5" y="-348.5" font-family="Helvetica,sans-Serif" font-size="10.00" fill="#000000">uint32_t</text>
<polyline fill="none" stroke="#000000" points="224.5,-341.5 280.5,-341.5 "/>
<text text-anchor="middle" x="252.5" y="-329.5" font-family="Helvetica,sans-Serif" font-size="10.00" fill="#000000"> </text>
<polyline fill="none" stroke="#000000" points="224.5,-322.5 280.5,-322.5 "/>
<text text-anchor="middle" x="252.5" y="-310.5" font-family="Helvetica,sans-Serif" font-size="10.00" fill="#000000"> </text>
</a>
</g>
</g>
<!-- Node4&#45;&gt;Node1 -->
<g id="edge3" class="edge">
<title>Node4&#45;&gt;Node1</title>
<path fill="none" stroke="#404040" d="M247.0441,-303.4148C241.6817,-269.4571 236.0736,-211.436 249.5,-164 250.1536,-161.6908 250.8842,-159.3825 251.6823,-157.081"/>
<polygon fill="none" stroke="#404040" points="251.7856,-156.8191 250.268,-149.7695 256.1916,-145.6571 257.7092,-152.7068 251.7856,-156.8191"/>
<text text-anchor="middle" x="291" y="-227.5" font-family="Helvetica,sans-Serif" font-size="10.00" fill="#000000"> +heartbeatOrbit</text>
<text text-anchor="middle" x="291" y="-216.5" font-family="Helvetica,sans-Serif" font-size="10.00" fill="#000000">+triggerOrbit</text>
</g>
<!-- Node5 -->
<g id="node5" class="node">
<title>Node5</title>
<polygon fill="none" stroke="#bfbfbf" points="300,-303.5 300,-360.5 413,-360.5 413,-303.5 300,-303.5"/>
<text text-anchor="middle" x="356.5" y="-348.5" font-family="Helvetica,sans-Serif" font-size="10.00" fill="#000000">anonymous:+@184</text>
<polyline fill="none" stroke="#bfbfbf" points="300,-341.5 413,-341.5 "/>
<text text-anchor="middle" x="356.5" y="-329.5" font-family="Helvetica,sans-Serif" font-size="10.00" fill="#000000"> </text>
<polyline fill="none" stroke="#bfbfbf" points="300,-322.5 413,-322.5 "/>
<text text-anchor="middle" x="356.5" y="-310.5" font-family="Helvetica,sans-Serif" font-size="10.00" fill="#000000"> </text>
</g>
<!-- Node5&#45;&gt;Node1 -->
<g id="edge4" class="edge">
<title>Node5&#45;&gt;Node1</title>
<path fill="none" stroke="#404040" d="M354.9308,-303.4517C352.6605,-269.7751 347.4654,-212.2629 336.5,-164 336.0083,-161.8359 335.4841,-159.6511 334.932,-157.4536"/>
<polygon fill="none" stroke="#404040" points="334.8667,-157.2115 329.4418,-152.4606 331.7407,-145.6258 337.1656,-150.3766 334.8667,-157.2115"/>
<text text-anchor="middle" x="372.5" y="-222" font-family="Helvetica,sans-Serif" font-size="10.00" fill="#000000"> +@184</text>
</g>
<!-- Node6 -->
<g id="node6" class="node">
<title>Node6</title>
<polygon fill="none" stroke="#bfbfbf" points="431,-303.5 431,-360.5 544,-360.5 544,-303.5 431,-303.5"/>
<text text-anchor="middle" x="487.5" y="-348.5" font-family="Helvetica,sans-Serif" font-size="10.00" fill="#000000">anonymous:+@186</text>
<polyline fill="none" stroke="#bfbfbf" points="431,-341.5 544,-341.5 "/>
<text text-anchor="middle" x="487.5" y="-329.5" font-family="Helvetica,sans-Serif" font-size="10.00" fill="#000000"> </text>
<polyline fill="none" stroke="#bfbfbf" points="431,-322.5 544,-322.5 "/>
<text text-anchor="middle" x="487.5" y="-310.5" font-family="Helvetica,sans-Serif" font-size="10.00" fill="#000000"> </text>
</g>
<!-- Node6&#45;&gt;Node1 -->
<g id="edge5" class="edge">
<title>Node6&#45;&gt;Node1</title>
<path fill="none" stroke="#404040" d="M475.1445,-303.4685C459.4537,-268.8016 430.3162,-209.3325 396.5,-164 394.2675,-161.0073 391.9388,-158.0175 389.5358,-155.0431"/>
<polygon fill="none" stroke="#404040" points="389.3412,-154.8106 382.4221,-152.7792 381.6361,-145.611 388.5552,-147.6425 389.3412,-154.8106"/>
<text text-anchor="middle" x="484.5" y="-222" font-family="Helvetica,sans-Serif" font-size="10.00" fill="#000000"> +@186</text>
</g>
<!-- Node7 -->
<g id="node7" class="node">
<title>Node7</title>
<polygon fill="none" stroke="#bfbfbf" points="562,-303.5 562,-360.5 675,-360.5 675,-303.5 562,-303.5"/>
<text text-anchor="middle" x="618.5" y="-348.5" font-family="Helvetica,sans-Serif" font-size="10.00" fill="#000000">anonymous:+@188</text>
<polyline fill="none" stroke="#bfbfbf" points="562,-341.5 675,-341.5 "/>
<text text-anchor="middle" x="618.5" y="-329.5" font-family="Helvetica,sans-Serif" font-size="10.00" fill="#000000"> </text>
<polyline fill="none" stroke="#bfbfbf" points="562,-322.5 675,-322.5 "/>
<text text-anchor="middle" x="618.5" y="-310.5" font-family="Helvetica,sans-Serif" font-size="10.00" fill="#000000"> </text>
</g>
<!-- Node7&#45;&gt;Node1 -->
<g id="edge6" class="edge">
<title>Node7&#45;&gt;Node1</title>
<path fill="none" stroke="#404040" d="M606.0773,-303.4494C588.8826,-266.8319 554.6508,-203.368 508.5,-164 477.3458,-137.4245 437.1767,-117.2529 400.804,-102.7392"/>
<polygon fill="none" stroke="#404040" points="400.3348,-102.5576 393.2953,-104.1214 389.1443,-98.2248 396.1838,-96.661 400.3348,-102.5576"/>
<text text-anchor="middle" x="614.5" y="-222" font-family="Helvetica,sans-Serif" font-size="10.00" fill="#000000"> +@188</text>
</g>
</g>
</svg>
