<?xml version="1.0" encoding="UTF-8" standalone="no"?>
<!DOCTYPE svg PUBLIC "-//W3C//DTD SVG 1.1//EN"
 "http://www.w3.org/Graphics/SVG/1.1/DTD/svg11.dtd">
<!-- Generated by graphviz version 2.40.1 (20161225.0304)
 -->
<!-- Title: JTask Pages: 1 -->
<!--zoomable 646 -->
<svg id="main" version="1.1" xmlns="http://www.w3.org/2000/svg" xmlns:xlink="http://www.w3.org/1999/xlink" xml:space="preserve" onload="init(evt)">
<style type="text/css"><![CDATA[
.edge:hover path { stroke: red; }
.edge:hover polygon { stroke: red; fill: red; }
]]></style>
<script type="text/javascript"><![CDATA[
var edges = document.getElementsByTagName('g');
if (edges && edges.length) {
  for (var i=0;i<edges.length;i++) {
    if (edges[i].id.substr(0,4)=='edge') {
      edges[i].setAttribute('class','edge');
    }
  }
}
]]></script>
        <defs>
                <circle id="rim" cx="0" cy="0" r="7"/>
                <circle id="rim2" cx="0" cy="0" r="3.5"/>
                <g id="zoomPlus">
                        <use xlink:href="#rim" fill="#404040">
                                <set attributeName="fill" to="#808080" begin="zoomplus.mouseover" end="zoomplus.mouseout"/>
                        </use>
                        <path d="M-4,0h8M0,-4v8" fill="none" stroke="white" stroke-width="1.5" pointer-events="none"/>
                </g>
                <g id="zoomMin">
                        <use xlink:href="#rim" fill="#404040">
                                <set attributeName="fill" to="#808080" begin="zoomminus.mouseover" end="zoomminus.mouseout"/>
                        </use>
                        <path d="M-4,0h8" fill="none" stroke="white" stroke-width="1.5" pointer-events="none"/>
                </g>
                <g id="dirArrow">
                        <path fill="none" stroke="white" stroke-width="1.5" d="M0,-3.0v7 M-2.5,-0.5L0,-3.0L2.5,-0.5"/>
                </g>
               <g id="resetDef">
                       <use xlink:href="#rim2" fill="#404040">
                               <set attributeName="fill" to="#808080" begin="reset.mouseover" end="reset.mouseout"/>
                       </use>
               </g>
        </defs>

<script type="text/javascript">
var viewWidth = 618;
var viewHeight = 646;
var sectionId = 'dynsection-0';
</script>
<script xlink:href="../../svgpan.js"/>
<svg id="graph" class="graph">
<g id="viewport">
<title>JTask</title>
<!-- Node1 -->
<g id="node1" class="node">
<title>Node1</title>
<polygon fill="#bfbfbf" stroke="#000000" points="367.5,-.5 367.5,-57.5 440.5,-57.5 440.5,-.5 367.5,-.5"/>
<text text-anchor="middle" x="404" y="-45.5" font-family="Helvetica,sans-Serif" font-size="10.00" fill="#000000">JTask</text>
<polyline fill="none" stroke="#000000" points="367.5,-38.5 440.5,-38.5 "/>
<text text-anchor="middle" x="404" y="-26.5" font-family="Helvetica,sans-Serif" font-size="10.00" fill="#000000"> </text>
<polyline fill="none" stroke="#000000" points="367.5,-19.5 440.5,-19.5 "/>
<text text-anchor="start" x="375.5" y="-7.5" font-family="Helvetica,sans-Serif" font-size="10.00" fill="#000000">+ process()</text>
</g>
<!-- Node2 -->
<g id="node2" class="node">
<title>Node2</title>
<g id="a_node2"><a xlink:href="../../d8/d71/structo2_1_1framework_1_1Configurable.html" target="_top" xlink:title="{o2::framework::Configurable\l\&lt; o2::test::SimplePODClass \&gt;\n||+ Configurable()\l}">
<polygon fill="none" stroke="#000000" points="322.5,-105.5 322.5,-173.5 485.5,-173.5 485.5,-105.5 322.5,-105.5"/>
<text text-anchor="start" x="330.5" y="-161.5" font-family="Helvetica,sans-Serif" font-size="10.00" fill="#000000">o2::framework::Configurable</text>
<text text-anchor="middle" x="404" y="-150.5" font-family="Helvetica,sans-Serif" font-size="10.00" fill="#000000">&lt; o2::test::SimplePODClass &gt;</text>
<polyline fill="none" stroke="#000000" points="322.5,-143.5 485.5,-143.5 "/>
<text text-anchor="middle" x="404" y="-131.5" font-family="Helvetica,sans-Serif" font-size="10.00" fill="#000000"> </text>
<polyline fill="none" stroke="#000000" points="322.5,-124.5 485.5,-124.5 "/>
<text text-anchor="start" x="330.5" y="-112.5" font-family="Helvetica,sans-Serif" font-size="10.00" fill="#000000">+ Configurable()</text>
</a>
</g>
</g>
<!-- Node2&#45;&gt;Node1 -->
<g id="edge1" class="edge">
<title>Node2&#45;&gt;Node1</title>
<path fill="none" stroke="#404040" d="M404,-105.4447C404,-94.175 404,-81.5186 404,-69.7959"/>
<polygon fill="none" stroke="#404040" points="404.0001,-69.5519 400,-63.5519 404,-57.5519 408,-63.5519 404.0001,-69.5519"/>
<text text-anchor="middle" x="417.5" y="-79" font-family="Helvetica,sans-Serif" font-size="10.00" fill="#000000"> +cfg</text>
</g>
<!-- Node3 -->
<g id="node3" class="node">
<title>Node3</title>
<g id="a_node3"><a xlink:href="../../da/def/structo2_1_1framework_1_1ConfigurablePolicyConst.html" target="_top" xlink:title="{o2::framework::Configurable\lPolicyConst\&lt; o2::test::SimplePODClass \&gt;\n||+ ConfigurablePolicyConst()\l}">
<polygon fill="none" stroke="#000000" points="192,-221.5 192,-289.5 412,-289.5 412,-221.5 192,-221.5"/>
<text text-anchor="start" x="200" y="-277.5" font-family="Helvetica,sans-Serif" font-size="10.00" fill="#000000">o2::framework::Configurable</text>
<text text-anchor="middle" x="302" y="-266.5" font-family="Helvetica,sans-Serif" font-size="10.00" fill="#000000">PolicyConst&lt; o2::test::SimplePODClass &gt;</text>
<polyline fill="none" stroke="#000000" points="192,-259.5 412,-259.5 "/>
<text text-anchor="middle" x="302" y="-247.5" font-family="Helvetica,sans-Serif" font-size="10.00" fill="#000000"> </text>
<polyline fill="none" stroke="#000000" points="192,-240.5 412,-240.5 "/>
<text text-anchor="start" x="200" y="-228.5" font-family="Helvetica,sans-Serif" font-size="10.00" fill="#000000">+ ConfigurablePolicyConst()</text>
</a>
</g>
</g>
<!-- Node3&#45;&gt;Node2 -->
<g id="edge2" class="edge">
<title>Node3&#45;&gt;Node2</title>
<path fill="none" stroke="#191970" d="M338.6926,-213.7711C350.2133,-200.6691 362.7939,-186.3619 373.8106,-173.833"/>
<polygon fill="none" stroke="#191970" points="336.0267,-211.5027 332.0517,-221.3236 341.2835,-216.125 336.0267,-211.5027"/>
</g>
<!-- Node4 -->
<g id="node4" class="node">
<title>Node4</title>
<g id="a_node4"><a xlink:href="../../da/d2f/structo2_1_1framework_1_1ConfigurableBase.html" target="_top" xlink:title="{o2::framework::Configurable\lBase\&lt; o2::test::SimplePODClass \&gt;\n||+ ConfigurableBase()\l}">
<polygon fill="none" stroke="#000000" points="86.5,-337.5 86.5,-405.5 273.5,-405.5 273.5,-337.5 86.5,-337.5"/>
<text text-anchor="start" x="94.5" y="-393.5" font-family="Helvetica,sans-Serif" font-size="10.00" fill="#000000">o2::framework::Configurable</text>
<text text-anchor="middle" x="180" y="-382.5" font-family="Helvetica,sans-Serif" font-size="10.00" fill="#000000">Base&lt; o2::test::SimplePODClass &gt;</text>
<polyline fill="none" stroke="#000000" points="86.5,-375.5 273.5,-375.5 "/>
<text text-anchor="middle" x="180" y="-363.5" font-family="Helvetica,sans-Serif" font-size="10.00" fill="#000000"> </text>
<polyline fill="none" stroke="#000000" points="86.5,-356.5 273.5,-356.5 "/>
<text text-anchor="start" x="94.5" y="-344.5" font-family="Helvetica,sans-Serif" font-size="10.00" fill="#000000">+ ConfigurableBase()</text>
</a>
</g>
</g>
<!-- Node4&#45;&gt;Node3 -->
<g id="edge3" class="edge">
<title>Node4&#45;&gt;Node3</title>
<path fill="none" stroke="#191970" d="M223.5012,-330.1382C237.3855,-316.9367 252.5911,-302.4789 265.8912,-289.833"/>
<polygon fill="none" stroke="#191970" points="220.7795,-327.8965 215.9442,-337.3236 225.6029,-332.9694 220.7795,-327.8965"/>
</g>
<!-- Node5 -->
<g id="node5" class="node">
<title>Node5</title>
<g id="a_node5"><a xlink:href="../../d6/da0/classo2_1_1test_1_1SimplePODClass.html" target="_top" xlink:title="{o2::test::SimplePODClass\n||}">
<polygon fill="none" stroke="#000000" points="0,-459 0,-516 140,-516 140,-459 0,-459"/>
<text text-anchor="middle" x="70" y="-504" font-family="Helvetica,sans-Serif" font-size="10.00" fill="#000000">o2::test::SimplePODClass</text>
<polyline fill="none" stroke="#000000" points="0,-497 140,-497 "/>
<text text-anchor="middle" x="70" y="-485" font-family="Helvetica,sans-Serif" font-size="10.00" fill="#000000"> </text>
<polyline fill="none" stroke="#000000" points="0,-478 140,-478 "/>
<text text-anchor="middle" x="70" y="-466" font-family="Helvetica,sans-Serif" font-size="10.00" fill="#000000"> </text>
</a>
</g>
</g>
<!-- Node5&#45;&gt;Node4 -->
<g id="edge4" class="edge">
<title>Node5&#45;&gt;Node4</title>
<path fill="none" stroke="#404040" d="M92.453,-458.9979C101.6119,-447.804 112.5028,-435.0225 123,-424 126.1053,-420.7393 129.3729,-417.4338 132.7073,-414.151"/>
<polygon fill="none" stroke="#404040" points="132.9821,-413.8864 134.5278,-406.8429 141.624,-405.5606 140.0783,-412.6042 132.9821,-413.8864"/>
<text text-anchor="middle" x="142.5" y="-427" font-family="Helvetica,sans-Serif" font-size="10.00" fill="#000000"> +value</text>
</g>
<!-- Node6 -->
<g id="node6" class="node">
<title>Node6</title>
<g id="a_node6"><a xlink:href="../../d4/dc3/classfloat.html" target="_top" xlink:title="{float\n||}">
<polygon fill="none" stroke="#000000" points="51,-580.5 51,-637.5 89,-637.5 89,-580.5 51,-580.5"/>
<text text-anchor="middle" x="70" y="-625.5" font-family="Helvetica,sans-Serif" font-size="10.00" fill="#000000">float</text>
<polyline fill="none" stroke="#000000" points="51,-618.5 89,-618.5 "/>
<text text-anchor="middle" x="70" y="-606.5" font-family="Helvetica,sans-Serif" font-size="10.00" fill="#000000"> </text>
<polyline fill="none" stroke="#000000" points="51,-599.5 89,-599.5 "/>
<text text-anchor="middle" x="70" y="-587.5" font-family="Helvetica,sans-Serif" font-size="10.00" fill="#000000"> </text>
</a>
</g>
</g>
<!-- Node6&#45;&gt;Node5 -->
<g id="edge5" class="edge">
<title>Node6&#45;&gt;Node5</title>
<path fill="none" stroke="#404040" d="M70,-580.2062C70,-564.7723 70,-545.4913 70,-528.5165"/>
<polygon fill="none" stroke="#404040" points="70.0001,-528.0871 66,-522.0872 70,-516.0871 74,-522.0871 70.0001,-528.0871"/>
<text text-anchor="middle" x="79" y="-548.5" font-family="Helvetica,sans-Serif" font-size="10.00" fill="#000000"> +y</text>
</g>
<!-- Node7 -->
<g id="node7" class="node">
<title>Node7</title>
<polygon fill="none" stroke="#bfbfbf" points="161.5,-580.5 161.5,-637.5 190.5,-637.5 190.5,-580.5 161.5,-580.5"/>
<text text-anchor="middle" x="176" y="-625.5" font-family="Helvetica,sans-Serif" font-size="10.00" fill="#000000">int</text>
<polyline fill="none" stroke="#bfbfbf" points="161.5,-618.5 190.5,-618.5 "/>
<text text-anchor="middle" x="176" y="-606.5" font-family="Helvetica,sans-Serif" font-size="10.00" fill="#000000"> </text>
<polyline fill="none" stroke="#bfbfbf" points="161.5,-599.5 190.5,-599.5 "/>
<text text-anchor="middle" x="176" y="-587.5" font-family="Helvetica,sans-Serif" font-size="10.00" fill="#000000"> </text>
</g>
<!-- Node7&#45;&gt;Node4 -->
<g id="edge7" class="edge">
<title>Node7&#45;&gt;Node4</title>
<path fill="none" stroke="#404040" d="M176.4825,-580.352C177.1615,-540.0335 178.4068,-466.0983 179.2188,-417.8854"/>
<polygon fill="none" stroke="#404040" points="179.2232,-417.6171 175.3248,-411.5505 179.4254,-405.6188 183.3237,-411.6853 179.2232,-417.6171"/>
<text text-anchor="middle" x="199" y="-490.5" font-family="Helvetica,sans-Serif" font-size="10.00" fill="#000000"> +name</text>
<text text-anchor="middle" x="199" y="-479.5" font-family="Helvetica,sans-Serif" font-size="10.00" fill="#000000">+help</text>
</g>
<!-- Node7&#45;&gt;Node5 -->
<g id="edge6" class="edge">
<title>Node7&#45;&gt;Node5</title>
<path fill="none" stroke="#404040" d="M161.4834,-592.3607C146.5003,-575.1866 122.6144,-547.808 103.0066,-525.333"/>
<polygon fill="none" stroke="#404040" points="102.7925,-525.0876 95.8339,-523.196 94.9036,-516.0451 101.8622,-517.9367 102.7925,-525.0876"/>
<text text-anchor="middle" x="142" y="-548.5" font-family="Helvetica,sans-Serif" font-size="10.00" fill="#000000"> +x</text>
</g>
<!-- Node8 -->
<g id="node8" class="node">
<title>Node8</title>
<g id="a_node8"><a xlink:href="../../da/d2f/structo2_1_1framework_1_1ConfigurableBase.html" target="_top" xlink:title="{o2::framework::Configurable\lBase\&lt; T \&gt;\n||+ ConfigurableBase()\l}">
<polygon fill="none" stroke="#000000" points="234.5,-453.5 234.5,-521.5 389.5,-521.5 389.5,-453.5 234.5,-453.5"/>
<text text-anchor="start" x="242.5" y="-509.5" font-family="Helvetica,sans-Serif" font-size="10.00" fill="#000000">o2::framework::Configurable</text>
<text text-anchor="middle" x="312" y="-498.5" font-family="Helvetica,sans-Serif" font-size="10.00" fill="#000000">Base&lt; T &gt;</text>
<polyline fill="none" stroke="#000000" points="234.5,-491.5 389.5,-491.5 "/>
<text text-anchor="middle" x="312" y="-479.5" font-family="Helvetica,sans-Serif" font-size="10.00" fill="#000000"> </text>
<polyline fill="none" stroke="#000000" points="234.5,-472.5 389.5,-472.5 "/>
<text text-anchor="start" x="242.5" y="-460.5" font-family="Helvetica,sans-Serif" font-size="10.00" fill="#000000">+ ConfigurableBase()</text>
</a>
</g>
</g>
<!-- Node7&#45;&gt;Node8 -->
<g id="edge9" class="edge">
<title>Node7&#45;&gt;Node8</title>
<path fill="none" stroke="#404040" d="M190.5544,-595.9974C208.2079,-580.226 238.8439,-552.8564 264.9279,-529.5534"/>
<polygon fill="none" stroke="#404040" points="264.9866,-529.5009 266.7962,-522.5205 273.9356,-521.5061 272.1261,-528.4865 264.9866,-529.5009"/>
<text text-anchor="middle" x="273" y="-554" font-family="Helvetica,sans-Serif" font-size="10.00" fill="#000000"> +name</text>
<text text-anchor="middle" x="273" y="-543" font-family="Helvetica,sans-Serif" font-size="10.00" fill="#000000">+help</text>
</g>
<!-- Node8&#45;&gt;Node4 -->
<g id="edge8" class="edge">
<title>Node8&#45;&gt;Node4</title>
<path fill="none" stroke="#ffa500" d="M225.7834,-451.896C218.5791,-446.8823 211.8342,-441.2653 206,-435 198.3689,-426.8049 192.8364,-416.0666 188.8902,-405.7577"/>
<polygon fill="#ffa500" stroke="#ffa500" points="224.1316,-454.9965 234.4247,-457.5071 227.9438,-449.1256 224.1316,-454.9965"/>
<text text-anchor="middle" x="281" y="-427" font-family="Helvetica,sans-Serif" font-size="10.00" fill="#000000"> &lt; o2::test::SimplePODClass &gt;</text>
</g>
<!-- Node10 -->
<g id="node10" class="node">
<title>Node10</title>
<g id="a_node10"><a xlink:href="../../da/def/structo2_1_1framework_1_1ConfigurablePolicyConst.html" target="_top" xlink:title="{o2::framework::Configurable\lPolicyConst\&lt; T \&gt;\n||+ ConfigurablePolicyConst()\l}">
<polygon fill="none" stroke="#000000" points="293.5,-337.5 293.5,-405.5 448.5,-405.5 448.5,-337.5 293.5,-337.5"/>
<text text-anchor="start" x="301.5" y="-393.5" font-family="Helvetica,sans-Serif" font-size="10.00" fill="#000000">o2::framework::Configurable</text>
<text text-anchor="middle" x="371" y="-382.5" font-family="Helvetica,sans-Serif" font-size="10.00" fill="#000000">PolicyConst&lt; T &gt;</text>
<polyline fill="none" stroke="#000000" points="293.5,-375.5 448.5,-375.5 "/>
<text text-anchor="middle" x="371" y="-363.5" font-family="Helvetica,sans-Serif" font-size="10.00" fill="#000000"> </text>
<polyline fill="none" stroke="#000000" points="293.5,-356.5 448.5,-356.5 "/>
<text text-anchor="start" x="301.5" y="-344.5" font-family="Helvetica,sans-Serif" font-size="10.00" fill="#000000">+ ConfigurablePolicyConst()</text>
</a>
</g>
</g>
<!-- Node8&#45;&gt;Node10 -->
<g id="edge12" class="edge">
<title>Node8&#45;&gt;Node10</title>
<path fill="none" stroke="#191970" d="M353.9992,-445.3161C356.24,-441.9681 358.2747,-438.5168 360,-435 364.4351,-425.9597 367.1113,-415.4274 368.7172,-405.5697"/>
<polygon fill="none" stroke="#191970" points="351.1583,-443.2716 348.0631,-453.4042 356.8015,-447.4133 351.1583,-443.2716"/>
</g>
<!-- Node9 -->
<g id="node9" class="node">
<title>Node9</title>
<polygon fill="none" stroke="#bfbfbf" points="297.5,-580.5 297.5,-637.5 326.5,-637.5 326.5,-580.5 297.5,-580.5"/>
<text text-anchor="middle" x="312" y="-625.5" font-family="Helvetica,sans-Serif" font-size="10.00" fill="#000000">T</text>
<polyline fill="none" stroke="#bfbfbf" points="297.5,-618.5 326.5,-618.5 "/>
<text text-anchor="middle" x="312" y="-606.5" font-family="Helvetica,sans-Serif" font-size="10.00" fill="#000000"> </text>
<polyline fill="none" stroke="#bfbfbf" points="297.5,-599.5 326.5,-599.5 "/>
<text text-anchor="middle" x="312" y="-587.5" font-family="Helvetica,sans-Serif" font-size="10.00" fill="#000000"> </text>
</g>
<!-- Node9&#45;&gt;Node8 -->
<g id="edge10" class="edge">
<title>Node9&#45;&gt;Node8</title>
<path fill="none" stroke="#404040" d="M312,-580.2062C312,-566.3632 312,-549.4255 312,-533.8327"/>
<polygon fill="none" stroke="#404040" points="312.0001,-533.7007 308,-527.7008 312,-521.7007 316,-527.7007 312.0001,-533.7007"/>
<text text-anchor="middle" x="331.5" y="-548.5" font-family="Helvetica,sans-Serif" font-size="10.00" fill="#000000"> +value</text>
</g>
<!-- Node10&#45;&gt;Node3 -->
<g id="edge11" class="edge">
<title>Node10&#45;&gt;Node3</title>
<path fill="none" stroke="#ffa500" d="M345.5214,-328.6663C337.9087,-315.8683 329.6658,-302.0106 322.4222,-289.833"/>
<polygon fill="#ffa500" stroke="#ffa500" points="342.5506,-330.5184 350.6709,-337.3236 348.5667,-326.9398 342.5506,-330.5184"/>
<text text-anchor="middle" x="414" y="-311" font-family="Helvetica,sans-Serif" font-size="10.00" fill="#000000"> &lt; o2::test::SimplePODClass &gt;</text>
</g>
<!-- Node11 -->
<g id="node11" class="node">
<title>Node11</title>
<g id="a_node11"><a xlink:href="../../d8/d71/structo2_1_1framework_1_1Configurable.html" target="_top" xlink:title="{o2::framework::Configurable\l\&lt; T, IP \&gt;\n||+ Configurable()\l}">
<polygon fill="none" stroke="#000000" points="430.5,-221.5 430.5,-289.5 585.5,-289.5 585.5,-221.5 430.5,-221.5"/>
<text text-anchor="start" x="438.5" y="-277.5" font-family="Helvetica,sans-Serif" font-size="10.00" fill="#000000">o2::framework::Configurable</text>
<text text-anchor="middle" x="508" y="-266.5" font-family="Helvetica,sans-Serif" font-size="10.00" fill="#000000">&lt; T, IP &gt;</text>
<polyline fill="none" stroke="#000000" points="430.5,-259.5 585.5,-259.5 "/>
<text text-anchor="middle" x="508" y="-247.5" font-family="Helvetica,sans-Serif" font-size="10.00" fill="#000000"> </text>
<polyline fill="none" stroke="#000000" points="430.5,-240.5 585.5,-240.5 "/>
<text text-anchor="start" x="438.5" y="-228.5" font-family="Helvetica,sans-Serif" font-size="10.00" fill="#000000">+ Configurable()</text>
</a>
</g>
</g>
<!-- Node11&#45;&gt;Node2 -->
<g id="edge13" class="edge">
<title>Node11&#45;&gt;Node2</title>
<path fill="none" stroke="#ffa500" d="M470.5879,-213.7711C458.8413,-200.6691 446.0141,-186.3619 434.7813,-173.833"/>
<polygon fill="#ffa500" stroke="#ffa500" points="468.0776,-216.2143 477.3591,-221.3236 473.2896,-211.5414 468.0776,-216.2143"/>
<text text-anchor="middle" x="535" y="-195" font-family="Helvetica,sans-Serif" font-size="10.00" fill="#000000"> &lt; o2::test::SimplePODClass &gt;</text>
</g>
<!-- Node12 -->
<g id="node12" class="node">
<title>Node12</title>
<polygon fill="none" stroke="#bfbfbf" points="493.5,-343 493.5,-400 522.5,-400 522.5,-343 493.5,-343"/>
<text text-anchor="middle" x="508" y="-388" font-family="Helvetica,sans-Serif" font-size="10.00" fill="#000000">IP</text>
<polyline fill="none" stroke="#bfbfbf" points="493.5,-381 522.5,-381 "/>
<text text-anchor="middle" x="508" y="-369" font-family="Helvetica,sans-Serif" font-size="10.00" fill="#000000"> </text>
<polyline fill="none" stroke="#bfbfbf" points="493.5,-362 522.5,-362 "/>
<text text-anchor="middle" x="508" y="-350" font-family="Helvetica,sans-Serif" font-size="10.00" fill="#000000"> </text>
</g>
<!-- Node12&#45;&gt;Node11 -->
<g id="edge14" class="edge">
<title>Node12&#45;&gt;Node11</title>
<path fill="none" stroke="#191970" d="M508,-332.569C508,-318.6554 508,-303.0944 508,-289.6178"/>
<polygon fill="none" stroke="#191970" points="504.5001,-332.8258 508,-342.8258 511.5001,-332.8259 504.5001,-332.8258"/>
</g>
</g>
</svg>
        <g id="navigator" transform="translate(0 0)" fill="#404254">
                <rect fill="#f2f5e9" fill-opacity="0.5" stroke="#606060" stroke-width=".5" x="0" y="0" width="60" height="60"/>
                <use id="zoomplus" xlink:href="#zoomPlus" x="17" y="9" onmousedown="handleZoom(evt,'in')"/>
                <use id="zoomminus" xlink:href="#zoomMin" x="42" y="9" onmousedown="handleZoom(evt,'out')"/>
                <use id="reset" xlink:href="#resetDef" x="30" y="36" onmousedown="handleReset()"/>
                <g id="arrowUp" xlink:href="#dirArrow" transform="translate(30 24)" onmousedown="handlePan(0,-1)">
                  <use xlink:href="#rim" fill="#404040">
                        <set attributeName="fill" to="#808080" begin="arrowUp.mouseover" end="arrowUp.mouseout"/>
                  </use>
                  <path fill="none" stroke="white" stroke-width="1.5" d="M0,-3.0v7 M-2.5,-0.5L0,-3.0L2.5,-0.5"/>
                </g>
                <g id="arrowRight" xlink:href="#dirArrow" transform="rotate(90) translate(36 -43)" onmousedown="handlePan(1,0)">
                  <use xlink:href="#rim" fill="#404040">
                        <set attributeName="fill" to="#808080" begin="arrowRight.mouseover" end="arrowRight.mouseout"/>
                  </use>
                  <path fill="none" stroke="white" stroke-width="1.5" d="M0,-3.0v7 M-2.5,-0.5L0,-3.0L2.5,-0.5"/>
                </g>
                <g id="arrowDown" xlink:href="#dirArrow" transform="rotate(180) translate(-30 -48)" onmousedown="handlePan(0,1)">
                  <use xlink:href="#rim" fill="#404040">
                        <set attributeName="fill" to="#808080" begin="arrowDown.mouseover" end="arrowDown.mouseout"/>
                  </use>
                  <path fill="none" stroke="white" stroke-width="1.5" d="M0,-3.0v7 M-2.5,-0.5L0,-3.0L2.5,-0.5"/>
                </g>
                <g id="arrowLeft" xlink:href="#dirArrow" transform="rotate(270) translate(-36 17)" onmousedown="handlePan(-1,0)">
                  <use xlink:href="#rim" fill="#404040">
                        <set attributeName="fill" to="#808080" begin="arrowLeft.mouseover" end="arrowLeft.mouseout"/>
                  </use>
                  <path fill="none" stroke="white" stroke-width="1.5" d="M0,-3.0v7 M-2.5,-0.5L0,-3.0L2.5,-0.5"/>
                </g>
        </g>
        <svg viewBox="0 0 15 15" width="100%" height="30px" preserveAspectRatio="xMaxYMin meet">
         <g id="arrow_out" transform="scale(0.3 0.3)">
          <a xlink:href="structJTask__coll__graph_org.svg" target="_base">
           <rect id="button" ry="5" rx="5" y="6" x="6" height="38" width="38"
                fill="#f2f5e9" fill-opacity="0.5" stroke="#606060" stroke-width="1.0"/>
           <path id="arrow"
             d="M 11.500037,31.436501 C 11.940474,20.09759 22.043105,11.32322 32.158766,21.979434 L 37.068811,17.246167 C 37.068811,17.246167 37.088388,32 37.088388,32 L 22.160133,31.978069 C 22.160133,31.978069 26.997745,27.140456 26.997745,27.140456 C 18.528582,18.264221 13.291696,25.230495 11.500037,31.436501 z"
             style="fill:#404040;"/>
          </a>
         </g>
        </svg>
</svg>
