<?xml version="1.0" encoding="UTF-8" standalone="no"?>
<!DOCTYPE svg PUBLIC "-//W3C//DTD SVG 1.1//EN"
 "http://www.w3.org/Graphics/SVG/1.1/DTD/svg11.dtd">
<!-- Generated by graphviz version 2.40.1 (20161225.0304)
 -->
<!-- Title: o2::math_utils::detail::GPUPoint2D&lt; T, I &gt; Pages: 1 -->
<svg width="128pt" height="259pt"
 viewBox="0.00 0.00 128.00 259.00" xmlns="http://www.w3.org/2000/svg" xmlns:xlink="http://www.w3.org/1999/xlink">
<g id="graph0" class="graph" transform="scale(1 1) rotate(0) translate(4 255)">
<title>o2::math_utils::detail::GPUPoint2D&lt; T, I &gt;</title>
<!-- Node2 -->
<g id="node1" class="node">
<title>Node2</title>
<polygon fill="#bfbfbf" stroke="#000000" points="0,-.5 0,-134.5 120,-134.5 120,-.5 0,-.5"/>
<text text-anchor="start" x="8" y="-122.5" font-family="Helvetica,sans-Serif" font-size="10.00" fill="#000000">o2::math_utils::detail</text>
<text text-anchor="middle" x="60" y="-111.5" font-family="Helvetica,sans-Serif" font-size="10.00" fill="#000000">::GPUPoint2D&lt; T, I &gt;</text>
<polyline fill="none" stroke="#000000" points="0,-104.5 120,-104.5 "/>
<text text-anchor="middle" x="60" y="-92.5" font-family="Helvetica,sans-Serif" font-size="10.00" fill="#000000"> </text>
<polyline fill="none" stroke="#000000" points="0,-85.5 120,-85.5 "/>
<text text-anchor="start" x="8" y="-73.5" font-family="Helvetica,sans-Serif" font-size="10.00" fill="#000000">+ GPUPoint2D()</text>
<text text-anchor="start" x="8" y="-62.5" font-family="Helvetica,sans-Serif" font-size="10.00" fill="#000000">+ GPUPoint2D()</text>
<text text-anchor="start" x="8" y="-51.5" font-family="Helvetica,sans-Serif" font-size="10.00" fill="#000000">+ X()</text>
<text text-anchor="start" x="8" y="-40.5" font-family="Helvetica,sans-Serif" font-size="10.00" fill="#000000">+ Y()</text>
<text text-anchor="start" x="8" y="-29.5" font-family="Helvetica,sans-Serif" font-size="10.00" fill="#000000">+ R()</text>
<text text-anchor="start" x="8" y="-18.5" font-family="Helvetica,sans-Serif" font-size="10.00" fill="#000000">+ SetX()</text>
<text text-anchor="start" x="8" y="-7.5" font-family="Helvetica,sans-Serif" font-size="10.00" fill="#000000">+ SetY()</text>
</g>
<!-- Node3 -->
<g id="node2" class="node">
<title>Node3</title>
<polygon fill="none" stroke="#bfbfbf" points="45.5,-193.5 45.5,-250.5 74.5,-250.5 74.5,-193.5 45.5,-193.5"/>
<text text-anchor="middle" x="60" y="-238.5" font-family="Helvetica,sans-Serif" font-size="10.00" fill="#000000">T</text>
<polyline fill="none" stroke="#bfbfbf" points="45.5,-231.5 74.5,-231.5 "/>
<text text-anchor="middle" x="60" y="-219.5" font-family="Helvetica,sans-Serif" font-size="10.00" fill="#000000"> </text>
<polyline fill="none" stroke="#bfbfbf" points="45.5,-212.5 74.5,-212.5 "/>
<text text-anchor="middle" x="60" y="-200.5" font-family="Helvetica,sans-Serif" font-size="10.00" fill="#000000"> </text>
</g>
<!-- Node3&#45;&gt;Node2 -->
<g id="edge1" class="edge">
<title>Node3&#45;&gt;Node2</title>
<path fill="none" stroke="#404040" d="M60,-193.3018C60,-179.9597 60,-163.368 60,-146.6572"/>
<polygon fill="none" stroke="#404040" points="60.0001,-146.513 56,-140.513 60,-134.513 64,-140.5129 60.0001,-146.513"/>
<text text-anchor="middle" x="72" y="-167" font-family="Helvetica,sans-Serif" font-size="10.00" fill="#000000"> +yy</text>
<text text-anchor="middle" x="72" y="-156" font-family="Helvetica,sans-Serif" font-size="10.00" fill="#000000">+xx</text>
</g>
</g>
</svg>
