<?xml version="1.0" encoding="UTF-8" standalone="no"?>
<!DOCTYPE svg PUBLIC "-//W3C//DTD SVG 1.1//EN"
 "http://www.w3.org/Graphics/SVG/1.1/DTD/svg11.dtd">
<!-- Generated by graphviz version 2.40.1 (20161225.0304)
 -->
<!-- Title: InsertionPolicy Pages: 1 -->
<svg width="197pt" height="160pt"
 viewBox="0.00 0.00 197.00 160.00" xmlns="http://www.w3.org/2000/svg" xmlns:xlink="http://www.w3.org/1999/xlink">
<g id="graph0" class="graph" transform="scale(1 1) rotate(0) translate(4 156)">
<title>InsertionPolicy</title>
<!-- Node0 -->
<g id="node1" class="node">
<title>Node0</title>
<polygon fill="#bfbfbf" stroke="#000000" points="50,-94.5 50,-151.5 139,-151.5 139,-94.5 50,-94.5"/>
<text text-anchor="middle" x="94.5" y="-139.5" font-family="Helvetica,sans-Serif" font-size="10.00" fill="#000000">InsertionPolicy</text>
<polyline fill="none" stroke="#000000" points="50,-132.5 139,-132.5 "/>
<text text-anchor="middle" x="94.5" y="-120.5" font-family="Helvetica,sans-Serif" font-size="10.00" fill="#000000"> </text>
<polyline fill="none" stroke="#000000" points="50,-113.5 139,-113.5 "/>
<text text-anchor="middle" x="94.5" y="-101.5" font-family="Helvetica,sans-Serif" font-size="10.00" fill="#000000"> </text>
</g>
<!-- Node1 -->
<g id="node2" class="node">
<title>Node1</title>
<g id="a_node2"><a xlink:href="../../d9/df9/structo2_1_1framework_1_1BuilderHolder.html" target="_top" xlink:title="{o2::framework::BuilderHolder\&lt; T \&gt;\n|+ builder\l|+ BuilderHolder()\l}">
<polygon fill="none" stroke="#000000" points="0,-.5 0,-57.5 189,-57.5 189,-.5 0,-.5"/>
<text text-anchor="middle" x="94.5" y="-45.5" font-family="Helvetica,sans-Serif" font-size="10.00" fill="#000000">o2::framework::BuilderHolder&lt; T &gt;</text>
<polyline fill="none" stroke="#000000" points="0,-38.5 189,-38.5 "/>
<text text-anchor="start" x="8" y="-26.5" font-family="Helvetica,sans-Serif" font-size="10.00" fill="#000000">+ builder</text>
<polyline fill="none" stroke="#000000" points="0,-19.5 189,-19.5 "/>
<text text-anchor="start" x="8" y="-7.5" font-family="Helvetica,sans-Serif" font-size="10.00" fill="#000000">+ BuilderHolder()</text>
</a>
</g>
</g>
<!-- Node0&#45;&gt;Node1 -->
<g id="edge1" class="edge">
<title>Node0&#45;&gt;Node1</title>
<path fill="none" stroke="#191970" d="M94.5,-84.1035C94.5,-75.2052 94.5,-65.9073 94.5,-57.538"/>
<polygon fill="none" stroke="#191970" points="91.0001,-84.2861 94.5,-94.2861 98.0001,-84.2862 91.0001,-84.2861"/>
</g>
</g>
</svg>
