<?xml version="1.0" encoding="UTF-8" standalone="no"?>
<!DOCTYPE svg PUBLIC "-//W3C//DTD SVG 1.1//EN"
 "http://www.w3.org/Graphics/SVG/1.1/DTD/svg11.dtd">
<!-- Generated by graphviz version 2.40.1 (20161225.0304)
 -->
<!-- Title: /home/travis/build/AliceO2Group/AliceO2/Framework/Core/include/Framework/InputRecordWalker.h Pages: 1 -->
<!--zoomable 161 -->
<svg id="main" version="1.1" xmlns="http://www.w3.org/2000/svg" xmlns:xlink="http://www.w3.org/1999/xlink" xml:space="preserve" onload="init(evt)">
<style type="text/css"><![CDATA[
.edge:hover path { stroke: red; }
.edge:hover polygon { stroke: red; fill: red; }
]]></style>
<script type="text/javascript"><![CDATA[
var edges = document.getElementsByTagName('g');
if (edges && edges.length) {
  for (var i=0;i<edges.length;i++) {
    if (edges[i].id.substr(0,4)=='edge') {
      edges[i].setAttribute('class','edge');
    }
  }
}
]]></script>
        <defs>
                <circle id="rim" cx="0" cy="0" r="7"/>
                <circle id="rim2" cx="0" cy="0" r="3.5"/>
                <g id="zoomPlus">
                        <use xlink:href="#rim" fill="#404040">
                                <set attributeName="fill" to="#808080" begin="zoomplus.mouseover" end="zoomplus.mouseout"/>
                        </use>
                        <path d="M-4,0h8M0,-4v8" fill="none" stroke="white" stroke-width="1.5" pointer-events="none"/>
                </g>
                <g id="zoomMin">
                        <use xlink:href="#rim" fill="#404040">
                                <set attributeName="fill" to="#808080" begin="zoomminus.mouseover" end="zoomminus.mouseout"/>
                        </use>
                        <path d="M-4,0h8" fill="none" stroke="white" stroke-width="1.5" pointer-events="none"/>
                </g>
                <g id="dirArrow">
                        <path fill="none" stroke="white" stroke-width="1.5" d="M0,-3.0v7 M-2.5,-0.5L0,-3.0L2.5,-0.5"/>
                </g>
               <g id="resetDef">
                       <use xlink:href="#rim2" fill="#404040">
                               <set attributeName="fill" to="#808080" begin="reset.mouseover" end="reset.mouseout"/>
                       </use>
               </g>
        </defs>

<script type="text/javascript">
var viewWidth = 2239;
var viewHeight = 161;
var sectionId = 'dynsection-1';
</script>
<script xlink:href="../../svgpan.js"/>
<svg id="graph" class="graph">
<g id="viewport">
<title>/home/travis/build/AliceO2Group/AliceO2/Framework/Core/include/Framework/InputRecordWalker.h</title>
<!-- Node89 -->
<g id="node1" class="node">
<title>Node89</title>
<polygon fill="#bfbfbf" stroke="#000000" points="1086,-100.5 1086,-152.5 1262,-152.5 1262,-100.5 1086,-100.5"/>
<text text-anchor="start" x="1094" y="-140.5" font-family="Helvetica,sans-Serif" font-size="10.00" fill="#000000">/home/travis/build</text>
<text text-anchor="start" x="1094" y="-129.5" font-family="Helvetica,sans-Serif" font-size="10.00" fill="#000000">/AliceO2Group/AliceO2</text>
<text text-anchor="start" x="1094" y="-118.5" font-family="Helvetica,sans-Serif" font-size="10.00" fill="#000000">/Framework/Core/include</text>
<text text-anchor="middle" x="1174" y="-107.5" font-family="Helvetica,sans-Serif" font-size="10.00" fill="#000000">/Framework/InputRecordWalker.h</text>
</g>
<!-- Node90 -->
<g id="node2" class="node">
<title>Node90</title>
<g id="a_node2"><a xlink:href="../../d6/dc9/AODProducerWorkflowSpec_8cxx.html" target="_top" xlink:title="/home/travis/build\l/AliceO2Group/AliceO2\l/Detectors/AOD/src/AODProducer\lWorkflowSpec.cxx">
<polygon fill="none" stroke="#000000" points="0,-6 0,-58 176,-58 176,-6 0,-6"/>
<text text-anchor="start" x="8" y="-46" font-family="Helvetica,sans-Serif" font-size="10.00" fill="#000000">/home/travis/build</text>
<text text-anchor="start" x="8" y="-35" font-family="Helvetica,sans-Serif" font-size="10.00" fill="#000000">/AliceO2Group/AliceO2</text>
<text text-anchor="start" x="8" y="-24" font-family="Helvetica,sans-Serif" font-size="10.00" fill="#000000">/Detectors/AOD/src/AODProducer</text>
<text text-anchor="middle" x="88" y="-13" font-family="Helvetica,sans-Serif" font-size="10.00" fill="#000000">WorkflowSpec.cxx</text>
</a>
</g>
</g>
<!-- Node89&#45;&gt;Node90 -->
<g id="edge1" class="edge">
<title>Node89&#45;&gt;Node90</title>
<path fill="none" stroke="#191970" d="M1075.9214,-123.5325C860.7019,-116.4961 352.7902,-96.8818 184,-64 175.8953,-62.4211 167.5307,-60.3434 159.2748,-58.0032"/>
<polygon fill="#191970" stroke="#191970" points="1075.8378,-127.0315 1085.9462,-123.8581 1076.0651,-120.0352 1075.8378,-127.0315"/>
</g>
<!-- Node91 -->
<g id="node3" class="node">
<title>Node91</title>
<g id="a_node3"><a xlink:href="../../d6/d73/TPCITSMatchingSpec_8cxx.html" target="_top" xlink:title="/home/travis/build\l/AliceO2Group/AliceO2\l/Detectors/GlobalTrackingWorkflow\l/src/TPCITSMatchingSpec.cxx">
<polygon fill="none" stroke="#000000" points="193.5,-6 193.5,-58 380.5,-58 380.5,-6 193.5,-6"/>
<text text-anchor="start" x="201.5" y="-46" font-family="Helvetica,sans-Serif" font-size="10.00" fill="#000000">/home/travis/build</text>
<text text-anchor="start" x="201.5" y="-35" font-family="Helvetica,sans-Serif" font-size="10.00" fill="#000000">/AliceO2Group/AliceO2</text>
<text text-anchor="start" x="201.5" y="-24" font-family="Helvetica,sans-Serif" font-size="10.00" fill="#000000">/Detectors/GlobalTrackingWorkflow</text>
<text text-anchor="middle" x="287" y="-13" font-family="Helvetica,sans-Serif" font-size="10.00" fill="#000000">/src/TPCITSMatchingSpec.cxx</text>
</a>
</g>
</g>
<!-- Node89&#45;&gt;Node91 -->
<g id="edge2" class="edge">
<title>Node89&#45;&gt;Node91</title>
<path fill="none" stroke="#191970" d="M1075.8341,-121.4416C895.4471,-111.6889 517.9216,-89.025 389,-64 380.7102,-62.3909 372.1451,-60.3429 363.6643,-58.0628"/>
<polygon fill="#191970" stroke="#191970" points="1075.6769,-124.9382 1085.8506,-121.9809 1076.0532,-117.9483 1075.6769,-124.9382"/>
</g>
<!-- Node92 -->
<g id="node4" class="node">
<title>Node92</title>
<g id="a_node4"><a xlink:href="../../d8/d85/TPCInterpolationSpec_8cxx.html" target="_top" xlink:title="/home/travis/build\l/AliceO2Group/AliceO2\l/Detectors/GlobalTrackingWorkflow\l/tpcinterpolationworkflow/src\l/TPCInterpolationSpec.cxx">
<polygon fill="none" stroke="#000000" points="398.5,-.5 398.5,-63.5 585.5,-63.5 585.5,-.5 398.5,-.5"/>
<text text-anchor="start" x="406.5" y="-51.5" font-family="Helvetica,sans-Serif" font-size="10.00" fill="#000000">/home/travis/build</text>
<text text-anchor="start" x="406.5" y="-40.5" font-family="Helvetica,sans-Serif" font-size="10.00" fill="#000000">/AliceO2Group/AliceO2</text>
<text text-anchor="start" x="406.5" y="-29.5" font-family="Helvetica,sans-Serif" font-size="10.00" fill="#000000">/Detectors/GlobalTrackingWorkflow</text>
<text text-anchor="start" x="406.5" y="-18.5" font-family="Helvetica,sans-Serif" font-size="10.00" fill="#000000">/tpcinterpolationworkflow/src</text>
<text text-anchor="middle" x="492" y="-7.5" font-family="Helvetica,sans-Serif" font-size="10.00" fill="#000000">/TPCInterpolationSpec.cxx</text>
</a>
</g>
</g>
<!-- Node89&#45;&gt;Node92 -->
<g id="edge3" class="edge">
<title>Node89&#45;&gt;Node92</title>
<path fill="none" stroke="#191970" d="M1075.6078,-121.6943C959.6801,-114.6971 761.7337,-98.5591 595,-64 591.883,-63.3539 588.7257,-62.6526 585.5474,-61.9061"/>
<polygon fill="#191970" stroke="#191970" points="1075.6873,-125.2051 1085.877,-122.3032 1076.1017,-118.2174 1075.6873,-125.2051"/>
</g>
<!-- Node93 -->
<g id="node5" class="node">
<title>Node93</title>
<g id="a_node5"><a xlink:href="../../da/d78/CATrackerSpec_8cxx.html" target="_top" xlink:title="Processor spec for running TPC CA tracking. ">
<polygon fill="none" stroke="#000000" points="604,-6 604,-58 740,-58 740,-6 604,-6"/>
<text text-anchor="start" x="612" y="-46" font-family="Helvetica,sans-Serif" font-size="10.00" fill="#000000">/home/travis/build</text>
<text text-anchor="start" x="612" y="-35" font-family="Helvetica,sans-Serif" font-size="10.00" fill="#000000">/AliceO2Group/AliceO2</text>
<text text-anchor="start" x="612" y="-24" font-family="Helvetica,sans-Serif" font-size="10.00" fill="#000000">/Detectors/TPC/workflow</text>
<text text-anchor="middle" x="672" y="-13" font-family="Helvetica,sans-Serif" font-size="10.00" fill="#000000">/src/CATrackerSpec.cxx</text>
</a>
</g>
</g>
<!-- Node89&#45;&gt;Node93 -->
<g id="edge4" class="edge">
<title>Node89&#45;&gt;Node93</title>
<path fill="none" stroke="#191970" d="M1075.4538,-118.9792C988.3867,-110.6951 858.587,-94.3221 749,-64 743.0005,-62.34 736.8441,-60.3348 730.7526,-58.1472"/>
<polygon fill="#191970" stroke="#191970" points="1075.3088,-122.4808 1085.5909,-119.9255 1075.9595,-115.5111 1075.3088,-122.4808"/>
</g>
<!-- Node94 -->
<g id="node6" class="node">
<title>Node94</title>
<g id="a_node6"><a xlink:href="../../d9/d7b/ClusterDecoderRawSpec_8cxx.html" target="_top" xlink:title="Processor spec for decoder of TPC raw cluster data. ">
<polygon fill="none" stroke="#000000" points="758,-6 758,-58 934,-58 934,-6 758,-6"/>
<text text-anchor="start" x="766" y="-46" font-family="Helvetica,sans-Serif" font-size="10.00" fill="#000000">/home/travis/build</text>
<text text-anchor="start" x="766" y="-35" font-family="Helvetica,sans-Serif" font-size="10.00" fill="#000000">/AliceO2Group/AliceO2</text>
<text text-anchor="start" x="766" y="-24" font-family="Helvetica,sans-Serif" font-size="10.00" fill="#000000">/Detectors/TPC/workflow</text>
<text text-anchor="middle" x="846" y="-13" font-family="Helvetica,sans-Serif" font-size="10.00" fill="#000000">/src/ClusterDecoderRawSpec.cxx</text>
</a>
</g>
</g>
<!-- Node89&#45;&gt;Node94 -->
<g id="edge5" class="edge">
<title>Node89&#45;&gt;Node94</title>
<path fill="none" stroke="#191970" d="M1076.1528,-101.2874C1034.9068,-90.3332 986.472,-77.0411 943,-64 936.7155,-62.1147 930.2213,-60.106 923.7094,-58.0488"/>
<polygon fill="#191970" stroke="#191970" points="1075.3652,-104.6993 1085.9279,-103.8755 1077.1569,-97.9325 1075.3652,-104.6993"/>
</g>
<!-- Node95 -->
<g id="node7" class="node">
<title>Node95</title>
<g id="a_node7"><a xlink:href="../../d5/d17/TPC_2workflow_2src_2ClustererSpec_8cxx.html" target="_top" xlink:title="/home/travis/build\l/AliceO2Group/AliceO2\l/Detectors/TPC/workflow\l/src/ClustererSpec.cxx">
<polygon fill="none" stroke="#000000" points="952,-6 952,-58 1088,-58 1088,-6 952,-6"/>
<text text-anchor="start" x="960" y="-46" font-family="Helvetica,sans-Serif" font-size="10.00" fill="#000000">/home/travis/build</text>
<text text-anchor="start" x="960" y="-35" font-family="Helvetica,sans-Serif" font-size="10.00" fill="#000000">/AliceO2Group/AliceO2</text>
<text text-anchor="start" x="960" y="-24" font-family="Helvetica,sans-Serif" font-size="10.00" fill="#000000">/Detectors/TPC/workflow</text>
<text text-anchor="middle" x="1020" y="-13" font-family="Helvetica,sans-Serif" font-size="10.00" fill="#000000">/src/ClustererSpec.cxx</text>
</a>
</g>
</g>
<!-- Node89&#45;&gt;Node95 -->
<g id="edge6" class="edge">
<title>Node89&#45;&gt;Node95</title>
<path fill="none" stroke="#191970" d="M1122.7448,-95.0479C1103.2376,-83.0776 1081.2393,-69.5786 1062.6173,-58.1515"/>
<polygon fill="#191970" stroke="#191970" points="1121.1573,-98.1802 1131.5112,-100.4273 1124.8185,-92.214 1121.1573,-98.1802"/>
</g>
<!-- Node96 -->
<g id="node8" class="node">
<title>Node96</title>
<g id="a_node8"><a xlink:href="../../d2/dbc/ZSSpec_8cxx.html" target="_top" xlink:title="/home/travis/build\l/AliceO2Group/AliceO2\l/Detectors/TPC/workflow\l/src/ZSSpec.cxx">
<polygon fill="none" stroke="#000000" points="1106,-6 1106,-58 1242,-58 1242,-6 1106,-6"/>
<text text-anchor="start" x="1114" y="-46" font-family="Helvetica,sans-Serif" font-size="10.00" fill="#000000">/home/travis/build</text>
<text text-anchor="start" x="1114" y="-35" font-family="Helvetica,sans-Serif" font-size="10.00" fill="#000000">/AliceO2Group/AliceO2</text>
<text text-anchor="start" x="1114" y="-24" font-family="Helvetica,sans-Serif" font-size="10.00" fill="#000000">/Detectors/TPC/workflow</text>
<text text-anchor="middle" x="1174" y="-13" font-family="Helvetica,sans-Serif" font-size="10.00" fill="#000000">/src/ZSSpec.cxx</text>
</a>
</g>
</g>
<!-- Node89&#45;&gt;Node96 -->
<g id="edge7" class="edge">
<title>Node89&#45;&gt;Node96</title>
<path fill="none" stroke="#191970" d="M1174,-90.1645C1174,-79.5577 1174,-68.1746 1174,-58.3157"/>
<polygon fill="#191970" stroke="#191970" points="1170.5001,-90.4273 1174,-100.4273 1177.5001,-90.4273 1170.5001,-90.4273"/>
</g>
<!-- Node97 -->
<g id="node9" class="node">
<title>Node97</title>
<g id="a_node9"><a xlink:href="../../dc/d05/test__InputRecordWalker_8cxx.html" target="_top" xlink:title="/home/travis/build\l/AliceO2Group/AliceO2\l/Framework/Core/test/test\l_InputRecordWalker.cxx">
<polygon fill="none" stroke="#000000" points="1260.5,-6 1260.5,-58 1403.5,-58 1403.5,-6 1260.5,-6"/>
<text text-anchor="start" x="1268.5" y="-46" font-family="Helvetica,sans-Serif" font-size="10.00" fill="#000000">/home/travis/build</text>
<text text-anchor="start" x="1268.5" y="-35" font-family="Helvetica,sans-Serif" font-size="10.00" fill="#000000">/AliceO2Group/AliceO2</text>
<text text-anchor="start" x="1268.5" y="-24" font-family="Helvetica,sans-Serif" font-size="10.00" fill="#000000">/Framework/Core/test/test</text>
<text text-anchor="middle" x="1332" y="-13" font-family="Helvetica,sans-Serif" font-size="10.00" fill="#000000">_InputRecordWalker.cxx</text>
</a>
</g>
</g>
<!-- Node89&#45;&gt;Node97 -->
<g id="edge8" class="edge">
<title>Node89&#45;&gt;Node97</title>
<path fill="none" stroke="#191970" d="M1226.3162,-95.2096C1246.397,-83.1993 1269.084,-69.6301 1288.2758,-58.1515"/>
<polygon fill="#191970" stroke="#191970" points="1224.378,-92.2905 1217.5924,-100.4273 1227.9711,-98.298 1224.378,-92.2905"/>
</g>
<!-- Node98 -->
<g id="node10" class="node">
<title>Node98</title>
<g id="a_node10"><a xlink:href="../../d1/d02/test__RootTreeWriterWorkflow_8cxx.html" target="_top" xlink:title="/home/travis/build\l/AliceO2Group/AliceO2\l/Framework/Utils/test\l/test_RootTreeWriterWorkflow.cxx">
<polygon fill="none" stroke="#000000" points="1421.5,-6 1421.5,-58 1600.5,-58 1600.5,-6 1421.5,-6"/>
<text text-anchor="start" x="1429.5" y="-46" font-family="Helvetica,sans-Serif" font-size="10.00" fill="#000000">/home/travis/build</text>
<text text-anchor="start" x="1429.5" y="-35" font-family="Helvetica,sans-Serif" font-size="10.00" fill="#000000">/AliceO2Group/AliceO2</text>
<text text-anchor="start" x="1429.5" y="-24" font-family="Helvetica,sans-Serif" font-size="10.00" fill="#000000">/Framework/Utils/test</text>
<text text-anchor="middle" x="1511" y="-13" font-family="Helvetica,sans-Serif" font-size="10.00" fill="#000000">/test_RootTreeWriterWorkflow.cxx</text>
</a>
</g>
</g>
<!-- Node89&#45;&gt;Node98 -->
<g id="edge9" class="edge">
<title>Node89&#45;&gt;Node98</title>
<path fill="none" stroke="#191970" d="M1271.7405,-102.3483C1315.1661,-91.2559 1366.8052,-77.5689 1413,-64 1419.4397,-62.1085 1426.0956,-60.0844 1432.7662,-58.0073"/>
<polygon fill="#191970" stroke="#191970" points="1270.8618,-98.9602 1262.0345,-104.8193 1272.5889,-105.7438 1270.8618,-98.9602"/>
</g>
<!-- Node99 -->
<g id="node11" class="node">
<title>Node99</title>
<g id="a_node11"><a xlink:href="../../d8/dd2/TPCDigitRootWriterSpec_8cxx.html" target="_top" xlink:title="/home/travis/build\l/AliceO2Group/AliceO2\l/Steer/DigitizerWorkflow\l/src/TPCDigitRootWriterSpec.cxx">
<polygon fill="none" stroke="#000000" points="1618.5,-6 1618.5,-58 1791.5,-58 1791.5,-6 1618.5,-6"/>
<text text-anchor="start" x="1626.5" y="-46" font-family="Helvetica,sans-Serif" font-size="10.00" fill="#000000">/home/travis/build</text>
<text text-anchor="start" x="1626.5" y="-35" font-family="Helvetica,sans-Serif" font-size="10.00" fill="#000000">/AliceO2Group/AliceO2</text>
<text text-anchor="start" x="1626.5" y="-24" font-family="Helvetica,sans-Serif" font-size="10.00" fill="#000000">/Steer/DigitizerWorkflow</text>
<text text-anchor="middle" x="1705" y="-13" font-family="Helvetica,sans-Serif" font-size="10.00" fill="#000000">/src/TPCDigitRootWriterSpec.cxx</text>
</a>
</g>
</g>
<!-- Node89&#45;&gt;Node99 -->
<g id="edge10" class="edge">
<title>Node89&#45;&gt;Node99</title>
<path fill="none" stroke="#191970" d="M1272.2401,-117.5931C1361.2416,-108.304 1495.5712,-91.2327 1610,-64 1617.1956,-62.2875 1624.6203,-60.2617 1631.9998,-58.0738"/>
<polygon fill="#191970" stroke="#191970" points="1271.744,-114.1256 1262.1556,-118.6325 1272.4618,-121.0887 1271.744,-114.1256"/>
</g>
<!-- Node100 -->
<g id="node12" class="node">
<title>Node100</title>
<g id="a_node12"><a xlink:href="../../d1/dca/Dispatcher_8cxx.html" target="_top" xlink:title="Implementation of Dispatcher for O2 Data Sampling. ">
<polygon fill="none" stroke="#000000" points="1810,-6 1810,-58 1940,-58 1940,-6 1810,-6"/>
<text text-anchor="start" x="1818" y="-46" font-family="Helvetica,sans-Serif" font-size="10.00" fill="#000000">/home/travis/build</text>
<text text-anchor="start" x="1818" y="-35" font-family="Helvetica,sans-Serif" font-size="10.00" fill="#000000">/AliceO2Group/AliceO2</text>
<text text-anchor="start" x="1818" y="-24" font-family="Helvetica,sans-Serif" font-size="10.00" fill="#000000">/Utilities/DataSampling</text>
<text text-anchor="middle" x="1875" y="-13" font-family="Helvetica,sans-Serif" font-size="10.00" fill="#000000">/src/Dispatcher.cxx</text>
</a>
</g>
</g>
<!-- Node89&#45;&gt;Node100 -->
<g id="edge11" class="edge">
<title>Node89&#45;&gt;Node100</title>
<path fill="none" stroke="#191970" d="M1272.3208,-120.4087C1422.9729,-110.4477 1703.6985,-89.2343 1801,-64 1807.2324,-62.3837 1813.6144,-60.315 1819.8908,-58.0088"/>
<polygon fill="#191970" stroke="#191970" points="1271.895,-116.929 1262.146,-121.0774 1272.3541,-123.914 1271.895,-116.929"/>
</g>
<!-- Node101 -->
<g id="node13" class="node">
<title>Node101</title>
<g id="a_node13"><a xlink:href="../../db/d51/FullHistoryMerger_8cxx.html" target="_top" xlink:title="Implementation of O2 Mergers, v0.1. ">
<polygon fill="none" stroke="#000000" points="1958.5,-6 1958.5,-58 2085.5,-58 2085.5,-6 1958.5,-6"/>
<text text-anchor="start" x="1966.5" y="-46" font-family="Helvetica,sans-Serif" font-size="10.00" fill="#000000">/home/travis/build</text>
<text text-anchor="start" x="1966.5" y="-35" font-family="Helvetica,sans-Serif" font-size="10.00" fill="#000000">/AliceO2Group/AliceO2</text>
<text text-anchor="start" x="1966.5" y="-24" font-family="Helvetica,sans-Serif" font-size="10.00" fill="#000000">/Utilities/Mergers/src</text>
<text text-anchor="middle" x="2022" y="-13" font-family="Helvetica,sans-Serif" font-size="10.00" fill="#000000">/FullHistoryMerger.cxx</text>
</a>
</g>
</g>
<!-- Node89&#45;&gt;Node101 -->
<g id="edge12" class="edge">
<title>Node89&#45;&gt;Node101</title>
<path fill="none" stroke="#191970" d="M1272.4992,-122.6287C1451.5749,-114.9157 1823.5667,-95.6012 1949,-64 1955.1725,-62.4449 1961.4838,-60.4155 1967.6846,-58.1324"/>
<polygon fill="#191970" stroke="#191970" points="1272.133,-119.141 1262.2916,-123.0647 1272.4319,-126.1347 1272.133,-119.141"/>
</g>
<!-- Node102 -->
<g id="node14" class="node">
<title>Node102</title>
<g id="a_node14"><a xlink:href="../../d0/d24/IntegratingMerger_8cxx.html" target="_top" xlink:title="Implementation of O2 Mergers, v0.1. ">
<polygon fill="none" stroke="#000000" points="2103.5,-6 2103.5,-58 2230.5,-58 2230.5,-6 2103.5,-6"/>
<text text-anchor="start" x="2111.5" y="-46" font-family="Helvetica,sans-Serif" font-size="10.00" fill="#000000">/home/travis/build</text>
<text text-anchor="start" x="2111.5" y="-35" font-family="Helvetica,sans-Serif" font-size="10.00" fill="#000000">/AliceO2Group/AliceO2</text>
<text text-anchor="start" x="2111.5" y="-24" font-family="Helvetica,sans-Serif" font-size="10.00" fill="#000000">/Utilities/Mergers/src</text>
<text text-anchor="middle" x="2167" y="-13" font-family="Helvetica,sans-Serif" font-size="10.00" fill="#000000">/IntegratingMerger.cxx</text>
</a>
</g>
</g>
<!-- Node89&#45;&gt;Node102 -->
<g id="edge13" class="edge">
<title>Node89&#45;&gt;Node102</title>
<path fill="none" stroke="#191970" d="M1272.4944,-124.1588C1477.0162,-118.5885 1941.4533,-102.0625 2095,-64 2101.2402,-62.4531 2107.616,-60.3956 2113.8672,-58.0671"/>
<polygon fill="#191970" stroke="#191970" points="1272.2634,-120.6636 1262.3612,-124.4316 1272.4518,-127.6611 1272.2634,-120.6636"/>
</g>
</g>
</svg>
        <g id="navigator" transform="translate(0 0)" fill="#404254">
                <rect fill="#f2f5e9" fill-opacity="0.5" stroke="#606060" stroke-width=".5" x="0" y="0" width="60" height="60"/>
                <use id="zoomplus" xlink:href="#zoomPlus" x="17" y="9" onmousedown="handleZoom(evt,'in')"/>
                <use id="zoomminus" xlink:href="#zoomMin" x="42" y="9" onmousedown="handleZoom(evt,'out')"/>
                <use id="reset" xlink:href="#resetDef" x="30" y="36" onmousedown="handleReset()"/>
                <g id="arrowUp" xlink:href="#dirArrow" transform="translate(30 24)" onmousedown="handlePan(0,-1)">
                  <use xlink:href="#rim" fill="#404040">
                        <set attributeName="fill" to="#808080" begin="arrowUp.mouseover" end="arrowUp.mouseout"/>
                  </use>
                  <path fill="none" stroke="white" stroke-width="1.5" d="M0,-3.0v7 M-2.5,-0.5L0,-3.0L2.5,-0.5"/>
                </g>
                <g id="arrowRight" xlink:href="#dirArrow" transform="rotate(90) translate(36 -43)" onmousedown="handlePan(1,0)">
                  <use xlink:href="#rim" fill="#404040">
                        <set attributeName="fill" to="#808080" begin="arrowRight.mouseover" end="arrowRight.mouseout"/>
                  </use>
                  <path fill="none" stroke="white" stroke-width="1.5" d="M0,-3.0v7 M-2.5,-0.5L0,-3.0L2.5,-0.5"/>
                </g>
                <g id="arrowDown" xlink:href="#dirArrow" transform="rotate(180) translate(-30 -48)" onmousedown="handlePan(0,1)">
                  <use xlink:href="#rim" fill="#404040">
                        <set attributeName="fill" to="#808080" begin="arrowDown.mouseover" end="arrowDown.mouseout"/>
                  </use>
                  <path fill="none" stroke="white" stroke-width="1.5" d="M0,-3.0v7 M-2.5,-0.5L0,-3.0L2.5,-0.5"/>
                </g>
                <g id="arrowLeft" xlink:href="#dirArrow" transform="rotate(270) translate(-36 17)" onmousedown="handlePan(-1,0)">
                  <use xlink:href="#rim" fill="#404040">
                        <set attributeName="fill" to="#808080" begin="arrowLeft.mouseover" end="arrowLeft.mouseout"/>
                  </use>
                  <path fill="none" stroke="white" stroke-width="1.5" d="M0,-3.0v7 M-2.5,-0.5L0,-3.0L2.5,-0.5"/>
                </g>
        </g>
        <svg viewBox="0 0 15 15" width="100%" height="30px" preserveAspectRatio="xMaxYMin meet">
         <g id="arrow_out" transform="scale(0.3 0.3)">
          <a xlink:href="InputRecordWalker_8h__dep__incl_org.svg" target="_base">
           <rect id="button" ry="5" rx="5" y="6" x="6" height="38" width="38"
                fill="#f2f5e9" fill-opacity="0.5" stroke="#606060" stroke-width="1.0"/>
           <path id="arrow"
             d="M 11.500037,31.436501 C 11.940474,20.09759 22.043105,11.32322 32.158766,21.979434 L 37.068811,17.246167 C 37.068811,17.246167 37.088388,32 37.088388,32 L 22.160133,31.978069 C 22.160133,31.978069 26.997745,27.140456 26.997745,27.140456 C 18.528582,18.264221 13.291696,25.230495 11.500037,31.436501 z"
             style="fill:#404040;"/>
          </a>
         </g>
        </svg>
</svg>
