<?xml version="1.0" encoding="UTF-8" standalone="no"?>
<!DOCTYPE svg PUBLIC "-//W3C//DTD SVG 1.1//EN"
 "http://www.w3.org/Graphics/SVG/1.1/DTD/svg11.dtd">
<!-- Generated by graphviz version 2.40.1 (20161225.0304)
 -->
<!-- Title: GPUCA_NAMESPACE::gpu::SplineSpec&lt; DataT, XdimT, YdimT, 1 &gt; Pages: 1 -->
<!--zoomable 1723 -->
<svg id="main" version="1.1" xmlns="http://www.w3.org/2000/svg" xmlns:xlink="http://www.w3.org/1999/xlink" xml:space="preserve" onload="init(evt)">
<style type="text/css"><![CDATA[
.edge:hover path { stroke: red; }
.edge:hover polygon { stroke: red; fill: red; }
]]></style>
<script type="text/javascript"><![CDATA[
var edges = document.getElementsByTagName('g');
if (edges && edges.length) {
  for (var i=0;i<edges.length;i++) {
    if (edges[i].id.substr(0,4)=='edge') {
      edges[i].setAttribute('class','edge');
    }
  }
}
]]></script>
        <defs>
                <circle id="rim" cx="0" cy="0" r="7"/>
                <circle id="rim2" cx="0" cy="0" r="3.5"/>
                <g id="zoomPlus">
                        <use xlink:href="#rim" fill="#404040">
                                <set attributeName="fill" to="#808080" begin="zoomplus.mouseover" end="zoomplus.mouseout"/>
                        </use>
                        <path d="M-4,0h8M0,-4v8" fill="none" stroke="white" stroke-width="1.5" pointer-events="none"/>
                </g>
                <g id="zoomMin">
                        <use xlink:href="#rim" fill="#404040">
                                <set attributeName="fill" to="#808080" begin="zoomminus.mouseover" end="zoomminus.mouseout"/>
                        </use>
                        <path d="M-4,0h8" fill="none" stroke="white" stroke-width="1.5" pointer-events="none"/>
                </g>
                <g id="dirArrow">
                        <path fill="none" stroke="white" stroke-width="1.5" d="M0,-3.0v7 M-2.5,-0.5L0,-3.0L2.5,-0.5"/>
                </g>
               <g id="resetDef">
                       <use xlink:href="#rim2" fill="#404040">
                               <set attributeName="fill" to="#808080" begin="reset.mouseover" end="reset.mouseout"/>
                       </use>
               </g>
        </defs>

<script type="text/javascript">
var viewWidth = 866;
var viewHeight = 1723;
var sectionId = 'dynsection-1';
</script>
<script xlink:href="../../svgpan.js"/>
<svg id="graph" class="graph">
<g id="viewport">
<title>GPUCA_NAMESPACE::gpu::SplineSpec&lt; DataT, XdimT, YdimT, 1 &gt;</title>
<!-- Node4 -->
<g id="node1" class="node">
<title>Node4</title>
<polygon fill="#bfbfbf" stroke="#000000" points="244.5,-.5 244.5,-178.5 384.5,-178.5 384.5,-.5 244.5,-.5"/>
<text text-anchor="start" x="252.5" y="-166.5" font-family="Helvetica,sans-Serif" font-size="10.00" fill="#000000">GPUCA_NAMESPACE::gpu</text>
<text text-anchor="start" x="252.5" y="-155.5" font-family="Helvetica,sans-Serif" font-size="10.00" fill="#000000">::SplineSpec&lt; DataT,</text>
<text text-anchor="middle" x="314.5" y="-144.5" font-family="Helvetica,sans-Serif" font-size="10.00" fill="#000000"> XdimT, YdimT, 1 &gt;</text>
<polyline fill="none" stroke="#000000" points="244.5,-137.5 384.5,-137.5 "/>
<text text-anchor="middle" x="314.5" y="-125.5" font-family="Helvetica,sans-Serif" font-size="10.00" fill="#000000"> </text>
<polyline fill="none" stroke="#000000" points="244.5,-118.5 384.5,-118.5 "/>
<text text-anchor="start" x="252.5" y="-106.5" font-family="Helvetica,sans-Serif" font-size="10.00" fill="#000000">+ SplineSpec()</text>
<text text-anchor="start" x="252.5" y="-95.5" font-family="Helvetica,sans-Serif" font-size="10.00" fill="#000000">+ SplineSpec()</text>
<text text-anchor="start" x="252.5" y="-84.5" font-family="Helvetica,sans-Serif" font-size="10.00" fill="#000000">+ SplineSpec()</text>
<text text-anchor="start" x="252.5" y="-73.5" font-family="Helvetica,sans-Serif" font-size="10.00" fill="#000000">+ SplineSpec()</text>
<text text-anchor="start" x="252.5" y="-62.5" font-family="Helvetica,sans-Serif" font-size="10.00" fill="#000000">+ recreate()</text>
<text text-anchor="start" x="252.5" y="-51.5" font-family="Helvetica,sans-Serif" font-size="10.00" fill="#000000">+ recreate()</text>
<text text-anchor="start" x="252.5" y="-40.5" font-family="Helvetica,sans-Serif" font-size="10.00" fill="#000000">+ GPUd()</text>
<text text-anchor="start" x="252.5" y="-29.5" font-family="Helvetica,sans-Serif" font-size="10.00" fill="#000000">+ GPUd()</text>
<text text-anchor="start" x="252.5" y="-18.5" font-family="Helvetica,sans-Serif" font-size="10.00" fill="#000000">+ GPUd()</text>
<text text-anchor="start" x="252.5" y="-7.5" font-family="Helvetica,sans-Serif" font-size="10.00" fill="#000000">+ GPUgeneric()</text>
</g>
<!-- Node5 -->
<g id="node2" class="node">
<title>Node5</title>
<g id="a_node2"><a xlink:href="../../d0/d0e/classGPUCA__NAMESPACE_1_1gpu_1_1SplineSpec_3_01DataT_00_01XdimT_00_01YdimT_00_010_01_4.html" target="_top" xlink:title="{GPUCA_NAMESPACE::gpu\l::SplineSpec\&lt; DataT,\l XdimT, YdimT, 0 \&gt;\n||+ GPUd()\l+ GPUgeneric()\l+ GPUd()\l+ GPUgeneric()\l+ GPUgeneric()\l}">
<polygon fill="none" stroke="#000000" points="189.5,-226.5 189.5,-349.5 329.5,-349.5 329.5,-226.5 189.5,-226.5"/>
<text text-anchor="start" x="197.5" y="-337.5" font-family="Helvetica,sans-Serif" font-size="10.00" fill="#000000">GPUCA_NAMESPACE::gpu</text>
<text text-anchor="start" x="197.5" y="-326.5" font-family="Helvetica,sans-Serif" font-size="10.00" fill="#000000">::SplineSpec&lt; DataT,</text>
<text text-anchor="middle" x="259.5" y="-315.5" font-family="Helvetica,sans-Serif" font-size="10.00" fill="#000000"> XdimT, YdimT, 0 &gt;</text>
<polyline fill="none" stroke="#000000" points="189.5,-308.5 329.5,-308.5 "/>
<text text-anchor="middle" x="259.5" y="-296.5" font-family="Helvetica,sans-Serif" font-size="10.00" fill="#000000"> </text>
<polyline fill="none" stroke="#000000" points="189.5,-289.5 329.5,-289.5 "/>
<text text-anchor="start" x="197.5" y="-277.5" font-family="Helvetica,sans-Serif" font-size="10.00" fill="#000000">+ GPUd()</text>
<text text-anchor="start" x="197.5" y="-266.5" font-family="Helvetica,sans-Serif" font-size="10.00" fill="#000000">+ GPUgeneric()</text>
<text text-anchor="start" x="197.5" y="-255.5" font-family="Helvetica,sans-Serif" font-size="10.00" fill="#000000">+ GPUd()</text>
<text text-anchor="start" x="197.5" y="-244.5" font-family="Helvetica,sans-Serif" font-size="10.00" fill="#000000">+ GPUgeneric()</text>
<text text-anchor="start" x="197.5" y="-233.5" font-family="Helvetica,sans-Serif" font-size="10.00" fill="#000000">+ GPUgeneric()</text>
</a>
</g>
</g>
<!-- Node5&#45;&gt;Node4 -->
<g id="edge1" class="edge">
<title>Node5&#45;&gt;Node4</title>
<path fill="none" stroke="#191970" d="M279.3009,-216.5368C282.7194,-204.1992 286.3105,-191.2385 289.8386,-178.5052"/>
<polygon fill="none" stroke="#191970" points="275.8982,-215.7099 276.6009,-226.2815 282.644,-217.5791 275.8982,-215.7099"/>
</g>
<!-- Node6 -->
<g id="node3" class="node">
<title>Node6</title>
<g id="a_node3"><a xlink:href="../../d1/dc2/classGPUCA__NAMESPACE_1_1gpu_1_1SplineContainer.html" target="_top" xlink:title="{GPUCA_NAMESPACE::gpu\l::SplineContainer\&lt; DataT \&gt;\n||+ GPUd()\l+ SplineContainer()\l+ SplineContainer()\l+ ~SplineContainer()\l+ approximateFunction()\l+ writeToFile()\l+ GPUd()\l+ GPUd()\l+ GPUd()\l+ GPUd()\l+ GPUd()\l+ GPUd()\l+ GPUd()\l+ GPUd()\l+ GPUd()\l+ GPUd()\l+ GPUd()\l+ GPUd()\l+ GPUd()\l+ setXrange()\l+ print()\l+ GPUd()\l+ GPUd()\l+ cloneFromObject()\l+ moveBufferTo()\l+ destroy()\l+ setActualBufferAddress()\l+ setFutureBufferAddress()\l+ readFromFile()\l+ test()\l# recreate()\l# recreate()\l# ClassDefNV()\l}">
<polygon fill="none" stroke="#000000" points="308.5,-387.5 308.5,-807.5 460.5,-807.5 460.5,-387.5 308.5,-387.5"/>
<text text-anchor="start" x="316.5" y="-795.5" font-family="Helvetica,sans-Serif" font-size="10.00" fill="#000000">GPUCA_NAMESPACE::gpu</text>
<text text-anchor="middle" x="384.5" y="-784.5" font-family="Helvetica,sans-Serif" font-size="10.00" fill="#000000">::SplineContainer&lt; DataT &gt;</text>
<polyline fill="none" stroke="#000000" points="308.5,-777.5 460.5,-777.5 "/>
<text text-anchor="middle" x="384.5" y="-765.5" font-family="Helvetica,sans-Serif" font-size="10.00" fill="#000000"> </text>
<polyline fill="none" stroke="#000000" points="308.5,-758.5 460.5,-758.5 "/>
<text text-anchor="start" x="316.5" y="-746.5" font-family="Helvetica,sans-Serif" font-size="10.00" fill="#000000">+ GPUd()</text>
<text text-anchor="start" x="316.5" y="-735.5" font-family="Helvetica,sans-Serif" font-size="10.00" fill="#000000">+ SplineContainer()</text>
<text text-anchor="start" x="316.5" y="-724.5" font-family="Helvetica,sans-Serif" font-size="10.00" fill="#000000">+ SplineContainer()</text>
<text text-anchor="start" x="316.5" y="-713.5" font-family="Helvetica,sans-Serif" font-size="10.00" fill="#000000">+ ~SplineContainer()</text>
<text text-anchor="start" x="316.5" y="-702.5" font-family="Helvetica,sans-Serif" font-size="10.00" fill="#000000">+ approximateFunction()</text>
<text text-anchor="start" x="316.5" y="-691.5" font-family="Helvetica,sans-Serif" font-size="10.00" fill="#000000">+ writeToFile()</text>
<text text-anchor="start" x="316.5" y="-680.5" font-family="Helvetica,sans-Serif" font-size="10.00" fill="#000000">+ GPUd()</text>
<text text-anchor="start" x="316.5" y="-669.5" font-family="Helvetica,sans-Serif" font-size="10.00" fill="#000000">+ GPUd()</text>
<text text-anchor="start" x="316.5" y="-658.5" font-family="Helvetica,sans-Serif" font-size="10.00" fill="#000000">+ GPUd()</text>
<text text-anchor="start" x="316.5" y="-647.5" font-family="Helvetica,sans-Serif" font-size="10.00" fill="#000000">+ GPUd()</text>
<text text-anchor="start" x="316.5" y="-636.5" font-family="Helvetica,sans-Serif" font-size="10.00" fill="#000000">+ GPUd()</text>
<text text-anchor="start" x="316.5" y="-625.5" font-family="Helvetica,sans-Serif" font-size="10.00" fill="#000000">+ GPUd()</text>
<text text-anchor="start" x="316.5" y="-614.5" font-family="Helvetica,sans-Serif" font-size="10.00" fill="#000000">+ GPUd()</text>
<text text-anchor="start" x="316.5" y="-603.5" font-family="Helvetica,sans-Serif" font-size="10.00" fill="#000000">+ GPUd()</text>
<text text-anchor="start" x="316.5" y="-592.5" font-family="Helvetica,sans-Serif" font-size="10.00" fill="#000000">+ GPUd()</text>
<text text-anchor="start" x="316.5" y="-581.5" font-family="Helvetica,sans-Serif" font-size="10.00" fill="#000000">+ GPUd()</text>
<text text-anchor="start" x="316.5" y="-570.5" font-family="Helvetica,sans-Serif" font-size="10.00" fill="#000000">+ GPUd()</text>
<text text-anchor="start" x="316.5" y="-559.5" font-family="Helvetica,sans-Serif" font-size="10.00" fill="#000000">+ GPUd()</text>
<text text-anchor="start" x="316.5" y="-548.5" font-family="Helvetica,sans-Serif" font-size="10.00" fill="#000000">+ GPUd()</text>
<text text-anchor="start" x="316.5" y="-537.5" font-family="Helvetica,sans-Serif" font-size="10.00" fill="#000000">+ setXrange()</text>
<text text-anchor="start" x="316.5" y="-526.5" font-family="Helvetica,sans-Serif" font-size="10.00" fill="#000000">+ print()</text>
<text text-anchor="start" x="316.5" y="-515.5" font-family="Helvetica,sans-Serif" font-size="10.00" fill="#000000">+ GPUd()</text>
<text text-anchor="start" x="316.5" y="-504.5" font-family="Helvetica,sans-Serif" font-size="10.00" fill="#000000">+ GPUd()</text>
<text text-anchor="start" x="316.5" y="-493.5" font-family="Helvetica,sans-Serif" font-size="10.00" fill="#000000">+ cloneFromObject()</text>
<text text-anchor="start" x="316.5" y="-482.5" font-family="Helvetica,sans-Serif" font-size="10.00" fill="#000000">+ moveBufferTo()</text>
<text text-anchor="start" x="316.5" y="-471.5" font-family="Helvetica,sans-Serif" font-size="10.00" fill="#000000">+ destroy()</text>
<text text-anchor="start" x="316.5" y="-460.5" font-family="Helvetica,sans-Serif" font-size="10.00" fill="#000000">+ setActualBufferAddress()</text>
<text text-anchor="start" x="316.5" y="-449.5" font-family="Helvetica,sans-Serif" font-size="10.00" fill="#000000">+ setFutureBufferAddress()</text>
<text text-anchor="start" x="316.5" y="-438.5" font-family="Helvetica,sans-Serif" font-size="10.00" fill="#000000">+ readFromFile()</text>
<text text-anchor="start" x="316.5" y="-427.5" font-family="Helvetica,sans-Serif" font-size="10.00" fill="#000000">+ test()</text>
<text text-anchor="start" x="316.5" y="-416.5" font-family="Helvetica,sans-Serif" font-size="10.00" fill="#000000"># recreate()</text>
<text text-anchor="start" x="316.5" y="-405.5" font-family="Helvetica,sans-Serif" font-size="10.00" fill="#000000"># recreate()</text>
<text text-anchor="start" x="316.5" y="-394.5" font-family="Helvetica,sans-Serif" font-size="10.00" fill="#000000"># ClassDefNV()</text>
</a>
</g>
</g>
<!-- Node6&#45;&gt;Node5 -->
<g id="edge2" class="edge">
<title>Node6&#45;&gt;Node5</title>
<path fill="none" stroke="#191970" d="M304.5776,-399.6121C297.3884,-381.8117 290.5335,-364.8388 284.4367,-349.7431"/>
<polygon fill="none" stroke="#191970" points="301.3751,-401.0289 308.3653,-408.9905 307.8657,-398.4075 301.3751,-401.0289"/>
</g>
<!-- Node7 -->
<g id="node4" class="node">
<title>Node7</title>
<g id="a_node4"><a xlink:href="../../dc/d5e/classGPUCA__NAMESPACE_1_1gpu_1_1FlatObject.html" target="_top" xlink:title="GPUCA_GPUCODE. ">
<polygon fill="none" stroke="#000000" points="550.5,-866.5 550.5,-1220.5 708.5,-1220.5 708.5,-866.5 550.5,-866.5"/>
<text text-anchor="start" x="558.5" y="-1208.5" font-family="Helvetica,sans-Serif" font-size="10.00" fill="#000000">GPUCA_NAMESPACE::gpu</text>
<text text-anchor="middle" x="629.5" y="-1197.5" font-family="Helvetica,sans-Serif" font-size="10.00" fill="#000000">::FlatObject</text>
<polyline fill="none" stroke="#000000" points="550.5,-1190.5 708.5,-1190.5 "/>
<text text-anchor="middle" x="629.5" y="-1178.5" font-family="Helvetica,sans-Serif" font-size="10.00" fill="#000000"> </text>
<polyline fill="none" stroke="#000000" points="550.5,-1171.5 708.5,-1171.5 "/>
<text text-anchor="start" x="558.5" y="-1159.5" font-family="Helvetica,sans-Serif" font-size="10.00" fill="#000000">+ FlatObject()</text>
<text text-anchor="start" x="558.5" y="-1148.5" font-family="Helvetica,sans-Serif" font-size="10.00" fill="#000000">+ ~FlatObject()</text>
<text text-anchor="start" x="558.5" y="-1137.5" font-family="Helvetica,sans-Serif" font-size="10.00" fill="#000000">+ FlatObject()</text>
<text text-anchor="start" x="558.5" y="-1126.5" font-family="Helvetica,sans-Serif" font-size="10.00" fill="#000000">+ operator=()</text>
<text text-anchor="start" x="558.5" y="-1115.5" font-family="Helvetica,sans-Serif" font-size="10.00" fill="#000000">+ destroy()</text>
<text text-anchor="start" x="558.5" y="-1104.5" font-family="Helvetica,sans-Serif" font-size="10.00" fill="#000000">+ getFlatBufferSize()</text>
<text text-anchor="start" x="558.5" y="-1093.5" font-family="Helvetica,sans-Serif" font-size="10.00" fill="#000000">+ getFlatBufferPtr()</text>
<text text-anchor="start" x="558.5" y="-1082.5" font-family="Helvetica,sans-Serif" font-size="10.00" fill="#000000">+ isConstructed()</text>
<text text-anchor="start" x="558.5" y="-1071.5" font-family="Helvetica,sans-Serif" font-size="10.00" fill="#000000">+ isBufferInternal()</text>
<text text-anchor="start" x="558.5" y="-1060.5" font-family="Helvetica,sans-Serif" font-size="10.00" fill="#000000">+ adoptInternalBuffer()</text>
<text text-anchor="start" x="558.5" y="-1049.5" font-family="Helvetica,sans-Serif" font-size="10.00" fill="#000000">+ clearInternalBufferPtr()</text>
<text text-anchor="start" x="558.5" y="-1038.5" font-family="Helvetica,sans-Serif" font-size="10.00" fill="#000000">+ printC()</text>
<text text-anchor="start" x="558.5" y="-1027.5" font-family="Helvetica,sans-Serif" font-size="10.00" fill="#000000">+ alignSize()</text>
<text text-anchor="start" x="558.5" y="-1016.5" font-family="Helvetica,sans-Serif" font-size="10.00" fill="#000000">+ relocatePointer()</text>
<text text-anchor="start" x="558.5" y="-1005.5" font-family="Helvetica,sans-Serif" font-size="10.00" fill="#000000">+ writeToFile()</text>
<text text-anchor="start" x="558.5" y="-994.5" font-family="Helvetica,sans-Serif" font-size="10.00" fill="#000000">+ readFromFile()</text>
<text text-anchor="start" x="558.5" y="-983.5" font-family="Helvetica,sans-Serif" font-size="10.00" fill="#000000">+ stressTest()</text>
<text text-anchor="start" x="558.5" y="-972.5" font-family="Helvetica,sans-Serif" font-size="10.00" fill="#000000"># startConstruction()</text>
<text text-anchor="start" x="558.5" y="-961.5" font-family="Helvetica,sans-Serif" font-size="10.00" fill="#000000"># finishConstruction()</text>
<text text-anchor="start" x="558.5" y="-950.5" font-family="Helvetica,sans-Serif" font-size="10.00" fill="#000000"># cloneFromObject()</text>
<text text-anchor="start" x="558.5" y="-939.5" font-family="Helvetica,sans-Serif" font-size="10.00" fill="#000000"># releaseInternalBuffer()</text>
<text text-anchor="start" x="558.5" y="-928.5" font-family="Helvetica,sans-Serif" font-size="10.00" fill="#000000"># moveBufferTo()</text>
<text text-anchor="start" x="558.5" y="-917.5" font-family="Helvetica,sans-Serif" font-size="10.00" fill="#000000"># setActualBufferAddress()</text>
<text text-anchor="start" x="558.5" y="-906.5" font-family="Helvetica,sans-Serif" font-size="10.00" fill="#000000"># setFutureBufferAddress()</text>
<text text-anchor="start" x="558.5" y="-895.5" font-family="Helvetica,sans-Serif" font-size="10.00" fill="#000000"># ClassDefNV()</text>
<text text-anchor="start" x="558.5" y="-884.5" font-family="Helvetica,sans-Serif" font-size="10.00" fill="#000000"># getClassAlignmentBytes()</text>
<text text-anchor="start" x="558.5" y="-873.5" font-family="Helvetica,sans-Serif" font-size="10.00" fill="#000000"># getBufferAlignmentBytes()</text>
</a>
</g>
</g>
<!-- Node7&#45;&gt;Node6 -->
<g id="edge3" class="edge">
<title>Node7&#45;&gt;Node6</title>
<path fill="none" stroke="#191970" d="M545.6071,-882.8119C542.5463,-877.1312 539.5038,-871.5132 536.5,-866 512.2177,-821.4321 485.088,-773.074 460.545,-729.8365"/>
<polygon fill="none" stroke="#191970" points="542.612,-884.6325 550.429,-891.7841 548.778,-881.3187 542.612,-884.6325"/>
</g>
<!-- Node8 -->
<g id="node5" class="node">
<title>Node8</title>
<polygon fill="none" stroke="#bfbfbf" points="740.5,-1296 740.5,-1353 778.5,-1353 778.5,-1296 740.5,-1296"/>
<text text-anchor="middle" x="759.5" y="-1341" font-family="Helvetica,sans-Serif" font-size="10.00" fill="#000000">char</text>
<polyline fill="none" stroke="#bfbfbf" points="740.5,-1334 778.5,-1334 "/>
<text text-anchor="middle" x="759.5" y="-1322" font-family="Helvetica,sans-Serif" font-size="10.00" fill="#000000"> </text>
<polyline fill="none" stroke="#bfbfbf" points="740.5,-1315 778.5,-1315 "/>
<text text-anchor="middle" x="759.5" y="-1303" font-family="Helvetica,sans-Serif" font-size="10.00" fill="#000000"> </text>
</g>
<!-- Node8&#45;&gt;Node7 -->
<g id="edge4" class="edge">
<title>Node8&#45;&gt;Node7</title>
<path fill="none" stroke="#404040" d="M754.0204,-1295.8172C750.3315,-1278.9411 744.8022,-1257.3743 737.5,-1239 730.7159,-1221.9294 722.7443,-1204.4821 714.2569,-1187.3819"/>
<polygon fill="none" stroke="#404040" points="714.0209,-1186.9143 707.7459,-1183.3611 708.6123,-1176.2022 714.8873,-1179.7554 714.0209,-1186.9143"/>
<text text-anchor="middle" x="801" y="-1253" font-family="Helvetica,sans-Serif" font-size="10.00" fill="#000000"> #mFlatBufferPtr</text>
<text text-anchor="middle" x="801" y="-1242" font-family="Helvetica,sans-Serif" font-size="10.00" fill="#000000">#mFlatBufferContainer</text>
</g>
<!-- Node9 -->
<g id="node6" class="node">
<title>Node9</title>
<polygon fill="none" stroke="#bfbfbf" points="462,-1296 462,-1353 491,-1353 491,-1296 462,-1296"/>
<text text-anchor="middle" x="476.5" y="-1341" font-family="Helvetica,sans-Serif" font-size="10.00" fill="#000000">int</text>
<polyline fill="none" stroke="#bfbfbf" points="462,-1334 491,-1334 "/>
<text text-anchor="middle" x="476.5" y="-1322" font-family="Helvetica,sans-Serif" font-size="10.00" fill="#000000"> </text>
<polyline fill="none" stroke="#bfbfbf" points="462,-1315 491,-1315 "/>
<text text-anchor="middle" x="476.5" y="-1303" font-family="Helvetica,sans-Serif" font-size="10.00" fill="#000000"> </text>
</g>
<!-- Node9&#45;&gt;Node5 -->
<g id="edge15" class="edge">
<title>Node9&#45;&gt;Node5</title>
<path fill="none" stroke="#404040" d="M461.8332,-1316.304C435.8264,-1301.0131 381.6334,-1265.6079 352.5,-1221 258.1275,-1076.5005 268.7403,-1018.8762 244.5,-848 219.9695,-675.0779 237.2355,-469.1966 249.7299,-361.6874"/>
<polygon fill="none" stroke="#404040" points="249.7379,-361.6197 246.472,-355.1905 251.1506,-349.7032 254.4164,-356.1324 249.7379,-361.6197"/>
<text text-anchor="middle" x="269" y="-840" font-family="Helvetica,sans-Serif" font-size="10.00" fill="#000000"> +u</text>
<text text-anchor="middle" x="269" y="-829" font-family="Helvetica,sans-Serif" font-size="10.00" fill="#000000">+inpYdim</text>
</g>
<!-- Node9&#45;&gt;Node6 -->
<g id="edge14" class="edge">
<title>Node9&#45;&gt;Node6</title>
<path fill="none" stroke="#404040" d="M478.6741,-1295.8082C483.8613,-1218.9239 494.2853,-1002.158 462.5,-826 462.1054,-823.8133 461.6938,-821.6193 461.2659,-819.419"/>
<polygon fill="none" stroke="#404040" points="461.2524,-819.3533 456.1227,-814.2852 458.828,-807.6008 463.9577,-812.6689 461.2524,-819.3533"/>
<text text-anchor="middle" x="512.5" y="-1057.5" font-family="Helvetica,sans-Serif" font-size="10.00" fill="#000000"> #mNknots</text>
<text text-anchor="middle" x="512.5" y="-1046.5" font-family="Helvetica,sans-Serif" font-size="10.00" fill="#000000">#mYdim</text>
<text text-anchor="middle" x="512.5" y="-1035.5" font-family="Helvetica,sans-Serif" font-size="10.00" fill="#000000">#mXdim</text>
<text text-anchor="middle" x="512.5" y="-1024.5" font-family="Helvetica,sans-Serif" font-size="10.00" fill="#000000">+const</text>
</g>
<!-- Node9&#45;&gt;Node7 -->
<g id="edge5" class="edge">
<title>Node9&#45;&gt;Node7</title>
<path fill="none" stroke="#404040" d="M491.1033,-1299.9922C503.4412,-1279.1259 521.4546,-1248.2809 536.5,-1221 539.1225,-1216.2448 541.7709,-1211.4095 544.4324,-1206.5217"/>
<polygon fill="none" stroke="#404040" points="544.5543,-1206.2968 543.8982,-1199.1156 550.2747,-1195.748 550.9308,-1202.9292 544.5543,-1206.2968"/>
<text text-anchor="middle" x="569" y="-1247.5" font-family="Helvetica,sans-Serif" font-size="10.00" fill="#000000"> #mFlatBufferSize</text>
</g>
<!-- Node10 -->
<g id="node7" class="node">
<title>Node10</title>
<polygon fill="none" stroke="#bfbfbf" points="597,-1296 597,-1353 658,-1353 658,-1296 597,-1296"/>
<text text-anchor="middle" x="627.5" y="-1341" font-family="Helvetica,sans-Serif" font-size="10.00" fill="#000000">unsigned</text>
<polyline fill="none" stroke="#bfbfbf" points="597,-1334 658,-1334 "/>
<text text-anchor="middle" x="627.5" y="-1322" font-family="Helvetica,sans-Serif" font-size="10.00" fill="#000000"> </text>
<polyline fill="none" stroke="#bfbfbf" points="597,-1315 658,-1315 "/>
<text text-anchor="middle" x="627.5" y="-1303" font-family="Helvetica,sans-Serif" font-size="10.00" fill="#000000"> </text>
</g>
<!-- Node10&#45;&gt;Node7 -->
<g id="edge6" class="edge">
<title>Node10&#45;&gt;Node7</title>
<path fill="none" stroke="#404040" d="M627.7046,-1295.7486C627.8214,-1279.3403 627.9789,-1257.2097 628.1524,-1232.8401"/>
<polygon fill="none" stroke="#404040" points="628.1532,-1232.7119 624.1961,-1226.6836 628.2387,-1220.7123 632.1958,-1226.7406 628.1532,-1232.7119"/>
<text text-anchor="middle" x="682" y="-1247.5" font-family="Helvetica,sans-Serif" font-size="10.00" fill="#000000"> #mConstructionMask</text>
</g>
<!-- Node11 -->
<g id="node8" class="node">
<title>Node11</title>
<polygon fill="none" stroke="#bfbfbf" points="361.5,-1015 361.5,-1072 407.5,-1072 407.5,-1015 361.5,-1015"/>
<text text-anchor="middle" x="384.5" y="-1060" font-family="Helvetica,sans-Serif" font-size="10.00" fill="#000000">DataT</text>
<polyline fill="none" stroke="#bfbfbf" points="361.5,-1053 407.5,-1053 "/>
<text text-anchor="middle" x="384.5" y="-1041" font-family="Helvetica,sans-Serif" font-size="10.00" fill="#000000"> </text>
<polyline fill="none" stroke="#bfbfbf" points="361.5,-1034 407.5,-1034 "/>
<text text-anchor="middle" x="384.5" y="-1022" font-family="Helvetica,sans-Serif" font-size="10.00" fill="#000000"> </text>
</g>
<!-- Node11&#45;&gt;Node6 -->
<g id="edge7" class="edge">
<title>Node11&#45;&gt;Node6</title>
<path fill="none" stroke="#404040" d="M384.5,-1014.9222C384.5,-974.5905 384.5,-897.235 384.5,-819.9651"/>
<polygon fill="none" stroke="#404040" points="384.5001,-819.5702 380.5,-813.5702 384.5,-807.5702 388.5,-813.5702 384.5001,-819.5702"/>
<text text-anchor="middle" x="423" y="-834.5" font-family="Helvetica,sans-Serif" font-size="10.00" fill="#000000"> #mParameters</text>
</g>
<!-- Node12 -->
<g id="node9" class="node">
<title>Node12</title>
<g id="a_node9"><a xlink:href="../../d0/d36/classGPUCA__NAMESPACE_1_1gpu_1_1Spline1D.html" target="_top" xlink:title="{GPUCA_NAMESPACE::gpu\l::Spline1D\&lt; DataT \&gt;\n||+ operator=()\l+ ClassDefNV()\l+ readFromFile()\l}">
<polygon fill="none" stroke="#000000" points="79.5,-998.5 79.5,-1088.5 219.5,-1088.5 219.5,-998.5 79.5,-998.5"/>
<text text-anchor="start" x="87.5" y="-1076.5" font-family="Helvetica,sans-Serif" font-size="10.00" fill="#000000">GPUCA_NAMESPACE::gpu</text>
<text text-anchor="middle" x="149.5" y="-1065.5" font-family="Helvetica,sans-Serif" font-size="10.00" fill="#000000">::Spline1D&lt; DataT &gt;</text>
<polyline fill="none" stroke="#000000" points="79.5,-1058.5 219.5,-1058.5 "/>
<text text-anchor="middle" x="149.5" y="-1046.5" font-family="Helvetica,sans-Serif" font-size="10.00" fill="#000000"> </text>
<polyline fill="none" stroke="#000000" points="79.5,-1039.5 219.5,-1039.5 "/>
<text text-anchor="start" x="87.5" y="-1027.5" font-family="Helvetica,sans-Serif" font-size="10.00" fill="#000000">+ operator=()</text>
<text text-anchor="start" x="87.5" y="-1016.5" font-family="Helvetica,sans-Serif" font-size="10.00" fill="#000000">+ ClassDefNV()</text>
<text text-anchor="start" x="87.5" y="-1005.5" font-family="Helvetica,sans-Serif" font-size="10.00" fill="#000000">+ readFromFile()</text>
</a>
</g>
</g>
<!-- Node12&#45;&gt;Node6 -->
<g id="edge8" class="edge">
<title>Node12&#45;&gt;Node6</title>
<path fill="none" stroke="#404040" d="M190.4321,-998.1373C222.9631,-960.2174 267.7862,-903.5564 297.5,-848 302.5626,-838.5344 307.4246,-828.7151 312.0808,-818.6849"/>
<polygon fill="none" stroke="#404040" points="312.095,-818.6535 310.9307,-811.5369 317.0521,-807.7251 318.2163,-814.8417 312.095,-818.6535"/>
<text text-anchor="middle" x="328.5" y="-834.5" font-family="Helvetica,sans-Serif" font-size="10.00" fill="#000000"> #mGrid</text>
</g>
<!-- Node13 -->
<g id="node10" class="node">
<title>Node13</title>
<g id="a_node10"><a xlink:href="../../db/d2c/classGPUCA__NAMESPACE_1_1gpu_1_1Spline1DSpec.html" target="_top" xlink:title="{GPUCA_NAMESPACE::gpu\l::Spline1DSpec\&lt; DataT,\l 0, SplineUtil::getSpec(0)\&gt;\n||}">
<polygon fill="none" stroke="#000000" points="150.5,-1388.5 150.5,-1467.5 296.5,-1467.5 296.5,-1388.5 150.5,-1388.5"/>
<text text-anchor="start" x="158.5" y="-1455.5" font-family="Helvetica,sans-Serif" font-size="10.00" fill="#000000">GPUCA_NAMESPACE::gpu</text>
<text text-anchor="start" x="158.5" y="-1444.5" font-family="Helvetica,sans-Serif" font-size="10.00" fill="#000000">::Spline1DSpec&lt; DataT,</text>
<text text-anchor="middle" x="223.5" y="-1433.5" font-family="Helvetica,sans-Serif" font-size="10.00" fill="#000000"> 0, SplineUtil::getSpec(0)&gt;</text>
<polyline fill="none" stroke="#000000" points="150.5,-1426.5 296.5,-1426.5 "/>
<text text-anchor="middle" x="223.5" y="-1414.5" font-family="Helvetica,sans-Serif" font-size="10.00" fill="#000000"> </text>
<polyline fill="none" stroke="#000000" points="150.5,-1407.5 296.5,-1407.5 "/>
<text text-anchor="middle" x="223.5" y="-1395.5" font-family="Helvetica,sans-Serif" font-size="10.00" fill="#000000"> </text>
</a>
</g>
</g>
<!-- Node13&#45;&gt;Node12 -->
<g id="edge9" class="edge">
<title>Node13&#45;&gt;Node12</title>
<path fill="none" stroke="#191970" d="M215.6891,-1378.4956C210.9842,-1349.4594 204.7162,-1312.0909 198.5,-1279 186.0097,-1212.5101 169.7053,-1135.8651 159.4158,-1088.5436"/>
<polygon fill="none" stroke="#191970" points="212.2384,-1379.0825 217.2854,-1388.3979 219.1492,-1377.9683 212.2384,-1379.0825"/>
</g>
<!-- Node14 -->
<g id="node11" class="node">
<title>Node14</title>
<g id="a_node11"><a xlink:href="../../db/d2c/classGPUCA__NAMESPACE_1_1gpu_1_1Spline1DSpec.html" target="_top" xlink:title="{GPUCA_NAMESPACE::gpu\l::Spline1DSpec\&lt; DataT,\l YdimT, SpecT \&gt;\n||}">
<polygon fill="none" stroke="#000000" points="80.5,-1635.5 80.5,-1714.5 220.5,-1714.5 220.5,-1635.5 80.5,-1635.5"/>
<text text-anchor="start" x="88.5" y="-1702.5" font-family="Helvetica,sans-Serif" font-size="10.00" fill="#000000">GPUCA_NAMESPACE::gpu</text>
<text text-anchor="start" x="88.5" y="-1691.5" font-family="Helvetica,sans-Serif" font-size="10.00" fill="#000000">::Spline1DSpec&lt; DataT,</text>
<text text-anchor="middle" x="150.5" y="-1680.5" font-family="Helvetica,sans-Serif" font-size="10.00" fill="#000000"> YdimT, SpecT &gt;</text>
<polyline fill="none" stroke="#000000" points="80.5,-1673.5 220.5,-1673.5 "/>
<text text-anchor="middle" x="150.5" y="-1661.5" font-family="Helvetica,sans-Serif" font-size="10.00" fill="#000000"> </text>
<polyline fill="none" stroke="#000000" points="80.5,-1654.5 220.5,-1654.5 "/>
<text text-anchor="middle" x="150.5" y="-1642.5" font-family="Helvetica,sans-Serif" font-size="10.00" fill="#000000"> </text>
</a>
</g>
</g>
<!-- Node14&#45;&gt;Node13 -->
<g id="edge10" class="edge">
<title>Node14&#45;&gt;Node13</title>
<path fill="none" stroke="#ffa500" d="M202.0144,-1626.9557C204.0806,-1623.7329 205.9347,-1620.4078 207.5,-1617 229.4917,-1569.1213 230.2438,-1507.2629 227.7153,-1467.602"/>
<polygon fill="#ffa500" stroke="#ffa500" points="199.0657,-1625.0623 196.1026,-1635.2344 204.7624,-1629.1303 199.0657,-1625.0623"/>
<text text-anchor="start" x="215.5" y="-1609" font-family="Helvetica,sans-Serif" font-size="10.00" fill="#000000"> &lt; DataT, 0, SplineUtil</text>
<text text-anchor="middle" x="270" y="-1598" font-family="Helvetica,sans-Serif" font-size="10.00" fill="#000000">::getSpec(0)&gt;</text>
</g>
<!-- Node16 -->
<g id="node13" class="node">
<title>Node16</title>
<g id="a_node13"><a xlink:href="../../db/d2c/classGPUCA__NAMESPACE_1_1gpu_1_1Spline1DSpec.html" target="_top" xlink:title="{GPUCA_NAMESPACE::gpu\l::Spline1DSpec\&lt; DataT,\l YdimT, SplineUtil::getSpec\l(YdimT)\&gt;\n||}">
<polygon fill="none" stroke="#000000" points="0,-1486.5 0,-1576.5 149,-1576.5 149,-1486.5 0,-1486.5"/>
<text text-anchor="start" x="8" y="-1564.5" font-family="Helvetica,sans-Serif" font-size="10.00" fill="#000000">GPUCA_NAMESPACE::gpu</text>
<text text-anchor="start" x="8" y="-1553.5" font-family="Helvetica,sans-Serif" font-size="10.00" fill="#000000">::Spline1DSpec&lt; DataT,</text>
<text text-anchor="start" x="8" y="-1542.5" font-family="Helvetica,sans-Serif" font-size="10.00" fill="#000000"> YdimT, SplineUtil::getSpec</text>
<text text-anchor="middle" x="74.5" y="-1531.5" font-family="Helvetica,sans-Serif" font-size="10.00" fill="#000000">(YdimT)&gt;</text>
<polyline fill="none" stroke="#000000" points="0,-1524.5 149,-1524.5 "/>
<text text-anchor="middle" x="74.5" y="-1512.5" font-family="Helvetica,sans-Serif" font-size="10.00" fill="#000000"> </text>
<polyline fill="none" stroke="#000000" points="0,-1505.5 149,-1505.5 "/>
<text text-anchor="middle" x="74.5" y="-1493.5" font-family="Helvetica,sans-Serif" font-size="10.00" fill="#000000"> </text>
</a>
</g>
</g>
<!-- Node14&#45;&gt;Node16 -->
<g id="edge13" class="edge">
<title>Node14&#45;&gt;Node16</title>
<path fill="none" stroke="#ffa500" d="M80.2152,-1627.8243C77.6602,-1624.3995 75.3906,-1620.7911 73.5,-1617 67.405,-1604.7783 65.8199,-1590.2986 66.2904,-1576.7623"/>
<polygon fill="#ffa500" stroke="#ffa500" points="77.5378,-1630.0785 86.6512,-1635.4819 82.8965,-1625.5746 77.5378,-1630.0785"/>
<text text-anchor="start" x="73.5" y="-1609" font-family="Helvetica,sans-Serif" font-size="10.00" fill="#000000"> &lt; DataT, YdimT, SplineUtil</text>
<text text-anchor="middle" x="140.5" y="-1598" font-family="Helvetica,sans-Serif" font-size="10.00" fill="#000000">::getSpec(YdimT)&gt;</text>
</g>
<!-- Node15 -->
<g id="node12" class="node">
<title>Node15</title>
<g id="a_node12"><a xlink:href="../../d0/d36/classGPUCA__NAMESPACE_1_1gpu_1_1Spline1D.html" target="_top" xlink:title="{GPUCA_NAMESPACE::gpu\l::Spline1D\&lt; DataT, YdimT \&gt;\n||+ operator=()\l+ ClassDefNV()\l+ readFromFile()\l}">
<polygon fill="none" stroke="#000000" points="35,-1279.5 35,-1369.5 190,-1369.5 190,-1279.5 35,-1279.5"/>
<text text-anchor="start" x="43" y="-1357.5" font-family="Helvetica,sans-Serif" font-size="10.00" fill="#000000">GPUCA_NAMESPACE::gpu</text>
<text text-anchor="middle" x="112.5" y="-1346.5" font-family="Helvetica,sans-Serif" font-size="10.00" fill="#000000">::Spline1D&lt; DataT, YdimT &gt;</text>
<polyline fill="none" stroke="#000000" points="35,-1339.5 190,-1339.5 "/>
<text text-anchor="middle" x="112.5" y="-1327.5" font-family="Helvetica,sans-Serif" font-size="10.00" fill="#000000"> </text>
<polyline fill="none" stroke="#000000" points="35,-1320.5 190,-1320.5 "/>
<text text-anchor="start" x="43" y="-1308.5" font-family="Helvetica,sans-Serif" font-size="10.00" fill="#000000">+ operator=()</text>
<text text-anchor="start" x="43" y="-1297.5" font-family="Helvetica,sans-Serif" font-size="10.00" fill="#000000">+ ClassDefNV()</text>
<text text-anchor="start" x="43" y="-1286.5" font-family="Helvetica,sans-Serif" font-size="10.00" fill="#000000">+ readFromFile()</text>
</a>
</g>
</g>
<!-- Node15&#45;&gt;Node12 -->
<g id="edge11" class="edge">
<title>Node15&#45;&gt;Node12</title>
<path fill="none" stroke="#ffa500" d="M119.7889,-1269.1436C126.7473,-1216.2974 137.1029,-1137.6509 143.5701,-1088.5355"/>
<polygon fill="#ffa500" stroke="#ffa500" points="116.2802,-1268.9811 118.4447,-1279.3525 123.2203,-1269.895 116.2802,-1268.9811"/>
<text text-anchor="middle" x="151" y="-1247.5" font-family="Helvetica,sans-Serif" font-size="10.00" fill="#000000"> &lt; DataT &gt;</text>
</g>
<!-- Node16&#45;&gt;Node15 -->
<g id="edge12" class="edge">
<title>Node16&#45;&gt;Node15</title>
<path fill="none" stroke="#191970" d="M84.6383,-1476.2731C90.7627,-1442.9109 98.4703,-1400.9252 104.2254,-1369.5749"/>
<polygon fill="none" stroke="#191970" points="81.1555,-1475.8611 82.7923,-1486.3288 88.0404,-1477.1251 81.1555,-1475.8611"/>
</g>
<!-- Node17 -->
<g id="node14" class="node">
<title>Node17</title>
<polygon fill="none" stroke="#bfbfbf" points="348,-259.5 348,-316.5 391,-316.5 391,-259.5 348,-259.5"/>
<text text-anchor="middle" x="369.5" y="-304.5" font-family="Helvetica,sans-Serif" font-size="10.00" fill="#000000">const</text>
<polyline fill="none" stroke="#bfbfbf" points="348,-297.5 391,-297.5 "/>
<text text-anchor="middle" x="369.5" y="-285.5" font-family="Helvetica,sans-Serif" font-size="10.00" fill="#000000"> </text>
<polyline fill="none" stroke="#bfbfbf" points="348,-278.5 391,-278.5 "/>
<text text-anchor="middle" x="369.5" y="-266.5" font-family="Helvetica,sans-Serif" font-size="10.00" fill="#000000"> </text>
</g>
<!-- Node17&#45;&gt;Node4 -->
<g id="edge16" class="edge">
<title>Node17&#45;&gt;Node4</title>
<path fill="none" stroke="#404040" d="M361.5025,-259.1364C356.3869,-240.6738 349.4163,-215.5162 342.4102,-190.2305"/>
<polygon fill="none" stroke="#404040" points="342.3995,-190.1916 336.9426,-185.4775 339.1952,-178.6273 344.6521,-183.3413 342.3995,-190.1916"/>
<text text-anchor="middle" x="355.5" y="-200" font-family="Helvetica,sans-Serif" font-size="10.00" fill="#000000"> +u</text>
</g>
</g>
</svg>
        <g id="navigator" transform="translate(0 0)" fill="#404254">
                <rect fill="#f2f5e9" fill-opacity="0.5" stroke="#606060" stroke-width=".5" x="0" y="0" width="60" height="60"/>
                <use id="zoomplus" xlink:href="#zoomPlus" x="17" y="9" onmousedown="handleZoom(evt,'in')"/>
                <use id="zoomminus" xlink:href="#zoomMin" x="42" y="9" onmousedown="handleZoom(evt,'out')"/>
                <use id="reset" xlink:href="#resetDef" x="30" y="36" onmousedown="handleReset()"/>
                <g id="arrowUp" xlink:href="#dirArrow" transform="translate(30 24)" onmousedown="handlePan(0,-1)">
                  <use xlink:href="#rim" fill="#404040">
                        <set attributeName="fill" to="#808080" begin="arrowUp.mouseover" end="arrowUp.mouseout"/>
                  </use>
                  <path fill="none" stroke="white" stroke-width="1.5" d="M0,-3.0v7 M-2.5,-0.5L0,-3.0L2.5,-0.5"/>
                </g>
                <g id="arrowRight" xlink:href="#dirArrow" transform="rotate(90) translate(36 -43)" onmousedown="handlePan(1,0)">
                  <use xlink:href="#rim" fill="#404040">
                        <set attributeName="fill" to="#808080" begin="arrowRight.mouseover" end="arrowRight.mouseout"/>
                  </use>
                  <path fill="none" stroke="white" stroke-width="1.5" d="M0,-3.0v7 M-2.5,-0.5L0,-3.0L2.5,-0.5"/>
                </g>
                <g id="arrowDown" xlink:href="#dirArrow" transform="rotate(180) translate(-30 -48)" onmousedown="handlePan(0,1)">
                  <use xlink:href="#rim" fill="#404040">
                        <set attributeName="fill" to="#808080" begin="arrowDown.mouseover" end="arrowDown.mouseout"/>
                  </use>
                  <path fill="none" stroke="white" stroke-width="1.5" d="M0,-3.0v7 M-2.5,-0.5L0,-3.0L2.5,-0.5"/>
                </g>
                <g id="arrowLeft" xlink:href="#dirArrow" transform="rotate(270) translate(-36 17)" onmousedown="handlePan(-1,0)">
                  <use xlink:href="#rim" fill="#404040">
                        <set attributeName="fill" to="#808080" begin="arrowLeft.mouseover" end="arrowLeft.mouseout"/>
                  </use>
                  <path fill="none" stroke="white" stroke-width="1.5" d="M0,-3.0v7 M-2.5,-0.5L0,-3.0L2.5,-0.5"/>
                </g>
        </g>
        <svg viewBox="0 0 15 15" width="100%" height="30px" preserveAspectRatio="xMaxYMin meet">
         <g id="arrow_out" transform="scale(0.3 0.3)">
          <a xlink:href="classGPUCA__NAMESPACE_1_1gpu_1_1SplineSpec_3_01DataT_00_01XdimT_00_01YdimT_00_011_01_4__coll__graph_org.svg" target="_base">
           <rect id="button" ry="5" rx="5" y="6" x="6" height="38" width="38"
                fill="#f2f5e9" fill-opacity="0.5" stroke="#606060" stroke-width="1.0"/>
           <path id="arrow"
             d="M 11.500037,31.436501 C 11.940474,20.09759 22.043105,11.32322 32.158766,21.979434 L 37.068811,17.246167 C 37.068811,17.246167 37.088388,32 37.088388,32 L 22.160133,31.978069 C 22.160133,31.978069 26.997745,27.140456 26.997745,27.140456 C 18.528582,18.264221 13.291696,25.230495 11.500037,31.436501 z"
             style="fill:#404040;"/>
          </a>
         </g>
        </svg>
</svg>
