<?xml version="1.0" encoding="UTF-8" standalone="no"?>
<!DOCTYPE svg PUBLIC "-//W3C//DTD SVG 1.1//EN"
 "http://www.w3.org/Graphics/SVG/1.1/DTD/svg11.dtd">
<!-- Generated by graphviz version 2.40.1 (20161225.0304)
 -->
<!-- Title: ROOT::Math::DisplacementVector3D&lt; CoordSystem, Tag &gt; Pages: 1 -->
<svg width="320pt" height="204pt"
 viewBox="0.00 0.00 320.00 204.00" xmlns="http://www.w3.org/2000/svg" xmlns:xlink="http://www.w3.org/1999/xlink">
<g id="graph0" class="graph" transform="scale(1 1) rotate(0) translate(4 200)">
<title>ROOT::Math::DisplacementVector3D&lt; CoordSystem, Tag &gt;</title>
<!-- Node0 -->
<g id="node1" class="node">
<title>Node0</title>
<polygon fill="#bfbfbf" stroke="#000000" points="82,-116.5 82,-195.5 229,-195.5 229,-116.5 82,-116.5"/>
<text text-anchor="start" x="90" y="-183.5" font-family="Helvetica,sans-Serif" font-size="10.00" fill="#000000">ROOT::Math::Displacement</text>
<text text-anchor="start" x="90" y="-172.5" font-family="Helvetica,sans-Serif" font-size="10.00" fill="#000000">Vector3D&lt; CoordSystem,</text>
<text text-anchor="middle" x="155.5" y="-161.5" font-family="Helvetica,sans-Serif" font-size="10.00" fill="#000000"> Tag &gt;</text>
<polyline fill="none" stroke="#000000" points="82,-154.5 229,-154.5 "/>
<text text-anchor="middle" x="155.5" y="-142.5" font-family="Helvetica,sans-Serif" font-size="10.00" fill="#000000"> </text>
<polyline fill="none" stroke="#000000" points="82,-135.5 229,-135.5 "/>
<text text-anchor="middle" x="155.5" y="-123.5" font-family="Helvetica,sans-Serif" font-size="10.00" fill="#000000"> </text>
</g>
<!-- Node1 -->
<g id="node2" class="node">
<title>Node1</title>
<g id="a_node2"><a xlink:href="../../dc/d37/classROOT_1_1Math_1_1DisplacementVector3D.html" target="_top" xlink:title="{ROOT::Math::Displacement\lVector3D\&lt; float \&gt;\n||}">
<polygon fill="none" stroke="#000000" points="0,-.5 0,-68.5 147,-68.5 147,-.5 0,-.5"/>
<text text-anchor="start" x="8" y="-56.5" font-family="Helvetica,sans-Serif" font-size="10.00" fill="#000000">ROOT::Math::Displacement</text>
<text text-anchor="middle" x="73.5" y="-45.5" font-family="Helvetica,sans-Serif" font-size="10.00" fill="#000000">Vector3D&lt; float &gt;</text>
<polyline fill="none" stroke="#000000" points="0,-38.5 147,-38.5 "/>
<text text-anchor="middle" x="73.5" y="-26.5" font-family="Helvetica,sans-Serif" font-size="10.00" fill="#000000"> </text>
<polyline fill="none" stroke="#000000" points="0,-19.5 147,-19.5 "/>
<text text-anchor="middle" x="73.5" y="-7.5" font-family="Helvetica,sans-Serif" font-size="10.00" fill="#000000"> </text>
</a>
</g>
</g>
<!-- Node0&#45;&gt;Node1 -->
<g id="edge1" class="edge">
<title>Node0&#45;&gt;Node1</title>
<path fill="none" stroke="#ffa500" d="M122.9454,-107.7636C114.1169,-94.6823 104.7422,-80.7918 96.5564,-68.6628"/>
<polygon fill="#ffa500" stroke="#ffa500" points="120.1548,-109.8854 128.6501,-116.2164 125.9571,-105.9695 120.1548,-109.8854"/>
<text text-anchor="middle" x="138.5" y="-90" font-family="Helvetica,sans-Serif" font-size="10.00" fill="#000000"> &lt; float &gt;</text>
</g>
<!-- Node2 -->
<g id="node3" class="node">
<title>Node2</title>
<g id="a_node3"><a xlink:href="../../dc/d37/classROOT_1_1Math_1_1DisplacementVector3D.html" target="_top" xlink:title="{ROOT::Math::Displacement\lVector3D\&lt; Float_t \&gt;\n||}">
<polygon fill="none" stroke="#000000" points="165,-.5 165,-68.5 312,-68.5 312,-.5 165,-.5"/>
<text text-anchor="start" x="173" y="-56.5" font-family="Helvetica,sans-Serif" font-size="10.00" fill="#000000">ROOT::Math::Displacement</text>
<text text-anchor="middle" x="238.5" y="-45.5" font-family="Helvetica,sans-Serif" font-size="10.00" fill="#000000">Vector3D&lt; Float_t &gt;</text>
<polyline fill="none" stroke="#000000" points="165,-38.5 312,-38.5 "/>
<text text-anchor="middle" x="238.5" y="-26.5" font-family="Helvetica,sans-Serif" font-size="10.00" fill="#000000"> </text>
<polyline fill="none" stroke="#000000" points="165,-19.5 312,-19.5 "/>
<text text-anchor="middle" x="238.5" y="-7.5" font-family="Helvetica,sans-Serif" font-size="10.00" fill="#000000"> </text>
</a>
</g>
</g>
<!-- Node0&#45;&gt;Node2 -->
<g id="edge2" class="edge">
<title>Node0&#45;&gt;Node2</title>
<path fill="none" stroke="#ffa500" d="M188.4516,-107.7636C197.3878,-94.6823 206.8768,-80.7918 215.1625,-68.6628"/>
<polygon fill="#ffa500" stroke="#ffa500" points="185.4281,-105.9848 182.6773,-116.2164 191.2081,-109.9334 185.4281,-105.9848"/>
<text text-anchor="middle" x="231" y="-90" font-family="Helvetica,sans-Serif" font-size="10.00" fill="#000000"> &lt; Float_t &gt;</text>
</g>
</g>
</svg>
