<?xml version="1.0" encoding="UTF-8" standalone="no"?>
<!DOCTYPE svg PUBLIC "-//W3C//DTD SVG 1.1//EN"
 "http://www.w3.org/Graphics/SVG/1.1/DTD/svg11.dtd">
<!-- Generated by graphviz version 2.40.1 (20161225.0304)
 -->
<!-- Title: /home/travis/build/AliceO2Group/AliceO2/Common/MathUtils/test/testCartesian.cxx Pages: 1 -->
<!--zoomable 296 -->
<svg id="main" version="1.1" xmlns="http://www.w3.org/2000/svg" xmlns:xlink="http://www.w3.org/1999/xlink" xml:space="preserve" onload="init(evt)">
<style type="text/css"><![CDATA[
.edge:hover path { stroke: red; }
.edge:hover polygon { stroke: red; fill: red; }
]]></style>
<script type="text/javascript"><![CDATA[
var edges = document.getElementsByTagName('g');
if (edges && edges.length) {
  for (var i=0;i<edges.length;i++) {
    if (edges[i].id.substr(0,4)=='edge') {
      edges[i].setAttribute('class','edge');
    }
  }
}
]]></script>
        <defs>
                <circle id="rim" cx="0" cy="0" r="7"/>
                <circle id="rim2" cx="0" cy="0" r="3.5"/>
                <g id="zoomPlus">
                        <use xlink:href="#rim" fill="#404040">
                                <set attributeName="fill" to="#808080" begin="zoomplus.mouseover" end="zoomplus.mouseout"/>
                        </use>
                        <path d="M-4,0h8M0,-4v8" fill="none" stroke="white" stroke-width="1.5" pointer-events="none"/>
                </g>
                <g id="zoomMin">
                        <use xlink:href="#rim" fill="#404040">
                                <set attributeName="fill" to="#808080" begin="zoomminus.mouseover" end="zoomminus.mouseout"/>
                        </use>
                        <path d="M-4,0h8" fill="none" stroke="white" stroke-width="1.5" pointer-events="none"/>
                </g>
                <g id="dirArrow">
                        <path fill="none" stroke="white" stroke-width="1.5" d="M0,-3.0v7 M-2.5,-0.5L0,-3.0L2.5,-0.5"/>
                </g>
               <g id="resetDef">
                       <use xlink:href="#rim2" fill="#404040">
                               <set attributeName="fill" to="#808080" begin="reset.mouseover" end="reset.mouseout"/>
                       </use>
               </g>
        </defs>

<script type="text/javascript">
var viewWidth = 1913;
var viewHeight = 296;
var sectionId = 'dynsection-0';
</script>
<script xlink:href="../../svgpan.js"/>
<svg id="graph" class="graph">
<g id="viewport">
<title>/home/travis/build/AliceO2Group/AliceO2/Common/MathUtils/test/testCartesian.cxx</title>
<!-- Node0 -->
<g id="node1" class="node">
<title>Node0</title>
<polygon fill="#bfbfbf" stroke="#000000" points="495.5,-235.5 495.5,-287.5 630.5,-287.5 630.5,-235.5 495.5,-235.5"/>
<text text-anchor="start" x="503.5" y="-275.5" font-family="Helvetica,sans-Serif" font-size="10.00" fill="#000000">/home/travis/build</text>
<text text-anchor="start" x="503.5" y="-264.5" font-family="Helvetica,sans-Serif" font-size="10.00" fill="#000000">/AliceO2Group/AliceO2</text>
<text text-anchor="start" x="503.5" y="-253.5" font-family="Helvetica,sans-Serif" font-size="10.00" fill="#000000">/Common/MathUtils/test</text>
<text text-anchor="middle" x="563" y="-242.5" font-family="Helvetica,sans-Serif" font-size="10.00" fill="#000000">/testCartesian.cxx</text>
</g>
<!-- Node1 -->
<g id="node2" class="node">
<title>Node1</title>
<polygon fill="none" stroke="#bfbfbf" points="0,-118 0,-137 82,-137 82,-118 0,-118"/>
<text text-anchor="middle" x="41" y="-125" font-family="Helvetica,sans-Serif" font-size="10.00" fill="#000000">TGeoMatrix.h</text>
</g>
<!-- Node0&#45;&gt;Node1 -->
<g id="edge1" class="edge">
<title>Node0&#45;&gt;Node1</title>
<path fill="none" stroke="#191970" d="M495.3794,-246.5931C440.8675,-234.3827 362.3107,-216.3502 294,-199 203.288,-175.9601 180.8199,-169.304 91,-143 87.8165,-142.0677 84.5245,-141.0862 81.2194,-140.0884"/>
<polygon fill="#191970" stroke="#191970" points="81.9473,-136.6512 71.3611,-137.0793 79.9037,-143.3463 81.9473,-136.6512"/>
</g>
<!-- Node2 -->
<g id="node3" class="node">
<title>Node2</title>
<polygon fill="none" stroke="#bfbfbf" points="303,-179.5 303,-198.5 435,-198.5 435,-179.5 303,-179.5"/>
<text text-anchor="middle" x="369" y="-186.5" font-family="Helvetica,sans-Serif" font-size="10.00" fill="#000000">boost/test/unit_test.hpp</text>
</g>
<!-- Node0&#45;&gt;Node2 -->
<g id="edge2" class="edge">
<title>Node0&#45;&gt;Node2</title>
<path fill="none" stroke="#191970" d="M495.4206,-236.2448C464.7217,-224.7723 429.6803,-211.6769 404.2879,-202.1875"/>
<polygon fill="#191970" stroke="#191970" points="405.3112,-198.8335 394.7187,-198.6114 402.8607,-205.3906 405.3112,-198.8335"/>
</g>
<!-- Node3 -->
<g id="node4" class="node">
<title>Node3</title>
<polygon fill="none" stroke="#bfbfbf" points="453,-179.5 453,-198.5 513,-198.5 513,-179.5 453,-179.5"/>
<text text-anchor="middle" x="483" y="-186.5" font-family="Helvetica,sans-Serif" font-size="10.00" fill="#000000">iostream</text>
</g>
<!-- Node0&#45;&gt;Node3 -->
<g id="edge3" class="edge">
<title>Node0&#45;&gt;Node3</title>
<path fill="none" stroke="#191970" d="M534.1182,-235.3258C523.069,-225.3126 510.7905,-214.1851 501.0369,-205.346"/>
<polygon fill="#191970" stroke="#191970" points="503.2805,-202.6558 493.5203,-198.534 498.5798,-207.8427 503.2805,-202.6558"/>
</g>
<!-- Node4 -->
<g id="node5" class="node">
<title>Node4</title>
<polygon fill="none" stroke="#bfbfbf" points="531,-179.5 531,-198.5 595,-198.5 595,-179.5 531,-179.5"/>
<text text-anchor="middle" x="563" y="-186.5" font-family="Helvetica,sans-Serif" font-size="10.00" fill="#000000">algorithm</text>
</g>
<!-- Node0&#45;&gt;Node4 -->
<g id="edge4" class="edge">
<title>Node0&#45;&gt;Node4</title>
<path fill="none" stroke="#191970" d="M563,-235.3258C563,-226.5142 563,-216.8397 563,-208.621"/>
<polygon fill="#191970" stroke="#191970" points="566.5001,-208.534 563,-198.534 559.5001,-208.534 566.5001,-208.534"/>
</g>
<!-- Node5 -->
<g id="node6" class="node">
<title>Node5</title>
<polygon fill="none" stroke="#bfbfbf" points="613,-179.5 613,-198.5 671,-198.5 671,-179.5 613,-179.5"/>
<text text-anchor="middle" x="642" y="-186.5" font-family="Helvetica,sans-Serif" font-size="10.00" fill="#000000">memory</text>
</g>
<!-- Node0&#45;&gt;Node5 -->
<g id="edge5" class="edge">
<title>Node0&#45;&gt;Node5</title>
<path fill="none" stroke="#191970" d="M591.5208,-235.3258C602.4318,-225.3126 614.5569,-214.1851 624.1885,-205.346"/>
<polygon fill="#191970" stroke="#191970" points="626.6101,-207.8742 631.6112,-198.534 621.877,-202.7168 626.6101,-207.8742"/>
</g>
<!-- Node6 -->
<g id="node7" class="node">
<title>Node6</title>
<polygon fill="none" stroke="#bfbfbf" points="689,-179.5 689,-198.5 739,-198.5 739,-179.5 689,-179.5"/>
<text text-anchor="middle" x="714" y="-186.5" font-family="Helvetica,sans-Serif" font-size="10.00" fill="#000000">cstring</text>
</g>
<!-- Node0&#45;&gt;Node6 -->
<g id="edge6" class="edge">
<title>Node0&#45;&gt;Node6</title>
<path fill="none" stroke="#191970" d="M617.5145,-235.3258C640.3509,-224.3613 665.9698,-212.0608 685.067,-202.8917"/>
<polygon fill="#191970" stroke="#191970" points="686.6431,-206.0175 694.143,-198.534 683.6133,-199.7072 686.6431,-206.0175"/>
</g>
<!-- Node7 -->
<g id="node8" class="node">
<title>Node7</title>
<g id="a_node8"><a xlink:href="../../dc/d73/Cartesian_8h.html" target="_top" xlink:title="MathUtils/Cartesian.h">
<polygon fill="none" stroke="#000000" points="835,-179.5 835,-198.5 957,-198.5 957,-179.5 835,-179.5"/>
<text text-anchor="middle" x="896" y="-186.5" font-family="Helvetica,sans-Serif" font-size="10.00" fill="#000000">MathUtils/Cartesian.h</text>
</a>
</g>
</g>
<!-- Node0&#45;&gt;Node7 -->
<g id="edge7" class="edge">
<title>Node0&#45;&gt;Node7</title>
<path fill="none" stroke="#191970" d="M630.7889,-246.7412C693.2179,-233.1493 784.6239,-213.2486 842.1814,-200.7173"/>
<polygon fill="#191970" stroke="#191970" points="843.1427,-204.0901 852.1692,-198.5427 841.6535,-197.2503 843.1427,-204.0901"/>
</g>
<!-- Node7&#45;&gt;Node1 -->
<g id="edge20" class="edge">
<title>Node7&#45;&gt;Node1</title>
<path fill="none" stroke="#191970" d="M834.8056,-184.6898C808.1465,-182.8574 776.5325,-180.7456 748,-179 456.1077,-161.1425 378.8344,-194.6853 91,-143 86.5009,-142.1921 81.8397,-141.1034 77.2537,-139.8753"/>
<polygon fill="#191970" stroke="#191970" points="78.0058,-136.4492 67.4264,-137.0193 76.0523,-143.171 78.0058,-136.4492"/>
</g>
<!-- Node8 -->
<g id="node9" class="node">
<title>Node8</title>
<g id="a_node9"><a xlink:href="../../df/d21/GPUCommonDef_8h.html" target="_top" xlink:title="GPUCommonDef.h">
<polygon fill="none" stroke="#000000" points="1712.5,-56.5 1712.5,-75.5 1819.5,-75.5 1819.5,-56.5 1712.5,-56.5"/>
<text text-anchor="middle" x="1766" y="-63.5" font-family="Helvetica,sans-Serif" font-size="10.00" fill="#000000">GPUCommonDef.h</text>
</a>
</g>
</g>
<!-- Node7&#45;&gt;Node8 -->
<g id="edge8" class="edge">
<title>Node7&#45;&gt;Node8</title>
<path fill="none" stroke="#191970" d="M957.0082,-188.1629C1154.7769,-185.1544 1767.1044,-173.4102 1796,-143 1811.8814,-126.2862 1796.0018,-100.2134 1781.9787,-83.1181"/>
<polygon fill="#191970" stroke="#191970" points="1784.5888,-80.7857 1775.391,-75.5274 1779.3021,-85.3739 1784.5888,-80.7857"/>
</g>
<!-- Node11 -->
<g id="node12" class="node">
<title>Node11</title>
<g id="a_node12"><a xlink:href="../../d2/d45/GPUCommonRtypes_8h.html" target="_top" xlink:title="GPUCommonRtypes.h">
<polygon fill="none" stroke="#000000" points="100.5,-118 100.5,-137 225.5,-137 225.5,-118 100.5,-118"/>
<text text-anchor="middle" x="163" y="-125" font-family="Helvetica,sans-Serif" font-size="10.00" fill="#000000">GPUCommonRtypes.h</text>
</a>
</g>
</g>
<!-- Node7&#45;&gt;Node11 -->
<g id="edge11" class="edge">
<title>Node7&#45;&gt;Node11</title>
<path fill="none" stroke="#191970" d="M834.8238,-184.8584C673.841,-173.9448 249.7532,-145.0905 235,-143 227.6058,-141.9523 219.8378,-140.5758 212.2515,-139.0751"/>
<polygon fill="#191970" stroke="#191970" points="212.9309,-135.6417 202.4298,-137.048 211.5159,-142.4972 212.9309,-135.6417"/>
</g>
<!-- Node13 -->
<g id="node14" class="node">
<title>Node13</title>
<polygon fill="none" stroke="#bfbfbf" points="244,-112.5 244,-142.5 408,-142.5 408,-112.5 244,-112.5"/>
<text text-anchor="start" x="252" y="-130.5" font-family="Helvetica,sans-Serif" font-size="10.00" fill="#000000">Math/GenVector/Displacement</text>
<text text-anchor="middle" x="326" y="-119.5" font-family="Helvetica,sans-Serif" font-size="10.00" fill="#000000">Vector3D.h</text>
</g>
<!-- Node7&#45;&gt;Node13 -->
<g id="edge13" class="edge">
<title>Node7&#45;&gt;Node13</title>
<path fill="none" stroke="#191970" d="M834.7232,-184.5026C745.5831,-177.6505 574.7263,-163.3517 418.4844,-142.998"/>
<polygon fill="#191970" stroke="#191970" points="418.586,-139.4814 408.2152,-141.6486 417.6739,-146.4217 418.586,-139.4814"/>
</g>
<!-- Node14 -->
<g id="node15" class="node">
<title>Node14</title>
<polygon fill="none" stroke="#bfbfbf" points="426.5,-118 426.5,-137 615.5,-137 615.5,-118 426.5,-118"/>
<text text-anchor="middle" x="521" y="-125" font-family="Helvetica,sans-Serif" font-size="10.00" fill="#000000">Math/GenVector/PositionVector3D.h</text>
</g>
<!-- Node7&#45;&gt;Node14 -->
<g id="edge14" class="edge">
<title>Node7&#45;&gt;Node14</title>
<path fill="none" stroke="#191970" d="M837.8177,-179.4581C770.6602,-168.4443 660.3479,-150.3531 589.2117,-138.6867"/>
<polygon fill="#191970" stroke="#191970" points="589.4449,-135.1783 579.0102,-137.0137 588.312,-142.086 589.4449,-135.1783"/>
</g>
<!-- Node15 -->
<g id="node16" class="node">
<title>Node15</title>
<polygon fill="none" stroke="#bfbfbf" points="634,-118 634,-137 794,-137 794,-118 634,-118"/>
<text text-anchor="middle" x="714" y="-125" font-family="Helvetica,sans-Serif" font-size="10.00" fill="#000000">Math/GenVector/Rotation3D.h</text>
</g>
<!-- Node7&#45;&gt;Node15 -->
<g id="edge15" class="edge">
<title>Node7&#45;&gt;Node15</title>
<path fill="none" stroke="#191970" d="M867.5625,-179.3906C836.4428,-168.8749 786.4036,-151.966 751.9515,-140.3243"/>
<polygon fill="#191970" stroke="#191970" points="752.832,-136.9274 742.2378,-137.0419 750.5911,-143.5591 752.832,-136.9274"/>
</g>
<!-- Node16 -->
<g id="node17" class="node">
<title>Node16</title>
<polygon fill="none" stroke="#bfbfbf" points="812,-118 812,-137 980,-137 980,-118 812,-118"/>
<text text-anchor="middle" x="896" y="-125" font-family="Helvetica,sans-Serif" font-size="10.00" fill="#000000">Math/GenVector/Transform3D.h</text>
</g>
<!-- Node7&#45;&gt;Node16 -->
<g id="edge16" class="edge">
<title>Node7&#45;&gt;Node16</title>
<path fill="none" stroke="#191970" d="M896,-179.3906C896,-170.8657 896,-158.1392 896,-147.4235"/>
<polygon fill="#191970" stroke="#191970" points="899.5001,-147.2448 896,-137.2449 892.5001,-147.2449 899.5001,-147.2448"/>
</g>
<!-- Node17 -->
<g id="node18" class="node">
<title>Node17</title>
<polygon fill="none" stroke="#bfbfbf" points="998.5,-118 998.5,-137 1171.5,-137 1171.5,-118 998.5,-118"/>
<text text-anchor="middle" x="1085" y="-125" font-family="Helvetica,sans-Serif" font-size="10.00" fill="#000000">Math/GenVector/Translation3D.h</text>
</g>
<!-- Node7&#45;&gt;Node17 -->
<g id="edge17" class="edge">
<title>Node7&#45;&gt;Node17</title>
<path fill="none" stroke="#191970" d="M925.5313,-179.3906C957.9866,-168.8298 1010.2581,-151.8208 1046.0486,-140.1747"/>
<polygon fill="#191970" stroke="#191970" points="1047.2499,-143.4645 1055.6761,-137.0419 1045.0839,-136.808 1047.2499,-143.4645"/>
</g>
<!-- Node18 -->
<g id="node19" class="node">
<title>Node18</title>
<polygon fill="none" stroke="#bfbfbf" points="1190,-112.5 1190,-142.5 1354,-142.5 1354,-112.5 1190,-112.5"/>
<text text-anchor="start" x="1198" y="-130.5" font-family="Helvetica,sans-Serif" font-size="10.00" fill="#000000">Math/GenVector/Displacement</text>
<text text-anchor="middle" x="1272" y="-119.5" font-family="Helvetica,sans-Serif" font-size="10.00" fill="#000000">Vector2D.h</text>
</g>
<!-- Node7&#45;&gt;Node18 -->
<g id="edge18" class="edge">
<title>Node7&#45;&gt;Node18</title>
<path fill="none" stroke="#191970" d="M956.0732,-179.4593C1011.5705,-170.61 1096.5938,-156.9636 1179.7934,-143.193"/>
<polygon fill="#191970" stroke="#191970" points="1180.3723,-146.6449 1189.6655,-141.557 1179.2278,-139.739 1180.3723,-146.6449"/>
</g>
<!-- Node19 -->
<g id="node20" class="node">
<title>Node19</title>
<polygon fill="none" stroke="#bfbfbf" points="1372.5,-118 1372.5,-137 1561.5,-137 1561.5,-118 1372.5,-118"/>
<text text-anchor="middle" x="1467" y="-125" font-family="Helvetica,sans-Serif" font-size="10.00" fill="#000000">Math/GenVector/PositionVector2D.h</text>
</g>
<!-- Node7&#45;&gt;Node19 -->
<g id="edge19" class="edge">
<title>Node7&#45;&gt;Node19</title>
<path fill="none" stroke="#191970" d="M957.3035,-183.9409C1046.6651,-176.3443 1217.8696,-160.9515 1363,-143 1373.8192,-141.6618 1385.2501,-140.1044 1396.4186,-138.503"/>
<polygon fill="#191970" stroke="#191970" points="1397.1848,-141.9284 1406.5766,-137.0249 1396.1768,-135.0014 1397.1848,-141.9284"/>
</g>
<!-- Node20 -->
<g id="node21" class="node">
<title>Node20</title>
<polygon fill="none" stroke="#bfbfbf" points="1579.5,-118 1579.5,-137 1628.5,-137 1628.5,-118 1579.5,-118"/>
<text text-anchor="middle" x="1604" y="-125" font-family="Helvetica,sans-Serif" font-size="10.00" fill="#000000">iosfwd</text>
</g>
<!-- Node7&#45;&gt;Node20 -->
<g id="edge21" class="edge">
<title>Node7&#45;&gt;Node20</title>
<path fill="none" stroke="#191970" d="M957.035,-187.7217C1100.5303,-184.2527 1455.8756,-172.8352 1571,-143 1572.976,-142.4879 1574.9779,-141.8588 1576.9678,-141.1504"/>
<polygon fill="#191970" stroke="#191970" points="1578.7561,-144.1971 1586.6415,-137.1209 1576.0645,-137.7352 1578.7561,-144.1971"/>
</g>
<!-- Node21 -->
<g id="node22" class="node">
<title>Node21</title>
<g id="a_node22"><a xlink:href="../../d1/da8/GPUROOTCartesianFwd_8h.html" target="_top" xlink:title="GPUROOTCartesianFwd.h">
<polygon fill="none" stroke="#000000" points="1647,-118 1647,-137 1787,-137 1787,-118 1647,-118"/>
<text text-anchor="middle" x="1717" y="-125" font-family="Helvetica,sans-Serif" font-size="10.00" fill="#000000">GPUROOTCartesianFwd.h</text>
</a>
</g>
</g>
<!-- Node7&#45;&gt;Node21 -->
<g id="edge22" class="edge">
<title>Node7&#45;&gt;Node21</title>
<path fill="none" stroke="#191970" d="M957.3363,-187.9292C1084.671,-185.1061 1386.7731,-175.29 1638,-143 1646.3696,-141.9243 1655.1855,-140.4938 1663.7716,-138.9358"/>
<polygon fill="#191970" stroke="#191970" points="1664.5271,-142.3551 1673.7048,-137.0618 1663.2293,-135.4764 1664.5271,-142.3551"/>
</g>
<!-- Node9 -->
<g id="node10" class="node">
<title>Node9</title>
<g id="a_node10"><a xlink:href="../../d5/d93/GPUCommonDefSettings_8h.html" target="_top" xlink:title="GPUCommonDefSettings.h">
<polygon fill="none" stroke="#000000" points="1615,-.5 1615,-19.5 1763,-19.5 1763,-.5 1615,-.5"/>
<text text-anchor="middle" x="1689" y="-7.5" font-family="Helvetica,sans-Serif" font-size="10.00" fill="#000000">GPUCommonDefSettings.h</text>
</a>
</g>
</g>
<!-- Node8&#45;&gt;Node9 -->
<g id="edge9" class="edge">
<title>Node8&#45;&gt;Node9</title>
<path fill="none" stroke="#191970" d="M1752.5876,-56.2455C1740.9943,-47.814 1724.0252,-35.4729 1710.5322,-25.6598"/>
<polygon fill="#191970" stroke="#191970" points="1712.4047,-22.6938 1702.2587,-19.6427 1708.2874,-28.355 1712.4047,-22.6938"/>
</g>
<!-- Node10 -->
<g id="node11" class="node">
<title>Node10</title>
<g id="a_node11"><a xlink:href="../../da/d5a/GPUCommonDefAPI_8h.html" target="_top" xlink:title="GPUCommonDefAPI.h">
<polygon fill="none" stroke="#000000" points="1781,-.5 1781,-19.5 1905,-19.5 1905,-.5 1781,-.5"/>
<text text-anchor="middle" x="1843" y="-7.5" font-family="Helvetica,sans-Serif" font-size="10.00" fill="#000000">GPUCommonDefAPI.h</text>
</a>
</g>
</g>
<!-- Node8&#45;&gt;Node10 -->
<g id="edge10" class="edge">
<title>Node8&#45;&gt;Node10</title>
<path fill="none" stroke="#191970" d="M1779.4124,-56.2455C1791.0057,-47.814 1807.9748,-35.4729 1821.4678,-25.6598"/>
<polygon fill="#191970" stroke="#191970" points="1823.7126,-28.355 1829.7413,-19.6427 1819.5953,-22.6938 1823.7126,-28.355"/>
</g>
<!-- Node12 -->
<g id="node13" class="node">
<title>Node12</title>
<polygon fill="none" stroke="#bfbfbf" points="133.5,-56.5 133.5,-75.5 192.5,-75.5 192.5,-56.5 133.5,-56.5"/>
<text text-anchor="middle" x="163" y="-63.5" font-family="Helvetica,sans-Serif" font-size="10.00" fill="#000000">Rtypes.h</text>
</g>
<!-- Node11&#45;&gt;Node12 -->
<g id="edge12" class="edge">
<title>Node11&#45;&gt;Node12</title>
<path fill="none" stroke="#191970" d="M163,-117.8906C163,-109.3657 163,-96.6392 163,-85.9235"/>
<polygon fill="#191970" stroke="#191970" points="166.5001,-85.7448 163,-75.7449 159.5001,-85.7449 166.5001,-85.7448"/>
</g>
<!-- Node21&#45;&gt;Node8 -->
<g id="edge23" class="edge">
<title>Node21&#45;&gt;Node8</title>
<path fill="none" stroke="#191970" d="M1724.6563,-117.8906C1731.9489,-108.7376 1743.1007,-94.7409 1751.9852,-83.59"/>
<polygon fill="#191970" stroke="#191970" points="1754.7417,-85.747 1758.2358,-75.7449 1749.267,-81.3849 1754.7417,-85.747"/>
</g>
</g>
</svg>
        <g id="navigator" transform="translate(0 0)" fill="#404254">
                <rect fill="#f2f5e9" fill-opacity="0.5" stroke="#606060" stroke-width=".5" x="0" y="0" width="60" height="60"/>
                <use id="zoomplus" xlink:href="#zoomPlus" x="17" y="9" onmousedown="handleZoom(evt,'in')"/>
                <use id="zoomminus" xlink:href="#zoomMin" x="42" y="9" onmousedown="handleZoom(evt,'out')"/>
                <use id="reset" xlink:href="#resetDef" x="30" y="36" onmousedown="handleReset()"/>
                <g id="arrowUp" xlink:href="#dirArrow" transform="translate(30 24)" onmousedown="handlePan(0,-1)">
                  <use xlink:href="#rim" fill="#404040">
                        <set attributeName="fill" to="#808080" begin="arrowUp.mouseover" end="arrowUp.mouseout"/>
                  </use>
                  <path fill="none" stroke="white" stroke-width="1.5" d="M0,-3.0v7 M-2.5,-0.5L0,-3.0L2.5,-0.5"/>
                </g>
                <g id="arrowRight" xlink:href="#dirArrow" transform="rotate(90) translate(36 -43)" onmousedown="handlePan(1,0)">
                  <use xlink:href="#rim" fill="#404040">
                        <set attributeName="fill" to="#808080" begin="arrowRight.mouseover" end="arrowRight.mouseout"/>
                  </use>
                  <path fill="none" stroke="white" stroke-width="1.5" d="M0,-3.0v7 M-2.5,-0.5L0,-3.0L2.5,-0.5"/>
                </g>
                <g id="arrowDown" xlink:href="#dirArrow" transform="rotate(180) translate(-30 -48)" onmousedown="handlePan(0,1)">
                  <use xlink:href="#rim" fill="#404040">
                        <set attributeName="fill" to="#808080" begin="arrowDown.mouseover" end="arrowDown.mouseout"/>
                  </use>
                  <path fill="none" stroke="white" stroke-width="1.5" d="M0,-3.0v7 M-2.5,-0.5L0,-3.0L2.5,-0.5"/>
                </g>
                <g id="arrowLeft" xlink:href="#dirArrow" transform="rotate(270) translate(-36 17)" onmousedown="handlePan(-1,0)">
                  <use xlink:href="#rim" fill="#404040">
                        <set attributeName="fill" to="#808080" begin="arrowLeft.mouseover" end="arrowLeft.mouseout"/>
                  </use>
                  <path fill="none" stroke="white" stroke-width="1.5" d="M0,-3.0v7 M-2.5,-0.5L0,-3.0L2.5,-0.5"/>
                </g>
        </g>
        <svg viewBox="0 0 15 15" width="100%" height="30px" preserveAspectRatio="xMaxYMin meet">
         <g id="arrow_out" transform="scale(0.3 0.3)">
          <a xlink:href="testCartesian_8cxx__incl_org.svg" target="_base">
           <rect id="button" ry="5" rx="5" y="6" x="6" height="38" width="38"
                fill="#f2f5e9" fill-opacity="0.5" stroke="#606060" stroke-width="1.0"/>
           <path id="arrow"
             d="M 11.500037,31.436501 C 11.940474,20.09759 22.043105,11.32322 32.158766,21.979434 L 37.068811,17.246167 C 37.068811,17.246167 37.088388,32 37.088388,32 L 22.160133,31.978069 C 22.160133,31.978069 26.997745,27.140456 26.997745,27.140456 C 18.528582,18.264221 13.291696,25.230495 11.500037,31.436501 z"
             style="fill:#404040;"/>
          </a>
         </g>
        </svg>
</svg>
