<?xml version="1.0" encoding="UTF-8" standalone="no"?>
<!DOCTYPE svg PUBLIC "-//W3C//DTD SVG 1.1//EN"
 "http://www.w3.org/Graphics/SVG/1.1/DTD/svg11.dtd">
<!-- Generated by graphviz version 2.40.1 (20161225.0304)
 -->
<!-- Title: /home/travis/build/AliceO2Group/AliceO2/Detectors/TPC/simulation/include/TPCSimulation/SpaceCharge.h Pages: 1 -->
<svg width="3052pt" height="363pt"
 viewBox="0.00 0.00 3051.50 363.00" xmlns="http://www.w3.org/2000/svg" xmlns:xlink="http://www.w3.org/1999/xlink">
<g id="graph0" class="graph" transform="scale(1 1) rotate(0) translate(4 359)">
<title>/home/travis/build/AliceO2Group/AliceO2/Detectors/TPC/simulation/include/TPCSimulation/SpaceCharge.h</title>
<!-- Node0 -->
<g id="node1" class="node">
<title>Node0</title>
<polygon fill="#bfbfbf" stroke="#000000" points="519.5,-302.5 519.5,-354.5 724.5,-354.5 724.5,-302.5 519.5,-302.5"/>
<text text-anchor="start" x="527.5" y="-342.5" font-family="Helvetica,sans-Serif" font-size="10.00" fill="#000000">/home/travis/build</text>
<text text-anchor="start" x="527.5" y="-331.5" font-family="Helvetica,sans-Serif" font-size="10.00" fill="#000000">/AliceO2Group/AliceO2</text>
<text text-anchor="start" x="527.5" y="-320.5" font-family="Helvetica,sans-Serif" font-size="10.00" fill="#000000">/Detectors/TPC/simulation</text>
<text text-anchor="middle" x="622" y="-309.5" font-family="Helvetica,sans-Serif" font-size="10.00" fill="#000000">/include/TPCSimulation/SpaceCharge.h</text>
</g>
<!-- Node1 -->
<g id="node2" class="node">
<title>Node1</title>
<g id="a_node2"><a xlink:href="../../d9/d9a/AliTPCSpaceCharge3DCalc_8h.html" target="_top" xlink:title="This class provides distortion and correction map calculation with integration following electron dri...">
<polygon fill="none" stroke="#000000" points="544.5,-246.5 544.5,-265.5 699.5,-265.5 699.5,-246.5 544.5,-246.5"/>
<text text-anchor="middle" x="622" y="-253.5" font-family="Helvetica,sans-Serif" font-size="10.00" fill="#000000">AliTPCSpaceCharge3DCalc.h</text>
</a>
</g>
</g>
<!-- Node0&#45;&gt;Node1 -->
<g id="edge1" class="edge">
<title>Node0&#45;&gt;Node1</title>
<path fill="none" stroke="#191970" d="M622,-302.3258C622,-293.5142 622,-283.8397 622,-275.621"/>
<polygon fill="#191970" stroke="#191970" points="625.5001,-275.534 622,-265.534 618.5001,-275.534 625.5001,-275.534"/>
</g>
<!-- Node13 -->
<g id="node14" class="node">
<title>Node13</title>
<g id="a_node14"><a xlink:href="../../d1/d73/Defs_8h.html" target="_top" xlink:title="DataFormatsTPC/Defs.h">
<polygon fill="none" stroke="#000000" points="1195.5,-246.5 1195.5,-265.5 1328.5,-265.5 1328.5,-246.5 1195.5,-246.5"/>
<text text-anchor="middle" x="1262" y="-253.5" font-family="Helvetica,sans-Serif" font-size="10.00" fill="#000000">DataFormatsTPC/Defs.h</text>
</a>
</g>
</g>
<!-- Node0&#45;&gt;Node13 -->
<g id="edge20" class="edge">
<title>Node0&#45;&gt;Node13</title>
<path fill="none" stroke="#191970" d="M724.8271,-316.8516C853.2784,-302.3005 1070.1259,-277.7357 1185.0889,-264.7126"/>
<polygon fill="#191970" stroke="#191970" points="1185.6719,-268.169 1195.2144,-263.5656 1184.8839,-261.2135 1185.6719,-268.169"/>
</g>
<!-- Node31 -->
<g id="node32" class="node">
<title>Node31</title>
<g id="a_node32"><a xlink:href="../../db/dac/RandomRing_8h.html" target="_top" xlink:title="MathUtils/RandomRing.h">
<polygon fill="none" stroke="#000000" points="133.5,-246.5 133.5,-265.5 270.5,-265.5 270.5,-246.5 133.5,-246.5"/>
<text text-anchor="middle" x="202" y="-253.5" font-family="Helvetica,sans-Serif" font-size="10.00" fill="#000000">MathUtils/RandomRing.h</text>
</a>
</g>
</g>
<!-- Node0&#45;&gt;Node31 -->
<g id="edge40" class="edge">
<title>Node0&#45;&gt;Node31</title>
<path fill="none" stroke="#191970" d="M519.2564,-310.7645C440.6029,-297.1874 334.5094,-278.8737 267.1637,-267.2485"/>
<polygon fill="#191970" stroke="#191970" points="267.5571,-263.7647 257.1074,-265.5126 266.3663,-270.6627 267.5571,-263.7647"/>
</g>
<!-- Node2 -->
<g id="node3" class="node">
<title>Node2</title>
<polygon fill="none" stroke="#bfbfbf" points="295.5,-185 295.5,-204 338.5,-204 338.5,-185 295.5,-185"/>
<text text-anchor="middle" x="317" y="-192" font-family="Helvetica,sans-Serif" font-size="10.00" fill="#000000">TF1.h</text>
</g>
<!-- Node1&#45;&gt;Node2 -->
<g id="edge2" class="edge">
<title>Node1&#45;&gt;Node2</title>
<path fill="none" stroke="#191970" d="M544.2824,-249.5081C488.3342,-243.2789 411.645,-231.5171 347,-210 345.5746,-209.5256 344.134,-208.9908 342.6955,-208.4126"/>
<polygon fill="#191970" stroke="#191970" points="343.964,-205.1435 333.4164,-204.1438 341.0384,-211.5029 343.964,-205.1435"/>
</g>
<!-- Node3 -->
<g id="node4" class="node">
<title>Node3</title>
<polygon fill="none" stroke="#bfbfbf" points="356.5,-185 356.5,-204 399.5,-204 399.5,-185 356.5,-185"/>
<text text-anchor="middle" x="378" y="-192" font-family="Helvetica,sans-Serif" font-size="10.00" fill="#000000">TF2.h</text>
</g>
<!-- Node1&#45;&gt;Node3 -->
<g id="edge3" class="edge">
<title>Node1&#45;&gt;Node3</title>
<path fill="none" stroke="#191970" d="M556.1337,-246.4908C513.1615,-239.1621 456.2909,-227.3169 408,-210 406.7584,-209.5548 405.5033,-209.068 404.2466,-208.5506"/>
<polygon fill="#191970" stroke="#191970" points="405.3265,-205.1933 394.7821,-204.1603 402.3808,-211.5434 405.3265,-205.1933"/>
</g>
<!-- Node4 -->
<g id="node5" class="node">
<title>Node4</title>
<polygon fill="none" stroke="#bfbfbf" points="417.5,-185 417.5,-204 466.5,-204 466.5,-185 417.5,-185"/>
<text text-anchor="middle" x="442" y="-192" font-family="Helvetica,sans-Serif" font-size="10.00" fill="#000000">TH3F.h</text>
</g>
<!-- Node1&#45;&gt;Node4 -->
<g id="edge4" class="edge">
<title>Node1&#45;&gt;Node4</title>
<path fill="none" stroke="#191970" d="M590.7249,-246.4177C562.0242,-237.4775 518.4134,-223.5224 481,-210 479.0985,-209.3127 477.151,-208.5924 475.1898,-207.8541"/>
<polygon fill="#191970" stroke="#191970" points="476.0088,-204.4187 465.4192,-204.0845 473.4891,-210.9495 476.0088,-204.4187"/>
</g>
<!-- Node5 -->
<g id="node6" class="node">
<title>Node5</title>
<polygon fill="none" stroke="#bfbfbf" points="696,-56.5 696,-75.5 766,-75.5 766,-56.5 696,-56.5"/>
<text text-anchor="middle" x="731" y="-63.5" font-family="Helvetica,sans-Serif" font-size="10.00" fill="#000000">TMatrixD.h</text>
</g>
<!-- Node1&#45;&gt;Node5 -->
<g id="edge5" class="edge">
<title>Node1&#45;&gt;Node5</title>
<path fill="none" stroke="#191970" d="M568.7467,-246.4288C548.0403,-239.8245 526.3618,-228.7016 514,-210 506.4026,-198.5062 509.6587,-192.0759 514,-179 525.7075,-143.737 533.3181,-132.9562 564,-112 600.5023,-87.0684 650.1439,-75.6018 685.8019,-70.3571"/>
<polygon fill="#191970" stroke="#191970" points="686.4902,-73.7958 695.9267,-68.9789 685.546,-66.8598 686.4902,-73.7958"/>
</g>
<!-- Node6 -->
<g id="node7" class="node">
<title>Node6</title>
<g id="a_node7"><a xlink:href="../../dd/d13/AliTPCPoissonSolver_8h.html" target="_top" xlink:title="This class provides implementation of Poisson Eq solver by MultiGrid Method. ">
<polygon fill="none" stroke="#000000" points="1015.5,-185 1015.5,-204 1140.5,-204 1140.5,-185 1015.5,-185"/>
<text text-anchor="middle" x="1078" y="-192" font-family="Helvetica,sans-Serif" font-size="10.00" fill="#000000">AliTPCPoissonSolver.h</text>
</a>
</g>
</g>
<!-- Node1&#45;&gt;Node6 -->
<g id="edge6" class="edge">
<title>Node1&#45;&gt;Node6</title>
<path fill="none" stroke="#191970" d="M699.5528,-248.3733C776.3308,-240.4029 897.1173,-226.7339 1001,-210 1008.395,-208.8088 1016.1616,-207.4151 1023.7999,-205.9608"/>
<polygon fill="#191970" stroke="#191970" points="1024.5797,-209.3747 1033.7252,-204.0258 1023.2402,-202.5041 1024.5797,-209.3747"/>
</g>
<!-- Node9 -->
<g id="node10" class="node">
<title>Node9</title>
<g id="a_node10"><a xlink:href="../../d1/dc0/AliTPCLookUpTable3DInterpolatorD_8h.html" target="_top" xlink:title="Wrap up look&#45;up table for correction/distortion integral or derivative (electric field) assume 3 comp...">
<polygon fill="none" stroke="#000000" points="523.5,-185 523.5,-204 720.5,-204 720.5,-185 523.5,-185"/>
<text text-anchor="middle" x="622" y="-192" font-family="Helvetica,sans-Serif" font-size="10.00" fill="#000000">AliTPCLookUpTable3DInterpolatorD.h</text>
</a>
</g>
</g>
<!-- Node1&#45;&gt;Node9 -->
<g id="edge10" class="edge">
<title>Node1&#45;&gt;Node9</title>
<path fill="none" stroke="#191970" d="M622,-246.3906C622,-237.8657 622,-225.1392 622,-214.4235"/>
<polygon fill="#191970" stroke="#191970" points="625.5001,-214.2448 622,-204.2449 618.5001,-214.2449 625.5001,-214.2448"/>
</g>
<!-- Node10 -->
<g id="node11" class="node">
<title>Node10</title>
<g id="a_node11"><a xlink:href="../../d2/d9a/AliTPC3DCylindricalInterpolator_8h.html" target="_top" xlink:title="Interpolator for cylindrical coordinate this class provides: cubic spline, quadratic and linear inter...">
<polygon fill="none" stroke="#000000" points="582.5,-118 582.5,-137 761.5,-137 761.5,-118 582.5,-118"/>
<text text-anchor="middle" x="672" y="-125" font-family="Helvetica,sans-Serif" font-size="10.00" fill="#000000">AliTPC3DCylindricalInterpolator.h</text>
</a>
</g>
</g>
<!-- Node1&#45;&gt;Node10 -->
<g id="edge14" class="edge">
<title>Node1&#45;&gt;Node10</title>
<path fill="none" stroke="#191970" d="M674.2142,-246.4856C694.8991,-239.8822 716.6551,-228.7446 729,-210 744.5539,-186.383 717.42,-159.521 695.5087,-143.0407"/>
<polygon fill="#191970" stroke="#191970" points="697.3365,-140.0444 687.1711,-137.0584 693.2557,-145.7319 697.3365,-140.0444"/>
</g>
<!-- Node11 -->
<g id="node12" class="node">
<title>Node11</title>
<g id="a_node12"><a xlink:href="../../df/d79/AliTPCLookUpTable3DInterpolatorIrregularD_8h.html" target="_top" xlink:title="Wrap up look&#45;up table with irregular grid. ">
<polygon fill="none" stroke="#000000" points="777.5,-179.5 777.5,-209.5 958.5,-209.5 958.5,-179.5 777.5,-179.5"/>
<text text-anchor="start" x="785.5" y="-197.5" font-family="Helvetica,sans-Serif" font-size="10.00" fill="#000000">AliTPCLookUpTable3DInterpolator</text>
<text text-anchor="middle" x="868" y="-186.5" font-family="Helvetica,sans-Serif" font-size="10.00" fill="#000000">IrregularD.h</text>
</a>
</g>
</g>
<!-- Node1&#45;&gt;Node11 -->
<g id="edge15" class="edge">
<title>Node1&#45;&gt;Node11</title>
<path fill="none" stroke="#191970" d="M660.1676,-246.4581C696.8036,-237.2991 753.0168,-223.2458 797.7477,-212.0631"/>
<polygon fill="#191970" stroke="#191970" points="798.8338,-215.3994 807.6863,-209.5784 797.136,-208.6084 798.8338,-215.3994"/>
</g>
<!-- Node12 -->
<g id="node13" class="node">
<title>Node12</title>
<g id="a_node13"><a xlink:href="../../d9/d86/AliTPC3DCylindricalInterpolatorIrregular_8h.html" target="_top" xlink:title="Irregular grid interpolator for cylindrical coordinate with r,phi,z different coordinates RBF&#45;based i...">
<polygon fill="none" stroke="#000000" points="818,-112.5 818,-142.5 988,-142.5 988,-112.5 818,-112.5"/>
<text text-anchor="start" x="826" y="-130.5" font-family="Helvetica,sans-Serif" font-size="10.00" fill="#000000">AliTPC3DCylindricalInterpolator</text>
<text text-anchor="middle" x="903" y="-119.5" font-family="Helvetica,sans-Serif" font-size="10.00" fill="#000000">Irregular.h</text>
</a>
</g>
</g>
<!-- Node1&#45;&gt;Node12 -->
<g id="edge19" class="edge">
<title>Node1&#45;&gt;Node12</title>
<path fill="none" stroke="#191970" d="M699.7705,-250.9822C796.0859,-243.9609 949.6604,-229.805 967,-210 984.7314,-189.7475 960.3596,-165.2323 936.7624,-148.2135"/>
<polygon fill="#191970" stroke="#191970" points="938.7371,-145.3238 928.5184,-142.5257 934.7619,-151.0855 938.7371,-145.3238"/>
</g>
<!-- Node6&#45;&gt;Node5 -->
<g id="edge8" class="edge">
<title>Node6&#45;&gt;Node5</title>
<path fill="none" stroke="#191970" d="M1069.8662,-184.8366C1053.0377,-165.0865 1014.5104,-121.1809 997,-112 959.3739,-92.2723 841.628,-77.4156 776.1165,-70.4251"/>
<polygon fill="#191970" stroke="#191970" points="776.3818,-66.9338 766.0711,-69.3711 775.6513,-73.8956 776.3818,-66.9338"/>
</g>
<!-- Node7 -->
<g id="node8" class="node">
<title>Node7</title>
<polygon fill="none" stroke="#bfbfbf" points="1044.5,-118 1044.5,-137 1111.5,-137 1111.5,-118 1044.5,-118"/>
<text text-anchor="middle" x="1078" y="-125" font-family="Helvetica,sans-Serif" font-size="10.00" fill="#000000">TNamed.h</text>
</g>
<!-- Node6&#45;&gt;Node7 -->
<g id="edge7" class="edge">
<title>Node6&#45;&gt;Node7</title>
<path fill="none" stroke="#191970" d="M1078,-184.9005C1078,-175.149 1078,-159.7597 1078,-147.3695"/>
<polygon fill="#191970" stroke="#191970" points="1081.5001,-147.0816 1078,-137.0817 1074.5001,-147.0817 1081.5001,-147.0816"/>
</g>
<!-- Node8 -->
<g id="node9" class="node">
<title>Node8</title>
<polygon fill="none" stroke="#bfbfbf" points="1130,-118 1130,-137 1200,-137 1200,-118 1130,-118"/>
<text text-anchor="middle" x="1165" y="-125" font-family="Helvetica,sans-Serif" font-size="10.00" fill="#000000">TVectorD.h</text>
</g>
<!-- Node6&#45;&gt;Node8 -->
<g id="edge9" class="edge">
<title>Node6&#45;&gt;Node8</title>
<path fill="none" stroke="#191970" d="M1090.465,-184.9005C1104.5487,-174.0544 1127.6888,-156.2339 1144.4539,-143.3229"/>
<polygon fill="#191970" stroke="#191970" points="1146.7708,-145.9562 1152.5581,-137.0817 1142.4997,-140.4102 1146.7708,-145.9562"/>
</g>
<!-- Node9&#45;&gt;Node5 -->
<g id="edge11" class="edge">
<title>Node9&#45;&gt;Node5</title>
<path fill="none" stroke="#191970" d="M608.8412,-184.9273C588.6964,-169.1048 554.4028,-136.7837 573,-112 586.6233,-93.8447 644.2066,-80.5051 685.9296,-72.9976"/>
<polygon fill="#191970" stroke="#191970" points="686.643,-76.4261 695.8931,-71.2601 685.4404,-69.5302 686.643,-76.4261"/>
</g>
<!-- Node9&#45;&gt;Node10 -->
<g id="edge12" class="edge">
<title>Node9&#45;&gt;Node10</title>
<path fill="none" stroke="#191970" d="M629.1638,-184.9005C636.8866,-174.552 649.3476,-157.8542 658.8437,-145.1295"/>
<polygon fill="#191970" stroke="#191970" points="661.6736,-147.1893 664.8495,-137.0817 656.0636,-143.0027 661.6736,-147.1893"/>
</g>
<!-- Node10&#45;&gt;Node5 -->
<g id="edge13" class="edge">
<title>Node10&#45;&gt;Node5</title>
<path fill="none" stroke="#191970" d="M681.2188,-117.8906C690.0858,-108.6478 703.6912,-94.466 714.4389,-83.2628"/>
<polygon fill="#191970" stroke="#191970" points="717.2541,-85.3841 721.6513,-75.7449 712.2027,-80.5381 717.2541,-85.3841"/>
</g>
<!-- Node11&#45;&gt;Node5 -->
<g id="edge16" class="edge">
<title>Node11&#45;&gt;Node5</title>
<path fill="none" stroke="#191970" d="M850.1947,-179.4541C838.3557,-169.3294 822.5513,-155.581 809,-143 787.3873,-122.9347 763.3551,-98.9428 747.7545,-83.1331"/>
<polygon fill="#191970" stroke="#191970" points="749.9291,-80.3526 740.4224,-75.6755 744.9375,-85.2602 749.9291,-80.3526"/>
</g>
<!-- Node11&#45;&gt;Node12 -->
<g id="edge17" class="edge">
<title>Node11&#45;&gt;Node12</title>
<path fill="none" stroke="#191970" d="M875.942,-179.2967C880.1933,-171.1586 885.53,-160.9425 890.338,-151.7386"/>
<polygon fill="#191970" stroke="#191970" points="893.5614,-153.1273 895.0894,-142.6432 887.3569,-149.8861 893.5614,-153.1273"/>
</g>
<!-- Node12&#45;&gt;Node5 -->
<g id="edge18" class="edge">
<title>Node12&#45;&gt;Node5</title>
<path fill="none" stroke="#191970" d="M860.9241,-112.4554C832.2254,-102.194 794.6063,-88.7429 767.2377,-78.9571"/>
<polygon fill="#191970" stroke="#191970" points="768.2485,-75.6015 757.6539,-75.5303 765.8917,-82.1929 768.2485,-75.6015"/>
</g>
<!-- Node14 -->
<g id="node15" class="node">
<title>Node14</title>
<polygon fill="none" stroke="#bfbfbf" points="1212.5,-185 1212.5,-204 1259.5,-204 1259.5,-185 1212.5,-185"/>
<text text-anchor="middle" x="1236" y="-192" font-family="Helvetica,sans-Serif" font-size="10.00" fill="#000000">cmath</text>
</g>
<!-- Node13&#45;&gt;Node14 -->
<g id="edge21" class="edge">
<title>Node13&#45;&gt;Node14</title>
<path fill="none" stroke="#191970" d="M1257.9375,-246.3906C1254.2576,-237.6862 1248.7258,-224.6015 1244.138,-213.7494"/>
<polygon fill="#191970" stroke="#191970" points="1247.2375,-212.0927 1240.1198,-204.2449 1240.79,-214.8185 1247.2375,-212.0927"/>
</g>
<!-- Node15 -->
<g id="node16" class="node">
<title>Node15</title>
<g id="a_node16"><a xlink:href="../../d1/da8/GPUROOTCartesianFwd_8h.html" target="_top" xlink:title="GPUROOTCartesianFwd.h">
<polygon fill="none" stroke="#000000" points="1218,-118 1218,-137 1358,-137 1358,-118 1218,-118"/>
<text text-anchor="middle" x="1288" y="-125" font-family="Helvetica,sans-Serif" font-size="10.00" fill="#000000">GPUROOTCartesianFwd.h</text>
</a>
</g>
</g>
<!-- Node13&#45;&gt;Node15 -->
<g id="edge22" class="edge">
<title>Node13&#45;&gt;Node15</title>
<path fill="none" stroke="#191970" d="M1263.9542,-246.3416C1268.208,-225.3184 1278.377,-175.0598 1284.0335,-147.1038"/>
<polygon fill="#191970" stroke="#191970" points="1287.4703,-147.766 1286.0231,-137.2705 1280.6094,-146.3777 1287.4703,-147.766"/>
</g>
<!-- Node19 -->
<g id="node20" class="node">
<title>Node19</title>
<g id="a_node20"><a xlink:href="../../dc/d73/Cartesian_8h.html" target="_top" xlink:title="MathUtils/Cartesian.h">
<polygon fill="none" stroke="#000000" points="1967,-185 1967,-204 2089,-204 2089,-185 1967,-185"/>
<text text-anchor="middle" x="2028" y="-192" font-family="Helvetica,sans-Serif" font-size="10.00" fill="#000000">MathUtils/Cartesian.h</text>
</a>
</g>
</g>
<!-- Node13&#45;&gt;Node19 -->
<g id="edge26" class="edge">
<title>Node13&#45;&gt;Node19</title>
<path fill="none" stroke="#191970" d="M1328.6375,-250.6499C1472.0653,-239.1344 1808.9624,-212.0859 1956.5815,-200.234"/>
<polygon fill="#191970" stroke="#191970" points="1957.19,-203.6965 1966.8778,-199.4073 1956.6297,-196.7189 1957.19,-203.6965"/>
</g>
<!-- Node16 -->
<g id="node17" class="node">
<title>Node16</title>
<g id="a_node17"><a xlink:href="../../df/d21/GPUCommonDef_8h.html" target="_top" xlink:title="GPUCommonDef.h">
<polygon fill="none" stroke="#000000" points="1278.5,-56.5 1278.5,-75.5 1385.5,-75.5 1385.5,-56.5 1278.5,-56.5"/>
<text text-anchor="middle" x="1332" y="-63.5" font-family="Helvetica,sans-Serif" font-size="10.00" fill="#000000">GPUCommonDef.h</text>
</a>
</g>
</g>
<!-- Node15&#45;&gt;Node16 -->
<g id="edge23" class="edge">
<title>Node15&#45;&gt;Node16</title>
<path fill="none" stroke="#191970" d="M1294.875,-117.8906C1301.3593,-108.8273 1311.2414,-95.0149 1319.1801,-83.9188"/>
<polygon fill="#191970" stroke="#191970" points="1322.0559,-85.9143 1325.0281,-75.7449 1316.3629,-81.8412 1322.0559,-85.9143"/>
</g>
<!-- Node17 -->
<g id="node18" class="node">
<title>Node17</title>
<g id="a_node18"><a xlink:href="../../d5/d93/GPUCommonDefSettings_8h.html" target="_top" xlink:title="GPUCommonDefSettings.h">
<polygon fill="none" stroke="#000000" points="1181,-.5 1181,-19.5 1329,-19.5 1329,-.5 1181,-.5"/>
<text text-anchor="middle" x="1255" y="-7.5" font-family="Helvetica,sans-Serif" font-size="10.00" fill="#000000">GPUCommonDefSettings.h</text>
</a>
</g>
</g>
<!-- Node16&#45;&gt;Node17 -->
<g id="edge24" class="edge">
<title>Node16&#45;&gt;Node17</title>
<path fill="none" stroke="#191970" d="M1318.5876,-56.2455C1306.9943,-47.814 1290.0252,-35.4729 1276.5322,-25.6598"/>
<polygon fill="#191970" stroke="#191970" points="1278.4047,-22.6938 1268.2587,-19.6427 1274.2874,-28.355 1278.4047,-22.6938"/>
</g>
<!-- Node18 -->
<g id="node19" class="node">
<title>Node18</title>
<g id="a_node19"><a xlink:href="../../da/d5a/GPUCommonDefAPI_8h.html" target="_top" xlink:title="GPUCommonDefAPI.h">
<polygon fill="none" stroke="#000000" points="1347,-.5 1347,-19.5 1471,-19.5 1471,-.5 1347,-.5"/>
<text text-anchor="middle" x="1409" y="-7.5" font-family="Helvetica,sans-Serif" font-size="10.00" fill="#000000">GPUCommonDefAPI.h</text>
</a>
</g>
</g>
<!-- Node16&#45;&gt;Node18 -->
<g id="edge25" class="edge">
<title>Node16&#45;&gt;Node18</title>
<path fill="none" stroke="#191970" d="M1345.4124,-56.2455C1357.0057,-47.814 1373.9748,-35.4729 1387.4678,-25.6598"/>
<polygon fill="#191970" stroke="#191970" points="1389.7126,-28.355 1395.7413,-19.6427 1385.5953,-22.6938 1389.7126,-28.355"/>
</g>
<!-- Node19&#45;&gt;Node15 -->
<g id="edge39" class="edge">
<title>Node19&#45;&gt;Node15</title>
<path fill="none" stroke="#191970" d="M1966.7314,-191.8228C1850.4164,-186.2684 1589.7602,-171.5598 1372,-143 1363.2399,-141.8511 1354.0076,-140.3974 1344.9974,-138.8431"/>
<polygon fill="#191970" stroke="#191970" points="1345.4144,-135.3624 1334.9559,-137.0563 1344.1881,-142.2542 1345.4144,-135.3624"/>
</g>
<!-- Node19&#45;&gt;Node16 -->
<g id="edge27" class="edge">
<title>Node19&#45;&gt;Node16</title>
<path fill="none" stroke="#191970" d="M1966.9653,-191.9277C1819.9885,-185.3829 1454.8438,-166.9096 1405,-143 1390.8306,-136.2031 1363.1205,-104.261 1346.214,-83.7118"/>
<polygon fill="#191970" stroke="#191970" points="1348.7278,-81.2557 1339.7008,-75.7091 1343.2986,-85.6744 1348.7278,-81.2557"/>
</g>
<!-- Node20 -->
<g id="node21" class="node">
<title>Node20</title>
<g id="a_node21"><a xlink:href="../../d2/d45/GPUCommonRtypes_8h.html" target="_top" xlink:title="GPUCommonRtypes.h">
<polygon fill="none" stroke="#000000" points="1414.5,-118 1414.5,-137 1539.5,-137 1539.5,-118 1414.5,-118"/>
<text text-anchor="middle" x="1477" y="-125" font-family="Helvetica,sans-Serif" font-size="10.00" fill="#000000">GPUCommonRtypes.h</text>
</a>
</g>
</g>
<!-- Node19&#45;&gt;Node20 -->
<g id="edge28" class="edge">
<title>Node19&#45;&gt;Node20</title>
<path fill="none" stroke="#191970" d="M1966.858,-189.9933C1875.5345,-182.7955 1698.2568,-167.0216 1549,-143 1542.1298,-141.8943 1534.9268,-140.5582 1527.8429,-139.1397"/>
<polygon fill="#191970" stroke="#191970" points="1528.104,-135.6196 1517.602,-137.0196 1526.6848,-142.4743 1528.104,-135.6196"/>
</g>
<!-- Node22 -->
<g id="node23" class="node">
<title>Node22</title>
<polygon fill="none" stroke="#bfbfbf" points="1558,-112.5 1558,-142.5 1722,-142.5 1722,-112.5 1558,-112.5"/>
<text text-anchor="start" x="1566" y="-130.5" font-family="Helvetica,sans-Serif" font-size="10.00" fill="#000000">Math/GenVector/Displacement</text>
<text text-anchor="middle" x="1640" y="-119.5" font-family="Helvetica,sans-Serif" font-size="10.00" fill="#000000">Vector3D.h</text>
</g>
<!-- Node19&#45;&gt;Node22 -->
<g id="edge30" class="edge">
<title>Node19&#45;&gt;Node22</title>
<path fill="none" stroke="#191970" d="M1972.8211,-184.9717C1910.1495,-174.1495 1806.8881,-156.3183 1731.984,-143.3838"/>
<polygon fill="#191970" stroke="#191970" points="1732.5224,-139.9251 1722.0727,-141.6723 1731.3312,-146.823 1732.5224,-139.9251"/>
</g>
<!-- Node23 -->
<g id="node24" class="node">
<title>Node23</title>
<polygon fill="none" stroke="#bfbfbf" points="1740.5,-118 1740.5,-137 1929.5,-137 1929.5,-118 1740.5,-118"/>
<text text-anchor="middle" x="1835" y="-125" font-family="Helvetica,sans-Serif" font-size="10.00" fill="#000000">Math/GenVector/PositionVector3D.h</text>
</g>
<!-- Node19&#45;&gt;Node23 -->
<g id="edge31" class="edge">
<title>Node19&#45;&gt;Node23</title>
<path fill="none" stroke="#191970" d="M2000.3478,-184.9005C1966.6682,-173.2086 1909.6426,-153.4122 1872.1528,-140.3976"/>
<polygon fill="#191970" stroke="#191970" points="1873.1957,-137.0548 1862.6009,-137.0817 1870.9,-143.6677 1873.1957,-137.0548"/>
</g>
<!-- Node24 -->
<g id="node25" class="node">
<title>Node24</title>
<polygon fill="none" stroke="#bfbfbf" points="1948,-118 1948,-137 2108,-137 2108,-118 1948,-118"/>
<text text-anchor="middle" x="2028" y="-125" font-family="Helvetica,sans-Serif" font-size="10.00" fill="#000000">Math/GenVector/Rotation3D.h</text>
</g>
<!-- Node19&#45;&gt;Node24 -->
<g id="edge32" class="edge">
<title>Node19&#45;&gt;Node24</title>
<path fill="none" stroke="#191970" d="M2028,-184.9005C2028,-175.149 2028,-159.7597 2028,-147.3695"/>
<polygon fill="#191970" stroke="#191970" points="2031.5001,-147.0816 2028,-137.0817 2024.5001,-147.0817 2031.5001,-147.0816"/>
</g>
<!-- Node25 -->
<g id="node26" class="node">
<title>Node25</title>
<polygon fill="none" stroke="#bfbfbf" points="2126,-118 2126,-137 2294,-137 2294,-118 2126,-118"/>
<text text-anchor="middle" x="2210" y="-125" font-family="Helvetica,sans-Serif" font-size="10.00" fill="#000000">Math/GenVector/Transform3D.h</text>
</g>
<!-- Node19&#45;&gt;Node25 -->
<g id="edge33" class="edge">
<title>Node19&#45;&gt;Node25</title>
<path fill="none" stroke="#191970" d="M2054.0762,-184.9005C2085.7011,-173.2584 2139.1544,-153.5805 2174.5124,-140.5641"/>
<polygon fill="#191970" stroke="#191970" points="2175.797,-143.8209 2183.9722,-137.0817 2173.3787,-137.2519 2175.797,-143.8209"/>
</g>
<!-- Node26 -->
<g id="node27" class="node">
<title>Node26</title>
<polygon fill="none" stroke="#bfbfbf" points="2312.5,-118 2312.5,-137 2485.5,-137 2485.5,-118 2312.5,-118"/>
<text text-anchor="middle" x="2399" y="-125" font-family="Helvetica,sans-Serif" font-size="10.00" fill="#000000">Math/GenVector/Translation3D.h</text>
</g>
<!-- Node19&#45;&gt;Node26 -->
<g id="edge34" class="edge">
<title>Node19&#45;&gt;Node26</title>
<path fill="none" stroke="#191970" d="M2080.7613,-184.9717C2147.974,-172.8335 2264.011,-151.8781 2335.8529,-138.9039"/>
<polygon fill="#191970" stroke="#191970" points="2336.902,-142.2712 2346.1207,-137.0496 2335.6579,-135.3826 2336.902,-142.2712"/>
</g>
<!-- Node27 -->
<g id="node28" class="node">
<title>Node27</title>
<polygon fill="none" stroke="#bfbfbf" points="2504,-112.5 2504,-142.5 2668,-142.5 2668,-112.5 2504,-112.5"/>
<text text-anchor="start" x="2512" y="-130.5" font-family="Helvetica,sans-Serif" font-size="10.00" fill="#000000">Math/GenVector/Displacement</text>
<text text-anchor="middle" x="2586" y="-119.5" font-family="Helvetica,sans-Serif" font-size="10.00" fill="#000000">Vector2D.h</text>
</g>
<!-- Node19&#45;&gt;Node27 -->
<g id="edge35" class="edge">
<title>Node19&#45;&gt;Node27</title>
<path fill="none" stroke="#191970" d="M2089.3394,-188.8971C2176.8242,-180.6484 2342.6823,-164.0582 2493.7647,-143.1274"/>
<polygon fill="#191970" stroke="#191970" points="2494.2733,-146.5904 2503.6939,-141.7425 2493.3062,-139.6576 2494.2733,-146.5904"/>
</g>
<!-- Node28 -->
<g id="node29" class="node">
<title>Node28</title>
<polygon fill="none" stroke="#bfbfbf" points="2686.5,-118 2686.5,-137 2875.5,-137 2875.5,-118 2686.5,-118"/>
<text text-anchor="middle" x="2781" y="-125" font-family="Helvetica,sans-Serif" font-size="10.00" fill="#000000">Math/GenVector/PositionVector2D.h</text>
</g>
<!-- Node19&#45;&gt;Node28 -->
<g id="edge36" class="edge">
<title>Node19&#45;&gt;Node28</title>
<path fill="none" stroke="#191970" d="M2089.4289,-191.0377C2204.7997,-184.2218 2461.6654,-167.5608 2677,-143 2688.2926,-141.712 2700.244,-140.1336 2711.8658,-138.4824"/>
<polygon fill="#191970" stroke="#191970" points="2712.5746,-141.9163 2721.9691,-137.018 2711.5704,-134.9887 2712.5746,-141.9163"/>
</g>
<!-- Node29 -->
<g id="node30" class="node">
<title>Node29</title>
<polygon fill="none" stroke="#bfbfbf" points="2894,-118 2894,-137 2976,-137 2976,-118 2894,-118"/>
<text text-anchor="middle" x="2935" y="-125" font-family="Helvetica,sans-Serif" font-size="10.00" fill="#000000">TGeoMatrix.h</text>
</g>
<!-- Node19&#45;&gt;Node29 -->
<g id="edge37" class="edge">
<title>Node19&#45;&gt;Node29</title>
<path fill="none" stroke="#191970" d="M2089.1655,-192.7358C2258.6611,-187.5428 2731.948,-170.9004 2885,-143 2889.4452,-142.1897 2894.0498,-141.1094 2898.584,-139.8947"/>
<polygon fill="#191970" stroke="#191970" points="2899.6803,-143.2211 2908.309,-137.0732 2897.7298,-136.4983 2899.6803,-143.2211"/>
</g>
<!-- Node30 -->
<g id="node31" class="node">
<title>Node30</title>
<polygon fill="none" stroke="#bfbfbf" points="2994.5,-118 2994.5,-137 3043.5,-137 3043.5,-118 2994.5,-118"/>
<text text-anchor="middle" x="3019" y="-125" font-family="Helvetica,sans-Serif" font-size="10.00" fill="#000000">iosfwd</text>
</g>
<!-- Node19&#45;&gt;Node30 -->
<g id="edge38" class="edge">
<title>Node19&#45;&gt;Node30</title>
<path fill="none" stroke="#191970" d="M2089.2077,-194.1755C2272.383,-192.7369 2814.1211,-184.9525 2985,-143 2987.3389,-142.4258 2989.7145,-141.6921 2992.0669,-140.8573"/>
<polygon fill="#191970" stroke="#191970" points="2993.5307,-144.04 3001.4536,-137.006 2990.8735,-137.5639 2993.5307,-144.04"/>
</g>
<!-- Node21 -->
<g id="node22" class="node">
<title>Node21</title>
<polygon fill="none" stroke="#bfbfbf" points="1447.5,-56.5 1447.5,-75.5 1506.5,-75.5 1506.5,-56.5 1447.5,-56.5"/>
<text text-anchor="middle" x="1477" y="-63.5" font-family="Helvetica,sans-Serif" font-size="10.00" fill="#000000">Rtypes.h</text>
</g>
<!-- Node20&#45;&gt;Node21 -->
<g id="edge29" class="edge">
<title>Node20&#45;&gt;Node21</title>
<path fill="none" stroke="#191970" d="M1477,-117.8906C1477,-109.3657 1477,-96.6392 1477,-85.9235"/>
<polygon fill="#191970" stroke="#191970" points="1480.5001,-85.7448 1477,-75.7449 1473.5001,-85.7449 1480.5001,-85.7448"/>
</g>
<!-- Node31&#45;&gt;Node2 -->
<g id="edge43" class="edge">
<title>Node31&#45;&gt;Node2</title>
<path fill="none" stroke="#191970" d="M219.9688,-246.3906C238.7884,-236.3262 268.5585,-220.4057 290.1641,-208.8514"/>
<polygon fill="#191970" stroke="#191970" points="291.9898,-211.8442 299.1574,-204.0419 288.6886,-205.6714 291.9898,-211.8442"/>
</g>
<!-- Node32 -->
<g id="node33" class="node">
<title>Node32</title>
<polygon fill="none" stroke="#bfbfbf" points="0,-185 0,-204 44,-204 44,-185 0,-185"/>
<text text-anchor="middle" x="22" y="-192" font-family="Helvetica,sans-Serif" font-size="10.00" fill="#000000">Vc/Vc</text>
</g>
<!-- Node31&#45;&gt;Node32 -->
<g id="edge41" class="edge">
<title>Node31&#45;&gt;Node32</title>
<path fill="none" stroke="#191970" d="M165.2903,-246.4814C134.7709,-238.1389 90.4377,-225.0202 53,-210 51.6388,-209.4539 50.2557,-208.8712 48.8674,-208.264"/>
<polygon fill="#191970" stroke="#191970" points="50.3435,-205.0905 39.8024,-204.0253 47.3785,-211.4316 50.3435,-205.0905"/>
</g>
<!-- Node33 -->
<g id="node34" class="node">
<title>Node33</title>
<polygon fill="none" stroke="#bfbfbf" points="62,-185 62,-204 104,-204 104,-185 62,-185"/>
<text text-anchor="middle" x="83" y="-192" font-family="Helvetica,sans-Serif" font-size="10.00" fill="#000000">array</text>
</g>
<!-- Node31&#45;&gt;Node33 -->
<g id="edge42" class="edge">
<title>Node31&#45;&gt;Node33</title>
<path fill="none" stroke="#191970" d="M183.4063,-246.3906C163.8447,-236.2811 132.8499,-220.2628 110.4691,-208.6962"/>
<polygon fill="#191970" stroke="#191970" points="111.9539,-205.5238 101.4632,-204.0419 108.74,-211.7425 111.9539,-205.5238"/>
</g>
<!-- Node34 -->
<g id="node35" class="node">
<title>Node34</title>
<polygon fill="none" stroke="#bfbfbf" points="122,-185 122,-204 194,-204 194,-185 122,-185"/>
<text text-anchor="middle" x="158" y="-192" font-family="Helvetica,sans-Serif" font-size="10.00" fill="#000000">TRandom.h</text>
</g>
<!-- Node31&#45;&gt;Node34 -->
<g id="edge44" class="edge">
<title>Node31&#45;&gt;Node34</title>
<path fill="none" stroke="#191970" d="M195.125,-246.3906C188.6407,-237.3273 178.7586,-223.5149 170.8199,-212.4188"/>
<polygon fill="#191970" stroke="#191970" points="173.6371,-210.3412 164.9719,-204.2449 167.9441,-214.4143 173.6371,-210.3412"/>
</g>
<!-- Node35 -->
<g id="node36" class="node">
<title>Node35</title>
<polygon fill="none" stroke="#bfbfbf" points="212.5,-185 212.5,-204 277.5,-204 277.5,-185 212.5,-185"/>
<text text-anchor="middle" x="245" y="-192" font-family="Helvetica,sans-Serif" font-size="10.00" fill="#000000">functional</text>
</g>
<!-- Node31&#45;&gt;Node35 -->
<g id="edge45" class="edge">
<title>Node31&#45;&gt;Node35</title>
<path fill="none" stroke="#191970" d="M208.7188,-246.3906C214.993,-237.417 224.5223,-223.7879 232.2404,-212.7491"/>
<polygon fill="#191970" stroke="#191970" points="235.3247,-214.4459 238.1865,-204.2449 229.5879,-210.4348 235.3247,-214.4459"/>
</g>
</g>
</svg>
