<?xml version="1.0" encoding="UTF-8" standalone="no"?>
<!DOCTYPE svg PUBLIC "-//W3C//DTD SVG 1.1//EN"
 "http://www.w3.org/Graphics/SVG/1.1/DTD/svg11.dtd">
<!-- Generated by graphviz version 2.40.1 (20161225.0304)
 -->
<!-- Title: o2::header::Descriptor&lt; N, PrinterPolicy &gt; Pages: 1 -->
<svg width="299pt" height="347pt"
 viewBox="0.00 0.00 298.50 347.00" xmlns="http://www.w3.org/2000/svg" xmlns:xlink="http://www.w3.org/1999/xlink">
<g id="graph0" class="graph" transform="scale(1 1) rotate(0) translate(4 343)">
<title>o2::header::Descriptor&lt; N, PrinterPolicy &gt;</title>
<!-- Node6 -->
<g id="node1" class="node">
<title>Node6</title>
<polygon fill="#bfbfbf" stroke="#000000" points="93,-.5 93,-211.5 218,-211.5 218,-.5 93,-.5"/>
<text text-anchor="start" x="101" y="-199.5" font-family="Helvetica,sans-Serif" font-size="10.00" fill="#000000">o2::header::Descriptor</text>
<text text-anchor="middle" x="155.5" y="-188.5" font-family="Helvetica,sans-Serif" font-size="10.00" fill="#000000">&lt; N, PrinterPolicy &gt;</text>
<polyline fill="none" stroke="#000000" points="93,-181.5 218,-181.5 "/>
<text text-anchor="middle" x="155.5" y="-169.5" font-family="Helvetica,sans-Serif" font-size="10.00" fill="#000000"> </text>
<polyline fill="none" stroke="#000000" points="93,-162.5 218,-162.5 "/>
<text text-anchor="start" x="101" y="-150.5" font-family="Helvetica,sans-Serif" font-size="10.00" fill="#000000">+ Descriptor()</text>
<text text-anchor="start" x="101" y="-139.5" font-family="Helvetica,sans-Serif" font-size="10.00" fill="#000000">+ Descriptor()</text>
<text text-anchor="start" x="101" y="-128.5" font-family="Helvetica,sans-Serif" font-size="10.00" fill="#000000">+ Descriptor()</text>
<text text-anchor="start" x="101" y="-117.5" font-family="Helvetica,sans-Serif" font-size="10.00" fill="#000000">+ operator=()</text>
<text text-anchor="start" x="101" y="-106.5" font-family="Helvetica,sans-Serif" font-size="10.00" fill="#000000">+ operator ItgType()</text>
<text text-anchor="start" x="101" y="-95.5" font-family="Helvetica,sans-Serif" font-size="10.00" fill="#000000">+ Descriptor()</text>
<text text-anchor="start" x="101" y="-84.5" font-family="Helvetica,sans-Serif" font-size="10.00" fill="#000000">+ runtimeInit()</text>
<text text-anchor="start" x="101" y="-73.5" font-family="Helvetica,sans-Serif" font-size="10.00" fill="#000000">+ operator==()</text>
<text text-anchor="start" x="101" y="-62.5" font-family="Helvetica,sans-Serif" font-size="10.00" fill="#000000">+ operator&lt;()</text>
<text text-anchor="start" x="101" y="-51.5" font-family="Helvetica,sans-Serif" font-size="10.00" fill="#000000">+ operator!=()</text>
<text text-anchor="start" x="101" y="-40.5" font-family="Helvetica,sans-Serif" font-size="10.00" fill="#000000">+ operator==()</text>
<text text-anchor="start" x="101" y="-29.5" font-family="Helvetica,sans-Serif" font-size="10.00" fill="#000000">+ operator!=()</text>
<text text-anchor="start" x="101" y="-18.5" font-family="Helvetica,sans-Serif" font-size="10.00" fill="#000000">+ as()</text>
<text text-anchor="start" x="101" y="-7.5" font-family="Helvetica,sans-Serif" font-size="10.00" fill="#000000">+ print()</text>
</g>
<!-- Node7 -->
<g id="node2" class="node">
<title>Node7</title>
<polygon fill="none" stroke="#bfbfbf" points="0,-281.5 0,-338.5 39,-338.5 39,-281.5 0,-281.5"/>
<text text-anchor="middle" x="19.5" y="-326.5" font-family="Helvetica,sans-Serif" font-size="10.00" fill="#000000">Type</text>
<polyline fill="none" stroke="#bfbfbf" points="0,-319.5 39,-319.5 "/>
<text text-anchor="middle" x="19.5" y="-307.5" font-family="Helvetica,sans-Serif" font-size="10.00" fill="#000000"> </text>
<polyline fill="none" stroke="#bfbfbf" points="0,-300.5 39,-300.5 "/>
<text text-anchor="middle" x="19.5" y="-288.5" font-family="Helvetica,sans-Serif" font-size="10.00" fill="#000000"> </text>
</g>
<!-- Node7&#45;&gt;Node6 -->
<g id="edge1" class="edge">
<title>Node7&#45;&gt;Node6</title>
<path fill="none" stroke="#404040" d="M38.697,-281.2045C51.2925,-262.3112 68.6096,-236.3357 86.0536,-210.1697"/>
<polygon fill="none" stroke="#404040" points="86.0793,-210.131 86.0793,-202.9198 92.7358,-200.1463 92.7358,-207.3575 86.0793,-210.131"/>
<text text-anchor="middle" x="84" y="-244" font-family="Helvetica,sans-Serif" font-size="10.00" fill="#000000"> +itg</text>
</g>
<!-- Node8 -->
<g id="node3" class="node">
<title>Node8</title>
<polygon fill="none" stroke="#bfbfbf" points="57,-281.5 57,-338.5 164,-338.5 164,-281.5 57,-281.5"/>
<text text-anchor="middle" x="110.5" y="-326.5" font-family="Helvetica,sans-Serif" font-size="10.00" fill="#000000">anonymous:+@90</text>
<polyline fill="none" stroke="#bfbfbf" points="57,-319.5 164,-319.5 "/>
<text text-anchor="middle" x="110.5" y="-307.5" font-family="Helvetica,sans-Serif" font-size="10.00" fill="#000000"> </text>
<polyline fill="none" stroke="#bfbfbf" points="57,-300.5 164,-300.5 "/>
<text text-anchor="middle" x="110.5" y="-288.5" font-family="Helvetica,sans-Serif" font-size="10.00" fill="#000000"> </text>
</g>
<!-- Node8&#45;&gt;Node6 -->
<g id="edge2" class="edge">
<title>Node8&#45;&gt;Node6</title>
<path fill="none" stroke="#404040" d="M116.852,-281.2045C120.3066,-265.5434 124.8347,-245.0161 129.5703,-223.5478"/>
<polygon fill="none" stroke="#404040" points="129.6321,-223.2674 127.0185,-216.5466 132.2171,-211.5491 134.8307,-218.2699 129.6321,-223.2674"/>
<text text-anchor="middle" x="144.5" y="-244" font-family="Helvetica,sans-Serif" font-size="10.00" fill="#000000"> +@90</text>
</g>
<!-- Node9 -->
<g id="node4" class="node">
<title>Node9</title>
<polygon fill="none" stroke="#bfbfbf" points="182.5,-281.5 182.5,-338.5 220.5,-338.5 220.5,-281.5 182.5,-281.5"/>
<text text-anchor="middle" x="201.5" y="-326.5" font-family="Helvetica,sans-Serif" font-size="10.00" fill="#000000">char</text>
<polyline fill="none" stroke="#bfbfbf" points="182.5,-319.5 220.5,-319.5 "/>
<text text-anchor="middle" x="201.5" y="-307.5" font-family="Helvetica,sans-Serif" font-size="10.00" fill="#000000"> </text>
<polyline fill="none" stroke="#bfbfbf" points="182.5,-300.5 220.5,-300.5 "/>
<text text-anchor="middle" x="201.5" y="-288.5" font-family="Helvetica,sans-Serif" font-size="10.00" fill="#000000"> </text>
</g>
<!-- Node9&#45;&gt;Node6 -->
<g id="edge3" class="edge">
<title>Node9&#45;&gt;Node6</title>
<path fill="none" stroke="#404040" d="M195.0069,-281.2045C191.4755,-265.5434 186.8468,-245.0161 182.0059,-223.5478"/>
<polygon fill="none" stroke="#404040" points="181.94,-223.2552 176.7181,-218.2821 179.3003,-211.5491 184.5222,-216.5223 181.94,-223.2552"/>
<text text-anchor="middle" x="202" y="-244" font-family="Helvetica,sans-Serif" font-size="10.00" fill="#000000"> +str</text>
</g>
<!-- Node10 -->
<g id="node5" class="node">
<title>Node10</title>
<polygon fill="none" stroke="#bfbfbf" points="239,-281.5 239,-338.5 268,-338.5 268,-281.5 239,-281.5"/>
<text text-anchor="middle" x="253.5" y="-326.5" font-family="Helvetica,sans-Serif" font-size="10.00" fill="#000000">int</text>
<polyline fill="none" stroke="#bfbfbf" points="239,-319.5 268,-319.5 "/>
<text text-anchor="middle" x="253.5" y="-307.5" font-family="Helvetica,sans-Serif" font-size="10.00" fill="#000000"> </text>
<polyline fill="none" stroke="#bfbfbf" points="239,-300.5 268,-300.5 "/>
<text text-anchor="middle" x="253.5" y="-288.5" font-family="Helvetica,sans-Serif" font-size="10.00" fill="#000000"> </text>
</g>
<!-- Node10&#45;&gt;Node6 -->
<g id="edge4" class="edge">
<title>Node10&#45;&gt;Node6</title>
<path fill="none" stroke="#404040" d="M241.4234,-281.3102C234.8542,-265.9874 226.4634,-246.8608 218.5,-230 217.3479,-227.5607 216.1764,-225.0982 214.9894,-222.6191"/>
<polygon fill="none" stroke="#404040" points="214.917,-222.469 208.7053,-218.8063 209.6972,-211.6637 215.9089,-215.3265 214.917,-222.469"/>
<text text-anchor="middle" x="261.5" y="-255" font-family="Helvetica,sans-Serif" font-size="10.00" fill="#000000"> +arraySize</text>
<text text-anchor="middle" x="261.5" y="-244" font-family="Helvetica,sans-Serif" font-size="10.00" fill="#000000">+size</text>
<text text-anchor="middle" x="261.5" y="-233" font-family="Helvetica,sans-Serif" font-size="10.00" fill="#000000">+bitcount</text>
</g>
</g>
</svg>
