<?xml version="1.0" encoding="UTF-8" standalone="no"?>
<!DOCTYPE svg PUBLIC "-//W3C//DTD SVG 1.1//EN"
 "http://www.w3.org/Graphics/SVG/1.1/DTD/svg11.dtd">
<!-- Generated by graphviz version 2.40.1 (20161225.0304)
 -->
<!-- Title: /home/travis/build/AliceO2Group/AliceO2/DataFormats/Detectors/Common/include/DetectorsCommonDataFormats/NameConf.h Pages: 1 -->
<!--zoomable 419 -->
<svg id="main" version="1.1" xmlns="http://www.w3.org/2000/svg" xmlns:xlink="http://www.w3.org/1999/xlink" xml:space="preserve" onload="init(evt)">
<style type="text/css"><![CDATA[
.edge:hover path { stroke: red; }
.edge:hover polygon { stroke: red; fill: red; }
]]></style>
<script type="text/javascript"><![CDATA[
var edges = document.getElementsByTagName('g');
if (edges && edges.length) {
  for (var i=0;i<edges.length;i++) {
    if (edges[i].id.substr(0,4)=='edge') {
      edges[i].setAttribute('class','edge');
    }
  }
}
]]></script>
        <defs>
                <circle id="rim" cx="0" cy="0" r="7"/>
                <circle id="rim2" cx="0" cy="0" r="3.5"/>
                <g id="zoomPlus">
                        <use xlink:href="#rim" fill="#404040">
                                <set attributeName="fill" to="#808080" begin="zoomplus.mouseover" end="zoomplus.mouseout"/>
                        </use>
                        <path d="M-4,0h8M0,-4v8" fill="none" stroke="white" stroke-width="1.5" pointer-events="none"/>
                </g>
                <g id="zoomMin">
                        <use xlink:href="#rim" fill="#404040">
                                <set attributeName="fill" to="#808080" begin="zoomminus.mouseover" end="zoomminus.mouseout"/>
                        </use>
                        <path d="M-4,0h8" fill="none" stroke="white" stroke-width="1.5" pointer-events="none"/>
                </g>
                <g id="dirArrow">
                        <path fill="none" stroke="white" stroke-width="1.5" d="M0,-3.0v7 M-2.5,-0.5L0,-3.0L2.5,-0.5"/>
                </g>
               <g id="resetDef">
                       <use xlink:href="#rim2" fill="#404040">
                               <set attributeName="fill" to="#808080" begin="reset.mouseover" end="reset.mouseout"/>
                       </use>
               </g>
        </defs>

<script type="text/javascript">
var viewWidth = 1570;
var viewHeight = 419;
var sectionId = 'dynsection-0';
</script>
<script xlink:href="../../svgpan.js"/>
<svg id="graph" class="graph">
<g id="viewport">
<title>/home/travis/build/AliceO2Group/AliceO2/DataFormats/Detectors/Common/include/DetectorsCommonDataFormats/NameConf.h</title>
<!-- Node0 -->
<g id="node1" class="node">
<title>Node0</title>
<polygon fill="#bfbfbf" stroke="#000000" points="1289.5,-347.5 1289.5,-410.5 1486.5,-410.5 1486.5,-347.5 1289.5,-347.5"/>
<text text-anchor="start" x="1297.5" y="-398.5" font-family="Helvetica,sans-Serif" font-size="10.00" fill="#000000">/home/travis/build</text>
<text text-anchor="start" x="1297.5" y="-387.5" font-family="Helvetica,sans-Serif" font-size="10.00" fill="#000000">/AliceO2Group/AliceO2</text>
<text text-anchor="start" x="1297.5" y="-376.5" font-family="Helvetica,sans-Serif" font-size="10.00" fill="#000000">/DataFormats/Detectors</text>
<text text-anchor="start" x="1297.5" y="-365.5" font-family="Helvetica,sans-Serif" font-size="10.00" fill="#000000">/Common/include/DetectorsCommon</text>
<text text-anchor="middle" x="1388" y="-354.5" font-family="Helvetica,sans-Serif" font-size="10.00" fill="#000000">DataFormats/NameConf.h</text>
</g>
<!-- Node1 -->
<g id="node2" class="node">
<title>Node1</title>
<g id="a_node2"><a xlink:href="../../d6/d31/DetID_8h.html" target="_top" xlink:title="DetectorsCommonDataFormats\l/DetID.h">
<polygon fill="none" stroke="#000000" points="620.5,-280.5 620.5,-310.5 791.5,-310.5 791.5,-280.5 620.5,-280.5"/>
<text text-anchor="start" x="628.5" y="-298.5" font-family="Helvetica,sans-Serif" font-size="10.00" fill="#000000">DetectorsCommonDataFormats</text>
<text text-anchor="middle" x="706" y="-287.5" font-family="Helvetica,sans-Serif" font-size="10.00" fill="#000000">/DetID.h</text>
</a>
</g>
</g>
<!-- Node0&#45;&gt;Node1 -->
<g id="edge1" class="edge">
<title>Node0&#45;&gt;Node1</title>
<path fill="none" stroke="#191970" d="M1289.1958,-366.903C1158.8143,-350.9399 930.8004,-323.0232 801.892,-307.2404"/>
<polygon fill="#191970" stroke="#191970" points="801.9922,-303.7267 791.6409,-305.9854 801.1415,-310.6748 801.9922,-303.7267"/>
</g>
<!-- Node7 -->
<g id="node8" class="node">
<title>Node7</title>
<polygon fill="none" stroke="#bfbfbf" points="1360.5,-224.5 1360.5,-243.5 1433.5,-243.5 1433.5,-224.5 1360.5,-224.5"/>
<text text-anchor="middle" x="1397" y="-231.5" font-family="Helvetica,sans-Serif" font-size="10.00" fill="#000000">string_view</text>
</g>
<!-- Node0&#45;&gt;Node7 -->
<g id="edge40" class="edge">
<title>Node0&#45;&gt;Node7</title>
<path fill="none" stroke="#191970" d="M1389.9751,-347.1791C1391.744,-318.6799 1394.2825,-277.7812 1395.7744,-253.7465"/>
<polygon fill="#191970" stroke="#191970" points="1399.2708,-253.9102 1396.3972,-243.7125 1392.2843,-253.4764 1399.2708,-253.9102"/>
</g>
<!-- Node29 -->
<g id="node30" class="node">
<title>Node29</title>
<g id="a_node30"><a xlink:href="../../d1/d1e/Common_2Utils_2include_2CommonUtils_2StringUtils_8h.html" target="_top" xlink:title="CommonUtils/StringUtils.h">
<polygon fill="none" stroke="#000000" points="1416,-286 1416,-305 1562,-305 1562,-286 1416,-286"/>
<text text-anchor="middle" x="1489" y="-293" font-family="Helvetica,sans-Serif" font-size="10.00" fill="#000000">CommonUtils/StringUtils.h</text>
</a>
</g>
</g>
<!-- Node0&#45;&gt;Node29 -->
<g id="edge38" class="edge">
<title>Node0&#45;&gt;Node29</title>
<path fill="none" stroke="#191970" d="M1426.1838,-347.4322C1440.8895,-335.2745 1457.0792,-321.89 1469.3392,-311.7542"/>
<polygon fill="#191970" stroke="#191970" points="1471.6555,-314.3805 1477.1326,-305.3112 1467.1952,-308.9855 1471.6555,-314.3805"/>
</g>
<!-- Node2 -->
<g id="node3" class="node">
<title>Node2</title>
<polygon fill="none" stroke="#bfbfbf" points="580.5,-224.5 580.5,-243.5 639.5,-243.5 639.5,-224.5 580.5,-224.5"/>
<text text-anchor="middle" x="610" y="-231.5" font-family="Helvetica,sans-Serif" font-size="10.00" fill="#000000">Rtypes.h</text>
</g>
<!-- Node1&#45;&gt;Node2 -->
<g id="edge2" class="edge">
<title>Node1&#45;&gt;Node2</title>
<path fill="none" stroke="#191970" d="M682.2697,-280.2977C667.4638,-270.8127 648.4772,-258.6495 633.6807,-249.1705"/>
<polygon fill="#191970" stroke="#191970" points="635.3925,-246.1105 625.0841,-243.6633 631.6165,-252.0047 635.3925,-246.1105"/>
</g>
<!-- Node3 -->
<g id="node4" class="node">
<title>Node3</title>
<polygon fill="none" stroke="#bfbfbf" points="1371,-112.5 1371,-131.5 1413,-131.5 1413,-112.5 1371,-112.5"/>
<text text-anchor="middle" x="1392" y="-119.5" font-family="Helvetica,sans-Serif" font-size="10.00" fill="#000000">array</text>
</g>
<!-- Node1&#45;&gt;Node3 -->
<g id="edge3" class="edge">
<title>Node1&#45;&gt;Node3</title>
<path fill="none" stroke="#191970" d="M791.5614,-285.8636C936.0522,-268.6799 1221.6133,-230.5365 1313,-188 1338.1116,-176.3117 1361.7726,-154.5855 1376.5356,-139.2595"/>
<polygon fill="#191970" stroke="#191970" points="1379.13,-141.6095 1383.4052,-131.9154 1374.0179,-136.8276 1379.13,-141.6095"/>
</g>
<!-- Node4 -->
<g id="node5" class="node">
<title>Node4</title>
<polygon fill="none" stroke="#bfbfbf" points="431,-224.5 431,-243.5 475,-243.5 475,-224.5 431,-224.5"/>
<text text-anchor="middle" x="453" y="-231.5" font-family="Helvetica,sans-Serif" font-size="10.00" fill="#000000">bitset</text>
</g>
<!-- Node1&#45;&gt;Node4 -->
<g id="edge4" class="edge">
<title>Node1&#45;&gt;Node4</title>
<path fill="none" stroke="#191970" d="M634.3801,-280.4885C593.1708,-271.477 540.2539,-259.275 485.2177,-244.1849"/>
<polygon fill="#191970" stroke="#191970" points="485.8547,-240.7297 475.2834,-241.4356 483.9876,-247.4761 485.8547,-240.7297"/>
</g>
<!-- Node5 -->
<g id="node6" class="node">
<title>Node5</title>
<polygon fill="none" stroke="#bfbfbf" points="602,-168.5 602,-187.5 654,-187.5 654,-168.5 602,-168.5"/>
<text text-anchor="middle" x="628" y="-175.5" font-family="Helvetica,sans-Serif" font-size="10.00" fill="#000000">cassert</text>
</g>
<!-- Node1&#45;&gt;Node5 -->
<g id="edge5" class="edge">
<title>Node1&#45;&gt;Node5</title>
<path fill="none" stroke="#191970" d="M695.8029,-280.1389C681.4304,-258.4881 655.2665,-219.0745 639.9838,-196.0525"/>
<polygon fill="#191970" stroke="#191970" points="642.7925,-193.9552 634.3459,-187.5595 636.9605,-197.8266 642.7925,-193.9552"/>
</g>
<!-- Node6 -->
<g id="node7" class="node">
<title>Node6</title>
<polygon fill="none" stroke="#bfbfbf" points="719,-112.5 719,-131.5 769,-131.5 769,-112.5 719,-112.5"/>
<text text-anchor="middle" x="744" y="-119.5" font-family="Helvetica,sans-Serif" font-size="10.00" fill="#000000">cstdint</text>
</g>
<!-- Node1&#45;&gt;Node6 -->
<g id="edge6" class="edge">
<title>Node1&#45;&gt;Node6</title>
<path fill="none" stroke="#191970" d="M709.3058,-280.4065C716.1817,-249.0126 732.0205,-176.6961 739.6869,-141.6925"/>
<polygon fill="#191970" stroke="#191970" points="743.1466,-142.2553 741.8672,-131.738 736.3087,-140.7576 743.1466,-142.2553"/>
</g>
<!-- Node1&#45;&gt;Node7 -->
<g id="edge7" class="edge">
<title>Node1&#45;&gt;Node7</title>
<path fill="none" stroke="#191970" d="M791.7389,-291.6932C914.8467,-285.5266 1148.6127,-271.2042 1346,-244 1347.4525,-243.7998 1348.926,-243.5848 1350.4122,-243.3575"/>
<polygon fill="#191970" stroke="#191970" points="1351.0228,-246.8041 1360.3123,-241.7095 1349.8733,-239.8991 1351.0228,-246.8041"/>
</g>
<!-- Node8 -->
<g id="node9" class="node">
<title>Node8</title>
<polygon fill="none" stroke="#bfbfbf" points="672,-168.5 672,-187.5 716,-187.5 716,-168.5 672,-168.5"/>
<text text-anchor="middle" x="694" y="-175.5" font-family="Helvetica,sans-Serif" font-size="10.00" fill="#000000">string</text>
</g>
<!-- Node1&#45;&gt;Node8 -->
<g id="edge8" class="edge">
<title>Node1&#45;&gt;Node8</title>
<path fill="none" stroke="#191970" d="M704.4312,-280.1389C702.2692,-258.9692 698.3728,-220.8174 696.0028,-197.6112"/>
<polygon fill="#191970" stroke="#191970" points="699.4743,-197.1521 694.9763,-187.5595 692.5105,-197.8634 699.4743,-197.1521"/>
</g>
<!-- Node9 -->
<g id="node10" class="node">
<title>Node9</title>
<polygon fill="none" stroke="#bfbfbf" points="493.5,-224.5 493.5,-243.5 562.5,-243.5 562.5,-224.5 493.5,-224.5"/>
<text text-anchor="middle" x="528" y="-231.5" font-family="Helvetica,sans-Serif" font-size="10.00" fill="#000000">type_traits</text>
</g>
<!-- Node1&#45;&gt;Node9 -->
<g id="edge9" class="edge">
<title>Node1&#45;&gt;Node9</title>
<path fill="none" stroke="#191970" d="M662.4563,-280.4554C632.6263,-270.149 593.4834,-256.6249 565.1298,-246.8286"/>
<polygon fill="#191970" stroke="#191970" points="566.1784,-243.4879 555.5837,-243.5303 563.8924,-250.1041 566.1784,-243.4879"/>
</g>
<!-- Node10 -->
<g id="node11" class="node">
<title>Node10</title>
<g id="a_node11"><a xlink:href="../../d9/d52/Common_2MathUtils_2include_2MathUtils_2Utils_8h.html" target="_top" xlink:title="MathUtils/Utils.h">
<polygon fill="none" stroke="#000000" points="882,-224.5 882,-243.5 980,-243.5 980,-224.5 882,-224.5"/>
<text text-anchor="middle" x="931" y="-231.5" font-family="Helvetica,sans-Serif" font-size="10.00" fill="#000000">MathUtils/Utils.h</text>
</a>
</g>
</g>
<!-- Node1&#45;&gt;Node10 -->
<g id="edge10" class="edge">
<title>Node1&#45;&gt;Node10</title>
<path fill="none" stroke="#191970" d="M761.0412,-280.4554C799.571,-269.9239 850.3922,-256.0328 886.3941,-246.1923"/>
<polygon fill="#191970" stroke="#191970" points="887.4097,-249.5432 896.133,-243.5303 885.564,-242.7909 887.4097,-249.5432"/>
</g>
<!-- Node22 -->
<g id="node23" class="node">
<title>Node22</title>
<g id="a_node23"><a xlink:href="../../dc/dcd/DataHeader_8h.html" target="_top" xlink:title="Headers/DataHeader.h">
<polygon fill="none" stroke="#000000" points="285.5,-224.5 285.5,-243.5 412.5,-243.5 412.5,-224.5 285.5,-224.5"/>
<text text-anchor="middle" x="349" y="-231.5" font-family="Helvetica,sans-Serif" font-size="10.00" fill="#000000">Headers/DataHeader.h</text>
</a>
</g>
</g>
<!-- Node1&#45;&gt;Node22 -->
<g id="edge27" class="edge">
<title>Node1&#45;&gt;Node22</title>
<path fill="none" stroke="#191970" d="M620.4896,-280.7692C557.2459,-269.8743 472.3947,-255.2571 414.4914,-245.2821"/>
<polygon fill="#191970" stroke="#191970" points="414.8126,-241.786 404.3636,-243.5374 413.6242,-248.6844 414.8126,-241.786"/>
</g>
<!-- Node11 -->
<g id="node12" class="node">
<title>Node11</title>
<g id="a_node12"><a xlink:href="../../de/def/bitOps_8h.html" target="_top" xlink:title="MathUtils/detail/bitOps.h">
<polygon fill="none" stroke="#000000" points="772.5,-168.5 772.5,-187.5 909.5,-187.5 909.5,-168.5 772.5,-168.5"/>
<text text-anchor="middle" x="841" y="-175.5" font-family="Helvetica,sans-Serif" font-size="10.00" fill="#000000">MathUtils/detail/bitOps.h</text>
</a>
</g>
</g>
<!-- Node10&#45;&gt;Node11 -->
<g id="edge11" class="edge">
<title>Node10&#45;&gt;Node11</title>
<path fill="none" stroke="#191970" d="M915.3232,-224.2455C901.5144,-215.6534 881.1807,-203.0014 865.2708,-193.1018"/>
<polygon fill="#191970" stroke="#191970" points="866.8368,-189.954 856.4972,-187.6427 863.1387,-195.8974 866.8368,-189.954"/>
</g>
<!-- Node12 -->
<g id="node13" class="node">
<title>Node12</title>
<g id="a_node13"><a xlink:href="../../d3/dfc/StatAccumulator_8h.html" target="_top" xlink:title="MathUtils/detail/StatAccumulator.h">
<polygon fill="none" stroke="#000000" points="928,-168.5 928,-187.5 1114,-187.5 1114,-168.5 928,-168.5"/>
<text text-anchor="middle" x="1021" y="-175.5" font-family="Helvetica,sans-Serif" font-size="10.00" fill="#000000">MathUtils/detail/StatAccumulator.h</text>
</a>
</g>
</g>
<!-- Node10&#45;&gt;Node12 -->
<g id="edge13" class="edge">
<title>Node10&#45;&gt;Node12</title>
<path fill="none" stroke="#191970" d="M946.6768,-224.2455C960.4856,-215.6534 980.8193,-203.0014 996.7292,-193.1018"/>
<polygon fill="#191970" stroke="#191970" points="998.8613,-195.8974 1005.5028,-187.6427 995.1632,-189.954 998.8613,-195.8974"/>
</g>
<!-- Node14 -->
<g id="node15" class="node">
<title>Node14</title>
<g id="a_node15"><a xlink:href="../../dd/d7d/trigonometric_8h.html" target="_top" xlink:title="MathUtils/detail/trigonometric.h">
<polygon fill="none" stroke="#000000" points="1132,-168.5 1132,-187.5 1304,-187.5 1304,-168.5 1132,-168.5"/>
<text text-anchor="middle" x="1218" y="-175.5" font-family="Helvetica,sans-Serif" font-size="10.00" fill="#000000">MathUtils/detail/trigonometric.h</text>
</a>
</g>
</g>
<!-- Node10&#45;&gt;Node14 -->
<g id="edge15" class="edge">
<title>Node10&#45;&gt;Node14</title>
<path fill="none" stroke="#191970" d="M980.011,-224.4369C1029.6447,-214.7522 1106.4273,-199.7703 1159.2834,-189.4569"/>
<polygon fill="#191970" stroke="#191970" points="1160.0466,-192.8741 1169.1912,-187.5237 1158.706,-186.0036 1160.0466,-192.8741"/>
</g>
<!-- Node11&#45;&gt;Node6 -->
<g id="edge12" class="edge">
<title>Node11&#45;&gt;Node6</title>
<path fill="none" stroke="#191970" d="M824.1039,-168.2455C809.082,-159.5731 786.8957,-146.7645 769.679,-136.825"/>
<polygon fill="#191970" stroke="#191970" points="771.1128,-133.6114 760.7025,-131.6427 767.6129,-139.6737 771.1128,-133.6114"/>
</g>
<!-- Node13 -->
<g id="node14" class="node">
<title>Node13</title>
<polygon fill="none" stroke="#bfbfbf" points="889.5,-112.5 889.5,-131.5 930.5,-131.5 930.5,-112.5 889.5,-112.5"/>
<text text-anchor="middle" x="910" y="-119.5" font-family="Helvetica,sans-Serif" font-size="10.00" fill="#000000">tuple</text>
</g>
<!-- Node12&#45;&gt;Node13 -->
<g id="edge14" class="edge">
<title>Node12&#45;&gt;Node13</title>
<path fill="none" stroke="#191970" d="M1001.9184,-168.3733C984.2598,-159.4644 957.7947,-146.1127 937.7902,-136.0203"/>
<polygon fill="#191970" stroke="#191970" points="939.3372,-132.8806 928.8326,-131.5011 936.1842,-139.1303 939.3372,-132.8806"/>
</g>
<!-- Node14&#45;&gt;Node3 -->
<g id="edge16" class="edge">
<title>Node14&#45;&gt;Node3</title>
<path fill="none" stroke="#191970" d="M1247.9117,-168.3733C1279.5632,-158.1865 1329.2639,-142.1909 1361.2353,-131.9013"/>
<polygon fill="#191970" stroke="#191970" points="1362.5004,-135.171 1370.9473,-128.7756 1360.3558,-128.5076 1362.5004,-135.171"/>
</g>
<!-- Node14&#45;&gt;Node13 -->
<g id="edge18" class="edge">
<title>Node14&#45;&gt;Node13</title>
<path fill="none" stroke="#191970" d="M1148.581,-168.4843C1093.1545,-160.3636 1013.6761,-147.546 945,-132 943.5361,-131.6686 942.0427,-131.3127 940.5376,-130.9396"/>
<polygon fill="#191970" stroke="#191970" points="941.1933,-127.4924 930.6298,-128.3066 939.3954,-134.2576 941.1933,-127.4924"/>
</g>
<!-- Node15 -->
<g id="node16" class="node">
<title>Node15</title>
<polygon fill="none" stroke="#bfbfbf" points="978.5,-56.5 978.5,-75.5 1025.5,-75.5 1025.5,-56.5 978.5,-56.5"/>
<text text-anchor="middle" x="1002" y="-63.5" font-family="Helvetica,sans-Serif" font-size="10.00" fill="#000000">cmath</text>
</g>
<!-- Node14&#45;&gt;Node15 -->
<g id="edge17" class="edge">
<title>Node14&#45;&gt;Node15</title>
<path fill="none" stroke="#191970" d="M1143.16,-168.4852C1076.7525,-159.2742 988.6256,-144.8556 978,-132 966.4214,-117.9914 976.4637,-97.9196 986.874,-83.595"/>
<polygon fill="#191970" stroke="#191970" points="989.7887,-85.5503 993.2134,-75.5242 984.2839,-81.2264 989.7887,-85.5503"/>
</g>
<!-- Node16 -->
<g id="node17" class="node">
<title>Node16</title>
<g id="a_node17"><a xlink:href="../../df/d21/GPUCommonDef_8h.html" target="_top" xlink:title="GPUCommonDef.h">
<polygon fill="none" stroke="#000000" points="1187.5,-56.5 1187.5,-75.5 1294.5,-75.5 1294.5,-56.5 1187.5,-56.5"/>
<text text-anchor="middle" x="1241" y="-63.5" font-family="Helvetica,sans-Serif" font-size="10.00" fill="#000000">GPUCommonDef.h</text>
</a>
</g>
</g>
<!-- Node14&#45;&gt;Node16 -->
<g id="edge19" class="edge">
<title>Node14&#45;&gt;Node16</title>
<path fill="none" stroke="#191970" d="M1269.4625,-168.4528C1290.039,-161.8386 1311.7291,-150.7016 1324,-132 1338.9266,-109.2509 1308.955,-90.7712 1280.9513,-79.2135"/>
<polygon fill="#191970" stroke="#191970" points="1282.1857,-75.9382 1271.5975,-75.5632 1279.6408,-82.4593 1282.1857,-75.9382"/>
</g>
<!-- Node19 -->
<g id="node20" class="node">
<title>Node19</title>
<g id="a_node20"><a xlink:href="../../d6/da2/GPUCommonMath_8h.html" target="_top" xlink:title="GPUCommonMath.h">
<polygon fill="none" stroke="#000000" points="987.5,-112.5 987.5,-131.5 1102.5,-131.5 1102.5,-112.5 987.5,-112.5"/>
<text text-anchor="middle" x="1045" y="-119.5" font-family="Helvetica,sans-Serif" font-size="10.00" fill="#000000">GPUCommonMath.h</text>
</a>
</g>
</g>
<!-- Node14&#45;&gt;Node19 -->
<g id="edge22" class="edge">
<title>Node14&#45;&gt;Node19</title>
<path fill="none" stroke="#191970" d="M1188.2602,-168.3733C1159.493,-159.0613 1115.73,-144.8953 1084.1444,-134.671"/>
<polygon fill="#191970" stroke="#191970" points="1084.9436,-131.251 1074.3517,-131.5011 1082.7878,-137.9107 1084.9436,-131.251"/>
</g>
<!-- Node21 -->
<g id="node22" class="node">
<title>Node21</title>
<g id="a_node22"><a xlink:href="../../d6/d84/MathConstants_8h.html" target="_top" xlink:title="useful math constants ">
<polygon fill="none" stroke="#000000" points="1121,-112.5 1121,-131.5 1315,-131.5 1315,-112.5 1121,-112.5"/>
<text text-anchor="middle" x="1218" y="-119.5" font-family="Helvetica,sans-Serif" font-size="10.00" fill="#000000">CommonConstants/MathConstants.h</text>
</a>
</g>
</g>
<!-- Node14&#45;&gt;Node21 -->
<g id="edge26" class="edge">
<title>Node14&#45;&gt;Node21</title>
<path fill="none" stroke="#191970" d="M1218,-168.2455C1218,-160.9382 1218,-150.6944 1218,-141.7046"/>
<polygon fill="#191970" stroke="#191970" points="1221.5001,-141.6426 1218,-131.6427 1214.5001,-141.6427 1221.5001,-141.6426"/>
</g>
<!-- Node17 -->
<g id="node18" class="node">
<title>Node17</title>
<g id="a_node18"><a xlink:href="../../d5/d93/GPUCommonDefSettings_8h.html" target="_top" xlink:title="GPUCommonDefSettings.h">
<polygon fill="none" stroke="#000000" points="1090,-.5 1090,-19.5 1238,-19.5 1238,-.5 1090,-.5"/>
<text text-anchor="middle" x="1164" y="-7.5" font-family="Helvetica,sans-Serif" font-size="10.00" fill="#000000">GPUCommonDefSettings.h</text>
</a>
</g>
</g>
<!-- Node16&#45;&gt;Node17 -->
<g id="edge20" class="edge">
<title>Node16&#45;&gt;Node17</title>
<path fill="none" stroke="#191970" d="M1227.5876,-56.2455C1215.9943,-47.814 1199.0252,-35.4729 1185.5322,-25.6598"/>
<polygon fill="#191970" stroke="#191970" points="1187.4047,-22.6938 1177.2587,-19.6427 1183.2874,-28.355 1187.4047,-22.6938"/>
</g>
<!-- Node18 -->
<g id="node19" class="node">
<title>Node18</title>
<g id="a_node19"><a xlink:href="../../da/d5a/GPUCommonDefAPI_8h.html" target="_top" xlink:title="GPUCommonDefAPI.h">
<polygon fill="none" stroke="#000000" points="1256,-.5 1256,-19.5 1380,-19.5 1380,-.5 1256,-.5"/>
<text text-anchor="middle" x="1318" y="-7.5" font-family="Helvetica,sans-Serif" font-size="10.00" fill="#000000">GPUCommonDefAPI.h</text>
</a>
</g>
</g>
<!-- Node16&#45;&gt;Node18 -->
<g id="edge21" class="edge">
<title>Node16&#45;&gt;Node18</title>
<path fill="none" stroke="#191970" d="M1254.4124,-56.2455C1266.0057,-47.814 1282.9748,-35.4729 1296.4678,-25.6598"/>
<polygon fill="#191970" stroke="#191970" points="1298.7126,-28.355 1304.7413,-19.6427 1294.5953,-22.6938 1298.7126,-28.355"/>
</g>
<!-- Node19&#45;&gt;Node15 -->
<g id="edge24" class="edge">
<title>Node19&#45;&gt;Node15</title>
<path fill="none" stroke="#191970" d="M1037.51,-112.2455C1031.4674,-104.3761 1022.8097,-93.101 1015.5559,-83.6542"/>
<polygon fill="#191970" stroke="#191970" points="1018.2705,-81.4426 1009.4042,-75.6427 1012.7185,-85.7058 1018.2705,-81.4426"/>
</g>
<!-- Node19&#45;&gt;Node16 -->
<g id="edge23" class="edge">
<title>Node19&#45;&gt;Node16</title>
<path fill="none" stroke="#191970" d="M1078.6936,-112.3733C1111.7087,-102.9404 1162.1573,-88.5265 1198.0386,-78.2747"/>
<polygon fill="#191970" stroke="#191970" points="1199.0924,-81.6137 1207.7461,-75.5011 1197.1693,-74.8831 1199.0924,-81.6137"/>
</g>
<!-- Node20 -->
<g id="node21" class="node">
<title>Node20</title>
<polygon fill="none" stroke="#bfbfbf" points="574,-56.5 574,-75.5 638,-75.5 638,-56.5 574,-56.5"/>
<text text-anchor="middle" x="606" y="-63.5" font-family="Helvetica,sans-Serif" font-size="10.00" fill="#000000">algorithm</text>
</g>
<!-- Node19&#45;&gt;Node20 -->
<g id="edge25" class="edge">
<title>Node19&#45;&gt;Node20</title>
<path fill="none" stroke="#191970" d="M987.157,-114.6214C897.5822,-103.195 727.4109,-81.4875 648.3433,-71.4014"/>
<polygon fill="#191970" stroke="#191970" points="648.6224,-67.9087 638.2599,-70.1152 647.7366,-74.8525 648.6224,-67.9087"/>
</g>
<!-- Node22&#45;&gt;Node5 -->
<g id="edge30" class="edge">
<title>Node22&#45;&gt;Node5</title>
<path fill="none" stroke="#191970" d="M407.9892,-224.4442C455.2808,-216.4273 523.5229,-204.0641 591.6471,-188.1673"/>
<polygon fill="#191970" stroke="#191970" points="592.766,-191.4994 601.6949,-185.7963 591.1583,-184.6866 592.766,-191.4994"/>
</g>
<!-- Node22&#45;&gt;Node6 -->
<g id="edge28" class="edge">
<title>Node22&#45;&gt;Node6</title>
<path fill="none" stroke="#191970" d="M331.9004,-224.2766C310.8282,-211.1083 279.8001,-187.0608 297,-168 324.4512,-137.5788 607.9083,-126.108 708.6833,-122.9723"/>
<polygon fill="#191970" stroke="#191970" points="709.0605,-126.4626 718.9503,-122.6623 708.8492,-119.4658 709.0605,-126.4626"/>
</g>
<!-- Node22&#45;&gt;Node8 -->
<g id="edge34" class="edge">
<title>Node22&#45;&gt;Node8</title>
<path fill="none" stroke="#191970" d="M412.7508,-225.2406C490.6601,-214.4534 616.8525,-196.6896 661.9308,-187.7757"/>
<polygon fill="#191970" stroke="#191970" points="662.7327,-191.1834 671.7736,-185.6595 661.2613,-184.3398 662.7327,-191.1834"/>
</g>
<!-- Node22&#45;&gt;Node20 -->
<g id="edge32" class="edge">
<title>Node22&#45;&gt;Node20</title>
<path fill="none" stroke="#191970" d="M328.7928,-224.2982C305.7907,-211.9198 273.3136,-189.5258 289,-168 321.8708,-122.8928 485.4839,-87.8044 563.923,-73.2814"/>
<polygon fill="#191970" stroke="#191970" points="564.7447,-76.6893 573.9537,-71.4505 563.4877,-69.8031 564.7447,-76.6893"/>
</g>
<!-- Node23 -->
<g id="node24" class="node">
<title>Node23</title>
<polygon fill="none" stroke="#bfbfbf" points="306,-168.5 306,-187.5 364,-187.5 364,-168.5 306,-168.5"/>
<text text-anchor="middle" x="335" y="-175.5" font-family="Helvetica,sans-Serif" font-size="10.00" fill="#000000">memory</text>
</g>
<!-- Node22&#45;&gt;Node23 -->
<g id="edge29" class="edge">
<title>Node22&#45;&gt;Node23</title>
<path fill="none" stroke="#191970" d="M346.5614,-224.2455C344.7145,-216.8579 342.1172,-206.4689 339.8522,-197.4087"/>
<polygon fill="#191970" stroke="#191970" points="343.2316,-196.4952 337.4107,-187.6427 336.4406,-198.193 343.2316,-196.4952"/>
</g>
<!-- Node24 -->
<g id="node25" class="node">
<title>Node24</title>
<polygon fill="none" stroke="#bfbfbf" points="382,-168.5 382,-187.5 432,-187.5 432,-168.5 382,-168.5"/>
<text text-anchor="middle" x="407" y="-175.5" font-family="Helvetica,sans-Serif" font-size="10.00" fill="#000000">cstring</text>
</g>
<!-- Node22&#45;&gt;Node24 -->
<g id="edge31" class="edge">
<title>Node22&#45;&gt;Node24</title>
<path fill="none" stroke="#191970" d="M359.1028,-224.2455C367.5028,-216.1352 379.6494,-204.4075 389.6084,-194.7919"/>
<polygon fill="#191970" stroke="#191970" points="392.25,-197.1066 397.0129,-187.6427 387.3878,-192.0707 392.25,-197.1066"/>
</g>
<!-- Node25 -->
<g id="node26" class="node">
<title>Node25</title>
<polygon fill="none" stroke="#bfbfbf" points="450.5,-168.5 450.5,-187.5 515.5,-187.5 515.5,-168.5 450.5,-168.5"/>
<text text-anchor="middle" x="483" y="-175.5" font-family="Helvetica,sans-Serif" font-size="10.00" fill="#000000">stdexcept</text>
</g>
<!-- Node22&#45;&gt;Node25 -->
<g id="edge33" class="edge">
<title>Node22&#45;&gt;Node25</title>
<path fill="none" stroke="#191970" d="M372.0354,-224.3733C393.7388,-215.3032 426.4618,-201.6279 450.755,-191.4755"/>
<polygon fill="#191970" stroke="#191970" points="452.3881,-194.5865 460.2652,-187.5011 449.6889,-188.1278 452.3881,-194.5865"/>
</g>
<!-- Node26 -->
<g id="node27" class="node">
<title>Node26</title>
<polygon fill="none" stroke="#bfbfbf" points="534,-168.5 534,-187.5 584,-187.5 584,-168.5 534,-168.5"/>
<text text-anchor="middle" x="559" y="-175.5" font-family="Helvetica,sans-Serif" font-size="10.00" fill="#000000">climits</text>
</g>
<!-- Node22&#45;&gt;Node26 -->
<g id="edge35" class="edge">
<title>Node22&#45;&gt;Node26</title>
<path fill="none" stroke="#191970" d="M386.2722,-224.4476C421.743,-215.299 476.5878,-201.0029 524,-188 524.099,-187.9728 524.1982,-187.9456 524.2976,-187.9183"/>
<polygon fill="#191970" stroke="#191970" points="525.0901,-191.3309 533.7829,-185.2741 523.2103,-184.588 525.0901,-191.3309"/>
</g>
<!-- Node27 -->
<g id="node28" class="node">
<title>Node27</title>
<g id="a_node28"><a xlink:href="../../d7/df8/Types_8h.html" target="_top" xlink:title="MemoryResources/Types.h">
<polygon fill="none" stroke="#000000" points="0,-168.5 0,-187.5 146,-187.5 146,-168.5 0,-168.5"/>
<text text-anchor="middle" x="73" y="-175.5" font-family="Helvetica,sans-Serif" font-size="10.00" fill="#000000">MemoryResources/Types.h</text>
</a>
</g>
</g>
<!-- Node22&#45;&gt;Node27 -->
<g id="edge36" class="edge">
<title>Node22&#45;&gt;Node27</title>
<path fill="none" stroke="#191970" d="M301.8675,-224.4369C254.2353,-214.7724 180.6033,-199.8326 129.7834,-189.5213"/>
<polygon fill="#191970" stroke="#191970" points="130.4344,-186.0821 119.9381,-187.5237 129.0424,-192.9423 130.4344,-186.0821"/>
</g>
<!-- Node28 -->
<g id="node29" class="node">
<title>Node28</title>
<polygon fill="none" stroke="#bfbfbf" points="164.5,-168.5 164.5,-187.5 211.5,-187.5 211.5,-168.5 164.5,-168.5"/>
<text text-anchor="middle" x="188" y="-175.5" font-family="Helvetica,sans-Serif" font-size="10.00" fill="#000000">cerrno</text>
</g>
<!-- Node22&#45;&gt;Node28 -->
<g id="edge37" class="edge">
<title>Node22&#45;&gt;Node28</title>
<path fill="none" stroke="#191970" d="M321.3231,-224.3733C293.5363,-214.7083 250.7157,-199.8142 221.1362,-189.5256"/>
<polygon fill="#191970" stroke="#191970" points="222.2482,-186.2068 211.6534,-186.2273 219.9485,-192.8183 222.2482,-186.2068"/>
</g>
<!-- Node30 -->
<g id="node31" class="node">
<title>Node30</title>
<polygon fill="none" stroke="#bfbfbf" points="1461,-224.5 1461,-243.5 1517,-243.5 1517,-224.5 1461,-224.5"/>
<text text-anchor="middle" x="1489" y="-231.5" font-family="Helvetica,sans-Serif" font-size="10.00" fill="#000000">sstream</text>
</g>
<!-- Node29&#45;&gt;Node30 -->
<g id="edge39" class="edge">
<title>Node29&#45;&gt;Node30</title>
<path fill="none" stroke="#191970" d="M1489,-285.8906C1489,-277.3657 1489,-264.6392 1489,-253.9235"/>
<polygon fill="#191970" stroke="#191970" points="1492.5001,-253.7448 1489,-243.7449 1485.5001,-253.7449 1492.5001,-253.7448"/>
</g>
</g>
</svg>
        <g id="navigator" transform="translate(0 0)" fill="#404254">
                <rect fill="#f2f5e9" fill-opacity="0.5" stroke="#606060" stroke-width=".5" x="0" y="0" width="60" height="60"/>
                <use id="zoomplus" xlink:href="#zoomPlus" x="17" y="9" onmousedown="handleZoom(evt,'in')"/>
                <use id="zoomminus" xlink:href="#zoomMin" x="42" y="9" onmousedown="handleZoom(evt,'out')"/>
                <use id="reset" xlink:href="#resetDef" x="30" y="36" onmousedown="handleReset()"/>
                <g id="arrowUp" xlink:href="#dirArrow" transform="translate(30 24)" onmousedown="handlePan(0,-1)">
                  <use xlink:href="#rim" fill="#404040">
                        <set attributeName="fill" to="#808080" begin="arrowUp.mouseover" end="arrowUp.mouseout"/>
                  </use>
                  <path fill="none" stroke="white" stroke-width="1.5" d="M0,-3.0v7 M-2.5,-0.5L0,-3.0L2.5,-0.5"/>
                </g>
                <g id="arrowRight" xlink:href="#dirArrow" transform="rotate(90) translate(36 -43)" onmousedown="handlePan(1,0)">
                  <use xlink:href="#rim" fill="#404040">
                        <set attributeName="fill" to="#808080" begin="arrowRight.mouseover" end="arrowRight.mouseout"/>
                  </use>
                  <path fill="none" stroke="white" stroke-width="1.5" d="M0,-3.0v7 M-2.5,-0.5L0,-3.0L2.5,-0.5"/>
                </g>
                <g id="arrowDown" xlink:href="#dirArrow" transform="rotate(180) translate(-30 -48)" onmousedown="handlePan(0,1)">
                  <use xlink:href="#rim" fill="#404040">
                        <set attributeName="fill" to="#808080" begin="arrowDown.mouseover" end="arrowDown.mouseout"/>
                  </use>
                  <path fill="none" stroke="white" stroke-width="1.5" d="M0,-3.0v7 M-2.5,-0.5L0,-3.0L2.5,-0.5"/>
                </g>
                <g id="arrowLeft" xlink:href="#dirArrow" transform="rotate(270) translate(-36 17)" onmousedown="handlePan(-1,0)">
                  <use xlink:href="#rim" fill="#404040">
                        <set attributeName="fill" to="#808080" begin="arrowLeft.mouseover" end="arrowLeft.mouseout"/>
                  </use>
                  <path fill="none" stroke="white" stroke-width="1.5" d="M0,-3.0v7 M-2.5,-0.5L0,-3.0L2.5,-0.5"/>
                </g>
        </g>
        <svg viewBox="0 0 15 15" width="100%" height="30px" preserveAspectRatio="xMaxYMin meet">
         <g id="arrow_out" transform="scale(0.3 0.3)">
          <a xlink:href="NameConf_8h__incl_org.svg" target="_base">
           <rect id="button" ry="5" rx="5" y="6" x="6" height="38" width="38"
                fill="#f2f5e9" fill-opacity="0.5" stroke="#606060" stroke-width="1.0"/>
           <path id="arrow"
             d="M 11.500037,31.436501 C 11.940474,20.09759 22.043105,11.32322 32.158766,21.979434 L 37.068811,17.246167 C 37.068811,17.246167 37.088388,32 37.088388,32 L 22.160133,31.978069 C 22.160133,31.978069 26.997745,27.140456 26.997745,27.140456 C 18.528582,18.264221 13.291696,25.230495 11.500037,31.436501 z"
             style="fill:#404040;"/>
          </a>
         </g>
        </svg>
</svg>
