<?xml version="1.0" encoding="UTF-8" standalone="no"?>
<!DOCTYPE svg PUBLIC "-//W3C//DTD SVG 1.1//EN"
 "http://www.w3.org/Graphics/SVG/1.1/DTD/svg11.dtd">
<!-- Generated by graphviz version 2.40.1 (20161225.0304)
 -->
<!-- Title: o2::trd::TRDTrackletReader Pages: 1 -->
<svg width="154pt" height="226pt"
 viewBox="0.00 0.00 154.00 226.00" xmlns="http://www.w3.org/2000/svg" xmlns:xlink="http://www.w3.org/1999/xlink">
<g id="graph0" class="graph" transform="scale(1 1) rotate(0) translate(4 222)">
<title>o2::trd::TRDTrackletReader</title>
<!-- Node0 -->
<g id="node1" class="node">
<title>Node0</title>
<polygon fill="#bfbfbf" stroke="#000000" points="0,-.5 0,-90.5 146,-90.5 146,-.5 0,-.5"/>
<text text-anchor="middle" x="73" y="-78.5" font-family="Helvetica,sans-Serif" font-size="10.00" fill="#000000">o2::trd::TRDTrackletReader</text>
<polyline fill="none" stroke="#000000" points="0,-71.5 146,-71.5 "/>
<text text-anchor="middle" x="73" y="-59.5" font-family="Helvetica,sans-Serif" font-size="10.00" fill="#000000"> </text>
<polyline fill="none" stroke="#000000" points="0,-52.5 146,-52.5 "/>
<text text-anchor="start" x="8" y="-40.5" font-family="Helvetica,sans-Serif" font-size="10.00" fill="#000000">+ TRDTrackletReader()</text>
<text text-anchor="start" x="8" y="-29.5" font-family="Helvetica,sans-Serif" font-size="10.00" fill="#000000">+ ~TRDTrackletReader()</text>
<text text-anchor="start" x="8" y="-18.5" font-family="Helvetica,sans-Serif" font-size="10.00" fill="#000000">+ init()</text>
<text text-anchor="start" x="8" y="-7.5" font-family="Helvetica,sans-Serif" font-size="10.00" fill="#000000">+ run()</text>
</g>
<!-- Node1 -->
<g id="node2" class="node">
<title>Node1</title>
<g id="a_node2"><a xlink:href="../../de/dac/classo2_1_1framework_1_1Task.html" target="_top" xlink:title="{o2::framework::Task\n||+ ~Task()\l+ init()\l+ run()\l+ endOfStream()\l}">
<polygon fill="none" stroke="#000000" points="15,-127.5 15,-217.5 131,-217.5 131,-127.5 15,-127.5"/>
<text text-anchor="middle" x="73" y="-205.5" font-family="Helvetica,sans-Serif" font-size="10.00" fill="#000000">o2::framework::Task</text>
<polyline fill="none" stroke="#000000" points="15,-198.5 131,-198.5 "/>
<text text-anchor="middle" x="73" y="-186.5" font-family="Helvetica,sans-Serif" font-size="10.00" fill="#000000"> </text>
<polyline fill="none" stroke="#000000" points="15,-179.5 131,-179.5 "/>
<text text-anchor="start" x="23" y="-167.5" font-family="Helvetica,sans-Serif" font-size="10.00" fill="#000000">+ ~Task()</text>
<text text-anchor="start" x="23" y="-156.5" font-family="Helvetica,sans-Serif" font-size="10.00" fill="#000000">+ init()</text>
<text text-anchor="start" x="23" y="-145.5" font-family="Helvetica,sans-Serif" font-size="10.00" fill="#000000">+ run()</text>
<text text-anchor="start" x="23" y="-134.5" font-family="Helvetica,sans-Serif" font-size="10.00" fill="#000000">+ endOfStream()</text>
</a>
</g>
</g>
<!-- Node1&#45;&gt;Node0 -->
<g id="edge1" class="edge">
<title>Node1&#45;&gt;Node0</title>
<path fill="none" stroke="#191970" d="M73,-117.2012C73,-108.4232 73,-99.4326 73,-90.9156"/>
<polygon fill="none" stroke="#191970" points="69.5001,-117.3669 73,-127.367 76.5001,-117.367 69.5001,-117.3669"/>
</g>
</g>
</svg>
