<?xml version="1.0" encoding="UTF-8" standalone="no"?>
<!DOCTYPE svg PUBLIC "-//W3C//DTD SVG 1.1//EN"
 "http://www.w3.org/Graphics/SVG/1.1/DTD/svg11.dtd">
<!-- Generated by graphviz version 2.40.1 (20161225.0304)
 -->
<!-- Title: /home/travis/build/AliceO2Group/AliceO2/Detectors/DCS/include/DetectorsDCS/GenericFunctions.h Pages: 1 -->
<svg width="966pt" height="606pt"
 viewBox="0.00 0.00 966.14 606.00" xmlns="http://www.w3.org/2000/svg" xmlns:xlink="http://www.w3.org/1999/xlink">
<g id="graph0" class="graph" transform="scale(1 1) rotate(0) translate(4 602)">
<title>/home/travis/build/AliceO2Group/AliceO2/Detectors/DCS/include/DetectorsDCS/GenericFunctions.h</title>
<!-- Node2 -->
<g id="node1" class="node">
<title>Node2</title>
<polygon fill="#bfbfbf" stroke="#000000" points="347.6058,-545.5 347.6058,-597.5 529.6058,-597.5 529.6058,-545.5 347.6058,-545.5"/>
<text text-anchor="start" x="355.6058" y="-585.5" font-family="Helvetica,sans-Serif" font-size="10.00" fill="#000000">/home/travis/build</text>
<text text-anchor="start" x="355.6058" y="-574.5" font-family="Helvetica,sans-Serif" font-size="10.00" fill="#000000">/AliceO2Group/AliceO2</text>
<text text-anchor="start" x="355.6058" y="-563.5" font-family="Helvetica,sans-Serif" font-size="10.00" fill="#000000">/Detectors/DCS/include</text>
<text text-anchor="middle" x="438.6058" y="-552.5" font-family="Helvetica,sans-Serif" font-size="10.00" fill="#000000">/DetectorsDCS/GenericFunctions.h</text>
</g>
<!-- Node3 -->
<g id="node2" class="node">
<title>Node3</title>
<g id="a_node2"><a xlink:href="../../d1/d2d/DataPointIdentifier_8h.html" target="_top" xlink:title="/home/travis/build\l/AliceO2Group/AliceO2\l/Detectors/DCS/include\l/DetectorsDCS/DataPointIdentifier.h">
<polygon fill="none" stroke="#000000" points="118.6058,-367.5 118.6058,-419.5 308.6058,-419.5 308.6058,-367.5 118.6058,-367.5"/>
<text text-anchor="start" x="126.6058" y="-407.5" font-family="Helvetica,sans-Serif" font-size="10.00" fill="#000000">/home/travis/build</text>
<text text-anchor="start" x="126.6058" y="-396.5" font-family="Helvetica,sans-Serif" font-size="10.00" fill="#000000">/AliceO2Group/AliceO2</text>
<text text-anchor="start" x="126.6058" y="-385.5" font-family="Helvetica,sans-Serif" font-size="10.00" fill="#000000">/Detectors/DCS/include</text>
<text text-anchor="middle" x="213.6058" y="-374.5" font-family="Helvetica,sans-Serif" font-size="10.00" fill="#000000">/DetectorsDCS/DataPointIdentifier.h</text>
</a>
</g>
</g>
<!-- Node2&#45;&gt;Node3 -->
<g id="edge1" class="edge">
<title>Node2&#45;&gt;Node3</title>
<path fill="none" stroke="#191970" d="M390.6042,-539.4906C376.8383,-529.957 361.9494,-519.2995 348.6058,-509 310.7591,-479.7874 269.2524,-443.608 242.392,-419.6073"/>
<polygon fill="#191970" stroke="#191970" points="388.7833,-542.4861 399.0063,-545.2682 392.7495,-536.7182 388.7833,-542.4861"/>
</g>
<!-- Node12 -->
<g id="node11" class="node">
<title>Node12</title>
<g id="a_node11"><a xlink:href="../../d5/d79/DeliveryType_8h.html" target="_top" xlink:title="/home/travis/build\l/AliceO2Group/AliceO2\l/Detectors/DCS/include\l/DetectorsDCS/DeliveryType.h">
<polygon fill="none" stroke="#000000" points="357.1058,-456.5 357.1058,-508.5 520.1058,-508.5 520.1058,-456.5 357.1058,-456.5"/>
<text text-anchor="start" x="365.1058" y="-496.5" font-family="Helvetica,sans-Serif" font-size="10.00" fill="#000000">/home/travis/build</text>
<text text-anchor="start" x="365.1058" y="-485.5" font-family="Helvetica,sans-Serif" font-size="10.00" fill="#000000">/AliceO2Group/AliceO2</text>
<text text-anchor="start" x="365.1058" y="-474.5" font-family="Helvetica,sans-Serif" font-size="10.00" fill="#000000">/Detectors/DCS/include</text>
<text text-anchor="middle" x="438.6058" y="-463.5" font-family="Helvetica,sans-Serif" font-size="10.00" fill="#000000">/DetectorsDCS/DeliveryType.h</text>
</a>
</g>
</g>
<!-- Node2&#45;&gt;Node12 -->
<g id="edge16" class="edge">
<title>Node2&#45;&gt;Node12</title>
<path fill="none" stroke="#191970" d="M438.6058,-535.1155C438.6058,-526.2061 438.6058,-516.8475 438.6058,-508.5341"/>
<polygon fill="#191970" stroke="#191970" points="435.1059,-535.2784 438.6058,-545.2784 442.1059,-535.2785 435.1059,-535.2784"/>
</g>
<!-- Node16 -->
<g id="node15" class="node">
<title>Node16</title>
<g id="a_node15"><a xlink:href="../../d1/dfb/GenericFunctions_8cxx.html" target="_top" xlink:title="/home/travis/build\l/AliceO2Group/AliceO2\l/Detectors/DCS/src/GenericFunctions.cxx">
<polygon fill="none" stroke="#000000" points="538.6058,-462 538.6058,-503 752.6058,-503 752.6058,-462 538.6058,-462"/>
<text text-anchor="start" x="546.6058" y="-491" font-family="Helvetica,sans-Serif" font-size="10.00" fill="#000000">/home/travis/build</text>
<text text-anchor="start" x="546.6058" y="-480" font-family="Helvetica,sans-Serif" font-size="10.00" fill="#000000">/AliceO2Group/AliceO2</text>
<text text-anchor="middle" x="645.6058" y="-469" font-family="Helvetica,sans-Serif" font-size="10.00" fill="#000000">/Detectors/DCS/src/GenericFunctions.cxx</text>
</a>
</g>
</g>
<!-- Node2&#45;&gt;Node16 -->
<g id="edge30" class="edge">
<title>Node2&#45;&gt;Node16</title>
<path fill="none" stroke="#191970" d="M508.6742,-541.374C537.9798,-528.7739 571.2917,-514.4515 597.7212,-503.0881"/>
<polygon fill="#191970" stroke="#191970" points="507.1183,-538.2331 499.3139,-545.3984 509.8833,-544.6639 507.1183,-538.2331"/>
</g>
<!-- Node4 -->
<g id="node3" class="node">
<title>Node4</title>
<g id="a_node3"><a xlink:href="../../d0/dee/DataPointCompositeObject_8h.html" target="_top" xlink:title="/home/travis/build\l/AliceO2Group/AliceO2\l/Detectors/DCS/include\l/DetectorsDCS/DataPointComposite\lObject.h">
<polygon fill="none" stroke="#000000" points="441.1058,-267.5 441.1058,-330.5 632.1058,-330.5 632.1058,-267.5 441.1058,-267.5"/>
<text text-anchor="start" x="449.1058" y="-318.5" font-family="Helvetica,sans-Serif" font-size="10.00" fill="#000000">/home/travis/build</text>
<text text-anchor="start" x="449.1058" y="-307.5" font-family="Helvetica,sans-Serif" font-size="10.00" fill="#000000">/AliceO2Group/AliceO2</text>
<text text-anchor="start" x="449.1058" y="-296.5" font-family="Helvetica,sans-Serif" font-size="10.00" fill="#000000">/Detectors/DCS/include</text>
<text text-anchor="start" x="449.1058" y="-285.5" font-family="Helvetica,sans-Serif" font-size="10.00" fill="#000000">/DetectorsDCS/DataPointComposite</text>
<text text-anchor="middle" x="536.6058" y="-274.5" font-family="Helvetica,sans-Serif" font-size="10.00" fill="#000000">Object.h</text>
</a>
</g>
</g>
<!-- Node3&#45;&gt;Node4 -->
<g id="edge2" class="edge">
<title>Node3&#45;&gt;Node4</title>
<path fill="none" stroke="#191970" d="M312.4202,-364.5899C353.2804,-352.6354 400.4774,-338.827 440.9959,-326.9725"/>
<polygon fill="#191970" stroke="#191970" points="311.3368,-361.2601 302.722,-367.4273 313.3025,-367.9784 311.3368,-361.2601"/>
</g>
<!-- Node5 -->
<g id="node4" class="node">
<title>Node5</title>
<g id="a_node4"><a xlink:href="../../d7/da7/DCSProcessor_8h.html" target="_top" xlink:title="/home/travis/build\l/AliceO2Group/AliceO2\l/Detectors/DCS/include\l/DetectorsDCS/DCSProcessor.h">
<polygon fill="none" stroke="#000000" points="692.6058,-178.5 692.6058,-230.5 858.6058,-230.5 858.6058,-178.5 692.6058,-178.5"/>
<text text-anchor="start" x="700.6058" y="-218.5" font-family="Helvetica,sans-Serif" font-size="10.00" fill="#000000">/home/travis/build</text>
<text text-anchor="start" x="700.6058" y="-207.5" font-family="Helvetica,sans-Serif" font-size="10.00" fill="#000000">/AliceO2Group/AliceO2</text>
<text text-anchor="start" x="700.6058" y="-196.5" font-family="Helvetica,sans-Serif" font-size="10.00" fill="#000000">/Detectors/DCS/include</text>
<text text-anchor="middle" x="775.6058" y="-185.5" font-family="Helvetica,sans-Serif" font-size="10.00" fill="#000000">/DetectorsDCS/DCSProcessor.h</text>
</a>
</g>
</g>
<!-- Node3&#45;&gt;Node5 -->
<g id="edge11" class="edge">
<title>Node3&#45;&gt;Node5</title>
<path fill="none" stroke="#191970" d="M319.2651,-385.3891C427.1384,-375.8174 586.3577,-357.743 641.6058,-331 648.067,-327.8724 711.3474,-266.9381 748.5903,-230.7996"/>
<polygon fill="#191970" stroke="#191970" points="318.6478,-381.9297 308.9913,-386.2888 319.2585,-388.903 318.6478,-381.9297"/>
</g>
<!-- Node7 -->
<g id="node6" class="node">
<title>Node7</title>
<g id="a_node6"><a xlink:href="../../d8/d4e/DCSDataProcessorSpec_8h.html" target="_top" xlink:title="/home/travis/build\l/AliceO2Group/AliceO2\l/Detectors/DCS/testWorkflow\l/DCSDataProcessorSpec.h">
<polygon fill="none" stroke="#000000" points="362.1058,-89.5 362.1058,-141.5 519.1058,-141.5 519.1058,-89.5 362.1058,-89.5"/>
<text text-anchor="start" x="370.1058" y="-129.5" font-family="Helvetica,sans-Serif" font-size="10.00" fill="#000000">/home/travis/build</text>
<text text-anchor="start" x="370.1058" y="-118.5" font-family="Helvetica,sans-Serif" font-size="10.00" fill="#000000">/AliceO2Group/AliceO2</text>
<text text-anchor="start" x="370.1058" y="-107.5" font-family="Helvetica,sans-Serif" font-size="10.00" fill="#000000">/Detectors/DCS/testWorkflow</text>
<text text-anchor="middle" x="440.6058" y="-96.5" font-family="Helvetica,sans-Serif" font-size="10.00" fill="#000000">/DCSDataProcessorSpec.h</text>
</a>
</g>
</g>
<!-- Node3&#45;&gt;Node7 -->
<g id="edge15" class="edge">
<title>Node3&#45;&gt;Node7</title>
<path fill="none" stroke="#191970" d="M202.4596,-357.7368C190.347,-311.1933 177.6298,-229.7164 217.6058,-178 235.4947,-154.8573 305.0852,-137.8318 361.8284,-127.4458"/>
<polygon fill="#191970" stroke="#191970" points="199.0853,-358.667 205.095,-367.3925 205.8383,-356.8237 199.0853,-358.667"/>
</g>
<!-- Node8 -->
<g id="node7" class="node">
<title>Node8</title>
<g id="a_node7"><a xlink:href="../../da/dd6/dcs-data-workflow_8cxx.html" target="_top" xlink:title="/home/travis/build\l/AliceO2Group/AliceO2\l/Detectors/DCS/testWorkflow\l/dcs&#45;data&#45;workflow.cxx">
<polygon fill="none" stroke="#000000" points="299.1058,-.5 299.1058,-52.5 456.1058,-52.5 456.1058,-.5 299.1058,-.5"/>
<text text-anchor="start" x="307.1058" y="-40.5" font-family="Helvetica,sans-Serif" font-size="10.00" fill="#000000">/home/travis/build</text>
<text text-anchor="start" x="307.1058" y="-29.5" font-family="Helvetica,sans-Serif" font-size="10.00" fill="#000000">/AliceO2Group/AliceO2</text>
<text text-anchor="start" x="307.1058" y="-18.5" font-family="Helvetica,sans-Serif" font-size="10.00" fill="#000000">/Detectors/DCS/testWorkflow</text>
<text text-anchor="middle" x="377.6058" y="-7.5" font-family="Helvetica,sans-Serif" font-size="10.00" fill="#000000">/dcs&#45;data&#45;workflow.cxx</text>
</a>
</g>
</g>
<!-- Node3&#45;&gt;Node8 -->
<g id="edge13" class="edge">
<title>Node3&#45;&gt;Node8</title>
<path fill="none" stroke="#191970" d="M108.4587,-372.9134C66.0273,-362.2786 24.1118,-347.9604 11.6058,-331 -5.2752,-308.1064 -1.8993,-292.034 11.6058,-267 72.2522,-154.5811 210.9232,-86.1373 299.0933,-52.3661"/>
<polygon fill="#191970" stroke="#191970" points="107.8254,-376.3614 118.37,-375.331 109.4843,-369.5608 107.8254,-376.3614"/>
</g>
<!-- Node10 -->
<g id="node9" class="node">
<title>Node10</title>
<g id="a_node9"><a xlink:href="../../db/d55/DCSDataGeneratorSpec_8h.html" target="_top" xlink:title="/home/travis/build\l/AliceO2Group/AliceO2\l/Detectors/DCS/testWorkflow\l/DCSDataGeneratorSpec.h">
<polygon fill="none" stroke="#000000" points="227.1058,-178.5 227.1058,-230.5 384.1058,-230.5 384.1058,-178.5 227.1058,-178.5"/>
<text text-anchor="start" x="235.1058" y="-218.5" font-family="Helvetica,sans-Serif" font-size="10.00" fill="#000000">/home/travis/build</text>
<text text-anchor="start" x="235.1058" y="-207.5" font-family="Helvetica,sans-Serif" font-size="10.00" fill="#000000">/AliceO2Group/AliceO2</text>
<text text-anchor="start" x="235.1058" y="-196.5" font-family="Helvetica,sans-Serif" font-size="10.00" fill="#000000">/Detectors/DCS/testWorkflow</text>
<text text-anchor="middle" x="305.6058" y="-185.5" font-family="Helvetica,sans-Serif" font-size="10.00" fill="#000000">/DCSDataGeneratorSpec.h</text>
</a>
</g>
</g>
<!-- Node3&#45;&gt;Node10 -->
<g id="edge14" class="edge">
<title>Node3&#45;&gt;Node10</title>
<path fill="none" stroke="#191970" d="M230.9878,-357.7912C249.0374,-320.7112 276.8398,-263.5953 292.9222,-230.5564"/>
<polygon fill="#191970" stroke="#191970" points="227.6278,-356.6971 226.398,-367.2204 233.9217,-359.7609 227.6278,-356.6971"/>
</g>
<!-- Node11 -->
<g id="node10" class="node">
<title>Node11</title>
<g id="a_node10"><a xlink:href="../../db/d45/DataPointIdentifier_8cxx.html" target="_top" xlink:title="/home/travis/build\l/AliceO2Group/AliceO2\l/Detectors/DCS/src/DataPoint\lIdentifier.cxx">
<polygon fill="none" stroke="#000000" points="20.6058,-273 20.6058,-325 178.6058,-325 178.6058,-273 20.6058,-273"/>
<text text-anchor="start" x="28.6058" y="-313" font-family="Helvetica,sans-Serif" font-size="10.00" fill="#000000">/home/travis/build</text>
<text text-anchor="start" x="28.6058" y="-302" font-family="Helvetica,sans-Serif" font-size="10.00" fill="#000000">/AliceO2Group/AliceO2</text>
<text text-anchor="start" x="28.6058" y="-291" font-family="Helvetica,sans-Serif" font-size="10.00" fill="#000000">/Detectors/DCS/src/DataPoint</text>
<text text-anchor="middle" x="99.6058" y="-280" font-family="Helvetica,sans-Serif" font-size="10.00" fill="#000000">Identifier.cxx</text>
</a>
</g>
</g>
<!-- Node3&#45;&gt;Node11 -->
<g id="edge12" class="edge">
<title>Node3&#45;&gt;Node11</title>
<path fill="none" stroke="#191970" d="M174.1298,-360.7765C160.1479,-349.1863 144.6077,-336.3043 131.3516,-325.3157"/>
<polygon fill="#191970" stroke="#191970" points="172.2205,-363.74 182.153,-367.4273 176.6878,-358.3508 172.2205,-363.74"/>
</g>
<!-- Node4&#45;&gt;Node5 -->
<g id="edge3" class="edge">
<title>Node4&#45;&gt;Node5</title>
<path fill="none" stroke="#191970" d="M625.8505,-263.7129C653.6512,-252.7205 683.7904,-240.8036 709.6931,-230.5617"/>
<polygon fill="#191970" stroke="#191970" points="624.5341,-260.4696 616.5216,-267.4015 627.108,-266.9793 624.5341,-260.4696"/>
</g>
<!-- Node4&#45;&gt;Node7 -->
<g id="edge10" class="edge">
<title>Node4&#45;&gt;Node7</title>
<path fill="none" stroke="#191970" d="M491.5412,-260.1867C483.282,-251.2982 475.4417,-241.3845 469.6058,-231 453.8049,-202.8835 446.4925,-166.1445 443.1908,-141.7323"/>
<polygon fill="#191970" stroke="#191970" points="489.0661,-262.662 498.5426,-267.3999 494.0891,-257.7865 489.0661,-262.662"/>
</g>
<!-- Node9 -->
<g id="node8" class="node">
<title>Node9</title>
<g id="a_node8"><a xlink:href="../../d4/d16/DataPointCompositeObject_8cxx.html" target="_top" xlink:title="/home/travis/build\l/AliceO2Group/AliceO2\l/Detectors/DCS/src/DataPoint\lCompositeObject.cxx">
<polygon fill="none" stroke="#000000" points="478.6058,-178.5 478.6058,-230.5 636.6058,-230.5 636.6058,-178.5 478.6058,-178.5"/>
<text text-anchor="start" x="486.6058" y="-218.5" font-family="Helvetica,sans-Serif" font-size="10.00" fill="#000000">/home/travis/build</text>
<text text-anchor="start" x="486.6058" y="-207.5" font-family="Helvetica,sans-Serif" font-size="10.00" fill="#000000">/AliceO2Group/AliceO2</text>
<text text-anchor="start" x="486.6058" y="-196.5" font-family="Helvetica,sans-Serif" font-size="10.00" fill="#000000">/Detectors/DCS/src/DataPoint</text>
<text text-anchor="middle" x="557.6058" y="-185.5" font-family="Helvetica,sans-Serif" font-size="10.00" fill="#000000">CompositeObject.cxx</text>
</a>
</g>
</g>
<!-- Node4&#45;&gt;Node9 -->
<g id="edge7" class="edge">
<title>Node4&#45;&gt;Node9</title>
<path fill="none" stroke="#191970" d="M545.8845,-257.2457C547.8945,-248.2008 549.965,-238.8836 551.7959,-230.6442"/>
<polygon fill="#191970" stroke="#191970" points="542.4096,-256.7488 543.6569,-267.27 549.2429,-258.2674 542.4096,-256.7488"/>
</g>
<!-- Node4&#45;&gt;Node10 -->
<g id="edge8" class="edge">
<title>Node4&#45;&gt;Node10</title>
<path fill="none" stroke="#191970" d="M449.9977,-263.5694C423.225,-252.6169 394.239,-240.759 369.3121,-230.5617"/>
<polygon fill="#191970" stroke="#191970" points="448.7842,-266.8545 459.3649,-267.4015 451.4347,-260.3757 448.7842,-266.8545"/>
</g>
<!-- Node6 -->
<g id="node5" class="node">
<title>Node6</title>
<g id="a_node5"><a xlink:href="../../d0/d0b/DCSProcessor_8cxx.html" target="_top" xlink:title="/home/travis/build\l/AliceO2Group/AliceO2\l/Detectors/DCS/src/DCSProcessor.cxx">
<polygon fill="none" stroke="#000000" points="677.1058,-95 677.1058,-136 874.1058,-136 874.1058,-95 677.1058,-95"/>
<text text-anchor="start" x="685.1058" y="-124" font-family="Helvetica,sans-Serif" font-size="10.00" fill="#000000">/home/travis/build</text>
<text text-anchor="start" x="685.1058" y="-113" font-family="Helvetica,sans-Serif" font-size="10.00" fill="#000000">/AliceO2Group/AliceO2</text>
<text text-anchor="middle" x="775.6058" y="-102" font-family="Helvetica,sans-Serif" font-size="10.00" fill="#000000">/Detectors/DCS/src/DCSProcessor.cxx</text>
</a>
</g>
</g>
<!-- Node5&#45;&gt;Node6 -->
<g id="edge4" class="edge">
<title>Node5&#45;&gt;Node6</title>
<path fill="none" stroke="#191970" d="M775.6058,-168.1335C775.6058,-157.2443 775.6058,-145.6825 775.6058,-136.1771"/>
<polygon fill="#191970" stroke="#191970" points="772.1059,-168.2784 775.6058,-178.2784 779.1059,-168.2785 772.1059,-168.2784"/>
</g>
<!-- Node5&#45;&gt;Node7 -->
<g id="edge5" class="edge">
<title>Node5&#45;&gt;Node7</title>
<path fill="none" stroke="#191970" d="M682.4738,-179.0375C681.1762,-178.6891 679.8863,-178.343 678.6058,-178 625.4766,-163.7671 565.5886,-148.0418 519.1786,-135.9254"/>
<polygon fill="#191970" stroke="#191970" points="681.9786,-182.5288 692.5448,-181.7501 683.7992,-175.7697 681.9786,-182.5288"/>
</g>
<!-- Node7&#45;&gt;Node8 -->
<g id="edge6" class="edge">
<title>Node7&#45;&gt;Node8</title>
<path fill="none" stroke="#191970" d="M416.08,-80.8525C409.411,-71.4313 402.303,-61.3897 396.0344,-52.5341"/>
<polygon fill="#191970" stroke="#191970" points="413.41,-83.1386 422.0444,-89.2784 419.1235,-79.0942 413.41,-83.1386"/>
</g>
<!-- Node10&#45;&gt;Node8 -->
<g id="edge9" class="edge">
<title>Node10&#45;&gt;Node8</title>
<path fill="none" stroke="#191970" d="M320.1347,-168.5812C334.0343,-134.2182 354.6628,-83.2201 367.0556,-52.5823"/>
<polygon fill="#191970" stroke="#191970" points="316.7348,-167.6527 316.2296,-178.2355 323.2241,-170.2776 316.7348,-167.6527"/>
</g>
<!-- Node12&#45;&gt;Node3 -->
<g id="edge18" class="edge">
<title>Node12&#45;&gt;Node3</title>
<path fill="none" stroke="#191970" d="M363.1876,-452.6679C336.1104,-441.9574 305.8062,-429.9704 279.5917,-419.6011"/>
<polygon fill="#191970" stroke="#191970" points="362.0323,-455.9747 372.6186,-456.3984 364.6071,-449.4655 362.0323,-455.9747"/>
</g>
<!-- Node12&#45;&gt;Node4 -->
<g id="edge17" class="edge">
<title>Node12&#45;&gt;Node4</title>
<path fill="none" stroke="#191970" d="M457.4695,-447.1786C475.455,-413.5016 502.2963,-363.2427 519.6281,-330.7897"/>
<polygon fill="#191970" stroke="#191970" points="454.2704,-445.7392 452.6468,-456.2089 460.445,-449.0369 454.2704,-445.7392"/>
</g>
<!-- Node12&#45;&gt;Node5 -->
<g id="edge26" class="edge">
<title>Node12&#45;&gt;Node5</title>
<path fill="none" stroke="#191970" d="M530.1509,-456.3001C630.4022,-442.3309 856.5591,-477.2879 917.6058,-420 967.3985,-373.2731 969.8722,-323.5544 931.6058,-267 914.9285,-242.3524 886.7755,-227.4239 858.9391,-218.3823"/>
<polygon fill="#191970" stroke="#191970" points="529.5814,-452.8467 520.2792,-457.9182 530.7137,-459.7545 529.5814,-452.8467"/>
</g>
<!-- Node12&#45;&gt;Node7 -->
<g id="edge29" class="edge">
<title>Node12&#45;&gt;Node7</title>
<path fill="none" stroke="#191970" d="M436.3884,-446.0811C434.0585,-403.233 430.9449,-329.9473 432.6058,-267 433.7659,-223.0296 436.8168,-171.9557 438.798,-141.7578"/>
<polygon fill="#191970" stroke="#191970" points="432.9066,-446.5055 436.9605,-456.2941 439.8956,-446.1139 432.9066,-446.5055"/>
</g>
<!-- Node12&#45;&gt;Node10 -->
<g id="edge28" class="edge">
<title>Node12&#45;&gt;Node10</title>
<path fill="none" stroke="#191970" d="M415.4375,-447.7947C409.7366,-438.8562 403.7859,-429.1696 398.6058,-420 376.9021,-381.5811 372.3704,-371.3916 354.6058,-331 339.6245,-296.937 324.4706,-256.7341 315.0639,-230.9455"/>
<polygon fill="#191970" stroke="#191970" points="412.6528,-449.9343 421.0174,-456.4369 418.5335,-446.1373 412.6528,-449.9343"/>
</g>
<!-- Node13 -->
<g id="node12" class="node">
<title>Node13</title>
<g id="a_node12"><a xlink:href="../../d6/d8e/DataPointValue_8h.html" target="_top" xlink:title="/home/travis/build\l/AliceO2Group/AliceO2\l/Detectors/DCS/include\l/DetectorsDCS/DataPointValue.h">
<polygon fill="none" stroke="#000000" points="522.6058,-367.5 522.6058,-419.5 696.6058,-419.5 696.6058,-367.5 522.6058,-367.5"/>
<text text-anchor="start" x="530.6058" y="-407.5" font-family="Helvetica,sans-Serif" font-size="10.00" fill="#000000">/home/travis/build</text>
<text text-anchor="start" x="530.6058" y="-396.5" font-family="Helvetica,sans-Serif" font-size="10.00" fill="#000000">/AliceO2Group/AliceO2</text>
<text text-anchor="start" x="530.6058" y="-385.5" font-family="Helvetica,sans-Serif" font-size="10.00" fill="#000000">/Detectors/DCS/include</text>
<text text-anchor="middle" x="609.6058" y="-374.5" font-family="Helvetica,sans-Serif" font-size="10.00" fill="#000000">/DetectorsDCS/DataPointValue.h</text>
</a>
</g>
</g>
<!-- Node12&#45;&gt;Node13 -->
<g id="edge19" class="edge">
<title>Node12&#45;&gt;Node13</title>
<path fill="none" stroke="#191970" d="M498.0431,-451.5648C518.1184,-441.1162 540.3135,-429.5644 559.5851,-419.5341"/>
<polygon fill="#191970" stroke="#191970" points="496.2411,-448.5569 488.9865,-456.2784 499.4729,-454.7663 496.2411,-448.5569"/>
</g>
<!-- Node15 -->
<g id="node14" class="node">
<title>Node15</title>
<g id="a_node14"><a xlink:href="../../d3/dd5/DeliveryType_8cxx.html" target="_top" xlink:title="/home/travis/build\l/AliceO2Group/AliceO2\l/Detectors/DCS/src/DeliveryType.cxx">
<polygon fill="none" stroke="#000000" points="714.6058,-373 714.6058,-414 908.6058,-414 908.6058,-373 714.6058,-373"/>
<text text-anchor="start" x="722.6058" y="-402" font-family="Helvetica,sans-Serif" font-size="10.00" fill="#000000">/home/travis/build</text>
<text text-anchor="start" x="722.6058" y="-391" font-family="Helvetica,sans-Serif" font-size="10.00" fill="#000000">/AliceO2Group/AliceO2</text>
<text text-anchor="middle" x="811.6058" y="-380" font-family="Helvetica,sans-Serif" font-size="10.00" fill="#000000">/Detectors/DCS/src/DeliveryType.cxx</text>
</a>
</g>
</g>
<!-- Node12&#45;&gt;Node15 -->
<g id="edge27" class="edge">
<title>Node12&#45;&gt;Node15</title>
<path fill="none" stroke="#191970" d="M530.2423,-455.9247C608.8098,-436.8616 630.7888,-436.9955 705.6058,-420 713.8373,-418.1301 722.41,-416.1096 730.9566,-414.0473"/>
<polygon fill="#191970" stroke="#191970" points="529.2504,-452.5642 520.373,-458.3471 530.9191,-459.3624 529.2504,-452.5642"/>
</g>
<!-- Node13&#45;&gt;Node4 -->
<g id="edge20" class="edge">
<title>Node13&#45;&gt;Node4</title>
<path fill="none" stroke="#191970" d="M583.2854,-359.4277C576.0471,-350.0577 568.2284,-339.9361 561.0977,-330.7054"/>
<polygon fill="#191970" stroke="#191970" points="580.5818,-361.6532 589.4649,-367.4273 586.1215,-357.3739 580.5818,-361.6532"/>
</g>
<!-- Node13&#45;&gt;Node5 -->
<g id="edge21" class="edge">
<title>Node13&#45;&gt;Node5</title>
<path fill="none" stroke="#191970" d="M673.81,-362.2325C687.7388,-353.4572 701.5821,-342.9829 712.6058,-331 739.7646,-301.478 757.9301,-258.0662 767.5117,-230.5487"/>
<polygon fill="#191970" stroke="#191970" points="671.8924,-359.302 665.1507,-367.4751 675.5178,-365.29 671.8924,-359.302"/>
</g>
<!-- Node13&#45;&gt;Node7 -->
<g id="edge25" class="edge">
<title>Node13&#45;&gt;Node7</title>
<path fill="none" stroke="#191970" d="M630.0238,-358.4095C653.8013,-312.4117 685.0992,-231.3288 645.6058,-178 630.1052,-157.0693 570.2486,-140.3396 519.1861,-129.4757"/>
<polygon fill="#191970" stroke="#191970" points="626.8496,-356.924 625.2421,-367.3962 633.0293,-360.2121 626.8496,-356.924"/>
</g>
<!-- Node13&#45;&gt;Node8 -->
<g id="edge23" class="edge">
<title>Node13&#45;&gt;Node8</title>
<path fill="none" stroke="#191970" d="M706.5829,-367.2065C770.1108,-357.4927 900.3357,-367.6453 931.6058,-331 979.084,-275.3602 948.9657,-145.7663 883.6058,-89 851.9667,-61.5209 590.2419,-40.4954 456.1551,-31.4127"/>
<polygon fill="#191970" stroke="#191970" points="705.8306,-363.786 696.6218,-369.0251 707.0878,-370.6721 705.8306,-363.786"/>
</g>
<!-- Node13&#45;&gt;Node10 -->
<g id="edge24" class="edge">
<title>Node13&#45;&gt;Node10</title>
<path fill="none" stroke="#191970" d="M512.8489,-367.983C485.7447,-358.5789 457.0356,-346.3651 432.6058,-331 389.1399,-303.6622 348.9458,-259.0139 325.8626,-230.726"/>
<polygon fill="#191970" stroke="#191970" points="511.7653,-371.3112 522.3594,-371.1928 514.0037,-364.6787 511.7653,-371.3112"/>
</g>
<!-- Node14 -->
<g id="node13" class="node">
<title>Node14</title>
<g id="a_node13"><a xlink:href="../../d6/d40/DataPointValue_8cxx.html" target="_top" xlink:title="/home/travis/build\l/AliceO2Group/AliceO2\l/Detectors/DCS/src/DataPoint\lValue.cxx">
<polygon fill="none" stroke="#000000" points="764.6058,-273 764.6058,-325 922.6058,-325 922.6058,-273 764.6058,-273"/>
<text text-anchor="start" x="772.6058" y="-313" font-family="Helvetica,sans-Serif" font-size="10.00" fill="#000000">/home/travis/build</text>
<text text-anchor="start" x="772.6058" y="-302" font-family="Helvetica,sans-Serif" font-size="10.00" fill="#000000">/AliceO2Group/AliceO2</text>
<text text-anchor="start" x="772.6058" y="-291" font-family="Helvetica,sans-Serif" font-size="10.00" fill="#000000">/Detectors/DCS/src/DataPoint</text>
<text text-anchor="middle" x="843.6058" y="-280" font-family="Helvetica,sans-Serif" font-size="10.00" fill="#000000">Value.cxx</text>
</a>
</g>
</g>
<!-- Node13&#45;&gt;Node14 -->
<g id="edge22" class="edge">
<title>Node13&#45;&gt;Node14</title>
<path fill="none" stroke="#191970" d="M683.5054,-363.6559C714.106,-351.298 749.2793,-337.0934 778.8497,-325.1515"/>
<polygon fill="#191970" stroke="#191970" points="682.1285,-360.4373 674.1667,-367.4273 684.7498,-366.928 682.1285,-360.4373"/>
</g>
</g>
</svg>
