<?xml version="1.0" encoding="UTF-8" standalone="no"?>
<!DOCTYPE svg PUBLIC "-//W3C//DTD SVG 1.1//EN"
 "http://www.w3.org/Graphics/SVG/1.1/DTD/svg11.dtd">
<!-- Generated by graphviz version 2.40.1 (20161225.0304)
 -->
<!-- Title: /home/travis/build/AliceO2Group/AliceO2/DataFormats/simulation/include/SimulationDataFormat/MCEventHeader.h Pages: 1 -->
<svg width="1576pt" height="417pt"
 viewBox="0.00 0.00 1575.50 417.00" xmlns="http://www.w3.org/2000/svg" xmlns:xlink="http://www.w3.org/1999/xlink">
<g id="graph0" class="graph" transform="scale(1 1) rotate(0) translate(4 413)">
<title>/home/travis/build/AliceO2Group/AliceO2/DataFormats/simulation/include/SimulationDataFormat/MCEventHeader.h</title>
<!-- Node5 -->
<g id="node1" class="node">
<title>Node5</title>
<polygon fill="#bfbfbf" stroke="#000000" points="836.5,-345.5 836.5,-408.5 1004.5,-408.5 1004.5,-345.5 836.5,-345.5"/>
<text text-anchor="start" x="844.5" y="-396.5" font-family="Helvetica,sans-Serif" font-size="10.00" fill="#000000">/home/travis/build</text>
<text text-anchor="start" x="844.5" y="-385.5" font-family="Helvetica,sans-Serif" font-size="10.00" fill="#000000">/AliceO2Group/AliceO2</text>
<text text-anchor="start" x="844.5" y="-374.5" font-family="Helvetica,sans-Serif" font-size="10.00" fill="#000000">/DataFormats/simulation</text>
<text text-anchor="start" x="844.5" y="-363.5" font-family="Helvetica,sans-Serif" font-size="10.00" fill="#000000">/include/SimulationDataFormat</text>
<text text-anchor="middle" x="920.5" y="-352.5" font-family="Helvetica,sans-Serif" font-size="10.00" fill="#000000">/MCEventHeader.h</text>
</g>
<!-- Node6 -->
<g id="node2" class="node">
<title>Node6</title>
<g id="a_node2"><a xlink:href="../../d9/d45/PrimaryChunk_8h.html" target="_top" xlink:title="/home/travis/build\l/AliceO2Group/AliceO2\l/DataFormats/simulation\l/include/SimulationDataFormat\l/PrimaryChunk.h">
<polygon fill="none" stroke="#000000" points="443.5,-245.5 443.5,-308.5 611.5,-308.5 611.5,-245.5 443.5,-245.5"/>
<text text-anchor="start" x="451.5" y="-296.5" font-family="Helvetica,sans-Serif" font-size="10.00" fill="#000000">/home/travis/build</text>
<text text-anchor="start" x="451.5" y="-285.5" font-family="Helvetica,sans-Serif" font-size="10.00" fill="#000000">/AliceO2Group/AliceO2</text>
<text text-anchor="start" x="451.5" y="-274.5" font-family="Helvetica,sans-Serif" font-size="10.00" fill="#000000">/DataFormats/simulation</text>
<text text-anchor="start" x="451.5" y="-263.5" font-family="Helvetica,sans-Serif" font-size="10.00" fill="#000000">/include/SimulationDataFormat</text>
<text text-anchor="middle" x="527.5" y="-252.5" font-family="Helvetica,sans-Serif" font-size="10.00" fill="#000000">/PrimaryChunk.h</text>
</a>
</g>
</g>
<!-- Node5&#45;&gt;Node6 -->
<g id="edge1" class="edge">
<title>Node5&#45;&gt;Node6</title>
<path fill="none" stroke="#191970" d="M826.3011,-353.0308C760.9655,-336.406 674.7057,-314.4569 611.6689,-298.417"/>
<polygon fill="#191970" stroke="#191970" points="825.6373,-356.4734 836.1916,-355.5475 827.3636,-349.6896 825.6373,-356.4734"/>
</g>
<!-- Node8 -->
<g id="node4" class="node">
<title>Node8</title>
<g id="a_node4"><a xlink:href="../../db/d50/O2HitMerger_8h.html" target="_top" xlink:title="/home/travis/build\l/AliceO2Group/AliceO2\l/run/O2HitMerger.h">
<polygon fill="none" stroke="#000000" points="13,-78.5 13,-119.5 140,-119.5 140,-78.5 13,-78.5"/>
<text text-anchor="start" x="21" y="-107.5" font-family="Helvetica,sans-Serif" font-size="10.00" fill="#000000">/home/travis/build</text>
<text text-anchor="start" x="21" y="-96.5" font-family="Helvetica,sans-Serif" font-size="10.00" fill="#000000">/AliceO2Group/AliceO2</text>
<text text-anchor="middle" x="76.5" y="-85.5" font-family="Helvetica,sans-Serif" font-size="10.00" fill="#000000">/run/O2HitMerger.h</text>
</a>
</g>
</g>
<!-- Node5&#45;&gt;Node8 -->
<g id="edge19" class="edge">
<title>Node5&#45;&gt;Node8</title>
<path fill="none" stroke="#191970" d="M826.1653,-372.8577C626.7226,-361.8887 173.0313,-324.5131 81.5,-209 61.4353,-183.6782 65.6832,-143.8504 70.8879,-119.7045"/>
<polygon fill="#191970" stroke="#191970" points="826.1606,-376.3625 836.3346,-373.4062 826.5376,-369.3726 826.1606,-376.3625"/>
</g>
<!-- Node12 -->
<g id="node8" class="node">
<title>Node12</title>
<g id="a_node8"><a xlink:href="../../dc/d50/O2PrimaryServerDevice_8h.html" target="_top" xlink:title="/home/travis/build\l/AliceO2Group/AliceO2\l/run/O2PrimaryServerDevice.h">
<polygon fill="none" stroke="#000000" points="725.5,-162 725.5,-203 889.5,-203 889.5,-162 725.5,-162"/>
<text text-anchor="start" x="733.5" y="-191" font-family="Helvetica,sans-Serif" font-size="10.00" fill="#000000">/home/travis/build</text>
<text text-anchor="start" x="733.5" y="-180" font-family="Helvetica,sans-Serif" font-size="10.00" fill="#000000">/AliceO2Group/AliceO2</text>
<text text-anchor="middle" x="807.5" y="-169" font-family="Helvetica,sans-Serif" font-size="10.00" fill="#000000">/run/O2PrimaryServerDevice.h</text>
</a>
</g>
</g>
<!-- Node5&#45;&gt;Node12 -->
<g id="edge20" class="edge">
<title>Node5&#45;&gt;Node12</title>
<path fill="none" stroke="#191970" d="M826.2973,-359.5201C798.5042,-349.5021 771.1095,-333.753 754.5,-309 738.6509,-285.3803 744.702,-271.7036 754.5,-245 760.3807,-228.9726 772.3938,-214.238 783.498,-203.1058"/>
<polygon fill="#191970" stroke="#191970" points="825.5336,-362.9559 836.1276,-362.8299 827.7672,-356.3218 825.5336,-362.9559"/>
</g>
<!-- Node16 -->
<g id="node12" class="node">
<title>Node16</title>
<g id="a_node12"><a xlink:href="../../df/d3b/O2MCApplication_8cxx.html" target="_top" xlink:title="/home/travis/build\l/AliceO2Group/AliceO2\l/Steer/src/O2MCApplication.cxx">
<polygon fill="none" stroke="#000000" points="575,-78.5 575,-119.5 744,-119.5 744,-78.5 575,-78.5"/>
<text text-anchor="start" x="583" y="-107.5" font-family="Helvetica,sans-Serif" font-size="10.00" fill="#000000">/home/travis/build</text>
<text text-anchor="start" x="583" y="-96.5" font-family="Helvetica,sans-Serif" font-size="10.00" fill="#000000">/AliceO2Group/AliceO2</text>
<text text-anchor="middle" x="659.5" y="-85.5" font-family="Helvetica,sans-Serif" font-size="10.00" fill="#000000">/Steer/src/O2MCApplication.cxx</text>
</a>
</g>
</g>
<!-- Node5&#45;&gt;Node16 -->
<g id="edge26" class="edge">
<title>Node5&#45;&gt;Node16</title>
<path fill="none" stroke="#191970" d="M826.4688,-357.4393C796.2361,-347.2393 764.6197,-331.9076 741.5,-309 687.1454,-255.1442 667.987,-161.0738 661.9674,-119.6188"/>
<polygon fill="#191970" stroke="#191970" points="825.6321,-360.8467 836.2235,-360.5738 827.7737,-354.1823 825.6321,-360.8467"/>
</g>
<!-- Node17 -->
<g id="node13" class="node">
<title>Node17</title>
<g id="a_node13"><a xlink:href="../../df/dc2/DigitizationContext_8cxx.html" target="_top" xlink:title="/home/travis/build\l/AliceO2Group/AliceO2\l/DataFormats/simulation\l/src/DigitizationContext.cxx">
<polygon fill="none" stroke="#000000" points="763.5,-251 763.5,-303 915.5,-303 915.5,-251 763.5,-251"/>
<text text-anchor="start" x="771.5" y="-291" font-family="Helvetica,sans-Serif" font-size="10.00" fill="#000000">/home/travis/build</text>
<text text-anchor="start" x="771.5" y="-280" font-family="Helvetica,sans-Serif" font-size="10.00" fill="#000000">/AliceO2Group/AliceO2</text>
<text text-anchor="start" x="771.5" y="-269" font-family="Helvetica,sans-Serif" font-size="10.00" fill="#000000">/DataFormats/simulation</text>
<text text-anchor="middle" x="839.5" y="-258" font-family="Helvetica,sans-Serif" font-size="10.00" fill="#000000">/src/DigitizationContext.cxx</text>
</a>
</g>
</g>
<!-- Node5&#45;&gt;Node17 -->
<g id="edge15" class="edge">
<title>Node5&#45;&gt;Node17</title>
<path fill="none" stroke="#191970" d="M888.5121,-337.5088C879.1421,-325.9409 869.1355,-313.5871 860.6232,-303.078"/>
<polygon fill="#191970" stroke="#191970" points="885.8571,-339.7917 894.8711,-345.3594 891.2966,-335.3857 885.8571,-339.7917"/>
</g>
<!-- Node18 -->
<g id="node14" class="node">
<title>Node18</title>
<g id="a_node14"><a xlink:href="../../d8/de4/MCEventHeader_8cxx.html" target="_top" xlink:title="/home/travis/build\l/AliceO2Group/AliceO2\l/DataFormats/simulation\l/src/MCEventHeader.cxx">
<polygon fill="none" stroke="#000000" points="934,-251 934,-303 1071,-303 1071,-251 934,-251"/>
<text text-anchor="start" x="942" y="-291" font-family="Helvetica,sans-Serif" font-size="10.00" fill="#000000">/home/travis/build</text>
<text text-anchor="start" x="942" y="-280" font-family="Helvetica,sans-Serif" font-size="10.00" fill="#000000">/AliceO2Group/AliceO2</text>
<text text-anchor="start" x="942" y="-269" font-family="Helvetica,sans-Serif" font-size="10.00" fill="#000000">/DataFormats/simulation</text>
<text text-anchor="middle" x="1002.5" y="-258" font-family="Helvetica,sans-Serif" font-size="10.00" fill="#000000">/src/MCEventHeader.cxx</text>
</a>
</g>
</g>
<!-- Node5&#45;&gt;Node18 -->
<g id="edge16" class="edge">
<title>Node5&#45;&gt;Node18</title>
<path fill="none" stroke="#191970" d="M952.8828,-337.5088C962.3685,-325.9409 972.4986,-313.5871 981.1161,-303.078"/>
<polygon fill="#191970" stroke="#191970" points="950.0797,-335.4074 946.4453,-345.3594 955.4926,-339.846 950.0797,-335.4074"/>
</g>
<!-- Node19 -->
<g id="node15" class="node">
<title>Node19</title>
<g id="a_node15"><a xlink:href="../../d6/dc9/AODProducerWorkflowSpec_8cxx.html" target="_top" xlink:title="/home/travis/build\l/AliceO2Group/AliceO2\l/Detectors/AOD/src/AODProducer\lWorkflowSpec.cxx">
<polygon fill="none" stroke="#000000" points="942.5,-156.5 942.5,-208.5 1118.5,-208.5 1118.5,-156.5 942.5,-156.5"/>
<text text-anchor="start" x="950.5" y="-196.5" font-family="Helvetica,sans-Serif" font-size="10.00" fill="#000000">/home/travis/build</text>
<text text-anchor="start" x="950.5" y="-185.5" font-family="Helvetica,sans-Serif" font-size="10.00" fill="#000000">/AliceO2Group/AliceO2</text>
<text text-anchor="start" x="950.5" y="-174.5" font-family="Helvetica,sans-Serif" font-size="10.00" fill="#000000">/Detectors/AOD/src/AODProducer</text>
<text text-anchor="middle" x="1030.5" y="-163.5" font-family="Helvetica,sans-Serif" font-size="10.00" fill="#000000">WorkflowSpec.cxx</text>
</a>
</g>
</g>
<!-- Node5&#45;&gt;Node19 -->
<g id="edge17" class="edge">
<title>Node5&#45;&gt;Node19</title>
<path fill="none" stroke="#191970" d="M1014.1448,-357.3301C1039.6156,-347.231 1064.3301,-331.9867 1079.5,-309 1095.1674,-285.2594 1088.7832,-271.8869 1079.5,-245 1074.9101,-231.7064 1066.199,-219.0841 1057.3793,-208.7086"/>
<polygon fill="#191970" stroke="#191970" points="1012.8981,-354.0594 1004.7428,-360.8228 1015.3358,-360.6213 1012.8981,-354.0594"/>
</g>
<!-- Node20 -->
<g id="node16" class="node">
<title>Node20</title>
<g id="a_node16"><a xlink:href="../../dc/d20/PrimaryGenerator_8cxx.html" target="_top" xlink:title="/home/travis/build\l/AliceO2Group/AliceO2\l/Generators/src/PrimaryGenerator.cxx">
<polygon fill="none" stroke="#000000" points="1367.5,-256.5 1367.5,-297.5 1567.5,-297.5 1567.5,-256.5 1367.5,-256.5"/>
<text text-anchor="start" x="1375.5" y="-285.5" font-family="Helvetica,sans-Serif" font-size="10.00" fill="#000000">/home/travis/build</text>
<text text-anchor="start" x="1375.5" y="-274.5" font-family="Helvetica,sans-Serif" font-size="10.00" fill="#000000">/AliceO2Group/AliceO2</text>
<text text-anchor="middle" x="1467.5" y="-263.5" font-family="Helvetica,sans-Serif" font-size="10.00" fill="#000000">/Generators/src/PrimaryGenerator.cxx</text>
</a>
</g>
</g>
<!-- Node5&#45;&gt;Node20 -->
<g id="edge18" class="edge">
<title>Node5&#45;&gt;Node20</title>
<path fill="none" stroke="#191970" d="M1014.8385,-365.4468C1102.9556,-353.8865 1237.8844,-334.2131 1353.5,-309 1368.463,-305.7369 1384.3717,-301.663 1399.4086,-297.5264"/>
<polygon fill="#191970" stroke="#191970" points="1014.3266,-361.9838 1004.8629,-366.7471 1015.2315,-368.9251 1014.3266,-361.9838"/>
</g>
<!-- Node21 -->
<g id="node17" class="node">
<title>Node21</title>
<g id="a_node17"><a xlink:href="../../dd/de5/MCKinematicsReader_8h.html" target="_top" xlink:title="/home/travis/build\l/AliceO2Group/AliceO2\l/Steer/include/Steer/MCKinematics\lReader.h">
<polygon fill="none" stroke="#000000" points="1127,-251 1127,-303 1312,-303 1312,-251 1127,-251"/>
<text text-anchor="start" x="1135" y="-291" font-family="Helvetica,sans-Serif" font-size="10.00" fill="#000000">/home/travis/build</text>
<text text-anchor="start" x="1135" y="-280" font-family="Helvetica,sans-Serif" font-size="10.00" fill="#000000">/AliceO2Group/AliceO2</text>
<text text-anchor="start" x="1135" y="-269" font-family="Helvetica,sans-Serif" font-size="10.00" fill="#000000">/Steer/include/Steer/MCKinematics</text>
<text text-anchor="middle" x="1219.5" y="-258" font-family="Helvetica,sans-Serif" font-size="10.00" fill="#000000">Reader.h</text>
</a>
</g>
</g>
<!-- Node5&#45;&gt;Node21 -->
<g id="edge21" class="edge">
<title>Node5&#45;&gt;Node21</title>
<path fill="none" stroke="#191970" d="M1014.3011,-345.6284C1055.2582,-331.9304 1102.7233,-316.0558 1141.6807,-303.0265"/>
<polygon fill="#191970" stroke="#191970" points="1012.9574,-342.3872 1004.5839,-348.8783 1015.1777,-349.0257 1012.9574,-342.3872"/>
</g>
<!-- Node23 -->
<g id="node19" class="node">
<title>Node23</title>
<g id="a_node19"><a xlink:href="../../db/dd9/MCKinematicsReader_8cxx.html" target="_top" xlink:title="/home/travis/build\l/AliceO2Group/AliceO2\l/Steer/src/MCKinematicsReader.cxx">
<polygon fill="none" stroke="#000000" points="1321.5,-162 1321.5,-203 1509.5,-203 1509.5,-162 1321.5,-162"/>
<text text-anchor="start" x="1329.5" y="-191" font-family="Helvetica,sans-Serif" font-size="10.00" fill="#000000">/home/travis/build</text>
<text text-anchor="start" x="1329.5" y="-180" font-family="Helvetica,sans-Serif" font-size="10.00" fill="#000000">/AliceO2Group/AliceO2</text>
<text text-anchor="middle" x="1415.5" y="-169" font-family="Helvetica,sans-Serif" font-size="10.00" fill="#000000">/Steer/src/MCKinematicsReader.cxx</text>
</a>
</g>
</g>
<!-- Node5&#45;&gt;Node23 -->
<g id="edge25" class="edge">
<title>Node5&#45;&gt;Node23</title>
<path fill="none" stroke="#191970" d="M1014.8939,-370.0811C1117.1244,-361.0188 1272.0989,-342.233 1320.5,-309 1347.771,-290.2753 1338.808,-271.5809 1358.5,-245 1369.4274,-230.2498 1383.2734,-215.0029 1394.5825,-203.2612"/>
<polygon fill="#191970" stroke="#191970" points="1014.5214,-366.6002 1004.8625,-370.9542 1015.1284,-373.5738 1014.5214,-366.6002"/>
</g>
<!-- Node7 -->
<g id="node3" class="node">
<title>Node7</title>
<g id="a_node3"><a xlink:href="../../d5/d9d/test_2MCTrack_8cxx.html" target="_top" xlink:title="/home/travis/build\l/AliceO2Group/AliceO2\l/DataFormats/simulation\l/test/MCTrack.cxx">
<polygon fill="none" stroke="#000000" points="269,-156.5 269,-208.5 406,-208.5 406,-156.5 269,-156.5"/>
<text text-anchor="start" x="277" y="-196.5" font-family="Helvetica,sans-Serif" font-size="10.00" fill="#000000">/home/travis/build</text>
<text text-anchor="start" x="277" y="-185.5" font-family="Helvetica,sans-Serif" font-size="10.00" fill="#000000">/AliceO2Group/AliceO2</text>
<text text-anchor="start" x="277" y="-174.5" font-family="Helvetica,sans-Serif" font-size="10.00" fill="#000000">/DataFormats/simulation</text>
<text text-anchor="middle" x="337.5" y="-163.5" font-family="Helvetica,sans-Serif" font-size="10.00" fill="#000000">/test/MCTrack.cxx</text>
</a>
</g>
</g>
<!-- Node6&#45;&gt;Node7 -->
<g id="edge2" class="edge">
<title>Node6&#45;&gt;Node7</title>
<path fill="none" stroke="#191970" d="M454.819,-240.8507C433.2035,-230.0999 409.9541,-218.5364 389.8992,-208.5617"/>
<polygon fill="#191970" stroke="#191970" points="453.4562,-244.0819 463.9686,-245.4015 456.5736,-237.8144 453.4562,-244.0819"/>
</g>
<!-- Node6&#45;&gt;Node8 -->
<g id="edge3" class="edge">
<title>Node6&#45;&gt;Node8</title>
<path fill="none" stroke="#191970" d="M433.1751,-272.4999C326.482,-265.5525 161.45,-248.6001 114.5,-209 87.9355,-186.5941 79.9132,-144.6404 77.5087,-119.5206"/>
<polygon fill="#191970" stroke="#191970" points="433.1111,-276.0028 443.3122,-273.1415 433.5533,-269.0168 433.1111,-276.0028"/>
</g>
<!-- Node10 -->
<g id="node6" class="node">
<title>Node10</title>
<g id="a_node6"><a xlink:href="../../db/d82/O2SimDevice_8h.html" target="_top" xlink:title="/home/travis/build\l/AliceO2Group/AliceO2\l/run/O2SimDevice.h">
<polygon fill="none" stroke="#000000" points="124,-162 124,-203 251,-203 251,-162 124,-162"/>
<text text-anchor="start" x="132" y="-191" font-family="Helvetica,sans-Serif" font-size="10.00" fill="#000000">/home/travis/build</text>
<text text-anchor="start" x="132" y="-180" font-family="Helvetica,sans-Serif" font-size="10.00" fill="#000000">/AliceO2Group/AliceO2</text>
<text text-anchor="middle" x="187.5" y="-169" font-family="Helvetica,sans-Serif" font-size="10.00" fill="#000000">/run/O2SimDevice.h</text>
</a>
</g>
</g>
<!-- Node6&#45;&gt;Node10 -->
<g id="edge6" class="edge">
<title>Node6&#45;&gt;Node10</title>
<path fill="none" stroke="#191970" d="M433.4553,-255.6752C381.7518,-243.3174 316.6806,-226.7243 259.5,-209 253.6476,-207.1859 247.5737,-205.1682 241.5469,-203.0785"/>
<polygon fill="#191970" stroke="#191970" points="432.7414,-259.103 443.2798,-258.0109 434.3605,-252.2928 432.7414,-259.103"/>
</g>
<!-- Node6&#45;&gt;Node12 -->
<g id="edge9" class="edge">
<title>Node6&#45;&gt;Node12</title>
<path fill="none" stroke="#191970" d="M621.0656,-245.4216C662.4703,-231.4475 709.9858,-215.411 746.6849,-203.0251"/>
<polygon fill="#191970" stroke="#191970" points="619.8649,-242.1328 611.5092,-248.6469 622.1034,-248.7653 619.8649,-242.1328"/>
</g>
<!-- Node14 -->
<g id="node10" class="node">
<title>Node14</title>
<g id="a_node10"><a xlink:href="../../df/d82/O2MCApplication_8h.html" target="_top" xlink:title="/home/travis/build\l/AliceO2Group/AliceO2\l/Steer/include/Steer/O2MCApplication.h">
<polygon fill="none" stroke="#000000" points="424,-162 424,-203 631,-203 631,-162 424,-162"/>
<text text-anchor="start" x="432" y="-191" font-family="Helvetica,sans-Serif" font-size="10.00" fill="#000000">/home/travis/build</text>
<text text-anchor="start" x="432" y="-180" font-family="Helvetica,sans-Serif" font-size="10.00" fill="#000000">/AliceO2Group/AliceO2</text>
<text text-anchor="middle" x="527.5" y="-169" font-family="Helvetica,sans-Serif" font-size="10.00" fill="#000000">/Steer/include/Steer/O2MCApplication.h</text>
</a>
</g>
</g>
<!-- Node6&#45;&gt;Node14 -->
<g id="edge11" class="edge">
<title>Node6&#45;&gt;Node14</title>
<path fill="none" stroke="#191970" d="M527.5,-235.2063C527.5,-224.0427 527.5,-212.4673 527.5,-203.0178"/>
<polygon fill="#191970" stroke="#191970" points="524.0001,-235.2699 527.5,-245.27 531.0001,-235.27 524.0001,-235.2699"/>
</g>
<!-- Node6&#45;&gt;Node16 -->
<g id="edge14" class="edge">
<title>Node6&#45;&gt;Node16</title>
<path fill="none" stroke="#191970" d="M608.201,-239.7782C620.2005,-231.1726 631.2779,-220.9541 639.5,-209 657.9798,-182.1324 660.8181,-143.1555 660.5858,-119.5336"/>
<polygon fill="#191970" stroke="#191970" points="606.093,-236.9786 599.7702,-245.4799 610.0145,-242.7771 606.093,-236.9786"/>
</g>
<!-- Node8&#45;&gt;Node8 -->
<g id="edge4" class="edge">
<title>Node8&#45;&gt;Node8</title>
<path fill="none" stroke="#191970" d="M149.6757,-109.6998C154.8451,-107.2654 158,-103.6989 158,-99 158,-91.8398 150.6744,-87.3088 140.058,-85.4069"/>
<polygon fill="#191970" stroke="#191970" points="148.6258,-106.3606 140.058,-112.5931 150.6424,-113.0638 148.6258,-106.3606"/>
</g>
<!-- Node9 -->
<g id="node5" class="node">
<title>Node9</title>
<g id="a_node5"><a xlink:href="../../d9/d16/O2HitMergerRunner_8cxx.html" target="_top" xlink:title="/home/travis/build\l/AliceO2Group/AliceO2\l/run/O2HitMergerRunner.cxx">
<polygon fill="none" stroke="#000000" points="0,-.5 0,-41.5 153,-41.5 153,-.5 0,-.5"/>
<text text-anchor="start" x="8" y="-29.5" font-family="Helvetica,sans-Serif" font-size="10.00" fill="#000000">/home/travis/build</text>
<text text-anchor="start" x="8" y="-18.5" font-family="Helvetica,sans-Serif" font-size="10.00" fill="#000000">/AliceO2Group/AliceO2</text>
<text text-anchor="middle" x="76.5" y="-7.5" font-family="Helvetica,sans-Serif" font-size="10.00" fill="#000000">/run/O2HitMergerRunner.cxx</text>
</a>
</g>
</g>
<!-- Node8&#45;&gt;Node9 -->
<g id="edge5" class="edge">
<title>Node8&#45;&gt;Node9</title>
<path fill="none" stroke="#191970" d="M76.5,-68.0789C76.5,-59.2178 76.5,-49.7747 76.5,-41.6898"/>
<polygon fill="#191970" stroke="#191970" points="73.0001,-68.0974 76.5,-78.0974 80.0001,-68.0975 73.0001,-68.0974"/>
</g>
<!-- Node10&#45;&gt;Node8 -->
<g id="edge7" class="edge">
<title>Node10&#45;&gt;Node8</title>
<path fill="none" stroke="#191970" d="M151.7412,-155.6004C136.262,-143.9561 118.427,-130.5397 104.0073,-119.6924"/>
<polygon fill="#191970" stroke="#191970" points="149.9664,-158.645 160.0618,-161.8595 154.1745,-153.051 149.9664,-158.645"/>
</g>
<!-- Node11 -->
<g id="node7" class="node">
<title>Node11</title>
<g id="a_node7"><a xlink:href="../../d6/da5/O2SimDeviceRunner_8cxx.html" target="_top" xlink:title="/home/travis/build\l/AliceO2Group/AliceO2\l/run/O2SimDeviceRunner.cxx">
<polygon fill="none" stroke="#000000" points="176.5,-78.5 176.5,-119.5 334.5,-119.5 334.5,-78.5 176.5,-78.5"/>
<text text-anchor="start" x="184.5" y="-107.5" font-family="Helvetica,sans-Serif" font-size="10.00" fill="#000000">/home/travis/build</text>
<text text-anchor="start" x="184.5" y="-96.5" font-family="Helvetica,sans-Serif" font-size="10.00" fill="#000000">/AliceO2Group/AliceO2</text>
<text text-anchor="middle" x="255.5" y="-85.5" font-family="Helvetica,sans-Serif" font-size="10.00" fill="#000000">/run/O2SimDeviceRunner.cxx</text>
</a>
</g>
</g>
<!-- Node10&#45;&gt;Node11 -->
<g id="edge8" class="edge">
<title>Node10&#45;&gt;Node11</title>
<path fill="none" stroke="#191970" d="M210.7323,-153.9722C219.8962,-142.7193 230.224,-130.0375 238.6487,-119.6924"/>
<polygon fill="#191970" stroke="#191970" points="207.9098,-151.8953 204.309,-161.8595 213.3376,-156.3156 207.9098,-151.8953"/>
</g>
<!-- Node13 -->
<g id="node9" class="node">
<title>Node13</title>
<g id="a_node9"><a xlink:href="../../db/d8f/O2PrimaryServerDeviceRunner_8cxx.html" target="_top" xlink:title="/home/travis/build\l/AliceO2Group/AliceO2\l/run/O2PrimaryServerDeviceRunner.cxx">
<polygon fill="none" stroke="#000000" points="762,-78.5 762,-119.5 971,-119.5 971,-78.5 762,-78.5"/>
<text text-anchor="start" x="770" y="-107.5" font-family="Helvetica,sans-Serif" font-size="10.00" fill="#000000">/home/travis/build</text>
<text text-anchor="start" x="770" y="-96.5" font-family="Helvetica,sans-Serif" font-size="10.00" fill="#000000">/AliceO2Group/AliceO2</text>
<text text-anchor="middle" x="866.5" y="-85.5" font-family="Helvetica,sans-Serif" font-size="10.00" fill="#000000">/run/O2PrimaryServerDeviceRunner.cxx</text>
</a>
</g>
</g>
<!-- Node12&#45;&gt;Node13 -->
<g id="edge10" class="edge">
<title>Node12&#45;&gt;Node13</title>
<path fill="none" stroke="#191970" d="M827.8893,-153.644C835.7823,-142.4733 844.6403,-129.9371 851.879,-119.6924"/>
<polygon fill="#191970" stroke="#191970" points="824.9965,-151.6728 822.0843,-161.8595 830.7134,-155.7123 824.9965,-151.6728"/>
</g>
<!-- Node15 -->
<g id="node11" class="node">
<title>Node15</title>
<g id="a_node11"><a xlink:href="../../d9/d9b/O2RunSim_8h.html" target="_top" xlink:title="/home/travis/build\l/AliceO2Group/AliceO2\l/Steer/include/Steer/O2RunSim.h">
<polygon fill="none" stroke="#000000" points="382.5,-78.5 382.5,-119.5 556.5,-119.5 556.5,-78.5 382.5,-78.5"/>
<text text-anchor="start" x="390.5" y="-107.5" font-family="Helvetica,sans-Serif" font-size="10.00" fill="#000000">/home/travis/build</text>
<text text-anchor="start" x="390.5" y="-96.5" font-family="Helvetica,sans-Serif" font-size="10.00" fill="#000000">/AliceO2Group/AliceO2</text>
<text text-anchor="middle" x="469.5" y="-85.5" font-family="Helvetica,sans-Serif" font-size="10.00" fill="#000000">/Steer/include/Steer/O2RunSim.h</text>
</a>
</g>
</g>
<!-- Node14&#45;&gt;Node15 -->
<g id="edge12" class="edge">
<title>Node14&#45;&gt;Node15</title>
<path fill="none" stroke="#191970" d="M507.4563,-153.644C499.697,-142.4733 490.9892,-129.9371 483.8732,-119.6924"/>
<polygon fill="#191970" stroke="#191970" points="504.5834,-155.6432 513.1629,-161.8595 510.3326,-151.6497 504.5834,-155.6432"/>
</g>
<!-- Node14&#45;&gt;Node16 -->
<g id="edge13" class="edge">
<title>Node14&#45;&gt;Node16</title>
<path fill="none" stroke="#191970" d="M568.7502,-156.4061C587.4476,-144.5786 609.2439,-130.7908 626.7887,-119.6924"/>
<polygon fill="#191970" stroke="#191970" points="566.7092,-153.5557 560.1292,-161.8595 570.4514,-159.4714 566.7092,-153.5557"/>
</g>
<!-- Node21&#45;&gt;Node19 -->
<g id="edge22" class="edge">
<title>Node21&#45;&gt;Node19</title>
<path fill="none" stroke="#191970" d="M1158.2088,-246.3544C1133.8735,-234.1868 1106.172,-220.336 1082.803,-208.6515"/>
<polygon fill="#191970" stroke="#191970" points="1156.8451,-249.5856 1167.3546,-250.9273 1159.9756,-243.3246 1156.8451,-249.5856"/>
</g>
<!-- Node22 -->
<g id="node18" class="node">
<title>Node22</title>
<g id="a_node18"><a xlink:href="../../d7/d23/StandaloneAODProducer_8cxx.html" target="_top" xlink:title="/home/travis/build\l/AliceO2Group/AliceO2\l/Detectors/AOD/src/Standalone\lAODProducer.cxx">
<polygon fill="none" stroke="#000000" points="1136,-156.5 1136,-208.5 1303,-208.5 1303,-156.5 1136,-156.5"/>
<text text-anchor="start" x="1144" y="-196.5" font-family="Helvetica,sans-Serif" font-size="10.00" fill="#000000">/home/travis/build</text>
<text text-anchor="start" x="1144" y="-185.5" font-family="Helvetica,sans-Serif" font-size="10.00" fill="#000000">/AliceO2Group/AliceO2</text>
<text text-anchor="start" x="1144" y="-174.5" font-family="Helvetica,sans-Serif" font-size="10.00" fill="#000000">/Detectors/AOD/src/Standalone</text>
<text text-anchor="middle" x="1219.5" y="-163.5" font-family="Helvetica,sans-Serif" font-size="10.00" fill="#000000">AODProducer.cxx</text>
</a>
</g>
</g>
<!-- Node21&#45;&gt;Node22 -->
<g id="edge23" class="edge">
<title>Node21&#45;&gt;Node22</title>
<path fill="none" stroke="#191970" d="M1219.5,-240.6645C1219.5,-230.0577 1219.5,-218.6746 1219.5,-208.8157"/>
<polygon fill="#191970" stroke="#191970" points="1216.0001,-240.9273 1219.5,-250.9273 1223.0001,-240.9273 1216.0001,-240.9273"/>
</g>
<!-- Node21&#45;&gt;Node23 -->
<g id="edge24" class="edge">
<title>Node21&#45;&gt;Node23</title>
<path fill="none" stroke="#191970" d="M1282.9382,-246.4137C1312.3358,-232.2399 1346.4923,-215.7716 1372.7707,-203.1016"/>
<polygon fill="#191970" stroke="#191970" points="1281.0643,-243.4316 1273.5767,-250.9273 1284.1045,-249.737 1281.0643,-243.4316"/>
</g>
</g>
</svg>
