<?xml version="1.0" encoding="UTF-8" standalone="no"?>
<!DOCTYPE svg PUBLIC "-//W3C//DTD SVG 1.1//EN"
 "http://www.w3.org/Graphics/SVG/1.1/DTD/svg11.dtd">
<!-- Generated by graphviz version 2.40.1 (20161225.0304)
 -->
<!-- Title: o2::tof::WindowFiller Pages: 1 -->
<!--zoomable 1272 -->
<svg id="main" version="1.1" xmlns="http://www.w3.org/2000/svg" xmlns:xlink="http://www.w3.org/1999/xlink" xml:space="preserve" onload="init(evt)">
<style type="text/css"><![CDATA[
.edge:hover path { stroke: red; }
.edge:hover polygon { stroke: red; fill: red; }
]]></style>
<script type="text/javascript"><![CDATA[
var edges = document.getElementsByTagName('g');
if (edges && edges.length) {
  for (var i=0;i<edges.length;i++) {
    if (edges[i].id.substr(0,4)=='edge') {
      edges[i].setAttribute('class','edge');
    }
  }
}
]]></script>
        <defs>
                <circle id="rim" cx="0" cy="0" r="7"/>
                <circle id="rim2" cx="0" cy="0" r="3.5"/>
                <g id="zoomPlus">
                        <use xlink:href="#rim" fill="#404040">
                                <set attributeName="fill" to="#808080" begin="zoomplus.mouseover" end="zoomplus.mouseout"/>
                        </use>
                        <path d="M-4,0h8M0,-4v8" fill="none" stroke="white" stroke-width="1.5" pointer-events="none"/>
                </g>
                <g id="zoomMin">
                        <use xlink:href="#rim" fill="#404040">
                                <set attributeName="fill" to="#808080" begin="zoomminus.mouseover" end="zoomminus.mouseout"/>
                        </use>
                        <path d="M-4,0h8" fill="none" stroke="white" stroke-width="1.5" pointer-events="none"/>
                </g>
                <g id="dirArrow">
                        <path fill="none" stroke="white" stroke-width="1.5" d="M0,-3.0v7 M-2.5,-0.5L0,-3.0L2.5,-0.5"/>
                </g>
               <g id="resetDef">
                       <use xlink:href="#rim2" fill="#404040">
                               <set attributeName="fill" to="#808080" begin="reset.mouseover" end="reset.mouseout"/>
                       </use>
               </g>
        </defs>

<script type="text/javascript">
var viewWidth = 2036;
var viewHeight = 1272;
var sectionId = 'dynsection-1';
</script>
<script xlink:href="../../svgpan.js"/>
<svg id="graph" class="graph">
<g id="viewport">
<title>o2::tof::WindowFiller</title>
<!-- Node3 -->
<g id="node1" class="node">
<title>Node3</title>
<polygon fill="#bfbfbf" stroke="#000000" points="948.5,-.5 948.5,-354.5 1137.5,-354.5 1137.5,-.5 948.5,-.5"/>
<text text-anchor="middle" x="1043" y="-342.5" font-family="Helvetica,sans-Serif" font-size="10.00" fill="#000000">o2::tof::WindowFiller</text>
<polyline fill="none" stroke="#000000" points="948.5,-335.5 1137.5,-335.5 "/>
<text text-anchor="middle" x="1043" y="-323.5" font-family="Helvetica,sans-Serif" font-size="10.00" fill="#000000"> </text>
<polyline fill="none" stroke="#000000" points="948.5,-316.5 1137.5,-316.5 "/>
<text text-anchor="start" x="956.5" y="-304.5" font-family="Helvetica,sans-Serif" font-size="10.00" fill="#000000">+ WindowFiller()</text>
<text text-anchor="start" x="956.5" y="-293.5" font-family="Helvetica,sans-Serif" font-size="10.00" fill="#000000">+ ~WindowFiller()</text>
<text text-anchor="start" x="956.5" y="-282.5" font-family="Helvetica,sans-Serif" font-size="10.00" fill="#000000">+ initObj()</text>
<text text-anchor="start" x="956.5" y="-271.5" font-family="Helvetica,sans-Serif" font-size="10.00" fill="#000000">+ reset()</text>
<text text-anchor="start" x="956.5" y="-260.5" font-family="Helvetica,sans-Serif" font-size="10.00" fill="#000000">+ getCurrentReadoutWindow()</text>
<text text-anchor="start" x="956.5" y="-249.5" font-family="Helvetica,sans-Serif" font-size="10.00" fill="#000000">+ setCurrentReadoutWindow()</text>
<text text-anchor="start" x="956.5" y="-238.5" font-family="Helvetica,sans-Serif" font-size="10.00" fill="#000000">+ setEventTime()</text>
<text text-anchor="start" x="956.5" y="-227.5" font-family="Helvetica,sans-Serif" font-size="10.00" fill="#000000">+ getDigitPerTimeFrame()</text>
<text text-anchor="start" x="956.5" y="-216.5" font-family="Helvetica,sans-Serif" font-size="10.00" fill="#000000">+ getReadoutWindowData()</text>
<text text-anchor="start" x="956.5" y="-205.5" font-family="Helvetica,sans-Serif" font-size="10.00" fill="#000000">+ getReadoutWindowDataFiltered()</text>
<text text-anchor="start" x="956.5" y="-194.5" font-family="Helvetica,sans-Serif" font-size="10.00" fill="#000000">+ getDigitHeader()</text>
<text text-anchor="start" x="956.5" y="-183.5" font-family="Helvetica,sans-Serif" font-size="10.00" fill="#000000">+ fillOutputContainer()</text>
<text text-anchor="start" x="956.5" y="-172.5" font-family="Helvetica,sans-Serif" font-size="10.00" fill="#000000">+ flushOutputContainer()</text>
<text text-anchor="start" x="956.5" y="-161.5" font-family="Helvetica,sans-Serif" font-size="10.00" fill="#000000">+ setContinuous()</text>
<text text-anchor="start" x="956.5" y="-150.5" font-family="Helvetica,sans-Serif" font-size="10.00" fill="#000000">+ isContinuous()</text>
<text text-anchor="start" x="956.5" y="-139.5" font-family="Helvetica,sans-Serif" font-size="10.00" fill="#000000">+ resizeVectorFutureDigit()</text>
<text text-anchor="start" x="956.5" y="-128.5" font-family="Helvetica,sans-Serif" font-size="10.00" fill="#000000">+ setFirstIR()</text>
<text text-anchor="start" x="956.5" y="-117.5" font-family="Helvetica,sans-Serif" font-size="10.00" fill="#000000">+ maskNoiseRate()</text>
<text text-anchor="start" x="956.5" y="-106.5" font-family="Helvetica,sans-Serif" font-size="10.00" fill="#000000">+ clearCounts()</text>
<text text-anchor="start" x="956.5" y="-95.5" font-family="Helvetica,sans-Serif" font-size="10.00" fill="#000000">+ getPatterns()</text>
<text text-anchor="start" x="956.5" y="-84.5" font-family="Helvetica,sans-Serif" font-size="10.00" fill="#000000">+ addPattern()</text>
<text text-anchor="start" x="956.5" y="-73.5" font-family="Helvetica,sans-Serif" font-size="10.00" fill="#000000">+ addCrateHeaderData()</text>
<text text-anchor="start" x="956.5" y="-62.5" font-family="Helvetica,sans-Serif" font-size="10.00" fill="#000000"># fillDigitsInStrip()</text>
<text text-anchor="start" x="956.5" y="-51.5" font-family="Helvetica,sans-Serif" font-size="10.00" fill="#000000"># checkIfReuseFutureDigits()</text>
<text text-anchor="start" x="956.5" y="-40.5" font-family="Helvetica,sans-Serif" font-size="10.00" fill="#000000"># checkIfReuseFutureDigitsRO()</text>
<text text-anchor="start" x="956.5" y="-29.5" font-family="Helvetica,sans-Serif" font-size="10.00" fill="#000000"># insertDigitInFuture()</text>
<text text-anchor="start" x="956.5" y="-18.5" font-family="Helvetica,sans-Serif" font-size="10.00" fill="#000000"># isMergable()</text>
<text text-anchor="start" x="956.5" y="-7.5" font-family="Helvetica,sans-Serif" font-size="10.00" fill="#000000"># ClassDefNV()</text>
</g>
<!-- Node4 -->
<g id="node2" class="node">
<title>Node4</title>
<polygon fill="none" stroke="#bfbfbf" points="0,-490.5 0,-558.5 158,-558.5 158,-490.5 0,-490.5"/>
<text text-anchor="start" x="8" y="-546.5" font-family="Helvetica,sans-Serif" font-size="10.00" fill="#000000">vector&lt; o2::tof::WindowFiller</text>
<text text-anchor="middle" x="79" y="-535.5" font-family="Helvetica,sans-Serif" font-size="10.00" fill="#000000">::CrateHeaderData &gt;</text>
<polyline fill="none" stroke="#bfbfbf" points="0,-528.5 158,-528.5 "/>
<text text-anchor="middle" x="79" y="-516.5" font-family="Helvetica,sans-Serif" font-size="10.00" fill="#000000"> </text>
<polyline fill="none" stroke="#bfbfbf" points="0,-509.5 158,-509.5 "/>
<text text-anchor="middle" x="79" y="-497.5" font-family="Helvetica,sans-Serif" font-size="10.00" fill="#000000"> </text>
</g>
<!-- Node4&#45;&gt;Node3 -->
<g id="edge1" class="edge">
<title>Node4&#45;&gt;Node3</title>
<path fill="none" stroke="#404040" d="M96.6706,-490.3006C116.5458,-455.3389 152.131,-402.1531 198,-373 320.5132,-295.1338 737.8174,-223.6605 936.3607,-193.1208"/>
<polygon fill="none" stroke="#404040" points="936.3885,-193.1166 941.7141,-188.2547 948.2503,-191.3007 942.9247,-196.1626 936.3885,-193.1166"/>
<text text-anchor="middle" x="251" y="-381.5" font-family="Helvetica,sans-Serif" font-size="10.00" fill="#000000"> #mCrateHeaderData</text>
</g>
<!-- Node5 -->
<g id="node3" class="node">
<title>Node5</title>
<polygon fill="none" stroke="#bfbfbf" points="176,-496 176,-553 314,-553 314,-496 176,-496"/>
<text text-anchor="middle" x="245" y="-541" font-family="Helvetica,sans-Serif" font-size="10.00" fill="#000000">vector&lt; o2::tof::Strip &gt; *</text>
<polyline fill="none" stroke="#bfbfbf" points="176,-534 314,-534 "/>
<text text-anchor="middle" x="245" y="-522" font-family="Helvetica,sans-Serif" font-size="10.00" fill="#000000"> </text>
<polyline fill="none" stroke="#bfbfbf" points="176,-515 314,-515 "/>
<text text-anchor="middle" x="245" y="-503" font-family="Helvetica,sans-Serif" font-size="10.00" fill="#000000"> </text>
</g>
<!-- Node5&#45;&gt;Node3 -->
<g id="edge2" class="edge">
<title>Node5&#45;&gt;Node3</title>
<path fill="none" stroke="#404040" d="M252.8657,-495.9968C263.8064,-461.7027 286.9335,-404.7833 327,-373 421.5507,-297.9964 761.0907,-228.0823 936.4676,-195.9677"/>
<polygon fill="none" stroke="#404040" points="936.4857,-195.9645 941.6719,-190.9541 948.2915,-193.8143 943.1053,-198.8247 936.4857,-195.9645"/>
<text text-anchor="middle" x="368" y="-387" font-family="Helvetica,sans-Serif" font-size="10.00" fill="#000000"> #mStripsNext</text>
<text text-anchor="middle" x="368" y="-376" font-family="Helvetica,sans-Serif" font-size="10.00" fill="#000000">#mStripsCurrent</text>
</g>
<!-- Node6 -->
<g id="node4" class="node">
<title>Node6</title>
<g id="a_node4"><a xlink:href="../../d1/d21/structo2_1_1InteractionRecord.html" target="_top" xlink:title="{o2::InteractionRecord\n||+ InteractionRecord()\l+ InteractionRecord()\l+ InteractionRecord()\l+ InteractionRecord()\l+ clear()\l+ isDummy()\l+ setFromNS()\l+ bc2ns()\l+ operator==()\l+ operator!=()\l+ differenceInBC()\l+ differenceInBCNS()\l+ differenceInBCMS()\l+ toLong()\l+ setFromLong()\l+ operator\&gt;()\l+ operator\&gt;=()\l+ operator\&lt;()\l+ operator\&lt;=()\l+ operator&#45;&#45;()\l+ operator&#45;&#45;()\l+ operator++()\l+ operator++()\l+ operator+=()\l+ operator&#45;=()\l+ operator+=()\l+ operator&#45;=()\l+ operator+()\l+ operator&#45;()\l+ operator+()\l+ operator&#45;()\l+ print()\l+ asString()\l+ ClassDefNV()\l+ bc2ns()\l+ ns2bc()\l}">
<polygon fill="none" stroke="#000000" points="453.5,-705.5 453.5,-1147.5 574.5,-1147.5 574.5,-705.5 453.5,-705.5"/>
<text text-anchor="middle" x="514" y="-1135.5" font-family="Helvetica,sans-Serif" font-size="10.00" fill="#000000">o2::InteractionRecord</text>
<polyline fill="none" stroke="#000000" points="453.5,-1128.5 574.5,-1128.5 "/>
<text text-anchor="middle" x="514" y="-1116.5" font-family="Helvetica,sans-Serif" font-size="10.00" fill="#000000"> </text>
<polyline fill="none" stroke="#000000" points="453.5,-1109.5 574.5,-1109.5 "/>
<text text-anchor="start" x="461.5" y="-1097.5" font-family="Helvetica,sans-Serif" font-size="10.00" fill="#000000">+ InteractionRecord()</text>
<text text-anchor="start" x="461.5" y="-1086.5" font-family="Helvetica,sans-Serif" font-size="10.00" fill="#000000">+ InteractionRecord()</text>
<text text-anchor="start" x="461.5" y="-1075.5" font-family="Helvetica,sans-Serif" font-size="10.00" fill="#000000">+ InteractionRecord()</text>
<text text-anchor="start" x="461.5" y="-1064.5" font-family="Helvetica,sans-Serif" font-size="10.00" fill="#000000">+ InteractionRecord()</text>
<text text-anchor="start" x="461.5" y="-1053.5" font-family="Helvetica,sans-Serif" font-size="10.00" fill="#000000">+ clear()</text>
<text text-anchor="start" x="461.5" y="-1042.5" font-family="Helvetica,sans-Serif" font-size="10.00" fill="#000000">+ isDummy()</text>
<text text-anchor="start" x="461.5" y="-1031.5" font-family="Helvetica,sans-Serif" font-size="10.00" fill="#000000">+ setFromNS()</text>
<text text-anchor="start" x="461.5" y="-1020.5" font-family="Helvetica,sans-Serif" font-size="10.00" fill="#000000">+ bc2ns()</text>
<text text-anchor="start" x="461.5" y="-1009.5" font-family="Helvetica,sans-Serif" font-size="10.00" fill="#000000">+ operator==()</text>
<text text-anchor="start" x="461.5" y="-998.5" font-family="Helvetica,sans-Serif" font-size="10.00" fill="#000000">+ operator!=()</text>
<text text-anchor="start" x="461.5" y="-987.5" font-family="Helvetica,sans-Serif" font-size="10.00" fill="#000000">+ differenceInBC()</text>
<text text-anchor="start" x="461.5" y="-976.5" font-family="Helvetica,sans-Serif" font-size="10.00" fill="#000000">+ differenceInBCNS()</text>
<text text-anchor="start" x="461.5" y="-965.5" font-family="Helvetica,sans-Serif" font-size="10.00" fill="#000000">+ differenceInBCMS()</text>
<text text-anchor="start" x="461.5" y="-954.5" font-family="Helvetica,sans-Serif" font-size="10.00" fill="#000000">+ toLong()</text>
<text text-anchor="start" x="461.5" y="-943.5" font-family="Helvetica,sans-Serif" font-size="10.00" fill="#000000">+ setFromLong()</text>
<text text-anchor="start" x="461.5" y="-932.5" font-family="Helvetica,sans-Serif" font-size="10.00" fill="#000000">+ operator&gt;()</text>
<text text-anchor="start" x="461.5" y="-921.5" font-family="Helvetica,sans-Serif" font-size="10.00" fill="#000000">+ operator&gt;=()</text>
<text text-anchor="start" x="461.5" y="-910.5" font-family="Helvetica,sans-Serif" font-size="10.00" fill="#000000">+ operator&lt;()</text>
<text text-anchor="start" x="461.5" y="-899.5" font-family="Helvetica,sans-Serif" font-size="10.00" fill="#000000">+ operator&lt;=()</text>
<text text-anchor="start" x="461.5" y="-888.5" font-family="Helvetica,sans-Serif" font-size="10.00" fill="#000000">+ operator&#45;&#45;()</text>
<text text-anchor="start" x="461.5" y="-877.5" font-family="Helvetica,sans-Serif" font-size="10.00" fill="#000000">+ operator&#45;&#45;()</text>
<text text-anchor="start" x="461.5" y="-866.5" font-family="Helvetica,sans-Serif" font-size="10.00" fill="#000000">+ operator++()</text>
<text text-anchor="start" x="461.5" y="-855.5" font-family="Helvetica,sans-Serif" font-size="10.00" fill="#000000">+ operator++()</text>
<text text-anchor="start" x="461.5" y="-844.5" font-family="Helvetica,sans-Serif" font-size="10.00" fill="#000000">+ operator+=()</text>
<text text-anchor="start" x="461.5" y="-833.5" font-family="Helvetica,sans-Serif" font-size="10.00" fill="#000000">+ operator&#45;=()</text>
<text text-anchor="start" x="461.5" y="-822.5" font-family="Helvetica,sans-Serif" font-size="10.00" fill="#000000">+ operator+=()</text>
<text text-anchor="start" x="461.5" y="-811.5" font-family="Helvetica,sans-Serif" font-size="10.00" fill="#000000">+ operator&#45;=()</text>
<text text-anchor="start" x="461.5" y="-800.5" font-family="Helvetica,sans-Serif" font-size="10.00" fill="#000000">+ operator+()</text>
<text text-anchor="start" x="461.5" y="-789.5" font-family="Helvetica,sans-Serif" font-size="10.00" fill="#000000">+ operator&#45;()</text>
<text text-anchor="start" x="461.5" y="-778.5" font-family="Helvetica,sans-Serif" font-size="10.00" fill="#000000">+ operator+()</text>
<text text-anchor="start" x="461.5" y="-767.5" font-family="Helvetica,sans-Serif" font-size="10.00" fill="#000000">+ operator&#45;()</text>
<text text-anchor="start" x="461.5" y="-756.5" font-family="Helvetica,sans-Serif" font-size="10.00" fill="#000000">+ print()</text>
<text text-anchor="start" x="461.5" y="-745.5" font-family="Helvetica,sans-Serif" font-size="10.00" fill="#000000">+ asString()</text>
<text text-anchor="start" x="461.5" y="-734.5" font-family="Helvetica,sans-Serif" font-size="10.00" fill="#000000">+ ClassDefNV()</text>
<text text-anchor="start" x="461.5" y="-723.5" font-family="Helvetica,sans-Serif" font-size="10.00" fill="#000000">+ bc2ns()</text>
<text text-anchor="start" x="461.5" y="-712.5" font-family="Helvetica,sans-Serif" font-size="10.00" fill="#000000">+ ns2bc()</text>
</a>
</g>
</g>
<!-- Node6&#45;&gt;Node3 -->
<g id="edge3" class="edge">
<title>Node6&#45;&gt;Node3</title>
<path fill="none" stroke="#404040" d="M494.9743,-705.1719C489.4086,-588.8084 491.6847,-460.6375 523,-413 615.1978,-272.7465 812.9929,-214.9957 936.3146,-191.9704"/>
<polygon fill="none" stroke="#404040" points="936.5722,-191.9238 941.7628,-186.918 948.3799,-189.7839 943.1894,-194.7898 936.5722,-191.9238"/>
<text text-anchor="middle" x="549" y="-522" font-family="Helvetica,sans-Serif" font-size="10.00" fill="#000000"> #mFirstIR</text>
</g>
<!-- Node21 -->
<g id="node19" class="node">
<title>Node21</title>
<g id="a_node19"><a xlink:href="../../d8/d98/structo2_1_1InteractionTimeRecord.html" target="_top" xlink:title="{o2::InteractionTimeRecord\n||+ InteractionTimeRecord()\l+ InteractionTimeRecord()\l+ InteractionTimeRecord()\l+ setFromNS()\l+ clear()\l+ getTimeOffsetWrtBC()\l+ getTimeNS()\l+ operator==()\l+ operator!=()\l+ operator\&gt;()\l+ operator\&gt;=()\l+ operator\&lt;()\l+ operator\&lt;=()\l+ print()\l+ asString()\l+ ClassDefNV()\l}">
<polygon fill="none" stroke="#000000" points="332,-413.5 332,-635.5 478,-635.5 478,-413.5 332,-413.5"/>
<text text-anchor="middle" x="405" y="-623.5" font-family="Helvetica,sans-Serif" font-size="10.00" fill="#000000">o2::InteractionTimeRecord</text>
<polyline fill="none" stroke="#000000" points="332,-616.5 478,-616.5 "/>
<text text-anchor="middle" x="405" y="-604.5" font-family="Helvetica,sans-Serif" font-size="10.00" fill="#000000"> </text>
<polyline fill="none" stroke="#000000" points="332,-597.5 478,-597.5 "/>
<text text-anchor="start" x="340" y="-585.5" font-family="Helvetica,sans-Serif" font-size="10.00" fill="#000000">+ InteractionTimeRecord()</text>
<text text-anchor="start" x="340" y="-574.5" font-family="Helvetica,sans-Serif" font-size="10.00" fill="#000000">+ InteractionTimeRecord()</text>
<text text-anchor="start" x="340" y="-563.5" font-family="Helvetica,sans-Serif" font-size="10.00" fill="#000000">+ InteractionTimeRecord()</text>
<text text-anchor="start" x="340" y="-552.5" font-family="Helvetica,sans-Serif" font-size="10.00" fill="#000000">+ setFromNS()</text>
<text text-anchor="start" x="340" y="-541.5" font-family="Helvetica,sans-Serif" font-size="10.00" fill="#000000">+ clear()</text>
<text text-anchor="start" x="340" y="-530.5" font-family="Helvetica,sans-Serif" font-size="10.00" fill="#000000">+ getTimeOffsetWrtBC()</text>
<text text-anchor="start" x="340" y="-519.5" font-family="Helvetica,sans-Serif" font-size="10.00" fill="#000000">+ getTimeNS()</text>
<text text-anchor="start" x="340" y="-508.5" font-family="Helvetica,sans-Serif" font-size="10.00" fill="#000000">+ operator==()</text>
<text text-anchor="start" x="340" y="-497.5" font-family="Helvetica,sans-Serif" font-size="10.00" fill="#000000">+ operator!=()</text>
<text text-anchor="start" x="340" y="-486.5" font-family="Helvetica,sans-Serif" font-size="10.00" fill="#000000">+ operator&gt;()</text>
<text text-anchor="start" x="340" y="-475.5" font-family="Helvetica,sans-Serif" font-size="10.00" fill="#000000">+ operator&gt;=()</text>
<text text-anchor="start" x="340" y="-464.5" font-family="Helvetica,sans-Serif" font-size="10.00" fill="#000000">+ operator&lt;()</text>
<text text-anchor="start" x="340" y="-453.5" font-family="Helvetica,sans-Serif" font-size="10.00" fill="#000000">+ operator&lt;=()</text>
<text text-anchor="start" x="340" y="-442.5" font-family="Helvetica,sans-Serif" font-size="10.00" fill="#000000">+ print()</text>
<text text-anchor="start" x="340" y="-431.5" font-family="Helvetica,sans-Serif" font-size="10.00" fill="#000000">+ asString()</text>
<text text-anchor="start" x="340" y="-420.5" font-family="Helvetica,sans-Serif" font-size="10.00" fill="#000000">+ ClassDefNV()</text>
</a>
</g>
</g>
<!-- Node6&#45;&gt;Node21 -->
<g id="edge20" class="edge">
<title>Node6&#45;&gt;Node21</title>
<path fill="none" stroke="#191970" d="M451.3316,-695.3742C445.7322,-674.7234 440.2505,-654.5066 435.1303,-635.6227"/>
<polygon fill="none" stroke="#191970" points="448.0047,-696.4793 453.9998,-705.2148 454.7608,-694.6474 448.0047,-696.4793"/>
</g>
<!-- Node7 -->
<g id="node5" class="node">
<title>Node7</title>
<polygon fill="none" stroke="#bfbfbf" points="365,-1206.5 365,-1263.5 415,-1263.5 415,-1206.5 365,-1206.5"/>
<text text-anchor="middle" x="390" y="-1251.5" font-family="Helvetica,sans-Serif" font-size="10.00" fill="#000000">double</text>
<polyline fill="none" stroke="#bfbfbf" points="365,-1244.5 415,-1244.5 "/>
<text text-anchor="middle" x="390" y="-1232.5" font-family="Helvetica,sans-Serif" font-size="10.00" fill="#000000"> </text>
<polyline fill="none" stroke="#bfbfbf" points="365,-1225.5 415,-1225.5 "/>
<text text-anchor="middle" x="390" y="-1213.5" font-family="Helvetica,sans-Serif" font-size="10.00" fill="#000000"> </text>
</g>
<!-- Node7&#45;&gt;Node6 -->
<g id="edge4" class="edge">
<title>Node7&#45;&gt;Node6</title>
<path fill="none" stroke="#404040" d="M406.2739,-1206.2523C420.2664,-1181.5122 438.3113,-1149.5435 439,-1148 442.3734,-1140.44 445.6853,-1132.6791 448.924,-1124.7972"/>
<polygon fill="none" stroke="#404040" points="448.9597,-1124.7087 447.4973,-1117.6475 453.4529,-1113.5817 454.9153,-1120.6429 448.9597,-1124.7087"/>
<text text-anchor="middle" x="466" y="-1174.5" font-family="Helvetica,sans-Serif" font-size="10.00" fill="#000000"> +DummyTime</text>
</g>
<!-- Node7&#45;&gt;Node21 -->
<g id="edge21" class="edge">
<title>Node7&#45;&gt;Node21</title>
<path fill="none" stroke="#404040" d="M383.7546,-1206.1604C380.4228,-1189.2971 376.6728,-1167.5471 375,-1148 358.2125,-951.8281 358.8046,-901.2217 375,-705 376.5291,-686.4733 378.9268,-666.9848 381.716,-647.9423"/>
<polygon fill="none" stroke="#404040" points="381.7529,-647.6981 378.6962,-641.1668 383.5494,-635.8333 386.6061,-642.3645 381.7529,-647.6981"/>
<text text-anchor="middle" x="410" y="-924" font-family="Helvetica,sans-Serif" font-size="10.00" fill="#000000"> +timeInBCNS</text>
</g>
<!-- Node8 -->
<g id="node6" class="node">
<title>Node8</title>
<polygon fill="none" stroke="#bfbfbf" points="481,-1206.5 481,-1263.5 537,-1263.5 537,-1206.5 481,-1206.5"/>
<text text-anchor="middle" x="509" y="-1251.5" font-family="Helvetica,sans-Serif" font-size="10.00" fill="#000000">uint16_t</text>
<polyline fill="none" stroke="#bfbfbf" points="481,-1244.5 537,-1244.5 "/>
<text text-anchor="middle" x="509" y="-1232.5" font-family="Helvetica,sans-Serif" font-size="10.00" fill="#000000"> </text>
<polyline fill="none" stroke="#bfbfbf" points="481,-1225.5 537,-1225.5 "/>
<text text-anchor="middle" x="509" y="-1213.5" font-family="Helvetica,sans-Serif" font-size="10.00" fill="#000000"> </text>
</g>
<!-- Node8&#45;&gt;Node6 -->
<g id="edge5" class="edge">
<title>Node8&#45;&gt;Node6</title>
<path fill="none" stroke="#404040" d="M509.3994,-1206.4647C509.5771,-1194.0349 509.7926,-1179.2967 510,-1166 510.0323,-1163.9275 510.0649,-1161.8448 510.0977,-1159.7533"/>
<polygon fill="none" stroke="#404040" points="510.0987,-1159.6839 506.1939,-1153.6215 510.2881,-1147.6854 514.1929,-1153.7477 510.0987,-1159.6839"/>
<text text-anchor="middle" x="542" y="-1180" font-family="Helvetica,sans-Serif" font-size="10.00" fill="#000000"> +DummyBC</text>
<text text-anchor="middle" x="542" y="-1169" font-family="Helvetica,sans-Serif" font-size="10.00" fill="#000000">+bc</text>
</g>
<!-- Node9 -->
<g id="node7" class="node">
<title>Node9</title>
<g id="a_node7"><a xlink:href="../../d3/d87/classuint32__t.html" target="_top" xlink:title="{uint32_t\n||}">
<polygon fill="none" stroke="#000000" points="568,-1206.5 568,-1263.5 624,-1263.5 624,-1206.5 568,-1206.5"/>
<text text-anchor="middle" x="596" y="-1251.5" font-family="Helvetica,sans-Serif" font-size="10.00" fill="#000000">uint32_t</text>
<polyline fill="none" stroke="#000000" points="568,-1244.5 624,-1244.5 "/>
<text text-anchor="middle" x="596" y="-1232.5" font-family="Helvetica,sans-Serif" font-size="10.00" fill="#000000"> </text>
<polyline fill="none" stroke="#000000" points="568,-1225.5 624,-1225.5 "/>
<text text-anchor="middle" x="596" y="-1213.5" font-family="Helvetica,sans-Serif" font-size="10.00" fill="#000000"> </text>
</a>
</g>
</g>
<!-- Node9&#45;&gt;Node6 -->
<g id="edge6" class="edge">
<title>Node9&#45;&gt;Node6</title>
<path fill="none" stroke="#404040" d="M588.3593,-1206.2541C585.0004,-1193.6172 580.7254,-1177.5338 575.9281,-1159.4855"/>
<polygon fill="none" stroke="#404040" points="575.8739,-1159.2815 570.4668,-1154.5104 572.7912,-1147.6841 578.1984,-1152.4553 575.8739,-1159.2815"/>
<text text-anchor="middle" x="618" y="-1180" font-family="Helvetica,sans-Serif" font-size="10.00" fill="#000000"> +orbit</text>
<text text-anchor="middle" x="618" y="-1169" font-family="Helvetica,sans-Serif" font-size="10.00" fill="#000000">+DummyOrbit</text>
</g>
<!-- Node10 -->
<g id="node8" class="node">
<title>Node10</title>
<g id="a_node8"><a xlink:href="../../d6/d30/classuint64__t.html" target="_top" xlink:title="{uint64_t\n||}">
<polygon fill="none" stroke="#000000" points="584,-496 584,-553 640,-553 640,-496 584,-496"/>
<text text-anchor="middle" x="612" y="-541" font-family="Helvetica,sans-Serif" font-size="10.00" fill="#000000">uint64_t</text>
<polyline fill="none" stroke="#000000" points="584,-534 640,-534 "/>
<text text-anchor="middle" x="612" y="-522" font-family="Helvetica,sans-Serif" font-size="10.00" fill="#000000"> </text>
<polyline fill="none" stroke="#000000" points="584,-515 640,-515 "/>
<text text-anchor="middle" x="612" y="-503" font-family="Helvetica,sans-Serif" font-size="10.00" fill="#000000"> </text>
</a>
</g>
</g>
<!-- Node10&#45;&gt;Node3 -->
<g id="edge7" class="edge">
<title>Node10&#45;&gt;Node3</title>
<path fill="none" stroke="#404040" d="M616.6633,-495.8088C621.6228,-471.9333 631.2802,-437.9392 649,-413 719.4902,-313.7909 846.094,-249.1399 936.7756,-213.1217"/>
<polygon fill="none" stroke="#404040" points="937.0289,-213.0228 941.1625,-207.114 948.2066,-208.6569 944.0731,-214.5657 937.0289,-213.0228"/>
<text text-anchor="middle" x="748" y="-381.5" font-family="Helvetica,sans-Serif" font-size="10.00" fill="#000000"> #mReadoutWindowCurrent</text>
</g>
<!-- Node11 -->
<g id="node9" class="node">
<title>Node11</title>
<polygon fill="none" stroke="#bfbfbf" points="658,-490.5 658,-558.5 816,-558.5 816,-490.5 658,-490.5"/>
<text text-anchor="start" x="666" y="-546.5" font-family="Helvetica,sans-Serif" font-size="10.00" fill="#000000">vector&lt; o2::tof::WindowFiller</text>
<text text-anchor="middle" x="737" y="-535.5" font-family="Helvetica,sans-Serif" font-size="10.00" fill="#000000">::PatternData &gt;</text>
<polyline fill="none" stroke="#bfbfbf" points="658,-528.5 816,-528.5 "/>
<text text-anchor="middle" x="737" y="-516.5" font-family="Helvetica,sans-Serif" font-size="10.00" fill="#000000"> </text>
<polyline fill="none" stroke="#bfbfbf" points="658,-509.5 816,-509.5 "/>
<text text-anchor="middle" x="737" y="-497.5" font-family="Helvetica,sans-Serif" font-size="10.00" fill="#000000"> </text>
</g>
<!-- Node11&#45;&gt;Node3 -->
<g id="edge8" class="edge">
<title>Node11&#45;&gt;Node3</title>
<path fill="none" stroke="#404040" d="M763.0121,-490.3771C780.2424,-468.0676 803.5409,-438.4523 825,-413 861.3086,-369.9349 902.9404,-324.1538 940.0276,-284.519"/>
<polygon fill="none" stroke="#404040" points="940.1505,-284.3879 941.3379,-277.2752 948.3601,-275.6355 947.1728,-282.7482 940.1505,-284.3879"/>
<text text-anchor="middle" x="903" y="-381.5" font-family="Helvetica,sans-Serif" font-size="10.00" fill="#000000"> #mCratePatterns</text>
</g>
<!-- Node12 -->
<g id="node10" class="node">
<title>Node12</title>
<polygon fill="none" stroke="#bfbfbf" points="834,-496 834,-553 964,-553 964,-496 834,-496"/>
<text text-anchor="middle" x="899" y="-541" font-family="Helvetica,sans-Serif" font-size="10.00" fill="#000000">vector&lt; o2::tof::Strip &gt;</text>
<polyline fill="none" stroke="#bfbfbf" points="834,-534 964,-534 "/>
<text text-anchor="middle" x="899" y="-522" font-family="Helvetica,sans-Serif" font-size="10.00" fill="#000000"> </text>
<polyline fill="none" stroke="#bfbfbf" points="834,-515 964,-515 "/>
<text text-anchor="middle" x="899" y="-503" font-family="Helvetica,sans-Serif" font-size="10.00" fill="#000000"> </text>
</g>
<!-- Node12&#45;&gt;Node3 -->
<g id="edge9" class="edge">
<title>Node12&#45;&gt;Node3</title>
<path fill="none" stroke="#404040" d="M910.9066,-495.8083C923.2424,-466.0825 943.6442,-416.9198 964.7669,-366.02"/>
<polygon fill="none" stroke="#404040" points="964.8257,-365.8781 963.431,-358.8032 969.4253,-354.7946 970.82,-361.8696 964.8257,-365.8781"/>
<text text-anchor="middle" x="982.5" y="-381.5" font-family="Helvetica,sans-Serif" font-size="10.00" fill="#000000"> #mStrips</text>
</g>
<!-- Node13 -->
<g id="node11" class="node">
<title>Node13</title>
<g id="a_node11"><a xlink:href="../../d1/db7/structo2_1_1tof_1_1DigitHeader.html" target="_top" xlink:title="{o2::tof::DigitHeader\n||+ clear()\l+ DigitHeader()\l+ addRow()\l+ getNRow()\l+ crateSeen()\l+ numCratesSeen()\l+ getCrateCounts()\l+ numCratesCounts()\l+ ClassDefNV()\l}">
<polygon fill="none" stroke="#000000" points="982,-452 982,-597 1104,-597 1104,-452 982,-452"/>
<text text-anchor="middle" x="1043" y="-585" font-family="Helvetica,sans-Serif" font-size="10.00" fill="#000000">o2::tof::DigitHeader</text>
<polyline fill="none" stroke="#000000" points="982,-578 1104,-578 "/>
<text text-anchor="middle" x="1043" y="-566" font-family="Helvetica,sans-Serif" font-size="10.00" fill="#000000"> </text>
<polyline fill="none" stroke="#000000" points="982,-559 1104,-559 "/>
<text text-anchor="start" x="990" y="-547" font-family="Helvetica,sans-Serif" font-size="10.00" fill="#000000">+ clear()</text>
<text text-anchor="start" x="990" y="-536" font-family="Helvetica,sans-Serif" font-size="10.00" fill="#000000">+ DigitHeader()</text>
<text text-anchor="start" x="990" y="-525" font-family="Helvetica,sans-Serif" font-size="10.00" fill="#000000">+ addRow()</text>
<text text-anchor="start" x="990" y="-514" font-family="Helvetica,sans-Serif" font-size="10.00" fill="#000000">+ getNRow()</text>
<text text-anchor="start" x="990" y="-503" font-family="Helvetica,sans-Serif" font-size="10.00" fill="#000000">+ crateSeen()</text>
<text text-anchor="start" x="990" y="-492" font-family="Helvetica,sans-Serif" font-size="10.00" fill="#000000">+ numCratesSeen()</text>
<text text-anchor="start" x="990" y="-481" font-family="Helvetica,sans-Serif" font-size="10.00" fill="#000000">+ getCrateCounts()</text>
<text text-anchor="start" x="990" y="-470" font-family="Helvetica,sans-Serif" font-size="10.00" fill="#000000">+ numCratesCounts()</text>
<text text-anchor="start" x="990" y="-459" font-family="Helvetica,sans-Serif" font-size="10.00" fill="#000000">+ ClassDefNV()</text>
</a>
</g>
</g>
<!-- Node13&#45;&gt;Node3 -->
<g id="edge10" class="edge">
<title>Node13&#45;&gt;Node3</title>
<path fill="none" stroke="#404040" d="M1043,-451.7574C1043,-426.4934 1043,-396.8676 1043,-366.6033"/>
<polygon fill="none" stroke="#404040" points="1043.0001,-366.5261 1039,-360.5262 1043,-354.5261 1047,-360.5261 1043.0001,-366.5261"/>
<text text-anchor="middle" x="1083" y="-381.5" font-family="Helvetica,sans-Serif" font-size="10.00" fill="#000000"> #mDigitHeader</text>
</g>
<!-- Node14 -->
<g id="node12" class="node">
<title>Node14</title>
<polygon fill="none" stroke="#bfbfbf" points="1066.5,-898 1066.5,-955 1095.5,-955 1095.5,-898 1066.5,-898"/>
<text text-anchor="middle" x="1081" y="-943" font-family="Helvetica,sans-Serif" font-size="10.00" fill="#000000">int</text>
<polyline fill="none" stroke="#bfbfbf" points="1066.5,-936 1095.5,-936 "/>
<text text-anchor="middle" x="1081" y="-924" font-family="Helvetica,sans-Serif" font-size="10.00" fill="#000000"> </text>
<polyline fill="none" stroke="#bfbfbf" points="1066.5,-917 1095.5,-917 "/>
<text text-anchor="middle" x="1081" y="-905" font-family="Helvetica,sans-Serif" font-size="10.00" fill="#000000"> </text>
</g>
<!-- Node14&#45;&gt;Node3 -->
<g id="edge14" class="edge">
<title>Node14&#45;&gt;Node3</title>
<path fill="none" stroke="#404040" d="M1088.9011,-897.9393C1110.4941,-815.5879 1166.275,-570.9245 1126,-373 1125.5574,-370.825 1125.0897,-368.6442 1124.5984,-366.459"/>
<polygon fill="none" stroke="#404040" points="1124.5846,-366.4016 1119.282,-361.5146 1121.7535,-354.7403 1127.0562,-359.6272 1124.5846,-366.4016"/>
<text text-anchor="middle" x="1207.5" y="-533" font-family="Helvetica,sans-Serif" font-size="10.00" fill="#000000"> #mMaskNoiseRate</text>
<text text-anchor="middle" x="1207.5" y="-522" font-family="Helvetica,sans-Serif" font-size="10.00" fill="#000000">#mIcurrentReadoutWindow</text>
<text text-anchor="middle" x="1207.5" y="-511" font-family="Helvetica,sans-Serif" font-size="10.00" fill="#000000">#mChannelCounts</text>
</g>
<!-- Node14&#45;&gt;Node13 -->
<g id="edge11" class="edge">
<title>Node14&#45;&gt;Node13</title>
<path fill="none" stroke="#404040" d="M1069.2733,-897.8326C1050.3988,-848.5721 1016.0585,-744.4254 1023,-654 1024.1087,-639.5577 1025.9031,-624.2885 1027.9735,-609.4972"/>
<polygon fill="none" stroke="#404040" points="1028.0333,-609.0875 1024.943,-602.5721 1029.7686,-597.2136 1032.8589,-603.729 1028.0333,-609.0875"/>
<text text-anchor="middle" x="1074.5" y="-679" font-family="Helvetica,sans-Serif" font-size="10.00" fill="#000000"> +mNumberOfCrates</text>
<text text-anchor="middle" x="1074.5" y="-668" font-family="Helvetica,sans-Serif" font-size="10.00" fill="#000000">+mCountsCrate</text>
<text text-anchor="middle" x="1074.5" y="-657" font-family="Helvetica,sans-Serif" font-size="10.00" fill="#000000">+mCountsRow</text>
</g>
<!-- Node15 -->
<g id="node13" class="node">
<title>Node15</title>
<polygon fill="none" stroke="#bfbfbf" points="1293,-490.5 1293,-558.5 1429,-558.5 1429,-490.5 1293,-490.5"/>
<text text-anchor="start" x="1301" y="-546.5" font-family="Helvetica,sans-Serif" font-size="10.00" fill="#000000">vector&lt; o2::tof::Readout</text>
<text text-anchor="middle" x="1361" y="-535.5" font-family="Helvetica,sans-Serif" font-size="10.00" fill="#000000">WindowData &gt;</text>
<polyline fill="none" stroke="#bfbfbf" points="1293,-528.5 1429,-528.5 "/>
<text text-anchor="middle" x="1361" y="-516.5" font-family="Helvetica,sans-Serif" font-size="10.00" fill="#000000"> </text>
<polyline fill="none" stroke="#bfbfbf" points="1293,-509.5 1429,-509.5 "/>
<text text-anchor="middle" x="1361" y="-497.5" font-family="Helvetica,sans-Serif" font-size="10.00" fill="#000000"> </text>
</g>
<!-- Node15&#45;&gt;Node3 -->
<g id="edge12" class="edge">
<title>Node15&#45;&gt;Node3</title>
<path fill="none" stroke="#404040" d="M1337.8848,-490.302C1322.1192,-467.6964 1300.3084,-437.7766 1279,-413 1237.8646,-365.1693 1188.9782,-315.3793 1146.3971,-273.9682"/>
<polygon fill="none" stroke="#404040" points="1146.3087,-273.8826 1139.2162,-272.5799 1137.6908,-265.532 1144.7833,-266.8346 1146.3087,-273.8826"/>
<text text-anchor="middle" x="1341" y="-387" font-family="Helvetica,sans-Serif" font-size="10.00" fill="#000000"> #mReadoutWindowDataFiltered</text>
<text text-anchor="middle" x="1341" y="-376" font-family="Helvetica,sans-Serif" font-size="10.00" fill="#000000">#mReadoutWindowData</text>
</g>
<!-- Node16 -->
<g id="node14" class="node">
<title>Node16</title>
<polygon fill="none" stroke="#bfbfbf" points="1447.5,-496 1447.5,-553 1578.5,-553 1578.5,-496 1447.5,-496"/>
<text text-anchor="middle" x="1513" y="-541" font-family="Helvetica,sans-Serif" font-size="10.00" fill="#000000">vector&lt; o2::tof::Digit &gt;</text>
<polyline fill="none" stroke="#bfbfbf" points="1447.5,-534 1578.5,-534 "/>
<text text-anchor="middle" x="1513" y="-522" font-family="Helvetica,sans-Serif" font-size="10.00" fill="#000000"> </text>
<polyline fill="none" stroke="#bfbfbf" points="1447.5,-515 1578.5,-515 "/>
<text text-anchor="middle" x="1513" y="-503" font-family="Helvetica,sans-Serif" font-size="10.00" fill="#000000"> </text>
</g>
<!-- Node16&#45;&gt;Node3 -->
<g id="edge13" class="edge">
<title>Node16&#45;&gt;Node3</title>
<path fill="none" stroke="#404040" d="M1502.221,-495.8613C1488.5489,-462.7413 1462.1925,-408.2647 1425,-373 1345.7428,-297.8508 1231.9837,-244.6583 1149.2322,-212.92"/>
<polygon fill="none" stroke="#404040" points="1148.9922,-212.8293 1141.9651,-214.448 1137.7682,-208.584 1144.7954,-206.9653 1148.9922,-212.8293"/>
<text text-anchor="middle" x="1503" y="-387" font-family="Helvetica,sans-Serif" font-size="10.00" fill="#000000"> #mFutureDigits</text>
<text text-anchor="middle" x="1503" y="-376" font-family="Helvetica,sans-Serif" font-size="10.00" fill="#000000">#mDigitsPerTimeFrame</text>
</g>
<!-- Node17 -->
<g id="node15" class="node">
<title>Node17</title>
<polygon fill="none" stroke="#bfbfbf" points="1597,-496 1597,-553 1707,-553 1707,-496 1597,-496"/>
<text text-anchor="middle" x="1652" y="-541" font-family="Helvetica,sans-Serif" font-size="10.00" fill="#000000">vector&lt; uint32_t &gt;</text>
<polyline fill="none" stroke="#bfbfbf" points="1597,-534 1707,-534 "/>
<text text-anchor="middle" x="1652" y="-522" font-family="Helvetica,sans-Serif" font-size="10.00" fill="#000000"> </text>
<polyline fill="none" stroke="#bfbfbf" points="1597,-515 1707,-515 "/>
<text text-anchor="middle" x="1652" y="-503" font-family="Helvetica,sans-Serif" font-size="10.00" fill="#000000"> </text>
</g>
<!-- Node17&#45;&gt;Node3 -->
<g id="edge15" class="edge">
<title>Node17&#45;&gt;Node3</title>
<path fill="none" stroke="#404040" d="M1642.6496,-495.9904C1630.209,-462.2237 1605.1215,-406.3624 1566,-373 1444.8989,-269.7264 1264.0022,-218.5062 1149.8264,-195.0504"/>
<polygon fill="none" stroke="#404040" points="1149.7252,-195.0302 1143.0541,-197.7682 1137.9609,-192.6634 1144.6319,-189.9254 1149.7252,-195.0302"/>
<text text-anchor="middle" x="1615.5" y="-381.5" font-family="Helvetica,sans-Serif" font-size="10.00" fill="#000000"> #mPatterns</text>
</g>
<!-- Node18 -->
<g id="node16" class="node">
<title>Node18</title>
<polygon fill="none" stroke="#bfbfbf" points="1725,-496 1725,-553 1763,-553 1763,-496 1725,-496"/>
<text text-anchor="middle" x="1744" y="-541" font-family="Helvetica,sans-Serif" font-size="10.00" fill="#000000">bool</text>
<polyline fill="none" stroke="#bfbfbf" points="1725,-534 1763,-534 "/>
<text text-anchor="middle" x="1744" y="-522" font-family="Helvetica,sans-Serif" font-size="10.00" fill="#000000"> </text>
<polyline fill="none" stroke="#bfbfbf" points="1725,-515 1763,-515 "/>
<text text-anchor="middle" x="1744" y="-503" font-family="Helvetica,sans-Serif" font-size="10.00" fill="#000000"> </text>
</g>
<!-- Node18&#45;&gt;Node3 -->
<g id="edge16" class="edge">
<title>Node18&#45;&gt;Node3</title>
<path fill="none" stroke="#404040" d="M1742.7671,-495.8509C1740.4259,-471.6814 1733.9008,-437.2453 1716,-413 1695.6268,-385.406 1681.2029,-387.2433 1650,-373 1480.9623,-295.8388 1272.6672,-235.8223 1149.246,-203.6357"/>
<polygon fill="none" stroke="#404040" points="1149.1869,-203.6205 1142.3749,-205.9863 1137.5711,-200.6082 1144.3831,-198.2424 1149.1869,-203.6205"/>
<text text-anchor="middle" x="1751" y="-387" font-family="Helvetica,sans-Serif" font-size="10.00" fill="#000000"> #mFutureToBeSorted</text>
<text text-anchor="middle" x="1751" y="-376" font-family="Helvetica,sans-Serif" font-size="10.00" fill="#000000">#mContinuous</text>
</g>
<!-- Node19 -->
<g id="node17" class="node">
<title>Node19</title>
<polygon fill="none" stroke="#bfbfbf" points="1843,-496 1843,-553 1887,-553 1887,-496 1843,-496"/>
<text text-anchor="middle" x="1865" y="-541" font-family="Helvetica,sans-Serif" font-size="10.00" fill="#000000">static</text>
<polyline fill="none" stroke="#bfbfbf" points="1843,-534 1887,-534 "/>
<text text-anchor="middle" x="1865" y="-522" font-family="Helvetica,sans-Serif" font-size="10.00" fill="#000000"> </text>
<polyline fill="none" stroke="#bfbfbf" points="1843,-515 1887,-515 "/>
<text text-anchor="middle" x="1865" y="-503" font-family="Helvetica,sans-Serif" font-size="10.00" fill="#000000"> </text>
</g>
<!-- Node19&#45;&gt;Node3 -->
<g id="edge17" class="edge">
<title>Node19&#45;&gt;Node3</title>
<path fill="none" stroke="#404040" d="M1862.1146,-495.7899C1857.1211,-461.5587 1843.6861,-404.9728 1808,-373 1710.9688,-286.0653 1336.2919,-220.4498 1149.758,-192.421"/>
<polygon fill="none" stroke="#404040" points="1149.617,-192.4 1143.0924,-195.4709 1137.7484,-190.6293 1144.2729,-187.5584 1149.617,-192.4"/>
<text text-anchor="middle" x="1867.5" y="-381.5" font-family="Helvetica,sans-Serif" font-size="10.00" fill="#000000"> #MAXWINDOWS</text>
</g>
<!-- Node20 -->
<g id="node18" class="node">
<title>Node20</title>
<polygon fill="none" stroke="#bfbfbf" points="1918,-496 1918,-553 2028,-553 2028,-496 1918,-496"/>
<text text-anchor="middle" x="1973" y="-541" font-family="Helvetica,sans-Serif" font-size="10.00" fill="#000000">vector&lt; uint64_t &gt;</text>
<polyline fill="none" stroke="#bfbfbf" points="1918,-534 2028,-534 "/>
<text text-anchor="middle" x="1973" y="-522" font-family="Helvetica,sans-Serif" font-size="10.00" fill="#000000"> </text>
<polyline fill="none" stroke="#bfbfbf" points="1918,-515 2028,-515 "/>
<text text-anchor="middle" x="1973" y="-503" font-family="Helvetica,sans-Serif" font-size="10.00" fill="#000000"> </text>
</g>
<!-- Node20&#45;&gt;Node3 -->
<g id="edge18" class="edge">
<title>Node20&#45;&gt;Node3</title>
<path fill="none" stroke="#404040" d="M1969.911,-495.8919C1964.6296,-461.492 1950.6002,-404.466 1914,-373 1799.7136,-274.7455 1356.3075,-212.9404 1149.8621,-188.9157"/>
<polygon fill="none" stroke="#404040" points="1149.7322,-188.9008 1143.3131,-192.1865 1137.8113,-187.5249 1144.2303,-184.2392 1149.7322,-188.9008"/>
<text text-anchor="middle" x="1956" y="-381.5" font-family="Helvetica,sans-Serif" font-size="10.00" fill="#000000"> #mErrors</text>
</g>
<!-- Node21&#45;&gt;Node3 -->
<g id="edge19" class="edge">
<title>Node21&#45;&gt;Node3</title>
<path fill="none" stroke="#404040" d="M405.6469,-413.1581C409.7847,-398.4955 416.2397,-384.5681 426,-373 492.1632,-294.5825 777.9025,-228.5596 936.2808,-197.152"/>
<polygon fill="none" stroke="#404040" points="936.6194,-197.0854 941.7341,-192.0021 948.3936,-194.7682 943.2789,-199.8515 936.6194,-197.0854"/>
<text text-anchor="middle" x="463" y="-381.5" font-family="Helvetica,sans-Serif" font-size="10.00" fill="#000000"> #mEventTime</text>
</g>
</g>
</svg>
        <g id="navigator" transform="translate(0 0)" fill="#404254">
                <rect fill="#f2f5e9" fill-opacity="0.5" stroke="#606060" stroke-width=".5" x="0" y="0" width="60" height="60"/>
                <use id="zoomplus" xlink:href="#zoomPlus" x="17" y="9" onmousedown="handleZoom(evt,'in')"/>
                <use id="zoomminus" xlink:href="#zoomMin" x="42" y="9" onmousedown="handleZoom(evt,'out')"/>
                <use id="reset" xlink:href="#resetDef" x="30" y="36" onmousedown="handleReset()"/>
                <g id="arrowUp" xlink:href="#dirArrow" transform="translate(30 24)" onmousedown="handlePan(0,-1)">
                  <use xlink:href="#rim" fill="#404040">
                        <set attributeName="fill" to="#808080" begin="arrowUp.mouseover" end="arrowUp.mouseout"/>
                  </use>
                  <path fill="none" stroke="white" stroke-width="1.5" d="M0,-3.0v7 M-2.5,-0.5L0,-3.0L2.5,-0.5"/>
                </g>
                <g id="arrowRight" xlink:href="#dirArrow" transform="rotate(90) translate(36 -43)" onmousedown="handlePan(1,0)">
                  <use xlink:href="#rim" fill="#404040">
                        <set attributeName="fill" to="#808080" begin="arrowRight.mouseover" end="arrowRight.mouseout"/>
                  </use>
                  <path fill="none" stroke="white" stroke-width="1.5" d="M0,-3.0v7 M-2.5,-0.5L0,-3.0L2.5,-0.5"/>
                </g>
                <g id="arrowDown" xlink:href="#dirArrow" transform="rotate(180) translate(-30 -48)" onmousedown="handlePan(0,1)">
                  <use xlink:href="#rim" fill="#404040">
                        <set attributeName="fill" to="#808080" begin="arrowDown.mouseover" end="arrowDown.mouseout"/>
                  </use>
                  <path fill="none" stroke="white" stroke-width="1.5" d="M0,-3.0v7 M-2.5,-0.5L0,-3.0L2.5,-0.5"/>
                </g>
                <g id="arrowLeft" xlink:href="#dirArrow" transform="rotate(270) translate(-36 17)" onmousedown="handlePan(-1,0)">
                  <use xlink:href="#rim" fill="#404040">
                        <set attributeName="fill" to="#808080" begin="arrowLeft.mouseover" end="arrowLeft.mouseout"/>
                  </use>
                  <path fill="none" stroke="white" stroke-width="1.5" d="M0,-3.0v7 M-2.5,-0.5L0,-3.0L2.5,-0.5"/>
                </g>
        </g>
        <svg viewBox="0 0 15 15" width="100%" height="30px" preserveAspectRatio="xMaxYMin meet">
         <g id="arrow_out" transform="scale(0.3 0.3)">
          <a xlink:href="classo2_1_1tof_1_1WindowFiller__coll__graph_org.svg" target="_base">
           <rect id="button" ry="5" rx="5" y="6" x="6" height="38" width="38"
                fill="#f2f5e9" fill-opacity="0.5" stroke="#606060" stroke-width="1.0"/>
           <path id="arrow"
             d="M 11.500037,31.436501 C 11.940474,20.09759 22.043105,11.32322 32.158766,21.979434 L 37.068811,17.246167 C 37.068811,17.246167 37.088388,32 37.088388,32 L 22.160133,31.978069 C 22.160133,31.978069 26.997745,27.140456 26.997745,27.140456 C 18.528582,18.264221 13.291696,25.230495 11.500037,31.436501 z"
             style="fill:#404040;"/>
          </a>
         </g>
        </svg>
</svg>
