<?xml version="1.0" encoding="UTF-8" standalone="no"?>
<!DOCTYPE svg PUBLIC "-//W3C//DTD SVG 1.1//EN"
 "http://www.w3.org/Graphics/SVG/1.1/DTD/svg11.dtd">
<!-- Generated by graphviz version 2.40.1 (20161225.0304)
 -->
<!-- Title: /home/travis/build/AliceO2Group/AliceO2/Framework/Core/include/Framework/InputSpec.h Pages: 1 -->
<!--zoomable 318 -->
<svg id="main" version="1.1" xmlns="http://www.w3.org/2000/svg" xmlns:xlink="http://www.w3.org/1999/xlink" xml:space="preserve" onload="init(evt)">
<style type="text/css"><![CDATA[
.edge:hover path { stroke: red; }
.edge:hover polygon { stroke: red; fill: red; }
]]></style>
<script type="text/javascript"><![CDATA[
var edges = document.getElementsByTagName('g');
if (edges && edges.length) {
  for (var i=0;i<edges.length;i++) {
    if (edges[i].id.substr(0,4)=='edge') {
      edges[i].setAttribute('class','edge');
    }
  }
}
]]></script>
        <defs>
                <circle id="rim" cx="0" cy="0" r="7"/>
                <circle id="rim2" cx="0" cy="0" r="3.5"/>
                <g id="zoomPlus">
                        <use xlink:href="#rim" fill="#404040">
                                <set attributeName="fill" to="#808080" begin="zoomplus.mouseover" end="zoomplus.mouseout"/>
                        </use>
                        <path d="M-4,0h8M0,-4v8" fill="none" stroke="white" stroke-width="1.5" pointer-events="none"/>
                </g>
                <g id="zoomMin">
                        <use xlink:href="#rim" fill="#404040">
                                <set attributeName="fill" to="#808080" begin="zoomminus.mouseover" end="zoomminus.mouseout"/>
                        </use>
                        <path d="M-4,0h8" fill="none" stroke="white" stroke-width="1.5" pointer-events="none"/>
                </g>
                <g id="dirArrow">
                        <path fill="none" stroke="white" stroke-width="1.5" d="M0,-3.0v7 M-2.5,-0.5L0,-3.0L2.5,-0.5"/>
                </g>
               <g id="resetDef">
                       <use xlink:href="#rim2" fill="#404040">
                               <set attributeName="fill" to="#808080" begin="reset.mouseover" end="reset.mouseout"/>
                       </use>
               </g>
        </defs>

<script type="text/javascript">
var viewWidth = 2882;
var viewHeight = 318;
var sectionId = 'dynsection-0';
</script>
<script xlink:href="../../svgpan.js"/>
<svg id="graph" class="graph">
<g id="viewport">
<title>/home/travis/build/AliceO2Group/AliceO2/Framework/Core/include/Framework/InputSpec.h</title>
<!-- Node0 -->
<g id="node1" class="node">
<title>Node0</title>
<polygon fill="#bfbfbf" stroke="#000000" points="2456.5,-257.5 2456.5,-309.5 2593.5,-309.5 2593.5,-257.5 2456.5,-257.5"/>
<text text-anchor="start" x="2464.5" y="-297.5" font-family="Helvetica,sans-Serif" font-size="10.00" fill="#000000">/home/travis/build</text>
<text text-anchor="start" x="2464.5" y="-286.5" font-family="Helvetica,sans-Serif" font-size="10.00" fill="#000000">/AliceO2Group/AliceO2</text>
<text text-anchor="start" x="2464.5" y="-275.5" font-family="Helvetica,sans-Serif" font-size="10.00" fill="#000000">/Framework/Core/include</text>
<text text-anchor="middle" x="2525" y="-264.5" font-family="Helvetica,sans-Serif" font-size="10.00" fill="#000000">/Framework/InputSpec.h</text>
</g>
<!-- Node1 -->
<g id="node2" class="node">
<title>Node1</title>
<g id="a_node2"><a xlink:href="../../dc/dca/Lifetime_8h.html" target="_top" xlink:title="Framework/Lifetime.h">
<polygon fill="none" stroke="#000000" points="1953.5,-196 1953.5,-215 2076.5,-215 2076.5,-196 1953.5,-196"/>
<text text-anchor="middle" x="2015" y="-203" font-family="Helvetica,sans-Serif" font-size="10.00" fill="#000000">Framework/Lifetime.h</text>
</a>
</g>
</g>
<!-- Node0&#45;&gt;Node1 -->
<g id="edge1" class="edge">
<title>Node0&#45;&gt;Node1</title>
<path fill="none" stroke="#191970" d="M2456.4021,-274.8749C2370.6896,-263.8098 2219.6248,-243.3584 2091,-221 2083.9767,-219.7792 2076.6083,-218.4004 2069.3377,-216.9813"/>
<polygon fill="#191970" stroke="#191970" points="2070.0159,-213.5477 2059.5256,-215.0322 2068.652,-220.4136 2070.0159,-213.5477"/>
</g>
<!-- Node2 -->
<g id="node3" class="node">
<title>Node2</title>
<g id="a_node3"><a xlink:href="../../d0/d1b/ConcreteDataMatcher_8h.html" target="_top" xlink:title="Framework/ConcreteDataMatcher.h">
<polygon fill="none" stroke="#000000" points="1156,-129 1156,-148 1344,-148 1344,-129 1156,-129"/>
<text text-anchor="middle" x="1250" y="-136" font-family="Helvetica,sans-Serif" font-size="10.00" fill="#000000">Framework/ConcreteDataMatcher.h</text>
</a>
</g>
</g>
<!-- Node0&#45;&gt;Node2 -->
<g id="edge2" class="edge">
<title>Node0&#45;&gt;Node2</title>
<path fill="none" stroke="#191970" d="M2456.1341,-277.0593C2357.7034,-267.1287 2182.2395,-246.5284 2124,-221 2103.7206,-212.1108 2105.7185,-197.8113 2085,-190 1933.6463,-132.9363 1519.0085,-169.5064 1358,-154 1345.5028,-152.7964 1332.2371,-151.177 1319.4386,-149.4378"/>
<polygon fill="#191970" stroke="#191970" points="1319.6861,-145.9385 1309.2983,-148.023 1318.7187,-152.8714 1319.6861,-145.9385"/>
</g>
<!-- Node10 -->
<g id="node11" class="node">
<title>Node10</title>
<polygon fill="none" stroke="#bfbfbf" points="2186,-6 2186,-25 2230,-25 2230,-6 2186,-6"/>
<text text-anchor="middle" x="2208" y="-13" font-family="Helvetica,sans-Serif" font-size="10.00" fill="#000000">string</text>
</g>
<!-- Node0&#45;&gt;Node10 -->
<g id="edge63" class="edge">
<title>Node0&#45;&gt;Node10</title>
<path fill="none" stroke="#191970" d="M2542.9038,-257.2509C2564.3342,-222.2773 2593.4034,-160.4656 2560,-123 2513.4067,-70.7406 2305.0612,-126.1264 2247,-87 2229.0129,-74.8788 2218.5788,-51.6115 2213.1044,-34.908"/>
<polygon fill="#191970" stroke="#191970" points="2216.3852,-33.6598 2210.1936,-25.0624 2209.6724,-35.6444 2216.3852,-33.6598"/>
</g>
<!-- Node14 -->
<g id="node15" class="node">
<title>Node14</title>
<g id="a_node15"><a xlink:href="../../d3/da3/DataDescriptorMatcher_8h.html" target="_top" xlink:title="Framework/DataDescriptor\lMatcher.h">
<polygon fill="none" stroke="#000000" points="2133.5,-190.5 2133.5,-220.5 2280.5,-220.5 2280.5,-190.5 2133.5,-190.5"/>
<text text-anchor="start" x="2141.5" y="-208.5" font-family="Helvetica,sans-Serif" font-size="10.00" fill="#000000">Framework/DataDescriptor</text>
<text text-anchor="middle" x="2207" y="-197.5" font-family="Helvetica,sans-Serif" font-size="10.00" fill="#000000">Matcher.h</text>
</a>
</g>
</g>
<!-- Node0&#45;&gt;Node14 -->
<g id="edge14" class="edge">
<title>Node0&#45;&gt;Node14</title>
<path fill="none" stroke="#191970" d="M2456.3902,-266.6712C2403.8164,-253.7757 2331.4993,-236.0376 2278.2736,-222.9822"/>
<polygon fill="#191970" stroke="#191970" points="2278.7768,-219.5019 2268.2309,-220.5189 2277.1092,-226.3004 2278.7768,-219.5019"/>
</g>
<!-- Node35 -->
<g id="node36" class="node">
<title>Node35</title>
<polygon fill="none" stroke="#bfbfbf" points="2499.5,-129 2499.5,-148 2550.5,-148 2550.5,-129 2499.5,-129"/>
<text text-anchor="middle" x="2525" y="-136" font-family="Helvetica,sans-Serif" font-size="10.00" fill="#000000">variant</text>
</g>
<!-- Node0&#45;&gt;Node35 -->
<g id="edge65" class="edge">
<title>Node0&#45;&gt;Node35</title>
<path fill="none" stroke="#191970" d="M2525,-257.2416C2525,-228.7911 2525,-184.0353 2525,-158.3675"/>
<polygon fill="#191970" stroke="#191970" points="2528.5001,-158.0445 2525,-148.0445 2521.5001,-158.0445 2528.5001,-158.0445"/>
</g>
<!-- Node37 -->
<g id="node38" class="node">
<title>Node37</title>
<g id="a_node38"><a xlink:href="../../d0/d1c/ConfigParamSpec_8h.html" target="_top" xlink:title="Framework/ConfigParamSpec.h">
<polygon fill="none" stroke="#000000" points="2606.5,-129 2606.5,-148 2773.5,-148 2773.5,-129 2606.5,-129"/>
<text text-anchor="middle" x="2690" y="-136" font-family="Helvetica,sans-Serif" font-size="10.00" fill="#000000">Framework/ConfigParamSpec.h</text>
</a>
</g>
</g>
<!-- Node0&#45;&gt;Node37 -->
<g id="edge50" class="edge">
<title>Node0&#45;&gt;Node37</title>
<path fill="none" stroke="#191970" d="M2554.8803,-257.2416C2588.8591,-227.3814 2643.2766,-179.56 2671.569,-154.6969"/>
<polygon fill="#191970" stroke="#191970" points="2673.9378,-157.2748 2679.139,-148.0445 2669.3169,-152.0166 2673.9378,-157.2748"/>
</g>
<!-- Node42 -->
<g id="node43" class="node">
<title>Node42</title>
<polygon fill="none" stroke="#bfbfbf" points="2645.5,-196 2645.5,-215 2702.5,-215 2702.5,-196 2645.5,-196"/>
<text text-anchor="middle" x="2674" y="-203" font-family="Helvetica,sans-Serif" font-size="10.00" fill="#000000">ostream</text>
</g>
<!-- Node0&#45;&gt;Node42 -->
<g id="edge64" class="edge">
<title>Node0&#45;&gt;Node42</title>
<path fill="none" stroke="#191970" d="M2575.0293,-257.3101C2598.9683,-244.7784 2626.6993,-230.2615 2646.7063,-219.788"/>
<polygon fill="#191970" stroke="#191970" points="2648.3487,-222.8788 2655.5849,-215.1401 2645.1022,-216.6772 2648.3487,-222.8788"/>
</g>
<!-- Node3 -->
<g id="node4" class="node">
<title>Node3</title>
<g id="a_node4"><a xlink:href="../../dc/dcd/DataHeader_8h.html" target="_top" xlink:title="Headers/DataHeader.h">
<polygon fill="none" stroke="#000000" points="455.5,-67.5 455.5,-86.5 582.5,-86.5 582.5,-67.5 455.5,-67.5"/>
<text text-anchor="middle" x="519" y="-74.5" font-family="Helvetica,sans-Serif" font-size="10.00" fill="#000000">Headers/DataHeader.h</text>
</a>
</g>
</g>
<!-- Node2&#45;&gt;Node3 -->
<g id="edge3" class="edge">
<title>Node2&#45;&gt;Node3</title>
<path fill="none" stroke="#191970" d="M1155.931,-130.5859C1008.6106,-118.1916 726.5084,-94.458 592.7957,-83.2085"/>
<polygon fill="#191970" stroke="#191970" points="592.9106,-79.7059 582.6524,-82.3552 592.3237,-86.6813 592.9106,-79.7059"/>
</g>
<!-- Node4 -->
<g id="node5" class="node">
<title>Node4</title>
<polygon fill="none" stroke="#bfbfbf" points="610,-6 610,-25 660,-25 660,-6 610,-6"/>
<text text-anchor="middle" x="635" y="-13" font-family="Helvetica,sans-Serif" font-size="10.00" fill="#000000">cstdint</text>
</g>
<!-- Node3&#45;&gt;Node4 -->
<g id="edge4" class="edge">
<title>Node3&#45;&gt;Node4</title>
<path fill="none" stroke="#191970" d="M537.125,-67.3906C556.1083,-57.3262 586.1373,-41.4057 607.9307,-29.8514"/>
<polygon fill="#191970" stroke="#191970" points="609.8066,-32.8184 617.0023,-25.0419 606.5277,-26.6338 609.8066,-32.8184"/>
</g>
<!-- Node5 -->
<g id="node6" class="node">
<title>Node5</title>
<polygon fill="none" stroke="#bfbfbf" points="70,-6 70,-25 128,-25 128,-6 70,-6"/>
<text text-anchor="middle" x="99" y="-13" font-family="Helvetica,sans-Serif" font-size="10.00" fill="#000000">memory</text>
</g>
<!-- Node3&#45;&gt;Node5 -->
<g id="edge5" class="edge">
<title>Node3&#45;&gt;Node5</title>
<path fill="none" stroke="#191970" d="M455.1556,-68.7639C450.366,-68.1617 445.607,-67.5681 441,-67 305.9676,-50.3491 268.7382,-65.001 137,-31 134.3741,-30.3223 131.689,-29.5034 129.0204,-28.6004"/>
<polygon fill="#191970" stroke="#191970" points="130.1555,-25.2882 119.5631,-25.0632 127.7032,-31.8446 130.1555,-25.2882"/>
</g>
<!-- Node6 -->
<g id="node7" class="node">
<title>Node6</title>
<polygon fill="none" stroke="#bfbfbf" points="0,-6 0,-25 52,-25 52,-6 0,-6"/>
<text text-anchor="middle" x="26" y="-13" font-family="Helvetica,sans-Serif" font-size="10.00" fill="#000000">cassert</text>
</g>
<!-- Node3&#45;&gt;Node6 -->
<g id="edge6" class="edge">
<title>Node3&#45;&gt;Node6</title>
<path fill="none" stroke="#191970" d="M455.1868,-71.1277C333.7484,-59.8779 79.7594,-35.9603 61,-31 58.8075,-30.4203 56.5777,-29.7197 54.3593,-28.9408"/>
<polygon fill="#191970" stroke="#191970" points="55.4447,-25.6057 44.8594,-25.1562 52.854,-32.1087 55.4447,-25.6057"/>
</g>
<!-- Node7 -->
<g id="node8" class="node">
<title>Node7</title>
<polygon fill="none" stroke="#bfbfbf" points="1309,-6 1309,-25 1359,-25 1359,-6 1309,-6"/>
<text text-anchor="middle" x="1334" y="-13" font-family="Helvetica,sans-Serif" font-size="10.00" fill="#000000">cstring</text>
</g>
<!-- Node3&#45;&gt;Node7 -->
<g id="edge7" class="edge">
<title>Node3&#45;&gt;Node7</title>
<path fill="none" stroke="#191970" d="M582.6657,-76.2565C743.8101,-73.8939 1164.6317,-64.5983 1300,-31 1302.1997,-30.454 1304.4323,-29.7684 1306.6478,-28.9914"/>
<polygon fill="#191970" stroke="#191970" points="1308.1512,-32.1584 1316.0964,-25.1496 1305.5146,-25.6739 1308.1512,-32.1584"/>
</g>
<!-- Node8 -->
<g id="node9" class="node">
<title>Node8</title>
<polygon fill="none" stroke="#bfbfbf" points="364,-6 364,-25 428,-25 428,-6 364,-6"/>
<text text-anchor="middle" x="396" y="-13" font-family="Helvetica,sans-Serif" font-size="10.00" fill="#000000">algorithm</text>
</g>
<!-- Node3&#45;&gt;Node8 -->
<g id="edge8" class="edge">
<title>Node3&#45;&gt;Node8</title>
<path fill="none" stroke="#191970" d="M499.7813,-67.3906C479.4719,-57.2359 447.2393,-41.1196 424.0832,-29.5416"/>
<polygon fill="#191970" stroke="#191970" points="425.5933,-26.3836 415.0838,-25.0419 422.4628,-32.6446 425.5933,-26.3836"/>
</g>
<!-- Node9 -->
<g id="node10" class="node">
<title>Node9</title>
<polygon fill="none" stroke="#bfbfbf" points="146.5,-6 146.5,-25 211.5,-25 211.5,-6 146.5,-6"/>
<text text-anchor="middle" x="179" y="-13" font-family="Helvetica,sans-Serif" font-size="10.00" fill="#000000">stdexcept</text>
</g>
<!-- Node3&#45;&gt;Node9 -->
<g id="edge9" class="edge">
<title>Node3&#45;&gt;Node9</title>
<path fill="none" stroke="#191970" d="M455.288,-68.69C381.3535,-58.7784 264.0761,-42.1529 221,-31 218.0115,-30.2262 214.9392,-29.3195 211.8813,-28.3396"/>
<polygon fill="#191970" stroke="#191970" points="212.8767,-24.9807 202.282,-25.0339 210.5974,-31.5992 212.8767,-24.9807"/>
</g>
<!-- Node3&#45;&gt;Node10 -->
<g id="edge10" class="edge">
<title>Node3&#45;&gt;Node10</title>
<path fill="none" stroke="#191970" d="M582.8603,-76.8148C868.2187,-75.7727 2019.4374,-69.2159 2176,-31 2177.979,-30.5169 2179.9795,-29.9009 2181.9631,-29.1941"/>
<polygon fill="#191970" stroke="#191970" points="2183.7369,-32.2427 2191.5623,-25.1003 2180.9909,-25.8038 2183.7369,-32.2427"/>
</g>
<!-- Node11 -->
<g id="node12" class="node">
<title>Node11</title>
<polygon fill="none" stroke="#bfbfbf" points="230,-6 230,-25 280,-25 280,-6 230,-6"/>
<text text-anchor="middle" x="255" y="-13" font-family="Helvetica,sans-Serif" font-size="10.00" fill="#000000">climits</text>
</g>
<!-- Node3&#45;&gt;Node11 -->
<g id="edge11" class="edge">
<title>Node3&#45;&gt;Node11</title>
<path fill="none" stroke="#191970" d="M455.0309,-68.2587C408.3146,-60.9034 343.8288,-48.7184 289,-31 287.1481,-30.4016 285.2634,-29.7305 283.3789,-29.0121"/>
<polygon fill="#191970" stroke="#191970" points="284.6883,-25.766 274.1119,-25.1421 281.9908,-32.2254 284.6883,-25.766"/>
</g>
<!-- Node12 -->
<g id="node13" class="node">
<title>Node12</title>
<g id="a_node13"><a xlink:href="../../d7/df8/Types_8h.html" target="_top" xlink:title="MemoryResources/Types.h">
<polygon fill="none" stroke="#000000" points="446,-6 446,-25 592,-25 592,-6 446,-6"/>
<text text-anchor="middle" x="519" y="-13" font-family="Helvetica,sans-Serif" font-size="10.00" fill="#000000">MemoryResources/Types.h</text>
</a>
</g>
</g>
<!-- Node3&#45;&gt;Node12 -->
<g id="edge12" class="edge">
<title>Node3&#45;&gt;Node12</title>
<path fill="none" stroke="#191970" d="M519,-67.3906C519,-58.8657 519,-46.1392 519,-35.4235"/>
<polygon fill="#191970" stroke="#191970" points="522.5001,-35.2448 519,-25.2449 515.5001,-35.2449 522.5001,-35.2448"/>
</g>
<!-- Node13 -->
<g id="node14" class="node">
<title>Node13</title>
<polygon fill="none" stroke="#bfbfbf" points="298.5,-6 298.5,-25 345.5,-25 345.5,-6 298.5,-6"/>
<text text-anchor="middle" x="322" y="-13" font-family="Helvetica,sans-Serif" font-size="10.00" fill="#000000">cerrno</text>
</g>
<!-- Node3&#45;&gt;Node13 -->
<g id="edge13" class="edge">
<title>Node3&#45;&gt;Node13</title>
<path fill="none" stroke="#191970" d="M477.9626,-67.4973C444.4212,-59.2545 396.0166,-46.2651 355,-31 353.4094,-30.408 351.7901,-29.7701 350.1653,-29.1022"/>
<polygon fill="#191970" stroke="#191970" points="351.5286,-25.8783 340.9652,-25.0624 348.7142,-32.2876 351.5286,-25.8783"/>
</g>
<!-- Node14&#45;&gt;Node2 -->
<g id="edge15" class="edge">
<title>Node14&#45;&gt;Node2</title>
<path fill="none" stroke="#191970" d="M2133.1566,-191.792C2128.3751,-191.1215 2123.6253,-190.5146 2119,-190 1782.4762,-152.5566 1695.0766,-186.0877 1358,-154 1345.427,-152.8031 1332.0772,-151.1783 1319.208,-149.4295"/>
<polygon fill="#191970" stroke="#191970" points="1319.4021,-145.9228 1309.0142,-148.0064 1318.4342,-152.8555 1319.4021,-145.9228"/>
</g>
<!-- Node14&#45;&gt;Node3 -->
<g id="edge24" class="edge">
<title>Node14&#45;&gt;Node3</title>
<path fill="none" stroke="#191970" d="M2133.1553,-191.8035C2128.3741,-191.1303 2123.6248,-190.5196 2119,-190 1958.0372,-171.9161 1542.1978,-212.0972 1391,-154 1370.6544,-146.1823 1373.3233,-130.8756 1353,-123 1283.212,-95.9561 783.5819,-82.6146 592.7907,-78.4633"/>
<polygon fill="#191970" stroke="#191970" points="592.651,-74.9596 582.578,-78.2435 592.5003,-81.958 592.651,-74.9596"/>
</g>
<!-- Node14&#45;&gt;Node4 -->
<g id="edge44" class="edge">
<title>Node14&#45;&gt;Node4</title>
<path fill="none" stroke="#191970" d="M2133.1142,-192.1263C2128.3431,-191.374 2123.6072,-190.6576 2119,-190 2113.9859,-189.2843 673.8835,-32.3435 669,-31 667.0297,-30.4579 665.0296,-29.8146 663.0367,-29.1031"/>
<polygon fill="#191970" stroke="#191970" points="663.8862,-25.6696 653.3051,-25.1311 661.241,-32.1506 663.8862,-25.6696"/>
</g>
<!-- Node14&#45;&gt;Node10 -->
<g id="edge46" class="edge">
<title>Node14&#45;&gt;Node10</title>
<path fill="none" stroke="#191970" d="M2183.3581,-190.4133C2171.5584,-181.4299 2158.4527,-168.8819 2152,-154 2146.5191,-141.3593 2149.977,-136.6284 2152,-123 2155.8192,-97.2715 2157.1869,-90.1731 2169,-67 2175.3034,-54.6349 2184.626,-42.1901 2192.5759,-32.6321"/>
<polygon fill="#191970" stroke="#191970" points="2195.23,-34.9137 2199.0984,-25.0503 2189.9234,-30.3486 2195.23,-34.9137"/>
</g>
<!-- Node15 -->
<g id="node16" class="node">
<title>Node15</title>
<g id="a_node16"><a xlink:href="../../d6/dc9/DataProcessingHeader_8h.html" target="_top" xlink:title="Framework/DataProcessing\lHeader.h">
<polygon fill="none" stroke="#000000" points="352.5,-123.5 352.5,-153.5 501.5,-153.5 501.5,-123.5 352.5,-123.5"/>
<text text-anchor="start" x="360.5" y="-141.5" font-family="Helvetica,sans-Serif" font-size="10.00" fill="#000000">Framework/DataProcessing</text>
<text text-anchor="middle" x="427" y="-130.5" font-family="Helvetica,sans-Serif" font-size="10.00" fill="#000000">Header.h</text>
</a>
</g>
</g>
<!-- Node14&#45;&gt;Node15 -->
<g id="edge16" class="edge">
<title>Node14&#45;&gt;Node15</title>
<path fill="none" stroke="#191970" d="M2133.2472,-194.9807C2117.362,-193.037 2100.6443,-191.2339 2085,-190 1774.493,-165.5088 804.9741,-145.6369 511.8116,-140.0638"/>
<polygon fill="#191970" stroke="#191970" points="511.735,-136.5618 501.6704,-139.8716 511.6022,-143.5605 511.735,-136.5618"/>
</g>
<!-- Node18 -->
<g id="node19" class="node">
<title>Node18</title>
<g id="a_node19"><a xlink:href="../../d1/d76/RuntimeError_8h.html" target="_top" xlink:title="Framework/RuntimeError.h">
<polygon fill="none" stroke="#000000" points="2660,-6 2660,-25 2806,-25 2806,-6 2660,-6"/>
<text text-anchor="middle" x="2733" y="-13" font-family="Helvetica,sans-Serif" font-size="10.00" fill="#000000">Framework/RuntimeError.h</text>
</a>
</g>
</g>
<!-- Node14&#45;&gt;Node18 -->
<g id="edge23" class="edge">
<title>Node14&#45;&gt;Node18</title>
<path fill="none" stroke="#191970" d="M2280.6008,-193.9126C2331.4191,-184.6784 2393.4104,-170.5752 2414,-154 2447.5977,-126.9529 2422.6015,-93.0209 2457,-67 2526.9381,-14.0951 2564.8046,-47.144 2651,-31 2658.0491,-29.6797 2665.438,-28.2905 2672.7717,-26.9084"/>
<polygon fill="#191970" stroke="#191970" points="2673.5231,-30.3285 2682.7009,-25.0352 2672.2254,-23.4498 2673.5231,-30.3285"/>
</g>
<!-- Node19 -->
<g id="node20" class="node">
<title>Node19</title>
<g id="a_node20"><a xlink:href="../../d4/d00/Headers_2include_2Headers_2Stack_8h.html" target="_top" xlink:title="Headers/Stack.h">
<polygon fill="none" stroke="#000000" points="1400,-129 1400,-148 1496,-148 1496,-129 1400,-129"/>
<text text-anchor="middle" x="1448" y="-136" font-family="Helvetica,sans-Serif" font-size="10.00" fill="#000000">Headers/Stack.h</text>
</a>
</g>
</g>
<!-- Node14&#45;&gt;Node19 -->
<g id="edge25" class="edge">
<title>Node14&#45;&gt;Node19</title>
<path fill="none" stroke="#191970" d="M2133.1494,-191.8556C2128.3696,-191.1696 2123.6222,-190.5419 2119,-190 1849.7049,-158.4308 1778.0125,-195.0578 1510,-154 1503.8104,-153.0518 1497.3365,-151.7683 1491.0046,-150.3435"/>
<polygon fill="#191970" stroke="#191970" points="1491.7714,-146.9283 1481.2325,-148.0161 1490.1495,-153.7378 1491.7714,-146.9283"/>
</g>
<!-- Node27 -->
<g id="node28" class="node">
<title>Node27</title>
<polygon fill="none" stroke="#bfbfbf" points="2335.5,-6 2335.5,-25 2382.5,-25 2382.5,-6 2335.5,-6"/>
<text text-anchor="middle" x="2359" y="-13" font-family="Helvetica,sans-Serif" font-size="10.00" fill="#000000">vector</text>
</g>
<!-- Node14&#45;&gt;Node27 -->
<g id="edge48" class="edge">
<title>Node14&#45;&gt;Node27</title>
<path fill="none" stroke="#191970" d="M2211.9729,-190.2177C2221.4546,-162.9136 2244.3143,-105.0546 2279,-67 2293.0453,-51.5905 2312.6895,-38.8563 2328.9967,-29.9055"/>
<polygon fill="#191970" stroke="#191970" points="2330.9322,-32.8417 2338.1449,-25.081 2327.6668,-26.65 2330.9322,-32.8417"/>
</g>
<!-- Node33 -->
<g id="node34" class="node">
<title>Node33</title>
<polygon fill="none" stroke="#bfbfbf" points="2161,-129 2161,-148 2203,-148 2203,-129 2161,-129"/>
<text text-anchor="middle" x="2182" y="-136" font-family="Helvetica,sans-Serif" font-size="10.00" fill="#000000">array</text>
</g>
<!-- Node14&#45;&gt;Node33 -->
<g id="edge43" class="edge">
<title>Node14&#45;&gt;Node33</title>
<path fill="none" stroke="#191970" d="M2201.3271,-190.2967C2197.6967,-180.5672 2192.958,-167.8675 2189.0815,-157.4784"/>
<polygon fill="#191970" stroke="#191970" points="2192.3404,-156.2004 2185.5653,-148.055 2185.7821,-158.6476 2192.3404,-156.2004"/>
</g>
<!-- Node34 -->
<g id="node35" class="node">
<title>Node34</title>
<polygon fill="none" stroke="#bfbfbf" points="2824.5,-6 2824.5,-25 2873.5,-25 2873.5,-6 2824.5,-6"/>
<text text-anchor="middle" x="2849" y="-13" font-family="Helvetica,sans-Serif" font-size="10.00" fill="#000000">iosfwd</text>
</g>
<!-- Node14&#45;&gt;Node34 -->
<g id="edge45" class="edge">
<title>Node14&#45;&gt;Node34</title>
<path fill="none" stroke="#191970" d="M2280.6548,-194.8212C2326.6275,-186.7476 2386.4649,-173.6419 2437,-154 2462.7937,-143.9745 2465.4991,-133.7486 2491,-123 2628.9399,-64.8582 2674.4961,-82.6388 2815,-31 2816.6326,-30.4 2818.2962,-29.7556 2819.9664,-29.0828"/>
<polygon fill="#191970" stroke="#191970" points="2821.6194,-32.1824 2829.4342,-25.0284 2818.8638,-25.7476 2821.6194,-32.1824"/>
</g>
<!-- Node14&#45;&gt;Node35 -->
<g id="edge47" class="edge">
<title>Node14&#45;&gt;Node35</title>
<path fill="none" stroke="#191970" d="M2280.7327,-195.6741C2337.2639,-187.2226 2416.8828,-173.3243 2485,-154 2487.5973,-153.2632 2490.261,-152.4242 2492.9203,-151.5269"/>
<polygon fill="#191970" stroke="#191970" points="2494.1898,-154.7897 2502.405,-148.0993 2491.8107,-148.2064 2494.1898,-154.7897"/>
</g>
<!-- Node36 -->
<g id="node37" class="node">
<title>Node36</title>
<polygon fill="none" stroke="#bfbfbf" points="2259,-129 2259,-148 2405,-148 2405,-129 2259,-129"/>
<text text-anchor="middle" x="2332" y="-136" font-family="Helvetica,sans-Serif" font-size="10.00" fill="#000000">DataDescriptorMatcher.inc</text>
</g>
<!-- Node14&#45;&gt;Node36 -->
<g id="edge49" class="edge">
<title>Node14&#45;&gt;Node36</title>
<path fill="none" stroke="#191970" d="M2235.0524,-190.4639C2256.0258,-179.2222 2284.5256,-163.9463 2305.1928,-152.8686"/>
<polygon fill="#191970" stroke="#191970" points="2306.922,-155.913 2314.0822,-148.1039 2303.615,-149.7433 2306.922,-155.913"/>
</g>
<!-- Node15&#45;&gt;Node3 -->
<g id="edge17" class="edge">
<title>Node15&#45;&gt;Node3</title>
<path fill="none" stroke="#191970" d="M449.7416,-123.2977C463.7967,-113.9022 481.783,-101.8787 495.9036,-92.4395"/>
<polygon fill="#191970" stroke="#191970" points="498.1759,-95.1305 504.5444,-86.6633 494.2857,-89.311 498.1759,-95.1305"/>
</g>
<!-- Node15&#45;&gt;Node4 -->
<g id="edge18" class="edge">
<title>Node15&#45;&gt;Node4</title>
<path fill="none" stroke="#191970" d="M501.7378,-126.8304C531.7955,-119.2913 565.3365,-106.9879 591,-87 608.3565,-73.482 620.5418,-51.049 627.6203,-34.9129"/>
<polygon fill="#191970" stroke="#191970" points="630.9758,-35.9553 631.5373,-25.3754 624.5006,-33.2959 630.9758,-35.9553"/>
</g>
<!-- Node15&#45;&gt;Node5 -->
<g id="edge20" class="edge">
<title>Node15&#45;&gt;Node5</title>
<path fill="none" stroke="#191970" d="M427.5415,-123.4244C427.244,-106.9664 424.0072,-81.0839 408,-67 362.3897,-26.8701 195.7144,-46.5992 137,-31 134.379,-30.3037 131.6973,-29.4717 129.031,-28.5599"/>
<polygon fill="#191970" stroke="#191970" points="130.1697,-25.2489 119.5776,-25.0075 127.7073,-31.8016 130.1697,-25.2489"/>
</g>
<!-- Node15&#45;&gt;Node6 -->
<g id="edge21" class="edge">
<title>Node15&#45;&gt;Node6</title>
<path fill="none" stroke="#191970" d="M366.9493,-123.4554C293.7938,-104.5365 166.8638,-69.7981 61,-31 59.3699,-30.4026 57.7079,-29.7657 56.0377,-29.1035"/>
<polygon fill="#191970" stroke="#191970" points="57.1202,-25.7626 46.544,-25.1352 54.4205,-32.2211 57.1202,-25.7626"/>
</g>
<!-- Node16 -->
<g id="node17" class="node">
<title>Node16</title>
<polygon fill="none" stroke="#bfbfbf" points="285,-67.5 285,-86.5 331,-86.5 331,-67.5 285,-67.5"/>
<text text-anchor="middle" x="308" y="-74.5" font-family="Helvetica,sans-Serif" font-size="10.00" fill="#000000">cstdio</text>
</g>
<!-- Node15&#45;&gt;Node16 -->
<g id="edge19" class="edge">
<title>Node15&#45;&gt;Node16</title>
<path fill="none" stroke="#191970" d="M397.8893,-123.4554C378.8176,-113.599 354.0518,-100.7999 335.3461,-91.1327"/>
<polygon fill="#191970" stroke="#191970" points="336.9315,-88.0122 326.4408,-86.5303 333.7176,-94.2309 336.9315,-88.0122"/>
</g>
<!-- Node17 -->
<g id="node18" class="node">
<title>Node17</title>
<polygon fill="none" stroke="#bfbfbf" points="349,-67.5 349,-86.5 399,-86.5 399,-67.5 349,-67.5"/>
<text text-anchor="middle" x="374" y="-74.5" font-family="Helvetica,sans-Serif" font-size="10.00" fill="#000000">chrono</text>
</g>
<!-- Node15&#45;&gt;Node17 -->
<g id="edge22" class="edge">
<title>Node15&#45;&gt;Node17</title>
<path fill="none" stroke="#191970" d="M413.8989,-123.2977C406.3887,-114.5831 396.93,-103.6075 389.1073,-94.5302"/>
<polygon fill="#191970" stroke="#191970" points="391.6655,-92.1372 382.486,-86.8469 386.3629,-96.707 391.6655,-92.1372"/>
</g>
<!-- Node19&#45;&gt;Node3 -->
<g id="edge42" class="edge">
<title>Node19&#45;&gt;Node3</title>
<path fill="none" stroke="#191970" d="M1414.7732,-128.9463C1405.5293,-126.6304 1395.4361,-124.4164 1386,-123 1233.927,-100.1731 773.5024,-84.5119 592.8605,-79.0947"/>
<polygon fill="#191970" stroke="#191970" points="592.7608,-75.5903 582.6609,-78.7909 592.5522,-82.5872 592.7608,-75.5903"/>
</g>
<!-- Node20 -->
<g id="node21" class="node">
<title>Node20</title>
<g id="a_node21"><a xlink:href="../../dc/d03/MemoryResources_8h.html" target="_top" xlink:title="MemoryResources/MemoryResources.h">
<polygon fill="none" stroke="#000000" points="1552.5,-67.5 1552.5,-86.5 1759.5,-86.5 1759.5,-67.5 1552.5,-67.5"/>
<text text-anchor="middle" x="1656" y="-74.5" font-family="Helvetica,sans-Serif" font-size="10.00" fill="#000000">MemoryResources/MemoryResources.h</text>
</a>
</g>
</g>
<!-- Node19&#45;&gt;Node20 -->
<g id="edge26" class="edge">
<title>Node19&#45;&gt;Node20</title>
<path fill="none" stroke="#191970" d="M1480.5,-128.8906C1516.447,-118.2621 1574.4827,-101.1025 1613.888,-89.4514"/>
<polygon fill="#191970" stroke="#191970" points="1615.131,-92.7337 1623.7282,-86.5419 1613.1462,-86.021 1615.131,-92.7337"/>
</g>
<!-- Node20&#45;&gt;Node7 -->
<g id="edge31" class="edge">
<title>Node20&#45;&gt;Node7</title>
<path fill="none" stroke="#191970" d="M1553.8679,-67.4722C1498.1179,-60.5885 1428.3513,-49.2109 1368,-31 1366.0902,-30.4237 1364.1487,-29.7623 1362.2106,-29.0444"/>
<polygon fill="#191970" stroke="#191970" points="1363.2901,-25.7034 1352.7114,-25.1181 1360.6161,-32.1726 1363.2901,-25.7034"/>
</g>
<!-- Node20&#45;&gt;Node10 -->
<g id="edge32" class="edge">
<title>Node20&#45;&gt;Node10</title>
<path fill="none" stroke="#191970" d="M1759.5957,-72.2727C1888.3085,-65.6282 2100.2193,-51.9444 2176,-31 2177.9188,-30.4697 2179.8621,-29.827 2181.7931,-29.1086"/>
<polygon fill="#191970" stroke="#191970" points="2183.3838,-32.2342 2191.177,-25.0566 2180.6088,-25.8077 2183.3838,-32.2342"/>
</g>
<!-- Node20&#45;&gt;Node12 -->
<g id="edge41" class="edge">
<title>Node20&#45;&gt;Node12</title>
<path fill="none" stroke="#191970" d="M1552.3521,-74.3732C1323.9211,-68.2753 783.0048,-52.0597 601,-31 591.9104,-29.9483 582.315,-28.4721 573.0165,-26.8449"/>
<polygon fill="#191970" stroke="#191970" points="573.5468,-23.384 563.0811,-25.0329 572.2908,-30.2704 573.5468,-23.384"/>
</g>
<!-- Node21 -->
<g id="node22" class="node">
<title>Node21</title>
<polygon fill="none" stroke="#bfbfbf" points="1377.5,-.5 1377.5,-30.5 1488.5,-30.5 1488.5,-.5 1377.5,-.5"/>
<text text-anchor="start" x="1385.5" y="-18.5" font-family="Helvetica,sans-Serif" font-size="10.00" fill="#000000">boost/container/flat</text>
<text text-anchor="middle" x="1433" y="-7.5" font-family="Helvetica,sans-Serif" font-size="10.00" fill="#000000">_map.hpp</text>
</g>
<!-- Node20&#45;&gt;Node21 -->
<g id="edge27" class="edge">
<title>Node20&#45;&gt;Node21</title>
<path fill="none" stroke="#191970" d="M1621.1563,-67.3906C1588.1116,-58.2774 1537.6566,-44.3627 1497.3103,-33.2358"/>
<polygon fill="#191970" stroke="#191970" points="1498.1226,-29.8292 1487.5519,-30.5446 1496.2615,-36.5773 1498.1226,-29.8292"/>
</g>
<!-- Node22 -->
<g id="node23" class="node">
<title>Node22</title>
<polygon fill="none" stroke="#bfbfbf" points="1506.5,-.5 1506.5,-30.5 1635.5,-30.5 1635.5,-.5 1506.5,-.5"/>
<text text-anchor="start" x="1514.5" y="-18.5" font-family="Helvetica,sans-Serif" font-size="10.00" fill="#000000">boost/container/pmr</text>
<text text-anchor="middle" x="1571" y="-7.5" font-family="Helvetica,sans-Serif" font-size="10.00" fill="#000000">/memory_resource.hpp</text>
</g>
<!-- Node20&#45;&gt;Node22 -->
<g id="edge28" class="edge">
<title>Node20&#45;&gt;Node22</title>
<path fill="none" stroke="#191970" d="M1642.7188,-67.3906C1631.3216,-59.1444 1614.4908,-46.9669 1599.9977,-36.4807"/>
<polygon fill="#191970" stroke="#191970" points="1601.9468,-33.5709 1591.7933,-30.5446 1597.8435,-39.2421 1601.9468,-33.5709"/>
</g>
<!-- Node23 -->
<g id="node24" class="node">
<title>Node23</title>
<polygon fill="none" stroke="#bfbfbf" points="1653.5,-.5 1653.5,-30.5 1826.5,-30.5 1826.5,-.5 1653.5,-.5"/>
<text text-anchor="start" x="1661.5" y="-18.5" font-family="Helvetica,sans-Serif" font-size="10.00" fill="#000000">boost/container/pmr</text>
<text text-anchor="middle" x="1740" y="-7.5" font-family="Helvetica,sans-Serif" font-size="10.00" fill="#000000">/monotonic_buffer_resource.hpp</text>
</g>
<!-- Node20&#45;&gt;Node23 -->
<g id="edge29" class="edge">
<title>Node20&#45;&gt;Node23</title>
<path fill="none" stroke="#191970" d="M1669.125,-67.3906C1680.3881,-59.1444 1697.0209,-46.9669 1711.3434,-36.4807"/>
<polygon fill="#191970" stroke="#191970" points="1713.4502,-39.276 1719.4513,-30.5446 1709.315,-33.628 1713.4502,-39.276"/>
</g>
<!-- Node24 -->
<g id="node25" class="node">
<title>Node24</title>
<polygon fill="none" stroke="#bfbfbf" points="1844.5,-.5 1844.5,-30.5 1993.5,-30.5 1993.5,-.5 1844.5,-.5"/>
<text text-anchor="start" x="1852.5" y="-18.5" font-family="Helvetica,sans-Serif" font-size="10.00" fill="#000000">boost/container/pmr</text>
<text text-anchor="middle" x="1919" y="-7.5" font-family="Helvetica,sans-Serif" font-size="10.00" fill="#000000">/polymorphic_allocator.hpp</text>
</g>
<!-- Node20&#45;&gt;Node24 -->
<g id="edge30" class="edge">
<title>Node20&#45;&gt;Node24</title>
<path fill="none" stroke="#191970" d="M1696.8052,-67.4581C1736.2049,-58.2449 1796.7832,-44.0792 1844.7411,-32.8647"/>
<polygon fill="#191970" stroke="#191970" points="1845.8307,-36.2044 1854.7711,-30.5193 1844.2368,-29.3883 1845.8307,-36.2044"/>
</g>
<!-- Node25 -->
<g id="node26" class="node">
<title>Node25</title>
<polygon fill="none" stroke="#bfbfbf" points="2248.5,-6 2248.5,-25 2317.5,-25 2317.5,-6 2248.5,-6"/>
<text text-anchor="middle" x="2283" y="-13" font-family="Helvetica,sans-Serif" font-size="10.00" fill="#000000">type_traits</text>
</g>
<!-- Node20&#45;&gt;Node25 -->
<g id="edge33" class="edge">
<title>Node20&#45;&gt;Node25</title>
<path fill="none" stroke="#191970" d="M1759.5683,-72.0675C1901.8834,-64.7326 2150.3512,-49.7761 2239,-31 2242.6199,-30.2333 2246.3492,-29.2466 2250.0335,-28.1428"/>
<polygon fill="#191970" stroke="#191970" points="2251.1608,-31.4566 2259.575,-25.0183 2248.9823,-24.8042 2251.1608,-31.4566"/>
</g>
<!-- Node26 -->
<g id="node27" class="node">
<title>Node26</title>
<polygon fill="none" stroke="#bfbfbf" points="2011.5,-6 2011.5,-25 2056.5,-25 2056.5,-6 2011.5,-6"/>
<text text-anchor="middle" x="2034" y="-13" font-family="Helvetica,sans-Serif" font-size="10.00" fill="#000000">utility</text>
</g>
<!-- Node20&#45;&gt;Node26 -->
<g id="edge34" class="edge">
<title>Node20&#45;&gt;Node26</title>
<path fill="none" stroke="#191970" d="M1759.6219,-71.8639C1829.3262,-66.3223 1922.631,-54.8249 2002,-31 2003.8624,-30.441 2005.7509,-29.7848 2007.631,-29.0639"/>
<polygon fill="#191970" stroke="#191970" points="2009.0303,-32.2721 2016.8006,-25.0698 2006.2349,-25.8545 2009.0303,-32.2721"/>
</g>
<!-- Node20&#45;&gt;Node27 -->
<g id="edge35" class="edge">
<title>Node20&#45;&gt;Node27</title>
<path fill="none" stroke="#191970" d="M1759.7543,-74.7052C1920.7323,-70.3317 2222.9671,-58.6481 2327,-31 2328.924,-30.4887 2330.8711,-29.8602 2332.8049,-29.1522"/>
<polygon fill="#191970" stroke="#191970" points="2334.3851,-32.2828 2342.1952,-25.1237 2331.6252,-25.8498 2334.3851,-32.2828"/>
</g>
<!-- Node28 -->
<g id="node29" class="node">
<title>Node28</title>
<polygon fill="none" stroke="#bfbfbf" points="2074.5,-6 2074.5,-25 2167.5,-25 2167.5,-6 2074.5,-6"/>
<text text-anchor="middle" x="2121" y="-13" font-family="Helvetica,sans-Serif" font-size="10.00" fill="#000000">unordered_map</text>
</g>
<!-- Node20&#45;&gt;Node28 -->
<g id="edge36" class="edge">
<title>Node20&#45;&gt;Node28</title>
<path fill="none" stroke="#191970" d="M1759.6375,-69.8946C1842.7283,-63.1076 1962.0475,-50.9079 2065,-31 2069.8222,-30.0675 2074.8356,-28.9291 2079.7933,-27.6968"/>
<polygon fill="#191970" stroke="#191970" points="2081.0258,-30.9921 2089.8119,-25.0713 2079.2512,-24.2207 2081.0258,-30.9921"/>
</g>
<!-- Node29 -->
<g id="node30" class="node">
<title>Node29</title>
<polygon fill="none" stroke="#bfbfbf" points="678.5,-6 678.5,-25 779.5,-25 779.5,-6 678.5,-6"/>
<text text-anchor="middle" x="729" y="-13" font-family="Helvetica,sans-Serif" font-size="10.00" fill="#000000">FairMQMessage.h</text>
</g>
<!-- Node20&#45;&gt;Node29 -->
<g id="edge37" class="edge">
<title>Node20&#45;&gt;Node29</title>
<path fill="none" stroke="#191970" d="M1552.4121,-68.0057C1547.5413,-67.6506 1542.7183,-67.3131 1538,-67 1205.015,-44.9063 1117.8474,-81.6733 788,-31 782.1658,-30.1037 776.0755,-28.863 770.117,-27.4703"/>
<polygon fill="#191970" stroke="#191970" points="770.8322,-24.0416 760.2824,-25.0171 769.1379,-30.8335 770.8322,-24.0416"/>
</g>
<!-- Node30 -->
<g id="node31" class="node">
<title>Node30</title>
<polygon fill="none" stroke="#bfbfbf" points="797.5,-6 797.5,-25 934.5,-25 934.5,-6 797.5,-6"/>
<text text-anchor="middle" x="866" y="-13" font-family="Helvetica,sans-Serif" font-size="10.00" fill="#000000">FairMQTransportFactory.h</text>
</g>
<!-- Node20&#45;&gt;Node30 -->
<g id="edge38" class="edge">
<title>Node20&#45;&gt;Node30</title>
<path fill="none" stroke="#191970" d="M1552.4069,-68.0793C1547.5376,-67.7046 1542.7163,-67.3427 1538,-67 1274.2111,-47.8317 1206.309,-64.8527 944,-31 935.8228,-29.9447 927.2161,-28.5382 918.8252,-27.0019"/>
<polygon fill="#191970" stroke="#191970" points="919.2194,-23.5141 908.7407,-25.0784 917.9078,-30.3901 919.2194,-23.5141"/>
</g>
<!-- Node31 -->
<g id="node32" class="node">
<title>Node31</title>
<polygon fill="none" stroke="#bfbfbf" points="953,-6 953,-25 1103,-25 1103,-6 953,-6"/>
<text text-anchor="middle" x="1028" y="-13" font-family="Helvetica,sans-Serif" font-size="10.00" fill="#000000">fairmq/MemoryResources.h</text>
</g>
<!-- Node20&#45;&gt;Node31 -->
<g id="edge39" class="edge">
<title>Node20&#45;&gt;Node31</title>
<path fill="none" stroke="#191970" d="M1552.396,-68.2186C1547.5295,-67.8066 1542.7119,-67.3987 1538,-67 1348.6686,-50.9776 1300.3203,-56.2699 1112,-31 1103.2433,-29.825 1094.0129,-28.3574 1085.0035,-26.797"/>
<polygon fill="#191970" stroke="#191970" points="1085.4217,-23.3164 1074.9625,-25.0065 1084.1928,-30.2077 1085.4217,-23.3164"/>
</g>
<!-- Node32 -->
<g id="node33" class="node">
<title>Node32</title>
<polygon fill="none" stroke="#bfbfbf" points="1121,-6 1121,-25 1291,-25 1291,-6 1121,-6"/>
<text text-anchor="middle" x="1206" y="-13" font-family="Helvetica,sans-Serif" font-size="10.00" fill="#000000">fairmq/MemoryResourceTools.h</text>
</g>
<!-- Node20&#45;&gt;Node32 -->
<g id="edge40" class="edge">
<title>Node20&#45;&gt;Node32</title>
<path fill="none" stroke="#191970" d="M1576.0051,-67.4735C1503.7815,-58.6799 1394.643,-44.9133 1300,-31 1290.8669,-29.6574 1281.2481,-28.1634 1271.7896,-26.648"/>
<polygon fill="#191970" stroke="#191970" points="1272.0505,-23.1447 1261.6196,-25.0012 1270.9316,-30.0547 1272.0505,-23.1447"/>
</g>
<!-- Node37&#45;&gt;Node10 -->
<g id="edge62" class="edge">
<title>Node37&#45;&gt;Node10</title>
<path fill="none" stroke="#191970" d="M2633.1292,-128.9804C2619.9688,-126.8975 2606.0097,-124.7843 2593,-123 2453.8331,-103.9128 2405.392,-148.2928 2279,-87 2254.1645,-74.9562 2232.9724,-50.598 2220.3667,-33.6799"/>
<polygon fill="#191970" stroke="#191970" points="2222.9442,-31.2673 2214.2784,-25.1719 2217.2516,-35.341 2222.9442,-31.2673"/>
</g>
<!-- Node38 -->
<g id="node39" class="node">
<title>Node38</title>
<g id="a_node39"><a xlink:href="../../de/d56/Variant_8h.html" target="_top" xlink:title="Framework/Variant.h">
<polygon fill="none" stroke="#000000" points="2287.5,-67.5 2287.5,-86.5 2404.5,-86.5 2404.5,-67.5 2287.5,-67.5"/>
<text text-anchor="middle" x="2346" y="-74.5" font-family="Helvetica,sans-Serif" font-size="10.00" fill="#000000">Framework/Variant.h</text>
</a>
</g>
</g>
<!-- Node37&#45;&gt;Node38 -->
<g id="edge51" class="edge">
<title>Node37&#45;&gt;Node38</title>
<path fill="none" stroke="#191970" d="M2636.6274,-128.9581C2575.2741,-117.9894 2474.6573,-100.0012 2409.377,-88.3305"/>
<polygon fill="#191970" stroke="#191970" points="2409.6746,-84.8283 2399.2147,-86.5137 2408.4427,-91.719 2409.6746,-84.8283"/>
</g>
<!-- Node38&#45;&gt;Node4 -->
<g id="edge55" class="edge">
<title>Node38&#45;&gt;Node4</title>
<path fill="none" stroke="#191970" d="M2287.0497,-76.0416C1998.9071,-71.2732 749.2911,-49.5947 669,-31 666.6537,-30.4566 664.2729,-29.7449 661.9169,-28.925"/>
<polygon fill="#191970" stroke="#191970" points="663.1055,-25.63 652.5239,-25.1005 660.4657,-32.1132 663.1055,-25.63"/>
</g>
<!-- Node38&#45;&gt;Node7 -->
<g id="edge54" class="edge">
<title>Node38&#45;&gt;Node7</title>
<path fill="none" stroke="#191970" d="M2287.339,-75.5361C2089.9288,-70.4307 1457.0602,-52.5462 1368,-31 1365.6591,-30.4337 1363.2822,-29.7056 1360.9288,-28.8747"/>
<polygon fill="#191970" stroke="#191970" points="1362.121,-25.5809 1351.5405,-25.0302 1359.4683,-32.0588 1362.121,-25.5809"/>
</g>
<!-- Node38&#45;&gt;Node10 -->
<g id="edge61" class="edge">
<title>Node38&#45;&gt;Node10</title>
<path fill="none" stroke="#191970" d="M2323.1333,-67.4018C2301.5828,-58.2793 2268.4428,-44.0532 2240,-31 2238.9901,-30.5365 2237.9641,-30.0616 2236.9291,-29.5792"/>
<polygon fill="#191970" stroke="#191970" points="2238.1047,-26.263 2227.5697,-25.1384 2235.104,-32.5872 2238.1047,-26.263"/>
</g>
<!-- Node38&#45;&gt;Node18 -->
<g id="edge52" class="edge">
<title>Node38&#45;&gt;Node18</title>
<path fill="none" stroke="#191970" d="M2404.5737,-68.8247C2466.0539,-60.0895 2565.4737,-45.5277 2651,-31 2658.4487,-29.7348 2666.2653,-28.3418 2673.991,-26.9257"/>
<polygon fill="#191970" stroke="#191970" points="2674.8618,-30.3239 2684.0561,-25.0595 2673.5856,-23.4413 2674.8618,-30.3239"/>
</g>
<!-- Node38&#45;&gt;Node25 -->
<g id="edge53" class="edge">
<title>Node38&#45;&gt;Node25</title>
<path fill="none" stroke="#191970" d="M2336.1563,-67.3906C2326.5961,-58.0581 2311.8777,-43.6902 2300.3505,-32.4374"/>
<polygon fill="#191970" stroke="#191970" points="2302.5832,-29.7257 2292.9825,-25.2449 2297.6934,-34.7348 2302.5832,-29.7257"/>
</g>
<!-- Node38&#45;&gt;Node27 -->
<g id="edge60" class="edge">
<title>Node38&#45;&gt;Node27</title>
<path fill="none" stroke="#191970" d="M2348.0313,-67.3906C2349.8522,-58.776 2352.5802,-45.8708 2354.8599,-35.0858"/>
<polygon fill="#191970" stroke="#191970" points="2358.2962,-35.7525 2356.9401,-25.2449 2351.4476,-34.3048 2358.2962,-35.7525"/>
</g>
<!-- Node38&#45;&gt;Node34 -->
<g id="edge57" class="edge">
<title>Node38&#45;&gt;Node34</title>
<path fill="none" stroke="#191970" d="M2404.8699,-71.4795C2528.6197,-59.8409 2805.1983,-33.6364 2815,-31 2817.1887,-30.4113 2819.4132,-29.6946 2821.6231,-28.8958"/>
<polygon fill="#191970" stroke="#191970" points="2823.1459,-32.0539 2831.0605,-25.0105 2820.481,-25.581 2823.1459,-32.0539"/>
</g>
<!-- Node39 -->
<g id="node40" class="node">
<title>Node39</title>
<polygon fill="none" stroke="#bfbfbf" points="2400.5,-6 2400.5,-25 2449.5,-25 2449.5,-6 2400.5,-6"/>
<text text-anchor="middle" x="2425" y="-13" font-family="Helvetica,sans-Serif" font-size="10.00" fill="#000000">cstdlib</text>
</g>
<!-- Node38&#45;&gt;Node39 -->
<g id="edge56" class="edge">
<title>Node38&#45;&gt;Node39</title>
<path fill="none" stroke="#191970" d="M2358.3438,-67.3906C2370.7503,-57.7324 2390.0843,-42.6812 2404.7413,-31.271"/>
<polygon fill="#191970" stroke="#191970" points="2407.0021,-33.9466 2412.7429,-25.0419 2402.7021,-28.423 2407.0021,-33.9466"/>
</g>
<!-- Node40 -->
<g id="node41" class="node">
<title>Node40</title>
<polygon fill="none" stroke="#bfbfbf" points="2467.5,-6 2467.5,-25 2550.5,-25 2550.5,-6 2467.5,-6"/>
<text text-anchor="middle" x="2509" y="-13" font-family="Helvetica,sans-Serif" font-size="10.00" fill="#000000">initializer_list</text>
</g>
<!-- Node38&#45;&gt;Node40 -->
<g id="edge58" class="edge">
<title>Node38&#45;&gt;Node40</title>
<path fill="none" stroke="#191970" d="M2371.4688,-67.3906C2399.1005,-56.9652 2443.3869,-40.2559 2474.2128,-28.6252"/>
<polygon fill="#191970" stroke="#191970" points="2475.5894,-31.8467 2483.7101,-25.0419 2473.1183,-25.2974 2475.5894,-31.8467"/>
</g>
<!-- Node41 -->
<g id="node42" class="node">
<title>Node41</title>
<polygon fill="none" stroke="#bfbfbf" points="2568.5,-6 2568.5,-25 2641.5,-25 2641.5,-6 2568.5,-6"/>
<text text-anchor="middle" x="2605" y="-13" font-family="Helvetica,sans-Serif" font-size="10.00" fill="#000000">string_view</text>
</g>
<!-- Node38&#45;&gt;Node41 -->
<g id="edge59" class="edge">
<title>Node38&#45;&gt;Node41</title>
<path fill="none" stroke="#191970" d="M2398.7573,-67.4904C2442.3358,-59.1988 2505.6384,-46.146 2560,-31 2563.0073,-30.1621 2566.1071,-29.2339 2569.2066,-28.2604"/>
<polygon fill="#191970" stroke="#191970" points="2570.5805,-31.4933 2578.9918,-25.0512 2568.3991,-24.8419 2570.5805,-31.4933"/>
</g>
</g>
</svg>
        <g id="navigator" transform="translate(0 0)" fill="#404254">
                <rect fill="#f2f5e9" fill-opacity="0.5" stroke="#606060" stroke-width=".5" x="0" y="0" width="60" height="60"/>
                <use id="zoomplus" xlink:href="#zoomPlus" x="17" y="9" onmousedown="handleZoom(evt,'in')"/>
                <use id="zoomminus" xlink:href="#zoomMin" x="42" y="9" onmousedown="handleZoom(evt,'out')"/>
                <use id="reset" xlink:href="#resetDef" x="30" y="36" onmousedown="handleReset()"/>
                <g id="arrowUp" xlink:href="#dirArrow" transform="translate(30 24)" onmousedown="handlePan(0,-1)">
                  <use xlink:href="#rim" fill="#404040">
                        <set attributeName="fill" to="#808080" begin="arrowUp.mouseover" end="arrowUp.mouseout"/>
                  </use>
                  <path fill="none" stroke="white" stroke-width="1.5" d="M0,-3.0v7 M-2.5,-0.5L0,-3.0L2.5,-0.5"/>
                </g>
                <g id="arrowRight" xlink:href="#dirArrow" transform="rotate(90) translate(36 -43)" onmousedown="handlePan(1,0)">
                  <use xlink:href="#rim" fill="#404040">
                        <set attributeName="fill" to="#808080" begin="arrowRight.mouseover" end="arrowRight.mouseout"/>
                  </use>
                  <path fill="none" stroke="white" stroke-width="1.5" d="M0,-3.0v7 M-2.5,-0.5L0,-3.0L2.5,-0.5"/>
                </g>
                <g id="arrowDown" xlink:href="#dirArrow" transform="rotate(180) translate(-30 -48)" onmousedown="handlePan(0,1)">
                  <use xlink:href="#rim" fill="#404040">
                        <set attributeName="fill" to="#808080" begin="arrowDown.mouseover" end="arrowDown.mouseout"/>
                  </use>
                  <path fill="none" stroke="white" stroke-width="1.5" d="M0,-3.0v7 M-2.5,-0.5L0,-3.0L2.5,-0.5"/>
                </g>
                <g id="arrowLeft" xlink:href="#dirArrow" transform="rotate(270) translate(-36 17)" onmousedown="handlePan(-1,0)">
                  <use xlink:href="#rim" fill="#404040">
                        <set attributeName="fill" to="#808080" begin="arrowLeft.mouseover" end="arrowLeft.mouseout"/>
                  </use>
                  <path fill="none" stroke="white" stroke-width="1.5" d="M0,-3.0v7 M-2.5,-0.5L0,-3.0L2.5,-0.5"/>
                </g>
        </g>
        <svg viewBox="0 0 15 15" width="100%" height="30px" preserveAspectRatio="xMaxYMin meet">
         <g id="arrow_out" transform="scale(0.3 0.3)">
          <a xlink:href="InputSpec_8h__incl_org.svg" target="_base">
           <rect id="button" ry="5" rx="5" y="6" x="6" height="38" width="38"
                fill="#f2f5e9" fill-opacity="0.5" stroke="#606060" stroke-width="1.0"/>
           <path id="arrow"
             d="M 11.500037,31.436501 C 11.940474,20.09759 22.043105,11.32322 32.158766,21.979434 L 37.068811,17.246167 C 37.068811,17.246167 37.088388,32 37.088388,32 L 22.160133,31.978069 C 22.160133,31.978069 26.997745,27.140456 26.997745,27.140456 C 18.528582,18.264221 13.291696,25.230495 11.500037,31.436501 z"
             style="fill:#404040;"/>
          </a>
         </g>
        </svg>
</svg>
