<?xml version="1.0" encoding="UTF-8" standalone="no"?>
<!DOCTYPE svg PUBLIC "-//W3C//DTD SVG 1.1//EN"
 "http://www.w3.org/Graphics/SVG/1.1/DTD/svg11.dtd">
<!-- Generated by graphviz version 2.40.1 (20161225.0304)
 -->
<!-- Title: /home/travis/build/AliceO2Group/AliceO2/Detectors/TPC/simulation/src/PadResponse.cxx Pages: 1 -->
<svg width="1833pt" height="688pt"
 viewBox="0.00 0.00 1832.50 688.00" xmlns="http://www.w3.org/2000/svg" xmlns:xlink="http://www.w3.org/1999/xlink">
<g id="graph0" class="graph" transform="scale(1 1) rotate(0) translate(4 684)">
<title>/home/travis/build/AliceO2Group/AliceO2/Detectors/TPC/simulation/src/PadResponse.cxx</title>
<!-- Node0 -->
<g id="node1" class="node">
<title>Node0</title>
<polygon fill="#bfbfbf" stroke="#000000" points="767.5,-627.5 767.5,-679.5 910.5,-679.5 910.5,-627.5 767.5,-627.5"/>
<text text-anchor="start" x="775.5" y="-667.5" font-family="Helvetica,sans-Serif" font-size="10.00" fill="#000000">/home/travis/build</text>
<text text-anchor="start" x="775.5" y="-656.5" font-family="Helvetica,sans-Serif" font-size="10.00" fill="#000000">/AliceO2Group/AliceO2</text>
<text text-anchor="start" x="775.5" y="-645.5" font-family="Helvetica,sans-Serif" font-size="10.00" fill="#000000">/Detectors/TPC/simulation</text>
<text text-anchor="middle" x="839" y="-634.5" font-family="Helvetica,sans-Serif" font-size="10.00" fill="#000000">/src/PadResponse.cxx</text>
</g>
<!-- Node1 -->
<g id="node2" class="node">
<title>Node1</title>
<g id="a_node2"><a xlink:href="../../d4/d43/TPC_2simulation_2include_2TPCSimulation_2PadResponse_8h.html" target="_top" xlink:title="TPCSimulation/PadResponse.h">
<polygon fill="none" stroke="#000000" points="581,-571.5 581,-590.5 745,-590.5 745,-571.5 581,-571.5"/>
<text text-anchor="middle" x="663" y="-578.5" font-family="Helvetica,sans-Serif" font-size="10.00" fill="#000000">TPCSimulation/PadResponse.h</text>
</a>
</g>
</g>
<!-- Node0&#45;&gt;Node1 -->
<g id="edge1" class="edge">
<title>Node0&#45;&gt;Node1</title>
<path fill="none" stroke="#191970" d="M775.46,-627.3258C748.3565,-616.161 717.8903,-603.6111 695.5113,-594.3924"/>
<polygon fill="#191970" stroke="#191970" points="696.724,-591.1067 686.1446,-590.534 694.0577,-597.5791 696.724,-591.1067"/>
</g>
<!-- Node3 -->
<g id="node4" class="node">
<title>Node3</title>
<g id="a_node4"><a xlink:href="../../d5/d1d/TPC_2base_2include_2TPCBase_2Mapper_8h.html" target="_top" xlink:title="TPCBase/Mapper.h">
<polygon fill="none" stroke="#000000" points="675.5,-515.5 675.5,-534.5 782.5,-534.5 782.5,-515.5 675.5,-515.5"/>
<text text-anchor="middle" x="729" y="-522.5" font-family="Helvetica,sans-Serif" font-size="10.00" fill="#000000">TPCBase/Mapper.h</text>
</a>
</g>
</g>
<!-- Node0&#45;&gt;Node3 -->
<g id="edge58" class="edge">
<title>Node0&#45;&gt;Node3</title>
<path fill="none" stroke="#191970" d="M816.7399,-627.4961C795.0148,-602.1172 762.5742,-564.2208 743.8285,-542.3224"/>
<polygon fill="#191970" stroke="#191970" points="746.3064,-539.8348 737.1444,-534.5142 740.9886,-544.387 746.3064,-539.8348"/>
</g>
<!-- Node7 -->
<g id="node8" class="node">
<title>Node7</title>
<polygon fill="none" stroke="#bfbfbf" points="1137,-459.5 1137,-478.5 1181,-478.5 1181,-459.5 1137,-459.5"/>
<text text-anchor="middle" x="1159" y="-466.5" font-family="Helvetica,sans-Serif" font-size="10.00" fill="#000000">string</text>
</g>
<!-- Node0&#45;&gt;Node7 -->
<g id="edge61" class="edge">
<title>Node0&#45;&gt;Node7</title>
<path fill="none" stroke="#191970" d="M827.9632,-627.267C822.4706,-609.7157 819.2261,-586.9915 831,-571 835.5562,-564.8117 1045.5352,-502.4277 1127.0878,-478.3818"/>
<polygon fill="#191970" stroke="#191970" points="1128.2176,-481.6978 1136.8208,-475.5143 1126.2393,-474.9831 1128.2176,-481.6978"/>
</g>
<!-- Node8 -->
<g id="node9" class="node">
<title>Node8</title>
<polygon fill="none" stroke="#bfbfbf" points="123.5,-179.5 123.5,-198.5 170.5,-198.5 170.5,-179.5 123.5,-179.5"/>
<text text-anchor="middle" x="147" y="-186.5" font-family="Helvetica,sans-Serif" font-size="10.00" fill="#000000">cmath</text>
</g>
<!-- Node0&#45;&gt;Node8 -->
<g id="edge63" class="edge">
<title>Node0&#45;&gt;Node8</title>
<path fill="none" stroke="#191970" d="M767.3415,-648.3707C583.4136,-634.2501 109,-591.3932 109,-525 109,-525 109,-525 109,-301 109,-266.6118 125.2634,-229.2832 136.511,-207.5791"/>
<polygon fill="#191970" stroke="#191970" points="139.7317,-208.9804 141.393,-198.5166 133.569,-205.6605 139.7317,-208.9804"/>
</g>
<!-- Node37 -->
<g id="node38" class="node">
<title>Node37</title>
<polygon fill="none" stroke="#bfbfbf" points="839.5,-571.5 839.5,-590.5 894.5,-590.5 894.5,-571.5 839.5,-571.5"/>
<text text-anchor="middle" x="867" y="-578.5" font-family="Helvetica,sans-Serif" font-size="10.00" fill="#000000">fstream</text>
</g>
<!-- Node0&#45;&gt;Node37 -->
<g id="edge59" class="edge">
<title>Node0&#45;&gt;Node37</title>
<path fill="none" stroke="#191970" d="M849.1086,-627.3258C852.5891,-618.3139 856.4181,-608.3995 859.6378,-600.063"/>
<polygon fill="#191970" stroke="#191970" points="862.9801,-601.1235 863.3179,-590.534 856.4502,-598.6015 862.9801,-601.1235"/>
</g>
<!-- Node38 -->
<g id="node39" class="node">
<title>Node38</title>
<polygon fill="none" stroke="#bfbfbf" points="913,-571.5 913,-590.5 973,-590.5 973,-571.5 913,-571.5"/>
<text text-anchor="middle" x="943" y="-578.5" font-family="Helvetica,sans-Serif" font-size="10.00" fill="#000000">iostream</text>
</g>
<!-- Node0&#45;&gt;Node38 -->
<g id="edge60" class="edge">
<title>Node0&#45;&gt;Node38</title>
<path fill="none" stroke="#191970" d="M876.5464,-627.3258C891.4848,-616.912 908.1519,-605.2931 921.0575,-596.2965"/>
<polygon fill="#191970" stroke="#191970" points="923.1218,-599.124 929.3236,-590.534 919.1186,-593.3816 923.1218,-599.124"/>
</g>
<!-- Node39 -->
<g id="node40" class="node">
<title>Node39</title>
<polygon fill="none" stroke="#bfbfbf" points="991,-571.5 991,-590.5 1047,-590.5 1047,-571.5 991,-571.5"/>
<text text-anchor="middle" x="1019" y="-578.5" font-family="Helvetica,sans-Serif" font-size="10.00" fill="#000000">sstream</text>
</g>
<!-- Node0&#45;&gt;Node39 -->
<g id="edge62" class="edge">
<title>Node0&#45;&gt;Node39</title>
<path fill="none" stroke="#191970" d="M903.7298,-627.4283C931.5981,-616.2035 962.9841,-603.5619 985.9609,-594.3074"/>
<polygon fill="#191970" stroke="#191970" points="987.2902,-597.5453 995.2584,-590.5626 984.6749,-591.0522 987.2902,-597.5453"/>
</g>
<!-- Node40 -->
<g id="node41" class="node">
<title>Node40</title>
<polygon fill="none" stroke="#bfbfbf" points="1065.5,-571.5 1065.5,-590.5 1140.5,-590.5 1140.5,-571.5 1065.5,-571.5"/>
<text text-anchor="middle" x="1103" y="-578.5" font-family="Helvetica,sans-Serif" font-size="10.00" fill="#000000">FairLogger.h</text>
</g>
<!-- Node0&#45;&gt;Node40 -->
<g id="edge64" class="edge">
<title>Node0&#45;&gt;Node40</title>
<path fill="none" stroke="#191970" d="M910.7904,-633.7848C957.9444,-620.8353 1018.1446,-604.3031 1058.4967,-593.2216"/>
<polygon fill="#191970" stroke="#191970" points="1059.5919,-596.5504 1068.308,-590.5272 1057.7381,-589.8003 1059.5919,-596.5504"/>
</g>
<!-- Node2 -->
<g id="node3" class="node">
<title>Node2</title>
<polygon fill="none" stroke="#bfbfbf" points="583,-515.5 583,-534.5 657,-534.5 657,-515.5 583,-515.5"/>
<text text-anchor="middle" x="620" y="-522.5" font-family="Helvetica,sans-Serif" font-size="10.00" fill="#000000">TGraph2D.h</text>
</g>
<!-- Node1&#45;&gt;Node2 -->
<g id="edge2" class="edge">
<title>Node1&#45;&gt;Node2</title>
<path fill="none" stroke="#191970" d="M655.51,-571.2455C649.4674,-563.3761 640.8097,-552.101 633.5559,-542.6542"/>
<polygon fill="#191970" stroke="#191970" points="636.2705,-540.4426 627.4042,-534.6427 630.7185,-544.7058 636.2705,-540.4426"/>
</g>
<!-- Node1&#45;&gt;Node3 -->
<g id="edge3" class="edge">
<title>Node1&#45;&gt;Node3</title>
<path fill="none" stroke="#191970" d="M674.4963,-571.2455C684.2442,-562.9746 698.4259,-550.9416 709.8798,-541.2232"/>
<polygon fill="#191970" stroke="#191970" points="712.2747,-543.7813 717.6354,-534.6427 707.7459,-538.4437 712.2747,-543.7813"/>
</g>
<!-- Node4 -->
<g id="node5" class="node">
<title>Node4</title>
<polygon fill="none" stroke="#bfbfbf" points="967,-459.5 967,-478.5 1005,-478.5 1005,-459.5 967,-459.5"/>
<text text-anchor="middle" x="986" y="-466.5" font-family="Helvetica,sans-Serif" font-size="10.00" fill="#000000">map</text>
</g>
<!-- Node3&#45;&gt;Node4 -->
<g id="edge4" class="edge">
<title>Node3&#45;&gt;Node4</title>
<path fill="none" stroke="#191970" d="M782.7292,-516.473C827.1863,-508.9072 892.0842,-496.6904 956.865,-479.0207"/>
<polygon fill="#191970" stroke="#191970" points="958.1361,-482.3004 966.8378,-476.2563 956.2662,-475.5548 958.1361,-482.3004"/>
</g>
<!-- Node5 -->
<g id="node6" class="node">
<title>Node5</title>
<polygon fill="none" stroke="#bfbfbf" points="801.5,-403.5 801.5,-422.5 848.5,-422.5 848.5,-403.5 801.5,-403.5"/>
<text text-anchor="middle" x="825" y="-410.5" font-family="Helvetica,sans-Serif" font-size="10.00" fill="#000000">vector</text>
</g>
<!-- Node3&#45;&gt;Node5 -->
<g id="edge5" class="edge">
<title>Node3&#45;&gt;Node5</title>
<path fill="none" stroke="#191970" d="M729.5667,-515.499C730.8308,-501.7255 734.9038,-476.004 748,-459 759.2521,-444.3904 776.571,-433.4538 791.936,-425.9184"/>
<polygon fill="#191970" stroke="#191970" points="793.5586,-429.0245 801.1787,-421.6636 790.6314,-422.6659 793.5586,-429.0245"/>
</g>
<!-- Node6 -->
<g id="node7" class="node">
<title>Node6</title>
<polygon fill="none" stroke="#bfbfbf" points="757,-459.5 757,-478.5 799,-478.5 799,-459.5 757,-459.5"/>
<text text-anchor="middle" x="778" y="-466.5" font-family="Helvetica,sans-Serif" font-size="10.00" fill="#000000">array</text>
</g>
<!-- Node3&#45;&gt;Node6 -->
<g id="edge6" class="edge">
<title>Node3&#45;&gt;Node6</title>
<path fill="none" stroke="#191970" d="M737.5351,-515.2455C744.4912,-507.2958 754.4883,-495.8706 762.8051,-486.3656"/>
<polygon fill="#191970" stroke="#191970" points="765.6116,-488.4732 769.5627,-478.6427 760.3436,-483.8637 765.6116,-488.4732"/>
</g>
<!-- Node3&#45;&gt;Node7 -->
<g id="edge7" class="edge">
<title>Node3&#45;&gt;Node7</title>
<path fill="none" stroke="#191970" d="M782.797,-516.906C787.5969,-516.2392 792.3844,-515.594 797,-515 941.5772,-496.3927 979.8664,-506.5965 1123,-479 1124.254,-478.7582 1125.528,-478.4945 1126.8115,-478.2136"/>
<polygon fill="#191970" stroke="#191970" points="1127.7814,-481.5797 1136.6639,-475.8045 1126.1187,-474.78 1127.7814,-481.5797"/>
</g>
<!-- Node3&#45;&gt;Node8 -->
<g id="edge8" class="edge">
<title>Node3&#45;&gt;Node8</title>
<path fill="none" stroke="#191970" d="M675.4205,-516.2275C672.2363,-515.7894 669.078,-515.376 666,-515 480.471,-492.3349 423.5463,-540.3686 247,-479 196.7004,-461.5156 147,-466.2518 147,-413 147,-413 147,-413 147,-301 147,-268.7116 147,-231.1872 147,-208.8048"/>
<polygon fill="#191970" stroke="#191970" points="150.5001,-208.5883 147,-198.5884 143.5001,-208.5884 150.5001,-208.5883"/>
</g>
<!-- Node9 -->
<g id="node10" class="node">
<title>Node9</title>
<g id="a_node10"><a xlink:href="../../d1/d73/Defs_8h.html" target="_top" xlink:title="DataFormatsTPC/Defs.h">
<polygon fill="none" stroke="#000000" points="589.5,-235.5 589.5,-254.5 722.5,-254.5 722.5,-235.5 589.5,-235.5"/>
<text text-anchor="middle" x="656" y="-242.5" font-family="Helvetica,sans-Serif" font-size="10.00" fill="#000000">DataFormatsTPC/Defs.h</text>
</a>
</g>
</g>
<!-- Node3&#45;&gt;Node9 -->
<g id="edge9" class="edge">
<title>Node3&#45;&gt;Node9</title>
<path fill="none" stroke="#191970" d="M782.6473,-523.0475C855.5224,-519.2997 980.573,-508.6303 1014,-479 1036.8424,-458.7521 1033,-443.5246 1033,-413 1033,-413 1033,-413 1033,-357 1033,-294.9266 842.821,-264.5296 732.6119,-252.1258"/>
<polygon fill="#191970" stroke="#191970" points="732.8551,-248.6315 722.5322,-251.0163 732.0892,-255.5895 732.8551,-248.6315"/>
</g>
<!-- Node14 -->
<g id="node15" class="node">
<title>Node14</title>
<g id="a_node15"><a xlink:href="../../dc/d73/Cartesian_8h.html" target="_top" xlink:title="MathUtils/Cartesian.h">
<polygon fill="none" stroke="#000000" points="1007,-179.5 1007,-198.5 1129,-198.5 1129,-179.5 1007,-179.5"/>
<text text-anchor="middle" x="1068" y="-186.5" font-family="Helvetica,sans-Serif" font-size="10.00" fill="#000000">MathUtils/Cartesian.h</text>
</a>
</g>
</g>
<!-- Node3&#45;&gt;Node14 -->
<g id="edge57" class="edge">
<title>Node3&#45;&gt;Node14</title>
<path fill="none" stroke="#191970" d="M782.7804,-522.6078C859.4417,-518.2588 995.2693,-506.788 1035,-479 1062.3808,-459.8496 1071,-446.4132 1071,-413 1071,-413 1071,-413 1071,-301 1071,-268.7 1069.7378,-231.1791 1068.8508,-208.8005"/>
<polygon fill="#191970" stroke="#191970" points="1072.3387,-208.4334 1068.4298,-198.5861 1065.3447,-208.7217 1072.3387,-208.4334"/>
</g>
<!-- Node26 -->
<g id="node27" class="node">
<title>Node26</title>
<g id="a_node27"><a xlink:href="../../de/d41/PadPos_8h.html" target="_top" xlink:title="TPCBase/PadPos.h">
<polygon fill="none" stroke="#000000" points="350,-347.5 350,-366.5 456,-366.5 456,-347.5 350,-347.5"/>
<text text-anchor="middle" x="403" y="-354.5" font-family="Helvetica,sans-Serif" font-size="10.00" fill="#000000">TPCBase/PadPos.h</text>
</a>
</g>
</g>
<!-- Node3&#45;&gt;Node26 -->
<g id="edge29" class="edge">
<title>Node3&#45;&gt;Node26</title>
<path fill="none" stroke="#191970" d="M675.4005,-516.3784C672.2213,-515.9024 669.0695,-515.4394 666,-515 603.4624,-506.047 425.7475,-526.4158 384,-479 358.6276,-450.1826 378.0615,-401.9662 392.0229,-375.6043"/>
<polygon fill="#191970" stroke="#191970" points="395.1976,-377.0971 397.001,-366.6569 389.0806,-373.6938 395.1976,-377.0971"/>
</g>
<!-- Node27 -->
<g id="node28" class="node">
<title>Node27</title>
<g id="a_node28"><a xlink:href="../../dd/d0b/PadSecPos_8h.html" target="_top" xlink:title="TPCBase/PadSecPos.h">
<polygon fill="none" stroke="#000000" points="213.5,-403.5 213.5,-422.5 336.5,-422.5 336.5,-403.5 213.5,-403.5"/>
<text text-anchor="middle" x="275" y="-410.5" font-family="Helvetica,sans-Serif" font-size="10.00" fill="#000000">TPCBase/PadSecPos.h</text>
</a>
</g>
</g>
<!-- Node3&#45;&gt;Node27 -->
<g id="edge30" class="edge">
<title>Node3&#45;&gt;Node27</title>
<path fill="none" stroke="#191970" d="M675.4073,-516.3303C672.2263,-515.8663 669.0724,-515.4192 666,-515 526.3823,-495.9503 479.9819,-535.742 351,-479 326.1664,-468.0751 303.5023,-446.1277 289.5095,-430.5448"/>
<polygon fill="#191970" stroke="#191970" points="291.8636,-427.9171 282.6691,-422.6528 286.574,-432.5018 291.8636,-427.9171"/>
</g>
<!-- Node28 -->
<g id="node29" class="node">
<title>Node28</title>
<g id="a_node29"><a xlink:href="../../d3/dd6/Sector_8h.html" target="_top" xlink:title="TPCBase/Sector.h">
<polygon fill="none" stroke="#000000" points="403.5,-291.5 403.5,-310.5 504.5,-310.5 504.5,-291.5 403.5,-291.5"/>
<text text-anchor="middle" x="454" y="-298.5" font-family="Helvetica,sans-Serif" font-size="10.00" fill="#000000">TPCBase/Sector.h</text>
</a>
</g>
</g>
<!-- Node3&#45;&gt;Node28 -->
<g id="edge56" class="edge">
<title>Node3&#45;&gt;Node28</title>
<path fill="none" stroke="#191970" d="M675.4126,-516.29C672.2304,-515.8362 669.0746,-515.4023 666,-515 562.2022,-501.4189 259.1926,-511.9505 204,-423 157.4016,-347.9002 305.182,-317.8271 393.247,-306.7829"/>
<polygon fill="#191970" stroke="#191970" points="393.9011,-310.2295 403.4109,-305.559 393.0641,-303.2798 393.9011,-310.2295"/>
</g>
<!-- Node30 -->
<g id="node31" class="node">
<title>Node30</title>
<g id="a_node31"><a xlink:href="../../da/d61/PadROCPos_8h.html" target="_top" xlink:title="TPCBase/PadROCPos.h">
<polygon fill="none" stroke="#000000" points="469.5,-403.5 469.5,-422.5 596.5,-422.5 596.5,-403.5 469.5,-403.5"/>
<text text-anchor="middle" x="533" y="-410.5" font-family="Helvetica,sans-Serif" font-size="10.00" fill="#000000">TPCBase/PadROCPos.h</text>
</a>
</g>
</g>
<!-- Node3&#45;&gt;Node30 -->
<g id="edge35" class="edge">
<title>Node3&#45;&gt;Node30</title>
<path fill="none" stroke="#191970" d="M682.6956,-515.4458C633.4912,-504.907 561.4659,-488.2226 552,-479 539.6138,-466.9322 535.1637,-447.3549 533.6331,-432.65"/>
<polygon fill="#191970" stroke="#191970" points="537.1175,-432.3001 532.9486,-422.5599 530.1336,-432.7739 537.1175,-432.3001"/>
</g>
<!-- Node32 -->
<g id="node33" class="node">
<title>Node32</title>
<g id="a_node33"><a xlink:href="../../d3/d54/DigitPos_8h.html" target="_top" xlink:title="TPCBase/DigitPos.h">
<polygon fill="none" stroke="#000000" points="393,-459.5 393,-478.5 505,-478.5 505,-459.5 393,-459.5"/>
<text text-anchor="middle" x="449" y="-466.5" font-family="Helvetica,sans-Serif" font-size="10.00" fill="#000000">TPCBase/DigitPos.h</text>
</a>
</g>
</g>
<!-- Node3&#45;&gt;Node32 -->
<g id="edge41" class="edge">
<title>Node3&#45;&gt;Node32</title>
<path fill="none" stroke="#191970" d="M681.1844,-515.4369C632.8619,-505.7724 558.1628,-490.8326 506.6064,-480.5213"/>
<polygon fill="#191970" stroke="#191970" points="507.1106,-477.0529 496.6184,-478.5237 505.7377,-483.9169 507.1106,-477.0529"/>
</g>
<!-- Node34 -->
<g id="node35" class="node">
<title>Node34</title>
<g id="a_node35"><a xlink:href="../../d1/d1f/FECInfo_8h.html" target="_top" xlink:title="TPCBase/FECInfo.h">
<polygon fill="none" stroke="#000000" points="1281,-291.5 1281,-310.5 1389,-310.5 1389,-291.5 1281,-291.5"/>
<text text-anchor="middle" x="1335" y="-298.5" font-family="Helvetica,sans-Serif" font-size="10.00" fill="#000000">TPCBase/FECInfo.h</text>
</a>
</g>
</g>
<!-- Node3&#45;&gt;Node34 -->
<g id="edge49" class="edge">
<title>Node3&#45;&gt;Node34</title>
<path fill="none" stroke="#191970" d="M782.5374,-521.2816C868.0006,-514.8119 1031.1138,-500.1251 1085,-479 1135.7725,-459.0956 1265.2029,-357.2053 1315.029,-317.1758"/>
<polygon fill="#191970" stroke="#191970" points="1317.5178,-319.6652 1323.1087,-310.6656 1313.1259,-314.2144 1317.5178,-319.6652"/>
</g>
<!-- Node35 -->
<g id="node36" class="node">
<title>Node35</title>
<g id="a_node36"><a xlink:href="../../da/d9d/PadRegionInfo_8h.html" target="_top" xlink:title="TPCBase/PadRegionInfo.h">
<polygon fill="none" stroke="#000000" points="561,-459.5 561,-478.5 701,-478.5 701,-459.5 561,-459.5"/>
<text text-anchor="middle" x="631" y="-466.5" font-family="Helvetica,sans-Serif" font-size="10.00" fill="#000000">TPCBase/PadRegionInfo.h</text>
</a>
</g>
</g>
<!-- Node3&#45;&gt;Node35 -->
<g id="edge51" class="edge">
<title>Node3&#45;&gt;Node35</title>
<path fill="none" stroke="#191970" d="M711.9297,-515.2455C696.753,-506.5731 674.3379,-493.7645 656.9437,-483.825"/>
<polygon fill="#191970" stroke="#191970" points="658.2936,-480.5653 647.8747,-478.6427 654.8206,-486.643 658.2936,-480.5653"/>
</g>
<!-- Node36 -->
<g id="node37" class="node">
<title>Node36</title>
<g id="a_node37"><a xlink:href="../../d6/d42/PartitionInfo_8h.html" target="_top" xlink:title="TPCBase/PartitionInfo.h">
<polygon fill="none" stroke="#000000" points="817.5,-459.5 817.5,-478.5 948.5,-478.5 948.5,-459.5 817.5,-459.5"/>
<text text-anchor="middle" x="883" y="-466.5" font-family="Helvetica,sans-Serif" font-size="10.00" fill="#000000">TPCBase/PartitionInfo.h</text>
</a>
</g>
</g>
<!-- Node3&#45;&gt;Node36 -->
<g id="edge55" class="edge">
<title>Node3&#45;&gt;Node36</title>
<path fill="none" stroke="#191970" d="M755.4735,-515.3733C780.8597,-506.1419 819.3645,-492.1402 847.422,-481.9375"/>
<polygon fill="#191970" stroke="#191970" points="848.6701,-485.2079 856.8719,-478.5011 846.2778,-478.6293 848.6701,-485.2079"/>
</g>
<!-- Node9&#45;&gt;Node8 -->
<g id="edge10" class="edge">
<title>Node9&#45;&gt;Node8</title>
<path fill="none" stroke="#191970" d="M589.4571,-237.679C479.4819,-225.5795 263.7096,-201.8403 180.6737,-192.7048"/>
<polygon fill="#191970" stroke="#191970" points="180.8626,-189.2045 170.5398,-191.5898 180.0971,-196.1625 180.8626,-189.2045"/>
</g>
<!-- Node10 -->
<g id="node11" class="node">
<title>Node10</title>
<g id="a_node11"><a xlink:href="../../d1/da8/GPUROOTCartesianFwd_8h.html" target="_top" xlink:title="GPUROOTCartesianFwd.h">
<polygon fill="none" stroke="#000000" points="0,-118 0,-137 140,-137 140,-118 0,-118"/>
<text text-anchor="middle" x="70" y="-125" font-family="Helvetica,sans-Serif" font-size="10.00" fill="#000000">GPUROOTCartesianFwd.h</text>
</a>
</g>
</g>
<!-- Node9&#45;&gt;Node10 -->
<g id="edge11" class="edge">
<title>Node9&#45;&gt;Node10</title>
<path fill="none" stroke="#191970" d="M608.5415,-235.484C501.8195,-214.085 243.2157,-162.2318 127.5645,-139.0424"/>
<polygon fill="#191970" stroke="#191970" points="127.9848,-135.5571 117.4918,-137.0227 126.6086,-142.4204 127.9848,-135.5571"/>
</g>
<!-- Node9&#45;&gt;Node14 -->
<g id="edge15" class="edge">
<title>Node9&#45;&gt;Node14</title>
<path fill="none" stroke="#191970" d="M722.6528,-235.9404C797.8484,-225.7196 919.6777,-209.1603 996.7239,-198.688"/>
<polygon fill="#191970" stroke="#191970" points="997.385,-202.1304 1006.8224,-197.3154 996.4421,-195.1942 997.385,-202.1304"/>
</g>
<!-- Node11 -->
<g id="node12" class="node">
<title>Node11</title>
<g id="a_node12"><a xlink:href="../../df/d21/GPUCommonDef_8h.html" target="_top" xlink:title="GPUCommonDef.h">
<polygon fill="none" stroke="#000000" points="583.5,-56.5 583.5,-75.5 690.5,-75.5 690.5,-56.5 583.5,-56.5"/>
<text text-anchor="middle" x="637" y="-63.5" font-family="Helvetica,sans-Serif" font-size="10.00" fill="#000000">GPUCommonDef.h</text>
</a>
</g>
</g>
<!-- Node10&#45;&gt;Node11 -->
<g id="edge12" class="edge">
<title>Node10&#45;&gt;Node11</title>
<path fill="none" stroke="#191970" d="M114.5709,-117.9487C125.7728,-115.7708 137.7958,-113.6231 149,-112 300.3925,-90.0687 479.7919,-76.256 573.2179,-69.974"/>
<polygon fill="#191970" stroke="#191970" points="573.6109,-73.4557 583.3564,-69.2992 573.146,-66.4711 573.6109,-73.4557"/>
</g>
<!-- Node12 -->
<g id="node13" class="node">
<title>Node12</title>
<g id="a_node13"><a xlink:href="../../d5/d93/GPUCommonDefSettings_8h.html" target="_top" xlink:title="GPUCommonDefSettings.h">
<polygon fill="none" stroke="#000000" points="486,-.5 486,-19.5 634,-19.5 634,-.5 486,-.5"/>
<text text-anchor="middle" x="560" y="-7.5" font-family="Helvetica,sans-Serif" font-size="10.00" fill="#000000">GPUCommonDefSettings.h</text>
</a>
</g>
</g>
<!-- Node11&#45;&gt;Node12 -->
<g id="edge13" class="edge">
<title>Node11&#45;&gt;Node12</title>
<path fill="none" stroke="#191970" d="M623.5876,-56.2455C611.9943,-47.814 595.0252,-35.4729 581.5322,-25.6598"/>
<polygon fill="#191970" stroke="#191970" points="583.4047,-22.6938 573.2587,-19.6427 579.2874,-28.355 583.4047,-22.6938"/>
</g>
<!-- Node13 -->
<g id="node14" class="node">
<title>Node13</title>
<g id="a_node14"><a xlink:href="../../da/d5a/GPUCommonDefAPI_8h.html" target="_top" xlink:title="GPUCommonDefAPI.h">
<polygon fill="none" stroke="#000000" points="652,-.5 652,-19.5 776,-19.5 776,-.5 652,-.5"/>
<text text-anchor="middle" x="714" y="-7.5" font-family="Helvetica,sans-Serif" font-size="10.00" fill="#000000">GPUCommonDefAPI.h</text>
</a>
</g>
</g>
<!-- Node11&#45;&gt;Node13 -->
<g id="edge14" class="edge">
<title>Node11&#45;&gt;Node13</title>
<path fill="none" stroke="#191970" d="M650.4124,-56.2455C662.0057,-47.814 678.9748,-35.4729 692.4678,-25.6598"/>
<polygon fill="#191970" stroke="#191970" points="694.7126,-28.355 700.7413,-19.6427 690.5953,-22.6938 694.7126,-28.355"/>
</g>
<!-- Node14&#45;&gt;Node10 -->
<g id="edge28" class="edge">
<title>Node14&#45;&gt;Node10</title>
<path fill="none" stroke="#191970" d="M1006.7267,-187.0841C829.0683,-181.3464 315.7888,-163.429 149,-143 140.5244,-141.9619 131.5949,-140.5365 122.9109,-138.9678"/>
<polygon fill="#191970" stroke="#191970" points="123.3466,-135.4883 112.8712,-137.075 122.0497,-142.3672 123.3466,-135.4883"/>
</g>
<!-- Node14&#45;&gt;Node11 -->
<g id="edge16" class="edge">
<title>Node14&#45;&gt;Node11</title>
<path fill="none" stroke="#191970" d="M1112.2618,-179.4714C1159.717,-167.3436 1224.52,-144.0537 1195,-112 1162.0761,-76.2503 840.035,-68.2833 700.7055,-66.5085"/>
<polygon fill="#191970" stroke="#191970" points="700.6375,-63.0075 690.596,-66.3865 700.553,-70.007 700.6375,-63.0075"/>
</g>
<!-- Node15 -->
<g id="node16" class="node">
<title>Node15</title>
<g id="a_node16"><a xlink:href="../../d2/d45/GPUCommonRtypes_8h.html" target="_top" xlink:title="GPUCommonRtypes.h">
<polygon fill="none" stroke="#000000" points="1242.5,-118 1242.5,-137 1367.5,-137 1367.5,-118 1242.5,-118"/>
<text text-anchor="middle" x="1305" y="-125" font-family="Helvetica,sans-Serif" font-size="10.00" fill="#000000">GPUCommonRtypes.h</text>
</a>
</g>
</g>
<!-- Node14&#45;&gt;Node15 -->
<g id="edge17" class="edge">
<title>Node14&#45;&gt;Node15</title>
<path fill="none" stroke="#191970" d="M1104.7712,-179.4581C1146.1106,-168.7308 1213.3233,-151.2895 1258.3322,-139.61"/>
<polygon fill="#191970" stroke="#191970" points="1259.3422,-142.9639 1268.1425,-137.0643 1257.584,-136.1883 1259.3422,-142.9639"/>
</g>
<!-- Node17 -->
<g id="node18" class="node">
<title>Node17</title>
<polygon fill="none" stroke="#bfbfbf" points="1386,-112.5 1386,-142.5 1550,-142.5 1550,-112.5 1386,-112.5"/>
<text text-anchor="start" x="1394" y="-130.5" font-family="Helvetica,sans-Serif" font-size="10.00" fill="#000000">Math/GenVector/Displacement</text>
<text text-anchor="middle" x="1468" y="-119.5" font-family="Helvetica,sans-Serif" font-size="10.00" fill="#000000">Vector3D.h</text>
</g>
<!-- Node14&#45;&gt;Node17 -->
<g id="edge19" class="edge">
<title>Node14&#45;&gt;Node17</title>
<path fill="none" stroke="#191970" d="M1129.033,-180.2987C1189.2123,-171.6319 1284.0779,-157.7375 1375.6751,-143.1943"/>
<polygon fill="#191970" stroke="#191970" points="1376.3478,-146.6313 1385.6729,-141.6022 1375.2468,-139.7184 1376.3478,-146.6313"/>
</g>
<!-- Node18 -->
<g id="node19" class="node">
<title>Node18</title>
<polygon fill="none" stroke="#bfbfbf" points="1568.5,-118 1568.5,-137 1757.5,-137 1757.5,-118 1568.5,-118"/>
<text text-anchor="middle" x="1663" y="-125" font-family="Helvetica,sans-Serif" font-size="10.00" fill="#000000">Math/GenVector/PositionVector3D.h</text>
</g>
<!-- Node14&#45;&gt;Node18 -->
<g id="edge20" class="edge">
<title>Node14&#45;&gt;Node18</title>
<path fill="none" stroke="#191970" d="M1129.3522,-184.3333C1222.4084,-177.0107 1404.7366,-161.7077 1559,-143 1569.8917,-141.6792 1581.4016,-140.1242 1592.639,-138.5178"/>
<polygon fill="#191970" stroke="#191970" points="1593.464,-141.9348 1602.8569,-137.0334 1592.4575,-135.0075 1593.464,-141.9348"/>
</g>
<!-- Node19 -->
<g id="node20" class="node">
<title>Node19</title>
<polygon fill="none" stroke="#bfbfbf" points="158,-118 158,-137 318,-137 318,-118 158,-118"/>
<text text-anchor="middle" x="238" y="-125" font-family="Helvetica,sans-Serif" font-size="10.00" fill="#000000">Math/GenVector/Rotation3D.h</text>
</g>
<!-- Node14&#45;&gt;Node19 -->
<g id="edge21" class="edge">
<title>Node14&#45;&gt;Node19</title>
<path fill="none" stroke="#191970" d="M1006.8002,-187.4866C879.737,-183.8418 578.2178,-172.5817 327,-143 317.1869,-141.8445 306.8137,-140.319 296.7503,-138.6756"/>
<polygon fill="#191970" stroke="#191970" points="297.265,-135.2131 286.8224,-137.0022 296.1015,-142.1157 297.265,-135.2131"/>
</g>
<!-- Node20 -->
<g id="node21" class="node">
<title>Node20</title>
<polygon fill="none" stroke="#bfbfbf" points="336,-118 336,-137 504,-137 504,-118 336,-118"/>
<text text-anchor="middle" x="420" y="-125" font-family="Helvetica,sans-Serif" font-size="10.00" fill="#000000">Math/GenVector/Transform3D.h</text>
</g>
<!-- Node14&#45;&gt;Node20 -->
<g id="edge22" class="edge">
<title>Node14&#45;&gt;Node20</title>
<path fill="none" stroke="#191970" d="M1006.6458,-185.5734C904.1431,-179.4773 691.6941,-165.2581 513,-143 503.1324,-141.7709 492.7108,-140.2523 482.554,-138.6508"/>
<polygon fill="#191970" stroke="#191970" points="482.9459,-135.1688 472.5157,-137.0293 481.8296,-142.0792 482.9459,-135.1688"/>
</g>
<!-- Node21 -->
<g id="node22" class="node">
<title>Node21</title>
<polygon fill="none" stroke="#bfbfbf" points="522.5,-118 522.5,-137 695.5,-137 695.5,-118 522.5,-118"/>
<text text-anchor="middle" x="609" y="-125" font-family="Helvetica,sans-Serif" font-size="10.00" fill="#000000">Math/GenVector/Translation3D.h</text>
</g>
<!-- Node14&#45;&gt;Node21 -->
<g id="edge23" class="edge">
<title>Node14&#45;&gt;Node21</title>
<path fill="none" stroke="#191970" d="M1006.8984,-181.9004C934.6869,-173.3611 810.9458,-158.2612 705,-143 695.6365,-141.6512 685.7726,-140.1503 676.076,-138.6284"/>
<polygon fill="#191970" stroke="#191970" points="676.4843,-135.1495 666.0596,-137.0403 675.3881,-142.0631 676.4843,-135.1495"/>
</g>
<!-- Node22 -->
<g id="node23" class="node">
<title>Node22</title>
<polygon fill="none" stroke="#bfbfbf" points="714,-112.5 714,-142.5 878,-142.5 878,-112.5 714,-112.5"/>
<text text-anchor="start" x="722" y="-130.5" font-family="Helvetica,sans-Serif" font-size="10.00" fill="#000000">Math/GenVector/Displacement</text>
<text text-anchor="middle" x="796" y="-119.5" font-family="Helvetica,sans-Serif" font-size="10.00" fill="#000000">Vector2D.h</text>
</g>
<!-- Node14&#45;&gt;Node22 -->
<g id="edge24" class="edge">
<title>Node14&#45;&gt;Node22</title>
<path fill="none" stroke="#191970" d="M1025.7984,-179.4581C984.9652,-170.2256 922.1369,-156.0199 872.489,-144.7944"/>
<polygon fill="#191970" stroke="#191970" points="872.9526,-141.3109 862.4269,-142.5193 871.4088,-148.1386 872.9526,-141.3109"/>
</g>
<!-- Node23 -->
<g id="node24" class="node">
<title>Node23</title>
<polygon fill="none" stroke="#bfbfbf" points="896.5,-118 896.5,-137 1085.5,-137 1085.5,-118 896.5,-118"/>
<text text-anchor="middle" x="991" y="-125" font-family="Helvetica,sans-Serif" font-size="10.00" fill="#000000">Math/GenVector/PositionVector2D.h</text>
</g>
<!-- Node14&#45;&gt;Node23 -->
<g id="edge25" class="edge">
<title>Node14&#45;&gt;Node23</title>
<path fill="none" stroke="#191970" d="M1055.9688,-179.3906C1043.9893,-169.8227 1025.3834,-154.9621 1011.1475,-143.5919"/>
<polygon fill="#191970" stroke="#191970" points="1012.9447,-140.5479 1002.9468,-137.0419 1008.5761,-146.0175 1012.9447,-140.5479"/>
</g>
<!-- Node24 -->
<g id="node25" class="node">
<title>Node24</title>
<polygon fill="none" stroke="#bfbfbf" points="1104,-118 1104,-137 1186,-137 1186,-118 1104,-118"/>
<text text-anchor="middle" x="1145" y="-125" font-family="Helvetica,sans-Serif" font-size="10.00" fill="#000000">TGeoMatrix.h</text>
</g>
<!-- Node14&#45;&gt;Node24 -->
<g id="edge26" class="edge">
<title>Node14&#45;&gt;Node24</title>
<path fill="none" stroke="#191970" d="M1080.0313,-179.3906C1092.0107,-169.8227 1110.6166,-154.9621 1124.8525,-143.5919"/>
<polygon fill="#191970" stroke="#191970" points="1127.4239,-146.0175 1133.0532,-137.0419 1123.0553,-140.5479 1127.4239,-146.0175"/>
</g>
<!-- Node25 -->
<g id="node26" class="node">
<title>Node25</title>
<polygon fill="none" stroke="#bfbfbf" points="1775.5,-118 1775.5,-137 1824.5,-137 1824.5,-118 1775.5,-118"/>
<text text-anchor="middle" x="1800" y="-125" font-family="Helvetica,sans-Serif" font-size="10.00" fill="#000000">iosfwd</text>
</g>
<!-- Node14&#45;&gt;Node25 -->
<g id="edge27" class="edge">
<title>Node14&#45;&gt;Node25</title>
<path fill="none" stroke="#191970" d="M1129.0176,-187.8888C1276.1549,-184.743 1647.1762,-173.9042 1767,-143 1768.9766,-142.4902 1770.979,-141.8629 1772.9691,-141.1557"/>
<polygon fill="#191970" stroke="#191970" points="1774.7562,-144.203 1782.6436,-137.1291 1772.0664,-137.7404 1774.7562,-144.203"/>
</g>
<!-- Node16 -->
<g id="node17" class="node">
<title>Node16</title>
<polygon fill="none" stroke="#bfbfbf" points="1275.5,-56.5 1275.5,-75.5 1334.5,-75.5 1334.5,-56.5 1275.5,-56.5"/>
<text text-anchor="middle" x="1305" y="-63.5" font-family="Helvetica,sans-Serif" font-size="10.00" fill="#000000">Rtypes.h</text>
</g>
<!-- Node15&#45;&gt;Node16 -->
<g id="edge18" class="edge">
<title>Node15&#45;&gt;Node16</title>
<path fill="none" stroke="#191970" d="M1305,-117.8906C1305,-109.3657 1305,-96.6392 1305,-85.9235"/>
<polygon fill="#191970" stroke="#191970" points="1308.5001,-85.7448 1305,-75.7449 1301.5001,-85.7449 1308.5001,-85.7448"/>
</g>
<!-- Node27&#45;&gt;Node26 -->
<g id="edge34" class="edge">
<title>Node27&#45;&gt;Node26</title>
<path fill="none" stroke="#191970" d="M297.004,-403.3733C317.6435,-394.3435 348.7158,-380.7494 371.8889,-370.6111"/>
<polygon fill="#191970" stroke="#191970" points="373.5245,-373.7159 381.2831,-366.5011 370.7187,-367.3028 373.5245,-373.7159"/>
</g>
<!-- Node27&#45;&gt;Node28 -->
<g id="edge31" class="edge">
<title>Node27&#45;&gt;Node28</title>
<path fill="none" stroke="#191970" d="M282.5714,-403.2682C293.9414,-389.2071 316.6982,-363.1309 341,-347 362.5781,-332.677 389.3223,-321.5422 411.375,-313.8176"/>
<polygon fill="#191970" stroke="#191970" points="412.7933,-317.0325 421.1417,-310.5091 410.5474,-310.4026 412.7933,-317.0325"/>
</g>
<!-- Node28&#45;&gt;Node9 -->
<g id="edge33" class="edge">
<title>Node28&#45;&gt;Node9</title>
<path fill="none" stroke="#191970" d="M488.725,-291.3733C522.7508,-281.9404 574.7437,-267.5265 611.7234,-257.2747"/>
<polygon fill="#191970" stroke="#191970" points="613.0266,-260.5455 621.7281,-254.5011 611.1565,-253.7999 613.0266,-260.5455"/>
</g>
<!-- Node29 -->
<g id="node30" class="node">
<title>Node29</title>
<g id="a_node30"><a xlink:href="../../d0/dda/DataFormats_2Detectors_2TPC_2include_2DataFormatsTPC_2Constants_8h.html" target="_top" xlink:title="DataFormatsTPC/Constants.h">
<polygon fill="none" stroke="#000000" points="374.5,-235.5 374.5,-254.5 533.5,-254.5 533.5,-235.5 374.5,-235.5"/>
<text text-anchor="middle" x="454" y="-242.5" font-family="Helvetica,sans-Serif" font-size="10.00" fill="#000000">DataFormatsTPC/Constants.h</text>
</a>
</g>
</g>
<!-- Node28&#45;&gt;Node29 -->
<g id="edge32" class="edge">
<title>Node28&#45;&gt;Node29</title>
<path fill="none" stroke="#191970" d="M454,-291.2455C454,-283.9382 454,-273.6944 454,-264.7046"/>
<polygon fill="#191970" stroke="#191970" points="457.5001,-264.6426 454,-254.6427 450.5001,-264.6427 457.5001,-264.6426"/>
</g>
<!-- Node30&#45;&gt;Node9 -->
<g id="edge36" class="edge">
<title>Node30&#45;&gt;Node9</title>
<path fill="none" stroke="#191970" d="M534.1893,-403.4293C536.1902,-390.0167 541.1297,-365.2292 552,-347 573.4569,-311.0173 610.6926,-278.8924 634.3017,-260.6997"/>
<polygon fill="#191970" stroke="#191970" points="636.452,-263.4617 642.3287,-254.6461 632.2372,-257.8729 636.452,-263.4617"/>
</g>
<!-- Node30&#45;&gt;Node26 -->
<g id="edge40" class="edge">
<title>Node30&#45;&gt;Node26</title>
<path fill="none" stroke="#191970" d="M510.6522,-403.3733C489.5967,-394.3032 457.8505,-380.6279 434.2825,-370.4755"/>
<polygon fill="#191970" stroke="#191970" points="435.625,-367.243 425.0562,-366.5011 432.8556,-373.6719 435.625,-367.243"/>
</g>
<!-- Node31 -->
<g id="node32" class="node">
<title>Node31</title>
<g id="a_node32"><a xlink:href="../../dc/d14/ROC_8h.html" target="_top" xlink:title="TPCBase/ROC.h">
<polygon fill="none" stroke="#000000" points="561,-347.5 561,-366.5 653,-366.5 653,-347.5 561,-347.5"/>
<text text-anchor="middle" x="607" y="-354.5" font-family="Helvetica,sans-Serif" font-size="10.00" fill="#000000">TPCBase/ROC.h</text>
</a>
</g>
</g>
<!-- Node30&#45;&gt;Node31 -->
<g id="edge37" class="edge">
<title>Node30&#45;&gt;Node31</title>
<path fill="none" stroke="#191970" d="M545.8898,-403.2455C556.9254,-394.8943 573.0292,-382.7076 585.9353,-372.9408"/>
<polygon fill="#191970" stroke="#191970" points="588.3959,-375.4681 594.2579,-366.6427 584.1717,-369.8862 588.3959,-375.4681"/>
</g>
<!-- Node31&#45;&gt;Node9 -->
<g id="edge38" class="edge">
<title>Node31&#45;&gt;Node9</title>
<path fill="none" stroke="#191970" d="M611.1777,-347.4509C619.278,-328.936 637.2492,-287.8591 647.8106,-263.7187"/>
<polygon fill="#191970" stroke="#191970" points="651.0312,-265.0894 651.8329,-254.5249 644.6181,-262.2836 651.0312,-265.0894"/>
</g>
<!-- Node31&#45;&gt;Node28 -->
<g id="edge39" class="edge">
<title>Node31&#45;&gt;Node28</title>
<path fill="none" stroke="#191970" d="M580.6984,-347.3733C555.5872,-338.1822 517.5562,-324.2624 489.7128,-314.0713"/>
<polygon fill="#191970" stroke="#191970" points="490.5522,-310.6516 479.9584,-310.5011 488.1462,-317.2251 490.5522,-310.6516"/>
</g>
<!-- Node32&#45;&gt;Node9 -->
<g id="edge42" class="edge">
<title>Node32&#45;&gt;Node9</title>
<path fill="none" stroke="#191970" d="M505.1265,-463.1797C579.3931,-454.9042 702.5519,-438.9631 716,-423 756.8697,-374.4869 700.9914,-296.931 671.793,-262.4757"/>
<polygon fill="#191970" stroke="#191970" points="674.2233,-259.9366 665.0196,-254.6884 668.9416,-264.5306 674.2233,-259.9366"/>
</g>
<!-- Node32&#45;&gt;Node26 -->
<g id="edge47" class="edge">
<title>Node32&#45;&gt;Node26</title>
<path fill="none" stroke="#191970" d="M443.9986,-459.2554C439.3454,-450.0295 432.3452,-435.7334 427,-423 420.4463,-407.3876 413.9402,-389.2912 409.3588,-376.0004"/>
<polygon fill="#191970" stroke="#191970" points="412.6654,-374.8524 406.1331,-366.5109 406.0378,-377.1053 412.6654,-374.8524"/>
</g>
<!-- Node32&#45;&gt;Node27 -->
<g id="edge48" class="edge">
<title>Node32&#45;&gt;Node27</title>
<path fill="none" stroke="#191970" d="M419.0883,-459.3733C390.1548,-450.0613 346.1389,-435.8953 314.3707,-425.671"/>
<polygon fill="#191970" stroke="#191970" points="315.1128,-422.2331 304.5213,-422.5011 312.9682,-428.8965 315.1128,-422.2331"/>
</g>
<!-- Node33 -->
<g id="node34" class="node">
<title>Node33</title>
<g id="a_node34"><a xlink:href="../../df/d26/CRU_8h.html" target="_top" xlink:title="TPCBase/CRU.h">
<polygon fill="none" stroke="#000000" points="615,-403.5 615,-422.5 707,-422.5 707,-403.5 615,-403.5"/>
<text text-anchor="middle" x="661" y="-410.5" font-family="Helvetica,sans-Serif" font-size="10.00" fill="#000000">TPCBase/CRU.h</text>
</a>
</g>
</g>
<!-- Node32&#45;&gt;Node33 -->
<g id="edge43" class="edge">
<title>Node32&#45;&gt;Node33</title>
<path fill="none" stroke="#191970" d="M485.4441,-459.3733C521.3069,-449.9001 576.1878,-435.4032 615.0282,-425.1435"/>
<polygon fill="#191970" stroke="#191970" points="616.257,-428.439 625.0315,-422.5011 614.4692,-421.6712 616.257,-428.439"/>
</g>
<!-- Node33&#45;&gt;Node9 -->
<g id="edge44" class="edge">
<title>Node33&#45;&gt;Node9</title>
<path fill="none" stroke="#191970" d="M661.2671,-403.4862C661.5141,-394.1847 661.8628,-379.6203 662,-367 662.0966,-358.1116 662.2611,-355.8851 662,-347 661.1559,-318.2753 658.9774,-285.0592 657.4914,-264.539"/>
<polygon fill="#191970" stroke="#191970" points="660.9809,-264.2676 656.7499,-254.5542 654.0002,-264.786 660.9809,-264.2676"/>
</g>
<!-- Node33&#45;&gt;Node28 -->
<g id="edge45" class="edge">
<title>Node33&#45;&gt;Node28</title>
<path fill="none" stroke="#191970" d="M634.3494,-403.4132C611.8615,-394.9358 579.0966,-381.6632 552,-367 523.9964,-351.846 493.9218,-330.8035 474.5837,-316.5851"/>
<polygon fill="#191970" stroke="#191970" points="476.6142,-313.7334 466.5001,-310.5782 472.439,-319.352 476.6142,-313.7334"/>
</g>
<!-- Node33&#45;&gt;Node31 -->
<g id="edge46" class="edge">
<title>Node33&#45;&gt;Node31</title>
<path fill="none" stroke="#191970" d="M651.5939,-403.2455C643.8507,-395.2155 632.688,-383.6394 623.4682,-374.0781"/>
<polygon fill="#191970" stroke="#191970" points="625.7591,-371.4117 616.2983,-366.6427 620.7202,-376.2706 625.7591,-371.4117"/>
</g>
<!-- Node34&#45;&gt;Node25 -->
<g id="edge50" class="edge">
<title>Node34&#45;&gt;Node25</title>
<path fill="none" stroke="#191970" d="M1363.899,-291.4202C1433.8521,-268.0179 1617.546,-205.2864 1767,-143 1768.3511,-142.4369 1769.7274,-141.8491 1771.1133,-141.2456"/>
<polygon fill="#191970" stroke="#191970" points="1772.5576,-144.4337 1780.2338,-137.1312 1769.6791,-138.0529 1772.5576,-144.4337"/>
</g>
<!-- Node35&#45;&gt;Node5 -->
<g id="edge52" class="edge">
<title>Node35&#45;&gt;Node5</title>
<path fill="none" stroke="#191970" d="M664.3498,-459.3733C699.8464,-449.1268 755.7034,-433.0031 791.3241,-422.7209"/>
<polygon fill="#191970" stroke="#191970" points="792.6051,-425.9941 801.2421,-419.8579 790.6637,-419.2687 792.6051,-425.9941"/>
</g>
<!-- Node35&#45;&gt;Node9 -->
<g id="edge53" class="edge">
<title>Node35&#45;&gt;Node9</title>
<path fill="none" stroke="#191970" d="M668.0228,-459.4827C698.95,-450.6952 739.4777,-436.9323 749,-423 782.1036,-374.5652 779.9504,-340.8383 749,-291 739.4673,-275.6499 723.1258,-265.2666 706.7752,-258.3145"/>
<polygon fill="#191970" stroke="#191970" points="707.7877,-254.9534 697.1985,-254.6061 705.2599,-261.481 707.7877,-254.9534"/>
</g>
<!-- Node35&#45;&gt;Node26 -->
<g id="edge54" class="edge">
<title>Node35&#45;&gt;Node26</title>
<path fill="none" stroke="#191970" d="M560.6104,-459.7877C528.1447,-453.184 490.203,-441.9615 460,-423 440.674,-410.8671 424.3468,-390.1436 414.1861,-375.1504"/>
<polygon fill="#191970" stroke="#191970" points="417.0682,-373.162 408.6849,-366.6835 411.1983,-376.9759 417.0682,-373.162"/>
</g>
</g>
</svg>
