<?xml version="1.0" encoding="UTF-8" standalone="no"?>
<!DOCTYPE svg PUBLIC "-//W3C//DTD SVG 1.1//EN"
 "http://www.w3.org/Graphics/SVG/1.1/DTD/svg11.dtd">
<!-- Generated by graphviz version 2.40.1 (20161225.0304)
 -->
<!-- Title: /home/travis/build/AliceO2Group/AliceO2/Detectors/GlobalTrackingWorkflow/include/GlobalTrackingWorkflow/TrackTPCITSReaderSpec.h Pages: 1 -->
<svg width="1840pt" height="172pt"
 viewBox="0.00 0.00 1840.00 172.00" xmlns="http://www.w3.org/2000/svg" xmlns:xlink="http://www.w3.org/1999/xlink">
<g id="graph0" class="graph" transform="scale(1 1) rotate(0) translate(4 168)">
<title>/home/travis/build/AliceO2Group/AliceO2/Detectors/GlobalTrackingWorkflow/include/GlobalTrackingWorkflow/TrackTPCITSReaderSpec.h</title>
<!-- Node183 -->
<g id="node1" class="node">
<title>Node183</title>
<polygon fill="#bfbfbf" stroke="#000000" points="833.5,-100.5 833.5,-163.5 1020.5,-163.5 1020.5,-100.5 833.5,-100.5"/>
<text text-anchor="start" x="841.5" y="-151.5" font-family="Helvetica,sans-Serif" font-size="10.00" fill="#000000">/home/travis/build</text>
<text text-anchor="start" x="841.5" y="-140.5" font-family="Helvetica,sans-Serif" font-size="10.00" fill="#000000">/AliceO2Group/AliceO2</text>
<text text-anchor="start" x="841.5" y="-129.5" font-family="Helvetica,sans-Serif" font-size="10.00" fill="#000000">/Detectors/GlobalTrackingWorkflow</text>
<text text-anchor="start" x="841.5" y="-118.5" font-family="Helvetica,sans-Serif" font-size="10.00" fill="#000000">/include/GlobalTrackingWorkflow</text>
<text text-anchor="middle" x="927" y="-107.5" font-family="Helvetica,sans-Serif" font-size="10.00" fill="#000000">/TrackTPCITSReaderSpec.h</text>
</g>
<!-- Node184 -->
<g id="node2" class="node">
<title>Node184</title>
<g id="a_node2"><a xlink:href="../../df/de7/AODProducerWorkflow_8cxx.html" target="_top" xlink:title="/home/travis/build\l/AliceO2Group/AliceO2\l/Detectors/AOD/src/AODProducer\lWorkflow.cxx">
<polygon fill="none" stroke="#000000" points="0,-6 0,-58 176,-58 176,-6 0,-6"/>
<text text-anchor="start" x="8" y="-46" font-family="Helvetica,sans-Serif" font-size="10.00" fill="#000000">/home/travis/build</text>
<text text-anchor="start" x="8" y="-35" font-family="Helvetica,sans-Serif" font-size="10.00" fill="#000000">/AliceO2Group/AliceO2</text>
<text text-anchor="start" x="8" y="-24" font-family="Helvetica,sans-Serif" font-size="10.00" fill="#000000">/Detectors/AOD/src/AODProducer</text>
<text text-anchor="middle" x="88" y="-13" font-family="Helvetica,sans-Serif" font-size="10.00" fill="#000000">Workflow.cxx</text>
</a>
</g>
</g>
<!-- Node183&#45;&gt;Node184 -->
<g id="edge1" class="edge">
<title>Node183&#45;&gt;Node184</title>
<path fill="none" stroke="#191970" d="M823.2745,-129.9063C678.8107,-125.3177 409.4822,-110.6796 185,-64 177.1873,-62.3754 169.124,-60.3332 161.1397,-58.0703"/>
<polygon fill="#191970" stroke="#191970" points="823.3549,-133.4104 833.4578,-130.2196 823.5702,-126.4137 823.3549,-133.4104"/>
</g>
<!-- Node185 -->
<g id="node3" class="node">
<title>Node185</title>
<g id="a_node3"><a xlink:href="../../d2/dfc/primary-vertexing-workflow_8cxx.html" target="_top" xlink:title="/home/travis/build\l/AliceO2Group/AliceO2\l/Detectors/GlobalTrackingWorkflow\l/src/primary&#45;vertexing&#45;workflow.cxx">
<polygon fill="none" stroke="#000000" points="194.5,-6 194.5,-58 387.5,-58 387.5,-6 194.5,-6"/>
<text text-anchor="start" x="202.5" y="-46" font-family="Helvetica,sans-Serif" font-size="10.00" fill="#000000">/home/travis/build</text>
<text text-anchor="start" x="202.5" y="-35" font-family="Helvetica,sans-Serif" font-size="10.00" fill="#000000">/AliceO2Group/AliceO2</text>
<text text-anchor="start" x="202.5" y="-24" font-family="Helvetica,sans-Serif" font-size="10.00" fill="#000000">/Detectors/GlobalTrackingWorkflow</text>
<text text-anchor="middle" x="291" y="-13" font-family="Helvetica,sans-Serif" font-size="10.00" fill="#000000">/src/primary&#45;vertexing&#45;workflow.cxx</text>
</a>
</g>
</g>
<!-- Node183&#45;&gt;Node185 -->
<g id="edge2" class="edge">
<title>Node183&#45;&gt;Node185</title>
<path fill="none" stroke="#191970" d="M822.9342,-123.8933C715.2379,-114.2887 542.5665,-95.4838 396,-64 387.9883,-62.279 379.7056,-60.2333 371.469,-58.0206"/>
<polygon fill="#191970" stroke="#191970" points="822.8817,-127.4021 833.1505,-124.7941 823.4966,-120.4292 822.8817,-127.4021"/>
</g>
<!-- Node186 -->
<g id="node4" class="node">
<title>Node186</title>
<g id="a_node4"><a xlink:href="../../d9/d62/secondary-vertexing-workflow_8cxx.html" target="_top" xlink:title="/home/travis/build\l/AliceO2Group/AliceO2\l/Detectors/GlobalTrackingWorkflow\l/src/secondary&#45;vertexing&#45;workflow.cxx">
<polygon fill="none" stroke="#000000" points="405.5,-6 405.5,-58 610.5,-58 610.5,-6 405.5,-6"/>
<text text-anchor="start" x="413.5" y="-46" font-family="Helvetica,sans-Serif" font-size="10.00" fill="#000000">/home/travis/build</text>
<text text-anchor="start" x="413.5" y="-35" font-family="Helvetica,sans-Serif" font-size="10.00" fill="#000000">/AliceO2Group/AliceO2</text>
<text text-anchor="start" x="413.5" y="-24" font-family="Helvetica,sans-Serif" font-size="10.00" fill="#000000">/Detectors/GlobalTrackingWorkflow</text>
<text text-anchor="middle" x="508" y="-13" font-family="Helvetica,sans-Serif" font-size="10.00" fill="#000000">/src/secondary&#45;vertexing&#45;workflow.cxx</text>
</a>
</g>
</g>
<!-- Node183&#45;&gt;Node186 -->
<g id="edge3" class="edge">
<title>Node183&#45;&gt;Node186</title>
<path fill="none" stroke="#191970" d="M823.4473,-110.8483C763.5031,-98.1778 686.7423,-81.2243 619,-64 611.6139,-62.122 603.9748,-60.0964 596.3205,-58.0085"/>
<polygon fill="#191970" stroke="#191970" points="822.791,-114.2868 833.2978,-112.9239 824.2344,-107.4372 822.791,-114.2868"/>
</g>
<!-- Node187 -->
<g id="node5" class="node">
<title>Node187</title>
<g id="a_node5"><a xlink:href="../../dd/d3a/TrackTPCITSReaderSpec_8cxx.html" target="_top" xlink:title="/home/travis/build\l/AliceO2Group/AliceO2\l/Detectors/GlobalTrackingWorkflow\l/src/TrackTPCITSReaderSpec.cxx">
<polygon fill="none" stroke="#000000" points="628.5,-6 628.5,-58 815.5,-58 815.5,-6 628.5,-6"/>
<text text-anchor="start" x="636.5" y="-46" font-family="Helvetica,sans-Serif" font-size="10.00" fill="#000000">/home/travis/build</text>
<text text-anchor="start" x="636.5" y="-35" font-family="Helvetica,sans-Serif" font-size="10.00" fill="#000000">/AliceO2Group/AliceO2</text>
<text text-anchor="start" x="636.5" y="-24" font-family="Helvetica,sans-Serif" font-size="10.00" fill="#000000">/Detectors/GlobalTrackingWorkflow</text>
<text text-anchor="middle" x="722" y="-13" font-family="Helvetica,sans-Serif" font-size="10.00" fill="#000000">/src/TrackTPCITSReaderSpec.cxx</text>
</a>
</g>
</g>
<!-- Node183&#45;&gt;Node187 -->
<g id="edge4" class="edge">
<title>Node183&#45;&gt;Node187</title>
<path fill="none" stroke="#191970" d="M853.1091,-95.9557C827.4876,-83.4573 799.2735,-69.6944 775.603,-58.1478"/>
<polygon fill="#191970" stroke="#191970" points="851.8959,-99.258 862.4181,-100.4966 854.9649,-92.9666 851.8959,-99.258"/>
</g>
<!-- Node188 -->
<g id="node6" class="node">
<title>Node188</title>
<g id="a_node6"><a xlink:href="../../d6/d1f/tof-calibinfo-reader_8cxx.html" target="_top" xlink:title="/home/travis/build\l/AliceO2Group/AliceO2\l/Detectors/GlobalTrackingWorkflow\l/tofworkflow/src/tof&#45;calibinfo\l&#45;reader.cxx">
<polygon fill="none" stroke="#000000" points="833.5,-.5 833.5,-63.5 1020.5,-63.5 1020.5,-.5 833.5,-.5"/>
<text text-anchor="start" x="841.5" y="-51.5" font-family="Helvetica,sans-Serif" font-size="10.00" fill="#000000">/home/travis/build</text>
<text text-anchor="start" x="841.5" y="-40.5" font-family="Helvetica,sans-Serif" font-size="10.00" fill="#000000">/AliceO2Group/AliceO2</text>
<text text-anchor="start" x="841.5" y="-29.5" font-family="Helvetica,sans-Serif" font-size="10.00" fill="#000000">/Detectors/GlobalTrackingWorkflow</text>
<text text-anchor="start" x="841.5" y="-18.5" font-family="Helvetica,sans-Serif" font-size="10.00" fill="#000000">/tofworkflow/src/tof&#45;calibinfo</text>
<text text-anchor="middle" x="927" y="-7.5" font-family="Helvetica,sans-Serif" font-size="10.00" fill="#000000">&#45;reader.cxx</text>
</a>
</g>
</g>
<!-- Node183&#45;&gt;Node188 -->
<g id="edge5" class="edge">
<title>Node183&#45;&gt;Node188</title>
<path fill="none" stroke="#191970" d="M927,-90.2111C927,-81.37 927,-72.1767 927,-63.778"/>
<polygon fill="#191970" stroke="#191970" points="923.5001,-90.3593 927,-100.3594 930.5001,-90.3594 923.5001,-90.3593"/>
</g>
<!-- Node189 -->
<g id="node7" class="node">
<title>Node189</title>
<g id="a_node7"><a xlink:href="../../de/d48/tof-matcher-global_8cxx.html" target="_top" xlink:title="/home/travis/build\l/AliceO2Group/AliceO2\l/Detectors/GlobalTrackingWorkflow\l/tofworkflow/src/tof&#45;matcher\l&#45;global.cxx">
<polygon fill="none" stroke="#000000" points="1038.5,-.5 1038.5,-63.5 1225.5,-63.5 1225.5,-.5 1038.5,-.5"/>
<text text-anchor="start" x="1046.5" y="-51.5" font-family="Helvetica,sans-Serif" font-size="10.00" fill="#000000">/home/travis/build</text>
<text text-anchor="start" x="1046.5" y="-40.5" font-family="Helvetica,sans-Serif" font-size="10.00" fill="#000000">/AliceO2Group/AliceO2</text>
<text text-anchor="start" x="1046.5" y="-29.5" font-family="Helvetica,sans-Serif" font-size="10.00" fill="#000000">/Detectors/GlobalTrackingWorkflow</text>
<text text-anchor="start" x="1046.5" y="-18.5" font-family="Helvetica,sans-Serif" font-size="10.00" fill="#000000">/tofworkflow/src/tof&#45;matcher</text>
<text text-anchor="middle" x="1132" y="-7.5" font-family="Helvetica,sans-Serif" font-size="10.00" fill="#000000">&#45;global.cxx</text>
</a>
</g>
</g>
<!-- Node183&#45;&gt;Node189 -->
<g id="edge6" class="edge">
<title>Node183&#45;&gt;Node189</title>
<path fill="none" stroke="#191970" d="M1000.7889,-96.0054C1022.5706,-85.3802 1046.2339,-73.8371 1067.3906,-63.5168"/>
<polygon fill="#191970" stroke="#191970" points="999.0351,-92.9666 991.5819,-100.4966 1002.1041,-99.258 999.0351,-92.9666"/>
</g>
<!-- Node190 -->
<g id="node8" class="node">
<title>Node190</title>
<g id="a_node8"><a xlink:href="../../da/dfd/tof-reco-workflow_8cxx.html" target="_top" xlink:title="Basic DPL workflow for TOF reconstruction starting from digits. ">
<polygon fill="none" stroke="#000000" points="1243.5,-6 1243.5,-58 1446.5,-58 1446.5,-6 1243.5,-6"/>
<text text-anchor="start" x="1251.5" y="-46" font-family="Helvetica,sans-Serif" font-size="10.00" fill="#000000">/home/travis/build</text>
<text text-anchor="start" x="1251.5" y="-35" font-family="Helvetica,sans-Serif" font-size="10.00" fill="#000000">/AliceO2Group/AliceO2</text>
<text text-anchor="start" x="1251.5" y="-24" font-family="Helvetica,sans-Serif" font-size="10.00" fill="#000000">/Detectors/GlobalTrackingWorkflow</text>
<text text-anchor="middle" x="1345" y="-13" font-family="Helvetica,sans-Serif" font-size="10.00" fill="#000000">/tofworkflow/src/tof&#45;reco&#45;workflow.cxx</text>
</a>
</g>
</g>
<!-- Node183&#45;&gt;Node190 -->
<g id="edge7" class="edge">
<title>Node183&#45;&gt;Node190</title>
<path fill="none" stroke="#191970" d="M1030.5684,-110.9101C1090.5179,-98.2599 1167.2785,-81.3062 1235,-64 1242.3225,-62.1288 1249.8948,-60.1079 1257.4814,-58.0232"/>
<polygon fill="#191970" stroke="#191970" points="1029.7825,-107.4987 1020.717,-112.9821 1031.2233,-114.3489 1029.7825,-107.4987"/>
</g>
<!-- Node191 -->
<g id="node9" class="node">
<title>Node191</title>
<g id="a_node9"><a xlink:href="../../d1/d67/TrackInterpolationWorkflow_8cxx.html" target="_top" xlink:title="/home/travis/build\l/AliceO2Group/AliceO2\l/Detectors/GlobalTrackingWorkflow\l/tpcinterpolationworkflow/src\l/TrackInterpolationWorkflow.cxx">
<polygon fill="none" stroke="#000000" points="1464.5,-.5 1464.5,-63.5 1651.5,-63.5 1651.5,-.5 1464.5,-.5"/>
<text text-anchor="start" x="1472.5" y="-51.5" font-family="Helvetica,sans-Serif" font-size="10.00" fill="#000000">/home/travis/build</text>
<text text-anchor="start" x="1472.5" y="-40.5" font-family="Helvetica,sans-Serif" font-size="10.00" fill="#000000">/AliceO2Group/AliceO2</text>
<text text-anchor="start" x="1472.5" y="-29.5" font-family="Helvetica,sans-Serif" font-size="10.00" fill="#000000">/Detectors/GlobalTrackingWorkflow</text>
<text text-anchor="start" x="1472.5" y="-18.5" font-family="Helvetica,sans-Serif" font-size="10.00" fill="#000000">/tpcinterpolationworkflow/src</text>
<text text-anchor="middle" x="1558" y="-7.5" font-family="Helvetica,sans-Serif" font-size="10.00" fill="#000000">/TrackInterpolationWorkflow.cxx</text>
</a>
</g>
</g>
<!-- Node183&#45;&gt;Node191 -->
<g id="edge8" class="edge">
<title>Node183&#45;&gt;Node191</title>
<path fill="none" stroke="#191970" d="M1030.7265,-124.1047C1138.0594,-114.6698 1310.1138,-95.9989 1456,-64 1458.7193,-63.4036 1461.47,-62.7671 1464.2393,-62.0975"/>
<polygon fill="#191970" stroke="#191970" points="1030.2042,-120.6368 1020.5446,-124.9891 1030.81,-127.6106 1030.2042,-120.6368"/>
</g>
<!-- Node192 -->
<g id="node10" class="node">
<title>Node192</title>
<g id="a_node10"><a xlink:href="../../de/d40/TRDTrackingWorkflow_8cxx.html" target="_top" xlink:title="/home/travis/build\l/AliceO2Group/AliceO2\l/Detectors/TRD/workflow\l/src/TRDTrackingWorkflow.cxx">
<polygon fill="none" stroke="#000000" points="1670,-6 1670,-58 1832,-58 1832,-6 1670,-6"/>
<text text-anchor="start" x="1678" y="-46" font-family="Helvetica,sans-Serif" font-size="10.00" fill="#000000">/home/travis/build</text>
<text text-anchor="start" x="1678" y="-35" font-family="Helvetica,sans-Serif" font-size="10.00" fill="#000000">/AliceO2Group/AliceO2</text>
<text text-anchor="start" x="1678" y="-24" font-family="Helvetica,sans-Serif" font-size="10.00" fill="#000000">/Detectors/TRD/workflow</text>
<text text-anchor="middle" x="1751" y="-13" font-family="Helvetica,sans-Serif" font-size="10.00" fill="#000000">/src/TRDTrackingWorkflow.cxx</text>
</a>
</g>
</g>
<!-- Node183&#45;&gt;Node192 -->
<g id="edge9" class="edge">
<title>Node183&#45;&gt;Node192</title>
<path fill="none" stroke="#191970" d="M1030.6499,-125.5945C1203.6101,-114.3695 1543.6736,-89.8668 1661,-64 1668.2875,-62.3933 1675.7938,-60.3628 1683.217,-58.1069"/>
<polygon fill="#191970" stroke="#191970" points="1030.2691,-122.1117 1020.5156,-126.2494 1030.7206,-129.0972 1030.2691,-122.1117"/>
</g>
</g>
</svg>
