<?xml version="1.0" encoding="UTF-8" standalone="no"?>
<!DOCTYPE svg PUBLIC "-//W3C//DTD SVG 1.1//EN"
 "http://www.w3.org/Graphics/SVG/1.1/DTD/svg11.dtd">
<!-- Generated by graphviz version 2.40.1 (20161225.0304)
 -->
<!-- Title: /home/travis/build/AliceO2Group/AliceO2/Common/MathUtils/include/MathUtils/detail/trigonometric.h Pages: 1 -->
<svg width="531pt" height="229pt"
 viewBox="0.00 0.00 531.00 229.00" xmlns="http://www.w3.org/2000/svg" xmlns:xlink="http://www.w3.org/1999/xlink">
<g id="graph0" class="graph" transform="scale(1 1) rotate(0) translate(4 225)">
<title>/home/travis/build/AliceO2Group/AliceO2/Common/MathUtils/include/MathUtils/detail/trigonometric.h</title>
<!-- Node0 -->
<g id="node1" class="node">
<title>Node0</title>
<polygon fill="#bfbfbf" stroke="#000000" points="79.5,-168.5 79.5,-220.5 254.5,-220.5 254.5,-168.5 79.5,-168.5"/>
<text text-anchor="start" x="87.5" y="-208.5" font-family="Helvetica,sans-Serif" font-size="10.00" fill="#000000">/home/travis/build</text>
<text text-anchor="start" x="87.5" y="-197.5" font-family="Helvetica,sans-Serif" font-size="10.00" fill="#000000">/AliceO2Group/AliceO2</text>
<text text-anchor="start" x="87.5" y="-186.5" font-family="Helvetica,sans-Serif" font-size="10.00" fill="#000000">/Common/MathUtils/include</text>
<text text-anchor="middle" x="167" y="-175.5" font-family="Helvetica,sans-Serif" font-size="10.00" fill="#000000">/MathUtils/detail/trigonometric.h</text>
</g>
<!-- Node1 -->
<g id="node2" class="node">
<title>Node1</title>
<polygon fill="none" stroke="#bfbfbf" points="0,-112.5 0,-131.5 42,-131.5 42,-112.5 0,-112.5"/>
<text text-anchor="middle" x="21" y="-119.5" font-family="Helvetica,sans-Serif" font-size="10.00" fill="#000000">array</text>
</g>
<!-- Node0&#45;&gt;Node1 -->
<g id="edge1" class="edge">
<title>Node0&#45;&gt;Node1</title>
<path fill="none" stroke="#191970" d="M114.2906,-168.3258C92.3112,-157.4114 67.6659,-145.1731 49.2283,-136.0175"/>
<polygon fill="#191970" stroke="#191970" points="50.7127,-132.8469 40.1995,-131.534 47.5994,-139.1164 50.7127,-132.8469"/>
</g>
<!-- Node2 -->
<g id="node3" class="node">
<title>Node2</title>
<polygon fill="none" stroke="#bfbfbf" points="73.5,-56.5 73.5,-75.5 120.5,-75.5 120.5,-56.5 73.5,-56.5"/>
<text text-anchor="middle" x="97" y="-63.5" font-family="Helvetica,sans-Serif" font-size="10.00" fill="#000000">cmath</text>
</g>
<!-- Node0&#45;&gt;Node2 -->
<g id="edge2" class="edge">
<title>Node0&#45;&gt;Node2</title>
<path fill="none" stroke="#191970" d="M120.8981,-168.4457C108.189,-158.7742 95.9851,-146.5479 89,-132 82.062,-117.5501 85.0057,-99.355 89.1516,-85.7304"/>
<polygon fill="#191970" stroke="#191970" points="92.577,-86.5374 92.5685,-75.9426 85.9681,-84.2302 92.577,-86.5374"/>
</g>
<!-- Node3 -->
<g id="node4" class="node">
<title>Node3</title>
<polygon fill="none" stroke="#bfbfbf" points="98.5,-112.5 98.5,-131.5 139.5,-131.5 139.5,-112.5 98.5,-112.5"/>
<text text-anchor="middle" x="119" y="-119.5" font-family="Helvetica,sans-Serif" font-size="10.00" fill="#000000">tuple</text>
</g>
<!-- Node0&#45;&gt;Node3 -->
<g id="edge3" class="edge">
<title>Node0&#45;&gt;Node3</title>
<path fill="none" stroke="#191970" d="M149.6709,-168.3258C143.4392,-158.9134 136.5557,-148.5164 130.8914,-139.961"/>
<polygon fill="#191970" stroke="#191970" points="133.751,-137.94 125.3122,-131.534 127.9143,-141.8043 133.751,-137.94"/>
</g>
<!-- Node4 -->
<g id="node5" class="node">
<title>Node4</title>
<g id="a_node5"><a xlink:href="../../df/d21/GPUCommonDef_8h.html" target="_top" xlink:title="GPUCommonDef.h">
<polygon fill="none" stroke="#000000" points="247.5,-56.5 247.5,-75.5 354.5,-75.5 354.5,-56.5 247.5,-56.5"/>
<text text-anchor="middle" x="301" y="-63.5" font-family="Helvetica,sans-Serif" font-size="10.00" fill="#000000">GPUCommonDef.h</text>
</a>
</g>
</g>
<!-- Node0&#45;&gt;Node4 -->
<g id="edge4" class="edge">
<title>Node0&#45;&gt;Node4</title>
<path fill="none" stroke="#191970" d="M234.8654,-168.3603C251.8888,-159.0707 268.7678,-147.0719 281,-132 291.7161,-118.7961 296.6977,-99.9278 299.0093,-85.7448"/>
<polygon fill="#191970" stroke="#191970" points="302.5133,-85.9439 300.3493,-75.5725 295.5732,-85.0297 302.5133,-85.9439"/>
</g>
<!-- Node7 -->
<g id="node8" class="node">
<title>Node7</title>
<g id="a_node8"><a xlink:href="../../d6/da2/GPUCommonMath_8h.html" target="_top" xlink:title="GPUCommonMath.h">
<polygon fill="none" stroke="#000000" points="157.5,-112.5 157.5,-131.5 272.5,-131.5 272.5,-112.5 157.5,-112.5"/>
<text text-anchor="middle" x="215" y="-119.5" font-family="Helvetica,sans-Serif" font-size="10.00" fill="#000000">GPUCommonMath.h</text>
</a>
</g>
</g>
<!-- Node0&#45;&gt;Node7 -->
<g id="edge7" class="edge">
<title>Node0&#45;&gt;Node7</title>
<path fill="none" stroke="#191970" d="M184.3291,-168.3258C190.5608,-158.9134 197.4443,-148.5164 203.1086,-139.961"/>
<polygon fill="#191970" stroke="#191970" points="206.0857,-141.8043 208.6878,-131.534 200.249,-137.94 206.0857,-141.8043"/>
</g>
<!-- Node9 -->
<g id="node10" class="node">
<title>Node9</title>
<g id="a_node10"><a xlink:href="../../d6/d84/MathConstants_8h.html" target="_top" xlink:title="useful math constants ">
<polygon fill="none" stroke="#000000" points="329,-112.5 329,-131.5 523,-131.5 523,-112.5 329,-112.5"/>
<text text-anchor="middle" x="426" y="-119.5" font-family="Helvetica,sans-Serif" font-size="10.00" fill="#000000">CommonConstants/MathConstants.h</text>
</a>
</g>
</g>
<!-- Node0&#45;&gt;Node9 -->
<g id="edge11" class="edge">
<title>Node0&#45;&gt;Node9</title>
<path fill="none" stroke="#191970" d="M254.6856,-169.9548C297.5612,-157.953 347.2872,-144.0335 382.0848,-134.2929"/>
<polygon fill="#191970" stroke="#191970" points="383.2459,-137.6025 391.9323,-131.5363 381.3589,-130.8616 383.2459,-137.6025"/>
</g>
<!-- Node5 -->
<g id="node6" class="node">
<title>Node5</title>
<g id="a_node6"><a xlink:href="../../d5/d93/GPUCommonDefSettings_8h.html" target="_top" xlink:title="GPUCommonDefSettings.h">
<polygon fill="none" stroke="#000000" points="150,-.5 150,-19.5 298,-19.5 298,-.5 150,-.5"/>
<text text-anchor="middle" x="224" y="-7.5" font-family="Helvetica,sans-Serif" font-size="10.00" fill="#000000">GPUCommonDefSettings.h</text>
</a>
</g>
</g>
<!-- Node4&#45;&gt;Node5 -->
<g id="edge5" class="edge">
<title>Node4&#45;&gt;Node5</title>
<path fill="none" stroke="#191970" d="M287.5876,-56.2455C275.9943,-47.814 259.0252,-35.4729 245.5322,-25.6598"/>
<polygon fill="#191970" stroke="#191970" points="247.4047,-22.6938 237.2587,-19.6427 243.2874,-28.355 247.4047,-22.6938"/>
</g>
<!-- Node6 -->
<g id="node7" class="node">
<title>Node6</title>
<g id="a_node7"><a xlink:href="../../da/d5a/GPUCommonDefAPI_8h.html" target="_top" xlink:title="GPUCommonDefAPI.h">
<polygon fill="none" stroke="#000000" points="316,-.5 316,-19.5 440,-19.5 440,-.5 316,-.5"/>
<text text-anchor="middle" x="378" y="-7.5" font-family="Helvetica,sans-Serif" font-size="10.00" fill="#000000">GPUCommonDefAPI.h</text>
</a>
</g>
</g>
<!-- Node4&#45;&gt;Node6 -->
<g id="edge6" class="edge">
<title>Node4&#45;&gt;Node6</title>
<path fill="none" stroke="#191970" d="M314.4124,-56.2455C326.0057,-47.814 342.9748,-35.4729 356.4678,-25.6598"/>
<polygon fill="#191970" stroke="#191970" points="358.7126,-28.355 364.7413,-19.6427 354.5953,-22.6938 358.7126,-28.355"/>
</g>
<!-- Node7&#45;&gt;Node2 -->
<g id="edge9" class="edge">
<title>Node7&#45;&gt;Node2</title>
<path fill="none" stroke="#191970" d="M194.7151,-112.3733C175.8579,-103.4241 147.554,-89.9917 126.2545,-79.8835"/>
<polygon fill="#191970" stroke="#191970" points="127.5551,-76.6266 117.0202,-75.5011 124.5539,-82.9506 127.5551,-76.6266"/>
</g>
<!-- Node7&#45;&gt;Node4 -->
<g id="edge8" class="edge">
<title>Node7&#45;&gt;Node4</title>
<path fill="none" stroke="#191970" d="M229.9801,-112.2455C243.1751,-103.6534 262.6051,-91.0014 277.8079,-81.1018"/>
<polygon fill="#191970" stroke="#191970" points="279.7215,-84.0325 286.1916,-75.6427 275.9017,-78.1665 279.7215,-84.0325"/>
</g>
<!-- Node8 -->
<g id="node9" class="node">
<title>Node8</title>
<polygon fill="none" stroke="#bfbfbf" points="165,-56.5 165,-75.5 229,-75.5 229,-56.5 165,-56.5"/>
<text text-anchor="middle" x="197" y="-63.5" font-family="Helvetica,sans-Serif" font-size="10.00" fill="#000000">algorithm</text>
</g>
<!-- Node7&#45;&gt;Node8 -->
<g id="edge10" class="edge">
<title>Node7&#45;&gt;Node8</title>
<path fill="none" stroke="#191970" d="M211.8646,-112.2455C209.49,-104.8579 206.1507,-94.4689 203.2385,-85.4087"/>
<polygon fill="#191970" stroke="#191970" points="206.4917,-84.0919 200.0994,-75.6427 199.8275,-86.234 206.4917,-84.0919"/>
</g>
</g>
</svg>
