<?xml version="1.0" encoding="UTF-8" standalone="no"?>
<!DOCTYPE svg PUBLIC "-//W3C//DTD SVG 1.1//EN"
 "http://www.w3.org/Graphics/SVG/1.1/DTD/svg11.dtd">
<!-- Generated by graphviz version 2.40.1 (20161225.0304)
 -->
<!-- Title: pidTPCTaskQA Pages: 1 -->
<!--zoomable 866 -->
<svg id="main" version="1.1" xmlns="http://www.w3.org/2000/svg" xmlns:xlink="http://www.w3.org/1999/xlink" xml:space="preserve" onload="init(evt)">
<style type="text/css"><![CDATA[
.edge:hover path { stroke: red; }
.edge:hover polygon { stroke: red; fill: red; }
]]></style>
<script type="text/javascript"><![CDATA[
var edges = document.getElementsByTagName('g');
if (edges && edges.length) {
  for (var i=0;i<edges.length;i++) {
    if (edges[i].id.substr(0,4)=='edge') {
      edges[i].setAttribute('class','edge');
    }
  }
}
]]></script>
        <defs>
                <circle id="rim" cx="0" cy="0" r="7"/>
                <circle id="rim2" cx="0" cy="0" r="3.5"/>
                <g id="zoomPlus">
                        <use xlink:href="#rim" fill="#404040">
                                <set attributeName="fill" to="#808080" begin="zoomplus.mouseover" end="zoomplus.mouseout"/>
                        </use>
                        <path d="M-4,0h8M0,-4v8" fill="none" stroke="white" stroke-width="1.5" pointer-events="none"/>
                </g>
                <g id="zoomMin">
                        <use xlink:href="#rim" fill="#404040">
                                <set attributeName="fill" to="#808080" begin="zoomminus.mouseover" end="zoomminus.mouseout"/>
                        </use>
                        <path d="M-4,0h8" fill="none" stroke="white" stroke-width="1.5" pointer-events="none"/>
                </g>
                <g id="dirArrow">
                        <path fill="none" stroke="white" stroke-width="1.5" d="M0,-3.0v7 M-2.5,-0.5L0,-3.0L2.5,-0.5"/>
                </g>
               <g id="resetDef">
                       <use xlink:href="#rim2" fill="#404040">
                               <set attributeName="fill" to="#808080" begin="reset.mouseover" end="reset.mouseout"/>
                       </use>
               </g>
        </defs>

<script type="text/javascript">
var viewWidth = 670;
var viewHeight = 866;
var sectionId = 'dynsection-0';
</script>
<script xlink:href="../../svgpan.js"/>
<svg id="graph" class="graph">
<g id="viewport">
<title>pidTPCTaskQA</title>
<!-- Node1 -->
<g id="node1" class="node">
<title>Node1</title>
<polygon fill="#bfbfbf" stroke="#000000" points="376.5,-.5 376.5,-68.5 462.5,-68.5 462.5,-.5 376.5,-.5"/>
<text text-anchor="middle" x="419.5" y="-56.5" font-family="Helvetica,sans-Serif" font-size="10.00" fill="#000000">pidTPCTaskQA</text>
<polyline fill="none" stroke="#000000" points="376.5,-49.5 462.5,-49.5 "/>
<text text-anchor="middle" x="419.5" y="-37.5" font-family="Helvetica,sans-Serif" font-size="10.00" fill="#000000"> </text>
<polyline fill="none" stroke="#000000" points="376.5,-30.5 462.5,-30.5 "/>
<text text-anchor="start" x="384.5" y="-18.5" font-family="Helvetica,sans-Serif" font-size="10.00" fill="#000000">+ init()</text>
<text text-anchor="start" x="384.5" y="-7.5" font-family="Helvetica,sans-Serif" font-size="10.00" fill="#000000">+ process()</text>
</g>
<!-- Node2 -->
<g id="node2" class="node">
<title>Node2</title>
<g id="a_node2"><a xlink:href="../../d8/d34/classo2_1_1framework_1_1HistogramRegistry.html" target="_top" xlink:title="{o2::framework::Histogram\lRegistry\n||+ HistogramRegistry()\l+ add()\l+ add()\l+ add()\l+ addClone()\l+ contains()\l+ get()\l+ operator()()\l+ spec()\l+ ref()\l+ setHash()\l+ operator*()\l+ fill()\l+ fill()\l+ getSize()\l+ getSize()\l+ print()\l}">
<polygon fill="none" stroke="#000000" points="0,-149.5 0,-393.5 145,-393.5 145,-149.5 0,-149.5"/>
<text text-anchor="start" x="8" y="-381.5" font-family="Helvetica,sans-Serif" font-size="10.00" fill="#000000">o2::framework::Histogram</text>
<text text-anchor="middle" x="72.5" y="-370.5" font-family="Helvetica,sans-Serif" font-size="10.00" fill="#000000">Registry</text>
<polyline fill="none" stroke="#000000" points="0,-363.5 145,-363.5 "/>
<text text-anchor="middle" x="72.5" y="-351.5" font-family="Helvetica,sans-Serif" font-size="10.00" fill="#000000"> </text>
<polyline fill="none" stroke="#000000" points="0,-344.5 145,-344.5 "/>
<text text-anchor="start" x="8" y="-332.5" font-family="Helvetica,sans-Serif" font-size="10.00" fill="#000000">+ HistogramRegistry()</text>
<text text-anchor="start" x="8" y="-321.5" font-family="Helvetica,sans-Serif" font-size="10.00" fill="#000000">+ add()</text>
<text text-anchor="start" x="8" y="-310.5" font-family="Helvetica,sans-Serif" font-size="10.00" fill="#000000">+ add()</text>
<text text-anchor="start" x="8" y="-299.5" font-family="Helvetica,sans-Serif" font-size="10.00" fill="#000000">+ add()</text>
<text text-anchor="start" x="8" y="-288.5" font-family="Helvetica,sans-Serif" font-size="10.00" fill="#000000">+ addClone()</text>
<text text-anchor="start" x="8" y="-277.5" font-family="Helvetica,sans-Serif" font-size="10.00" fill="#000000">+ contains()</text>
<text text-anchor="start" x="8" y="-266.5" font-family="Helvetica,sans-Serif" font-size="10.00" fill="#000000">+ get()</text>
<text text-anchor="start" x="8" y="-255.5" font-family="Helvetica,sans-Serif" font-size="10.00" fill="#000000">+ operator()()</text>
<text text-anchor="start" x="8" y="-244.5" font-family="Helvetica,sans-Serif" font-size="10.00" fill="#000000">+ spec()</text>
<text text-anchor="start" x="8" y="-233.5" font-family="Helvetica,sans-Serif" font-size="10.00" fill="#000000">+ ref()</text>
<text text-anchor="start" x="8" y="-222.5" font-family="Helvetica,sans-Serif" font-size="10.00" fill="#000000">+ setHash()</text>
<text text-anchor="start" x="8" y="-211.5" font-family="Helvetica,sans-Serif" font-size="10.00" fill="#000000">+ operator*()</text>
<text text-anchor="start" x="8" y="-200.5" font-family="Helvetica,sans-Serif" font-size="10.00" fill="#000000">+ fill()</text>
<text text-anchor="start" x="8" y="-189.5" font-family="Helvetica,sans-Serif" font-size="10.00" fill="#000000">+ fill()</text>
<text text-anchor="start" x="8" y="-178.5" font-family="Helvetica,sans-Serif" font-size="10.00" fill="#000000">+ getSize()</text>
<text text-anchor="start" x="8" y="-167.5" font-family="Helvetica,sans-Serif" font-size="10.00" fill="#000000">+ getSize()</text>
<text text-anchor="start" x="8" y="-156.5" font-family="Helvetica,sans-Serif" font-size="10.00" fill="#000000">+ print()</text>
</a>
</g>
</g>
<!-- Node2&#45;&gt;Node1 -->
<g id="edge1" class="edge">
<title>Node2&#45;&gt;Node1</title>
<path fill="none" stroke="#404040" d="M145.1108,-162.0589C149.745,-157.4262 154.5469,-153.0386 159.5,-149 221.1101,-98.7651 308.2008,-66.3992 364.2667,-49.3143"/>
<polygon fill="none" stroke="#404040" points="364.5829,-49.2203 369.1935,-43.6758 376.0849,-45.7992 371.4742,-51.3438 364.5829,-49.2203"/>
<text text-anchor="middle" x="280" y="-106.5" font-family="Helvetica,sans-Serif" font-size="10.00" fill="#000000"> +histos</text>
</g>
<!-- Node3 -->
<g id="node3" class="node">
<title>Node3</title>
<polygon fill="none" stroke="#bfbfbf" points="32.5,-447 32.5,-504 88.5,-504 88.5,-447 32.5,-447"/>
<text text-anchor="middle" x="60.5" y="-492" font-family="Helvetica,sans-Serif" font-size="10.00" fill="#000000">uint32_t</text>
<polyline fill="none" stroke="#bfbfbf" points="32.5,-485 88.5,-485 "/>
<text text-anchor="middle" x="60.5" y="-473" font-family="Helvetica,sans-Serif" font-size="10.00" fill="#000000"> </text>
<polyline fill="none" stroke="#bfbfbf" points="32.5,-466 88.5,-466 "/>
<text text-anchor="middle" x="60.5" y="-454" font-family="Helvetica,sans-Serif" font-size="10.00" fill="#000000"> </text>
</g>
<!-- Node3&#45;&gt;Node2 -->
<g id="edge2" class="edge">
<title>Node3&#45;&gt;Node2</title>
<path fill="none" stroke="#404040" d="M62.1939,-446.7045C62.8668,-435.265 63.6924,-421.2292 64.5808,-406.1268"/>
<polygon fill="none" stroke="#404040" points="64.6002,-405.7948 60.9595,-399.5702 65.305,-393.8155 68.9457,-400.0401 64.6002,-405.7948"/>
<text text-anchor="middle" x="87" y="-415" font-family="Helvetica,sans-Serif" font-size="10.00" fill="#000000"> +lookup</text>
</g>
<!-- Node4 -->
<g id="node4" class="node">
<title>Node4</title>
<g id="a_node4"><a xlink:href="../../d8/d71/structo2_1_1framework_1_1Configurable.html" target="_top" xlink:title="{o2::framework::Configurable\l\&lt; int \&gt;\n||+ Configurable()\l}">
<polygon fill="none" stroke="#000000" points="342,-237.5 342,-305.5 497,-305.5 497,-237.5 342,-237.5"/>
<text text-anchor="start" x="350" y="-293.5" font-family="Helvetica,sans-Serif" font-size="10.00" fill="#000000">o2::framework::Configurable</text>
<text text-anchor="middle" x="419.5" y="-282.5" font-family="Helvetica,sans-Serif" font-size="10.00" fill="#000000">&lt; int &gt;</text>
<polyline fill="none" stroke="#000000" points="342,-275.5 497,-275.5 "/>
<text text-anchor="middle" x="419.5" y="-263.5" font-family="Helvetica,sans-Serif" font-size="10.00" fill="#000000"> </text>
<polyline fill="none" stroke="#000000" points="342,-256.5 497,-256.5 "/>
<text text-anchor="start" x="350" y="-244.5" font-family="Helvetica,sans-Serif" font-size="10.00" fill="#000000">+ Configurable()</text>
</a>
</g>
</g>
<!-- Node4&#45;&gt;Node1 -->
<g id="edge3" class="edge">
<title>Node4&#45;&gt;Node1</title>
<path fill="none" stroke="#404040" d="M419.5,-237.2913C419.5,-196.0759 419.5,-126.6543 419.5,-80.7051"/>
<polygon fill="none" stroke="#404040" points="419.5001,-80.6984 415.5,-74.6984 419.5,-68.6984 423.5,-74.6983 419.5001,-80.6984"/>
<text text-anchor="middle" x="442" y="-106.5" font-family="Helvetica,sans-Serif" font-size="10.00" fill="#000000"> +nBinsP</text>
</g>
<!-- Node5 -->
<g id="node5" class="node">
<title>Node5</title>
<g id="a_node5"><a xlink:href="../../da/def/structo2_1_1framework_1_1ConfigurablePolicyConst.html" target="_top" xlink:title="{o2::framework::Configurable\lPolicyConst\&lt; int \&gt;\n||+ ConfigurablePolicyConst()\l}">
<polygon fill="none" stroke="#000000" points="453,-441.5 453,-509.5 608,-509.5 608,-441.5 453,-441.5"/>
<text text-anchor="start" x="461" y="-497.5" font-family="Helvetica,sans-Serif" font-size="10.00" fill="#000000">o2::framework::Configurable</text>
<text text-anchor="middle" x="530.5" y="-486.5" font-family="Helvetica,sans-Serif" font-size="10.00" fill="#000000">PolicyConst&lt; int &gt;</text>
<polyline fill="none" stroke="#000000" points="453,-479.5 608,-479.5 "/>
<text text-anchor="middle" x="530.5" y="-467.5" font-family="Helvetica,sans-Serif" font-size="10.00" fill="#000000"> </text>
<polyline fill="none" stroke="#000000" points="453,-460.5 608,-460.5 "/>
<text text-anchor="start" x="461" y="-448.5" font-family="Helvetica,sans-Serif" font-size="10.00" fill="#000000">+ ConfigurablePolicyConst()</text>
</a>
</g>
</g>
<!-- Node5&#45;&gt;Node4 -->
<g id="edge4" class="edge">
<title>Node5&#45;&gt;Node4</title>
<path fill="none" stroke="#191970" d="M506.9055,-432.1371C486.3845,-394.4229 457.051,-340.5127 438.1395,-305.7564"/>
<polygon fill="none" stroke="#191970" points="504.0672,-434.2439 511.9211,-441.355 510.2159,-430.8983 504.0672,-434.2439"/>
</g>
<!-- Node6 -->
<g id="node6" class="node">
<title>Node6</title>
<g id="a_node6"><a xlink:href="../../da/d2f/structo2_1_1framework_1_1ConfigurableBase.html" target="_top" xlink:title="{o2::framework::Configurable\lBase\&lt; int \&gt;\n||+ ConfigurableBase()\l}">
<polygon fill="none" stroke="#000000" points="453,-557.5 453,-625.5 608,-625.5 608,-557.5 453,-557.5"/>
<text text-anchor="start" x="461" y="-613.5" font-family="Helvetica,sans-Serif" font-size="10.00" fill="#000000">o2::framework::Configurable</text>
<text text-anchor="middle" x="530.5" y="-602.5" font-family="Helvetica,sans-Serif" font-size="10.00" fill="#000000">Base&lt; int &gt;</text>
<polyline fill="none" stroke="#000000" points="453,-595.5 608,-595.5 "/>
<text text-anchor="middle" x="530.5" y="-583.5" font-family="Helvetica,sans-Serif" font-size="10.00" fill="#000000"> </text>
<polyline fill="none" stroke="#000000" points="453,-576.5 608,-576.5 "/>
<text text-anchor="start" x="461" y="-564.5" font-family="Helvetica,sans-Serif" font-size="10.00" fill="#000000">+ ConfigurableBase()</text>
</a>
</g>
</g>
<!-- Node6&#45;&gt;Node5 -->
<g id="edge5" class="edge">
<title>Node6&#45;&gt;Node5</title>
<path fill="none" stroke="#191970" d="M530.5,-547.1851C530.5,-534.8048 530.5,-521.5422 530.5,-509.833"/>
<polygon fill="none" stroke="#191970" points="527.0001,-547.3235 530.5,-557.3236 534.0001,-547.3236 527.0001,-547.3235"/>
</g>
<!-- Node7 -->
<g id="node7" class="node">
<title>Node7</title>
<polygon fill="none" stroke="#bfbfbf" points="458,-800.5 458,-857.5 487,-857.5 487,-800.5 458,-800.5"/>
<text text-anchor="middle" x="472.5" y="-845.5" font-family="Helvetica,sans-Serif" font-size="10.00" fill="#000000">int</text>
<polyline fill="none" stroke="#bfbfbf" points="458,-838.5 487,-838.5 "/>
<text text-anchor="middle" x="472.5" y="-826.5" font-family="Helvetica,sans-Serif" font-size="10.00" fill="#000000"> </text>
<polyline fill="none" stroke="#bfbfbf" points="458,-819.5 487,-819.5 "/>
<text text-anchor="middle" x="472.5" y="-807.5" font-family="Helvetica,sans-Serif" font-size="10.00" fill="#000000"> </text>
</g>
<!-- Node7&#45;&gt;Node1 -->
<g id="edge23" class="edge">
<title>Node7&#45;&gt;Node1</title>
<path fill="none" stroke="#404040" d="M487.0539,-825.7065C527.1909,-815.6754 636.5,-781.5584 636.5,-707.5 636.5,-707.5 636.5,-707.5 636.5,-271.5 636.5,-186.06 642.0983,-148.2212 582.5,-87 567.2584,-71.3434 515.7813,-56.3579 474.705,-46.4345"/>
<polygon fill="none" stroke="#404040" points="474.5693,-46.4025 467.8113,-48.9185 462.8897,-43.648 469.6477,-41.1321 474.5693,-46.4025"/>
<text text-anchor="middle" x="649" y="-531" font-family="Helvetica,sans-Serif" font-size="10.00" fill="#000000"> +Np</text>
</g>
<!-- Node7&#45;&gt;Node6 -->
<g id="edge6" class="edge">
<title>Node7&#45;&gt;Node6</title>
<path fill="none" stroke="#404040" d="M479.4962,-800.352C489.3633,-759.9478 507.475,-685.7836 519.2473,-637.578"/>
<polygon fill="none" stroke="#404040" points="519.3209,-637.2762 516.8586,-630.4985 522.1678,-625.6188 524.6302,-632.3965 519.3209,-637.2762"/>
<text text-anchor="middle" x="529" y="-716" font-family="Helvetica,sans-Serif" font-size="10.00" fill="#000000"> +value</text>
<text text-anchor="middle" x="529" y="-705" font-family="Helvetica,sans-Serif" font-size="10.00" fill="#000000">+name</text>
<text text-anchor="middle" x="529" y="-694" font-family="Helvetica,sans-Serif" font-size="10.00" fill="#000000">+help</text>
</g>
<!-- Node8 -->
<g id="node8" class="node">
<title>Node8</title>
<g id="a_node8"><a xlink:href="../../da/d2f/structo2_1_1framework_1_1ConfigurableBase.html" target="_top" xlink:title="{o2::framework::Configurable\lBase\&lt; T \&gt;\n||+ ConfigurableBase()\l}">
<polygon fill="none" stroke="#000000" points="277,-673.5 277,-741.5 432,-741.5 432,-673.5 277,-673.5"/>
<text text-anchor="start" x="285" y="-729.5" font-family="Helvetica,sans-Serif" font-size="10.00" fill="#000000">o2::framework::Configurable</text>
<text text-anchor="middle" x="354.5" y="-718.5" font-family="Helvetica,sans-Serif" font-size="10.00" fill="#000000">Base&lt; T &gt;</text>
<polyline fill="none" stroke="#000000" points="277,-711.5 432,-711.5 "/>
<text text-anchor="middle" x="354.5" y="-699.5" font-family="Helvetica,sans-Serif" font-size="10.00" fill="#000000"> </text>
<polyline fill="none" stroke="#000000" points="277,-692.5 432,-692.5 "/>
<text text-anchor="start" x="285" y="-680.5" font-family="Helvetica,sans-Serif" font-size="10.00" fill="#000000">+ ConfigurableBase()</text>
</a>
</g>
</g>
<!-- Node7&#45;&gt;Node8 -->
<g id="edge8" class="edge">
<title>Node7&#45;&gt;Node8</title>
<path fill="none" stroke="#404040" d="M457.5552,-813.6119C442.1845,-797.7853 417.5454,-772.4154 396.2133,-750.4506"/>
<polygon fill="none" stroke="#404040" points="395.9777,-750.208 388.928,-748.6906 387.6173,-741.5996 394.667,-743.117 395.9777,-750.208"/>
<text text-anchor="middle" x="444.5" y="-774" font-family="Helvetica,sans-Serif" font-size="10.00" fill="#000000"> +name</text>
<text text-anchor="middle" x="444.5" y="-763" font-family="Helvetica,sans-Serif" font-size="10.00" fill="#000000">+help</text>
</g>
<!-- Node16 -->
<g id="node16" class="node">
<title>Node16</title>
<g id="a_node16"><a xlink:href="../../da/d2f/structo2_1_1framework_1_1ConfigurableBase.html" target="_top" xlink:title="{o2::framework::Configurable\lBase\&lt; float \&gt;\n||+ ConfigurableBase()\l}">
<polygon fill="none" stroke="#000000" points="60,-557.5 60,-625.5 215,-625.5 215,-557.5 60,-557.5"/>
<text text-anchor="start" x="68" y="-613.5" font-family="Helvetica,sans-Serif" font-size="10.00" fill="#000000">o2::framework::Configurable</text>
<text text-anchor="middle" x="137.5" y="-602.5" font-family="Helvetica,sans-Serif" font-size="10.00" fill="#000000">Base&lt; float &gt;</text>
<polyline fill="none" stroke="#000000" points="60,-595.5 215,-595.5 "/>
<text text-anchor="middle" x="137.5" y="-583.5" font-family="Helvetica,sans-Serif" font-size="10.00" fill="#000000"> </text>
<polyline fill="none" stroke="#000000" points="60,-576.5 215,-576.5 "/>
<text text-anchor="start" x="68" y="-564.5" font-family="Helvetica,sans-Serif" font-size="10.00" fill="#000000">+ ConfigurableBase()</text>
</a>
</g>
</g>
<!-- Node7&#45;&gt;Node16 -->
<g id="edge19" class="edge">
<title>Node7&#45;&gt;Node16</title>
<path fill="none" stroke="#404040" d="M457.8509,-827.6579C416.5536,-823.149 297.645,-805.0791 227.5,-742 191.5816,-709.6998 206.4336,-684.7539 180.5,-644 178.6618,-641.1113 176.6867,-638.2018 174.6296,-635.3135"/>
<polygon fill="none" stroke="#404040" points="174.5816,-635.2492 167.7859,-632.8369 167.3989,-625.6362 174.1946,-628.0485 174.5816,-635.2492"/>
<text text-anchor="middle" x="247.5" y="-710.5" font-family="Helvetica,sans-Serif" font-size="10.00" fill="#000000"> +name</text>
<text text-anchor="middle" x="247.5" y="-699.5" font-family="Helvetica,sans-Serif" font-size="10.00" fill="#000000">+help</text>
</g>
<!-- Node8&#45;&gt;Node6 -->
<g id="edge7" class="edge">
<title>Node8&#45;&gt;Node6</title>
<path fill="none" stroke="#ffa500" d="M406.4363,-667.1885C417.2013,-659.2641 428.5901,-651.1861 439.5,-644 448.9438,-637.7796 459.1509,-631.4929 469.1976,-625.5367"/>
<polygon fill="#ffa500" stroke="#ffa500" points="404.2837,-664.4275 398.3442,-673.2009 408.4585,-670.0463 404.2837,-664.4275"/>
<text text-anchor="middle" x="459" y="-647" font-family="Helvetica,sans-Serif" font-size="10.00" fill="#000000"> &lt; int &gt;</text>
</g>
<!-- Node10 -->
<g id="node10" class="node">
<title>Node10</title>
<g id="a_node10"><a xlink:href="../../da/def/structo2_1_1framework_1_1ConfigurablePolicyConst.html" target="_top" xlink:title="{o2::framework::Configurable\lPolicyConst\&lt; T \&gt;\n||+ ConfigurablePolicyConst()\l}">
<polygon fill="none" stroke="#000000" points="233,-557.5 233,-625.5 388,-625.5 388,-557.5 233,-557.5"/>
<text text-anchor="start" x="241" y="-613.5" font-family="Helvetica,sans-Serif" font-size="10.00" fill="#000000">o2::framework::Configurable</text>
<text text-anchor="middle" x="310.5" y="-602.5" font-family="Helvetica,sans-Serif" font-size="10.00" fill="#000000">PolicyConst&lt; T &gt;</text>
<polyline fill="none" stroke="#000000" points="233,-595.5 388,-595.5 "/>
<text text-anchor="middle" x="310.5" y="-583.5" font-family="Helvetica,sans-Serif" font-size="10.00" fill="#000000"> </text>
<polyline fill="none" stroke="#000000" points="233,-576.5 388,-576.5 "/>
<text text-anchor="start" x="241" y="-564.5" font-family="Helvetica,sans-Serif" font-size="10.00" fill="#000000">+ ConfigurablePolicyConst()</text>
</a>
</g>
</g>
<!-- Node8&#45;&gt;Node10 -->
<g id="edge11" class="edge">
<title>Node8&#45;&gt;Node10</title>
<path fill="none" stroke="#191970" d="M337.9722,-663.9268C333.1964,-651.3359 328.0531,-637.7764 323.5229,-625.833"/>
<polygon fill="none" stroke="#191970" points="334.7174,-665.2149 341.5365,-673.3236 341.2624,-662.7323 334.7174,-665.2149"/>
</g>
<!-- Node8&#45;&gt;Node16 -->
<g id="edge20" class="edge">
<title>Node8&#45;&gt;Node16</title>
<path fill="none" stroke="#ffa500" d="M281.7634,-668.6178C255.6489,-654.6579 226.4222,-639.0344 201.1398,-625.5194"/>
<polygon fill="#ffa500" stroke="#ffa500" points="280.39,-671.8523 290.8591,-673.48 283.6901,-665.6789 280.39,-671.8523"/>
<text text-anchor="middle" x="277.5" y="-647" font-family="Helvetica,sans-Serif" font-size="10.00" fill="#000000"> &lt; float &gt;</text>
</g>
<!-- Node9 -->
<g id="node9" class="node">
<title>Node9</title>
<polygon fill="none" stroke="#bfbfbf" points="150,-800.5 150,-857.5 179,-857.5 179,-800.5 150,-800.5"/>
<text text-anchor="middle" x="164.5" y="-845.5" font-family="Helvetica,sans-Serif" font-size="10.00" fill="#000000">T</text>
<polyline fill="none" stroke="#bfbfbf" points="150,-838.5 179,-838.5 "/>
<text text-anchor="middle" x="164.5" y="-826.5" font-family="Helvetica,sans-Serif" font-size="10.00" fill="#000000"> </text>
<polyline fill="none" stroke="#bfbfbf" points="150,-819.5 179,-819.5 "/>
<text text-anchor="middle" x="164.5" y="-807.5" font-family="Helvetica,sans-Serif" font-size="10.00" fill="#000000"> </text>
</g>
<!-- Node9&#45;&gt;Node8 -->
<g id="edge9" class="edge">
<title>Node9&#45;&gt;Node8</title>
<path fill="none" stroke="#404040" d="M179.0935,-819.6678C202.7551,-804.5369 250.8613,-773.7742 290.7188,-748.2864"/>
<polygon fill="none" stroke="#404040" points="290.8087,-748.2289 293.7086,-741.6266 300.9184,-741.764 298.0186,-748.3664 290.8087,-748.2289"/>
<text text-anchor="middle" x="291" y="-768.5" font-family="Helvetica,sans-Serif" font-size="10.00" fill="#000000"> +value</text>
</g>
<!-- Node10&#45;&gt;Node5 -->
<g id="edge10" class="edge">
<title>Node10&#45;&gt;Node5</title>
<path fill="none" stroke="#ffa500" d="M383.8955,-552.8006C410.4588,-538.7944 440.2365,-523.0935 465.9804,-509.5194"/>
<polygon fill="#ffa500" stroke="#ffa500" points="382.234,-549.7198 375.0208,-557.48 385.4989,-555.9118 382.234,-549.7198"/>
<text text-anchor="middle" x="447" y="-531" font-family="Helvetica,sans-Serif" font-size="10.00" fill="#000000"> &lt; int &gt;</text>
</g>
<!-- Node15 -->
<g id="node15" class="node">
<title>Node15</title>
<g id="a_node15"><a xlink:href="../../da/def/structo2_1_1framework_1_1ConfigurablePolicyConst.html" target="_top" xlink:title="{o2::framework::Configurable\lPolicyConst\&lt; float \&gt;\n||+ ConfigurablePolicyConst()\l}">
<polygon fill="none" stroke="#000000" points="107,-441.5 107,-509.5 262,-509.5 262,-441.5 107,-441.5"/>
<text text-anchor="start" x="115" y="-497.5" font-family="Helvetica,sans-Serif" font-size="10.00" fill="#000000">o2::framework::Configurable</text>
<text text-anchor="middle" x="184.5" y="-486.5" font-family="Helvetica,sans-Serif" font-size="10.00" fill="#000000">PolicyConst&lt; float &gt;</text>
<polyline fill="none" stroke="#000000" points="107,-479.5 262,-479.5 "/>
<text text-anchor="middle" x="184.5" y="-467.5" font-family="Helvetica,sans-Serif" font-size="10.00" fill="#000000"> </text>
<polyline fill="none" stroke="#000000" points="107,-460.5 262,-460.5 "/>
<text text-anchor="start" x="115" y="-448.5" font-family="Helvetica,sans-Serif" font-size="10.00" fill="#000000">+ ConfigurablePolicyConst()</text>
</a>
</g>
</g>
<!-- Node10&#45;&gt;Node15 -->
<g id="edge21" class="edge">
<title>Node10&#45;&gt;Node15</title>
<path fill="none" stroke="#ffa500" d="M265.9705,-550.5046C251.524,-537.2046 235.656,-522.596 221.7927,-509.833"/>
<polygon fill="#ffa500" stroke="#ffa500" points="263.6497,-553.1254 273.3773,-557.3236 268.3909,-547.9755 263.6497,-553.1254"/>
<text text-anchor="middle" x="275.5" y="-531" font-family="Helvetica,sans-Serif" font-size="10.00" fill="#000000"> &lt; float &gt;</text>
</g>
<!-- Node11 -->
<g id="node11" class="node">
<title>Node11</title>
<g id="a_node11"><a xlink:href="../../d8/d71/structo2_1_1framework_1_1Configurable.html" target="_top" xlink:title="{o2::framework::Configurable\l\&lt; T, IP \&gt;\n||+ Configurable()\l}">
<polygon fill="none" stroke="#000000" points="280,-441.5 280,-509.5 435,-509.5 435,-441.5 280,-441.5"/>
<text text-anchor="start" x="288" y="-497.5" font-family="Helvetica,sans-Serif" font-size="10.00" fill="#000000">o2::framework::Configurable</text>
<text text-anchor="middle" x="357.5" y="-486.5" font-family="Helvetica,sans-Serif" font-size="10.00" fill="#000000">&lt; T, IP &gt;</text>
<polyline fill="none" stroke="#000000" points="280,-479.5 435,-479.5 "/>
<text text-anchor="middle" x="357.5" y="-467.5" font-family="Helvetica,sans-Serif" font-size="10.00" fill="#000000"> </text>
<polyline fill="none" stroke="#000000" points="280,-460.5 435,-460.5 "/>
<text text-anchor="start" x="288" y="-448.5" font-family="Helvetica,sans-Serif" font-size="10.00" fill="#000000">+ Configurable()</text>
</a>
</g>
</g>
<!-- Node11&#45;&gt;Node4 -->
<g id="edge12" class="edge">
<title>Node11&#45;&gt;Node4</title>
<path fill="none" stroke="#ffa500" d="M370.8249,-431.6568C382.2798,-393.9663 398.5703,-340.3654 409.0887,-305.7564"/>
<polygon fill="#ffa500" stroke="#ffa500" points="367.4366,-430.7693 367.8774,-441.355 374.1341,-432.8049 367.4366,-430.7693"/>
<text text-anchor="middle" x="396" y="-415" font-family="Helvetica,sans-Serif" font-size="10.00" fill="#000000"> &lt; int &gt;</text>
</g>
<!-- Node14 -->
<g id="node14" class="node">
<title>Node14</title>
<g id="a_node14"><a xlink:href="../../d8/d71/structo2_1_1framework_1_1Configurable.html" target="_top" xlink:title="{o2::framework::Configurable\l\&lt; float \&gt;\n||+ Configurable()\l}">
<polygon fill="none" stroke="#000000" points="169,-237.5 169,-305.5 324,-305.5 324,-237.5 169,-237.5"/>
<text text-anchor="start" x="177" y="-293.5" font-family="Helvetica,sans-Serif" font-size="10.00" fill="#000000">o2::framework::Configurable</text>
<text text-anchor="middle" x="246.5" y="-282.5" font-family="Helvetica,sans-Serif" font-size="10.00" fill="#000000">&lt; float &gt;</text>
<polyline fill="none" stroke="#000000" points="169,-275.5 324,-275.5 "/>
<text text-anchor="middle" x="246.5" y="-263.5" font-family="Helvetica,sans-Serif" font-size="10.00" fill="#000000"> </text>
<polyline fill="none" stroke="#000000" points="169,-256.5 324,-256.5 "/>
<text text-anchor="start" x="177" y="-244.5" font-family="Helvetica,sans-Serif" font-size="10.00" fill="#000000">+ Configurable()</text>
</a>
</g>
</g>
<!-- Node11&#45;&gt;Node14 -->
<g id="edge22" class="edge">
<title>Node11&#45;&gt;Node14</title>
<path fill="none" stroke="#ffa500" d="M328.4104,-432.7969C326.3633,-429.5109 324.3715,-426.2201 322.5,-423 299.6548,-383.6934 276.7029,-336.6501 262.0941,-305.5252"/>
<polygon fill="#ffa500" stroke="#ffa500" points="325.5875,-434.8799 333.9137,-441.4317 331.4906,-431.1177 325.5875,-434.8799"/>
<text text-anchor="middle" x="346.5" y="-415" font-family="Helvetica,sans-Serif" font-size="10.00" fill="#000000"> &lt; float &gt;</text>
</g>
<!-- Node12 -->
<g id="node12" class="node">
<title>Node12</title>
<polygon fill="none" stroke="#bfbfbf" points="406,-563 406,-620 435,-620 435,-563 406,-563"/>
<text text-anchor="middle" x="420.5" y="-608" font-family="Helvetica,sans-Serif" font-size="10.00" fill="#000000">IP</text>
<polyline fill="none" stroke="#bfbfbf" points="406,-601 435,-601 "/>
<text text-anchor="middle" x="420.5" y="-589" font-family="Helvetica,sans-Serif" font-size="10.00" fill="#000000"> </text>
<polyline fill="none" stroke="#bfbfbf" points="406,-582 435,-582 "/>
<text text-anchor="middle" x="420.5" y="-570" font-family="Helvetica,sans-Serif" font-size="10.00" fill="#000000"> </text>
</g>
<!-- Node12&#45;&gt;Node11 -->
<g id="edge13" class="edge">
<title>Node12&#45;&gt;Node11</title>
<path fill="none" stroke="#191970" d="M401.1127,-555.8028C393.1544,-541.1493 383.9792,-524.2553 376.1038,-509.7547"/>
<polygon fill="none" stroke="#191970" points="398.0399,-557.4785 405.8882,-564.5957 404.1912,-554.1376 398.0399,-557.4785"/>
</g>
<!-- Node13 -->
<g id="node13" class="node">
<title>Node13</title>
<polygon fill="none" stroke="#bfbfbf" points="515.5,-243 515.5,-300 553.5,-300 553.5,-243 515.5,-243"/>
<text text-anchor="middle" x="534.5" y="-288" font-family="Helvetica,sans-Serif" font-size="10.00" fill="#000000">char</text>
<polyline fill="none" stroke="#bfbfbf" points="515.5,-281 553.5,-281 "/>
<text text-anchor="middle" x="534.5" y="-269" font-family="Helvetica,sans-Serif" font-size="10.00" fill="#000000"> </text>
<polyline fill="none" stroke="#bfbfbf" points="515.5,-262 553.5,-262 "/>
<text text-anchor="middle" x="534.5" y="-250" font-family="Helvetica,sans-Serif" font-size="10.00" fill="#000000"> </text>
</g>
<!-- Node13&#45;&gt;Node1 -->
<g id="edge14" class="edge">
<title>Node13&#45;&gt;Node1</title>
<path fill="none" stroke="#404040" d="M530.6714,-242.9755C526.6454,-217.626 519.1061,-179.9062 506.5,-149 494.2938,-119.0742 488.0693,-112.7213 468.5,-87 466.1598,-83.9241 463.6678,-80.8232 461.0951,-77.7486"/>
<polygon fill="none" stroke="#404040" points="461.0697,-77.7193 454.1164,-75.8082 453.2062,-68.6547 460.1594,-70.5659 461.0697,-77.7193"/>
<text text-anchor="middle" x="538" y="-123" font-family="Helvetica,sans-Serif" font-size="10.00" fill="#000000"> +hnsigma</text>
<text text-anchor="middle" x="538" y="-112" font-family="Helvetica,sans-Serif" font-size="10.00" fill="#000000">+hexpected_diff</text>
<text text-anchor="middle" x="538" y="-101" font-family="Helvetica,sans-Serif" font-size="10.00" fill="#000000">+hexpected</text>
<text text-anchor="middle" x="538" y="-90" font-family="Helvetica,sans-Serif" font-size="10.00" fill="#000000">+pT</text>
</g>
<!-- Node14&#45;&gt;Node1 -->
<g id="edge15" class="edge">
<title>Node14&#45;&gt;Node1</title>
<path fill="none" stroke="#404040" d="M269.7289,-237.336C295.4053,-199.9203 338.3251,-138.3945 377.5,-87 379.6935,-84.1222 381.9717,-81.1716 384.2818,-78.2079"/>
<polygon fill="none" stroke="#404040" points="384.2856,-78.2031 384.8511,-71.0142 391.7045,-68.7712 391.139,-75.9601 384.2856,-78.2031"/>
<text text-anchor="middle" x="396.5" y="-112" font-family="Helvetica,sans-Serif" font-size="10.00" fill="#000000"> +MaxP</text>
<text text-anchor="middle" x="396.5" y="-101" font-family="Helvetica,sans-Serif" font-size="10.00" fill="#000000">+MinP</text>
</g>
<!-- Node15&#45;&gt;Node14 -->
<g id="edge16" class="edge">
<title>Node15&#45;&gt;Node14</title>
<path fill="none" stroke="#191970" d="M197.8249,-431.6568C209.2798,-393.9663 225.5703,-340.3654 236.0887,-305.7564"/>
<polygon fill="none" stroke="#191970" points="194.4366,-430.7693 194.8774,-441.355 201.1341,-432.8049 194.4366,-430.7693"/>
</g>
<!-- Node16&#45;&gt;Node15 -->
<g id="edge17" class="edge">
<title>Node16&#45;&gt;Node15</title>
<path fill="none" stroke="#191970" d="M155.1546,-547.9268C160.2561,-535.3359 165.7501,-521.7764 170.5892,-509.833"/>
<polygon fill="none" stroke="#191970" points="151.8587,-546.7411 151.3473,-557.3236 158.3465,-549.3698 151.8587,-546.7411"/>
</g>
<!-- Node17 -->
<g id="node17" class="node">
<title>Node17</title>
<g id="a_node17"><a xlink:href="../../d4/dc3/classfloat.html" target="_top" xlink:title="{float\n||}">
<polygon fill="none" stroke="#000000" points="118.5,-679 118.5,-736 156.5,-736 156.5,-679 118.5,-679"/>
<text text-anchor="middle" x="137.5" y="-724" font-family="Helvetica,sans-Serif" font-size="10.00" fill="#000000">float</text>
<polyline fill="none" stroke="#000000" points="118.5,-717 156.5,-717 "/>
<text text-anchor="middle" x="137.5" y="-705" font-family="Helvetica,sans-Serif" font-size="10.00" fill="#000000"> </text>
<polyline fill="none" stroke="#000000" points="118.5,-698 156.5,-698 "/>
<text text-anchor="middle" x="137.5" y="-686" font-family="Helvetica,sans-Serif" font-size="10.00" fill="#000000"> </text>
</a>
</g>
</g>
<!-- Node17&#45;&gt;Node16 -->
<g id="edge18" class="edge">
<title>Node17&#45;&gt;Node16</title>
<path fill="none" stroke="#404040" d="M137.5,-678.8258C137.5,-666.4977 137.5,-651.7709 137.5,-637.9549"/>
<polygon fill="none" stroke="#404040" points="137.5001,-637.6178 133.5,-631.6178 137.5,-625.6178 141.5,-631.6177 137.5001,-637.6178"/>
<text text-anchor="middle" x="157" y="-647" font-family="Helvetica,sans-Serif" font-size="10.00" fill="#000000"> +value</text>
</g>
</g>
</svg>
        <g id="navigator" transform="translate(0 0)" fill="#404254">
                <rect fill="#f2f5e9" fill-opacity="0.5" stroke="#606060" stroke-width=".5" x="0" y="0" width="60" height="60"/>
                <use id="zoomplus" xlink:href="#zoomPlus" x="17" y="9" onmousedown="handleZoom(evt,'in')"/>
                <use id="zoomminus" xlink:href="#zoomMin" x="42" y="9" onmousedown="handleZoom(evt,'out')"/>
                <use id="reset" xlink:href="#resetDef" x="30" y="36" onmousedown="handleReset()"/>
                <g id="arrowUp" xlink:href="#dirArrow" transform="translate(30 24)" onmousedown="handlePan(0,-1)">
                  <use xlink:href="#rim" fill="#404040">
                        <set attributeName="fill" to="#808080" begin="arrowUp.mouseover" end="arrowUp.mouseout"/>
                  </use>
                  <path fill="none" stroke="white" stroke-width="1.5" d="M0,-3.0v7 M-2.5,-0.5L0,-3.0L2.5,-0.5"/>
                </g>
                <g id="arrowRight" xlink:href="#dirArrow" transform="rotate(90) translate(36 -43)" onmousedown="handlePan(1,0)">
                  <use xlink:href="#rim" fill="#404040">
                        <set attributeName="fill" to="#808080" begin="arrowRight.mouseover" end="arrowRight.mouseout"/>
                  </use>
                  <path fill="none" stroke="white" stroke-width="1.5" d="M0,-3.0v7 M-2.5,-0.5L0,-3.0L2.5,-0.5"/>
                </g>
                <g id="arrowDown" xlink:href="#dirArrow" transform="rotate(180) translate(-30 -48)" onmousedown="handlePan(0,1)">
                  <use xlink:href="#rim" fill="#404040">
                        <set attributeName="fill" to="#808080" begin="arrowDown.mouseover" end="arrowDown.mouseout"/>
                  </use>
                  <path fill="none" stroke="white" stroke-width="1.5" d="M0,-3.0v7 M-2.5,-0.5L0,-3.0L2.5,-0.5"/>
                </g>
                <g id="arrowLeft" xlink:href="#dirArrow" transform="rotate(270) translate(-36 17)" onmousedown="handlePan(-1,0)">
                  <use xlink:href="#rim" fill="#404040">
                        <set attributeName="fill" to="#808080" begin="arrowLeft.mouseover" end="arrowLeft.mouseout"/>
                  </use>
                  <path fill="none" stroke="white" stroke-width="1.5" d="M0,-3.0v7 M-2.5,-0.5L0,-3.0L2.5,-0.5"/>
                </g>
        </g>
        <svg viewBox="0 0 15 15" width="100%" height="30px" preserveAspectRatio="xMaxYMin meet">
         <g id="arrow_out" transform="scale(0.3 0.3)">
          <a xlink:href="structpidTPCTaskQA__coll__graph_org.svg" target="_base">
           <rect id="button" ry="5" rx="5" y="6" x="6" height="38" width="38"
                fill="#f2f5e9" fill-opacity="0.5" stroke="#606060" stroke-width="1.0"/>
           <path id="arrow"
             d="M 11.500037,31.436501 C 11.940474,20.09759 22.043105,11.32322 32.158766,21.979434 L 37.068811,17.246167 C 37.068811,17.246167 37.088388,32 37.088388,32 L 22.160133,31.978069 C 22.160133,31.978069 26.997745,27.140456 26.997745,27.140456 C 18.528582,18.264221 13.291696,25.230495 11.500037,31.436501 z"
             style="fill:#404040;"/>
          </a>
         </g>
        </svg>
</svg>
