<?xml version="1.0" encoding="UTF-8" standalone="no"?>
<!DOCTYPE svg PUBLIC "-//W3C//DTD SVG 1.1//EN"
 "http://www.w3.org/Graphics/SVG/1.1/DTD/svg11.dtd">
<!-- Generated by graphviz version 2.40.1 (20161225.0304)
 -->
<!-- Title: /home/travis/build/AliceO2Group/AliceO2/Detectors/MUON/MID/Raw/src/ElectronicsDelay.cxx Pages: 1 -->
<svg width="375pt" height="173pt"
 viewBox="0.00 0.00 374.50 173.00" xmlns="http://www.w3.org/2000/svg" xmlns:xlink="http://www.w3.org/1999/xlink">
<g id="graph0" class="graph" transform="scale(1 1) rotate(0) translate(4 169)">
<title>/home/travis/build/AliceO2Group/AliceO2/Detectors/MUON/MID/Raw/src/ElectronicsDelay.cxx</title>
<!-- Node0 -->
<g id="node1" class="node">
<title>Node0</title>
<polygon fill="#bfbfbf" stroke="#000000" points="164.5,-112.5 164.5,-164.5 310.5,-164.5 310.5,-112.5 164.5,-112.5"/>
<text text-anchor="start" x="172.5" y="-152.5" font-family="Helvetica,sans-Serif" font-size="10.00" fill="#000000">/home/travis/build</text>
<text text-anchor="start" x="172.5" y="-141.5" font-family="Helvetica,sans-Serif" font-size="10.00" fill="#000000">/AliceO2Group/AliceO2</text>
<text text-anchor="start" x="172.5" y="-130.5" font-family="Helvetica,sans-Serif" font-size="10.00" fill="#000000">/Detectors/MUON/MID/Raw</text>
<text text-anchor="middle" x="237.5" y="-119.5" font-family="Helvetica,sans-Serif" font-size="10.00" fill="#000000">/src/ElectronicsDelay.cxx</text>
</g>
<!-- Node1 -->
<g id="node2" class="node">
<title>Node1</title>
<g id="a_node2"><a xlink:href="../../d8/de7/ElectronicsDelay_8h.html" target="_top" xlink:title="Delay parameters for MID electronics. ">
<polygon fill="none" stroke="#000000" points="0,-56.5 0,-75.5 149,-75.5 149,-56.5 0,-56.5"/>
<text text-anchor="middle" x="74.5" y="-63.5" font-family="Helvetica,sans-Serif" font-size="10.00" fill="#000000">MIDRaw/ElectronicsDelay.h</text>
</a>
</g>
</g>
<!-- Node0&#45;&gt;Node1 -->
<g id="edge1" class="edge">
<title>Node0&#45;&gt;Node1</title>
<path fill="none" stroke="#191970" d="M178.6533,-112.3258C153.7769,-101.2612 125.8418,-88.8361 105.1693,-79.6413"/>
<polygon fill="#191970" stroke="#191970" points="106.4945,-76.4001 95.9351,-75.534 103.6496,-82.796 106.4945,-76.4001"/>
</g>
<!-- Node4 -->
<g id="node5" class="node">
<title>Node4</title>
<polygon fill="none" stroke="#bfbfbf" points="166.5,-56.5 166.5,-75.5 230.5,-75.5 230.5,-56.5 166.5,-56.5"/>
<text text-anchor="middle" x="198.5" y="-63.5" font-family="Helvetica,sans-Serif" font-size="10.00" fill="#000000">algorithm</text>
</g>
<!-- Node0&#45;&gt;Node4 -->
<g id="edge4" class="edge">
<title>Node0&#45;&gt;Node4</title>
<path fill="none" stroke="#191970" d="M223.4201,-112.3258C218.4646,-103.1136 213.0017,-92.9584 208.4569,-84.5096"/>
<polygon fill="#191970" stroke="#191970" points="211.4484,-82.6826 203.6286,-75.534 205.2837,-85.9988 211.4484,-82.6826"/>
</g>
<!-- Node5 -->
<g id="node6" class="node">
<title>Node5</title>
<polygon fill="none" stroke="#bfbfbf" points="249,-56.5 249,-75.5 304,-75.5 304,-56.5 249,-56.5"/>
<text text-anchor="middle" x="276.5" y="-63.5" font-family="Helvetica,sans-Serif" font-size="10.00" fill="#000000">fstream</text>
</g>
<!-- Node0&#45;&gt;Node5 -->
<g id="edge5" class="edge">
<title>Node0&#45;&gt;Node5</title>
<path fill="none" stroke="#191970" d="M251.5799,-112.3258C256.5354,-103.1136 261.9983,-92.9584 266.5431,-84.5096"/>
<polygon fill="#191970" stroke="#191970" points="269.7163,-85.9988 271.3714,-75.534 263.5516,-82.6826 269.7163,-85.9988"/>
</g>
<!-- Node6 -->
<g id="node7" class="node">
<title>Node6</title>
<polygon fill="none" stroke="#bfbfbf" points="322.5,-56.5 322.5,-75.5 366.5,-75.5 366.5,-56.5 322.5,-56.5"/>
<text text-anchor="middle" x="344.5" y="-63.5" font-family="Helvetica,sans-Serif" font-size="10.00" fill="#000000">string</text>
</g>
<!-- Node0&#45;&gt;Node6 -->
<g id="edge6" class="edge">
<title>Node0&#45;&gt;Node6</title>
<path fill="none" stroke="#191970" d="M276.1295,-112.3258C291.4988,-101.912 308.6467,-90.2931 321.9245,-81.2965"/>
<polygon fill="#191970" stroke="#191970" points="324.1138,-84.0409 330.4291,-75.534 320.1872,-78.2459 324.1138,-84.0409"/>
</g>
<!-- Node2 -->
<g id="node3" class="node">
<title>Node2</title>
<polygon fill="none" stroke="#bfbfbf" points="13.5,-.5 13.5,-19.5 63.5,-19.5 63.5,-.5 13.5,-.5"/>
<text text-anchor="middle" x="38.5" y="-7.5" font-family="Helvetica,sans-Serif" font-size="10.00" fill="#000000">cstdint</text>
</g>
<!-- Node1&#45;&gt;Node2 -->
<g id="edge2" class="edge">
<title>Node1&#45;&gt;Node2</title>
<path fill="none" stroke="#191970" d="M68.2293,-56.2455C63.2736,-48.5367 56.217,-37.5598 50.2224,-28.2348"/>
<polygon fill="#191970" stroke="#191970" points="53.0506,-26.1618 44.6989,-19.6427 47.1624,-29.9471 53.0506,-26.1618"/>
</g>
<!-- Node3 -->
<g id="node4" class="node">
<title>Node3</title>
<polygon fill="none" stroke="#bfbfbf" points="81.5,-.5 81.5,-19.5 141.5,-19.5 141.5,-.5 81.5,-.5"/>
<text text-anchor="middle" x="111.5" y="-7.5" font-family="Helvetica,sans-Serif" font-size="10.00" fill="#000000">iostream</text>
</g>
<!-- Node1&#45;&gt;Node3 -->
<g id="edge3" class="edge">
<title>Node1&#45;&gt;Node3</title>
<path fill="none" stroke="#191970" d="M80.9449,-56.2455C86.0382,-48.5367 93.2908,-37.5598 99.452,-28.2348"/>
<polygon fill="#191970" stroke="#191970" points="102.5365,-29.9155 105.1289,-19.6427 96.6962,-26.0566 102.5365,-29.9155"/>
</g>
</g>
</svg>
