<?xml version="1.0" encoding="UTF-8" standalone="no"?>
<!DOCTYPE svg PUBLIC "-//W3C//DTD SVG 1.1//EN"
 "http://www.w3.org/Graphics/SVG/1.1/DTD/svg11.dtd">
<!-- Generated by graphviz version 2.40.1 (20161225.0304)
 -->
<!-- Title: o2::fdd::EventData Pages: 1 -->
<svg width="438pt" height="303pt"
 viewBox="0.00 0.00 438.00 303.00" xmlns="http://www.w3.org/2000/svg" xmlns:xlink="http://www.w3.org/1999/xlink">
<g id="graph0" class="graph" transform="scale(1 1) rotate(0) translate(4 299)">
<title>o2::fdd::EventData</title>
<!-- Node1 -->
<g id="node1" class="node">
<title>Node1</title>
<polygon fill="#bfbfbf" stroke="#000000" points="132.5,-.5 132.5,-79.5 247.5,-79.5 247.5,-.5 132.5,-.5"/>
<text text-anchor="middle" x="190" y="-67.5" font-family="Helvetica,sans-Serif" font-size="10.00" fill="#000000">o2::fdd::EventData</text>
<polyline fill="none" stroke="#000000" points="132.5,-60.5 247.5,-60.5 "/>
<text text-anchor="start" x="140.5" y="-48.5" font-family="Helvetica,sans-Serif" font-size="10.00" fill="#000000">+ isDoubleEvent</text>
<text text-anchor="start" x="140.5" y="-37.5" font-family="Helvetica,sans-Serif" font-size="10.00" fill="#000000">+ is1TimeLostEvent</text>
<text text-anchor="start" x="140.5" y="-26.5" font-family="Helvetica,sans-Serif" font-size="10.00" fill="#000000">+ isAmpHigh</text>
<polyline fill="none" stroke="#000000" points="132.5,-19.5 247.5,-19.5 "/>
<text text-anchor="start" x="140.5" y="-7.5" font-family="Helvetica,sans-Serif" font-size="10.00" fill="#000000">+ generateFlags()</text>
</g>
<!-- Node2 -->
<g id="node2" class="node">
<title>Node2</title>
<g id="a_node2"><a xlink:href="../../d6/d30/classuint64__t.html" target="_top" xlink:title="{uint64_t\n||}">
<polygon fill="none" stroke="#000000" points="0,-237.5 0,-294.5 56,-294.5 56,-237.5 0,-237.5"/>
<text text-anchor="middle" x="28" y="-282.5" font-family="Helvetica,sans-Serif" font-size="10.00" fill="#000000">uint64_t</text>
<polyline fill="none" stroke="#000000" points="0,-275.5 56,-275.5 "/>
<text text-anchor="middle" x="28" y="-263.5" font-family="Helvetica,sans-Serif" font-size="10.00" fill="#000000"> </text>
<polyline fill="none" stroke="#000000" points="0,-256.5 56,-256.5 "/>
<text text-anchor="middle" x="28" y="-244.5" font-family="Helvetica,sans-Serif" font-size="10.00" fill="#000000"> </text>
</a>
</g>
</g>
<!-- Node2&#45;&gt;Node1 -->
<g id="edge1" class="edge">
<title>Node2&#45;&gt;Node1</title>
<path fill="none" stroke="#404040" d="M21.4833,-237.3001C15.0207,-201.1 9.929,-138.6788 40,-98 58.9636,-72.3468 90.8797,-58.039 120.4089,-50.0593"/>
<polygon fill="none" stroke="#404040" points="120.7838,-49.9675 125.658,-44.6531 132.4382,-47.1084 127.564,-52.4227 120.7838,-49.9675"/>
<text text-anchor="middle" x="88" y="-211" font-family="Helvetica,sans-Serif" font-size="10.00" fill="#000000"> +isEventInTVDC</text>
<text text-anchor="middle" x="88" y="-200" font-family="Helvetica,sans-Serif" font-size="10.00" fill="#000000">+is2TimeLostEvent</text>
<text text-anchor="middle" x="88" y="-189" font-family="Helvetica,sans-Serif" font-size="10.00" fill="#000000">+isADCinGate</text>
<text text-anchor="middle" x="88" y="-178" font-family="Helvetica,sans-Serif" font-size="10.00" fill="#000000">+word</text>
<text text-anchor="middle" x="88" y="-167" font-family="Helvetica,sans-Serif" font-size="10.00" fill="#000000">+isTimeInfoLate</text>
<text text-anchor="middle" x="88" y="-156" font-family="Helvetica,sans-Serif" font-size="10.00" fill="#000000">+numberADC</text>
<text text-anchor="middle" x="88" y="-145" font-family="Helvetica,sans-Serif" font-size="10.00" fill="#000000">+word_zeros</text>
<text text-anchor="middle" x="88" y="-134" font-family="Helvetica,sans-Serif" font-size="10.00" fill="#000000">+channelID</text>
<text text-anchor="middle" x="88" y="-123" font-family="Helvetica,sans-Serif" font-size="10.00" fill="#000000">+isTimeInfoLost</text>
<text text-anchor="middle" x="88" y="-112" font-family="Helvetica,sans-Serif" font-size="10.00" fill="#000000">+reservedField</text>
<text text-anchor="middle" x="88" y="-101" font-family="Helvetica,sans-Serif" font-size="10.00" fill="#000000">...</text>
</g>
<!-- Node3 -->
<g id="node3" class="node">
<title>Node3</title>
<polygon fill="none" stroke="#bfbfbf" points="83.5,-237.5 83.5,-294.5 190.5,-294.5 190.5,-237.5 83.5,-237.5"/>
<text text-anchor="middle" x="137" y="-282.5" font-family="Helvetica,sans-Serif" font-size="10.00" fill="#000000">anonymous:+@13</text>
<polyline fill="none" stroke="#bfbfbf" points="83.5,-275.5 190.5,-275.5 "/>
<text text-anchor="middle" x="137" y="-263.5" font-family="Helvetica,sans-Serif" font-size="10.00" fill="#000000"> </text>
<polyline fill="none" stroke="#bfbfbf" points="83.5,-256.5 190.5,-256.5 "/>
<text text-anchor="middle" x="137" y="-244.5" font-family="Helvetica,sans-Serif" font-size="10.00" fill="#000000"> </text>
</g>
<!-- Node3&#45;&gt;Node1 -->
<g id="edge2" class="edge">
<title>Node3&#45;&gt;Node1</title>
<path fill="none" stroke="#404040" d="M138.975,-237.2153C141.8646,-203.3139 148.5596,-145.5882 163,-98 163.6894,-95.7282 164.4519,-93.4313 165.2705,-91.1296"/>
<polygon fill="none" stroke="#404040" points="165.3807,-90.8475 163.8412,-83.8026 169.7521,-79.6719 171.2916,-86.7168 165.3807,-90.8475"/>
<text text-anchor="middle" x="180" y="-156" font-family="Helvetica,sans-Serif" font-size="10.00" fill="#000000"> +@13</text>
</g>
<!-- Node4 -->
<g id="node4" class="node">
<title>Node4</title>
<polygon fill="none" stroke="#bfbfbf" points="209,-237.5 209,-294.5 259,-294.5 259,-237.5 209,-237.5"/>
<text text-anchor="middle" x="234" y="-282.5" font-family="Helvetica,sans-Serif" font-size="10.00" fill="#000000">int64_t</text>
<polyline fill="none" stroke="#bfbfbf" points="209,-275.5 259,-275.5 "/>
<text text-anchor="middle" x="234" y="-263.5" font-family="Helvetica,sans-Serif" font-size="10.00" fill="#000000"> </text>
<polyline fill="none" stroke="#bfbfbf" points="209,-256.5 259,-256.5 "/>
<text text-anchor="middle" x="234" y="-244.5" font-family="Helvetica,sans-Serif" font-size="10.00" fill="#000000"> </text>
</g>
<!-- Node4&#45;&gt;Node1 -->
<g id="edge3" class="edge">
<title>Node4&#45;&gt;Node1</title>
<path fill="none" stroke="#404040" d="M228.4274,-237.3769C221.3101,-200.8198 208.8634,-136.8894 200.0667,-91.7062"/>
<polygon fill="none" stroke="#404040" points="200.0394,-91.5656 194.9665,-86.4406 197.7461,-79.7868 202.819,-84.9117 200.0394,-91.5656"/>
<text text-anchor="middle" x="245" y="-161.5" font-family="Helvetica,sans-Serif" font-size="10.00" fill="#000000"> +time</text>
<text text-anchor="middle" x="245" y="-150.5" font-family="Helvetica,sans-Serif" font-size="10.00" fill="#000000">+charge</text>
</g>
<!-- Node5 -->
<g id="node5" class="node">
<title>Node5</title>
<polygon fill="none" stroke="#bfbfbf" points="277,-237.5 277,-294.5 321,-294.5 321,-237.5 277,-237.5"/>
<text text-anchor="middle" x="299" y="-282.5" font-family="Helvetica,sans-Serif" font-size="10.00" fill="#000000">static</text>
<polyline fill="none" stroke="#bfbfbf" points="277,-275.5 321,-275.5 "/>
<text text-anchor="middle" x="299" y="-263.5" font-family="Helvetica,sans-Serif" font-size="10.00" fill="#000000"> </text>
<polyline fill="none" stroke="#bfbfbf" points="277,-256.5 321,-256.5 "/>
<text text-anchor="middle" x="299" y="-244.5" font-family="Helvetica,sans-Serif" font-size="10.00" fill="#000000"> </text>
</g>
<!-- Node5&#45;&gt;Node1 -->
<g id="edge4" class="edge">
<title>Node5&#45;&gt;Node1</title>
<path fill="none" stroke="#404040" d="M300.3809,-237.2534C300.7358,-201.8386 296.8433,-141.0822 270,-98 266.2805,-92.0304 261.7004,-86.4852 256.6308,-81.3816"/>
<polygon fill="none" stroke="#404040" points="256.5558,-81.3131 249.4289,-80.214 247.7023,-73.2127 254.8292,-74.3117 256.5558,-81.3131"/>
<text text-anchor="middle" x="365" y="-161.5" font-family="Helvetica,sans-Serif" font-size="10.00" fill="#000000"> +PayloadSizeSecondWord</text>
<text text-anchor="middle" x="365" y="-150.5" font-family="Helvetica,sans-Serif" font-size="10.00" fill="#000000">+PayloadSizeFirstWord</text>
</g>
</g>
</svg>
