<?xml version="1.0" encoding="UTF-8" standalone="no"?>
<!DOCTYPE svg PUBLIC "-//W3C//DTD SVG 1.1//EN"
 "http://www.w3.org/Graphics/SVG/1.1/DTD/svg11.dtd">
<!-- Generated by graphviz version 2.40.1 (20161225.0304)
 -->
<!-- Title: o2::ft0::FT0DataReaderDPLSpec&lt; RawReader &gt; Pages: 1 -->
<svg width="229pt" height="259pt"
 viewBox="0.00 0.00 229.00 259.00" xmlns="http://www.w3.org/2000/svg" xmlns:xlink="http://www.w3.org/1999/xlink">
<g id="graph0" class="graph" transform="scale(1 1) rotate(0) translate(4 255)">
<title>o2::ft0::FT0DataReaderDPLSpec&lt; RawReader &gt;</title>
<!-- Node2 -->
<g id="node1" class="node">
<title>Node2</title>
<polygon fill="#bfbfbf" stroke="#000000" points="29,-.5 29,-112.5 199,-112.5 199,-.5 29,-.5"/>
<text text-anchor="start" x="37" y="-100.5" font-family="Helvetica,sans-Serif" font-size="10.00" fill="#000000">o2::ft0::FT0DataReaderDPLSpec</text>
<text text-anchor="middle" x="114" y="-89.5" font-family="Helvetica,sans-Serif" font-size="10.00" fill="#000000">&lt; RawReader &gt;</text>
<polyline fill="none" stroke="#000000" points="29,-82.5 199,-82.5 "/>
<text text-anchor="middle" x="114" y="-70.5" font-family="Helvetica,sans-Serif" font-size="10.00" fill="#000000"> </text>
<polyline fill="none" stroke="#000000" points="29,-63.5 199,-63.5 "/>
<text text-anchor="start" x="37" y="-51.5" font-family="Helvetica,sans-Serif" font-size="10.00" fill="#000000">+ FT0DataReaderDPLSpec()</text>
<text text-anchor="start" x="37" y="-40.5" font-family="Helvetica,sans-Serif" font-size="10.00" fill="#000000">+ FT0DataReaderDPLSpec()</text>
<text text-anchor="start" x="37" y="-29.5" font-family="Helvetica,sans-Serif" font-size="10.00" fill="#000000">+ ~FT0DataReaderDPLSpec()</text>
<text text-anchor="start" x="37" y="-18.5" font-family="Helvetica,sans-Serif" font-size="10.00" fill="#000000">+ init()</text>
<text text-anchor="start" x="37" y="-7.5" font-family="Helvetica,sans-Serif" font-size="10.00" fill="#000000">+ run()</text>
</g>
<!-- Node3 -->
<g id="node2" class="node">
<title>Node3</title>
<g id="a_node2"><a xlink:href="../../de/dac/classo2_1_1framework_1_1Task.html" target="_top" xlink:title="{o2::framework::Task\n||+ ~Task()\l+ init()\l+ run()\l+ endOfStream()\l}">
<polygon fill="none" stroke="#000000" points="0,-160.5 0,-250.5 116,-250.5 116,-160.5 0,-160.5"/>
<text text-anchor="middle" x="58" y="-238.5" font-family="Helvetica,sans-Serif" font-size="10.00" fill="#000000">o2::framework::Task</text>
<polyline fill="none" stroke="#000000" points="0,-231.5 116,-231.5 "/>
<text text-anchor="middle" x="58" y="-219.5" font-family="Helvetica,sans-Serif" font-size="10.00" fill="#000000"> </text>
<polyline fill="none" stroke="#000000" points="0,-212.5 116,-212.5 "/>
<text text-anchor="start" x="8" y="-200.5" font-family="Helvetica,sans-Serif" font-size="10.00" fill="#000000">+ ~Task()</text>
<text text-anchor="start" x="8" y="-189.5" font-family="Helvetica,sans-Serif" font-size="10.00" fill="#000000">+ init()</text>
<text text-anchor="start" x="8" y="-178.5" font-family="Helvetica,sans-Serif" font-size="10.00" fill="#000000">+ run()</text>
<text text-anchor="start" x="8" y="-167.5" font-family="Helvetica,sans-Serif" font-size="10.00" fill="#000000">+ endOfStream()</text>
</a>
</g>
</g>
<!-- Node3&#45;&gt;Node2 -->
<g id="edge1" class="edge">
<title>Node3&#45;&gt;Node2</title>
<path fill="none" stroke="#191970" d="M78.4856,-150.9937C83.1949,-138.4636 88.2105,-125.1186 92.9435,-112.5254"/>
<polygon fill="none" stroke="#191970" points="75.1957,-149.7987 74.9538,-160.3907 81.7482,-152.2614 75.1957,-149.7987"/>
</g>
<!-- Node4 -->
<g id="node3" class="node">
<title>Node4</title>
<polygon fill="none" stroke="#bfbfbf" points="134.5,-177 134.5,-234 205.5,-234 205.5,-177 134.5,-177"/>
<text text-anchor="middle" x="170" y="-222" font-family="Helvetica,sans-Serif" font-size="10.00" fill="#000000">RawReader</text>
<polyline fill="none" stroke="#bfbfbf" points="134.5,-215 205.5,-215 "/>
<text text-anchor="middle" x="170" y="-203" font-family="Helvetica,sans-Serif" font-size="10.00" fill="#000000"> </text>
<polyline fill="none" stroke="#bfbfbf" points="134.5,-196 205.5,-196 "/>
<text text-anchor="middle" x="170" y="-184" font-family="Helvetica,sans-Serif" font-size="10.00" fill="#000000"> </text>
</g>
<!-- Node4&#45;&gt;Node2 -->
<g id="edge2" class="edge">
<title>Node4&#45;&gt;Node2</title>
<path fill="none" stroke="#404040" d="M159.2026,-176.7713C153.5438,-161.7146 146.3543,-142.5856 139.3831,-124.0372"/>
<polygon fill="none" stroke="#404040" points="139.3082,-123.8378 133.453,-119.6286 135.0864,-112.6049 140.9416,-116.8141 139.3082,-123.8378"/>
<text text-anchor="middle" x="183" y="-134" font-family="Helvetica,sans-Serif" font-size="10.00" fill="#000000"> +mRawReader</text>
</g>
</g>
</svg>
