<?xml version="1.0" encoding="UTF-8" standalone="no"?>
<!DOCTYPE svg PUBLIC "-//W3C//DTD SVG 1.1//EN"
 "http://www.w3.org/Graphics/SVG/1.1/DTD/svg11.dtd">
<!-- Generated by graphviz version 2.40.1 (20161225.0304)
 -->
<!-- Title: /home/travis/build/AliceO2Group/AliceO2/Detectors/TPC/calibration/include/TPCCalibration/FastHisto.h Pages: 1 -->
<!--zoomable 229 -->
<svg id="main" version="1.1" xmlns="http://www.w3.org/2000/svg" xmlns:xlink="http://www.w3.org/1999/xlink" xml:space="preserve" onload="init(evt)">
<style type="text/css"><![CDATA[
.edge:hover path { stroke: red; }
.edge:hover polygon { stroke: red; fill: red; }
]]></style>
<script type="text/javascript"><![CDATA[
var edges = document.getElementsByTagName('g');
if (edges && edges.length) {
  for (var i=0;i<edges.length;i++) {
    if (edges[i].id.substr(0,4)=='edge') {
      edges[i].setAttribute('class','edge');
    }
  }
}
]]></script>
        <defs>
                <circle id="rim" cx="0" cy="0" r="7"/>
                <circle id="rim2" cx="0" cy="0" r="3.5"/>
                <g id="zoomPlus">
                        <use xlink:href="#rim" fill="#404040">
                                <set attributeName="fill" to="#808080" begin="zoomplus.mouseover" end="zoomplus.mouseout"/>
                        </use>
                        <path d="M-4,0h8M0,-4v8" fill="none" stroke="white" stroke-width="1.5" pointer-events="none"/>
                </g>
                <g id="zoomMin">
                        <use xlink:href="#rim" fill="#404040">
                                <set attributeName="fill" to="#808080" begin="zoomminus.mouseover" end="zoomminus.mouseout"/>
                        </use>
                        <path d="M-4,0h8" fill="none" stroke="white" stroke-width="1.5" pointer-events="none"/>
                </g>
                <g id="dirArrow">
                        <path fill="none" stroke="white" stroke-width="1.5" d="M0,-3.0v7 M-2.5,-0.5L0,-3.0L2.5,-0.5"/>
                </g>
               <g id="resetDef">
                       <use xlink:href="#rim2" fill="#404040">
                               <set attributeName="fill" to="#808080" begin="reset.mouseover" end="reset.mouseout"/>
                       </use>
               </g>
        </defs>

<script type="text/javascript">
var viewWidth = 1592;
var viewHeight = 229;
var sectionId = 'dynsection-0';
</script>
<script xlink:href="../../svgpan.js"/>
<svg id="graph" class="graph">
<g id="viewport">
<title>/home/travis/build/AliceO2Group/AliceO2/Detectors/TPC/calibration/include/TPCCalibration/FastHisto.h</title>
<!-- Node0 -->
<g id="node1" class="node">
<title>Node0</title>
<polygon fill="#bfbfbf" stroke="#000000" points="620,-168.5 620,-220.5 807,-220.5 807,-168.5 620,-168.5"/>
<text text-anchor="start" x="628" y="-208.5" font-family="Helvetica,sans-Serif" font-size="10.00" fill="#000000">/home/travis/build</text>
<text text-anchor="start" x="628" y="-197.5" font-family="Helvetica,sans-Serif" font-size="10.00" fill="#000000">/AliceO2Group/AliceO2</text>
<text text-anchor="start" x="628" y="-186.5" font-family="Helvetica,sans-Serif" font-size="10.00" fill="#000000">/Detectors/TPC/calibration</text>
<text text-anchor="middle" x="713.5" y="-175.5" font-family="Helvetica,sans-Serif" font-size="10.00" fill="#000000">/include/TPCCalibration/FastHisto.h</text>
</g>
<!-- Node1 -->
<g id="node2" class="node">
<title>Node1</title>
<g id="a_node2"><a xlink:href="../../d5/d71/fit_8h.html" target="_top" xlink:title="MathUtils/fit.h">
<polygon fill="none" stroke="#000000" points="636,-112.5 636,-131.5 721,-131.5 721,-112.5 636,-112.5"/>
<text text-anchor="middle" x="678.5" y="-119.5" font-family="Helvetica,sans-Serif" font-size="10.00" fill="#000000">MathUtils/fit.h</text>
</a>
</g>
</g>
<!-- Node0&#45;&gt;Node1 -->
<g id="edge1" class="edge">
<title>Node0&#45;&gt;Node1</title>
<path fill="none" stroke="#191970" d="M700.8642,-168.3258C696.4653,-159.2138 691.6209,-149.179 687.5689,-140.7857"/>
<polygon fill="#191970" stroke="#191970" points="690.6021,-139.0179 683.1026,-131.534 684.2982,-142.0612 690.6021,-139.0179"/>
</g>
<!-- Node5 -->
<g id="node6" class="node">
<title>Node5</title>
<polygon fill="none" stroke="#bfbfbf" points="0,-56.5 0,-75.5 47,-75.5 47,-56.5 0,-56.5"/>
<text text-anchor="middle" x="23.5" y="-63.5" font-family="Helvetica,sans-Serif" font-size="10.00" fill="#000000">vector</text>
</g>
<!-- Node0&#45;&gt;Node5 -->
<g id="edge23" class="edge">
<title>Node0&#45;&gt;Node5</title>
<path fill="none" stroke="#191970" d="M619.8352,-181.3937C493.5266,-162.8807 261.717,-125.9469 56.9051,-76.1405"/>
<polygon fill="#191970" stroke="#191970" points="57.7184,-72.7363 47.173,-73.759 56.0545,-79.5357 57.7184,-72.7363"/>
</g>
<!-- Node19 -->
<g id="node20" class="node">
<title>Node19</title>
<g id="a_node20"><a xlink:href="../../dd/da4/Logger_8h.html" target="_top" xlink:title="Framework/Logger.h">
<polygon fill="none" stroke="#000000" points="1469,-56.5 1469,-75.5 1584,-75.5 1584,-56.5 1469,-56.5"/>
<text text-anchor="middle" x="1526.5" y="-63.5" font-family="Helvetica,sans-Serif" font-size="10.00" fill="#000000">Framework/Logger.h</text>
</a>
</g>
</g>
<!-- Node0&#45;&gt;Node19 -->
<g id="edge21" class="edge">
<title>Node0&#45;&gt;Node19</title>
<path fill="none" stroke="#191970" d="M723.3187,-168.383C732.0433,-149.174 746.8071,-124.3464 768.5,-112 833.0993,-75.2337 1347.1634,-83.0911 1458.7612,-75.7808"/>
<polygon fill="#191970" stroke="#191970" points="1459.1141,-79.2638 1468.8005,-74.9715 1458.5516,-72.2864 1459.1141,-79.2638"/>
</g>
<!-- Node21 -->
<g id="node22" class="node">
<title>Node21</title>
<polygon fill="none" stroke="#bfbfbf" points="777.5,-112.5 777.5,-131.5 833.5,-131.5 833.5,-112.5 777.5,-112.5"/>
<text text-anchor="middle" x="805.5" y="-119.5" font-family="Helvetica,sans-Serif" font-size="10.00" fill="#000000">sstream</text>
</g>
<!-- Node0&#45;&gt;Node21 -->
<g id="edge22" class="edge">
<title>Node0&#45;&gt;Node21</title>
<path fill="none" stroke="#191970" d="M746.7141,-168.3258C759.6747,-158.1123 774.1063,-146.7396 785.427,-137.8184"/>
<polygon fill="#191970" stroke="#191970" points="787.7137,-140.4726 793.4017,-131.534 783.381,-134.9746 787.7137,-140.4726"/>
</g>
<!-- Node2 -->
<g id="node3" class="node">
<title>Node2</title>
<polygon fill="none" stroke="#bfbfbf" points="65,-56.5 65,-75.5 112,-75.5 112,-56.5 65,-56.5"/>
<text text-anchor="middle" x="88.5" y="-63.5" font-family="Helvetica,sans-Serif" font-size="10.00" fill="#000000">cmath</text>
</g>
<!-- Node1&#45;&gt;Node2 -->
<g id="edge2" class="edge">
<title>Node1&#45;&gt;Node2</title>
<path fill="none" stroke="#191970" d="M635.9352,-119.6557C526.7404,-113.4599 237.7585,-95.8724 122.1291,-75.657"/>
<polygon fill="#191970" stroke="#191970" points="122.6113,-72.187 112.143,-73.8196 121.3446,-79.0715 122.6113,-72.187"/>
</g>
<!-- Node3 -->
<g id="node4" class="node">
<title>Node3</title>
<polygon fill="none" stroke="#bfbfbf" points="130.5,-56.5 130.5,-75.5 186.5,-75.5 186.5,-56.5 130.5,-56.5"/>
<text text-anchor="middle" x="158.5" y="-63.5" font-family="Helvetica,sans-Serif" font-size="10.00" fill="#000000">numeric</text>
</g>
<!-- Node1&#45;&gt;Node3 -->
<g id="edge3" class="edge">
<title>Node1&#45;&gt;Node3</title>
<path fill="none" stroke="#191970" d="M635.852,-120.3598C552.9127,-116.6486 364.062,-105.6474 196.6481,-75.938"/>
<polygon fill="#191970" stroke="#191970" points="197.132,-72.4689 186.6698,-74.1401 195.8907,-79.3579 197.132,-72.4689"/>
</g>
<!-- Node4 -->
<g id="node5" class="node">
<title>Node4</title>
<polygon fill="none" stroke="#bfbfbf" points="204.5,-56.5 204.5,-75.5 268.5,-75.5 268.5,-56.5 204.5,-56.5"/>
<text text-anchor="middle" x="236.5" y="-63.5" font-family="Helvetica,sans-Serif" font-size="10.00" fill="#000000">algorithm</text>
</g>
<!-- Node1&#45;&gt;Node4 -->
<g id="edge4" class="edge">
<title>Node1&#45;&gt;Node4</title>
<path fill="none" stroke="#191970" d="M635.8088,-118.8667C564.0415,-113.2164 414.5469,-99.8058 278.8112,-76.0467"/>
<polygon fill="#191970" stroke="#191970" points="279.1059,-72.5444 268.6482,-74.2435 277.8829,-79.4367 279.1059,-72.5444"/>
</g>
<!-- Node1&#45;&gt;Node5 -->
<g id="edge5" class="edge">
<title>Node1&#45;&gt;Node5</title>
<path fill="none" stroke="#191970" d="M635.7847,-120.123C517.307,-114.7195 185.3662,-98.1937 57.0778,-75.8679"/>
<polygon fill="#191970" stroke="#191970" points="57.5787,-72.4015 47.1116,-74.0414 56.3168,-79.2868 57.5787,-72.4015"/>
</g>
<!-- Node6 -->
<g id="node7" class="node">
<title>Node6</title>
<polygon fill="none" stroke="#bfbfbf" points="286.5,-56.5 286.5,-75.5 328.5,-75.5 328.5,-56.5 286.5,-56.5"/>
<text text-anchor="middle" x="307.5" y="-63.5" font-family="Helvetica,sans-Serif" font-size="10.00" fill="#000000">array</text>
</g>
<!-- Node1&#45;&gt;Node6 -->
<g id="edge6" class="edge">
<title>Node1&#45;&gt;Node6</title>
<path fill="none" stroke="#191970" d="M635.7743,-118.8269C572.5733,-113.5699 450.435,-101.256 338.4302,-75.8561"/>
<polygon fill="#191970" stroke="#191970" points="339.1953,-72.4407 328.6643,-73.6017 337.6208,-79.2614 339.1953,-72.4407"/>
</g>
<!-- Node7 -->
<g id="node8" class="node">
<title>Node7</title>
<polygon fill="none" stroke="#bfbfbf" points="347,-56.5 347,-75.5 406,-75.5 406,-56.5 347,-56.5"/>
<text text-anchor="middle" x="376.5" y="-63.5" font-family="Helvetica,sans-Serif" font-size="10.00" fill="#000000">Rtypes.h</text>
</g>
<!-- Node1&#45;&gt;Node7 -->
<g id="edge7" class="edge">
<title>Node1&#45;&gt;Node7</title>
<path fill="none" stroke="#191970" d="M635.9408,-115.601C585.7556,-107.8244 499.6369,-93.7592 416.1553,-76.009"/>
<polygon fill="#191970" stroke="#191970" points="416.7659,-72.5604 406.254,-73.8834 415.2966,-79.4045 416.7659,-72.5604"/>
</g>
<!-- Node8 -->
<g id="node9" class="node">
<title>Node8</title>
<polygon fill="none" stroke="#bfbfbf" points="424.5,-56.5 424.5,-75.5 510.5,-75.5 510.5,-56.5 424.5,-56.5"/>
<text text-anchor="middle" x="467.5" y="-63.5" font-family="Helvetica,sans-Serif" font-size="10.00" fill="#000000">TLinearFitter.h</text>
</g>
<!-- Node1&#45;&gt;Node8 -->
<g id="edge8" class="edge">
<title>Node1&#45;&gt;Node8</title>
<path fill="none" stroke="#191970" d="M642.2278,-112.3733C606.5342,-102.9001 551.9121,-88.4032 513.2549,-78.1435"/>
<polygon fill="#191970" stroke="#191970" points="513.8621,-74.6835 503.2989,-75.5011 512.0664,-81.4493 513.8621,-74.6835"/>
</g>
<!-- Node9 -->
<g id="node10" class="node">
<title>Node9</title>
<polygon fill="none" stroke="#bfbfbf" points="528.5,-56.5 528.5,-75.5 598.5,-75.5 598.5,-56.5 528.5,-56.5"/>
<text text-anchor="middle" x="563.5" y="-63.5" font-family="Helvetica,sans-Serif" font-size="10.00" fill="#000000">TVectorD.h</text>
</g>
<!-- Node1&#45;&gt;Node9 -->
<g id="edge9" class="edge">
<title>Node1&#45;&gt;Node9</title>
<path fill="none" stroke="#191970" d="M658.7308,-112.3733C640.3531,-103.4241 612.7688,-89.9917 592.0107,-79.8835"/>
<polygon fill="#191970" stroke="#191970" points="593.5343,-76.7325 583.0112,-75.5011 590.4696,-83.026 593.5343,-76.7325"/>
</g>
<!-- Node10 -->
<g id="node11" class="node">
<title>Node10</title>
<polygon fill="none" stroke="#bfbfbf" points="616.5,-56.5 616.5,-75.5 672.5,-75.5 672.5,-56.5 616.5,-56.5"/>
<text text-anchor="middle" x="644.5" y="-63.5" font-family="Helvetica,sans-Serif" font-size="10.00" fill="#000000">TMath.h</text>
</g>
<!-- Node1&#45;&gt;Node10 -->
<g id="edge10" class="edge">
<title>Node1&#45;&gt;Node10</title>
<path fill="none" stroke="#191970" d="M672.5777,-112.2455C667.8973,-104.5367 661.2327,-93.5598 655.5711,-84.2348"/>
<polygon fill="#191970" stroke="#191970" points="658.5361,-82.3741 650.3545,-75.6427 652.5525,-86.007 658.5361,-82.3741"/>
</g>
<!-- Node11 -->
<g id="node12" class="node">
<title>Node11</title>
<polygon fill="none" stroke="#bfbfbf" points="691,-56.5 691,-75.5 734,-75.5 734,-56.5 691,-56.5"/>
<text text-anchor="middle" x="712.5" y="-63.5" font-family="Helvetica,sans-Serif" font-size="10.00" fill="#000000">TF1.h</text>
</g>
<!-- Node1&#45;&gt;Node11 -->
<g id="edge11" class="edge">
<title>Node1&#45;&gt;Node11</title>
<path fill="none" stroke="#191970" d="M684.4223,-112.2455C689.1027,-104.5367 695.7673,-93.5598 701.4289,-84.2348"/>
<polygon fill="#191970" stroke="#191970" points="704.4475,-86.007 706.6455,-75.6427 698.4639,-82.3741 704.4475,-86.007"/>
</g>
<!-- Node12 -->
<g id="node13" class="node">
<title>Node12</title>
<polygon fill="none" stroke="#bfbfbf" points="752.5,-56.5 752.5,-75.5 814.5,-75.5 814.5,-56.5 752.5,-56.5"/>
<text text-anchor="middle" x="783.5" y="-63.5" font-family="Helvetica,sans-Serif" font-size="10.00" fill="#000000">Foption.h</text>
</g>
<!-- Node1&#45;&gt;Node12 -->
<g id="edge12" class="edge">
<title>Node1&#45;&gt;Node12</title>
<path fill="none" stroke="#191970" d="M696.7896,-112.2455C713.2762,-103.4527 737.7352,-90.4079 756.4765,-80.4125"/>
<polygon fill="#191970" stroke="#191970" points="758.2435,-83.4368 765.42,-75.6427 754.9494,-77.2604 758.2435,-83.4368"/>
</g>
<!-- Node13 -->
<g id="node14" class="node">
<title>Node13</title>
<polygon fill="none" stroke="#bfbfbf" points="832.5,-56.5 832.5,-75.5 920.5,-75.5 920.5,-56.5 832.5,-56.5"/>
<text text-anchor="middle" x="876.5" y="-63.5" font-family="Helvetica,sans-Serif" font-size="10.00" fill="#000000">HFitInterface.h</text>
</g>
<!-- Node1&#45;&gt;Node13 -->
<g id="edge13" class="edge">
<title>Node1&#45;&gt;Node13</title>
<path fill="none" stroke="#191970" d="M712.5374,-112.3733C745.8894,-102.9404 796.8527,-88.5265 833.1002,-78.2747"/>
<polygon fill="#191970" stroke="#191970" points="834.2368,-81.5906 842.9067,-75.5011 832.3316,-74.8548 834.2368,-81.5906"/>
</g>
<!-- Node14 -->
<g id="node15" class="node">
<title>Node14</title>
<polygon fill="none" stroke="#bfbfbf" points="938.5,-56.5 938.5,-75.5 1024.5,-75.5 1024.5,-56.5 938.5,-56.5"/>
<text text-anchor="middle" x="981.5" y="-63.5" font-family="Helvetica,sans-Serif" font-size="10.00" fill="#000000">TFitResultPtr.h</text>
</g>
<!-- Node1&#45;&gt;Node14 -->
<g id="edge14" class="edge">
<title>Node1&#45;&gt;Node14</title>
<path fill="none" stroke="#191970" d="M721.1561,-114.2997C769.0643,-105.6252 849.4182,-90.9983 928.2689,-76.2198"/>
<polygon fill="#191970" stroke="#191970" points="929.1924,-79.6077 938.3753,-74.3233 927.9013,-72.7278 929.1924,-79.6077"/>
</g>
<!-- Node15 -->
<g id="node16" class="node">
<title>Node15</title>
<polygon fill="none" stroke="#bfbfbf" points="1043,-56.5 1043,-75.5 1116,-75.5 1116,-56.5 1043,-56.5"/>
<text text-anchor="middle" x="1079.5" y="-63.5" font-family="Helvetica,sans-Serif" font-size="10.00" fill="#000000">TFitResult.h</text>
</g>
<!-- Node1&#45;&gt;Node15 -->
<g id="edge15" class="edge">
<title>Node1&#45;&gt;Node15</title>
<path fill="none" stroke="#191970" d="M721.1013,-114.2699C725.9516,-113.466 730.8288,-112.6914 735.5,-112 864.2477,-92.9435 900.2099,-97.9297 1032.7657,-75.9797"/>
<polygon fill="#191970" stroke="#191970" points="1033.6181,-79.3857 1042.9018,-74.2804 1032.4607,-72.4821 1033.6181,-79.3857"/>
</g>
<!-- Node16 -->
<g id="node17" class="node">
<title>Node16</title>
<polygon fill="none" stroke="#bfbfbf" points="1134.5,-56.5 1134.5,-75.5 1198.5,-75.5 1198.5,-56.5 1134.5,-56.5"/>
<text text-anchor="middle" x="1166.5" y="-63.5" font-family="Helvetica,sans-Serif" font-size="10.00" fill="#000000">Fit/Fitter.h</text>
</g>
<!-- Node1&#45;&gt;Node16 -->
<g id="edge16" class="edge">
<title>Node1&#45;&gt;Node16</title>
<path fill="none" stroke="#191970" d="M721.0829,-114.1393C725.9365,-113.3593 730.8196,-112.6261 735.5,-112 907.5948,-88.9796 953.1741,-104.1783 1124.5,-76 1124.6017,-75.9833 1124.7035,-75.9664 1124.8054,-75.9495"/>
<polygon fill="#191970" stroke="#191970" points="1125.3175,-79.4148 1134.491,-74.1141 1124.0141,-72.5372 1125.3175,-79.4148"/>
</g>
<!-- Node17 -->
<g id="node18" class="node">
<title>Node17</title>
<polygon fill="none" stroke="#bfbfbf" points="1217,-56.5 1217,-75.5 1296,-75.5 1296,-56.5 1217,-56.5"/>
<text text-anchor="middle" x="1256.5" y="-63.5" font-family="Helvetica,sans-Serif" font-size="10.00" fill="#000000">Fit/BinData.h</text>
</g>
<!-- Node1&#45;&gt;Node17 -->
<g id="edge17" class="edge">
<title>Node1&#45;&gt;Node17</title>
<path fill="none" stroke="#191970" d="M721.0731,-114.0637C725.9285,-113.2976 730.8147,-112.5882 735.5,-112 940.9865,-86.201 997.3812,-104.4995 1206.899,-75.9024"/>
<polygon fill="#191970" stroke="#191970" points="1207.5675,-79.3433 1216.993,-74.5048 1206.6074,-72.4094 1207.5675,-79.3433"/>
</g>
<!-- Node18 -->
<g id="node19" class="node">
<title>Node18</title>
<polygon fill="none" stroke="#bfbfbf" points="1314,-56.5 1314,-75.5 1451,-75.5 1451,-56.5 1314,-56.5"/>
<text text-anchor="middle" x="1382.5" y="-63.5" font-family="Helvetica,sans-Serif" font-size="10.00" fill="#000000">Math/WrappedMultiTF1.h</text>
</g>
<!-- Node1&#45;&gt;Node18 -->
<g id="edge18" class="edge">
<title>Node1&#45;&gt;Node18</title>
<path fill="none" stroke="#191970" d="M721.0657,-114.003C725.9225,-113.248 730.811,-112.5579 735.5,-112 983.8024,-82.4558 1050.5065,-99.6559 1303.3876,-76.0429"/>
<polygon fill="#191970" stroke="#191970" points="1303.9976,-79.5009 1313.6234,-75.0744 1303.3382,-72.532 1303.9976,-79.5009"/>
</g>
<!-- Node1&#45;&gt;Node19 -->
<g id="edge19" class="edge">
<title>Node1&#45;&gt;Node19</title>
<path fill="none" stroke="#191970" d="M721.0584,-113.9397C725.9165,-113.1963 730.8073,-112.5263 735.5,-112 1052.3854,-76.4633 1137.1679,-107.1746 1458.7304,-75.9701"/>
<polygon fill="#191970" stroke="#191970" points="1459.1918,-79.4417 1468.8014,-74.9802 1458.507,-72.4753 1459.1918,-79.4417"/>
</g>
<!-- Node20 -->
<g id="node21" class="node">
<title>Node20</title>
<polygon fill="none" stroke="#bfbfbf" points="1472.5,-.5 1472.5,-19.5 1580.5,-19.5 1580.5,-.5 1472.5,-.5"/>
<text text-anchor="middle" x="1526.5" y="-7.5" font-family="Helvetica,sans-Serif" font-size="10.00" fill="#000000">fairlogger/Logger.h</text>
</g>
<!-- Node19&#45;&gt;Node20 -->
<g id="edge20" class="edge">
<title>Node19&#45;&gt;Node20</title>
<path fill="none" stroke="#191970" d="M1526.5,-56.2455C1526.5,-48.9382 1526.5,-38.6944 1526.5,-29.7046"/>
<polygon fill="#191970" stroke="#191970" points="1530.0001,-29.6426 1526.5,-19.6427 1523.0001,-29.6427 1530.0001,-29.6426"/>
</g>
</g>
</svg>
        <g id="navigator" transform="translate(0 0)" fill="#404254">
                <rect fill="#f2f5e9" fill-opacity="0.5" stroke="#606060" stroke-width=".5" x="0" y="0" width="60" height="60"/>
                <use id="zoomplus" xlink:href="#zoomPlus" x="17" y="9" onmousedown="handleZoom(evt,'in')"/>
                <use id="zoomminus" xlink:href="#zoomMin" x="42" y="9" onmousedown="handleZoom(evt,'out')"/>
                <use id="reset" xlink:href="#resetDef" x="30" y="36" onmousedown="handleReset()"/>
                <g id="arrowUp" xlink:href="#dirArrow" transform="translate(30 24)" onmousedown="handlePan(0,-1)">
                  <use xlink:href="#rim" fill="#404040">
                        <set attributeName="fill" to="#808080" begin="arrowUp.mouseover" end="arrowUp.mouseout"/>
                  </use>
                  <path fill="none" stroke="white" stroke-width="1.5" d="M0,-3.0v7 M-2.5,-0.5L0,-3.0L2.5,-0.5"/>
                </g>
                <g id="arrowRight" xlink:href="#dirArrow" transform="rotate(90) translate(36 -43)" onmousedown="handlePan(1,0)">
                  <use xlink:href="#rim" fill="#404040">
                        <set attributeName="fill" to="#808080" begin="arrowRight.mouseover" end="arrowRight.mouseout"/>
                  </use>
                  <path fill="none" stroke="white" stroke-width="1.5" d="M0,-3.0v7 M-2.5,-0.5L0,-3.0L2.5,-0.5"/>
                </g>
                <g id="arrowDown" xlink:href="#dirArrow" transform="rotate(180) translate(-30 -48)" onmousedown="handlePan(0,1)">
                  <use xlink:href="#rim" fill="#404040">
                        <set attributeName="fill" to="#808080" begin="arrowDown.mouseover" end="arrowDown.mouseout"/>
                  </use>
                  <path fill="none" stroke="white" stroke-width="1.5" d="M0,-3.0v7 M-2.5,-0.5L0,-3.0L2.5,-0.5"/>
                </g>
                <g id="arrowLeft" xlink:href="#dirArrow" transform="rotate(270) translate(-36 17)" onmousedown="handlePan(-1,0)">
                  <use xlink:href="#rim" fill="#404040">
                        <set attributeName="fill" to="#808080" begin="arrowLeft.mouseover" end="arrowLeft.mouseout"/>
                  </use>
                  <path fill="none" stroke="white" stroke-width="1.5" d="M0,-3.0v7 M-2.5,-0.5L0,-3.0L2.5,-0.5"/>
                </g>
        </g>
        <svg viewBox="0 0 15 15" width="100%" height="30px" preserveAspectRatio="xMaxYMin meet">
         <g id="arrow_out" transform="scale(0.3 0.3)">
          <a xlink:href="FastHisto_8h__incl_org.svg" target="_base">
           <rect id="button" ry="5" rx="5" y="6" x="6" height="38" width="38"
                fill="#f2f5e9" fill-opacity="0.5" stroke="#606060" stroke-width="1.0"/>
           <path id="arrow"
             d="M 11.500037,31.436501 C 11.940474,20.09759 22.043105,11.32322 32.158766,21.979434 L 37.068811,17.246167 C 37.068811,17.246167 37.088388,32 37.088388,32 L 22.160133,31.978069 C 22.160133,31.978069 26.997745,27.140456 26.997745,27.140456 C 18.528582,18.264221 13.291696,25.230495 11.500037,31.436501 z"
             style="fill:#404040;"/>
          </a>
         </g>
        </svg>
</svg>
