<?xml version="1.0" encoding="UTF-8" standalone="no"?>
<!DOCTYPE svg PUBLIC "-//W3C//DTD SVG 1.1//EN"
 "http://www.w3.org/Graphics/SVG/1.1/DTD/svg11.dtd">
<!-- Generated by graphviz version 2.40.1 (20161225.0304)
 -->
<!-- Title: /home/travis/build/AliceO2Group/AliceO2/DataFormats/simulation/include/SimulationDataFormat/DigitizationContext.h Pages: 1 -->
<svg width="1595pt" height="486pt"
 viewBox="0.00 0.00 1594.79 486.00" xmlns="http://www.w3.org/2000/svg" xmlns:xlink="http://www.w3.org/1999/xlink">
<g id="graph0" class="graph" transform="scale(1 1) rotate(0) translate(4 482)">
<title>/home/travis/build/AliceO2Group/AliceO2/DataFormats/simulation/include/SimulationDataFormat/DigitizationContext.h</title>
<!-- Node0 -->
<g id="node1" class="node">
<title>Node0</title>
<polygon fill="#bfbfbf" stroke="#000000" points="328.5,-414.5 328.5,-477.5 496.5,-477.5 496.5,-414.5 328.5,-414.5"/>
<text text-anchor="start" x="336.5" y="-465.5" font-family="Helvetica,sans-Serif" font-size="10.00" fill="#000000">/home/travis/build</text>
<text text-anchor="start" x="336.5" y="-454.5" font-family="Helvetica,sans-Serif" font-size="10.00" fill="#000000">/AliceO2Group/AliceO2</text>
<text text-anchor="start" x="336.5" y="-443.5" font-family="Helvetica,sans-Serif" font-size="10.00" fill="#000000">/DataFormats/simulation</text>
<text text-anchor="start" x="336.5" y="-432.5" font-family="Helvetica,sans-Serif" font-size="10.00" fill="#000000">/include/SimulationDataFormat</text>
<text text-anchor="middle" x="412.5" y="-421.5" font-family="Helvetica,sans-Serif" font-size="10.00" fill="#000000">/DigitizationContext.h</text>
</g>
<!-- Node1 -->
<g id="node2" class="node">
<title>Node1</title>
<polygon fill="none" stroke="#bfbfbf" points="0,-353 0,-372 47,-372 47,-353 0,-353"/>
<text text-anchor="middle" x="23.5" y="-360" font-family="Helvetica,sans-Serif" font-size="10.00" fill="#000000">vector</text>
</g>
<!-- Node0&#45;&gt;Node1 -->
<g id="edge1" class="edge">
<title>Node0&#45;&gt;Node1</title>
<path fill="none" stroke="#191970" d="M328.3302,-436.322C254.9722,-426.3973 146.3946,-408.0858 55.5,-378 53.8481,-377.4532 52.1721,-376.839 50.4972,-376.1787"/>
<polygon fill="#191970" stroke="#191970" points="51.6567,-372.8651 41.0937,-372.0435 48.8388,-379.2729 51.6567,-372.8651"/>
</g>
<!-- Node2 -->
<g id="node3" class="node">
<title>Node2</title>
<polygon fill="none" stroke="#bfbfbf" points="65,-353 65,-372 124,-372 124,-353 65,-353"/>
<text text-anchor="middle" x="94.5" y="-360" font-family="Helvetica,sans-Serif" font-size="10.00" fill="#000000">TChain.h</text>
</g>
<!-- Node0&#45;&gt;Node2 -->
<g id="edge2" class="edge">
<title>Node0&#45;&gt;Node2</title>
<path fill="none" stroke="#191970" d="M328.2781,-428.9822C272.2099,-416.8164 197.2322,-398.9333 132.5,-378 130.3518,-377.3053 128.1532,-376.5451 125.9496,-375.7463"/>
<polygon fill="#191970" stroke="#191970" points="126.9873,-372.3957 116.3972,-372.0799 124.479,-378.9309 126.9873,-372.3957"/>
</g>
<!-- Node3 -->
<g id="node4" class="node">
<title>Node3</title>
<polygon fill="none" stroke="#bfbfbf" points="142,-353 142,-372 207,-372 207,-353 142,-353"/>
<text text-anchor="middle" x="174.5" y="-360" font-family="Helvetica,sans-Serif" font-size="10.00" fill="#000000">TBranch.h</text>
</g>
<!-- Node0&#45;&gt;Node3 -->
<g id="edge3" class="edge">
<title>Node0&#45;&gt;Node3</title>
<path fill="none" stroke="#191970" d="M328.4398,-417.2408C293.7295,-405.2604 253.1233,-391.1095 216.5,-378 214.2773,-377.2044 211.9907,-376.3793 209.6867,-375.543"/>
<polygon fill="#191970" stroke="#191970" points="210.8303,-372.2346 200.2365,-372.0886 208.427,-378.8091 210.8303,-372.2346"/>
</g>
<!-- Node4 -->
<g id="node5" class="node">
<title>Node4</title>
<g id="a_node5"><a xlink:href="../../d9/d80/InteractionRecord_8h.html" target="_top" xlink:title="CommonDataFormat/Interaction\lRecord.h">
<polygon fill="none" stroke="#000000" points="225.5,-347.5 225.5,-377.5 399.5,-377.5 399.5,-347.5 225.5,-347.5"/>
<text text-anchor="start" x="233.5" y="-365.5" font-family="Helvetica,sans-Serif" font-size="10.00" fill="#000000">CommonDataFormat/Interaction</text>
<text text-anchor="middle" x="312.5" y="-354.5" font-family="Helvetica,sans-Serif" font-size="10.00" fill="#000000">Record.h</text>
</a>
</g>
</g>
<!-- Node0&#45;&gt;Node4 -->
<g id="edge4" class="edge">
<title>Node0&#45;&gt;Node4</title>
<path fill="none" stroke="#191970" d="M374.6943,-414.4322C362.6179,-404.3484 349.5308,-393.4207 338.4912,-384.2026"/>
<polygon fill="#191970" stroke="#191970" points="340.4181,-381.2519 330.4989,-377.5291 335.9316,-386.6251 340.4181,-381.2519"/>
</g>
<!-- Node11 -->
<g id="node12" class="node">
<title>Node11</title>
<g id="a_node12"><a xlink:href="../../d4/d5f/BunchFilling_8h.html" target="_top" xlink:title="CommonDataFormat/BunchFilling.h">
<polygon fill="none" stroke="#000000" points="418,-353 418,-372 607,-372 607,-353 418,-353"/>
<text text-anchor="middle" x="512.5" y="-360" font-family="Helvetica,sans-Serif" font-size="10.00" fill="#000000">CommonDataFormat/BunchFilling.h</text>
</a>
</g>
</g>
<!-- Node0&#45;&gt;Node11 -->
<g id="edge11" class="edge">
<title>Node0&#45;&gt;Node11</title>
<path fill="none" stroke="#191970" d="M450.3057,-414.4322C464.8658,-402.2745 480.8952,-388.89 493.0338,-378.7542"/>
<polygon fill="#191970" stroke="#191970" points="495.3174,-381.4072 500.7501,-372.3112 490.8308,-376.034 495.3174,-381.4072"/>
</g>
<!-- Node14 -->
<g id="node15" class="node">
<title>Node14</title>
<g id="a_node15"><a xlink:href="../../d6/d31/DetID_8h.html" target="_top" xlink:title="DetectorsCommonDataFormats\l/DetID.h">
<polygon fill="none" stroke="#000000" points="927,-280.5 927,-310.5 1098,-310.5 1098,-280.5 927,-280.5"/>
<text text-anchor="start" x="935" y="-298.5" font-family="Helvetica,sans-Serif" font-size="10.00" fill="#000000">DetectorsCommonDataFormats</text>
<text text-anchor="middle" x="1012.5" y="-287.5" font-family="Helvetica,sans-Serif" font-size="10.00" fill="#000000">/DetID.h</text>
</a>
</g>
</g>
<!-- Node0&#45;&gt;Node14 -->
<g id="edge15" class="edge">
<title>Node0&#45;&gt;Node14</title>
<path fill="none" stroke="#191970" d="M496.7556,-441.3737C571.3718,-434.6651 681.7513,-418.2342 769.5,-378 789.6272,-368.7713 788.6541,-356.8189 808.5,-347 829.9724,-336.3764 882.998,-323.1189 929.6048,-312.7157"/>
<polygon fill="#191970" stroke="#191970" points="930.4307,-316.1177 939.4391,-310.541 928.9193,-309.2828 930.4307,-316.1177"/>
</g>
<!-- Node37 -->
<g id="node38" class="node">
<title>Node37</title>
<g id="a_node38"><a xlink:href="../../de/d28/GRPObject_8h.html" target="_top" xlink:title="Header of the General Run Parameters object. ">
<polygon fill="none" stroke="#000000" points="625,-347.5 625,-377.5 760,-377.5 760,-347.5 625,-347.5"/>
<text text-anchor="start" x="633" y="-365.5" font-family="Helvetica,sans-Serif" font-size="10.00" fill="#000000">DataFormatsParameters</text>
<text text-anchor="middle" x="692.5" y="-354.5" font-family="Helvetica,sans-Serif" font-size="10.00" fill="#000000">/GRPObject.h</text>
</a>
</g>
</g>
<!-- Node0&#45;&gt;Node37 -->
<g id="edge52" class="edge">
<title>Node0&#45;&gt;Node37</title>
<path fill="none" stroke="#191970" d="M496.5092,-420.9472C540.1684,-407.9275 592.5254,-392.3138 632.1376,-380.5009"/>
<polygon fill="#191970" stroke="#191970" points="633.3381,-383.7953 641.9208,-377.5834 631.3376,-377.0872 633.3381,-383.7953"/>
</g>
<!-- Node40 -->
<g id="node41" class="node">
<title>Node40</title>
<polygon fill="none" stroke="#bfbfbf" points="817,-353 817,-372 892,-372 892,-353 817,-353"/>
<text text-anchor="middle" x="854.5" y="-360" font-family="Helvetica,sans-Serif" font-size="10.00" fill="#000000">FairLogger.h</text>
</g>
<!-- Node0&#45;&gt;Node40 -->
<g id="edge59" class="edge">
<title>Node0&#45;&gt;Node40</title>
<path fill="none" stroke="#191970" d="M496.7609,-434.2229C576.1417,-422.4418 698.1333,-402.5642 802.5,-378 806.5748,-377.0409 810.8018,-375.9478 815.0054,-374.796"/>
<polygon fill="#191970" stroke="#191970" points="816.0301,-378.1434 824.6886,-372.0376 814.1123,-371.4112 816.0301,-378.1434"/>
</g>
<!-- Node5 -->
<g id="node6" class="node">
<title>Node5</title>
<g id="a_node6"><a xlink:href="../../d2/d45/GPUCommonRtypes_8h.html" target="_top" xlink:title="GPUCommonRtypes.h">
<polygon fill="none" stroke="#000000" points="255,-286 255,-305 380,-305 380,-286 255,-286"/>
<text text-anchor="middle" x="317.5" y="-293" font-family="Helvetica,sans-Serif" font-size="10.00" fill="#000000">GPUCommonRtypes.h</text>
</a>
</g>
</g>
<!-- Node4&#45;&gt;Node5 -->
<g id="edge5" class="edge">
<title>Node4&#45;&gt;Node5</title>
<path fill="none" stroke="#191970" d="M313.6346,-347.2967C314.3455,-337.7699 315.269,-325.3954 316.035,-315.1306"/>
<polygon fill="#191970" stroke="#191970" points="319.5329,-315.2877 316.7869,-305.055 312.5524,-314.7667 319.5329,-315.2877"/>
</g>
<!-- Node7 -->
<g id="node8" class="node">
<title>Node7</title>
<polygon fill="none" stroke="#bfbfbf" points="111,-286 111,-305 160,-305 160,-286 111,-286"/>
<text text-anchor="middle" x="135.5" y="-293" font-family="Helvetica,sans-Serif" font-size="10.00" fill="#000000">iosfwd</text>
</g>
<!-- Node4&#45;&gt;Node7 -->
<g id="edge7" class="edge">
<title>Node4&#45;&gt;Node7</title>
<path fill="none" stroke="#191970" d="M271.3528,-347.4026C243.8721,-337.2562 206.9532,-323.503 174.5,-311 172.6643,-310.2928 170.782,-309.5623 168.8834,-308.8214"/>
<polygon fill="#191970" stroke="#191970" points="169.981,-305.4922 159.3938,-305.0886 167.4186,-312.0063 169.981,-305.4922"/>
</g>
<!-- Node8 -->
<g id="node9" class="node">
<title>Node8</title>
<polygon fill="none" stroke="#bfbfbf" points="383.5,-112.5 383.5,-131.5 433.5,-131.5 433.5,-112.5 383.5,-112.5"/>
<text text-anchor="middle" x="408.5" y="-119.5" font-family="Helvetica,sans-Serif" font-size="10.00" fill="#000000">cstdint</text>
</g>
<!-- Node4&#45;&gt;Node8 -->
<g id="edge8" class="edge">
<title>Node4&#45;&gt;Node8</title>
<path fill="none" stroke="#191970" d="M273.9682,-347.3678C258.0886,-339.0837 241.173,-327.1562 231.5,-311 198.8323,-256.4375 187.428,-218.176 226.5,-168 244.3245,-145.1099 325.3813,-131.8097 373.0998,-125.8316"/>
<polygon fill="#191970" stroke="#191970" points="373.8038,-129.2722 383.3128,-124.5999 372.9656,-122.3225 373.8038,-129.2722"/>
</g>
<!-- Node9 -->
<g id="node10" class="node">
<title>Node9</title>
<polygon fill="none" stroke="#bfbfbf" points="959,-56.5 959,-75.5 1006,-75.5 1006,-56.5 959,-56.5"/>
<text text-anchor="middle" x="982.5" y="-63.5" font-family="Helvetica,sans-Serif" font-size="10.00" fill="#000000">cmath</text>
</g>
<!-- Node4&#45;&gt;Node9 -->
<g id="edge9" class="edge">
<title>Node4&#45;&gt;Node9</title>
<path fill="none" stroke="#191970" d="M234.2167,-347.4708C178.2729,-336.0509 111.2276,-320.7031 101.5,-311 76.544,-286.1069 82.5,-269.2487 82.5,-234 82.5,-234 82.5,-234 82.5,-178 82.5,-89.0158 784.2692,-69.8519 948.4398,-66.5862"/>
<polygon fill="#191970" stroke="#191970" points="948.9588,-70.077 958.8898,-66.3856 948.8244,-63.0783 948.9588,-70.077"/>
</g>
<!-- Node10 -->
<g id="node11" class="node">
<title>Node10</title>
<g id="a_node11"><a xlink:href="../../d4/dc6/LHCConstants_8h.html" target="_top" xlink:title="Header to collect LHC related constants. ">
<polygon fill="none" stroke="#000000" points="436.5,-286 436.5,-305 626.5,-305 626.5,-286 436.5,-286"/>
<text text-anchor="middle" x="531.5" y="-293" font-family="Helvetica,sans-Serif" font-size="10.00" fill="#000000">CommonConstants/LHCConstants.h</text>
</a>
</g>
</g>
<!-- Node4&#45;&gt;Node10 -->
<g id="edge10" class="edge">
<title>Node4&#45;&gt;Node10</title>
<path fill="none" stroke="#191970" d="M361.6479,-347.4639C400.4948,-335.5792 454.0793,-319.1858 490.6066,-308.0108"/>
<polygon fill="#191970" stroke="#191970" points="491.8919,-311.2777 500.4305,-305.0053 489.844,-304.584 491.8919,-311.2777"/>
</g>
<!-- Node6 -->
<g id="node7" class="node">
<title>Node6</title>
<polygon fill="none" stroke="#bfbfbf" points="439,-224.5 439,-243.5 498,-243.5 498,-224.5 439,-224.5"/>
<text text-anchor="middle" x="468.5" y="-231.5" font-family="Helvetica,sans-Serif" font-size="10.00" fill="#000000">Rtypes.h</text>
</g>
<!-- Node5&#45;&gt;Node6 -->
<g id="edge6" class="edge">
<title>Node5&#45;&gt;Node6</title>
<path fill="none" stroke="#191970" d="M341.0938,-285.8906C366.4696,-275.5554 407.0081,-259.0447 435.5293,-247.4284"/>
<polygon fill="#191970" stroke="#191970" points="437.1308,-250.5554 445.0719,-243.5419 434.4904,-244.0725 437.1308,-250.5554"/>
</g>
<!-- Node11&#45;&gt;Node10 -->
<g id="edge12" class="edge">
<title>Node11&#45;&gt;Node10</title>
<path fill="none" stroke="#191970" d="M515.2222,-352.9005C518.0158,-343.0495 522.441,-327.4451 525.9727,-314.9912"/>
<polygon fill="#191970" stroke="#191970" points="529.4217,-315.6572 528.7828,-305.0817 522.6873,-313.7474 529.4217,-315.6572"/>
</g>
<!-- Node12 -->
<g id="node13" class="node">
<title>Node12</title>
<polygon fill="none" stroke="#bfbfbf" points="516.5,-224.5 516.5,-243.5 560.5,-243.5 560.5,-224.5 516.5,-224.5"/>
<text text-anchor="middle" x="538.5" y="-231.5" font-family="Helvetica,sans-Serif" font-size="10.00" fill="#000000">bitset</text>
</g>
<!-- Node11&#45;&gt;Node12 -->
<g id="edge13" class="edge">
<title>Node11&#45;&gt;Node12</title>
<path fill="none" stroke="#191970" d="M482.4194,-352.9844C462.9738,-345.09 439.1868,-331.7454 427.5,-311 420.7376,-298.996 419.8465,-291.4565 427.5,-280 432.2053,-272.9568 475.6219,-256.334 506.7341,-245.1225"/>
<polygon fill="#191970" stroke="#191970" points="508.0988,-248.3518 516.3385,-241.6916 505.7439,-241.7597 508.0988,-248.3518"/>
</g>
<!-- Node13 -->
<g id="node14" class="node">
<title>Node13</title>
<polygon fill="none" stroke="#bfbfbf" points="268.5,-168.5 268.5,-187.5 312.5,-187.5 312.5,-168.5 268.5,-168.5"/>
<text text-anchor="middle" x="290.5" y="-175.5" font-family="Helvetica,sans-Serif" font-size="10.00" fill="#000000">string</text>
</g>
<!-- Node11&#45;&gt;Node13 -->
<g id="edge14" class="edge">
<title>Node11&#45;&gt;Node13</title>
<path fill="none" stroke="#191970" d="M452.8373,-352.9553C376.1834,-340.4082 252.1214,-319.0206 245.5,-311 217.0735,-276.5665 252.3663,-223.3156 274.7461,-195.8055"/>
<polygon fill="#191970" stroke="#191970" points="277.6951,-197.7375 281.4614,-187.8347 272.3417,-193.2273 277.6951,-197.7375"/>
</g>
<!-- Node14&#45;&gt;Node6 -->
<g id="edge16" class="edge">
<title>Node14&#45;&gt;Node6</title>
<path fill="none" stroke="#191970" d="M926.8374,-281.2237C923.6879,-280.7942 920.5676,-280.3844 917.5,-280 739.1866,-257.6562 689.5436,-274.2146 508.0718,-243.826"/>
<polygon fill="#191970" stroke="#191970" points="508.6477,-240.3738 498.2027,-242.1492 507.4751,-247.2749 508.6477,-240.3738"/>
</g>
<!-- Node14&#45;&gt;Node8 -->
<g id="edge20" class="edge">
<title>Node14&#45;&gt;Node8</title>
<path fill="none" stroke="#191970" d="M1015.5626,-280.2297C1019.9985,-253.1882 1024.5933,-197.0052 993.5,-168 953.2761,-130.4773 564.526,-123.5263 443.9682,-122.27"/>
<polygon fill="#191970" stroke="#191970" points="443.836,-118.7687 433.8024,-122.1712 443.7678,-125.7683 443.836,-118.7687"/>
</g>
<!-- Node14&#45;&gt;Node12 -->
<g id="edge18" class="edge">
<title>Node14&#45;&gt;Node12</title>
<path fill="none" stroke="#191970" d="M926.8286,-281.2909C923.6816,-280.8425 920.5642,-280.4104 917.5,-280 765.575,-259.6503 725.0878,-272.6114 574.5,-244 573.2454,-243.7616 571.9708,-243.5008 570.6868,-243.2223"/>
<polygon fill="#191970" stroke="#191970" points="571.3766,-239.7881 560.8325,-240.8236 569.721,-246.5895 571.3766,-239.7881"/>
</g>
<!-- Node14&#45;&gt;Node13 -->
<g id="edge22" class="edge">
<title>Node14&#45;&gt;Node13</title>
<path fill="none" stroke="#191970" d="M926.8227,-281.3346C923.6773,-280.8739 920.5619,-280.4273 917.5,-280 780.1278,-260.8273 740.0069,-284.9956 607.5,-244 589.2674,-238.3591 587.6502,-229.9005 569.5,-224 466.5789,-190.541 431.953,-211.894 322.4909,-187.8808"/>
<polygon fill="#191970" stroke="#191970" points="323.2524,-184.4647 312.7256,-185.6631 321.7021,-191.2909 323.2524,-184.4647"/>
</g>
<!-- Node15 -->
<g id="node16" class="node">
<title>Node15</title>
<polygon fill="none" stroke="#bfbfbf" points="1532.5,-112.5 1532.5,-131.5 1574.5,-131.5 1574.5,-112.5 1532.5,-112.5"/>
<text text-anchor="middle" x="1553.5" y="-119.5" font-family="Helvetica,sans-Serif" font-size="10.00" fill="#000000">array</text>
</g>
<!-- Node14&#45;&gt;Node15 -->
<g id="edge17" class="edge">
<title>Node14&#45;&gt;Node15</title>
<path fill="none" stroke="#191970" d="M1098.2755,-292.2062C1241.8582,-284.6929 1521.1187,-260.8572 1581.5,-188 1593.318,-173.7401 1581.9384,-153.7598 1570.3353,-139.5263"/>
<polygon fill="#191970" stroke="#191970" points="1572.8736,-137.1123 1563.6514,-131.8967 1567.6083,-141.7249 1572.8736,-137.1123"/>
</g>
<!-- Node16 -->
<g id="node17" class="node">
<title>Node16</title>
<polygon fill="none" stroke="#bfbfbf" points="932.5,-168.5 932.5,-187.5 984.5,-187.5 984.5,-168.5 932.5,-168.5"/>
<text text-anchor="middle" x="958.5" y="-175.5" font-family="Helvetica,sans-Serif" font-size="10.00" fill="#000000">cassert</text>
</g>
<!-- Node14&#45;&gt;Node16 -->
<g id="edge19" class="edge">
<title>Node14&#45;&gt;Node16</title>
<path fill="none" stroke="#191970" d="M1005.4404,-280.1389C995.5787,-258.6806 977.6982,-219.7738 967.0804,-196.6702"/>
<polygon fill="#191970" stroke="#191970" points="970.2494,-195.1843 962.8933,-187.5595 963.889,-198.1074 970.2494,-195.1843"/>
</g>
<!-- Node17 -->
<g id="node18" class="node">
<title>Node17</title>
<polygon fill="none" stroke="#bfbfbf" points="1177,-224.5 1177,-243.5 1250,-243.5 1250,-224.5 1177,-224.5"/>
<text text-anchor="middle" x="1213.5" y="-231.5" font-family="Helvetica,sans-Serif" font-size="10.00" fill="#000000">string_view</text>
</g>
<!-- Node14&#45;&gt;Node17 -->
<g id="edge21" class="edge">
<title>Node14&#45;&gt;Node17</title>
<path fill="none" stroke="#191970" d="M1061.6701,-280.4554C1095.6488,-270.059 1140.3281,-256.3884 1172.4086,-246.5727"/>
<polygon fill="#191970" stroke="#191970" points="1173.8138,-249.803 1182.3521,-243.5303 1171.7657,-243.1094 1173.8138,-249.803"/>
</g>
<!-- Node18 -->
<g id="node19" class="node">
<title>Node18</title>
<polygon fill="none" stroke="#bfbfbf" points="617,-224.5 617,-243.5 686,-243.5 686,-224.5 617,-224.5"/>
<text text-anchor="middle" x="651.5" y="-231.5" font-family="Helvetica,sans-Serif" font-size="10.00" fill="#000000">type_traits</text>
</g>
<!-- Node14&#45;&gt;Node18 -->
<g id="edge23" class="edge">
<title>Node14&#45;&gt;Node18</title>
<path fill="none" stroke="#191970" d="M926.7962,-281.51C923.6583,-280.9999 920.5516,-280.4953 917.5,-280 821.5959,-264.4351 794.7191,-263.4323 696.2683,-244.2592"/>
<polygon fill="#191970" stroke="#191970" points="696.6766,-240.7727 686.1899,-242.2822 695.3291,-247.6417 696.6766,-240.7727"/>
</g>
<!-- Node19 -->
<g id="node20" class="node">
<title>Node19</title>
<g id="a_node20"><a xlink:href="../../d9/d52/Common_2MathUtils_2include_2MathUtils_2Utils_8h.html" target="_top" xlink:title="MathUtils/Utils.h">
<polygon fill="none" stroke="#000000" points="1060.5,-224.5 1060.5,-243.5 1158.5,-243.5 1158.5,-224.5 1060.5,-224.5"/>
<text text-anchor="middle" x="1109.5" y="-231.5" font-family="Helvetica,sans-Serif" font-size="10.00" fill="#000000">MathUtils/Utils.h</text>
</a>
</g>
</g>
<!-- Node14&#45;&gt;Node19 -->
<g id="edge24" class="edge">
<title>Node14&#45;&gt;Node19</title>
<path fill="none" stroke="#191970" d="M1036.4775,-280.2977C1051.4376,-270.8127 1070.622,-258.6495 1085.5726,-249.1705"/>
<polygon fill="#191970" stroke="#191970" points="1087.6873,-251.9739 1094.2587,-243.6633 1083.939,-246.062 1087.6873,-251.9739"/>
</g>
<!-- Node30 -->
<g id="node31" class="node">
<title>Node30</title>
<g id="a_node31"><a xlink:href="../../dc/dcd/DataHeader_8h.html" target="_top" xlink:title="Headers/DataHeader.h">
<polygon fill="none" stroke="#000000" points="704,-224.5 704,-243.5 831,-243.5 831,-224.5 704,-224.5"/>
<text text-anchor="middle" x="767.5" y="-231.5" font-family="Helvetica,sans-Serif" font-size="10.00" fill="#000000">Headers/DataHeader.h</text>
</a>
</g>
</g>
<!-- Node14&#45;&gt;Node30 -->
<g id="edge41" class="edge">
<title>Node14&#45;&gt;Node30</title>
<path fill="none" stroke="#191970" d="M952.5663,-280.4554C910.3427,-269.8564 854.5629,-255.8546 815.319,-246.0035"/>
<polygon fill="#191970" stroke="#191970" points="816.0176,-242.5704 805.4663,-243.5303 814.3132,-249.3597 816.0176,-242.5704"/>
</g>
<!-- Node20 -->
<g id="node21" class="node">
<title>Node20</title>
<g id="a_node21"><a xlink:href="../../de/def/bitOps_8h.html" target="_top" xlink:title="MathUtils/detail/bitOps.h">
<polygon fill="none" stroke="#000000" points="1041,-168.5 1041,-187.5 1178,-187.5 1178,-168.5 1041,-168.5"/>
<text text-anchor="middle" x="1109.5" y="-175.5" font-family="Helvetica,sans-Serif" font-size="10.00" fill="#000000">MathUtils/detail/bitOps.h</text>
</a>
</g>
</g>
<!-- Node19&#45;&gt;Node20 -->
<g id="edge25" class="edge">
<title>Node19&#45;&gt;Node20</title>
<path fill="none" stroke="#191970" d="M1109.5,-224.2455C1109.5,-216.9382 1109.5,-206.6944 1109.5,-197.7046"/>
<polygon fill="#191970" stroke="#191970" points="1113.0001,-197.6426 1109.5,-187.6427 1106.0001,-197.6427 1113.0001,-197.6426"/>
</g>
<!-- Node21 -->
<g id="node22" class="node">
<title>Node21</title>
<g id="a_node22"><a xlink:href="../../d3/dfc/StatAccumulator_8h.html" target="_top" xlink:title="MathUtils/detail/StatAccumulator.h">
<polygon fill="none" stroke="#000000" points="1386.5,-168.5 1386.5,-187.5 1572.5,-187.5 1572.5,-168.5 1386.5,-168.5"/>
<text text-anchor="middle" x="1479.5" y="-175.5" font-family="Helvetica,sans-Serif" font-size="10.00" fill="#000000">MathUtils/detail/StatAccumulator.h</text>
</a>
</g>
</g>
<!-- Node19&#45;&gt;Node21 -->
<g id="edge27" class="edge">
<title>Node19&#45;&gt;Node21</title>
<path fill="none" stroke="#191970" d="M1158.7427,-225.5741C1162.0435,-225.0339 1165.3192,-224.5047 1168.5,-224 1248.0311,-211.3798 1339.1875,-198.0276 1402.1541,-188.9788"/>
<polygon fill="#191970" stroke="#191970" points="1402.9998,-192.3934 1412.4012,-187.5085 1402.0055,-185.4644 1402.9998,-192.3934"/>
</g>
<!-- Node23 -->
<g id="node24" class="node">
<title>Node23</title>
<g id="a_node24"><a xlink:href="../../dd/d7d/trigonometric_8h.html" target="_top" xlink:title="MathUtils/detail/trigonometric.h">
<polygon fill="none" stroke="#000000" points="1196.5,-168.5 1196.5,-187.5 1368.5,-187.5 1368.5,-168.5 1196.5,-168.5"/>
<text text-anchor="middle" x="1282.5" y="-175.5" font-family="Helvetica,sans-Serif" font-size="10.00" fill="#000000">MathUtils/detail/trigonometric.h</text>
</a>
</g>
</g>
<!-- Node19&#45;&gt;Node23 -->
<g id="edge29" class="edge">
<title>Node19&#45;&gt;Node23</title>
<path fill="none" stroke="#191970" d="M1139.2398,-224.3733C1168.007,-215.0613 1211.77,-200.8953 1243.3556,-190.671"/>
<polygon fill="#191970" stroke="#191970" points="1244.7122,-193.9107 1253.1483,-187.5011 1242.5564,-187.251 1244.7122,-193.9107"/>
</g>
<!-- Node20&#45;&gt;Node8 -->
<g id="edge26" class="edge">
<title>Node20&#45;&gt;Node8</title>
<path fill="none" stroke="#191970" d="M1040.6839,-169.4639C1035.8864,-168.9442 1031.1226,-168.4503 1026.5,-168 805.0757,-146.4318 538.1491,-129.6943 443.694,-124.0555"/>
<polygon fill="#191970" stroke="#191970" points="443.7441,-120.5524 433.5542,-123.4534 443.3291,-127.5401 443.7441,-120.5524"/>
</g>
<!-- Node22 -->
<g id="node23" class="node">
<title>Node22</title>
<polygon fill="none" stroke="#bfbfbf" points="1427,-112.5 1427,-131.5 1468,-131.5 1468,-112.5 1427,-112.5"/>
<text text-anchor="middle" x="1447.5" y="-119.5" font-family="Helvetica,sans-Serif" font-size="10.00" fill="#000000">tuple</text>
</g>
<!-- Node21&#45;&gt;Node22 -->
<g id="edge28" class="edge">
<title>Node21&#45;&gt;Node22</title>
<path fill="none" stroke="#191970" d="M1473.926,-168.2455C1469.5669,-160.617 1463.3789,-149.7881 1458.0867,-140.5267"/>
<polygon fill="#191970" stroke="#191970" points="1461.0104,-138.5886 1453.0101,-131.6427 1454.9327,-142.0616 1461.0104,-138.5886"/>
</g>
<!-- Node23&#45;&gt;Node9 -->
<g id="edge31" class="edge">
<title>Node23&#45;&gt;Node9</title>
<path fill="none" stroke="#191970" d="M1196.52,-168.489C1119.7087,-159.2507 1017.0868,-144.7858 1002.5,-132 989.4419,-120.5541 984.7602,-100.8941 983.1551,-86.0006"/>
<polygon fill="#191970" stroke="#191970" points="986.6279,-85.4874 982.4396,-75.7556 979.6449,-85.9752 986.6279,-85.4874"/>
</g>
<!-- Node23&#45;&gt;Node15 -->
<g id="edge30" class="edge">
<title>Node23&#45;&gt;Node15</title>
<path fill="none" stroke="#191970" d="M1328.7786,-168.4369C1384.0125,-157.0233 1474.8519,-138.252 1522.3531,-128.4363"/>
<polygon fill="#191970" stroke="#191970" points="1523.268,-131.8212 1532.3528,-126.3699 1521.8514,-124.9661 1523.268,-131.8212"/>
</g>
<!-- Node23&#45;&gt;Node22 -->
<g id="edge32" class="edge">
<title>Node23&#45;&gt;Node22</title>
<path fill="none" stroke="#191970" d="M1310.8645,-168.3733C1340.5006,-158.3149 1386.8236,-142.5932 1417.1723,-132.293"/>
<polygon fill="#191970" stroke="#191970" points="1418.4603,-135.5521 1426.8049,-129.0238 1416.2105,-128.9234 1418.4603,-135.5521"/>
</g>
<!-- Node24 -->
<g id="node25" class="node">
<title>Node24</title>
<g id="a_node25"><a xlink:href="../../df/d21/GPUCommonDef_8h.html" target="_top" xlink:title="GPUCommonDef.h">
<polygon fill="none" stroke="#000000" points="1213,-56.5 1213,-75.5 1320,-75.5 1320,-56.5 1213,-56.5"/>
<text text-anchor="middle" x="1266.5" y="-63.5" font-family="Helvetica,sans-Serif" font-size="10.00" fill="#000000">GPUCommonDef.h</text>
</a>
</g>
</g>
<!-- Node23&#45;&gt;Node24 -->
<g id="edge33" class="edge">
<title>Node23&#45;&gt;Node24</title>
<path fill="none" stroke="#191970" d="M1304.6563,-168.4518C1328.4661,-156.7285 1361.1731,-135.4892 1347.5,-112 1338.8761,-97.185 1323.5066,-86.752 1308.4562,-79.6123"/>
<polygon fill="#191970" stroke="#191970" points="1309.7559,-76.3609 1299.1897,-75.5826 1306.9644,-82.7802 1309.7559,-76.3609"/>
</g>
<!-- Node27 -->
<g id="node28" class="node">
<title>Node27</title>
<g id="a_node28"><a xlink:href="../../d6/da2/GPUCommonMath_8h.html" target="_top" xlink:title="GPUCommonMath.h">
<polygon fill="none" stroke="#000000" points="1011,-112.5 1011,-131.5 1126,-131.5 1126,-112.5 1011,-112.5"/>
<text text-anchor="middle" x="1068.5" y="-119.5" font-family="Helvetica,sans-Serif" font-size="10.00" fill="#000000">GPUCommonMath.h</text>
</a>
</g>
</g>
<!-- Node23&#45;&gt;Node27 -->
<g id="edge36" class="edge">
<title>Node23&#45;&gt;Node27</title>
<path fill="none" stroke="#191970" d="M1245.7121,-168.3733C1209.4339,-158.8799 1153.8764,-144.3415 1114.6554,-134.0781"/>
<polygon fill="#191970" stroke="#191970" points="1115.3682,-130.6468 1104.8079,-131.5011 1113.596,-137.4188 1115.3682,-130.6468"/>
</g>
<!-- Node29 -->
<g id="node30" class="node">
<title>Node29</title>
<g id="a_node30"><a xlink:href="../../d6/d84/MathConstants_8h.html" target="_top" xlink:title="useful math constants ">
<polygon fill="none" stroke="#000000" points="1144.5,-112.5 1144.5,-131.5 1338.5,-131.5 1338.5,-112.5 1144.5,-112.5"/>
<text text-anchor="middle" x="1241.5" y="-119.5" font-family="Helvetica,sans-Serif" font-size="10.00" fill="#000000">CommonConstants/MathConstants.h</text>
</a>
</g>
</g>
<!-- Node23&#45;&gt;Node29 -->
<g id="edge40" class="edge">
<title>Node23&#45;&gt;Node29</title>
<path fill="none" stroke="#191970" d="M1275.3583,-168.2455C1269.6556,-160.4564 1261.51,-149.3308 1254.6375,-139.9439"/>
<polygon fill="#191970" stroke="#191970" points="1257.2913,-137.6437 1248.5598,-131.6427 1251.6432,-141.7789 1257.2913,-137.6437"/>
</g>
<!-- Node25 -->
<g id="node26" class="node">
<title>Node25</title>
<g id="a_node26"><a xlink:href="../../d5/d93/GPUCommonDefSettings_8h.html" target="_top" xlink:title="GPUCommonDefSettings.h">
<polygon fill="none" stroke="#000000" points="1115.5,-.5 1115.5,-19.5 1263.5,-19.5 1263.5,-.5 1115.5,-.5"/>
<text text-anchor="middle" x="1189.5" y="-7.5" font-family="Helvetica,sans-Serif" font-size="10.00" fill="#000000">GPUCommonDefSettings.h</text>
</a>
</g>
</g>
<!-- Node24&#45;&gt;Node25 -->
<g id="edge34" class="edge">
<title>Node24&#45;&gt;Node25</title>
<path fill="none" stroke="#191970" d="M1253.0876,-56.2455C1241.4943,-47.814 1224.5252,-35.4729 1211.0322,-25.6598"/>
<polygon fill="#191970" stroke="#191970" points="1212.9047,-22.6938 1202.7587,-19.6427 1208.7874,-28.355 1212.9047,-22.6938"/>
</g>
<!-- Node26 -->
<g id="node27" class="node">
<title>Node26</title>
<g id="a_node27"><a xlink:href="../../da/d5a/GPUCommonDefAPI_8h.html" target="_top" xlink:title="GPUCommonDefAPI.h">
<polygon fill="none" stroke="#000000" points="1281.5,-.5 1281.5,-19.5 1405.5,-19.5 1405.5,-.5 1281.5,-.5"/>
<text text-anchor="middle" x="1343.5" y="-7.5" font-family="Helvetica,sans-Serif" font-size="10.00" fill="#000000">GPUCommonDefAPI.h</text>
</a>
</g>
</g>
<!-- Node24&#45;&gt;Node26 -->
<g id="edge35" class="edge">
<title>Node24&#45;&gt;Node26</title>
<path fill="none" stroke="#191970" d="M1279.9124,-56.2455C1291.5057,-47.814 1308.4748,-35.4729 1321.9678,-25.6598"/>
<polygon fill="#191970" stroke="#191970" points="1324.2126,-28.355 1330.2413,-19.6427 1320.0953,-22.6938 1324.2126,-28.355"/>
</g>
<!-- Node27&#45;&gt;Node9 -->
<g id="edge38" class="edge">
<title>Node27&#45;&gt;Node9</title>
<path fill="none" stroke="#191970" d="M1053.5199,-112.2455C1040.3249,-103.6534 1020.8949,-91.0014 1005.6921,-81.1018"/>
<polygon fill="#191970" stroke="#191970" points="1007.5983,-78.1665 997.3084,-75.6427 1003.7785,-84.0325 1007.5983,-78.1665"/>
</g>
<!-- Node27&#45;&gt;Node24 -->
<g id="edge37" class="edge">
<title>Node27&#45;&gt;Node24</title>
<path fill="none" stroke="#191970" d="M1102.5374,-112.3733C1135.8894,-102.9404 1186.8527,-88.5265 1223.1002,-78.2747"/>
<polygon fill="#191970" stroke="#191970" points="1224.2368,-81.5906 1232.9067,-75.5011 1222.3316,-74.8548 1224.2368,-81.5906"/>
</g>
<!-- Node28 -->
<g id="node29" class="node">
<title>Node28</title>
<polygon fill="none" stroke="#bfbfbf" points="1030.5,-56.5 1030.5,-75.5 1094.5,-75.5 1094.5,-56.5 1030.5,-56.5"/>
<text text-anchor="middle" x="1062.5" y="-63.5" font-family="Helvetica,sans-Serif" font-size="10.00" fill="#000000">algorithm</text>
</g>
<!-- Node27&#45;&gt;Node28 -->
<g id="edge39" class="edge">
<title>Node27&#45;&gt;Node28</title>
<path fill="none" stroke="#191970" d="M1067.4549,-112.2455C1066.672,-104.9382 1065.5744,-94.6944 1064.6112,-85.7046"/>
<polygon fill="#191970" stroke="#191970" points="1068.0786,-85.2129 1063.5331,-75.6427 1061.1185,-85.9587 1068.0786,-85.2129"/>
</g>
<!-- Node30&#45;&gt;Node8 -->
<g id="edge42" class="edge">
<title>Node30&#45;&gt;Node8</title>
<path fill="none" stroke="#191970" d="M703.7998,-225.2659C700.6554,-224.8373 697.5421,-224.4134 694.5,-224 635.1752,-215.9372 472.815,-227.1279 427.5,-188 414.4111,-176.6982 410.0545,-157.019 408.737,-142.0818"/>
<polygon fill="#191970" stroke="#191970" points="412.2183,-141.6154 408.2276,-131.8009 405.2269,-141.9619 412.2183,-141.6154"/>
</g>
<!-- Node30&#45;&gt;Node13 -->
<g id="edge48" class="edge">
<title>Node30&#45;&gt;Node13</title>
<path fill="none" stroke="#191970" d="M703.8178,-225.124C700.6686,-224.7329 697.5494,-224.3559 694.5,-224 532.3056,-205.0714 486.374,-221.1089 322.6247,-187.8417"/>
<polygon fill="#191970" stroke="#191970" points="323.1977,-184.3862 312.6968,-185.7942 321.7837,-191.242 323.1977,-184.3862"/>
</g>
<!-- Node30&#45;&gt;Node16 -->
<g id="edge44" class="edge">
<title>Node30&#45;&gt;Node16</title>
<path fill="none" stroke="#191970" d="M800.3341,-224.3733C834.311,-214.4114 887.2353,-198.8944 922.3771,-188.591"/>
<polygon fill="#191970" stroke="#191970" points="923.6175,-191.8747 932.2288,-185.7026 921.648,-185.1575 923.6175,-191.8747"/>
</g>
<!-- Node30&#45;&gt;Node28 -->
<g id="edge46" class="edge">
<title>Node30&#45;&gt;Node28</title>
<path fill="none" stroke="#191970" d="M797.4341,-224.4871C821.8037,-216.2383 856.7506,-203.246 885.5,-188 917.3033,-171.1345 1001.6842,-110.41 1041.343,-81.5039"/>
<polygon fill="#191970" stroke="#191970" points="1043.5199,-84.2481 1049.5318,-75.5241 1039.3917,-78.595 1043.5199,-84.2481"/>
</g>
<!-- Node31 -->
<g id="node32" class="node">
<title>Node31</title>
<polygon fill="none" stroke="#bfbfbf" points="666.5,-168.5 666.5,-187.5 724.5,-187.5 724.5,-168.5 666.5,-168.5"/>
<text text-anchor="middle" x="695.5" y="-175.5" font-family="Helvetica,sans-Serif" font-size="10.00" fill="#000000">memory</text>
</g>
<!-- Node30&#45;&gt;Node31 -->
<g id="edge43" class="edge">
<title>Node30&#45;&gt;Node31</title>
<path fill="none" stroke="#191970" d="M754.9586,-224.2455C744.2213,-215.8943 728.5527,-203.7076 715.9953,-193.9408"/>
<polygon fill="#191970" stroke="#191970" points="717.9401,-191.0194 707.8977,-187.6427 713.6425,-196.5449 717.9401,-191.0194"/>
</g>
<!-- Node32 -->
<g id="node33" class="node">
<title>Node32</title>
<polygon fill="none" stroke="#bfbfbf" points="742.5,-168.5 742.5,-187.5 792.5,-187.5 792.5,-168.5 742.5,-168.5"/>
<text text-anchor="middle" x="767.5" y="-175.5" font-family="Helvetica,sans-Serif" font-size="10.00" fill="#000000">cstring</text>
</g>
<!-- Node30&#45;&gt;Node32 -->
<g id="edge45" class="edge">
<title>Node30&#45;&gt;Node32</title>
<path fill="none" stroke="#191970" d="M767.5,-224.2455C767.5,-216.9382 767.5,-206.6944 767.5,-197.7046"/>
<polygon fill="#191970" stroke="#191970" points="771.0001,-197.6426 767.5,-187.6427 764.0001,-197.6427 771.0001,-197.6426"/>
</g>
<!-- Node33 -->
<g id="node34" class="node">
<title>Node33</title>
<polygon fill="none" stroke="#bfbfbf" points="811,-168.5 811,-187.5 876,-187.5 876,-168.5 811,-168.5"/>
<text text-anchor="middle" x="843.5" y="-175.5" font-family="Helvetica,sans-Serif" font-size="10.00" fill="#000000">stdexcept</text>
</g>
<!-- Node30&#45;&gt;Node33 -->
<g id="edge47" class="edge">
<title>Node30&#45;&gt;Node33</title>
<path fill="none" stroke="#191970" d="M780.7382,-224.2455C792.181,-215.814 808.9296,-203.4729 822.2475,-193.6598"/>
<polygon fill="#191970" stroke="#191970" points="824.4391,-196.3924 830.4135,-187.6427 820.2867,-190.757 824.4391,-196.3924"/>
</g>
<!-- Node34 -->
<g id="node35" class="node">
<title>Node34</title>
<polygon fill="none" stroke="#bfbfbf" points="330.5,-168.5 330.5,-187.5 380.5,-187.5 380.5,-168.5 330.5,-168.5"/>
<text text-anchor="middle" x="355.5" y="-175.5" font-family="Helvetica,sans-Serif" font-size="10.00" fill="#000000">climits</text>
</g>
<!-- Node30&#45;&gt;Node34 -->
<g id="edge49" class="edge">
<title>Node30&#45;&gt;Node34</title>
<path fill="none" stroke="#191970" d="M703.8071,-225.2112C700.6607,-224.797 697.545,-224.3912 694.5,-224 561.305,-206.8866 526.4931,-212.7306 394.5,-188 393.2247,-187.7611 391.9293,-187.5042 390.6234,-187.2332"/>
<polygon fill="#191970" stroke="#191970" points="391.0941,-183.7509 380.5667,-184.9447 389.5408,-190.5765 391.0941,-183.7509"/>
</g>
<!-- Node35 -->
<g id="node36" class="node">
<title>Node35</title>
<g id="a_node36"><a xlink:href="../../d7/df8/Types_8h.html" target="_top" xlink:title="MemoryResources/Types.h">
<polygon fill="none" stroke="#000000" points="436.5,-168.5 436.5,-187.5 582.5,-187.5 582.5,-168.5 436.5,-168.5"/>
<text text-anchor="middle" x="509.5" y="-175.5" font-family="Helvetica,sans-Serif" font-size="10.00" fill="#000000">MemoryResources/Types.h</text>
</a>
</g>
</g>
<!-- Node30&#45;&gt;Node35 -->
<g id="edge50" class="edge">
<title>Node30&#45;&gt;Node35</title>
<path fill="none" stroke="#191970" d="M723.4414,-224.4369C679.1011,-214.8127 610.6589,-199.957 563.1751,-189.6504"/>
<polygon fill="#191970" stroke="#191970" points="563.8918,-186.2245 553.3769,-187.5237 562.4069,-193.0653 563.8918,-186.2245"/>
</g>
<!-- Node36 -->
<g id="node37" class="node">
<title>Node36</title>
<polygon fill="none" stroke="#bfbfbf" points="601,-168.5 601,-187.5 648,-187.5 648,-168.5 601,-168.5"/>
<text text-anchor="middle" x="624.5" y="-175.5" font-family="Helvetica,sans-Serif" font-size="10.00" fill="#000000">cerrno</text>
</g>
<!-- Node30&#45;&gt;Node36 -->
<g id="edge51" class="edge">
<title>Node30&#45;&gt;Node36</title>
<path fill="none" stroke="#191970" d="M742.9174,-224.3733C719.4088,-215.1671 683.785,-201.2165 657.75,-191.021"/>
<polygon fill="#191970" stroke="#191970" points="658.8744,-187.7025 648.2866,-187.315 656.3218,-194.2206 658.8744,-187.7025"/>
</g>
<!-- Node37&#45;&gt;Node6 -->
<g id="edge53" class="edge">
<title>Node37&#45;&gt;Node6</title>
<path fill="none" stroke="#191970" d="M692.4856,-347.3538C691.6094,-328.766 687.2054,-297.5606 668.5,-280 617.3401,-231.9711 581.9453,-258.569 508.425,-243.9656"/>
<polygon fill="#191970" stroke="#191970" points="508.8049,-240.4657 498.2868,-241.739 507.3032,-247.3027 508.8049,-240.4657"/>
</g>
<!-- Node37&#45;&gt;Node8 -->
<g id="edge54" class="edge">
<title>Node37&#45;&gt;Node8</title>
<path fill="none" stroke="#191970" d="M686.4082,-347.2288C677.9767,-328.2083 660.8625,-296.2424 635.5,-280 490.622,-187.2187 360.3404,-327.3888 259.5,-188 228.8728,-145.6649 319.9866,-130.0629 373.1254,-124.6557"/>
<polygon fill="#191970" stroke="#191970" points="373.5724,-128.1292 383.1995,-123.7053 372.9149,-121.1601 373.5724,-128.1292"/>
</g>
<!-- Node37&#45;&gt;Node10 -->
<g id="edge56" class="edge">
<title>Node37&#45;&gt;Node10</title>
<path fill="none" stroke="#191970" d="M656.3685,-347.4639C628.6246,-335.9183 590.6557,-320.1176 563.8918,-308.9798"/>
<polygon fill="#191970" stroke="#191970" points="565.1553,-305.7147 554.5781,-305.1039 562.4658,-312.1774 565.1553,-305.7147"/>
</g>
<!-- Node37&#45;&gt;Node14 -->
<g id="edge58" class="edge">
<title>Node37&#45;&gt;Node14</title>
<path fill="none" stroke="#191970" d="M760.3638,-348.291C810.1744,-337.8619 878.0573,-323.6489 930.8394,-312.5977"/>
<polygon fill="#191970" stroke="#191970" points="931.7772,-315.9773 940.8476,-310.5022 930.3426,-309.1259 931.7772,-315.9773"/>
</g>
<!-- Node38 -->
<g id="node39" class="node">
<title>Node38</title>
<polygon fill="none" stroke="#bfbfbf" points="720.5,-286 720.5,-305 764.5,-305 764.5,-286 720.5,-286"/>
<text text-anchor="middle" x="742.5" y="-293" font-family="Helvetica,sans-Serif" font-size="10.00" fill="#000000">ctime</text>
</g>
<!-- Node37&#45;&gt;Node38 -->
<g id="edge55" class="edge">
<title>Node37&#45;&gt;Node38</title>
<path fill="none" stroke="#191970" d="M703.8458,-347.2967C711.4091,-337.1618 721.3776,-323.804 729.2969,-313.1921"/>
<polygon fill="#191970" stroke="#191970" points="732.1936,-315.1626 735.3694,-305.055 726.5835,-310.976 732.1936,-315.1626"/>
</g>
<!-- Node39 -->
<g id="node40" class="node">
<title>Node39</title>
<g id="a_node40"><a xlink:href="../../da/d58/Units_8h.html" target="_top" xlink:title="Header to collect definitions for different units. ">
<polygon fill="none" stroke="#000000" points="782.5,-286 782.5,-305 908.5,-305 908.5,-286 782.5,-286"/>
<text text-anchor="middle" x="845.5" y="-293" font-family="Helvetica,sans-Serif" font-size="10.00" fill="#000000">CommonTypes/Units.h</text>
</a>
</g>
</g>
<!-- Node37&#45;&gt;Node39 -->
<g id="edge57" class="edge">
<title>Node37&#45;&gt;Node39</title>
<path fill="none" stroke="#191970" d="M726.8362,-347.4639C753.0858,-335.969 788.9674,-320.2561 814.3825,-309.1266"/>
<polygon fill="#191970" stroke="#191970" points="815.8124,-312.3214 823.5687,-305.1039 813.0045,-305.9092 815.8124,-312.3214"/>
</g>
</g>
</svg>
