<?xml version="1.0" encoding="UTF-8" standalone="no"?>
<!DOCTYPE svg PUBLIC "-//W3C//DTD SVG 1.1//EN"
 "http://www.w3.org/Graphics/SVG/1.1/DTD/svg11.dtd">
<!-- Generated by graphviz version 2.40.1 (20161225.0304)
 -->
<!-- Title: o2::fv0::TCMdata Pages: 1 -->
<svg width="389pt" height="248pt"
 viewBox="0.00 0.00 389.00 248.00" xmlns="http://www.w3.org/2000/svg" xmlns:xlink="http://www.w3.org/1999/xlink">
<g id="graph0" class="graph" transform="scale(1 1) rotate(0) translate(4 244)">
<title>o2::fv0::TCMdata</title>
<!-- Node1 -->
<g id="node1" class="node">
<title>Node1</title>
<polygon fill="#bfbfbf" stroke="#000000" points="117,-.5 117,-57.5 215,-57.5 215,-.5 117,-.5"/>
<text text-anchor="middle" x="166" y="-45.5" font-family="Helvetica,sans-Serif" font-size="10.00" fill="#000000">o2::fv0::TCMdata</text>
<polyline fill="none" stroke="#000000" points="117,-38.5 215,-38.5 "/>
<text text-anchor="middle" x="166" y="-26.5" font-family="Helvetica,sans-Serif" font-size="10.00" fill="#000000"> </text>
<polyline fill="none" stroke="#000000" points="117,-19.5 215,-19.5 "/>
<text text-anchor="middle" x="166" y="-7.5" font-family="Helvetica,sans-Serif" font-size="10.00" fill="#000000"> </text>
</g>
<!-- Node2 -->
<g id="node2" class="node">
<title>Node2</title>
<g id="a_node2"><a xlink:href="../../d6/d30/classuint64__t.html" target="_top" xlink:title="{uint64_t\n||}">
<polygon fill="none" stroke="#000000" points="0,-182.5 0,-239.5 56,-239.5 56,-182.5 0,-182.5"/>
<text text-anchor="middle" x="28" y="-227.5" font-family="Helvetica,sans-Serif" font-size="10.00" fill="#000000">uint64_t</text>
<polyline fill="none" stroke="#000000" points="0,-220.5 56,-220.5 "/>
<text text-anchor="middle" x="28" y="-208.5" font-family="Helvetica,sans-Serif" font-size="10.00" fill="#000000"> </text>
<polyline fill="none" stroke="#000000" points="0,-201.5 56,-201.5 "/>
<text text-anchor="middle" x="28" y="-189.5" font-family="Helvetica,sans-Serif" font-size="10.00" fill="#000000"> </text>
</a>
</g>
</g>
<!-- Node2&#45;&gt;Node1 -->
<g id="edge1" class="edge">
<title>Node2&#45;&gt;Node1</title>
<path fill="none" stroke="#404040" d="M33.784,-182.4892C41.0031,-152.956 55.845,-106.8854 83,-76 89.6802,-68.4022 97.899,-61.754 106.5416,-56.0349"/>
<polygon fill="none" stroke="#404040" points="106.5802,-56.0113 109.6095,-49.4673 116.8152,-49.7467 113.7859,-56.2907 106.5802,-56.0113"/>
<text text-anchor="middle" x="106" y="-156" font-family="Helvetica,sans-Serif" font-size="10.00" fill="#000000"> +orA</text>
<text text-anchor="middle" x="106" y="-145" font-family="Helvetica,sans-Serif" font-size="10.00" fill="#000000">+nChanA</text>
<text text-anchor="middle" x="106" y="-134" font-family="Helvetica,sans-Serif" font-size="10.00" fill="#000000">+sCen</text>
<text text-anchor="middle" x="106" y="-123" font-family="Helvetica,sans-Serif" font-size="10.00" fill="#000000">+orC</text>
<text text-anchor="middle" x="106" y="-112" font-family="Helvetica,sans-Serif" font-size="10.00" fill="#000000">+word</text>
<text text-anchor="middle" x="106" y="-101" font-family="Helvetica,sans-Serif" font-size="10.00" fill="#000000">+nChanC</text>
<text text-anchor="middle" x="106" y="-90" font-family="Helvetica,sans-Serif" font-size="10.00" fill="#000000">+vertex</text>
<text text-anchor="middle" x="106" y="-79" font-family="Helvetica,sans-Serif" font-size="10.00" fill="#000000">+cen</text>
</g>
<!-- Node3 -->
<g id="node3" class="node">
<title>Node3</title>
<polygon fill="none" stroke="#bfbfbf" points="74.5,-182.5 74.5,-239.5 181.5,-239.5 181.5,-182.5 74.5,-182.5"/>
<text text-anchor="middle" x="128" y="-227.5" font-family="Helvetica,sans-Serif" font-size="10.00" fill="#000000">anonymous:+@41</text>
<polyline fill="none" stroke="#bfbfbf" points="74.5,-220.5 181.5,-220.5 "/>
<text text-anchor="middle" x="128" y="-208.5" font-family="Helvetica,sans-Serif" font-size="10.00" fill="#000000"> </text>
<polyline fill="none" stroke="#bfbfbf" points="74.5,-201.5 181.5,-201.5 "/>
<text text-anchor="middle" x="128" y="-189.5" font-family="Helvetica,sans-Serif" font-size="10.00" fill="#000000"> </text>
</g>
<!-- Node3&#45;&gt;Node1 -->
<g id="edge2" class="edge">
<title>Node3&#45;&gt;Node1</title>
<path fill="none" stroke="#404040" d="M130.8184,-182.4951C133.9196,-154.9488 139.7325,-112.1902 149,-76 149.5812,-73.7304 150.2289,-71.4168 150.9226,-69.0936"/>
<polygon fill="none" stroke="#404040" points="150.9634,-68.9682 149.0182,-62.0244 154.6797,-57.5582 156.6249,-64.502 150.9634,-68.9682"/>
<text text-anchor="middle" x="166" y="-117.5" font-family="Helvetica,sans-Serif" font-size="10.00" fill="#000000"> +@41</text>
</g>
<!-- Node4 -->
<g id="node4" class="node">
<title>Node4</title>
<polygon fill="none" stroke="#bfbfbf" points="200,-182.5 200,-239.5 250,-239.5 250,-182.5 200,-182.5"/>
<text text-anchor="middle" x="225" y="-227.5" font-family="Helvetica,sans-Serif" font-size="10.00" fill="#000000">int64_t</text>
<polyline fill="none" stroke="#bfbfbf" points="200,-220.5 250,-220.5 "/>
<text text-anchor="middle" x="225" y="-208.5" font-family="Helvetica,sans-Serif" font-size="10.00" fill="#000000"> </text>
<polyline fill="none" stroke="#bfbfbf" points="200,-201.5 250,-201.5 "/>
<text text-anchor="middle" x="225" y="-189.5" font-family="Helvetica,sans-Serif" font-size="10.00" fill="#000000"> </text>
</g>
<!-- Node4&#45;&gt;Node1 -->
<g id="edge3" class="edge">
<title>Node4&#45;&gt;Node1</title>
<path fill="none" stroke="#404040" d="M212.7519,-182.3848C210.3676,-176.3649 207.9928,-170.0154 206,-164 193.2872,-125.6261 194.9986,-114.6032 183,-76 182.3046,-73.7628 181.5668,-71.4746 180.8033,-69.1712"/>
<polygon fill="none" stroke="#404040" points="180.7572,-69.0374 175.021,-64.6676 176.8484,-57.6919 182.5847,-62.0617 180.7572,-69.0374"/>
<text text-anchor="middle" x="246" y="-145" font-family="Helvetica,sans-Serif" font-size="10.00" fill="#000000"> +timeA</text>
<text text-anchor="middle" x="246" y="-134" font-family="Helvetica,sans-Serif" font-size="10.00" fill="#000000">+timeC</text>
<text text-anchor="middle" x="246" y="-123" font-family="Helvetica,sans-Serif" font-size="10.00" fill="#000000">+reservedField1</text>
<text text-anchor="middle" x="246" y="-112" font-family="Helvetica,sans-Serif" font-size="10.00" fill="#000000">+reservedField2</text>
<text text-anchor="middle" x="246" y="-101" font-family="Helvetica,sans-Serif" font-size="10.00" fill="#000000">+amplA</text>
<text text-anchor="middle" x="246" y="-90" font-family="Helvetica,sans-Serif" font-size="10.00" fill="#000000">+amplC</text>
</g>
<!-- Node5 -->
<g id="node5" class="node">
<title>Node5</title>
<polygon fill="none" stroke="#bfbfbf" points="293.5,-182.5 293.5,-239.5 322.5,-239.5 322.5,-182.5 293.5,-182.5"/>
<text text-anchor="middle" x="308" y="-227.5" font-family="Helvetica,sans-Serif" font-size="10.00" fill="#000000">int</text>
<polyline fill="none" stroke="#bfbfbf" points="293.5,-220.5 322.5,-220.5 "/>
<text text-anchor="middle" x="308" y="-208.5" font-family="Helvetica,sans-Serif" font-size="10.00" fill="#000000"> </text>
<polyline fill="none" stroke="#bfbfbf" points="293.5,-201.5 322.5,-201.5 "/>
<text text-anchor="middle" x="308" y="-189.5" font-family="Helvetica,sans-Serif" font-size="10.00" fill="#000000"> </text>
</g>
<!-- Node5&#45;&gt;Node1 -->
<g id="edge4" class="edge">
<title>Node5&#45;&gt;Node1</title>
<path fill="none" stroke="#404040" d="M311.0297,-182.4164C312.5921,-152.6067 310.3243,-106.1093 286,-76 271.2808,-57.7801 248.5331,-46.602 226.7845,-39.7533"/>
<polygon fill="none" stroke="#404040" points="226.7507,-39.7438 219.886,-41.9519 215.2075,-36.4645 222.0722,-34.2564 226.7507,-39.7438"/>
<text text-anchor="middle" x="346" y="-117.5" font-family="Helvetica,sans-Serif" font-size="10.00" fill="#000000"> +PayloadSize</text>
</g>
</g>
</svg>
