<?xml version="1.0" encoding="UTF-8" standalone="no"?>
<!DOCTYPE svg PUBLIC "-//W3C//DTD SVG 1.1//EN"
 "http://www.w3.org/Graphics/SVG/1.1/DTD/svg11.dtd">
<!-- Generated by graphviz version 2.40.1 (20161225.0304)
 -->
<!-- Title: /home/travis/build/AliceO2Group/AliceO2/Detectors/TRD/base/include/TRDBase/DiffAndTimeStructEstimator.h Pages: 1 -->
<svg width="896pt" height="428pt"
 viewBox="0.00 0.00 896.00 428.00" xmlns="http://www.w3.org/2000/svg" xmlns:xlink="http://www.w3.org/1999/xlink">
<g id="graph0" class="graph" transform="scale(1 1) rotate(0) translate(4 424)">
<title>/home/travis/build/AliceO2Group/AliceO2/Detectors/TRD/base/include/TRDBase/DiffAndTimeStructEstimator.h</title>
<!-- Node2 -->
<g id="node1" class="node">
<title>Node2</title>
<polygon fill="#bfbfbf" stroke="#000000" points="176,-367.5 176,-419.5 388,-419.5 388,-367.5 176,-367.5"/>
<text text-anchor="start" x="184" y="-407.5" font-family="Helvetica,sans-Serif" font-size="10.00" fill="#000000">/home/travis/build</text>
<text text-anchor="start" x="184" y="-396.5" font-family="Helvetica,sans-Serif" font-size="10.00" fill="#000000">/AliceO2Group/AliceO2</text>
<text text-anchor="start" x="184" y="-385.5" font-family="Helvetica,sans-Serif" font-size="10.00" fill="#000000">/Detectors/TRD/base/include</text>
<text text-anchor="middle" x="282" y="-374.5" font-family="Helvetica,sans-Serif" font-size="10.00" fill="#000000">/TRDBase/DiffAndTimeStructEstimator.h</text>
</g>
<!-- Node3 -->
<g id="node2" class="node">
<title>Node3</title>
<g id="a_node2"><a xlink:href="../../de/d57/DiffAndTimeStructEstimator_8cxx.html" target="_top" xlink:title="/home/travis/build\l/AliceO2Group/AliceO2\l/Detectors/TRD/base/src\l/DiffAndTimeStructEstimator.cxx">
<polygon fill="none" stroke="#000000" points="0,-278.5 0,-330.5 176,-330.5 176,-278.5 0,-278.5"/>
<text text-anchor="start" x="8" y="-318.5" font-family="Helvetica,sans-Serif" font-size="10.00" fill="#000000">/home/travis/build</text>
<text text-anchor="start" x="8" y="-307.5" font-family="Helvetica,sans-Serif" font-size="10.00" fill="#000000">/AliceO2Group/AliceO2</text>
<text text-anchor="start" x="8" y="-296.5" font-family="Helvetica,sans-Serif" font-size="10.00" fill="#000000">/Detectors/TRD/base/src</text>
<text text-anchor="middle" x="88" y="-285.5" font-family="Helvetica,sans-Serif" font-size="10.00" fill="#000000">/DiffAndTimeStructEstimator.cxx</text>
</a>
</g>
</g>
<!-- Node2&#45;&gt;Node3 -->
<g id="edge1" class="edge">
<title>Node2&#45;&gt;Node3</title>
<path fill="none" stroke="#191970" d="M215.7469,-363.1055C192.7145,-352.5391 167.1025,-340.7893 144.8946,-330.6011"/>
<polygon fill="#191970" stroke="#191970" points="214.5558,-366.4098 225.1044,-367.3984 217.4747,-360.0474 214.5558,-366.4098"/>
</g>
<!-- Node4 -->
<g id="node3" class="node">
<title>Node4</title>
<g id="a_node3"><a xlink:href="../../dc/d6e/testTRDDiffusionCoefficient_8cxx.html" target="_top" xlink:title="This task tests the Diffusion Coefficient module of the TRD digitization. ">
<polygon fill="none" stroke="#000000" points="194.5,-278.5 194.5,-330.5 369.5,-330.5 369.5,-278.5 194.5,-278.5"/>
<text text-anchor="start" x="202.5" y="-318.5" font-family="Helvetica,sans-Serif" font-size="10.00" fill="#000000">/home/travis/build</text>
<text text-anchor="start" x="202.5" y="-307.5" font-family="Helvetica,sans-Serif" font-size="10.00" fill="#000000">/AliceO2Group/AliceO2</text>
<text text-anchor="start" x="202.5" y="-296.5" font-family="Helvetica,sans-Serif" font-size="10.00" fill="#000000">/Detectors/TRD/base/test</text>
<text text-anchor="middle" x="282" y="-285.5" font-family="Helvetica,sans-Serif" font-size="10.00" fill="#000000">/testTRDDiffusionCoefficient.cxx</text>
</a>
</g>
</g>
<!-- Node2&#45;&gt;Node4 -->
<g id="edge2" class="edge">
<title>Node2&#45;&gt;Node4</title>
<path fill="none" stroke="#191970" d="M282,-357.1155C282,-348.2061 282,-338.8475 282,-330.5341"/>
<polygon fill="#191970" stroke="#191970" points="278.5001,-357.2784 282,-367.2784 285.5001,-357.2785 278.5001,-357.2784"/>
</g>
<!-- Node5 -->
<g id="node4" class="node">
<title>Node5</title>
<g id="a_node4"><a xlink:href="../../d4/dae/TRD_2simulation_2include_2TRDSimulation_2Digitizer_8h.html" target="_top" xlink:title="/home/travis/build\l/AliceO2Group/AliceO2\l/Detectors/TRD/simulation\l/include/TRDSimulation/Digitizer.h">
<polygon fill="none" stroke="#000000" points="387.5,-278.5 387.5,-330.5 570.5,-330.5 570.5,-278.5 387.5,-278.5"/>
<text text-anchor="start" x="395.5" y="-318.5" font-family="Helvetica,sans-Serif" font-size="10.00" fill="#000000">/home/travis/build</text>
<text text-anchor="start" x="395.5" y="-307.5" font-family="Helvetica,sans-Serif" font-size="10.00" fill="#000000">/AliceO2Group/AliceO2</text>
<text text-anchor="start" x="395.5" y="-296.5" font-family="Helvetica,sans-Serif" font-size="10.00" fill="#000000">/Detectors/TRD/simulation</text>
<text text-anchor="middle" x="479" y="-285.5" font-family="Helvetica,sans-Serif" font-size="10.00" fill="#000000">/include/TRDSimulation/Digitizer.h</text>
</a>
</g>
</g>
<!-- Node2&#45;&gt;Node5 -->
<g id="edge3" class="edge">
<title>Node2&#45;&gt;Node5</title>
<path fill="none" stroke="#191970" d="M348.9659,-363.2464C372.435,-352.6436 398.5741,-340.8346 421.2256,-330.6011"/>
<polygon fill="#191970" stroke="#191970" points="347.4476,-360.0917 339.7754,-367.3984 350.3296,-366.4709 347.4476,-360.0917"/>
</g>
<!-- Node6 -->
<g id="node5" class="node">
<title>Node6</title>
<g id="a_node5"><a xlink:href="../../d7/d42/TrapSimulator_8h.html" target="_top" xlink:title="/home/travis/build\l/AliceO2Group/AliceO2\l/Detectors/TRD/simulation\l/include/TRDSimulation/TrapSimulator.h">
<polygon fill="none" stroke="#000000" points="307.5,-189.5 307.5,-241.5 516.5,-241.5 516.5,-189.5 307.5,-189.5"/>
<text text-anchor="start" x="315.5" y="-229.5" font-family="Helvetica,sans-Serif" font-size="10.00" fill="#000000">/home/travis/build</text>
<text text-anchor="start" x="315.5" y="-218.5" font-family="Helvetica,sans-Serif" font-size="10.00" fill="#000000">/AliceO2Group/AliceO2</text>
<text text-anchor="start" x="315.5" y="-207.5" font-family="Helvetica,sans-Serif" font-size="10.00" fill="#000000">/Detectors/TRD/simulation</text>
<text text-anchor="middle" x="412" y="-196.5" font-family="Helvetica,sans-Serif" font-size="10.00" fill="#000000">/include/TRDSimulation/TrapSimulator.h</text>
</a>
</g>
</g>
<!-- Node5&#45;&gt;Node6 -->
<g id="edge4" class="edge">
<title>Node5&#45;&gt;Node6</title>
<path fill="none" stroke="#191970" d="M453.134,-270.1407C445.979,-260.6363 438.3333,-250.4801 431.5987,-241.5341"/>
<polygon fill="#191970" stroke="#191970" points="450.4495,-272.3942 459.2602,-278.2784 456.042,-268.1842 450.4495,-272.3942"/>
</g>
<!-- Node8 -->
<g id="node7" class="node">
<title>Node8</title>
<g id="a_node7"><a xlink:href="../../da/deb/TrapSimulator_8cxx.html" target="_top" xlink:title="/home/travis/build\l/AliceO2Group/AliceO2\l/Detectors/TRD/simulation\l/src/TrapSimulator.cxx">
<polygon fill="none" stroke="#000000" points="125.5,-95 125.5,-147 270.5,-147 270.5,-95 125.5,-95"/>
<text text-anchor="start" x="133.5" y="-135" font-family="Helvetica,sans-Serif" font-size="10.00" fill="#000000">/home/travis/build</text>
<text text-anchor="start" x="133.5" y="-124" font-family="Helvetica,sans-Serif" font-size="10.00" fill="#000000">/AliceO2Group/AliceO2</text>
<text text-anchor="start" x="133.5" y="-113" font-family="Helvetica,sans-Serif" font-size="10.00" fill="#000000">/Detectors/TRD/simulation</text>
<text text-anchor="middle" x="198" y="-102" font-family="Helvetica,sans-Serif" font-size="10.00" fill="#000000">/src/TrapSimulator.cxx</text>
</a>
</g>
</g>
<!-- Node5&#45;&gt;Node8 -->
<g id="edge14" class="edge">
<title>Node5&#45;&gt;Node8</title>
<path fill="none" stroke="#191970" d="M380.0286,-275.2606C346.2089,-264.1897 313.3032,-251.8848 299,-242 262.1948,-216.5643 231.2044,-174.2626 213.6142,-147.0139"/>
<polygon fill="#191970" stroke="#191970" points="378.9853,-278.6016 389.5771,-278.3474 381.1385,-271.9409 378.9853,-278.6016"/>
</g>
<!-- Node10 -->
<g id="node9" class="node">
<title>Node10</title>
<g id="a_node9"><a xlink:href="../../dd/de7/TRDTrapSimulatorSpec_8cxx.html" target="_top" xlink:title="/home/travis/build\l/AliceO2Group/AliceO2\l/Detectors/TRD/workflow\l/src/TRDTrapSimulatorSpec.cxx">
<polygon fill="none" stroke="#000000" points="316,-.5 316,-52.5 484,-52.5 484,-.5 316,-.5"/>
<text text-anchor="start" x="324" y="-40.5" font-family="Helvetica,sans-Serif" font-size="10.00" fill="#000000">/home/travis/build</text>
<text text-anchor="start" x="324" y="-29.5" font-family="Helvetica,sans-Serif" font-size="10.00" fill="#000000">/AliceO2Group/AliceO2</text>
<text text-anchor="start" x="324" y="-18.5" font-family="Helvetica,sans-Serif" font-size="10.00" fill="#000000">/Detectors/TRD/workflow</text>
<text text-anchor="middle" x="400" y="-7.5" font-family="Helvetica,sans-Serif" font-size="10.00" fill="#000000">/src/TRDTrapSimulatorSpec.cxx</text>
</a>
</g>
</g>
<!-- Node5&#45;&gt;Node10 -->
<g id="edge17" class="edge">
<title>Node5&#45;&gt;Node10</title>
<path fill="none" stroke="#191970" d="M377.3801,-277.655C249.898,-246.0544 174.012,-265.0013 116,-153 102.9177,-127.7425 98.1788,-111.1696 116,-89 140.7508,-58.21 241.377,-41.7079 315.8591,-33.5315"/>
<polygon fill="#191970" stroke="#191970" points="376.8938,-281.1432 387.4493,-280.2309 378.6287,-274.3616 376.8938,-281.1432"/>
</g>
<!-- Node13 -->
<g id="node12" class="node">
<title>Node13</title>
<g id="a_node12"><a xlink:href="../../d7/da6/TRDDigitReaderSpec_8cxx.html" target="_top" xlink:title="/home/travis/build\l/AliceO2Group/AliceO2\l/Detectors/TRD/workflow\l/src/TRDDigitReaderSpec.cxx">
<polygon fill="none" stroke="#000000" points="723,-95 723,-147 881,-147 881,-95 723,-95"/>
<text text-anchor="start" x="731" y="-135" font-family="Helvetica,sans-Serif" font-size="10.00" fill="#000000">/home/travis/build</text>
<text text-anchor="start" x="731" y="-124" font-family="Helvetica,sans-Serif" font-size="10.00" fill="#000000">/AliceO2Group/AliceO2</text>
<text text-anchor="start" x="731" y="-113" font-family="Helvetica,sans-Serif" font-size="10.00" fill="#000000">/Detectors/TRD/workflow</text>
<text text-anchor="middle" x="802" y="-102" font-family="Helvetica,sans-Serif" font-size="10.00" fill="#000000">/src/TRDDigitReaderSpec.cxx</text>
</a>
</g>
</g>
<!-- Node5&#45;&gt;Node13 -->
<g id="edge16" class="edge">
<title>Node5&#45;&gt;Node13</title>
<path fill="none" stroke="#191970" d="M504.8683,-270.2343C511.7547,-261.076 519.1756,-251.1739 526,-242 543.4556,-218.5349 540.6457,-205.1918 565,-189 621.7333,-151.2811 648.7742,-172.6718 714,-153 720.07,-151.1693 726.3329,-149.1538 732.589,-147.0521"/>
<polygon fill="#191970" stroke="#191970" points="501.9442,-268.2991 498.7268,-278.3936 507.537,-272.5087 501.9442,-268.2991"/>
</g>
<!-- Node14 -->
<g id="node13" class="node">
<title>Node14</title>
<g id="a_node13"><a xlink:href="../../d7/d40/TRD_2simulation_2src_2Digitizer_8cxx.html" target="_top" xlink:title="/home/travis/build\l/AliceO2Group/AliceO2\l/Detectors/TRD/simulation\l/src/Digitizer.cxx">
<polygon fill="none" stroke="#000000" points="573.5,-189.5 573.5,-241.5 718.5,-241.5 718.5,-189.5 573.5,-189.5"/>
<text text-anchor="start" x="581.5" y="-229.5" font-family="Helvetica,sans-Serif" font-size="10.00" fill="#000000">/home/travis/build</text>
<text text-anchor="start" x="581.5" y="-218.5" font-family="Helvetica,sans-Serif" font-size="10.00" fill="#000000">/AliceO2Group/AliceO2</text>
<text text-anchor="start" x="581.5" y="-207.5" font-family="Helvetica,sans-Serif" font-size="10.00" fill="#000000">/Detectors/TRD/simulation</text>
<text text-anchor="middle" x="646" y="-196.5" font-family="Helvetica,sans-Serif" font-size="10.00" fill="#000000">/src/Digitizer.cxx</text>
</a>
</g>
</g>
<!-- Node5&#45;&gt;Node14 -->
<g id="edge13" class="edge">
<title>Node5&#45;&gt;Node14</title>
<path fill="none" stroke="#191970" d="M537.047,-273.5648C556.6527,-263.1162 578.3286,-251.5644 597.1494,-241.5341"/>
<polygon fill="#191970" stroke="#191970" points="535.3811,-270.4865 528.2023,-278.2784 538.6734,-276.664 535.3811,-270.4865"/>
</g>
<!-- Node15 -->
<g id="node14" class="node">
<title>Node15</title>
<g id="a_node14"><a xlink:href="../../d6/df2/TRDDigitizerSpec_8cxx.html" target="_top" xlink:title="/home/travis/build\l/AliceO2Group/AliceO2\l/Detectors/TRD/workflow\l/src/TRDDigitizerSpec.cxx">
<polygon fill="none" stroke="#000000" points="737,-189.5 737,-241.5 879,-241.5 879,-189.5 737,-189.5"/>
<text text-anchor="start" x="745" y="-229.5" font-family="Helvetica,sans-Serif" font-size="10.00" fill="#000000">/home/travis/build</text>
<text text-anchor="start" x="745" y="-218.5" font-family="Helvetica,sans-Serif" font-size="10.00" fill="#000000">/AliceO2Group/AliceO2</text>
<text text-anchor="start" x="745" y="-207.5" font-family="Helvetica,sans-Serif" font-size="10.00" fill="#000000">/Detectors/TRD/workflow</text>
<text text-anchor="middle" x="808" y="-196.5" font-family="Helvetica,sans-Serif" font-size="10.00" fill="#000000">/src/TRDDigitizerSpec.cxx</text>
</a>
</g>
</g>
<!-- Node5&#45;&gt;Node15 -->
<g id="edge15" class="edge">
<title>Node5&#45;&gt;Node15</title>
<path fill="none" stroke="#191970" d="M580.6226,-280.7938C625.9388,-269.7603 679.8536,-255.996 728,-242 730.9504,-241.1423 733.9551,-240.2471 736.9853,-239.3261"/>
<polygon fill="#191970" stroke="#191970" points="579.6855,-277.4195 570.7919,-283.1775 581.3351,-284.2224 579.6855,-277.4195"/>
</g>
<!-- Node7 -->
<g id="node6" class="node">
<title>Node7</title>
<g id="a_node6"><a xlink:href="../../db/dc3/TrapConfigHandler_8cxx.html" target="_top" xlink:title="/home/travis/build\l/AliceO2Group/AliceO2\l/Detectors/TRD/simulation\l/src/TrapConfigHandler.cxx">
<polygon fill="none" stroke="#000000" points="289,-95 289,-147 435,-147 435,-95 289,-95"/>
<text text-anchor="start" x="297" y="-135" font-family="Helvetica,sans-Serif" font-size="10.00" fill="#000000">/home/travis/build</text>
<text text-anchor="start" x="297" y="-124" font-family="Helvetica,sans-Serif" font-size="10.00" fill="#000000">/AliceO2Group/AliceO2</text>
<text text-anchor="start" x="297" y="-113" font-family="Helvetica,sans-Serif" font-size="10.00" fill="#000000">/Detectors/TRD/simulation</text>
<text text-anchor="middle" x="362" y="-102" font-family="Helvetica,sans-Serif" font-size="10.00" fill="#000000">/src/TrapConfigHandler.cxx</text>
</a>
</g>
</g>
<!-- Node6&#45;&gt;Node7 -->
<g id="edge5" class="edge">
<title>Node6&#45;&gt;Node7</title>
<path fill="none" stroke="#191970" d="M393.4741,-180.4861C387.6661,-169.5089 381.3574,-157.5854 375.9236,-147.3157"/>
<polygon fill="#191970" stroke="#191970" points="390.4345,-182.2251 398.2049,-189.4273 396.6218,-178.9514 390.4345,-182.2251"/>
</g>
<!-- Node6&#45;&gt;Node8 -->
<g id="edge6" class="edge">
<title>Node6&#45;&gt;Node8</title>
<path fill="none" stroke="#191970" d="M343.6919,-185.3359C315.8772,-173.0532 284.0312,-158.9904 257.2214,-147.1515"/>
<polygon fill="#191970" stroke="#191970" points="342.3954,-188.5894 352.9571,-189.4273 345.2231,-182.186 342.3954,-188.5894"/>
</g>
<!-- Node9 -->
<g id="node8" class="node">
<title>Node9</title>
<g id="a_node8"><a xlink:href="../../dc/d96/TRDTrapSimulatorSpec_8h.html" target="_top" xlink:title="/home/travis/build\l/AliceO2Group/AliceO2\l/Detectors/TRD/workflow\l/include/TRDWorkflow/TRDTrapSimulator\lSpec.h">
<polygon fill="none" stroke="#000000" points="491,-89.5 491,-152.5 705,-152.5 705,-89.5 491,-89.5"/>
<text text-anchor="start" x="499" y="-140.5" font-family="Helvetica,sans-Serif" font-size="10.00" fill="#000000">/home/travis/build</text>
<text text-anchor="start" x="499" y="-129.5" font-family="Helvetica,sans-Serif" font-size="10.00" fill="#000000">/AliceO2Group/AliceO2</text>
<text text-anchor="start" x="499" y="-118.5" font-family="Helvetica,sans-Serif" font-size="10.00" fill="#000000">/Detectors/TRD/workflow</text>
<text text-anchor="start" x="499" y="-107.5" font-family="Helvetica,sans-Serif" font-size="10.00" fill="#000000">/include/TRDWorkflow/TRDTrapSimulator</text>
<text text-anchor="middle" x="598" y="-96.5" font-family="Helvetica,sans-Serif" font-size="10.00" fill="#000000">Spec.h</text>
</a>
</g>
</g>
<!-- Node6&#45;&gt;Node9 -->
<g id="edge7" class="edge">
<title>Node6&#45;&gt;Node9</title>
<path fill="none" stroke="#191970" d="M472.4721,-184.7763C492.7956,-174.4506 515.4904,-162.9202 535.9344,-152.5333"/>
<polygon fill="#191970" stroke="#191970" points="470.6477,-181.7773 463.3177,-189.4273 473.8184,-188.0181 470.6477,-181.7773"/>
</g>
<!-- Node6&#45;&gt;Node10 -->
<g id="edge12" class="edge">
<title>Node6&#45;&gt;Node10</title>
<path fill="none" stroke="#191970" d="M433.6912,-180.2255C437.9453,-171.6187 441.7757,-162.225 444,-153 450.6674,-125.348 452.5879,-116.1171 444,-89 439.8333,-75.8433 431.7904,-63.0615 423.7083,-52.5213"/>
<polygon fill="#191970" stroke="#191970" points="430.5227,-178.7311 428.9648,-189.2108 436.7179,-181.9899 430.5227,-178.7311"/>
</g>
<!-- Node6&#45;&gt;Node13 -->
<g id="edge11" class="edge">
<title>Node6&#45;&gt;Node13</title>
<path fill="none" stroke="#191970" d="M526.6027,-189.9254C528.0771,-189.614 529.5435,-189.3054 531,-189 612.1281,-171.9898 634.1443,-175.2302 714,-153 720.421,-151.2125 727.0425,-149.1768 733.6356,-147.0182"/>
<polygon fill="#191970" stroke="#191970" points="525.8236,-186.5128 516.7709,-192.0172 527.2804,-193.3595 525.8236,-186.5128"/>
</g>
<!-- Node9&#45;&gt;Node10 -->
<g id="edge8" class="edge">
<title>Node9&#45;&gt;Node10</title>
<path fill="none" stroke="#191970" d="M522.5603,-84.9947C499.9496,-74.2032 475.5981,-62.5809 454.6054,-52.5617"/>
<polygon fill="#191970" stroke="#191970" points="521.2612,-88.2528 531.7936,-89.4015 524.2763,-81.9354 521.2612,-88.2528"/>
</g>
<!-- Node11 -->
<g id="node10" class="node">
<title>Node11</title>
<g id="a_node10"><a xlink:href="../../d2/dc0/TRDTrapSimulatorWorkFlow_8cxx.html" target="_top" xlink:title="/home/travis/build\l/AliceO2Group/AliceO2\l/Detectors/TRD/workflow\l/src/TRDTrapSimulatorWorkFlow.cxx">
<polygon fill="none" stroke="#000000" points="502.5,-.5 502.5,-52.5 693.5,-52.5 693.5,-.5 502.5,-.5"/>
<text text-anchor="start" x="510.5" y="-40.5" font-family="Helvetica,sans-Serif" font-size="10.00" fill="#000000">/home/travis/build</text>
<text text-anchor="start" x="510.5" y="-29.5" font-family="Helvetica,sans-Serif" font-size="10.00" fill="#000000">/AliceO2Group/AliceO2</text>
<text text-anchor="start" x="510.5" y="-18.5" font-family="Helvetica,sans-Serif" font-size="10.00" fill="#000000">/Detectors/TRD/workflow</text>
<text text-anchor="middle" x="598" y="-7.5" font-family="Helvetica,sans-Serif" font-size="10.00" fill="#000000">/src/TRDTrapSimulatorWorkFlow.cxx</text>
</a>
</g>
</g>
<!-- Node9&#45;&gt;Node11 -->
<g id="edge9" class="edge">
<title>Node9&#45;&gt;Node11</title>
<path fill="none" stroke="#191970" d="M598,-79.2457C598,-70.2008 598,-60.8836 598,-52.6442"/>
<polygon fill="#191970" stroke="#191970" points="594.5001,-79.2699 598,-89.27 601.5001,-79.27 594.5001,-79.2699"/>
</g>
<!-- Node12 -->
<g id="node11" class="node">
<title>Node12</title>
<g id="a_node11"><a xlink:href="../../d2/dd7/SimpleDigitizerWorkflow_8cxx.html" target="_top" xlink:title="/home/travis/build\l/AliceO2Group/AliceO2\l/Steer/DigitizerWorkflow\l/src/SimpleDigitizerWorkflow.cxx">
<polygon fill="none" stroke="#000000" points="712,-.5 712,-52.5 888,-52.5 888,-.5 712,-.5"/>
<text text-anchor="start" x="720" y="-40.5" font-family="Helvetica,sans-Serif" font-size="10.00" fill="#000000">/home/travis/build</text>
<text text-anchor="start" x="720" y="-29.5" font-family="Helvetica,sans-Serif" font-size="10.00" fill="#000000">/AliceO2Group/AliceO2</text>
<text text-anchor="start" x="720" y="-18.5" font-family="Helvetica,sans-Serif" font-size="10.00" fill="#000000">/Steer/DigitizerWorkflow</text>
<text text-anchor="middle" x="800" y="-7.5" font-family="Helvetica,sans-Serif" font-size="10.00" fill="#000000">/src/SimpleDigitizerWorkflow.cxx</text>
</a>
</g>
</g>
<!-- Node9&#45;&gt;Node12 -->
<g id="edge10" class="edge">
<title>Node9&#45;&gt;Node12</title>
<path fill="none" stroke="#191970" d="M674.6563,-85.1385C697.8104,-74.3065 722.7795,-62.6254 744.2914,-52.5617"/>
<polygon fill="#191970" stroke="#191970" points="673.1186,-81.9937 665.5439,-89.4015 676.0849,-88.3342 673.1186,-81.9937"/>
</g>
</g>
</svg>
