<?xml version="1.0" encoding="UTF-8" standalone="no"?>
<!DOCTYPE svg PUBLIC "-//W3C//DTD SVG 1.1//EN"
 "http://www.w3.org/Graphics/SVG/1.1/DTD/svg11.dtd">
<!-- Generated by graphviz version 2.40.1 (20161225.0304)
 -->
<!-- Title: /home/travis/build/AliceO2Group/AliceO2/Detectors/MUON/MID/QC/include/MIDQC/RawDataChecker.h Pages: 1 -->
<svg width="1098pt" height="352pt"
 viewBox="0.00 0.00 1097.99 352.00" xmlns="http://www.w3.org/2000/svg" xmlns:xlink="http://www.w3.org/1999/xlink">
<g id="graph0" class="graph" transform="scale(1 1) rotate(0) translate(4 348)">
<title>/home/travis/build/AliceO2Group/AliceO2/Detectors/MUON/MID/QC/include/MIDQC/RawDataChecker.h</title>
<!-- Node0 -->
<g id="node1" class="node">
<title>Node0</title>
<polygon fill="#bfbfbf" stroke="#000000" points="447.9858,-291.5 447.9858,-343.5 633.9858,-343.5 633.9858,-291.5 447.9858,-291.5"/>
<text text-anchor="start" x="455.9858" y="-331.5" font-family="Helvetica,sans-Serif" font-size="10.00" fill="#000000">/home/travis/build</text>
<text text-anchor="start" x="455.9858" y="-320.5" font-family="Helvetica,sans-Serif" font-size="10.00" fill="#000000">/AliceO2Group/AliceO2</text>
<text text-anchor="start" x="455.9858" y="-309.5" font-family="Helvetica,sans-Serif" font-size="10.00" fill="#000000">/Detectors/MUON/MID/QC</text>
<text text-anchor="middle" x="540.9858" y="-298.5" font-family="Helvetica,sans-Serif" font-size="10.00" fill="#000000">/include/MIDQC/RawDataChecker.h</text>
</g>
<!-- Node1 -->
<g id="node2" class="node">
<title>Node1</title>
<polygon fill="none" stroke="#bfbfbf" points="7.9858,-118 7.9858,-137 49.9858,-137 49.9858,-118 7.9858,-118"/>
<text text-anchor="middle" x="28.9858" y="-125" font-family="Helvetica,sans-Serif" font-size="10.00" fill="#000000">array</text>
</g>
<!-- Node0&#45;&gt;Node1 -->
<g id="edge1" class="edge">
<title>Node0&#45;&gt;Node1</title>
<path fill="none" stroke="#191970" d="M447.7753,-314.6662C322.697,-309.38 108.5431,-294.6773 41.9858,-255 15.7138,-239.3383 11.32,-228.127 1.9858,-199 -3.9269,-180.5498 5.6891,-159.8858 15.043,-145.5357"/>
<polygon fill="#191970" stroke="#191970" points="18.0856,-147.2942 20.9862,-137.1042 12.3641,-143.2613 18.0856,-147.2942"/>
</g>
<!-- Node2 -->
<g id="node3" class="node">
<title>Node2</title>
<polygon fill="none" stroke="#bfbfbf" points="955.9858,-179.5 955.9858,-198.5 999.9858,-198.5 999.9858,-179.5 955.9858,-179.5"/>
<text text-anchor="middle" x="977.9858" y="-186.5" font-family="Helvetica,sans-Serif" font-size="10.00" fill="#000000">string</text>
</g>
<!-- Node0&#45;&gt;Node2 -->
<g id="edge2" class="edge">
<title>Node0&#45;&gt;Node2</title>
<path fill="none" stroke="#191970" d="M633.1156,-291.4072C713.2143,-268.5377 832.6016,-234.009 945.7794,-199.3184"/>
<polygon fill="#191970" stroke="#191970" points="947.1262,-202.5661 955.6584,-196.285 945.0715,-195.8745 947.1262,-202.5661"/>
</g>
<!-- Node3 -->
<g id="node4" class="node">
<title>Node3</title>
<polygon fill="none" stroke="#bfbfbf" points="1017.9858,-179.5 1017.9858,-198.5 1065.9858,-198.5 1065.9858,-179.5 1017.9858,-179.5"/>
<text text-anchor="middle" x="1041.9858" y="-186.5" font-family="Helvetica,sans-Serif" font-size="10.00" fill="#000000">gsl/gsl</text>
</g>
<!-- Node0&#45;&gt;Node3 -->
<g id="edge3" class="edge">
<title>Node0&#45;&gt;Node3</title>
<path fill="none" stroke="#191970" d="M633.9905,-296.9991C685.9174,-285.2754 751.7044,-269.9626 809.9858,-255 895.9377,-232.9336 919.224,-225.2915 1008.1575,-199.2132"/>
<polygon fill="#191970" stroke="#191970" points="1009.2388,-202.5437 1017.8518,-196.3739 1007.2711,-195.8259 1009.2388,-202.5437"/>
</g>
<!-- Node4 -->
<g id="node5" class="node">
<title>Node4</title>
<g id="a_node5"><a xlink:href="../../d2/df9/MUON_2MID_2include_2DataFormatsMID_2ROFRecord_8h.html" target="_top" xlink:title="Definition of the MID event record. ">
<polygon fill="none" stroke="#000000" points="774.4858,-179.5 774.4858,-198.5 937.4858,-198.5 937.4858,-179.5 774.4858,-179.5"/>
<text text-anchor="middle" x="855.9858" y="-186.5" font-family="Helvetica,sans-Serif" font-size="10.00" fill="#000000">DataFormatsMID/ROFRecord.h</text>
</a>
</g>
</g>
<!-- Node0&#45;&gt;Node4 -->
<g id="edge4" class="edge">
<title>Node0&#45;&gt;Node4</title>
<path fill="none" stroke="#191970" d="M609.7427,-291.4099C638.3578,-280.396 671.8667,-267.2959 701.9858,-255 744.7545,-237.54 793.7257,-216.343 824.7444,-202.7651"/>
<polygon fill="#191970" stroke="#191970" points="826.4015,-205.8602 834.154,-198.6388 823.5902,-199.4495 826.4015,-205.8602"/>
</g>
<!-- Node12 -->
<g id="node13" class="node">
<title>Node12</title>
<g id="a_node13"><a xlink:href="../../d7/dd3/CrateMasks_8h.html" target="_top" xlink:title="MID crate masks. ">
<polygon fill="none" stroke="#000000" points="50.4858,-235.5 50.4858,-254.5 175.4858,-254.5 175.4858,-235.5 50.4858,-235.5"/>
<text text-anchor="middle" x="112.9858" y="-242.5" font-family="Helvetica,sans-Serif" font-size="10.00" fill="#000000">MIDRaw/CrateMasks.h</text>
</a>
</g>
</g>
<!-- Node0&#45;&gt;Node12 -->
<g id="edge12" class="edge">
<title>Node0&#45;&gt;Node12</title>
<path fill="none" stroke="#191970" d="M447.8523,-301.7239C366.8726,-288.0065 251.536,-268.4694 179.5364,-256.2732"/>
<polygon fill="#191970" stroke="#191970" points="179.6814,-252.7479 169.2372,-254.5286 178.5122,-259.6496 179.6814,-252.7479"/>
</g>
<!-- Node14 -->
<g id="node15" class="node">
<title>Node14</title>
<g id="a_node15"><a xlink:href="../../d8/de7/ElectronicsDelay_8h.html" target="_top" xlink:title="Delay parameters for MID electronics. ">
<polygon fill="none" stroke="#000000" points="336.4858,-179.5 336.4858,-198.5 485.4858,-198.5 485.4858,-179.5 336.4858,-179.5"/>
<text text-anchor="middle" x="410.9858" y="-186.5" font-family="Helvetica,sans-Serif" font-size="10.00" fill="#000000">MIDRaw/ElectronicsDelay.h</text>
</a>
</g>
</g>
<!-- Node0&#45;&gt;Node14 -->
<g id="edge18" class="edge">
<title>Node0&#45;&gt;Node14</title>
<path fill="none" stroke="#191970" d="M514.6783,-291.4961C488.776,-265.8926 449.9849,-227.5491 427.926,-205.7448"/>
<polygon fill="#191970" stroke="#191970" points="430.1835,-203.0549 420.611,-198.5142 425.2625,-208.0333 430.1835,-203.0549"/>
</g>
<!-- Node16 -->
<g id="node17" class="node">
<title>Node16</title>
<g id="a_node17"><a xlink:href="../../d3/d4a/LocalBoardRO_8h.html" target="_top" xlink:title="Structure to store the FEE local board information. ">
<polygon fill="none" stroke="#000000" points="181.9858,-179.5 181.9858,-198.5 317.9858,-198.5 317.9858,-179.5 181.9858,-179.5"/>
<text text-anchor="middle" x="249.9858" y="-186.5" font-family="Helvetica,sans-Serif" font-size="10.00" fill="#000000">MIDRaw/LocalBoardRO.h</text>
</a>
</g>
</g>
<!-- Node0&#45;&gt;Node16 -->
<g id="edge21" class="edge">
<title>Node0&#45;&gt;Node16</title>
<path fill="none" stroke="#191970" d="M482.0976,-291.4961C421.1917,-264.6012 328.451,-223.6487 280.7286,-202.5754"/>
<polygon fill="#191970" stroke="#191970" points="282.0931,-199.352 271.5315,-198.5142 279.2654,-205.7555 282.0931,-199.352"/>
</g>
<!-- Node17 -->
<g id="node18" class="node">
<title>Node17</title>
<g id="a_node18"><a xlink:href="../../d1/dd7/GBTRawDataChecker_8h.html" target="_top" xlink:title="Class to check the raw data from a GBT link. ">
<polygon fill="none" stroke="#000000" points="527.4858,-235.5 527.4858,-254.5 692.4858,-254.5 692.4858,-235.5 527.4858,-235.5"/>
<text text-anchor="middle" x="609.9858" y="-242.5" font-family="Helvetica,sans-Serif" font-size="10.00" fill="#000000">MIDQC/GBTRawDataChecker.h</text>
</a>
</g>
</g>
<!-- Node0&#45;&gt;Node17 -->
<g id="edge25" class="edge">
<title>Node0&#45;&gt;Node17</title>
<path fill="none" stroke="#191970" d="M565.8964,-291.3258C575.2356,-281.5128 585.5933,-270.6298 593.9216,-261.879"/>
<polygon fill="#191970" stroke="#191970" points="596.5533,-264.1907 600.912,-254.534 591.4826,-259.3649 596.5533,-264.1907"/>
</g>
<!-- Node5 -->
<g id="node6" class="node">
<title>Node5</title>
<g id="a_node6"><a xlink:href="../../d9/d80/InteractionRecord_8h.html" target="_top" xlink:title="CommonDataFormat/Interaction\lRecord.h">
<polygon fill="none" stroke="#000000" points="770.9858,-112.5 770.9858,-142.5 944.9858,-142.5 944.9858,-112.5 770.9858,-112.5"/>
<text text-anchor="start" x="778.9858" y="-130.5" font-family="Helvetica,sans-Serif" font-size="10.00" fill="#000000">CommonDataFormat/Interaction</text>
<text text-anchor="middle" x="857.9858" y="-119.5" font-family="Helvetica,sans-Serif" font-size="10.00" fill="#000000">Record.h</text>
</a>
</g>
</g>
<!-- Node4&#45;&gt;Node5 -->
<g id="edge5" class="edge">
<title>Node4&#45;&gt;Node5</title>
<path fill="none" stroke="#191970" d="M856.2983,-179.3906C856.5314,-172.2234 856.861,-162.0862 857.1672,-152.671"/>
<polygon fill="#191970" stroke="#191970" points="860.6696,-152.6531 857.4965,-142.5446 853.6733,-152.4255 860.6696,-152.6531"/>
</g>
<!-- Node6 -->
<g id="node7" class="node">
<title>Node6</title>
<g id="a_node7"><a xlink:href="../../d2/d45/GPUCommonRtypes_8h.html" target="_top" xlink:title="GPUCommonRtypes.h">
<polygon fill="none" stroke="#000000" points="691.4858,-56.5 691.4858,-75.5 816.4858,-75.5 816.4858,-56.5 691.4858,-56.5"/>
<text text-anchor="middle" x="753.9858" y="-63.5" font-family="Helvetica,sans-Serif" font-size="10.00" fill="#000000">GPUCommonRtypes.h</text>
</a>
</g>
</g>
<!-- Node5&#45;&gt;Node6 -->
<g id="edge6" class="edge">
<title>Node5&#45;&gt;Node6</title>
<path fill="none" stroke="#191970" d="M832.5445,-112.4554C816.2574,-102.8241 795.2185,-90.3828 779.0128,-80.7996"/>
<polygon fill="#191970" stroke="#191970" points="780.4913,-77.6078 770.1021,-75.5303 776.9282,-83.6331 780.4913,-77.6078"/>
</g>
<!-- Node8 -->
<g id="node9" class="node">
<title>Node8</title>
<polygon fill="none" stroke="#bfbfbf" points="500.4858,-56.5 500.4858,-75.5 549.4858,-75.5 549.4858,-56.5 500.4858,-56.5"/>
<text text-anchor="middle" x="524.9858" y="-63.5" font-family="Helvetica,sans-Serif" font-size="10.00" fill="#000000">iosfwd</text>
</g>
<!-- Node5&#45;&gt;Node8 -->
<g id="edge8" class="edge">
<title>Node5&#45;&gt;Node8</title>
<path fill="none" stroke="#191970" d="M776.5248,-112.4554C706.992,-99.6138 610.4114,-81.7768 559.5278,-72.3794"/>
<polygon fill="#191970" stroke="#191970" points="560.155,-68.9361 549.6856,-70.5617 558.8837,-75.8197 560.155,-68.9361"/>
</g>
<!-- Node9 -->
<g id="node10" class="node">
<title>Node9</title>
<polygon fill="none" stroke="#bfbfbf" points="305.9858,-56.5 305.9858,-75.5 355.9858,-75.5 355.9858,-56.5 305.9858,-56.5"/>
<text text-anchor="middle" x="330.9858" y="-63.5" font-family="Helvetica,sans-Serif" font-size="10.00" fill="#000000">cstdint</text>
</g>
<!-- Node5&#45;&gt;Node9 -->
<g id="edge9" class="edge">
<title>Node5&#45;&gt;Node9</title>
<path fill="none" stroke="#191970" d="M770.9747,-113.8942C766.2457,-113.2336 761.5593,-112.5976 756.9858,-112 612.16,-93.0775 438.8976,-76.1219 366.0108,-69.247"/>
<polygon fill="#191970" stroke="#191970" points="366.2841,-65.7574 356.0006,-68.3068 365.6295,-72.7267 366.2841,-65.7574"/>
</g>
<!-- Node10 -->
<g id="node11" class="node">
<title>Node10</title>
<polygon fill="none" stroke="#bfbfbf" points="834.4858,-56.5 834.4858,-75.5 881.4858,-75.5 881.4858,-56.5 834.4858,-56.5"/>
<text text-anchor="middle" x="857.9858" y="-63.5" font-family="Helvetica,sans-Serif" font-size="10.00" fill="#000000">cmath</text>
</g>
<!-- Node5&#45;&gt;Node10 -->
<g id="edge10" class="edge">
<title>Node5&#45;&gt;Node10</title>
<path fill="none" stroke="#191970" d="M857.9858,-112.2977C857.9858,-104.3834 857.9858,-94.6043 857.9858,-86.0759"/>
<polygon fill="#191970" stroke="#191970" points="861.4859,-85.8469 857.9858,-75.8469 854.4859,-85.847 861.4859,-85.8469"/>
</g>
<!-- Node11 -->
<g id="node12" class="node">
<title>Node11</title>
<g id="a_node12"><a xlink:href="../../d4/dc6/LHCConstants_8h.html" target="_top" xlink:title="Header to collect LHC related constants. ">
<polygon fill="none" stroke="#000000" points="899.9858,-56.5 899.9858,-75.5 1089.9858,-75.5 1089.9858,-56.5 899.9858,-56.5"/>
<text text-anchor="middle" x="994.9858" y="-63.5" font-family="Helvetica,sans-Serif" font-size="10.00" fill="#000000">CommonConstants/LHCConstants.h</text>
</a>
</g>
</g>
<!-- Node5&#45;&gt;Node11 -->
<g id="edge11" class="edge">
<title>Node5&#45;&gt;Node11</title>
<path fill="none" stroke="#191970" d="M891.4998,-112.4554C913.757,-102.464 942.7505,-89.4487 964.3843,-79.7372"/>
<polygon fill="#191970" stroke="#191970" points="966.0661,-82.8187 973.7556,-75.5303 963.1993,-76.4327 966.0661,-82.8187"/>
</g>
<!-- Node7 -->
<g id="node8" class="node">
<title>Node7</title>
<polygon fill="none" stroke="#bfbfbf" points="724.4858,-.5 724.4858,-19.5 783.4858,-19.5 783.4858,-.5 724.4858,-.5"/>
<text text-anchor="middle" x="753.9858" y="-7.5" font-family="Helvetica,sans-Serif" font-size="10.00" fill="#000000">Rtypes.h</text>
</g>
<!-- Node6&#45;&gt;Node7 -->
<g id="edge7" class="edge">
<title>Node6&#45;&gt;Node7</title>
<path fill="none" stroke="#191970" d="M753.9858,-56.2455C753.9858,-48.9382 753.9858,-38.6944 753.9858,-29.7046"/>
<polygon fill="#191970" stroke="#191970" points="757.4859,-29.6426 753.9858,-19.6427 750.4859,-29.6427 757.4859,-29.6426"/>
</g>
<!-- Node12&#45;&gt;Node1 -->
<g id="edge14" class="edge">
<title>Node12&#45;&gt;Node1</title>
<path fill="none" stroke="#191970" d="M64.0157,-235.4436C43.6981,-228.8037 22.0814,-217.649 9.9858,-199 -.5482,-182.7587 7.9073,-160.858 16.6436,-145.5913"/>
<polygon fill="#191970" stroke="#191970" points="19.6445,-147.3934 21.9522,-137.0529 13.6998,-143.6973 19.6445,-147.3934"/>
</g>
<!-- Node12&#45;&gt;Node9 -->
<g id="edge13" class="edge">
<title>Node12&#45;&gt;Node9</title>
<path fill="none" stroke="#191970" d="M121.0454,-235.1199C132.1328,-221.7741 152.996,-197.5261 172.9858,-179 215.9847,-139.1495 273.4435,-101.3138 305.896,-81.1326"/>
<polygon fill="#191970" stroke="#191970" points="308.0582,-83.9116 314.7375,-75.6873 304.3873,-77.9513 308.0582,-83.9116"/>
</g>
<!-- Node13 -->
<g id="node14" class="node">
<title>Node13</title>
<g id="a_node14"><a xlink:href="../../d2/da5/CrateParameters_8h.html" target="_top" xlink:title="MID RO crate parameters. ">
<polygon fill="none" stroke="#000000" points="18.4858,-179.5 18.4858,-198.5 125.4858,-198.5 125.4858,-179.5 18.4858,-179.5"/>
<text text-anchor="middle" x="71.9858" y="-186.5" font-family="Helvetica,sans-Serif" font-size="10.00" fill="#000000">CrateParameters.h</text>
</a>
</g>
</g>
<!-- Node12&#45;&gt;Node13 -->
<g id="edge15" class="edge">
<title>Node12&#45;&gt;Node13</title>
<path fill="none" stroke="#191970" d="M105.8441,-235.2455C100.1414,-227.4564 91.9958,-216.3308 85.1233,-206.9439"/>
<polygon fill="#191970" stroke="#191970" points="87.7771,-204.6437 79.0456,-198.6427 82.129,-208.7789 87.7771,-204.6437"/>
</g>
<!-- Node13&#45;&gt;Node1 -->
<g id="edge17" class="edge">
<title>Node13&#45;&gt;Node1</title>
<path fill="none" stroke="#191970" d="M65.267,-179.3906C58.9928,-170.417 49.4635,-156.7879 41.7453,-145.7491"/>
<polygon fill="#191970" stroke="#191970" points="44.3979,-143.4348 35.7993,-137.2449 38.661,-147.4459 44.3979,-143.4348"/>
</g>
<!-- Node13&#45;&gt;Node9 -->
<g id="edge16" class="edge">
<title>Node13&#45;&gt;Node9</title>
<path fill="none" stroke="#191970" d="M77.75,-179.2478C88.0522,-162.713 111.2596,-129.2921 139.9858,-112 188.941,-82.5307 255.6191,-71.9318 295.8586,-68.1256"/>
<polygon fill="#191970" stroke="#191970" points="296.3163,-71.5994 305.9814,-67.2594 295.7193,-64.6249 296.3163,-71.5994"/>
</g>
<!-- Node14&#45;&gt;Node9 -->
<g id="edge19" class="edge">
<title>Node14&#45;&gt;Node9</title>
<path fill="none" stroke="#191970" d="M410.6337,-179.1716C409.6503,-163.6729 405.9398,-133.1459 391.9858,-112 383.6027,-99.2963 370.4787,-88.7389 358.5484,-80.9561"/>
<polygon fill="#191970" stroke="#191970" points="360.109,-77.8072 349.7561,-75.5558 356.4453,-83.772 360.109,-77.8072"/>
</g>
<!-- Node15 -->
<g id="node16" class="node">
<title>Node15</title>
<polygon fill="none" stroke="#bfbfbf" points="322.9858,-118 322.9858,-137 382.9858,-137 382.9858,-118 322.9858,-118"/>
<text text-anchor="middle" x="352.9858" y="-125" font-family="Helvetica,sans-Serif" font-size="10.00" fill="#000000">iostream</text>
</g>
<!-- Node14&#45;&gt;Node15 -->
<g id="edge20" class="edge">
<title>Node14&#45;&gt;Node15</title>
<path fill="none" stroke="#191970" d="M401.9233,-179.3906C393.2065,-170.1478 379.8318,-155.966 369.2662,-144.7628"/>
<polygon fill="#191970" stroke="#191970" points="371.5834,-142.1186 362.1761,-137.2449 366.4908,-146.9213 371.5834,-142.1186"/>
</g>
<!-- Node16&#45;&gt;Node1 -->
<g id="edge23" class="edge">
<title>Node16&#45;&gt;Node1</title>
<path fill="none" stroke="#191970" d="M215.4545,-179.3906C172.8151,-167.5249 100.9247,-147.5192 59.9822,-136.1257"/>
<polygon fill="#191970" stroke="#191970" points="60.8488,-132.7339 50.2765,-133.4248 58.9721,-139.4777 60.8488,-132.7339"/>
</g>
<!-- Node16&#45;&gt;Node8 -->
<g id="edge24" class="edge">
<title>Node16&#45;&gt;Node8</title>
<path fill="none" stroke="#191970" d="M255.073,-179.4436C264.4055,-162.8993 285.9088,-129.0598 313.9858,-112 343.2876,-94.196 438.4228,-78.352 490.3652,-70.7551"/>
<polygon fill="#191970" stroke="#191970" points="491.0502,-74.1927 500.45,-69.3045 490.0535,-67.264 491.0502,-74.1927"/>
</g>
<!-- Node16&#45;&gt;Node9 -->
<g id="edge22" class="edge">
<title>Node16&#45;&gt;Node9</title>
<path fill="none" stroke="#191970" d="M252.0381,-179.2896C255.6152,-163.9525 264.0718,-133.6429 278.9858,-112 286.8936,-100.5243 298.266,-90.031 308.3601,-81.9736"/>
<polygon fill="#191970" stroke="#191970" points="310.6092,-84.66 316.4345,-75.8103 306.3619,-79.0958 310.6092,-84.66"/>
</g>
<!-- Node17&#45;&gt;Node2 -->
<g id="edge28" class="edge">
<title>Node17&#45;&gt;Node2</title>
<path fill="none" stroke="#191970" d="M692.7758,-237.8106C759.0314,-231.1123 854.3559,-219.3615 945.788,-198.9519"/>
<polygon fill="#191970" stroke="#191970" points="946.7888,-202.3138 955.7655,-196.6863 945.2387,-195.4876 946.7888,-202.3138"/>
</g>
<!-- Node17&#45;&gt;Node3 -->
<g id="edge31" class="edge">
<title>Node17&#45;&gt;Node3</title>
<path fill="none" stroke="#191970" d="M692.8216,-239.8035C771.7051,-233.8647 893.7852,-222.1006 1007.9988,-198.8832"/>
<polygon fill="#191970" stroke="#191970" points="1008.8793,-202.2752 1017.964,-196.8238 1007.4625,-195.4201 1008.8793,-202.2752"/>
</g>
<!-- Node17&#45;&gt;Node4 -->
<g id="edge32" class="edge">
<title>Node17&#45;&gt;Node4</title>
<path fill="none" stroke="#191970" d="M651.9952,-235.4369C694.0962,-225.8529 758.9863,-211.0812 804.2378,-200.78"/>
<polygon fill="#191970" stroke="#191970" points="805.176,-204.1561 814.1497,-198.5237 803.6222,-197.3307 805.176,-204.1561"/>
</g>
<!-- Node17&#45;&gt;Node9 -->
<g id="edge26" class="edge">
<title>Node17&#45;&gt;Node9</title>
<path fill="none" stroke="#191970" d="M661.6058,-235.4742C702.1874,-225.6122 748.5482,-207.5761 726.9858,-179 682.76,-120.3888 454.5748,-83.0858 366.0988,-70.6293"/>
<polygon fill="#191970" stroke="#191970" points="366.409,-67.139 356.0234,-69.2337 365.4485,-74.0728 366.409,-67.139"/>
</g>
<!-- Node17&#45;&gt;Node14 -->
<g id="edge33" class="edge">
<title>Node17&#45;&gt;Node14</title>
<path fill="none" stroke="#191970" d="M575.7765,-235.3733C542.256,-225.9404 491.0353,-211.5265 454.6048,-201.2747"/>
<polygon fill="#191970" stroke="#191970" points="455.3229,-197.8409 444.7487,-198.5011 453.4267,-204.5792 455.3229,-197.8409"/>
</g>
<!-- Node17&#45;&gt;Node16 -->
<g id="edge34" class="edge">
<title>Node17&#45;&gt;Node16</title>
<path fill="none" stroke="#191970" d="M548.5086,-235.4369C485.4736,-225.6314 387.5295,-210.3957 321.1703,-200.0731"/>
<polygon fill="#191970" stroke="#191970" points="321.6286,-196.6024 311.2094,-198.5237 320.5525,-203.5192 321.6286,-196.6024"/>
</g>
<!-- Node18 -->
<g id="node19" class="node">
<title>Node18</title>
<polygon fill="none" stroke="#bfbfbf" points="502.9858,-179.5 502.9858,-198.5 540.9858,-198.5 540.9858,-179.5 502.9858,-179.5"/>
<text text-anchor="middle" x="521.9858" y="-186.5" font-family="Helvetica,sans-Serif" font-size="10.00" fill="#000000">map</text>
</g>
<!-- Node17&#45;&gt;Node18 -->
<g id="edge27" class="edge">
<title>Node17&#45;&gt;Node18</title>
<path fill="none" stroke="#191970" d="M594.6574,-235.2455C581.1554,-226.6534 561.2736,-214.0014 545.7172,-204.1018"/>
<polygon fill="#191970" stroke="#191970" points="547.4543,-201.0587 537.1386,-198.6427 543.6961,-206.9643 547.4543,-201.0587"/>
</g>
<!-- Node19 -->
<g id="node20" class="node">
<title>Node19</title>
<polygon fill="none" stroke="#bfbfbf" points="559.4858,-179.5 559.4858,-198.5 606.4858,-198.5 606.4858,-179.5 559.4858,-179.5"/>
<text text-anchor="middle" x="582.9858" y="-186.5" font-family="Helvetica,sans-Serif" font-size="10.00" fill="#000000">vector</text>
</g>
<!-- Node17&#45;&gt;Node19 -->
<g id="edge29" class="edge">
<title>Node17&#45;&gt;Node19</title>
<path fill="none" stroke="#191970" d="M605.2827,-235.2455C601.6434,-227.6973 596.4934,-217.0158 592.0596,-207.8197"/>
<polygon fill="#191970" stroke="#191970" points="595.1307,-206.1303 587.6349,-198.6427 588.8253,-209.1704 595.1307,-206.1303"/>
</g>
<!-- Node20 -->
<g id="node21" class="node">
<title>Node20</title>
<polygon fill="none" stroke="#bfbfbf" points="624.4858,-179.5 624.4858,-198.5 717.4858,-198.5 717.4858,-179.5 624.4858,-179.5"/>
<text text-anchor="middle" x="670.9858" y="-186.5" font-family="Helvetica,sans-Serif" font-size="10.00" fill="#000000">unordered_map</text>
</g>
<!-- Node17&#45;&gt;Node20 -->
<g id="edge30" class="edge">
<title>Node17&#45;&gt;Node20</title>
<path fill="none" stroke="#191970" d="M620.6112,-235.2455C629.5331,-227.0549 642.4738,-215.1749 653.005,-205.5069"/>
<polygon fill="#191970" stroke="#191970" points="655.4826,-207.9837 660.4822,-198.6427 650.7486,-202.8271 655.4826,-207.9837"/>
</g>
</g>
</svg>
