<?xml version="1.0" encoding="UTF-8" standalone="no"?>
<!DOCTYPE svg PUBLIC "-//W3C//DTD SVG 1.1//EN"
 "http://www.w3.org/Graphics/SVG/1.1/DTD/svg11.dtd">
<!-- Generated by graphviz version 2.40.1 (20161225.0304)
 -->
<!-- Title: /home/travis/build/AliceO2Group/AliceO2/Detectors/EMCAL/base/src/ShishKebabTrd1Module.cxx Pages: 1 -->
<!--zoomable 363 -->
<svg id="main" version="1.1" xmlns="http://www.w3.org/2000/svg" xmlns:xlink="http://www.w3.org/1999/xlink" xml:space="preserve" onload="init(evt)">
<style type="text/css"><![CDATA[
.edge:hover path { stroke: red; }
.edge:hover polygon { stroke: red; fill: red; }
]]></style>
<script type="text/javascript"><![CDATA[
var edges = document.getElementsByTagName('g');
if (edges && edges.length) {
  for (var i=0;i<edges.length;i++) {
    if (edges[i].id.substr(0,4)=='edge') {
      edges[i].setAttribute('class','edge');
    }
  }
}
]]></script>
        <defs>
                <circle id="rim" cx="0" cy="0" r="7"/>
                <circle id="rim2" cx="0" cy="0" r="3.5"/>
                <g id="zoomPlus">
                        <use xlink:href="#rim" fill="#404040">
                                <set attributeName="fill" to="#808080" begin="zoomplus.mouseover" end="zoomplus.mouseout"/>
                        </use>
                        <path d="M-4,0h8M0,-4v8" fill="none" stroke="white" stroke-width="1.5" pointer-events="none"/>
                </g>
                <g id="zoomMin">
                        <use xlink:href="#rim" fill="#404040">
                                <set attributeName="fill" to="#808080" begin="zoomminus.mouseover" end="zoomminus.mouseout"/>
                        </use>
                        <path d="M-4,0h8" fill="none" stroke="white" stroke-width="1.5" pointer-events="none"/>
                </g>
                <g id="dirArrow">
                        <path fill="none" stroke="white" stroke-width="1.5" d="M0,-3.0v7 M-2.5,-0.5L0,-3.0L2.5,-0.5"/>
                </g>
               <g id="resetDef">
                       <use xlink:href="#rim2" fill="#404040">
                               <set attributeName="fill" to="#808080" begin="reset.mouseover" end="reset.mouseout"/>
                       </use>
               </g>
        </defs>

<script type="text/javascript">
var viewWidth = 2657;
var viewHeight = 363;
var sectionId = 'dynsection-0';
</script>
<script xlink:href="../../svgpan.js"/>
<svg id="graph" class="graph">
<g id="viewport">
<title>/home/travis/build/AliceO2Group/AliceO2/Detectors/EMCAL/base/src/ShishKebabTrd1Module.cxx</title>
<!-- Node0 -->
<g id="node1" class="node">
<title>Node0</title>
<polygon fill="#bfbfbf" stroke="#000000" points="384.5,-302.5 384.5,-354.5 553.5,-354.5 553.5,-302.5 384.5,-302.5"/>
<text text-anchor="start" x="392.5" y="-342.5" font-family="Helvetica,sans-Serif" font-size="10.00" fill="#000000">/home/travis/build</text>
<text text-anchor="start" x="392.5" y="-331.5" font-family="Helvetica,sans-Serif" font-size="10.00" fill="#000000">/AliceO2Group/AliceO2</text>
<text text-anchor="start" x="392.5" y="-320.5" font-family="Helvetica,sans-Serif" font-size="10.00" fill="#000000">/Detectors/EMCAL/base</text>
<text text-anchor="middle" x="469" y="-309.5" font-family="Helvetica,sans-Serif" font-size="10.00" fill="#000000">/src/ShishKebabTrd1Module.cxx</text>
</g>
<!-- Node1 -->
<g id="node2" class="node">
<title>Node1</title>
<polygon fill="none" stroke="#bfbfbf" points="342,-241 342,-260 394,-260 394,-241 342,-241"/>
<text text-anchor="middle" x="368" y="-248" font-family="Helvetica,sans-Serif" font-size="10.00" fill="#000000">cassert</text>
</g>
<!-- Node0&#45;&gt;Node1 -->
<g id="edge1" class="edge">
<title>Node0&#45;&gt;Node1</title>
<path fill="none" stroke="#191970" d="M435.0875,-302.3101C419.6681,-290.4021 401.9278,-276.7017 388.5641,-266.3812"/>
<polygon fill="#191970" stroke="#191970" points="390.5366,-263.4823 380.4827,-260.1401 386.258,-269.0225 390.5366,-263.4823"/>
</g>
<!-- Node2 -->
<g id="node3" class="node">
<title>Node2</title>
<polygon fill="none" stroke="#bfbfbf" points="0,-179.5 0,-198.5 84,-198.5 84,-179.5 0,-179.5"/>
<text text-anchor="middle" x="42" y="-186.5" font-family="Helvetica,sans-Serif" font-size="10.00" fill="#000000">RStringView.h</text>
</g>
<!-- Node0&#45;&gt;Node2 -->
<g id="edge2" class="edge">
<title>Node0&#45;&gt;Node2</title>
<path fill="none" stroke="#191970" d="M457.987,-302.4508C447.2965,-280.6089 428.8817,-250.5649 403,-235 402.1768,-234.5049 193.9784,-208.1786 94.1764,-195.5812"/>
<polygon fill="#191970" stroke="#191970" points="94.3615,-192.0769 84.0019,-194.2971 93.4849,-199.0218 94.3615,-192.0769"/>
</g>
<!-- Node3 -->
<g id="node4" class="node">
<title>Node3</title>
<g id="a_node4"><a xlink:href="../../dd/da8/EMCAL_2base_2include_2EMCALBase_2Geometry_8h.html" target="_top" xlink:title="EMCALBase/Geometry.h">
<polygon fill="none" stroke="#000000" points="450.5,-241 450.5,-260 583.5,-260 583.5,-241 450.5,-241"/>
<text text-anchor="middle" x="517" y="-248" font-family="Helvetica,sans-Serif" font-size="10.00" fill="#000000">EMCALBase/Geometry.h</text>
</a>
</g>
</g>
<!-- Node0&#45;&gt;Node3 -->
<g id="edge3" class="edge">
<title>Node0&#45;&gt;Node3</title>
<path fill="none" stroke="#191970" d="M485.2506,-302.0928C492.0109,-291.1073 499.6902,-278.6285 505.8028,-268.6954"/>
<polygon fill="#191970" stroke="#191970" points="508.842,-270.4348 511.1022,-260.0839 502.8804,-266.7661 508.842,-270.4348"/>
</g>
<!-- Node30 -->
<g id="node31" class="node">
<title>Node30</title>
<g id="a_node31"><a xlink:href="../../d8/d00/ShishKebabTrd1Module_8h.html" target="_top" xlink:title="EMCALBase/ShishKebabTrd1\lModule.h">
<polygon fill="none" stroke="#000000" points="1540.5,-235.5 1540.5,-265.5 1693.5,-265.5 1693.5,-235.5 1540.5,-235.5"/>
<text text-anchor="start" x="1548.5" y="-253.5" font-family="Helvetica,sans-Serif" font-size="10.00" fill="#000000">EMCALBase/ShishKebabTrd1</text>
<text text-anchor="middle" x="1617" y="-242.5" font-family="Helvetica,sans-Serif" font-size="10.00" fill="#000000">Module.h</text>
</a>
</g>
</g>
<!-- Node0&#45;&gt;Node30 -->
<g id="edge37" class="edge">
<title>Node0&#45;&gt;Node30</title>
<path fill="none" stroke="#191970" d="M553.8814,-322.7328C765.6817,-308.3422 1315.7932,-270.9653 1529.9171,-256.4168"/>
<polygon fill="#191970" stroke="#191970" points="1530.4243,-259.8905 1540.164,-255.7206 1529.9497,-252.9066 1530.4243,-259.8905"/>
</g>
<!-- Node3&#45;&gt;Node2 -->
<g id="edge8" class="edge">
<title>Node3&#45;&gt;Node2</title>
<path fill="none" stroke="#191970" d="M470.8516,-240.9834C459.4884,-238.8297 447.3296,-236.6844 436,-235 286.5705,-212.7841 247.564,-220.2918 98,-199 96.735,-198.8199 95.4549,-198.6325 94.1644,-198.439"/>
<polygon fill="#191970" stroke="#191970" points="94.5699,-194.9597 84.146,-196.8549 93.4766,-201.8738 94.5699,-194.9597"/>
</g>
<!-- Node4 -->
<g id="node5" class="node">
<title>Node4</title>
<polygon fill="none" stroke="#bfbfbf" points="553.5,-118 553.5,-137 618.5,-137 618.5,-118 553.5,-118"/>
<text text-anchor="middle" x="586" y="-125" font-family="Helvetica,sans-Serif" font-size="10.00" fill="#000000">exception</text>
</g>
<!-- Node3&#45;&gt;Node4 -->
<g id="edge4" class="edge">
<title>Node3&#45;&gt;Node4</title>
<path fill="none" stroke="#191970" d="M547.8517,-240.9073C567.441,-233.0331 591.2442,-219.7423 603,-199 612.2894,-182.6096 605.2073,-161.3401 597.549,-146.2726"/>
<polygon fill="#191970" stroke="#191970" points="600.5211,-144.4157 592.5994,-137.3803 594.4048,-147.8202 600.5211,-144.4157"/>
</g>
<!-- Node5 -->
<g id="node6" class="node">
<title>Node5</title>
<polygon fill="none" stroke="#bfbfbf" points="144,-118 144,-137 188,-137 188,-118 144,-118"/>
<text text-anchor="middle" x="166" y="-125" font-family="Helvetica,sans-Serif" font-size="10.00" fill="#000000">string</text>
</g>
<!-- Node3&#45;&gt;Node5 -->
<g id="edge5" class="edge">
<title>Node3&#45;&gt;Node5</title>
<path fill="none" stroke="#191970" d="M470.4113,-240.9939C459.1712,-238.8641 447.1783,-236.727 436,-235 368.5519,-224.5798 176.3423,-250.0089 131,-199 116.6911,-182.9028 132.7723,-159.9086 147.5469,-144.3792"/>
<polygon fill="#191970" stroke="#191970" points="150.3417,-146.5375 154.9861,-137.0148 145.417,-141.5627 150.3417,-146.5375"/>
</g>
<!-- Node6 -->
<g id="node7" class="node">
<title>Node6</title>
<polygon fill="none" stroke="#bfbfbf" points="315.5,-179.5 315.5,-198.5 356.5,-198.5 356.5,-179.5 315.5,-179.5"/>
<text text-anchor="middle" x="336" y="-186.5" font-family="Helvetica,sans-Serif" font-size="10.00" fill="#000000">tuple</text>
</g>
<!-- Node3&#45;&gt;Node6 -->
<g id="edge6" class="edge">
<title>Node3&#45;&gt;Node6</title>
<path fill="none" stroke="#191970" d="M488.6902,-240.9589C460.0608,-231.299 414.2859,-215.8238 366.228,-199.4094"/>
<polygon fill="#191970" stroke="#191970" points="367.1849,-196.0377 356.5904,-196.1154 364.921,-202.6615 367.1849,-196.0377"/>
</g>
<!-- Node7 -->
<g id="node8" class="node">
<title>Node7</title>
<polygon fill="none" stroke="#bfbfbf" points="374.5,-179.5 374.5,-198.5 421.5,-198.5 421.5,-179.5 374.5,-179.5"/>
<text text-anchor="middle" x="398" y="-186.5" font-family="Helvetica,sans-Serif" font-size="10.00" fill="#000000">vector</text>
</g>
<!-- Node3&#45;&gt;Node7 -->
<g id="edge7" class="edge">
<title>Node3&#45;&gt;Node7</title>
<path fill="none" stroke="#191970" d="M498.4063,-240.8906C478.8447,-230.7811 447.8499,-214.7628 425.4691,-203.1962"/>
<polygon fill="#191970" stroke="#191970" points="426.9539,-200.0238 416.4632,-198.5419 423.74,-206.2425 426.9539,-200.0238"/>
</g>
<!-- Node8 -->
<g id="node9" class="node">
<title>Node8</title>
<polygon fill="none" stroke="#bfbfbf" points="811,-118 811,-137 893,-137 893,-118 811,-118"/>
<text text-anchor="middle" x="852" y="-125" font-family="Helvetica,sans-Serif" font-size="10.00" fill="#000000">TGeoMatrix.h</text>
</g>
<!-- Node3&#45;&gt;Node8 -->
<g id="edge9" class="edge">
<title>Node3&#45;&gt;Node8</title>
<path fill="none" stroke="#191970" d="M583.6018,-247.8505C664.9857,-243.2475 796.2834,-230.9668 832,-199 846.515,-186.0089 850.8625,-163.4388 851.9885,-147.1265"/>
<polygon fill="#191970" stroke="#191970" points="855.49,-147.1431 852.3388,-137.0278 848.4942,-146.9004 855.49,-147.1431"/>
</g>
<!-- Node9 -->
<g id="node10" class="node">
<title>Node9</title>
<polygon fill="none" stroke="#bfbfbf" points="1411.5,-179.5 1411.5,-198.5 1478.5,-198.5 1478.5,-179.5 1411.5,-179.5"/>
<text text-anchor="middle" x="1445" y="-186.5" font-family="Helvetica,sans-Serif" font-size="10.00" fill="#000000">TNamed.h</text>
</g>
<!-- Node3&#45;&gt;Node9 -->
<g id="edge10" class="edge">
<title>Node3&#45;&gt;Node9</title>
<path fill="none" stroke="#191970" d="M583.5623,-248.0986C757.7961,-241.582 1225.3124,-222.5546 1401.1459,-198.8319"/>
<polygon fill="#191970" stroke="#191970" points="1401.8845,-202.2627 1411.302,-197.4087 1400.913,-195.3304 1401.8845,-202.2627"/>
</g>
<!-- Node10 -->
<g id="node11" class="node">
<title>Node10</title>
<polygon fill="none" stroke="#bfbfbf" points="440,-179.5 440,-198.5 508,-198.5 508,-179.5 440,-179.5"/>
<text text-anchor="middle" x="474" y="-186.5" font-family="Helvetica,sans-Serif" font-size="10.00" fill="#000000">TParticle.h</text>
</g>
<!-- Node3&#45;&gt;Node10 -->
<g id="edge11" class="edge">
<title>Node3&#45;&gt;Node10</title>
<path fill="none" stroke="#191970" d="M510.2813,-240.8906C504.007,-231.917 494.4777,-218.2879 486.7596,-207.2491"/>
<polygon fill="#191970" stroke="#191970" points="489.4121,-204.9348 480.8135,-198.7449 483.6753,-208.9459 489.4121,-204.9348"/>
</g>
<!-- Node11 -->
<g id="node12" class="node">
<title>Node11</title>
<polygon fill="none" stroke="#bfbfbf" points="526,-179.5 526,-198.5 594,-198.5 594,-179.5 526,-179.5"/>
<text text-anchor="middle" x="560" y="-186.5" font-family="Helvetica,sans-Serif" font-size="10.00" fill="#000000">TVector3.h</text>
</g>
<!-- Node3&#45;&gt;Node11 -->
<g id="edge12" class="edge">
<title>Node3&#45;&gt;Node11</title>
<path fill="none" stroke="#191970" d="M523.7188,-240.8906C529.993,-231.917 539.5223,-218.2879 547.2404,-207.2491"/>
<polygon fill="#191970" stroke="#191970" points="550.3247,-208.9459 553.1865,-198.7449 544.5879,-204.9348 550.3247,-208.9459"/>
</g>
<!-- Node12 -->
<g id="node13" class="node">
<title>Node12</title>
<g id="a_node13"><a xlink:href="../../dd/dda/DataFormats_2Detectors_2EMCAL_2include_2DataFormatsEMCAL_2Constants_8h.html" target="_top" xlink:title="DataFormatsEMCAL/Constants.h">
<polygon fill="none" stroke="#000000" points="650.5,-179.5 650.5,-198.5 823.5,-198.5 823.5,-179.5 650.5,-179.5"/>
<text text-anchor="middle" x="737" y="-186.5" font-family="Helvetica,sans-Serif" font-size="10.00" fill="#000000">DataFormatsEMCAL/Constants.h</text>
</a>
</g>
</g>
<!-- Node3&#45;&gt;Node12 -->
<g id="edge13" class="edge">
<title>Node3&#45;&gt;Node12</title>
<path fill="none" stroke="#191970" d="M551.375,-240.8906C589.5573,-230.2169 651.3016,-212.9566 692.9884,-201.3033"/>
<polygon fill="#191970" stroke="#191970" points="694.1779,-204.605 702.8664,-198.5419 692.2933,-197.8634 694.1779,-204.605"/>
</g>
<!-- Node16 -->
<g id="node17" class="node">
<title>Node16</title>
<g id="a_node17"><a xlink:href="../../db/dcf/EMCAL_2base_2include_2EMCALBase_2GeometryBase_8h.html" target="_top" xlink:title="EMCALBase/GeometryBase.h">
<polygon fill="none" stroke="#000000" points="140,-179.5 140,-198.5 298,-198.5 298,-179.5 140,-179.5"/>
<text text-anchor="middle" x="219" y="-186.5" font-family="Helvetica,sans-Serif" font-size="10.00" fill="#000000">EMCALBase/GeometryBase.h</text>
</a>
</g>
</g>
<!-- Node3&#45;&gt;Node16 -->
<g id="edge18" class="edge">
<title>Node3&#45;&gt;Node16</title>
<path fill="none" stroke="#191970" d="M470.7645,-240.9581C418.0205,-230.073 331.7801,-212.2751 275.2008,-200.5985"/>
<polygon fill="#191970" stroke="#191970" points="275.8451,-197.1578 265.344,-198.5643 274.4302,-204.0133 275.8451,-197.1578"/>
</g>
<!-- Node17 -->
<g id="node18" class="node">
<title>Node17</title>
<g id="a_node18"><a xlink:href="../../dc/d73/Cartesian_8h.html" target="_top" xlink:title="MathUtils/Cartesian.h">
<polygon fill="none" stroke="#000000" points="1271,-179.5 1271,-198.5 1393,-198.5 1393,-179.5 1271,-179.5"/>
<text text-anchor="middle" x="1332" y="-186.5" font-family="Helvetica,sans-Serif" font-size="10.00" fill="#000000">MathUtils/Cartesian.h</text>
</a>
</g>
</g>
<!-- Node3&#45;&gt;Node17 -->
<g id="edge20" class="edge">
<title>Node3&#45;&gt;Node17</title>
<path fill="none" stroke="#191970" d="M583.6949,-245.4672C735.2265,-234.0326 1104.3421,-206.1791 1260.4264,-194.4009"/>
<polygon fill="#191970" stroke="#191970" points="1261.1346,-197.8576 1270.8429,-193.6149 1260.6078,-190.8774 1261.1346,-197.8576"/>
</g>
<!-- Node12&#45;&gt;Node4 -->
<g id="edge16" class="edge">
<title>Node12&#45;&gt;Node4</title>
<path fill="none" stroke="#191970" d="M713.4063,-179.3906C688.0304,-169.0554 647.4919,-152.5447 618.9707,-140.9284"/>
<polygon fill="#191970" stroke="#191970" points="620.0096,-137.5725 609.4281,-137.0419 617.3692,-144.0554 620.0096,-137.5725"/>
</g>
<!-- Node13 -->
<g id="node14" class="node">
<title>Node13</title>
<polygon fill="none" stroke="#bfbfbf" points="815.5,-56.5 815.5,-75.5 874.5,-75.5 874.5,-56.5 815.5,-56.5"/>
<text text-anchor="middle" x="845" y="-63.5" font-family="Helvetica,sans-Serif" font-size="10.00" fill="#000000">Rtypes.h</text>
</g>
<!-- Node12&#45;&gt;Node13 -->
<g id="edge14" class="edge">
<title>Node12&#45;&gt;Node13</title>
<path fill="none" stroke="#191970" d="M733.1766,-179.0109C727.8581,-163.2919 720.3259,-132.4685 734,-112 749.837,-88.2939 780.4008,-76.789 805.4534,-71.2142"/>
<polygon fill="#191970" stroke="#191970" points="806.3147,-74.6116 815.4417,-69.2312 804.9515,-67.7456 806.3147,-74.6116"/>
</g>
<!-- Node14 -->
<g id="node15" class="node">
<title>Node14</title>
<polygon fill="none" stroke="#bfbfbf" points="743.5,-118 743.5,-137 792.5,-137 792.5,-118 743.5,-118"/>
<text text-anchor="middle" x="768" y="-125" font-family="Helvetica,sans-Serif" font-size="10.00" fill="#000000">iosfwd</text>
</g>
<!-- Node12&#45;&gt;Node14 -->
<g id="edge15" class="edge">
<title>Node12&#45;&gt;Node14</title>
<path fill="none" stroke="#191970" d="M741.8438,-179.3906C746.2766,-170.5965 752.9631,-157.3312 758.4659,-146.4145"/>
<polygon fill="#191970" stroke="#191970" points="761.7122,-147.75 763.088,-137.2449 755.4614,-144.5992 761.7122,-147.75"/>
</g>
<!-- Node15 -->
<g id="node16" class="node">
<title>Node15</title>
<polygon fill="none" stroke="#bfbfbf" points="637,-118 637,-137 687,-137 687,-118 637,-118"/>
<text text-anchor="middle" x="662" y="-125" font-family="Helvetica,sans-Serif" font-size="10.00" fill="#000000">cstdint</text>
</g>
<!-- Node12&#45;&gt;Node15 -->
<g id="edge17" class="edge">
<title>Node12&#45;&gt;Node15</title>
<path fill="none" stroke="#191970" d="M725.2813,-179.3906C713.6812,-169.8786 695.7021,-155.1357 681.8679,-143.7917"/>
<polygon fill="#191970" stroke="#191970" points="683.836,-140.8792 673.884,-137.2449 679.3974,-146.2921 683.836,-140.8792"/>
</g>
<!-- Node16&#45;&gt;Node5 -->
<g id="edge19" class="edge">
<title>Node16&#45;&gt;Node5</title>
<path fill="none" stroke="#191970" d="M210.7188,-179.3906C202.8307,-170.2376 190.7686,-156.2409 181.1588,-145.09"/>
<polygon fill="#191970" stroke="#191970" points="183.5775,-142.5352 174.398,-137.2449 178.2749,-147.1049 183.5775,-142.5352"/>
</g>
<!-- Node17&#45;&gt;Node8 -->
<g id="edge33" class="edge">
<title>Node17&#45;&gt;Node8</title>
<path fill="none" stroke="#191970" d="M1270.8962,-186.1982C1187.0024,-181.5065 1031.7772,-169.7923 902,-143 897.8446,-142.1421 893.5419,-141.0816 889.2838,-139.921"/>
<polygon fill="#191970" stroke="#191970" points="890.0992,-136.5131 879.5195,-137.0791 888.143,-143.2342 890.0992,-136.5131"/>
</g>
<!-- Node17&#45;&gt;Node14 -->
<g id="edge34" class="edge">
<title>Node17&#45;&gt;Node14</title>
<path fill="none" stroke="#191970" d="M1270.8982,-186.3104C1151.0179,-180.6045 889.0897,-165.9027 802,-143 799.8081,-142.4236 797.5811,-141.7158 795.3696,-140.9232"/>
<polygon fill="#191970" stroke="#191970" points="796.5091,-137.6077 785.9289,-137.0504 793.8523,-144.0839 796.5091,-137.6077"/>
</g>
<!-- Node18 -->
<g id="node19" class="node">
<title>Node18</title>
<g id="a_node19"><a xlink:href="../../df/d21/GPUCommonDef_8h.html" target="_top" xlink:title="GPUCommonDef.h">
<polygon fill="none" stroke="#000000" points="2456.5,-56.5 2456.5,-75.5 2563.5,-75.5 2563.5,-56.5 2456.5,-56.5"/>
<text text-anchor="middle" x="2510" y="-63.5" font-family="Helvetica,sans-Serif" font-size="10.00" fill="#000000">GPUCommonDef.h</text>
</a>
</g>
</g>
<!-- Node17&#45;&gt;Node18 -->
<g id="edge21" class="edge">
<title>Node17&#45;&gt;Node18</title>
<path fill="none" stroke="#191970" d="M1393.0377,-179.8762C1396.0647,-179.5506 1399.0648,-179.2553 1402,-179 1465.0159,-173.5189 2495.9856,-188.4288 2540,-143 2556.0431,-126.4413 2540.1222,-100.3289 2526.0459,-83.1826"/>
<polygon fill="#191970" stroke="#191970" points="2528.6316,-80.8221 2519.432,-75.5667 2523.3464,-85.412 2528.6316,-80.8221"/>
</g>
<!-- Node21 -->
<g id="node22" class="node">
<title>Node21</title>
<g id="a_node22"><a xlink:href="../../d2/d45/GPUCommonRtypes_8h.html" target="_top" xlink:title="GPUCommonRtypes.h">
<polygon fill="none" stroke="#000000" points="911.5,-118 911.5,-137 1036.5,-137 1036.5,-118 911.5,-118"/>
<text text-anchor="middle" x="974" y="-125" font-family="Helvetica,sans-Serif" font-size="10.00" fill="#000000">GPUCommonRtypes.h</text>
</a>
</g>
</g>
<!-- Node17&#45;&gt;Node21 -->
<g id="edge24" class="edge">
<title>Node17&#45;&gt;Node21</title>
<path fill="none" stroke="#191970" d="M1270.7477,-180.1009C1212.7266,-171.4462 1123.2277,-157.5129 1046,-143 1039.7325,-141.8222 1033.1743,-140.515 1026.6765,-139.1735"/>
<polygon fill="#191970" stroke="#191970" points="1027.0716,-135.6802 1016.5658,-137.0509 1025.6334,-142.5309 1027.0716,-135.6802"/>
</g>
<!-- Node22 -->
<g id="node23" class="node">
<title>Node22</title>
<polygon fill="none" stroke="#bfbfbf" points="1055,-112.5 1055,-142.5 1219,-142.5 1219,-112.5 1055,-112.5"/>
<text text-anchor="start" x="1063" y="-130.5" font-family="Helvetica,sans-Serif" font-size="10.00" fill="#000000">Math/GenVector/Displacement</text>
<text text-anchor="middle" x="1137" y="-119.5" font-family="Helvetica,sans-Serif" font-size="10.00" fill="#000000">Vector3D.h</text>
</g>
<!-- Node17&#45;&gt;Node22 -->
<g id="edge26" class="edge">
<title>Node17&#45;&gt;Node22</title>
<path fill="none" stroke="#191970" d="M1301.5313,-179.3906C1272.9411,-170.3737 1229.447,-156.6563 1194.3572,-145.5896"/>
<polygon fill="#191970" stroke="#191970" points="1195.2921,-142.2145 1184.7024,-142.5446 1193.1866,-148.8904 1195.2921,-142.2145"/>
</g>
<!-- Node23 -->
<g id="node24" class="node">
<title>Node23</title>
<polygon fill="none" stroke="#bfbfbf" points="1237.5,-118 1237.5,-137 1426.5,-137 1426.5,-118 1237.5,-118"/>
<text text-anchor="middle" x="1332" y="-125" font-family="Helvetica,sans-Serif" font-size="10.00" fill="#000000">Math/GenVector/PositionVector3D.h</text>
</g>
<!-- Node17&#45;&gt;Node23 -->
<g id="edge27" class="edge">
<title>Node17&#45;&gt;Node23</title>
<path fill="none" stroke="#191970" d="M1332,-179.3906C1332,-170.8657 1332,-158.1392 1332,-147.4235"/>
<polygon fill="#191970" stroke="#191970" points="1335.5001,-147.2448 1332,-137.2449 1328.5001,-147.2449 1335.5001,-147.2448"/>
</g>
<!-- Node24 -->
<g id="node25" class="node">
<title>Node24</title>
<polygon fill="none" stroke="#bfbfbf" points="1445,-118 1445,-137 1605,-137 1605,-118 1445,-118"/>
<text text-anchor="middle" x="1525" y="-125" font-family="Helvetica,sans-Serif" font-size="10.00" fill="#000000">Math/GenVector/Rotation3D.h</text>
</g>
<!-- Node17&#45;&gt;Node24 -->
<g id="edge28" class="edge">
<title>Node17&#45;&gt;Node24</title>
<path fill="none" stroke="#191970" d="M1362.1563,-179.3906C1395.2985,-168.8298 1448.6762,-151.8208 1485.2242,-140.1747"/>
<polygon fill="#191970" stroke="#191970" points="1486.5902,-143.4129 1495.0555,-137.0419 1484.4649,-136.7433 1486.5902,-143.4129"/>
</g>
<!-- Node25 -->
<g id="node26" class="node">
<title>Node25</title>
<polygon fill="none" stroke="#bfbfbf" points="1623,-118 1623,-137 1791,-137 1791,-118 1623,-118"/>
<text text-anchor="middle" x="1707" y="-125" font-family="Helvetica,sans-Serif" font-size="10.00" fill="#000000">Math/GenVector/Transform3D.h</text>
</g>
<!-- Node17&#45;&gt;Node25 -->
<g id="edge29" class="edge">
<title>Node17&#45;&gt;Node25</title>
<path fill="none" stroke="#191970" d="M1390.6103,-179.4999C1447.6555,-170.2393 1536.7901,-155.7314 1614,-143 1622.3579,-141.6218 1631.137,-140.1675 1639.8256,-138.724"/>
<polygon fill="#191970" stroke="#191970" points="1640.6627,-142.133 1649.953,-137.0398 1639.5142,-135.2278 1640.6627,-142.133"/>
</g>
<!-- Node26 -->
<g id="node27" class="node">
<title>Node26</title>
<polygon fill="none" stroke="#bfbfbf" points="1809.5,-118 1809.5,-137 1982.5,-137 1982.5,-118 1809.5,-118"/>
<text text-anchor="middle" x="1896" y="-125" font-family="Helvetica,sans-Serif" font-size="10.00" fill="#000000">Math/GenVector/Translation3D.h</text>
</g>
<!-- Node17&#45;&gt;Node26 -->
<g id="edge30" class="edge">
<title>Node17&#45;&gt;Node26</title>
<path fill="none" stroke="#191970" d="M1393.0592,-180.0878C1396.0806,-179.7062 1399.0735,-179.3412 1402,-179 1578.4163,-158.4341 1623.7779,-165.1686 1800,-143 1810.155,-141.7225 1820.8841,-140.1808 1831.3459,-138.5717"/>
<polygon fill="#191970" stroke="#191970" points="1831.9306,-142.0229 1841.267,-137.0147 1830.8452,-135.1075 1831.9306,-142.0229"/>
</g>
<!-- Node27 -->
<g id="node28" class="node">
<title>Node27</title>
<polygon fill="none" stroke="#bfbfbf" points="2001,-112.5 2001,-142.5 2165,-142.5 2165,-112.5 2001,-112.5"/>
<text text-anchor="start" x="2009" y="-130.5" font-family="Helvetica,sans-Serif" font-size="10.00" fill="#000000">Math/GenVector/Displacement</text>
<text text-anchor="middle" x="2083" y="-119.5" font-family="Helvetica,sans-Serif" font-size="10.00" fill="#000000">Vector2D.h</text>
</g>
<!-- Node17&#45;&gt;Node27 -->
<g id="edge31" class="edge">
<title>Node17&#45;&gt;Node27</title>
<path fill="none" stroke="#191970" d="M1393.0477,-179.9822C1396.0721,-179.6286 1399.0689,-179.2983 1402,-179 1660.0419,-152.7395 1729.271,-172.5818 1990.5423,-143.0864"/>
<polygon fill="#191970" stroke="#191970" points="1991.179,-146.5365 2000.7171,-141.9239 1990.3844,-139.5817 1991.179,-146.5365"/>
</g>
<!-- Node28 -->
<g id="node29" class="node">
<title>Node28</title>
<polygon fill="none" stroke="#bfbfbf" points="2183.5,-118 2183.5,-137 2372.5,-137 2372.5,-118 2183.5,-118"/>
<text text-anchor="middle" x="2278" y="-125" font-family="Helvetica,sans-Serif" font-size="10.00" fill="#000000">Math/GenVector/PositionVector2D.h</text>
</g>
<!-- Node17&#45;&gt;Node28 -->
<g id="edge32" class="edge">
<title>Node17&#45;&gt;Node28</title>
<path fill="none" stroke="#191970" d="M1393.0426,-179.9303C1396.0683,-179.5904 1399.0668,-179.2773 1402,-179 1743.9596,-146.6753 1832.1398,-176.3594 2174,-143 2185.9942,-141.8296 2198.7183,-140.2321 2210.9982,-138.5056"/>
<polygon fill="#191970" stroke="#191970" points="2211.7876,-141.9279 2221.1831,-137.0315 2210.7849,-135.0001 2211.7876,-141.9279"/>
</g>
<!-- Node29 -->
<g id="node30" class="node">
<title>Node29</title>
<g id="a_node30"><a xlink:href="../../d1/da8/GPUROOTCartesianFwd_8h.html" target="_top" xlink:title="GPUROOTCartesianFwd.h">
<polygon fill="none" stroke="#000000" points="2391,-118 2391,-137 2531,-137 2531,-118 2391,-118"/>
<text text-anchor="middle" x="2461" y="-125" font-family="Helvetica,sans-Serif" font-size="10.00" fill="#000000">GPUROOTCartesianFwd.h</text>
</a>
</g>
</g>
<!-- Node17&#45;&gt;Node29 -->
<g id="edge35" class="edge">
<title>Node17&#45;&gt;Node29</title>
<path fill="none" stroke="#191970" d="M1393.0393,-179.8946C1396.0659,-179.5642 1399.0655,-179.2628 1402,-179 1836.1124,-140.1271 1949.0411,-193.1118 2382,-143 2390.7763,-141.9842 2400.035,-140.525 2409.0029,-138.9034"/>
<polygon fill="#191970" stroke="#191970" points="2409.7883,-142.317 2418.9631,-137.0184 2408.4866,-135.439 2409.7883,-142.317"/>
</g>
<!-- Node19 -->
<g id="node20" class="node">
<title>Node19</title>
<g id="a_node20"><a xlink:href="../../d5/d93/GPUCommonDefSettings_8h.html" target="_top" xlink:title="GPUCommonDefSettings.h">
<polygon fill="none" stroke="#000000" points="2359,-.5 2359,-19.5 2507,-19.5 2507,-.5 2359,-.5"/>
<text text-anchor="middle" x="2433" y="-7.5" font-family="Helvetica,sans-Serif" font-size="10.00" fill="#000000">GPUCommonDefSettings.h</text>
</a>
</g>
</g>
<!-- Node18&#45;&gt;Node19 -->
<g id="edge22" class="edge">
<title>Node18&#45;&gt;Node19</title>
<path fill="none" stroke="#191970" d="M2496.5876,-56.2455C2484.9943,-47.814 2468.0252,-35.4729 2454.5322,-25.6598"/>
<polygon fill="#191970" stroke="#191970" points="2456.4047,-22.6938 2446.2587,-19.6427 2452.2874,-28.355 2456.4047,-22.6938"/>
</g>
<!-- Node20 -->
<g id="node21" class="node">
<title>Node20</title>
<g id="a_node21"><a xlink:href="../../da/d5a/GPUCommonDefAPI_8h.html" target="_top" xlink:title="GPUCommonDefAPI.h">
<polygon fill="none" stroke="#000000" points="2525,-.5 2525,-19.5 2649,-19.5 2649,-.5 2525,-.5"/>
<text text-anchor="middle" x="2587" y="-7.5" font-family="Helvetica,sans-Serif" font-size="10.00" fill="#000000">GPUCommonDefAPI.h</text>
</a>
</g>
</g>
<!-- Node18&#45;&gt;Node20 -->
<g id="edge23" class="edge">
<title>Node18&#45;&gt;Node20</title>
<path fill="none" stroke="#191970" d="M2523.4124,-56.2455C2535.0057,-47.814 2551.9748,-35.4729 2565.4678,-25.6598"/>
<polygon fill="#191970" stroke="#191970" points="2567.7126,-28.355 2573.7413,-19.6427 2563.5953,-22.6938 2567.7126,-28.355"/>
</g>
<!-- Node21&#45;&gt;Node13 -->
<g id="edge25" class="edge">
<title>Node21&#45;&gt;Node13</title>
<path fill="none" stroke="#191970" d="M953.8438,-117.8906C932.449,-107.6908 898.438,-91.4763 874.1298,-79.8875"/>
<polygon fill="#191970" stroke="#191970" points="875.5476,-76.686 865.0147,-75.5419 872.5352,-83.0047 875.5476,-76.686"/>
</g>
<!-- Node29&#45;&gt;Node18 -->
<g id="edge36" class="edge">
<title>Node29&#45;&gt;Node18</title>
<path fill="none" stroke="#191970" d="M2468.6563,-117.8906C2475.9489,-108.7376 2487.1007,-94.7409 2495.9852,-83.59"/>
<polygon fill="#191970" stroke="#191970" points="2498.7417,-85.747 2502.2358,-75.7449 2493.267,-81.3849 2498.7417,-85.747"/>
</g>
<!-- Node30&#45;&gt;Node9 -->
<g id="edge41" class="edge">
<title>Node30&#45;&gt;Node9</title>
<path fill="none" stroke="#191970" d="M1574.9241,-235.4554C1546.2254,-225.194 1508.6063,-211.7429 1481.2377,-201.9571"/>
<polygon fill="#191970" stroke="#191970" points="1482.2485,-198.6015 1471.6539,-198.5303 1479.8917,-205.1929 1482.2485,-198.6015"/>
</g>
<!-- Node31 -->
<g id="node32" class="node">
<title>Node31</title>
<polygon fill="none" stroke="#bfbfbf" points="1589,-179.5 1589,-198.5 1645,-198.5 1645,-179.5 1589,-179.5"/>
<text text-anchor="middle" x="1617" y="-186.5" font-family="Helvetica,sans-Serif" font-size="10.00" fill="#000000">iomanip</text>
</g>
<!-- Node30&#45;&gt;Node31 -->
<g id="edge38" class="edge">
<title>Node30&#45;&gt;Node31</title>
<path fill="none" stroke="#191970" d="M1617,-235.2977C1617,-227.3834 1617,-217.6043 1617,-209.0759"/>
<polygon fill="#191970" stroke="#191970" points="1620.5001,-208.8469 1617,-198.8469 1613.5001,-208.847 1620.5001,-208.8469"/>
</g>
<!-- Node32 -->
<g id="node33" class="node">
<title>Node32</title>
<polygon fill="none" stroke="#bfbfbf" points="1663,-179.5 1663,-198.5 1721,-198.5 1721,-179.5 1663,-179.5"/>
<text text-anchor="middle" x="1692" y="-186.5" font-family="Helvetica,sans-Serif" font-size="10.00" fill="#000000">memory</text>
</g>
<!-- Node30&#45;&gt;Node32 -->
<g id="edge39" class="edge">
<title>Node30&#45;&gt;Node32</title>
<path fill="none" stroke="#191970" d="M1635.5393,-235.2977C1646.6008,-226.2274 1660.6491,-214.7077 1671.9653,-205.4285"/>
<polygon fill="#191970" stroke="#191970" points="1674.4781,-207.8942 1679.9916,-198.8469 1670.0396,-202.4813 1674.4781,-207.8942"/>
</g>
<!-- Node33 -->
<g id="node34" class="node">
<title>Node33</title>
<polygon fill="none" stroke="#bfbfbf" points="1739,-179.5 1739,-198.5 1795,-198.5 1795,-179.5 1739,-179.5"/>
<text text-anchor="middle" x="1767" y="-186.5" font-family="Helvetica,sans-Serif" font-size="10.00" fill="#000000">TMath.h</text>
</g>
<!-- Node30&#45;&gt;Node33 -->
<g id="edge40" class="edge">
<title>Node30&#45;&gt;Node33</title>
<path fill="none" stroke="#191970" d="M1653.6941,-235.4554C1678.3927,-225.329 1710.6674,-212.0964 1734.4506,-202.3453"/>
<polygon fill="#191970" stroke="#191970" points="1735.8306,-205.5623 1743.7553,-198.5303 1733.175,-199.0855 1735.8306,-205.5623"/>
</g>
<!-- Node34 -->
<g id="node35" class="node">
<title>Node34</title>
<polygon fill="none" stroke="#bfbfbf" points="1813,-179.5 1813,-198.5 1881,-198.5 1881,-179.5 1813,-179.5"/>
<text text-anchor="middle" x="1847" y="-186.5" font-family="Helvetica,sans-Serif" font-size="10.00" fill="#000000">TVector2.h</text>
</g>
<!-- Node30&#45;&gt;Node34 -->
<g id="edge42" class="edge">
<title>Node30&#45;&gt;Node34</title>
<path fill="none" stroke="#191970" d="M1673.2643,-235.4554C1713.1366,-224.7939 1765.8856,-210.6893 1802.7589,-200.8297"/>
<polygon fill="#191970" stroke="#191970" points="1803.9577,-204.1322 1812.7142,-198.1677 1802.1495,-197.3697 1803.9577,-204.1322"/>
</g>
<!-- Node35 -->
<g id="node36" class="node">
<title>Node35</title>
<polygon fill="none" stroke="#bfbfbf" points="1496.5,-179.5 1496.5,-198.5 1571.5,-198.5 1571.5,-179.5 1496.5,-179.5"/>
<text text-anchor="middle" x="1534" y="-186.5" font-family="Helvetica,sans-Serif" font-size="10.00" fill="#000000">FairLogger.h</text>
</g>
<!-- Node30&#45;&gt;Node35 -->
<g id="edge43" class="edge">
<title>Node30&#45;&gt;Node35</title>
<path fill="none" stroke="#191970" d="M1596.4831,-235.2977C1584.0018,-226.0495 1568.0841,-214.2551 1555.4386,-204.8853"/>
<polygon fill="#191970" stroke="#191970" points="1557.4078,-201.9882 1547.2894,-198.8469 1553.2404,-207.6126 1557.4078,-201.9882"/>
</g>
</g>
</svg>
        <g id="navigator" transform="translate(0 0)" fill="#404254">
                <rect fill="#f2f5e9" fill-opacity="0.5" stroke="#606060" stroke-width=".5" x="0" y="0" width="60" height="60"/>
                <use id="zoomplus" xlink:href="#zoomPlus" x="17" y="9" onmousedown="handleZoom(evt,'in')"/>
                <use id="zoomminus" xlink:href="#zoomMin" x="42" y="9" onmousedown="handleZoom(evt,'out')"/>
                <use id="reset" xlink:href="#resetDef" x="30" y="36" onmousedown="handleReset()"/>
                <g id="arrowUp" xlink:href="#dirArrow" transform="translate(30 24)" onmousedown="handlePan(0,-1)">
                  <use xlink:href="#rim" fill="#404040">
                        <set attributeName="fill" to="#808080" begin="arrowUp.mouseover" end="arrowUp.mouseout"/>
                  </use>
                  <path fill="none" stroke="white" stroke-width="1.5" d="M0,-3.0v7 M-2.5,-0.5L0,-3.0L2.5,-0.5"/>
                </g>
                <g id="arrowRight" xlink:href="#dirArrow" transform="rotate(90) translate(36 -43)" onmousedown="handlePan(1,0)">
                  <use xlink:href="#rim" fill="#404040">
                        <set attributeName="fill" to="#808080" begin="arrowRight.mouseover" end="arrowRight.mouseout"/>
                  </use>
                  <path fill="none" stroke="white" stroke-width="1.5" d="M0,-3.0v7 M-2.5,-0.5L0,-3.0L2.5,-0.5"/>
                </g>
                <g id="arrowDown" xlink:href="#dirArrow" transform="rotate(180) translate(-30 -48)" onmousedown="handlePan(0,1)">
                  <use xlink:href="#rim" fill="#404040">
                        <set attributeName="fill" to="#808080" begin="arrowDown.mouseover" end="arrowDown.mouseout"/>
                  </use>
                  <path fill="none" stroke="white" stroke-width="1.5" d="M0,-3.0v7 M-2.5,-0.5L0,-3.0L2.5,-0.5"/>
                </g>
                <g id="arrowLeft" xlink:href="#dirArrow" transform="rotate(270) translate(-36 17)" onmousedown="handlePan(-1,0)">
                  <use xlink:href="#rim" fill="#404040">
                        <set attributeName="fill" to="#808080" begin="arrowLeft.mouseover" end="arrowLeft.mouseout"/>
                  </use>
                  <path fill="none" stroke="white" stroke-width="1.5" d="M0,-3.0v7 M-2.5,-0.5L0,-3.0L2.5,-0.5"/>
                </g>
        </g>
        <svg viewBox="0 0 15 15" width="100%" height="30px" preserveAspectRatio="xMaxYMin meet">
         <g id="arrow_out" transform="scale(0.3 0.3)">
          <a xlink:href="ShishKebabTrd1Module_8cxx__incl_org.svg" target="_base">
           <rect id="button" ry="5" rx="5" y="6" x="6" height="38" width="38"
                fill="#f2f5e9" fill-opacity="0.5" stroke="#606060" stroke-width="1.0"/>
           <path id="arrow"
             d="M 11.500037,31.436501 C 11.940474,20.09759 22.043105,11.32322 32.158766,21.979434 L 37.068811,17.246167 C 37.068811,17.246167 37.088388,32 37.088388,32 L 22.160133,31.978069 C 22.160133,31.978069 26.997745,27.140456 26.997745,27.140456 C 18.528582,18.264221 13.291696,25.230495 11.500037,31.436501 z"
             style="fill:#404040;"/>
          </a>
         </g>
        </svg>
</svg>
