<?xml version="1.0" encoding="UTF-8" standalone="no"?>
<!DOCTYPE svg PUBLIC "-//W3C//DTD SVG 1.1//EN"
 "http://www.w3.org/Graphics/SVG/1.1/DTD/svg11.dtd">
<!-- Generated by graphviz version 2.40.1 (20161225.0304)
 -->
<!-- Title: o2::framework::has_root_dictionary&lt; std::unordered_map&lt; o2::dcs::DataPointIdentifier, o2::dcs::DataPointValue &gt;, void &gt; Pages: 1 -->
<svg width="178pt" height="204pt"
 viewBox="0.00 0.00 178.00 204.00" xmlns="http://www.w3.org/2000/svg" xmlns:xlink="http://www.w3.org/1999/xlink">
<g id="graph0" class="graph" transform="scale(1 1) rotate(0) translate(4 200)">
<title>o2::framework::has_root_dictionary&lt; std::unordered_map&lt; o2::dcs::DataPointIdentifier, o2::dcs::DataPointValue &gt;, void &gt;</title>
<!-- Node2 -->
<g id="node1" class="node">
<title>Node2</title>
<polygon fill="#bfbfbf" stroke="#000000" points="0,-.5 0,-101.5 170,-101.5 170,-.5 0,-.5"/>
<text text-anchor="start" x="8" y="-89.5" font-family="Helvetica,sans-Serif" font-size="10.00" fill="#000000">o2::framework::has</text>
<text text-anchor="start" x="8" y="-78.5" font-family="Helvetica,sans-Serif" font-size="10.00" fill="#000000">_root_dictionary&lt; std</text>
<text text-anchor="start" x="8" y="-67.5" font-family="Helvetica,sans-Serif" font-size="10.00" fill="#000000">::unordered_map&lt; o2::dcs</text>
<text text-anchor="start" x="8" y="-56.5" font-family="Helvetica,sans-Serif" font-size="10.00" fill="#000000">::DataPointIdentifier, o2</text>
<text text-anchor="middle" x="85" y="-45.5" font-family="Helvetica,sans-Serif" font-size="10.00" fill="#000000">::dcs::DataPointValue &gt;, void &gt;</text>
<polyline fill="none" stroke="#000000" points="0,-38.5 170,-38.5 "/>
<text text-anchor="middle" x="85" y="-26.5" font-family="Helvetica,sans-Serif" font-size="10.00" fill="#000000"> </text>
<polyline fill="none" stroke="#000000" points="0,-19.5 170,-19.5 "/>
<text text-anchor="middle" x="85" y="-7.5" font-family="Helvetica,sans-Serif" font-size="10.00" fill="#000000"> </text>
</g>
<!-- Node3 -->
<g id="node2" class="node">
<title>Node3</title>
<polygon fill="none" stroke="#bfbfbf" points="53.5,-138.5 53.5,-195.5 116.5,-195.5 116.5,-138.5 53.5,-138.5"/>
<text text-anchor="middle" x="85" y="-183.5" font-family="Helvetica,sans-Serif" font-size="10.00" fill="#000000">true_type</text>
<polyline fill="none" stroke="#bfbfbf" points="53.5,-176.5 116.5,-176.5 "/>
<text text-anchor="middle" x="85" y="-164.5" font-family="Helvetica,sans-Serif" font-size="10.00" fill="#000000"> </text>
<polyline fill="none" stroke="#bfbfbf" points="53.5,-157.5 116.5,-157.5 "/>
<text text-anchor="middle" x="85" y="-145.5" font-family="Helvetica,sans-Serif" font-size="10.00" fill="#000000"> </text>
</g>
<!-- Node3&#45;&gt;Node2 -->
<g id="edge1" class="edge">
<title>Node3&#45;&gt;Node2</title>
<path fill="none" stroke="#191970" d="M85,-128.0826C85,-119.6942 85,-110.7064 85,-101.9373"/>
<polygon fill="none" stroke="#191970" points="81.5001,-128.3258 85,-138.3258 88.5001,-128.3259 81.5001,-128.3258"/>
</g>
</g>
</svg>
