<?xml version="1.0" encoding="UTF-8" standalone="no"?>
<!DOCTYPE svg PUBLIC "-//W3C//DTD SVG 1.1//EN"
 "http://www.w3.org/Graphics/SVG/1.1/DTD/svg11.dtd">
<!-- Generated by graphviz version 2.40.1 (20161225.0304)
 -->
<!-- Title: /home/travis/build/AliceO2Group/AliceO2/Common/Field/src/MagFieldFact.cxx Pages: 1 -->
<svg width="2580pt" height="453pt"
 viewBox="0.00 0.00 2579.50 453.00" xmlns="http://www.w3.org/2000/svg" xmlns:xlink="http://www.w3.org/1999/xlink">
<g id="graph0" class="graph" transform="scale(1 1) rotate(0) translate(4 449)">
<title>/home/travis/build/AliceO2Group/AliceO2/Common/Field/src/MagFieldFact.cxx</title>
<!-- Node0 -->
<g id="node1" class="node">
<title>Node0</title>
<polygon fill="#bfbfbf" stroke="#000000" points="1843,-403.5 1843,-444.5 2035,-444.5 2035,-403.5 1843,-403.5"/>
<text text-anchor="start" x="1851" y="-432.5" font-family="Helvetica,sans-Serif" font-size="10.00" fill="#000000">/home/travis/build</text>
<text text-anchor="start" x="1851" y="-421.5" font-family="Helvetica,sans-Serif" font-size="10.00" fill="#000000">/AliceO2Group/AliceO2</text>
<text text-anchor="middle" x="1939" y="-410.5" font-family="Helvetica,sans-Serif" font-size="10.00" fill="#000000">/Common/Field/src/MagFieldFact.cxx</text>
</g>
<!-- Node1 -->
<g id="node2" class="node">
<title>Node1</title>
<g id="a_node2"><a xlink:href="../../da/d34/MagFieldFact_8h.html" target="_top" xlink:title="Definition of the MagFieldFact: factory for ALIDE mag. field from MagFieldParam. ">
<polygon fill="none" stroke="#000000" points="1759.5,-347.5 1759.5,-366.5 1872.5,-366.5 1872.5,-347.5 1759.5,-347.5"/>
<text text-anchor="middle" x="1816" y="-354.5" font-family="Helvetica,sans-Serif" font-size="10.00" fill="#000000">Field/MagFieldFact.h</text>
</a>
</g>
</g>
<!-- Node0&#45;&gt;Node1 -->
<g id="edge1" class="edge">
<title>Node0&#45;&gt;Node1</title>
<path fill="none" stroke="#191970" d="M1901.0923,-403.3511C1882.153,-393.0346 1859.6954,-380.8015 1842.6081,-371.4939"/>
<polygon fill="#191970" stroke="#191970" points="1844.1801,-368.3646 1833.7242,-366.6546 1840.8316,-374.5118 1844.1801,-368.3646"/>
</g>
<!-- Node3 -->
<g id="node4" class="node">
<title>Node3</title>
<g id="a_node4"><a xlink:href="../../db/d4b/MagneticField_8h.html" target="_top" xlink:title="Definition of the MagF class. ">
<polygon fill="none" stroke="#000000" points="1793,-291.5 1793,-310.5 1911,-310.5 1911,-291.5 1793,-291.5"/>
<text text-anchor="middle" x="1852" y="-298.5" font-family="Helvetica,sans-Serif" font-size="10.00" fill="#000000">Field/MagneticField.h</text>
</a>
</g>
</g>
<!-- Node0&#45;&gt;Node3 -->
<g id="edge52" class="edge">
<title>Node0&#45;&gt;Node3</title>
<path fill="none" stroke="#191970" d="M1924.4382,-403.4126C1907.6873,-379.7303 1880.4588,-341.2348 1864.5883,-318.7972"/>
<polygon fill="#191970" stroke="#191970" points="1867.3645,-316.6612 1858.7324,-310.5182 1861.6496,-320.7035 1867.3645,-316.6612"/>
</g>
<!-- Node4 -->
<g id="node5" class="node">
<title>Node4</title>
<polygon fill="none" stroke="#bfbfbf" points="1494.5,-235.5 1494.5,-254.5 1559.5,-254.5 1559.5,-235.5 1494.5,-235.5"/>
<text text-anchor="middle" x="1527" y="-242.5" font-family="Helvetica,sans-Serif" font-size="10.00" fill="#000000">FairField.h</text>
</g>
<!-- Node0&#45;&gt;Node4 -->
<g id="edge48" class="edge">
<title>Node0&#45;&gt;Node4</title>
<path fill="none" stroke="#191970" d="M1857.6956,-403.4805C1823.833,-393.9121 1784.4548,-381.4358 1750,-367 1674.072,-335.188 1590.3892,-284.9574 1550.5703,-260.043"/>
<polygon fill="#191970" stroke="#191970" points="1552.193,-256.9287 1541.866,-254.5616 1548.4629,-262.852 1552.193,-256.9287"/>
</g>
<!-- Node5 -->
<g id="node6" class="node">
<title>Node5</title>
<g id="a_node6"><a xlink:href="../../d3/d91/MagFieldParam_8h.html" target="_top" xlink:title="Definition of the MagFieldParam: container for ALICE mag. field parameters. ">
<polygon fill="none" stroke="#000000" points="2422.5,-235.5 2422.5,-254.5 2547.5,-254.5 2547.5,-235.5 2422.5,-235.5"/>
<text text-anchor="middle" x="2485" y="-242.5" font-family="Helvetica,sans-Serif" font-size="10.00" fill="#000000">Field/MagFieldParam.h</text>
</a>
</g>
</g>
<!-- Node0&#45;&gt;Node5 -->
<g id="edge51" class="edge">
<title>Node0&#45;&gt;Node5</title>
<path fill="none" stroke="#191970" d="M1938.6442,-403.3176C1939.5164,-385.8236 1943.698,-361.373 1959,-347 1991.8249,-316.1677 2275.9824,-273.6146 2412.4428,-254.7165"/>
<polygon fill="#191970" stroke="#191970" points="2412.9758,-258.1762 2422.4038,-253.3427 2412.0194,-251.2418 2412.9758,-258.1762"/>
</g>
<!-- Node35 -->
<g id="node36" class="node">
<title>Node35</title>
<polygon fill="none" stroke="#bfbfbf" points="1967.5,-347.5 1967.5,-366.5 2042.5,-366.5 2042.5,-347.5 1967.5,-347.5"/>
<text text-anchor="middle" x="2005" y="-354.5" font-family="Helvetica,sans-Serif" font-size="10.00" fill="#000000">FairLogger.h</text>
</g>
<!-- Node0&#45;&gt;Node35 -->
<g id="edge49" class="edge">
<title>Node0&#45;&gt;Node35</title>
<path fill="none" stroke="#191970" d="M1959.521,-403.168C1968.7695,-393.7794 1979.5516,-382.834 1988.2957,-373.9574"/>
<polygon fill="#191970" stroke="#191970" points="1990.8412,-376.3607 1995.3655,-366.7805 1985.8544,-371.4483 1990.8412,-376.3607"/>
</g>
<!-- Node36 -->
<g id="node37" class="node">
<title>Node36</title>
<polygon fill="none" stroke="#bfbfbf" points="2060.5,-347.5 2060.5,-366.5 2157.5,-366.5 2157.5,-347.5 2060.5,-347.5"/>
<text text-anchor="middle" x="2109" y="-354.5" font-family="Helvetica,sans-Serif" font-size="10.00" fill="#000000">FairRuntimeDb.h</text>
</g>
<!-- Node0&#45;&gt;Node36 -->
<g id="edge50" class="edge">
<title>Node0&#45;&gt;Node36</title>
<path fill="none" stroke="#191970" d="M1991.3928,-403.3511C2018.6596,-392.6047 2051.2031,-379.7788 2075.1371,-370.346"/>
<polygon fill="#191970" stroke="#191970" points="2076.483,-373.5776 2084.5032,-366.6546 2073.9163,-367.0651 2076.483,-373.5776"/>
</g>
<!-- Node37 -->
<g id="node38" class="node">
<title>Node37</title>
<polygon fill="none" stroke="#bfbfbf" points="2176,-347.5 2176,-366.5 2236,-366.5 2236,-347.5 2176,-347.5"/>
<text text-anchor="middle" x="2206" y="-354.5" font-family="Helvetica,sans-Serif" font-size="10.00" fill="#000000">iostream</text>
</g>
<!-- Node0&#45;&gt;Node37 -->
<g id="edge53" class="edge">
<title>Node0&#45;&gt;Node37</title>
<path fill="none" stroke="#191970" d="M2021.6126,-403.4741C2062.3852,-393.3134 2112.5614,-380.7646 2165.7967,-367.2955"/>
<polygon fill="#191970" stroke="#191970" points="2166.9359,-370.6176 2175.7709,-364.7702 2165.2177,-363.8317 2166.9359,-370.6176"/>
</g>
<!-- Node2 -->
<g id="node3" class="node">
<title>Node2</title>
<polygon fill="none" stroke="#bfbfbf" points="1675.5,-291.5 1675.5,-310.5 1774.5,-310.5 1774.5,-291.5 1675.5,-291.5"/>
<text text-anchor="middle" x="1725" y="-298.5" font-family="Helvetica,sans-Serif" font-size="10.00" fill="#000000">FairFieldFactory.h</text>
</g>
<!-- Node1&#45;&gt;Node2 -->
<g id="edge2" class="edge">
<title>Node1&#45;&gt;Node2</title>
<path fill="none" stroke="#191970" d="M1800.149,-347.2455C1786.1868,-338.6534 1765.6272,-326.0014 1749.5404,-316.1018"/>
<polygon fill="#191970" stroke="#191970" points="1751.0203,-312.9029 1740.6693,-310.6427 1747.3516,-318.8645 1751.0203,-312.9029"/>
</g>
<!-- Node1&#45;&gt;Node3 -->
<g id="edge3" class="edge">
<title>Node1&#45;&gt;Node3</title>
<path fill="none" stroke="#191970" d="M1822.2707,-347.2455C1827.2264,-339.5367 1834.283,-328.5598 1840.2776,-319.2348"/>
<polygon fill="#191970" stroke="#191970" points="1843.3376,-320.9471 1845.8011,-310.6427 1837.4494,-317.1618 1843.3376,-320.9471"/>
</g>
<!-- Node3&#45;&gt;Node4 -->
<g id="edge4" class="edge">
<title>Node3&#45;&gt;Node4</title>
<path fill="none" stroke="#191970" d="M1792.7059,-291.9586C1726.8975,-281.831 1623.7712,-265.6629 1569.7465,-255.2121"/>
<polygon fill="#191970" stroke="#191970" points="1570.112,-251.7164 1559.6218,-253.2017 1568.7486,-258.5824 1570.112,-251.7164"/>
</g>
<!-- Node3&#45;&gt;Node5 -->
<g id="edge5" class="edge">
<title>Node3&#45;&gt;Node5</title>
<path fill="none" stroke="#191970" d="M1911.325,-292.5614C1915.9481,-291.9992 1920.5476,-291.4704 1925,-291 2139.0705,-268.3817 2193.8517,-276.8698 2408,-255 2409.4668,-254.8502 2410.9488,-254.695 2412.442,-254.535"/>
<polygon fill="#191970" stroke="#191970" points="2412.8696,-258.0091 2422.4183,-253.4187 2412.0911,-251.0525 2412.8696,-258.0091"/>
</g>
<!-- Node8 -->
<g id="node9" class="node">
<title>Node8</title>
<g id="a_node9"><a xlink:href="../../dd/dfb/MagneticWrapperChebyshev_8h.html" target="_top" xlink:title="Field/MagneticWrapperChebyshev.h">
<polygon fill="none" stroke="#000000" points="1936.5,-235.5 1936.5,-254.5 2125.5,-254.5 2125.5,-235.5 1936.5,-235.5"/>
<text text-anchor="middle" x="2031" y="-242.5" font-family="Helvetica,sans-Serif" font-size="10.00" fill="#000000">Field/MagneticWrapperChebyshev.h</text>
</a>
</g>
</g>
<!-- Node3&#45;&gt;Node8 -->
<g id="edge8" class="edge">
<title>Node3&#45;&gt;Node8</title>
<path fill="none" stroke="#191970" d="M1882.7712,-291.3733C1912.665,-282.021 1958.2093,-267.7725 1990.9217,-257.5385"/>
<polygon fill="#191970" stroke="#191970" points="1992.1315,-260.8273 2000.6303,-254.5011 1990.0414,-254.1466 1992.1315,-260.8273"/>
</g>
<!-- Node10 -->
<g id="node11" class="node">
<title>Node10</title>
<polygon fill="none" stroke="#bfbfbf" points="2264.5,-56.5 2264.5,-75.5 2331.5,-75.5 2331.5,-56.5 2264.5,-56.5"/>
<text text-anchor="middle" x="2298" y="-63.5" font-family="Helvetica,sans-Serif" font-size="10.00" fill="#000000">TNamed.h</text>
</g>
<!-- Node3&#45;&gt;Node10 -->
<g id="edge46" class="edge">
<title>Node3&#45;&gt;Node10</title>
<path fill="none" stroke="#191970" d="M1911.3488,-294.3073C2044.8081,-277.8013 2361.0882,-230.0376 2414,-143 2421.157,-131.227 2421.7412,-123.3974 2414,-112 2397.8273,-88.1888 2367.1962,-76.703 2341.4707,-71.1627"/>
<polygon fill="#191970" stroke="#191970" points="2342.0111,-67.7026 2331.5307,-69.2557 2340.6921,-74.5772 2342.0111,-67.7026"/>
</g>
<!-- Node15 -->
<g id="node16" class="node">
<title>Node15</title>
<polygon fill="none" stroke="#bfbfbf" points="1861.5,-56.5 1861.5,-75.5 1920.5,-75.5 1920.5,-56.5 1861.5,-56.5"/>
<text text-anchor="middle" x="1891" y="-63.5" font-family="Helvetica,sans-Serif" font-size="10.00" fill="#000000">Rtypes.h</text>
</g>
<!-- Node3&#45;&gt;Node15 -->
<g id="edge45" class="edge">
<title>Node3&#45;&gt;Node15</title>
<path fill="none" stroke="#191970" d="M1854.3226,-291.1651C1856.4725,-281.8753 1859.6779,-267.5361 1862,-255 1873.3532,-193.7084 1883.6537,-120.6469 1888.3377,-86.0571"/>
<polygon fill="#191970" stroke="#191970" points="1891.843,-86.2508 1889.7043,-75.8741 1884.9052,-85.3196 1891.843,-86.2508"/>
</g>
<!-- Node16 -->
<g id="node17" class="node">
<title>Node16</title>
<g id="a_node17"><a xlink:href="../../da/df4/MagFieldFast_8h.html" target="_top" xlink:title="Definition of the fast magnetic field parametrization MagFieldFast. ">
<polygon fill="none" stroke="#000000" points="1577.5,-235.5 1577.5,-254.5 1690.5,-254.5 1690.5,-235.5 1577.5,-235.5"/>
<text text-anchor="middle" x="1634" y="-242.5" font-family="Helvetica,sans-Serif" font-size="10.00" fill="#000000">Field/MagFieldFast.h</text>
</a>
</g>
</g>
<!-- Node3&#45;&gt;Node16 -->
<g id="edge24" class="edge">
<title>Node3&#45;&gt;Node16</title>
<path fill="none" stroke="#191970" d="M1814.5245,-291.3733C1777.4897,-281.8598 1720.7318,-267.2797 1680.7639,-257.0127"/>
<polygon fill="#191970" stroke="#191970" points="1681.5429,-253.5993 1670.9865,-254.5011 1679.8012,-260.3792 1681.5429,-253.5993"/>
</g>
<!-- Node33 -->
<g id="node34" class="node">
<title>Node33</title>
<polygon fill="none" stroke="#bfbfbf" points="1709,-235.5 1709,-254.5 1777,-254.5 1777,-235.5 1709,-235.5"/>
<text text-anchor="middle" x="1743" y="-242.5" font-family="Helvetica,sans-Serif" font-size="10.00" fill="#000000">TSystem.h</text>
</g>
<!-- Node3&#45;&gt;Node33 -->
<g id="edge44" class="edge">
<title>Node3&#45;&gt;Node33</title>
<path fill="none" stroke="#191970" d="M1833.0136,-291.2455C1815.8208,-282.4125 1790.2762,-269.2887 1770.7868,-259.2758"/>
<polygon fill="#191970" stroke="#191970" points="1772.263,-256.0993 1761.7688,-254.6427 1769.0641,-262.3257 1772.263,-256.0993"/>
</g>
<!-- Node34 -->
<g id="node35" class="node">
<title>Node34</title>
<polygon fill="none" stroke="#bfbfbf" points="1795,-235.5 1795,-254.5 1853,-254.5 1853,-235.5 1795,-235.5"/>
<text text-anchor="middle" x="1824" y="-242.5" font-family="Helvetica,sans-Serif" font-size="10.00" fill="#000000">memory</text>
</g>
<!-- Node3&#45;&gt;Node34 -->
<g id="edge47" class="edge">
<title>Node3&#45;&gt;Node34</title>
<path fill="none" stroke="#191970" d="M1847.1228,-291.2455C1843.3487,-283.6973 1838.0079,-273.0158 1833.4099,-263.8197"/>
<polygon fill="#191970" stroke="#191970" points="1836.424,-262.0217 1828.8213,-254.6427 1830.163,-265.1522 1836.424,-262.0217"/>
</g>
<!-- Node6 -->
<g id="node7" class="node">
<title>Node6</title>
<polygon fill="none" stroke="#bfbfbf" points="2460.5,-179.5 2460.5,-198.5 2571.5,-198.5 2571.5,-179.5 2460.5,-179.5"/>
<text text-anchor="middle" x="2516" y="-186.5" font-family="Helvetica,sans-Serif" font-size="10.00" fill="#000000">FairParGenericSet.h</text>
</g>
<!-- Node5&#45;&gt;Node6 -->
<g id="edge6" class="edge">
<title>Node5&#45;&gt;Node6</title>
<path fill="none" stroke="#191970" d="M2490.3998,-235.2455C2494.6227,-227.617 2500.6173,-216.7881 2505.7441,-207.5267"/>
<polygon fill="#191970" stroke="#191970" points="2508.881,-209.0867 2510.6621,-198.6427 2502.7568,-205.6965 2508.881,-209.0867"/>
</g>
<!-- Node7 -->
<g id="node8" class="node">
<title>Node7</title>
<polygon fill="none" stroke="#bfbfbf" points="2345,-118 2345,-137 2405,-137 2405,-118 2345,-118"/>
<text text-anchor="middle" x="2375" y="-125" font-family="Helvetica,sans-Serif" font-size="10.00" fill="#000000">TString.h</text>
</g>
<!-- Node5&#45;&gt;Node7 -->
<g id="edge7" class="edge">
<title>Node5&#45;&gt;Node7</title>
<path fill="none" stroke="#191970" d="M2475.9982,-235.3845C2457.3856,-215.5028 2414.4508,-169.6406 2390.9999,-144.5908"/>
<polygon fill="#191970" stroke="#191970" points="2393.5155,-142.1566 2384.1261,-137.2484 2388.4053,-146.9406 2393.5155,-142.1566"/>
</g>
<!-- Node9 -->
<g id="node10" class="node">
<title>Node9</title>
<polygon fill="none" stroke="#bfbfbf" points="2221,-179.5 2221,-198.5 2277,-198.5 2277,-179.5 2221,-179.5"/>
<text text-anchor="middle" x="2249" y="-186.5" font-family="Helvetica,sans-Serif" font-size="10.00" fill="#000000">TMath.h</text>
</g>
<!-- Node8&#45;&gt;Node9 -->
<g id="edge9" class="edge">
<title>Node8&#45;&gt;Node9</title>
<path fill="none" stroke="#191970" d="M2069.1791,-235.4748C2103.7635,-226.8068 2156.3779,-213.522 2210.8933,-199.2653"/>
<polygon fill="#191970" stroke="#191970" points="2211.9438,-202.6083 2220.73,-196.6876 2210.1693,-195.8369 2211.9438,-202.6083"/>
</g>
<!-- Node8&#45;&gt;Node10 -->
<g id="edge10" class="edge">
<title>Node8&#45;&gt;Node10</title>
<path fill="none" stroke="#191970" d="M2125.5082,-239.7156C2188.8721,-234.056 2264.5123,-222.4786 2286,-199 2314.3273,-168.0482 2308.6004,-114.3899 2302.8108,-85.598"/>
<polygon fill="#191970" stroke="#191970" points="2306.166,-84.5615 2300.5815,-75.5579 2299.3324,-86.0789 2306.166,-84.5615"/>
</g>
<!-- Node11 -->
<g id="node12" class="node">
<title>Node11</title>
<polygon fill="none" stroke="#bfbfbf" points="1919.5,-118 1919.5,-137 1992.5,-137 1992.5,-118 1919.5,-118"/>
<text text-anchor="middle" x="1956" y="-125" font-family="Helvetica,sans-Serif" font-size="10.00" fill="#000000">TObjArray.h</text>
</g>
<!-- Node8&#45;&gt;Node11 -->
<g id="edge11" class="edge">
<title>Node8&#45;&gt;Node11</title>
<path fill="none" stroke="#191970" d="M2024.8624,-235.3845C2012.3917,-215.8471 1983.9071,-171.2211 1967.7514,-145.9106"/>
<polygon fill="#191970" stroke="#191970" points="1970.553,-143.7945 1962.2224,-137.2484 1964.6525,-147.5608 1970.553,-143.7945"/>
</g>
<!-- Node12 -->
<g id="node13" class="node">
<title>Node12</title>
<g id="a_node13"><a xlink:href="../../d8/d64/Chebyshev3D_8h.html" target="_top" xlink:title="MathUtils/Chebyshev3D.h">
<polygon fill="none" stroke="#000000" points="2059.5,-179.5 2059.5,-198.5 2202.5,-198.5 2202.5,-179.5 2059.5,-179.5"/>
<text text-anchor="middle" x="2131" y="-186.5" font-family="Helvetica,sans-Serif" font-size="10.00" fill="#000000">MathUtils/Chebyshev3D.h</text>
</a>
</g>
</g>
<!-- Node8&#45;&gt;Node12 -->
<g id="edge12" class="edge">
<title>Node8&#45;&gt;Node12</title>
<path fill="none" stroke="#191970" d="M2048.4187,-235.2455C2064.0485,-226.4928 2087.2019,-213.527 2105.0185,-203.5496"/>
<polygon fill="#191970" stroke="#191970" points="2106.766,-206.5825 2113.7809,-198.6427 2103.3457,-200.475 2106.766,-206.5825"/>
</g>
<!-- Node14 -->
<g id="node15" class="node">
<title>Node14</title>
<g id="a_node15"><a xlink:href="../../d4/d08/Chebyshev3DCalc_8h.html" target="_top" xlink:title="MathUtils/Chebyshev3DCalc.h">
<polygon fill="none" stroke="#000000" points="2049,-118 2049,-137 2213,-137 2213,-118 2049,-118"/>
<text text-anchor="middle" x="2131" y="-125" font-family="Helvetica,sans-Serif" font-size="10.00" fill="#000000">MathUtils/Chebyshev3DCalc.h</text>
</a>
</g>
</g>
<!-- Node8&#45;&gt;Node14 -->
<g id="edge22" class="edge">
<title>Node8&#45;&gt;Node14</title>
<path fill="none" stroke="#191970" d="M2031.863,-235.09C2033.5073,-221.2741 2038.1614,-196.0106 2051,-179 2063.2278,-162.7988 2082.1495,-150.285 2098.5213,-141.6515"/>
<polygon fill="#191970" stroke="#191970" points="2100.4146,-144.6181 2107.7963,-137.0181 2097.2863,-138.3561 2100.4146,-144.6181"/>
</g>
<!-- Node8&#45;&gt;Node15 -->
<g id="edge23" class="edge">
<title>Node8&#45;&gt;Node15</title>
<path fill="none" stroke="#191970" d="M2014.2067,-235.4473C1988.0296,-219.667 1937.7332,-185.6199 1911,-143 1900.0281,-125.5079 1895.0503,-102.1861 1892.8075,-85.809"/>
<polygon fill="#191970" stroke="#191970" points="1896.2691,-85.2732 1891.6517,-75.7375 1889.3147,-86.0714 1896.2691,-85.2732"/>
</g>
<!-- Node12&#45;&gt;Node7 -->
<g id="edge21" class="edge">
<title>Node12&#45;&gt;Node7</title>
<path fill="none" stroke="#191970" d="M2168.8573,-179.4581C2213.9066,-168.1035 2288.8,-149.2267 2334.8389,-137.6226"/>
<polygon fill="#191970" stroke="#191970" points="2335.923,-140.9589 2344.7642,-135.1209 2334.2121,-134.1712 2335.923,-140.9589"/>
</g>
<!-- Node12&#45;&gt;Node10 -->
<g id="edge13" class="edge">
<title>Node12&#45;&gt;Node10</title>
<path fill="none" stroke="#191970" d="M2164.6523,-179.3954C2186.9702,-171.9121 2216.0723,-159.9283 2238,-143 2258.9701,-126.8109 2276.7023,-101.6822 2287.3319,-84.5678"/>
<polygon fill="#191970" stroke="#191970" points="2290.6008,-85.9219 2292.7404,-75.5453 2284.5969,-82.3228 2290.6008,-85.9219"/>
</g>
<!-- Node12&#45;&gt;Node11 -->
<g id="edge14" class="edge">
<title>Node12&#45;&gt;Node11</title>
<path fill="none" stroke="#191970" d="M2103.6563,-179.3906C2073.8618,-168.92 2026.0315,-152.1111 1992.9192,-140.4745"/>
<polygon fill="#191970" stroke="#191970" points="1993.7466,-137.0554 1983.1517,-137.0419 1991.4257,-143.6595 1993.7466,-137.0554"/>
</g>
<!-- Node13 -->
<g id="node14" class="node">
<title>Node13</title>
<polygon fill="none" stroke="#bfbfbf" points="2154,-56.5 2154,-75.5 2200,-75.5 2200,-56.5 2154,-56.5"/>
<text text-anchor="middle" x="2177" y="-63.5" font-family="Helvetica,sans-Serif" font-size="10.00" fill="#000000">cstdio</text>
</g>
<!-- Node12&#45;&gt;Node13 -->
<g id="edge15" class="edge">
<title>Node12&#45;&gt;Node13</title>
<path fill="none" stroke="#191970" d="M2170.8672,-179.3369C2189.8355,-172.5199 2210.7789,-161.2455 2222,-143 2229.2177,-131.2641 2227.2025,-124.7578 2222,-112 2217.2844,-100.4363 2208.1073,-90.2008 2199.2638,-82.3383"/>
<polygon fill="#191970" stroke="#191970" points="2201.3109,-79.4894 2191.3737,-75.8147 2196.8504,-84.8842 2201.3109,-79.4894"/>
</g>
<!-- Node12&#45;&gt;Node14 -->
<g id="edge16" class="edge">
<title>Node12&#45;&gt;Node14</title>
<path fill="none" stroke="#191970" d="M2131,-179.3906C2131,-170.8657 2131,-158.1392 2131,-147.4235"/>
<polygon fill="#191970" stroke="#191970" points="2134.5001,-147.2448 2131,-137.2449 2127.5001,-147.2449 2134.5001,-147.2448"/>
</g>
<!-- Node12&#45;&gt;Node15 -->
<g id="edge20" class="edge">
<title>Node12&#45;&gt;Node15</title>
<path fill="none" stroke="#191970" d="M2108.9443,-179.4823C2090.0478,-170.9504 2062.4152,-157.5631 2040,-143 2021.7229,-131.1253 2020.7104,-123.1796 2002,-112 1979.328,-98.4534 1951.9314,-87.0547 1930.0289,-78.9929"/>
<polygon fill="#191970" stroke="#191970" points="1930.9834,-75.6168 1920.389,-75.5279 1928.6156,-82.2042 1930.9834,-75.6168"/>
</g>
<!-- Node14&#45;&gt;Node10 -->
<g id="edge17" class="edge">
<title>Node14&#45;&gt;Node10</title>
<path fill="none" stroke="#191970" d="M2157.0938,-117.8906C2185.4036,-107.4652 2230.7768,-90.7559 2262.3592,-79.1252"/>
<polygon fill="#191970" stroke="#191970" points="2263.9151,-82.2821 2272.0895,-75.5419 2261.496,-75.7133 2263.9151,-82.2821"/>
</g>
<!-- Node14&#45;&gt;Node13 -->
<g id="edge18" class="edge">
<title>Node14&#45;&gt;Node13</title>
<path fill="none" stroke="#191970" d="M2138.1875,-117.8906C2144.9666,-108.8273 2155.2978,-95.0149 2163.5973,-83.9188"/>
<polygon fill="#191970" stroke="#191970" points="2166.5243,-85.849 2169.7112,-75.7449 2160.9188,-81.6563 2166.5243,-85.849"/>
</g>
<!-- Node14&#45;&gt;Node15 -->
<g id="edge19" class="edge">
<title>Node14&#45;&gt;Node15</title>
<path fill="none" stroke="#191970" d="M2093.7633,-117.9581C2049.4525,-106.6035 1975.7869,-87.7267 1930.5027,-76.1226"/>
<polygon fill="#191970" stroke="#191970" points="1931.2959,-72.7128 1920.7401,-73.6209 1929.5583,-79.4937 1931.2959,-72.7128"/>
</g>
<!-- Node17 -->
<g id="node18" class="node">
<title>Node17</title>
<g id="a_node18"><a xlink:href="../../d2/d45/GPUCommonRtypes_8h.html" target="_top" xlink:title="GPUCommonRtypes.h">
<polygon fill="none" stroke="#000000" points="1699.5,-118 1699.5,-137 1824.5,-137 1824.5,-118 1699.5,-118"/>
<text text-anchor="middle" x="1762" y="-125" font-family="Helvetica,sans-Serif" font-size="10.00" fill="#000000">GPUCommonRtypes.h</text>
</a>
</g>
</g>
<!-- Node16&#45;&gt;Node17 -->
<g id="edge25" class="edge">
<title>Node16&#45;&gt;Node17</title>
<path fill="none" stroke="#191970" d="M1634.3526,-235.3256C1635.3499,-221.3361 1639.0939,-195.3482 1653,-179 1668.6404,-160.613 1692.3124,-148.3404 1713.6044,-140.405"/>
<polygon fill="#191970" stroke="#191970" points="1714.8969,-143.661 1723.1824,-137.0578 1712.5876,-137.0529 1714.8969,-143.661"/>
</g>
<!-- Node18 -->
<g id="node19" class="node">
<title>Node18</title>
<g id="a_node19"><a xlink:href="../../dc/d73/Cartesian_8h.html" target="_top" xlink:title="MathUtils/Cartesian.h">
<polygon fill="none" stroke="#000000" points="917,-179.5 917,-198.5 1039,-198.5 1039,-179.5 917,-179.5"/>
<text text-anchor="middle" x="978" y="-186.5" font-family="Helvetica,sans-Serif" font-size="10.00" fill="#000000">MathUtils/Cartesian.h</text>
</a>
</g>
</g>
<!-- Node16&#45;&gt;Node18 -->
<g id="edge27" class="edge">
<title>Node16&#45;&gt;Node18</title>
<path fill="none" stroke="#191970" d="M1577.1532,-236.1192C1574.0599,-235.7195 1570.9936,-235.343 1568,-235 1381.4164,-213.6198 1160.4772,-199.3191 1049.3742,-192.8885"/>
<polygon fill="#191970" stroke="#191970" points="1049.4786,-189.3888 1039.2943,-192.3092 1049.077,-196.3773 1049.4786,-189.3888"/>
</g>
<!-- Node32 -->
<g id="node33" class="node">
<title>Node32</title>
<polygon fill="none" stroke="#bfbfbf" points="1662,-179.5 1662,-198.5 1706,-198.5 1706,-179.5 1662,-179.5"/>
<text text-anchor="middle" x="1684" y="-186.5" font-family="Helvetica,sans-Serif" font-size="10.00" fill="#000000">string</text>
</g>
<!-- Node16&#45;&gt;Node32 -->
<g id="edge43" class="edge">
<title>Node16&#45;&gt;Node32</title>
<path fill="none" stroke="#191970" d="M1642.7093,-235.2455C1649.8073,-227.2958 1660.0084,-215.8706 1668.495,-206.3656"/>
<polygon fill="#191970" stroke="#191970" points="1671.3411,-208.4331 1675.3905,-198.6427 1666.1195,-203.771 1671.3411,-208.4331"/>
</g>
<!-- Node17&#45;&gt;Node15 -->
<g id="edge26" class="edge">
<title>Node17&#45;&gt;Node15</title>
<path fill="none" stroke="#191970" d="M1782.1563,-117.8906C1803.551,-107.6908 1837.562,-91.4763 1861.8702,-79.8875"/>
<polygon fill="#191970" stroke="#191970" points="1863.4648,-83.0047 1870.9853,-75.5419 1860.4524,-76.686 1863.4648,-83.0047"/>
</g>
<!-- Node18&#45;&gt;Node17 -->
<g id="edge31" class="edge">
<title>Node18&#45;&gt;Node17</title>
<path fill="none" stroke="#191970" d="M1039.2618,-188.0805C1162.8745,-185.5567 1450.7614,-176.2942 1690,-143 1697.4848,-141.9584 1705.3512,-140.5715 1713.024,-139.0544"/>
<polygon fill="#191970" stroke="#191970" points="1713.866,-142.4545 1722.9508,-137.0031 1712.4494,-135.5993 1713.866,-142.4545"/>
</g>
<!-- Node19 -->
<g id="node20" class="node">
<title>Node19</title>
<g id="a_node20"><a xlink:href="../../df/d21/GPUCommonDef_8h.html" target="_top" xlink:title="GPUCommonDef.h">
<polygon fill="none" stroke="#000000" points="713.5,-56.5 713.5,-75.5 820.5,-75.5 820.5,-56.5 713.5,-56.5"/>
<text text-anchor="middle" x="767" y="-63.5" font-family="Helvetica,sans-Serif" font-size="10.00" fill="#000000">GPUCommonDef.h</text>
</a>
</g>
</g>
<!-- Node18&#45;&gt;Node19 -->
<g id="edge28" class="edge">
<title>Node18&#45;&gt;Node19</title>
<path fill="none" stroke="#191970" d="M1039.4389,-187.4502C1160.0093,-183.7718 1418.2601,-172.5032 1445,-143 1454.2525,-132.7913 1454.4068,-122.0667 1445,-112 1424.2112,-89.7529 995.9434,-73.4697 830.9914,-68.0014"/>
<polygon fill="#191970" stroke="#191970" points="830.6239,-64.4875 820.5142,-67.6569 830.3938,-71.4837 830.6239,-64.4875"/>
</g>
<!-- Node22 -->
<g id="node23" class="node">
<title>Node22</title>
<polygon fill="none" stroke="#bfbfbf" points="326,-112.5 326,-142.5 490,-142.5 490,-112.5 326,-112.5"/>
<text text-anchor="start" x="334" y="-130.5" font-family="Helvetica,sans-Serif" font-size="10.00" fill="#000000">Math/GenVector/Displacement</text>
<text text-anchor="middle" x="408" y="-119.5" font-family="Helvetica,sans-Serif" font-size="10.00" fill="#000000">Vector3D.h</text>
</g>
<!-- Node18&#45;&gt;Node22 -->
<g id="edge32" class="edge">
<title>Node18&#45;&gt;Node22</title>
<path fill="none" stroke="#191970" d="M916.9689,-184.5733C827.745,-177.7845 656.2548,-163.5374 500.5323,-143.1467"/>
<polygon fill="#191970" stroke="#191970" points="500.6713,-139.6347 490.299,-141.7947 499.7544,-146.5744 500.6713,-139.6347"/>
</g>
<!-- Node23 -->
<g id="node24" class="node">
<title>Node23</title>
<polygon fill="none" stroke="#bfbfbf" points="508.5,-118 508.5,-137 697.5,-137 697.5,-118 508.5,-118"/>
<text text-anchor="middle" x="603" y="-125" font-family="Helvetica,sans-Serif" font-size="10.00" fill="#000000">Math/GenVector/PositionVector3D.h</text>
</g>
<!-- Node18&#45;&gt;Node23 -->
<g id="edge33" class="edge">
<title>Node18&#45;&gt;Node23</title>
<path fill="none" stroke="#191970" d="M919.8177,-179.4581C852.6602,-168.4443 742.3479,-150.3531 671.2117,-138.6867"/>
<polygon fill="#191970" stroke="#191970" points="671.4449,-135.1783 661.0102,-137.0137 670.312,-142.086 671.4449,-135.1783"/>
</g>
<!-- Node24 -->
<g id="node25" class="node">
<title>Node24</title>
<polygon fill="none" stroke="#bfbfbf" points="716,-118 716,-137 876,-137 876,-118 716,-118"/>
<text text-anchor="middle" x="796" y="-125" font-family="Helvetica,sans-Serif" font-size="10.00" fill="#000000">Math/GenVector/Rotation3D.h</text>
</g>
<!-- Node18&#45;&gt;Node24 -->
<g id="edge34" class="edge">
<title>Node18&#45;&gt;Node24</title>
<path fill="none" stroke="#191970" d="M949.5625,-179.3906C918.4428,-168.8749 868.4036,-151.966 833.9515,-140.3243"/>
<polygon fill="#191970" stroke="#191970" points="834.832,-136.9274 824.2378,-137.0419 832.5911,-143.5591 834.832,-136.9274"/>
</g>
<!-- Node25 -->
<g id="node26" class="node">
<title>Node25</title>
<polygon fill="none" stroke="#bfbfbf" points="894,-118 894,-137 1062,-137 1062,-118 894,-118"/>
<text text-anchor="middle" x="978" y="-125" font-family="Helvetica,sans-Serif" font-size="10.00" fill="#000000">Math/GenVector/Transform3D.h</text>
</g>
<!-- Node18&#45;&gt;Node25 -->
<g id="edge35" class="edge">
<title>Node18&#45;&gt;Node25</title>
<path fill="none" stroke="#191970" d="M978,-179.3906C978,-170.8657 978,-158.1392 978,-147.4235"/>
<polygon fill="#191970" stroke="#191970" points="981.5001,-147.2448 978,-137.2449 974.5001,-147.2449 981.5001,-147.2448"/>
</g>
<!-- Node26 -->
<g id="node27" class="node">
<title>Node26</title>
<polygon fill="none" stroke="#bfbfbf" points="1080.5,-118 1080.5,-137 1253.5,-137 1253.5,-118 1080.5,-118"/>
<text text-anchor="middle" x="1167" y="-125" font-family="Helvetica,sans-Serif" font-size="10.00" fill="#000000">Math/GenVector/Translation3D.h</text>
</g>
<!-- Node18&#45;&gt;Node26 -->
<g id="edge36" class="edge">
<title>Node18&#45;&gt;Node26</title>
<path fill="none" stroke="#191970" d="M1007.5313,-179.3906C1039.9866,-168.8298 1092.2581,-151.8208 1128.0486,-140.1747"/>
<polygon fill="#191970" stroke="#191970" points="1129.2499,-143.4645 1137.6761,-137.0419 1127.0839,-136.808 1129.2499,-143.4645"/>
</g>
<!-- Node27 -->
<g id="node28" class="node">
<title>Node27</title>
<polygon fill="none" stroke="#bfbfbf" points="1272,-112.5 1272,-142.5 1436,-142.5 1436,-112.5 1272,-112.5"/>
<text text-anchor="start" x="1280" y="-130.5" font-family="Helvetica,sans-Serif" font-size="10.00" fill="#000000">Math/GenVector/Displacement</text>
<text text-anchor="middle" x="1354" y="-119.5" font-family="Helvetica,sans-Serif" font-size="10.00" fill="#000000">Vector2D.h</text>
</g>
<!-- Node18&#45;&gt;Node27 -->
<g id="edge37" class="edge">
<title>Node18&#45;&gt;Node27</title>
<path fill="none" stroke="#191970" d="M1037.5813,-179.462C1092.8696,-170.5856 1177.7401,-156.8953 1261.7702,-143.0319"/>
<polygon fill="#191970" stroke="#191970" points="1262.4494,-146.4672 1271.7456,-141.3846 1261.3089,-139.5607 1262.4494,-146.4672"/>
</g>
<!-- Node28 -->
<g id="node29" class="node">
<title>Node28</title>
<polygon fill="none" stroke="#bfbfbf" points="1492.5,-118 1492.5,-137 1681.5,-137 1681.5,-118 1492.5,-118"/>
<text text-anchor="middle" x="1587" y="-125" font-family="Helvetica,sans-Serif" font-size="10.00" fill="#000000">Math/GenVector/PositionVector2D.h</text>
</g>
<!-- Node18&#45;&gt;Node28 -->
<g id="edge38" class="edge">
<title>Node18&#45;&gt;Node28</title>
<path fill="none" stroke="#191970" d="M1039.2933,-184.3443C1133.6725,-176.9536 1320.2056,-161.4664 1478,-143 1489.6428,-141.6375 1501.9628,-140.0382 1513.9673,-138.3938"/>
<polygon fill="#191970" stroke="#191970" points="1514.5319,-141.8491 1523.9551,-137.0062 1513.5686,-134.9157 1514.5319,-141.8491"/>
</g>
<!-- Node29 -->
<g id="node30" class="node">
<title>Node29</title>
<polygon fill="none" stroke="#bfbfbf" points="158,-118 158,-137 240,-137 240,-118 158,-118"/>
<text text-anchor="middle" x="199" y="-125" font-family="Helvetica,sans-Serif" font-size="10.00" fill="#000000">TGeoMatrix.h</text>
</g>
<!-- Node18&#45;&gt;Node29 -->
<g id="edge39" class="edge">
<title>Node18&#45;&gt;Node29</title>
<path fill="none" stroke="#191970" d="M916.8456,-187.0106C765.5052,-181.7869 376.5303,-166.4453 249,-143 244.556,-142.183 239.9522,-141.0987 235.4183,-139.8818"/>
<polygon fill="#191970" stroke="#191970" points="236.2731,-136.4855 225.6938,-137.058 234.3211,-143.2078 236.2731,-136.4855"/>
</g>
<!-- Node30 -->
<g id="node31" class="node">
<title>Node30</title>
<polygon fill="none" stroke="#bfbfbf" points="258.5,-118 258.5,-137 307.5,-137 307.5,-118 258.5,-118"/>
<text text-anchor="middle" x="283" y="-125" font-family="Helvetica,sans-Serif" font-size="10.00" fill="#000000">iosfwd</text>
</g>
<!-- Node18&#45;&gt;Node30 -->
<g id="edge40" class="edge">
<title>Node18&#45;&gt;Node30</title>
<path fill="none" stroke="#191970" d="M916.9446,-187.5321C775.6314,-183.686 429.5432,-171.5701 317,-143 314.8032,-142.4423 312.5728,-141.7482 310.3588,-140.9652"/>
<polygon fill="#191970" stroke="#191970" points="311.4944,-137.6484 300.9131,-137.1115 308.85,-144.1298 311.4944,-137.6484"/>
</g>
<!-- Node31 -->
<g id="node32" class="node">
<title>Node31</title>
<g id="a_node32"><a xlink:href="../../d1/da8/GPUROOTCartesianFwd_8h.html" target="_top" xlink:title="GPUROOTCartesianFwd.h">
<polygon fill="none" stroke="#000000" points="0,-118 0,-137 140,-137 140,-118 0,-118"/>
<text text-anchor="middle" x="70" y="-125" font-family="Helvetica,sans-Serif" font-size="10.00" fill="#000000">GPUROOTCartesianFwd.h</text>
</a>
</g>
</g>
<!-- Node18&#45;&gt;Node31 -->
<g id="edge41" class="edge">
<title>Node18&#45;&gt;Node31</title>
<path fill="none" stroke="#191970" d="M916.8972,-188.4956C779.2681,-186.7294 434.6979,-178.7794 149,-143 140.5272,-141.9389 131.5992,-140.5015 122.9158,-138.9278"/>
<polygon fill="#191970" stroke="#191970" points="123.3523,-135.4485 112.8765,-137.0323 122.0535,-142.3269 123.3523,-135.4485"/>
</g>
<!-- Node20 -->
<g id="node21" class="node">
<title>Node20</title>
<g id="a_node21"><a xlink:href="../../d5/d93/GPUCommonDefSettings_8h.html" target="_top" xlink:title="GPUCommonDefSettings.h">
<polygon fill="none" stroke="#000000" points="616,-.5 616,-19.5 764,-19.5 764,-.5 616,-.5"/>
<text text-anchor="middle" x="690" y="-7.5" font-family="Helvetica,sans-Serif" font-size="10.00" fill="#000000">GPUCommonDefSettings.h</text>
</a>
</g>
</g>
<!-- Node19&#45;&gt;Node20 -->
<g id="edge29" class="edge">
<title>Node19&#45;&gt;Node20</title>
<path fill="none" stroke="#191970" d="M753.5876,-56.2455C741.9943,-47.814 725.0252,-35.4729 711.5322,-25.6598"/>
<polygon fill="#191970" stroke="#191970" points="713.4047,-22.6938 703.2587,-19.6427 709.2874,-28.355 713.4047,-22.6938"/>
</g>
<!-- Node21 -->
<g id="node22" class="node">
<title>Node21</title>
<g id="a_node22"><a xlink:href="../../da/d5a/GPUCommonDefAPI_8h.html" target="_top" xlink:title="GPUCommonDefAPI.h">
<polygon fill="none" stroke="#000000" points="782,-.5 782,-19.5 906,-19.5 906,-.5 782,-.5"/>
<text text-anchor="middle" x="844" y="-7.5" font-family="Helvetica,sans-Serif" font-size="10.00" fill="#000000">GPUCommonDefAPI.h</text>
</a>
</g>
</g>
<!-- Node19&#45;&gt;Node21 -->
<g id="edge30" class="edge">
<title>Node19&#45;&gt;Node21</title>
<path fill="none" stroke="#191970" d="M780.4124,-56.2455C792.0057,-47.814 808.9748,-35.4729 822.4678,-25.6598"/>
<polygon fill="#191970" stroke="#191970" points="824.7126,-28.355 830.7413,-19.6427 820.5953,-22.6938 824.7126,-28.355"/>
</g>
<!-- Node31&#45;&gt;Node19 -->
<g id="edge42" class="edge">
<title>Node31&#45;&gt;Node19</title>
<path fill="none" stroke="#191970" d="M113.721,-117.9551C125.1572,-115.7243 137.5033,-113.5501 149,-112 350.3634,-84.8507 590.9577,-72.7241 703.3149,-68.2304"/>
<polygon fill="#191970" stroke="#191970" points="703.603,-71.7219 713.4578,-67.8317 703.328,-64.7273 703.603,-71.7219"/>
</g>
</g>
</svg>
