<?xml version="1.0" encoding="UTF-8" standalone="no"?>
<!DOCTYPE svg PUBLIC "-//W3C//DTD SVG 1.1//EN"
 "http://www.w3.org/Graphics/SVG/1.1/DTD/svg11.dtd">
<!-- Generated by graphviz version 2.40.1 (20161225.0304)
 -->
<!-- Title: /home/travis/build/AliceO2Group/AliceO2/Detectors/DCS/include/DetectorsDCS/DeliveryType.h Pages: 1 -->
<!--zoomable 517 -->
<svg id="main" version="1.1" xmlns="http://www.w3.org/2000/svg" xmlns:xlink="http://www.w3.org/1999/xlink" xml:space="preserve" onload="init(evt)">
<style type="text/css"><![CDATA[
.edge:hover path { stroke: red; }
.edge:hover polygon { stroke: red; fill: red; }
]]></style>
<script type="text/javascript"><![CDATA[
var edges = document.getElementsByTagName('g');
if (edges && edges.length) {
  for (var i=0;i<edges.length;i++) {
    if (edges[i].id.substr(0,4)=='edge') {
      edges[i].setAttribute('class','edge');
    }
  }
}
]]></script>
        <defs>
                <circle id="rim" cx="0" cy="0" r="7"/>
                <circle id="rim2" cx="0" cy="0" r="3.5"/>
                <g id="zoomPlus">
                        <use xlink:href="#rim" fill="#404040">
                                <set attributeName="fill" to="#808080" begin="zoomplus.mouseover" end="zoomplus.mouseout"/>
                        </use>
                        <path d="M-4,0h8M0,-4v8" fill="none" stroke="white" stroke-width="1.5" pointer-events="none"/>
                </g>
                <g id="zoomMin">
                        <use xlink:href="#rim" fill="#404040">
                                <set attributeName="fill" to="#808080" begin="zoomminus.mouseover" end="zoomminus.mouseout"/>
                        </use>
                        <path d="M-4,0h8" fill="none" stroke="white" stroke-width="1.5" pointer-events="none"/>
                </g>
                <g id="dirArrow">
                        <path fill="none" stroke="white" stroke-width="1.5" d="M0,-3.0v7 M-2.5,-0.5L0,-3.0L2.5,-0.5"/>
                </g>
               <g id="resetDef">
                       <use xlink:href="#rim2" fill="#404040">
                               <set attributeName="fill" to="#808080" begin="reset.mouseover" end="reset.mouseout"/>
                       </use>
               </g>
        </defs>

<script type="text/javascript">
var viewWidth = 1071;
var viewHeight = 517;
var sectionId = 'dynsection-1';
</script>
<script xlink:href="../../svgpan.js"/>
<svg id="graph" class="graph">
<g id="viewport">
<title>/home/travis/build/AliceO2Group/AliceO2/Detectors/DCS/include/DetectorsDCS/DeliveryType.h</title>
<!-- Node5 -->
<g id="node1" class="node">
<title>Node5</title>
<polygon fill="#bfbfbf" stroke="#000000" points="431.5,-456.5 431.5,-508.5 594.5,-508.5 594.5,-456.5 431.5,-456.5"/>
<text text-anchor="start" x="439.5" y="-496.5" font-family="Helvetica,sans-Serif" font-size="10.00" fill="#000000">/home/travis/build</text>
<text text-anchor="start" x="439.5" y="-485.5" font-family="Helvetica,sans-Serif" font-size="10.00" fill="#000000">/AliceO2Group/AliceO2</text>
<text text-anchor="start" x="439.5" y="-474.5" font-family="Helvetica,sans-Serif" font-size="10.00" fill="#000000">/Detectors/DCS/include</text>
<text text-anchor="middle" x="513" y="-463.5" font-family="Helvetica,sans-Serif" font-size="10.00" fill="#000000">/DetectorsDCS/DeliveryType.h</text>
</g>
<!-- Node6 -->
<g id="node2" class="node">
<title>Node6</title>
<g id="a_node2"><a xlink:href="../../d0/dee/DataPointCompositeObject_8h.html" target="_top" xlink:title="/home/travis/build\l/AliceO2Group/AliceO2\l/Detectors/DCS/include\l/DetectorsDCS/DataPointComposite\lObject.h">
<polygon fill="none" stroke="#000000" points="255.5,-267.5 255.5,-330.5 446.5,-330.5 446.5,-267.5 255.5,-267.5"/>
<text text-anchor="start" x="263.5" y="-318.5" font-family="Helvetica,sans-Serif" font-size="10.00" fill="#000000">/home/travis/build</text>
<text text-anchor="start" x="263.5" y="-307.5" font-family="Helvetica,sans-Serif" font-size="10.00" fill="#000000">/AliceO2Group/AliceO2</text>
<text text-anchor="start" x="263.5" y="-296.5" font-family="Helvetica,sans-Serif" font-size="10.00" fill="#000000">/Detectors/DCS/include</text>
<text text-anchor="start" x="263.5" y="-285.5" font-family="Helvetica,sans-Serif" font-size="10.00" fill="#000000">/DetectorsDCS/DataPointComposite</text>
<text text-anchor="middle" x="351" y="-274.5" font-family="Helvetica,sans-Serif" font-size="10.00" fill="#000000">Object.h</text>
</a>
</g>
</g>
<!-- Node5&#45;&gt;Node6 -->
<g id="edge1" class="edge">
<title>Node5&#45;&gt;Node6</title>
<path fill="none" stroke="#191970" d="M482.9533,-448.4656C453.2262,-414.7932 408.0829,-363.6587 379.065,-330.7897"/>
<polygon fill="#191970" stroke="#191970" points="480.5472,-451.0287 489.7893,-456.2089 485.7949,-446.3959 480.5472,-451.0287"/>
</g>
<!-- Node7 -->
<g id="node3" class="node">
<title>Node7</title>
<g id="a_node3"><a xlink:href="../../d7/da7/DCSProcessor_8h.html" target="_top" xlink:title="/home/travis/build\l/AliceO2Group/AliceO2\l/Detectors/DCS/include\l/DetectorsDCS/DCSProcessor.h">
<polygon fill="none" stroke="#000000" points="395,-178.5 395,-230.5 561,-230.5 561,-178.5 395,-178.5"/>
<text text-anchor="start" x="403" y="-218.5" font-family="Helvetica,sans-Serif" font-size="10.00" fill="#000000">/home/travis/build</text>
<text text-anchor="start" x="403" y="-207.5" font-family="Helvetica,sans-Serif" font-size="10.00" fill="#000000">/AliceO2Group/AliceO2</text>
<text text-anchor="start" x="403" y="-196.5" font-family="Helvetica,sans-Serif" font-size="10.00" fill="#000000">/Detectors/DCS/include</text>
<text text-anchor="middle" x="478" y="-185.5" font-family="Helvetica,sans-Serif" font-size="10.00" fill="#000000">/DetectorsDCS/DCSProcessor.h</text>
</a>
</g>
</g>
<!-- Node5&#45;&gt;Node7 -->
<g id="edge24" class="edge">
<title>Node5&#45;&gt;Node7</title>
<path fill="none" stroke="#191970" d="M508.4518,-446.3746C501.3025,-389.5883 487.6025,-280.7711 481.3094,-230.7866"/>
<polygon fill="#191970" stroke="#191970" points="504.9855,-446.862 509.7073,-456.3464 511.9306,-445.9875 504.9855,-446.862"/>
</g>
<!-- Node9 -->
<g id="node5" class="node">
<title>Node9</title>
<g id="a_node5"><a xlink:href="../../d8/d4e/DCSDataProcessorSpec_8h.html" target="_top" xlink:title="/home/travis/build\l/AliceO2Group/AliceO2\l/Detectors/DCS/testWorkflow\l/DCSDataProcessorSpec.h">
<polygon fill="none" stroke="#000000" points="158.5,-89.5 158.5,-141.5 315.5,-141.5 315.5,-89.5 158.5,-89.5"/>
<text text-anchor="start" x="166.5" y="-129.5" font-family="Helvetica,sans-Serif" font-size="10.00" fill="#000000">/home/travis/build</text>
<text text-anchor="start" x="166.5" y="-118.5" font-family="Helvetica,sans-Serif" font-size="10.00" fill="#000000">/AliceO2Group/AliceO2</text>
<text text-anchor="start" x="166.5" y="-107.5" font-family="Helvetica,sans-Serif" font-size="10.00" fill="#000000">/Detectors/DCS/testWorkflow</text>
<text text-anchor="middle" x="237" y="-96.5" font-family="Helvetica,sans-Serif" font-size="10.00" fill="#000000">/DCSDataProcessorSpec.h</text>
</a>
</g>
</g>
<!-- Node5&#45;&gt;Node9 -->
<g id="edge27" class="edge">
<title>Node5&#45;&gt;Node9</title>
<path fill="none" stroke="#191970" d="M421.2653,-473.506C323.1657,-462.8857 174.7277,-443.6403 123,-420 67.0509,-394.4305 42.9888,-386.7555 17,-331 -12.9989,-266.6413 9.5838,-224.7835 63,-178 89.6816,-154.6314 125.7481,-139.7919 158.1264,-130.4724"/>
<polygon fill="#191970" stroke="#191970" points="421.1687,-477.0156 431.4847,-474.6009 421.9145,-470.0554 421.1687,-477.0156"/>
</g>
<!-- Node12 -->
<g id="node8" class="node">
<title>Node12</title>
<g id="a_node8"><a xlink:href="../../db/d55/DCSDataGeneratorSpec_8h.html" target="_top" xlink:title="/home/travis/build\l/AliceO2Group/AliceO2\l/Detectors/DCS/testWorkflow\l/DCSDataGeneratorSpec.h">
<polygon fill="none" stroke="#000000" points="617.5,-178.5 617.5,-230.5 774.5,-230.5 774.5,-178.5 617.5,-178.5"/>
<text text-anchor="start" x="625.5" y="-218.5" font-family="Helvetica,sans-Serif" font-size="10.00" fill="#000000">/home/travis/build</text>
<text text-anchor="start" x="625.5" y="-207.5" font-family="Helvetica,sans-Serif" font-size="10.00" fill="#000000">/AliceO2Group/AliceO2</text>
<text text-anchor="start" x="625.5" y="-196.5" font-family="Helvetica,sans-Serif" font-size="10.00" fill="#000000">/Detectors/DCS/testWorkflow</text>
<text text-anchor="middle" x="696" y="-185.5" font-family="Helvetica,sans-Serif" font-size="10.00" fill="#000000">/DCSDataGeneratorSpec.h</text>
</a>
</g>
</g>
<!-- Node5&#45;&gt;Node12 -->
<g id="edge26" class="edge">
<title>Node5&#45;&gt;Node12</title>
<path fill="none" stroke="#191970" d="M604.3791,-467.1019C643.3556,-457.6743 688.0387,-442.8685 724,-420 768.6308,-391.6183 784.2209,-380.4447 803,-331 813.0993,-304.4088 817.1599,-291.6695 803,-267 794.2182,-251.7003 780.084,-239.7895 764.9274,-230.6663"/>
<polygon fill="#191970" stroke="#191970" points="603.544,-463.7027 594.6016,-469.3845 605.1354,-470.5194 603.544,-463.7027"/>
</g>
<!-- Node13 -->
<g id="node9" class="node">
<title>Node13</title>
<g id="a_node9"><a xlink:href="../../d1/d2d/DataPointIdentifier_8h.html" target="_top" xlink:title="/home/travis/build\l/AliceO2Group/AliceO2\l/Detectors/DCS/include\l/DetectorsDCS/DataPointIdentifier.h">
<polygon fill="none" stroke="#000000" points="132,-367.5 132,-419.5 322,-419.5 322,-367.5 132,-367.5"/>
<text text-anchor="start" x="140" y="-407.5" font-family="Helvetica,sans-Serif" font-size="10.00" fill="#000000">/home/travis/build</text>
<text text-anchor="start" x="140" y="-396.5" font-family="Helvetica,sans-Serif" font-size="10.00" fill="#000000">/AliceO2Group/AliceO2</text>
<text text-anchor="start" x="140" y="-385.5" font-family="Helvetica,sans-Serif" font-size="10.00" fill="#000000">/Detectors/DCS/include</text>
<text text-anchor="middle" x="227" y="-374.5" font-family="Helvetica,sans-Serif" font-size="10.00" fill="#000000">/DetectorsDCS/DataPointIdentifier.h</text>
</a>
</g>
</g>
<!-- Node5&#45;&gt;Node13 -->
<g id="edge10" class="edge">
<title>Node5&#45;&gt;Node13</title>
<path fill="none" stroke="#191970" d="M421.5311,-454.0359C385.9537,-442.9646 345.4638,-430.3646 310.6701,-419.5372"/>
<polygon fill="#191970" stroke="#191970" points="420.8383,-457.4858 431.4266,-457.1153 422.9182,-450.8019 420.8383,-457.4858"/>
</g>
<!-- Node15 -->
<g id="node11" class="node">
<title>Node15</title>
<g id="a_node11"><a xlink:href="../../d6/d8e/DataPointValue_8h.html" target="_top" xlink:title="/home/travis/build\l/AliceO2Group/AliceO2\l/Detectors/DCS/include\l/DetectorsDCS/DataPointValue.h">
<polygon fill="none" stroke="#000000" points="541,-367.5 541,-419.5 715,-419.5 715,-367.5 541,-367.5"/>
<text text-anchor="start" x="549" y="-407.5" font-family="Helvetica,sans-Serif" font-size="10.00" fill="#000000">/home/travis/build</text>
<text text-anchor="start" x="549" y="-396.5" font-family="Helvetica,sans-Serif" font-size="10.00" fill="#000000">/AliceO2Group/AliceO2</text>
<text text-anchor="start" x="549" y="-385.5" font-family="Helvetica,sans-Serif" font-size="10.00" fill="#000000">/Detectors/DCS/include</text>
<text text-anchor="middle" x="628" y="-374.5" font-family="Helvetica,sans-Serif" font-size="10.00" fill="#000000">/DetectorsDCS/DataPointValue.h</text>
</a>
</g>
</g>
<!-- Node5&#45;&gt;Node15 -->
<g id="edge17" class="edge">
<title>Node5&#45;&gt;Node15</title>
<path fill="none" stroke="#191970" d="M554.8053,-450.1463C567.8142,-440.0786 581.9837,-429.1126 594.3604,-419.5341"/>
<polygon fill="#191970" stroke="#191970" points="552.648,-447.3901 546.8818,-456.2784 556.9322,-452.926 552.648,-447.3901"/>
</g>
<!-- Node17 -->
<g id="node13" class="node">
<title>Node17</title>
<g id="a_node13"><a xlink:href="../../d3/dd5/DeliveryType_8cxx.html" target="_top" xlink:title="/home/travis/build\l/AliceO2Group/AliceO2\l/Detectors/DCS/src/DeliveryType.cxx">
<polygon fill="none" stroke="#000000" points="869,-373 869,-414 1063,-414 1063,-373 869,-373"/>
<text text-anchor="start" x="877" y="-402" font-family="Helvetica,sans-Serif" font-size="10.00" fill="#000000">/home/travis/build</text>
<text text-anchor="start" x="877" y="-391" font-family="Helvetica,sans-Serif" font-size="10.00" fill="#000000">/AliceO2Group/AliceO2</text>
<text text-anchor="middle" x="966" y="-380" font-family="Helvetica,sans-Serif" font-size="10.00" fill="#000000">/Detectors/DCS/src/DeliveryType.cxx</text>
</a>
</g>
</g>
<!-- Node5&#45;&gt;Node17 -->
<g id="edge25" class="edge">
<title>Node5&#45;&gt;Node17</title>
<path fill="none" stroke="#191970" d="M604.7558,-467.1065C673.7667,-455.1958 770.5585,-437.7822 855,-420 863.8212,-418.1424 873.0131,-416.108 882.1654,-414.0183"/>
<polygon fill="#191970" stroke="#191970" points="604.0417,-463.6778 594.7802,-468.8233 605.229,-470.5764 604.0417,-463.6778"/>
</g>
<!-- Node6&#45;&gt;Node7 -->
<g id="edge2" class="edge">
<title>Node6&#45;&gt;Node7</title>
<path fill="none" stroke="#191970" d="M402.0431,-261.0191C415.7408,-250.8267 430.2434,-240.0354 442.8645,-230.6442"/>
<polygon fill="#191970" stroke="#191970" points="399.5758,-258.4924 393.6424,-267.27 403.7545,-264.1083 399.5758,-258.4924"/>
</g>
<!-- Node6&#45;&gt;Node9 -->
<g id="edge9" class="edge">
<title>Node6&#45;&gt;Node9</title>
<path fill="none" stroke="#191970" d="M246.7275,-265.9201C232.1409,-256.8702 219.0611,-245.4298 210,-231 192.8068,-203.6201 206.8572,-166.3822 220.2956,-141.6757"/>
<polygon fill="#191970" stroke="#191970" points="245.0622,-269.0001 255.471,-270.9767 248.5667,-262.9405 245.0622,-269.0001"/>
</g>
<!-- Node11 -->
<g id="node7" class="node">
<title>Node11</title>
<g id="a_node7"><a xlink:href="../../d4/d16/DataPointCompositeObject_8cxx.html" target="_top" xlink:title="/home/travis/build\l/AliceO2Group/AliceO2\l/Detectors/DCS/src/DataPoint\lCompositeObject.cxx">
<polygon fill="none" stroke="#000000" points="219,-178.5 219,-230.5 377,-230.5 377,-178.5 219,-178.5"/>
<text text-anchor="start" x="227" y="-218.5" font-family="Helvetica,sans-Serif" font-size="10.00" fill="#000000">/home/travis/build</text>
<text text-anchor="start" x="227" y="-207.5" font-family="Helvetica,sans-Serif" font-size="10.00" fill="#000000">/AliceO2Group/AliceO2</text>
<text text-anchor="start" x="227" y="-196.5" font-family="Helvetica,sans-Serif" font-size="10.00" fill="#000000">/Detectors/DCS/src/DataPoint</text>
<text text-anchor="middle" x="298" y="-185.5" font-family="Helvetica,sans-Serif" font-size="10.00" fill="#000000">CompositeObject.cxx</text>
</a>
</g>
</g>
<!-- Node6&#45;&gt;Node11 -->
<g id="edge6" class="edge">
<title>Node6&#45;&gt;Node11</title>
<path fill="none" stroke="#191970" d="M328.2359,-258.4112C322.9601,-249.0043 317.4827,-239.238 312.6628,-230.6442"/>
<polygon fill="#191970" stroke="#191970" points="325.2599,-260.2602 333.2043,-267.27 331.3653,-256.836 325.2599,-260.2602"/>
</g>
<!-- Node6&#45;&gt;Node12 -->
<g id="edge7" class="edge">
<title>Node6&#45;&gt;Node12</title>
<path fill="none" stroke="#191970" d="M456.5691,-268.2371C458.0554,-267.821 459.533,-267.4084 461,-267 512.9562,-252.5357 571.5784,-236.9435 617.2753,-224.9509"/>
<polygon fill="#191970" stroke="#191970" points="455.331,-264.9496 446.6541,-271.0292 457.2284,-271.6875 455.331,-264.9496"/>
</g>
<!-- Node8 -->
<g id="node4" class="node">
<title>Node8</title>
<g id="a_node4"><a xlink:href="../../d0/d0b/DCSProcessor_8cxx.html" target="_top" xlink:title="/home/travis/build\l/AliceO2Group/AliceO2\l/Detectors/DCS/src/DCSProcessor.cxx">
<polygon fill="none" stroke="#000000" points="379.5,-95 379.5,-136 576.5,-136 576.5,-95 379.5,-95"/>
<text text-anchor="start" x="387.5" y="-124" font-family="Helvetica,sans-Serif" font-size="10.00" fill="#000000">/home/travis/build</text>
<text text-anchor="start" x="387.5" y="-113" font-family="Helvetica,sans-Serif" font-size="10.00" fill="#000000">/AliceO2Group/AliceO2</text>
<text text-anchor="middle" x="478" y="-102" font-family="Helvetica,sans-Serif" font-size="10.00" fill="#000000">/Detectors/DCS/src/DCSProcessor.cxx</text>
</a>
</g>
</g>
<!-- Node7&#45;&gt;Node8 -->
<g id="edge3" class="edge">
<title>Node7&#45;&gt;Node8</title>
<path fill="none" stroke="#191970" d="M478,-168.1335C478,-157.2443 478,-145.6825 478,-136.1771"/>
<polygon fill="#191970" stroke="#191970" points="474.5001,-168.2784 478,-178.2784 481.5001,-168.2785 474.5001,-168.2784"/>
</g>
<!-- Node7&#45;&gt;Node9 -->
<g id="edge4" class="edge">
<title>Node7&#45;&gt;Node9</title>
<path fill="none" stroke="#191970" d="M397.5986,-174.8082C368.4996,-164.0621 335.8795,-152.0157 307.6783,-141.6011"/>
<polygon fill="#191970" stroke="#191970" points="396.7271,-178.2174 407.3204,-178.3984 399.1522,-171.6508 396.7271,-178.2174"/>
</g>
<!-- Node10 -->
<g id="node6" class="node">
<title>Node10</title>
<g id="a_node6"><a xlink:href="../../da/dd6/dcs-data-workflow_8cxx.html" target="_top" xlink:title="/home/travis/build\l/AliceO2Group/AliceO2\l/Detectors/DCS/testWorkflow\l/dcs&#45;data&#45;workflow.cxx">
<polygon fill="none" stroke="#000000" points="410.5,-.5 410.5,-52.5 567.5,-52.5 567.5,-.5 410.5,-.5"/>
<text text-anchor="start" x="418.5" y="-40.5" font-family="Helvetica,sans-Serif" font-size="10.00" fill="#000000">/home/travis/build</text>
<text text-anchor="start" x="418.5" y="-29.5" font-family="Helvetica,sans-Serif" font-size="10.00" fill="#000000">/AliceO2Group/AliceO2</text>
<text text-anchor="start" x="418.5" y="-18.5" font-family="Helvetica,sans-Serif" font-size="10.00" fill="#000000">/Detectors/DCS/testWorkflow</text>
<text text-anchor="middle" x="489" y="-7.5" font-family="Helvetica,sans-Serif" font-size="10.00" fill="#000000">/dcs&#45;data&#45;workflow.cxx</text>
</a>
</g>
</g>
<!-- Node9&#45;&gt;Node10 -->
<g id="edge5" class="edge">
<title>Node9&#45;&gt;Node10</title>
<path fill="none" stroke="#191970" d="M320.6745,-85.9483C351.2016,-75.1669 385.4791,-63.061 415.0957,-52.6011"/>
<polygon fill="#191970" stroke="#191970" points="319.1692,-82.768 310.9056,-89.3984 321.5004,-89.3684 319.1692,-82.768"/>
</g>
<!-- Node12&#45;&gt;Node10 -->
<g id="edge8" class="edge">
<title>Node12&#45;&gt;Node10</title>
<path fill="none" stroke="#191970" d="M667.1103,-170.5299C645.7163,-146.388 615.1634,-113.9551 585,-89 569.2171,-75.9423 550.594,-63.2745 533.9711,-52.7965"/>
<polygon fill="#191970" stroke="#191970" points="664.4932,-172.8539 673.7225,-178.0568 669.7522,-168.234 664.4932,-172.8539"/>
</g>
<!-- Node13&#45;&gt;Node6 -->
<g id="edge11" class="edge">
<title>Node13&#45;&gt;Node6</title>
<path fill="none" stroke="#191970" d="M269.4844,-361.1227C282.3895,-351.2878 296.5508,-340.4956 309.3972,-330.7054"/>
<polygon fill="#191970" stroke="#191970" points="267.0439,-358.5821 261.2118,-367.4273 271.2869,-364.1496 267.0439,-358.5821"/>
</g>
<!-- Node13&#45;&gt;Node7 -->
<g id="edge12" class="edge">
<title>Node13&#45;&gt;Node7</title>
<path fill="none" stroke="#191970" d="M222.4988,-357.2695C221.1217,-329.2217 224.1668,-291.1967 246,-267 289.0397,-219.301 324.0143,-247.8931 386,-231 388.8866,-230.2133 391.8221,-229.4062 394.7854,-228.5855"/>
<polygon fill="#191970" stroke="#191970" points="219.0238,-357.7496 223.2132,-367.481 226.0067,-357.261 219.0238,-357.7496"/>
</g>
<!-- Node13&#45;&gt;Node9 -->
<g id="edge16" class="edge">
<title>Node13&#45;&gt;Node9</title>
<path fill="none" stroke="#191970" d="M121.9732,-371.5596C82.2151,-360.9443 43.687,-347.0185 32,-331 15.2349,-308.0214 19.1895,-292.3964 32,-267 49.3398,-232.6242 137.8132,-174.9888 192.7124,-141.5931"/>
<polygon fill="#191970" stroke="#191970" points="121.2596,-374.9903 131.8184,-374.1171 123.0197,-368.2152 121.2596,-374.9903"/>
</g>
<!-- Node13&#45;&gt;Node10 -->
<g id="edge14" class="edge">
<title>Node13&#45;&gt;Node10</title>
<path fill="none" stroke="#191970" d="M121.7833,-374.3651C76.3286,-363.7548 30.4527,-349.0396 17,-331 -25.4484,-274.078 21.5896,-235.6815 63,-178 95.0784,-133.3172 100.5232,-114.992 149,-89 193.166,-65.3193 324.397,-45.9375 410.3054,-35.3232"/>
<polygon fill="#191970" stroke="#191970" points="121.2423,-377.8313 131.7693,-376.6341 122.7933,-371.0053 121.2423,-377.8313"/>
</g>
<!-- Node13&#45;&gt;Node12 -->
<g id="edge15" class="edge">
<title>Node13&#45;&gt;Node12</title>
<path fill="none" stroke="#191970" d="M332.0697,-369.7604C371.2622,-359.5936 415.7505,-346.4704 455,-331 527.3178,-302.4955 606.2064,-258.3911 653.3608,-230.5047"/>
<polygon fill="#191970" stroke="#191970" points="331.0452,-366.4097 322.2261,-372.2811 332.7817,-373.1909 331.0452,-366.4097"/>
</g>
<!-- Node14 -->
<g id="node10" class="node">
<title>Node14</title>
<g id="a_node10"><a xlink:href="../../db/d45/DataPointIdentifier_8cxx.html" target="_top" xlink:title="/home/travis/build\l/AliceO2Group/AliceO2\l/Detectors/DCS/src/DataPoint\lIdentifier.cxx">
<polygon fill="none" stroke="#000000" points="41,-273 41,-325 199,-325 199,-273 41,-273"/>
<text text-anchor="start" x="49" y="-313" font-family="Helvetica,sans-Serif" font-size="10.00" fill="#000000">/home/travis/build</text>
<text text-anchor="start" x="49" y="-302" font-family="Helvetica,sans-Serif" font-size="10.00" fill="#000000">/AliceO2Group/AliceO2</text>
<text text-anchor="start" x="49" y="-291" font-family="Helvetica,sans-Serif" font-size="10.00" fill="#000000">/Detectors/DCS/src/DataPoint</text>
<text text-anchor="middle" x="120" y="-280" font-family="Helvetica,sans-Serif" font-size="10.00" fill="#000000">Identifier.cxx</text>
</a>
</g>
</g>
<!-- Node13&#45;&gt;Node14 -->
<g id="edge13" class="edge">
<title>Node13&#45;&gt;Node14</title>
<path fill="none" stroke="#191970" d="M189.948,-360.7765C176.8247,-349.1863 162.2387,-336.3043 149.7966,-325.3157"/>
<polygon fill="#191970" stroke="#191970" points="187.6663,-363.4309 197.4785,-367.4273 192.3001,-358.1842 187.6663,-363.4309"/>
</g>
<!-- Node15&#45;&gt;Node6 -->
<g id="edge18" class="edge">
<title>Node15&#45;&gt;Node6</title>
<path fill="none" stroke="#191970" d="M542.0101,-364.1641C510.727,-353.4917 475.2486,-341.3881 443.431,-330.5333"/>
<polygon fill="#191970" stroke="#191970" points="540.9807,-367.5109 551.5753,-367.4273 543.241,-360.8859 540.9807,-367.5109"/>
</g>
<!-- Node15&#45;&gt;Node7 -->
<g id="edge19" class="edge">
<title>Node15&#45;&gt;Node7</title>
<path fill="none" stroke="#191970" d="M598.5517,-359.5218C590.7814,-350.3541 582.4801,-340.3756 575,-331 552.8254,-303.2064 548.6365,-295.2145 527,-267 517.7706,-254.9648 507.4258,-241.7328 498.6282,-230.5547"/>
<polygon fill="#191970" stroke="#191970" points="596.0593,-361.9932 605.2096,-367.3339 601.387,-357.4527 596.0593,-361.9932"/>
</g>
<!-- Node15&#45;&gt;Node9 -->
<g id="edge23" class="edge">
<title>Node15&#45;&gt;Node9</title>
<path fill="none" stroke="#191970" d="M616.1594,-357.9026C613.3694,-349.1409 610.4863,-339.7592 608,-331 588.8678,-263.5968 621.1361,-225.8992 570,-178 504.0837,-116.2563 458.7364,-158.8251 370,-142 352.4196,-138.6666 333.5557,-134.9769 315.7198,-131.4361"/>
<polygon fill="#191970" stroke="#191970" points="612.8429,-359.0224 619.2436,-367.4653 619.505,-356.8737 612.8429,-359.0224"/>
</g>
<!-- Node15&#45;&gt;Node10 -->
<g id="edge21" class="edge">
<title>Node15&#45;&gt;Node10</title>
<path fill="none" stroke="#191970" d="M725.0376,-369.4929C759.7805,-358.7802 792.8927,-345.3423 803,-331 842.4722,-274.9888 824.5192,-233.2585 784,-178 731.6552,-106.6144 635.778,-66.3286 567.5392,-45.5354"/>
<polygon fill="#191970" stroke="#191970" points="723.7852,-366.2145 715.2129,-372.4407 725.7969,-372.9192 723.7852,-366.2145"/>
</g>
<!-- Node15&#45;&gt;Node12 -->
<g id="edge22" class="edge">
<title>Node15&#45;&gt;Node12</title>
<path fill="none" stroke="#191970" d="M724.66,-374.8142C747.878,-365.5545 769.9889,-351.7072 784,-331 799.9403,-307.4417 797.0497,-292.2743 784,-267 776.3486,-252.1811 763.3813,-240.1118 749.7189,-230.6715"/>
<polygon fill="#191970" stroke="#191970" points="723.1796,-371.6301 715.0184,-378.3863 725.6115,-378.1941 723.1796,-371.6301"/>
</g>
<!-- Node16 -->
<g id="node12" class="node">
<title>Node16</title>
<g id="a_node12"><a xlink:href="../../d6/d40/DataPointValue_8cxx.html" target="_top" xlink:title="/home/travis/build\l/AliceO2Group/AliceO2\l/Detectors/DCS/src/DataPoint\lValue.cxx">
<polygon fill="none" stroke="#000000" points="617,-273 617,-325 775,-325 775,-273 617,-273"/>
<text text-anchor="start" x="625" y="-313" font-family="Helvetica,sans-Serif" font-size="10.00" fill="#000000">/home/travis/build</text>
<text text-anchor="start" x="625" y="-302" font-family="Helvetica,sans-Serif" font-size="10.00" fill="#000000">/AliceO2Group/AliceO2</text>
<text text-anchor="start" x="625" y="-291" font-family="Helvetica,sans-Serif" font-size="10.00" fill="#000000">/Detectors/DCS/src/DataPoint</text>
<text text-anchor="middle" x="696" y="-280" font-family="Helvetica,sans-Serif" font-size="10.00" fill="#000000">Value.cxx</text>
</a>
</g>
</g>
<!-- Node15&#45;&gt;Node16 -->
<g id="edge20" class="edge">
<title>Node15&#45;&gt;Node16</title>
<path fill="none" stroke="#191970" d="M652.7221,-359.1436C660.7504,-347.9865 669.5262,-335.7908 677.0638,-325.3157"/>
<polygon fill="#191970" stroke="#191970" points="649.7612,-357.266 646.7613,-367.4273 655.4431,-361.3546 649.7612,-357.266"/>
</g>
</g>
</svg>
        <g id="navigator" transform="translate(0 0)" fill="#404254">
                <rect fill="#f2f5e9" fill-opacity="0.5" stroke="#606060" stroke-width=".5" x="0" y="0" width="60" height="60"/>
                <use id="zoomplus" xlink:href="#zoomPlus" x="17" y="9" onmousedown="handleZoom(evt,'in')"/>
                <use id="zoomminus" xlink:href="#zoomMin" x="42" y="9" onmousedown="handleZoom(evt,'out')"/>
                <use id="reset" xlink:href="#resetDef" x="30" y="36" onmousedown="handleReset()"/>
                <g id="arrowUp" xlink:href="#dirArrow" transform="translate(30 24)" onmousedown="handlePan(0,-1)">
                  <use xlink:href="#rim" fill="#404040">
                        <set attributeName="fill" to="#808080" begin="arrowUp.mouseover" end="arrowUp.mouseout"/>
                  </use>
                  <path fill="none" stroke="white" stroke-width="1.5" d="M0,-3.0v7 M-2.5,-0.5L0,-3.0L2.5,-0.5"/>
                </g>
                <g id="arrowRight" xlink:href="#dirArrow" transform="rotate(90) translate(36 -43)" onmousedown="handlePan(1,0)">
                  <use xlink:href="#rim" fill="#404040">
                        <set attributeName="fill" to="#808080" begin="arrowRight.mouseover" end="arrowRight.mouseout"/>
                  </use>
                  <path fill="none" stroke="white" stroke-width="1.5" d="M0,-3.0v7 M-2.5,-0.5L0,-3.0L2.5,-0.5"/>
                </g>
                <g id="arrowDown" xlink:href="#dirArrow" transform="rotate(180) translate(-30 -48)" onmousedown="handlePan(0,1)">
                  <use xlink:href="#rim" fill="#404040">
                        <set attributeName="fill" to="#808080" begin="arrowDown.mouseover" end="arrowDown.mouseout"/>
                  </use>
                  <path fill="none" stroke="white" stroke-width="1.5" d="M0,-3.0v7 M-2.5,-0.5L0,-3.0L2.5,-0.5"/>
                </g>
                <g id="arrowLeft" xlink:href="#dirArrow" transform="rotate(270) translate(-36 17)" onmousedown="handlePan(-1,0)">
                  <use xlink:href="#rim" fill="#404040">
                        <set attributeName="fill" to="#808080" begin="arrowLeft.mouseover" end="arrowLeft.mouseout"/>
                  </use>
                  <path fill="none" stroke="white" stroke-width="1.5" d="M0,-3.0v7 M-2.5,-0.5L0,-3.0L2.5,-0.5"/>
                </g>
        </g>
        <svg viewBox="0 0 15 15" width="100%" height="30px" preserveAspectRatio="xMaxYMin meet">
         <g id="arrow_out" transform="scale(0.3 0.3)">
          <a xlink:href="DeliveryType_8h__dep__incl_org.svg" target="_base">
           <rect id="button" ry="5" rx="5" y="6" x="6" height="38" width="38"
                fill="#f2f5e9" fill-opacity="0.5" stroke="#606060" stroke-width="1.0"/>
           <path id="arrow"
             d="M 11.500037,31.436501 C 11.940474,20.09759 22.043105,11.32322 32.158766,21.979434 L 37.068811,17.246167 C 37.068811,17.246167 37.088388,32 37.088388,32 L 22.160133,31.978069 C 22.160133,31.978069 26.997745,27.140456 26.997745,27.140456 C 18.528582,18.264221 13.291696,25.230495 11.500037,31.436501 z"
             style="fill:#404040;"/>
          </a>
         </g>
        </svg>
</svg>
