<?xml version="1.0" encoding="UTF-8" standalone="no"?>
<!DOCTYPE svg PUBLIC "-//W3C//DTD SVG 1.1//EN"
 "http://www.w3.org/Graphics/SVG/1.1/DTD/svg11.dtd">
<!-- Generated by graphviz version 2.40.1 (20161225.0304)
 -->
<!-- Title: TrackCutQATask Pages: 1 -->
<svg width="431pt" height="518pt"
 viewBox="0.00 0.00 430.50 518.00" xmlns="http://www.w3.org/2000/svg" xmlns:xlink="http://www.w3.org/1999/xlink">
<g id="graph0" class="graph" transform="scale(1 1) rotate(0) translate(4 514)">
<title>TrackCutQATask</title>
<!-- Node1 -->
<g id="node1" class="node">
<title>Node1</title>
<polygon fill="#bfbfbf" stroke="#000000" points="240.5,-.5 240.5,-68.5 334.5,-68.5 334.5,-.5 240.5,-.5"/>
<text text-anchor="middle" x="287.5" y="-56.5" font-family="Helvetica,sans-Serif" font-size="10.00" fill="#000000">TrackCutQATask</text>
<polyline fill="none" stroke="#000000" points="240.5,-49.5 334.5,-49.5 "/>
<text text-anchor="middle" x="287.5" y="-37.5" font-family="Helvetica,sans-Serif" font-size="10.00" fill="#000000"> </text>
<polyline fill="none" stroke="#000000" points="240.5,-30.5 334.5,-30.5 "/>
<text text-anchor="start" x="248.5" y="-18.5" font-family="Helvetica,sans-Serif" font-size="10.00" fill="#000000">+ init()</text>
<text text-anchor="start" x="248.5" y="-7.5" font-family="Helvetica,sans-Serif" font-size="10.00" fill="#000000">+ process()</text>
</g>
<!-- Node2 -->
<g id="node2" class="node">
<title>Node2</title>
<g id="a_node2"><a xlink:href="../../d7/d2d/classTrackSelection.html" target="_top" xlink:title="{TrackSelection\n||+ TrackSelection()\l+ IsSelected()\l+ IsSelected()\l+ SetTrackType()\l+ SetPtRange()\l+ SetEtaRange()\l+ SetRequireITSRefit()\l+ SetRequireTPCRefit()\l+ SetRequireGoldenChi2()\l+ SetMinNClustersTPC()\l+ SetMinNCrossedRowsTPC()\l+ SetMinNCrossedRowsOverFindable\lClustersTPC()\l+ SetMinNClustersITS()\l+ SetMaxChi2PerClusterTPC()\l+ SetMaxChi2PerClusterITS()\l+ SetMaxDcaXY()\l+ SetMaxDcaZ()\l+ SetMaxDcaXYPtDep()\l+ SetRequireHitsInITSLayers()\l+ SetRequireNoHitsInITSLayers()\l+ ResetITSRequirements()\l}">
<polygon fill="none" stroke="#000000" points="0,-116.5 0,-404.5 197,-404.5 197,-116.5 0,-116.5"/>
<text text-anchor="middle" x="98.5" y="-392.5" font-family="Helvetica,sans-Serif" font-size="10.00" fill="#000000">TrackSelection</text>
<polyline fill="none" stroke="#000000" points="0,-385.5 197,-385.5 "/>
<text text-anchor="middle" x="98.5" y="-373.5" font-family="Helvetica,sans-Serif" font-size="10.00" fill="#000000"> </text>
<polyline fill="none" stroke="#000000" points="0,-366.5 197,-366.5 "/>
<text text-anchor="start" x="8" y="-354.5" font-family="Helvetica,sans-Serif" font-size="10.00" fill="#000000">+ TrackSelection()</text>
<text text-anchor="start" x="8" y="-343.5" font-family="Helvetica,sans-Serif" font-size="10.00" fill="#000000">+ IsSelected()</text>
<text text-anchor="start" x="8" y="-332.5" font-family="Helvetica,sans-Serif" font-size="10.00" fill="#000000">+ IsSelected()</text>
<text text-anchor="start" x="8" y="-321.5" font-family="Helvetica,sans-Serif" font-size="10.00" fill="#000000">+ SetTrackType()</text>
<text text-anchor="start" x="8" y="-310.5" font-family="Helvetica,sans-Serif" font-size="10.00" fill="#000000">+ SetPtRange()</text>
<text text-anchor="start" x="8" y="-299.5" font-family="Helvetica,sans-Serif" font-size="10.00" fill="#000000">+ SetEtaRange()</text>
<text text-anchor="start" x="8" y="-288.5" font-family="Helvetica,sans-Serif" font-size="10.00" fill="#000000">+ SetRequireITSRefit()</text>
<text text-anchor="start" x="8" y="-277.5" font-family="Helvetica,sans-Serif" font-size="10.00" fill="#000000">+ SetRequireTPCRefit()</text>
<text text-anchor="start" x="8" y="-266.5" font-family="Helvetica,sans-Serif" font-size="10.00" fill="#000000">+ SetRequireGoldenChi2()</text>
<text text-anchor="start" x="8" y="-255.5" font-family="Helvetica,sans-Serif" font-size="10.00" fill="#000000">+ SetMinNClustersTPC()</text>
<text text-anchor="start" x="8" y="-244.5" font-family="Helvetica,sans-Serif" font-size="10.00" fill="#000000">+ SetMinNCrossedRowsTPC()</text>
<text text-anchor="start" x="8" y="-233.5" font-family="Helvetica,sans-Serif" font-size="10.00" fill="#000000">+ SetMinNCrossedRowsOverFindable</text>
<text text-anchor="start" x="8" y="-222.5" font-family="Helvetica,sans-Serif" font-size="10.00" fill="#000000">ClustersTPC()</text>
<text text-anchor="start" x="8" y="-211.5" font-family="Helvetica,sans-Serif" font-size="10.00" fill="#000000">+ SetMinNClustersITS()</text>
<text text-anchor="start" x="8" y="-200.5" font-family="Helvetica,sans-Serif" font-size="10.00" fill="#000000">+ SetMaxChi2PerClusterTPC()</text>
<text text-anchor="start" x="8" y="-189.5" font-family="Helvetica,sans-Serif" font-size="10.00" fill="#000000">+ SetMaxChi2PerClusterITS()</text>
<text text-anchor="start" x="8" y="-178.5" font-family="Helvetica,sans-Serif" font-size="10.00" fill="#000000">+ SetMaxDcaXY()</text>
<text text-anchor="start" x="8" y="-167.5" font-family="Helvetica,sans-Serif" font-size="10.00" fill="#000000">+ SetMaxDcaZ()</text>
<text text-anchor="start" x="8" y="-156.5" font-family="Helvetica,sans-Serif" font-size="10.00" fill="#000000">+ SetMaxDcaXYPtDep()</text>
<text text-anchor="start" x="8" y="-145.5" font-family="Helvetica,sans-Serif" font-size="10.00" fill="#000000">+ SetRequireHitsInITSLayers()</text>
<text text-anchor="start" x="8" y="-134.5" font-family="Helvetica,sans-Serif" font-size="10.00" fill="#000000">+ SetRequireNoHitsInITSLayers()</text>
<text text-anchor="start" x="8" y="-123.5" font-family="Helvetica,sans-Serif" font-size="10.00" fill="#000000">+ ResetITSRequirements()</text>
</a>
</g>
</g>
<!-- Node2&#45;&gt;Node1 -->
<g id="edge1" class="edge">
<title>Node2&#45;&gt;Node1</title>
<path fill="none" stroke="#404040" d="M174.5184,-116.0905C182.3355,-105.7619 190.6755,-95.9198 199.5,-87 208.3179,-78.087 218.9501,-70.1025 229.7295,-63.2108"/>
<polygon fill="none" stroke="#404040" points="229.7967,-63.1701 232.8503,-56.6374 240.0549,-56.9435 237.0013,-63.4762 229.7967,-63.1701"/>
<text text-anchor="middle" x="241.5" y="-90" font-family="Helvetica,sans-Serif" font-size="10.00" fill="#000000"> +selectedTracks</text>
</g>
<!-- Node3 -->
<g id="node3" class="node">
<title>Node3</title>
<polygon fill="none" stroke="#bfbfbf" points="76.5,-452.5 76.5,-509.5 120.5,-509.5 120.5,-452.5 76.5,-452.5"/>
<text text-anchor="middle" x="98.5" y="-497.5" font-family="Helvetica,sans-Serif" font-size="10.00" fill="#000000">string</text>
<polyline fill="none" stroke="#bfbfbf" points="76.5,-490.5 120.5,-490.5 "/>
<text text-anchor="middle" x="98.5" y="-478.5" font-family="Helvetica,sans-Serif" font-size="10.00" fill="#000000"> </text>
<polyline fill="none" stroke="#bfbfbf" points="76.5,-471.5 120.5,-471.5 "/>
<text text-anchor="middle" x="98.5" y="-459.5" font-family="Helvetica,sans-Serif" font-size="10.00" fill="#000000"> </text>
</g>
<!-- Node3&#45;&gt;Node2 -->
<g id="edge2" class="edge">
<title>Node3&#45;&gt;Node2</title>
<path fill="none" stroke="#404040" d="M98.5,-452.1735C98.5,-442.1633 98.5,-430.1298 98.5,-417.0314"/>
<polygon fill="none" stroke="#404040" points="98.5001,-416.7304 94.5,-410.7305 98.5,-404.7304 102.5,-410.7304 98.5001,-416.7304"/>
<text text-anchor="middle" x="135" y="-426" font-family="Helvetica,sans-Serif" font-size="10.00" fill="#000000"> +mCutNames</text>
</g>
<!-- Node4 -->
<g id="node4" class="node">
<title>Node4</title>
<g id="a_node4"><a xlink:href="../../d8/d34/classo2_1_1framework_1_1HistogramRegistry.html" target="_top" xlink:title="{o2::framework::Histogram\lRegistry\n||+ HistogramRegistry()\l+ add()\l+ add()\l+ add()\l+ addClone()\l+ contains()\l+ get()\l+ operator()()\l+ spec()\l+ ref()\l+ setHash()\l+ operator*()\l+ fill()\l+ fill()\l+ getSize()\l+ getSize()\l+ print()\l}">
<polygon fill="none" stroke="#000000" points="215,-138.5 215,-382.5 360,-382.5 360,-138.5 215,-138.5"/>
<text text-anchor="start" x="223" y="-370.5" font-family="Helvetica,sans-Serif" font-size="10.00" fill="#000000">o2::framework::Histogram</text>
<text text-anchor="middle" x="287.5" y="-359.5" font-family="Helvetica,sans-Serif" font-size="10.00" fill="#000000">Registry</text>
<polyline fill="none" stroke="#000000" points="215,-352.5 360,-352.5 "/>
<text text-anchor="middle" x="287.5" y="-340.5" font-family="Helvetica,sans-Serif" font-size="10.00" fill="#000000"> </text>
<polyline fill="none" stroke="#000000" points="215,-333.5 360,-333.5 "/>
<text text-anchor="start" x="223" y="-321.5" font-family="Helvetica,sans-Serif" font-size="10.00" fill="#000000">+ HistogramRegistry()</text>
<text text-anchor="start" x="223" y="-310.5" font-family="Helvetica,sans-Serif" font-size="10.00" fill="#000000">+ add()</text>
<text text-anchor="start" x="223" y="-299.5" font-family="Helvetica,sans-Serif" font-size="10.00" fill="#000000">+ add()</text>
<text text-anchor="start" x="223" y="-288.5" font-family="Helvetica,sans-Serif" font-size="10.00" fill="#000000">+ add()</text>
<text text-anchor="start" x="223" y="-277.5" font-family="Helvetica,sans-Serif" font-size="10.00" fill="#000000">+ addClone()</text>
<text text-anchor="start" x="223" y="-266.5" font-family="Helvetica,sans-Serif" font-size="10.00" fill="#000000">+ contains()</text>
<text text-anchor="start" x="223" y="-255.5" font-family="Helvetica,sans-Serif" font-size="10.00" fill="#000000">+ get()</text>
<text text-anchor="start" x="223" y="-244.5" font-family="Helvetica,sans-Serif" font-size="10.00" fill="#000000">+ operator()()</text>
<text text-anchor="start" x="223" y="-233.5" font-family="Helvetica,sans-Serif" font-size="10.00" fill="#000000">+ spec()</text>
<text text-anchor="start" x="223" y="-222.5" font-family="Helvetica,sans-Serif" font-size="10.00" fill="#000000">+ ref()</text>
<text text-anchor="start" x="223" y="-211.5" font-family="Helvetica,sans-Serif" font-size="10.00" fill="#000000">+ setHash()</text>
<text text-anchor="start" x="223" y="-200.5" font-family="Helvetica,sans-Serif" font-size="10.00" fill="#000000">+ operator*()</text>
<text text-anchor="start" x="223" y="-189.5" font-family="Helvetica,sans-Serif" font-size="10.00" fill="#000000">+ fill()</text>
<text text-anchor="start" x="223" y="-178.5" font-family="Helvetica,sans-Serif" font-size="10.00" fill="#000000">+ fill()</text>
<text text-anchor="start" x="223" y="-167.5" font-family="Helvetica,sans-Serif" font-size="10.00" fill="#000000">+ getSize()</text>
<text text-anchor="start" x="223" y="-156.5" font-family="Helvetica,sans-Serif" font-size="10.00" fill="#000000">+ getSize()</text>
<text text-anchor="start" x="223" y="-145.5" font-family="Helvetica,sans-Serif" font-size="10.00" fill="#000000">+ print()</text>
</a>
</g>
</g>
<!-- Node4&#45;&gt;Node1 -->
<g id="edge3" class="edge">
<title>Node4&#45;&gt;Node1</title>
<path fill="none" stroke="#404040" d="M287.5,-138.2397C287.5,-117.8515 287.5,-97.8681 287.5,-80.9683"/>
<polygon fill="none" stroke="#404040" points="287.5001,-80.6903 283.5,-74.6903 287.5,-68.6903 291.5,-74.6902 287.5001,-80.6903"/>
<text text-anchor="middle" x="303.5" y="-90" font-family="Helvetica,sans-Serif" font-size="10.00" fill="#000000"> +cuts</text>
</g>
<!-- Node5 -->
<g id="node5" class="node">
<title>Node5</title>
<polygon fill="none" stroke="#bfbfbf" points="259.5,-452.5 259.5,-509.5 315.5,-509.5 315.5,-452.5 259.5,-452.5"/>
<text text-anchor="middle" x="287.5" y="-497.5" font-family="Helvetica,sans-Serif" font-size="10.00" fill="#000000">uint32_t</text>
<polyline fill="none" stroke="#bfbfbf" points="259.5,-490.5 315.5,-490.5 "/>
<text text-anchor="middle" x="287.5" y="-478.5" font-family="Helvetica,sans-Serif" font-size="10.00" fill="#000000"> </text>
<polyline fill="none" stroke="#bfbfbf" points="259.5,-471.5 315.5,-471.5 "/>
<text text-anchor="middle" x="287.5" y="-459.5" font-family="Helvetica,sans-Serif" font-size="10.00" fill="#000000"> </text>
</g>
<!-- Node5&#45;&gt;Node4 -->
<g id="edge4" class="edge">
<title>Node5&#45;&gt;Node4</title>
<path fill="none" stroke="#404040" d="M287.5,-452.1735C287.5,-436.7095 287.5,-416.4168 287.5,-394.8292"/>
<polygon fill="none" stroke="#404040" points="287.5001,-394.7253 283.5,-388.7253 287.5,-382.7253 291.5,-388.7253 287.5001,-394.7253"/>
<text text-anchor="middle" x="310" y="-426" font-family="Helvetica,sans-Serif" font-size="10.00" fill="#000000"> +lookup</text>
</g>
<!-- Node6 -->
<g id="node6" class="node">
<title>Node6</title>
<polygon fill="none" stroke="#bfbfbf" points="378.5,-232 378.5,-289 422.5,-289 422.5,-232 378.5,-232"/>
<text text-anchor="middle" x="400.5" y="-277" font-family="Helvetica,sans-Serif" font-size="10.00" fill="#000000">static</text>
<polyline fill="none" stroke="#bfbfbf" points="378.5,-270 422.5,-270 "/>
<text text-anchor="middle" x="400.5" y="-258" font-family="Helvetica,sans-Serif" font-size="10.00" fill="#000000"> </text>
<polyline fill="none" stroke="#bfbfbf" points="378.5,-251 422.5,-251 "/>
<text text-anchor="middle" x="400.5" y="-239" font-family="Helvetica,sans-Serif" font-size="10.00" fill="#000000"> </text>
</g>
<!-- Node6&#45;&gt;Node1 -->
<g id="edge5" class="edge">
<title>Node6&#45;&gt;Node1</title>
<path fill="none" stroke="#404040" d="M399.1587,-231.9567C396.6762,-201.5478 389.6081,-152.8169 369.5,-116 361.8333,-101.9626 350.9942,-88.7674 339.7006,-77.2502"/>
<polygon fill="none" stroke="#404040" points="339.611,-77.1629 332.5228,-75.8368 331.0207,-68.7839 338.1088,-70.1099 339.611,-77.1629"/>
<text text-anchor="middle" x="375.5" y="-90" font-family="Helvetica,sans-Serif" font-size="10.00" fill="#000000"> +ncuts</text>
</g>
</g>
</svg>
