<?xml version="1.0" encoding="UTF-8" standalone="no"?>
<!DOCTYPE svg PUBLIC "-//W3C//DTD SVG 1.1//EN"
 "http://www.w3.org/Graphics/SVG/1.1/DTD/svg11.dtd">
<!-- Generated by graphviz version 2.40.1 (20161225.0304)
 -->
<!-- Title: /home/travis/build/AliceO2Group/AliceO2/DataFormats/Detectors/Common/include/DetectorsCommonDataFormats/CTFHeader.h Pages: 1 -->
<!--zoomable 419 -->
<svg id="main" version="1.1" xmlns="http://www.w3.org/2000/svg" xmlns:xlink="http://www.w3.org/1999/xlink" xml:space="preserve" onload="init(evt)">
<style type="text/css"><![CDATA[
.edge:hover path { stroke: red; }
.edge:hover polygon { stroke: red; fill: red; }
]]></style>
<script type="text/javascript"><![CDATA[
var edges = document.getElementsByTagName('g');
if (edges && edges.length) {
  for (var i=0;i<edges.length;i++) {
    if (edges[i].id.substr(0,4)=='edge') {
      edges[i].setAttribute('class','edge');
    }
  }
}
]]></script>
        <defs>
                <circle id="rim" cx="0" cy="0" r="7"/>
                <circle id="rim2" cx="0" cy="0" r="3.5"/>
                <g id="zoomPlus">
                        <use xlink:href="#rim" fill="#404040">
                                <set attributeName="fill" to="#808080" begin="zoomplus.mouseover" end="zoomplus.mouseout"/>
                        </use>
                        <path d="M-4,0h8M0,-4v8" fill="none" stroke="white" stroke-width="1.5" pointer-events="none"/>
                </g>
                <g id="zoomMin">
                        <use xlink:href="#rim" fill="#404040">
                                <set attributeName="fill" to="#808080" begin="zoomminus.mouseover" end="zoomminus.mouseout"/>
                        </use>
                        <path d="M-4,0h8" fill="none" stroke="white" stroke-width="1.5" pointer-events="none"/>
                </g>
                <g id="dirArrow">
                        <path fill="none" stroke="white" stroke-width="1.5" d="M0,-3.0v7 M-2.5,-0.5L0,-3.0L2.5,-0.5"/>
                </g>
               <g id="resetDef">
                       <use xlink:href="#rim2" fill="#404040">
                               <set attributeName="fill" to="#808080" begin="reset.mouseover" end="reset.mouseout"/>
                       </use>
               </g>
        </defs>

<script type="text/javascript">
var viewWidth = 1529;
var viewHeight = 419;
var sectionId = 'dynsection-0';
</script>
<script xlink:href="../../svgpan.js"/>
<svg id="graph" class="graph">
<g id="viewport">
<title>/home/travis/build/AliceO2Group/AliceO2/DataFormats/Detectors/Common/include/DetectorsCommonDataFormats/CTFHeader.h</title>
<!-- Node0 -->
<g id="node1" class="node">
<title>Node0</title>
<polygon fill="#bfbfbf" stroke="#000000" points="87.5,-347.5 87.5,-410.5 284.5,-410.5 284.5,-347.5 87.5,-347.5"/>
<text text-anchor="start" x="95.5" y="-398.5" font-family="Helvetica,sans-Serif" font-size="10.00" fill="#000000">/home/travis/build</text>
<text text-anchor="start" x="95.5" y="-387.5" font-family="Helvetica,sans-Serif" font-size="10.00" fill="#000000">/AliceO2Group/AliceO2</text>
<text text-anchor="start" x="95.5" y="-376.5" font-family="Helvetica,sans-Serif" font-size="10.00" fill="#000000">/DataFormats/Detectors</text>
<text text-anchor="start" x="95.5" y="-365.5" font-family="Helvetica,sans-Serif" font-size="10.00" fill="#000000">/Common/include/DetectorsCommon</text>
<text text-anchor="middle" x="186" y="-354.5" font-family="Helvetica,sans-Serif" font-size="10.00" fill="#000000">DataFormats/CTFHeader.h</text>
</g>
<!-- Node1 -->
<g id="node2" class="node">
<title>Node1</title>
<polygon fill="none" stroke="#bfbfbf" points="156.5,-224.5 156.5,-243.5 215.5,-243.5 215.5,-224.5 156.5,-224.5"/>
<text text-anchor="middle" x="186" y="-231.5" font-family="Helvetica,sans-Serif" font-size="10.00" fill="#000000">Rtypes.h</text>
</g>
<!-- Node0&#45;&gt;Node1 -->
<g id="edge1" class="edge">
<title>Node0&#45;&gt;Node1</title>
<path fill="none" stroke="#191970" d="M186,-347.1791C186,-318.6799 186,-277.7812 186,-253.7465"/>
<polygon fill="#191970" stroke="#191970" points="189.5001,-253.7125 186,-243.7125 182.5001,-253.7125 189.5001,-253.7125"/>
</g>
<!-- Node2 -->
<g id="node3" class="node">
<title>Node2</title>
<polygon fill="none" stroke="#bfbfbf" points="0,-168.5 0,-187.5 44,-187.5 44,-168.5 0,-168.5"/>
<text text-anchor="middle" x="22" y="-175.5" font-family="Helvetica,sans-Serif" font-size="10.00" fill="#000000">string</text>
</g>
<!-- Node0&#45;&gt;Node2 -->
<g id="edge2" class="edge">
<title>Node0&#45;&gt;Node2</title>
<path fill="none" stroke="#191970" d="M160.0137,-347.151C125.0255,-304.2691 63.9754,-229.4455 36.3298,-195.5627"/>
<polygon fill="#191970" stroke="#191970" points="38.7949,-193.0476 29.7611,-187.5121 33.3712,-197.4729 38.7949,-193.0476"/>
</g>
<!-- Node3 -->
<g id="node4" class="node">
<title>Node3</title>
<g id="a_node4"><a xlink:href="../../d6/d31/DetID_8h.html" target="_top" xlink:title="DetectorsCommonDataFormats\l/DetID.h">
<polygon fill="none" stroke="#000000" points="658.5,-280.5 658.5,-310.5 829.5,-310.5 829.5,-280.5 658.5,-280.5"/>
<text text-anchor="start" x="666.5" y="-298.5" font-family="Helvetica,sans-Serif" font-size="10.00" fill="#000000">DetectorsCommonDataFormats</text>
<text text-anchor="middle" x="744" y="-287.5" font-family="Helvetica,sans-Serif" font-size="10.00" fill="#000000">/DetID.h</text>
</a>
</g>
</g>
<!-- Node0&#45;&gt;Node3 -->
<g id="edge3" class="edge">
<title>Node0&#45;&gt;Node3</title>
<path fill="none" stroke="#191970" d="M284.7953,-364.2161C387.4913,-348.8485 547.1221,-324.9611 648.5574,-309.7822"/>
<polygon fill="#191970" stroke="#191970" points="649.121,-313.2369 658.4929,-308.2954 648.085,-306.314 649.121,-313.2369"/>
</g>
<!-- Node3&#45;&gt;Node1 -->
<g id="edge4" class="edge">
<title>Node3&#45;&gt;Node1</title>
<path fill="none" stroke="#191970" d="M658.0868,-290.1519C555.6773,-283.0261 379.5877,-268.3966 230,-244 228.5503,-243.7636 227.077,-243.5081 225.5912,-243.2377"/>
<polygon fill="#191970" stroke="#191970" points="226.2144,-239.7932 215.7242,-241.2791 224.8513,-246.6592 226.2144,-239.7932"/>
</g>
<!-- Node3&#45;&gt;Node2 -->
<g id="edge10" class="edge">
<title>Node3&#45;&gt;Node2</title>
<path fill="none" stroke="#191970" d="M658.118,-290.7821C538.9908,-283.49 330.1157,-267.7903 258,-244 241.3509,-238.5076 240.3477,-230.3333 224,-224 154.5494,-197.0938 130.0717,-207.0316 54.2821,-188.0855"/>
<polygon fill="#191970" stroke="#191970" points="54.8267,-184.6111 44.2684,-185.4909 53.0709,-191.3874 54.8267,-184.6111"/>
</g>
<!-- Node4 -->
<g id="node5" class="node">
<title>Node4</title>
<polygon fill="none" stroke="#bfbfbf" points="1332,-112.5 1332,-131.5 1374,-131.5 1374,-112.5 1332,-112.5"/>
<text text-anchor="middle" x="1353" y="-119.5" font-family="Helvetica,sans-Serif" font-size="10.00" fill="#000000">array</text>
</g>
<!-- Node3&#45;&gt;Node4 -->
<g id="edge5" class="edge">
<title>Node3&#45;&gt;Node4</title>
<path fill="none" stroke="#191970" d="M829.7285,-287.8724C968.8262,-274.1041 1235.9128,-241.4576 1313,-188 1329.2812,-176.7095 1340.0997,-156.4408 1346.334,-141.3334"/>
<polygon fill="#191970" stroke="#191970" points="1349.6485,-142.4639 1349.9285,-131.8727 1343.1049,-139.9777 1349.6485,-142.4639"/>
</g>
<!-- Node5 -->
<g id="node6" class="node">
<title>Node5</title>
<polygon fill="none" stroke="#bfbfbf" points="908,-224.5 908,-243.5 952,-243.5 952,-224.5 908,-224.5"/>
<text text-anchor="middle" x="930" y="-231.5" font-family="Helvetica,sans-Serif" font-size="10.00" fill="#000000">bitset</text>
</g>
<!-- Node3&#45;&gt;Node5 -->
<g id="edge6" class="edge">
<title>Node3&#45;&gt;Node5</title>
<path fill="none" stroke="#191970" d="M789.5007,-280.4554C823.1266,-269.3372 868.0771,-254.4745 897.9822,-244.5865"/>
<polygon fill="#191970" stroke="#191970" points="899.1134,-247.8989 907.5091,-241.4365 896.9158,-241.2528 899.1134,-247.8989"/>
</g>
<!-- Node6 -->
<g id="node7" class="node">
<title>Node6</title>
<polygon fill="none" stroke="#bfbfbf" points="62,-168.5 62,-187.5 114,-187.5 114,-168.5 62,-168.5"/>
<text text-anchor="middle" x="88" y="-175.5" font-family="Helvetica,sans-Serif" font-size="10.00" fill="#000000">cassert</text>
</g>
<!-- Node3&#45;&gt;Node6 -->
<g id="edge7" class="edge">
<title>Node3&#45;&gt;Node6</title>
<path fill="none" stroke="#191970" d="M658.1263,-288.7922C548.7465,-279.6809 366.1004,-262.4062 301,-244 280.7179,-238.2655 277.8007,-231.2235 258,-224 245.3824,-219.397 169.9976,-199.4419 123.9531,-187.3777"/>
<polygon fill="#191970" stroke="#191970" points="124.6096,-183.9317 114.0493,-184.7859 122.8374,-190.7036 124.6096,-183.9317"/>
</g>
<!-- Node7 -->
<g id="node8" class="node">
<title>Node7</title>
<polygon fill="none" stroke="#bfbfbf" points="719,-112.5 719,-131.5 769,-131.5 769,-112.5 719,-112.5"/>
<text text-anchor="middle" x="744" y="-119.5" font-family="Helvetica,sans-Serif" font-size="10.00" fill="#000000">cstdint</text>
</g>
<!-- Node3&#45;&gt;Node7 -->
<g id="edge8" class="edge">
<title>Node3&#45;&gt;Node7</title>
<path fill="none" stroke="#191970" d="M744,-280.4065C744,-249.1485 744,-177.3214 744,-142.1492"/>
<polygon fill="#191970" stroke="#191970" points="747.5001,-141.738 744,-131.738 740.5001,-141.738 747.5001,-141.738"/>
</g>
<!-- Node8 -->
<g id="node9" class="node">
<title>Node8</title>
<polygon fill="none" stroke="#bfbfbf" points="1360.5,-224.5 1360.5,-243.5 1433.5,-243.5 1433.5,-224.5 1360.5,-224.5"/>
<text text-anchor="middle" x="1397" y="-231.5" font-family="Helvetica,sans-Serif" font-size="10.00" fill="#000000">string_view</text>
</g>
<!-- Node3&#45;&gt;Node8 -->
<g id="edge9" class="edge">
<title>Node3&#45;&gt;Node8</title>
<path fill="none" stroke="#191970" d="M829.5639,-291.1035C946.5827,-284.4255 1162.9169,-269.7035 1346,-244 1347.452,-243.7962 1348.9251,-243.5779 1350.4108,-243.3479"/>
<polygon fill="#191970" stroke="#191970" points="1351.0262,-246.7936 1360.3092,-241.6872 1349.8679,-239.8901 1351.0262,-246.7936"/>
</g>
<!-- Node9 -->
<g id="node10" class="node">
<title>Node9</title>
<polygon fill="none" stroke="#bfbfbf" points="1451.5,-224.5 1451.5,-243.5 1520.5,-243.5 1520.5,-224.5 1451.5,-224.5"/>
<text text-anchor="middle" x="1486" y="-231.5" font-family="Helvetica,sans-Serif" font-size="10.00" fill="#000000">type_traits</text>
</g>
<!-- Node3&#45;&gt;Node9 -->
<g id="edge11" class="edge">
<title>Node3&#45;&gt;Node9</title>
<path fill="none" stroke="#191970" d="M829.7527,-293.4557C960.1134,-289.4015 1215.9713,-277.7356 1441.3258,-244.0592"/>
<polygon fill="#191970" stroke="#191970" points="1441.9912,-247.4985 1451.3555,-242.5426 1440.9446,-240.5771 1441.9912,-247.4985"/>
</g>
<!-- Node10 -->
<g id="node11" class="node">
<title>Node10</title>
<g id="a_node11"><a xlink:href="../../d9/d52/Common_2MathUtils_2include_2MathUtils_2Utils_8h.html" target="_top" xlink:title="MathUtils/Utils.h">
<polygon fill="none" stroke="#000000" points="792,-224.5 792,-243.5 890,-243.5 890,-224.5 792,-224.5"/>
<text text-anchor="middle" x="841" y="-231.5" font-family="Helvetica,sans-Serif" font-size="10.00" fill="#000000">MathUtils/Utils.h</text>
</a>
</g>
</g>
<!-- Node3&#45;&gt;Node10 -->
<g id="edge12" class="edge">
<title>Node3&#45;&gt;Node10</title>
<path fill="none" stroke="#191970" d="M767.9775,-280.2977C782.9376,-270.8127 802.122,-258.6495 817.0726,-249.1705"/>
<polygon fill="#191970" stroke="#191970" points="819.1873,-251.9739 825.7587,-243.6633 815.439,-246.062 819.1873,-251.9739"/>
</g>
<!-- Node22 -->
<g id="node23" class="node">
<title>Node22</title>
<g id="a_node23"><a xlink:href="../../dc/dcd/DataHeader_8h.html" target="_top" xlink:title="Headers/DataHeader.h">
<polygon fill="none" stroke="#000000" points="310.5,-224.5 310.5,-243.5 437.5,-243.5 437.5,-224.5 310.5,-224.5"/>
<text text-anchor="middle" x="374" y="-231.5" font-family="Helvetica,sans-Serif" font-size="10.00" fill="#000000">Headers/DataHeader.h</text>
</a>
</g>
</g>
<!-- Node3&#45;&gt;Node22 -->
<g id="edge29" class="edge">
<title>Node3&#45;&gt;Node22</title>
<path fill="none" stroke="#191970" d="M658.1846,-281.2361C592.159,-270.2616 502.2031,-255.3094 441.3205,-245.1898"/>
<polygon fill="#191970" stroke="#191970" points="441.8705,-241.7332 431.4319,-243.5461 440.7226,-248.6385 441.8705,-241.7332"/>
</g>
<!-- Node11 -->
<g id="node12" class="node">
<title>Node11</title>
<g id="a_node12"><a xlink:href="../../de/def/bitOps_8h.html" target="_top" xlink:title="MathUtils/detail/bitOps.h">
<polygon fill="none" stroke="#000000" points="772.5,-168.5 772.5,-187.5 909.5,-187.5 909.5,-168.5 772.5,-168.5"/>
<text text-anchor="middle" x="841" y="-175.5" font-family="Helvetica,sans-Serif" font-size="10.00" fill="#000000">MathUtils/detail/bitOps.h</text>
</a>
</g>
</g>
<!-- Node10&#45;&gt;Node11 -->
<g id="edge13" class="edge">
<title>Node10&#45;&gt;Node11</title>
<path fill="none" stroke="#191970" d="M841,-224.2455C841,-216.9382 841,-206.6944 841,-197.7046"/>
<polygon fill="#191970" stroke="#191970" points="844.5001,-197.6426 841,-187.6427 837.5001,-197.6427 844.5001,-197.6426"/>
</g>
<!-- Node12 -->
<g id="node13" class="node">
<title>Node12</title>
<g id="a_node13"><a xlink:href="../../d3/dfc/StatAccumulator_8h.html" target="_top" xlink:title="MathUtils/detail/StatAccumulator.h">
<polygon fill="none" stroke="#000000" points="928,-168.5 928,-187.5 1114,-187.5 1114,-168.5 928,-168.5"/>
<text text-anchor="middle" x="1021" y="-175.5" font-family="Helvetica,sans-Serif" font-size="10.00" fill="#000000">MathUtils/detail/StatAccumulator.h</text>
</a>
</g>
</g>
<!-- Node10&#45;&gt;Node12 -->
<g id="edge15" class="edge">
<title>Node10&#45;&gt;Node12</title>
<path fill="none" stroke="#191970" d="M871.9431,-224.3733C902.0039,-215.021 947.8026,-200.7725 980.6978,-190.5385"/>
<polygon fill="#191970" stroke="#191970" points="981.9519,-193.8139 990.4607,-187.5011 979.8723,-187.1299 981.9519,-193.8139"/>
</g>
<!-- Node14 -->
<g id="node15" class="node">
<title>Node14</title>
<g id="a_node15"><a xlink:href="../../dd/d7d/trigonometric_8h.html" target="_top" xlink:title="MathUtils/detail/trigonometric.h">
<polygon fill="none" stroke="#000000" points="1132,-168.5 1132,-187.5 1304,-187.5 1304,-168.5 1132,-168.5"/>
<text text-anchor="middle" x="1218" y="-175.5" font-family="Helvetica,sans-Serif" font-size="10.00" fill="#000000">MathUtils/detail/trigonometric.h</text>
</a>
</g>
</g>
<!-- Node10&#45;&gt;Node14 -->
<g id="edge17" class="edge">
<title>Node10&#45;&gt;Node14</title>
<path fill="none" stroke="#191970" d="M890.032,-225.4486C893.0652,-224.9499 896.0732,-224.4632 899,-224 980.1823,-211.1508 1073.2285,-197.9021 1137.7951,-188.9429"/>
<polygon fill="#191970" stroke="#191970" points="1138.4816,-192.3813 1147.9069,-187.5425 1137.5213,-185.4475 1138.4816,-192.3813"/>
</g>
<!-- Node11&#45;&gt;Node7 -->
<g id="edge14" class="edge">
<title>Node11&#45;&gt;Node7</title>
<path fill="none" stroke="#191970" d="M824.1039,-168.2455C809.082,-159.5731 786.8957,-146.7645 769.679,-136.825"/>
<polygon fill="#191970" stroke="#191970" points="771.1128,-133.6114 760.7025,-131.6427 767.6129,-139.6737 771.1128,-133.6114"/>
</g>
<!-- Node13 -->
<g id="node14" class="node">
<title>Node13</title>
<polygon fill="none" stroke="#bfbfbf" points="850.5,-112.5 850.5,-131.5 891.5,-131.5 891.5,-112.5 850.5,-112.5"/>
<text text-anchor="middle" x="871" y="-119.5" font-family="Helvetica,sans-Serif" font-size="10.00" fill="#000000">tuple</text>
</g>
<!-- Node12&#45;&gt;Node13 -->
<g id="edge16" class="edge">
<title>Node12&#45;&gt;Node13</title>
<path fill="none" stroke="#191970" d="M995.2141,-168.3733C969.1032,-158.6252 928.744,-143.5578 901.1645,-133.2614"/>
<polygon fill="#191970" stroke="#191970" points="902.2244,-129.9212 891.6318,-129.7026 899.7761,-136.4791 902.2244,-129.9212"/>
</g>
<!-- Node14&#45;&gt;Node4 -->
<g id="edge18" class="edge">
<title>Node14&#45;&gt;Node4</title>
<path fill="none" stroke="#191970" d="M1241.2073,-168.3733C1263.7023,-159.042 1297.9477,-144.8365 1322.6069,-134.6075"/>
<polygon fill="#191970" stroke="#191970" points="1323.9746,-137.8294 1331.8703,-130.7649 1321.2924,-131.3636 1323.9746,-137.8294"/>
</g>
<!-- Node14&#45;&gt;Node13 -->
<g id="edge20" class="edge">
<title>Node14&#45;&gt;Node13</title>
<path fill="none" stroke="#191970" d="M1141.4345,-168.4794C1067.2467,-158.9863 958.9191,-144.3516 901.606,-131.7093"/>
<polygon fill="#191970" stroke="#191970" points="902.0496,-128.2195 891.5179,-129.3736 900.4707,-135.0391 902.0496,-128.2195"/>
</g>
<!-- Node15 -->
<g id="node16" class="node">
<title>Node15</title>
<polygon fill="none" stroke="#bfbfbf" points="1127.5,-56.5 1127.5,-75.5 1174.5,-75.5 1174.5,-56.5 1127.5,-56.5"/>
<text text-anchor="middle" x="1151" y="-63.5" font-family="Helvetica,sans-Serif" font-size="10.00" fill="#000000">cmath</text>
</g>
<!-- Node14&#45;&gt;Node15 -->
<g id="edge19" class="edge">
<title>Node14&#45;&gt;Node15</title>
<path fill="none" stroke="#191970" d="M1194.2972,-168.374C1179.2524,-160.8814 1160.982,-148.8953 1152,-132 1144.4446,-117.7881 1144.8786,-99.304 1146.8096,-85.5135"/>
<polygon fill="#191970" stroke="#191970" points="1150.2623,-86.0878 1148.5552,-75.6314 1143.369,-84.8701 1150.2623,-86.0878"/>
</g>
<!-- Node16 -->
<g id="node17" class="node">
<title>Node16</title>
<g id="a_node17"><a xlink:href="../../df/d21/GPUCommonDef_8h.html" target="_top" xlink:title="GPUCommonDef.h">
<polygon fill="none" stroke="#000000" points="1230.5,-56.5 1230.5,-75.5 1337.5,-75.5 1337.5,-56.5 1230.5,-56.5"/>
<text text-anchor="middle" x="1284" y="-63.5" font-family="Helvetica,sans-Serif" font-size="10.00" fill="#000000">GPUCommonDef.h</text>
</a>
</g>
</g>
<!-- Node14&#45;&gt;Node16 -->
<g id="edge21" class="edge">
<title>Node14&#45;&gt;Node16</title>
<path fill="none" stroke="#191970" d="M1242.4712,-168.3462C1257.7107,-160.9011 1276.0612,-148.9799 1285,-132 1292.4977,-117.7576 1291.4673,-99.2765 1289.0096,-85.4949"/>
<polygon fill="#191970" stroke="#191970" points="1292.4082,-84.6517 1286.8683,-75.6206 1285.5672,-86.1352 1292.4082,-84.6517"/>
</g>
<!-- Node19 -->
<g id="node20" class="node">
<title>Node19</title>
<g id="a_node20"><a xlink:href="../../d6/da2/GPUCommonMath_8h.html" target="_top" xlink:title="GPUCommonMath.h">
<polygon fill="none" stroke="#000000" points="1160.5,-112.5 1160.5,-131.5 1275.5,-131.5 1275.5,-112.5 1160.5,-112.5"/>
<text text-anchor="middle" x="1218" y="-119.5" font-family="Helvetica,sans-Serif" font-size="10.00" fill="#000000">GPUCommonMath.h</text>
</a>
</g>
</g>
<!-- Node14&#45;&gt;Node19 -->
<g id="edge24" class="edge">
<title>Node14&#45;&gt;Node19</title>
<path fill="none" stroke="#191970" d="M1218,-168.2455C1218,-160.9382 1218,-150.6944 1218,-141.7046"/>
<polygon fill="#191970" stroke="#191970" points="1221.5001,-141.6426 1218,-131.6427 1214.5001,-141.6427 1221.5001,-141.6426"/>
</g>
<!-- Node21 -->
<g id="node22" class="node">
<title>Node21</title>
<g id="a_node22"><a xlink:href="../../d6/d84/MathConstants_8h.html" target="_top" xlink:title="useful math constants ">
<polygon fill="none" stroke="#000000" points="910,-112.5 910,-131.5 1104,-131.5 1104,-112.5 910,-112.5"/>
<text text-anchor="middle" x="1007" y="-119.5" font-family="Helvetica,sans-Serif" font-size="10.00" fill="#000000">CommonConstants/MathConstants.h</text>
</a>
</g>
</g>
<!-- Node14&#45;&gt;Node21 -->
<g id="edge28" class="edge">
<title>Node14&#45;&gt;Node21</title>
<path fill="none" stroke="#191970" d="M1181.7278,-168.3733C1146.0342,-158.9001 1091.4121,-144.4032 1052.7549,-134.1435"/>
<polygon fill="#191970" stroke="#191970" points="1053.3621,-130.6835 1042.7989,-131.5011 1051.5664,-137.4493 1053.3621,-130.6835"/>
</g>
<!-- Node17 -->
<g id="node18" class="node">
<title>Node17</title>
<g id="a_node18"><a xlink:href="../../d5/d93/GPUCommonDefSettings_8h.html" target="_top" xlink:title="GPUCommonDefSettings.h">
<polygon fill="none" stroke="#000000" points="1133,-.5 1133,-19.5 1281,-19.5 1281,-.5 1133,-.5"/>
<text text-anchor="middle" x="1207" y="-7.5" font-family="Helvetica,sans-Serif" font-size="10.00" fill="#000000">GPUCommonDefSettings.h</text>
</a>
</g>
</g>
<!-- Node16&#45;&gt;Node17 -->
<g id="edge22" class="edge">
<title>Node16&#45;&gt;Node17</title>
<path fill="none" stroke="#191970" d="M1270.5876,-56.2455C1258.9943,-47.814 1242.0252,-35.4729 1228.5322,-25.6598"/>
<polygon fill="#191970" stroke="#191970" points="1230.4047,-22.6938 1220.2587,-19.6427 1226.2874,-28.355 1230.4047,-22.6938"/>
</g>
<!-- Node18 -->
<g id="node19" class="node">
<title>Node18</title>
<g id="a_node19"><a xlink:href="../../da/d5a/GPUCommonDefAPI_8h.html" target="_top" xlink:title="GPUCommonDefAPI.h">
<polygon fill="none" stroke="#000000" points="1299,-.5 1299,-19.5 1423,-19.5 1423,-.5 1299,-.5"/>
<text text-anchor="middle" x="1361" y="-7.5" font-family="Helvetica,sans-Serif" font-size="10.00" fill="#000000">GPUCommonDefAPI.h</text>
</a>
</g>
</g>
<!-- Node16&#45;&gt;Node18 -->
<g id="edge23" class="edge">
<title>Node16&#45;&gt;Node18</title>
<path fill="none" stroke="#191970" d="M1297.4124,-56.2455C1309.0057,-47.814 1325.9748,-35.4729 1339.4678,-25.6598"/>
<polygon fill="#191970" stroke="#191970" points="1341.7126,-28.355 1347.7413,-19.6427 1337.5953,-22.6938 1341.7126,-28.355"/>
</g>
<!-- Node19&#45;&gt;Node15 -->
<g id="edge26" class="edge">
<title>Node19&#45;&gt;Node15</title>
<path fill="none" stroke="#191970" d="M1206.3295,-112.2455C1196.4339,-103.9746 1182.0373,-91.9416 1170.4099,-82.2232"/>
<polygon fill="#191970" stroke="#191970" points="1172.4542,-79.3703 1162.5368,-75.6427 1167.965,-84.7413 1172.4542,-79.3703"/>
</g>
<!-- Node19&#45;&gt;Node16 -->
<g id="edge25" class="edge">
<title>Node19&#45;&gt;Node16</title>
<path fill="none" stroke="#191970" d="M1229.4963,-112.2455C1239.2442,-103.9746 1253.4259,-91.9416 1264.8798,-82.2232"/>
<polygon fill="#191970" stroke="#191970" points="1267.2747,-84.7813 1272.6354,-75.6427 1262.7459,-79.4437 1267.2747,-84.7813"/>
</g>
<!-- Node20 -->
<g id="node21" class="node">
<title>Node20</title>
<polygon fill="none" stroke="#bfbfbf" points="587,-56.5 587,-75.5 651,-75.5 651,-56.5 587,-56.5"/>
<text text-anchor="middle" x="619" y="-63.5" font-family="Helvetica,sans-Serif" font-size="10.00" fill="#000000">algorithm</text>
</g>
<!-- Node19&#45;&gt;Node20 -->
<g id="edge27" class="edge">
<title>Node19&#45;&gt;Node20</title>
<path fill="none" stroke="#191970" d="M1160.2349,-116.4766C1144.8832,-115.0147 1128.314,-113.4422 1113,-112 945.6808,-96.2423 746.4525,-77.7837 661.1473,-69.8945"/>
<polygon fill="#191970" stroke="#191970" points="661.3583,-66.3992 651.0784,-68.9635 660.7137,-73.3695 661.3583,-66.3992"/>
</g>
<!-- Node22&#45;&gt;Node2 -->
<g id="edge36" class="edge">
<title>Node22&#45;&gt;Node2</title>
<path fill="none" stroke="#191970" d="M310.3736,-228.1002C247.4112,-221.5384 148.2389,-209.2602 54.1885,-187.9631"/>
<polygon fill="#191970" stroke="#191970" points="54.7549,-184.502 44.2244,-185.668 53.1836,-191.3234 54.7549,-184.502"/>
</g>
<!-- Node22&#45;&gt;Node6 -->
<g id="edge32" class="edge">
<title>Node22&#45;&gt;Node6</title>
<path fill="none" stroke="#191970" d="M317.627,-224.4522C267.6402,-215.7498 192.7347,-202.1309 128,-188 126.7412,-187.7252 125.4616,-187.4396 124.1705,-187.1461"/>
<polygon fill="#191970" stroke="#191970" points="124.734,-183.6829 114.197,-184.7888 123.1238,-190.4952 124.734,-183.6829"/>
</g>
<!-- Node22&#45;&gt;Node7 -->
<g id="edge30" class="edge">
<title>Node22&#45;&gt;Node7</title>
<path fill="none" stroke="#191970" d="M377.5347,-224.4731C383.5651,-209.6774 397.3327,-181.4786 419,-168 466.8489,-138.2345 634.7384,-127.0053 708.6351,-123.437"/>
<polygon fill="#191970" stroke="#191970" points="709.0031,-126.9239 718.8304,-122.9649 708.6792,-119.9313 709.0031,-126.9239"/>
</g>
<!-- Node22&#45;&gt;Node20 -->
<g id="edge34" class="edge">
<title>Node22&#45;&gt;Node20</title>
<path fill="none" stroke="#191970" d="M310.8928,-224.4582C251.584,-214.8476 170.519,-199.7942 161,-188 155.4173,-181.0829 155.4396,-174.935 161,-168 213.0375,-103.0985 473.5517,-76.8325 576.7779,-68.8639"/>
<polygon fill="#191970" stroke="#191970" points="577.1328,-72.3472 586.842,-68.1068 576.6076,-65.3669 577.1328,-72.3472"/>
</g>
<!-- Node23 -->
<g id="node24" class="node">
<title>Node23</title>
<polygon fill="none" stroke="#bfbfbf" points="658,-168.5 658,-187.5 716,-187.5 716,-168.5 658,-168.5"/>
<text text-anchor="middle" x="687" y="-175.5" font-family="Helvetica,sans-Serif" font-size="10.00" fill="#000000">memory</text>
</g>
<!-- Node22&#45;&gt;Node23 -->
<g id="edge31" class="edge">
<title>Node22&#45;&gt;Node23</title>
<path fill="none" stroke="#191970" d="M437.6637,-225.0416C491.308,-217.1078 570.2623,-204.5323 647.6823,-188.1434"/>
<polygon fill="#191970" stroke="#191970" points="648.5594,-191.5351 657.6055,-186.0197 647.0944,-184.6901 648.5594,-191.5351"/>
</g>
<!-- Node24 -->
<g id="node25" class="node">
<title>Node24</title>
<polygon fill="none" stroke="#bfbfbf" points="170,-168.5 170,-187.5 220,-187.5 220,-168.5 170,-168.5"/>
<text text-anchor="middle" x="195" y="-175.5" font-family="Helvetica,sans-Serif" font-size="10.00" fill="#000000">cstring</text>
</g>
<!-- Node22&#45;&gt;Node24 -->
<g id="edge33" class="edge">
<title>Node22&#45;&gt;Node24</title>
<path fill="none" stroke="#191970" d="M343.2288,-224.3733C311.7044,-214.5109 262.7757,-199.2036 229.8445,-188.9011"/>
<polygon fill="#191970" stroke="#191970" points="230.764,-185.5215 220.1751,-185.876 228.6739,-192.2022 230.764,-185.5215"/>
</g>
<!-- Node25 -->
<g id="node26" class="node">
<title>Node25</title>
<polygon fill="none" stroke="#bfbfbf" points="238.5,-168.5 238.5,-187.5 303.5,-187.5 303.5,-168.5 238.5,-168.5"/>
<text text-anchor="middle" x="271" y="-175.5" font-family="Helvetica,sans-Serif" font-size="10.00" fill="#000000">stdexcept</text>
</g>
<!-- Node22&#45;&gt;Node25 -->
<g id="edge35" class="edge">
<title>Node22&#45;&gt;Node25</title>
<path fill="none" stroke="#191970" d="M356.0588,-224.2455C339.96,-215.4928 316.1121,-202.527 297.7609,-192.5496"/>
<polygon fill="#191970" stroke="#191970" points="299.1929,-189.3444 288.7356,-187.6427 295.8493,-195.4942 299.1929,-189.3444"/>
</g>
<!-- Node26 -->
<g id="node27" class="node">
<title>Node26</title>
<polygon fill="none" stroke="#bfbfbf" points="322,-168.5 322,-187.5 372,-187.5 372,-168.5 322,-168.5"/>
<text text-anchor="middle" x="347" y="-175.5" font-family="Helvetica,sans-Serif" font-size="10.00" fill="#000000">climits</text>
</g>
<!-- Node22&#45;&gt;Node26 -->
<g id="edge37" class="edge">
<title>Node22&#45;&gt;Node26</title>
<path fill="none" stroke="#191970" d="M369.297,-224.2455C365.6576,-216.6973 360.5076,-206.0158 356.0738,-196.8197"/>
<polygon fill="#191970" stroke="#191970" points="359.1449,-195.1303 351.6491,-187.6427 352.8395,-198.1704 359.1449,-195.1303"/>
</g>
<!-- Node27 -->
<g id="node28" class="node">
<title>Node27</title>
<g id="a_node28"><a xlink:href="../../d7/df8/Types_8h.html" target="_top" xlink:title="MemoryResources/Types.h">
<polygon fill="none" stroke="#000000" points="428,-168.5 428,-187.5 574,-187.5 574,-168.5 428,-168.5"/>
<text text-anchor="middle" x="501" y="-175.5" font-family="Helvetica,sans-Serif" font-size="10.00" fill="#000000">MemoryResources/Types.h</text>
</a>
</g>
</g>
<!-- Node22&#45;&gt;Node27 -->
<g id="edge38" class="edge">
<title>Node22&#45;&gt;Node27</title>
<path fill="none" stroke="#191970" d="M395.8321,-224.3733C416.3103,-215.3435 447.1399,-201.7494 470.1319,-191.6111"/>
<polygon fill="#191970" stroke="#191970" points="471.715,-194.7383 479.4528,-187.5011 468.8907,-188.3333 471.715,-194.7383"/>
</g>
<!-- Node28 -->
<g id="node29" class="node">
<title>Node28</title>
<polygon fill="none" stroke="#bfbfbf" points="592.5,-168.5 592.5,-187.5 639.5,-187.5 639.5,-168.5 592.5,-168.5"/>
<text text-anchor="middle" x="616" y="-175.5" font-family="Helvetica,sans-Serif" font-size="10.00" fill="#000000">cerrno</text>
</g>
<!-- Node22&#45;&gt;Node28 -->
<g id="edge39" class="edge">
<title>Node22&#45;&gt;Node28</title>
<path fill="none" stroke="#191970" d="M422.4004,-224.4577C462.7646,-216.2494 521.9708,-203.6316 582.5395,-187.9708"/>
<polygon fill="#191970" stroke="#191970" points="583.4774,-191.3434 592.2694,-185.4314 581.7096,-184.5702 583.4774,-191.3434"/>
</g>
</g>
</svg>
        <g id="navigator" transform="translate(0 0)" fill="#404254">
                <rect fill="#f2f5e9" fill-opacity="0.5" stroke="#606060" stroke-width=".5" x="0" y="0" width="60" height="60"/>
                <use id="zoomplus" xlink:href="#zoomPlus" x="17" y="9" onmousedown="handleZoom(evt,'in')"/>
                <use id="zoomminus" xlink:href="#zoomMin" x="42" y="9" onmousedown="handleZoom(evt,'out')"/>
                <use id="reset" xlink:href="#resetDef" x="30" y="36" onmousedown="handleReset()"/>
                <g id="arrowUp" xlink:href="#dirArrow" transform="translate(30 24)" onmousedown="handlePan(0,-1)">
                  <use xlink:href="#rim" fill="#404040">
                        <set attributeName="fill" to="#808080" begin="arrowUp.mouseover" end="arrowUp.mouseout"/>
                  </use>
                  <path fill="none" stroke="white" stroke-width="1.5" d="M0,-3.0v7 M-2.5,-0.5L0,-3.0L2.5,-0.5"/>
                </g>
                <g id="arrowRight" xlink:href="#dirArrow" transform="rotate(90) translate(36 -43)" onmousedown="handlePan(1,0)">
                  <use xlink:href="#rim" fill="#404040">
                        <set attributeName="fill" to="#808080" begin="arrowRight.mouseover" end="arrowRight.mouseout"/>
                  </use>
                  <path fill="none" stroke="white" stroke-width="1.5" d="M0,-3.0v7 M-2.5,-0.5L0,-3.0L2.5,-0.5"/>
                </g>
                <g id="arrowDown" xlink:href="#dirArrow" transform="rotate(180) translate(-30 -48)" onmousedown="handlePan(0,1)">
                  <use xlink:href="#rim" fill="#404040">
                        <set attributeName="fill" to="#808080" begin="arrowDown.mouseover" end="arrowDown.mouseout"/>
                  </use>
                  <path fill="none" stroke="white" stroke-width="1.5" d="M0,-3.0v7 M-2.5,-0.5L0,-3.0L2.5,-0.5"/>
                </g>
                <g id="arrowLeft" xlink:href="#dirArrow" transform="rotate(270) translate(-36 17)" onmousedown="handlePan(-1,0)">
                  <use xlink:href="#rim" fill="#404040">
                        <set attributeName="fill" to="#808080" begin="arrowLeft.mouseover" end="arrowLeft.mouseout"/>
                  </use>
                  <path fill="none" stroke="white" stroke-width="1.5" d="M0,-3.0v7 M-2.5,-0.5L0,-3.0L2.5,-0.5"/>
                </g>
        </g>
        <svg viewBox="0 0 15 15" width="100%" height="30px" preserveAspectRatio="xMaxYMin meet">
         <g id="arrow_out" transform="scale(0.3 0.3)">
          <a xlink:href="CTFHeader_8h__incl_org.svg" target="_base">
           <rect id="button" ry="5" rx="5" y="6" x="6" height="38" width="38"
                fill="#f2f5e9" fill-opacity="0.5" stroke="#606060" stroke-width="1.0"/>
           <path id="arrow"
             d="M 11.500037,31.436501 C 11.940474,20.09759 22.043105,11.32322 32.158766,21.979434 L 37.068811,17.246167 C 37.068811,17.246167 37.088388,32 37.088388,32 L 22.160133,31.978069 C 22.160133,31.978069 26.997745,27.140456 26.997745,27.140456 C 18.528582,18.264221 13.291696,25.230495 11.500037,31.436501 z"
             style="fill:#404040;"/>
          </a>
         </g>
        </svg>
</svg>
