<?xml version="1.0" encoding="UTF-8" standalone="no"?>
<!DOCTYPE svg PUBLIC "-//W3C//DTD SVG 1.1//EN"
 "http://www.w3.org/Graphics/SVG/1.1/DTD/svg11.dtd">
<!-- Generated by graphviz version 2.40.1 (20161225.0304)
 -->
<!-- Title: /home/travis/build/AliceO2Group/AliceO2/DataFormats/Detectors/FIT/FDD/include/DataFormatsFDD/LookUpTable.h Pages: 1 -->
<svg width="862pt" height="184pt"
 viewBox="0.00 0.00 862.00 184.00" xmlns="http://www.w3.org/2000/svg" xmlns:xlink="http://www.w3.org/1999/xlink">
<g id="graph0" class="graph" transform="scale(1 1) rotate(0) translate(4 180)">
<title>/home/travis/build/AliceO2Group/AliceO2/DataFormats/Detectors/FIT/FDD/include/DataFormatsFDD/LookUpTable.h</title>
<!-- Node0 -->
<g id="node1" class="node">
<title>Node0</title>
<polygon fill="#bfbfbf" stroke="#000000" points="124.5,-112.5 124.5,-175.5 306.5,-175.5 306.5,-112.5 124.5,-112.5"/>
<text text-anchor="start" x="132.5" y="-163.5" font-family="Helvetica,sans-Serif" font-size="10.00" fill="#000000">/home/travis/build</text>
<text text-anchor="start" x="132.5" y="-152.5" font-family="Helvetica,sans-Serif" font-size="10.00" fill="#000000">/AliceO2Group/AliceO2</text>
<text text-anchor="start" x="132.5" y="-141.5" font-family="Helvetica,sans-Serif" font-size="10.00" fill="#000000">/DataFormats/Detectors</text>
<text text-anchor="start" x="132.5" y="-130.5" font-family="Helvetica,sans-Serif" font-size="10.00" fill="#000000">/FIT/FDD/include/DataFormatsFDD</text>
<text text-anchor="middle" x="215.5" y="-119.5" font-family="Helvetica,sans-Serif" font-size="10.00" fill="#000000">/LookUpTable.h</text>
</g>
<!-- Node1 -->
<g id="node2" class="node">
<title>Node1</title>
<polygon fill="none" stroke="#bfbfbf" points="0,-56.5 0,-75.5 59,-75.5 59,-56.5 0,-56.5"/>
<text text-anchor="middle" x="29.5" y="-63.5" font-family="Helvetica,sans-Serif" font-size="10.00" fill="#000000">Rtypes.h</text>
</g>
<!-- Node0&#45;&gt;Node1 -->
<g id="edge1" class="edge">
<title>Node0&#45;&gt;Node1</title>
<path fill="none" stroke="#191970" d="M140.3828,-112.4992C112.9288,-100.9863 83.3141,-88.5672 61.6021,-79.4622"/>
<polygon fill="#191970" stroke="#191970" points="62.7941,-76.1668 52.2186,-75.5271 60.0869,-82.6221 62.7941,-76.1668"/>
</g>
<!-- Node2 -->
<g id="node3" class="node">
<title>Node2</title>
<polygon fill="none" stroke="#bfbfbf" points="77.5,-56.5 77.5,-75.5 129.5,-75.5 129.5,-56.5 77.5,-56.5"/>
<text text-anchor="middle" x="103.5" y="-63.5" font-family="Helvetica,sans-Serif" font-size="10.00" fill="#000000">cassert</text>
</g>
<!-- Node0&#45;&gt;Node2 -->
<g id="edge2" class="edge">
<title>Node0&#45;&gt;Node2</title>
<path fill="none" stroke="#191970" d="M170.2681,-112.4992C154.9281,-101.816 138.4679,-90.3526 125.729,-81.4809"/>
<polygon fill="#191970" stroke="#191970" points="127.3863,-78.37 117.18,-75.5271 123.3858,-84.1142 127.3863,-78.37"/>
</g>
<!-- Node3 -->
<g id="node4" class="node">
<title>Node3</title>
<polygon fill="none" stroke="#bfbfbf" points="147.5,-56.5 147.5,-75.5 207.5,-75.5 207.5,-56.5 147.5,-56.5"/>
<text text-anchor="middle" x="177.5" y="-63.5" font-family="Helvetica,sans-Serif" font-size="10.00" fill="#000000">iostream</text>
</g>
<!-- Node0&#45;&gt;Node3 -->
<g id="edge3" class="edge">
<title>Node0&#45;&gt;Node3</title>
<path fill="none" stroke="#191970" d="M200.0439,-112.2744C195.4862,-102.919 190.6463,-92.9845 186.6242,-84.7287"/>
<polygon fill="#191970" stroke="#191970" points="189.7239,-83.0996 182.1977,-75.6426 183.4309,-86.1654 189.7239,-83.0996"/>
</g>
<!-- Node4 -->
<g id="node5" class="node">
<title>Node4</title>
<polygon fill="none" stroke="#bfbfbf" points="225.5,-56.5 225.5,-75.5 281.5,-75.5 281.5,-56.5 225.5,-56.5"/>
<text text-anchor="middle" x="253.5" y="-63.5" font-family="Helvetica,sans-Serif" font-size="10.00" fill="#000000">iomanip</text>
</g>
<!-- Node0&#45;&gt;Node4 -->
<g id="edge4" class="edge">
<title>Node0&#45;&gt;Node4</title>
<path fill="none" stroke="#191970" d="M230.9561,-112.2744C235.5138,-102.919 240.3537,-92.9845 244.3758,-84.7287"/>
<polygon fill="#191970" stroke="#191970" points="247.5691,-86.1654 248.8023,-75.6426 241.2761,-83.0996 247.5691,-86.1654"/>
</g>
<!-- Node5 -->
<g id="node6" class="node">
<title>Node5</title>
<g id="a_node6"><a xlink:href="../../dd/da4/Logger_8h.html" target="_top" xlink:title="Framework/Logger.h">
<polygon fill="none" stroke="#000000" points="300,-56.5 300,-75.5 415,-75.5 415,-56.5 300,-56.5"/>
<text text-anchor="middle" x="357.5" y="-63.5" font-family="Helvetica,sans-Serif" font-size="10.00" fill="#000000">Framework/Logger.h</text>
</a>
</g>
</g>
<!-- Node0&#45;&gt;Node5 -->
<g id="edge5" class="edge">
<title>Node0&#45;&gt;Node5</title>
<path fill="none" stroke="#191970" d="M272.8475,-112.4992C293.0518,-101.4011 314.7888,-89.4611 331.1768,-80.4592"/>
<polygon fill="#191970" stroke="#191970" points="333.076,-83.4093 340.1557,-75.5271 329.7059,-77.274 333.076,-83.4093"/>
</g>
<!-- Node7 -->
<g id="node8" class="node">
<title>Node7</title>
<g id="a_node8"><a xlink:href="../../d9/d15/Detectors_2FIT_2FDD_2base_2include_2FDDBase_2Constants_8h.html" target="_top" xlink:title="FDDBase/Constants.h">
<polygon fill="none" stroke="#000000" points="566.5,-56.5 566.5,-75.5 688.5,-75.5 688.5,-56.5 566.5,-56.5"/>
<text text-anchor="middle" x="627.5" y="-63.5" font-family="Helvetica,sans-Serif" font-size="10.00" fill="#000000">FDDBase/Constants.h</text>
</a>
</g>
</g>
<!-- Node0&#45;&gt;Node7 -->
<g id="edge7" class="edge">
<title>Node0&#45;&gt;Node7</title>
<path fill="none" stroke="#191970" d="M306.6806,-126.7377C385.9251,-111.735 498.477,-90.4267 567.046,-77.4452"/>
<polygon fill="#191970" stroke="#191970" points="568.0734,-80.8129 577.2478,-75.5138 566.7712,-73.9351 568.0734,-80.8129"/>
</g>
<!-- Node6 -->
<g id="node7" class="node">
<title>Node6</title>
<polygon fill="none" stroke="#bfbfbf" points="210.5,-.5 210.5,-19.5 318.5,-19.5 318.5,-.5 210.5,-.5"/>
<text text-anchor="middle" x="264.5" y="-7.5" font-family="Helvetica,sans-Serif" font-size="10.00" fill="#000000">fairlogger/Logger.h</text>
</g>
<!-- Node5&#45;&gt;Node6 -->
<g id="edge6" class="edge">
<title>Node5&#45;&gt;Node6</title>
<path fill="none" stroke="#191970" d="M341.3006,-56.2455C326.8982,-47.5731 305.6268,-34.7645 289.1201,-24.825"/>
<polygon fill="#191970" stroke="#191970" points="290.886,-21.8028 280.5137,-19.6427 287.275,-27.7996 290.886,-21.8028"/>
</g>
<!-- Node8 -->
<g id="node9" class="node">
<title>Node8</title>
<g id="a_node9"><a xlink:href="../../d3/d9d/PhysicsConstants_8h.html" target="_top" xlink:title="Header to collect physics constants. ">
<polygon fill="none" stroke="#000000" points="337,-.5 337,-19.5 544,-19.5 544,-.5 337,-.5"/>
<text text-anchor="middle" x="440.5" y="-7.5" font-family="Helvetica,sans-Serif" font-size="10.00" fill="#000000">CommonConstants/PhysicsConstants.h</text>
</a>
</g>
</g>
<!-- Node7&#45;&gt;Node8 -->
<g id="edge8" class="edge">
<title>Node7&#45;&gt;Node8</title>
<path fill="none" stroke="#191970" d="M595.3536,-56.3733C563.9891,-46.9807 516.1335,-32.6496 481.9284,-22.4064"/>
<polygon fill="#191970" stroke="#191970" points="482.8107,-19.0171 472.227,-19.5011 480.8025,-25.7229 482.8107,-19.0171"/>
</g>
<!-- Node9 -->
<g id="node10" class="node">
<title>Node9</title>
<polygon fill="none" stroke="#bfbfbf" points="562.5,-.5 562.5,-19.5 612.5,-19.5 612.5,-.5 562.5,-.5"/>
<text text-anchor="middle" x="587.5" y="-7.5" font-family="Helvetica,sans-Serif" font-size="10.00" fill="#000000">cstdint</text>
</g>
<!-- Node7&#45;&gt;Node9 -->
<g id="edge9" class="edge">
<title>Node7&#45;&gt;Node9</title>
<path fill="none" stroke="#191970" d="M620.5325,-56.2455C614.9689,-48.4564 607.022,-37.3308 600.3171,-27.9439"/>
<polygon fill="#191970" stroke="#191970" points="603.0481,-25.7457 594.3876,-19.6427 597.352,-29.8144 603.0481,-25.7457"/>
</g>
<!-- Node10 -->
<g id="node11" class="node">
<title>Node10</title>
<polygon fill="none" stroke="#bfbfbf" points="631,-.5 631,-19.5 704,-19.5 704,-.5 631,-.5"/>
<text text-anchor="middle" x="667.5" y="-7.5" font-family="Helvetica,sans-Serif" font-size="10.00" fill="#000000">string_view</text>
</g>
<!-- Node7&#45;&gt;Node10 -->
<g id="edge10" class="edge">
<title>Node7&#45;&gt;Node10</title>
<path fill="none" stroke="#191970" d="M634.4675,-56.2455C640.0311,-48.4564 647.978,-37.3308 654.6829,-27.9439"/>
<polygon fill="#191970" stroke="#191970" points="657.648,-29.8144 660.6124,-19.6427 651.9519,-25.7457 657.648,-29.8144"/>
</g>
<!-- Node11 -->
<g id="node12" class="node">
<title>Node11</title>
<polygon fill="none" stroke="#bfbfbf" points="722.5,-.5 722.5,-19.5 766.5,-19.5 766.5,-.5 722.5,-.5"/>
<text text-anchor="middle" x="744.5" y="-7.5" font-family="Helvetica,sans-Serif" font-size="10.00" fill="#000000">string</text>
</g>
<!-- Node7&#45;&gt;Node11 -->
<g id="edge11" class="edge">
<title>Node7&#45;&gt;Node11</title>
<path fill="none" stroke="#191970" d="M647.613,-56.3733C666.3103,-47.4241 694.3744,-33.9917 715.4934,-23.8835"/>
<polygon fill="#191970" stroke="#191970" points="717.1405,-26.9755 724.6494,-19.5011 714.1183,-20.6614 717.1405,-26.9755"/>
</g>
<!-- Node12 -->
<g id="node13" class="node">
<title>Node12</title>
<polygon fill="none" stroke="#bfbfbf" points="785,-.5 785,-19.5 854,-19.5 854,-.5 785,-.5"/>
<text text-anchor="middle" x="819.5" y="-7.5" font-family="Helvetica,sans-Serif" font-size="10.00" fill="#000000">type_traits</text>
</g>
<!-- Node7&#45;&gt;Node12 -->
<g id="edge12" class="edge">
<title>Node7&#45;&gt;Node12</title>
<path fill="none" stroke="#191970" d="M660.506,-56.3733C692.7091,-46.9807 741.8442,-32.6496 776.9639,-22.4064"/>
<polygon fill="#191970" stroke="#191970" points="778.3047,-25.6612 786.9247,-19.5011 776.3447,-18.9412 778.3047,-25.6612"/>
</g>
</g>
</svg>
