<?xml version="1.0" encoding="UTF-8" standalone="no"?>
<!DOCTYPE svg PUBLIC "-//W3C//DTD SVG 1.1//EN"
 "http://www.w3.org/Graphics/SVG/1.1/DTD/svg11.dtd">
<!-- Generated by graphviz version 2.40.1 (20161225.0304)
 -->
<!-- Title: /home/travis/build/AliceO2Group/AliceO2/Detectors/FIT/FDD/simulation/src/digit2raw.cxx Pages: 1 -->
<svg width="3671pt" height="609pt"
 viewBox="0.00 0.00 3670.65 609.00" xmlns="http://www.w3.org/2000/svg" xmlns:xlink="http://www.w3.org/1999/xlink">
<g id="graph0" class="graph" transform="scale(1 1) rotate(0) translate(4 605)">
<title>/home/travis/build/AliceO2Group/AliceO2/Detectors/FIT/FDD/simulation/src/digit2raw.cxx</title>
<!-- Node0 -->
<g id="node1" class="node">
<title>Node0</title>
<polygon fill="#bfbfbf" stroke="#000000" points="682,-548.5 682,-600.5 844,-600.5 844,-548.5 682,-548.5"/>
<text text-anchor="start" x="690" y="-588.5" font-family="Helvetica,sans-Serif" font-size="10.00" fill="#000000">/home/travis/build</text>
<text text-anchor="start" x="690" y="-577.5" font-family="Helvetica,sans-Serif" font-size="10.00" fill="#000000">/AliceO2Group/AliceO2</text>
<text text-anchor="start" x="690" y="-566.5" font-family="Helvetica,sans-Serif" font-size="10.00" fill="#000000">/Detectors/FIT/FDD/simulation</text>
<text text-anchor="middle" x="763" y="-555.5" font-family="Helvetica,sans-Serif" font-size="10.00" fill="#000000">/src/digit2raw.cxx</text>
</g>
<!-- Node1 -->
<g id="node2" class="node">
<title>Node1</title>
<polygon fill="none" stroke="#bfbfbf" points="80,-492.5 80,-511.5 230,-511.5 230,-492.5 80,-492.5"/>
<text text-anchor="middle" x="155" y="-499.5" font-family="Helvetica,sans-Serif" font-size="10.00" fill="#000000">boost/program_options.hpp</text>
</g>
<!-- Node0&#45;&gt;Node1 -->
<g id="edge1" class="edge">
<title>Node0&#45;&gt;Node1</title>
<path fill="none" stroke="#191970" d="M681.948,-564.8351C566.9699,-551.1247 357.4837,-526.1448 240.2531,-512.1659"/>
<polygon fill="#191970" stroke="#191970" points="240.5866,-508.6809 230.2425,-510.9722 239.7577,-515.6317 240.5866,-508.6809"/>
</g>
<!-- Node2 -->
<g id="node3" class="node">
<title>Node2</title>
<polygon fill="none" stroke="#bfbfbf" points="248,-492.5 248,-511.5 316,-511.5 316,-492.5 248,-492.5"/>
<text text-anchor="middle" x="282" y="-499.5" font-family="Helvetica,sans-Serif" font-size="10.00" fill="#000000">TSystem.h</text>
</g>
<!-- Node0&#45;&gt;Node2 -->
<g id="edge2" class="edge">
<title>Node0&#45;&gt;Node2</title>
<path fill="none" stroke="#191970" d="M681.7594,-564.3038C594.5656,-553.0035 452.1124,-533.5117 330,-512 328.7268,-511.7757 327.4357,-511.5428 326.1334,-511.3032"/>
<polygon fill="#191970" stroke="#191970" points="326.519,-507.8133 316.0382,-509.3633 325.198,-514.6876 326.519,-507.8133"/>
</g>
<!-- Node3 -->
<g id="node4" class="node">
<title>Node3</title>
<polygon fill="none" stroke="#bfbfbf" points="1359,-241 1359,-260 1407,-260 1407,-241 1359,-241"/>
<text text-anchor="middle" x="1383" y="-248" font-family="Helvetica,sans-Serif" font-size="10.00" fill="#000000">TFile.h</text>
</g>
<!-- Node0&#45;&gt;Node3 -->
<g id="edge3" class="edge">
<title>Node0&#45;&gt;Node3</title>
<path fill="none" stroke="#191970" d="M756.5421,-548.2544C747.6084,-505.0016 737.232,-418.608 782,-369 786.8728,-363.6004 1222.6305,-280.8319 1349.0078,-256.9218"/>
<polygon fill="#191970" stroke="#191970" points="1349.7407,-260.3453 1358.9161,-255.0479 1348.4399,-253.4673 1349.7407,-260.3453"/>
</g>
<!-- Node4 -->
<g id="node5" class="node">
<title>Node4</title>
<polygon fill="none" stroke="#bfbfbf" points="791.5,-375 791.5,-394 874.5,-394 874.5,-375 791.5,-375"/>
<text text-anchor="middle" x="833" y="-382" font-family="Helvetica,sans-Serif" font-size="10.00" fill="#000000">TStopwatch.h</text>
</g>
<!-- Node0&#45;&gt;Node4 -->
<g id="edge4" class="edge">
<title>Node0&#45;&gt;Node4</title>
<path fill="none" stroke="#191970" d="M772.5864,-548.4797C786.7771,-509.9623 813.0605,-438.6216 825.7593,-404.1532"/>
<polygon fill="#191970" stroke="#191970" points="829.1996,-404.9396 829.3725,-394.3461 822.6312,-402.5196 829.1996,-404.9396"/>
</g>
<!-- Node5 -->
<g id="node6" class="node">
<title>Node5</title>
<polygon fill="none" stroke="#bfbfbf" points="658,-112.5 658,-131.5 702,-131.5 702,-112.5 658,-112.5"/>
<text text-anchor="middle" x="680" y="-119.5" font-family="Helvetica,sans-Serif" font-size="10.00" fill="#000000">string</text>
</g>
<!-- Node0&#45;&gt;Node5 -->
<g id="edge5" class="edge">
<title>Node0&#45;&gt;Node5</title>
<path fill="none" stroke="#191970" d="M745.8655,-548.3269C718.7616,-505.3942 666.7443,-416.4257 644,-333 624.7023,-262.2164 622.4296,-236.3866 649,-168 652.9444,-157.848 659.4538,-147.6883 665.4921,-139.5089"/>
<polygon fill="#191970" stroke="#191970" points="668.3404,-141.5476 671.7157,-131.5048 662.8143,-137.2508 668.3404,-141.5476"/>
</g>
<!-- Node6 -->
<g id="node7" class="node">
<title>Node6</title>
<polygon fill="none" stroke="#bfbfbf" points="2329,-174 2329,-193 2385,-193 2385,-174 2329,-174"/>
<text text-anchor="middle" x="2357" y="-181" font-family="Helvetica,sans-Serif" font-size="10.00" fill="#000000">iomanip</text>
</g>
<!-- Node0&#45;&gt;Node6 -->
<g id="edge6" class="edge">
<title>Node0&#45;&gt;Node6</title>
<path fill="none" stroke="#191970" d="M752.8837,-548.4593C738.0844,-505.5048 716.705,-419.5347 760,-369 763.4373,-364.988 1110.8209,-236.0431 1116,-235 1325.281,-192.8507 1862.7454,-208.8793 2076,-199 2162.7079,-194.9831 2264.3984,-189.0767 2318.5185,-185.8378"/>
<polygon fill="#191970" stroke="#191970" points="2318.9176,-189.3203 2328.6898,-185.227 2318.4979,-182.3329 2318.9176,-189.3203"/>
</g>
<!-- Node7 -->
<g id="node8" class="node">
<title>Node7</title>
<g id="a_node8"><a xlink:href="../../dd/da4/Logger_8h.html" target="_top" xlink:title="Framework/Logger.h">
<polygon fill="none" stroke="#000000" points="2849.5,-174 2849.5,-193 2964.5,-193 2964.5,-174 2849.5,-174"/>
<text text-anchor="middle" x="2907" y="-181" font-family="Helvetica,sans-Serif" font-size="10.00" fill="#000000">Framework/Logger.h</text>
</a>
</g>
</g>
<!-- Node0&#45;&gt;Node7 -->
<g id="edge7" class="edge">
<title>Node0&#45;&gt;Node7</title>
<path fill="none" stroke="#191970" d="M844.1832,-572.394C1267.5605,-561.1509 3203,-506.4482 3203,-446 3203,-446 3203,-446 3203,-317.5 3203,-272.9329 3183.052,-259.7664 3146,-235 3131.4831,-225.2966 3036.8807,-206.7892 2971.1461,-194.8052"/>
<polygon fill="#191970" stroke="#191970" points="2971.7298,-191.354 2961.2657,-193.0133 2970.4806,-198.2417 2971.7298,-191.354"/>
</g>
<!-- Node9 -->
<g id="node10" class="node">
<title>Node9</title>
<polygon fill="none" stroke="#bfbfbf" points="829.5,-436.5 829.5,-455.5 904.5,-455.5 904.5,-436.5 829.5,-436.5"/>
<text text-anchor="middle" x="867" y="-443.5" font-family="Helvetica,sans-Serif" font-size="10.00" fill="#000000">FairLogger.h</text>
</g>
<!-- Node0&#45;&gt;Node9 -->
<g id="edge9" class="edge">
<title>Node0&#45;&gt;Node9</title>
<path fill="none" stroke="#191970" d="M784.9143,-548.4763C794.2545,-537.3034 805.2293,-524.067 815,-512 828.1025,-495.8181 842.7594,-477.1635 853.1642,-463.824"/>
<polygon fill="#191970" stroke="#191970" points="855.9479,-465.9459 859.3286,-455.9049 850.4241,-461.6461 855.9479,-465.9459"/>
</g>
<!-- Node10 -->
<g id="node11" class="node">
<title>Node10</title>
<g id="a_node11"><a xlink:href="../../d1/d1e/Common_2Utils_2include_2CommonUtils_2StringUtils_8h.html" target="_top" xlink:title="CommonUtils/StringUtils.h">
<polygon fill="none" stroke="#000000" points="271,-308 271,-327 417,-327 417,-308 271,-308"/>
<text text-anchor="middle" x="344" y="-315" font-family="Helvetica,sans-Serif" font-size="10.00" fill="#000000">CommonUtils/StringUtils.h</text>
</a>
</g>
</g>
<!-- Node0&#45;&gt;Node10 -->
<g id="edge10" class="edge">
<title>Node0&#45;&gt;Node10</title>
<path fill="none" stroke="#191970" d="M681.7533,-559.5827C635.921,-549.4921 578.3312,-533.9564 530,-512 448.6339,-475.0362 413.6968,-473.5975 363,-400 350.0804,-381.2444 345.8398,-354.9682 344.5051,-337.1471"/>
<polygon fill="#191970" stroke="#191970" points="347.9953,-336.8629 343.9916,-327.0537 341.0043,-337.2187 347.9953,-336.8629"/>
</g>
<!-- Node12 -->
<g id="node13" class="node">
<title>Node12</title>
<g id="a_node13"><a xlink:href="../../db/d2c/ConfigurableParam_8h.html" target="_top" xlink:title="CommonUtils/Configurable\lParam.h">
<polygon fill="none" stroke="#000000" points="1879,-235.5 1879,-265.5 2027,-265.5 2027,-235.5 1879,-235.5"/>
<text text-anchor="start" x="1887" y="-253.5" font-family="Helvetica,sans-Serif" font-size="10.00" fill="#000000">CommonUtils/Configurable</text>
<text text-anchor="middle" x="1953" y="-242.5" font-family="Helvetica,sans-Serif" font-size="10.00" fill="#000000">Param.h</text>
</a>
</g>
</g>
<!-- Node0&#45;&gt;Node12 -->
<g id="edge12" class="edge">
<title>Node0&#45;&gt;Node12</title>
<path fill="none" stroke="#191970" d="M844.3607,-572.6933C1060.8144,-567.4195 1647.2144,-549.9583 1837,-512 1984.7554,-482.448 2069.8094,-522.8934 2157,-400 2164.9724,-388.7631 2162.6286,-381.5756 2157,-369 2138.7401,-328.2029 2120.0003,-325.533 2082,-302 2060.2939,-288.5577 2034.4773,-277.4255 2011.663,-268.9917"/>
<polygon fill="#191970" stroke="#191970" points="2012.6843,-265.6395 2002.0899,-265.5436 2010.3121,-272.2254 2012.6843,-265.6395"/>
</g>
<!-- Node19 -->
<g id="node20" class="node">
<title>Node19</title>
<g id="a_node20"><a xlink:href="../../d7/d61/NameConf_8h.html" target="_top" xlink:title="Definition of the Names Generator class. ">
<polygon fill="none" stroke="#000000" points="372.5,-369.5 372.5,-399.5 543.5,-399.5 543.5,-369.5 372.5,-369.5"/>
<text text-anchor="start" x="380.5" y="-387.5" font-family="Helvetica,sans-Serif" font-size="10.00" fill="#000000">DetectorsCommonDataFormats</text>
<text text-anchor="middle" x="458" y="-376.5" font-family="Helvetica,sans-Serif" font-size="10.00" fill="#000000">/NameConf.h</text>
</a>
</g>
</g>
<!-- Node0&#45;&gt;Node19 -->
<g id="edge19" class="edge">
<title>Node0&#45;&gt;Node19</title>
<path fill="none" stroke="#191970" d="M681.8369,-561.6376C641.9787,-552.4872 594.7534,-537.188 558,-512 518.3882,-484.853 487.1399,-437.2188 470.7143,-408.4901"/>
<polygon fill="#191970" stroke="#191970" points="473.6461,-406.561 465.7214,-399.5289 467.5312,-409.9681 473.6461,-406.561"/>
</g>
<!-- Node47 -->
<g id="node48" class="node">
<title>Node47</title>
<g id="a_node48"><a xlink:href="../../d1/dec/HBFUtils_8h.html" target="_top" xlink:title="DetectorsRaw/HBFUtils.h">
<polygon fill="none" stroke="#000000" points="2009.5,-375 2009.5,-394 2148.5,-394 2148.5,-375 2009.5,-375"/>
<text text-anchor="middle" x="2079" y="-382" font-family="Helvetica,sans-Serif" font-size="10.00" fill="#000000">DetectorsRaw/HBFUtils.h</text>
</a>
</g>
</g>
<!-- Node0&#45;&gt;Node47 -->
<g id="edge59" class="edge">
<title>Node0&#45;&gt;Node47</title>
<path fill="none" stroke="#191970" d="M844.0014,-573.2595C1053.8029,-569.4577 1610.988,-555.4539 1790,-512 1892.9199,-487.0169 2005.0285,-427.1664 2053.8891,-399.2742"/>
<polygon fill="#191970" stroke="#191970" points="2055.8794,-402.1669 2062.7965,-394.1416 2052.3845,-396.1017 2055.8794,-402.1669"/>
</g>
<!-- Node59 -->
<g id="node60" class="node">
<title>Node59</title>
<g id="a_node60"><a xlink:href="../../d7/d05/FDD_2simulation_2include_2FDDSimulation_2Digits2Raw_8h.html" target="_top" xlink:title="FDDSimulation/Digits2Raw.h">
<polygon fill="none" stroke="#000000" points="1625,-492.5 1625,-511.5 1781,-511.5 1781,-492.5 1625,-492.5"/>
<text text-anchor="middle" x="1703" y="-499.5" font-family="Helvetica,sans-Serif" font-size="10.00" fill="#000000">FDDSimulation/Digits2Raw.h</text>
</a>
</g>
</g>
<!-- Node0&#45;&gt;Node59 -->
<g id="edge90" class="edge">
<title>Node0&#45;&gt;Node59</title>
<path fill="none" stroke="#191970" d="M844.3655,-568.2245C1020.0038,-554.6779 1433.419,-522.7921 1614.9326,-508.7924"/>
<polygon fill="#191970" stroke="#191970" points="1615.2743,-512.2766 1624.9755,-508.0178 1614.736,-505.2973 1615.2743,-512.2766"/>
</g>
<!-- Node8 -->
<g id="node9" class="node">
<title>Node8</title>
<polygon fill="none" stroke="#bfbfbf" points="2853,-112.5 2853,-131.5 2961,-131.5 2961,-112.5 2853,-112.5"/>
<text text-anchor="middle" x="2907" y="-119.5" font-family="Helvetica,sans-Serif" font-size="10.00" fill="#000000">fairlogger/Logger.h</text>
</g>
<!-- Node7&#45;&gt;Node8 -->
<g id="edge8" class="edge">
<title>Node7&#45;&gt;Node8</title>
<path fill="none" stroke="#191970" d="M2907,-173.8906C2907,-165.3657 2907,-152.6392 2907,-141.9235"/>
<polygon fill="#191970" stroke="#191970" points="2910.5001,-141.7448 2907,-131.7449 2903.5001,-141.7449 2910.5001,-141.7448"/>
</g>
<!-- Node11 -->
<g id="node12" class="node">
<title>Node11</title>
<polygon fill="none" stroke="#bfbfbf" points="251,-241 251,-260 307,-260 307,-241 251,-241"/>
<text text-anchor="middle" x="279" y="-248" font-family="Helvetica,sans-Serif" font-size="10.00" fill="#000000">sstream</text>
</g>
<!-- Node10&#45;&gt;Node11 -->
<g id="edge11" class="edge">
<title>Node10&#45;&gt;Node11</title>
<path fill="none" stroke="#191970" d="M334.6871,-307.9005C324.4544,-297.353 307.8228,-280.2096 295.3954,-267.3998"/>
<polygon fill="#191970" stroke="#191970" points="297.7709,-264.822 288.2956,-260.0817 292.7467,-269.6962 297.7709,-264.822"/>
</g>
<!-- Node13 -->
<g id="node14" class="node">
<title>Node13</title>
<polygon fill="none" stroke="#bfbfbf" points="1161.5,-174 1161.5,-193 1208.5,-193 1208.5,-174 1161.5,-174"/>
<text text-anchor="middle" x="1185" y="-181" font-family="Helvetica,sans-Serif" font-size="10.00" fill="#000000">vector</text>
</g>
<!-- Node12&#45;&gt;Node13 -->
<g id="edge13" class="edge">
<title>Node12&#45;&gt;Node13</title>
<path fill="none" stroke="#191970" d="M1878.7809,-245.7174C1758.5411,-237.7144 1513.7588,-220.364 1307,-199 1277.2149,-195.9224 1243.4493,-191.5649 1219.0038,-188.2535"/>
<polygon fill="#191970" stroke="#191970" points="1219.1886,-184.7463 1208.8067,-186.8597 1218.2405,-191.6818 1219.1886,-184.7463"/>
</g>
<!-- Node14 -->
<g id="node15" class="node">
<title>Node14</title>
<polygon fill="none" stroke="#bfbfbf" points="1316,-174 1316,-193 1354,-193 1354,-174 1316,-174"/>
<text text-anchor="middle" x="1335" y="-181" font-family="Helvetica,sans-Serif" font-size="10.00" fill="#000000">map</text>
</g>
<!-- Node12&#45;&gt;Node14 -->
<g id="edge14" class="edge">
<title>Node12&#45;&gt;Node14</title>
<path fill="none" stroke="#191970" d="M1878.7619,-242.4515C1742.0985,-227.6353 1456.2604,-196.6464 1364.2238,-186.6683"/>
<polygon fill="#191970" stroke="#191970" points="1364.5433,-183.1825 1354.2243,-185.5842 1363.7887,-190.1417 1364.5433,-183.1825"/>
</g>
<!-- Node15 -->
<g id="node16" class="node">
<title>Node15</title>
<polygon fill="none" stroke="#bfbfbf" points="1525.5,-174 1525.5,-193 1618.5,-193 1618.5,-174 1525.5,-174"/>
<text text-anchor="middle" x="1572" y="-181" font-family="Helvetica,sans-Serif" font-size="10.00" fill="#000000">unordered_map</text>
</g>
<!-- Node12&#45;&gt;Node15 -->
<g id="edge15" class="edge">
<title>Node12&#45;&gt;Node15</title>
<path fill="none" stroke="#191970" d="M1878.7352,-241.3099C1812.3554,-232.4934 1712.6363,-217.7625 1627,-199 1622.5741,-198.0303 1617.9768,-196.9133 1613.4102,-195.7323"/>
<polygon fill="#191970" stroke="#191970" points="1614.1064,-192.2952 1603.5405,-193.0773 1612.288,-199.0549 1614.1064,-192.2952"/>
</g>
<!-- Node16 -->
<g id="node17" class="node">
<title>Node16</title>
<polygon fill="none" stroke="#bfbfbf" points="1879.5,-168.5 1879.5,-198.5 1992.5,-198.5 1992.5,-168.5 1879.5,-168.5"/>
<text text-anchor="start" x="1887.5" y="-186.5" font-family="Helvetica,sans-Serif" font-size="10.00" fill="#000000">boost/property_tree</text>
<text text-anchor="middle" x="1936" y="-175.5" font-family="Helvetica,sans-Serif" font-size="10.00" fill="#000000">/ptree.hpp</text>
</g>
<!-- Node12&#45;&gt;Node16 -->
<g id="edge16" class="edge">
<title>Node12&#45;&gt;Node16</title>
<path fill="none" stroke="#191970" d="M1949.1424,-235.2967C1947.1428,-227.4156 1944.6486,-217.5857 1942.3721,-208.6135"/>
<polygon fill="#191970" stroke="#191970" points="1945.6943,-207.4752 1939.8423,-198.6432 1938.9093,-209.1968 1945.6943,-207.4752"/>
</g>
<!-- Node17 -->
<g id="node18" class="node">
<title>Node17</title>
<polygon fill="none" stroke="#bfbfbf" points="2010.5,-174 2010.5,-193 2067.5,-193 2067.5,-174 2010.5,-174"/>
<text text-anchor="middle" x="2039" y="-181" font-family="Helvetica,sans-Serif" font-size="10.00" fill="#000000">typeinfo</text>
</g>
<!-- Node12&#45;&gt;Node17 -->
<g id="edge17" class="edge">
<title>Node12&#45;&gt;Node17</title>
<path fill="none" stroke="#191970" d="M1972.5147,-235.2967C1986.3042,-224.5537 2004.7418,-210.1895 2018.7028,-199.3129"/>
<polygon fill="#191970" stroke="#191970" points="2020.9978,-201.9618 2026.7354,-193.055 2016.6958,-196.4398 2020.9978,-201.9618"/>
</g>
<!-- Node18 -->
<g id="node19" class="node">
<title>Node18</title>
<polygon fill="none" stroke="#bfbfbf" points="2657,-174 2657,-193 2717,-193 2717,-174 2657,-174"/>
<text text-anchor="middle" x="2687" y="-181" font-family="Helvetica,sans-Serif" font-size="10.00" fill="#000000">iostream</text>
</g>
<!-- Node12&#45;&gt;Node18 -->
<g id="edge18" class="edge">
<title>Node12&#45;&gt;Node18</title>
<path fill="none" stroke="#191970" d="M2027.2203,-240.7496C2044.2168,-238.6892 2062.2198,-236.6438 2079,-235 2297.648,-213.5816 2353.4797,-221.6834 2572,-199 2596.9099,-196.4142 2624.7449,-192.6848 2646.7903,-189.5321"/>
<polygon fill="#191970" stroke="#191970" points="2647.3985,-192.9807 2656.7941,-188.0845 2646.3959,-186.0528 2647.3985,-192.9807"/>
</g>
<!-- Node19&#45;&gt;Node10 -->
<g id="edge57" class="edge">
<title>Node19&#45;&gt;Node10</title>
<path fill="none" stroke="#191970" d="M432.4162,-369.4639C413.5469,-358.3741 387.9979,-343.3584 369.2161,-332.32"/>
<polygon fill="#191970" stroke="#191970" points="370.7357,-329.1534 360.341,-327.1039 367.1889,-335.1883 370.7357,-329.1534"/>
</g>
<!-- Node20 -->
<g id="node21" class="node">
<title>Node20</title>
<g id="a_node21"><a xlink:href="../../d6/d31/DetID_8h.html" target="_top" xlink:title="DetectorsCommonDataFormats\l/DetID.h">
<polygon fill="none" stroke="#000000" points="669.5,-302.5 669.5,-332.5 840.5,-332.5 840.5,-302.5 669.5,-302.5"/>
<text text-anchor="start" x="677.5" y="-320.5" font-family="Helvetica,sans-Serif" font-size="10.00" fill="#000000">DetectorsCommonDataFormats</text>
<text text-anchor="middle" x="755" y="-309.5" font-family="Helvetica,sans-Serif" font-size="10.00" fill="#000000">/DetID.h</text>
</a>
</g>
</g>
<!-- Node19&#45;&gt;Node20 -->
<g id="edge20" class="edge">
<title>Node19&#45;&gt;Node20</title>
<path fill="none" stroke="#191970" d="M524.6526,-369.4639C570.2381,-359.1803 630.788,-345.5209 678.3674,-334.7875"/>
<polygon fill="#191970" stroke="#191970" points="679.3288,-338.1586 688.3134,-332.5438 677.7883,-331.3302 679.3288,-338.1586"/>
</g>
<!-- Node26 -->
<g id="node27" class="node">
<title>Node26</title>
<polygon fill="none" stroke="#bfbfbf" points="566.5,-112.5 566.5,-131.5 639.5,-131.5 639.5,-112.5 566.5,-112.5"/>
<text text-anchor="middle" x="603" y="-119.5" font-family="Helvetica,sans-Serif" font-size="10.00" fill="#000000">string_view</text>
</g>
<!-- Node19&#45;&gt;Node26 -->
<g id="edge58" class="edge">
<title>Node19&#45;&gt;Node26</title>
<path fill="none" stroke="#191970" d="M457.7761,-369.2658C457.9999,-331.0947 463.532,-229.9875 513,-168 524.8946,-153.0951 542.9087,-142.5552 559.7034,-135.3604"/>
<polygon fill="#191970" stroke="#191970" points="561.3986,-138.4528 569.3955,-131.503 558.8101,-131.9489 561.3986,-138.4528"/>
</g>
<!-- Node20&#45;&gt;Node5 -->
<g id="edge27" class="edge">
<title>Node20&#45;&gt;Node5</title>
<path fill="none" stroke="#191970" d="M746.32,-302.247C734.0423,-280.1189 711.5889,-237.5387 698,-199 691.3141,-180.0385 686.387,-157.5716 683.3944,-141.8158"/>
<polygon fill="#191970" stroke="#191970" points="686.7843,-140.8924 681.5598,-131.6753 679.8961,-142.1387 686.7843,-140.8924"/>
</g>
<!-- Node21 -->
<g id="node22" class="node">
<title>Node21</title>
<polygon fill="none" stroke="#bfbfbf" points="2599.5,-112.5 2599.5,-131.5 2658.5,-131.5 2658.5,-112.5 2599.5,-112.5"/>
<text text-anchor="middle" x="2629" y="-119.5" font-family="Helvetica,sans-Serif" font-size="10.00" fill="#000000">Rtypes.h</text>
</g>
<!-- Node20&#45;&gt;Node21 -->
<g id="edge21" class="edge">
<title>Node20&#45;&gt;Node21</title>
<path fill="none" stroke="#191970" d="M815.5548,-302.4063C847.1025,-293.5727 885.9003,-281.1656 919,-266 942.7705,-255.1089 944.9426,-245.2419 969,-235 1028.5086,-209.6655 1051.5638,-226.7186 1110,-199 1130.962,-189.0569 1130.0544,-175.5275 1152,-168 1300.4501,-117.0802 2391.2347,-152.6507 2589.3125,-131.567"/>
<polygon fill="#191970" stroke="#191970" points="2589.8253,-135.0304 2599.3276,-130.3448 2588.9773,-128.082 2589.8253,-135.0304"/>
</g>
<!-- Node22 -->
<g id="node23" class="node">
<title>Node22</title>
<polygon fill="none" stroke="#bfbfbf" points="506,-112.5 506,-131.5 548,-131.5 548,-112.5 506,-112.5"/>
<text text-anchor="middle" x="527" y="-119.5" font-family="Helvetica,sans-Serif" font-size="10.00" fill="#000000">array</text>
</g>
<!-- Node20&#45;&gt;Node22 -->
<g id="edge22" class="edge">
<title>Node20&#45;&gt;Node22</title>
<path fill="none" stroke="#191970" d="M732.4118,-302.4165C717.9505,-292.5008 698.9721,-278.9998 683,-266 629.9233,-222.8006 571.7766,-166.5159 543.8343,-138.8513"/>
<polygon fill="#191970" stroke="#191970" points="546.0355,-136.1043 536.4764,-131.5355 541.1,-141.0683 546.0355,-136.1043"/>
</g>
<!-- Node23 -->
<g id="node24" class="node">
<title>Node23</title>
<polygon fill="none" stroke="#bfbfbf" points="1425,-241 1425,-260 1469,-260 1469,-241 1425,-241"/>
<text text-anchor="middle" x="1447" y="-248" font-family="Helvetica,sans-Serif" font-size="10.00" fill="#000000">bitset</text>
</g>
<!-- Node20&#45;&gt;Node23 -->
<g id="edge23" class="edge">
<title>Node20&#45;&gt;Node23</title>
<path fill="none" stroke="#191970" d="M840.7152,-314.9107C994.262,-309.5948 1310.0781,-295.3948 1416,-266 1417.7141,-265.5243 1419.4456,-264.9518 1421.1678,-264.3112"/>
<polygon fill="#191970" stroke="#191970" points="1422.9991,-267.3292 1430.7415,-260.0969 1420.1789,-260.9225 1422.9991,-267.3292"/>
</g>
<!-- Node24 -->
<g id="node25" class="node">
<title>Node24</title>
<polygon fill="none" stroke="#bfbfbf" points="1284,-112.5 1284,-131.5 1336,-131.5 1336,-112.5 1284,-112.5"/>
<text text-anchor="middle" x="1310" y="-119.5" font-family="Helvetica,sans-Serif" font-size="10.00" fill="#000000">cassert</text>
</g>
<!-- Node20&#45;&gt;Node24 -->
<g id="edge24" class="edge">
<title>Node20&#45;&gt;Node24</title>
<path fill="none" stroke="#191970" d="M765.4938,-302.4664C790.0493,-267.7692 851.4743,-183.8521 882,-168 957.246,-128.9245 1173.7566,-146.8203 1273.8611,-131.7427"/>
<polygon fill="#191970" stroke="#191970" points="1274.4767,-135.1884 1283.7526,-130.0689 1273.3088,-128.2865 1274.4767,-135.1884"/>
</g>
<!-- Node25 -->
<g id="node26" class="node">
<title>Node25</title>
<polygon fill="none" stroke="#bfbfbf" points="1685,-112.5 1685,-131.5 1735,-131.5 1735,-112.5 1685,-112.5"/>
<text text-anchor="middle" x="1710" y="-119.5" font-family="Helvetica,sans-Serif" font-size="10.00" fill="#000000">cstdint</text>
</g>
<!-- Node20&#45;&gt;Node25 -->
<g id="edge25" class="edge">
<title>Node20&#45;&gt;Node25</title>
<path fill="none" stroke="#191970" d="M775.9488,-302.2838C802.1332,-283.9164 848.8872,-253.2308 893,-235 953.9682,-209.8033 977.0186,-226.4633 1037,-199 1058.7502,-189.0414 1058.4749,-176.0539 1081,-168 1136.9761,-147.9857 1550.6406,-128.8246 1674.8405,-123.4725"/>
<polygon fill="#191970" stroke="#191970" points="1675.1053,-126.9644 1684.9465,-123.04 1674.8059,-119.9708 1675.1053,-126.9644"/>
</g>
<!-- Node20&#45;&gt;Node26 -->
<g id="edge26" class="edge">
<title>Node20&#45;&gt;Node26</title>
<path fill="none" stroke="#191970" d="M741.288,-302.447C732.2026,-292.3193 720.1359,-278.5703 710,-266 674.3435,-221.7796 635.1837,-167.4786 615.6102,-139.905"/>
<polygon fill="#191970" stroke="#191970" points="618.3896,-137.7735 609.7565,-131.6318 612.6753,-141.8167 618.3896,-137.7735"/>
</g>
<!-- Node27 -->
<g id="node28" class="node">
<title>Node27</title>
<polygon fill="none" stroke="#bfbfbf" points="1753.5,-112.5 1753.5,-131.5 1822.5,-131.5 1822.5,-112.5 1753.5,-112.5"/>
<text text-anchor="middle" x="1788" y="-119.5" font-family="Helvetica,sans-Serif" font-size="10.00" fill="#000000">type_traits</text>
</g>
<!-- Node20&#45;&gt;Node27 -->
<g id="edge28" class="edge">
<title>Node20&#45;&gt;Node27</title>
<path fill="none" stroke="#191970" d="M794.6507,-302.4512C819.0509,-292.8107 850.7608,-279.5936 878,-266 902.4174,-253.8146 905.7474,-245.3439 931,-235 991.2491,-210.321 1013.568,-225.5868 1073,-199 1095.5045,-188.9327 1095.6391,-175.8784 1119,-168 1247.8634,-124.5411 1590.3982,-150.2643 1742.8314,-131.8389"/>
<polygon fill="#191970" stroke="#191970" points="1743.5744,-135.2714 1753.0328,-130.4975 1742.6618,-128.3311 1743.5744,-135.2714"/>
</g>
<!-- Node28 -->
<g id="node29" class="node">
<title>Node28</title>
<g id="a_node29"><a xlink:href="../../d9/d52/Common_2MathUtils_2include_2MathUtils_2Utils_8h.html" target="_top" xlink:title="MathUtils/Utils.h">
<polygon fill="none" stroke="#000000" points="325,-241 325,-260 423,-260 423,-241 325,-241"/>
<text text-anchor="middle" x="374" y="-248" font-family="Helvetica,sans-Serif" font-size="10.00" fill="#000000">MathUtils/Utils.h</text>
</a>
</g>
</g>
<!-- Node20&#45;&gt;Node28 -->
<g id="edge29" class="edge">
<title>Node20&#45;&gt;Node28</title>
<path fill="none" stroke="#191970" d="M669.4962,-302.4639C597.5878,-289.8186 496.6531,-272.0689 433.3211,-260.9318"/>
<polygon fill="#191970" stroke="#191970" points="433.5602,-257.4202 423.1051,-259.1353 432.3477,-264.3144 433.5602,-257.4202"/>
</g>
<!-- Node40 -->
<g id="node41" class="node">
<title>Node40</title>
<g id="a_node41"><a xlink:href="../../dc/dcd/DataHeader_8h.html" target="_top" xlink:title="Headers/DataHeader.h">
<polygon fill="none" stroke="#000000" points="707.5,-174 707.5,-193 834.5,-193 834.5,-174 707.5,-174"/>
<text text-anchor="middle" x="771" y="-181" font-family="Helvetica,sans-Serif" font-size="10.00" fill="#000000">Headers/DataHeader.h</text>
</a>
</g>
</g>
<!-- Node20&#45;&gt;Node40 -->
<g id="edge46" class="edge">
<title>Node20&#45;&gt;Node40</title>
<path fill="none" stroke="#191970" d="M756.8043,-302.389C759.7076,-278.0735 765.4162,-230.2644 768.6394,-203.2698"/>
<polygon fill="#191970" stroke="#191970" points="772.1429,-203.4486 769.8532,-193.1042 765.1922,-202.6186 772.1429,-203.4486"/>
</g>
<!-- Node29 -->
<g id="node30" class="node">
<title>Node29</title>
<g id="a_node30"><a xlink:href="../../de/def/bitOps_8h.html" target="_top" xlink:title="MathUtils/detail/bitOps.h">
<polygon fill="none" stroke="#000000" points="891.5,-174 891.5,-193 1028.5,-193 1028.5,-174 891.5,-174"/>
<text text-anchor="middle" x="960" y="-181" font-family="Helvetica,sans-Serif" font-size="10.00" fill="#000000">MathUtils/detail/bitOps.h</text>
</a>
</g>
</g>
<!-- Node28&#45;&gt;Node29 -->
<g id="edge30" class="edge">
<title>Node28&#45;&gt;Node29</title>
<path fill="none" stroke="#191970" d="M423.3337,-245.4491C508.8482,-236.6119 690.1209,-217.5179 843,-199 855.3589,-197.503 868.4418,-195.8435 881.2089,-194.1829"/>
<polygon fill="#191970" stroke="#191970" points="881.8991,-197.6225 891.3602,-192.8541 880.9905,-190.6817 881.8991,-197.6225"/>
</g>
<!-- Node30 -->
<g id="node31" class="node">
<title>Node30</title>
<g id="a_node31"><a xlink:href="../../d3/dfc/StatAccumulator_8h.html" target="_top" xlink:title="MathUtils/detail/StatAccumulator.h">
<polygon fill="none" stroke="#000000" points="0,-174 0,-193 186,-193 186,-174 0,-174"/>
<text text-anchor="middle" x="93" y="-181" font-family="Helvetica,sans-Serif" font-size="10.00" fill="#000000">MathUtils/detail/StatAccumulator.h</text>
</a>
</g>
</g>
<!-- Node28&#45;&gt;Node30 -->
<g id="edge32" class="edge">
<title>Node28&#45;&gt;Node30</title>
<path fill="none" stroke="#191970" d="M339.0856,-240.9626C331.4881,-238.9451 323.4843,-236.8637 316,-235 258.109,-220.5843 191.4158,-205.3631 146.159,-195.24"/>
<polygon fill="#191970" stroke="#191970" points="146.7939,-191.7956 136.2716,-193.0332 145.269,-198.6275 146.7939,-191.7956"/>
</g>
<!-- Node32 -->
<g id="node33" class="node">
<title>Node32</title>
<g id="a_node33"><a xlink:href="../../dd/d7d/trigonometric_8h.html" target="_top" xlink:title="MathUtils/detail/trigonometric.h">
<polygon fill="none" stroke="#000000" points="251,-174 251,-193 423,-193 423,-174 251,-174"/>
<text text-anchor="middle" x="337" y="-181" font-family="Helvetica,sans-Serif" font-size="10.00" fill="#000000">MathUtils/detail/trigonometric.h</text>
</a>
</g>
</g>
<!-- Node28&#45;&gt;Node32 -->
<g id="edge34" class="edge">
<title>Node28&#45;&gt;Node32</title>
<path fill="none" stroke="#191970" d="M368.6988,-240.9005C363.0938,-230.751 354.1161,-214.4941 347.1435,-201.8679"/>
<polygon fill="#191970" stroke="#191970" points="350.1895,-200.1435 342.2914,-193.0817 344.0618,-203.5275 350.1895,-200.1435"/>
</g>
<!-- Node29&#45;&gt;Node25 -->
<g id="edge31" class="edge">
<title>Node29&#45;&gt;Node25</title>
<path fill="none" stroke="#191970" d="M1005.9478,-173.9384C1017.9629,-171.7079 1030.9308,-169.5379 1043,-168 1283.2423,-137.388 1574.9454,-126.1188 1674.6389,-122.9972"/>
<polygon fill="#191970" stroke="#191970" points="1674.8716,-126.4918 1684.76,-122.6879 1674.6577,-119.4951 1674.8716,-126.4918"/>
</g>
<!-- Node31 -->
<g id="node32" class="node">
<title>Node31</title>
<polygon fill="none" stroke="#bfbfbf" points="25.5,-112.5 25.5,-131.5 66.5,-131.5 66.5,-112.5 25.5,-112.5"/>
<text text-anchor="middle" x="46" y="-119.5" font-family="Helvetica,sans-Serif" font-size="10.00" fill="#000000">tuple</text>
</g>
<!-- Node30&#45;&gt;Node31 -->
<g id="edge33" class="edge">
<title>Node30&#45;&gt;Node31</title>
<path fill="none" stroke="#191970" d="M85.6563,-173.8906C78.7298,-164.8273 68.174,-151.0149 59.694,-139.9188"/>
<polygon fill="#191970" stroke="#191970" points="62.3003,-137.565 53.4473,-131.7449 56.7385,-141.8155 62.3003,-137.565"/>
</g>
<!-- Node32&#45;&gt;Node22 -->
<g id="edge35" class="edge">
<title>Node32&#45;&gt;Node22</title>
<path fill="none" stroke="#191970" d="M366.6875,-173.8906C401.835,-162.5139 460.0999,-143.6545 495.8672,-132.0772"/>
<polygon fill="#191970" stroke="#191970" points="497.3215,-135.2853 505.7576,-128.8758 495.1658,-128.6255 497.3215,-135.2853"/>
</g>
<!-- Node32&#45;&gt;Node31 -->
<g id="edge37" class="edge">
<title>Node32&#45;&gt;Node31</title>
<path fill="none" stroke="#191970" d="M283.2818,-173.9834C231.2916,-164.4695 150.3828,-148.8623 81,-132 79.5416,-131.6456 78.0525,-131.2708 76.551,-130.8826"/>
<polygon fill="#191970" stroke="#191970" points="77.2232,-127.4384 66.6555,-128.197 75.3897,-134.1941 77.2232,-127.4384"/>
</g>
<!-- Node33 -->
<g id="node34" class="node">
<title>Node33</title>
<polygon fill="none" stroke="#bfbfbf" points="368.5,-56.5 368.5,-75.5 415.5,-75.5 415.5,-56.5 368.5,-56.5"/>
<text text-anchor="middle" x="392" y="-63.5" font-family="Helvetica,sans-Serif" font-size="10.00" fill="#000000">cmath</text>
</g>
<!-- Node32&#45;&gt;Node33 -->
<g id="edge36" class="edge">
<title>Node32&#45;&gt;Node33</title>
<path fill="none" stroke="#191970" d="M250.9071,-174.6456C195.688,-166.9861 131.2211,-153.6515 114,-132 108.4668,-125.0433 108.2505,-118.779 114,-112 129.6507,-93.5468 287.1496,-76.1418 357.9009,-69.1863"/>
<polygon fill="#191970" stroke="#191970" points="358.4647,-72.6481 368.0801,-68.199 357.7889,-65.6808 358.4647,-72.6481"/>
</g>
<!-- Node34 -->
<g id="node35" class="node">
<title>Node34</title>
<g id="a_node35"><a xlink:href="../../df/d21/GPUCommonDef_8h.html" target="_top" xlink:title="GPUCommonDef.h">
<polygon fill="none" stroke="#000000" points="1405.5,-56.5 1405.5,-75.5 1512.5,-75.5 1512.5,-56.5 1405.5,-56.5"/>
<text text-anchor="middle" x="1459" y="-63.5" font-family="Helvetica,sans-Serif" font-size="10.00" fill="#000000">GPUCommonDef.h</text>
</a>
</g>
</g>
<!-- Node32&#45;&gt;Node34 -->
<g id="edge38" class="edge">
<title>Node32&#45;&gt;Node34</title>
<path fill="none" stroke="#191970" d="M360.8706,-173.9297C385.4377,-163.943 424.7146,-147.5939 458,-132 475.6398,-123.7359 478.1792,-117.0232 497,-112 583.1926,-88.9956 1194.2395,-72.3777 1395.1498,-67.4855"/>
<polygon fill="#191970" stroke="#191970" points="1395.3402,-70.982 1405.2526,-67.241 1395.1708,-63.9841 1395.3402,-70.982"/>
</g>
<!-- Node37 -->
<g id="node38" class="node">
<title>Node37</title>
<g id="a_node38"><a xlink:href="../../d6/da2/GPUCommonMath_8h.html" target="_top" xlink:title="GPUCommonMath.h">
<polygon fill="none" stroke="#000000" points="334.5,-112.5 334.5,-131.5 449.5,-131.5 449.5,-112.5 334.5,-112.5"/>
<text text-anchor="middle" x="392" y="-119.5" font-family="Helvetica,sans-Serif" font-size="10.00" fill="#000000">GPUCommonMath.h</text>
</a>
</g>
</g>
<!-- Node32&#45;&gt;Node37 -->
<g id="edge41" class="edge">
<title>Node32&#45;&gt;Node37</title>
<path fill="none" stroke="#191970" d="M345.5938,-173.8906C353.8597,-164.6478 366.5426,-150.466 376.5617,-139.2628"/>
<polygon fill="#191970" stroke="#191970" points="379.2278,-141.5321 383.2851,-131.7449 374.01,-136.8657 379.2278,-141.5321"/>
</g>
<!-- Node39 -->
<g id="node40" class="node">
<title>Node39</title>
<g id="a_node40"><a xlink:href="../../d6/d84/MathConstants_8h.html" target="_top" xlink:title="useful math constants ">
<polygon fill="none" stroke="#000000" points="123,-112.5 123,-131.5 317,-131.5 317,-112.5 123,-112.5"/>
<text text-anchor="middle" x="220" y="-119.5" font-family="Helvetica,sans-Serif" font-size="10.00" fill="#000000">CommonConstants/MathConstants.h</text>
</a>
</g>
</g>
<!-- Node32&#45;&gt;Node39 -->
<g id="edge45" class="edge">
<title>Node32&#45;&gt;Node39</title>
<path fill="none" stroke="#191970" d="M318.7188,-173.8906C299.4859,-163.7811 269.0121,-147.7628 247.0075,-136.1962"/>
<polygon fill="#191970" stroke="#191970" points="248.633,-133.0967 238.1529,-131.5419 245.376,-139.2928 248.633,-133.0967"/>
</g>
<!-- Node35 -->
<g id="node36" class="node">
<title>Node35</title>
<g id="a_node36"><a xlink:href="../../d5/d93/GPUCommonDefSettings_8h.html" target="_top" xlink:title="GPUCommonDefSettings.h">
<polygon fill="none" stroke="#000000" points="1308,-.5 1308,-19.5 1456,-19.5 1456,-.5 1308,-.5"/>
<text text-anchor="middle" x="1382" y="-7.5" font-family="Helvetica,sans-Serif" font-size="10.00" fill="#000000">GPUCommonDefSettings.h</text>
</a>
</g>
</g>
<!-- Node34&#45;&gt;Node35 -->
<g id="edge39" class="edge">
<title>Node34&#45;&gt;Node35</title>
<path fill="none" stroke="#191970" d="M1445.5876,-56.2455C1433.9943,-47.814 1417.0252,-35.4729 1403.5322,-25.6598"/>
<polygon fill="#191970" stroke="#191970" points="1405.4047,-22.6938 1395.2587,-19.6427 1401.2874,-28.355 1405.4047,-22.6938"/>
</g>
<!-- Node36 -->
<g id="node37" class="node">
<title>Node36</title>
<g id="a_node37"><a xlink:href="../../da/d5a/GPUCommonDefAPI_8h.html" target="_top" xlink:title="GPUCommonDefAPI.h">
<polygon fill="none" stroke="#000000" points="1474,-.5 1474,-19.5 1598,-19.5 1598,-.5 1474,-.5"/>
<text text-anchor="middle" x="1536" y="-7.5" font-family="Helvetica,sans-Serif" font-size="10.00" fill="#000000">GPUCommonDefAPI.h</text>
</a>
</g>
</g>
<!-- Node34&#45;&gt;Node36 -->
<g id="edge40" class="edge">
<title>Node34&#45;&gt;Node36</title>
<path fill="none" stroke="#191970" d="M1472.4124,-56.2455C1484.0057,-47.814 1500.9748,-35.4729 1514.4678,-25.6598"/>
<polygon fill="#191970" stroke="#191970" points="1516.7126,-28.355 1522.7413,-19.6427 1512.5953,-22.6938 1516.7126,-28.355"/>
</g>
<!-- Node37&#45;&gt;Node33 -->
<g id="edge43" class="edge">
<title>Node37&#45;&gt;Node33</title>
<path fill="none" stroke="#191970" d="M392,-112.2455C392,-104.9382 392,-94.6944 392,-85.7046"/>
<polygon fill="#191970" stroke="#191970" points="395.5001,-85.6426 392,-75.6427 388.5001,-85.6427 395.5001,-85.6426"/>
</g>
<!-- Node37&#45;&gt;Node34 -->
<g id="edge42" class="edge">
<title>Node37&#45;&gt;Node34</title>
<path fill="none" stroke="#191970" d="M449.7146,-113.5092C454.5408,-112.9437 459.3504,-112.4295 464,-112 814.8911,-79.5905 1237.6111,-69.6306 1395.4785,-66.9157"/>
<polygon fill="#191970" stroke="#191970" points="1395.5507,-70.4151 1405.4903,-66.7472 1395.4328,-63.4161 1395.5507,-70.4151"/>
</g>
<!-- Node38 -->
<g id="node39" class="node">
<title>Node38</title>
<polygon fill="none" stroke="#bfbfbf" points="715,-56.5 715,-75.5 779,-75.5 779,-56.5 715,-56.5"/>
<text text-anchor="middle" x="747" y="-63.5" font-family="Helvetica,sans-Serif" font-size="10.00" fill="#000000">algorithm</text>
</g>
<!-- Node37&#45;&gt;Node38 -->
<g id="edge44" class="edge">
<title>Node37&#45;&gt;Node38</title>
<path fill="none" stroke="#191970" d="M449.827,-112.878C521.2935,-101.6044 641.2079,-82.6883 704.6588,-72.6792"/>
<polygon fill="#191970" stroke="#191970" points="705.3802,-76.1087 714.7127,-71.0932 704.2894,-69.1942 705.3802,-76.1087"/>
</g>
<!-- Node40&#45;&gt;Node5 -->
<g id="edge53" class="edge">
<title>Node40&#45;&gt;Node5</title>
<path fill="none" stroke="#191970" d="M756.7813,-173.8906C742.3566,-164.1421 719.8024,-148.8994 702.864,-137.4521"/>
<polygon fill="#191970" stroke="#191970" points="704.3641,-134.2415 694.1189,-131.5419 700.4444,-140.0412 704.3641,-134.2415"/>
</g>
<!-- Node40&#45;&gt;Node24 -->
<g id="edge49" class="edge">
<title>Node40&#45;&gt;Node24</title>
<path fill="none" stroke="#191970" d="M814.5819,-173.9453C825.7584,-171.7414 837.7898,-169.5824 849,-168 1033.9276,-141.8954 1086.3242,-165.4274 1273.8508,-131.8909"/>
<polygon fill="#191970" stroke="#191970" points="1274.5441,-135.3223 1283.7563,-130.0893 1273.2914,-128.4353 1274.5441,-135.3223"/>
</g>
<!-- Node40&#45;&gt;Node25 -->
<g id="edge47" class="edge">
<title>Node40&#45;&gt;Node25</title>
<path fill="none" stroke="#191970" d="M832.5399,-173.977C848.6071,-171.7459 865.9261,-169.566 882,-168 1188.0877,-138.1788 1559.8581,-126.0967 1674.5871,-122.9131"/>
<polygon fill="#191970" stroke="#191970" points="1674.9758,-126.4039 1684.8766,-122.6325 1674.7849,-119.4065 1674.9758,-126.4039"/>
</g>
<!-- Node40&#45;&gt;Node38 -->
<g id="edge51" class="edge">
<title>Node40&#45;&gt;Node38</title>
<path fill="none" stroke="#191970" d="M818.4886,-173.9559C886.8003,-160.1184 1004.9984,-135.7239 1008,-132 1013.5783,-125.0794 1013.7139,-118.8091 1008,-112 980.6272,-79.381 856.391,-69.8835 789.6733,-67.1247"/>
<polygon fill="#191970" stroke="#191970" points="789.6088,-63.6198 779.483,-66.7373 789.3428,-70.6148 789.6088,-63.6198"/>
</g>
<!-- Node41 -->
<g id="node42" class="node">
<title>Node41</title>
<polygon fill="none" stroke="#bfbfbf" points="1056,-112.5 1056,-131.5 1114,-131.5 1114,-112.5 1056,-112.5"/>
<text text-anchor="middle" x="1085" y="-119.5" font-family="Helvetica,sans-Serif" font-size="10.00" fill="#000000">memory</text>
</g>
<!-- Node40&#45;&gt;Node41 -->
<g id="edge48" class="edge">
<title>Node40&#45;&gt;Node41</title>
<path fill="none" stroke="#191970" d="M818.4179,-173.9846C828.5082,-171.9858 839.1032,-169.9063 849,-168 934.6823,-151.4962 956.5957,-149.8868 1042,-132 1043.2659,-131.7349 1044.5518,-131.4612 1045.8495,-131.1814"/>
<polygon fill="#191970" stroke="#191970" points="1046.8903,-134.5356 1055.8942,-128.9518 1045.3734,-127.7019 1046.8903,-134.5356"/>
</g>
<!-- Node42 -->
<g id="node43" class="node">
<title>Node42</title>
<polygon fill="none" stroke="#bfbfbf" points="1216,-112.5 1216,-131.5 1266,-131.5 1266,-112.5 1216,-112.5"/>
<text text-anchor="middle" x="1241" y="-119.5" font-family="Helvetica,sans-Serif" font-size="10.00" fill="#000000">cstring</text>
</g>
<!-- Node40&#45;&gt;Node42 -->
<g id="edge50" class="edge">
<title>Node40&#45;&gt;Node42</title>
<path fill="none" stroke="#191970" d="M815.0095,-173.9903C826.0695,-171.8114 837.9396,-169.6527 849,-168 1006.7202,-144.432 1049.3804,-162.0236 1206,-132 1206.1009,-131.9807 1206.2018,-131.9612 1206.303,-131.9415"/>
<polygon fill="#191970" stroke="#191970" points="1206.9242,-135.3899 1215.8939,-129.7512 1205.3656,-128.5656 1206.9242,-135.3899"/>
</g>
<!-- Node43 -->
<g id="node44" class="node">
<title>Node43</title>
<polygon fill="none" stroke="#bfbfbf" points="1132.5,-112.5 1132.5,-131.5 1197.5,-131.5 1197.5,-112.5 1132.5,-112.5"/>
<text text-anchor="middle" x="1165" y="-119.5" font-family="Helvetica,sans-Serif" font-size="10.00" fill="#000000">stdexcept</text>
</g>
<!-- Node40&#45;&gt;Node43 -->
<g id="edge52" class="edge">
<title>Node40&#45;&gt;Node43</title>
<path fill="none" stroke="#191970" d="M816.2782,-173.9808C826.9827,-171.8751 838.3744,-169.7518 849,-168 966.9929,-148.5464 1000.4579,-153.9434 1121.9828,-132.0255"/>
<polygon fill="#191970" stroke="#191970" points="1122.846,-135.4258 1132.0531,-130.1837 1121.5866,-128.54 1122.846,-135.4258"/>
</g>
<!-- Node44 -->
<g id="node45" class="node">
<title>Node44</title>
<polygon fill="none" stroke="#bfbfbf" points="720,-112.5 720,-131.5 770,-131.5 770,-112.5 720,-112.5"/>
<text text-anchor="middle" x="745" y="-119.5" font-family="Helvetica,sans-Serif" font-size="10.00" fill="#000000">climits</text>
</g>
<!-- Node40&#45;&gt;Node44 -->
<g id="edge54" class="edge">
<title>Node40&#45;&gt;Node44</title>
<path fill="none" stroke="#191970" d="M766.9375,-173.8906C763.2576,-165.1862 757.7258,-152.1015 753.138,-141.2494"/>
<polygon fill="#191970" stroke="#191970" points="756.2375,-139.5927 749.1198,-131.7449 749.79,-142.3185 756.2375,-139.5927"/>
</g>
<!-- Node45 -->
<g id="node46" class="node">
<title>Node45</title>
<g id="a_node46"><a xlink:href="../../d7/df8/Types_8h.html" target="_top" xlink:title="MemoryResources/Types.h">
<polygon fill="none" stroke="#000000" points="788,-112.5 788,-131.5 934,-131.5 934,-112.5 788,-112.5"/>
<text text-anchor="middle" x="861" y="-119.5" font-family="Helvetica,sans-Serif" font-size="10.00" fill="#000000">MemoryResources/Types.h</text>
</a>
</g>
</g>
<!-- Node40&#45;&gt;Node45 -->
<g id="edge55" class="edge">
<title>Node40&#45;&gt;Node45</title>
<path fill="none" stroke="#191970" d="M785.0625,-173.8906C799.3286,-164.1421 821.635,-148.8994 838.3872,-137.4521"/>
<polygon fill="#191970" stroke="#191970" points="840.7545,-140.0736 847.0362,-131.5419 836.8051,-134.2941 840.7545,-140.0736"/>
</g>
<!-- Node46 -->
<g id="node47" class="node">
<title>Node46</title>
<polygon fill="none" stroke="#bfbfbf" points="952.5,-112.5 952.5,-131.5 999.5,-131.5 999.5,-112.5 952.5,-112.5"/>
<text text-anchor="middle" x="976" y="-119.5" font-family="Helvetica,sans-Serif" font-size="10.00" fill="#000000">cerrno</text>
</g>
<!-- Node40&#45;&gt;Node46 -->
<g id="edge56" class="edge">
<title>Node40&#45;&gt;Node46</title>
<path fill="none" stroke="#191970" d="M803.0268,-173.9451C835.6193,-164.2138 887.8576,-148.596 942.37,-132.1832"/>
<polygon fill="#191970" stroke="#191970" points="943.6442,-135.4548 952.2098,-129.2194 941.6253,-128.7523 943.6442,-135.4548"/>
</g>
<!-- Node47&#45;&gt;Node12 -->
<g id="edge80" class="edge">
<title>Node47&#45;&gt;Node12</title>
<path fill="none" stroke="#191970" d="M2079.3408,-374.9641C2079.4343,-358.3258 2077.3435,-323.6996 2060,-302 2048.7561,-287.932 2032.7267,-277.4683 2016.4871,-269.7871"/>
<polygon fill="#191970" stroke="#191970" points="2017.4981,-266.408 2006.9357,-265.5799 2014.6763,-272.814 2017.4981,-266.408"/>
</g>
<!-- Node47&#45;&gt;Node21 -->
<g id="edge60" class="edge">
<title>Node47&#45;&gt;Node21</title>
<path fill="none" stroke="#191970" d="M2148.7292,-377.198C2206.3502,-369.6378 2281.8475,-355.6896 2302,-333 2350.9873,-277.8455 2268.4647,-220.7815 2320,-168 2360.3053,-126.7201 2515.0783,-141.9071 2588.9785,-131.708"/>
<polygon fill="#191970" stroke="#191970" points="2589.9752,-135.0909 2599.2718,-130.0093 2588.8353,-128.1844 2589.9752,-135.0909"/>
</g>
<!-- Node48 -->
<g id="node49" class="node">
<title>Node48</title>
<g id="a_node49"><a xlink:href="../../d6/dec/Raw_2include_2DetectorsRaw_2RDHUtils_8h.html" target="_top" xlink:title="DetectorsRaw/RDHUtils.h">
<polygon fill="none" stroke="#000000" points="1731.5,-308 1731.5,-327 1872.5,-327 1872.5,-308 1731.5,-308"/>
<text text-anchor="middle" x="1802" y="-315" font-family="Helvetica,sans-Serif" font-size="10.00" fill="#000000">DetectorsRaw/RDHUtils.h</text>
</a>
</g>
</g>
<!-- Node47&#45;&gt;Node48 -->
<g id="edge61" class="edge">
<title>Node47&#45;&gt;Node48</title>
<path fill="none" stroke="#191970" d="M2039.6068,-374.9717C1990.2138,-363.0246 1905.5056,-342.5357 1851.7051,-329.5225"/>
<polygon fill="#191970" stroke="#191970" points="1852.2483,-326.0531 1841.7058,-327.1039 1850.6026,-332.8569 1852.2483,-326.0531"/>
</g>
<!-- Node52 -->
<g id="node53" class="node">
<title>Node52</title>
<g id="a_node53"><a xlink:href="../../d9/d80/InteractionRecord_8h.html" target="_top" xlink:title="CommonDataFormat/Interaction\lRecord.h">
<polygon fill="none" stroke="#000000" points="2963,-235.5 2963,-265.5 3137,-265.5 3137,-235.5 2963,-235.5"/>
<text text-anchor="start" x="2971" y="-253.5" font-family="Helvetica,sans-Serif" font-size="10.00" fill="#000000">CommonDataFormat/Interaction</text>
<text text-anchor="middle" x="3050" y="-242.5" font-family="Helvetica,sans-Serif" font-size="10.00" fill="#000000">Record.h</text>
</a>
</g>
</g>
<!-- Node47&#45;&gt;Node52 -->
<g id="edge87" class="edge">
<title>Node47&#45;&gt;Node52</title>
<path fill="none" stroke="#191970" d="M2148.7617,-380.696C2245.9901,-374.6316 2427.4833,-360.5387 2580,-333 2633.7843,-323.2886 2645.4383,-312.8721 2699,-302 2784.1439,-284.7172 2882.0287,-270.8441 2952.7611,-261.8705"/>
<polygon fill="#191970" stroke="#191970" points="2953.5107,-265.3038 2962.9953,-260.5822 2952.6364,-258.3586 2953.5107,-265.3038"/>
</g>
<!-- Node56 -->
<g id="node57" class="node">
<title>Node56</title>
<g id="a_node57"><a xlink:href="../../da/d6b/ConfigurableParamHelper_8h.html" target="_top" xlink:title="CommonUtils/Configurable\lParamHelper.h">
<polygon fill="none" stroke="#000000" points="2145,-302.5 2145,-332.5 2293,-332.5 2293,-302.5 2145,-302.5"/>
<text text-anchor="start" x="2153" y="-320.5" font-family="Helvetica,sans-Serif" font-size="10.00" fill="#000000">CommonUtils/Configurable</text>
<text text-anchor="middle" x="2219" y="-309.5" font-family="Helvetica,sans-Serif" font-size="10.00" fill="#000000">ParamHelper.h</text>
</a>
</g>
</g>
<!-- Node47&#45;&gt;Node56 -->
<g id="edge81" class="edge">
<title>Node47&#45;&gt;Node56</title>
<path fill="none" stroke="#191970" d="M2099.0586,-374.9005C2119.6641,-365.0393 2152.3165,-349.4128 2178.3528,-336.9526"/>
<polygon fill="#191970" stroke="#191970" points="2180.1019,-339.9957 2187.6112,-332.5218 2177.0801,-333.6816 2180.1019,-339.9957"/>
</g>
<!-- Node58 -->
<g id="node59" class="node">
<title>Node58</title>
<g id="a_node59"><a xlink:href="../../de/da4/Triggers_8h.html" target="_top" xlink:title="Definition of the 32 Central Trigger System (CTS) Trigger Types defined in https://twiki.cern.ch/twiki/pub/ALICE/NoteForFEDevelopers/CTS_CRU_FE_interface.pdf. ">
<polygon fill="none" stroke="#000000" points="1891,-308 1891,-327 2051,-327 2051,-308 1891,-308"/>
<text text-anchor="middle" x="1971" y="-315" font-family="Helvetica,sans-Serif" font-size="10.00" fill="#000000">CommonConstants/Triggers.h</text>
</a>
</g>
</g>
<!-- Node47&#45;&gt;Node58 -->
<g id="edge88" class="edge">
<title>Node47&#45;&gt;Node58</title>
<path fill="none" stroke="#191970" d="M2063.5262,-374.9005C2045.642,-363.8057 2015.9938,-345.4128 1995.0862,-332.4424"/>
<polygon fill="#191970" stroke="#191970" points="1996.7878,-329.3792 1986.4451,-327.0817 1993.0976,-335.3275 1996.7878,-329.3792"/>
</g>
<!-- Node48&#45;&gt;Node34 -->
<g id="edge62" class="edge">
<title>Node48&#45;&gt;Node34</title>
<path fill="none" stroke="#191970" d="M1807.9412,-307.8414C1826.979,-275.5379 1882.3055,-170.0404 1831,-112 1810.9732,-89.3443 1623.9322,-75.3383 1522.9524,-69.3645"/>
<polygon fill="#191970" stroke="#191970" points="1523.0496,-65.8644 1512.8631,-68.7774 1522.6429,-72.8525 1523.0496,-65.8644"/>
</g>
<!-- Node49 -->
<g id="node50" class="node">
<title>Node49</title>
<g id="a_node50"><a xlink:href="../../d2/d45/GPUCommonRtypes_8h.html" target="_top" xlink:title="GPUCommonRtypes.h">
<polygon fill="none" stroke="#000000" points="3296.5,-174 3296.5,-193 3421.5,-193 3421.5,-174 3296.5,-174"/>
<text text-anchor="middle" x="3359" y="-181" font-family="Helvetica,sans-Serif" font-size="10.00" fill="#000000">GPUCommonRtypes.h</text>
</a>
</g>
</g>
<!-- Node48&#45;&gt;Node49 -->
<g id="edge63" class="edge">
<title>Node48&#45;&gt;Node49</title>
<path fill="none" stroke="#191970" d="M1849.7637,-307.9917C1907.6813,-296.2867 2001.7953,-276.6544 2036,-266 2070.8291,-255.1511 2076.3138,-242.567 2112,-235 2367.769,-180.766 3028.5122,-231.0184 3288,-199 3295.7478,-198.044 3303.8981,-196.6446 3311.8036,-195.0721"/>
<polygon fill="#191970" stroke="#191970" points="3312.57,-198.4876 3321.6377,-193.0079 3311.1319,-191.6369 3312.57,-198.4876"/>
</g>
<!-- Node50 -->
<g id="node51" class="node">
<title>Node50</title>
<g id="a_node51"><a xlink:href="../../d4/dee/RAWDataHeader_8h.html" target="_top" xlink:title="Definition of the RAW Data Header. ">
<polygon fill="none" stroke="#000000" points="1636.5,-174 1636.5,-193 1785.5,-193 1785.5,-174 1636.5,-174"/>
<text text-anchor="middle" x="1711" y="-181" font-family="Helvetica,sans-Serif" font-size="10.00" fill="#000000">Headers/RAWDataHeader.h</text>
</a>
</g>
</g>
<!-- Node48&#45;&gt;Node50 -->
<g id="edge65" class="edge">
<title>Node48&#45;&gt;Node50</title>
<path fill="none" stroke="#191970" d="M1796.3607,-307.6321C1787.2881,-291.9341 1768.6737,-260.448 1751,-235 1742.9085,-223.3492 1733.1556,-210.7662 1725.3058,-200.9545"/>
<polygon fill="#191970" stroke="#191970" points="1727.9958,-198.7148 1718.9871,-193.1386 1722.5522,-203.1156 1727.9958,-198.7148"/>
</g>
<!-- Node51 -->
<g id="node52" class="node">
<title>Node51</title>
<g id="a_node52"><a xlink:href="../../d6/d89/RDHAny_8h.html" target="_top" xlink:title="Headers/RDHAny.h">
<polygon fill="none" stroke="#000000" points="1601,-241 1601,-260 1709,-260 1709,-241 1601,-241"/>
<text text-anchor="middle" x="1655" y="-248" font-family="Helvetica,sans-Serif" font-size="10.00" fill="#000000">Headers/RDHAny.h</text>
</a>
</g>
</g>
<!-- Node48&#45;&gt;Node51 -->
<g id="edge67" class="edge">
<title>Node48&#45;&gt;Node51</title>
<path fill="none" stroke="#191970" d="M1780.9385,-307.9005C1755.8319,-296.4574 1713.6923,-277.2509 1685.1402,-264.2374"/>
<polygon fill="#191970" stroke="#191970" points="1686.5735,-261.0443 1676.0224,-260.0817 1683.6703,-267.4139 1686.5735,-261.0443"/>
</g>
<!-- Node48&#45;&gt;Node52 -->
<g id="edge72" class="edge">
<title>Node48&#45;&gt;Node52</title>
<path fill="none" stroke="#191970" d="M1844.5737,-307.9803C1856.6151,-305.6347 1869.7715,-303.3971 1882,-302 2322.0929,-251.7207 2435.9231,-293.8883 2878,-266 2902.0877,-264.4804 2928.034,-262.3839 2952.2882,-260.2235"/>
<polygon fill="#191970" stroke="#191970" points="2952.9242,-263.6804 2962.5689,-259.2952 2952.2946,-256.7087 2952.9242,-263.6804"/>
</g>
<!-- Node55 -->
<g id="node56" class="node">
<title>Node55</title>
<g id="a_node56"><a xlink:href="../../d7/d34/DAQID_8h.html" target="_top" xlink:title="Headers/DAQID.h">
<polygon fill="none" stroke="#000000" points="1125.5,-241 1125.5,-260 1226.5,-260 1226.5,-241 1125.5,-241"/>
<text text-anchor="middle" x="1176" y="-248" font-family="Helvetica,sans-Serif" font-size="10.00" fill="#000000">Headers/DAQID.h</text>
</a>
</g>
</g>
<!-- Node48&#45;&gt;Node55 -->
<g id="edge78" class="edge">
<title>Node48&#45;&gt;Node55</title>
<path fill="none" stroke="#191970" d="M1731.4067,-309.9445C1607.5619,-296.6895 1353.2596,-269.4719 1236.742,-257.0011"/>
<polygon fill="#191970" stroke="#191970" points="1236.8918,-253.4973 1226.5761,-255.9131 1236.1468,-260.4575 1236.8918,-253.4973"/>
</g>
<!-- Node49&#45;&gt;Node21 -->
<g id="edge64" class="edge">
<title>Node49&#45;&gt;Node21</title>
<path fill="none" stroke="#191970" d="M3320.1236,-173.947C3309.7414,-171.6887 3298.4909,-169.5032 3288,-168 3167.2067,-150.6925 2791.8859,-130.3741 2668.6489,-124.0093"/>
<polygon fill="#191970" stroke="#191970" points="2668.695,-120.5071 2658.5284,-123.4887 2668.3354,-127.4979 2668.695,-120.5071"/>
</g>
<!-- Node50&#45;&gt;Node25 -->
<g id="edge66" class="edge">
<title>Node50&#45;&gt;Node25</title>
<path fill="none" stroke="#191970" d="M1710.8438,-173.8906C1710.7051,-165.3657 1710.4982,-152.6392 1710.324,-141.9235"/>
<polygon fill="#191970" stroke="#191970" points="1713.8207,-141.6866 1710.1585,-131.7449 1706.8216,-141.8005 1713.8207,-141.6866"/>
</g>
<!-- Node51&#45;&gt;Node27 -->
<g id="edge70" class="edge">
<title>Node51&#45;&gt;Node27</title>
<path fill="none" stroke="#191970" d="M1614.5918,-240.9734C1577.8393,-231.3937 1527.6132,-215.6874 1516,-199 1508.1299,-187.6912 1507.0495,-178.4746 1516,-168 1547.5651,-131.0599 1678.7179,-140.4951 1743.3174,-131.7248"/>
<polygon fill="#191970" stroke="#191970" points="1744.1483,-135.1359 1753.4588,-130.0797 1743.0273,-128.2262 1744.1483,-135.1359"/>
</g>
<!-- Node51&#45;&gt;Node34 -->
<g id="edge68" class="edge">
<title>Node51&#45;&gt;Node34</title>
<path fill="none" stroke="#191970" d="M1615.4898,-240.9945C1576.877,-230.9939 1521.6816,-214.5737 1506,-199 1474.5527,-167.769 1464.0792,-114.2263 1460.6413,-85.5261"/>
<polygon fill="#191970" stroke="#191970" points="1464.117,-85.1094 1459.6115,-75.5203 1457.1538,-85.8261 1464.117,-85.1094"/>
</g>
<!-- Node51&#45;&gt;Node43 -->
<g id="edge71" class="edge">
<title>Node51&#45;&gt;Node43</title>
<path fill="none" stroke="#191970" d="M1615.5113,-240.9462C1556.9875,-226.7683 1453.201,-201.5455 1445,-199 1407.7895,-187.45 1400.2887,-179.2949 1363,-168 1297.8262,-148.2585 1277.9691,-148.2057 1207.3778,-132.0511"/>
<polygon fill="#191970" stroke="#191970" points="1208.0861,-128.6225 1197.554,-129.7745 1206.5057,-135.4418 1208.0861,-128.6225"/>
</g>
<!-- Node51&#45;&gt;Node50 -->
<g id="edge69" class="edge">
<title>Node51&#45;&gt;Node50</title>
<path fill="none" stroke="#191970" d="M1663.0234,-240.9005C1671.7561,-230.4525 1685.8982,-213.5325 1696.5708,-200.7635"/>
<polygon fill="#191970" stroke="#191970" points="1699.2638,-202.9991 1702.9914,-193.0817 1693.8928,-198.5099 1699.2638,-202.9991"/>
</g>
<!-- Node52&#45;&gt;Node25 -->
<g id="edge75" class="edge">
<title>Node52&#45;&gt;Node25</title>
<path fill="none" stroke="#191970" d="M2978.914,-235.3941C2937.9505,-226.1119 2885.6814,-213.2815 2840,-199 2803.2096,-187.4981 2796.7743,-175.6763 2759,-168 2319.8866,-78.7653 2191.4533,-202.4144 1745.0225,-131.7373"/>
<polygon fill="#191970" stroke="#191970" points="1745.5174,-128.272 1735.0887,-130.141 1744.4067,-135.1833 1745.5174,-128.272"/>
</g>
<!-- Node52&#45;&gt;Node33 -->
<g id="edge76" class="edge">
<title>Node52&#45;&gt;Node33</title>
<path fill="none" stroke="#191970" d="M3037.5744,-235.2461C3029.7409,-225.2625 3019.6899,-211.7498 3012,-199 2989.8245,-162.2331 3006.1839,-135.1146 2970,-112 2916.9952,-78.14 768.8789,-77.5011 706,-76 604.063,-73.5665 483.5526,-69.3542 425.9599,-67.2589"/>
<polygon fill="#191970" stroke="#191970" points="425.7516,-63.7491 415.6304,-66.8813 425.4958,-70.7444 425.7516,-63.7491"/>
</g>
<!-- Node52&#45;&gt;Node49 -->
<g id="edge73" class="edge">
<title>Node52&#45;&gt;Node49</title>
<path fill="none" stroke="#191970" d="M3119.5224,-235.4915C3166.9875,-225.2361 3231.3004,-211.3236 3288,-199 3293.6867,-197.764 3299.6291,-196.4702 3305.5504,-195.1796"/>
<polygon fill="#191970" stroke="#191970" points="3306.4222,-198.5718 3315.4468,-193.0213 3304.9306,-191.7326 3306.4222,-198.5718"/>
</g>
<!-- Node53 -->
<g id="node54" class="node">
<title>Node53</title>
<polygon fill="none" stroke="#bfbfbf" points="3229.5,-174 3229.5,-193 3278.5,-193 3278.5,-174 3229.5,-174"/>
<text text-anchor="middle" x="3254" y="-181" font-family="Helvetica,sans-Serif" font-size="10.00" fill="#000000">iosfwd</text>
</g>
<!-- Node52&#45;&gt;Node53 -->
<g id="edge74" class="edge">
<title>Node52&#45;&gt;Node53</title>
<path fill="none" stroke="#191970" d="M3106.5247,-235.4246C3139.9059,-226.0164 3182.7818,-213.0492 3220,-199 3221.5856,-198.4015 3223.2016,-197.7637 3224.8254,-197.1009"/>
<polygon fill="#191970" stroke="#191970" points="3226.2497,-200.2983 3234.0517,-193.1304 3223.4826,-193.8685 3226.2497,-200.2983"/>
</g>
<!-- Node54 -->
<g id="node55" class="node">
<title>Node54</title>
<g id="a_node55"><a xlink:href="../../d4/dc6/LHCConstants_8h.html" target="_top" xlink:title="Header to collect LHC related constants. ">
<polygon fill="none" stroke="#000000" points="3021,-174 3021,-193 3211,-193 3211,-174 3021,-174"/>
<text text-anchor="middle" x="3116" y="-181" font-family="Helvetica,sans-Serif" font-size="10.00" fill="#000000">CommonConstants/LHCConstants.h</text>
</a>
</g>
</g>
<!-- Node52&#45;&gt;Node54 -->
<g id="edge77" class="edge">
<title>Node52&#45;&gt;Node54</title>
<path fill="none" stroke="#191970" d="M3064.9764,-235.2967C3075.2595,-224.8578 3088.9108,-210.9997 3099.5053,-200.2446"/>
<polygon fill="#191970" stroke="#191970" points="3102.0633,-202.6352 3106.5876,-193.055 3097.0765,-197.7228 3102.0633,-202.6352"/>
</g>
<!-- Node55&#45;&gt;Node40 -->
<g id="edge79" class="edge">
<title>Node55&#45;&gt;Node40</title>
<path fill="none" stroke="#191970" d="M1125.1166,-242.0822C1052.5863,-230.0834 919.3363,-208.0396 838.5897,-194.6815"/>
<polygon fill="#191970" stroke="#191970" points="838.9633,-191.1958 828.5261,-193.0167 837.8207,-198.1019 838.9633,-191.1958"/>
</g>
<!-- Node56&#45;&gt;Node3 -->
<g id="edge86" class="edge">
<title>Node56&#45;&gt;Node3</title>
<path fill="none" stroke="#191970" d="M2144.637,-309.6092C2117.9646,-306.9488 2087.6539,-304.1199 2060,-302 1917.0848,-291.0442 1554.9676,-301.1111 1416,-266 1413.8061,-265.4457 1411.5814,-264.7439 1409.3772,-263.9467"/>
<polygon fill="#191970" stroke="#191970" points="1410.58,-260.6556 1400.0053,-260.0017 1407.8642,-267.1073 1410.58,-260.6556"/>
</g>
<!-- Node56&#45;&gt;Node12 -->
<g id="edge82" class="edge">
<title>Node56&#45;&gt;Node12</title>
<path fill="none" stroke="#191970" d="M2159.3044,-302.4639C2118.8043,-292.2627 2065.1157,-278.7397 2022.6609,-268.0462"/>
<polygon fill="#191970" stroke="#191970" points="2023.508,-264.6503 2012.956,-265.6017 2021.7982,-271.4383 2023.508,-264.6503"/>
</g>
<!-- Node56&#45;&gt;Node17 -->
<g id="edge85" class="edge">
<title>Node56&#45;&gt;Node17</title>
<path fill="none" stroke="#191970" d="M2217.0099,-302.2889C2213.8281,-283.9268 2205.8993,-253.2465 2187,-235 2157.3296,-206.3544 2110.9013,-193.5757 2077.9662,-187.9171"/>
<polygon fill="#191970" stroke="#191970" points="2078.2072,-184.4122 2067.7854,-186.319 2077.1216,-191.3275 2078.2072,-184.4122"/>
</g>
<!-- Node56&#45;&gt;Node27 -->
<g id="edge84" class="edge">
<title>Node56&#45;&gt;Node27</title>
<path fill="none" stroke="#191970" d="M2168.343,-302.4053C2148.5463,-294.3357 2127.0353,-282.5616 2112,-266 2080.8106,-231.6444 2111.8291,-197.4849 2076,-168 2039.6205,-138.0622 1903.9398,-127.342 1832.5554,-123.7197"/>
<polygon fill="#191970" stroke="#191970" points="1832.6663,-120.2211 1822.5093,-123.2354 1832.3291,-127.213 1832.6663,-120.2211"/>
</g>
<!-- Node57 -->
<g id="node58" class="node">
<title>Node57</title>
<polygon fill="none" stroke="#bfbfbf" points="2121.5,-241 2121.5,-260 2178.5,-260 2178.5,-241 2121.5,-241"/>
<text text-anchor="middle" x="2150" y="-248" font-family="Helvetica,sans-Serif" font-size="10.00" fill="#000000">TClass.h</text>
</g>
<!-- Node56&#45;&gt;Node57 -->
<g id="edge83" class="edge">
<title>Node56&#45;&gt;Node57</title>
<path fill="none" stroke="#191970" d="M2203.3428,-302.2967C2192.5923,-291.8578 2178.3206,-277.9997 2167.2445,-267.2446"/>
<polygon fill="#191970" stroke="#191970" points="2169.4527,-264.5103 2159.8402,-260.055 2164.5763,-269.5323 2169.4527,-264.5103"/>
</g>
<!-- Node58&#45;&gt;Node25 -->
<g id="edge89" class="edge">
<title>Node58&#45;&gt;Node25</title>
<path fill="none" stroke="#191970" d="M1944.6572,-307.8298C1923.1013,-299.0769 1892.5932,-284.6984 1870,-266 1827.5377,-230.8577 1835.9397,-203.7643 1794,-168 1778.6651,-154.9231 1759.0203,-143.9171 1742.5848,-135.9525"/>
<polygon fill="#191970" stroke="#191970" points="1743.8761,-132.6925 1733.3355,-131.6219 1740.9078,-139.032 1743.8761,-132.6925"/>
</g>
<!-- Node59&#45;&gt;Node4 -->
<g id="edge150" class="edge">
<title>Node59&#45;&gt;Node4</title>
<path fill="none" stroke="#191970" d="M1624.7869,-500.3599C1466.3258,-496.4736 1112.4692,-484.7793 995,-456 988.1671,-454.326 908.2635,-418.4826 863.2901,-398.1955"/>
<polygon fill="#191970" stroke="#191970" points="864.5516,-394.9249 853.9971,-394.0007 861.6716,-401.305 864.5516,-394.9249"/>
</g>
<!-- Node59&#45;&gt;Node5 -->
<g id="edge152" class="edge">
<title>Node59&#45;&gt;Node5</title>
<path fill="none" stroke="#191970" d="M1624.8744,-499.2545C1444.8868,-492.6406 1011.5472,-474.9632 948,-456 930.832,-450.8769 929.5457,-442.8722 913,-436 857.2379,-412.8393 837.9562,-422.6878 782,-400 724.6721,-376.7561 691.5015,-386.2393 660,-333 623.2689,-270.9224 654.517,-180.1955 671.1738,-141.0936"/>
<polygon fill="#191970" stroke="#191970" points="674.4832,-142.2637 675.3237,-131.7023 668.0804,-139.4344 674.4832,-142.2637"/>
</g>
<!-- Node59&#45;&gt;Node9 -->
<g id="edge149" class="edge">
<title>Node59&#45;&gt;Node9</title>
<path fill="none" stroke="#191970" d="M1624.796,-500.8082C1483.4055,-497.8991 1176.0573,-488.1171 919,-456 917.5461,-455.8184 916.0718,-455.6206 914.585,-455.4093"/>
<polygon fill="#191970" stroke="#191970" points="915.1038,-451.948 904.681,-453.8493 914.0145,-458.8627 915.1038,-451.948"/>
</g>
<!-- Node59&#45;&gt;Node13 -->
<g id="edge153" class="edge">
<title>Node59&#45;&gt;Node13</title>
<path fill="none" stroke="#191970" d="M1624.8053,-497.6324C1499.5125,-490.2198 1259.3924,-474.1971 1176,-456 1103.6195,-440.2058 1063.4741,-459.2491 1019,-400 974.1561,-340.2582 994.9264,-284.3539 1051,-235 1084.5818,-205.4425 1103.2538,-215.0822 1145,-199 1147.2283,-198.1416 1149.5258,-197.2551 1151.8403,-196.3609"/>
<polygon fill="#191970" stroke="#191970" points="1153.253,-199.5673 1161.3167,-192.695 1150.7274,-193.0388 1153.253,-199.5673"/>
</g>
<!-- Node59&#45;&gt;Node18 -->
<g id="edge151" class="edge">
<title>Node59&#45;&gt;Node18</title>
<path fill="none" stroke="#191970" d="M1781.1795,-500.5657C1944.8119,-497.0039 2318.4392,-485.788 2442,-456 2647.4909,-406.4603 2762.1747,-442.8197 2878,-266 2885.5496,-254.4748 2886.3788,-245.9372 2878,-235 2873.318,-228.8883 2781.4617,-206.0657 2726.8668,-192.9448"/>
<polygon fill="#191970" stroke="#191970" points="2727.676,-189.5397 2717.1358,-190.614 2726.0454,-196.3472 2727.676,-189.5397"/>
</g>
<!-- Node59&#45;&gt;Node47 -->
<g id="edge131" class="edge">
<title>Node59&#45;&gt;Node47</title>
<path fill="none" stroke="#191970" d="M1733.4512,-492.484C1800.9637,-471.3864 1963.2034,-420.6864 2038.8749,-397.0391"/>
<polygon fill="#191970" stroke="#191970" points="2040.0266,-400.3462 2048.5274,-394.0227 2037.9386,-393.6648 2040.0266,-400.3462"/>
</g>
<!-- Node59&#45;&gt;Node50 -->
<g id="edge91" class="edge">
<title>Node59&#45;&gt;Node50</title>
<path fill="none" stroke="#191970" d="M1703.8536,-492.1183C1706.6034,-459.7285 1715.2121,-353.8132 1718,-266 1718.4372,-252.2292 1718.9299,-248.7464 1718,-235 1717.2909,-224.5176 1715.7787,-212.9167 1714.3407,-203.3833"/>
<polygon fill="#191970" stroke="#191970" points="1717.7692,-202.6572 1712.7392,-193.3325 1710.8564,-203.7587 1717.7692,-202.6572"/>
</g>
<!-- Node59&#45;&gt;Node52 -->
<g id="edge92" class="edge">
<title>Node59&#45;&gt;Node52</title>
<path fill="none" stroke="#191970" d="M1781.0223,-500.4545C1998.7909,-495.8465 2602.8963,-480.9518 2689,-456 2697.9164,-453.4161 2926.153,-321.9743 3015.0365,-270.6887"/>
<polygon fill="#191970" stroke="#191970" points="3017.0218,-273.584 3023.9336,-265.5542 3013.5229,-267.5211 3017.0218,-273.584"/>
</g>
<!-- Node60 -->
<g id="node61" class="node">
<title>Node60</title>
<g id="a_node61"><a xlink:href="../../d0/ddf/FDD_2include_2DataFormatsFDD_2RawEventData_8h.html" target="_top" xlink:title="DataFormatsFDD/RawEventData.h">
<polygon fill="none" stroke="#000000" points="2387,-308 2387,-327 2571,-327 2571,-308 2387,-308"/>
<text text-anchor="middle" x="2479" y="-315" font-family="Helvetica,sans-Serif" font-size="10.00" fill="#000000">DataFormatsFDD/RawEventData.h</text>
</a>
</g>
</g>
<!-- Node59&#45;&gt;Node60 -->
<g id="edge93" class="edge">
<title>Node59&#45;&gt;Node60</title>
<path fill="none" stroke="#191970" d="M1781.1923,-500.2333C1946.8076,-495.9746 2321.9999,-483.4029 2373,-456 2422.8448,-429.2179 2456.4025,-367.7339 2470.8908,-336.4829"/>
<polygon fill="#191970" stroke="#191970" points="2474.1826,-337.6952 2475.0691,-327.1375 2467.7922,-334.838 2474.1826,-337.6952"/>
</g>
<!-- Node63 -->
<g id="node64" class="node">
<title>Node63</title>
<g id="a_node64"><a xlink:href="../../d1/d18/FIT_2FDD_2include_2DataFormatsFDD_2ChannelData_8h.html" target="_top" xlink:title="DataFormatsFDD/ChannelData.h">
<polygon fill="none" stroke="#000000" points="2387.5,-241 2387.5,-260 2562.5,-260 2562.5,-241 2387.5,-241"/>
<text text-anchor="middle" x="2475" y="-248" font-family="Helvetica,sans-Serif" font-size="10.00" fill="#000000">DataFormatsFDD/ChannelData.h</text>
</a>
</g>
</g>
<!-- Node59&#45;&gt;Node63 -->
<g id="edge118" class="edge">
<title>Node59&#45;&gt;Node63</title>
<path fill="none" stroke="#191970" d="M1758.6107,-492.486C1844.9585,-477.0494 2016.0161,-443.8075 2157,-400 2233.3709,-376.2695 2252.0353,-367.8818 2324,-333 2348.9025,-320.9296 2353.7756,-315.3792 2378,-302 2401.3793,-289.0875 2428.2156,-274.8865 2447.7258,-264.6732"/>
<polygon fill="#191970" stroke="#191970" points="2449.4243,-267.7348 2456.6678,-260.0028 2446.1836,-261.5301 2449.4243,-267.7348"/>
</g>
<!-- Node64 -->
<g id="node65" class="node">
<title>Node64</title>
<g id="a_node65"><a xlink:href="../../d6/dfc/FDD_2include_2DataFormatsFDD_2LookUpTable_8h.html" target="_top" xlink:title="DataFormatsFDD/LookUpTable.h">
<polygon fill="none" stroke="#000000" points="2695,-241 2695,-260 2869,-260 2869,-241 2695,-241"/>
<text text-anchor="middle" x="2782" y="-248" font-family="Helvetica,sans-Serif" font-size="10.00" fill="#000000">DataFormatsFDD/LookUpTable.h</text>
</a>
</g>
</g>
<!-- Node59&#45;&gt;Node64 -->
<g id="edge117" class="edge">
<title>Node59&#45;&gt;Node64</title>
<path fill="none" stroke="#191970" d="M1781.0179,-501.4088C1938.1084,-499.4761 2287.2383,-491.225 2401,-456 2529.2951,-416.2749 2541.1714,-362.6534 2661,-302 2689.4659,-287.5915 2722.9103,-273.5673 2747.4153,-263.8014"/>
<polygon fill="#191970" stroke="#191970" points="2748.9828,-266.9455 2756.9986,-260.0175 2746.412,-260.4347 2748.9828,-266.9455"/>
</g>
<!-- Node65 -->
<g id="node66" class="node">
<title>Node65</title>
<g id="a_node66"><a xlink:href="../../d9/dc4/DataFormats_2Detectors_2FIT_2FDD_2include_2DataFormatsFDD_2Digit_8h.html" target="_top" xlink:title="DataFormatsFDD/Digit.h">
<polygon fill="none" stroke="#000000" points="2982.5,-308 2982.5,-327 3117.5,-327 3117.5,-308 2982.5,-308"/>
<text text-anchor="middle" x="3050" y="-315" font-family="Helvetica,sans-Serif" font-size="10.00" fill="#000000">DataFormatsFDD/Digit.h</text>
</a>
</g>
</g>
<!-- Node59&#45;&gt;Node65 -->
<g id="edge119" class="edge">
<title>Node59&#45;&gt;Node65</title>
<path fill="none" stroke="#191970" d="M1781.085,-500.107C2004.4571,-494.4654 2635.8729,-476.8553 2727,-456 2843.9845,-429.227 2971.8784,-361.8354 3024.8597,-332.0462"/>
<polygon fill="#191970" stroke="#191970" points="3026.6023,-335.0817 3033.5742,-327.104 3023.149,-328.9927 3026.6023,-335.0817"/>
</g>
<!-- Node68 -->
<g id="node69" class="node">
<title>Node68</title>
<polygon fill="none" stroke="#bfbfbf" points="1525.5,-241 1525.5,-260 1582.5,-260 1582.5,-241 1525.5,-241"/>
<text text-anchor="middle" x="1554" y="-248" font-family="Helvetica,sans-Serif" font-size="10.00" fill="#000000">gsl/span</text>
</g>
<!-- Node59&#45;&gt;Node68 -->
<g id="edge154" class="edge">
<title>Node59&#45;&gt;Node68</title>
<path fill="none" stroke="#191970" d="M1697.341,-492.448C1675.2142,-455.0997 1594.3238,-318.5634 1564.8428,-268.8017"/>
<polygon fill="#191970" stroke="#191970" points="1567.773,-266.881 1559.6647,-260.0615 1561.7506,-270.449 1567.773,-266.881"/>
</g>
<!-- Node69 -->
<g id="node70" class="node">
<title>Node69</title>
<g id="a_node70"><a xlink:href="../../da/d08/RawFileWriter_8h.html" target="_top" xlink:title="Utility class to write detectors data to (multiple) raw data file(s) respecting CRU format...">
<polygon fill="none" stroke="#000000" points="1185.5,-436.5 1185.5,-455.5 1348.5,-455.5 1348.5,-436.5 1185.5,-436.5"/>
<text text-anchor="middle" x="1267" y="-443.5" font-family="Helvetica,sans-Serif" font-size="10.00" fill="#000000">DetectorsRaw/RawFileWriter.h</text>
</a>
</g>
</g>
<!-- Node59&#45;&gt;Node69 -->
<g id="edge132" class="edge">
<title>Node59&#45;&gt;Node69</title>
<path fill="none" stroke="#191970" d="M1628.5443,-492.4369C1551.5749,-482.5509 1431.6293,-467.145 1351.2398,-456.8198"/>
<polygon fill="#191970" stroke="#191970" points="1351.513,-453.3262 1341.1486,-455.5237 1350.6212,-460.2692 1351.513,-453.3262"/>
</g>
<!-- Node60&#45;&gt;Node6 -->
<g id="edge114" class="edge">
<title>Node60&#45;&gt;Node6</title>
<path fill="none" stroke="#191970" d="M2444.2444,-307.9449C2422.1723,-300.1385 2394.712,-286.9107 2378,-266 2363.558,-247.9296 2358.9257,-221.117 2357.5063,-203.0067"/>
<polygon fill="#191970" stroke="#191970" points="2361.001,-202.8126 2356.9787,-193.011 2354.0107,-203.1816 2361.001,-202.8126"/>
</g>
<!-- Node60&#45;&gt;Node7 -->
<g id="edge112" class="edge">
<title>Node60&#45;&gt;Node7</title>
<path fill="none" stroke="#191970" d="M2542.5857,-307.9598C2556.5511,-305.9322 2571.2678,-303.8474 2585,-302 2650.0151,-293.2536 2826.8882,-307.1223 2878,-266 2896.8864,-250.8048 2903.495,-222.4723 2905.7942,-203.3004"/>
<polygon fill="#191970" stroke="#191970" points="2909.289,-203.5156 2906.7103,-193.2394 2902.3179,-202.8809 2909.289,-203.5156"/>
</g>
<!-- Node60&#45;&gt;Node18 -->
<g id="edge113" class="edge">
<title>Node60&#45;&gt;Node18</title>
<path fill="none" stroke="#191970" d="M2548.5933,-307.9714C2580.1869,-300.7501 2616.3575,-288.1038 2643,-266 2662.935,-249.4611 2675.1135,-221.4866 2681.4597,-202.7585"/>
<polygon fill="#191970" stroke="#191970" points="2684.8055,-203.7859 2684.4674,-193.1964 2678.1281,-201.6854 2684.8055,-203.7859"/>
</g>
<!-- Node60&#45;&gt;Node21 -->
<g id="edge116" class="edge">
<title>Node60&#45;&gt;Node21</title>
<path fill="none" stroke="#191970" d="M2517.839,-307.9604C2541.278,-300.3006 2569.9952,-287.2293 2588,-266 2618.7112,-229.7886 2626.4698,-171.9389 2628.3947,-141.7662"/>
<polygon fill="#191970" stroke="#191970" points="2631.8962,-141.8174 2628.8825,-131.6602 2624.9043,-141.4798 2631.8962,-141.8174"/>
</g>
<!-- Node60&#45;&gt;Node42 -->
<g id="edge115" class="edge">
<title>Node60&#45;&gt;Node42</title>
<path fill="none" stroke="#191970" d="M2456.0797,-307.9231C2382.7556,-277.4573 2154.1639,-183.8505 2076,-168 1729.9893,-97.8341 1628.3728,-188.9813 1276.0571,-131.7604"/>
<polygon fill="#191970" stroke="#191970" points="1276.5301,-128.2912 1266.0932,-130.1137 1275.3886,-135.1975 1276.5301,-128.2912"/>
</g>
<!-- Node60&#45;&gt;Node50 -->
<g id="edge103" class="edge">
<title>Node60&#45;&gt;Node50</title>
<path fill="none" stroke="#191970" d="M2433.0929,-307.9213C2390.2534,-298.588 2324.7488,-283.3042 2269,-266 2231.7895,-254.45 2224.8945,-244.0571 2187,-235 2168.2747,-230.5245 1927.274,-205.5463 1795.5825,-192.0907"/>
<polygon fill="#191970" stroke="#191970" points="1795.8222,-188.5971 1785.5184,-191.0631 1795.1111,-195.5609 1795.8222,-188.5971"/>
</g>
<!-- Node60&#45;&gt;Node52 -->
<g id="edge111" class="edge">
<title>Node60&#45;&gt;Node52</title>
<path fill="none" stroke="#191970" d="M2541.4459,-307.9954C2555.7442,-305.9229 2570.8878,-303.8104 2585,-302 2729.5847,-283.4516 2766.1197,-282.0774 2911,-266 2924.4968,-264.5023 2938.7303,-262.9192 2952.7345,-261.3595"/>
<polygon fill="#191970" stroke="#191970" points="2953.3265,-264.8153 2962.8774,-260.2295 2952.5514,-257.8584 2953.3265,-264.8153"/>
</g>
<!-- Node61 -->
<g id="node62" class="node">
<title>Node61</title>
<g id="a_node62"><a xlink:href="../../d9/d15/Detectors_2FIT_2FDD_2base_2include_2FDDBase_2Constants_8h.html" target="_top" xlink:title="FDDBase/Constants.h">
<polygon fill="none" stroke="#000000" points="2441,-174 2441,-193 2563,-193 2563,-174 2441,-174"/>
<text text-anchor="middle" x="2502" y="-181" font-family="Helvetica,sans-Serif" font-size="10.00" fill="#000000">FDDBase/Constants.h</text>
</a>
</g>
</g>
<!-- Node60&#45;&gt;Node61 -->
<g id="edge94" class="edge">
<title>Node60&#45;&gt;Node61</title>
<path fill="none" stroke="#191970" d="M2513.3162,-307.9763C2533.97,-300.2784 2558.5953,-287.16 2571,-266 2577.9679,-254.1141 2577.1759,-247.3161 2571,-235 2562.9752,-218.9968 2547.3569,-206.6956 2533.0066,-198.135"/>
<polygon fill="#191970" stroke="#191970" points="2534.2933,-194.846 2523.8521,-193.0484 2530.8934,-200.9649 2534.2933,-194.846"/>
</g>
<!-- Node60&#45;&gt;Node63 -->
<g id="edge100" class="edge">
<title>Node60&#45;&gt;Node63</title>
<path fill="none" stroke="#191970" d="M2478.4269,-307.9005C2477.8447,-298.149 2476.926,-282.7597 2476.1862,-270.3695"/>
<polygon fill="#191970" stroke="#191970" points="2479.6619,-269.8553 2475.572,-260.0817 2472.6743,-270.2725 2479.6619,-269.8553"/>
</g>
<!-- Node60&#45;&gt;Node64 -->
<g id="edge104" class="edge">
<title>Node60&#45;&gt;Node64</title>
<path fill="none" stroke="#191970" d="M2522.0907,-307.9717C2576.457,-295.9501 2669.9364,-275.2797 2728.7267,-262.2799"/>
<polygon fill="#191970" stroke="#191970" points="2729.5589,-265.6805 2738.5673,-260.1039 2728.0475,-258.8456 2729.5589,-265.6805"/>
</g>
<!-- Node61&#45;&gt;Node5 -->
<g id="edge98" class="edge">
<title>Node61&#45;&gt;Node5</title>
<path fill="none" stroke="#191970" d="M2462.5156,-173.9308C2451.1223,-171.5538 2438.6267,-169.3122 2427,-168 2051.2276,-125.5895 1103.5202,-194.0284 712.1524,-131.6437"/>
<polygon fill="#191970" stroke="#191970" points="712.5932,-128.1692 702.158,-130.0014 711.4581,-135.0766 712.5932,-128.1692"/>
</g>
<!-- Node61&#45;&gt;Node25 -->
<g id="edge96" class="edge">
<title>Node61&#45;&gt;Node25</title>
<path fill="none" stroke="#191970" d="M2461.3179,-173.9261C2450.2426,-171.6395 2438.2088,-169.4452 2427,-168 2128.7573,-129.5457 2045.4128,-182.0828 1744.962,-131.7671"/>
<polygon fill="#191970" stroke="#191970" points="1745.5419,-128.3155 1735.097,-130.0913 1744.3696,-135.2167 1745.5419,-128.3155"/>
</g>
<!-- Node61&#45;&gt;Node26 -->
<g id="edge97" class="edge">
<title>Node61&#45;&gt;Node26</title>
<path fill="none" stroke="#191970" d="M2462.5163,-173.9253C2451.1229,-171.5482 2438.6271,-169.308 2427,-168 1644.9255,-80.0228 1435.751,-223.1514 649.7007,-131.8036"/>
<polygon fill="#191970" stroke="#191970" points="649.8897,-128.3019 639.5504,-130.6147 649.0753,-135.2543 649.8897,-128.3019"/>
</g>
<!-- Node61&#45;&gt;Node27 -->
<g id="edge99" class="edge">
<title>Node61&#45;&gt;Node27</title>
<path fill="none" stroke="#191970" d="M2460.9073,-173.9894C2449.9405,-171.7308 2438.0627,-169.5345 2427,-168 2205.4555,-137.2696 1937.6753,-126.4339 1833.0008,-123.1995"/>
<polygon fill="#191970" stroke="#191970" points="1832.9025,-119.6951 1822.8017,-122.8927 1832.6919,-126.6919 1832.9025,-119.6951"/>
</g>
<!-- Node62 -->
<g id="node63" class="node">
<title>Node62</title>
<g id="a_node63"><a xlink:href="../../d3/d9d/PhysicsConstants_8h.html" target="_top" xlink:title="Header to collect physics constants. ">
<polygon fill="none" stroke="#000000" points="2374.5,-112.5 2374.5,-131.5 2581.5,-131.5 2581.5,-112.5 2374.5,-112.5"/>
<text text-anchor="middle" x="2478" y="-119.5" font-family="Helvetica,sans-Serif" font-size="10.00" fill="#000000">CommonConstants/PhysicsConstants.h</text>
</a>
</g>
</g>
<!-- Node61&#45;&gt;Node62 -->
<g id="edge95" class="edge">
<title>Node61&#45;&gt;Node62</title>
<path fill="none" stroke="#191970" d="M2498.25,-173.8906C2494.8532,-165.1862 2489.7469,-152.1015 2485.512,-141.2494"/>
<polygon fill="#191970" stroke="#191970" points="2488.6989,-139.7882 2481.8029,-131.7449 2482.1778,-142.3331 2488.6989,-139.7882"/>
</g>
<!-- Node63&#45;&gt;Node21 -->
<g id="edge102" class="edge">
<title>Node63&#45;&gt;Node21</title>
<path fill="none" stroke="#191970" d="M2499.9715,-240.921C2520.7491,-232.1341 2550.3262,-217.6602 2572,-199 2591.5978,-182.1271 2608.4163,-157.3458 2618.6022,-140.4867"/>
<polygon fill="#191970" stroke="#191970" points="2621.7752,-141.9943 2623.8039,-131.5955 2615.7332,-138.4595 2621.7752,-141.9943"/>
</g>
<!-- Node63&#45;&gt;Node22 -->
<g id="edge101" class="edge">
<title>Node63&#45;&gt;Node22</title>
<path fill="none" stroke="#191970" d="M2467.2207,-240.9261C2450.7231,-220.9171 2412.2477,-175.8678 2394,-168 2302.4176,-128.5126 732.1725,-148.3713 558.0249,-131.1859"/>
<polygon fill="#191970" stroke="#191970" points="558.4658,-127.7138 548.1016,-129.9124 557.5747,-134.6569 558.4658,-127.7138"/>
</g>
<!-- Node64&#45;&gt;Node6 -->
<g id="edge108" class="edge">
<title>Node64&#45;&gt;Node6</title>
<path fill="none" stroke="#191970" d="M2708.7338,-240.9721C2637.783,-231.45 2527.2571,-215.837 2432,-199 2419.9493,-196.87 2406.8692,-194.2681 2395.0576,-191.8088"/>
<polygon fill="#191970" stroke="#191970" points="2395.5691,-188.3398 2385.062,-189.6999 2394.124,-195.189 2395.5691,-188.3398"/>
</g>
<!-- Node64&#45;&gt;Node7 -->
<g id="edge109" class="edge">
<title>Node64&#45;&gt;Node7</title>
<path fill="none" stroke="#191970" d="M2799.9095,-240.9005C2820.8873,-229.6564 2855.8496,-210.9166 2880.0935,-197.9219"/>
<polygon fill="#191970" stroke="#191970" points="2881.9635,-200.8907 2889.1238,-193.0817 2878.6565,-194.7211 2881.9635,-200.8907"/>
</g>
<!-- Node64&#45;&gt;Node18 -->
<g id="edge107" class="edge">
<title>Node64&#45;&gt;Node18</title>
<path fill="none" stroke="#191970" d="M2768.3888,-240.9005C2752.8689,-229.9549 2727.2777,-211.9064 2708.9333,-198.9688"/>
<polygon fill="#191970" stroke="#191970" points="2710.7752,-195.9849 2700.5859,-193.0817 2706.7408,-201.7054 2710.7752,-195.9849"/>
</g>
<!-- Node64&#45;&gt;Node21 -->
<g id="edge105" class="edge">
<title>Node64&#45;&gt;Node21</title>
<path fill="none" stroke="#191970" d="M2782.0473,-240.9937C2781.6126,-224.0902 2778.2839,-188.6463 2759,-168 2735.5678,-142.9123 2697.5998,-131.4971 2668.7311,-126.3087"/>
<polygon fill="#191970" stroke="#191970" points="2668.9808,-122.8038 2658.5508,-124.6652 2667.8651,-129.7143 2668.9808,-122.8038"/>
</g>
<!-- Node64&#45;&gt;Node24 -->
<g id="edge106" class="edge">
<title>Node64&#45;&gt;Node24</title>
<path fill="none" stroke="#191970" d="M2778.8118,-240.8986C2772.2326,-222.8245 2755.2645,-184.119 2726,-168 2718.2084,-163.7083 1566.9748,-129.5738 1346.3274,-123.0688"/>
<polygon fill="#191970" stroke="#191970" points="1346.3434,-119.5678 1336.2446,-122.7717 1346.1371,-126.5648 1346.3434,-119.5678"/>
</g>
<!-- Node64&#45;&gt;Node61 -->
<g id="edge110" class="edge">
<title>Node64&#45;&gt;Node61</title>
<path fill="none" stroke="#191970" d="M2742.1802,-240.9717C2692.1484,-228.9998 2606.2704,-208.4504 2551.9046,-195.4415"/>
<polygon fill="#191970" stroke="#191970" points="2552.6758,-192.0272 2542.1358,-193.1039 2551.0467,-198.8351 2552.6758,-192.0272"/>
</g>
<!-- Node65&#45;&gt;Node21 -->
<g id="edge128" class="edge">
<title>Node65&#45;&gt;Node21</title>
<path fill="none" stroke="#191970" d="M3117.7676,-316.788C3268.3123,-314.5023 3620.1731,-305.0008 3656,-266 3665.3208,-255.8535 3664.2356,-246.0454 3656,-235 3593.6313,-151.3528 3533.7755,-185.9973 3431,-168 3393.1473,-161.3715 2825.8403,-132.0516 2668.944,-124.033"/>
<polygon fill="#191970" stroke="#191970" points="2668.9559,-120.5291 2658.7904,-123.5145 2668.5989,-127.52 2668.9559,-120.5291"/>
</g>
<!-- Node65&#45;&gt;Node23 -->
<g id="edge130" class="edge">
<title>Node65&#45;&gt;Node23</title>
<path fill="none" stroke="#191970" d="M2982.0572,-315.2614C2686.2753,-305.5108 1525.2252,-267.1804 1516,-266 1503.8787,-264.449 1490.7527,-261.7611 1479.2355,-259.0547"/>
<polygon fill="#191970" stroke="#191970" points="1479.731,-255.5728 1469.1857,-256.5961 1478.0675,-262.3722 1479.731,-255.5728"/>
</g>
<!-- Node65&#45;&gt;Node52 -->
<g id="edge122" class="edge">
<title>Node65&#45;&gt;Node52</title>
<path fill="none" stroke="#191970" d="M3050,-307.9005C3050,-299.5099 3050,-286.9451 3050,-275.7085"/>
<polygon fill="#191970" stroke="#191970" points="3053.5001,-275.5217 3050,-265.5218 3046.5001,-275.5218 3053.5001,-275.5217"/>
</g>
<!-- Node65&#45;&gt;Node53 -->
<g id="edge127" class="edge">
<title>Node65&#45;&gt;Node53</title>
<path fill="none" stroke="#191970" d="M3070.0152,-307.9369C3089.8101,-298.2095 3120.7204,-282.2877 3146,-266 3178.5987,-244.9966 3213.8554,-216.9572 3234.9206,-199.5734"/>
<polygon fill="#191970" stroke="#191970" points="3237.3245,-202.1263 3242.7752,-193.0412 3232.8486,-196.7443 3237.3245,-202.1263"/>
</g>
<!-- Node65&#45;&gt;Node63 -->
<g id="edge126" class="edge">
<title>Node65&#45;&gt;Node63</title>
<path fill="none" stroke="#191970" d="M2982.3493,-309.6172C2879.3282,-297.613 2682.8865,-274.7233 2566.9898,-261.2188"/>
<polygon fill="#191970" stroke="#191970" points="2567.0589,-257.7033 2556.721,-260.0223 2566.2487,-264.6562 2567.0589,-257.7033"/>
</g>
<!-- Node66 -->
<g id="node67" class="node">
<title>Node66</title>
<g id="a_node67"><a xlink:href="../../de/d64/RangeReference_8h.html" target="_top" xlink:title="Class to refer to the 1st entry and N elements of some group in the continuous container. ">
<polygon fill="none" stroke="#000000" points="3231,-241 3231,-260 3441,-260 3441,-241 3231,-241"/>
<text text-anchor="middle" x="3336" y="-248" font-family="Helvetica,sans-Serif" font-size="10.00" fill="#000000">CommonDataFormat/RangeReference.h</text>
</a>
</g>
</g>
<!-- Node65&#45;&gt;Node66 -->
<g id="edge120" class="edge">
<title>Node65&#45;&gt;Node66</title>
<path fill="none" stroke="#191970" d="M3090.6731,-307.9717C3141.777,-295.9998 3229.4952,-275.4504 3285.026,-262.4415"/>
<polygon fill="#191970" stroke="#191970" points="3286.0661,-265.7926 3295.0042,-260.1039 3284.4694,-258.9772 3286.0661,-265.7926"/>
</g>
<!-- Node67 -->
<g id="node68" class="node">
<title>Node67</title>
<g id="a_node68"><a xlink:href="../../df/d5d/common_2include_2CommonDataFormat_2TimeStamp_8h.html" target="_top" xlink:title="CommonDataFormat/TimeStamp.h">
<polygon fill="none" stroke="#000000" points="3459.5,-241 3459.5,-260 3646.5,-260 3646.5,-241 3459.5,-241"/>
<text text-anchor="middle" x="3553" y="-248" font-family="Helvetica,sans-Serif" font-size="10.00" fill="#000000">CommonDataFormat/TimeStamp.h</text>
</a>
</g>
</g>
<!-- Node65&#45;&gt;Node67 -->
<g id="edge123" class="edge">
<title>Node65&#45;&gt;Node67</title>
<path fill="none" stroke="#191970" d="M3117.6483,-309.2366C3197.2363,-299.4113 3333.3267,-282.2878 3450,-266 3460.1112,-264.5885 3470.7722,-263.0456 3481.2486,-261.4981"/>
<polygon fill="#191970" stroke="#191970" points="3481.8358,-264.9494 3491.2126,-260.0171 3480.8066,-258.0255 3481.8358,-264.9494"/>
</g>
<!-- Node65&#45;&gt;Node68 -->
<g id="edge129" class="edge">
<title>Node65&#45;&gt;Node68</title>
<path fill="none" stroke="#191970" d="M2982.0373,-315.259C2696.6649,-305.8294 1609.2097,-269.6915 1592,-266 1589.1263,-265.3836 1586.1921,-264.5634 1583.2915,-263.6211"/>
<polygon fill="#191970" stroke="#191970" points="1584.2889,-260.2582 1573.6958,-260.0656 1581.8567,-266.8221 1584.2889,-260.2582"/>
</g>
<!-- Node66&#45;&gt;Node49 -->
<g id="edge121" class="edge">
<title>Node66&#45;&gt;Node49</title>
<path fill="none" stroke="#191970" d="M3339.2953,-240.9005C3342.7112,-230.95 3348.1422,-215.1292 3352.4382,-202.6147"/>
<polygon fill="#191970" stroke="#191970" points="3355.7742,-203.6763 3355.7108,-193.0817 3349.1535,-201.4035 3355.7742,-203.6763"/>
</g>
<!-- Node67&#45;&gt;Node34 -->
<g id="edge125" class="edge">
<title>Node67&#45;&gt;Node34</title>
<path fill="none" stroke="#191970" d="M3542.5426,-240.8774C3522.5719,-223.121 3476.8938,-185.4295 3431,-168 3253.3025,-100.5141 3196.4652,-127.2871 3007,-112 2711.4419,-88.1527 1776.0407,-71.251 1522.7691,-67.0292"/>
<polygon fill="#191970" stroke="#191970" points="1522.6905,-63.5275 1512.6337,-66.8609 1522.5742,-70.5265 1522.6905,-63.5275"/>
</g>
<!-- Node67&#45;&gt;Node49 -->
<g id="edge124" class="edge">
<title>Node67&#45;&gt;Node49</title>
<path fill="none" stroke="#191970" d="M3525.2045,-240.9005C3491.3504,-229.2086 3434.0293,-209.4122 3396.3453,-196.3976"/>
<polygon fill="#191970" stroke="#191970" points="3397.3387,-193.0379 3386.7439,-193.0817 3395.0535,-199.6544 3397.3387,-193.0379"/>
</g>
<!-- Node69&#45;&gt;Node4 -->
<g id="edge143" class="edge">
<title>Node69&#45;&gt;Node4</title>
<path fill="none" stroke="#191970" d="M1191.9589,-436.4812C1123.0065,-427.5843 1018.0098,-413.6571 927,-400 913.3141,-397.9463 898.5327,-395.5792 884.8341,-393.3231"/>
<polygon fill="#191970" stroke="#191970" points="885.0438,-389.8101 874.6058,-391.6264 883.8982,-396.7157 885.0438,-389.8101"/>
</g>
<!-- Node69&#45;&gt;Node5 -->
<g id="edge137" class="edge">
<title>Node69&#45;&gt;Node5</title>
<path fill="none" stroke="#191970" d="M1204.6373,-436.4676C1163.7231,-428.7934 1115.5499,-416.5543 1103,-400 1079.0154,-368.3624 1030.5017,-344.584 1116,-235 1145.3143,-197.4276 1189.5361,-237.9454 1217,-199 1224.9402,-187.7403 1226.3903,-178.0821 1217,-168 1180.2353,-128.5267 801.0712,-141.4626 712.3232,-131.369"/>
<polygon fill="#191970" stroke="#191970" points="712.5886,-127.8702 702.1829,-129.8634 711.5604,-134.7942 712.5886,-127.8702"/>
</g>
<!-- Node69&#45;&gt;Node13 -->
<g id="edge135" class="edge">
<title>Node69&#45;&gt;Node13</title>
<path fill="none" stroke="#191970" d="M1185.2532,-440.0786C1128.2271,-434.049 1059.2078,-422.2872 1041,-400 993.1245,-341.3983 1027.0784,-285.9804 1083,-235 1094.0494,-224.927 1127.4525,-208.8601 1153.0528,-197.3509"/>
<polygon fill="#191970" stroke="#191970" points="1154.7048,-200.4468 1162.4195,-193.185 1151.8601,-194.0508 1154.7048,-200.4468"/>
</g>
<!-- Node69&#45;&gt;Node14 -->
<g id="edge136" class="edge">
<title>Node69&#45;&gt;Node14</title>
<path fill="none" stroke="#191970" d="M1313.0968,-436.433C1348.177,-428.1076 1392.2119,-415.0374 1403,-400 1438.0416,-351.156 1345.1794,-343.7171 1317,-266 1309.3856,-244.9999 1317.2126,-219.7708 1324.7968,-202.7869"/>
<polygon fill="#191970" stroke="#191970" points="1328.1394,-203.9148 1329.3475,-193.3891 1321.8391,-200.8641 1328.1394,-203.9148"/>
</g>
<!-- Node69&#45;&gt;Node15 -->
<g id="edge134" class="edge">
<title>Node69&#45;&gt;Node15</title>
<path fill="none" stroke="#191970" d="M1323.1526,-436.4591C1362.0991,-428.5649 1409.0395,-416.0553 1421,-400 1429.231,-388.9511 1425.0948,-382.1552 1421,-369 1404.4756,-315.9123 1366.5244,-319.0877 1350,-266 1345.9052,-252.8448 1341.4288,-245.7871 1350,-235 1370.2589,-209.5034 1456.2584,-195.5023 1515.075,-188.7554"/>
<polygon fill="#191970" stroke="#191970" points="1515.8009,-192.1965 1525.3552,-187.6176 1515.0309,-185.239 1515.8009,-192.1965"/>
</g>
<!-- Node69&#45;&gt;Node21 -->
<g id="edge141" class="edge">
<title>Node69&#45;&gt;Node21</title>
<path fill="none" stroke="#191970" d="M1315.9701,-436.4436C1336.2877,-429.8037 1357.9044,-418.649 1370,-400 1377.4973,-388.4407 1375.1828,-381.7658 1370,-369 1361.6057,-348.3237 1346.9334,-351.8566 1335,-333 1318.0036,-306.1431 1316.3436,-297.1437 1310,-266 1301.3026,-223.3008 1276.6223,-199.242 1307,-168 1355.2038,-118.4246 2450.0106,-140.4706 2589.1502,-131.2896"/>
<polygon fill="#191970" stroke="#191970" points="2589.6968,-134.7538 2599.3263,-130.3353 2589.0432,-127.7844 2589.6968,-134.7538"/>
</g>
<!-- Node69&#45;&gt;Node26 -->
<g id="edge138" class="edge">
<title>Node69&#45;&gt;Node26</title>
<path fill="none" stroke="#191970" d="M1185.332,-438.4117C1123.7895,-431.5395 1037.6945,-419.4538 964,-400 926.7303,-390.1616 920.2231,-379.0133 883,-369 786.0523,-342.9204 734.5763,-400.2116 660,-333 604.2296,-282.7372 600.6185,-184.1273 601.8548,-141.9289"/>
<polygon fill="#191970" stroke="#191970" points="605.3564,-141.964 602.2807,-131.8254 598.3626,-141.6691 605.3564,-141.964"/>
</g>
<!-- Node69&#45;&gt;Node40 -->
<g id="edge145" class="edge">
<title>Node69&#45;&gt;Node40</title>
<path fill="none" stroke="#191970" d="M1191.6918,-436.4834C1130.234,-427.9028 1048.8608,-414.4444 1019,-400 914.7667,-349.5797 820.1942,-243.3758 785.2692,-201.2551"/>
<polygon fill="#191970" stroke="#191970" points="787.7839,-198.8016 778.74,-193.2828 782.3684,-203.237 787.7839,-198.8016"/>
</g>
<!-- Node69&#45;&gt;Node47 -->
<g id="edge147" class="edge">
<title>Node69&#45;&gt;Node47</title>
<path fill="none" stroke="#191970" d="M1348.5755,-439.8216C1504.7499,-427.9931 1844.199,-402.2836 1999.0734,-390.5536"/>
<polygon fill="#191970" stroke="#191970" points="1999.7452,-394.0128 2009.4523,-389.7675 1999.2165,-387.0328 1999.7452,-394.0128"/>
</g>
<!-- Node69&#45;&gt;Node48 -->
<g id="edge148" class="edge">
<title>Node69&#45;&gt;Node48</title>
<path fill="none" stroke="#191970" d="M1328.2305,-436.4868C1379.0621,-428.1704 1453.1113,-415.0851 1517,-400 1605.9618,-378.9948 1708.5335,-347.4689 1763.1002,-330.101"/>
<polygon fill="#191970" stroke="#191970" points="1764.2559,-333.4061 1772.7163,-327.0285 1762.1254,-326.7382 1764.2559,-333.4061"/>
</g>
<!-- Node69&#45;&gt;Node50 -->
<g id="edge144" class="edge">
<title>Node69&#45;&gt;Node50</title>
<path fill="none" stroke="#191970" d="M1321.5731,-436.4749C1364.6386,-428.0351 1420.3055,-414.7831 1438,-400 1500.2486,-347.9936 1453.6325,-286.8638 1516,-235 1526.9933,-225.8581 1603.3381,-207.4174 1657.1676,-195.265"/>
<polygon fill="#191970" stroke="#191970" points="1657.9451,-198.6777 1666.936,-193.0727 1656.4122,-191.8476 1657.9451,-198.6777"/>
</g>
<!-- Node69&#45;&gt;Node55 -->
<g id="edge146" class="edge">
<title>Node69&#45;&gt;Node55</title>
<path fill="none" stroke="#191970" d="M1213.0797,-436.4286C1174.9823,-428.4409 1128.6993,-415.8249 1117,-400 1085.7658,-357.7517 1132.399,-296.7724 1159.2492,-267.4735"/>
<polygon fill="#191970" stroke="#191970" points="1161.8979,-269.7664 1166.2166,-260.0917 1156.8073,-264.9616 1161.8979,-269.7664"/>
</g>
<!-- Node69&#45;&gt;Node68 -->
<g id="edge133" class="edge">
<title>Node69&#45;&gt;Node68</title>
<path fill="none" stroke="#191970" d="M1230.2865,-436.44C1199.6184,-427.6241 1159.4323,-413.8435 1150,-400 1142.2421,-388.6139 1141.7417,-380.0285 1150,-369 1172.4832,-338.9749 1418.66,-280.9115 1515.343,-259.0785"/>
<polygon fill="#191970" stroke="#191970" points="1516.3099,-262.4486 1525.2981,-256.8394 1514.7737,-255.6192 1516.3099,-262.4486"/>
</g>
<!-- Node70 -->
<g id="node71" class="node">
<title>Node70</title>
<polygon fill="none" stroke="#bfbfbf" points="1159.5,-375 1159.5,-394 1224.5,-394 1224.5,-375 1159.5,-375"/>
<text text-anchor="middle" x="1192" y="-382" font-family="Helvetica,sans-Serif" font-size="10.00" fill="#000000">functional</text>
</g>
<!-- Node69&#45;&gt;Node70 -->
<g id="edge139" class="edge">
<title>Node69&#45;&gt;Node70</title>
<path fill="none" stroke="#191970" d="M1255.2813,-436.3906C1243.6812,-426.8786 1225.7021,-412.1357 1211.8679,-400.7917"/>
<polygon fill="#191970" stroke="#191970" points="1213.836,-397.8792 1203.884,-394.2449 1209.3974,-403.2921 1213.836,-397.8792"/>
</g>
<!-- Node71 -->
<g id="node72" class="node">
<title>Node71</title>
<polygon fill="none" stroke="#bfbfbf" points="1243,-375 1243,-394 1291,-394 1291,-375 1243,-375"/>
<text text-anchor="middle" x="1267" y="-382" font-family="Helvetica,sans-Serif" font-size="10.00" fill="#000000">mutex</text>
</g>
<!-- Node69&#45;&gt;Node71 -->
<g id="edge140" class="edge">
<title>Node69&#45;&gt;Node71</title>
<path fill="none" stroke="#191970" d="M1267,-436.3906C1267,-427.8657 1267,-415.1392 1267,-404.4235"/>
<polygon fill="#191970" stroke="#191970" points="1270.5001,-404.2448 1267,-394.2449 1263.5001,-404.2449 1270.5001,-404.2448"/>
</g>
<!-- Node72 -->
<g id="node73" class="node">
<title>Node72</title>
<polygon fill="none" stroke="#bfbfbf" points="1309,-375 1309,-394 1361,-394 1361,-375 1309,-375"/>
<text text-anchor="middle" x="1335" y="-382" font-family="Helvetica,sans-Serif" font-size="10.00" fill="#000000">TTree.h</text>
</g>
<!-- Node69&#45;&gt;Node72 -->
<g id="edge142" class="edge">
<title>Node69&#45;&gt;Node72</title>
<path fill="none" stroke="#191970" d="M1277.625,-436.3906C1288.0431,-426.9683 1304.1364,-412.4134 1316.6304,-401.1137"/>
<polygon fill="#191970" stroke="#191970" points="1319.1562,-403.5484 1324.2252,-394.2449 1314.4608,-398.3568 1319.1562,-403.5484"/>
</g>
</g>
</svg>
