<?xml version="1.0" encoding="UTF-8" standalone="no"?>
<!DOCTYPE svg PUBLIC "-//W3C//DTD SVG 1.1//EN"
 "http://www.w3.org/Graphics/SVG/1.1/DTD/svg11.dtd">
<!-- Generated by graphviz version 2.40.1 (20161225.0304)
 -->
<!-- Title: /home/travis/build/AliceO2Group/AliceO2/Detectors/Base/include/DetectorsBase/Ray.h Pages: 1 -->
<svg width="3037pt" height="352pt"
 viewBox="0.00 0.00 3037.00 352.00" xmlns="http://www.w3.org/2000/svg" xmlns:xlink="http://www.w3.org/1999/xlink">
<g id="graph0" class="graph" transform="scale(1 1) rotate(0) translate(4 348)">
<title>/home/travis/build/AliceO2Group/AliceO2/Detectors/Base/include/DetectorsBase/Ray.h</title>
<!-- Node0 -->
<g id="node1" class="node">
<title>Node0</title>
<polygon fill="#bfbfbf" stroke="#000000" points="749.5,-291.5 749.5,-343.5 881.5,-343.5 881.5,-291.5 749.5,-291.5"/>
<text text-anchor="start" x="757.5" y="-331.5" font-family="Helvetica,sans-Serif" font-size="10.00" fill="#000000">/home/travis/build</text>
<text text-anchor="start" x="757.5" y="-320.5" font-family="Helvetica,sans-Serif" font-size="10.00" fill="#000000">/AliceO2Group/AliceO2</text>
<text text-anchor="start" x="757.5" y="-309.5" font-family="Helvetica,sans-Serif" font-size="10.00" fill="#000000">/Detectors/Base/include</text>
<text text-anchor="middle" x="815.5" y="-298.5" font-family="Helvetica,sans-Serif" font-size="10.00" fill="#000000">/DetectorsBase/Ray.h</text>
</g>
<!-- Node1 -->
<g id="node2" class="node">
<title>Node1</title>
<g id="a_node2"><a xlink:href="../../d2/d45/GPUCommonRtypes_8h.html" target="_top" xlink:title="GPUCommonRtypes.h">
<polygon fill="none" stroke="#000000" points="428,-56.5 428,-75.5 553,-75.5 553,-56.5 428,-56.5"/>
<text text-anchor="middle" x="490.5" y="-63.5" font-family="Helvetica,sans-Serif" font-size="10.00" fill="#000000">GPUCommonRtypes.h</text>
</a>
</g>
</g>
<!-- Node0&#45;&gt;Node1 -->
<g id="edge1" class="edge">
<title>Node0&#45;&gt;Node1</title>
<path fill="none" stroke="#191970" d="M749.3937,-306.5395C650.6231,-288.6636 472.0786,-250.042 434.5,-199 425.7743,-187.1481 412.6373,-163.4215 437.5,-112 443.4665,-99.66 454.4243,-89.2823 464.8343,-81.5252"/>
<polygon fill="#191970" stroke="#191970" points="467.1017,-84.2122 473.3282,-75.6401 463.1151,-78.4583 467.1017,-84.2122"/>
</g>
<!-- Node3 -->
<g id="node4" class="node">
<title>Node3</title>
<g id="a_node4"><a xlink:href="../../df/d21/GPUCommonDef_8h.html" target="_top" xlink:title="GPUCommonDef.h">
<polygon fill="none" stroke="#000000" points="800,-56.5 800,-75.5 907,-75.5 907,-56.5 800,-56.5"/>
<text text-anchor="middle" x="853.5" y="-63.5" font-family="Helvetica,sans-Serif" font-size="10.00" fill="#000000">GPUCommonDef.h</text>
</a>
</g>
</g>
<!-- Node0&#45;&gt;Node3 -->
<g id="edge3" class="edge">
<title>Node0&#45;&gt;Node3</title>
<path fill="none" stroke="#191970" d="M881.6705,-316.4944C1264.6088,-310.103 3174.3769,-270.201 3019.5,-112 2981.7605,-73.4505 1271.1028,-67.0498 917.1718,-66.1375"/>
<polygon fill="#191970" stroke="#191970" points="917.1081,-62.6375 907.0992,-66.1121 917.0903,-69.6374 917.1081,-62.6375"/>
</g>
<!-- Node6 -->
<g id="node7" class="node">
<title>Node6</title>
<g id="a_node7"><a xlink:href="../../d6/da2/GPUCommonMath_8h.html" target="_top" xlink:title="GPUCommonMath.h">
<polygon fill="none" stroke="#000000" points="643,-118 643,-137 758,-137 758,-118 643,-118"/>
<text text-anchor="middle" x="700.5" y="-125" font-family="Helvetica,sans-Serif" font-size="10.00" fill="#000000">GPUCommonMath.h</text>
</a>
</g>
</g>
<!-- Node0&#45;&gt;Node6 -->
<g id="edge6" class="edge">
<title>Node0&#45;&gt;Node6</title>
<path fill="none" stroke="#191970" d="M799.7509,-291.4797C776.2359,-252.6288 732.5086,-180.3838 711.8585,-146.2663"/>
<polygon fill="#191970" stroke="#191970" points="714.6318,-144.0888 706.4595,-137.3461 708.6433,-147.7135 714.6318,-144.0888"/>
</g>
<!-- Node9 -->
<g id="node10" class="node">
<title>Node9</title>
<g id="a_node10"><a xlink:href="../../da/df3/MatLayerCyl_8h.html" target="_top" xlink:title="Declarations for single cylindrical material layer class. ">
<polygon fill="none" stroke="#000000" points="444,-179.5 444,-198.5 605,-198.5 605,-179.5 444,-179.5"/>
<text text-anchor="middle" x="524.5" y="-186.5" font-family="Helvetica,sans-Serif" font-size="10.00" fill="#000000">DetectorsBase/MatLayerCyl.h</text>
</a>
</g>
</g>
<!-- Node0&#45;&gt;Node9 -->
<g id="edge10" class="edge">
<title>Node0&#45;&gt;Node9</title>
<path fill="none" stroke="#191970" d="M756.6118,-291.4961C695.7059,-264.6012 602.9652,-223.6487 555.2428,-202.5754"/>
<polygon fill="#191970" stroke="#191970" points="556.6074,-199.352 546.0457,-198.5142 553.7797,-205.7555 556.6074,-199.352"/>
</g>
<!-- Node19 -->
<g id="node20" class="node">
<title>Node19</title>
<g id="a_node20"><a xlink:href="../../d9/d52/Common_2MathUtils_2include_2MathUtils_2Utils_8h.html" target="_top" xlink:title="MathUtils/Utils.h">
<polygon fill="none" stroke="#000000" points="922.5,-235.5 922.5,-254.5 1020.5,-254.5 1020.5,-235.5 922.5,-235.5"/>
<text text-anchor="middle" x="971.5" y="-242.5" font-family="Helvetica,sans-Serif" font-size="10.00" fill="#000000">MathUtils/Utils.h</text>
</a>
</g>
</g>
<!-- Node0&#45;&gt;Node19 -->
<g id="edge29" class="edge">
<title>Node0&#45;&gt;Node19</title>
<path fill="none" stroke="#191970" d="M871.8196,-291.3258C895.5199,-280.3112 922.1212,-267.9485 941.8788,-258.7663"/>
<polygon fill="#191970" stroke="#191970" points="943.3921,-261.9226 950.9855,-254.534 940.4418,-255.5746 943.3921,-261.9226"/>
</g>
<!-- Node27 -->
<g id="node28" class="node">
<title>Node27</title>
<g id="a_node28"><a xlink:href="../../dc/d73/Cartesian_8h.html" target="_top" xlink:title="MathUtils/Cartesian.h">
<polygon fill="none" stroke="#000000" points="2084.5,-179.5 2084.5,-198.5 2206.5,-198.5 2206.5,-179.5 2084.5,-179.5"/>
<text text-anchor="middle" x="2145.5" y="-186.5" font-family="Helvetica,sans-Serif" font-size="10.00" fill="#000000">MathUtils/Cartesian.h</text>
</a>
</g>
</g>
<!-- Node0&#45;&gt;Node27 -->
<g id="edge41" class="edge">
<title>Node0&#45;&gt;Node27</title>
<path fill="none" stroke="#191970" d="M881.9099,-311.0837C1107.2657,-289.3106 1841.6822,-218.3538 2074.2143,-195.8874"/>
<polygon fill="#191970" stroke="#191970" points="2074.6318,-199.3634 2084.2488,-194.9179 2073.9586,-192.3959 2074.6318,-199.3634"/>
</g>
<!-- Node2 -->
<g id="node3" class="node">
<title>Node2</title>
<polygon fill="none" stroke="#bfbfbf" points="461,-.5 461,-19.5 520,-19.5 520,-.5 461,-.5"/>
<text text-anchor="middle" x="490.5" y="-7.5" font-family="Helvetica,sans-Serif" font-size="10.00" fill="#000000">Rtypes.h</text>
</g>
<!-- Node1&#45;&gt;Node2 -->
<g id="edge2" class="edge">
<title>Node1&#45;&gt;Node2</title>
<path fill="none" stroke="#191970" d="M490.5,-56.2455C490.5,-48.9382 490.5,-38.6944 490.5,-29.7046"/>
<polygon fill="#191970" stroke="#191970" points="494.0001,-29.6426 490.5,-19.6427 487.0001,-29.6427 494.0001,-29.6426"/>
</g>
<!-- Node4 -->
<g id="node5" class="node">
<title>Node4</title>
<g id="a_node5"><a xlink:href="../../d5/d93/GPUCommonDefSettings_8h.html" target="_top" xlink:title="GPUCommonDefSettings.h">
<polygon fill="none" stroke="#000000" points="856.5,-.5 856.5,-19.5 1004.5,-19.5 1004.5,-.5 856.5,-.5"/>
<text text-anchor="middle" x="930.5" y="-7.5" font-family="Helvetica,sans-Serif" font-size="10.00" fill="#000000">GPUCommonDefSettings.h</text>
</a>
</g>
</g>
<!-- Node3&#45;&gt;Node4 -->
<g id="edge4" class="edge">
<title>Node3&#45;&gt;Node4</title>
<path fill="none" stroke="#191970" d="M866.9124,-56.2455C878.5057,-47.814 895.4748,-35.4729 908.9678,-25.6598"/>
<polygon fill="#191970" stroke="#191970" points="911.2126,-28.355 917.2413,-19.6427 907.0953,-22.6938 911.2126,-28.355"/>
</g>
<!-- Node5 -->
<g id="node6" class="node">
<title>Node5</title>
<g id="a_node6"><a xlink:href="../../da/d5a/GPUCommonDefAPI_8h.html" target="_top" xlink:title="GPUCommonDefAPI.h">
<polygon fill="none" stroke="#000000" points="714.5,-.5 714.5,-19.5 838.5,-19.5 838.5,-.5 714.5,-.5"/>
<text text-anchor="middle" x="776.5" y="-7.5" font-family="Helvetica,sans-Serif" font-size="10.00" fill="#000000">GPUCommonDefAPI.h</text>
</a>
</g>
</g>
<!-- Node3&#45;&gt;Node5 -->
<g id="edge5" class="edge">
<title>Node3&#45;&gt;Node5</title>
<path fill="none" stroke="#191970" d="M840.0876,-56.2455C828.4943,-47.814 811.5252,-35.4729 798.0322,-25.6598"/>
<polygon fill="#191970" stroke="#191970" points="799.9047,-22.6938 789.7587,-19.6427 795.7874,-28.355 799.9047,-22.6938"/>
</g>
<!-- Node6&#45;&gt;Node3 -->
<g id="edge7" class="edge">
<title>Node6&#45;&gt;Node3</title>
<path fill="none" stroke="#191970" d="M724.4063,-117.8906C750.2305,-107.5103 791.5527,-90.9004 820.4705,-79.2766"/>
<polygon fill="#191970" stroke="#191970" points="821.7885,-82.519 829.7616,-75.5419 819.1778,-76.0241 821.7885,-82.519"/>
</g>
<!-- Node7 -->
<g id="node8" class="node">
<title>Node7</title>
<polygon fill="none" stroke="#bfbfbf" points="721,-56.5 721,-75.5 768,-75.5 768,-56.5 721,-56.5"/>
<text text-anchor="middle" x="744.5" y="-63.5" font-family="Helvetica,sans-Serif" font-size="10.00" fill="#000000">cmath</text>
</g>
<!-- Node6&#45;&gt;Node7 -->
<g id="edge8" class="edge">
<title>Node6&#45;&gt;Node7</title>
<path fill="none" stroke="#191970" d="M707.375,-117.8906C713.8593,-108.8273 723.7414,-95.0149 731.6801,-83.9188"/>
<polygon fill="#191970" stroke="#191970" points="734.5559,-85.9143 737.5281,-75.7449 728.8629,-81.8412 734.5559,-85.9143"/>
</g>
<!-- Node8 -->
<g id="node9" class="node">
<title>Node8</title>
<polygon fill="none" stroke="#bfbfbf" points="638.5,-56.5 638.5,-75.5 702.5,-75.5 702.5,-56.5 638.5,-56.5"/>
<text text-anchor="middle" x="670.5" y="-63.5" font-family="Helvetica,sans-Serif" font-size="10.00" fill="#000000">algorithm</text>
</g>
<!-- Node6&#45;&gt;Node8 -->
<g id="edge9" class="edge">
<title>Node6&#45;&gt;Node8</title>
<path fill="none" stroke="#191970" d="M695.8125,-117.8906C691.5227,-109.0965 685.0518,-95.8312 679.7266,-84.9145"/>
<polygon fill="#191970" stroke="#191970" points="682.7836,-83.1981 675.2536,-75.7449 676.4922,-86.2671 682.7836,-83.1981"/>
</g>
<!-- Node9&#45;&gt;Node1 -->
<g id="edge24" class="edge">
<title>Node9&#45;&gt;Node1</title>
<path fill="none" stroke="#191970" d="M492.9968,-179.3744C475.6841,-172.2912 455.704,-160.7494 445.5,-143 438.6331,-131.0554 440.2975,-124.7578 445.5,-112 450.2156,-100.4363 459.3927,-90.2008 468.2362,-82.3383"/>
<polygon fill="#191970" stroke="#191970" points="470.6496,-84.8842 476.1263,-75.8147 466.1891,-79.4894 470.6496,-84.8842"/>
</g>
<!-- Node9&#45;&gt;Node3 -->
<g id="edge13" class="edge">
<title>Node9&#45;&gt;Node3</title>
<path fill="none" stroke="#191970" d="M597.4206,-179.4819C657.4778,-170.8499 737.3212,-157.3177 766.5,-143 795.911,-128.5684 823.0228,-101.4538 838.9137,-83.5592"/>
<polygon fill="#191970" stroke="#191970" points="841.8895,-85.4681 845.7743,-75.6112 836.5905,-80.8941 841.8895,-85.4681"/>
</g>
<!-- Node9&#45;&gt;Node6 -->
<g id="edge25" class="edge">
<title>Node9&#45;&gt;Node6</title>
<path fill="none" stroke="#191970" d="M552,-179.3906C581.9647,-168.92 630.0683,-152.1111 663.3698,-140.4745"/>
<polygon fill="#191970" stroke="#191970" points="664.9074,-143.6448 673.1931,-137.0419 662.5983,-137.0366 664.9074,-143.6448"/>
</g>
<!-- Node9&#45;&gt;Node7 -->
<g id="edge11" class="edge">
<title>Node9&#45;&gt;Node7</title>
<path fill="none" stroke="#191970" d="M511.2052,-179.3155C491.7734,-164.0139 459.8507,-133.7521 478.5,-112 510.8696,-74.245 645.695,-86.2041 710.9625,-75.5321"/>
<polygon fill="#191970" stroke="#191970" points="711.6673,-78.9607 720.814,-73.6139 710.3294,-72.0897 711.6673,-78.9607"/>
</g>
<!-- Node10 -->
<g id="node11" class="node">
<title>Node10</title>
<polygon fill="none" stroke="#bfbfbf" points="359.5,-56.5 359.5,-75.5 409.5,-75.5 409.5,-56.5 359.5,-56.5"/>
<text text-anchor="middle" x="384.5" y="-63.5" font-family="Helvetica,sans-Serif" font-size="10.00" fill="#000000">cstring</text>
</g>
<!-- Node9&#45;&gt;Node10 -->
<g id="edge12" class="edge">
<title>Node9&#45;&gt;Node10</title>
<path fill="none" stroke="#191970" d="M498.8909,-179.353C480.4104,-171.5171 455.6248,-159.1279 437.5,-143 418.6493,-126.2262 403.1459,-101.4236 393.8776,-84.5326"/>
<polygon fill="#191970" stroke="#191970" points="396.9335,-82.8241 389.1629,-75.6221 390.7462,-86.098 396.9335,-82.8241"/>
</g>
<!-- Node11 -->
<g id="node12" class="node">
<title>Node11</title>
<g id="a_node12"><a xlink:href="../../db/dff/FlatObject_8h.html" target="_top" xlink:title="Definition of FlatObject class. ">
<polygon fill="none" stroke="#000000" points="242,-118 242,-137 317,-137 317,-118 242,-118"/>
<text text-anchor="middle" x="279.5" y="-125" font-family="Helvetica,sans-Serif" font-size="10.00" fill="#000000">FlatObject.h</text>
</a>
</g>
</g>
<!-- Node9&#45;&gt;Node11 -->
<g id="edge14" class="edge">
<title>Node9&#45;&gt;Node11</title>
<path fill="none" stroke="#191970" d="M481.4005,-179.451C442.1727,-170.5883 382.7381,-156.7311 331.5,-143 327.8745,-142.0284 324.118,-140.9838 320.3589,-139.9124"/>
<polygon fill="#191970" stroke="#191970" points="321.0705,-136.4745 310.4911,-137.0457 319.1176,-143.1966 321.0705,-136.4745"/>
</g>
<!-- Node18 -->
<g id="node19" class="node">
<title>Node18</title>
<g id="a_node19"><a xlink:href="../../db/dba/MatCell_8h.html" target="_top" xlink:title="Declarations for material properties of the cell (voxel) ">
<polygon fill="none" stroke="#000000" points="488,-118 488,-137 625,-137 625,-118 488,-118"/>
<text text-anchor="middle" x="556.5" y="-125" font-family="Helvetica,sans-Serif" font-size="10.00" fill="#000000">DetectorsBase/MatCell.h</text>
</a>
</g>
</g>
<!-- Node9&#45;&gt;Node18 -->
<g id="edge26" class="edge">
<title>Node9&#45;&gt;Node18</title>
<path fill="none" stroke="#191970" d="M529.5,-179.3906C534.0758,-170.5965 540.9781,-157.3312 546.6583,-146.4145"/>
<polygon fill="#191970" stroke="#191970" points="549.9185,-147.7314 551.4295,-137.2449 543.7088,-144.5003 549.9185,-147.7314"/>
</g>
<!-- Node11&#45;&gt;Node1 -->
<g id="edge20" class="edge">
<title>Node11&#45;&gt;Node1</title>
<path fill="none" stroke="#191970" d="M312.4688,-117.8906C349.0117,-107.2395 408.0571,-90.0296 448.035,-78.3772"/>
<polygon fill="#191970" stroke="#191970" points="449.1417,-81.7004 457.7628,-75.5419 447.1828,-74.98 449.1417,-81.7004"/>
</g>
<!-- Node11&#45;&gt;Node3 -->
<g id="edge19" class="edge">
<title>Node11&#45;&gt;Node3</title>
<path fill="none" stroke="#191970" d="M317.0224,-123.9789C400.0774,-116.1062 605.7116,-96.1805 777.5,-76 781.4755,-75.533 785.566,-75.0377 789.6895,-74.5271"/>
<polygon fill="#191970" stroke="#191970" points="790.4764,-77.9558 799.961,-73.2343 789.6021,-71.0106 790.4764,-77.9558"/>
</g>
<!-- Node11&#45;&gt;Node10 -->
<g id="edge17" class="edge">
<title>Node11&#45;&gt;Node10</title>
<path fill="none" stroke="#191970" d="M295.9063,-117.8906C312.9353,-107.9165 339.7841,-92.1908 359.4651,-80.6633"/>
<polygon fill="#191970" stroke="#191970" points="361.349,-83.6161 368.209,-75.5419 357.8112,-77.5759 361.349,-83.6161"/>
</g>
<!-- Node12 -->
<g id="node13" class="node">
<title>Node12</title>
<polygon fill="none" stroke="#bfbfbf" points="0,-56.5 0,-75.5 53,-75.5 53,-56.5 0,-56.5"/>
<text text-anchor="middle" x="26.5" y="-63.5" font-family="Helvetica,sans-Serif" font-size="10.00" fill="#000000">cstddef</text>
</g>
<!-- Node11&#45;&gt;Node12 -->
<g id="edge15" class="edge">
<title>Node11&#45;&gt;Node12</title>
<path fill="none" stroke="#191970" d="M241.7592,-119.0001C200.3341,-109.5693 131.6426,-93.6352 62.903,-76.0339"/>
<polygon fill="#191970" stroke="#191970" points="63.7628,-72.6412 53.2061,-73.5397 62.019,-79.4205 63.7628,-72.6412"/>
</g>
<!-- Node13 -->
<g id="node14" class="node">
<title>Node13</title>
<polygon fill="none" stroke="#bfbfbf" points="71.5,-56.5 71.5,-75.5 129.5,-75.5 129.5,-56.5 71.5,-56.5"/>
<text text-anchor="middle" x="100.5" y="-63.5" font-family="Helvetica,sans-Serif" font-size="10.00" fill="#000000">memory</text>
</g>
<!-- Node11&#45;&gt;Node13 -->
<g id="edge16" class="edge">
<title>Node11&#45;&gt;Node13</title>
<path fill="none" stroke="#191970" d="M251.5313,-117.8906C220.9245,-107.3749 171.7101,-90.466 137.8259,-78.8243"/>
<polygon fill="#191970" stroke="#191970" points="138.867,-75.4812 128.2724,-75.5419 136.5924,-82.1014 138.867,-75.4812"/>
</g>
<!-- Node14 -->
<g id="node15" class="node">
<title>Node14</title>
<polygon fill="none" stroke="#bfbfbf" points="147.5,-56.5 147.5,-75.5 199.5,-75.5 199.5,-56.5 147.5,-56.5"/>
<text text-anchor="middle" x="173.5" y="-63.5" font-family="Helvetica,sans-Serif" font-size="10.00" fill="#000000">cassert</text>
</g>
<!-- Node11&#45;&gt;Node14 -->
<g id="edge18" class="edge">
<title>Node11&#45;&gt;Node14</title>
<path fill="none" stroke="#191970" d="M262.9375,-117.8906C245.7463,-107.9165 218.6418,-92.1908 198.7734,-80.6633"/>
<polygon fill="#191970" stroke="#191970" points="200.3523,-77.533 189.9462,-75.5419 196.8394,-83.5877 200.3523,-77.533"/>
</g>
<!-- Node15 -->
<g id="node16" class="node">
<title>Node15</title>
<g id="a_node16"><a xlink:href="../../df/d5b/GPUCommonLogger_8h.html" target="_top" xlink:title="GPUCommonLogger.h">
<polygon fill="none" stroke="#000000" points="218,-56.5 218,-75.5 341,-75.5 341,-56.5 218,-56.5"/>
<text text-anchor="middle" x="279.5" y="-63.5" font-family="Helvetica,sans-Serif" font-size="10.00" fill="#000000">GPUCommonLogger.h</text>
</a>
</g>
</g>
<!-- Node11&#45;&gt;Node15 -->
<g id="edge21" class="edge">
<title>Node11&#45;&gt;Node15</title>
<path fill="none" stroke="#191970" d="M279.5,-117.8906C279.5,-109.3657 279.5,-96.6392 279.5,-85.9235"/>
<polygon fill="#191970" stroke="#191970" points="283.0001,-85.7448 279.5,-75.7449 276.0001,-85.7449 283.0001,-85.7448"/>
</g>
<!-- Node16 -->
<g id="node17" class="node">
<title>Node16</title>
<polygon fill="none" stroke="#bfbfbf" points="214.5,-.5 214.5,-19.5 274.5,-19.5 274.5,-.5 214.5,-.5"/>
<text text-anchor="middle" x="244.5" y="-7.5" font-family="Helvetica,sans-Serif" font-size="10.00" fill="#000000">iostream</text>
</g>
<!-- Node15&#45;&gt;Node16 -->
<g id="edge22" class="edge">
<title>Node15&#45;&gt;Node16</title>
<path fill="none" stroke="#191970" d="M273.4035,-56.2455C268.5855,-48.5367 261.7249,-37.5598 255.8968,-28.2348"/>
<polygon fill="#191970" stroke="#191970" points="258.7947,-26.2677 250.5267,-19.6427 252.8587,-29.9777 258.7947,-26.2677"/>
</g>
<!-- Node17 -->
<g id="node18" class="node">
<title>Node17</title>
<polygon fill="none" stroke="#bfbfbf" points="292.5,-.5 292.5,-19.5 338.5,-19.5 338.5,-.5 292.5,-.5"/>
<text text-anchor="middle" x="315.5" y="-7.5" font-family="Helvetica,sans-Serif" font-size="10.00" fill="#000000">cstdio</text>
</g>
<!-- Node15&#45;&gt;Node17 -->
<g id="edge23" class="edge">
<title>Node15&#45;&gt;Node17</title>
<path fill="none" stroke="#191970" d="M285.7707,-56.2455C290.7264,-48.5367 297.783,-37.5598 303.7776,-28.2348"/>
<polygon fill="#191970" stroke="#191970" points="306.8376,-29.9471 309.3011,-19.6427 300.9494,-26.1618 306.8376,-29.9471"/>
</g>
<!-- Node18&#45;&gt;Node1 -->
<g id="edge28" class="edge">
<title>Node18&#45;&gt;Node1</title>
<path fill="none" stroke="#191970" d="M546.1875,-117.8906C536.0758,-108.4683 520.4558,-93.9134 508.3293,-82.6137"/>
<polygon fill="#191970" stroke="#191970" points="510.6601,-80.0015 500.9579,-75.7449 505.888,-85.1228 510.6601,-80.0015"/>
</g>
<!-- Node18&#45;&gt;Node3 -->
<g id="edge27" class="edge">
<title>Node18&#45;&gt;Node3</title>
<path fill="none" stroke="#191970" d="M602.5804,-117.9581C655.1473,-107.073 741.0983,-89.2751 797.4877,-77.5985"/>
<polygon fill="#191970" stroke="#191970" points="798.229,-81.0193 807.3115,-75.5643 796.8095,-74.1648 798.229,-81.0193"/>
</g>
<!-- Node20 -->
<g id="node21" class="node">
<title>Node20</title>
<g id="a_node21"><a xlink:href="../../de/def/bitOps_8h.html" target="_top" xlink:title="MathUtils/detail/bitOps.h">
<polygon fill="none" stroke="#000000" points="1182,-179.5 1182,-198.5 1319,-198.5 1319,-179.5 1182,-179.5"/>
<text text-anchor="middle" x="1250.5" y="-186.5" font-family="Helvetica,sans-Serif" font-size="10.00" fill="#000000">MathUtils/detail/bitOps.h</text>
</a>
</g>
</g>
<!-- Node19&#45;&gt;Node20 -->
<g id="edge30" class="edge">
<title>Node19&#45;&gt;Node20</title>
<path fill="none" stroke="#191970" d="M1019.1448,-235.4369C1067.2947,-225.7724 1141.7271,-210.8326 1193.0993,-200.5213"/>
<polygon fill="#191970" stroke="#191970" points="1193.9361,-203.9232 1203.0517,-198.5237 1192.5585,-197.0601 1193.9361,-203.9232"/>
</g>
<!-- Node22 -->
<g id="node23" class="node">
<title>Node22</title>
<g id="a_node23"><a xlink:href="../../d3/dfc/StatAccumulator_8h.html" target="_top" xlink:title="MathUtils/detail/StatAccumulator.h">
<polygon fill="none" stroke="#000000" points="977.5,-179.5 977.5,-198.5 1163.5,-198.5 1163.5,-179.5 977.5,-179.5"/>
<text text-anchor="middle" x="1070.5" y="-186.5" font-family="Helvetica,sans-Serif" font-size="10.00" fill="#000000">MathUtils/detail/StatAccumulator.h</text>
</a>
</g>
</g>
<!-- Node19&#45;&gt;Node22 -->
<g id="edge32" class="edge">
<title>Node19&#45;&gt;Node22</title>
<path fill="none" stroke="#191970" d="M988.7445,-235.2455C1004.0761,-226.5731 1026.7199,-213.7645 1044.2916,-203.825"/>
<polygon fill="#191970" stroke="#191970" points="1046.4724,-206.6126 1053.4531,-198.6427 1043.0259,-200.5198 1046.4724,-206.6126"/>
</g>
<!-- Node24 -->
<g id="node25" class="node">
<title>Node24</title>
<g id="a_node25"><a xlink:href="../../dd/d7d/trigonometric_8h.html" target="_top" xlink:title="MathUtils/detail/trigonometric.h">
<polygon fill="none" stroke="#000000" points="787.5,-179.5 787.5,-198.5 959.5,-198.5 959.5,-179.5 787.5,-179.5"/>
<text text-anchor="middle" x="873.5" y="-186.5" font-family="Helvetica,sans-Serif" font-size="10.00" fill="#000000">MathUtils/detail/trigonometric.h</text>
</a>
</g>
</g>
<!-- Node19&#45;&gt;Node24 -->
<g id="edge34" class="edge">
<title>Node19&#45;&gt;Node24</title>
<path fill="none" stroke="#191970" d="M954.4297,-235.2455C939.253,-226.5731 916.8379,-213.7645 899.4437,-203.825"/>
<polygon fill="#191970" stroke="#191970" points="900.7936,-200.5653 890.3747,-198.6427 897.3206,-206.643 900.7936,-200.5653"/>
</g>
<!-- Node21 -->
<g id="node22" class="node">
<title>Node21</title>
<polygon fill="none" stroke="#bfbfbf" points="1222.5,-118 1222.5,-137 1272.5,-137 1272.5,-118 1222.5,-118"/>
<text text-anchor="middle" x="1247.5" y="-125" font-family="Helvetica,sans-Serif" font-size="10.00" fill="#000000">cstdint</text>
</g>
<!-- Node20&#45;&gt;Node21 -->
<g id="edge31" class="edge">
<title>Node20&#45;&gt;Node21</title>
<path fill="none" stroke="#191970" d="M1250.0313,-179.3906C1249.6154,-170.8657 1248.9946,-158.1392 1248.4719,-147.4235"/>
<polygon fill="#191970" stroke="#191970" points="1251.9585,-147.0624 1247.9754,-137.2449 1244.9668,-147.4035 1251.9585,-147.0624"/>
</g>
<!-- Node23 -->
<g id="node24" class="node">
<title>Node23</title>
<polygon fill="none" stroke="#bfbfbf" points="1163,-118 1163,-137 1204,-137 1204,-118 1163,-118"/>
<text text-anchor="middle" x="1183.5" y="-125" font-family="Helvetica,sans-Serif" font-size="10.00" fill="#000000">tuple</text>
</g>
<!-- Node22&#45;&gt;Node23 -->
<g id="edge33" class="edge">
<title>Node22&#45;&gt;Node23</title>
<path fill="none" stroke="#191970" d="M1088.1563,-179.3906C1106.6486,-169.3262 1135.901,-153.4057 1157.1308,-141.8514"/>
<polygon fill="#191970" stroke="#191970" points="1158.8575,-144.8965 1165.9677,-137.0419 1155.5112,-138.7481 1158.8575,-144.8965"/>
</g>
<!-- Node24&#45;&gt;Node3 -->
<g id="edge38" class="edge">
<title>Node24&#45;&gt;Node3</title>
<path fill="none" stroke="#191970" d="M949.2802,-179.4838C1016.2017,-170.3019 1104.7962,-155.9301 1115.5,-143 1124.2858,-132.3869 1124.36,-122.5511 1115.5,-112 1090.7124,-82.4812 986.8493,-71.9001 917.5763,-68.1105"/>
<polygon fill="#191970" stroke="#191970" points="917.3628,-64.5951 907.1968,-67.5789 917.0047,-71.5859 917.3628,-64.5951"/>
</g>
<!-- Node24&#45;&gt;Node6 -->
<g id="edge39" class="edge">
<title>Node24&#45;&gt;Node6</title>
<path fill="none" stroke="#191970" d="M846.4688,-179.3906C817.0149,-168.92 769.7311,-152.1111 736.9973,-140.4745"/>
<polygon fill="#191970" stroke="#191970" points="737.9361,-137.0937 727.3414,-137.0419 735.5914,-143.6893 737.9361,-137.0937"/>
</g>
<!-- Node24&#45;&gt;Node7 -->
<g id="edge36" class="edge">
<title>Node24&#45;&gt;Node7</title>
<path fill="none" stroke="#191970" d="M863.3776,-179.3484C841.4295,-158.4212 789.2405,-108.6596 761.8944,-82.5854"/>
<polygon fill="#191970" stroke="#191970" points="764.2281,-79.9745 754.5754,-75.6068 759.3975,-85.0406 764.2281,-79.9745"/>
</g>
<!-- Node24&#45;&gt;Node23 -->
<g id="edge37" class="edge">
<title>Node24&#45;&gt;Node23</title>
<path fill="none" stroke="#191970" d="M942.6295,-179.4581C1011.1037,-169.6433 1111.0008,-154.2441 1148.5,-143 1150.6205,-142.3642 1152.7818,-141.6313 1154.9374,-140.8375"/>
<polygon fill="#191970" stroke="#191970" points="1156.255,-144.0801 1164.2067,-137.0787 1153.6244,-137.5932 1156.255,-144.0801"/>
</g>
<!-- Node25 -->
<g id="node26" class="node">
<title>Node25</title>
<polygon fill="none" stroke="#bfbfbf" points="852.5,-118 852.5,-137 894.5,-137 894.5,-118 852.5,-118"/>
<text text-anchor="middle" x="873.5" y="-125" font-family="Helvetica,sans-Serif" font-size="10.00" fill="#000000">array</text>
</g>
<!-- Node24&#45;&gt;Node25 -->
<g id="edge35" class="edge">
<title>Node24&#45;&gt;Node25</title>
<path fill="none" stroke="#191970" d="M873.5,-179.3906C873.5,-170.8657 873.5,-158.1392 873.5,-147.4235"/>
<polygon fill="#191970" stroke="#191970" points="877.0001,-147.2448 873.5,-137.2449 870.0001,-147.2449 877.0001,-147.2448"/>
</g>
<!-- Node26 -->
<g id="node27" class="node">
<title>Node26</title>
<g id="a_node27"><a xlink:href="../../d6/d84/MathConstants_8h.html" target="_top" xlink:title="useful math constants ">
<polygon fill="none" stroke="#000000" points="912.5,-118 912.5,-137 1106.5,-137 1106.5,-118 912.5,-118"/>
<text text-anchor="middle" x="1009.5" y="-125" font-family="Helvetica,sans-Serif" font-size="10.00" fill="#000000">CommonConstants/MathConstants.h</text>
</a>
</g>
</g>
<!-- Node24&#45;&gt;Node26 -->
<g id="edge40" class="edge">
<title>Node24&#45;&gt;Node26</title>
<path fill="none" stroke="#191970" d="M894.75,-179.3906C917.4055,-169.1457 953.4798,-152.8326 979.1291,-141.2339"/>
<polygon fill="#191970" stroke="#191970" points="980.7297,-144.3514 988.3992,-137.0419 977.8454,-137.9732 980.7297,-144.3514"/>
</g>
<!-- Node27&#45;&gt;Node1 -->
<g id="edge43" class="edge">
<title>Node27&#45;&gt;Node1</title>
<path fill="none" stroke="#191970" d="M2084.4527,-187.775C1905.465,-183.8803 1390.1361,-170.3942 1319.5,-143 1299.1788,-135.119 1301.8231,-119.8762 1281.5,-112 1146.196,-59.5631 774.3172,-85.2066 629.5,-76 607.926,-74.6285 584.4792,-72.9961 563.0948,-71.4522"/>
<polygon fill="#191970" stroke="#191970" points="563.333,-67.9603 553.1057,-70.7266 562.8258,-74.9419 563.333,-67.9603"/>
</g>
<!-- Node27&#45;&gt;Node3 -->
<g id="edge42" class="edge">
<title>Node27&#45;&gt;Node3</title>
<path fill="none" stroke="#191970" d="M2206.5755,-186.9367C2365.2141,-181.2825 2779.4428,-164.5175 2799.5,-143 2808.8944,-132.9217 2809.1266,-121.8568 2799.5,-112 2765.8676,-77.5632 1249.8745,-67.9842 917.4751,-66.2963"/>
<polygon fill="#191970" stroke="#191970" points="917.0862,-62.7944 907.0687,-66.2441 917.051,-69.7943 917.0862,-62.7944"/>
</g>
<!-- Node28 -->
<g id="node29" class="node">
<title>Node28</title>
<polygon fill="none" stroke="#bfbfbf" points="2846.5,-112.5 2846.5,-142.5 3010.5,-142.5 3010.5,-112.5 2846.5,-112.5"/>
<text text-anchor="start" x="2854.5" y="-130.5" font-family="Helvetica,sans-Serif" font-size="10.00" fill="#000000">Math/GenVector/Displacement</text>
<text text-anchor="middle" x="2928.5" y="-119.5" font-family="Helvetica,sans-Serif" font-size="10.00" fill="#000000">Vector3D.h</text>
</g>
<!-- Node27&#45;&gt;Node28 -->
<g id="edge44" class="edge">
<title>Node27&#45;&gt;Node28</title>
<path fill="none" stroke="#191970" d="M2206.7897,-186.8146C2327.0744,-182.1019 2602.3847,-169.2232 2832.5,-143 2833.7738,-142.8548 2835.0564,-142.7047 2836.3464,-142.5499"/>
<polygon fill="#191970" stroke="#191970" points="2836.8707,-146.0115 2846.3504,-141.2802 2835.9893,-139.0672 2836.8707,-146.0115"/>
</g>
<!-- Node29 -->
<g id="node30" class="node">
<title>Node29</title>
<polygon fill="none" stroke="#bfbfbf" points="1487,-118 1487,-137 1676,-137 1676,-118 1487,-118"/>
<text text-anchor="middle" x="1581.5" y="-125" font-family="Helvetica,sans-Serif" font-size="10.00" fill="#000000">Math/GenVector/PositionVector3D.h</text>
</g>
<!-- Node27&#45;&gt;Node29 -->
<g id="edge45" class="edge">
<title>Node27&#45;&gt;Node29</title>
<path fill="none" stroke="#191970" d="M2084.3801,-183.8339C1996.1587,-176.1624 1828.0647,-160.7415 1685.5,-143 1674.6818,-141.6537 1663.2514,-140.0921 1652.0831,-138.4888"/>
<polygon fill="#191970" stroke="#191970" points="1652.3253,-134.9872 1641.9253,-137.0097 1651.3166,-141.9142 1652.3253,-134.9872"/>
</g>
<!-- Node30 -->
<g id="node31" class="node">
<title>Node30</title>
<polygon fill="none" stroke="#bfbfbf" points="1694.5,-118 1694.5,-137 1854.5,-137 1854.5,-118 1694.5,-118"/>
<text text-anchor="middle" x="1774.5" y="-125" font-family="Helvetica,sans-Serif" font-size="10.00" fill="#000000">Math/GenVector/Rotation3D.h</text>
</g>
<!-- Node27&#45;&gt;Node30 -->
<g id="edge46" class="edge">
<title>Node27&#45;&gt;Node30</title>
<path fill="none" stroke="#191970" d="M2086.053,-179.4929C2028.9612,-170.3176 1940.2962,-155.9504 1863.5,-143 1855.4736,-141.6465 1847.0438,-140.2047 1838.7039,-138.7661"/>
<polygon fill="#191970" stroke="#191970" points="1839.0594,-135.2757 1828.609,-137.0191 1837.8657,-142.1732 1839.0594,-135.2757"/>
</g>
<!-- Node31 -->
<g id="node32" class="node">
<title>Node31</title>
<polygon fill="none" stroke="#bfbfbf" points="1872.5,-118 1872.5,-137 2040.5,-137 2040.5,-118 1872.5,-118"/>
<text text-anchor="middle" x="1956.5" y="-125" font-family="Helvetica,sans-Serif" font-size="10.00" fill="#000000">Math/GenVector/Transform3D.h</text>
</g>
<!-- Node27&#45;&gt;Node31 -->
<g id="edge47" class="edge">
<title>Node27&#45;&gt;Node31</title>
<path fill="none" stroke="#191970" d="M2115.9688,-179.3906C2083.5134,-168.8298 2031.2419,-151.8208 1995.4514,-140.1747"/>
<polygon fill="#191970" stroke="#191970" points="1996.4161,-136.808 1985.8239,-137.0419 1994.2501,-143.4645 1996.4161,-136.808"/>
</g>
<!-- Node32 -->
<g id="node33" class="node">
<title>Node32</title>
<polygon fill="none" stroke="#bfbfbf" points="2059,-118 2059,-137 2232,-137 2232,-118 2059,-118"/>
<text text-anchor="middle" x="2145.5" y="-125" font-family="Helvetica,sans-Serif" font-size="10.00" fill="#000000">Math/GenVector/Translation3D.h</text>
</g>
<!-- Node27&#45;&gt;Node32 -->
<g id="edge48" class="edge">
<title>Node27&#45;&gt;Node32</title>
<path fill="none" stroke="#191970" d="M2145.5,-179.3906C2145.5,-170.8657 2145.5,-158.1392 2145.5,-147.4235"/>
<polygon fill="#191970" stroke="#191970" points="2149.0001,-147.2448 2145.5,-137.2449 2142.0001,-147.2449 2149.0001,-147.2448"/>
</g>
<!-- Node33 -->
<g id="node34" class="node">
<title>Node33</title>
<polygon fill="none" stroke="#bfbfbf" points="2250.5,-112.5 2250.5,-142.5 2414.5,-142.5 2414.5,-112.5 2250.5,-112.5"/>
<text text-anchor="start" x="2258.5" y="-130.5" font-family="Helvetica,sans-Serif" font-size="10.00" fill="#000000">Math/GenVector/Displacement</text>
<text text-anchor="middle" x="2332.5" y="-119.5" font-family="Helvetica,sans-Serif" font-size="10.00" fill="#000000">Vector2D.h</text>
</g>
<!-- Node27&#45;&gt;Node33 -->
<g id="edge49" class="edge">
<title>Node27&#45;&gt;Node33</title>
<path fill="none" stroke="#191970" d="M2174.7188,-179.3906C2202.0188,-170.4123 2243.4895,-156.7735 2277.064,-145.7316"/>
<polygon fill="#191970" stroke="#191970" points="2278.3487,-148.9936 2286.7547,-142.5446 2276.1617,-142.344 2278.3487,-148.9936"/>
</g>
<!-- Node34 -->
<g id="node35" class="node">
<title>Node34</title>
<polygon fill="none" stroke="#bfbfbf" points="2433,-118 2433,-137 2622,-137 2622,-118 2433,-118"/>
<text text-anchor="middle" x="2527.5" y="-125" font-family="Helvetica,sans-Serif" font-size="10.00" fill="#000000">Math/GenVector/PositionVector2D.h</text>
</g>
<!-- Node27&#45;&gt;Node34 -->
<g id="edge50" class="edge">
<title>Node27&#45;&gt;Node34</title>
<path fill="none" stroke="#191970" d="M2204.7684,-179.4581C2273.3197,-168.4217 2386.0116,-150.2789 2458.46,-138.6151"/>
<polygon fill="#191970" stroke="#191970" points="2459.0904,-142.0587 2468.4069,-137.0137 2457.9777,-135.1477 2459.0904,-142.0587"/>
</g>
<!-- Node35 -->
<g id="node36" class="node">
<title>Node35</title>
<polygon fill="none" stroke="#bfbfbf" points="2640.5,-118 2640.5,-137 2722.5,-137 2722.5,-118 2640.5,-118"/>
<text text-anchor="middle" x="2681.5" y="-125" font-family="Helvetica,sans-Serif" font-size="10.00" fill="#000000">TGeoMatrix.h</text>
</g>
<!-- Node27&#45;&gt;Node35 -->
<g id="edge51" class="edge">
<title>Node27&#45;&gt;Node35</title>
<path fill="none" stroke="#191970" d="M2206.6994,-187.2484C2299.4171,-183.6888 2480.6649,-173.1814 2631.5,-143 2635.7107,-142.1575 2640.0703,-141.0979 2644.3805,-139.9302"/>
<polygon fill="#191970" stroke="#191970" points="2645.6288,-143.2123 2654.2545,-137.0603 2643.675,-136.4904 2645.6288,-143.2123"/>
</g>
<!-- Node36 -->
<g id="node37" class="node">
<title>Node36</title>
<polygon fill="none" stroke="#bfbfbf" points="2741,-118 2741,-137 2790,-137 2790,-118 2741,-118"/>
<text text-anchor="middle" x="2765.5" y="-125" font-family="Helvetica,sans-Serif" font-size="10.00" fill="#000000">iosfwd</text>
</g>
<!-- Node27&#45;&gt;Node36 -->
<g id="edge52" class="edge">
<title>Node27&#45;&gt;Node36</title>
<path fill="none" stroke="#191970" d="M2206.5571,-186.8996C2335.8802,-182.0124 2633.565,-168.3239 2731.5,-143 2733.6943,-142.4326 2735.9229,-141.7314 2738.1357,-140.9434"/>
<polygon fill="#191970" stroke="#191970" points="2739.6488,-144.106 2747.5788,-137.0798 2736.9981,-137.6273 2739.6488,-144.106"/>
</g>
<!-- Node37 -->
<g id="node38" class="node">
<title>Node37</title>
<g id="a_node38"><a xlink:href="../../d1/da8/GPUROOTCartesianFwd_8h.html" target="_top" xlink:title="GPUROOTCartesianFwd.h">
<polygon fill="none" stroke="#000000" points="1328.5,-118 1328.5,-137 1468.5,-137 1468.5,-118 1328.5,-118"/>
<text text-anchor="middle" x="1398.5" y="-125" font-family="Helvetica,sans-Serif" font-size="10.00" fill="#000000">GPUROOTCartesianFwd.h</text>
</a>
</g>
</g>
<!-- Node27&#45;&gt;Node37 -->
<g id="edge53" class="edge">
<title>Node27&#45;&gt;Node37</title>
<path fill="none" stroke="#191970" d="M2084.097,-187.2797C1966.2449,-183.4222 1700.3407,-172.0294 1478.5,-143 1470.0308,-141.8918 1461.1068,-140.4441 1452.4134,-138.8788"/>
<polygon fill="#191970" stroke="#191970" points="1452.8279,-135.3958 1442.3553,-137.0006 1451.5428,-142.2769 1452.8279,-135.3958"/>
</g>
<!-- Node37&#45;&gt;Node3 -->
<g id="edge54" class="edge">
<title>Node37&#45;&gt;Node3</title>
<path fill="none" stroke="#191970" d="M1350.6378,-117.9584C1338.8538,-115.8055 1326.246,-113.6668 1314.5,-112 1173.3619,-91.972 1006.6905,-77.6275 917.4875,-70.6965"/>
<polygon fill="#191970" stroke="#191970" points="917.502,-67.1873 907.2625,-69.9082 916.9638,-74.1666 917.502,-67.1873"/>
</g>
</g>
</svg>
