<?xml version="1.0" encoding="UTF-8" standalone="no"?>
<!DOCTYPE svg PUBLIC "-//W3C//DTD SVG 1.1//EN"
 "http://www.w3.org/Graphics/SVG/1.1/DTD/svg11.dtd">
<!-- Generated by graphviz version 2.40.1 (20161225.0304)
 -->
<!-- Title: /home/travis/build/AliceO2Group/AliceO2/Detectors/ITSMFT/MFT/base/src/Ladder.cxx Pages: 1 -->
<!--zoomable 374 -->
<svg id="main" version="1.1" xmlns="http://www.w3.org/2000/svg" xmlns:xlink="http://www.w3.org/1999/xlink" xml:space="preserve" onload="init(evt)">
<style type="text/css"><![CDATA[
.edge:hover path { stroke: red; }
.edge:hover polygon { stroke: red; fill: red; }
]]></style>
<script type="text/javascript"><![CDATA[
var edges = document.getElementsByTagName('g');
if (edges && edges.length) {
  for (var i=0;i<edges.length;i++) {
    if (edges[i].id.substr(0,4)=='edge') {
      edges[i].setAttribute('class','edge');
    }
  }
}
]]></script>
        <defs>
                <circle id="rim" cx="0" cy="0" r="7"/>
                <circle id="rim2" cx="0" cy="0" r="3.5"/>
                <g id="zoomPlus">
                        <use xlink:href="#rim" fill="#404040">
                                <set attributeName="fill" to="#808080" begin="zoomplus.mouseover" end="zoomplus.mouseout"/>
                        </use>
                        <path d="M-4,0h8M0,-4v8" fill="none" stroke="white" stroke-width="1.5" pointer-events="none"/>
                </g>
                <g id="zoomMin">
                        <use xlink:href="#rim" fill="#404040">
                                <set attributeName="fill" to="#808080" begin="zoomminus.mouseover" end="zoomminus.mouseout"/>
                        </use>
                        <path d="M-4,0h8" fill="none" stroke="white" stroke-width="1.5" pointer-events="none"/>
                </g>
                <g id="dirArrow">
                        <path fill="none" stroke="white" stroke-width="1.5" d="M0,-3.0v7 M-2.5,-0.5L0,-3.0L2.5,-0.5"/>
                </g>
               <g id="resetDef">
                       <use xlink:href="#rim2" fill="#404040">
                               <set attributeName="fill" to="#808080" begin="reset.mouseover" end="reset.mouseout"/>
                       </use>
               </g>
        </defs>

<script type="text/javascript">
var viewWidth = 2905;
var viewHeight = 374;
var sectionId = 'dynsection-0';
</script>
<script xlink:href="../../svgpan.js"/>
<svg id="graph" class="graph">
<g id="viewport">
<title>/home/travis/build/AliceO2Group/AliceO2/Detectors/ITSMFT/MFT/base/src/Ladder.cxx</title>
<!-- Node0 -->
<g id="node1" class="node">
<title>Node0</title>
<polygon fill="#bfbfbf" stroke="#000000" points="1536.5,-313.5 1536.5,-365.5 1663.5,-365.5 1663.5,-313.5 1536.5,-313.5"/>
<text text-anchor="start" x="1544.5" y="-353.5" font-family="Helvetica,sans-Serif" font-size="10.00" fill="#000000">/home/travis/build</text>
<text text-anchor="start" x="1544.5" y="-342.5" font-family="Helvetica,sans-Serif" font-size="10.00" fill="#000000">/AliceO2Group/AliceO2</text>
<text text-anchor="start" x="1544.5" y="-331.5" font-family="Helvetica,sans-Serif" font-size="10.00" fill="#000000">/Detectors/ITSMFT/MFT</text>
<text text-anchor="middle" x="1600" y="-320.5" font-family="Helvetica,sans-Serif" font-size="10.00" fill="#000000">/base/src/Ladder.cxx</text>
</g>
<!-- Node1 -->
<g id="node2" class="node">
<title>Node1</title>
<polygon fill="none" stroke="#bfbfbf" points="1936,-62 1936,-81 2018,-81 2018,-62 1936,-62"/>
<text text-anchor="middle" x="1977" y="-69" font-family="Helvetica,sans-Serif" font-size="10.00" fill="#000000">TGeoMatrix.h</text>
</g>
<!-- Node0&#45;&gt;Node1 -->
<g id="edge1" class="edge">
<title>Node0&#45;&gt;Node1</title>
<path fill="none" stroke="#191970" d="M1650.5204,-313.4726C1667.8002,-303.3307 1686.6309,-290.8135 1702,-277 1738.2977,-244.3763 1727.4413,-215.5871 1769,-190 1841.444,-145.3974 1895.3989,-212.6756 1957,-154 1973.9589,-137.8465 1977.5698,-109.9561 1977.8695,-91.1257"/>
<polygon fill="#191970" stroke="#191970" points="1981.3675,-90.9505 1977.7287,-81.0002 1974.3682,-91.0479 1981.3675,-90.9505"/>
</g>
<!-- Node2 -->
<g id="node3" class="node">
<title>Node2</title>
<polygon fill="none" stroke="#bfbfbf" points="0,-196 0,-215 92,-215 92,-196 0,-196"/>
<text text-anchor="middle" x="46" y="-203" font-family="Helvetica,sans-Serif" font-size="10.00" fill="#000000">TGeoManager.h</text>
</g>
<!-- Node0&#45;&gt;Node2 -->
<g id="edge2" class="edge">
<title>Node0&#45;&gt;Node2</title>
<path fill="none" stroke="#191970" d="M1536.3012,-339.0002C1253.5373,-336.5169 123.2295,-323.6924 65,-277 49.7754,-264.7918 45.9298,-241.8891 45.3191,-225.2867"/>
<polygon fill="#191970" stroke="#191970" points="48.819,-225.006 45.313,-215.0081 41.819,-225.0102 48.819,-225.006"/>
</g>
<!-- Node3 -->
<g id="node4" class="node">
<title>Node3</title>
<polygon fill="none" stroke="#bfbfbf" points="958.5,-257.5 958.5,-276.5 1035.5,-276.5 1035.5,-257.5 958.5,-257.5"/>
<text text-anchor="middle" x="997" y="-264.5" font-family="Helvetica,sans-Serif" font-size="10.00" fill="#000000">TGeoBBox.h</text>
</g>
<!-- Node0&#45;&gt;Node3 -->
<g id="edge3" class="edge">
<title>Node0&#45;&gt;Node3</title>
<path fill="none" stroke="#191970" d="M1536.4821,-334.2887C1434.9562,-325.5319 1229.7134,-306.08 1045.8418,-277.0036"/>
<polygon fill="#191970" stroke="#191970" points="1046.1417,-273.5073 1035.7153,-275.3889 1045.0394,-280.42 1046.1417,-273.5073"/>
</g>
<!-- Node4 -->
<g id="node5" class="node">
<title>Node4</title>
<polygon fill="none" stroke="#bfbfbf" points="1054,-257.5 1054,-276.5 1128,-276.5 1128,-257.5 1054,-257.5"/>
<text text-anchor="middle" x="1091" y="-264.5" font-family="Helvetica,sans-Serif" font-size="10.00" fill="#000000">TGeoTube.h</text>
</g>
<!-- Node0&#45;&gt;Node4 -->
<g id="edge4" class="edge">
<title>Node0&#45;&gt;Node4</title>
<path fill="none" stroke="#191970" d="M1536.47,-332.5524C1449.028,-322.6285 1286.5031,-302.8893 1138.299,-277.119"/>
<polygon fill="#191970" stroke="#191970" points="1138.5609,-273.6116 1128.1068,-275.3331 1137.3527,-280.5066 1138.5609,-273.6116"/>
</g>
<!-- Node5 -->
<g id="node6" class="node">
<title>Node5</title>
<polygon fill="none" stroke="#bfbfbf" points="1146,-257.5 1146,-276.5 1280,-276.5 1280,-257.5 1146,-257.5"/>
<text text-anchor="middle" x="1213" y="-264.5" font-family="Helvetica,sans-Serif" font-size="10.00" fill="#000000">TGeoCompositeShape.h</text>
</g>
<!-- Node0&#45;&gt;Node5 -->
<g id="edge5" class="edge">
<title>Node0&#45;&gt;Node5</title>
<path fill="none" stroke="#191970" d="M1536.0948,-327.5281C1463.3517,-313.9005 1345.3857,-291.8009 1273.9117,-278.4111"/>
<polygon fill="#191970" stroke="#191970" points="1274.1881,-274.9021 1263.7146,-276.5008 1272.8991,-281.7824 1274.1881,-274.9021"/>
</g>
<!-- Node6 -->
<g id="node7" class="node">
<title>Node6</title>
<polygon fill="none" stroke="#bfbfbf" points="1298,-257.5 1298,-276.5 1396,-276.5 1396,-257.5 1298,-257.5"/>
<text text-anchor="middle" x="1347" y="-264.5" font-family="Helvetica,sans-Serif" font-size="10.00" fill="#000000">TGeoBoolNode.h</text>
</g>
<!-- Node0&#45;&gt;Node6 -->
<g id="edge6" class="edge">
<title>Node0&#45;&gt;Node6</title>
<path fill="none" stroke="#191970" d="M1536.484,-321.2988C1490.7398,-308.1903 1430.2431,-290.8543 1390.046,-279.3353"/>
<polygon fill="#191970" stroke="#191970" points="1390.8624,-275.9285 1380.2851,-276.5382 1388.934,-282.6576 1390.8624,-275.9285"/>
</g>
<!-- Node7 -->
<g id="node8" class="node">
<title>Node7</title>
<polygon fill="none" stroke="#bfbfbf" points="1414.5,-257.5 1414.5,-276.5 1489.5,-276.5 1489.5,-257.5 1414.5,-257.5"/>
<text text-anchor="middle" x="1452" y="-264.5" font-family="Helvetica,sans-Serif" font-size="10.00" fill="#000000">FairLogger.h</text>
</g>
<!-- Node0&#45;&gt;Node7 -->
<g id="edge7" class="edge">
<title>Node0&#45;&gt;Node7</title>
<path fill="none" stroke="#191970" d="M1546.5686,-313.3258C1524.288,-302.4114 1499.3052,-290.1731 1480.615,-281.0175"/>
<polygon fill="#191970" stroke="#191970" points="1481.9826,-277.7901 1471.4625,-276.534 1478.9032,-284.0764 1481.9826,-277.7901"/>
</g>
<!-- Node8 -->
<g id="node9" class="node">
<title>Node8</title>
<g id="a_node9"><a xlink:href="../../da/d2d/AlpideChip_8h.html" target="_top" xlink:title="Creates an ALPIDE chip in simulation. ">
<polygon fill="none" stroke="#000000" points="74,-257.5 74,-276.5 242,-276.5 242,-257.5 74,-257.5"/>
<text text-anchor="middle" x="158" y="-264.5" font-family="Helvetica,sans-Serif" font-size="10.00" fill="#000000">ITSMFTSimulation/AlpideChip.h</text>
</a>
</g>
</g>
<!-- Node0&#45;&gt;Node8 -->
<g id="edge8" class="edge">
<title>Node0&#45;&gt;Node8</title>
<path fill="none" stroke="#191970" d="M1536.1784,-336.2912C1307.0655,-324.772 525.232,-285.4635 252.6563,-271.7591"/>
<polygon fill="#191970" stroke="#191970" points="252.5595,-268.2499 242.3964,-271.2432 252.208,-275.241 252.5595,-268.2499"/>
</g>
<!-- Node10 -->
<g id="node11" class="node">
<title>Node10</title>
<g id="a_node11"><a xlink:href="../../d3/dba/SegmentationAlpide_8h.html" target="_top" xlink:title="Definition of the SegmentationAlpide class. ">
<polygon fill="none" stroke="#000000" points="1507,-257.5 1507,-276.5 1693,-276.5 1693,-257.5 1507,-257.5"/>
<text text-anchor="middle" x="1600" y="-264.5" font-family="Helvetica,sans-Serif" font-size="10.00" fill="#000000">ITSMFTBase/SegmentationAlpide.h</text>
</a>
</g>
</g>
<!-- Node0&#45;&gt;Node10 -->
<g id="edge11" class="edge">
<title>Node0&#45;&gt;Node10</title>
<path fill="none" stroke="#191970" d="M1600,-313.3258C1600,-304.5142 1600,-294.8397 1600,-286.621"/>
<polygon fill="#191970" stroke="#191970" points="1603.5001,-286.534 1600,-276.534 1596.5001,-286.534 1603.5001,-286.534"/>
</g>
<!-- Node25 -->
<g id="node26" class="node">
<title>Node25</title>
<g id="a_node26"><a xlink:href="../../d9/de7/LadderSegmentation_8h.html" target="_top" xlink:title="Description of the virtual segmentation of a ladder. ">
<polygon fill="none" stroke="#000000" points="1749.5,-257.5 1749.5,-276.5 1922.5,-276.5 1922.5,-257.5 1749.5,-257.5"/>
<text text-anchor="middle" x="1836" y="-264.5" font-family="Helvetica,sans-Serif" font-size="10.00" fill="#000000">MFTBase/LadderSegmentation.h</text>
</a>
</g>
</g>
<!-- Node0&#45;&gt;Node25 -->
<g id="edge30" class="edge">
<title>Node0&#45;&gt;Node25</title>
<path fill="none" stroke="#191970" d="M1663.5541,-319.976C1705.3589,-307.1334 1758.8409,-290.7035 1795.0795,-279.5709"/>
<polygon fill="#191970" stroke="#191970" points="1796.2881,-282.8611 1804.8194,-276.5788 1794.2325,-276.1697 1796.2881,-282.8611"/>
</g>
<!-- Node30 -->
<g id="node31" class="node">
<title>Node30</title>
<g id="a_node31"><a xlink:href="../../d3/dbd/ChipSegmentation_8h.html" target="_top" xlink:title="Chip (sensor) segmentation description. ">
<polygon fill="none" stroke="#000000" points="1998,-196 1998,-215 2160,-215 2160,-196 1998,-196"/>
<text text-anchor="middle" x="2079" y="-203" font-family="Helvetica,sans-Serif" font-size="10.00" fill="#000000">MFTBase/ChipSegmentation.h</text>
</a>
</g>
</g>
<!-- Node0&#45;&gt;Node30 -->
<g id="edge38" class="edge">
<title>Node0&#45;&gt;Node30</title>
<path fill="none" stroke="#191970" d="M1663.6097,-332.986C1731.2929,-324.7965 1840.8272,-307.9104 1931,-277 1949.4271,-270.6834 1952.5247,-265.6064 1970,-257 1996.4962,-243.951 2026.9021,-229.6392 2048.8562,-219.422"/>
<polygon fill="#191970" stroke="#191970" points="2050.4116,-222.5587 2058.0072,-215.1724 2047.4633,-216.2098 2050.4116,-222.5587"/>
</g>
<!-- Node31 -->
<g id="node32" class="node">
<title>Node31</title>
<g id="a_node32"><a xlink:href="../../d2/d8d/Flex_8h.html" target="_top" xlink:title="Flex (Printed Cabled Board) class for ALICE MFT upgrade. ">
<polygon fill="none" stroke="#000000" points="1979,-257.5 1979,-276.5 2071,-276.5 2071,-257.5 1979,-257.5"/>
<text text-anchor="middle" x="2025" y="-264.5" font-family="Helvetica,sans-Serif" font-size="10.00" fill="#000000">MFTBase/Flex.h</text>
</a>
</g>
</g>
<!-- Node0&#45;&gt;Node31 -->
<g id="edge39" class="edge">
<title>Node0&#45;&gt;Node31</title>
<path fill="none" stroke="#191970" d="M1663.6268,-328.646C1746.3996,-314.5259 1889.7338,-290.0748 1968.7237,-276.6001"/>
<polygon fill="#191970" stroke="#191970" points="1969.6937,-279.9852 1978.9627,-274.8534 1968.5166,-273.0849 1969.6937,-279.9852"/>
</g>
<!-- Node32 -->
<g id="node33" class="node">
<title>Node32</title>
<g id="a_node33"><a xlink:href="../../d0/d12/Ladder_8h.html" target="_top" xlink:title="Class building the Ladder geometry. ">
<polygon fill="none" stroke="#000000" points="2308,-257.5 2308,-276.5 2412,-276.5 2412,-257.5 2308,-257.5"/>
<text text-anchor="middle" x="2360" y="-264.5" font-family="Helvetica,sans-Serif" font-size="10.00" fill="#000000">MFTBase/Ladder.h</text>
</a>
</g>
</g>
<!-- Node0&#45;&gt;Node32 -->
<g id="edge40" class="edge">
<title>Node0&#45;&gt;Node32</title>
<path fill="none" stroke="#191970" d="M1663.8157,-333.4123C1807.4333,-319.712 2154.6111,-286.593 2297.2324,-272.9877"/>
<polygon fill="#191970" stroke="#191970" points="2297.9266,-276.4375 2307.549,-272.0035 2297.2618,-269.4691 2297.9266,-276.4375"/>
</g>
<!-- Node34 -->
<g id="node35" class="node">
<title>Node34</title>
<g id="a_node35"><a xlink:href="../../d6/d2e/ITSMFT_2MFT_2base_2include_2MFTBase_2Geometry_8h.html" target="_top" xlink:title="MFTBase/Geometry.h">
<polygon fill="none" stroke="#000000" points="2178.5,-196 2178.5,-215 2297.5,-215 2297.5,-196 2178.5,-196"/>
<text text-anchor="middle" x="2238" y="-203" font-family="Helvetica,sans-Serif" font-size="10.00" fill="#000000">MFTBase/Geometry.h</text>
</a>
</g>
</g>
<!-- Node0&#45;&gt;Node34 -->
<g id="edge43" class="edge">
<title>Node0&#45;&gt;Node34</title>
<path fill="none" stroke="#191970" d="M1663.7151,-337.1717C1756.805,-332.4404 1934.7111,-318.3413 2080,-277 2128.6036,-263.1701 2181.3893,-236.7418 2211.9826,-220.1788"/>
<polygon fill="#191970" stroke="#191970" points="2214.0179,-223.0544 2221.1022,-215.1764 2210.6514,-216.9171 2214.0179,-223.0544"/>
</g>
<!-- Node35 -->
<g id="node36" class="node">
<title>Node35</title>
<g id="a_node36"><a xlink:href="../../d1/d04/MFTBaseParam_8h.html" target="_top" xlink:title="MFTBase/MFTBaseParam.h">
<polygon fill="none" stroke="#000000" points="2483,-257.5 2483,-276.5 2629,-276.5 2629,-257.5 2483,-257.5"/>
<text text-anchor="middle" x="2556" y="-264.5" font-family="Helvetica,sans-Serif" font-size="10.00" fill="#000000">MFTBase/MFTBaseParam.h</text>
</a>
</g>
</g>
<!-- Node0&#45;&gt;Node35 -->
<g id="edge45" class="edge">
<title>Node0&#45;&gt;Node35</title>
<path fill="none" stroke="#191970" d="M1663.8378,-334.6587C1831.6464,-321.9327 2285.1253,-287.5423 2472.8684,-273.3044"/>
<polygon fill="#191970" stroke="#191970" points="2473.2511,-276.7856 2482.9578,-272.5393 2472.7217,-269.8056 2473.2511,-276.7856"/>
</g>
<!-- Node8&#45;&gt;Node2 -->
<g id="edge9" class="edge">
<title>Node8&#45;&gt;Node2</title>
<path fill="none" stroke="#191970" d="M140.5,-257.3906C122.2535,-247.3713 93.4376,-231.5483 72.4194,-220.0071"/>
<polygon fill="#191970" stroke="#191970" points="73.8272,-216.7872 63.3771,-215.0419 70.458,-222.923 73.8272,-216.7872"/>
</g>
<!-- Node9 -->
<g id="node10" class="node">
<title>Node9</title>
<polygon fill="none" stroke="#bfbfbf" points="128.5,-62 128.5,-81 187.5,-81 187.5,-62 128.5,-62"/>
<text text-anchor="middle" x="158" y="-69" font-family="Helvetica,sans-Serif" font-size="10.00" fill="#000000">Rtypes.h</text>
</g>
<!-- Node8&#45;&gt;Node9 -->
<g id="edge10" class="edge">
<title>Node8&#45;&gt;Node9</title>
<path fill="none" stroke="#191970" d="M154.1376,-257.3228C150.6962,-248.1446 145.9167,-233.8807 144,-221 137.5893,-177.9188 138.2365,-166.1725 144,-123 145.4431,-112.1902 148.5187,-100.4337 151.4206,-90.8862"/>
<polygon fill="#191970" stroke="#191970" points="154.8016,-91.8049 154.5269,-81.2137 148.1368,-89.6646 154.8016,-91.8049"/>
</g>
<!-- Node10&#45;&gt;Node9 -->
<g id="edge12" class="edge">
<title>Node10&#45;&gt;Node9</title>
<path fill="none" stroke="#191970" d="M1506.8992,-257.7547C1503.8983,-257.4943 1500.9259,-257.242 1498,-257 1260.9374,-237.393 1201.1832,-239.0896 964,-221 788.9868,-207.652 309.5714,-269.0331 177,-154 159.2752,-138.6201 156.2692,-110.3333 156.5167,-91.222"/>
<polygon fill="#191970" stroke="#191970" points="160.0149,-91.3391 156.9518,-81.1967 153.0214,-91.0355 160.0149,-91.3391"/>
</g>
<!-- Node11 -->
<g id="node12" class="node">
<title>Node11</title>
<g id="a_node12"><a xlink:href="../../dc/d73/Cartesian_8h.html" target="_top" xlink:title="MathUtils/Cartesian.h">
<polygon fill="none" stroke="#000000" points="973,-196 973,-215 1095,-215 1095,-196 973,-196"/>
<text text-anchor="middle" x="1034" y="-203" font-family="Helvetica,sans-Serif" font-size="10.00" fill="#000000">MathUtils/Cartesian.h</text>
</a>
</g>
</g>
<!-- Node10&#45;&gt;Node11 -->
<g id="edge13" class="edge">
<title>Node10&#45;&gt;Node11</title>
<path fill="none" stroke="#191970" d="M1512.4934,-257.4918C1400.4815,-245.3209 1208.566,-224.4679 1105.0959,-213.2251"/>
<polygon fill="#191970" stroke="#191970" points="1105.3793,-209.7354 1095.0597,-212.1346 1104.6231,-216.6944 1105.3793,-209.7354"/>
</g>
<!-- Node11&#45;&gt;Node1 -->
<g id="edge26" class="edge">
<title>Node11&#45;&gt;Node1</title>
<path fill="none" stroke="#191970" d="M972.8511,-203.4008C849.9784,-198.5514 582.4566,-184.5668 555,-154 545.7931,-143.7501 545.4356,-132.9171 555,-123 579.2764,-97.8285 1673.7193,-76.8846 1925.6599,-72.3914"/>
<polygon fill="#191970" stroke="#191970" points="1926.0528,-75.8851 1935.9891,-72.208 1925.9285,-68.8862 1926.0528,-75.8851"/>
</g>
<!-- Node12 -->
<g id="node13" class="node">
<title>Node12</title>
<g id="a_node13"><a xlink:href="../../df/d21/GPUCommonDef_8h.html" target="_top" xlink:title="GPUCommonDef.h">
<polygon fill="none" stroke="#000000" points="395.5,-62 395.5,-81 502.5,-81 502.5,-62 395.5,-62"/>
<text text-anchor="middle" x="449" y="-69" font-family="Helvetica,sans-Serif" font-size="10.00" fill="#000000">GPUCommonDef.h</text>
</a>
</g>
</g>
<!-- Node11&#45;&gt;Node12 -->
<g id="edge14" class="edge">
<title>Node11&#45;&gt;Node12</title>
<path fill="none" stroke="#191970" d="M972.6442,-201.8415C845.3976,-193.8921 561.3103,-174.1334 522,-154 493.9132,-139.6149 471.7063,-109.5009 459.4676,-89.9094"/>
<polygon fill="#191970" stroke="#191970" points="462.4216,-88.0297 454.2782,-81.2521 456.4176,-91.6287 462.4216,-88.0297"/>
</g>
<!-- Node15 -->
<g id="node16" class="node">
<title>Node15</title>
<g id="a_node16"><a xlink:href="../../d2/d45/GPUCommonRtypes_8h.html" target="_top" xlink:title="GPUCommonRtypes.h">
<polygon fill="none" stroke="#000000" points="186.5,-129 186.5,-148 311.5,-148 311.5,-129 186.5,-129"/>
<text text-anchor="middle" x="249" y="-136" font-family="Helvetica,sans-Serif" font-size="10.00" fill="#000000">GPUCommonRtypes.h</text>
</a>
</g>
</g>
<!-- Node11&#45;&gt;Node15 -->
<g id="edge17" class="edge">
<title>Node11&#45;&gt;Node15</title>
<path fill="none" stroke="#191970" d="M972.6515,-203.9582C848.864,-200.2117 560.5707,-188.2675 321,-154 313.6072,-152.9426 305.84,-151.5608 298.254,-150.0578"/>
<polygon fill="#191970" stroke="#191970" points="298.9338,-146.6244 288.4325,-148.0291 297.5178,-153.4797 298.9338,-146.6244"/>
</g>
<!-- Node16 -->
<g id="node17" class="node">
<title>Node16</title>
<polygon fill="none" stroke="#bfbfbf" points="564,-123.5 564,-153.5 728,-153.5 728,-123.5 564,-123.5"/>
<text text-anchor="start" x="572" y="-141.5" font-family="Helvetica,sans-Serif" font-size="10.00" fill="#000000">Math/GenVector/Displacement</text>
<text text-anchor="middle" x="646" y="-130.5" font-family="Helvetica,sans-Serif" font-size="10.00" fill="#000000">Vector3D.h</text>
</g>
<!-- Node11&#45;&gt;Node16 -->
<g id="edge19" class="edge">
<title>Node11&#45;&gt;Node16</title>
<path fill="none" stroke="#191970" d="M978.8211,-195.9717C916.1495,-185.1495 812.8881,-167.3183 737.984,-154.3838"/>
<polygon fill="#191970" stroke="#191970" points="738.5224,-150.9251 728.0727,-152.6723 737.3312,-157.823 738.5224,-150.9251"/>
</g>
<!-- Node17 -->
<g id="node18" class="node">
<title>Node17</title>
<polygon fill="none" stroke="#bfbfbf" points="746.5,-129 746.5,-148 935.5,-148 935.5,-129 746.5,-129"/>
<text text-anchor="middle" x="841" y="-136" font-family="Helvetica,sans-Serif" font-size="10.00" fill="#000000">Math/GenVector/PositionVector3D.h</text>
</g>
<!-- Node11&#45;&gt;Node17 -->
<g id="edge20" class="edge">
<title>Node11&#45;&gt;Node17</title>
<path fill="none" stroke="#191970" d="M1006.3478,-195.9005C972.6682,-184.2086 915.6426,-164.4122 878.1528,-151.3976"/>
<polygon fill="#191970" stroke="#191970" points="879.1957,-148.0548 868.6009,-148.0817 876.9,-154.6677 879.1957,-148.0548"/>
</g>
<!-- Node18 -->
<g id="node19" class="node">
<title>Node18</title>
<polygon fill="none" stroke="#bfbfbf" points="954,-129 954,-148 1114,-148 1114,-129 954,-129"/>
<text text-anchor="middle" x="1034" y="-136" font-family="Helvetica,sans-Serif" font-size="10.00" fill="#000000">Math/GenVector/Rotation3D.h</text>
</g>
<!-- Node11&#45;&gt;Node18 -->
<g id="edge21" class="edge">
<title>Node11&#45;&gt;Node18</title>
<path fill="none" stroke="#191970" d="M1034,-195.9005C1034,-186.149 1034,-170.7597 1034,-158.3695"/>
<polygon fill="#191970" stroke="#191970" points="1037.5001,-158.0816 1034,-148.0817 1030.5001,-158.0817 1037.5001,-158.0816"/>
</g>
<!-- Node19 -->
<g id="node20" class="node">
<title>Node19</title>
<polygon fill="none" stroke="#bfbfbf" points="1132,-129 1132,-148 1300,-148 1300,-129 1132,-129"/>
<text text-anchor="middle" x="1216" y="-136" font-family="Helvetica,sans-Serif" font-size="10.00" fill="#000000">Math/GenVector/Transform3D.h</text>
</g>
<!-- Node11&#45;&gt;Node19 -->
<g id="edge22" class="edge">
<title>Node11&#45;&gt;Node19</title>
<path fill="none" stroke="#191970" d="M1060.0762,-195.9005C1091.7011,-184.2584 1145.1544,-164.5805 1180.5124,-151.5641"/>
<polygon fill="#191970" stroke="#191970" points="1181.797,-154.8209 1189.9722,-148.0817 1179.3787,-148.2519 1181.797,-154.8209"/>
</g>
<!-- Node20 -->
<g id="node21" class="node">
<title>Node20</title>
<polygon fill="none" stroke="#bfbfbf" points="1318.5,-129 1318.5,-148 1491.5,-148 1491.5,-129 1318.5,-129"/>
<text text-anchor="middle" x="1405" y="-136" font-family="Helvetica,sans-Serif" font-size="10.00" fill="#000000">Math/GenVector/Translation3D.h</text>
</g>
<!-- Node11&#45;&gt;Node20 -->
<g id="edge23" class="edge">
<title>Node11&#45;&gt;Node20</title>
<path fill="none" stroke="#191970" d="M1086.7613,-195.9717C1153.974,-183.8335 1270.011,-162.8781 1341.8529,-149.9039"/>
<polygon fill="#191970" stroke="#191970" points="1342.902,-153.2712 1352.1207,-148.0496 1341.6579,-146.3826 1342.902,-153.2712"/>
</g>
<!-- Node21 -->
<g id="node22" class="node">
<title>Node21</title>
<polygon fill="none" stroke="#bfbfbf" points="1510,-123.5 1510,-153.5 1674,-153.5 1674,-123.5 1510,-123.5"/>
<text text-anchor="start" x="1518" y="-141.5" font-family="Helvetica,sans-Serif" font-size="10.00" fill="#000000">Math/GenVector/Displacement</text>
<text text-anchor="middle" x="1592" y="-130.5" font-family="Helvetica,sans-Serif" font-size="10.00" fill="#000000">Vector2D.h</text>
</g>
<!-- Node11&#45;&gt;Node21 -->
<g id="edge24" class="edge">
<title>Node11&#45;&gt;Node21</title>
<path fill="none" stroke="#191970" d="M1095.2028,-199.8552C1182.494,-191.5561 1347.9893,-174.9046 1499.7983,-153.9755"/>
<polygon fill="#191970" stroke="#191970" points="1500.353,-157.4322 1509.777,-152.5908 1499.3908,-150.4986 1500.353,-157.4322"/>
</g>
<!-- Node22 -->
<g id="node23" class="node">
<title>Node22</title>
<polygon fill="none" stroke="#bfbfbf" points="1692.5,-129 1692.5,-148 1881.5,-148 1881.5,-129 1692.5,-129"/>
<text text-anchor="middle" x="1787" y="-136" font-family="Helvetica,sans-Serif" font-size="10.00" fill="#000000">Math/GenVector/PositionVector2D.h</text>
</g>
<!-- Node11&#45;&gt;Node22 -->
<g id="edge25" class="edge">
<title>Node11&#45;&gt;Node22</title>
<path fill="none" stroke="#191970" d="M1095.4289,-202.0377C1210.7997,-195.2218 1467.6654,-178.5608 1683,-154 1694.2926,-152.712 1706.244,-151.1336 1717.8658,-149.4824"/>
<polygon fill="#191970" stroke="#191970" points="1718.5746,-152.9163 1727.9691,-148.018 1717.5704,-145.9887 1718.5746,-152.9163"/>
</g>
<!-- Node23 -->
<g id="node24" class="node">
<title>Node23</title>
<polygon fill="none" stroke="#bfbfbf" points="1899.5,-129 1899.5,-148 1948.5,-148 1948.5,-129 1899.5,-129"/>
<text text-anchor="middle" x="1924" y="-136" font-family="Helvetica,sans-Serif" font-size="10.00" fill="#000000">iosfwd</text>
</g>
<!-- Node11&#45;&gt;Node23 -->
<g id="edge27" class="edge">
<title>Node11&#45;&gt;Node23</title>
<path fill="none" stroke="#191970" d="M1095.0019,-204.7244C1264.5918,-202.1093 1739.116,-191.5502 1890,-154 1892.1994,-153.4526 1894.4317,-152.766 1896.647,-151.9883"/>
<polygon fill="#191970" stroke="#191970" points="1898.151,-155.155 1906.0953,-148.1451 1895.5135,-148.6709 1898.151,-155.155"/>
</g>
<!-- Node24 -->
<g id="node25" class="node">
<title>Node24</title>
<g id="a_node25"><a xlink:href="../../d1/da8/GPUROOTCartesianFwd_8h.html" target="_top" xlink:title="GPUROOTCartesianFwd.h">
<polygon fill="none" stroke="#000000" points="330,-129 330,-148 470,-148 470,-129 330,-129"/>
<text text-anchor="middle" x="400" y="-136" font-family="Helvetica,sans-Serif" font-size="10.00" fill="#000000">GPUROOTCartesianFwd.h</text>
</a>
</g>
</g>
<!-- Node11&#45;&gt;Node24 -->
<g id="edge28" class="edge">
<title>Node11&#45;&gt;Node24</title>
<path fill="none" stroke="#191970" d="M972.7532,-201.5549C870.967,-194.598 660.6872,-178.524 484,-154 475.3555,-152.8001 466.2462,-151.3328 457.3427,-149.7844"/>
<polygon fill="#191970" stroke="#191970" points="457.8731,-146.3238 447.4135,-148.0116 456.6427,-153.2148 457.8731,-146.3238"/>
</g>
<!-- Node13 -->
<g id="node14" class="node">
<title>Node13</title>
<g id="a_node14"><a xlink:href="../../d5/d93/GPUCommonDefSettings_8h.html" target="_top" xlink:title="GPUCommonDefSettings.h">
<polygon fill="none" stroke="#000000" points="298,-.5 298,-19.5 446,-19.5 446,-.5 298,-.5"/>
<text text-anchor="middle" x="372" y="-7.5" font-family="Helvetica,sans-Serif" font-size="10.00" fill="#000000">GPUCommonDefSettings.h</text>
</a>
</g>
</g>
<!-- Node12&#45;&gt;Node13 -->
<g id="edge15" class="edge">
<title>Node12&#45;&gt;Node13</title>
<path fill="none" stroke="#191970" d="M436.9688,-61.8906C424.9893,-52.3227 406.3834,-37.4621 392.1475,-26.0919"/>
<polygon fill="#191970" stroke="#191970" points="393.9447,-23.0479 383.9468,-19.5419 389.5761,-28.5175 393.9447,-23.0479"/>
</g>
<!-- Node14 -->
<g id="node15" class="node">
<title>Node14</title>
<g id="a_node15"><a xlink:href="../../da/d5a/GPUCommonDefAPI_8h.html" target="_top" xlink:title="GPUCommonDefAPI.h">
<polygon fill="none" stroke="#000000" points="464,-.5 464,-19.5 588,-19.5 588,-.5 464,-.5"/>
<text text-anchor="middle" x="526" y="-7.5" font-family="Helvetica,sans-Serif" font-size="10.00" fill="#000000">GPUCommonDefAPI.h</text>
</a>
</g>
</g>
<!-- Node12&#45;&gt;Node14 -->
<g id="edge16" class="edge">
<title>Node12&#45;&gt;Node14</title>
<path fill="none" stroke="#191970" d="M461.0313,-61.8906C473.0107,-52.3227 491.6166,-37.4621 505.8525,-26.0919"/>
<polygon fill="#191970" stroke="#191970" points="508.4239,-28.5175 514.0532,-19.5419 504.0553,-23.0479 508.4239,-28.5175"/>
</g>
<!-- Node15&#45;&gt;Node9 -->
<g id="edge18" class="edge">
<title>Node15&#45;&gt;Node9</title>
<path fill="none" stroke="#191970" d="M235.9619,-128.9005C221.2307,-118.0544 197.0267,-100.2339 179.4908,-87.3229"/>
<polygon fill="#191970" stroke="#191970" points="181.1418,-84.1922 171.0139,-81.0817 176.9915,-89.8291 181.1418,-84.1922"/>
</g>
<!-- Node24&#45;&gt;Node12 -->
<g id="edge29" class="edge">
<title>Node24&#45;&gt;Node12</title>
<path fill="none" stroke="#191970" d="M407.0205,-128.9005C414.5161,-118.6515 426.5663,-102.1747 435.8376,-89.4976"/>
<polygon fill="#191970" stroke="#191970" points="438.9144,-91.2195 441.9925,-81.0817 433.2642,-87.0873 438.9144,-91.2195"/>
</g>
<!-- Node26 -->
<g id="node27" class="node">
<title>Node26</title>
<polygon fill="none" stroke="#bfbfbf" points="1787.5,-196 1787.5,-215 1876.5,-215 1876.5,-196 1787.5,-196"/>
<text text-anchor="middle" x="1832" y="-203" font-family="Helvetica,sans-Serif" font-size="10.00" fill="#000000">TClonesArray.h</text>
</g>
<!-- Node25&#45;&gt;Node26 -->
<g id="edge31" class="edge">
<title>Node25&#45;&gt;Node26</title>
<path fill="none" stroke="#191970" d="M1835.375,-257.3906C1834.8205,-248.8657 1833.9928,-236.1392 1833.2958,-225.4235"/>
<polygon fill="#191970" stroke="#191970" points="1836.7756,-224.9966 1832.6338,-215.2449 1829.7903,-225.451 1836.7756,-224.9966"/>
</g>
<!-- Node27 -->
<g id="node28" class="node">
<title>Node27</title>
<polygon fill="none" stroke="#bfbfbf" points="1894.5,-196 1894.5,-215 1979.5,-215 1979.5,-196 1894.5,-196"/>
<text text-anchor="middle" x="1937" y="-203" font-family="Helvetica,sans-Serif" font-size="10.00" fill="#000000">TXMLEngine.h</text>
</g>
<!-- Node25&#45;&gt;Node27 -->
<g id="edge32" class="edge">
<title>Node25&#45;&gt;Node27</title>
<path fill="none" stroke="#191970" d="M1851.7813,-257.3906C1868.0875,-247.4616 1893.754,-231.833 1912.6614,-220.3201"/>
<polygon fill="#191970" stroke="#191970" points="1914.6087,-223.2322 1921.3296,-215.0419 1910.9681,-217.2533 1914.6087,-223.2322"/>
</g>
<!-- Node28 -->
<g id="node29" class="node">
<title>Node28</title>
<g id="a_node29"><a xlink:href="../../d3/de7/VSegmentation_8h.html" target="_top" xlink:title="Abstract base class for MFT Segmentation description. ">
<polygon fill="none" stroke="#000000" points="2005.5,-129 2005.5,-148 2152.5,-148 2152.5,-129 2005.5,-129"/>
<text text-anchor="middle" x="2079" y="-136" font-family="Helvetica,sans-Serif" font-size="10.00" fill="#000000">MFTBase/VSegmentation.h</text>
</a>
</g>
</g>
<!-- Node25&#45;&gt;Node28 -->
<g id="edge33" class="edge">
<title>Node25&#45;&gt;Node28</title>
<path fill="none" stroke="#191970" d="M1816.1759,-257.3695C1802.6785,-249.6136 1785.8843,-237.3161 1778,-221 1772.0054,-208.5947 1769.1064,-200.5229 1778,-190 1808.9872,-153.3361 1943.6946,-162.1636 1991,-154 1998.825,-152.6496 2007.0391,-151.2195 2015.1738,-149.7957"/>
<polygon fill="#191970" stroke="#191970" points="2015.7805,-153.2428 2025.0254,-148.0677 2014.5711,-146.348 2015.7805,-153.2428"/>
</g>
<!-- Node25&#45;&gt;Node30 -->
<g id="edge36" class="edge">
<title>Node25&#45;&gt;Node30</title>
<path fill="none" stroke="#191970" d="M1873.7021,-257.4581C1916.1772,-246.7082 1985.292,-229.2162 2031.4413,-217.5365"/>
<polygon fill="#191970" stroke="#191970" points="2032.3738,-220.9109 2041.2094,-215.0643 2030.6563,-214.1248 2032.3738,-220.9109"/>
</g>
<!-- Node28&#45;&gt;Node1 -->
<g id="edge35" class="edge">
<title>Node28&#45;&gt;Node1</title>
<path fill="none" stroke="#191970" d="M2064.3859,-128.9005C2047.571,-117.8554 2019.7451,-99.5776 2000.0142,-86.6172"/>
<polygon fill="#191970" stroke="#191970" points="2001.8667,-83.6465 1991.587,-81.0817 1998.0236,-89.4972 2001.8667,-83.6465"/>
</g>
<!-- Node29 -->
<g id="node30" class="node">
<title>Node29</title>
<polygon fill="none" stroke="#bfbfbf" points="2187.5,-62 2187.5,-81 2254.5,-81 2254.5,-62 2187.5,-62"/>
<text text-anchor="middle" x="2221" y="-69" font-family="Helvetica,sans-Serif" font-size="10.00" fill="#000000">TNamed.h</text>
</g>
<!-- Node28&#45;&gt;Node29 -->
<g id="edge34" class="edge">
<title>Node28&#45;&gt;Node29</title>
<path fill="none" stroke="#191970" d="M2099.3451,-128.9005C2123.4923,-117.5072 2163.9504,-98.4178 2191.5245,-85.4075"/>
<polygon fill="#191970" stroke="#191970" points="2193.1423,-88.5142 2200.6926,-81.0817 2190.1552,-82.1835 2193.1423,-88.5142"/>
</g>
<!-- Node30&#45;&gt;Node28 -->
<g id="edge37" class="edge">
<title>Node30&#45;&gt;Node28</title>
<path fill="none" stroke="#191970" d="M2079,-195.9005C2079,-186.149 2079,-170.7597 2079,-158.3695"/>
<polygon fill="#191970" stroke="#191970" points="2082.5001,-158.0816 2079,-148.0817 2075.5001,-158.0817 2082.5001,-158.0816"/>
</g>
<!-- Node32&#45;&gt;Node29 -->
<g id="edge41" class="edge">
<title>Node32&#45;&gt;Node29</title>
<path fill="none" stroke="#191970" d="M2377.3758,-257.4558C2389.8589,-249.5215 2405.7182,-236.9621 2413,-221 2418.7184,-208.465 2419.713,-202.0318 2413,-190 2395.1075,-157.9311 2300.4279,-109.2698 2251.0406,-85.5244"/>
<polygon fill="#191970" stroke="#191970" points="2252.336,-82.2646 2241.8032,-81.1199 2249.3232,-88.5831 2252.336,-82.2646"/>
</g>
<!-- Node33 -->
<g id="node34" class="node">
<title>Node33</title>
<polygon fill="none" stroke="#bfbfbf" points="2316,-196 2316,-215 2404,-215 2404,-196 2316,-196"/>
<text text-anchor="middle" x="2360" y="-203" font-family="Helvetica,sans-Serif" font-size="10.00" fill="#000000">TGeoVolume.h</text>
</g>
<!-- Node32&#45;&gt;Node33 -->
<g id="edge42" class="edge">
<title>Node32&#45;&gt;Node33</title>
<path fill="none" stroke="#191970" d="M2360,-257.3906C2360,-248.8657 2360,-236.1392 2360,-225.4235"/>
<polygon fill="#191970" stroke="#191970" points="2363.5001,-225.2448 2360,-215.2449 2356.5001,-225.2449 2363.5001,-225.2448"/>
</g>
<!-- Node34&#45;&gt;Node29 -->
<g id="edge44" class="edge">
<title>Node34&#45;&gt;Node29</title>
<path fill="none" stroke="#191970" d="M2236.7774,-195.8631C2234.0083,-174.0364 2227.2114,-120.4605 2223.5067,-91.2589"/>
<polygon fill="#191970" stroke="#191970" points="2226.9423,-90.5296 2222.2115,-81.0496 2219.998,-91.4106 2226.9423,-90.5296"/>
</g>
<!-- Node36 -->
<g id="node37" class="node">
<title>Node36</title>
<g id="a_node37"><a xlink:href="../../db/d2c/ConfigurableParam_8h.html" target="_top" xlink:title="CommonUtils/Configurable\lParam.h">
<polygon fill="none" stroke="#000000" points="2482,-123.5 2482,-153.5 2630,-153.5 2630,-123.5 2482,-123.5"/>
<text text-anchor="start" x="2490" y="-141.5" font-family="Helvetica,sans-Serif" font-size="10.00" fill="#000000">CommonUtils/Configurable</text>
<text text-anchor="middle" x="2556" y="-130.5" font-family="Helvetica,sans-Serif" font-size="10.00" fill="#000000">Param.h</text>
</a>
</g>
</g>
<!-- Node35&#45;&gt;Node36 -->
<g id="edge46" class="edge">
<title>Node35&#45;&gt;Node36</title>
<path fill="none" stroke="#191970" d="M2556,-257.3416C2556,-237.6745 2556,-192.4221 2556,-163.7784"/>
<polygon fill="#191970" stroke="#191970" points="2559.5001,-163.7016 2556,-153.7016 2552.5001,-163.7016 2559.5001,-163.7016"/>
</g>
<!-- Node43 -->
<g id="node44" class="node">
<title>Node43</title>
<g id="a_node44"><a xlink:href="../../da/d6b/ConfigurableParamHelper_8h.html" target="_top" xlink:title="CommonUtils/Configurable\lParamHelper.h">
<polygon fill="none" stroke="#000000" points="2624,-190.5 2624,-220.5 2772,-220.5 2772,-190.5 2624,-190.5"/>
<text text-anchor="start" x="2632" y="-208.5" font-family="Helvetica,sans-Serif" font-size="10.00" fill="#000000">CommonUtils/Configurable</text>
<text text-anchor="middle" x="2698" y="-197.5" font-family="Helvetica,sans-Serif" font-size="10.00" fill="#000000">ParamHelper.h</text>
</a>
</g>
</g>
<!-- Node35&#45;&gt;Node43 -->
<g id="edge53" class="edge">
<title>Node35&#45;&gt;Node43</title>
<path fill="none" stroke="#191970" d="M2578.1875,-257.3906C2598.3842,-248.6435 2628.7944,-235.4728 2653.923,-224.5897"/>
<polygon fill="#191970" stroke="#191970" points="2655.4776,-227.7306 2663.2629,-220.5446 2652.6955,-221.3072 2655.4776,-227.7306"/>
</g>
<!-- Node37 -->
<g id="node38" class="node">
<title>Node37</title>
<polygon fill="none" stroke="#bfbfbf" points="2272.5,-62 2272.5,-81 2319.5,-81 2319.5,-62 2272.5,-62"/>
<text text-anchor="middle" x="2296" y="-69" font-family="Helvetica,sans-Serif" font-size="10.00" fill="#000000">vector</text>
</g>
<!-- Node36&#45;&gt;Node37 -->
<g id="edge47" class="edge">
<title>Node36&#45;&gt;Node37</title>
<path fill="none" stroke="#191970" d="M2481.7821,-125.865C2436.8866,-117.192 2378.8722,-104.144 2329,-87 2327.3539,-86.4341 2325.6806,-85.811 2324.0051,-85.1494"/>
<polygon fill="#191970" stroke="#191970" points="2325.1243,-81.8204 2314.556,-81.0708 2322.3502,-88.2473 2325.1243,-81.8204"/>
</g>
<!-- Node38 -->
<g id="node39" class="node">
<title>Node38</title>
<polygon fill="none" stroke="#bfbfbf" points="2338,-62 2338,-81 2376,-81 2376,-62 2338,-62"/>
<text text-anchor="middle" x="2357" y="-69" font-family="Helvetica,sans-Serif" font-size="10.00" fill="#000000">map</text>
</g>
<!-- Node36&#45;&gt;Node38 -->
<g id="edge48" class="edge">
<title>Node36&#45;&gt;Node38</title>
<path fill="none" stroke="#191970" d="M2494.7488,-123.458C2461.6519,-114.4877 2420.425,-101.938 2385,-87 2384.0017,-86.579 2382.993,-86.1322 2381.9813,-85.666"/>
<polygon fill="#191970" stroke="#191970" points="2383.4969,-82.5105 2372.994,-81.1177 2380.336,-88.7562 2383.4969,-82.5105"/>
</g>
<!-- Node39 -->
<g id="node40" class="node">
<title>Node39</title>
<polygon fill="none" stroke="#bfbfbf" points="2394.5,-62 2394.5,-81 2487.5,-81 2487.5,-62 2394.5,-62"/>
<text text-anchor="middle" x="2441" y="-69" font-family="Helvetica,sans-Serif" font-size="10.00" fill="#000000">unordered_map</text>
</g>
<!-- Node36&#45;&gt;Node39 -->
<g id="edge49" class="edge">
<title>Node36&#45;&gt;Node39</title>
<path fill="none" stroke="#191970" d="M2530.1918,-123.4639C2511.0701,-112.3234 2485.1483,-97.2212 2466.1782,-86.1691"/>
<polygon fill="#191970" stroke="#191970" points="2467.8868,-83.1138 2457.4843,-81.1039 2464.3629,-89.1622 2467.8868,-83.1138"/>
</g>
<!-- Node40 -->
<g id="node41" class="node">
<title>Node40</title>
<polygon fill="none" stroke="#bfbfbf" points="2505.5,-56.5 2505.5,-86.5 2618.5,-86.5 2618.5,-56.5 2505.5,-56.5"/>
<text text-anchor="start" x="2513.5" y="-74.5" font-family="Helvetica,sans-Serif" font-size="10.00" fill="#000000">boost/property_tree</text>
<text text-anchor="middle" x="2562" y="-63.5" font-family="Helvetica,sans-Serif" font-size="10.00" fill="#000000">/ptree.hpp</text>
</g>
<!-- Node36&#45;&gt;Node40 -->
<g id="edge50" class="edge">
<title>Node36&#45;&gt;Node40</title>
<path fill="none" stroke="#191970" d="M2557.3615,-123.2967C2558.0673,-115.4156 2558.9476,-105.5857 2559.751,-96.6135"/>
<polygon fill="#191970" stroke="#191970" points="2563.2379,-96.9155 2560.6439,-86.6432 2556.2658,-96.2911 2563.2379,-96.9155"/>
</g>
<!-- Node41 -->
<g id="node42" class="node">
<title>Node41</title>
<polygon fill="none" stroke="#bfbfbf" points="2715.5,-62 2715.5,-81 2772.5,-81 2772.5,-62 2715.5,-62"/>
<text text-anchor="middle" x="2744" y="-69" font-family="Helvetica,sans-Serif" font-size="10.00" fill="#000000">typeinfo</text>
</g>
<!-- Node36&#45;&gt;Node41 -->
<g id="edge51" class="edge">
<title>Node36&#45;&gt;Node41</title>
<path fill="none" stroke="#191970" d="M2602.195,-123.3914C2631.9781,-113.4657 2671.457,-99.963 2706,-87 2707.8511,-86.3053 2709.7474,-85.5791 2711.6574,-84.8364"/>
<polygon fill="#191970" stroke="#191970" points="2713.1741,-88 2721.1748,-81.0545 2710.5891,-81.4948 2713.1741,-88"/>
</g>
<!-- Node42 -->
<g id="node43" class="node">
<title>Node42</title>
<polygon fill="none" stroke="#bfbfbf" points="2637,-62 2637,-81 2697,-81 2697,-62 2637,-62"/>
<text text-anchor="middle" x="2667" y="-69" font-family="Helvetica,sans-Serif" font-size="10.00" fill="#000000">iostream</text>
</g>
<!-- Node36&#45;&gt;Node42 -->
<g id="edge52" class="edge">
<title>Node36&#45;&gt;Node42</title>
<path fill="none" stroke="#191970" d="M2580.9106,-123.4639C2599.2833,-112.3741 2624.16,-97.3584 2642.4474,-86.32"/>
<polygon fill="#191970" stroke="#191970" points="2644.3364,-89.268 2651.089,-81.1039 2640.719,-83.2751 2644.3364,-89.268"/>
</g>
<!-- Node43&#45;&gt;Node36 -->
<g id="edge54" class="edge">
<title>Node43&#45;&gt;Node36</title>
<path fill="none" stroke="#191970" d="M2666.1324,-190.4639C2645.8125,-180.8763 2619.2738,-168.3545 2597.3395,-158.0052"/>
<polygon fill="#191970" stroke="#191970" points="2598.7899,-154.8196 2588.2525,-153.7177 2595.8028,-161.1503 2598.7899,-154.8196"/>
</g>
<!-- Node43&#45;&gt;Node41 -->
<g id="edge57" class="edge">
<title>Node43&#45;&gt;Node41</title>
<path fill="none" stroke="#191970" d="M2703.1874,-190.389C2711.5717,-165.9649 2728.0932,-117.8371 2737.337,-90.9095"/>
<polygon fill="#191970" stroke="#191970" points="2740.7665,-91.6988 2740.703,-81.1042 2734.1458,-89.426 2740.7665,-91.6988"/>
</g>
<!-- Node44 -->
<g id="node45" class="node">
<title>Node44</title>
<polygon fill="none" stroke="#bfbfbf" points="2752.5,-129 2752.5,-148 2809.5,-148 2809.5,-129 2752.5,-129"/>
<text text-anchor="middle" x="2781" y="-136" font-family="Helvetica,sans-Serif" font-size="10.00" fill="#000000">TClass.h</text>
</g>
<!-- Node43&#45;&gt;Node44 -->
<g id="edge55" class="edge">
<title>Node43&#45;&gt;Node44</title>
<path fill="none" stroke="#191970" d="M2716.834,-190.2967C2730.0169,-179.6551 2747.6015,-165.4602 2761.0284,-154.6217"/>
<polygon fill="#191970" stroke="#191970" points="2763.5805,-157.0596 2769.1632,-148.055 2759.1836,-151.6128 2763.5805,-157.0596"/>
</g>
<!-- Node45 -->
<g id="node46" class="node">
<title>Node45</title>
<polygon fill="none" stroke="#bfbfbf" points="2827.5,-129 2827.5,-148 2896.5,-148 2896.5,-129 2827.5,-129"/>
<text text-anchor="middle" x="2862" y="-136" font-family="Helvetica,sans-Serif" font-size="10.00" fill="#000000">type_traits</text>
</g>
<!-- Node43&#45;&gt;Node45 -->
<g id="edge56" class="edge">
<title>Node43&#45;&gt;Node45</title>
<path fill="none" stroke="#191970" d="M2734.8048,-190.4639C2763.0656,-178.9183 2801.742,-163.1176 2829.0046,-151.9798"/>
<polygon fill="#191970" stroke="#191970" points="2830.5583,-155.126 2838.4919,-148.1039 2827.9109,-148.6459 2830.5583,-155.126"/>
</g>
<!-- Node46 -->
<g id="node47" class="node">
<title>Node46</title>
<polygon fill="none" stroke="#bfbfbf" points="2648,-129 2648,-148 2696,-148 2696,-129 2648,-129"/>
<text text-anchor="middle" x="2672" y="-136" font-family="Helvetica,sans-Serif" font-size="10.00" fill="#000000">TFile.h</text>
</g>
<!-- Node43&#45;&gt;Node46 -->
<g id="edge58" class="edge">
<title>Node43&#45;&gt;Node46</title>
<path fill="none" stroke="#191970" d="M2692.1002,-190.2967C2688.3246,-180.5672 2683.3963,-167.8675 2679.3647,-157.4784"/>
<polygon fill="#191970" stroke="#191970" points="2682.5886,-156.1114 2675.7079,-148.055 2676.0628,-158.6439 2682.5886,-156.1114"/>
</g>
</g>
</svg>
        <g id="navigator" transform="translate(0 0)" fill="#404254">
                <rect fill="#f2f5e9" fill-opacity="0.5" stroke="#606060" stroke-width=".5" x="0" y="0" width="60" height="60"/>
                <use id="zoomplus" xlink:href="#zoomPlus" x="17" y="9" onmousedown="handleZoom(evt,'in')"/>
                <use id="zoomminus" xlink:href="#zoomMin" x="42" y="9" onmousedown="handleZoom(evt,'out')"/>
                <use id="reset" xlink:href="#resetDef" x="30" y="36" onmousedown="handleReset()"/>
                <g id="arrowUp" xlink:href="#dirArrow" transform="translate(30 24)" onmousedown="handlePan(0,-1)">
                  <use xlink:href="#rim" fill="#404040">
                        <set attributeName="fill" to="#808080" begin="arrowUp.mouseover" end="arrowUp.mouseout"/>
                  </use>
                  <path fill="none" stroke="white" stroke-width="1.5" d="M0,-3.0v7 M-2.5,-0.5L0,-3.0L2.5,-0.5"/>
                </g>
                <g id="arrowRight" xlink:href="#dirArrow" transform="rotate(90) translate(36 -43)" onmousedown="handlePan(1,0)">
                  <use xlink:href="#rim" fill="#404040">
                        <set attributeName="fill" to="#808080" begin="arrowRight.mouseover" end="arrowRight.mouseout"/>
                  </use>
                  <path fill="none" stroke="white" stroke-width="1.5" d="M0,-3.0v7 M-2.5,-0.5L0,-3.0L2.5,-0.5"/>
                </g>
                <g id="arrowDown" xlink:href="#dirArrow" transform="rotate(180) translate(-30 -48)" onmousedown="handlePan(0,1)">
                  <use xlink:href="#rim" fill="#404040">
                        <set attributeName="fill" to="#808080" begin="arrowDown.mouseover" end="arrowDown.mouseout"/>
                  </use>
                  <path fill="none" stroke="white" stroke-width="1.5" d="M0,-3.0v7 M-2.5,-0.5L0,-3.0L2.5,-0.5"/>
                </g>
                <g id="arrowLeft" xlink:href="#dirArrow" transform="rotate(270) translate(-36 17)" onmousedown="handlePan(-1,0)">
                  <use xlink:href="#rim" fill="#404040">
                        <set attributeName="fill" to="#808080" begin="arrowLeft.mouseover" end="arrowLeft.mouseout"/>
                  </use>
                  <path fill="none" stroke="white" stroke-width="1.5" d="M0,-3.0v7 M-2.5,-0.5L0,-3.0L2.5,-0.5"/>
                </g>
        </g>
        <svg viewBox="0 0 15 15" width="100%" height="30px" preserveAspectRatio="xMaxYMin meet">
         <g id="arrow_out" transform="scale(0.3 0.3)">
          <a xlink:href="Ladder_8cxx__incl_org.svg" target="_base">
           <rect id="button" ry="5" rx="5" y="6" x="6" height="38" width="38"
                fill="#f2f5e9" fill-opacity="0.5" stroke="#606060" stroke-width="1.0"/>
           <path id="arrow"
             d="M 11.500037,31.436501 C 11.940474,20.09759 22.043105,11.32322 32.158766,21.979434 L 37.068811,17.246167 C 37.068811,17.246167 37.088388,32 37.088388,32 L 22.160133,31.978069 C 22.160133,31.978069 26.997745,27.140456 26.997745,27.140456 C 18.528582,18.264221 13.291696,25.230495 11.500037,31.436501 z"
             style="fill:#404040;"/>
          </a>
         </g>
        </svg>
</svg>
