<?xml version="1.0" encoding="UTF-8" standalone="no"?>
<!DOCTYPE svg PUBLIC "-//W3C//DTD SVG 1.1//EN"
 "http://www.w3.org/Graphics/SVG/1.1/DTD/svg11.dtd">
<!-- Generated by graphviz version 2.40.1 (20161225.0304)
 -->
<!-- Title: /home/travis/build/AliceO2Group/AliceO2/DataFormats/common/include/CommonDataFormat/FlatHisto2D.h Pages: 1 -->
<svg width="1445pt" height="339pt"
 viewBox="0.00 0.00 1444.50 339.00" xmlns="http://www.w3.org/2000/svg" xmlns:xlink="http://www.w3.org/1999/xlink">
<g id="graph0" class="graph" transform="scale(1 1) rotate(0) translate(4 335)">
<title>/home/travis/build/AliceO2Group/AliceO2/DataFormats/common/include/CommonDataFormat/FlatHisto2D.h</title>
<!-- Node6 -->
<g id="node1" class="node">
<title>Node6</title>
<polygon fill="#bfbfbf" stroke="#000000" points="576.5,-278.5 576.5,-330.5 767.5,-330.5 767.5,-278.5 576.5,-278.5"/>
<text text-anchor="start" x="584.5" y="-318.5" font-family="Helvetica,sans-Serif" font-size="10.00" fill="#000000">/home/travis/build</text>
<text text-anchor="start" x="584.5" y="-307.5" font-family="Helvetica,sans-Serif" font-size="10.00" fill="#000000">/AliceO2Group/AliceO2</text>
<text text-anchor="start" x="584.5" y="-296.5" font-family="Helvetica,sans-Serif" font-size="10.00" fill="#000000">/DataFormats/common/include</text>
<text text-anchor="middle" x="672" y="-285.5" font-family="Helvetica,sans-Serif" font-size="10.00" fill="#000000">/CommonDataFormat/FlatHisto2D.h</text>
</g>
<!-- Node7 -->
<g id="node2" class="node">
<title>Node7</title>
<g id="a_node2"><a xlink:href="../../d1/db0/FlatHisto2D_8cxx.html" target="_top" xlink:title="/home/travis/build\l/AliceO2Group/AliceO2\l/DataFormats/common/src\l/FlatHisto2D.cxx">
<polygon fill="none" stroke="#000000" points="336,-189.5 336,-241.5 482,-241.5 482,-189.5 336,-189.5"/>
<text text-anchor="start" x="344" y="-229.5" font-family="Helvetica,sans-Serif" font-size="10.00" fill="#000000">/home/travis/build</text>
<text text-anchor="start" x="344" y="-218.5" font-family="Helvetica,sans-Serif" font-size="10.00" fill="#000000">/AliceO2Group/AliceO2</text>
<text text-anchor="start" x="344" y="-207.5" font-family="Helvetica,sans-Serif" font-size="10.00" fill="#000000">/DataFormats/common/src</text>
<text text-anchor="middle" x="409" y="-196.5" font-family="Helvetica,sans-Serif" font-size="10.00" fill="#000000">/FlatHisto2D.cxx</text>
</a>
</g>
</g>
<!-- Node6&#45;&gt;Node7 -->
<g id="edge1" class="edge">
<title>Node6&#45;&gt;Node7</title>
<path fill="none" stroke="#191970" d="M585.1213,-275.1C551.7448,-263.8053 514.0174,-251.0382 482.0671,-240.2261"/>
<polygon fill="#191970" stroke="#191970" points="584.2741,-278.5082 594.8684,-278.3984 586.518,-271.8776 584.2741,-278.5082"/>
</g>
<!-- Node8 -->
<g id="node3" class="node">
<title>Node8</title>
<g id="a_node3"><a xlink:href="../../d2/dd7/testFlatHisto_8cxx.html" target="_top" xlink:title="/home/travis/build\l/AliceO2Group/AliceO2\l/DataFormats/common/test\l/testFlatHisto.cxx">
<polygon fill="none" stroke="#000000" points="500,-189.5 500,-241.5 650,-241.5 650,-189.5 500,-189.5"/>
<text text-anchor="start" x="508" y="-229.5" font-family="Helvetica,sans-Serif" font-size="10.00" fill="#000000">/home/travis/build</text>
<text text-anchor="start" x="508" y="-218.5" font-family="Helvetica,sans-Serif" font-size="10.00" fill="#000000">/AliceO2Group/AliceO2</text>
<text text-anchor="start" x="508" y="-207.5" font-family="Helvetica,sans-Serif" font-size="10.00" fill="#000000">/DataFormats/common/test</text>
<text text-anchor="middle" x="575" y="-196.5" font-family="Helvetica,sans-Serif" font-size="10.00" fill="#000000">/testFlatHisto.cxx</text>
</a>
</g>
</g>
<!-- Node6&#45;&gt;Node8 -->
<g id="edge2" class="edge">
<title>Node6&#45;&gt;Node8</title>
<path fill="none" stroke="#191970" d="M635.8042,-271.2894C625.0901,-261.459 613.5183,-250.8415 603.3743,-241.5341"/>
<polygon fill="#191970" stroke="#191970" points="633.6868,-274.0967 643.4214,-278.2784 638.4193,-268.9388 633.6868,-274.0967"/>
</g>
<!-- Node9 -->
<g id="node4" class="node">
<title>Node9</title>
<g id="a_node4"><a xlink:href="../../d3/dac/MatchTPCITS_8h.html" target="_top" xlink:title="Class to perform TPC ITS matching. ">
<polygon fill="none" stroke="#000000" points="667.5,-189.5 667.5,-241.5 872.5,-241.5 872.5,-189.5 667.5,-189.5"/>
<text text-anchor="start" x="675.5" y="-229.5" font-family="Helvetica,sans-Serif" font-size="10.00" fill="#000000">/home/travis/build</text>
<text text-anchor="start" x="675.5" y="-218.5" font-family="Helvetica,sans-Serif" font-size="10.00" fill="#000000">/AliceO2Group/AliceO2</text>
<text text-anchor="start" x="675.5" y="-207.5" font-family="Helvetica,sans-Serif" font-size="10.00" fill="#000000">/Detectors/GlobalTracking</text>
<text text-anchor="middle" x="770" y="-196.5" font-family="Helvetica,sans-Serif" font-size="10.00" fill="#000000">/include/GlobalTracking/MatchTPCITS.h</text>
</a>
</g>
</g>
<!-- Node6&#45;&gt;Node9 -->
<g id="edge3" class="edge">
<title>Node6&#45;&gt;Node9</title>
<path fill="none" stroke="#191970" d="M708.5689,-271.2894C719.3935,-261.459 731.0846,-250.8415 741.3332,-241.5341"/>
<polygon fill="#191970" stroke="#191970" points="705.923,-268.9644 700.8732,-278.2784 710.6291,-274.1464 705.923,-268.9644"/>
</g>
<!-- Node19 -->
<g id="node14" class="node">
<title>Node19</title>
<g id="a_node14"><a xlink:href="../../d6/d73/TPCITSMatchingSpec_8cxx.html" target="_top" xlink:title="/home/travis/build\l/AliceO2Group/AliceO2\l/Detectors/GlobalTrackingWorkflow\l/src/TPCITSMatchingSpec.cxx">
<polygon fill="none" stroke="#000000" points="1249.5,-.5 1249.5,-52.5 1436.5,-52.5 1436.5,-.5 1249.5,-.5"/>
<text text-anchor="start" x="1257.5" y="-40.5" font-family="Helvetica,sans-Serif" font-size="10.00" fill="#000000">/home/travis/build</text>
<text text-anchor="start" x="1257.5" y="-29.5" font-family="Helvetica,sans-Serif" font-size="10.00" fill="#000000">/AliceO2Group/AliceO2</text>
<text text-anchor="start" x="1257.5" y="-18.5" font-family="Helvetica,sans-Serif" font-size="10.00" fill="#000000">/Detectors/GlobalTrackingWorkflow</text>
<text text-anchor="middle" x="1343" y="-7.5" font-family="Helvetica,sans-Serif" font-size="10.00" fill="#000000">/src/TPCITSMatchingSpec.cxx</text>
</a>
</g>
</g>
<!-- Node6&#45;&gt;Node19 -->
<g id="edge15" class="edge">
<title>Node6&#45;&gt;Node19</title>
<path fill="none" stroke="#191970" d="M774.5292,-275.5549C808.5854,-265.4852 846.5868,-253.7553 881,-242 985.1162,-206.4346 1012.1948,-199.3034 1112,-153 1179.1934,-121.8265 1253.8495,-79.4498 1299.6156,-52.5325"/>
<polygon fill="#191970" stroke="#191970" points="773.1716,-272.3059 764.5665,-278.4868 775.1478,-279.0212 773.1716,-272.3059"/>
</g>
<!-- Node10 -->
<g id="node5" class="node">
<title>Node10</title>
<g id="a_node5"><a xlink:href="../../d0/d74/MatchTOF_8h.html" target="_top" xlink:title="Class to perform TOF matching to global tracks. ">
<polygon fill="none" stroke="#000000" points="365,-95 365,-147 553,-147 553,-95 365,-95"/>
<text text-anchor="start" x="373" y="-135" font-family="Helvetica,sans-Serif" font-size="10.00" fill="#000000">/home/travis/build</text>
<text text-anchor="start" x="373" y="-124" font-family="Helvetica,sans-Serif" font-size="10.00" fill="#000000">/AliceO2Group/AliceO2</text>
<text text-anchor="start" x="373" y="-113" font-family="Helvetica,sans-Serif" font-size="10.00" fill="#000000">/Detectors/GlobalTracking</text>
<text text-anchor="middle" x="459" y="-102" font-family="Helvetica,sans-Serif" font-size="10.00" fill="#000000">/include/GlobalTracking/MatchTOF.h</text>
</a>
</g>
</g>
<!-- Node9&#45;&gt;Node10 -->
<g id="edge4" class="edge">
<title>Node9&#45;&gt;Node10</title>
<path fill="none" stroke="#191970" d="M674.3833,-186.446C633.0229,-173.8783 584.991,-159.2835 544.7949,-147.0695"/>
<polygon fill="#191970" stroke="#191970" points="673.609,-189.8687 684.1946,-189.4273 675.6442,-183.1711 673.609,-189.8687"/>
</g>
<!-- Node12 -->
<g id="node7" class="node">
<title>Node12</title>
<g id="a_node7"><a xlink:href="../../db/d6a/MatchTOF_8cxx.html" target="_top" xlink:title="/home/travis/build\l/AliceO2Group/AliceO2\l/Detectors/GlobalTracking\l/src/MatchTOF.cxx">
<polygon fill="none" stroke="#000000" points="0,-.5 0,-52.5 142,-52.5 142,-.5 0,-.5"/>
<text text-anchor="start" x="8" y="-40.5" font-family="Helvetica,sans-Serif" font-size="10.00" fill="#000000">/home/travis/build</text>
<text text-anchor="start" x="8" y="-29.5" font-family="Helvetica,sans-Serif" font-size="10.00" fill="#000000">/AliceO2Group/AliceO2</text>
<text text-anchor="start" x="8" y="-18.5" font-family="Helvetica,sans-Serif" font-size="10.00" fill="#000000">/Detectors/GlobalTracking</text>
<text text-anchor="middle" x="71" y="-7.5" font-family="Helvetica,sans-Serif" font-size="10.00" fill="#000000">/src/MatchTOF.cxx</text>
</a>
</g>
</g>
<!-- Node9&#45;&gt;Node12 -->
<g id="edge9" class="edge">
<title>Node9&#45;&gt;Node12</title>
<path fill="none" stroke="#191970" d="M657.0766,-188.765C523.5431,-166.3358 483.5802,-188.0338 356,-153 268.301,-128.9176 172.9677,-81.9644 117.7889,-52.5297"/>
<polygon fill="#191970" stroke="#191970" points="656.8295,-192.2742 667.2803,-190.5333 658.0249,-185.377 656.8295,-192.2742"/>
</g>
<!-- Node15 -->
<g id="node10" class="node">
<title>Node15</title>
<g id="a_node10"><a xlink:href="../../dc/d59/MatchTPCITS_8cxx.html" target="_top" xlink:title="/home/travis/build\l/AliceO2Group/AliceO2\l/Detectors/GlobalTracking\l/src/MatchTPCITS.cxx">
<polygon fill="none" stroke="#000000" points="699,-95 699,-147 841,-147 841,-95 699,-95"/>
<text text-anchor="start" x="707" y="-135" font-family="Helvetica,sans-Serif" font-size="10.00" fill="#000000">/home/travis/build</text>
<text text-anchor="start" x="707" y="-124" font-family="Helvetica,sans-Serif" font-size="10.00" fill="#000000">/AliceO2Group/AliceO2</text>
<text text-anchor="start" x="707" y="-113" font-family="Helvetica,sans-Serif" font-size="10.00" fill="#000000">/Detectors/GlobalTracking</text>
<text text-anchor="middle" x="770" y="-102" font-family="Helvetica,sans-Serif" font-size="10.00" fill="#000000">/src/MatchTPCITS.cxx</text>
</a>
</g>
</g>
<!-- Node9&#45;&gt;Node15 -->
<g id="edge10" class="edge">
<title>Node9&#45;&gt;Node15</title>
<path fill="none" stroke="#191970" d="M770,-179.1645C770,-168.5577 770,-157.1746 770,-147.3157"/>
<polygon fill="#191970" stroke="#191970" points="766.5001,-179.4273 770,-189.4273 773.5001,-179.4273 766.5001,-179.4273"/>
</g>
<!-- Node16 -->
<g id="node11" class="node">
<title>Node16</title>
<g id="a_node11"><a xlink:href="../../da/d20/TPCITSMatchingSpec_8h.html" target="_top" xlink:title="/home/travis/build\l/AliceO2Group/AliceO2\l/Detectors/GlobalTrackingWorkflow\l/include/GlobalTrackingWorkflow\l/TPCITSMatchingSpec.h">
<polygon fill="none" stroke="#000000" points="916.5,-89.5 916.5,-152.5 1103.5,-152.5 1103.5,-89.5 916.5,-89.5"/>
<text text-anchor="start" x="924.5" y="-140.5" font-family="Helvetica,sans-Serif" font-size="10.00" fill="#000000">/home/travis/build</text>
<text text-anchor="start" x="924.5" y="-129.5" font-family="Helvetica,sans-Serif" font-size="10.00" fill="#000000">/AliceO2Group/AliceO2</text>
<text text-anchor="start" x="924.5" y="-118.5" font-family="Helvetica,sans-Serif" font-size="10.00" fill="#000000">/Detectors/GlobalTrackingWorkflow</text>
<text text-anchor="start" x="924.5" y="-107.5" font-family="Helvetica,sans-Serif" font-size="10.00" fill="#000000">/include/GlobalTrackingWorkflow</text>
<text text-anchor="middle" x="1010" y="-96.5" font-family="Helvetica,sans-Serif" font-size="10.00" fill="#000000">/TPCITSMatchingSpec.h</text>
</a>
</g>
</g>
<!-- Node9&#45;&gt;Node16 -->
<g id="edge11" class="edge">
<title>Node9&#45;&gt;Node16</title>
<path fill="none" stroke="#191970" d="M845.5571,-185.7494C872.4028,-175.1789 902.7042,-163.2477 929.9154,-152.5333"/>
<polygon fill="#191970" stroke="#191970" points="844.2387,-182.5069 836.2164,-189.4273 846.8034,-189.0202 844.2387,-182.5069"/>
</g>
<!-- Node11 -->
<g id="node6" class="node">
<title>Node11</title>
<g id="a_node6"><a xlink:href="../../d6/dc9/AODProducerWorkflowSpec_8cxx.html" target="_top" xlink:title="/home/travis/build\l/AliceO2Group/AliceO2\l/Detectors/AOD/src/AODProducer\lWorkflowSpec.cxx">
<polygon fill="none" stroke="#000000" points="160,-.5 160,-52.5 336,-52.5 336,-.5 160,-.5"/>
<text text-anchor="start" x="168" y="-40.5" font-family="Helvetica,sans-Serif" font-size="10.00" fill="#000000">/home/travis/build</text>
<text text-anchor="start" x="168" y="-29.5" font-family="Helvetica,sans-Serif" font-size="10.00" fill="#000000">/AliceO2Group/AliceO2</text>
<text text-anchor="start" x="168" y="-18.5" font-family="Helvetica,sans-Serif" font-size="10.00" fill="#000000">/Detectors/AOD/src/AODProducer</text>
<text text-anchor="middle" x="248" y="-7.5" font-family="Helvetica,sans-Serif" font-size="10.00" fill="#000000">WorkflowSpec.cxx</text>
</a>
</g>
</g>
<!-- Node10&#45;&gt;Node11 -->
<g id="edge5" class="edge">
<title>Node10&#45;&gt;Node11</title>
<path fill="none" stroke="#191970" d="M391.6495,-90.8359C364.2247,-78.5532 332.8252,-64.4904 306.3912,-52.6515"/>
<polygon fill="#191970" stroke="#191970" points="390.2277,-94.0341 400.7848,-94.9273 393.0889,-87.6455 390.2277,-94.0341"/>
</g>
<!-- Node10&#45;&gt;Node12 -->
<g id="edge6" class="edge">
<title>Node10&#45;&gt;Node12</title>
<path fill="none" stroke="#191970" d="M354.8487,-100.7783C294.8667,-88.4428 218.2668,-71.5141 151,-53 148.1787,-52.2235 145.3099,-51.4066 142.4184,-50.5603"/>
<polygon fill="#191970" stroke="#191970" points="354.2087,-104.2198 364.7073,-102.7952 355.6118,-97.3618 354.2087,-104.2198"/>
</g>
<!-- Node13 -->
<g id="node8" class="node">
<title>Node13</title>
<g id="a_node8"><a xlink:href="../../d8/d84/RecoWorkflowSpec_8cxx.html" target="_top" xlink:title="/home/travis/build\l/AliceO2Group/AliceO2\l/Detectors/GlobalTrackingWorkflow\l/tofworkflow/src/RecoWorkflowSpec.cxx">
<polygon fill="none" stroke="#000000" points="354.5,-.5 354.5,-52.5 563.5,-52.5 563.5,-.5 354.5,-.5"/>
<text text-anchor="start" x="362.5" y="-40.5" font-family="Helvetica,sans-Serif" font-size="10.00" fill="#000000">/home/travis/build</text>
<text text-anchor="start" x="362.5" y="-29.5" font-family="Helvetica,sans-Serif" font-size="10.00" fill="#000000">/AliceO2Group/AliceO2</text>
<text text-anchor="start" x="362.5" y="-18.5" font-family="Helvetica,sans-Serif" font-size="10.00" fill="#000000">/Detectors/GlobalTrackingWorkflow</text>
<text text-anchor="middle" x="459" y="-7.5" font-family="Helvetica,sans-Serif" font-size="10.00" fill="#000000">/tofworkflow/src/RecoWorkflowSpec.cxx</text>
</a>
</g>
</g>
<!-- Node10&#45;&gt;Node13 -->
<g id="edge7" class="edge">
<title>Node10&#45;&gt;Node13</title>
<path fill="none" stroke="#191970" d="M459,-84.6645C459,-74.0577 459,-62.6746 459,-52.8157"/>
<polygon fill="#191970" stroke="#191970" points="455.5001,-84.9273 459,-94.9273 462.5001,-84.9273 455.5001,-84.9273"/>
</g>
<!-- Node14 -->
<g id="node9" class="node">
<title>Node14</title>
<g id="a_node9"><a xlink:href="../../d4/d76/RecoWorkflowWithTPCSpec_8cxx.html" target="_top" xlink:title="/home/travis/build\l/AliceO2Group/AliceO2\l/Detectors/GlobalTrackingWorkflow\l/tofworkflow/src/RecoWorkflowWithTPCSpec.cxx">
<polygon fill="none" stroke="#000000" points="581.5,-.5 581.5,-52.5 832.5,-52.5 832.5,-.5 581.5,-.5"/>
<text text-anchor="start" x="589.5" y="-40.5" font-family="Helvetica,sans-Serif" font-size="10.00" fill="#000000">/home/travis/build</text>
<text text-anchor="start" x="589.5" y="-29.5" font-family="Helvetica,sans-Serif" font-size="10.00" fill="#000000">/AliceO2Group/AliceO2</text>
<text text-anchor="start" x="589.5" y="-18.5" font-family="Helvetica,sans-Serif" font-size="10.00" fill="#000000">/Detectors/GlobalTrackingWorkflow</text>
<text text-anchor="middle" x="707" y="-7.5" font-family="Helvetica,sans-Serif" font-size="10.00" fill="#000000">/tofworkflow/src/RecoWorkflowWithTPCSpec.cxx</text>
</a>
</g>
</g>
<!-- Node10&#45;&gt;Node14 -->
<g id="edge8" class="edge">
<title>Node10&#45;&gt;Node14</title>
<path fill="none" stroke="#191970" d="M536.9019,-91.3156C569.431,-78.9205 606.895,-64.6449 638.3696,-52.6515"/>
<polygon fill="#191970" stroke="#191970" points="535.5219,-88.0959 527.4236,-94.9273 538.0144,-94.6371 535.5219,-88.0959"/>
</g>
<!-- Node17 -->
<g id="node12" class="node">
<title>Node17</title>
<g id="a_node12"><a xlink:href="../../df/de7/AODProducerWorkflow_8cxx.html" target="_top" xlink:title="/home/travis/build\l/AliceO2Group/AliceO2\l/Detectors/AOD/src/AODProducer\lWorkflow.cxx">
<polygon fill="none" stroke="#000000" points="851,-.5 851,-52.5 1027,-52.5 1027,-.5 851,-.5"/>
<text text-anchor="start" x="859" y="-40.5" font-family="Helvetica,sans-Serif" font-size="10.00" fill="#000000">/home/travis/build</text>
<text text-anchor="start" x="859" y="-29.5" font-family="Helvetica,sans-Serif" font-size="10.00" fill="#000000">/AliceO2Group/AliceO2</text>
<text text-anchor="start" x="859" y="-18.5" font-family="Helvetica,sans-Serif" font-size="10.00" fill="#000000">/Detectors/AOD/src/AODProducer</text>
<text text-anchor="middle" x="939" y="-7.5" font-family="Helvetica,sans-Serif" font-size="10.00" fill="#000000">Workflow.cxx</text>
</a>
</g>
</g>
<!-- Node16&#45;&gt;Node17 -->
<g id="edge12" class="edge">
<title>Node16&#45;&gt;Node17</title>
<path fill="none" stroke="#191970" d="M979.9415,-80.9926C972.7401,-71.4075 965.2326,-61.4152 958.6427,-52.6442"/>
<polygon fill="#191970" stroke="#191970" points="977.3555,-83.3774 986.1605,-89.27 982.9519,-79.1727 977.3555,-83.3774"/>
</g>
<!-- Node18 -->
<g id="node13" class="node">
<title>Node18</title>
<g id="a_node13"><a xlink:href="../../d5/db4/MatchTPCITSWorkflow_8cxx.html" target="_top" xlink:title="/home/travis/build\l/AliceO2Group/AliceO2\l/Detectors/GlobalTrackingWorkflow\l/src/MatchTPCITSWorkflow.cxx">
<polygon fill="none" stroke="#000000" points="1044.5,-.5 1044.5,-52.5 1231.5,-52.5 1231.5,-.5 1044.5,-.5"/>
<text text-anchor="start" x="1052.5" y="-40.5" font-family="Helvetica,sans-Serif" font-size="10.00" fill="#000000">/home/travis/build</text>
<text text-anchor="start" x="1052.5" y="-29.5" font-family="Helvetica,sans-Serif" font-size="10.00" fill="#000000">/AliceO2Group/AliceO2</text>
<text text-anchor="start" x="1052.5" y="-18.5" font-family="Helvetica,sans-Serif" font-size="10.00" fill="#000000">/Detectors/GlobalTrackingWorkflow</text>
<text text-anchor="middle" x="1138" y="-7.5" font-family="Helvetica,sans-Serif" font-size="10.00" fill="#000000">/src/MatchTPCITSWorkflow.cxx</text>
</a>
</g>
</g>
<!-- Node16&#45;&gt;Node18 -->
<g id="edge13" class="edge">
<title>Node16&#45;&gt;Node18</title>
<path fill="none" stroke="#191970" d="M1061.0546,-83.3074C1074.9746,-73.0304 1089.7474,-62.124 1102.5878,-52.6442"/>
<polygon fill="#191970" stroke="#191970" points="1058.9444,-80.5147 1052.9782,-89.27 1063.1021,-86.1462 1058.9444,-80.5147"/>
</g>
<!-- Node16&#45;&gt;Node19 -->
<g id="edge14" class="edge">
<title>Node16&#45;&gt;Node19</title>
<path fill="none" stroke="#191970" d="M1113.5155,-91.624C1157.5682,-79.1225 1208.5205,-64.6631 1251.2075,-52.5492"/>
<polygon fill="#191970" stroke="#191970" points="1112.3098,-88.3278 1103.6452,-94.425 1114.2209,-95.0619 1112.3098,-88.3278"/>
</g>
</g>
</svg>
