<?xml version="1.0" encoding="UTF-8" standalone="no"?>
<!DOCTYPE svg PUBLIC "-//W3C//DTD SVG 1.1//EN"
 "http://www.w3.org/Graphics/SVG/1.1/DTD/svg11.dtd">
<!-- Generated by graphviz version 2.40.1 (20161225.0304)
 -->
<!-- Title: GPUCA_NAMESPACE::gpu::GPUParamRTC Pages: 1 -->
<svg width="971pt" height="927pt"
 viewBox="0.00 0.00 970.50 927.00" xmlns="http://www.w3.org/2000/svg" xmlns:xlink="http://www.w3.org/1999/xlink">
<g id="graph0" class="graph" transform="scale(1 1) rotate(0) translate(4 923)">
<title>GPUCA_NAMESPACE::gpu::GPUParamRTC</title>
<!-- Node3 -->
<g id="node1" class="node">
<title>Node3</title>
<polygon fill="#bfbfbf" stroke="#000000" points="275.5,-.5 275.5,-79.5 415.5,-79.5 415.5,-.5 275.5,-.5"/>
<text text-anchor="start" x="283.5" y="-67.5" font-family="Helvetica,sans-Serif" font-size="10.00" fill="#000000">GPUCA_NAMESPACE::gpu</text>
<text text-anchor="middle" x="345.5" y="-56.5" font-family="Helvetica,sans-Serif" font-size="10.00" fill="#000000">::GPUParamRTC</text>
<polyline fill="none" stroke="#000000" points="275.5,-49.5 415.5,-49.5 "/>
<text text-anchor="middle" x="345.5" y="-37.5" font-family="Helvetica,sans-Serif" font-size="10.00" fill="#000000"> </text>
<polyline fill="none" stroke="#000000" points="275.5,-30.5 415.5,-30.5 "/>
<text text-anchor="start" x="283.5" y="-18.5" font-family="Helvetica,sans-Serif" font-size="10.00" fill="#000000">+ setFrom()</text>
<text text-anchor="start" x="283.5" y="-7.5" font-family="Helvetica,sans-Serif" font-size="10.00" fill="#000000">+ generateRTCCode()</text>
</g>
<!-- Node4 -->
<g id="node2" class="node">
<title>Node4</title>
<g id="a_node2"><a xlink:href="../../dd/dee/structGPUCA__NAMESPACE_1_1gpu_1_1internal_1_1GPUParam__t.html" target="_top" xlink:title="{GPUCA_NAMESPACE::gpu\l::internal::GPUParam\l_t\&lt; gpu_rtc::GPUSettingsRec,\l gpu_rtc::GPUSettingsParam \&gt;\n||}">
<polygon fill="none" stroke="#000000" points="263.5,-117.5 263.5,-207.5 427.5,-207.5 427.5,-117.5 263.5,-117.5"/>
<text text-anchor="start" x="271.5" y="-195.5" font-family="Helvetica,sans-Serif" font-size="10.00" fill="#000000">GPUCA_NAMESPACE::gpu</text>
<text text-anchor="start" x="271.5" y="-184.5" font-family="Helvetica,sans-Serif" font-size="10.00" fill="#000000">::internal::GPUParam</text>
<text text-anchor="start" x="271.5" y="-173.5" font-family="Helvetica,sans-Serif" font-size="10.00" fill="#000000">_t&lt; gpu_rtc::GPUSettingsRec,</text>
<text text-anchor="middle" x="345.5" y="-162.5" font-family="Helvetica,sans-Serif" font-size="10.00" fill="#000000"> gpu_rtc::GPUSettingsParam &gt;</text>
<polyline fill="none" stroke="#000000" points="263.5,-155.5 427.5,-155.5 "/>
<text text-anchor="middle" x="345.5" y="-143.5" font-family="Helvetica,sans-Serif" font-size="10.00" fill="#000000"> </text>
<polyline fill="none" stroke="#000000" points="263.5,-136.5 427.5,-136.5 "/>
<text text-anchor="middle" x="345.5" y="-124.5" font-family="Helvetica,sans-Serif" font-size="10.00" fill="#000000"> </text>
</a>
</g>
</g>
<!-- Node4&#45;&gt;Node3 -->
<g id="edge1" class="edge">
<title>Node4&#45;&gt;Node3</title>
<path fill="none" stroke="#191970" d="M345.5,-107.0079C345.5,-97.8464 345.5,-88.5116 345.5,-79.8331"/>
<polygon fill="none" stroke="#191970" points="342.0001,-107.2335 345.5,-117.2336 349.0001,-107.2336 342.0001,-107.2335"/>
</g>
<!-- Node5 -->
<g id="node3" class="node">
<title>Node5</title>
<g id="a_node3"><a xlink:href="../../d1/d1b/classgpu__rtc_1_1GPUSettingsRec.html" target="_top" xlink:title="{GPUSettingsRec\n||}">
<polygon fill="none" stroke="#000000" points="0,-277.5 0,-334.5 95,-334.5 95,-277.5 0,-277.5"/>
<text text-anchor="middle" x="47.5" y="-322.5" font-family="Helvetica,sans-Serif" font-size="10.00" fill="#000000">GPUSettingsRec</text>
<polyline fill="none" stroke="#000000" points="0,-315.5 95,-315.5 "/>
<text text-anchor="middle" x="47.5" y="-303.5" font-family="Helvetica,sans-Serif" font-size="10.00" fill="#000000"> </text>
<polyline fill="none" stroke="#000000" points="0,-296.5 95,-296.5 "/>
<text text-anchor="middle" x="47.5" y="-284.5" font-family="Helvetica,sans-Serif" font-size="10.00" fill="#000000"> </text>
</a>
</g>
</g>
<!-- Node5&#45;&gt;Node4 -->
<g id="edge2" class="edge">
<title>Node5&#45;&gt;Node4</title>
<path fill="none" stroke="#404040" d="M82.4636,-277.2898C103.9828,-260.6522 132.6879,-240.2449 160.5,-226 189.0496,-211.3774 221.7184,-198.9002 251.5795,-188.9762"/>
<polygon fill="none" stroke="#404040" points="251.8954,-188.8734 256.3631,-183.213 263.3064,-185.16 258.8387,-190.8204 251.8954,-188.8734"/>
<text text-anchor="middle" x="174" y="-234.5" font-family="Helvetica,sans-Serif" font-size="10.00" fill="#000000"> +rec</text>
</g>
<!-- Node6 -->
<g id="node4" class="node">
<title>Node6</title>
<g id="a_node4"><a xlink:href="../../d8/d49/classgpu__rtc_1_1GPUSettingsParam.html" target="_top" xlink:title="{GPUSettingsParam\n||}">
<polygon fill="none" stroke="#000000" points="113.5,-277.5 113.5,-334.5 221.5,-334.5 221.5,-277.5 113.5,-277.5"/>
<text text-anchor="middle" x="167.5" y="-322.5" font-family="Helvetica,sans-Serif" font-size="10.00" fill="#000000">GPUSettingsParam</text>
<polyline fill="none" stroke="#000000" points="113.5,-315.5 221.5,-315.5 "/>
<text text-anchor="middle" x="167.5" y="-303.5" font-family="Helvetica,sans-Serif" font-size="10.00" fill="#000000"> </text>
<polyline fill="none" stroke="#000000" points="113.5,-296.5 221.5,-296.5 "/>
<text text-anchor="middle" x="167.5" y="-284.5" font-family="Helvetica,sans-Serif" font-size="10.00" fill="#000000"> </text>
</a>
</g>
</g>
<!-- Node6&#45;&gt;Node4 -->
<g id="edge3" class="edge">
<title>Node6&#45;&gt;Node4</title>
<path fill="none" stroke="#404040" d="M176.491,-277.1418C182.9082,-260.4516 192.9965,-240.0411 207.5,-226 220.2781,-213.6292 235.9004,-203.3695 251.9817,-194.9671"/>
<polygon fill="none" stroke="#404040" points="252.4008,-194.76 256.0077,-188.5158 263.1589,-189.4437 259.552,-195.6879 252.4008,-194.76"/>
<text text-anchor="middle" x="221.5" y="-234.5" font-family="Helvetica,sans-Serif" font-size="10.00" fill="#000000"> +par</text>
</g>
<!-- Node7 -->
<g id="node5" class="node">
<title>Node7</title>
<g id="a_node5"><a xlink:href="../../d4/dc3/classfloat.html" target="_top" xlink:title="{float\n||}">
<polygon fill="none" stroke="#000000" points="500.5,-861.5 500.5,-918.5 538.5,-918.5 538.5,-861.5 500.5,-861.5"/>
<text text-anchor="middle" x="519.5" y="-906.5" font-family="Helvetica,sans-Serif" font-size="10.00" fill="#000000">float</text>
<polyline fill="none" stroke="#000000" points="500.5,-899.5 538.5,-899.5 "/>
<text text-anchor="middle" x="519.5" y="-887.5" font-family="Helvetica,sans-Serif" font-size="10.00" fill="#000000"> </text>
<polyline fill="none" stroke="#000000" points="500.5,-880.5 538.5,-880.5 "/>
<text text-anchor="middle" x="519.5" y="-868.5" font-family="Helvetica,sans-Serif" font-size="10.00" fill="#000000"> </text>
</a>
</g>
</g>
<!-- Node7&#45;&gt;Node4 -->
<g id="edge4" class="edge">
<title>Node7&#45;&gt;Node4</title>
<path fill="none" stroke="#404040" d="M500.3888,-886.3814C450.4801,-875.7542 316.7578,-839.4339 268.5,-748 175.9457,-572.6378 267.1881,-328.0612 317.3408,-218.9426"/>
<polygon fill="none" stroke="#404040" points="317.4298,-218.7515 316.3401,-211.6232 322.501,-207.8757 323.5907,-215.004 317.4298,-218.7515"/>
<text text-anchor="middle" x="296.5" y="-378" font-family="Helvetica,sans-Serif" font-size="10.00" fill="#000000"> #ParamS0Par</text>
<text text-anchor="middle" x="296.5" y="-367" font-family="Helvetica,sans-Serif" font-size="10.00" fill="#000000">#ParamRMS0</text>
</g>
<!-- Node8 -->
<g id="node6" class="node">
<title>Node8</title>
<g id="a_node6"><a xlink:href="../../dc/dc1/structGPUCA__NAMESPACE_1_1gpu_1_1GPUParamSlice.html" target="_top" xlink:title="{GPUCA_NAMESPACE::gpu\l::GPUParamSlice\n||}">
<polygon fill="none" stroke="#000000" points="277.5,-542 277.5,-610 417.5,-610 417.5,-542 277.5,-542"/>
<text text-anchor="start" x="285.5" y="-598" font-family="Helvetica,sans-Serif" font-size="10.00" fill="#000000">GPUCA_NAMESPACE::gpu</text>
<text text-anchor="middle" x="347.5" y="-587" font-family="Helvetica,sans-Serif" font-size="10.00" fill="#000000">::GPUParamSlice</text>
<polyline fill="none" stroke="#000000" points="277.5,-580 417.5,-580 "/>
<text text-anchor="middle" x="347.5" y="-568" font-family="Helvetica,sans-Serif" font-size="10.00" fill="#000000"> </text>
<polyline fill="none" stroke="#000000" points="277.5,-561 417.5,-561 "/>
<text text-anchor="middle" x="347.5" y="-549" font-family="Helvetica,sans-Serif" font-size="10.00" fill="#000000"> </text>
</a>
</g>
</g>
<!-- Node7&#45;&gt;Node8 -->
<g id="edge6" class="edge">
<title>Node7&#45;&gt;Node8</title>
<path fill="none" stroke="#404040" d="M500.4654,-879.8822C486.4116,-871.5837 467.6847,-858.6715 455.5,-843 402.8873,-775.3312 372.3095,-678.5675 357.8476,-622.0156"/>
<polygon fill="none" stroke="#404040" points="357.8164,-621.8897 352.4873,-617.0315 354.9221,-610.2439 360.2512,-615.102 357.8164,-621.8897"/>
<text text-anchor="middle" x="485.5" y="-835" font-family="Helvetica,sans-Serif" font-size="10.00" fill="#000000"> +AngleMax</text>
<text text-anchor="middle" x="485.5" y="-824" font-family="Helvetica,sans-Serif" font-size="10.00" fill="#000000">+ZMin</text>
<text text-anchor="middle" x="485.5" y="-813" font-family="Helvetica,sans-Serif" font-size="10.00" fill="#000000">+ZMax</text>
<text text-anchor="middle" x="485.5" y="-802" font-family="Helvetica,sans-Serif" font-size="10.00" fill="#000000">+Alpha</text>
<text text-anchor="middle" x="485.5" y="-791" font-family="Helvetica,sans-Serif" font-size="10.00" fill="#000000">+SinAlpha</text>
<text text-anchor="middle" x="485.5" y="-780" font-family="Helvetica,sans-Serif" font-size="10.00" fill="#000000">+CosAlpha</text>
<text text-anchor="middle" x="485.5" y="-769" font-family="Helvetica,sans-Serif" font-size="10.00" fill="#000000">+AngleMin</text>
</g>
<!-- Node9 -->
<g id="node7" class="node">
<title>Node9</title>
<g id="a_node7"><a xlink:href="../../d0/d97/classGPUCA__NAMESPACE_1_1gpu_1_1GPUTPCGMPolynomialField.html" target="_top" xlink:title="{GPUCA_NAMESPACE::gpu\l::GPUTPCGMPolynomialField\n||+ GPUTPCGMPolynomialField()\l+ Reset()\l+ SetFieldNominal()\l+ SetFieldTpc()\l+ SetFieldTrd()\l+ SetFieldIts()\l+ GPUdi()\l+ GPUd()\l+ GPUd()\l+ GPUd()\l+ GPUd()\l+ GPUd()\l+ GPUd()\l+ Print()\l+ GPUd()\l+ GPUd()\l+ GPUd()\l+ GetCoefmTpcBx()\l+ GetCoefmTpcBy()\l+ GetCoefmTpcBz()\l+ GetCoefmTrdBx()\l+ GetCoefmTrdBy()\l+ GetCoefmTrdBz()\l+ GetCoefmItsBx()\l+ GetCoefmItsBy()\l+ GetCoefmItsBz()\l}">
<polygon fill="none" stroke="#000000" points="435.5,-404.5 435.5,-747.5 603.5,-747.5 603.5,-404.5 435.5,-404.5"/>
<text text-anchor="start" x="443.5" y="-735.5" font-family="Helvetica,sans-Serif" font-size="10.00" fill="#000000">GPUCA_NAMESPACE::gpu</text>
<text text-anchor="middle" x="519.5" y="-724.5" font-family="Helvetica,sans-Serif" font-size="10.00" fill="#000000">::GPUTPCGMPolynomialField</text>
<polyline fill="none" stroke="#000000" points="435.5,-717.5 603.5,-717.5 "/>
<text text-anchor="middle" x="519.5" y="-705.5" font-family="Helvetica,sans-Serif" font-size="10.00" fill="#000000"> </text>
<polyline fill="none" stroke="#000000" points="435.5,-698.5 603.5,-698.5 "/>
<text text-anchor="start" x="443.5" y="-686.5" font-family="Helvetica,sans-Serif" font-size="10.00" fill="#000000">+ GPUTPCGMPolynomialField()</text>
<text text-anchor="start" x="443.5" y="-675.5" font-family="Helvetica,sans-Serif" font-size="10.00" fill="#000000">+ Reset()</text>
<text text-anchor="start" x="443.5" y="-664.5" font-family="Helvetica,sans-Serif" font-size="10.00" fill="#000000">+ SetFieldNominal()</text>
<text text-anchor="start" x="443.5" y="-653.5" font-family="Helvetica,sans-Serif" font-size="10.00" fill="#000000">+ SetFieldTpc()</text>
<text text-anchor="start" x="443.5" y="-642.5" font-family="Helvetica,sans-Serif" font-size="10.00" fill="#000000">+ SetFieldTrd()</text>
<text text-anchor="start" x="443.5" y="-631.5" font-family="Helvetica,sans-Serif" font-size="10.00" fill="#000000">+ SetFieldIts()</text>
<text text-anchor="start" x="443.5" y="-620.5" font-family="Helvetica,sans-Serif" font-size="10.00" fill="#000000">+ GPUdi()</text>
<text text-anchor="start" x="443.5" y="-609.5" font-family="Helvetica,sans-Serif" font-size="10.00" fill="#000000">+ GPUd()</text>
<text text-anchor="start" x="443.5" y="-598.5" font-family="Helvetica,sans-Serif" font-size="10.00" fill="#000000">+ GPUd()</text>
<text text-anchor="start" x="443.5" y="-587.5" font-family="Helvetica,sans-Serif" font-size="10.00" fill="#000000">+ GPUd()</text>
<text text-anchor="start" x="443.5" y="-576.5" font-family="Helvetica,sans-Serif" font-size="10.00" fill="#000000">+ GPUd()</text>
<text text-anchor="start" x="443.5" y="-565.5" font-family="Helvetica,sans-Serif" font-size="10.00" fill="#000000">+ GPUd()</text>
<text text-anchor="start" x="443.5" y="-554.5" font-family="Helvetica,sans-Serif" font-size="10.00" fill="#000000">+ GPUd()</text>
<text text-anchor="start" x="443.5" y="-543.5" font-family="Helvetica,sans-Serif" font-size="10.00" fill="#000000">+ Print()</text>
<text text-anchor="start" x="443.5" y="-532.5" font-family="Helvetica,sans-Serif" font-size="10.00" fill="#000000">+ GPUd()</text>
<text text-anchor="start" x="443.5" y="-521.5" font-family="Helvetica,sans-Serif" font-size="10.00" fill="#000000">+ GPUd()</text>
<text text-anchor="start" x="443.5" y="-510.5" font-family="Helvetica,sans-Serif" font-size="10.00" fill="#000000">+ GPUd()</text>
<text text-anchor="start" x="443.5" y="-499.5" font-family="Helvetica,sans-Serif" font-size="10.00" fill="#000000">+ GetCoefmTpcBx()</text>
<text text-anchor="start" x="443.5" y="-488.5" font-family="Helvetica,sans-Serif" font-size="10.00" fill="#000000">+ GetCoefmTpcBy()</text>
<text text-anchor="start" x="443.5" y="-477.5" font-family="Helvetica,sans-Serif" font-size="10.00" fill="#000000">+ GetCoefmTpcBz()</text>
<text text-anchor="start" x="443.5" y="-466.5" font-family="Helvetica,sans-Serif" font-size="10.00" fill="#000000">+ GetCoefmTrdBx()</text>
<text text-anchor="start" x="443.5" y="-455.5" font-family="Helvetica,sans-Serif" font-size="10.00" fill="#000000">+ GetCoefmTrdBy()</text>
<text text-anchor="start" x="443.5" y="-444.5" font-family="Helvetica,sans-Serif" font-size="10.00" fill="#000000">+ GetCoefmTrdBz()</text>
<text text-anchor="start" x="443.5" y="-433.5" font-family="Helvetica,sans-Serif" font-size="10.00" fill="#000000">+ GetCoefmItsBx()</text>
<text text-anchor="start" x="443.5" y="-422.5" font-family="Helvetica,sans-Serif" font-size="10.00" fill="#000000">+ GetCoefmItsBy()</text>
<text text-anchor="start" x="443.5" y="-411.5" font-family="Helvetica,sans-Serif" font-size="10.00" fill="#000000">+ GetCoefmItsBz()</text>
</a>
</g>
</g>
<!-- Node7&#45;&gt;Node9 -->
<g id="edge8" class="edge">
<title>Node7&#45;&gt;Node9</title>
<path fill="none" stroke="#404040" d="M519.5,-861.3022C519.5,-836.8963 519.5,-799.5759 519.5,-759.8929"/>
<polygon fill="none" stroke="#404040" points="519.5001,-759.7985 515.5,-753.7985 519.5,-747.7985 523.5,-753.7984 519.5001,-759.7985"/>
<text text-anchor="middle" x="538.5" y="-818.5" font-family="Helvetica,sans-Serif" font-size="10.00" fill="#000000"> +const</text>
<text text-anchor="middle" x="538.5" y="-807.5" font-family="Helvetica,sans-Serif" font-size="10.00" fill="#000000">+f</text>
<text text-anchor="middle" x="538.5" y="-796.5" font-family="Helvetica,sans-Serif" font-size="10.00" fill="#000000">+y</text>
<text text-anchor="middle" x="538.5" y="-785.5" font-family="Helvetica,sans-Serif" font-size="10.00" fill="#000000">+z</text>
</g>
<!-- Node11 -->
<g id="node9" class="node">
<title>Node11</title>
<g id="a_node9"><a xlink:href="../../d0/d52/classGPUCA__NAMESPACE_1_1gpu_1_1GPUTPCGeometry.html" target="_top" xlink:title="{GPUCA_NAMESPACE::gpu\l::GPUTPCGeometry\n||+ GPUd()\l+ GPUd()\l+ GPUd()\l+ GPUd()\l+ GPUd()\l+ GPUd()\l+ GPUd()\l+ GPUd()\l+ GPUd()\l+ GPUd()\l+ GPUd()\l+ GPUd()\l+ PadWidth()\l+ GPUd()\l+ return()\l}">
<polygon fill="none" stroke="#000000" points="822.5,-465 822.5,-687 962.5,-687 962.5,-465 822.5,-465"/>
<text text-anchor="start" x="830.5" y="-675" font-family="Helvetica,sans-Serif" font-size="10.00" fill="#000000">GPUCA_NAMESPACE::gpu</text>
<text text-anchor="middle" x="892.5" y="-664" font-family="Helvetica,sans-Serif" font-size="10.00" fill="#000000">::GPUTPCGeometry</text>
<polyline fill="none" stroke="#000000" points="822.5,-657 962.5,-657 "/>
<text text-anchor="middle" x="892.5" y="-645" font-family="Helvetica,sans-Serif" font-size="10.00" fill="#000000"> </text>
<polyline fill="none" stroke="#000000" points="822.5,-638 962.5,-638 "/>
<text text-anchor="start" x="830.5" y="-626" font-family="Helvetica,sans-Serif" font-size="10.00" fill="#000000">+ GPUd()</text>
<text text-anchor="start" x="830.5" y="-615" font-family="Helvetica,sans-Serif" font-size="10.00" fill="#000000">+ GPUd()</text>
<text text-anchor="start" x="830.5" y="-604" font-family="Helvetica,sans-Serif" font-size="10.00" fill="#000000">+ GPUd()</text>
<text text-anchor="start" x="830.5" y="-593" font-family="Helvetica,sans-Serif" font-size="10.00" fill="#000000">+ GPUd()</text>
<text text-anchor="start" x="830.5" y="-582" font-family="Helvetica,sans-Serif" font-size="10.00" fill="#000000">+ GPUd()</text>
<text text-anchor="start" x="830.5" y="-571" font-family="Helvetica,sans-Serif" font-size="10.00" fill="#000000">+ GPUd()</text>
<text text-anchor="start" x="830.5" y="-560" font-family="Helvetica,sans-Serif" font-size="10.00" fill="#000000">+ GPUd()</text>
<text text-anchor="start" x="830.5" y="-549" font-family="Helvetica,sans-Serif" font-size="10.00" fill="#000000">+ GPUd()</text>
<text text-anchor="start" x="830.5" y="-538" font-family="Helvetica,sans-Serif" font-size="10.00" fill="#000000">+ GPUd()</text>
<text text-anchor="start" x="830.5" y="-527" font-family="Helvetica,sans-Serif" font-size="10.00" fill="#000000">+ GPUd()</text>
<text text-anchor="start" x="830.5" y="-516" font-family="Helvetica,sans-Serif" font-size="10.00" fill="#000000">+ GPUd()</text>
<text text-anchor="start" x="830.5" y="-505" font-family="Helvetica,sans-Serif" font-size="10.00" fill="#000000">+ GPUd()</text>
<text text-anchor="start" x="830.5" y="-494" font-family="Helvetica,sans-Serif" font-size="10.00" fill="#000000">+ PadWidth()</text>
<text text-anchor="start" x="830.5" y="-483" font-family="Helvetica,sans-Serif" font-size="10.00" fill="#000000">+ GPUd()</text>
<text text-anchor="start" x="830.5" y="-472" font-family="Helvetica,sans-Serif" font-size="10.00" fill="#000000">+ return()</text>
</a>
</g>
</g>
<!-- Node7&#45;&gt;Node11 -->
<g id="edge12" class="edge">
<title>Node7&#45;&gt;Node11</title>
<path fill="none" stroke="#404040" d="M538.7266,-887.419C580.0088,-881.4953 675.1958,-865.6692 697.5,-843 722.2215,-817.874 690.8579,-790.1857 716.5,-766 748.3972,-735.9145 778.9111,-774.9477 813.5,-748 830.4505,-734.7941 843.896,-717.1125 854.5211,-698.1031"/>
<polygon fill="none" stroke="#404040" points="854.5512,-698.0458 853.8046,-690.8735 860.1381,-687.4257 860.8847,-694.5981 854.5512,-698.0458"/>
<text text-anchor="middle" x="733.5" y="-807.5" font-family="Helvetica,sans-Serif" font-size="10.00" fill="#000000"> +time</text>
<text text-anchor="middle" x="733.5" y="-796.5" font-family="Helvetica,sans-Serif" font-size="10.00" fill="#000000">+z</text>
</g>
<!-- Node13 -->
<g id="node11" class="node">
<title>Node13</title>
<g id="a_node11"><a xlink:href="../../dd/dee/structGPUCA__NAMESPACE_1_1gpu_1_1internal_1_1GPUParam__t.html" target="_top" xlink:title="{GPUCA_NAMESPACE::gpu\l::internal::GPUParam\l_t\&lt; T, S \&gt;\n||}">
<polygon fill="none" stroke="#000000" points="566.5,-266.5 566.5,-345.5 706.5,-345.5 706.5,-266.5 566.5,-266.5"/>
<text text-anchor="start" x="574.5" y="-333.5" font-family="Helvetica,sans-Serif" font-size="10.00" fill="#000000">GPUCA_NAMESPACE::gpu</text>
<text text-anchor="start" x="574.5" y="-322.5" font-family="Helvetica,sans-Serif" font-size="10.00" fill="#000000">::internal::GPUParam</text>
<text text-anchor="middle" x="636.5" y="-311.5" font-family="Helvetica,sans-Serif" font-size="10.00" fill="#000000">_t&lt; T, S &gt;</text>
<polyline fill="none" stroke="#000000" points="566.5,-304.5 706.5,-304.5 "/>
<text text-anchor="middle" x="636.5" y="-292.5" font-family="Helvetica,sans-Serif" font-size="10.00" fill="#000000"> </text>
<polyline fill="none" stroke="#000000" points="566.5,-285.5 706.5,-285.5 "/>
<text text-anchor="middle" x="636.5" y="-273.5" font-family="Helvetica,sans-Serif" font-size="10.00" fill="#000000"> </text>
</a>
</g>
</g>
<!-- Node7&#45;&gt;Node13 -->
<g id="edge15" class="edge">
<title>Node7&#45;&gt;Node13</title>
<path fill="none" stroke="#404040" d="M538.5363,-877.9608C570.57,-856.4443 634.2255,-807.977 659.5,-748 721.9899,-599.71 664.9444,-546.9114 666.5,-386 666.5945,-376.2227 668.8116,-373.5006 666.5,-364 665.9372,-361.6868 665.2648,-359.3628 664.5047,-357.0454"/>
<polygon fill="none" stroke="#404040" points="664.4038,-356.7844 658.508,-352.6323 660.0732,-345.5931 665.969,-349.7452 664.4038,-356.7844"/>
<text text-anchor="middle" x="723.5" y="-579" font-family="Helvetica,sans-Serif" font-size="10.00" fill="#000000"> #ParamS0Par</text>
<text text-anchor="middle" x="723.5" y="-568" font-family="Helvetica,sans-Serif" font-size="10.00" fill="#000000">#ParamRMS0</text>
</g>
<!-- Node8&#45;&gt;Node4 -->
<g id="edge5" class="edge">
<title>Node8&#45;&gt;Node4</title>
<path fill="none" stroke="#404040" d="M347.3346,-541.8098C346.9913,-470.8258 346.1981,-306.8316 345.776,-219.5543"/>
<polygon fill="none" stroke="#404040" points="345.7758,-219.5098 341.7468,-213.5293 345.7177,-207.51 349.7467,-213.4905 345.7758,-219.5098"/>
<text text-anchor="middle" x="379.5" y="-303.5" font-family="Helvetica,sans-Serif" font-size="10.00" fill="#000000"> +SliceParam</text>
</g>
<!-- Node8&#45;&gt;Node13 -->
<g id="edge16" class="edge">
<title>Node8&#45;&gt;Node13</title>
<path fill="none" stroke="#404040" d="M354.3703,-541.7308C366.424,-491.9533 396.6426,-401.5055 462.5,-364 497.947,-343.8131 513.7903,-358.867 552.5,-346 553.3622,-345.7134 554.227,-345.4201 555.094,-345.1205"/>
<polygon fill="none" stroke="#404040" points="555.192,-345.0842 559.4244,-339.2458 566.4416,-340.9071 562.2091,-346.7455 555.192,-345.0842"/>
<text text-anchor="middle" x="495.5" y="-372.5" font-family="Helvetica,sans-Serif" font-size="10.00" fill="#000000"> +SliceParam</text>
</g>
<!-- Node9&#45;&gt;Node4 -->
<g id="edge7" class="edge">
<title>Node9&#45;&gt;Node4</title>
<path fill="none" stroke="#404040" d="M471.9984,-404.4289C456.7225,-358.4249 438.071,-309.4268 416.5,-266 408.3876,-249.6681 397.9916,-232.9535 387.6721,-217.8517"/>
<polygon fill="none" stroke="#404040" points="387.4389,-217.5177 380.7243,-214.8882 380.569,-207.6788 387.2836,-210.3083 387.4389,-217.5177"/>
<text text-anchor="middle" x="495" y="-303.5" font-family="Helvetica,sans-Serif" font-size="10.00" fill="#000000"> +polynomialField</text>
</g>
<!-- Node9&#45;&gt;Node13 -->
<g id="edge17" class="edge">
<title>Node9&#45;&gt;Node13</title>
<path fill="none" stroke="#404040" d="M524.1946,-404.3867C528.6757,-390.136 534.6455,-376.4447 542.5,-364 546.53,-357.6149 551.5441,-351.8218 557.1441,-346.5897"/>
<polygon fill="none" stroke="#404040" points="557.1884,-346.5525 559.2032,-339.6285 566.3694,-338.8252 564.3547,-345.7492 557.1884,-346.5525"/>
<text text-anchor="middle" x="587" y="-372.5" font-family="Helvetica,sans-Serif" font-size="10.00" fill="#000000"> +polynomialField</text>
</g>
<!-- Node10 -->
<g id="node8" class="node">
<title>Node10</title>
<polygon fill="none" stroke="#bfbfbf" points="796,-861.5 796,-918.5 825,-918.5 825,-861.5 796,-861.5"/>
<text text-anchor="middle" x="810.5" y="-906.5" font-family="Helvetica,sans-Serif" font-size="10.00" fill="#000000">int</text>
<polyline fill="none" stroke="#bfbfbf" points="796,-899.5 825,-899.5 "/>
<text text-anchor="middle" x="810.5" y="-887.5" font-family="Helvetica,sans-Serif" font-size="10.00" fill="#000000"> </text>
<polyline fill="none" stroke="#bfbfbf" points="796,-880.5 825,-880.5 "/>
<text text-anchor="middle" x="810.5" y="-868.5" font-family="Helvetica,sans-Serif" font-size="10.00" fill="#000000"> </text>
</g>
<!-- Node10&#45;&gt;Node9 -->
<g id="edge9" class="edge">
<title>Node10&#45;&gt;Node9</title>
<path fill="none" stroke="#404040" d="M795.7545,-874.1123C788.4318,-865.4725 779.998,-854.2699 774.5,-843 758.9972,-811.2221 781.0602,-789.3395 754.5,-766 709.2009,-726.1939 669.2351,-777.5512 614.2104,-748.6142"/>
<polygon fill="none" stroke="#404040" points="614.0004,-748.4861 606.7951,-748.776 603.7562,-742.2365 610.9615,-741.9466 614.0004,-748.4861"/>
<text text-anchor="middle" x="797" y="-813" font-family="Helvetica,sans-Serif" font-size="10.00" fill="#000000"> +NITSM</text>
<text text-anchor="middle" x="797" y="-802" font-family="Helvetica,sans-Serif" font-size="10.00" fill="#000000">+NTPCM</text>
<text text-anchor="middle" x="797" y="-791" font-family="Helvetica,sans-Serif" font-size="10.00" fill="#000000">+NTRDM</text>
</g>
<!-- Node10&#45;&gt;Node11 -->
<g id="edge13" class="edge">
<title>Node10&#45;&gt;Node11</title>
<path fill="none" stroke="#404040" d="M817.9943,-861.3022C827.6128,-824.4705 844.9122,-758.2263 860.4217,-698.8365"/>
<polygon fill="none" stroke="#404040" points="860.4648,-698.6713 858.1106,-691.8552 863.4969,-687.0606 865.851,-693.8767 860.4648,-698.6713"/>
<text text-anchor="middle" x="860.5" y="-807.5" font-family="Helvetica,sans-Serif" font-size="10.00" fill="#000000"> +const</text>
<text text-anchor="middle" x="860.5" y="-796.5" font-family="Helvetica,sans-Serif" font-size="10.00" fill="#000000">+row</text>
</g>
<!-- Node11&#45;&gt;Node4 -->
<g id="edge10" class="edge">
<title>Node11&#45;&gt;Node4</title>
<path fill="none" stroke="#404040" d="M903.7111,-464.7701C902.4421,-430.521 895.9258,-393.9755 878.5,-364 822.5571,-267.7684 772.5136,-268.1702 669.5,-226 595.4652,-195.6927 505.8574,-179.5578 439.6604,-171.1502"/>
<polygon fill="none" stroke="#404040" points="439.4921,-171.1297 433.0497,-174.3694 427.5814,-169.6686 434.0238,-166.4289 439.4921,-171.1297"/>
<text text-anchor="middle" x="903.5" y="-303.5" font-family="Helvetica,sans-Serif" font-size="10.00" fill="#000000"> +tpcGeometry</text>
</g>
<!-- Node11&#45;&gt;Node13 -->
<g id="edge18" class="edge">
<title>Node11&#45;&gt;Node13</title>
<path fill="none" stroke="#404040" d="M847.3449,-464.6213C837.2725,-443.8646 825.8674,-422.8073 813.5,-404 800.3588,-384.016 797.0474,-377.7822 777.5,-364 759.521,-351.3237 738.355,-340.7651 717.966,-332.2852"/>
<polygon fill="none" stroke="#404040" points="717.8828,-332.2519 710.8253,-333.7328 706.744,-327.7878 713.8014,-326.3069 717.8828,-332.2519"/>
<text text-anchor="middle" x="838.5" y="-372.5" font-family="Helvetica,sans-Serif" font-size="10.00" fill="#000000"> +tpcGeometry</text>
</g>
<!-- Node12 -->
<g id="node10" class="node">
<title>Node12</title>
<polygon fill="none" stroke="#bfbfbf" points="880.5,-861.5 880.5,-918.5 930.5,-918.5 930.5,-861.5 880.5,-861.5"/>
<text text-anchor="middle" x="905.5" y="-906.5" font-family="Helvetica,sans-Serif" font-size="10.00" fill="#000000">double</text>
<polyline fill="none" stroke="#bfbfbf" points="880.5,-899.5 930.5,-899.5 "/>
<text text-anchor="middle" x="905.5" y="-887.5" font-family="Helvetica,sans-Serif" font-size="10.00" fill="#000000"> </text>
<polyline fill="none" stroke="#bfbfbf" points="880.5,-880.5 930.5,-880.5 "/>
<text text-anchor="middle" x="905.5" y="-868.5" font-family="Helvetica,sans-Serif" font-size="10.00" fill="#000000"> </text>
</g>
<!-- Node12&#45;&gt;Node11 -->
<g id="edge11" class="edge">
<title>Node12&#45;&gt;Node11</title>
<path fill="none" stroke="#404040" d="M904.3119,-861.3022C902.7902,-824.5472 900.0558,-758.5022 897.601,-699.2077"/>
<polygon fill="none" stroke="#404040" points="897.5945,-699.0504 893.3497,-693.221 897.0981,-687.0606 901.3429,-692.89 897.5945,-699.0504"/>
<text text-anchor="middle" x="921.5" y="-807.5" font-family="Helvetica,sans-Serif" font-size="10.00" fill="#000000"> +const</text>
<text text-anchor="middle" x="921.5" y="-796.5" font-family="Helvetica,sans-Serif" font-size="10.00" fill="#000000">+row</text>
</g>
<!-- Node13&#45;&gt;Node4 -->
<g id="edge14" class="edge">
<title>Node13&#45;&gt;Node4</title>
<path fill="none" stroke="#ffa500" d="M557.4495,-267.0181C517.1922,-247.1661 468.2916,-223.0519 427.6095,-202.9904"/>
<polygon fill="#ffa500" stroke="#ffa500" points="555.9111,-270.1618 566.4279,-271.4456 559.0071,-263.8837 555.9111,-270.1618"/>
<text text-anchor="start" x="517.5" y="-240" font-family="Helvetica,sans-Serif" font-size="10.00" fill="#000000"> &lt; gpu_rtc::GPUSettingsRec,</text>
<text text-anchor="middle" x="591.5" y="-229" font-family="Helvetica,sans-Serif" font-size="10.00" fill="#000000"> gpu_rtc::GPUSettingsParam &gt;</text>
</g>
<!-- Node14 -->
<g id="node12" class="node">
<title>Node14</title>
<polygon fill="none" stroke="#bfbfbf" points="775,-547.5 775,-604.5 804,-604.5 804,-547.5 775,-547.5"/>
<text text-anchor="middle" x="789.5" y="-592.5" font-family="Helvetica,sans-Serif" font-size="10.00" fill="#000000">S</text>
<polyline fill="none" stroke="#bfbfbf" points="775,-585.5 804,-585.5 "/>
<text text-anchor="middle" x="789.5" y="-573.5" font-family="Helvetica,sans-Serif" font-size="10.00" fill="#000000"> </text>
<polyline fill="none" stroke="#bfbfbf" points="775,-566.5 804,-566.5 "/>
<text text-anchor="middle" x="789.5" y="-554.5" font-family="Helvetica,sans-Serif" font-size="10.00" fill="#000000"> </text>
</g>
<!-- Node14&#45;&gt;Node13 -->
<g id="edge19" class="edge">
<title>Node14&#45;&gt;Node13</title>
<path fill="none" stroke="#404040" d="M790.7501,-547.3877C791.0266,-511.4193 787.1107,-448.9513 760.5,-404 749.0008,-384.5754 732.0872,-367.5149 714.4265,-353.3051"/>
<polygon fill="none" stroke="#404040" points="714.0725,-353.0323 706.8784,-352.5379 704.5677,-345.707 711.7619,-346.2014 714.0725,-353.0323"/>
<text text-anchor="middle" x="759.5" y="-372.5" font-family="Helvetica,sans-Serif" font-size="10.00" fill="#000000"> +par</text>
</g>
<!-- Node15 -->
<g id="node13" class="node">
<title>Node15</title>
<polygon fill="none" stroke="#bfbfbf" points="621,-547.5 621,-604.5 650,-604.5 650,-547.5 621,-547.5"/>
<text text-anchor="middle" x="635.5" y="-592.5" font-family="Helvetica,sans-Serif" font-size="10.00" fill="#000000">T</text>
<polyline fill="none" stroke="#bfbfbf" points="621,-585.5 650,-585.5 "/>
<text text-anchor="middle" x="635.5" y="-573.5" font-family="Helvetica,sans-Serif" font-size="10.00" fill="#000000"> </text>
<polyline fill="none" stroke="#bfbfbf" points="621,-566.5 650,-566.5 "/>
<text text-anchor="middle" x="635.5" y="-554.5" font-family="Helvetica,sans-Serif" font-size="10.00" fill="#000000"> </text>
</g>
<!-- Node15&#45;&gt;Node13 -->
<g id="edge20" class="edge">
<title>Node15&#45;&gt;Node13</title>
<path fill="none" stroke="#404040" d="M635.6061,-547.3609C635.7729,-502.3162 636.0991,-414.2478 636.3079,-357.8633"/>
<polygon fill="none" stroke="#404040" points="636.3086,-357.6461 632.3309,-351.6313 636.3532,-345.6462 640.3309,-351.661 636.3086,-357.6461"/>
<text text-anchor="middle" x="649" y="-372.5" font-family="Helvetica,sans-Serif" font-size="10.00" fill="#000000"> +rec</text>
</g>
</g>
</svg>
