<?xml version="1.0" encoding="UTF-8" standalone="no"?>
<!DOCTYPE svg PUBLIC "-//W3C//DTD SVG 1.1//EN"
 "http://www.w3.org/Graphics/SVG/1.1/DTD/svg11.dtd">
<!-- Generated by graphviz version 2.40.1 (20161225.0304)
 -->
<!-- Title: /home/travis/build/AliceO2Group/AliceO2/Detectors/MUON/MCH/Tracking/include/MCHTracking/TrackFitter.h Pages: 1 -->
<svg width="992pt" height="239pt"
 viewBox="0.00 0.00 992.00 239.00" xmlns="http://www.w3.org/2000/svg" xmlns:xlink="http://www.w3.org/1999/xlink">
<g id="graph0" class="graph" transform="scale(1 1) rotate(0) translate(4 235)">
<title>/home/travis/build/AliceO2Group/AliceO2/Detectors/MUON/MCH/Tracking/include/MCHTracking/TrackFitter.h</title>
<!-- Node11 -->
<g id="node1" class="node">
<title>Node11</title>
<polygon fill="#bfbfbf" stroke="#000000" points="508,-178.5 508,-230.5 690,-230.5 690,-178.5 508,-178.5"/>
<text text-anchor="start" x="516" y="-218.5" font-family="Helvetica,sans-Serif" font-size="10.00" fill="#000000">/home/travis/build</text>
<text text-anchor="start" x="516" y="-207.5" font-family="Helvetica,sans-Serif" font-size="10.00" fill="#000000">/AliceO2Group/AliceO2</text>
<text text-anchor="start" x="516" y="-196.5" font-family="Helvetica,sans-Serif" font-size="10.00" fill="#000000">/Detectors/MUON/MCH/Tracking</text>
<text text-anchor="middle" x="599" y="-185.5" font-family="Helvetica,sans-Serif" font-size="10.00" fill="#000000">/include/MCHTracking/TrackFitter.h</text>
</g>
<!-- Node12 -->
<g id="node2" class="node">
<title>Node12</title>
<g id="a_node2"><a xlink:href="../../d5/d91/TrackFinder_8h.html" target="_top" xlink:title="Definition of a class to reconstruct tracks. ">
<polygon fill="none" stroke="#000000" points="172.5,-89.5 172.5,-141.5 359.5,-141.5 359.5,-89.5 172.5,-89.5"/>
<text text-anchor="start" x="180.5" y="-129.5" font-family="Helvetica,sans-Serif" font-size="10.00" fill="#000000">/home/travis/build</text>
<text text-anchor="start" x="180.5" y="-118.5" font-family="Helvetica,sans-Serif" font-size="10.00" fill="#000000">/AliceO2Group/AliceO2</text>
<text text-anchor="start" x="180.5" y="-107.5" font-family="Helvetica,sans-Serif" font-size="10.00" fill="#000000">/Detectors/MUON/MCH/Tracking</text>
<text text-anchor="middle" x="266" y="-96.5" font-family="Helvetica,sans-Serif" font-size="10.00" fill="#000000">/include/MCHTracking/TrackFinder.h</text>
</a>
</g>
</g>
<!-- Node11&#45;&gt;Node12 -->
<g id="edge1" class="edge">
<title>Node11&#45;&gt;Node12</title>
<path fill="none" stroke="#191970" d="M497.7222,-177.4317C453.763,-165.6829 402.5995,-152.0086 359.5473,-140.5021"/>
<polygon fill="#191970" stroke="#191970" points="497.0012,-180.8618 507.5658,-180.0626 498.8087,-174.0992 497.0012,-180.8618"/>
</g>
<!-- Node15 -->
<g id="node5" class="node">
<title>Node15</title>
<g id="a_node5"><a xlink:href="../../d7/d7f/TrackFinderOriginal_8h.html" target="_top" xlink:title="Definition of a class to reconstruct tracks with the original algorithm. ">
<polygon fill="none" stroke="#000000" points="378,-89.5 378,-141.5 604,-141.5 604,-89.5 378,-89.5"/>
<text text-anchor="start" x="386" y="-129.5" font-family="Helvetica,sans-Serif" font-size="10.00" fill="#000000">/home/travis/build</text>
<text text-anchor="start" x="386" y="-118.5" font-family="Helvetica,sans-Serif" font-size="10.00" fill="#000000">/AliceO2Group/AliceO2</text>
<text text-anchor="start" x="386" y="-107.5" font-family="Helvetica,sans-Serif" font-size="10.00" fill="#000000">/Detectors/MUON/MCH/Tracking</text>
<text text-anchor="middle" x="491" y="-96.5" font-family="Helvetica,sans-Serif" font-size="10.00" fill="#000000">/include/MCHTracking/TrackFinderOriginal.h</text>
</a>
</g>
</g>
<!-- Node11&#45;&gt;Node15 -->
<g id="edge4" class="edge">
<title>Node11&#45;&gt;Node15</title>
<path fill="none" stroke="#191970" d="M559.3933,-171.8612C547.2714,-161.8718 534.1056,-151.0222 522.592,-141.5341"/>
<polygon fill="#191970" stroke="#191970" points="557.2374,-174.6199 567.1806,-178.2784 561.6892,-169.2178 557.2374,-174.6199"/>
</g>
<!-- Node18 -->
<g id="node8" class="node">
<title>Node18</title>
<g id="a_node8"><a xlink:href="../../de/db3/MUON_2MCH_2Tracking_2src_2TrackFitter_8cxx.html" target="_top" xlink:title="/home/travis/build\l/AliceO2Group/AliceO2\l/Detectors/MUON/MCH/Tracking\l/src/TrackFitter.cxx">
<polygon fill="none" stroke="#000000" points="622,-89.5 622,-141.5 792,-141.5 792,-89.5 622,-89.5"/>
<text text-anchor="start" x="630" y="-129.5" font-family="Helvetica,sans-Serif" font-size="10.00" fill="#000000">/home/travis/build</text>
<text text-anchor="start" x="630" y="-118.5" font-family="Helvetica,sans-Serif" font-size="10.00" fill="#000000">/AliceO2Group/AliceO2</text>
<text text-anchor="start" x="630" y="-107.5" font-family="Helvetica,sans-Serif" font-size="10.00" fill="#000000">/Detectors/MUON/MCH/Tracking</text>
<text text-anchor="middle" x="707" y="-96.5" font-family="Helvetica,sans-Serif" font-size="10.00" fill="#000000">/src/TrackFitter.cxx</text>
</a>
</g>
</g>
<!-- Node11&#45;&gt;Node18 -->
<g id="edge7" class="edge">
<title>Node11&#45;&gt;Node18</title>
<path fill="none" stroke="#191970" d="M638.6067,-171.8612C650.7286,-161.8718 663.8944,-151.0222 675.408,-141.5341"/>
<polygon fill="#191970" stroke="#191970" points="636.3108,-169.2178 630.8194,-178.2784 640.7626,-174.6199 636.3108,-169.2178"/>
</g>
<!-- Node19 -->
<g id="node9" class="node">
<title>Node19</title>
<g id="a_node9"><a xlink:href="../../db/d54/TrackFitterSpec_8cxx.html" target="_top" xlink:title="Implementation of a data processor to read, refit and send tracks with attached clusters. ">
<polygon fill="none" stroke="#000000" points="810,-89.5 810,-141.5 984,-141.5 984,-89.5 810,-89.5"/>
<text text-anchor="start" x="818" y="-129.5" font-family="Helvetica,sans-Serif" font-size="10.00" fill="#000000">/home/travis/build</text>
<text text-anchor="start" x="818" y="-118.5" font-family="Helvetica,sans-Serif" font-size="10.00" fill="#000000">/AliceO2Group/AliceO2</text>
<text text-anchor="start" x="818" y="-107.5" font-family="Helvetica,sans-Serif" font-size="10.00" fill="#000000">/Detectors/MUON/MCH/Workflow</text>
<text text-anchor="middle" x="897" y="-96.5" font-family="Helvetica,sans-Serif" font-size="10.00" fill="#000000">/src/TrackFitterSpec.cxx</text>
</a>
</g>
</g>
<!-- Node11&#45;&gt;Node19 -->
<g id="edge8" class="edge">
<title>Node11&#45;&gt;Node19</title>
<path fill="none" stroke="#191970" d="M696.0989,-175.5007C732.747,-164.5554 774.1823,-152.1805 809.8628,-141.5242"/>
<polygon fill="#191970" stroke="#191970" points="694.9765,-172.183 686.3963,-178.3984 696.9797,-178.8903 694.9765,-172.183"/>
</g>
<!-- Node13 -->
<g id="node3" class="node">
<title>Node13</title>
<g id="a_node3"><a xlink:href="../../d1/d8b/TrackFinder_8cxx.html" target="_top" xlink:title="Implementation of a class to reconstruct tracks. ">
<polygon fill="none" stroke="#000000" points="0,-.5 0,-52.5 170,-52.5 170,-.5 0,-.5"/>
<text text-anchor="start" x="8" y="-40.5" font-family="Helvetica,sans-Serif" font-size="10.00" fill="#000000">/home/travis/build</text>
<text text-anchor="start" x="8" y="-29.5" font-family="Helvetica,sans-Serif" font-size="10.00" fill="#000000">/AliceO2Group/AliceO2</text>
<text text-anchor="start" x="8" y="-18.5" font-family="Helvetica,sans-Serif" font-size="10.00" fill="#000000">/Detectors/MUON/MCH/Tracking</text>
<text text-anchor="middle" x="85" y="-7.5" font-family="Helvetica,sans-Serif" font-size="10.00" fill="#000000">/src/TrackFinder.cxx</text>
</a>
</g>
</g>
<!-- Node12&#45;&gt;Node13 -->
<g id="edge2" class="edge">
<title>Node12&#45;&gt;Node13</title>
<path fill="none" stroke="#191970" d="M203.6606,-84.8469C182.261,-74.3245 158.5283,-62.6548 137.9459,-52.5341"/>
<polygon fill="#191970" stroke="#191970" points="202.1548,-88.0067 212.673,-89.2784 205.2436,-81.725 202.1548,-88.0067"/>
</g>
<!-- Node14 -->
<g id="node4" class="node">
<title>Node14</title>
<g id="a_node4"><a xlink:href="../../dd/dea/TrackFinderSpec_8cxx.html" target="_top" xlink:title="Implementation of a data processor to read clusters, reconstruct tracks and send them. ">
<polygon fill="none" stroke="#000000" points="188,-.5 188,-52.5 362,-52.5 362,-.5 188,-.5"/>
<text text-anchor="start" x="196" y="-40.5" font-family="Helvetica,sans-Serif" font-size="10.00" fill="#000000">/home/travis/build</text>
<text text-anchor="start" x="196" y="-29.5" font-family="Helvetica,sans-Serif" font-size="10.00" fill="#000000">/AliceO2Group/AliceO2</text>
<text text-anchor="start" x="196" y="-18.5" font-family="Helvetica,sans-Serif" font-size="10.00" fill="#000000">/Detectors/MUON/MCH/Workflow</text>
<text text-anchor="middle" x="275" y="-7.5" font-family="Helvetica,sans-Serif" font-size="10.00" fill="#000000">/src/TrackFinderSpec.cxx</text>
</a>
</g>
</g>
<!-- Node12&#45;&gt;Node14 -->
<g id="edge3" class="edge">
<title>Node12&#45;&gt;Node14</title>
<path fill="none" stroke="#191970" d="M269.6793,-79.1155C270.5803,-70.2061 271.5267,-60.8475 272.3673,-52.5341"/>
<polygon fill="#191970" stroke="#191970" points="266.1756,-78.977 268.6516,-89.2784 273.1401,-79.6813 266.1756,-78.977"/>
</g>
<!-- Node16 -->
<g id="node6" class="node">
<title>Node16</title>
<g id="a_node6"><a xlink:href="../../d6/d6d/TrackFinderOriginal_8cxx.html" target="_top" xlink:title="Implementation of a class to reconstruct tracks with the original algorithm. ">
<polygon fill="none" stroke="#000000" points="397,-.5 397,-52.5 567,-52.5 567,-.5 397,-.5"/>
<text text-anchor="start" x="405" y="-40.5" font-family="Helvetica,sans-Serif" font-size="10.00" fill="#000000">/home/travis/build</text>
<text text-anchor="start" x="405" y="-29.5" font-family="Helvetica,sans-Serif" font-size="10.00" fill="#000000">/AliceO2Group/AliceO2</text>
<text text-anchor="start" x="405" y="-18.5" font-family="Helvetica,sans-Serif" font-size="10.00" fill="#000000">/Detectors/MUON/MCH/Tracking</text>
<text text-anchor="middle" x="482" y="-7.5" font-family="Helvetica,sans-Serif" font-size="10.00" fill="#000000">/src/TrackFinderOriginal.cxx</text>
</a>
</g>
</g>
<!-- Node15&#45;&gt;Node16 -->
<g id="edge5" class="edge">
<title>Node15&#45;&gt;Node16</title>
<path fill="none" stroke="#191970" d="M487.3207,-79.1155C486.4197,-70.2061 485.4733,-60.8475 484.6327,-52.5341"/>
<polygon fill="#191970" stroke="#191970" points="483.8599,-79.6813 488.3484,-89.2784 490.8244,-78.977 483.8599,-79.6813"/>
</g>
<!-- Node17 -->
<g id="node7" class="node">
<title>Node17</title>
<g id="a_node7"><a xlink:href="../../d7/d30/TrackFinderOriginalSpec_8cxx.html" target="_top" xlink:title="Implementation of a data processor to read clusters, reconstruct tracks and send them. ">
<polygon fill="none" stroke="#000000" points="585,-.5 585,-52.5 759,-52.5 759,-.5 585,-.5"/>
<text text-anchor="start" x="593" y="-40.5" font-family="Helvetica,sans-Serif" font-size="10.00" fill="#000000">/home/travis/build</text>
<text text-anchor="start" x="593" y="-29.5" font-family="Helvetica,sans-Serif" font-size="10.00" fill="#000000">/AliceO2Group/AliceO2</text>
<text text-anchor="start" x="593" y="-18.5" font-family="Helvetica,sans-Serif" font-size="10.00" fill="#000000">/Detectors/MUON/MCH/Workflow</text>
<text text-anchor="middle" x="672" y="-7.5" font-family="Helvetica,sans-Serif" font-size="10.00" fill="#000000">/src/TrackFinderOriginalSpec.cxx</text>
</a>
</g>
</g>
<!-- Node15&#45;&gt;Node17 -->
<g id="edge6" class="edge">
<title>Node15&#45;&gt;Node17</title>
<path fill="none" stroke="#191970" d="M553.3394,-84.8469C574.739,-74.3245 598.4717,-62.6548 619.0541,-52.5341"/>
<polygon fill="#191970" stroke="#191970" points="551.7564,-81.725 544.327,-89.2784 554.8452,-88.0067 551.7564,-81.725"/>
</g>
</g>
</svg>
