<?xml version="1.0" encoding="UTF-8" standalone="no"?>
<!DOCTYPE svg PUBLIC "-//W3C//DTD SVG 1.1//EN"
 "http://www.w3.org/Graphics/SVG/1.1/DTD/svg11.dtd">
<!-- Generated by graphviz version 2.40.1 (20161225.0304)
 -->
<!-- Title: MultiplicityTableTaskIndexed Pages: 1 -->
<svg width="595pt" height="728pt"
 viewBox="0.00 0.00 595.00 728.00" xmlns="http://www.w3.org/2000/svg" xmlns:xlink="http://www.w3.org/1999/xlink">
<g id="graph0" class="graph" transform="scale(1 1) rotate(0) translate(4 724)">
<title>MultiplicityTableTaskIndexed</title>
<!-- Node1 -->
<g id="node1" class="node">
<title>Node1</title>
<polygon fill="#bfbfbf" stroke="#000000" points="307,-.5 307,-57.5 464,-57.5 464,-.5 307,-.5"/>
<text text-anchor="middle" x="385.5" y="-45.5" font-family="Helvetica,sans-Serif" font-size="10.00" fill="#000000">MultiplicityTableTaskIndexed</text>
<polyline fill="none" stroke="#000000" points="307,-38.5 464,-38.5 "/>
<text text-anchor="middle" x="385.5" y="-26.5" font-family="Helvetica,sans-Serif" font-size="10.00" fill="#000000"> </text>
<polyline fill="none" stroke="#000000" points="307,-19.5 464,-19.5 "/>
<text text-anchor="start" x="315" y="-7.5" font-family="Helvetica,sans-Serif" font-size="10.00" fill="#000000">+ process()</text>
</g>
<!-- Node2 -->
<g id="node2" class="node">
<title>Node2</title>
<g id="a_node2"><a xlink:href="../../d1/dbf/structo2_1_1framework_1_1Partition.html" target="_top" xlink:title="{o2::framework::Partition\l\&lt; aod::Tracks \&gt;\n||+ Partition()\l+ setTable()\l+ bindExternalIndices()\l+ getBoundToExternalIndices()\l+ updatePlaceholders()\l+ begin()\l+ begin()\l+ end()\l+ end()\l+ size()\l}">
<polygon fill="none" stroke="#000000" points="217,-105.5 217,-272.5 384,-272.5 384,-105.5 217,-105.5"/>
<text text-anchor="start" x="225" y="-260.5" font-family="Helvetica,sans-Serif" font-size="10.00" fill="#000000">o2::framework::Partition</text>
<text text-anchor="middle" x="300.5" y="-249.5" font-family="Helvetica,sans-Serif" font-size="10.00" fill="#000000">&lt; aod::Tracks &gt;</text>
<polyline fill="none" stroke="#000000" points="217,-242.5 384,-242.5 "/>
<text text-anchor="middle" x="300.5" y="-230.5" font-family="Helvetica,sans-Serif" font-size="10.00" fill="#000000"> </text>
<polyline fill="none" stroke="#000000" points="217,-223.5 384,-223.5 "/>
<text text-anchor="start" x="225" y="-211.5" font-family="Helvetica,sans-Serif" font-size="10.00" fill="#000000">+ Partition()</text>
<text text-anchor="start" x="225" y="-200.5" font-family="Helvetica,sans-Serif" font-size="10.00" fill="#000000">+ setTable()</text>
<text text-anchor="start" x="225" y="-189.5" font-family="Helvetica,sans-Serif" font-size="10.00" fill="#000000">+ bindExternalIndices()</text>
<text text-anchor="start" x="225" y="-178.5" font-family="Helvetica,sans-Serif" font-size="10.00" fill="#000000">+ getBoundToExternalIndices()</text>
<text text-anchor="start" x="225" y="-167.5" font-family="Helvetica,sans-Serif" font-size="10.00" fill="#000000">+ updatePlaceholders()</text>
<text text-anchor="start" x="225" y="-156.5" font-family="Helvetica,sans-Serif" font-size="10.00" fill="#000000">+ begin()</text>
<text text-anchor="start" x="225" y="-145.5" font-family="Helvetica,sans-Serif" font-size="10.00" fill="#000000">+ begin()</text>
<text text-anchor="start" x="225" y="-134.5" font-family="Helvetica,sans-Serif" font-size="10.00" fill="#000000">+ end()</text>
<text text-anchor="start" x="225" y="-123.5" font-family="Helvetica,sans-Serif" font-size="10.00" fill="#000000">+ end()</text>
<text text-anchor="start" x="225" y="-112.5" font-family="Helvetica,sans-Serif" font-size="10.00" fill="#000000">+ size()</text>
</a>
</g>
</g>
<!-- Node2&#45;&gt;Node1 -->
<g id="edge1" class="edge">
<title>Node2&#45;&gt;Node1</title>
<path fill="none" stroke="#404040" d="M344.9915,-105.2512C351.8,-92.4354 358.5401,-79.7481 364.5109,-68.5089"/>
<polygon fill="none" stroke="#404040" points="364.5695,-68.3985 363.852,-61.2232 370.1994,-57.8011 370.9169,-64.9765 364.5695,-68.3985"/>
<text text-anchor="middle" x="388" y="-79" font-family="Helvetica,sans-Serif" font-size="10.00" fill="#000000"> +tracklets</text>
</g>
<!-- Node3 -->
<g id="node3" class="node">
<title>Node3</title>
<polygon fill="none" stroke="#bfbfbf" points="0,-364.5 0,-432.5 147,-432.5 147,-364.5 0,-364.5"/>
<text text-anchor="start" x="8" y="-420.5" font-family="Helvetica,sans-Serif" font-size="10.00" fill="#000000">unique_ptr&lt; o2::soa</text>
<text text-anchor="middle" x="73.5" y="-409.5" font-family="Helvetica,sans-Serif" font-size="10.00" fill="#000000">::Filtered&lt; aod::Tracks &gt; &gt;</text>
<polyline fill="none" stroke="#bfbfbf" points="0,-402.5 147,-402.5 "/>
<text text-anchor="middle" x="73.5" y="-390.5" font-family="Helvetica,sans-Serif" font-size="10.00" fill="#000000"> </text>
<polyline fill="none" stroke="#bfbfbf" points="0,-383.5 147,-383.5 "/>
<text text-anchor="middle" x="73.5" y="-371.5" font-family="Helvetica,sans-Serif" font-size="10.00" fill="#000000"> </text>
</g>
<!-- Node3&#45;&gt;Node2 -->
<g id="edge2" class="edge">
<title>Node3&#45;&gt;Node2</title>
<path fill="none" stroke="#404040" d="M108.8063,-364.2723C123.1998,-350.4309 140.0584,-334.361 155.5,-320 172.3183,-304.3587 190.3817,-287.8287 207.8557,-271.974"/>
<polygon fill="none" stroke="#404040" points="208.0369,-271.8098 209.7978,-264.8169 216.93,-263.7528 215.1691,-270.7456 208.0369,-271.8098"/>
<text text-anchor="middle" x="212.5" y="-294" font-family="Helvetica,sans-Serif" font-size="10.00" fill="#000000"> +mFiltered</text>
</g>
<!-- Node4 -->
<g id="node4" class="node">
<title>Node4</title>
<g id="a_node4"><a xlink:href="../../d1/d9a/structo2_1_1framework_1_1expressions_1_1Filter.html" target="_top" xlink:title="A struct, containing the root of the expression tree. ">
<polygon fill="none" stroke="#000000" points="291.5,-524.5 291.5,-603.5 443.5,-603.5 443.5,-524.5 291.5,-524.5"/>
<text text-anchor="start" x="299.5" y="-591.5" font-family="Helvetica,sans-Serif" font-size="10.00" fill="#000000">o2::framework::expressions</text>
<text text-anchor="middle" x="367.5" y="-580.5" font-family="Helvetica,sans-Serif" font-size="10.00" fill="#000000">::Filter</text>
<polyline fill="none" stroke="#000000" points="291.5,-573.5 443.5,-573.5 "/>
<text text-anchor="middle" x="367.5" y="-561.5" font-family="Helvetica,sans-Serif" font-size="10.00" fill="#000000"> </text>
<polyline fill="none" stroke="#000000" points="291.5,-554.5 443.5,-554.5 "/>
<text text-anchor="start" x="299.5" y="-542.5" font-family="Helvetica,sans-Serif" font-size="10.00" fill="#000000">+ Filter()</text>
<text text-anchor="start" x="299.5" y="-531.5" font-family="Helvetica,sans-Serif" font-size="10.00" fill="#000000">+ Filter()</text>
</a>
</g>
</g>
<!-- Node4&#45;&gt;Node2 -->
<g id="edge3" class="edge">
<title>Node4&#45;&gt;Node2</title>
<path fill="none" stroke="#404040" d="M370.6673,-524.2971C373.8012,-470.4137 375.3944,-371.6057 353.5,-291 352.8821,-288.7251 352.2083,-286.443 351.4853,-284.1591"/>
<polygon fill="none" stroke="#404040" points="351.4562,-284.0761 345.6973,-279.7361 347.4885,-272.751 353.2474,-277.091 351.4562,-284.0761"/>
<text text-anchor="middle" x="389.5" y="-396" font-family="Helvetica,sans-Serif" font-size="10.00" fill="#000000"> +filter</text>
</g>
<!-- Node6 -->
<g id="node6" class="node">
<title>Node6</title>
<g id="a_node6"><a xlink:href="../../d1/dbf/structo2_1_1framework_1_1Partition.html" target="_top" xlink:title="{o2::framework::Partition\&lt; T \&gt;\n||+ Partition()\l+ setTable()\l+ bindExternalIndices()\l+ getBoundToExternalIndices()\l+ updatePlaceholders()\l+ begin()\l+ end()\l+ begin()\l+ end()\l+ size()\l}">
<polygon fill="none" stroke="#000000" points="165,-320.5 165,-476.5 332,-476.5 332,-320.5 165,-320.5"/>
<text text-anchor="middle" x="248.5" y="-464.5" font-family="Helvetica,sans-Serif" font-size="10.00" fill="#000000">o2::framework::Partition&lt; T &gt;</text>
<polyline fill="none" stroke="#000000" points="165,-457.5 332,-457.5 "/>
<text text-anchor="middle" x="248.5" y="-445.5" font-family="Helvetica,sans-Serif" font-size="10.00" fill="#000000"> </text>
<polyline fill="none" stroke="#000000" points="165,-438.5 332,-438.5 "/>
<text text-anchor="start" x="173" y="-426.5" font-family="Helvetica,sans-Serif" font-size="10.00" fill="#000000">+ Partition()</text>
<text text-anchor="start" x="173" y="-415.5" font-family="Helvetica,sans-Serif" font-size="10.00" fill="#000000">+ setTable()</text>
<text text-anchor="start" x="173" y="-404.5" font-family="Helvetica,sans-Serif" font-size="10.00" fill="#000000">+ bindExternalIndices()</text>
<text text-anchor="start" x="173" y="-393.5" font-family="Helvetica,sans-Serif" font-size="10.00" fill="#000000">+ getBoundToExternalIndices()</text>
<text text-anchor="start" x="173" y="-382.5" font-family="Helvetica,sans-Serif" font-size="10.00" fill="#000000">+ updatePlaceholders()</text>
<text text-anchor="start" x="173" y="-371.5" font-family="Helvetica,sans-Serif" font-size="10.00" fill="#000000">+ begin()</text>
<text text-anchor="start" x="173" y="-360.5" font-family="Helvetica,sans-Serif" font-size="10.00" fill="#000000">+ end()</text>
<text text-anchor="start" x="173" y="-349.5" font-family="Helvetica,sans-Serif" font-size="10.00" fill="#000000">+ begin()</text>
<text text-anchor="start" x="173" y="-338.5" font-family="Helvetica,sans-Serif" font-size="10.00" fill="#000000">+ end()</text>
<text text-anchor="start" x="173" y="-327.5" font-family="Helvetica,sans-Serif" font-size="10.00" fill="#000000">+ size()</text>
</a>
</g>
</g>
<!-- Node4&#45;&gt;Node6 -->
<g id="edge7" class="edge">
<title>Node4&#45;&gt;Node6</title>
<path fill="none" stroke="#404040" d="M333.6178,-524.1985C328.7737,-518.183 323.9344,-511.9868 319.5,-506 314.9571,-499.8667 310.3637,-493.4583 305.8141,-486.9573"/>
<polygon fill="none" stroke="#404040" points="305.54,-486.5608 298.8372,-483.9013 298.7142,-476.6912 305.4169,-479.3508 305.54,-486.5608"/>
<text text-anchor="middle" x="336.5" y="-498" font-family="Helvetica,sans-Serif" font-size="10.00" fill="#000000"> +filter</text>
</g>
<!-- Node5 -->
<g id="node5" class="node">
<title>Node5</title>
<polygon fill="none" stroke="#bfbfbf" points="292,-651.5 292,-719.5 443,-719.5 443,-651.5 292,-651.5"/>
<text text-anchor="start" x="300" y="-707.5" font-family="Helvetica,sans-Serif" font-size="10.00" fill="#000000">unique_ptr&lt; o2::framework</text>
<text text-anchor="middle" x="367.5" y="-696.5" font-family="Helvetica,sans-Serif" font-size="10.00" fill="#000000">::expressions::Node &gt;</text>
<polyline fill="none" stroke="#bfbfbf" points="292,-689.5 443,-689.5 "/>
<text text-anchor="middle" x="367.5" y="-677.5" font-family="Helvetica,sans-Serif" font-size="10.00" fill="#000000"> </text>
<polyline fill="none" stroke="#bfbfbf" points="292,-670.5 443,-670.5 "/>
<text text-anchor="middle" x="367.5" y="-658.5" font-family="Helvetica,sans-Serif" font-size="10.00" fill="#000000"> </text>
</g>
<!-- Node5&#45;&gt;Node4 -->
<g id="edge4" class="edge">
<title>Node5&#45;&gt;Node4</title>
<path fill="none" stroke="#404040" d="M367.5,-651.3321C367.5,-640.3926 367.5,-628.0204 367.5,-616.1017"/>
<polygon fill="none" stroke="#404040" points="367.5001,-615.9243 363.5,-609.9243 367.5,-603.9243 371.5,-609.9243 367.5001,-615.9243"/>
<text text-anchor="middle" x="385.5" y="-625" font-family="Helvetica,sans-Serif" font-size="10.00" fill="#000000"> +node</text>
</g>
<!-- Node6&#45;&gt;Node2 -->
<g id="edge5" class="edge">
<title>Node6&#45;&gt;Node2</title>
<path fill="none" stroke="#ffa500" d="M267.8747,-310.111C269.4041,-303.6352 270.9552,-297.2109 272.5,-291 273.9849,-285.0301 275.5606,-278.876 277.178,-272.6882"/>
<polygon fill="#ffa500" stroke="#ffa500" points="264.3597,-309.7723 265.4934,-320.3062 271.1762,-311.3644 264.3597,-309.7723"/>
<text text-anchor="middle" x="313" y="-294" font-family="Helvetica,sans-Serif" font-size="10.00" fill="#000000"> &lt; aod::Tracks &gt;</text>
</g>
<!-- Node7 -->
<g id="node7" class="node">
<title>Node7</title>
<polygon fill="none" stroke="#bfbfbf" points="158,-530 158,-598 273,-598 273,-530 158,-530"/>
<text text-anchor="start" x="166" y="-586" font-family="Helvetica,sans-Serif" font-size="10.00" fill="#000000">unique_ptr&lt; o2::soa</text>
<text text-anchor="middle" x="215.5" y="-575" font-family="Helvetica,sans-Serif" font-size="10.00" fill="#000000">::Filtered&lt; T &gt; &gt;</text>
<polyline fill="none" stroke="#bfbfbf" points="158,-568 273,-568 "/>
<text text-anchor="middle" x="215.5" y="-556" font-family="Helvetica,sans-Serif" font-size="10.00" fill="#000000"> </text>
<polyline fill="none" stroke="#bfbfbf" points="158,-549 273,-549 "/>
<text text-anchor="middle" x="215.5" y="-537" font-family="Helvetica,sans-Serif" font-size="10.00" fill="#000000"> </text>
</g>
<!-- Node7&#45;&gt;Node6 -->
<g id="edge6" class="edge">
<title>Node7&#45;&gt;Node6</title>
<path fill="none" stroke="#404040" d="M221.1369,-529.9048C223.0574,-518.7606 225.2818,-506.336 227.5,-495 227.9201,-492.8533 228.3504,-490.6809 228.789,-488.4907"/>
<polygon fill="none" stroke="#404040" points="228.8051,-488.4113 226.0835,-481.7334 231.2009,-476.6529 233.9225,-483.3307 228.8051,-488.4113"/>
<text text-anchor="middle" x="256.5" y="-498" font-family="Helvetica,sans-Serif" font-size="10.00" fill="#000000"> +mFiltered</text>
</g>
<!-- Node8 -->
<g id="node8" class="node">
<title>Node8</title>
<g id="a_node8"><a xlink:href="../../d6/d86/structo2_1_1framework_1_1Produces.html" target="_top" xlink:title="{o2::framework::Produces\l\&lt; aod::Mults \&gt;\n||}">
<polygon fill="none" stroke="#000000" points="423.5,-155 423.5,-223 561.5,-223 561.5,-155 423.5,-155"/>
<text text-anchor="start" x="431.5" y="-211" font-family="Helvetica,sans-Serif" font-size="10.00" fill="#000000">o2::framework::Produces</text>
<text text-anchor="middle" x="492.5" y="-200" font-family="Helvetica,sans-Serif" font-size="10.00" fill="#000000">&lt; aod::Mults &gt;</text>
<polyline fill="none" stroke="#000000" points="423.5,-193 561.5,-193 "/>
<text text-anchor="middle" x="492.5" y="-181" font-family="Helvetica,sans-Serif" font-size="10.00" fill="#000000"> </text>
<polyline fill="none" stroke="#000000" points="423.5,-174 561.5,-174 "/>
<text text-anchor="middle" x="492.5" y="-162" font-family="Helvetica,sans-Serif" font-size="10.00" fill="#000000"> </text>
</a>
</g>
</g>
<!-- Node8&#45;&gt;Node1 -->
<g id="edge8" class="edge">
<title>Node8&#45;&gt;Node1</title>
<path fill="none" stroke="#404040" d="M471.0803,-154.8223C456.7715,-132.2479 437.367,-102.1209 419.5,-76 417.645,-73.2881 415.7106,-70.504 413.7472,-67.7103"/>
<polygon fill="none" stroke="#404040" points="413.5556,-67.441 406.8183,-64.8703 406.5999,-57.6625 413.3373,-60.2332 413.5556,-67.441"/>
<text text-anchor="middle" x="443.5" y="-79" font-family="Helvetica,sans-Serif" font-size="10.00" fill="#000000"> +mult</text>
</g>
<!-- Node9 -->
<g id="node9" class="node">
<title>Node9</title>
<g id="a_node9"><a xlink:href="../../d6/d86/structo2_1_1framework_1_1Produces.html" target="_top" xlink:title="{o2::framework::Produces\&lt; T \&gt;\n||}">
<polygon fill="none" stroke="#000000" points="420,-370 420,-427 587,-427 587,-370 420,-370"/>
<text text-anchor="middle" x="503.5" y="-415" font-family="Helvetica,sans-Serif" font-size="10.00" fill="#000000">o2::framework::Produces&lt; T &gt;</text>
<polyline fill="none" stroke="#000000" points="420,-408 587,-408 "/>
<text text-anchor="middle" x="503.5" y="-396" font-family="Helvetica,sans-Serif" font-size="10.00" fill="#000000"> </text>
<polyline fill="none" stroke="#000000" points="420,-389 587,-389 "/>
<text text-anchor="middle" x="503.5" y="-377" font-family="Helvetica,sans-Serif" font-size="10.00" fill="#000000"> </text>
</a>
</g>
</g>
<!-- Node9&#45;&gt;Node8 -->
<g id="edge9" class="edge">
<title>Node9&#45;&gt;Node8</title>
<path fill="none" stroke="#ffa500" d="M501.4572,-359.5943C499.4016,-320.4432 496.2621,-260.6513 494.2981,-223.2457"/>
<polygon fill="#ffa500" stroke="#ffa500" points="497.9739,-360.0065 501.9936,-369.8092 504.9643,-359.6394 497.9739,-360.0065"/>
<text text-anchor="middle" x="535.5" y="-294" font-family="Helvetica,sans-Serif" font-size="10.00" fill="#000000"> &lt; aod::Mults &gt;</text>
</g>
</g>
</svg>
