<?xml version="1.0" encoding="UTF-8" standalone="no"?>
<!DOCTYPE svg PUBLIC "-//W3C//DTD SVG 1.1//EN"
 "http://www.w3.org/Graphics/SVG/1.1/DTD/svg11.dtd">
<!-- Generated by graphviz version 2.40.1 (20161225.0304)
 -->
<!-- Title: o2::framework::ReaderHolder&lt; T &gt; Pages: 1 -->
<svg width="318pt" height="204pt"
 viewBox="0.00 0.00 317.50 204.00" xmlns="http://www.w3.org/2000/svg" xmlns:xlink="http://www.w3.org/1999/xlink">
<g id="graph0" class="graph" transform="scale(1 1) rotate(0) translate(4 200)">
<title>o2::framework::ReaderHolder&lt; T &gt;</title>
<!-- Node1 -->
<g id="node1" class="node">
<title>Node1</title>
<polygon fill="#bfbfbf" stroke="#000000" points="105.5,-.5 105.5,-79.5 293.5,-79.5 293.5,-.5 105.5,-.5"/>
<text text-anchor="middle" x="199.5" y="-67.5" font-family="Helvetica,sans-Serif" font-size="10.00" fill="#000000">o2::framework::ReaderHolder&lt; T &gt;</text>
<polyline fill="none" stroke="#000000" points="105.5,-60.5 293.5,-60.5 "/>
<text text-anchor="middle" x="199.5" y="-48.5" font-family="Helvetica,sans-Serif" font-size="10.00" fill="#000000"> </text>
<polyline fill="none" stroke="#000000" points="105.5,-41.5 293.5,-41.5 "/>
<text text-anchor="start" x="113.5" y="-29.5" font-family="Helvetica,sans-Serif" font-size="10.00" fill="#000000">+ ReaderHolder()</text>
<text text-anchor="start" x="113.5" y="-18.5" font-family="Helvetica,sans-Serif" font-size="10.00" fill="#000000">+ ReaderHolder()</text>
<text text-anchor="start" x="113.5" y="-7.5" font-family="Helvetica,sans-Serif" font-size="10.00" fill="#000000">+ operator=()</text>
</g>
<!-- Node2 -->
<g id="node2" class="node">
<title>Node2</title>
<polygon fill="none" stroke="#bfbfbf" points="0,-138.5 0,-195.5 125,-195.5 125,-138.5 0,-138.5"/>
<text text-anchor="middle" x="62.5" y="-183.5" font-family="Helvetica,sans-Serif" font-size="10.00" fill="#000000">unique_ptr&lt; Reader &gt;</text>
<polyline fill="none" stroke="#bfbfbf" points="0,-176.5 125,-176.5 "/>
<text text-anchor="middle" x="62.5" y="-164.5" font-family="Helvetica,sans-Serif" font-size="10.00" fill="#000000"> </text>
<polyline fill="none" stroke="#bfbfbf" points="0,-157.5 125,-157.5 "/>
<text text-anchor="middle" x="62.5" y="-145.5" font-family="Helvetica,sans-Serif" font-size="10.00" fill="#000000"> </text>
</g>
<!-- Node2&#45;&gt;Node1 -->
<g id="edge1" class="edge">
<title>Node2&#45;&gt;Node1</title>
<path fill="none" stroke="#404040" d="M93.2455,-138.4987C109.3133,-123.6037 129.4117,-104.9724 147.7912,-87.9344"/>
<polygon fill="none" stroke="#404040" points="147.8503,-87.8797 149.5311,-80.8672 156.6507,-79.7216 154.9698,-86.7341 147.8503,-87.8797"/>
<text text-anchor="middle" x="157" y="-106.5" font-family="Helvetica,sans-Serif" font-size="10.00" fill="#000000"> +reader</text>
</g>
<!-- Node3 -->
<g id="node3" class="node">
<title>Node3</title>
<polygon fill="none" stroke="#bfbfbf" points="143,-138.5 143,-195.5 256,-195.5 256,-138.5 143,-138.5"/>
<text text-anchor="middle" x="199.5" y="-183.5" font-family="Helvetica,sans-Serif" font-size="10.00" fill="#000000">Remap64Bit_t&lt; T &gt;</text>
<polyline fill="none" stroke="#bfbfbf" points="143,-176.5 256,-176.5 "/>
<text text-anchor="middle" x="199.5" y="-164.5" font-family="Helvetica,sans-Serif" font-size="10.00" fill="#000000"> </text>
<polyline fill="none" stroke="#bfbfbf" points="143,-157.5 256,-157.5 "/>
<text text-anchor="middle" x="199.5" y="-145.5" font-family="Helvetica,sans-Serif" font-size="10.00" fill="#000000"> </text>
</g>
<!-- Node3&#45;&gt;Node1 -->
<g id="edge2" class="edge">
<title>Node3&#45;&gt;Node1</title>
<path fill="none" stroke="#404040" d="M199.5,-138.4987C199.5,-124.8801 199.5,-108.1381 199.5,-92.3462"/>
<polygon fill="none" stroke="#404040" points="199.5001,-91.963 195.5,-85.963 199.5,-79.963 203.5,-85.963 199.5001,-91.963"/>
<text text-anchor="middle" x="219.5" y="-106.5" font-family="Helvetica,sans-Serif" font-size="10.00" fill="#000000"> +buffer</text>
</g>
<!-- Node4 -->
<g id="node4" class="node">
<title>Node4</title>
<polygon fill="none" stroke="#bfbfbf" points="274,-138.5 274,-195.5 303,-195.5 303,-138.5 274,-138.5"/>
<text text-anchor="middle" x="288.5" y="-183.5" font-family="Helvetica,sans-Serif" font-size="10.00" fill="#000000">int</text>
<polyline fill="none" stroke="#bfbfbf" points="274,-176.5 303,-176.5 "/>
<text text-anchor="middle" x="288.5" y="-164.5" font-family="Helvetica,sans-Serif" font-size="10.00" fill="#000000"> </text>
<polyline fill="none" stroke="#bfbfbf" points="274,-157.5 303,-157.5 "/>
<text text-anchor="middle" x="288.5" y="-145.5" font-family="Helvetica,sans-Serif" font-size="10.00" fill="#000000"> </text>
</g>
<!-- Node4&#45;&gt;Node1 -->
<g id="edge3" class="edge">
<title>Node4&#45;&gt;Node1</title>
<path fill="none" stroke="#404040" d="M273.904,-143.7262C265.2886,-130.2183 254.0386,-112.9683 243.5,-98 241.5218,-95.1903 239.4675,-92.3232 237.3756,-89.4426"/>
<polygon fill="none" stroke="#404040" points="237.2884,-89.3242 230.51,-86.8638 230.1741,-79.6605 236.9525,-82.1209 237.2884,-89.3242"/>
<text text-anchor="middle" x="283.5" y="-112" font-family="Helvetica,sans-Serif" font-size="10.00" fill="#000000"> +pos</text>
<text text-anchor="middle" x="283.5" y="-101" font-family="Helvetica,sans-Serif" font-size="10.00" fill="#000000">+itemSize</text>
</g>
</g>
</svg>
