<?xml version="1.0" encoding="UTF-8" standalone="no"?>
<!DOCTYPE svg PUBLIC "-//W3C//DTD SVG 1.1//EN"
 "http://www.w3.org/Graphics/SVG/1.1/DTD/svg11.dtd">
<!-- Generated by graphviz version 2.40.1 (20161225.0304)
 -->
<!-- Title: o2::calibration::MeanVertexData Pages: 1 -->
<svg width="293pt" height="369pt"
 viewBox="0.00 0.00 293.00 369.00" xmlns="http://www.w3.org/2000/svg" xmlns:xlink="http://www.w3.org/1999/xlink">
<g id="graph0" class="graph" transform="scale(1 1) rotate(0) translate(4 365)">
<title>o2::calibration::MeanVertexData</title>
<!-- Node1 -->
<g id="node1" class="node">
<title>Node1</title>
<polygon fill="#bfbfbf" stroke="#000000" points="35.5,-.5 35.5,-200.5 208.5,-200.5 208.5,-.5 35.5,-.5"/>
<text text-anchor="middle" x="122" y="-188.5" font-family="Helvetica,sans-Serif" font-size="10.00" fill="#000000">o2::calibration::MeanVertexData</text>
<polyline fill="none" stroke="#000000" points="35.5,-181.5 208.5,-181.5 "/>
<text text-anchor="middle" x="122" y="-169.5" font-family="Helvetica,sans-Serif" font-size="10.00" fill="#000000"> </text>
<polyline fill="none" stroke="#000000" points="35.5,-162.5 208.5,-162.5 "/>
<text text-anchor="start" x="43.5" y="-150.5" font-family="Helvetica,sans-Serif" font-size="10.00" fill="#000000">+ MeanVertexData()</text>
<text text-anchor="start" x="43.5" y="-139.5" font-family="Helvetica,sans-Serif" font-size="10.00" fill="#000000">+ ~MeanVertexData()</text>
<text text-anchor="start" x="43.5" y="-128.5" font-family="Helvetica,sans-Serif" font-size="10.00" fill="#000000">+ MeanVertexData()</text>
<text text-anchor="start" x="43.5" y="-117.5" font-family="Helvetica,sans-Serif" font-size="10.00" fill="#000000">+ MeanVertexData()</text>
<text text-anchor="start" x="43.5" y="-106.5" font-family="Helvetica,sans-Serif" font-size="10.00" fill="#000000">+ MeanVertexData()</text>
<text text-anchor="start" x="43.5" y="-95.5" font-family="Helvetica,sans-Serif" font-size="10.00" fill="#000000">+ operator=()</text>
<text text-anchor="start" x="43.5" y="-84.5" font-family="Helvetica,sans-Serif" font-size="10.00" fill="#000000">+ operator=()</text>
<text text-anchor="start" x="43.5" y="-73.5" font-family="Helvetica,sans-Serif" font-size="10.00" fill="#000000">+ init()</text>
<text text-anchor="start" x="43.5" y="-62.5" font-family="Helvetica,sans-Serif" font-size="10.00" fill="#000000">+ getEntries()</text>
<text text-anchor="start" x="43.5" y="-51.5" font-family="Helvetica,sans-Serif" font-size="10.00" fill="#000000">+ print()</text>
<text text-anchor="start" x="43.5" y="-40.5" font-family="Helvetica,sans-Serif" font-size="10.00" fill="#000000">+ fill()</text>
<text text-anchor="start" x="43.5" y="-29.5" font-family="Helvetica,sans-Serif" font-size="10.00" fill="#000000">+ merge()</text>
<text text-anchor="start" x="43.5" y="-18.5" font-family="Helvetica,sans-Serif" font-size="10.00" fill="#000000">+ subtract()</text>
<text text-anchor="start" x="43.5" y="-7.5" font-family="Helvetica,sans-Serif" font-size="10.00" fill="#000000">+ ClassDefNV()</text>
</g>
<!-- Node2 -->
<g id="node2" class="node">
<title>Node2</title>
<g id="a_node2"><a xlink:href="../../d4/dc3/classfloat.html" target="_top" xlink:title="{float\n||}">
<polygon fill="none" stroke="#000000" points="0,-303.5 0,-360.5 38,-360.5 38,-303.5 0,-303.5"/>
<text text-anchor="middle" x="19" y="-348.5" font-family="Helvetica,sans-Serif" font-size="10.00" fill="#000000">float</text>
<polyline fill="none" stroke="#000000" points="0,-341.5 38,-341.5 "/>
<text text-anchor="middle" x="19" y="-329.5" font-family="Helvetica,sans-Serif" font-size="10.00" fill="#000000"> </text>
<polyline fill="none" stroke="#000000" points="0,-322.5 38,-322.5 "/>
<text text-anchor="middle" x="19" y="-310.5" font-family="Helvetica,sans-Serif" font-size="10.00" fill="#000000"> </text>
</a>
</g>
</g>
<!-- Node2&#45;&gt;Node1 -->
<g id="edge1" class="edge">
<title>Node2&#45;&gt;Node1</title>
<path fill="none" stroke="#404040" d="M19.2313,-303.1339C20.3148,-279.6806 23.9333,-246.1559 35,-219 36.0174,-216.5036 37.0989,-214.0114 38.2375,-211.5274"/>
<polygon fill="none" stroke="#404040" points="38.2687,-211.4641 37.3336,-204.3138 43.5742,-200.7006 44.5093,-207.8508 38.2687,-211.4641"/>
<text text-anchor="middle" x="58" y="-277" font-family="Helvetica,sans-Serif" font-size="10.00" fill="#000000"> +v2BinZ</text>
<text text-anchor="middle" x="58" y="-266" font-family="Helvetica,sans-Serif" font-size="10.00" fill="#000000">+rangeX</text>
<text text-anchor="middle" x="58" y="-255" font-family="Helvetica,sans-Serif" font-size="10.00" fill="#000000">+rangeY</text>
<text text-anchor="middle" x="58" y="-244" font-family="Helvetica,sans-Serif" font-size="10.00" fill="#000000">+rangeZ</text>
<text text-anchor="middle" x="58" y="-233" font-family="Helvetica,sans-Serif" font-size="10.00" fill="#000000">+v2BinX</text>
<text text-anchor="middle" x="58" y="-222" font-family="Helvetica,sans-Serif" font-size="10.00" fill="#000000">+v2BinY</text>
</g>
<!-- Node3 -->
<g id="node3" class="node">
<title>Node3</title>
<polygon fill="none" stroke="#bfbfbf" points="73.5,-303.5 73.5,-360.5 102.5,-360.5 102.5,-303.5 73.5,-303.5"/>
<text text-anchor="middle" x="88" y="-348.5" font-family="Helvetica,sans-Serif" font-size="10.00" fill="#000000">int</text>
<polyline fill="none" stroke="#bfbfbf" points="73.5,-341.5 102.5,-341.5 "/>
<text text-anchor="middle" x="88" y="-329.5" font-family="Helvetica,sans-Serif" font-size="10.00" fill="#000000"> </text>
<polyline fill="none" stroke="#bfbfbf" points="73.5,-322.5 102.5,-322.5 "/>
<text text-anchor="middle" x="88" y="-310.5" font-family="Helvetica,sans-Serif" font-size="10.00" fill="#000000"> </text>
</g>
<!-- Node3&#45;&gt;Node1 -->
<g id="edge2" class="edge">
<title>Node3&#45;&gt;Node1</title>
<path fill="none" stroke="#404040" d="M86.1778,-303.0491C85.2344,-280.1279 84.9966,-247.3623 89,-219 89.3057,-216.8342 89.6398,-214.652 89.9994,-212.4582"/>
<polygon fill="none" stroke="#404040" points="90.0012,-212.4484 87.141,-205.8287 92.1513,-200.6425 95.0115,-207.2622 90.0012,-212.4484"/>
<text text-anchor="middle" x="111.5" y="-266" font-family="Helvetica,sans-Serif" font-size="10.00" fill="#000000"> +nbinsX</text>
<text text-anchor="middle" x="111.5" y="-255" font-family="Helvetica,sans-Serif" font-size="10.00" fill="#000000">+nbinsY</text>
<text text-anchor="middle" x="111.5" y="-244" font-family="Helvetica,sans-Serif" font-size="10.00" fill="#000000">+nbinsZ</text>
<text text-anchor="middle" x="111.5" y="-233" font-family="Helvetica,sans-Serif" font-size="10.00" fill="#000000">+entries</text>
</g>
<!-- Node4 -->
<g id="node4" class="node">
<title>Node4</title>
<polygon fill="none" stroke="#bfbfbf" points="137,-303.5 137,-360.5 175,-360.5 175,-303.5 137,-303.5"/>
<text text-anchor="middle" x="156" y="-348.5" font-family="Helvetica,sans-Serif" font-size="10.00" fill="#000000">bool</text>
<polyline fill="none" stroke="#bfbfbf" points="137,-341.5 175,-341.5 "/>
<text text-anchor="middle" x="156" y="-329.5" font-family="Helvetica,sans-Serif" font-size="10.00" fill="#000000"> </text>
<polyline fill="none" stroke="#bfbfbf" points="137,-322.5 175,-322.5 "/>
<text text-anchor="middle" x="156" y="-310.5" font-family="Helvetica,sans-Serif" font-size="10.00" fill="#000000"> </text>
</g>
<!-- Node4&#45;&gt;Node1 -->
<g id="edge3" class="edge">
<title>Node4&#45;&gt;Node1</title>
<path fill="none" stroke="#404040" d="M151.7626,-303.1484C148.3856,-280.1552 143.4253,-246.3809 138.5184,-212.9711"/>
<polygon fill="none" stroke="#404040" points="138.4599,-212.5721 133.6305,-207.217 136.7161,-200.6994 141.5456,-206.0545 138.4599,-212.5721"/>
<text text-anchor="middle" x="168" y="-249.5" font-family="Helvetica,sans-Serif" font-size="10.00" fill="#000000"> +useFit</text>
</g>
<!-- Node5 -->
<g id="node5" class="node">
<title>Node5</title>
<polygon fill="none" stroke="#bfbfbf" points="193,-303.5 193,-360.5 285,-360.5 285,-303.5 193,-303.5"/>
<text text-anchor="middle" x="239" y="-348.5" font-family="Helvetica,sans-Serif" font-size="10.00" fill="#000000">vector&lt; float &gt;</text>
<polyline fill="none" stroke="#bfbfbf" points="193,-341.5 285,-341.5 "/>
<text text-anchor="middle" x="239" y="-329.5" font-family="Helvetica,sans-Serif" font-size="10.00" fill="#000000"> </text>
<polyline fill="none" stroke="#bfbfbf" points="193,-322.5 285,-322.5 "/>
<text text-anchor="middle" x="239" y="-310.5" font-family="Helvetica,sans-Serif" font-size="10.00" fill="#000000"> </text>
</g>
<!-- Node5&#45;&gt;Node1 -->
<g id="edge4" class="edge">
<title>Node5&#45;&gt;Node1</title>
<path fill="none" stroke="#404040" d="M228.2941,-303.1797C219.397,-280.046 205.9741,-246.9331 192,-219 190.784,-216.5692 189.5378,-214.1205 188.2665,-211.6603"/>
<polygon fill="none" stroke="#404040" points="188.1466,-211.4328 181.8093,-207.9921 182.5479,-200.8189 188.8853,-204.2597 188.1466,-211.4328"/>
<text text-anchor="middle" x="241.5" y="-260.5" font-family="Helvetica,sans-Serif" font-size="10.00" fill="#000000"> +histoX</text>
<text text-anchor="middle" x="241.5" y="-249.5" font-family="Helvetica,sans-Serif" font-size="10.00" fill="#000000">+histoY</text>
<text text-anchor="middle" x="241.5" y="-238.5" font-family="Helvetica,sans-Serif" font-size="10.00" fill="#000000">+histoZ</text>
</g>
</g>
</svg>
