<?xml version="1.0" encoding="UTF-8" standalone="no"?>
<!DOCTYPE svg PUBLIC "-//W3C//DTD SVG 1.1//EN"
 "http://www.w3.org/Graphics/SVG/1.1/DTD/svg11.dtd">
<!-- Generated by graphviz version 2.40.1 (20161225.0304)
 -->
<!-- Title: /home/travis/build/AliceO2Group/AliceO2/Detectors/MUON/MID/Tracking/test/testTracker.cxx Pages: 1 -->
<svg width="2295pt" height="430pt"
 viewBox="0.00 0.00 2295.00 430.00" xmlns="http://www.w3.org/2000/svg" xmlns:xlink="http://www.w3.org/1999/xlink">
<g id="graph0" class="graph" transform="scale(1 1) rotate(0) translate(4 426)">
<title>/home/travis/build/AliceO2Group/AliceO2/Detectors/MUON/MID/Tracking/test/testTracker.cxx</title>
<!-- Node0 -->
<g id="node1" class="node">
<title>Node0</title>
<polygon fill="#bfbfbf" stroke="#000000" points="1345,-369.5 1345,-421.5 1511,-421.5 1511,-369.5 1345,-369.5"/>
<text text-anchor="start" x="1353" y="-409.5" font-family="Helvetica,sans-Serif" font-size="10.00" fill="#000000">/home/travis/build</text>
<text text-anchor="start" x="1353" y="-398.5" font-family="Helvetica,sans-Serif" font-size="10.00" fill="#000000">/AliceO2Group/AliceO2</text>
<text text-anchor="start" x="1353" y="-387.5" font-family="Helvetica,sans-Serif" font-size="10.00" fill="#000000">/Detectors/MUON/MID/Tracking</text>
<text text-anchor="middle" x="1428" y="-376.5" font-family="Helvetica,sans-Serif" font-size="10.00" fill="#000000">/test/testTracker.cxx</text>
</g>
<!-- Node1 -->
<g id="node2" class="node">
<title>Node1</title>
<polygon fill="none" stroke="#bfbfbf" points="227,-308 227,-327 359,-327 359,-308 227,-308"/>
<text text-anchor="middle" x="293" y="-315" font-family="Helvetica,sans-Serif" font-size="10.00" fill="#000000">boost/test/unit_test.hpp</text>
</g>
<!-- Node0&#45;&gt;Node1 -->
<g id="edge1" class="edge">
<title>Node0&#45;&gt;Node1</title>
<path fill="none" stroke="#191970" d="M1344.8081,-394.6857C1165.5167,-392.0351 729.6354,-380.7743 368,-333 360.122,-331.9593 351.8347,-330.5597 343.7585,-329.0255"/>
<polygon fill="#191970" stroke="#191970" points="344.1783,-325.5406 333.6882,-327.0271 342.8157,-332.4067 344.1783,-325.5406"/>
</g>
<!-- Node2 -->
<g id="node3" class="node">
<title>Node2</title>
<polygon fill="none" stroke="#bfbfbf" points="377.5,-302.5 377.5,-332.5 538.5,-332.5 538.5,-302.5 377.5,-302.5"/>
<text text-anchor="start" x="385.5" y="-320.5" font-family="Helvetica,sans-Serif" font-size="10.00" fill="#000000">boost/test/data/monomorphic</text>
<text text-anchor="middle" x="458" y="-309.5" font-family="Helvetica,sans-Serif" font-size="10.00" fill="#000000">/generators/xrange.hpp</text>
</g>
<!-- Node0&#45;&gt;Node2 -->
<g id="edge2" class="edge">
<title>Node0&#45;&gt;Node2</title>
<path fill="none" stroke="#191970" d="M1344.9317,-392.3622C1190.2681,-385.9148 847.5512,-368.7836 549.0507,-333.0485"/>
<polygon fill="#191970" stroke="#191970" points="549.2443,-329.5466 538.897,-331.8237 548.4059,-336.4962 549.2443,-329.5466"/>
</g>
<!-- Node3 -->
<g id="node4" class="node">
<title>Node3</title>
<polygon fill="none" stroke="#bfbfbf" points="557,-302.5 557,-332.5 669,-332.5 669,-302.5 557,-302.5"/>
<text text-anchor="start" x="565" y="-320.5" font-family="Helvetica,sans-Serif" font-size="10.00" fill="#000000">boost/test/data/test</text>
<text text-anchor="middle" x="613" y="-309.5" font-family="Helvetica,sans-Serif" font-size="10.00" fill="#000000">_case.hpp</text>
</g>
<!-- Node0&#45;&gt;Node3 -->
<g id="edge3" class="edge">
<title>Node0&#45;&gt;Node3</title>
<path fill="none" stroke="#191970" d="M1344.892,-392.1718C1206.8074,-385.828 921.678,-369.2691 683,-333 681.7194,-332.8054 680.4273,-332.601 679.1266,-332.388"/>
<polygon fill="#191970" stroke="#191970" points="679.4964,-328.8991 669.0395,-330.6032 678.2768,-335.792 679.4964,-328.8991"/>
</g>
<!-- Node4 -->
<g id="node5" class="node">
<title>Node4</title>
<polygon fill="none" stroke="#bfbfbf" points="0,-118 0,-137 50,-137 50,-118 0,-118"/>
<text text-anchor="middle" x="25" y="-125" font-family="Helvetica,sans-Serif" font-size="10.00" fill="#000000">cstdint</text>
</g>
<!-- Node0&#45;&gt;Node4 -->
<g id="edge4" class="edge">
<title>Node0&#45;&gt;Node4</title>
<path fill="none" stroke="#191970" d="M1344.9126,-383.1216C1261.8663,-370.6888 1130.541,-350.8646 1017,-333 588.2043,-265.5331 470.3954,-281.4609 59,-143 57.1555,-142.3792 55.2764,-141.6911 53.3961,-140.9598"/>
<polygon fill="#191970" stroke="#191970" points="54.714,-137.7172 44.1397,-137.0577 51.9948,-144.1675 54.714,-137.7172"/>
</g>
<!-- Node5 -->
<g id="node6" class="node">
<title>Node5</title>
<polygon fill="none" stroke="#bfbfbf" points="2243,-118 2243,-137 2287,-137 2287,-118 2243,-118"/>
<text text-anchor="middle" x="2265" y="-125" font-family="Helvetica,sans-Serif" font-size="10.00" fill="#000000">string</text>
</g>
<!-- Node0&#45;&gt;Node5 -->
<g id="edge5" class="edge">
<title>Node0&#45;&gt;Node5</title>
<path fill="none" stroke="#191970" d="M1511.3642,-387.9885C1625.2567,-377.0901 1823.2051,-355.7008 1892,-333 1965.9133,-308.6102 2170.5522,-185.3344 2240.8899,-142.3277"/>
<polygon fill="#191970" stroke="#191970" points="2242.8286,-145.2447 2249.5278,-137.0367 2239.1722,-139.2755 2242.8286,-145.2447"/>
</g>
<!-- Node6 -->
<g id="node7" class="node">
<title>Node6</title>
<polygon fill="none" stroke="#bfbfbf" points="1980,-308 1980,-327 2036,-327 2036,-308 1980,-308"/>
<text text-anchor="middle" x="2008" y="-315" font-family="Helvetica,sans-Serif" font-size="10.00" fill="#000000">sstream</text>
</g>
<!-- Node0&#45;&gt;Node6 -->
<g id="edge6" class="edge">
<title>Node0&#45;&gt;Node6</title>
<path fill="none" stroke="#191970" d="M1511.0943,-391.9752C1617.7118,-386.0623 1807.7824,-370.8137 1966,-333 1969.175,-332.2412 1972.4387,-331.3142 1975.6765,-330.2945"/>
<polygon fill="#191970" stroke="#191970" points="1976.8714,-333.5849 1985.1978,-327.0335 1974.6032,-326.9626 1976.8714,-333.5849"/>
</g>
<!-- Node7 -->
<g id="node8" class="node">
<title>Node7</title>
<polygon fill="none" stroke="#bfbfbf" points="1766.5,-246.5 1766.5,-265.5 1813.5,-265.5 1813.5,-246.5 1766.5,-246.5"/>
<text text-anchor="middle" x="1790" y="-253.5" font-family="Helvetica,sans-Serif" font-size="10.00" fill="#000000">vector</text>
</g>
<!-- Node0&#45;&gt;Node7 -->
<g id="edge7" class="edge">
<title>Node0&#45;&gt;Node7</title>
<path fill="none" stroke="#191970" d="M1511.0892,-383.7893C1585.0399,-372.3007 1686.7932,-353.5539 1722,-333 1746.5615,-318.6609 1766.9094,-292.3074 1778.7626,-274.4718"/>
<polygon fill="#191970" stroke="#191970" points="1782.0149,-275.8818 1784.4465,-265.5698 1776.1149,-272.1147 1782.0149,-275.8818"/>
</g>
<!-- Node8 -->
<g id="node9" class="node">
<title>Node8</title>
<g id="a_node9"><a xlink:href="../../d6/d31/Cluster2D_8h.html" target="_top" xlink:title="Reconstructed cluster per RPC. ">
<polygon fill="none" stroke="#000000" points="856,-246.5 856,-265.5 1014,-265.5 1014,-246.5 856,-246.5"/>
<text text-anchor="middle" x="935" y="-253.5" font-family="Helvetica,sans-Serif" font-size="10.00" fill="#000000">DataFormatsMID/Cluster2D.h</text>
</a>
</g>
</g>
<!-- Node0&#45;&gt;Node8 -->
<g id="edge8" class="edge">
<title>Node0&#45;&gt;Node8</title>
<path fill="none" stroke="#191970" d="M1344.7719,-386.6617C1275.3482,-377.7472 1174.4891,-361.1822 1090,-333 1041.6467,-316.8712 989.3138,-288.3062 959.5083,-270.8694"/>
<polygon fill="#191970" stroke="#191970" points="961.0445,-267.7115 950.6563,-265.6289 957.4784,-273.7351 961.0445,-267.7115"/>
</g>
<!-- Node10 -->
<g id="node11" class="node">
<title>Node10</title>
<g id="a_node11"><a xlink:href="../../d4/d54/DataFormats_2Detectors_2MUON_2MID_2include_2DataFormatsMID_2Track_8h.html" target="_top" xlink:title="Reconstructed MID track. ">
<polygon fill="none" stroke="#000000" points="1448,-246.5 1448,-265.5 1584,-265.5 1584,-246.5 1448,-246.5"/>
<text text-anchor="middle" x="1516" y="-253.5" font-family="Helvetica,sans-Serif" font-size="10.00" fill="#000000">DataFormatsMID/Track.h</text>
</a>
</g>
</g>
<!-- Node0&#45;&gt;Node10 -->
<g id="edge11" class="edge">
<title>Node0&#45;&gt;Node10</title>
<path fill="none" stroke="#191970" d="M1444.5521,-369.2611C1462.0456,-341.53 1489.1768,-298.5209 1504.4796,-274.2624"/>
<polygon fill="#191970" stroke="#191970" points="1507.523,-275.9979 1509.8982,-265.6727 1501.6026,-272.2631 1507.523,-275.9979"/>
</g>
<!-- Node12 -->
<g id="node13" class="node">
<title>Node12</title>
<g id="a_node13"><a xlink:href="../../d2/d0e/Mapping_8h.html" target="_top" xlink:title="Mapping for MID. ">
<polygon fill="none" stroke="#000000" points="1599.5,-308 1599.5,-327 1712.5,-327 1712.5,-308 1599.5,-308"/>
<text text-anchor="middle" x="1656" y="-315" font-family="Helvetica,sans-Serif" font-size="10.00" fill="#000000">MIDBase/Mapping.h</text>
</a>
</g>
</g>
<!-- Node0&#45;&gt;Node12 -->
<g id="edge14" class="edge">
<title>Node0&#45;&gt;Node12</title>
<path fill="none" stroke="#191970" d="M1504.2377,-369.4187C1542.6693,-356.271 1587.5559,-340.9151 1618.4912,-330.332"/>
<polygon fill="#191970" stroke="#191970" points="1619.6904,-333.6209 1628.0191,-327.0724 1617.4245,-326.9978 1619.6904,-333.6209"/>
</g>
<!-- Node13 -->
<g id="node14" class="node">
<title>Node13</title>
<g id="a_node14"><a xlink:href="../../d7/d0a/MpArea_8h.html" target="_top" xlink:title="Mapping area for MID. ">
<polygon fill="none" stroke="#000000" points="1602,-246.5 1602,-265.5 1710,-265.5 1710,-246.5 1602,-246.5"/>
<text text-anchor="middle" x="1656" y="-253.5" font-family="Helvetica,sans-Serif" font-size="10.00" fill="#000000">MIDBase/MpArea.h</text>
</a>
</g>
</g>
<!-- Node0&#45;&gt;Node13 -->
<g id="edge19" class="edge">
<title>Node0&#45;&gt;Node13</title>
<path fill="none" stroke="#191970" d="M1470.6176,-369.4248C1518.0268,-340.4178 1592.9965,-294.5482 1631.4582,-271.0157"/>
<polygon fill="#191970" stroke="#191970" points="1633.7076,-273.7426 1640.411,-265.538 1630.0543,-267.7716 1633.7076,-273.7426"/>
</g>
<!-- Node14 -->
<g id="node15" class="node">
<title>Node14</title>
<g id="a_node15"><a xlink:href="../../d7/d40/HitFinder_8h.html" target="_top" xlink:title="Hit finder for MID. ">
<polygon fill="none" stroke="#000000" points="1284.5,-302.5 1284.5,-332.5 1397.5,-332.5 1397.5,-302.5 1284.5,-302.5"/>
<text text-anchor="start" x="1292.5" y="-320.5" font-family="Helvetica,sans-Serif" font-size="10.00" fill="#000000">MIDTestingSimTools</text>
<text text-anchor="middle" x="1341" y="-309.5" font-family="Helvetica,sans-Serif" font-size="10.00" fill="#000000">/HitFinder.h</text>
</a>
</g>
</g>
<!-- Node0&#45;&gt;Node14 -->
<g id="edge20" class="edge">
<title>Node0&#45;&gt;Node14</title>
<path fill="none" stroke="#191970" d="M1398.5458,-369.0928C1387.7038,-359.3724 1375.5578,-348.4828 1365.2287,-339.2223"/>
<polygon fill="#191970" stroke="#191970" points="1367.518,-336.574 1357.7358,-332.5046 1362.8451,-341.786 1367.518,-336.574"/>
</g>
<!-- Node33 -->
<g id="node34" class="node">
<title>Node33</title>
<g id="a_node34"><a xlink:href="../../d3/d93/TrackGenerator_8h.html" target="_top" xlink:title="Fast track generator for MID. ">
<polygon fill="none" stroke="#000000" points="1769.5,-302.5 1769.5,-332.5 1882.5,-332.5 1882.5,-302.5 1769.5,-302.5"/>
<text text-anchor="start" x="1777.5" y="-320.5" font-family="Helvetica,sans-Serif" font-size="10.00" fill="#000000">MIDTestingSimTools</text>
<text text-anchor="middle" x="1826" y="-309.5" font-family="Helvetica,sans-Serif" font-size="10.00" fill="#000000">/TrackGenerator.h</text>
</a>
</g>
</g>
<!-- Node0&#45;&gt;Node33 -->
<g id="edge46" class="edge">
<title>Node0&#45;&gt;Node33</title>
<path fill="none" stroke="#191970" d="M1511.1081,-380.2343C1577.2707,-367.932 1672.1867,-349.9506 1755,-333 1756.4678,-332.6996 1757.9522,-332.3936 1759.4485,-332.0834"/>
<polygon fill="#191970" stroke="#191970" points="1760.3789,-335.4645 1769.4469,-329.9853 1758.9412,-328.6137 1760.3789,-335.4645"/>
</g>
<!-- Node35 -->
<g id="node36" class="node">
<title>Node35</title>
<g id="a_node36"><a xlink:href="../../db/d8e/MUON_2MID_2Tracking_2include_2MIDTracking_2Tracker_8h.html" target="_top" xlink:title="Track reconstruction algorithm for MID. ">
<polygon fill="none" stroke="#000000" points="1099,-308 1099,-327 1221,-327 1221,-308 1099,-308"/>
<text text-anchor="middle" x="1160" y="-315" font-family="Helvetica,sans-Serif" font-size="10.00" fill="#000000">MIDTracking/Tracker.h</text>
</a>
</g>
</g>
<!-- Node0&#45;&gt;Node35 -->
<g id="edge51" class="edge">
<title>Node0&#45;&gt;Node35</title>
<path fill="none" stroke="#191970" d="M1344.6722,-371.2479C1297.5609,-357.5364 1240.6498,-340.9727 1202.5698,-329.8897"/>
<polygon fill="#191970" stroke="#191970" points="1203.4124,-326.4898 1192.8327,-327.0558 1201.4562,-333.2109 1203.4124,-326.4898"/>
</g>
<!-- Node8&#45;&gt;Node4 -->
<g id="edge10" class="edge">
<title>Node8&#45;&gt;Node4</title>
<path fill="none" stroke="#191970" d="M862.2077,-246.4702C799.0575,-237.5381 712.9123,-223.5638 681,-210 659.3175,-200.7842 660.1845,-186.9316 638,-179 395.2201,-92.1993 309.136,-205.5172 59,-143 56.8012,-142.4504 54.5692,-141.7622 52.3542,-140.9833"/>
<polygon fill="#191970" stroke="#191970" points="53.4881,-137.6661 42.9065,-137.1379 50.8492,-144.1496 53.4881,-137.6661"/>
</g>
<!-- Node9 -->
<g id="node10" class="node">
<title>Node9</title>
<polygon fill="none" stroke="#bfbfbf" points="690.5,-185 690.5,-204 747.5,-204 747.5,-185 690.5,-185"/>
<text text-anchor="middle" x="719" y="-192" font-family="Helvetica,sans-Serif" font-size="10.00" fill="#000000">ostream</text>
</g>
<!-- Node8&#45;&gt;Node9 -->
<g id="edge9" class="edge">
<title>Node8&#45;&gt;Node9</title>
<path fill="none" stroke="#191970" d="M891.3646,-246.4521C855.0354,-238.0922 802.1422,-224.9643 757,-210 754.857,-209.2896 752.6622,-208.5176 750.4615,-207.7101"/>
<polygon fill="#191970" stroke="#191970" points="751.5051,-204.3612 740.9156,-204.0238 748.9833,-210.8913 751.5051,-204.3612"/>
</g>
<!-- Node10&#45;&gt;Node9 -->
<g id="edge13" class="edge">
<title>Node10&#45;&gt;Node9</title>
<path fill="none" stroke="#191970" d="M1447.5963,-246.8408C1444.694,-246.5393 1441.8192,-246.2571 1439,-246 1136.7212,-218.4341 1053.2162,-276.2444 757,-210 754.197,-209.3731 751.3345,-208.5594 748.5007,-207.6331"/>
<polygon fill="#191970" stroke="#191970" points="749.6983,-204.3443 739.1051,-204.1584 747.2703,-210.9098 749.6983,-204.3443"/>
</g>
<!-- Node11 -->
<g id="node12" class="node">
<title>Node11</title>
<polygon fill="none" stroke="#bfbfbf" points="2183,-118 2183,-137 2225,-137 2225,-118 2183,-118"/>
<text text-anchor="middle" x="2204" y="-125" font-family="Helvetica,sans-Serif" font-size="10.00" fill="#000000">array</text>
</g>
<!-- Node10&#45;&gt;Node11 -->
<g id="edge12" class="edge">
<title>Node10&#45;&gt;Node11</title>
<path fill="none" stroke="#191970" d="M1513.3759,-246.2972C1509.5787,-229.837 1504.8426,-196.5255 1523,-179 1575.1246,-128.6896 2104.1053,-162.0483 2174,-143 2175.711,-142.5337 2177.4365,-141.9612 2179.1492,-141.3141"/>
<polygon fill="#191970" stroke="#191970" points="2180.9688,-144.3319 2188.6284,-137.012 2178.0758,-137.9577 2180.9688,-144.3319"/>
</g>
<!-- Node12&#45;&gt;Node7 -->
<g id="edge16" class="edge">
<title>Node12&#45;&gt;Node7</title>
<path fill="none" stroke="#191970" d="M1676.9375,-307.8906C1699.2598,-297.6457 1734.8037,-281.3326 1760.0757,-269.7339"/>
<polygon fill="#191970" stroke="#191970" points="1761.581,-272.8942 1769.2095,-265.5419 1758.6611,-266.5322 1761.581,-272.8942"/>
</g>
<!-- Node12&#45;&gt;Node11 -->
<g id="edge15" class="edge">
<title>Node12&#45;&gt;Node11</title>
<path fill="none" stroke="#191970" d="M1668.5252,-307.9258C1687.4199,-293.6677 1724.5647,-266.3525 1758,-246 1812.8485,-212.6129 1824.7195,-198.1773 1886,-179 2009.1087,-140.474 2050.7891,-181.1978 2174,-143 2175.4699,-142.5443 2176.9537,-142.0191 2178.4333,-141.4434"/>
<polygon fill="#191970" stroke="#191970" points="2180.29,-144.4438 2187.9401,-137.1139 2177.3888,-138.0733 2180.29,-144.4438"/>
</g>
<!-- Node12&#45;&gt;Node13 -->
<g id="edge17" class="edge">
<title>Node12&#45;&gt;Node13</title>
<path fill="none" stroke="#191970" d="M1656,-307.8906C1656,-299.3657 1656,-286.6392 1656,-275.9235"/>
<polygon fill="#191970" stroke="#191970" points="1659.5001,-275.7448 1656,-265.7449 1652.5001,-275.7449 1659.5001,-275.7448"/>
</g>
<!-- Node13&#45;&gt;Node11 -->
<g id="edge18" class="edge">
<title>Node13&#45;&gt;Node11</title>
<path fill="none" stroke="#191970" d="M1667.3902,-246.2382C1690.6477,-226.3993 1742.2303,-182.9084 1752,-179 1926.77,-109.0819 1993.146,-195.2006 2174,-143 2175.6651,-142.5194 2177.3457,-141.9431 2179.016,-141.2996"/>
<polygon fill="#191970" stroke="#191970" points="2180.639,-144.4064 2188.2904,-137.0779 2177.7389,-138.0354 2180.639,-144.4064"/>
</g>
<!-- Node14&#45;&gt;Node8 -->
<g id="edge38" class="edge">
<title>Node14&#45;&gt;Node8</title>
<path fill="none" stroke="#191970" d="M1284.1199,-308.8839C1211.8119,-297.9309 1086.8867,-279.0075 1007.725,-267.0162"/>
<polygon fill="#191970" stroke="#191970" points="1008.238,-263.5541 997.8266,-265.5168 1007.1896,-270.4751 1008.238,-263.5541"/>
</g>
<!-- Node14&#45;&gt;Node10 -->
<g id="edge39" class="edge">
<title>Node14&#45;&gt;Node10</title>
<path fill="none" stroke="#191970" d="M1383.8098,-302.4554C1413.009,-292.194 1451.2843,-278.7429 1479.1302,-268.9571"/>
<polygon fill="#191970" stroke="#191970" points="1480.6073,-272.1479 1488.8812,-265.5303 1478.2864,-265.5439 1480.6073,-272.1479"/>
</g>
<!-- Node15 -->
<g id="node16" class="node">
<title>Node15</title>
<g id="a_node16"><a xlink:href="../../dc/d73/Cartesian_8h.html" target="_top" xlink:title="MathUtils/Cartesian.h">
<polygon fill="none" stroke="#000000" points="1222,-185 1222,-204 1344,-204 1344,-185 1222,-185"/>
<text text-anchor="middle" x="1283" y="-192" font-family="Helvetica,sans-Serif" font-size="10.00" fill="#000000">MathUtils/Cartesian.h</text>
</a>
</g>
</g>
<!-- Node14&#45;&gt;Node15 -->
<g id="edge21" class="edge">
<title>Node14&#45;&gt;Node15</title>
<path fill="none" stroke="#191970" d="M1288.797,-302.4592C1271.1009,-294.5907 1253.2372,-282.9444 1243,-266 1231.7884,-247.4428 1248.1096,-225.6353 1263.1509,-211.0273"/>
<polygon fill="#191970" stroke="#191970" points="1265.7167,-213.4243 1270.7473,-204.0999 1260.9999,-208.2521 1265.7167,-213.4243"/>
</g>
<!-- Node31 -->
<g id="node32" class="node">
<title>Node31</title>
<g id="a_node32"><a xlink:href="../../de/d0c/GeometryTransformer_8h.html" target="_top" xlink:title="Geometry transformer for MID. ">
<polygon fill="none" stroke="#000000" points="1252,-246.5 1252,-265.5 1430,-265.5 1430,-246.5 1252,-246.5"/>
<text text-anchor="middle" x="1341" y="-253.5" font-family="Helvetica,sans-Serif" font-size="10.00" fill="#000000">MIDBase/GeometryTransformer.h</text>
</a>
</g>
</g>
<!-- Node14&#45;&gt;Node31 -->
<g id="edge40" class="edge">
<title>Node14&#45;&gt;Node31</title>
<path fill="none" stroke="#191970" d="M1341,-302.2977C1341,-294.3834 1341,-284.6043 1341,-276.0759"/>
<polygon fill="#191970" stroke="#191970" points="1344.5001,-275.8469 1341,-265.8469 1337.5001,-275.847 1344.5001,-275.8469"/>
</g>
<!-- Node16 -->
<g id="node17" class="node">
<title>Node16</title>
<g id="a_node17"><a xlink:href="../../df/d21/GPUCommonDef_8h.html" target="_top" xlink:title="GPUCommonDef.h">
<polygon fill="none" stroke="#000000" points="1484.5,-56.5 1484.5,-75.5 1591.5,-75.5 1591.5,-56.5 1484.5,-56.5"/>
<text text-anchor="middle" x="1538" y="-63.5" font-family="Helvetica,sans-Serif" font-size="10.00" fill="#000000">GPUCommonDef.h</text>
</a>
</g>
</g>
<!-- Node15&#45;&gt;Node16 -->
<g id="edge22" class="edge">
<title>Node15&#45;&gt;Node16</title>
<path fill="none" stroke="#191970" d="M1344.2692,-187.6107C1423.6914,-178.055 1553.775,-160.0259 1568,-143 1582.5698,-125.5615 1567.6264,-100.2257 1554.1127,-83.4406"/>
<polygon fill="#191970" stroke="#191970" points="1556.5023,-80.85 1547.3402,-75.5296 1551.1847,-85.4023 1556.5023,-80.85"/>
</g>
<!-- Node19 -->
<g id="node20" class="node">
<title>Node19</title>
<g id="a_node20"><a xlink:href="../../d2/d45/GPUCommonRtypes_8h.html" target="_top" xlink:title="GPUCommonRtypes.h">
<polygon fill="none" stroke="#000000" points="341.5,-118 341.5,-137 466.5,-137 466.5,-118 341.5,-118"/>
<text text-anchor="middle" x="404" y="-125" font-family="Helvetica,sans-Serif" font-size="10.00" fill="#000000">GPUCommonRtypes.h</text>
</a>
</g>
</g>
<!-- Node15&#45;&gt;Node19 -->
<g id="edge25" class="edge">
<title>Node15&#45;&gt;Node19</title>
<path fill="none" stroke="#191970" d="M1221.9496,-191.8087C1059.5043,-184.4557 619.247,-163.2238 475,-143 467.6156,-141.9647 459.8565,-140.5813 452.2894,-139.0657"/>
<polygon fill="#191970" stroke="#191970" points="453.0051,-135.6397 442.4999,-137.0153 451.57,-142.491 453.0051,-135.6397"/>
</g>
<!-- Node21 -->
<g id="node22" class="node">
<title>Node21</title>
<polygon fill="none" stroke="#bfbfbf" points="1615,-112.5 1615,-142.5 1779,-142.5 1779,-112.5 1615,-112.5"/>
<text text-anchor="start" x="1623" y="-130.5" font-family="Helvetica,sans-Serif" font-size="10.00" fill="#000000">Math/GenVector/Displacement</text>
<text text-anchor="middle" x="1697" y="-119.5" font-family="Helvetica,sans-Serif" font-size="10.00" fill="#000000">Vector3D.h</text>
</g>
<!-- Node15&#45;&gt;Node21 -->
<g id="edge27" class="edge">
<title>Node15&#45;&gt;Node21</title>
<path fill="none" stroke="#191970" d="M1341.8764,-184.9717C1410.3827,-173.8849 1524.3426,-155.4421 1604.6593,-142.444"/>
<polygon fill="#191970" stroke="#191970" points="1605.4615,-145.8598 1614.7739,-140.8071 1604.3431,-138.9497 1605.4615,-145.8598"/>
</g>
<!-- Node22 -->
<g id="node23" class="node">
<title>Node22</title>
<polygon fill="none" stroke="#bfbfbf" points="1797.5,-118 1797.5,-137 1986.5,-137 1986.5,-118 1797.5,-118"/>
<text text-anchor="middle" x="1892" y="-125" font-family="Helvetica,sans-Serif" font-size="10.00" fill="#000000">Math/GenVector/PositionVector3D.h</text>
</g>
<!-- Node15&#45;&gt;Node22 -->
<g id="edge28" class="edge">
<title>Node15&#45;&gt;Node22</title>
<path fill="none" stroke="#191970" d="M1344.0169,-187.8841C1369.9108,-185.1007 1400.425,-181.8526 1428,-179 1587.9445,-162.4542 1628.4328,-162.8574 1788,-143 1798.8182,-141.6537 1810.2486,-140.0921 1821.4169,-138.4888"/>
<polygon fill="#191970" stroke="#191970" points="1822.1834,-141.9142 1831.5747,-137.0097 1821.1747,-134.9872 1822.1834,-141.9142"/>
</g>
<!-- Node23 -->
<g id="node24" class="node">
<title>Node23</title>
<polygon fill="none" stroke="#bfbfbf" points="2005,-118 2005,-137 2165,-137 2165,-118 2005,-118"/>
<text text-anchor="middle" x="2085" y="-125" font-family="Helvetica,sans-Serif" font-size="10.00" fill="#000000">Math/GenVector/Rotation3D.h</text>
</g>
<!-- Node15&#45;&gt;Node23 -->
<g id="edge29" class="edge">
<title>Node15&#45;&gt;Node23</title>
<path fill="none" stroke="#191970" d="M1344.3253,-187.3517C1370.1354,-184.4972 1400.5038,-181.3399 1428,-179 1680.04,-157.5518 1744.8039,-172.7443 1996,-143 2005.5945,-141.8639 2015.725,-140.3771 2025.5779,-138.7741"/>
<polygon fill="#191970" stroke="#191970" points="2026.4293,-142.1802 2035.711,-137.0714 2025.2693,-135.2769 2026.4293,-142.1802"/>
</g>
<!-- Node24 -->
<g id="node25" class="node">
<title>Node24</title>
<polygon fill="none" stroke="#bfbfbf" points="551,-118 551,-137 719,-137 719,-118 551,-118"/>
<text text-anchor="middle" x="635" y="-125" font-family="Helvetica,sans-Serif" font-size="10.00" fill="#000000">Math/GenVector/Transform3D.h</text>
</g>
<!-- Node15&#45;&gt;Node24 -->
<g id="edge30" class="edge">
<title>Node15&#45;&gt;Node24</title>
<path fill="none" stroke="#191970" d="M1221.6554,-190.271C1119.1664,-182.8781 906.7368,-166.1564 728,-143 718.2603,-141.7382 707.9774,-140.2164 697.941,-138.6258"/>
<polygon fill="#191970" stroke="#191970" points="698.4468,-135.1622 688.016,-137.0194 697.3283,-142.0723 698.4468,-135.1622"/>
</g>
<!-- Node25 -->
<g id="node26" class="node">
<title>Node25</title>
<polygon fill="none" stroke="#bfbfbf" points="737.5,-118 737.5,-137 910.5,-137 910.5,-118 737.5,-118"/>
<text text-anchor="middle" x="824" y="-125" font-family="Helvetica,sans-Serif" font-size="10.00" fill="#000000">Math/GenVector/Translation3D.h</text>
</g>
<!-- Node15&#45;&gt;Node25 -->
<g id="edge31" class="edge">
<title>Node15&#45;&gt;Node25</title>
<path fill="none" stroke="#191970" d="M1221.9317,-186.1995C1149.752,-176.3045 1026.041,-159.0813 920,-143 910.9291,-141.6244 901.3833,-140.1343 891.973,-138.6404"/>
<polygon fill="#191970" stroke="#191970" points="892.2707,-135.1437 881.8439,-137.0231 891.1669,-142.0561 892.2707,-135.1437"/>
</g>
<!-- Node26 -->
<g id="node27" class="node">
<title>Node26</title>
<polygon fill="none" stroke="#bfbfbf" points="929,-112.5 929,-142.5 1093,-142.5 1093,-112.5 929,-112.5"/>
<text text-anchor="start" x="937" y="-130.5" font-family="Helvetica,sans-Serif" font-size="10.00" fill="#000000">Math/GenVector/Displacement</text>
<text text-anchor="middle" x="1011" y="-119.5" font-family="Helvetica,sans-Serif" font-size="10.00" fill="#000000">Vector2D.h</text>
</g>
<!-- Node15&#45;&gt;Node26 -->
<g id="edge32" class="edge">
<title>Node15&#45;&gt;Node26</title>
<path fill="none" stroke="#191970" d="M1244.3179,-184.9717C1202.1547,-174.5859 1133.7851,-157.7449 1081.9292,-144.9715"/>
<polygon fill="#191970" stroke="#191970" points="1082.6671,-141.5487 1072.1202,-142.5553 1080.9929,-148.3456 1082.6671,-141.5487"/>
</g>
<!-- Node27 -->
<g id="node28" class="node">
<title>Node27</title>
<polygon fill="none" stroke="#bfbfbf" points="1111.5,-118 1111.5,-137 1300.5,-137 1300.5,-118 1111.5,-118"/>
<text text-anchor="middle" x="1206" y="-125" font-family="Helvetica,sans-Serif" font-size="10.00" fill="#000000">Math/GenVector/PositionVector2D.h</text>
</g>
<!-- Node15&#45;&gt;Node27 -->
<g id="edge33" class="edge">
<title>Node15&#45;&gt;Node27</title>
<path fill="none" stroke="#191970" d="M1271.9678,-184.9005C1259.6172,-174.1539 1239.3977,-156.5603 1224.5943,-143.6794"/>
<polygon fill="#191970" stroke="#191970" points="1226.8532,-141.0055 1217.0118,-137.0817 1222.2582,-146.2863 1226.8532,-141.0055"/>
</g>
<!-- Node28 -->
<g id="node29" class="node">
<title>Node28</title>
<polygon fill="none" stroke="#bfbfbf" points="1319,-118 1319,-137 1401,-137 1401,-118 1319,-118"/>
<text text-anchor="middle" x="1360" y="-125" font-family="Helvetica,sans-Serif" font-size="10.00" fill="#000000">TGeoMatrix.h</text>
</g>
<!-- Node15&#45;&gt;Node28 -->
<g id="edge34" class="edge">
<title>Node15&#45;&gt;Node28</title>
<path fill="none" stroke="#191970" d="M1294.0322,-184.9005C1306.3828,-174.1539 1326.6023,-156.5603 1341.4057,-143.6794"/>
<polygon fill="#191970" stroke="#191970" points="1343.7418,-146.2863 1348.9882,-137.0817 1339.1468,-141.0055 1343.7418,-146.2863"/>
</g>
<!-- Node29 -->
<g id="node30" class="node">
<title>Node29</title>
<polygon fill="none" stroke="#bfbfbf" points="484.5,-118 484.5,-137 533.5,-137 533.5,-118 484.5,-118"/>
<text text-anchor="middle" x="509" y="-125" font-family="Helvetica,sans-Serif" font-size="10.00" fill="#000000">iosfwd</text>
</g>
<!-- Node15&#45;&gt;Node29 -->
<g id="edge35" class="edge">
<title>Node15&#45;&gt;Node29</title>
<path fill="none" stroke="#191970" d="M1221.7607,-191.541C1056.0532,-183.3511 606.9405,-159.8764 542,-143 540.0243,-142.4866 538.0227,-141.8565 536.033,-141.1474"/>
<polygon fill="#191970" stroke="#191970" points="536.9366,-137.7322 526.3597,-137.1163 534.244,-144.1936 536.9366,-137.7322"/>
</g>
<!-- Node30 -->
<g id="node31" class="node">
<title>Node30</title>
<g id="a_node31"><a xlink:href="../../d1/da8/GPUROOTCartesianFwd_8h.html" target="_top" xlink:title="GPUROOTCartesianFwd.h">
<polygon fill="none" stroke="#000000" points="1419,-118 1419,-137 1559,-137 1559,-118 1419,-118"/>
<text text-anchor="middle" x="1489" y="-125" font-family="Helvetica,sans-Serif" font-size="10.00" fill="#000000">GPUROOTCartesianFwd.h</text>
</a>
</g>
</g>
<!-- Node15&#45;&gt;Node30 -->
<g id="edge36" class="edge">
<title>Node15&#45;&gt;Node30</title>
<path fill="none" stroke="#191970" d="M1312.5148,-184.9005C1348.6159,-173.1589 1409.8482,-153.2436 1449.8544,-140.2318"/>
<polygon fill="#191970" stroke="#191970" points="1451.1129,-143.5031 1459.54,-137.0817 1448.9478,-136.8463 1451.1129,-143.5031"/>
</g>
<!-- Node17 -->
<g id="node18" class="node">
<title>Node17</title>
<g id="a_node18"><a xlink:href="../../d5/d93/GPUCommonDefSettings_8h.html" target="_top" xlink:title="GPUCommonDefSettings.h">
<polygon fill="none" stroke="#000000" points="1387,-.5 1387,-19.5 1535,-19.5 1535,-.5 1387,-.5"/>
<text text-anchor="middle" x="1461" y="-7.5" font-family="Helvetica,sans-Serif" font-size="10.00" fill="#000000">GPUCommonDefSettings.h</text>
</a>
</g>
</g>
<!-- Node16&#45;&gt;Node17 -->
<g id="edge23" class="edge">
<title>Node16&#45;&gt;Node17</title>
<path fill="none" stroke="#191970" d="M1524.5876,-56.2455C1512.9943,-47.814 1496.0252,-35.4729 1482.5322,-25.6598"/>
<polygon fill="#191970" stroke="#191970" points="1484.4047,-22.6938 1474.2587,-19.6427 1480.2874,-28.355 1484.4047,-22.6938"/>
</g>
<!-- Node18 -->
<g id="node19" class="node">
<title>Node18</title>
<g id="a_node19"><a xlink:href="../../da/d5a/GPUCommonDefAPI_8h.html" target="_top" xlink:title="GPUCommonDefAPI.h">
<polygon fill="none" stroke="#000000" points="1553,-.5 1553,-19.5 1677,-19.5 1677,-.5 1553,-.5"/>
<text text-anchor="middle" x="1615" y="-7.5" font-family="Helvetica,sans-Serif" font-size="10.00" fill="#000000">GPUCommonDefAPI.h</text>
</a>
</g>
</g>
<!-- Node16&#45;&gt;Node18 -->
<g id="edge24" class="edge">
<title>Node16&#45;&gt;Node18</title>
<path fill="none" stroke="#191970" d="M1551.4124,-56.2455C1563.0057,-47.814 1579.9748,-35.4729 1593.4678,-25.6598"/>
<polygon fill="#191970" stroke="#191970" points="1595.7126,-28.355 1601.7413,-19.6427 1591.5953,-22.6938 1595.7126,-28.355"/>
</g>
<!-- Node20 -->
<g id="node21" class="node">
<title>Node20</title>
<polygon fill="none" stroke="#bfbfbf" points="374.5,-56.5 374.5,-75.5 433.5,-75.5 433.5,-56.5 374.5,-56.5"/>
<text text-anchor="middle" x="404" y="-63.5" font-family="Helvetica,sans-Serif" font-size="10.00" fill="#000000">Rtypes.h</text>
</g>
<!-- Node19&#45;&gt;Node20 -->
<g id="edge26" class="edge">
<title>Node19&#45;&gt;Node20</title>
<path fill="none" stroke="#191970" d="M404,-117.8906C404,-109.3657 404,-96.6392 404,-85.9235"/>
<polygon fill="#191970" stroke="#191970" points="407.5001,-85.7448 404,-75.7449 400.5001,-85.7449 407.5001,-85.7448"/>
</g>
<!-- Node30&#45;&gt;Node16 -->
<g id="edge37" class="edge">
<title>Node30&#45;&gt;Node16</title>
<path fill="none" stroke="#191970" d="M1496.6563,-117.8906C1503.9489,-108.7376 1515.1007,-94.7409 1523.9852,-83.59"/>
<polygon fill="#191970" stroke="#191970" points="1526.7417,-85.747 1530.2358,-75.7449 1521.267,-81.3849 1526.7417,-85.747"/>
</g>
<!-- Node31&#45;&gt;Node11 -->
<g id="edge41" class="edge">
<title>Node31&#45;&gt;Node11</title>
<path fill="none" stroke="#191970" d="M1356.1821,-246.4637C1384.4084,-229.3064 1447.4285,-193.6588 1506,-179 1794.4241,-106.8158 1887.0875,-220.9758 2174,-143 2175.7113,-142.5349 2177.4371,-141.9633 2179.15,-141.3169"/>
<polygon fill="#191970" stroke="#191970" points="2180.9688,-144.3351 2188.6296,-137.0165 2178.0769,-137.9604 2180.9688,-144.3351"/>
</g>
<!-- Node31&#45;&gt;Node15 -->
<g id="edge45" class="edge">
<title>Node31&#45;&gt;Node15</title>
<path fill="none" stroke="#191970" d="M1331.9375,-246.3906C1323.2207,-237.1478 1309.846,-222.966 1299.2804,-211.7628"/>
<polygon fill="#191970" stroke="#191970" points="1301.5976,-209.1186 1292.1903,-204.2449 1296.505,-213.9213 1301.5976,-209.1186"/>
</g>
<!-- Node32 -->
<g id="node33" class="node">
<title>Node32</title>
<g id="a_node33"><a xlink:href="../../dc/de4/DetectorParameters_8h.html" target="_top" xlink:title="Useful detector parameters for MID. ">
<polygon fill="none" stroke="#000000" points="1531.5,-185 1531.5,-204 1700.5,-204 1700.5,-185 1531.5,-185"/>
<text text-anchor="middle" x="1616" y="-192" font-family="Helvetica,sans-Serif" font-size="10.00" fill="#000000">MIDBase/DetectorParameters.h</text>
</a>
</g>
</g>
<!-- Node31&#45;&gt;Node32 -->
<g id="edge42" class="edge">
<title>Node31&#45;&gt;Node32</title>
<path fill="none" stroke="#191970" d="M1383.667,-246.4581C1432.0378,-235.6406 1510.9369,-217.9959 1563.1607,-206.3168"/>
<polygon fill="#191970" stroke="#191970" points="1564.2378,-209.6624 1573.2329,-204.0643 1562.7101,-202.8312 1564.2378,-209.6624"/>
</g>
<!-- Node32&#45;&gt;Node5 -->
<g id="edge44" class="edge">
<title>Node32&#45;&gt;Node5</title>
<path fill="none" stroke="#191970" d="M1700.7048,-191.4086C1845.8757,-185.4496 2136.0366,-170.4705 2234,-143 2235.7128,-142.5197 2237.4434,-141.9437 2239.1648,-141.3003"/>
<polygon fill="#191970" stroke="#191970" points="2240.9991,-144.3167 2248.7365,-137.0791 2238.1745,-137.9119 2240.9991,-144.3167"/>
</g>
<!-- Node32&#45;&gt;Node11 -->
<g id="edge43" class="edge">
<title>Node32&#45;&gt;Node11</title>
<path fill="none" stroke="#191970" d="M1671.3501,-184.966C1685.2447,-182.7877 1700.1436,-180.6354 1714,-179 1917.656,-154.9632 1976.7755,-199.1786 2174,-143 2175.6668,-142.5252 2177.3487,-141.9534 2179.0199,-141.3133"/>
<polygon fill="#191970" stroke="#191970" points="2180.639,-144.4221 2188.2968,-137.1004 2177.7445,-138.0485 2180.639,-144.4221"/>
</g>
<!-- Node33&#45;&gt;Node7 -->
<g id="edge48" class="edge">
<title>Node33&#45;&gt;Node7</title>
<path fill="none" stroke="#191970" d="M1817.1011,-302.2977C1812.2081,-293.9388 1806.0974,-283.4997 1800.9176,-274.6509"/>
<polygon fill="#191970" stroke="#191970" points="1803.8365,-272.7089 1795.7641,-265.8469 1797.7953,-276.2452 1803.8365,-272.7089"/>
</g>
<!-- Node33&#45;&gt;Node10 -->
<g id="edge50" class="edge">
<title>Node33&#45;&gt;Node10</title>
<path fill="none" stroke="#191970" d="M1769.1412,-306.22C1713.8518,-295.2512 1630.2603,-278.6678 1574.4392,-267.5936"/>
<polygon fill="#191970" stroke="#191970" points="1574.8423,-264.1054 1564.3524,-265.5925 1573.4801,-270.9716 1574.8423,-264.1054"/>
</g>
<!-- Node33&#45;&gt;Node11 -->
<g id="edge47" class="edge">
<title>Node33&#45;&gt;Node11</title>
<path fill="none" stroke="#191970" d="M1831.3916,-302.2754C1837.2257,-287.0824 1847.5301,-263.537 1861,-246 1888.6329,-210.0237 1896.8365,-198.0641 1938,-179 2034.2781,-134.4106 2073.09,-175.7848 2174,-143 2175.4636,-142.5245 2176.9424,-141.9835 2178.4181,-141.3955"/>
<polygon fill="#191970" stroke="#191970" points="2180.2905,-144.3868 2187.9128,-137.0281 2177.3652,-138.0273 2180.2905,-144.3868"/>
</g>
<!-- Node34 -->
<g id="node35" class="node">
<title>Node34</title>
<polygon fill="none" stroke="#bfbfbf" points="1870,-246.5 1870,-265.5 1924,-265.5 1924,-246.5 1870,-246.5"/>
<text text-anchor="middle" x="1897" y="-253.5" font-family="Helvetica,sans-Serif" font-size="10.00" fill="#000000">random</text>
</g>
<!-- Node33&#45;&gt;Node34 -->
<g id="edge49" class="edge">
<title>Node33&#45;&gt;Node34</title>
<path fill="none" stroke="#191970" d="M1843.5506,-302.2977C1854.0221,-293.2274 1867.3211,-281.7077 1878.0338,-272.4285"/>
<polygon fill="#191970" stroke="#191970" points="1880.3649,-275.0398 1885.632,-265.8469 1875.7818,-269.7487 1880.3649,-275.0398"/>
</g>
<!-- Node35&#45;&gt;Node7 -->
<g id="edge52" class="edge">
<title>Node35&#45;&gt;Node7</title>
<path fill="none" stroke="#191970" d="M1221.0337,-308.7419C1238.741,-306.3644 1258.1214,-303.9196 1276,-302 1472.4091,-280.9116 1522.667,-287.7846 1719,-266 1731.2484,-264.641 1744.6416,-262.8375 1756.4624,-261.1367"/>
<polygon fill="#191970" stroke="#191970" points="1756.9912,-264.5966 1766.3772,-259.6821 1755.9751,-257.6708 1756.9912,-264.5966"/>
</g>
<!-- Node35&#45;&gt;Node8 -->
<g id="edge54" class="edge">
<title>Node35&#45;&gt;Node8</title>
<path fill="none" stroke="#191970" d="M1124.8438,-307.8906C1085.7111,-297.1944 1022.379,-279.8836 979.7418,-268.2294"/>
<polygon fill="#191970" stroke="#191970" points="980.4784,-264.8024 969.9094,-265.5419 978.6327,-271.5547 980.4784,-264.8024"/>
</g>
<!-- Node35&#45;&gt;Node10 -->
<g id="edge65" class="edge">
<title>Node35&#45;&gt;Node10</title>
<path fill="none" stroke="#191970" d="M1215.2344,-307.9581C1278.8586,-296.9668 1383.2833,-278.9272 1450.8287,-267.2585"/>
<polygon fill="#191970" stroke="#191970" points="1451.6707,-270.665 1460.9289,-265.5137 1450.4791,-263.7672 1451.6707,-270.665"/>
</g>
<!-- Node35&#45;&gt;Node31 -->
<g id="edge66" class="edge">
<title>Node35&#45;&gt;Node31</title>
<path fill="none" stroke="#191970" d="M1188.2813,-307.8906C1219.23,-297.3749 1268.9942,-280.466 1303.257,-268.8243"/>
<polygon fill="#191970" stroke="#191970" points="1304.575,-272.073 1312.9173,-265.5419 1302.3229,-265.4452 1304.575,-272.073"/>
</g>
<!-- Node36 -->
<g id="node37" class="node">
<title>Node36</title>
<polygon fill="none" stroke="#bfbfbf" points="614,-246.5 614,-265.5 662,-265.5 662,-246.5 614,-246.5"/>
<text text-anchor="middle" x="638" y="-253.5" font-family="Helvetica,sans-Serif" font-size="10.00" fill="#000000">gsl/gsl</text>
</g>
<!-- Node35&#45;&gt;Node36 -->
<g id="edge53" class="edge">
<title>Node35&#45;&gt;Node36</title>
<path fill="none" stroke="#191970" d="M1098.8322,-314.7791C1007.6014,-309.9038 830.5243,-297.2919 671.951,-265.8515"/>
<polygon fill="#191970" stroke="#191970" points="672.5101,-262.3939 662.0161,-263.8518 671.1288,-269.2563 672.5101,-262.3939"/>
</g>
<!-- Node37 -->
<g id="node38" class="node">
<title>Node37</title>
<g id="a_node38"><a xlink:href="../../d0/daa/Cluster3D_8h.html" target="_top" xlink:title="Reconstructed MID cluster (global coordinates) ">
<polygon fill="none" stroke="#000000" points="680,-246.5 680,-265.5 838,-265.5 838,-246.5 680,-246.5"/>
<text text-anchor="middle" x="759" y="-253.5" font-family="Helvetica,sans-Serif" font-size="10.00" fill="#000000">DataFormatsMID/Cluster3D.h</text>
</a>
</g>
</g>
<!-- Node35&#45;&gt;Node37 -->
<g id="edge55" class="edge">
<title>Node35&#45;&gt;Node37</title>
<path fill="none" stroke="#191970" d="M1098.6602,-308.0925C1026.6401,-297.047 907.3501,-278.752 831.0074,-267.0435"/>
<polygon fill="#191970" stroke="#191970" points="831.4075,-263.564 820.9924,-265.5076 830.3463,-270.4831 831.4075,-263.564"/>
</g>
<!-- Node38 -->
<g id="node39" class="node">
<title>Node38</title>
<g id="a_node39"><a xlink:href="../../d2/df9/MUON_2MID_2include_2DataFormatsMID_2ROFRecord_8h.html" target="_top" xlink:title="Definition of the MID event record. ">
<polygon fill="none" stroke="#000000" points="1032.5,-246.5 1032.5,-265.5 1195.5,-265.5 1195.5,-246.5 1032.5,-246.5"/>
<text text-anchor="middle" x="1114" y="-253.5" font-family="Helvetica,sans-Serif" font-size="10.00" fill="#000000">DataFormatsMID/ROFRecord.h</text>
</a>
</g>
</g>
<!-- Node35&#45;&gt;Node38 -->
<g id="edge58" class="edge">
<title>Node35&#45;&gt;Node38</title>
<path fill="none" stroke="#191970" d="M1152.8125,-307.8906C1146.0334,-298.8273 1135.7022,-285.0149 1127.4027,-273.9188"/>
<polygon fill="#191970" stroke="#191970" points="1130.0812,-271.6563 1121.2888,-265.7449 1124.4757,-275.849 1130.0812,-271.6563"/>
</g>
<!-- Node37&#45;&gt;Node4 -->
<g id="edge57" class="edge">
<title>Node37&#45;&gt;Node4</title>
<path fill="none" stroke="#191970" d="M731.9193,-246.3481C709.0549,-237.831 675.7084,-224.5366 648,-210 625.5113,-198.2018 624.1069,-186.9872 600,-179 371.2525,-103.21 292.6573,-201.9388 59,-143 56.8024,-142.4457 54.5713,-141.7539 52.3569,-140.9726"/>
<polygon fill="#191970" stroke="#191970" points="53.4918,-137.6557 42.9104,-137.1224 50.8497,-144.1379 53.4918,-137.6557"/>
</g>
<!-- Node37&#45;&gt;Node9 -->
<g id="edge56" class="edge">
<title>Node37&#45;&gt;Node9</title>
<path fill="none" stroke="#191970" d="M752.75,-246.3906C746.9135,-237.417 738.0491,-223.7879 730.8694,-212.7491"/>
<polygon fill="#191970" stroke="#191970" points="733.7245,-210.7194 725.3381,-204.2449 727.8564,-214.5361 733.7245,-210.7194"/>
</g>
<!-- Node39 -->
<g id="node40" class="node">
<title>Node39</title>
<g id="a_node40"><a xlink:href="../../d9/d80/InteractionRecord_8h.html" target="_top" xlink:title="CommonDataFormat/Interaction\lRecord.h">
<polygon fill="none" stroke="#000000" points="766,-179.5 766,-209.5 940,-209.5 940,-179.5 766,-179.5"/>
<text text-anchor="start" x="774" y="-197.5" font-family="Helvetica,sans-Serif" font-size="10.00" fill="#000000">CommonDataFormat/Interaction</text>
<text text-anchor="middle" x="853" y="-186.5" font-family="Helvetica,sans-Serif" font-size="10.00" fill="#000000">Record.h</text>
</a>
</g>
</g>
<!-- Node38&#45;&gt;Node39 -->
<g id="edge59" class="edge">
<title>Node38&#45;&gt;Node39</title>
<path fill="none" stroke="#191970" d="M1073.5051,-246.4581C1034.4051,-237.2449 974.2874,-223.0792 926.6942,-211.8647"/>
<polygon fill="#191970" stroke="#191970" points="927.2767,-208.4062 916.7405,-209.5193 925.6712,-215.2196 927.2767,-208.4062"/>
</g>
<!-- Node39&#45;&gt;Node4 -->
<g id="edge62" class="edge">
<title>Node39&#45;&gt;Node4</title>
<path fill="none" stroke="#191970" d="M765.8091,-180.1169C762.5008,-179.7143 759.2224,-179.3397 756,-179 447.5186,-146.4808 360.3244,-216.6336 59,-143 56.6605,-142.4283 54.2844,-141.6964 51.9317,-140.8629"/>
<polygon fill="#191970" stroke="#191970" points="53.1248,-137.5693 42.5445,-137.0137 50.469,-144.046 53.1248,-137.5693"/>
</g>
<!-- Node39&#45;&gt;Node19 -->
<g id="edge60" class="edge">
<title>Node39&#45;&gt;Node19</title>
<path fill="none" stroke="#191970" d="M765.77,-180.4303C762.4727,-179.94 759.2072,-179.4616 756,-179 631.3744,-161.0641 599.0694,-164.4479 475,-143 468.4012,-141.8593 461.4865,-140.5252 454.6707,-139.1271"/>
<polygon fill="#191970" stroke="#191970" points="455.3105,-135.6851 444.8037,-137.0479 453.8671,-142.5347 455.3105,-135.6851"/>
</g>
<!-- Node39&#45;&gt;Node29 -->
<g id="edge61" class="edge">
<title>Node39&#45;&gt;Node29</title>
<path fill="none" stroke="#191970" d="M765.9065,-180.3726C675.8018,-165.713 547.4054,-144.6816 542,-143 540.1415,-142.4218 538.2533,-141.7589 536.3694,-141.0399"/>
<polygon fill="#191970" stroke="#191970" points="537.7148,-137.8087 527.1429,-137.111 534.9722,-144.2491 537.7148,-137.8087"/>
</g>
<!-- Node40 -->
<g id="node41" class="node">
<title>Node40</title>
<polygon fill="none" stroke="#bfbfbf" points="276.5,-118 276.5,-137 323.5,-137 323.5,-118 276.5,-118"/>
<text text-anchor="middle" x="300" y="-125" font-family="Helvetica,sans-Serif" font-size="10.00" fill="#000000">cmath</text>
</g>
<!-- Node39&#45;&gt;Node40 -->
<g id="edge63" class="edge">
<title>Node39&#45;&gt;Node40</title>
<path fill="none" stroke="#191970" d="M765.7935,-180.2539C762.4895,-179.813 759.2163,-179.393 756,-179 568.2735,-156.0634 514.377,-193.0595 332,-143 330.0802,-142.4731 328.1363,-141.8329 326.2048,-141.1164"/>
<polygon fill="#191970" stroke="#191970" points="327.3882,-137.8152 316.8197,-137.0686 324.6159,-144.2428 327.3882,-137.8152"/>
</g>
<!-- Node41 -->
<g id="node42" class="node">
<title>Node41</title>
<g id="a_node42"><a xlink:href="../../d4/dc6/LHCConstants_8h.html" target="_top" xlink:title="Header to collect LHC related constants. ">
<polygon fill="none" stroke="#000000" points="68,-118 68,-137 258,-137 258,-118 68,-118"/>
<text text-anchor="middle" x="163" y="-125" font-family="Helvetica,sans-Serif" font-size="10.00" fill="#000000">CommonConstants/LHCConstants.h</text>
</a>
</g>
</g>
<!-- Node39&#45;&gt;Node41 -->
<g id="edge64" class="edge">
<title>Node39&#45;&gt;Node41</title>
<path fill="none" stroke="#191970" d="M765.799,-180.2075C762.4935,-179.7796 759.2185,-179.3749 756,-179 539.5423,-153.7841 483.5872,-167.0786 267,-143 255.6336,-141.7364 243.602,-140.1629 231.9115,-138.507"/>
<polygon fill="#191970" stroke="#191970" points="232.1494,-135.0051 221.7511,-137.0363 231.1465,-141.9329 232.1494,-135.0051"/>
</g>
</g>
</svg>
