<?xml version="1.0" encoding="UTF-8" standalone="no"?>
<!DOCTYPE svg PUBLIC "-//W3C//DTD SVG 1.1//EN"
 "http://www.w3.org/Graphics/SVG/1.1/DTD/svg11.dtd">
<!-- Generated by graphviz version 2.40.1 (20161225.0304)
 -->
<!-- Title: /home/travis/build/AliceO2Group/AliceO2/Framework/Core/include/Framework/ServiceRegistryHelpers.h Pages: 1 -->
<svg width="824pt" height="229pt"
 viewBox="0.00 0.00 823.50 229.00" xmlns="http://www.w3.org/2000/svg" xmlns:xlink="http://www.w3.org/1999/xlink">
<g id="graph0" class="graph" transform="scale(1 1) rotate(0) translate(4 225)">
<title>/home/travis/build/AliceO2Group/AliceO2/Framework/Core/include/Framework/ServiceRegistryHelpers.h</title>
<!-- Node0 -->
<g id="node1" class="node">
<title>Node0</title>
<polygon fill="#bfbfbf" stroke="#000000" points="383,-168.5 383,-220.5 582,-220.5 582,-168.5 383,-168.5"/>
<text text-anchor="start" x="391" y="-208.5" font-family="Helvetica,sans-Serif" font-size="10.00" fill="#000000">/home/travis/build</text>
<text text-anchor="start" x="391" y="-197.5" font-family="Helvetica,sans-Serif" font-size="10.00" fill="#000000">/AliceO2Group/AliceO2</text>
<text text-anchor="start" x="391" y="-186.5" font-family="Helvetica,sans-Serif" font-size="10.00" fill="#000000">/Framework/Core/include</text>
<text text-anchor="middle" x="482.5" y="-175.5" font-family="Helvetica,sans-Serif" font-size="10.00" fill="#000000">/Framework/ServiceRegistryHelpers.h</text>
</g>
<!-- Node1 -->
<g id="node2" class="node">
<title>Node1</title>
<g id="a_node2"><a xlink:href="../../d3/d28/ServiceHandle_8h.html" target="_top" xlink:title="Framework/ServiceHandle.h">
<polygon fill="none" stroke="#000000" points="0,-112.5 0,-131.5 153,-131.5 153,-112.5 0,-112.5"/>
<text text-anchor="middle" x="76.5" y="-119.5" font-family="Helvetica,sans-Serif" font-size="10.00" fill="#000000">Framework/ServiceHandle.h</text>
</a>
</g>
</g>
<!-- Node0&#45;&gt;Node1 -->
<g id="edge1" class="edge">
<title>Node0&#45;&gt;Node1</title>
<path fill="none" stroke="#191970" d="M382.9213,-176.7181C307.0402,-163.1679 204.8531,-144.9202 139.8109,-133.3055"/>
<polygon fill="#191970" stroke="#191970" points="140.1602,-129.8126 129.7006,-131.5001 138.9296,-136.7036 140.1602,-129.8126"/>
</g>
<!-- Node2 -->
<g id="node3" class="node">
<title>Node2</title>
<polygon fill="none" stroke="#bfbfbf" points="107.5,-56.5 107.5,-75.5 151.5,-75.5 151.5,-56.5 107.5,-56.5"/>
<text text-anchor="middle" x="129.5" y="-63.5" font-family="Helvetica,sans-Serif" font-size="10.00" fill="#000000">string</text>
</g>
<!-- Node0&#45;&gt;Node2 -->
<g id="edge10" class="edge">
<title>Node0&#45;&gt;Node2</title>
<path fill="none" stroke="#191970" d="M382.8001,-185.4374C326.7287,-177.2201 256.8854,-161.607 200.5,-132 177.6187,-119.9854 156.6407,-98.6364 143.5159,-83.4747"/>
<polygon fill="#191970" stroke="#191970" points="146.177,-81.201 137.0701,-75.7866 140.8129,-85.6984 146.177,-81.201"/>
</g>
<!-- Node3 -->
<g id="node4" class="node">
<title>Node3</title>
<g id="a_node4"><a xlink:href="../../d2/d9a/TypeIdHelpers_8h.html" target="_top" xlink:title="Framework/TypeIdHelpers.h">
<polygon fill="none" stroke="#000000" points="209.5,-112.5 209.5,-131.5 361.5,-131.5 361.5,-112.5 209.5,-112.5"/>
<text text-anchor="middle" x="285.5" y="-119.5" font-family="Helvetica,sans-Serif" font-size="10.00" fill="#000000">Framework/TypeIdHelpers.h</text>
</a>
</g>
</g>
<!-- Node0&#45;&gt;Node3 -->
<g id="edge3" class="edge">
<title>Node0&#45;&gt;Node3</title>
<path fill="none" stroke="#191970" d="M411.6568,-168.4283C380.8842,-157.1033 346.1926,-144.3361 320.9881,-135.0604"/>
<polygon fill="#191970" stroke="#191970" points="322.0773,-131.7318 311.4838,-131.5626 319.6597,-138.301 322.0773,-131.7318"/>
</g>
<!-- Node7 -->
<g id="node8" class="node">
<title>Node7</title>
<polygon fill="none" stroke="#bfbfbf" points="379.5,-112.5 379.5,-131.5 443.5,-131.5 443.5,-112.5 379.5,-112.5"/>
<text text-anchor="middle" x="411.5" y="-119.5" font-family="Helvetica,sans-Serif" font-size="10.00" fill="#000000">algorithm</text>
</g>
<!-- Node0&#45;&gt;Node7 -->
<g id="edge7" class="edge">
<title>Node0&#45;&gt;Node7</title>
<path fill="none" stroke="#191970" d="M456.8674,-168.3258C447.2574,-158.5128 436.5995,-147.6298 428.0298,-138.879"/>
<polygon fill="#191970" stroke="#191970" points="430.3342,-136.2297 420.8367,-131.534 425.3329,-141.1275 430.3342,-136.2297"/>
</g>
<!-- Node8 -->
<g id="node9" class="node">
<title>Node8</title>
<polygon fill="none" stroke="#bfbfbf" points="461.5,-112.5 461.5,-131.5 503.5,-131.5 503.5,-112.5 461.5,-112.5"/>
<text text-anchor="middle" x="482.5" y="-119.5" font-family="Helvetica,sans-Serif" font-size="10.00" fill="#000000">array</text>
</g>
<!-- Node0&#45;&gt;Node8 -->
<g id="edge8" class="edge">
<title>Node0&#45;&gt;Node8</title>
<path fill="none" stroke="#191970" d="M482.5,-168.3258C482.5,-159.5142 482.5,-149.8397 482.5,-141.621"/>
<polygon fill="#191970" stroke="#191970" points="486.0001,-141.534 482.5,-131.534 479.0001,-141.534 486.0001,-141.534"/>
</g>
<!-- Node9 -->
<g id="node10" class="node">
<title>Node9</title>
<polygon fill="none" stroke="#bfbfbf" points="522,-112.5 522,-131.5 587,-131.5 587,-112.5 522,-112.5"/>
<text text-anchor="middle" x="554.5" y="-119.5" font-family="Helvetica,sans-Serif" font-size="10.00" fill="#000000">functional</text>
</g>
<!-- Node0&#45;&gt;Node9 -->
<g id="edge9" class="edge">
<title>Node0&#45;&gt;Node9</title>
<path fill="none" stroke="#191970" d="M508.4937,-168.3258C518.239,-158.5128 529.047,-147.6298 537.7374,-138.879"/>
<polygon fill="#191970" stroke="#191970" points="540.4686,-141.0958 545.0317,-131.534 535.5017,-136.1632 540.4686,-141.0958"/>
</g>
<!-- Node10 -->
<g id="node11" class="node">
<title>Node10</title>
<polygon fill="none" stroke="#bfbfbf" points="605,-112.5 605,-131.5 674,-131.5 674,-112.5 605,-112.5"/>
<text text-anchor="middle" x="639.5" y="-119.5" font-family="Helvetica,sans-Serif" font-size="10.00" fill="#000000">type_traits</text>
</g>
<!-- Node0&#45;&gt;Node10 -->
<g id="edge11" class="edge">
<title>Node0&#45;&gt;Node10</title>
<path fill="none" stroke="#191970" d="M539.1806,-168.3258C563.0329,-157.3112 589.8047,-144.9485 609.6889,-135.7663"/>
<polygon fill="#191970" stroke="#191970" points="611.2426,-138.904 618.854,-131.534 608.3078,-132.5489 611.2426,-138.904"/>
</g>
<!-- Node11 -->
<g id="node12" class="node">
<title>Node11</title>
<polygon fill="none" stroke="#bfbfbf" points="692,-112.5 692,-131.5 749,-131.5 749,-112.5 692,-112.5"/>
<text text-anchor="middle" x="720.5" y="-119.5" font-family="Helvetica,sans-Serif" font-size="10.00" fill="#000000">typeinfo</text>
</g>
<!-- Node0&#45;&gt;Node11 -->
<g id="edge12" class="edge">
<title>Node0&#45;&gt;Node11</title>
<path fill="none" stroke="#191970" d="M568.0872,-168.4283C607.1196,-156.5381 651.371,-143.0582 682.0972,-133.6983"/>
<polygon fill="#191970" stroke="#191970" points="683.4257,-136.9525 691.9718,-130.6903 681.3858,-130.2563 683.4257,-136.9525"/>
</g>
<!-- Node12 -->
<g id="node13" class="node">
<title>Node12</title>
<polygon fill="none" stroke="#bfbfbf" points="767.5,-112.5 767.5,-131.5 815.5,-131.5 815.5,-112.5 767.5,-112.5"/>
<text text-anchor="middle" x="791.5" y="-119.5" font-family="Helvetica,sans-Serif" font-size="10.00" fill="#000000">thread</text>
</g>
<!-- Node0&#45;&gt;Node12 -->
<g id="edge13" class="edge">
<title>Node0&#45;&gt;Node12</title>
<path fill="none" stroke="#191970" d="M582.2423,-173.7169C632.3148,-162.8515 694.0633,-148.8022 757.6073,-132.1099"/>
<polygon fill="#191970" stroke="#191970" points="758.6335,-135.459 767.4062,-129.5184 756.8437,-128.6916 758.6335,-135.459"/>
</g>
<!-- Node1&#45;&gt;Node2 -->
<g id="edge2" class="edge">
<title>Node1&#45;&gt;Node2</title>
<path fill="none" stroke="#191970" d="M85.7319,-112.2455C93.3317,-104.2155 104.2877,-92.6394 113.3368,-83.0781"/>
<polygon fill="#191970" stroke="#191970" points="116.0421,-85.3115 120.3739,-75.6427 110.958,-80.4998 116.0421,-85.3115"/>
</g>
<!-- Node4 -->
<g id="node5" class="node">
<title>Node4</title>
<polygon fill="none" stroke="#bfbfbf" points="171,-56.5 171,-75.5 244,-75.5 244,-56.5 171,-56.5"/>
<text text-anchor="middle" x="207.5" y="-63.5" font-family="Helvetica,sans-Serif" font-size="10.00" fill="#000000">string_view</text>
</g>
<!-- Node3&#45;&gt;Node4 -->
<g id="edge4" class="edge">
<title>Node3&#45;&gt;Node4</title>
<path fill="none" stroke="#191970" d="M271.9134,-112.2455C260.1695,-103.814 242.9801,-91.4729 229.3118,-81.6598"/>
<polygon fill="#191970" stroke="#191970" points="231.0954,-78.6316 220.9309,-75.6427 227.0129,-84.3179 231.0954,-78.6316"/>
</g>
<!-- Node5 -->
<g id="node6" class="node">
<title>Node5</title>
<g id="a_node6"><a xlink:href="../../db/dff/StringHelpers_8h.html" target="_top" xlink:title="Framework/StringHelpers.h">
<polygon fill="none" stroke="#000000" points="262,-56.5 262,-75.5 411,-75.5 411,-56.5 262,-56.5"/>
<text text-anchor="middle" x="336.5" y="-63.5" font-family="Helvetica,sans-Serif" font-size="10.00" fill="#000000">Framework/StringHelpers.h</text>
</a>
</g>
</g>
<!-- Node3&#45;&gt;Node5 -->
<g id="edge5" class="edge">
<title>Node3&#45;&gt;Node5</title>
<path fill="none" stroke="#191970" d="M294.3835,-112.2455C301.6966,-104.2155 312.2391,-92.6394 320.9467,-83.0781"/>
<polygon fill="#191970" stroke="#191970" points="323.5727,-85.3928 327.7183,-75.6427 318.3972,-80.6795 323.5727,-85.3928"/>
</g>
<!-- Node6 -->
<g id="node7" class="node">
<title>Node6</title>
<polygon fill="none" stroke="#bfbfbf" points="311.5,-.5 311.5,-19.5 361.5,-19.5 361.5,-.5 311.5,-.5"/>
<text text-anchor="middle" x="336.5" y="-7.5" font-family="Helvetica,sans-Serif" font-size="10.00" fill="#000000">cstdint</text>
</g>
<!-- Node5&#45;&gt;Node6 -->
<g id="edge6" class="edge">
<title>Node5&#45;&gt;Node6</title>
<path fill="none" stroke="#191970" d="M336.5,-56.2455C336.5,-48.9382 336.5,-38.6944 336.5,-29.7046"/>
<polygon fill="#191970" stroke="#191970" points="340.0001,-29.6426 336.5,-19.6427 333.0001,-29.6427 340.0001,-29.6426"/>
</g>
</g>
</svg>
