<?xml version="1.0" encoding="UTF-8" standalone="no"?>
<!DOCTYPE svg PUBLIC "-//W3C//DTD SVG 1.1//EN"
 "http://www.w3.org/Graphics/SVG/1.1/DTD/svg11.dtd">
<!-- Generated by graphviz version 2.40.1 (20161225.0304)
 -->
<!-- Title: /home/travis/build/AliceO2Group/AliceO2/Framework/Core/include/Framework/ConfigParamStore.h Pages: 1 -->
<svg width="939pt" height="296pt"
 viewBox="0.00 0.00 939.00 296.00" xmlns="http://www.w3.org/2000/svg" xmlns:xlink="http://www.w3.org/1999/xlink">
<g id="graph0" class="graph" transform="scale(1 1) rotate(0) translate(4 292)">
<title>/home/travis/build/AliceO2Group/AliceO2/Framework/Core/include/Framework/ConfigParamStore.h</title>
<!-- Node0 -->
<g id="node1" class="node">
<title>Node0</title>
<polygon fill="#bfbfbf" stroke="#000000" points="669,-235.5 669,-287.5 842,-287.5 842,-235.5 669,-235.5"/>
<text text-anchor="start" x="677" y="-275.5" font-family="Helvetica,sans-Serif" font-size="10.00" fill="#000000">/home/travis/build</text>
<text text-anchor="start" x="677" y="-264.5" font-family="Helvetica,sans-Serif" font-size="10.00" fill="#000000">/AliceO2Group/AliceO2</text>
<text text-anchor="start" x="677" y="-253.5" font-family="Helvetica,sans-Serif" font-size="10.00" fill="#000000">/Framework/Core/include</text>
<text text-anchor="middle" x="755.5" y="-242.5" font-family="Helvetica,sans-Serif" font-size="10.00" fill="#000000">/Framework/ConfigParamStore.h</text>
</g>
<!-- Node1 -->
<g id="node2" class="node">
<title>Node1</title>
<g id="a_node2"><a xlink:href="../../df/d72/ParamRetriever_8h.html" target="_top" xlink:title="Framework/ParamRetriever.h">
<polygon fill="none" stroke="#000000" points="677,-179.5 677,-198.5 834,-198.5 834,-179.5 677,-179.5"/>
<text text-anchor="middle" x="755.5" y="-186.5" font-family="Helvetica,sans-Serif" font-size="10.00" fill="#000000">Framework/ParamRetriever.h</text>
</a>
</g>
</g>
<!-- Node0&#45;&gt;Node1 -->
<g id="edge1" class="edge">
<title>Node0&#45;&gt;Node1</title>
<path fill="none" stroke="#191970" d="M755.5,-235.3258C755.5,-226.5142 755.5,-216.8397 755.5,-208.621"/>
<polygon fill="#191970" stroke="#191970" points="759.0001,-208.534 755.5,-198.534 752.0001,-208.534 759.0001,-208.534"/>
</g>
<!-- Node2 -->
<g id="node3" class="node">
<title>Node2</title>
<g id="a_node3"><a xlink:href="../../d0/d1c/ConfigParamSpec_8h.html" target="_top" xlink:title="Framework/ConfigParamSpec.h">
<polygon fill="none" stroke="#000000" points="557,-118 557,-137 724,-137 724,-118 557,-118"/>
<text text-anchor="middle" x="640.5" y="-125" font-family="Helvetica,sans-Serif" font-size="10.00" fill="#000000">Framework/ConfigParamSpec.h</text>
</a>
</g>
</g>
<!-- Node0&#45;&gt;Node2 -->
<g id="edge18" class="edge">
<title>Node0&#45;&gt;Node2</title>
<path fill="none" stroke="#191970" d="M708.8642,-235.2969C694.427,-225.4121 679.4541,-213.0984 668.5,-199 656.5213,-183.5829 649.0844,-162.4051 644.9131,-147.1035"/>
<polygon fill="#191970" stroke="#191970" points="648.2507,-146.0222 642.4347,-137.1664 641.4588,-147.7162 648.2507,-146.0222"/>
</g>
<!-- Node14 -->
<g id="node15" class="node">
<title>Node14</title>
<polygon fill="none" stroke="#bfbfbf" points="818,-112.5 818,-142.5 931,-142.5 931,-112.5 818,-112.5"/>
<text text-anchor="start" x="826" y="-130.5" font-family="Helvetica,sans-Serif" font-size="10.00" fill="#000000">boost/property_tree</text>
<text text-anchor="middle" x="874.5" y="-119.5" font-family="Helvetica,sans-Serif" font-size="10.00" fill="#000000">/ptree_fwd.hpp</text>
</g>
<!-- Node0&#45;&gt;Node14 -->
<g id="edge19" class="edge">
<title>Node0&#45;&gt;Node14</title>
<path fill="none" stroke="#191970" d="M801.9257,-235.4605C816.6478,-225.5133 832.054,-213.1204 843.5,-199 854.5377,-185.3834 862.343,-167.2369 867.3608,-152.6328"/>
<polygon fill="#191970" stroke="#191970" points="870.8121,-153.3313 870.5281,-142.7402 864.1455,-151.1967 870.8121,-153.3313"/>
</g>
<!-- Node1&#45;&gt;Node2 -->
<g id="edge2" class="edge">
<title>Node1&#45;&gt;Node2</title>
<path fill="none" stroke="#191970" d="M737.5313,-179.3906C718.7116,-169.3262 688.9415,-153.4057 667.3359,-141.8514"/>
<polygon fill="#191970" stroke="#191970" points="668.8114,-138.6714 658.3426,-137.0419 665.5102,-144.8442 668.8114,-138.6714"/>
</g>
<!-- Node12 -->
<g id="node13" class="node">
<title>Node12</title>
<polygon fill="none" stroke="#bfbfbf" points="715,-.5 715,-19.5 762,-19.5 762,-.5 715,-.5"/>
<text text-anchor="middle" x="738.5" y="-7.5" font-family="Helvetica,sans-Serif" font-size="10.00" fill="#000000">vector</text>
</g>
<!-- Node1&#45;&gt;Node12 -->
<g id="edge17" class="edge">
<title>Node1&#45;&gt;Node12</title>
<path fill="none" stroke="#191970" d="M754.586,-179.3762C751.911,-151.2097 744.0571,-68.5126 740.4062,-30.0713"/>
<polygon fill="#191970" stroke="#191970" points="743.8484,-29.2957 739.4185,-19.6714 736.8797,-29.9575 743.8484,-29.2957"/>
</g>
<!-- Node13 -->
<g id="node14" class="node">
<title>Node13</title>
<polygon fill="none" stroke="#bfbfbf" points="780.5,-.5 780.5,-19.5 824.5,-19.5 824.5,-.5 780.5,-.5"/>
<text text-anchor="middle" x="802.5" y="-7.5" font-family="Helvetica,sans-Serif" font-size="10.00" fill="#000000">string</text>
</g>
<!-- Node1&#45;&gt;Node13 -->
<g id="edge16" class="edge">
<title>Node1&#45;&gt;Node13</title>
<path fill="none" stroke="#191970" d="M758.0269,-179.3762C765.4545,-151.0883 787.3238,-67.7987 797.3598,-29.5767"/>
<polygon fill="#191970" stroke="#191970" points="800.8061,-30.2324 799.9606,-19.6714 794.0356,-28.4547 800.8061,-30.2324"/>
</g>
<!-- Node1&#45;&gt;Node14 -->
<g id="edge15" class="edge">
<title>Node1&#45;&gt;Node14</title>
<path fill="none" stroke="#191970" d="M774.0938,-179.3906C790.7209,-170.7976 815.6083,-157.9356 836.445,-147.1671"/>
<polygon fill="#191970" stroke="#191970" points="838.1125,-150.2451 845.3893,-142.5446 834.8986,-144.0265 838.1125,-150.2451"/>
</g>
<!-- Node3 -->
<g id="node4" class="node">
<title>Node3</title>
<g id="a_node4"><a xlink:href="../../de/d56/Variant_8h.html" target="_top" xlink:title="Framework/Variant.h">
<polygon fill="none" stroke="#000000" points="478,-56.5 478,-75.5 595,-75.5 595,-56.5 478,-56.5"/>
<text text-anchor="middle" x="536.5" y="-63.5" font-family="Helvetica,sans-Serif" font-size="10.00" fill="#000000">Framework/Variant.h</text>
</a>
</g>
</g>
<!-- Node2&#45;&gt;Node3 -->
<g id="edge3" class="edge">
<title>Node2&#45;&gt;Node3</title>
<path fill="none" stroke="#191970" d="M624.25,-117.8906C607.3831,-107.9165 580.7901,-92.1908 561.2965,-80.6633"/>
<polygon fill="#191970" stroke="#191970" points="563.0251,-77.6194 552.6359,-75.5419 559.462,-83.6447 563.0251,-77.6194"/>
</g>
<!-- Node2&#45;&gt;Node13 -->
<g id="edge14" class="edge">
<title>Node2&#45;&gt;Node13</title>
<path fill="none" stroke="#191970" d="M653.7571,-117.8845C681.6432,-97.6585 746.6003,-50.5445 780.7045,-25.8085"/>
<polygon fill="#191970" stroke="#191970" points="783.0197,-28.453 789.0597,-19.7484 778.9098,-22.7865 783.0197,-28.453"/>
</g>
<!-- Node4 -->
<g id="node5" class="node">
<title>Node4</title>
<g id="a_node5"><a xlink:href="../../d1/d76/RuntimeError_8h.html" target="_top" xlink:title="Framework/RuntimeError.h">
<polygon fill="none" stroke="#000000" points="259.5,-.5 259.5,-19.5 405.5,-19.5 405.5,-.5 259.5,-.5"/>
<text text-anchor="middle" x="332.5" y="-7.5" font-family="Helvetica,sans-Serif" font-size="10.00" fill="#000000">Framework/RuntimeError.h</text>
</a>
</g>
</g>
<!-- Node3&#45;&gt;Node4 -->
<g id="edge4" class="edge">
<title>Node3&#45;&gt;Node4</title>
<path fill="none" stroke="#191970" d="M501.4311,-56.3733C467.0685,-46.9404 414.5608,-32.5265 377.2149,-22.2747"/>
<polygon fill="#191970" stroke="#191970" points="377.681,-18.7732 367.1112,-19.5011 375.828,-25.5235 377.681,-18.7732"/>
</g>
<!-- Node5 -->
<g id="node6" class="node">
<title>Node5</title>
<polygon fill="none" stroke="#bfbfbf" points="424,-.5 424,-19.5 493,-19.5 493,-.5 424,-.5"/>
<text text-anchor="middle" x="458.5" y="-7.5" font-family="Helvetica,sans-Serif" font-size="10.00" fill="#000000">type_traits</text>
</g>
<!-- Node3&#45;&gt;Node5 -->
<g id="edge5" class="edge">
<title>Node3&#45;&gt;Node5</title>
<path fill="none" stroke="#191970" d="M522.9134,-56.2455C511.1695,-47.814 493.9801,-35.4729 480.3118,-25.6598"/>
<polygon fill="#191970" stroke="#191970" points="482.0954,-22.6316 471.9309,-19.6427 478.0129,-28.3179 482.0954,-22.6316"/>
</g>
<!-- Node6 -->
<g id="node7" class="node">
<title>Node6</title>
<polygon fill="none" stroke="#bfbfbf" points="511.5,-.5 511.5,-19.5 561.5,-19.5 561.5,-.5 511.5,-.5"/>
<text text-anchor="middle" x="536.5" y="-7.5" font-family="Helvetica,sans-Serif" font-size="10.00" fill="#000000">cstring</text>
</g>
<!-- Node3&#45;&gt;Node6 -->
<g id="edge6" class="edge">
<title>Node3&#45;&gt;Node6</title>
<path fill="none" stroke="#191970" d="M536.5,-56.2455C536.5,-48.9382 536.5,-38.6944 536.5,-29.7046"/>
<polygon fill="#191970" stroke="#191970" points="540.0001,-29.6426 536.5,-19.6427 533.0001,-29.6427 540.0001,-29.6426"/>
</g>
<!-- Node7 -->
<g id="node8" class="node">
<title>Node7</title>
<polygon fill="none" stroke="#bfbfbf" points="579.5,-.5 579.5,-19.5 629.5,-19.5 629.5,-.5 579.5,-.5"/>
<text text-anchor="middle" x="604.5" y="-7.5" font-family="Helvetica,sans-Serif" font-size="10.00" fill="#000000">cstdint</text>
</g>
<!-- Node3&#45;&gt;Node7 -->
<g id="edge7" class="edge">
<title>Node3&#45;&gt;Node7</title>
<path fill="none" stroke="#191970" d="M548.3447,-56.2455C558.388,-47.9746 572.9995,-35.9416 584.8004,-26.2232"/>
<polygon fill="#191970" stroke="#191970" points="587.2967,-28.7015 592.791,-19.6427 582.8467,-23.298 587.2967,-28.7015"/>
</g>
<!-- Node8 -->
<g id="node9" class="node">
<title>Node8</title>
<polygon fill="none" stroke="#bfbfbf" points="648,-.5 648,-19.5 697,-19.5 697,-.5 648,-.5"/>
<text text-anchor="middle" x="672.5" y="-7.5" font-family="Helvetica,sans-Serif" font-size="10.00" fill="#000000">cstdlib</text>
</g>
<!-- Node3&#45;&gt;Node8 -->
<g id="edge8" class="edge">
<title>Node3&#45;&gt;Node8</title>
<path fill="none" stroke="#191970" d="M559.8792,-56.3733C582.0045,-47.2629 615.4134,-33.5062 640.1019,-23.3404"/>
<polygon fill="#191970" stroke="#191970" points="641.5117,-26.5451 649.4258,-19.5011 638.8464,-20.0723 641.5117,-26.5451"/>
</g>
<!-- Node9 -->
<g id="node10" class="node">
<title>Node9</title>
<polygon fill="none" stroke="#bfbfbf" points="0,-.5 0,-19.5 49,-19.5 49,-.5 0,-.5"/>
<text text-anchor="middle" x="24.5" y="-7.5" font-family="Helvetica,sans-Serif" font-size="10.00" fill="#000000">iosfwd</text>
</g>
<!-- Node3&#45;&gt;Node9 -->
<g id="edge9" class="edge">
<title>Node3&#45;&gt;Node9</title>
<path fill="none" stroke="#191970" d="M477.7078,-64.107C388.7757,-60.4215 214.758,-50.0015 59.4354,-20.0702"/>
<polygon fill="#191970" stroke="#191970" points="59.7192,-16.5593 49.2327,-18.0703 58.3727,-23.4286 59.7192,-16.5593"/>
</g>
<!-- Node10 -->
<g id="node11" class="node">
<title>Node10</title>
<polygon fill="none" stroke="#bfbfbf" points="67,-.5 67,-19.5 150,-19.5 150,-.5 67,-.5"/>
<text text-anchor="middle" x="108.5" y="-7.5" font-family="Helvetica,sans-Serif" font-size="10.00" fill="#000000">initializer_list</text>
</g>
<!-- Node3&#45;&gt;Node10 -->
<g id="edge10" class="edge">
<title>Node3&#45;&gt;Node10</title>
<path fill="none" stroke="#191970" d="M477.7021,-60.2495C405.2329,-52.8485 278.1221,-38.8496 160.1272,-20.1733"/>
<polygon fill="#191970" stroke="#191970" points="160.6258,-16.7086 150.1988,-18.5871 159.5214,-23.621 160.6258,-16.7086"/>
</g>
<!-- Node11 -->
<g id="node12" class="node">
<title>Node11</title>
<polygon fill="none" stroke="#bfbfbf" points="168,-.5 168,-19.5 241,-19.5 241,-.5 168,-.5"/>
<text text-anchor="middle" x="204.5" y="-7.5" font-family="Helvetica,sans-Serif" font-size="10.00" fill="#000000">string_view</text>
</g>
<!-- Node3&#45;&gt;Node11 -->
<g id="edge11" class="edge">
<title>Node3&#45;&gt;Node11</title>
<path fill="none" stroke="#191970" d="M477.728,-57.5059C422.0018,-49.2351 335.7064,-35.8675 251.1546,-20.0412"/>
<polygon fill="#191970" stroke="#191970" points="251.5969,-16.563 241.1216,-18.1499 250.3001,-23.4418 251.5969,-16.563"/>
</g>
<!-- Node3&#45;&gt;Node12 -->
<g id="edge12" class="edge">
<title>Node3&#45;&gt;Node12</title>
<path fill="none" stroke="#191970" d="M573.4245,-56.4484C605.8479,-47.9635 654.5139,-34.9929 704.9876,-20.3751"/>
<polygon fill="#191970" stroke="#191970" points="706.142,-23.6845 714.7653,-17.5291 704.1855,-16.9634 706.142,-23.6845"/>
</g>
<!-- Node3&#45;&gt;Node13 -->
<g id="edge13" class="edge">
<title>Node3&#45;&gt;Node13</title>
<path fill="none" stroke="#191970" d="M595.3616,-56.4761C640.8244,-48.6659 705.4423,-36.5814 770.2604,-20.102"/>
<polygon fill="#191970" stroke="#191970" points="771.4317,-23.4146 780.2416,-17.5294 769.6845,-16.6361 771.4317,-23.4146"/>
</g>
</g>
</svg>
