<?xml version="1.0" encoding="UTF-8" standalone="no"?>
<!DOCTYPE svg PUBLIC "-//W3C//DTD SVG 1.1//EN"
 "http://www.w3.org/Graphics/SVG/1.1/DTD/svg11.dtd">
<!-- Generated by graphviz version 2.40.1 (20161225.0304)
 -->
<!-- Title: /home/travis/build/AliceO2Group/AliceO2/Framework/Core/include/Framework/CallbackRegistry.h Pages: 1 -->
<!--zoomable 240 -->
<svg id="main" version="1.1" xmlns="http://www.w3.org/2000/svg" xmlns:xlink="http://www.w3.org/1999/xlink" xml:space="preserve" onload="init(evt)">
<style type="text/css"><![CDATA[
.edge:hover path { stroke: red; }
.edge:hover polygon { stroke: red; fill: red; }
]]></style>
<script type="text/javascript"><![CDATA[
var edges = document.getElementsByTagName('g');
if (edges && edges.length) {
  for (var i=0;i<edges.length;i++) {
    if (edges[i].id.substr(0,4)=='edge') {
      edges[i].setAttribute('class','edge');
    }
  }
}
]]></script>
        <defs>
                <circle id="rim" cx="0" cy="0" r="7"/>
                <circle id="rim2" cx="0" cy="0" r="3.5"/>
                <g id="zoomPlus">
                        <use xlink:href="#rim" fill="#404040">
                                <set attributeName="fill" to="#808080" begin="zoomplus.mouseover" end="zoomplus.mouseout"/>
                        </use>
                        <path d="M-4,0h8M0,-4v8" fill="none" stroke="white" stroke-width="1.5" pointer-events="none"/>
                </g>
                <g id="zoomMin">
                        <use xlink:href="#rim" fill="#404040">
                                <set attributeName="fill" to="#808080" begin="zoomminus.mouseover" end="zoomminus.mouseout"/>
                        </use>
                        <path d="M-4,0h8" fill="none" stroke="white" stroke-width="1.5" pointer-events="none"/>
                </g>
                <g id="dirArrow">
                        <path fill="none" stroke="white" stroke-width="1.5" d="M0,-3.0v7 M-2.5,-0.5L0,-3.0L2.5,-0.5"/>
                </g>
               <g id="resetDef">
                       <use xlink:href="#rim2" fill="#404040">
                               <set attributeName="fill" to="#808080" begin="reset.mouseover" end="reset.mouseout"/>
                       </use>
               </g>
        </defs>

<script type="text/javascript">
var viewWidth = 609;
var viewHeight = 240;
var sectionId = 'dynsection-0';
</script>
<script xlink:href="../../svgpan.js"/>
<svg id="graph" class="graph">
<g id="viewport">
<title>/home/travis/build/AliceO2Group/AliceO2/Framework/Core/include/Framework/CallbackRegistry.h</title>
<!-- Node0 -->
<g id="node1" class="node">
<title>Node0</title>
<polygon fill="#bfbfbf" stroke="#000000" points="342.0408,-179.5 342.0408,-231.5 508.0408,-231.5 508.0408,-179.5 342.0408,-179.5"/>
<text text-anchor="start" x="350.0408" y="-219.5" font-family="Helvetica,sans-Serif" font-size="10.00" fill="#000000">/home/travis/build</text>
<text text-anchor="start" x="350.0408" y="-208.5" font-family="Helvetica,sans-Serif" font-size="10.00" fill="#000000">/AliceO2Group/AliceO2</text>
<text text-anchor="start" x="350.0408" y="-197.5" font-family="Helvetica,sans-Serif" font-size="10.00" fill="#000000">/Framework/Core/include</text>
<text text-anchor="middle" x="425.0408" y="-186.5" font-family="Helvetica,sans-Serif" font-size="10.00" fill="#000000">/Framework/CallbackRegistry.h</text>
</g>
<!-- Node1 -->
<g id="node2" class="node">
<title>Node1</title>
<g id="a_node2"><a xlink:href="../../d0/d95/TypeTraits_8h.html" target="_top" xlink:title="Framework/TypeTraits.h">
<polygon fill="none" stroke="#000000" points="146.5408,-123.5 146.5408,-142.5 277.5408,-142.5 277.5408,-123.5 146.5408,-123.5"/>
<text text-anchor="middle" x="212.0408" y="-130.5" font-family="Helvetica,sans-Serif" font-size="10.00" fill="#000000">Framework/TypeTraits.h</text>
</a>
</g>
</g>
<!-- Node0&#45;&gt;Node1 -->
<g id="edge1" class="edge">
<title>Node0&#45;&gt;Node1</title>
<path fill="none" stroke="#191970" d="M348.4438,-179.4283C314.8774,-168.0031 276.9985,-155.11 249.6901,-145.8149"/>
<polygon fill="#191970" stroke="#191970" points="250.7294,-142.4715 240.135,-142.5626 248.4738,-149.0982 250.7294,-142.4715"/>
</g>
<!-- Node9 -->
<g id="node10" class="node">
<title>Node9</title>
<g id="a_node10"><a xlink:href="../../d1/d76/RuntimeError_8h.html" target="_top" xlink:title="Framework/RuntimeError.h">
<polygon fill="none" stroke="#000000" points="296.0408,-123.5 296.0408,-142.5 442.0408,-142.5 442.0408,-123.5 296.0408,-123.5"/>
<text text-anchor="middle" x="369.0408" y="-130.5" font-family="Helvetica,sans-Serif" font-size="10.00" fill="#000000">Framework/RuntimeError.h</text>
</a>
</g>
</g>
<!-- Node0&#45;&gt;Node9 -->
<g id="edge10" class="edge">
<title>Node0&#45;&gt;Node9</title>
<path fill="none" stroke="#191970" d="M404.8235,-179.3258C397.4758,-169.8132 389.3515,-159.2951 382.7037,-150.6886"/>
<polygon fill="#191970" stroke="#191970" points="385.2879,-148.3085 376.405,-142.534 379.748,-152.5876 385.2879,-148.3085"/>
</g>
<!-- Node10 -->
<g id="node11" class="node">
<title>Node10</title>
<polygon fill="none" stroke="#bfbfbf" points="460.5408,-123.5 460.5408,-142.5 501.5408,-142.5 501.5408,-123.5 460.5408,-123.5"/>
<text text-anchor="middle" x="481.0408" y="-130.5" font-family="Helvetica,sans-Serif" font-size="10.00" fill="#000000">tuple</text>
</g>
<!-- Node0&#45;&gt;Node10 -->
<g id="edge11" class="edge">
<title>Node0&#45;&gt;Node10</title>
<path fill="none" stroke="#191970" d="M445.2581,-179.3258C452.6057,-169.8132 460.7301,-159.2951 467.3779,-150.6886"/>
<polygon fill="#191970" stroke="#191970" points="470.3336,-152.5876 473.6766,-142.534 464.7937,-148.3085 470.3336,-152.5876"/>
</g>
<!-- Node11 -->
<g id="node12" class="node">
<title>Node11</title>
<polygon fill="none" stroke="#bfbfbf" points="519.5408,-123.5 519.5408,-142.5 564.5408,-142.5 564.5408,-123.5 519.5408,-123.5"/>
<text text-anchor="middle" x="542.0408" y="-130.5" font-family="Helvetica,sans-Serif" font-size="10.00" fill="#000000">utility</text>
</g>
<!-- Node0&#45;&gt;Node11 -->
<g id="edge12" class="edge">
<title>Node0&#45;&gt;Node11</title>
<path fill="none" stroke="#191970" d="M467.2805,-179.3258C484.2478,-168.8119 503.1975,-157.0696 517.7731,-148.0377"/>
<polygon fill="#191970" stroke="#191970" points="519.9981,-150.7765 526.6549,-142.534 516.311,-144.8262 519.9981,-150.7765"/>
</g>
<!-- Node2 -->
<g id="node3" class="node">
<title>Node2</title>
<polygon fill="none" stroke="#bfbfbf" points="64.5408,-.5 64.5408,-19.5 133.5408,-19.5 133.5408,-.5 64.5408,-.5"/>
<text text-anchor="middle" x="99.0408" y="-7.5" font-family="Helvetica,sans-Serif" font-size="10.00" fill="#000000">type_traits</text>
</g>
<!-- Node1&#45;&gt;Node2 -->
<g id="edge2" class="edge">
<title>Node1&#45;&gt;Node2</title>
<path fill="none" stroke="#191970" d="M146.2927,-127.1534C92.8138,-120.8749 23.4561,-108.7331 6.0408,-87 -2.5748,-76.2483 -1.2279,-67.7044 6.0408,-56 16.8846,-38.5387 36.5389,-27.5043 54.995,-20.6367"/>
<polygon fill="#191970" stroke="#191970" points="56.1412,-23.9438 64.484,-17.4132 53.8896,-17.3158 56.1412,-23.9438"/>
</g>
<!-- Node3 -->
<g id="node4" class="node">
<title>Node3</title>
<polygon fill="none" stroke="#bfbfbf" points="15.5408,-62 15.5408,-81 62.5408,-81 62.5408,-62 15.5408,-62"/>
<text text-anchor="middle" x="39.0408" y="-69" font-family="Helvetica,sans-Serif" font-size="10.00" fill="#000000">vector</text>
</g>
<!-- Node1&#45;&gt;Node3 -->
<g id="edge3" class="edge">
<title>Node1&#45;&gt;Node3</title>
<path fill="none" stroke="#191970" d="M179.1072,-123.4187C150.4785,-114.7972 108.0601,-101.315 72.0408,-87 70.6438,-86.4448 69.2219,-85.8592 67.7919,-85.2536"/>
<polygon fill="#191970" stroke="#191970" points="68.9711,-81.9474 58.412,-81.0778 66.1241,-88.3424 68.9711,-81.9474"/>
</g>
<!-- Node4 -->
<g id="node5" class="node">
<title>Node4</title>
<polygon fill="none" stroke="#bfbfbf" points="81.0408,-62 81.0408,-81 139.0408,-81 139.0408,-62 81.0408,-62"/>
<text text-anchor="middle" x="110.0408" y="-69" font-family="Helvetica,sans-Serif" font-size="10.00" fill="#000000">memory</text>
</g>
<!-- Node1&#45;&gt;Node4 -->
<g id="edge4" class="edge">
<title>Node1&#45;&gt;Node4</title>
<path fill="none" stroke="#191970" d="M196.1033,-123.3906C179.6356,-113.4616 153.715,-97.833 134.6204,-86.3201"/>
<polygon fill="#191970" stroke="#191970" points="136.2374,-83.2081 125.8664,-81.0419 132.6229,-89.2027 136.2374,-83.2081"/>
</g>
<!-- Node5 -->
<g id="node6" class="node">
<title>Node5</title>
<g id="a_node6"><a xlink:href="../../db/d31/Traits_8h.html" target="_top" xlink:title="Framework/Traits.h">
<polygon fill="none" stroke="#000000" points="157.5408,-62 157.5408,-81 266.5408,-81 266.5408,-62 157.5408,-62"/>
<text text-anchor="middle" x="212.0408" y="-69" font-family="Helvetica,sans-Serif" font-size="10.00" fill="#000000">Framework/Traits.h</text>
</a>
</g>
</g>
<!-- Node1&#45;&gt;Node5 -->
<g id="edge5" class="edge">
<title>Node1&#45;&gt;Node5</title>
<path fill="none" stroke="#191970" d="M212.0408,-123.3906C212.0408,-114.8657 212.0408,-102.1392 212.0408,-91.4235"/>
<polygon fill="#191970" stroke="#191970" points="215.5409,-91.2448 212.0408,-81.2449 208.5409,-91.2449 215.5409,-91.2448"/>
</g>
<!-- Node6 -->
<g id="node7" class="node">
<title>Node6</title>
<polygon fill="none" stroke="#bfbfbf" points="285.0408,-56.5 285.0408,-86.5 401.0408,-86.5 401.0408,-56.5 285.0408,-56.5"/>
<text text-anchor="start" x="293.0408" y="-74.5" font-family="Helvetica,sans-Serif" font-size="10.00" fill="#000000">boost/archive/binary</text>
<text text-anchor="middle" x="343.0408" y="-63.5" font-family="Helvetica,sans-Serif" font-size="10.00" fill="#000000">_iarchive.hpp</text>
</g>
<!-- Node1&#45;&gt;Node6 -->
<g id="edge7" class="edge">
<title>Node1&#45;&gt;Node6</title>
<path fill="none" stroke="#191970" d="M232.5095,-123.3906C250.9775,-114.7205 278.7026,-101.7046 301.7643,-90.8779"/>
<polygon fill="#191970" stroke="#191970" points="303.4299,-93.9625 310.9946,-86.5446 300.4551,-87.6261 303.4299,-93.9625"/>
</g>
<!-- Node7 -->
<g id="node8" class="node">
<title>Node7</title>
<polygon fill="none" stroke="#bfbfbf" points="419.0408,-56.5 419.0408,-86.5 535.0408,-86.5 535.0408,-56.5 419.0408,-56.5"/>
<text text-anchor="start" x="427.0408" y="-74.5" font-family="Helvetica,sans-Serif" font-size="10.00" fill="#000000">boost/archive/binary</text>
<text text-anchor="middle" x="477.0408" y="-63.5" font-family="Helvetica,sans-Serif" font-size="10.00" fill="#000000">_oarchive.hpp</text>
</g>
<!-- Node1&#45;&gt;Node7 -->
<g id="edge8" class="edge">
<title>Node1&#45;&gt;Node7</title>
<path fill="none" stroke="#191970" d="M253.1563,-123.4581C294.6387,-113.831 359.421,-98.7967 408.6486,-87.3722"/>
<polygon fill="#191970" stroke="#191970" points="409.6389,-90.7354 418.5888,-85.0653 408.0564,-83.9166 409.6389,-90.7354"/>
</g>
<!-- Node8 -->
<g id="node9" class="node">
<title>Node8</title>
<polygon fill="none" stroke="#bfbfbf" points="553.0408,-62 553.0408,-81 601.0408,-81 601.0408,-62 553.0408,-62"/>
<text text-anchor="middle" x="577.0408" y="-69" font-family="Helvetica,sans-Serif" font-size="10.00" fill="#000000">gsl/gsl</text>
</g>
<!-- Node1&#45;&gt;Node8 -->
<g id="edge9" class="edge">
<title>Node1&#45;&gt;Node8</title>
<path fill="none" stroke="#191970" d="M277.6353,-124.1631C372.5687,-111.3382 537.6951,-88.8826 544.0408,-87 545.9523,-86.4329 547.893,-85.7707 549.8268,-85.0454"/>
<polygon fill="#191970" stroke="#191970" points="551.4309,-88.1669 559.2711,-81.0408 548.6982,-81.7223 551.4309,-88.1669"/>
</g>
<!-- Node5&#45;&gt;Node2 -->
<g id="edge6" class="edge">
<title>Node5&#45;&gt;Node2</title>
<path fill="none" stroke="#191970" d="M194.3845,-61.8906C175.8922,-51.8262 146.6398,-35.9057 125.41,-24.3514"/>
<polygon fill="#191970" stroke="#191970" points="127.0296,-21.2481 116.573,-19.5419 123.6833,-27.3965 127.0296,-21.2481"/>
</g>
</g>
</svg>
        <g id="navigator" transform="translate(0 0)" fill="#404254">
                <rect fill="#f2f5e9" fill-opacity="0.5" stroke="#606060" stroke-width=".5" x="0" y="0" width="60" height="60"/>
                <use id="zoomplus" xlink:href="#zoomPlus" x="17" y="9" onmousedown="handleZoom(evt,'in')"/>
                <use id="zoomminus" xlink:href="#zoomMin" x="42" y="9" onmousedown="handleZoom(evt,'out')"/>
                <use id="reset" xlink:href="#resetDef" x="30" y="36" onmousedown="handleReset()"/>
                <g id="arrowUp" xlink:href="#dirArrow" transform="translate(30 24)" onmousedown="handlePan(0,-1)">
                  <use xlink:href="#rim" fill="#404040">
                        <set attributeName="fill" to="#808080" begin="arrowUp.mouseover" end="arrowUp.mouseout"/>
                  </use>
                  <path fill="none" stroke="white" stroke-width="1.5" d="M0,-3.0v7 M-2.5,-0.5L0,-3.0L2.5,-0.5"/>
                </g>
                <g id="arrowRight" xlink:href="#dirArrow" transform="rotate(90) translate(36 -43)" onmousedown="handlePan(1,0)">
                  <use xlink:href="#rim" fill="#404040">
                        <set attributeName="fill" to="#808080" begin="arrowRight.mouseover" end="arrowRight.mouseout"/>
                  </use>
                  <path fill="none" stroke="white" stroke-width="1.5" d="M0,-3.0v7 M-2.5,-0.5L0,-3.0L2.5,-0.5"/>
                </g>
                <g id="arrowDown" xlink:href="#dirArrow" transform="rotate(180) translate(-30 -48)" onmousedown="handlePan(0,1)">
                  <use xlink:href="#rim" fill="#404040">
                        <set attributeName="fill" to="#808080" begin="arrowDown.mouseover" end="arrowDown.mouseout"/>
                  </use>
                  <path fill="none" stroke="white" stroke-width="1.5" d="M0,-3.0v7 M-2.5,-0.5L0,-3.0L2.5,-0.5"/>
                </g>
                <g id="arrowLeft" xlink:href="#dirArrow" transform="rotate(270) translate(-36 17)" onmousedown="handlePan(-1,0)">
                  <use xlink:href="#rim" fill="#404040">
                        <set attributeName="fill" to="#808080" begin="arrowLeft.mouseover" end="arrowLeft.mouseout"/>
                  </use>
                  <path fill="none" stroke="white" stroke-width="1.5" d="M0,-3.0v7 M-2.5,-0.5L0,-3.0L2.5,-0.5"/>
                </g>
        </g>
        <svg viewBox="0 0 15 15" width="100%" height="30px" preserveAspectRatio="xMaxYMin meet">
         <g id="arrow_out" transform="scale(0.3 0.3)">
          <a xlink:href="CallbackRegistry_8h__incl_org.svg" target="_base">
           <rect id="button" ry="5" rx="5" y="6" x="6" height="38" width="38"
                fill="#f2f5e9" fill-opacity="0.5" stroke="#606060" stroke-width="1.0"/>
           <path id="arrow"
             d="M 11.500037,31.436501 C 11.940474,20.09759 22.043105,11.32322 32.158766,21.979434 L 37.068811,17.246167 C 37.068811,17.246167 37.088388,32 37.088388,32 L 22.160133,31.978069 C 22.160133,31.978069 26.997745,27.140456 26.997745,27.140456 C 18.528582,18.264221 13.291696,25.230495 11.500037,31.436501 z"
             style="fill:#404040;"/>
          </a>
         </g>
        </svg>
</svg>
