<?xml version="1.0" encoding="UTF-8" standalone="no"?>
<!DOCTYPE svg PUBLIC "-//W3C//DTD SVG 1.1//EN"
 "http://www.w3.org/Graphics/SVG/1.1/DTD/svg11.dtd">
<!-- Generated by graphviz version 2.40.1 (20161225.0304)
 -->
<!-- Title: /home/travis/build/AliceO2Group/AliceO2/Framework/Core/src/TMessageSerializer.cxx Pages: 1 -->
<!--zoomable 173 -->
<svg id="main" version="1.1" xmlns="http://www.w3.org/2000/svg" xmlns:xlink="http://www.w3.org/1999/xlink" xml:space="preserve" onload="init(evt)">
<style type="text/css"><![CDATA[
.edge:hover path { stroke: red; }
.edge:hover polygon { stroke: red; fill: red; }
]]></style>
<script type="text/javascript"><![CDATA[
var edges = document.getElementsByTagName('g');
if (edges && edges.length) {
  for (var i=0;i<edges.length;i++) {
    if (edges[i].id.substr(0,4)=='edge') {
      edges[i].setAttribute('class','edge');
    }
  }
}
]]></script>
        <defs>
                <circle id="rim" cx="0" cy="0" r="7"/>
                <circle id="rim2" cx="0" cy="0" r="3.5"/>
                <g id="zoomPlus">
                        <use xlink:href="#rim" fill="#404040">
                                <set attributeName="fill" to="#808080" begin="zoomplus.mouseover" end="zoomplus.mouseout"/>
                        </use>
                        <path d="M-4,0h8M0,-4v8" fill="none" stroke="white" stroke-width="1.5" pointer-events="none"/>
                </g>
                <g id="zoomMin">
                        <use xlink:href="#rim" fill="#404040">
                                <set attributeName="fill" to="#808080" begin="zoomminus.mouseover" end="zoomminus.mouseout"/>
                        </use>
                        <path d="M-4,0h8" fill="none" stroke="white" stroke-width="1.5" pointer-events="none"/>
                </g>
                <g id="dirArrow">
                        <path fill="none" stroke="white" stroke-width="1.5" d="M0,-3.0v7 M-2.5,-0.5L0,-3.0L2.5,-0.5"/>
                </g>
               <g id="resetDef">
                       <use xlink:href="#rim2" fill="#404040">
                               <set attributeName="fill" to="#808080" begin="reset.mouseover" end="reset.mouseout"/>
                       </use>
               </g>
        </defs>

<script type="text/javascript">
var viewWidth = 1143;
var viewHeight = 173;
var sectionId = 'dynsection-0';
</script>
<script xlink:href="../../svgpan.js"/>
<svg id="graph" class="graph">
<g id="viewport">
<title>/home/travis/build/AliceO2Group/AliceO2/Framework/Core/src/TMessageSerializer.cxx</title>
<!-- Node0 -->
<g id="node1" class="node">
<title>Node0</title>
<polygon fill="#bfbfbf" stroke="#000000" points="860.5,-112.5 860.5,-164.5 1028.5,-164.5 1028.5,-112.5 860.5,-112.5"/>
<text text-anchor="start" x="868.5" y="-152.5" font-family="Helvetica,sans-Serif" font-size="10.00" fill="#000000">/home/travis/build</text>
<text text-anchor="start" x="868.5" y="-141.5" font-family="Helvetica,sans-Serif" font-size="10.00" fill="#000000">/AliceO2Group/AliceO2</text>
<text text-anchor="start" x="868.5" y="-130.5" font-family="Helvetica,sans-Serif" font-size="10.00" fill="#000000">/Framework/Core/src/TMessage</text>
<text text-anchor="middle" x="944.5" y="-119.5" font-family="Helvetica,sans-Serif" font-size="10.00" fill="#000000">Serializer.cxx</text>
</g>
<!-- Node1 -->
<g id="node2" class="node">
<title>Node1</title>
<g id="a_node2"><a xlink:href="../../d8/d3c/TMessageSerializer_8h.html" target="_top" xlink:title="Framework/TMessageSerializer.h">
<polygon fill="none" stroke="#000000" points="580.5,-56.5 580.5,-75.5 756.5,-75.5 756.5,-56.5 580.5,-56.5"/>
<text text-anchor="middle" x="668.5" y="-63.5" font-family="Helvetica,sans-Serif" font-size="10.00" fill="#000000">Framework/TMessageSerializer.h</text>
</a>
</g>
</g>
<!-- Node0&#45;&gt;Node1 -->
<g id="edge1" class="edge">
<title>Node0&#45;&gt;Node1</title>
<path fill="none" stroke="#191970" d="M860.1912,-116.3537C812.3577,-103.7887 754.3281,-88.5454 714.7327,-78.1445"/>
<polygon fill="#191970" stroke="#191970" points="715.3916,-74.6989 704.8305,-75.5433 713.6131,-81.4692 715.3916,-74.6989"/>
</g>
<!-- Node10 -->
<g id="node11" class="node">
<title>Node10</title>
<polygon fill="none" stroke="#bfbfbf" points="1076.5,-.5 1076.5,-19.5 1134.5,-19.5 1134.5,-.5 1076.5,-.5"/>
<text text-anchor="middle" x="1105.5" y="-7.5" font-family="Helvetica,sans-Serif" font-size="10.00" fill="#000000">memory</text>
</g>
<!-- Node0&#45;&gt;Node10 -->
<g id="edge14" class="edge">
<title>Node0&#45;&gt;Node10</title>
<path fill="none" stroke="#191970" d="M944.1034,-112.3771C945.2169,-94.42 949.5958,-71.1685 963.5,-56 970.6884,-48.158 1027.0784,-31.4503 1066.5938,-20.4768"/>
<polygon fill="#191970" stroke="#191970" points="1067.775,-23.7819 1076.4859,-17.7511 1065.9154,-17.0334 1067.775,-23.7819"/>
</g>
<!-- Node13 -->
<g id="node14" class="node">
<title>Node13</title>
<polygon fill="none" stroke="#bfbfbf" points="972.5,-56.5 972.5,-75.5 1036.5,-75.5 1036.5,-56.5 972.5,-56.5"/>
<text text-anchor="middle" x="1004.5" y="-63.5" font-family="Helvetica,sans-Serif" font-size="10.00" fill="#000000">algorithm</text>
</g>
<!-- Node0&#45;&gt;Node13 -->
<g id="edge13" class="edge">
<title>Node0&#45;&gt;Node13</title>
<path fill="none" stroke="#191970" d="M966.1614,-112.3258C974.1167,-102.7131 982.9219,-92.0735 990.0856,-83.4174"/>
<polygon fill="#191970" stroke="#191970" points="992.9305,-85.4695 996.6098,-75.534 987.5377,-81.0065 992.9305,-85.4695"/>
</g>
<!-- Node2 -->
<g id="node3" class="node">
<title>Node2</title>
<polygon fill="none" stroke="#bfbfbf" points="0,-.5 0,-19.5 137,-19.5 137,-.5 0,-.5"/>
<text text-anchor="middle" x="68.5" y="-7.5" font-family="Helvetica,sans-Serif" font-size="10.00" fill="#000000">fairmq/FairMQMessage.h</text>
</g>
<!-- Node1&#45;&gt;Node2 -->
<g id="edge2" class="edge">
<title>Node1&#45;&gt;Node2</title>
<path fill="none" stroke="#191970" d="M580.1914,-59.2907C478.4336,-51.3164 305.9348,-37.0539 147.3292,-20.0533"/>
<polygon fill="#191970" stroke="#191970" points="147.7034,-16.5734 137.386,-18.9819 146.9534,-23.5331 147.7034,-16.5734"/>
</g>
<!-- Node3 -->
<g id="node4" class="node">
<title>Node3</title>
<g id="a_node4"><a xlink:href="../../d1/d76/RuntimeError_8h.html" target="_top" xlink:title="Framework/RuntimeError.h">
<polygon fill="none" stroke="#000000" points="155.5,-.5 155.5,-19.5 301.5,-19.5 301.5,-.5 155.5,-.5"/>
<text text-anchor="middle" x="228.5" y="-7.5" font-family="Helvetica,sans-Serif" font-size="10.00" fill="#000000">Framework/RuntimeError.h</text>
</a>
</g>
</g>
<!-- Node1&#45;&gt;Node3 -->
<g id="edge3" class="edge">
<title>Node1&#45;&gt;Node3</title>
<path fill="none" stroke="#191970" d="M593.3612,-56.4369C515.2149,-46.491 393.1708,-30.9581 312.042,-20.6326"/>
<polygon fill="#191970" stroke="#191970" points="312.2255,-17.1278 301.8636,-19.3372 311.3416,-24.0718 312.2255,-17.1278"/>
</g>
<!-- Node4 -->
<g id="node5" class="node">
<title>Node4</title>
<polygon fill="none" stroke="#bfbfbf" points="320,-.5 320,-19.5 369,-19.5 369,-.5 320,-.5"/>
<text text-anchor="middle" x="344.5" y="-7.5" font-family="Helvetica,sans-Serif" font-size="10.00" fill="#000000">TList.h</text>
</g>
<!-- Node1&#45;&gt;Node4 -->
<g id="edge4" class="edge">
<title>Node1&#45;&gt;Node4</title>
<path fill="none" stroke="#191970" d="M591.0529,-56.4756C534.7498,-48.9134 456.5874,-37.1019 379.2082,-19.9242"/>
<polygon fill="#191970" stroke="#191970" points="379.8103,-16.4723 369.2858,-17.6906 378.273,-23.3014 379.8103,-16.4723"/>
</g>
<!-- Node5 -->
<g id="node6" class="node">
<title>Node5</title>
<polygon fill="none" stroke="#bfbfbf" points="387.5,-.5 387.5,-19.5 461.5,-19.5 461.5,-.5 387.5,-.5"/>
<text text-anchor="middle" x="424.5" y="-7.5" font-family="Helvetica,sans-Serif" font-size="10.00" fill="#000000">TMessage.h</text>
</g>
<!-- Node1&#45;&gt;Node5 -->
<g id="edge5" class="edge">
<title>Node1&#45;&gt;Node5</title>
<path fill="none" stroke="#191970" d="M626.8321,-56.4369C583.6815,-46.5335 516.3949,-31.0906 471.4053,-20.7652"/>
<polygon fill="#191970" stroke="#191970" points="472.1299,-17.3405 461.6003,-18.5148 470.564,-24.1631 472.1299,-17.3405"/>
</g>
<!-- Node6 -->
<g id="node7" class="node">
<title>Node6</title>
<polygon fill="none" stroke="#bfbfbf" points="480,-.5 480,-19.5 553,-19.5 553,-.5 480,-.5"/>
<text text-anchor="middle" x="516.5" y="-7.5" font-family="Helvetica,sans-Serif" font-size="10.00" fill="#000000">TObjArray.h</text>
</g>
<!-- Node1&#45;&gt;Node6 -->
<g id="edge6" class="edge">
<title>Node1&#45;&gt;Node6</title>
<path fill="none" stroke="#191970" d="M642.3703,-56.3733C617.4232,-47.1822 579.6408,-33.2624 551.9794,-23.0713"/>
<polygon fill="#191970" stroke="#191970" points="552.8822,-19.674 542.2888,-19.5011 550.4622,-26.2424 552.8822,-19.674"/>
</g>
<!-- Node7 -->
<g id="node8" class="node">
<title>Node7</title>
<polygon fill="none" stroke="#bfbfbf" points="571,-.5 571,-19.5 666,-19.5 666,-.5 571,-.5"/>
<text text-anchor="middle" x="618.5" y="-7.5" font-family="Helvetica,sans-Serif" font-size="10.00" fill="#000000">TStreamerInfo.h</text>
</g>
<!-- Node1&#45;&gt;Node7 -->
<g id="edge7" class="edge">
<title>Node1&#45;&gt;Node7</title>
<path fill="none" stroke="#191970" d="M659.7907,-56.2455C652.6927,-48.2958 642.4916,-36.8706 634.005,-27.3656"/>
<polygon fill="#191970" stroke="#191970" points="636.3805,-24.771 627.1095,-19.6427 631.1589,-29.4331 636.3805,-24.771"/>
</g>
<!-- Node8 -->
<g id="node9" class="node">
<title>Node8</title>
<polygon fill="none" stroke="#bfbfbf" points="684,-.5 684,-19.5 753,-19.5 753,-.5 684,-.5"/>
<text text-anchor="middle" x="718.5" y="-7.5" font-family="Helvetica,sans-Serif" font-size="10.00" fill="#000000">gsl/gsl_util</text>
</g>
<!-- Node1&#45;&gt;Node8 -->
<g id="edge8" class="edge">
<title>Node1&#45;&gt;Node8</title>
<path fill="none" stroke="#191970" d="M677.2093,-56.2455C684.3073,-48.2958 694.5084,-36.8706 702.995,-27.3656"/>
<polygon fill="#191970" stroke="#191970" points="705.8411,-29.4331 709.8905,-19.6427 700.6195,-24.771 705.8411,-29.4331"/>
</g>
<!-- Node9 -->
<g id="node10" class="node">
<title>Node9</title>
<polygon fill="none" stroke="#bfbfbf" points="771,-.5 771,-19.5 828,-19.5 828,-.5 771,-.5"/>
<text text-anchor="middle" x="799.5" y="-7.5" font-family="Helvetica,sans-Serif" font-size="10.00" fill="#000000">gsl/span</text>
</g>
<!-- Node1&#45;&gt;Node9 -->
<g id="edge9" class="edge">
<title>Node1&#45;&gt;Node9</title>
<path fill="none" stroke="#191970" d="M691.0197,-56.3733C712.2372,-47.3032 744.2276,-33.6279 767.9769,-23.4755"/>
<polygon fill="#191970" stroke="#191970" points="769.4548,-26.6502 777.2742,-19.5011 766.7033,-20.2136 769.4548,-26.6502"/>
</g>
<!-- Node1&#45;&gt;Node10 -->
<g id="edge10" class="edge">
<title>Node1&#45;&gt;Node10</title>
<path fill="none" stroke="#191970" d="M756.6074,-59.4721C835.4391,-52.7995 954.2476,-40.6962 1066.0346,-20.0615"/>
<polygon fill="#191970" stroke="#191970" points="1066.9509,-23.4508 1076.1357,-18.1697 1065.6623,-16.5704 1066.9509,-23.4508"/>
</g>
<!-- Node11 -->
<g id="node12" class="node">
<title>Node11</title>
<polygon fill="none" stroke="#bfbfbf" points="846.5,-.5 846.5,-19.5 894.5,-19.5 894.5,-.5 846.5,-.5"/>
<text text-anchor="middle" x="870.5" y="-7.5" font-family="Helvetica,sans-Serif" font-size="10.00" fill="#000000">mutex</text>
</g>
<!-- Node1&#45;&gt;Node11 -->
<g id="edge11" class="edge">
<title>Node1&#45;&gt;Node11</title>
<path fill="none" stroke="#191970" d="M704.8468,-56.4273C737.0521,-47.8741 785.5873,-34.8114 836.5026,-20.2343"/>
<polygon fill="#191970" stroke="#191970" points="837.7286,-23.5237 846.3729,-17.3978 835.7952,-16.796 837.7286,-23.5237"/>
</g>
<!-- Node12 -->
<g id="node13" class="node">
<title>Node12</title>
<g id="a_node13"><a xlink:href="../../d7/df8/Types_8h.html" target="_top" xlink:title="MemoryResources/Types.h">
<polygon fill="none" stroke="#000000" points="912.5,-.5 912.5,-19.5 1058.5,-19.5 1058.5,-.5 912.5,-.5"/>
<text text-anchor="middle" x="985.5" y="-7.5" font-family="Helvetica,sans-Serif" font-size="10.00" fill="#000000">MemoryResources/Types.h</text>
</a>
</g>
</g>
<!-- Node1&#45;&gt;Node12 -->
<g id="edge12" class="edge">
<title>Node1&#45;&gt;Node12</title>
<path fill="none" stroke="#191970" d="M722.6341,-56.4369C777.798,-46.6918 863.3237,-31.5832 921.7351,-21.2645"/>
<polygon fill="#191970" stroke="#191970" points="922.3506,-24.71 931.5892,-19.5237 921.1328,-17.8167 922.3506,-24.71"/>
</g>
</g>
</svg>
        <g id="navigator" transform="translate(0 0)" fill="#404254">
                <rect fill="#f2f5e9" fill-opacity="0.5" stroke="#606060" stroke-width=".5" x="0" y="0" width="60" height="60"/>
                <use id="zoomplus" xlink:href="#zoomPlus" x="17" y="9" onmousedown="handleZoom(evt,'in')"/>
                <use id="zoomminus" xlink:href="#zoomMin" x="42" y="9" onmousedown="handleZoom(evt,'out')"/>
                <use id="reset" xlink:href="#resetDef" x="30" y="36" onmousedown="handleReset()"/>
                <g id="arrowUp" xlink:href="#dirArrow" transform="translate(30 24)" onmousedown="handlePan(0,-1)">
                  <use xlink:href="#rim" fill="#404040">
                        <set attributeName="fill" to="#808080" begin="arrowUp.mouseover" end="arrowUp.mouseout"/>
                  </use>
                  <path fill="none" stroke="white" stroke-width="1.5" d="M0,-3.0v7 M-2.5,-0.5L0,-3.0L2.5,-0.5"/>
                </g>
                <g id="arrowRight" xlink:href="#dirArrow" transform="rotate(90) translate(36 -43)" onmousedown="handlePan(1,0)">
                  <use xlink:href="#rim" fill="#404040">
                        <set attributeName="fill" to="#808080" begin="arrowRight.mouseover" end="arrowRight.mouseout"/>
                  </use>
                  <path fill="none" stroke="white" stroke-width="1.5" d="M0,-3.0v7 M-2.5,-0.5L0,-3.0L2.5,-0.5"/>
                </g>
                <g id="arrowDown" xlink:href="#dirArrow" transform="rotate(180) translate(-30 -48)" onmousedown="handlePan(0,1)">
                  <use xlink:href="#rim" fill="#404040">
                        <set attributeName="fill" to="#808080" begin="arrowDown.mouseover" end="arrowDown.mouseout"/>
                  </use>
                  <path fill="none" stroke="white" stroke-width="1.5" d="M0,-3.0v7 M-2.5,-0.5L0,-3.0L2.5,-0.5"/>
                </g>
                <g id="arrowLeft" xlink:href="#dirArrow" transform="rotate(270) translate(-36 17)" onmousedown="handlePan(-1,0)">
                  <use xlink:href="#rim" fill="#404040">
                        <set attributeName="fill" to="#808080" begin="arrowLeft.mouseover" end="arrowLeft.mouseout"/>
                  </use>
                  <path fill="none" stroke="white" stroke-width="1.5" d="M0,-3.0v7 M-2.5,-0.5L0,-3.0L2.5,-0.5"/>
                </g>
        </g>
        <svg viewBox="0 0 15 15" width="100%" height="30px" preserveAspectRatio="xMaxYMin meet">
         <g id="arrow_out" transform="scale(0.3 0.3)">
          <a xlink:href="TMessageSerializer_8cxx__incl_org.svg" target="_base">
           <rect id="button" ry="5" rx="5" y="6" x="6" height="38" width="38"
                fill="#f2f5e9" fill-opacity="0.5" stroke="#606060" stroke-width="1.0"/>
           <path id="arrow"
             d="M 11.500037,31.436501 C 11.940474,20.09759 22.043105,11.32322 32.158766,21.979434 L 37.068811,17.246167 C 37.068811,17.246167 37.088388,32 37.088388,32 L 22.160133,31.978069 C 22.160133,31.978069 26.997745,27.140456 26.997745,27.140456 C 18.528582,18.264221 13.291696,25.230495 11.500037,31.436501 z"
             style="fill:#404040;"/>
          </a>
         </g>
        </svg>
</svg>
