<?xml version="1.0" encoding="UTF-8" standalone="no"?>
<!DOCTYPE svg PUBLIC "-//W3C//DTD SVG 1.1//EN"
 "http://www.w3.org/Graphics/SVG/1.1/DTD/svg11.dtd">
<!-- Generated by graphviz version 2.40.1 (20161225.0304)
 -->
<!-- Title: /home/travis/build/AliceO2Group/AliceO2/Detectors/TPC/base/include/TPCBase/ParameterElectronics.h Pages: 1 -->
<svg width="2745pt" height="595pt"
 viewBox="0.00 0.00 2745.14 595.00" xmlns="http://www.w3.org/2000/svg" xmlns:xlink="http://www.w3.org/1999/xlink">
<g id="graph0" class="graph" transform="scale(1 1) rotate(0) translate(4 591)">
<title>/home/travis/build/AliceO2Group/AliceO2/Detectors/TPC/base/include/TPCBase/ParameterElectronics.h</title>
<!-- Node14 -->
<g id="node1" class="node">
<title>Node14</title>
<polygon fill="#bfbfbf" stroke="#000000" points="1352,-534.5 1352,-586.5 1530,-586.5 1530,-534.5 1352,-534.5"/>
<text text-anchor="start" x="1360" y="-574.5" font-family="Helvetica,sans-Serif" font-size="10.00" fill="#000000">/home/travis/build</text>
<text text-anchor="start" x="1360" y="-563.5" font-family="Helvetica,sans-Serif" font-size="10.00" fill="#000000">/AliceO2Group/AliceO2</text>
<text text-anchor="start" x="1360" y="-552.5" font-family="Helvetica,sans-Serif" font-size="10.00" fill="#000000">/Detectors/TPC/base/include</text>
<text text-anchor="middle" x="1441" y="-541.5" font-family="Helvetica,sans-Serif" font-size="10.00" fill="#000000">/TPCBase/ParameterElectronics.h</text>
</g>
<!-- Node15 -->
<g id="node2" class="node">
<title>Node15</title>
<g id="a_node2"><a xlink:href="../../db/d6a/MatchTOF_8cxx.html" target="_top" xlink:title="/home/travis/build\l/AliceO2Group/AliceO2\l/Detectors/GlobalTracking\l/src/MatchTOF.cxx">
<polygon fill="none" stroke="#000000" points="0,-445.5 0,-497.5 142,-497.5 142,-445.5 0,-445.5"/>
<text text-anchor="start" x="8" y="-485.5" font-family="Helvetica,sans-Serif" font-size="10.00" fill="#000000">/home/travis/build</text>
<text text-anchor="start" x="8" y="-474.5" font-family="Helvetica,sans-Serif" font-size="10.00" fill="#000000">/AliceO2Group/AliceO2</text>
<text text-anchor="start" x="8" y="-463.5" font-family="Helvetica,sans-Serif" font-size="10.00" fill="#000000">/Detectors/GlobalTracking</text>
<text text-anchor="middle" x="71" y="-452.5" font-family="Helvetica,sans-Serif" font-size="10.00" fill="#000000">/src/MatchTOF.cxx</text>
</a>
</g>
</g>
<!-- Node14&#45;&gt;Node15 -->
<g id="edge1" class="edge">
<title>Node14&#45;&gt;Node15</title>
<path fill="none" stroke="#191970" d="M1341.393,-559.1622C1079.992,-555.0937 378.8566,-540.439 151,-498 148.1233,-497.4642 145.2077,-496.8504 142.277,-496.174"/>
<polygon fill="#191970" stroke="#191970" points="1341.5795,-562.6653 1351.6322,-559.3196 1341.6872,-555.6662 1341.5795,-562.6653"/>
</g>
<!-- Node16 -->
<g id="node3" class="node">
<title>Node16</title>
<g id="a_node3"><a xlink:href="../../dc/d59/MatchTPCITS_8cxx.html" target="_top" xlink:title="/home/travis/build\l/AliceO2Group/AliceO2\l/Detectors/GlobalTracking\l/src/MatchTPCITS.cxx">
<polygon fill="none" stroke="#000000" points="160,-445.5 160,-497.5 302,-497.5 302,-445.5 160,-445.5"/>
<text text-anchor="start" x="168" y="-485.5" font-family="Helvetica,sans-Serif" font-size="10.00" fill="#000000">/home/travis/build</text>
<text text-anchor="start" x="168" y="-474.5" font-family="Helvetica,sans-Serif" font-size="10.00" fill="#000000">/AliceO2Group/AliceO2</text>
<text text-anchor="start" x="168" y="-463.5" font-family="Helvetica,sans-Serif" font-size="10.00" fill="#000000">/Detectors/GlobalTracking</text>
<text text-anchor="middle" x="231" y="-452.5" font-family="Helvetica,sans-Serif" font-size="10.00" fill="#000000">/src/MatchTPCITS.cxx</text>
</a>
</g>
</g>
<!-- Node14&#45;&gt;Node16 -->
<g id="edge2" class="edge">
<title>Node14&#45;&gt;Node16</title>
<path fill="none" stroke="#191970" d="M1341.6717,-558.3715C1103.8815,-552.7331 507.129,-535.2243 311,-498 308.1251,-497.4544 305.2111,-496.8322 302.2817,-496.1489"/>
<polygon fill="#191970" stroke="#191970" points="1341.6142,-561.871 1351.6938,-558.6071 1341.7788,-554.8729 1341.6142,-561.871"/>
</g>
<!-- Node17 -->
<g id="node4" class="node">
<title>Node17</title>
<g id="a_node4"><a xlink:href="../../dc/d71/CDBInterface_8cxx.html" target="_top" xlink:title="/home/travis/build\l/AliceO2Group/AliceO2\l/Detectors/TPC/base/src\l/CDBInterface.cxx">
<polygon fill="none" stroke="#000000" points="320,-445.5 320,-497.5 452,-497.5 452,-445.5 320,-445.5"/>
<text text-anchor="start" x="328" y="-485.5" font-family="Helvetica,sans-Serif" font-size="10.00" fill="#000000">/home/travis/build</text>
<text text-anchor="start" x="328" y="-474.5" font-family="Helvetica,sans-Serif" font-size="10.00" fill="#000000">/AliceO2Group/AliceO2</text>
<text text-anchor="start" x="328" y="-463.5" font-family="Helvetica,sans-Serif" font-size="10.00" fill="#000000">/Detectors/TPC/base/src</text>
<text text-anchor="middle" x="386" y="-452.5" font-family="Helvetica,sans-Serif" font-size="10.00" fill="#000000">/CDBInterface.cxx</text>
</a>
</g>
</g>
<!-- Node14&#45;&gt;Node17 -->
<g id="edge3" class="edge">
<title>Node14&#45;&gt;Node17</title>
<path fill="none" stroke="#191970" d="M1341.5712,-557.6368C1127.1417,-550.8954 627.187,-531.976 461,-498 458.1587,-497.4191 455.2789,-496.7552 452.386,-496.0258"/>
<polygon fill="#191970" stroke="#191970" points="1341.7697,-561.1446 1351.874,-557.9582 1341.988,-554.148 1341.7697,-561.1446"/>
</g>
<!-- Node18 -->
<g id="node5" class="node">
<title>Node18</title>
<g id="a_node5"><a xlink:href="../../d0/d64/ParameterElectronics_8cxx.html" target="_top" xlink:title="Implementation of the parameter class for the detector electronics. ">
<polygon fill="none" stroke="#000000" points="470.5,-445.5 470.5,-497.5 613.5,-497.5 613.5,-445.5 470.5,-445.5"/>
<text text-anchor="start" x="478.5" y="-485.5" font-family="Helvetica,sans-Serif" font-size="10.00" fill="#000000">/home/travis/build</text>
<text text-anchor="start" x="478.5" y="-474.5" font-family="Helvetica,sans-Serif" font-size="10.00" fill="#000000">/AliceO2Group/AliceO2</text>
<text text-anchor="start" x="478.5" y="-463.5" font-family="Helvetica,sans-Serif" font-size="10.00" fill="#000000">/Detectors/TPC/base/src</text>
<text text-anchor="middle" x="542" y="-452.5" font-family="Helvetica,sans-Serif" font-size="10.00" fill="#000000">/ParameterElectronics.cxx</text>
</a>
</g>
</g>
<!-- Node14&#45;&gt;Node18 -->
<g id="edge4" class="edge">
<title>Node14&#45;&gt;Node18</title>
<path fill="none" stroke="#191970" d="M1341.8231,-555.9039C1155.0832,-546.7567 757.9419,-524.8236 623,-498 619.9525,-497.3942 616.8599,-496.7095 613.7501,-495.9629"/>
<polygon fill="#191970" stroke="#191970" points="1341.7552,-559.4047 1351.9138,-556.3958 1342.0961,-552.413 1341.7552,-559.4047"/>
</g>
<!-- Node19 -->
<g id="node6" class="node">
<title>Node19</title>
<g id="a_node6"><a xlink:href="../../d1/d8a/testTPCCDBInterface_8cxx.html" target="_top" xlink:title="/home/travis/build\l/AliceO2Group/AliceO2\l/Detectors/TPC/base/test\l/testTPCCDBInterface.cxx">
<polygon fill="none" stroke="#000000" points="632,-445.5 632,-497.5 774,-497.5 774,-445.5 632,-445.5"/>
<text text-anchor="start" x="640" y="-485.5" font-family="Helvetica,sans-Serif" font-size="10.00" fill="#000000">/home/travis/build</text>
<text text-anchor="start" x="640" y="-474.5" font-family="Helvetica,sans-Serif" font-size="10.00" fill="#000000">/AliceO2Group/AliceO2</text>
<text text-anchor="start" x="640" y="-463.5" font-family="Helvetica,sans-Serif" font-size="10.00" fill="#000000">/Detectors/TPC/base/test</text>
<text text-anchor="middle" x="703" y="-452.5" font-family="Helvetica,sans-Serif" font-size="10.00" fill="#000000">/testTPCCDBInterface.cxx</text>
</a>
</g>
</g>
<!-- Node14&#45;&gt;Node19 -->
<g id="edge5" class="edge">
<title>Node14&#45;&gt;Node19</title>
<path fill="none" stroke="#191970" d="M1341.6682,-558.0117C1211.9242,-553.1845 978.2959,-539.0724 783,-498 780.1364,-497.3978 777.232,-496.7279 774.3106,-496.0046"/>
<polygon fill="#191970" stroke="#191970" points="1341.858,-561.5207 1351.9777,-558.3838 1342.1105,-554.5253 1341.858,-561.5207"/>
</g>
<!-- Node20 -->
<g id="node7" class="node">
<title>Node20</title>
<g id="a_node7"><a xlink:href="../../da/d69/testTPCParameters_8cxx.html" target="_top" xlink:title="This task tests the Parameter handling. ">
<polygon fill="none" stroke="#000000" points="792.5,-445.5 792.5,-497.5 929.5,-497.5 929.5,-445.5 792.5,-445.5"/>
<text text-anchor="start" x="800.5" y="-485.5" font-family="Helvetica,sans-Serif" font-size="10.00" fill="#000000">/home/travis/build</text>
<text text-anchor="start" x="800.5" y="-474.5" font-family="Helvetica,sans-Serif" font-size="10.00" fill="#000000">/AliceO2Group/AliceO2</text>
<text text-anchor="start" x="800.5" y="-463.5" font-family="Helvetica,sans-Serif" font-size="10.00" fill="#000000">/Detectors/TPC/base/test</text>
<text text-anchor="middle" x="861" y="-452.5" font-family="Helvetica,sans-Serif" font-size="10.00" fill="#000000">/testTPCParameters.cxx</text>
</a>
</g>
</g>
<!-- Node14&#45;&gt;Node20 -->
<g id="edge6" class="edge">
<title>Node14&#45;&gt;Node20</title>
<path fill="none" stroke="#191970" d="M1341.883,-554.2903C1239.6609,-546.4677 1076.14,-529.9863 938,-498 935.2454,-497.3622 932.4512,-496.6622 929.6404,-495.9138"/>
<polygon fill="#191970" stroke="#191970" points="1341.6533,-557.7828 1351.8878,-555.0432 1342.1787,-550.8026 1341.6533,-557.7828"/>
</g>
<!-- Node21 -->
<g id="node8" class="node">
<title>Node21</title>
<g id="a_node8"><a xlink:href="../../d4/d15/TrackInterpolation_8cxx.html" target="_top" xlink:title="Implementation of the TrackInterpolation class. ">
<polygon fill="none" stroke="#000000" points="947.5,-445.5 947.5,-497.5 1154.5,-497.5 1154.5,-445.5 947.5,-445.5"/>
<text text-anchor="start" x="955.5" y="-485.5" font-family="Helvetica,sans-Serif" font-size="10.00" fill="#000000">/home/travis/build</text>
<text text-anchor="start" x="955.5" y="-474.5" font-family="Helvetica,sans-Serif" font-size="10.00" fill="#000000">/AliceO2Group/AliceO2</text>
<text text-anchor="start" x="955.5" y="-463.5" font-family="Helvetica,sans-Serif" font-size="10.00" fill="#000000">/Detectors/TPC/calibration</text>
<text text-anchor="middle" x="1051" y="-452.5" font-family="Helvetica,sans-Serif" font-size="10.00" fill="#000000">/SpacePoints/src/TrackInterpolation.cxx</text>
</a>
</g>
</g>
<!-- Node14&#45;&gt;Node21 -->
<g id="edge7" class="edge">
<title>Node14&#45;&gt;Node21</title>
<path fill="none" stroke="#191970" d="M1341.6525,-538.4476C1288.6013,-526.6003 1222.2087,-511.6598 1163,-498 1160.2742,-497.3711 1157.5116,-496.7318 1154.7243,-496.085"/>
<polygon fill="#191970" stroke="#191970" points="1341.2158,-541.9361 1351.738,-540.6985 1342.7406,-535.1042 1341.2158,-541.9361"/>
</g>
<!-- Node22 -->
<g id="node9" class="node">
<title>Node22</title>
<g id="a_node9"><a xlink:href="../../d4/d2e/GPUCATracking_8cxx.html" target="_top" xlink:title="/home/travis/build\l/AliceO2Group/AliceO2\l/Detectors/TPC/reconstruction\l/src/GPUCATracking.cxx">
<polygon fill="none" stroke="#000000" points="1172.5,-445.5 1172.5,-497.5 1333.5,-497.5 1333.5,-445.5 1172.5,-445.5"/>
<text text-anchor="start" x="1180.5" y="-485.5" font-family="Helvetica,sans-Serif" font-size="10.00" fill="#000000">/home/travis/build</text>
<text text-anchor="start" x="1180.5" y="-474.5" font-family="Helvetica,sans-Serif" font-size="10.00" fill="#000000">/AliceO2Group/AliceO2</text>
<text text-anchor="start" x="1180.5" y="-463.5" font-family="Helvetica,sans-Serif" font-size="10.00" fill="#000000">/Detectors/TPC/reconstruction</text>
<text text-anchor="middle" x="1253" y="-452.5" font-family="Helvetica,sans-Serif" font-size="10.00" fill="#000000">/src/GPUCATracking.cxx</text>
</a>
</g>
</g>
<!-- Node14&#45;&gt;Node22 -->
<g id="edge8" class="edge">
<title>Node14&#45;&gt;Node22</title>
<path fill="none" stroke="#191970" d="M1376.796,-530.1055C1354.4759,-519.5391 1329.656,-507.7893 1308.1349,-497.6011"/>
<polygon fill="#191970" stroke="#191970" points="1375.3281,-533.283 1385.8641,-534.3984 1378.3233,-526.9561 1375.3281,-533.283"/>
</g>
<!-- Node23 -->
<g id="node10" class="node">
<title>Node23</title>
<g id="a_node10"><a xlink:href="../../d4/d7c/HardwareClusterDecoder_8cxx.html" target="_top" xlink:title="/home/travis/build\l/AliceO2Group/AliceO2\l/Detectors/TPC/reconstruction\l/src/HardwareClusterDecoder.cxx">
<polygon fill="none" stroke="#000000" points="1351.5,-445.5 1351.5,-497.5 1530.5,-497.5 1530.5,-445.5 1351.5,-445.5"/>
<text text-anchor="start" x="1359.5" y="-485.5" font-family="Helvetica,sans-Serif" font-size="10.00" fill="#000000">/home/travis/build</text>
<text text-anchor="start" x="1359.5" y="-474.5" font-family="Helvetica,sans-Serif" font-size="10.00" fill="#000000">/AliceO2Group/AliceO2</text>
<text text-anchor="start" x="1359.5" y="-463.5" font-family="Helvetica,sans-Serif" font-size="10.00" fill="#000000">/Detectors/TPC/reconstruction</text>
<text text-anchor="middle" x="1441" y="-452.5" font-family="Helvetica,sans-Serif" font-size="10.00" fill="#000000">/src/HardwareClusterDecoder.cxx</text>
</a>
</g>
</g>
<!-- Node14&#45;&gt;Node23 -->
<g id="edge9" class="edge">
<title>Node14&#45;&gt;Node23</title>
<path fill="none" stroke="#191970" d="M1441,-524.1155C1441,-515.2061 1441,-505.8475 1441,-497.5341"/>
<polygon fill="#191970" stroke="#191970" points="1437.5001,-524.2784 1441,-534.2784 1444.5001,-524.2785 1437.5001,-524.2784"/>
</g>
<!-- Node24 -->
<g id="node11" class="node">
<title>Node24</title>
<g id="a_node11"><a xlink:href="../../d5/dc0/TPCFastTransformHelperO2_8cxx.html" target="_top" xlink:title="/home/travis/build\l/AliceO2Group/AliceO2\l/Detectors/TPC/reconstruction\l/src/TPCFastTransformHelperO2.cxx">
<polygon fill="none" stroke="#000000" points="1549,-445.5 1549,-497.5 1739,-497.5 1739,-445.5 1549,-445.5"/>
<text text-anchor="start" x="1557" y="-485.5" font-family="Helvetica,sans-Serif" font-size="10.00" fill="#000000">/home/travis/build</text>
<text text-anchor="start" x="1557" y="-474.5" font-family="Helvetica,sans-Serif" font-size="10.00" fill="#000000">/AliceO2Group/AliceO2</text>
<text text-anchor="start" x="1557" y="-463.5" font-family="Helvetica,sans-Serif" font-size="10.00" fill="#000000">/Detectors/TPC/reconstruction</text>
<text text-anchor="middle" x="1644" y="-452.5" font-family="Helvetica,sans-Serif" font-size="10.00" fill="#000000">/src/TPCFastTransformHelperO2.cxx</text>
</a>
</g>
</g>
<!-- Node14&#45;&gt;Node24 -->
<g id="edge10" class="edge">
<title>Node14&#45;&gt;Node24</title>
<path fill="none" stroke="#191970" d="M1510.0055,-530.2464C1534.1893,-519.6436 1561.1246,-507.8346 1584.466,-497.6011"/>
<polygon fill="#191970" stroke="#191970" points="1508.2882,-527.1776 1500.5351,-534.3984 1511.0989,-533.5885 1508.2882,-527.1776"/>
</g>
<!-- Node25 -->
<g id="node12" class="node">
<title>Node25</title>
<g id="a_node12"><a xlink:href="../../d6/d42/testTPCFastTransform_8cxx.html" target="_top" xlink:title="This task tests the TPC Fast Transformation. ">
<polygon fill="none" stroke="#000000" points="1757.5,-445.5 1757.5,-497.5 1924.5,-497.5 1924.5,-445.5 1757.5,-445.5"/>
<text text-anchor="start" x="1765.5" y="-485.5" font-family="Helvetica,sans-Serif" font-size="10.00" fill="#000000">/home/travis/build</text>
<text text-anchor="start" x="1765.5" y="-474.5" font-family="Helvetica,sans-Serif" font-size="10.00" fill="#000000">/AliceO2Group/AliceO2</text>
<text text-anchor="start" x="1765.5" y="-463.5" font-family="Helvetica,sans-Serif" font-size="10.00" fill="#000000">/Detectors/TPC/reconstruction</text>
<text text-anchor="middle" x="1841" y="-452.5" font-family="Helvetica,sans-Serif" font-size="10.00" fill="#000000">/test/testTPCFastTransform.cxx</text>
</a>
</g>
</g>
<!-- Node14&#45;&gt;Node25 -->
<g id="edge11" class="edge">
<title>Node14&#45;&gt;Node25</title>
<path fill="none" stroke="#191970" d="M1539.9753,-542.3503C1600.3417,-530.7854 1678.9221,-514.847 1748,-498 1751.099,-497.2442 1754.2503,-496.4546 1757.429,-495.6404"/>
<polygon fill="#191970" stroke="#191970" points="1539.2345,-538.9285 1530.0676,-544.2405 1540.5464,-545.8044 1539.2345,-538.9285"/>
</g>
<!-- Node26 -->
<g id="node13" class="node">
<title>Node26</title>
<g id="a_node13"><a xlink:href="../../dd/d94/DigitContainer_8h.html" target="_top" xlink:title="Definition of the Digit Container. ">
<polygon fill="none" stroke="#000000" points="2035.5,-178.5 2035.5,-230.5 2246.5,-230.5 2246.5,-178.5 2035.5,-178.5"/>
<text text-anchor="start" x="2043.5" y="-218.5" font-family="Helvetica,sans-Serif" font-size="10.00" fill="#000000">/home/travis/build</text>
<text text-anchor="start" x="2043.5" y="-207.5" font-family="Helvetica,sans-Serif" font-size="10.00" fill="#000000">/AliceO2Group/AliceO2</text>
<text text-anchor="start" x="2043.5" y="-196.5" font-family="Helvetica,sans-Serif" font-size="10.00" fill="#000000">/Detectors/TPC/simulation</text>
<text text-anchor="middle" x="2141" y="-185.5" font-family="Helvetica,sans-Serif" font-size="10.00" fill="#000000">/include/TPCSimulation/DigitContainer.h</text>
</a>
</g>
</g>
<!-- Node14&#45;&gt;Node26 -->
<g id="edge12" class="edge">
<title>Node14&#45;&gt;Node26</title>
<path fill="none" stroke="#191970" d="M1540.3139,-555.7099C1692.7268,-547.4401 1970.3205,-528.3898 2004,-498 2081.9885,-427.6291 1996.3896,-354.8368 2054,-267 2063.4857,-252.5374 2077.5612,-240.3345 2091.6397,-230.6581"/>
<polygon fill="#191970" stroke="#191970" points="1539.8087,-552.2319 1530.0107,-556.2629 1540.1839,-559.2219 1539.8087,-552.2319"/>
</g>
<!-- Node28 -->
<g id="node15" class="node">
<title>Node28</title>
<g id="a_node15"><a xlink:href="../../d7/d0a/TPC_2simulation_2src_2Digitizer_8cxx.html" target="_top" xlink:title="/home/travis/build\l/AliceO2Group/AliceO2\l/Detectors/TPC/simulation\l/src/Digitizer.cxx">
<polygon fill="none" stroke="#000000" points="2115.5,-.5 2115.5,-52.5 2258.5,-52.5 2258.5,-.5 2115.5,-.5"/>
<text text-anchor="start" x="2123.5" y="-40.5" font-family="Helvetica,sans-Serif" font-size="10.00" fill="#000000">/home/travis/build</text>
<text text-anchor="start" x="2123.5" y="-29.5" font-family="Helvetica,sans-Serif" font-size="10.00" fill="#000000">/AliceO2Group/AliceO2</text>
<text text-anchor="start" x="2123.5" y="-18.5" font-family="Helvetica,sans-Serif" font-size="10.00" fill="#000000">/Detectors/TPC/simulation</text>
<text text-anchor="middle" x="2187" y="-7.5" font-family="Helvetica,sans-Serif" font-size="10.00" fill="#000000">/src/Digitizer.cxx</text>
</a>
</g>
</g>
<!-- Node14&#45;&gt;Node28 -->
<g id="edge31" class="edge">
<title>Node14&#45;&gt;Node28</title>
<path fill="none" stroke="#191970" d="M1540.2414,-554.8243C1676.4555,-546.0048 1907.4913,-526.9541 1933,-498 2053.1876,-361.5788 1812.3377,-231.699 1925,-89 1948.3626,-59.4087 2046.2429,-42.2985 2115.4969,-33.6865"/>
<polygon fill="#191970" stroke="#191970" points="1539.9539,-551.3354 1530.1979,-555.4671 1540.4011,-558.3211 1539.9539,-551.3354"/>
</g>
<!-- Node30 -->
<g id="node17" class="node">
<title>Node30</title>
<g id="a_node17"><a xlink:href="../../df/d53/DigitContainer_8cxx.html" target="_top" xlink:title="Implementation of the Digit Container. ">
<polygon fill="none" stroke="#000000" points="1934.5,-89.5 1934.5,-141.5 2077.5,-141.5 2077.5,-89.5 1934.5,-89.5"/>
<text text-anchor="start" x="1942.5" y="-129.5" font-family="Helvetica,sans-Serif" font-size="10.00" fill="#000000">/home/travis/build</text>
<text text-anchor="start" x="1942.5" y="-118.5" font-family="Helvetica,sans-Serif" font-size="10.00" fill="#000000">/AliceO2Group/AliceO2</text>
<text text-anchor="start" x="1942.5" y="-107.5" font-family="Helvetica,sans-Serif" font-size="10.00" fill="#000000">/Detectors/TPC/simulation</text>
<text text-anchor="middle" x="2006" y="-96.5" font-family="Helvetica,sans-Serif" font-size="10.00" fill="#000000">/src/DigitContainer.cxx</text>
</a>
</g>
</g>
<!-- Node14&#45;&gt;Node30 -->
<g id="edge30" class="edge">
<title>Node14&#45;&gt;Node30</title>
<path fill="none" stroke="#191970" d="M1540.3764,-554.8748C1683.8496,-545.8317 1935.2814,-526.1733 1966,-498 2004.6398,-462.5619 1990,-434.9298 1990,-382.5 1990,-382.5 1990,-382.5 1990,-293.5 1990,-239.3572 1997.4341,-176.3214 2002.1676,-141.6729"/>
<polygon fill="#191970" stroke="#191970" points="1540,-551.3914 1530.2374,-555.5076 1540.436,-558.3778 1540,-551.3914"/>
</g>
<!-- Node32 -->
<g id="node19" class="node">
<title>Node32</title>
<g id="a_node19"><a xlink:href="../../d5/dcb/DigitGlobalPad_8h.html" target="_top" xlink:title="Definition of the GlobalPad container. ">
<polygon fill="none" stroke="#000000" points="2056.5,-356.5 2056.5,-408.5 2269.5,-408.5 2269.5,-356.5 2056.5,-356.5"/>
<text text-anchor="start" x="2064.5" y="-396.5" font-family="Helvetica,sans-Serif" font-size="10.00" fill="#000000">/home/travis/build</text>
<text text-anchor="start" x="2064.5" y="-385.5" font-family="Helvetica,sans-Serif" font-size="10.00" fill="#000000">/AliceO2Group/AliceO2</text>
<text text-anchor="start" x="2064.5" y="-374.5" font-family="Helvetica,sans-Serif" font-size="10.00" fill="#000000">/Detectors/TPC/simulation</text>
<text text-anchor="middle" x="2163" y="-363.5" font-family="Helvetica,sans-Serif" font-size="10.00" fill="#000000">/include/TPCSimulation/DigitGlobalPad.h</text>
</a>
</g>
</g>
<!-- Node14&#45;&gt;Node32 -->
<g id="edge18" class="edge">
<title>Node14&#45;&gt;Node32</title>
<path fill="none" stroke="#191970" d="M1540.5864,-557.9013C1687.7585,-552.7615 1955.2823,-538.0736 2042,-498 2085.234,-478.0209 2122.7329,-436.2387 2144.1015,-408.7882"/>
<polygon fill="#191970" stroke="#191970" points="1540.0771,-554.4165 1530.2021,-558.2551 1540.3155,-561.4125 1540.0771,-554.4165"/>
</g>
<!-- Node36 -->
<g id="node23" class="node">
<title>Node36</title>
<g id="a_node23"><a xlink:href="../../d0/d45/SAMPAProcessing_8h.html" target="_top" xlink:title="Definition of the SAMPA response. ">
<polygon fill="none" stroke="#000000" points="2295.5,-445.5 2295.5,-497.5 2522.5,-497.5 2522.5,-445.5 2295.5,-445.5"/>
<text text-anchor="start" x="2303.5" y="-485.5" font-family="Helvetica,sans-Serif" font-size="10.00" fill="#000000">/home/travis/build</text>
<text text-anchor="start" x="2303.5" y="-474.5" font-family="Helvetica,sans-Serif" font-size="10.00" fill="#000000">/AliceO2Group/AliceO2</text>
<text text-anchor="start" x="2303.5" y="-463.5" font-family="Helvetica,sans-Serif" font-size="10.00" fill="#000000">/Detectors/TPC/simulation</text>
<text text-anchor="middle" x="2409" y="-452.5" font-family="Helvetica,sans-Serif" font-size="10.00" fill="#000000">/include/TPCSimulation/SAMPAProcessing.h</text>
</a>
</g>
</g>
<!-- Node14&#45;&gt;Node36 -->
<g id="edge23" class="edge">
<title>Node14&#45;&gt;Node36</title>
<path fill="none" stroke="#191970" d="M1540.2933,-551.5982C1674.0426,-539.5802 1919.4952,-517.43 2129,-498 2183.6972,-492.9272 2244.394,-487.1953 2295.2542,-482.3632"/>
<polygon fill="#191970" stroke="#191970" points="1539.7167,-548.1358 1530.07,-552.5166 1540.3431,-555.1077 1539.7167,-548.1358"/>
</g>
<!-- Node39 -->
<g id="node26" class="node">
<title>Node39</title>
<g id="a_node26"><a xlink:href="../../d0/de5/VertexTrackMatcher_8cxx.html" target="_top" xlink:title="Class for vertex track association. ">
<polygon fill="none" stroke="#000000" points="2540.5,-445.5 2540.5,-497.5 2675.5,-497.5 2675.5,-445.5 2540.5,-445.5"/>
<text text-anchor="start" x="2548.5" y="-485.5" font-family="Helvetica,sans-Serif" font-size="10.00" fill="#000000">/home/travis/build</text>
<text text-anchor="start" x="2548.5" y="-474.5" font-family="Helvetica,sans-Serif" font-size="10.00" fill="#000000">/AliceO2Group/AliceO2</text>
<text text-anchor="start" x="2548.5" y="-463.5" font-family="Helvetica,sans-Serif" font-size="10.00" fill="#000000">/Detectors/Vertexing/src</text>
<text text-anchor="middle" x="2608" y="-452.5" font-family="Helvetica,sans-Serif" font-size="10.00" fill="#000000">/VertexTrackMatcher.cxx</text>
</a>
</g>
</g>
<!-- Node14&#45;&gt;Node39 -->
<g id="edge32" class="edge">
<title>Node14&#45;&gt;Node39</title>
<path fill="none" stroke="#191970" d="M1540.2267,-558.3411C1772.0611,-552.7273 2343.8385,-535.4303 2532,-498 2534.741,-497.4547 2537.5176,-496.8329 2540.3075,-496.1499"/>
<polygon fill="#191970" stroke="#191970" points="1540.0281,-554.8448 1530.115,-558.5838 1540.1961,-561.8428 1540.0281,-554.8448"/>
</g>
<!-- Node27 -->
<g id="node14" class="node">
<title>Node27</title>
<g id="a_node14"><a xlink:href="../../de/d92/TPC_2simulation_2include_2TPCSimulation_2Digitizer_8h.html" target="_top" xlink:title="/home/travis/build\l/AliceO2Group/AliceO2\l/Detectors/TPC/simulation\l/include/TPCSimulation/Digitizer.h">
<polygon fill="none" stroke="#000000" points="2096,-89.5 2096,-141.5 2278,-141.5 2278,-89.5 2096,-89.5"/>
<text text-anchor="start" x="2104" y="-129.5" font-family="Helvetica,sans-Serif" font-size="10.00" fill="#000000">/home/travis/build</text>
<text text-anchor="start" x="2104" y="-118.5" font-family="Helvetica,sans-Serif" font-size="10.00" fill="#000000">/AliceO2Group/AliceO2</text>
<text text-anchor="start" x="2104" y="-107.5" font-family="Helvetica,sans-Serif" font-size="10.00" fill="#000000">/Detectors/TPC/simulation</text>
<text text-anchor="middle" x="2187" y="-96.5" font-family="Helvetica,sans-Serif" font-size="10.00" fill="#000000">/include/TPCSimulation/Digitizer.h</text>
</a>
</g>
</g>
<!-- Node26&#45;&gt;Node27 -->
<g id="edge13" class="edge">
<title>Node26&#45;&gt;Node27</title>
<path fill="none" stroke="#191970" d="M2159.2062,-169.2749C2163.9887,-160.0219 2169.0605,-150.209 2173.5441,-141.5341"/>
<polygon fill="#191970" stroke="#191970" points="2156.035,-167.7878 2154.5527,-178.2784 2162.2535,-171.0019 2156.035,-167.7878"/>
</g>
<!-- Node26&#45;&gt;Node30 -->
<g id="edge16" class="edge">
<title>Node26&#45;&gt;Node30</title>
<path fill="none" stroke="#191970" d="M2092.7872,-172.7152C2077.2814,-162.4929 2060.2932,-151.2933 2045.49,-141.5341"/>
<polygon fill="#191970" stroke="#191970" points="2090.9503,-175.6964 2101.2257,-178.2784 2094.8032,-169.8521 2090.9503,-175.6964"/>
</g>
<!-- Node31 -->
<g id="node18" class="node">
<title>Node31</title>
<g id="a_node18"><a xlink:href="../../dd/d5e/testTPCDigitContainer_8cxx.html" target="_top" xlink:title="This task tests the DigitContainer of the TPC digitization. ">
<polygon fill="none" stroke="#000000" points="2296.5,-89.5 2296.5,-141.5 2465.5,-141.5 2465.5,-89.5 2296.5,-89.5"/>
<text text-anchor="start" x="2304.5" y="-129.5" font-family="Helvetica,sans-Serif" font-size="10.00" fill="#000000">/home/travis/build</text>
<text text-anchor="start" x="2304.5" y="-118.5" font-family="Helvetica,sans-Serif" font-size="10.00" fill="#000000">/AliceO2Group/AliceO2</text>
<text text-anchor="start" x="2304.5" y="-107.5" font-family="Helvetica,sans-Serif" font-size="10.00" fill="#000000">/Detectors/TPC/simulation</text>
<text text-anchor="middle" x="2381" y="-96.5" font-family="Helvetica,sans-Serif" font-size="10.00" fill="#000000">/test/testTPCDigitContainer.cxx</text>
</a>
</g>
</g>
<!-- Node26&#45;&gt;Node31 -->
<g id="edge17" class="edge">
<title>Node26&#45;&gt;Node31</title>
<path fill="none" stroke="#191970" d="M2221.0678,-174.8082C2250.046,-164.0621 2282.5308,-152.0157 2310.615,-141.6011"/>
<polygon fill="#191970" stroke="#191970" points="2219.5454,-171.6398 2211.3863,-178.3984 2221.9793,-178.203 2219.5454,-171.6398"/>
</g>
<!-- Node27&#45;&gt;Node28 -->
<g id="edge14" class="edge">
<title>Node27&#45;&gt;Node28</title>
<path fill="none" stroke="#191970" d="M2187,-79.1155C2187,-70.2061 2187,-60.8475 2187,-52.5341"/>
<polygon fill="#191970" stroke="#191970" points="2183.5001,-79.2784 2187,-89.2784 2190.5001,-79.2785 2183.5001,-79.2784"/>
</g>
<!-- Node29 -->
<g id="node16" class="node">
<title>Node29</title>
<g id="a_node16"><a xlink:href="../../d2/d0b/TPCDigitizerSpec_8cxx.html" target="_top" xlink:title="/home/travis/build\l/AliceO2Group/AliceO2\l/Steer/DigitizerWorkflow\l/src/TPCDigitizerSpec.cxx">
<polygon fill="none" stroke="#000000" points="2472,-.5 2472,-52.5 2612,-52.5 2612,-.5 2472,-.5"/>
<text text-anchor="start" x="2480" y="-40.5" font-family="Helvetica,sans-Serif" font-size="10.00" fill="#000000">/home/travis/build</text>
<text text-anchor="start" x="2480" y="-29.5" font-family="Helvetica,sans-Serif" font-size="10.00" fill="#000000">/AliceO2Group/AliceO2</text>
<text text-anchor="start" x="2480" y="-18.5" font-family="Helvetica,sans-Serif" font-size="10.00" fill="#000000">/Steer/DigitizerWorkflow</text>
<text text-anchor="middle" x="2542" y="-7.5" font-family="Helvetica,sans-Serif" font-size="10.00" fill="#000000">/src/TPCDigitizerSpec.cxx</text>
</a>
</g>
</g>
<!-- Node27&#45;&gt;Node29 -->
<g id="edge15" class="edge">
<title>Node27&#45;&gt;Node29</title>
<path fill="none" stroke="#191970" d="M2287.6951,-89.0775C2287.7968,-89.0517 2287.8984,-89.0258 2288,-89 2350.058,-73.2246 2420.8087,-55.8668 2471.8506,-43.4553"/>
<polygon fill="#191970" stroke="#191970" points="2286.9236,-85.6621 2278.1012,-91.5286 2288.6564,-92.4443 2286.9236,-85.6621"/>
</g>
<!-- Node33 -->
<g id="node20" class="node">
<title>Node33</title>
<g id="a_node20"><a xlink:href="../../d0/d60/DigitTime_8h.html" target="_top" xlink:title="Definition of the Time Bin container. ">
<polygon fill="none" stroke="#000000" points="2062.5,-267.5 2062.5,-319.5 2251.5,-319.5 2251.5,-267.5 2062.5,-267.5"/>
<text text-anchor="start" x="2070.5" y="-307.5" font-family="Helvetica,sans-Serif" font-size="10.00" fill="#000000">/home/travis/build</text>
<text text-anchor="start" x="2070.5" y="-296.5" font-family="Helvetica,sans-Serif" font-size="10.00" fill="#000000">/AliceO2Group/AliceO2</text>
<text text-anchor="start" x="2070.5" y="-285.5" font-family="Helvetica,sans-Serif" font-size="10.00" fill="#000000">/Detectors/TPC/simulation</text>
<text text-anchor="middle" x="2157" y="-274.5" font-family="Helvetica,sans-Serif" font-size="10.00" fill="#000000">/include/TPCSimulation/DigitTime.h</text>
</a>
</g>
</g>
<!-- Node32&#45;&gt;Node33 -->
<g id="edge19" class="edge">
<title>Node32&#45;&gt;Node33</title>
<path fill="none" stroke="#191970" d="M2160.5471,-346.1155C2159.9465,-337.2061 2159.3156,-327.8475 2158.7551,-319.5341"/>
<polygon fill="#191970" stroke="#191970" points="2157.0675,-346.5365 2161.2323,-356.2784 2164.0516,-346.0656 2157.0675,-346.5365"/>
</g>
<!-- Node35 -->
<g id="node22" class="node">
<title>Node35</title>
<g id="a_node22"><a xlink:href="../../d1/ddd/DigitGlobalPad_8cxx.html" target="_top" xlink:title="Implementation of the Pad container. ">
<polygon fill="none" stroke="#000000" points="2269.5,-267.5 2269.5,-319.5 2412.5,-319.5 2412.5,-267.5 2269.5,-267.5"/>
<text text-anchor="start" x="2277.5" y="-307.5" font-family="Helvetica,sans-Serif" font-size="10.00" fill="#000000">/home/travis/build</text>
<text text-anchor="start" x="2277.5" y="-296.5" font-family="Helvetica,sans-Serif" font-size="10.00" fill="#000000">/AliceO2Group/AliceO2</text>
<text text-anchor="start" x="2277.5" y="-285.5" font-family="Helvetica,sans-Serif" font-size="10.00" fill="#000000">/Detectors/TPC/simulation</text>
<text text-anchor="middle" x="2341" y="-274.5" font-family="Helvetica,sans-Serif" font-size="10.00" fill="#000000">/src/DigitGlobalPad.cxx</text>
</a>
</g>
</g>
<!-- Node32&#45;&gt;Node35 -->
<g id="edge22" class="edge">
<title>Node32&#45;&gt;Node35</title>
<path fill="none" stroke="#191970" d="M2224.5882,-351.7059C2245.5594,-341.2203 2268.7808,-329.6096 2288.9317,-319.5341"/>
<polygon fill="#191970" stroke="#191970" points="2222.8221,-348.6757 2215.4431,-356.2784 2225.9527,-354.9367 2222.8221,-348.6757"/>
</g>
<!-- Node33&#45;&gt;Node26 -->
<g id="edge20" class="edge">
<title>Node33&#45;&gt;Node26</title>
<path fill="none" stroke="#191970" d="M2150.5112,-257.4059C2148.8939,-248.4097 2147.1911,-238.9379 2145.6803,-230.5341"/>
<polygon fill="#191970" stroke="#191970" points="2147.0718,-258.0555 2152.286,-267.2784 2153.9613,-256.8169 2147.0718,-258.0555"/>
</g>
<!-- Node34 -->
<g id="node21" class="node">
<title>Node34</title>
<g id="a_node21"><a xlink:href="../../dd/dcd/DigitTime_8cxx.html" target="_top" xlink:title="Implementation of the Time Bin container. ">
<polygon fill="none" stroke="#000000" points="2264.5,-178.5 2264.5,-230.5 2407.5,-230.5 2407.5,-178.5 2264.5,-178.5"/>
<text text-anchor="start" x="2272.5" y="-218.5" font-family="Helvetica,sans-Serif" font-size="10.00" fill="#000000">/home/travis/build</text>
<text text-anchor="start" x="2272.5" y="-207.5" font-family="Helvetica,sans-Serif" font-size="10.00" fill="#000000">/AliceO2Group/AliceO2</text>
<text text-anchor="start" x="2272.5" y="-196.5" font-family="Helvetica,sans-Serif" font-size="10.00" fill="#000000">/Detectors/TPC/simulation</text>
<text text-anchor="middle" x="2336" y="-185.5" font-family="Helvetica,sans-Serif" font-size="10.00" fill="#000000">/src/DigitTime.cxx</text>
</a>
</g>
</g>
<!-- Node33&#45;&gt;Node34 -->
<g id="edge21" class="edge">
<title>Node33&#45;&gt;Node34</title>
<path fill="none" stroke="#191970" d="M2218.9342,-262.7059C2240.0232,-252.2203 2263.3751,-240.6096 2283.6392,-230.5341"/>
<polygon fill="#191970" stroke="#191970" points="2217.1338,-259.6923 2209.7378,-267.2784 2220.2503,-265.9603 2217.1338,-259.6923"/>
</g>
<!-- Node36&#45;&gt;Node28 -->
<g id="edge25" class="edge">
<title>Node36&#45;&gt;Node28</title>
<path fill="none" stroke="#191970" d="M2431.1318,-436.4618C2474.2628,-363.2682 2558.3547,-192.384 2475,-89 2448.3055,-55.8911 2334.8219,-39.4263 2258.5313,-31.9511"/>
<polygon fill="#191970" stroke="#191970" points="2427.9718,-434.9264 2425.8388,-445.3043 2433.978,-438.5217 2427.9718,-434.9264"/>
</g>
<!-- Node36&#45;&gt;Node29 -->
<g id="edge29" class="edge">
<title>Node36&#45;&gt;Node29</title>
<path fill="none" stroke="#191970" d="M2532.8421,-444.8099C2611.6594,-427.8234 2699,-409 2699,-409 2739.1752,-372.8573 2737,-347.5402 2737,-293.5 2737,-293.5 2737,-293.5 2737,-204.5 2737,-131.7328 2662.0137,-80.7649 2605.0416,-52.5424"/>
<polygon fill="#191970" stroke="#191970" points="2531.8215,-441.4494 2522.7833,-446.9777 2533.2963,-448.2923 2531.8215,-441.4494"/>
</g>
<!-- Node36&#45;&gt;Node31 -->
<g id="edge27" class="edge">
<title>Node36&#45;&gt;Node31</title>
<path fill="none" stroke="#191970" d="M2532.6737,-444.8389C2603.3249,-429.3189 2678.4597,-412.1902 2681,-409 2695.6732,-390.5728 2691.1932,-377.2359 2681,-356 2630.8101,-251.4376 2510.5545,-178.0245 2438.4618,-141.6445"/>
<polygon fill="#191970" stroke="#191970" points="2531.7605,-441.4559 2522.7423,-447.0166 2533.2599,-448.2935 2531.7605,-441.4559"/>
</g>
<!-- Node36&#45;&gt;Node32 -->
<g id="edge24" class="edge">
<title>Node36&#45;&gt;Node32</title>
<path fill="none" stroke="#191970" d="M2327.3177,-441.9483C2297.5175,-431.1669 2264.0561,-419.061 2235.1446,-408.6011"/>
<polygon fill="#191970" stroke="#191970" points="2326.2598,-445.2875 2336.8541,-445.3984 2328.6413,-438.705 2326.2598,-445.2875"/>
</g>
<!-- Node37 -->
<g id="node24" class="node">
<title>Node37</title>
<g id="a_node24"><a xlink:href="../../d1/dd8/SAMPAProcessing_8cxx.html" target="_top" xlink:title="Implementation of the SAMPA response. ">
<polygon fill="none" stroke="#000000" points="2287.5,-356.5 2287.5,-408.5 2430.5,-408.5 2430.5,-356.5 2287.5,-356.5"/>
<text text-anchor="start" x="2295.5" y="-396.5" font-family="Helvetica,sans-Serif" font-size="10.00" fill="#000000">/home/travis/build</text>
<text text-anchor="start" x="2295.5" y="-385.5" font-family="Helvetica,sans-Serif" font-size="10.00" fill="#000000">/AliceO2Group/AliceO2</text>
<text text-anchor="start" x="2295.5" y="-374.5" font-family="Helvetica,sans-Serif" font-size="10.00" fill="#000000">/Detectors/TPC/simulation</text>
<text text-anchor="middle" x="2359" y="-363.5" font-family="Helvetica,sans-Serif" font-size="10.00" fill="#000000">/src/SAMPAProcessing.cxx</text>
</a>
</g>
</g>
<!-- Node36&#45;&gt;Node37 -->
<g id="edge26" class="edge">
<title>Node36&#45;&gt;Node37</title>
<path fill="none" stroke="#191970" d="M2389.2106,-436.2749C2384.0123,-427.0219 2378.4994,-417.209 2373.6259,-408.5341"/>
<polygon fill="#191970" stroke="#191970" points="2386.3193,-438.2744 2394.2688,-445.2784 2392.4222,-434.8457 2386.3193,-438.2744"/>
</g>
<!-- Node38 -->
<g id="node25" class="node">
<title>Node38</title>
<g id="a_node25"><a xlink:href="../../d0/d5c/testTPCSAMPAProcessing_8cxx.html" target="_top" xlink:title="/home/travis/build\l/AliceO2Group/AliceO2\l/Detectors/TPC/simulation\l/test/testTPCSAMPAProcessing.cxx">
<polygon fill="none" stroke="#000000" points="2486.5,-356.5 2486.5,-408.5 2671.5,-408.5 2671.5,-356.5 2486.5,-356.5"/>
<text text-anchor="start" x="2494.5" y="-396.5" font-family="Helvetica,sans-Serif" font-size="10.00" fill="#000000">/home/travis/build</text>
<text text-anchor="start" x="2494.5" y="-385.5" font-family="Helvetica,sans-Serif" font-size="10.00" fill="#000000">/AliceO2Group/AliceO2</text>
<text text-anchor="start" x="2494.5" y="-374.5" font-family="Helvetica,sans-Serif" font-size="10.00" fill="#000000">/Detectors/TPC/simulation</text>
<text text-anchor="middle" x="2579" y="-363.5" font-family="Helvetica,sans-Serif" font-size="10.00" fill="#000000">/test/testTPCSAMPAProcessing.cxx</text>
</a>
</g>
</g>
<!-- Node36&#45;&gt;Node38 -->
<g id="edge28" class="edge">
<title>Node36&#45;&gt;Node38</title>
<path fill="none" stroke="#191970" d="M2468.0897,-440.5648C2488.0477,-430.1162 2510.1129,-418.5644 2529.2718,-408.5341"/>
<polygon fill="#191970" stroke="#191970" points="2466.3221,-437.5395 2459.0861,-445.2784 2469.5688,-443.741 2466.3221,-437.5395"/>
</g>
</g>
</svg>
