<?xml version="1.0" encoding="UTF-8" standalone="no"?>
<!DOCTYPE svg PUBLIC "-//W3C//DTD SVG 1.1//EN"
 "http://www.w3.org/Graphics/SVG/1.1/DTD/svg11.dtd">
<!-- Generated by graphviz version 2.40.1 (20161225.0304)
 -->
<!-- Title: /home/travis/build/AliceO2Group/AliceO2/GPU/TPCFastTransformation/TPCFastTransform.cxx Pages: 1 -->
<svg width="941pt" height="565pt"
 viewBox="0.00 0.00 941.00 565.00" xmlns="http://www.w3.org/2000/svg" xmlns:xlink="http://www.w3.org/1999/xlink">
<g id="graph0" class="graph" transform="scale(1 1) rotate(0) translate(4 561)">
<title>/home/travis/build/AliceO2Group/AliceO2/GPU/TPCFastTransformation/TPCFastTransform.cxx</title>
<!-- Node0 -->
<g id="node1" class="node">
<title>Node0</title>
<polygon fill="#bfbfbf" stroke="#000000" points="689.5,-504.5 689.5,-556.5 844.5,-556.5 844.5,-504.5 689.5,-504.5"/>
<text text-anchor="start" x="697.5" y="-544.5" font-family="Helvetica,sans-Serif" font-size="10.00" fill="#000000">/home/travis/build</text>
<text text-anchor="start" x="697.5" y="-533.5" font-family="Helvetica,sans-Serif" font-size="10.00" fill="#000000">/AliceO2Group/AliceO2</text>
<text text-anchor="start" x="697.5" y="-522.5" font-family="Helvetica,sans-Serif" font-size="10.00" fill="#000000">/GPU/TPCFastTransformation</text>
<text text-anchor="middle" x="767" y="-511.5" font-family="Helvetica,sans-Serif" font-size="10.00" fill="#000000">/TPCFastTransform.cxx</text>
</g>
<!-- Node1 -->
<g id="node2" class="node">
<title>Node1</title>
<polygon fill="none" stroke="#bfbfbf" points="497.5,-.5 497.5,-19.5 556.5,-19.5 556.5,-.5 497.5,-.5"/>
<text text-anchor="middle" x="527" y="-7.5" font-family="Helvetica,sans-Serif" font-size="10.00" fill="#000000">Rtypes.h</text>
</g>
<!-- Node0&#45;&gt;Node1 -->
<g id="edge1" class="edge">
<title>Node0&#45;&gt;Node1</title>
<path fill="none" stroke="#191970" d="M734.2533,-504.3722C708.5201,-480.6915 677,-443.2635 677,-402 677,-402 677,-402 677,-122 677,-91.4754 678.956,-78.1946 658,-56 634.2712,-30.8687 596.0252,-19.4587 566.9692,-14.2834"/>
<polygon fill="#191970" stroke="#191970" points="567.1514,-10.7681 556.7241,-12.6449 566.0459,-17.6803 567.1514,-10.7681"/>
</g>
<!-- Node2 -->
<g id="node3" class="node">
<title>Node2</title>
<g id="a_node3"><a xlink:href="../../d4/db1/TPCFastTransform_8h.html" target="_top" xlink:title="Definition of TPCFastTransform class. ">
<polygon fill="none" stroke="#000000" points="244.5,-448.5 244.5,-467.5 357.5,-467.5 357.5,-448.5 244.5,-448.5"/>
<text text-anchor="middle" x="301" y="-455.5" font-family="Helvetica,sans-Serif" font-size="10.00" fill="#000000">TPCFastTransform.h</text>
</a>
</g>
</g>
<!-- Node0&#45;&gt;Node2 -->
<g id="edge2" class="edge">
<title>Node0&#45;&gt;Node2</title>
<path fill="none" stroke="#191970" d="M689.2644,-518.4059C599.3095,-504.4108 452.69,-481.5998 367.7056,-468.378"/>
<polygon fill="#191970" stroke="#191970" points="368.0743,-464.8934 357.6551,-466.8144 366.9982,-471.8101 368.0743,-464.8934"/>
</g>
<!-- Node12 -->
<g id="node13" class="node">
<title>Node12</title>
<g id="a_node13"><a xlink:href="../../df/d5b/GPUCommonLogger_8h.html" target="_top" xlink:title="GPUCommonLogger.h">
<polygon fill="none" stroke="#000000" points="705.5,-56.5 705.5,-75.5 828.5,-75.5 828.5,-56.5 705.5,-56.5"/>
<text text-anchor="middle" x="767" y="-63.5" font-family="Helvetica,sans-Serif" font-size="10.00" fill="#000000">GPUCommonLogger.h</text>
</a>
</g>
</g>
<!-- Node0&#45;&gt;Node12 -->
<g id="edge44" class="edge">
<title>Node0&#45;&gt;Node12</title>
<path fill="none" stroke="#191970" d="M767,-504.4123C767,-478.4505 767,-437.4714 767,-402 767,-402 767,-402 767,-178 767,-145.7116 767,-108.1872 767,-85.8048"/>
<polygon fill="#191970" stroke="#191970" points="770.5001,-85.5883 767,-75.5884 763.5001,-85.5884 770.5001,-85.5883"/>
</g>
<!-- Node13 -->
<g id="node14" class="node">
<title>Node13</title>
<polygon fill="none" stroke="#bfbfbf" points="817,-.5 817,-19.5 877,-19.5 877,-.5 817,-.5"/>
<text text-anchor="middle" x="847" y="-7.5" font-family="Helvetica,sans-Serif" font-size="10.00" fill="#000000">iostream</text>
</g>
<!-- Node0&#45;&gt;Node13 -->
<g id="edge42" class="edge">
<title>Node0&#45;&gt;Node13</title>
<path fill="none" stroke="#191970" d="M799.7467,-504.3722C825.4799,-480.6915 857,-443.2635 857,-402 857,-402 857,-402 857,-122 857,-89.5831 852.7925,-52.0969 849.8359,-29.7572"/>
<polygon fill="#191970" stroke="#191970" points="853.2637,-28.992 848.4328,-19.5627 846.3291,-29.9466 853.2637,-28.992"/>
</g>
<!-- Node27 -->
<g id="node28" class="node">
<title>Node27</title>
<polygon fill="none" stroke="#bfbfbf" points="885,-448.5 885,-467.5 933,-467.5 933,-448.5 885,-448.5"/>
<text text-anchor="middle" x="909" y="-455.5" font-family="Helvetica,sans-Serif" font-size="10.00" fill="#000000">TFile.h</text>
</g>
<!-- Node0&#45;&gt;Node27 -->
<g id="edge43" class="edge">
<title>Node0&#45;&gt;Node27</title>
<path fill="none" stroke="#191970" d="M818.2653,-504.3258C839.4464,-493.5115 863.173,-481.3976 881.05,-472.2703"/>
<polygon fill="#191970" stroke="#191970" points="883.0117,-475.1985 890.3265,-467.534 879.8286,-468.9641 883.0117,-475.1985"/>
</g>
<!-- Node3 -->
<g id="node4" class="node">
<title>Node3</title>
<g id="a_node4"><a xlink:href="../../db/dff/FlatObject_8h.html" target="_top" xlink:title="Definition of FlatObject class. ">
<polygon fill="none" stroke="#000000" points="507.5,-112.5 507.5,-131.5 582.5,-131.5 582.5,-112.5 507.5,-112.5"/>
<text text-anchor="middle" x="545" y="-119.5" font-family="Helvetica,sans-Serif" font-size="10.00" fill="#000000">FlatObject.h</text>
</a>
</g>
</g>
<!-- Node2&#45;&gt;Node3 -->
<g id="edge3" class="edge">
<title>Node2&#45;&gt;Node3</title>
<path fill="none" stroke="#191970" d="M354.1241,-448.4489C436.8332,-432.0473 587,-395.4583 587,-346 587,-346 587,-346 587,-234 587,-199.2434 569.0481,-162.0613 556.6174,-140.4811"/>
<polygon fill="#191970" stroke="#191970" points="559.5177,-138.5116 551.3789,-131.7285 553.5113,-142.1065 559.5177,-138.5116"/>
</g>
<!-- Node15 -->
<g id="node16" class="node">
<title>Node15</title>
<g id="a_node16"><a xlink:href="../../d5/dde/TPCFastTransformGeo_8h.html" target="_top" xlink:title="Definition of TPCFastTransformGeo class. ">
<polygon fill="none" stroke="#000000" points="143,-280.5 143,-299.5 275,-299.5 275,-280.5 143,-280.5"/>
<text text-anchor="middle" x="209" y="-287.5" font-family="Helvetica,sans-Serif" font-size="10.00" fill="#000000">TPCFastTransformGeo.h</text>
</a>
</g>
</g>
<!-- Node2&#45;&gt;Node15 -->
<g id="edge16" class="edge">
<title>Node2&#45;&gt;Node15</title>
<path fill="none" stroke="#191970" d="M257.5168,-448.3976C237.9249,-441.6689 216.6205,-430.4539 205,-412 185.2384,-380.6178 194.3638,-335.1303 202.1169,-309.487"/>
<polygon fill="#191970" stroke="#191970" points="205.4994,-310.4032 205.2674,-299.811 198.8433,-308.236 205.4994,-310.4032"/>
</g>
<!-- Node16 -->
<g id="node17" class="node">
<title>Node16</title>
<g id="a_node17"><a xlink:href="../../d8/d93/TPCFastSpaceChargeCorrection_8h.html" target="_top" xlink:title="Definition of TPCFastSpaceChargeCorrection class. ">
<polygon fill="none" stroke="#000000" points="276,-392.5 276,-411.5 454,-411.5 454,-392.5 276,-392.5"/>
<text text-anchor="middle" x="365" y="-399.5" font-family="Helvetica,sans-Serif" font-size="10.00" fill="#000000">TPCFastSpaceChargeCorrection.h</text>
</a>
</g>
</g>
<!-- Node2&#45;&gt;Node16 -->
<g id="edge19" class="edge">
<title>Node2&#45;&gt;Node16</title>
<path fill="none" stroke="#191970" d="M312.1479,-448.2455C321.5087,-440.0549 335.0858,-428.1749 346.1349,-418.5069"/>
<polygon fill="#191970" stroke="#191970" points="348.7588,-420.8618 353.9798,-411.6427 344.1492,-415.5937 348.7588,-420.8618"/>
</g>
<!-- Node23 -->
<g id="node24" class="node">
<title>Node23</title>
<g id="a_node24"><a xlink:href="../../d6/da2/GPUCommonMath_8h.html" target="_top" xlink:title="GPUCommonMath.h">
<polygon fill="none" stroke="#000000" points="18.5,-392.5 18.5,-411.5 133.5,-411.5 133.5,-392.5 18.5,-392.5"/>
<text text-anchor="middle" x="76" y="-399.5" font-family="Helvetica,sans-Serif" font-size="10.00" fill="#000000">GPUCommonMath.h</text>
</a>
</g>
</g>
<!-- Node2&#45;&gt;Node23 -->
<g id="edge37" class="edge">
<title>Node2&#45;&gt;Node23</title>
<path fill="none" stroke="#191970" d="M262.5768,-448.4369C224.3125,-438.9133 165.4663,-424.2672 124.1151,-413.9753"/>
<polygon fill="#191970" stroke="#191970" points="124.8141,-410.5426 114.2647,-411.5237 123.1234,-417.3353 124.8141,-410.5426"/>
</g>
<!-- Node26 -->
<g id="node27" class="node">
<title>Node26</title>
<polygon fill="none" stroke="#bfbfbf" points="214,-392.5 214,-411.5 258,-411.5 258,-392.5 214,-392.5"/>
<text text-anchor="middle" x="236" y="-399.5" font-family="Helvetica,sans-Serif" font-size="10.00" fill="#000000">string</text>
</g>
<!-- Node2&#45;&gt;Node26 -->
<g id="edge41" class="edge">
<title>Node2&#45;&gt;Node26</title>
<path fill="none" stroke="#191970" d="M289.6779,-448.2455C280.0777,-439.9746 266.1108,-427.9416 254.8305,-418.2232"/>
<polygon fill="#191970" stroke="#191970" points="257.053,-415.5182 247.1924,-411.6427 252.484,-420.8214 257.053,-415.5182"/>
</g>
<!-- Node4 -->
<g id="node5" class="node">
<title>Node4</title>
<polygon fill="none" stroke="#bfbfbf" points="457.5,-56.5 457.5,-75.5 510.5,-75.5 510.5,-56.5 457.5,-56.5"/>
<text text-anchor="middle" x="484" y="-63.5" font-family="Helvetica,sans-Serif" font-size="10.00" fill="#000000">cstddef</text>
</g>
<!-- Node3&#45;&gt;Node4 -->
<g id="edge4" class="edge">
<title>Node3&#45;&gt;Node4</title>
<path fill="none" stroke="#191970" d="M534.3746,-112.2455C525.4527,-104.0549 512.512,-92.1749 501.9808,-82.5069"/>
<polygon fill="#191970" stroke="#191970" points="504.2371,-79.8271 494.5036,-75.6427 499.5032,-84.9837 504.2371,-79.8271"/>
</g>
<!-- Node5 -->
<g id="node6" class="node">
<title>Node5</title>
<polygon fill="none" stroke="#bfbfbf" points="238,-56.5 238,-75.5 296,-75.5 296,-56.5 238,-56.5"/>
<text text-anchor="middle" x="267" y="-63.5" font-family="Helvetica,sans-Serif" font-size="10.00" fill="#000000">memory</text>
</g>
<!-- Node3&#45;&gt;Node5 -->
<g id="edge5" class="edge">
<title>Node3&#45;&gt;Node5</title>
<path fill="none" stroke="#191970" d="M507.3072,-113.8929C504.1607,-113.2427 501.027,-112.6042 498,-112 415.5227,-95.5364 391.8312,-95.1242 306.2934,-76.1759"/>
<polygon fill="#191970" stroke="#191970" points="306.9294,-72.7317 296.4066,-73.965 305.4017,-79.563 306.9294,-72.7317"/>
</g>
<!-- Node6 -->
<g id="node7" class="node">
<title>Node6</title>
<polygon fill="none" stroke="#bfbfbf" points="529,-56.5 529,-75.5 579,-75.5 579,-56.5 529,-56.5"/>
<text text-anchor="middle" x="554" y="-63.5" font-family="Helvetica,sans-Serif" font-size="10.00" fill="#000000">cstring</text>
</g>
<!-- Node3&#45;&gt;Node6 -->
<g id="edge6" class="edge">
<title>Node3&#45;&gt;Node6</title>
<path fill="none" stroke="#191970" d="M546.5677,-112.2455C547.7421,-104.9382 549.3884,-94.6944 550.8332,-85.7046"/>
<polygon fill="#191970" stroke="#191970" points="554.3191,-86.0714 552.4503,-75.6427 547.4078,-84.9606 554.3191,-86.0714"/>
</g>
<!-- Node7 -->
<g id="node8" class="node">
<title>Node7</title>
<polygon fill="none" stroke="#bfbfbf" points="597,-56.5 597,-75.5 649,-75.5 649,-56.5 597,-56.5"/>
<text text-anchor="middle" x="623" y="-63.5" font-family="Helvetica,sans-Serif" font-size="10.00" fill="#000000">cassert</text>
</g>
<!-- Node3&#45;&gt;Node7 -->
<g id="edge7" class="edge">
<title>Node3&#45;&gt;Node7</title>
<path fill="none" stroke="#191970" d="M558.5866,-112.2455C570.3305,-103.814 587.5199,-91.4729 601.1882,-81.6598"/>
<polygon fill="#191970" stroke="#191970" points="603.4871,-84.3179 609.5691,-75.6427 599.4046,-78.6316 603.4871,-84.3179"/>
</g>
<!-- Node8 -->
<g id="node9" class="node">
<title>Node8</title>
<g id="a_node9"><a xlink:href="../../df/d21/GPUCommonDef_8h.html" target="_top" xlink:title="GPUCommonDef.h">
<polygon fill="none" stroke="#000000" points="112.5,-56.5 112.5,-75.5 219.5,-75.5 219.5,-56.5 112.5,-56.5"/>
<text text-anchor="middle" x="166" y="-63.5" font-family="Helvetica,sans-Serif" font-size="10.00" fill="#000000">GPUCommonDef.h</text>
</a>
</g>
</g>
<!-- Node3&#45;&gt;Node8 -->
<g id="edge8" class="edge">
<title>Node3&#45;&gt;Node8</title>
<path fill="none" stroke="#191970" d="M507.3391,-113.7217C504.1856,-113.1093 501.0415,-112.5263 498,-112 382.2787,-91.9761 350.0367,-93.3651 229.586,-76.0483"/>
<polygon fill="#191970" stroke="#191970" points="230.0017,-72.572 219.6027,-74.5994 228.9963,-79.4994 230.0017,-72.572"/>
</g>
<!-- Node11 -->
<g id="node12" class="node">
<title>Node11</title>
<g id="a_node12"><a xlink:href="../../d2/d45/GPUCommonRtypes_8h.html" target="_top" xlink:title="GPUCommonRtypes.h">
<polygon fill="none" stroke="#000000" points="314.5,-56.5 314.5,-75.5 439.5,-75.5 439.5,-56.5 314.5,-56.5"/>
<text text-anchor="middle" x="377" y="-63.5" font-family="Helvetica,sans-Serif" font-size="10.00" fill="#000000">GPUCommonRtypes.h</text>
</a>
</g>
</g>
<!-- Node3&#45;&gt;Node11 -->
<g id="edge11" class="edge">
<title>Node3&#45;&gt;Node11</title>
<path fill="none" stroke="#191970" d="M516.1198,-112.3733C488.1839,-103.0613 445.6858,-88.8953 415.0131,-78.671"/>
<polygon fill="#191970" stroke="#191970" points="416.097,-75.3431 405.5034,-75.5011 413.8834,-81.9839 416.097,-75.3431"/>
</g>
<!-- Node3&#45;&gt;Node12 -->
<g id="edge13" class="edge">
<title>Node3&#45;&gt;Node12</title>
<path fill="none" stroke="#191970" d="M582.6593,-112.5004C620.3728,-102.9871 678.5312,-88.3164 719.4162,-78.0031"/>
<polygon fill="#191970" stroke="#191970" points="720.3158,-81.3859 729.156,-75.5462 718.6036,-74.5985 720.3158,-81.3859"/>
</g>
<!-- Node9 -->
<g id="node10" class="node">
<title>Node9</title>
<g id="a_node10"><a xlink:href="../../d5/d93/GPUCommonDefSettings_8h.html" target="_top" xlink:title="GPUCommonDefSettings.h">
<polygon fill="none" stroke="#000000" points="15,-.5 15,-19.5 163,-19.5 163,-.5 15,-.5"/>
<text text-anchor="middle" x="89" y="-7.5" font-family="Helvetica,sans-Serif" font-size="10.00" fill="#000000">GPUCommonDefSettings.h</text>
</a>
</g>
</g>
<!-- Node8&#45;&gt;Node9 -->
<g id="edge9" class="edge">
<title>Node8&#45;&gt;Node9</title>
<path fill="none" stroke="#191970" d="M152.5876,-56.2455C140.9943,-47.814 124.0252,-35.4729 110.5322,-25.6598"/>
<polygon fill="#191970" stroke="#191970" points="112.4047,-22.6938 102.2587,-19.6427 108.2874,-28.355 112.4047,-22.6938"/>
</g>
<!-- Node10 -->
<g id="node11" class="node">
<title>Node10</title>
<g id="a_node11"><a xlink:href="../../da/d5a/GPUCommonDefAPI_8h.html" target="_top" xlink:title="GPUCommonDefAPI.h">
<polygon fill="none" stroke="#000000" points="181,-.5 181,-19.5 305,-19.5 305,-.5 181,-.5"/>
<text text-anchor="middle" x="243" y="-7.5" font-family="Helvetica,sans-Serif" font-size="10.00" fill="#000000">GPUCommonDefAPI.h</text>
</a>
</g>
</g>
<!-- Node8&#45;&gt;Node10 -->
<g id="edge10" class="edge">
<title>Node8&#45;&gt;Node10</title>
<path fill="none" stroke="#191970" d="M179.4124,-56.2455C191.0057,-47.814 207.9748,-35.4729 221.4678,-25.6598"/>
<polygon fill="#191970" stroke="#191970" points="223.7126,-28.355 229.7413,-19.6427 219.5953,-22.6938 223.7126,-28.355"/>
</g>
<!-- Node11&#45;&gt;Node1 -->
<g id="edge12" class="edge">
<title>Node11&#45;&gt;Node1</title>
<path fill="none" stroke="#191970" d="M402.7859,-56.3733C427.4047,-47.1822 464.69,-33.2624 491.9875,-23.0713"/>
<polygon fill="#191970" stroke="#191970" points="493.4063,-26.2777 501.5506,-19.5011 490.958,-19.7198 493.4063,-26.2777"/>
</g>
<!-- Node12&#45;&gt;Node13 -->
<g id="edge14" class="edge">
<title>Node12&#45;&gt;Node13</title>
<path fill="none" stroke="#191970" d="M780.9349,-56.2455C793.0947,-47.7337 810.9464,-35.2375 825.0285,-25.3801"/>
<polygon fill="#191970" stroke="#191970" points="827.0395,-28.2447 833.2248,-19.6427 823.0253,-22.51 827.0395,-28.2447"/>
</g>
<!-- Node14 -->
<g id="node15" class="node">
<title>Node14</title>
<polygon fill="none" stroke="#bfbfbf" points="744,-.5 744,-19.5 790,-19.5 790,-.5 744,-.5"/>
<text text-anchor="middle" x="767" y="-7.5" font-family="Helvetica,sans-Serif" font-size="10.00" fill="#000000">cstdio</text>
</g>
<!-- Node12&#45;&gt;Node14 -->
<g id="edge15" class="edge">
<title>Node12&#45;&gt;Node14</title>
<path fill="none" stroke="#191970" d="M767,-56.2455C767,-48.9382 767,-38.6944 767,-29.7046"/>
<polygon fill="#191970" stroke="#191970" points="770.5001,-29.6426 767,-19.6427 763.5001,-29.6427 770.5001,-29.6426"/>
</g>
<!-- Node15&#45;&gt;Node5 -->
<g id="edge18" class="edge">
<title>Node15&#45;&gt;Node5</title>
<path fill="none" stroke="#191970" d="M211.4922,-280.375C220.2859,-246.4133 249.9762,-131.7472 261.9407,-85.5392"/>
<polygon fill="#191970" stroke="#191970" points="265.3987,-86.1472 264.5171,-75.5891 258.6221,-84.3925 265.3987,-86.1472"/>
</g>
<!-- Node15&#45;&gt;Node8 -->
<g id="edge17" class="edge">
<title>Node15&#45;&gt;Node8</title>
<path fill="none" stroke="#191970" d="M204.839,-280.2937C201.034,-271.0948 195.4832,-256.817 192,-244 176.761,-187.9252 169.9392,-119.3333 167.3492,-86.0408"/>
<polygon fill="#191970" stroke="#191970" points="170.8216,-85.5339 166.6027,-75.8153 163.8401,-86.0436 170.8216,-85.5339"/>
</g>
<!-- Node16&#45;&gt;Node3 -->
<g id="edge35" class="edge">
<title>Node16&#45;&gt;Node3</title>
<path fill="none" stroke="#191970" d="M420.7054,-392.4119C474.8614,-379.5185 549,-350.7701 549,-290 549,-290 549,-290 549,-234 549,-201.691 547.317,-164.1727 546.1344,-141.7971"/>
<polygon fill="#191970" stroke="#191970" points="549.6167,-141.3771 545.5731,-131.5843 542.6272,-141.7613 549.6167,-141.3771"/>
</g>
<!-- Node16&#45;&gt;Node8 -->
<g id="edge36" class="edge">
<title>Node16&#45;&gt;Node8</title>
<path fill="none" stroke="#191970" d="M313.328,-392.4837C260.8024,-380.138 180.7038,-353.5039 134,-300 113.9267,-277.004 115,-264.5246 115,-234 115,-234 115,-234 115,-178 115,-142.0802 136.9955,-105.0352 152.0967,-83.8345"/>
<polygon fill="#191970" stroke="#191970" points="155.1163,-85.638 158.2542,-75.5185 149.4906,-81.4725 155.1163,-85.638"/>
</g>
<!-- Node16&#45;&gt;Node15 -->
<g id="edge34" class="edge">
<title>Node16&#45;&gt;Node15</title>
<path fill="none" stroke="#191970" d="M351.6995,-392.4509C324.7596,-373.1094 263.5255,-329.1465 230.7152,-305.5904"/>
<polygon fill="#191970" stroke="#191970" points="232.4313,-302.5139 222.2668,-299.5249 228.3488,-308.2001 232.4313,-302.5139"/>
</g>
<!-- Node17 -->
<g id="node18" class="node">
<title>Node17</title>
<g id="a_node18"><a xlink:href="../../dd/d27/Spline2D_8h.html" target="_top" xlink:title="Definition of Spline2D class. ">
<polygon fill="none" stroke="#000000" points="330.5,-336.5 330.5,-355.5 399.5,-355.5 399.5,-336.5 330.5,-336.5"/>
<text text-anchor="middle" x="365" y="-343.5" font-family="Helvetica,sans-Serif" font-size="10.00" fill="#000000">Spline2D.h</text>
</a>
</g>
</g>
<!-- Node16&#45;&gt;Node17 -->
<g id="edge20" class="edge">
<title>Node16&#45;&gt;Node17</title>
<path fill="none" stroke="#191970" d="M365,-392.2455C365,-384.9382 365,-374.6944 365,-365.7046"/>
<polygon fill="#191970" stroke="#191970" points="368.5001,-365.6426 365,-355.6427 361.5001,-365.6427 368.5001,-365.6426"/>
</g>
<!-- Node17&#45;&gt;Node3 -->
<g id="edge32" class="edge">
<title>Node17&#45;&gt;Node3</title>
<path fill="none" stroke="#191970" d="M399.5629,-338.0076C422.132,-331.2243 450.8572,-319.4154 470,-300 493.3415,-276.3261 525.5183,-182.5415 538.8412,-141.4548"/>
<polygon fill="#191970" stroke="#191970" points="542.2196,-142.3814 541.9414,-131.7902 535.5541,-140.2432 542.2196,-142.3814"/>
</g>
<!-- Node17&#45;&gt;Node8 -->
<g id="edge33" class="edge">
<title>Node17&#45;&gt;Node8</title>
<path fill="none" stroke="#191970" d="M355.9906,-336.2317C339.7976,-318.4807 305.0366,-279.4808 279,-244 237.9829,-188.1048 195.8035,-117.4817 176.6347,-84.5214"/>
<polygon fill="#191970" stroke="#191970" points="179.4878,-82.4635 171.4513,-75.5595 173.4283,-85.9682 179.4878,-82.4635"/>
</g>
<!-- Node18 -->
<g id="node19" class="node">
<title>Node18</title>
<g id="a_node19"><a xlink:href="../../de/da6/Spline1D_8h.html" target="_top" xlink:title="Definition of Spline1D class. ">
<polygon fill="none" stroke="#000000" points="288.5,-224.5 288.5,-243.5 357.5,-243.5 357.5,-224.5 288.5,-224.5"/>
<text text-anchor="middle" x="323" y="-231.5" font-family="Helvetica,sans-Serif" font-size="10.00" fill="#000000">Spline1D.h</text>
</a>
</g>
</g>
<!-- Node17&#45;&gt;Node18 -->
<g id="edge21" class="edge">
<title>Node17&#45;&gt;Node18</title>
<path fill="none" stroke="#191970" d="M361.4191,-336.4509C354.507,-318.0186 339.2095,-277.2254 330.1411,-253.043"/>
<polygon fill="#191970" stroke="#191970" points="333.3603,-251.6592 326.5718,-243.5249 326.806,-254.1171 333.3603,-251.6592"/>
</g>
<!-- Node22 -->
<g id="node23" class="node">
<title>Node22</title>
<g id="a_node23"><a xlink:href="../../d7/d2f/Spline2DSpec_8h.html" target="_top" xlink:title="Definition of Spline2DSpec class. ">
<polygon fill="none" stroke="#000000" points="369,-280.5 369,-299.5 461,-299.5 461,-280.5 369,-280.5"/>
<text text-anchor="middle" x="415" y="-287.5" font-family="Helvetica,sans-Serif" font-size="10.00" fill="#000000">Spline2DSpec.h</text>
</a>
</g>
</g>
<!-- Node17&#45;&gt;Node22 -->
<g id="edge27" class="edge">
<title>Node17&#45;&gt;Node22</title>
<path fill="none" stroke="#191970" d="M373.7093,-336.2455C380.8073,-328.2958 391.0084,-316.8706 399.495,-307.3656"/>
<polygon fill="#191970" stroke="#191970" points="402.3411,-309.4331 406.3905,-299.6427 397.1195,-304.771 402.3411,-309.4331"/>
</g>
<!-- Node19 -->
<g id="node20" class="node">
<title>Node19</title>
<g id="a_node20"><a xlink:href="../../d0/d51/Spline1DSpec_8h.html" target="_top" xlink:title="Definition of Spline1DSpec class. ">
<polygon fill="none" stroke="#000000" points="315,-168.5 315,-187.5 407,-187.5 407,-168.5 315,-168.5"/>
<text text-anchor="middle" x="361" y="-175.5" font-family="Helvetica,sans-Serif" font-size="10.00" fill="#000000">Spline1DSpec.h</text>
</a>
</g>
</g>
<!-- Node18&#45;&gt;Node19 -->
<g id="edge22" class="edge">
<title>Node18&#45;&gt;Node19</title>
<path fill="none" stroke="#191970" d="M329.6191,-224.2455C334.9046,-216.4564 342.4541,-205.3308 348.8238,-195.9439"/>
<polygon fill="#191970" stroke="#191970" points="351.7379,-197.8827 354.4568,-187.6427 345.9455,-193.9522 351.7379,-197.8827"/>
</g>
<!-- Node19&#45;&gt;Node3 -->
<g id="edge24" class="edge">
<title>Node19&#45;&gt;Node3</title>
<path fill="none" stroke="#191970" d="M392.6307,-168.3733C423.3596,-159.021 470.176,-144.7725 503.8022,-134.5385"/>
<polygon fill="#191970" stroke="#191970" points="505.2344,-137.7612 513.782,-131.5011 503.1962,-131.0644 505.2344,-137.7612"/>
</g>
<!-- Node19&#45;&gt;Node8 -->
<g id="edge23" class="edge">
<title>Node19&#45;&gt;Node8</title>
<path fill="none" stroke="#191970" d="M344.3744,-168.4509C310.1958,-148.8201 231.8576,-103.8259 191.3277,-80.5472"/>
<polygon fill="#191970" stroke="#191970" points="192.9982,-77.4705 182.5835,-75.5249 189.5118,-83.5405 192.9982,-77.4705"/>
</g>
<!-- Node20 -->
<g id="node21" class="node">
<title>Node20</title>
<g id="a_node21"><a xlink:href="../../db/d04/SplineUtil_8h.html" target="_top" xlink:title="SplineUtil.h">
<polygon fill="none" stroke="#000000" points="416.5,-112.5 416.5,-131.5 489.5,-131.5 489.5,-112.5 416.5,-112.5"/>
<text text-anchor="middle" x="453" y="-119.5" font-family="Helvetica,sans-Serif" font-size="10.00" fill="#000000">SplineUtil.h</text>
</a>
</g>
</g>
<!-- Node19&#45;&gt;Node20 -->
<g id="edge25" class="edge">
<title>Node19&#45;&gt;Node20</title>
<path fill="none" stroke="#191970" d="M377.0252,-168.2455C391.1408,-159.6534 411.9263,-147.0014 428.1899,-137.1018"/>
<polygon fill="#191970" stroke="#191970" points="430.4363,-139.8319 437.1585,-131.6427 426.7966,-133.8525 430.4363,-139.8319"/>
</g>
<!-- Node21 -->
<g id="node22" class="node">
<title>Node21</title>
<polygon fill="none" stroke="#bfbfbf" points="333.5,-112.5 333.5,-131.5 398.5,-131.5 398.5,-112.5 333.5,-112.5"/>
<text text-anchor="middle" x="366" y="-119.5" font-family="Helvetica,sans-Serif" font-size="10.00" fill="#000000">functional</text>
</g>
<!-- Node19&#45;&gt;Node21 -->
<g id="edge26" class="edge">
<title>Node19&#45;&gt;Node21</title>
<path fill="none" stroke="#191970" d="M361.8709,-168.2455C362.5234,-160.9382 363.438,-150.6944 364.2407,-141.7046"/>
<polygon fill="#191970" stroke="#191970" points="367.7358,-141.9143 365.139,-131.6427 360.7635,-141.2918 367.7358,-141.9143"/>
</g>
<!-- Node22&#45;&gt;Node3 -->
<g id="edge29" class="edge">
<title>Node22&#45;&gt;Node3</title>
<path fill="none" stroke="#191970" d="M420.524,-280.3294C432.8946,-259.0286 464.3134,-206.8681 497,-168 505.8484,-157.4782 516.8539,-146.7894 526.0938,-138.3668"/>
<polygon fill="#191970" stroke="#191970" points="528.533,-140.881 533.6605,-131.6096 523.8704,-135.6598 528.533,-140.881"/>
</g>
<!-- Node22&#45;&gt;Node8 -->
<g id="edge30" class="edge">
<title>Node22&#45;&gt;Node8</title>
<path fill="none" stroke="#191970" d="M409.3674,-280.1034C401.1593,-266.3035 384.8223,-241.0588 366,-224 342.9572,-203.1161 331.1538,-206.2866 306,-188 258.9398,-153.7877 208.6555,-107.1823 183.08,-82.6591"/>
<polygon fill="#191970" stroke="#191970" points="185.3058,-79.9431 175.6799,-75.5167 180.4445,-84.9798 185.3058,-79.9431"/>
</g>
<!-- Node22&#45;&gt;Node18 -->
<g id="edge28" class="edge">
<title>Node22&#45;&gt;Node18</title>
<path fill="none" stroke="#191970" d="M398.9748,-280.2455C384.8592,-271.6534 364.0737,-259.0014 347.8101,-249.1018"/>
<polygon fill="#191970" stroke="#191970" points="349.2034,-245.8525 338.8415,-243.6427 345.5637,-251.8319 349.2034,-245.8525"/>
</g>
<!-- Node22&#45;&gt;Node20 -->
<g id="edge31" class="edge">
<title>Node22&#45;&gt;Node20</title>
<path fill="none" stroke="#191970" d="M417.1519,-280.4862C423.1848,-253.8144 440.3533,-177.9117 448.5452,-141.695"/>
<polygon fill="#191970" stroke="#191970" points="451.9845,-142.3537 450.777,-131.8279 445.157,-140.8093 451.9845,-142.3537"/>
</g>
<!-- Node23&#45;&gt;Node8 -->
<g id="edge38" class="edge">
<title>Node23&#45;&gt;Node8</title>
<path fill="none" stroke="#191970" d="M59.1596,-392.3871C46.3639,-384.2545 29.2682,-371.4679 19,-356 2.1177,-330.5689 0,-320.5246 0,-290 0,-290 0,-290 0,-178 0,-122.8704 63.694,-93.0648 112.1735,-78.3634"/>
<polygon fill="#191970" stroke="#191970" points="113.3164,-81.6763 121.9509,-75.5366 111.3722,-74.9518 113.3164,-81.6763"/>
</g>
<!-- Node24 -->
<g id="node25" class="node">
<title>Node24</title>
<polygon fill="none" stroke="#bfbfbf" points="28.5,-336.5 28.5,-355.5 75.5,-355.5 75.5,-336.5 28.5,-336.5"/>
<text text-anchor="middle" x="52" y="-343.5" font-family="Helvetica,sans-Serif" font-size="10.00" fill="#000000">cmath</text>
</g>
<!-- Node23&#45;&gt;Node24 -->
<g id="edge39" class="edge">
<title>Node23&#45;&gt;Node24</title>
<path fill="none" stroke="#191970" d="M71.8195,-392.2455C68.619,-384.7776 64.104,-374.2427 60.1916,-365.1137"/>
<polygon fill="#191970" stroke="#191970" points="63.2888,-363.4554 56.1326,-355.6427 56.8548,-366.2129 63.2888,-363.4554"/>
</g>
<!-- Node25 -->
<g id="node26" class="node">
<title>Node25</title>
<polygon fill="none" stroke="#bfbfbf" points="94,-336.5 94,-355.5 158,-355.5 158,-336.5 94,-336.5"/>
<text text-anchor="middle" x="126" y="-343.5" font-family="Helvetica,sans-Serif" font-size="10.00" fill="#000000">algorithm</text>
</g>
<!-- Node23&#45;&gt;Node25 -->
<g id="edge40" class="edge">
<title>Node23&#45;&gt;Node25</title>
<path fill="none" stroke="#191970" d="M84.7093,-392.2455C91.8073,-384.2958 102.0084,-372.8706 110.495,-363.3656"/>
<polygon fill="#191970" stroke="#191970" points="113.3411,-365.4331 117.3905,-355.6427 108.1195,-360.771 113.3411,-365.4331"/>
</g>
</g>
</svg>
