<?xml version="1.0" encoding="UTF-8" standalone="no"?>
<!DOCTYPE svg PUBLIC "-//W3C//DTD SVG 1.1//EN"
 "http://www.w3.org/Graphics/SVG/1.1/DTD/svg11.dtd">
<!-- Generated by graphviz version 2.40.1 (20161225.0304)
 -->
<!-- Title: /home/travis/build/AliceO2Group/AliceO2/Detectors/FIT/raw/src/DataBlockBase.cxx Pages: 1 -->
<!--zoomable 296 -->
<svg id="main" version="1.1" xmlns="http://www.w3.org/2000/svg" xmlns:xlink="http://www.w3.org/1999/xlink" xml:space="preserve" onload="init(evt)">
<style type="text/css"><![CDATA[
.edge:hover path { stroke: red; }
.edge:hover polygon { stroke: red; fill: red; }
]]></style>
<script type="text/javascript"><![CDATA[
var edges = document.getElementsByTagName('g');
if (edges && edges.length) {
  for (var i=0;i<edges.length;i++) {
    if (edges[i].id.substr(0,4)=='edge') {
      edges[i].setAttribute('class','edge');
    }
  }
}
]]></script>
        <defs>
                <circle id="rim" cx="0" cy="0" r="7"/>
                <circle id="rim2" cx="0" cy="0" r="3.5"/>
                <g id="zoomPlus">
                        <use xlink:href="#rim" fill="#404040">
                                <set attributeName="fill" to="#808080" begin="zoomplus.mouseover" end="zoomplus.mouseout"/>
                        </use>
                        <path d="M-4,0h8M0,-4v8" fill="none" stroke="white" stroke-width="1.5" pointer-events="none"/>
                </g>
                <g id="zoomMin">
                        <use xlink:href="#rim" fill="#404040">
                                <set attributeName="fill" to="#808080" begin="zoomminus.mouseover" end="zoomminus.mouseout"/>
                        </use>
                        <path d="M-4,0h8" fill="none" stroke="white" stroke-width="1.5" pointer-events="none"/>
                </g>
                <g id="dirArrow">
                        <path fill="none" stroke="white" stroke-width="1.5" d="M0,-3.0v7 M-2.5,-0.5L0,-3.0L2.5,-0.5"/>
                </g>
               <g id="resetDef">
                       <use xlink:href="#rim2" fill="#404040">
                               <set attributeName="fill" to="#808080" begin="reset.mouseover" end="reset.mouseout"/>
                       </use>
               </g>
        </defs>

<script type="text/javascript">
var viewWidth = 1081;
var viewHeight = 296;
var sectionId = 'dynsection-0';
</script>
<script xlink:href="../../svgpan.js"/>
<svg id="graph" class="graph">
<g id="viewport">
<title>/home/travis/build/AliceO2Group/AliceO2/Detectors/FIT/raw/src/DataBlockBase.cxx</title>
<!-- Node0 -->
<g id="node1" class="node">
<title>Node0</title>
<polygon fill="#bfbfbf" stroke="#000000" points="489.5,-235.5 489.5,-287.5 616.5,-287.5 616.5,-235.5 489.5,-235.5"/>
<text text-anchor="start" x="497.5" y="-275.5" font-family="Helvetica,sans-Serif" font-size="10.00" fill="#000000">/home/travis/build</text>
<text text-anchor="start" x="497.5" y="-264.5" font-family="Helvetica,sans-Serif" font-size="10.00" fill="#000000">/AliceO2Group/AliceO2</text>
<text text-anchor="start" x="497.5" y="-253.5" font-family="Helvetica,sans-Serif" font-size="10.00" fill="#000000">/Detectors/FIT/raw/src</text>
<text text-anchor="middle" x="553" y="-242.5" font-family="Helvetica,sans-Serif" font-size="10.00" fill="#000000">/DataBlockBase.cxx</text>
</g>
<!-- Node1 -->
<g id="node2" class="node">
<title>Node1</title>
<g id="a_node2"><a xlink:href="../../d4/d00/DataBlockBase_8h.html" target="_top" xlink:title="FITRaw/DataBlockBase.h">
<polygon fill="none" stroke="#000000" points="484,-179.5 484,-198.5 622,-198.5 622,-179.5 484,-179.5"/>
<text text-anchor="middle" x="553" y="-186.5" font-family="Helvetica,sans-Serif" font-size="10.00" fill="#000000">FITRaw/DataBlockBase.h</text>
</a>
</g>
</g>
<!-- Node0&#45;&gt;Node1 -->
<g id="edge1" class="edge">
<title>Node0&#45;&gt;Node1</title>
<path fill="none" stroke="#191970" d="M553,-235.3258C553,-226.5142 553,-216.8397 553,-208.621"/>
<polygon fill="#191970" stroke="#191970" points="556.5001,-208.534 553,-198.534 549.5001,-208.534 556.5001,-208.534"/>
</g>
<!-- Node2 -->
<g id="node3" class="node">
<title>Node2</title>
<polygon fill="none" stroke="#bfbfbf" points="0,-118 0,-137 60,-137 60,-118 0,-118"/>
<text text-anchor="middle" x="30" y="-125" font-family="Helvetica,sans-Serif" font-size="10.00" fill="#000000">iostream</text>
</g>
<!-- Node1&#45;&gt;Node2 -->
<g id="edge2" class="edge">
<title>Node1&#45;&gt;Node2</title>
<path fill="none" stroke="#191970" d="M483.6505,-184.8357C369.2095,-177.5566 145.8253,-161.5177 69,-143 66.211,-142.3278 63.3574,-141.4956 60.5249,-140.5687"/>
<polygon fill="#191970" stroke="#191970" points="61.6952,-137.2701 51.1011,-137.1465 59.3059,-143.8497 61.6952,-137.2701"/>
</g>
<!-- Node3 -->
<g id="node4" class="node">
<title>Node3</title>
<polygon fill="none" stroke="#bfbfbf" points="78.5,-118 78.5,-137 125.5,-137 125.5,-118 78.5,-118"/>
<text text-anchor="middle" x="102" y="-125" font-family="Helvetica,sans-Serif" font-size="10.00" fill="#000000">vector</text>
</g>
<!-- Node1&#45;&gt;Node3 -->
<g id="edge3" class="edge">
<title>Node1&#45;&gt;Node3</title>
<path fill="none" stroke="#191970" d="M483.999,-187.1197C401.1419,-183.5395 258.5108,-173.1482 140,-143 137.3718,-142.3314 134.6851,-141.519 132.0153,-140.6203"/>
<polygon fill="#191970" stroke="#191970" points="133.1487,-137.3075 122.5561,-137.0905 130.7014,-143.8658 133.1487,-137.3075"/>
</g>
<!-- Node4 -->
<g id="node5" class="node">
<title>Node4</title>
<polygon fill="none" stroke="#bfbfbf" points="169.5,-.5 169.5,-19.5 228.5,-19.5 228.5,-.5 169.5,-.5"/>
<text text-anchor="middle" x="199" y="-7.5" font-family="Helvetica,sans-Serif" font-size="10.00" fill="#000000">Rtypes.h</text>
</g>
<!-- Node1&#45;&gt;Node4 -->
<g id="edge4" class="edge">
<title>Node1&#45;&gt;Node4</title>
<path fill="none" stroke="#191970" d="M483.6456,-186.3127C398.2237,-181.8555 259.1214,-170.5141 216,-143 186.1718,-123.9677 182.9581,-109.9527 173,-76 168.1471,-59.4535 176.3802,-41.2636 184.8367,-28.1777"/>
<polygon fill="#191970" stroke="#191970" points="187.9488,-29.8375 190.8498,-19.6476 182.2275,-25.8043 187.9488,-29.8375"/>
</g>
<!-- Node5 -->
<g id="node6" class="node">
<title>Node5</title>
<g id="a_node6"><a xlink:href="../../d9/d80/InteractionRecord_8h.html" target="_top" xlink:title="CommonDataFormat/Interaction\lRecord.h">
<polygon fill="none" stroke="#000000" points="225,-112.5 225,-142.5 399,-142.5 399,-112.5 225,-112.5"/>
<text text-anchor="start" x="233" y="-130.5" font-family="Helvetica,sans-Serif" font-size="10.00" fill="#000000">CommonDataFormat/Interaction</text>
<text text-anchor="middle" x="312" y="-119.5" font-family="Helvetica,sans-Serif" font-size="10.00" fill="#000000">Record.h</text>
</a>
</g>
</g>
<!-- Node1&#45;&gt;Node5 -->
<g id="edge5" class="edge">
<title>Node1&#45;&gt;Node5</title>
<path fill="none" stroke="#191970" d="M515.6082,-179.4581C479.7168,-170.2991 424.6462,-156.2458 380.8244,-145.0631"/>
<polygon fill="#191970" stroke="#191970" points="381.6427,-141.6598 371.0878,-142.5784 379.9118,-148.4424 381.6427,-141.6598"/>
</g>
<!-- Node11 -->
<g id="node12" class="node">
<title>Node11</title>
<polygon fill="none" stroke="#bfbfbf" points="417.5,-118 417.5,-137 474.5,-137 474.5,-118 417.5,-118"/>
<text text-anchor="middle" x="446" y="-125" font-family="Helvetica,sans-Serif" font-size="10.00" fill="#000000">gsl/span</text>
</g>
<!-- Node1&#45;&gt;Node11 -->
<g id="edge12" class="edge">
<title>Node1&#45;&gt;Node11</title>
<path fill="none" stroke="#191970" d="M536.2813,-179.3906C518.9278,-169.4165 491.5677,-153.6908 471.5118,-142.1633"/>
<polygon fill="#191970" stroke="#191970" points="473.0154,-138.9907 462.6013,-137.0419 469.5272,-145.0596 473.0154,-138.9907"/>
</g>
<!-- Node12 -->
<g id="node13" class="node">
<title>Node12</title>
<polygon fill="none" stroke="#bfbfbf" points="492.5,-118 492.5,-137 613.5,-137 613.5,-118 492.5,-118"/>
<text text-anchor="middle" x="553" y="-125" font-family="Helvetica,sans-Serif" font-size="10.00" fill="#000000">boost/mpl/inherit.hpp</text>
</g>
<!-- Node1&#45;&gt;Node12 -->
<g id="edge13" class="edge">
<title>Node1&#45;&gt;Node12</title>
<path fill="none" stroke="#191970" d="M553,-179.3906C553,-170.8657 553,-158.1392 553,-147.4235"/>
<polygon fill="#191970" stroke="#191970" points="556.5001,-147.2448 553,-137.2449 549.5001,-147.2449 556.5001,-147.2448"/>
</g>
<!-- Node13 -->
<g id="node14" class="node">
<title>Node13</title>
<polygon fill="none" stroke="#bfbfbf" points="631.5,-118 631.5,-137 750.5,-137 750.5,-118 631.5,-118"/>
<text text-anchor="middle" x="691" y="-125" font-family="Helvetica,sans-Serif" font-size="10.00" fill="#000000">boost/mpl/vector.hpp</text>
</g>
<!-- Node1&#45;&gt;Node13 -->
<g id="edge14" class="edge">
<title>Node1&#45;&gt;Node13</title>
<path fill="none" stroke="#191970" d="M574.5625,-179.3906C597.5512,-169.1457 634.156,-152.8326 660.1824,-141.2339"/>
<polygon fill="#191970" stroke="#191970" points="661.8796,-144.3095 669.5889,-137.0419 659.0302,-137.9156 661.8796,-144.3095"/>
</g>
<!-- Node14 -->
<g id="node15" class="node">
<title>Node14</title>
<g id="a_node15"><a xlink:href="../../dd/da4/Logger_8h.html" target="_top" xlink:title="Framework/Logger.h">
<polygon fill="none" stroke="#000000" points="768.5,-118 768.5,-137 883.5,-137 883.5,-118 768.5,-118"/>
<text text-anchor="middle" x="826" y="-125" font-family="Helvetica,sans-Serif" font-size="10.00" fill="#000000">Framework/Logger.h</text>
</a>
</g>
</g>
<!-- Node1&#45;&gt;Node14 -->
<g id="edge15" class="edge">
<title>Node1&#45;&gt;Node14</title>
<path fill="none" stroke="#191970" d="M596.6483,-179.4598C638.5646,-170.2604 703.6544,-155.8765 760,-143 765.1043,-141.8335 770.4275,-140.6044 775.7395,-139.3697"/>
<polygon fill="#191970" stroke="#191970" points="776.9373,-142.6843 785.8803,-137.0032 775.3465,-135.8674 776.9373,-142.6843"/>
</g>
<!-- Node16 -->
<g id="node17" class="node">
<title>Node16</title>
<polygon fill="none" stroke="#bfbfbf" points="901.5,-118 901.5,-137 942.5,-137 942.5,-118 901.5,-118"/>
<text text-anchor="middle" x="922" y="-125" font-family="Helvetica,sans-Serif" font-size="10.00" fill="#000000">tuple</text>
</g>
<!-- Node1&#45;&gt;Node16 -->
<g id="edge17" class="edge">
<title>Node1&#45;&gt;Node16</title>
<path fill="none" stroke="#191970" d="M622.3171,-182.5546C706.7354,-174.1949 844.1155,-158.8028 893,-143 894.4259,-142.5391 895.8643,-142.0097 897.2976,-141.4307"/>
<polygon fill="#191970" stroke="#191970" points="898.9461,-144.523 906.4972,-137.0911 895.9597,-138.192 898.9461,-144.523"/>
</g>
<!-- Node17 -->
<g id="node18" class="node">
<title>Node17</title>
<polygon fill="none" stroke="#bfbfbf" points="961,-118 961,-137 1003,-137 1003,-118 961,-118"/>
<text text-anchor="middle" x="982" y="-125" font-family="Helvetica,sans-Serif" font-size="10.00" fill="#000000">array</text>
</g>
<!-- Node1&#45;&gt;Node17 -->
<g id="edge18" class="edge">
<title>Node1&#45;&gt;Node17</title>
<path fill="none" stroke="#191970" d="M622.1514,-184.051C719.5774,-176.5625 892.0529,-161.2707 952,-143 953.472,-142.5514 954.9576,-142.0317 956.4385,-141.4604"/>
<polygon fill="#191970" stroke="#191970" points="958.2895,-144.464 965.9495,-137.1444 955.3969,-138.0896 958.2895,-144.464"/>
</g>
<!-- Node18 -->
<g id="node19" class="node">
<title>Node18</title>
<polygon fill="none" stroke="#bfbfbf" points="1021,-118 1021,-137 1073,-137 1073,-118 1021,-118"/>
<text text-anchor="middle" x="1047" y="-125" font-family="Helvetica,sans-Serif" font-size="10.00" fill="#000000">cassert</text>
</g>
<!-- Node1&#45;&gt;Node18 -->
<g id="edge19" class="edge">
<title>Node1&#45;&gt;Node18</title>
<path fill="none" stroke="#191970" d="M622.3628,-184.745C732.0064,-177.5647 940.2823,-161.955 1012,-143 1014.1925,-142.4205 1016.4224,-141.7201 1018.6408,-140.9413"/>
<polygon fill="#191970" stroke="#191970" points="1020.146,-144.1092 1028.1408,-137.157 1017.5555,-137.6062 1020.146,-144.1092"/>
</g>
<!-- Node6 -->
<g id="node7" class="node">
<title>Node6</title>
<g id="a_node7"><a xlink:href="../../d2/d45/GPUCommonRtypes_8h.html" target="_top" xlink:title="GPUCommonRtypes.h">
<polygon fill="none" stroke="#000000" points="182.5,-56.5 182.5,-75.5 307.5,-75.5 307.5,-56.5 182.5,-56.5"/>
<text text-anchor="middle" x="245" y="-63.5" font-family="Helvetica,sans-Serif" font-size="10.00" fill="#000000">GPUCommonRtypes.h</text>
</a>
</g>
</g>
<!-- Node5&#45;&gt;Node6 -->
<g id="edge6" class="edge">
<title>Node5&#45;&gt;Node6</title>
<path fill="none" stroke="#191970" d="M295.4382,-112.2977C285.6535,-103.3163 273.2526,-91.9334 263.1957,-82.702"/>
<polygon fill="#191970" stroke="#191970" points="265.4613,-80.0307 255.7275,-75.8469 260.7278,-85.1876 265.4613,-80.0307"/>
</g>
<!-- Node7 -->
<g id="node8" class="node">
<title>Node7</title>
<polygon fill="none" stroke="#bfbfbf" points="325.5,-56.5 325.5,-75.5 374.5,-75.5 374.5,-56.5 325.5,-56.5"/>
<text text-anchor="middle" x="350" y="-63.5" font-family="Helvetica,sans-Serif" font-size="10.00" fill="#000000">iosfwd</text>
</g>
<!-- Node5&#45;&gt;Node7 -->
<g id="edge8" class="edge">
<title>Node5&#45;&gt;Node7</title>
<path fill="none" stroke="#191970" d="M321.3933,-112.2977C326.6131,-103.8498 333.1457,-93.2773 338.65,-84.369"/>
<polygon fill="#191970" stroke="#191970" points="341.6368,-86.1938 343.9157,-75.8469 335.6818,-82.5143 341.6368,-86.1938"/>
</g>
<!-- Node8 -->
<g id="node9" class="node">
<title>Node8</title>
<polygon fill="none" stroke="#bfbfbf" points="393,-56.5 393,-75.5 443,-75.5 443,-56.5 393,-56.5"/>
<text text-anchor="middle" x="418" y="-63.5" font-family="Helvetica,sans-Serif" font-size="10.00" fill="#000000">cstdint</text>
</g>
<!-- Node5&#45;&gt;Node8 -->
<g id="edge9" class="edge">
<title>Node5&#45;&gt;Node8</title>
<path fill="none" stroke="#191970" d="M337.9305,-112.4554C354.5309,-102.8241 375.9744,-90.3828 392.4917,-80.7996"/>
<polygon fill="#191970" stroke="#191970" points="394.6806,-83.5761 401.5738,-75.5303 391.1677,-77.5214 394.6806,-83.5761"/>
</g>
<!-- Node9 -->
<g id="node10" class="node">
<title>Node9</title>
<polygon fill="none" stroke="#bfbfbf" points="461.5,-56.5 461.5,-75.5 508.5,-75.5 508.5,-56.5 461.5,-56.5"/>
<text text-anchor="middle" x="485" y="-63.5" font-family="Helvetica,sans-Serif" font-size="10.00" fill="#000000">cmath</text>
</g>
<!-- Node5&#45;&gt;Node9 -->
<g id="edge10" class="edge">
<title>Node5&#45;&gt;Node9</title>
<path fill="none" stroke="#191970" d="M354.3206,-112.4554C384.2552,-101.8139 423.839,-87.7422 451.5668,-77.8852"/>
<polygon fill="#191970" stroke="#191970" points="452.956,-81.106 461.206,-74.4586 450.6113,-74.5104 452.956,-81.106"/>
</g>
<!-- Node10 -->
<g id="node11" class="node">
<title>Node10</title>
<g id="a_node11"><a xlink:href="../../d4/dc6/LHCConstants_8h.html" target="_top" xlink:title="Header to collect LHC related constants. ">
<polygon fill="none" stroke="#000000" points="527,-56.5 527,-75.5 717,-75.5 717,-56.5 527,-56.5"/>
<text text-anchor="middle" x="622" y="-63.5" font-family="Helvetica,sans-Serif" font-size="10.00" fill="#000000">CommonConstants/LHCConstants.h</text>
</a>
</g>
</g>
<!-- Node5&#45;&gt;Node10 -->
<g id="edge11" class="edge">
<title>Node5&#45;&gt;Node10</title>
<path fill="none" stroke="#191970" d="M387.8345,-112.4554C442.1677,-101.6764 514.2413,-87.3779 564.0063,-77.5052"/>
<polygon fill="#191970" stroke="#191970" points="564.8333,-80.9094 573.961,-75.5303 563.4711,-74.0432 564.8333,-80.9094"/>
</g>
<!-- Node6&#45;&gt;Node4 -->
<g id="edge7" class="edge">
<title>Node6&#45;&gt;Node4</title>
<path fill="none" stroke="#191970" d="M236.9874,-56.2455C230.5232,-48.3761 221.2615,-37.101 213.5017,-27.6542"/>
<polygon fill="#191970" stroke="#191970" points="215.9727,-25.1484 206.9208,-19.6427 210.5636,-29.5916 215.9727,-25.1484"/>
</g>
<!-- Node15 -->
<g id="node16" class="node">
<title>Node15</title>
<polygon fill="none" stroke="#bfbfbf" points="772,-56.5 772,-75.5 880,-75.5 880,-56.5 772,-56.5"/>
<text text-anchor="middle" x="826" y="-63.5" font-family="Helvetica,sans-Serif" font-size="10.00" fill="#000000">fairlogger/Logger.h</text>
</g>
<!-- Node14&#45;&gt;Node15 -->
<g id="edge16" class="edge">
<title>Node14&#45;&gt;Node15</title>
<path fill="none" stroke="#191970" d="M826,-117.8906C826,-109.3657 826,-96.6392 826,-85.9235"/>
<polygon fill="#191970" stroke="#191970" points="829.5001,-85.7448 826,-75.7449 822.5001,-85.7449 829.5001,-85.7448"/>
</g>
</g>
</svg>
        <g id="navigator" transform="translate(0 0)" fill="#404254">
                <rect fill="#f2f5e9" fill-opacity="0.5" stroke="#606060" stroke-width=".5" x="0" y="0" width="60" height="60"/>
                <use id="zoomplus" xlink:href="#zoomPlus" x="17" y="9" onmousedown="handleZoom(evt,'in')"/>
                <use id="zoomminus" xlink:href="#zoomMin" x="42" y="9" onmousedown="handleZoom(evt,'out')"/>
                <use id="reset" xlink:href="#resetDef" x="30" y="36" onmousedown="handleReset()"/>
                <g id="arrowUp" xlink:href="#dirArrow" transform="translate(30 24)" onmousedown="handlePan(0,-1)">
                  <use xlink:href="#rim" fill="#404040">
                        <set attributeName="fill" to="#808080" begin="arrowUp.mouseover" end="arrowUp.mouseout"/>
                  </use>
                  <path fill="none" stroke="white" stroke-width="1.5" d="M0,-3.0v7 M-2.5,-0.5L0,-3.0L2.5,-0.5"/>
                </g>
                <g id="arrowRight" xlink:href="#dirArrow" transform="rotate(90) translate(36 -43)" onmousedown="handlePan(1,0)">
                  <use xlink:href="#rim" fill="#404040">
                        <set attributeName="fill" to="#808080" begin="arrowRight.mouseover" end="arrowRight.mouseout"/>
                  </use>
                  <path fill="none" stroke="white" stroke-width="1.5" d="M0,-3.0v7 M-2.5,-0.5L0,-3.0L2.5,-0.5"/>
                </g>
                <g id="arrowDown" xlink:href="#dirArrow" transform="rotate(180) translate(-30 -48)" onmousedown="handlePan(0,1)">
                  <use xlink:href="#rim" fill="#404040">
                        <set attributeName="fill" to="#808080" begin="arrowDown.mouseover" end="arrowDown.mouseout"/>
                  </use>
                  <path fill="none" stroke="white" stroke-width="1.5" d="M0,-3.0v7 M-2.5,-0.5L0,-3.0L2.5,-0.5"/>
                </g>
                <g id="arrowLeft" xlink:href="#dirArrow" transform="rotate(270) translate(-36 17)" onmousedown="handlePan(-1,0)">
                  <use xlink:href="#rim" fill="#404040">
                        <set attributeName="fill" to="#808080" begin="arrowLeft.mouseover" end="arrowLeft.mouseout"/>
                  </use>
                  <path fill="none" stroke="white" stroke-width="1.5" d="M0,-3.0v7 M-2.5,-0.5L0,-3.0L2.5,-0.5"/>
                </g>
        </g>
        <svg viewBox="0 0 15 15" width="100%" height="30px" preserveAspectRatio="xMaxYMin meet">
         <g id="arrow_out" transform="scale(0.3 0.3)">
          <a xlink:href="DataBlockBase_8cxx__incl_org.svg" target="_base">
           <rect id="button" ry="5" rx="5" y="6" x="6" height="38" width="38"
                fill="#f2f5e9" fill-opacity="0.5" stroke="#606060" stroke-width="1.0"/>
           <path id="arrow"
             d="M 11.500037,31.436501 C 11.940474,20.09759 22.043105,11.32322 32.158766,21.979434 L 37.068811,17.246167 C 37.068811,17.246167 37.088388,32 37.088388,32 L 22.160133,31.978069 C 22.160133,31.978069 26.997745,27.140456 26.997745,27.140456 C 18.528582,18.264221 13.291696,25.230495 11.500037,31.436501 z"
             style="fill:#404040;"/>
          </a>
         </g>
        </svg>
</svg>
