<?xml version="1.0" encoding="UTF-8" standalone="no"?>
<!DOCTYPE svg PUBLIC "-//W3C//DTD SVG 1.1//EN"
 "http://www.w3.org/Graphics/SVG/1.1/DTD/svg11.dtd">
<!-- Generated by graphviz version 2.40.1 (20161225.0304)
 -->
<!-- Title: o2::emcal::CTFHelper::Iter_orbitIncTrig Pages: 1 -->
<!--zoomable 646 -->
<svg id="main" version="1.1" xmlns="http://www.w3.org/2000/svg" xmlns:xlink="http://www.w3.org/1999/xlink" xml:space="preserve" onload="init(evt)">
<style type="text/css"><![CDATA[
.edge:hover path { stroke: red; }
.edge:hover polygon { stroke: red; fill: red; }
]]></style>
<script type="text/javascript"><![CDATA[
var edges = document.getElementsByTagName('g');
if (edges && edges.length) {
  for (var i=0;i<edges.length;i++) {
    if (edges[i].id.substr(0,4)=='edge') {
      edges[i].setAttribute('class','edge');
    }
  }
}
]]></script>
        <defs>
                <circle id="rim" cx="0" cy="0" r="7"/>
                <circle id="rim2" cx="0" cy="0" r="3.5"/>
                <g id="zoomPlus">
                        <use xlink:href="#rim" fill="#404040">
                                <set attributeName="fill" to="#808080" begin="zoomplus.mouseover" end="zoomplus.mouseout"/>
                        </use>
                        <path d="M-4,0h8M0,-4v8" fill="none" stroke="white" stroke-width="1.5" pointer-events="none"/>
                </g>
                <g id="zoomMin">
                        <use xlink:href="#rim" fill="#404040">
                                <set attributeName="fill" to="#808080" begin="zoomminus.mouseover" end="zoomminus.mouseout"/>
                        </use>
                        <path d="M-4,0h8" fill="none" stroke="white" stroke-width="1.5" pointer-events="none"/>
                </g>
                <g id="dirArrow">
                        <path fill="none" stroke="white" stroke-width="1.5" d="M0,-3.0v7 M-2.5,-0.5L0,-3.0L2.5,-0.5"/>
                </g>
               <g id="resetDef">
                       <use xlink:href="#rim2" fill="#404040">
                               <set attributeName="fill" to="#808080" begin="reset.mouseover" end="reset.mouseout"/>
                       </use>
               </g>
        </defs>

<script type="text/javascript">
var viewWidth = 378;
var viewHeight = 646;
var sectionId = 'dynsection-1';
</script>
<script xlink:href="../../svgpan.js"/>
<svg id="graph" class="graph">
<g id="viewport">
<title>o2::emcal::CTFHelper::Iter_orbitIncTrig</title>
<!-- Node3 -->
<g id="node1" class="node">
<title>Node3</title>
<polygon fill="#bfbfbf" stroke="#000000" points="72.0949,-.5 72.0949,-68.5 193.0949,-68.5 193.0949,-.5 72.0949,-.5"/>
<text text-anchor="start" x="80.0949" y="-56.5" font-family="Helvetica,sans-Serif" font-size="10.00" fill="#000000">o2::emcal::CTFHelper</text>
<text text-anchor="middle" x="132.5949" y="-45.5" font-family="Helvetica,sans-Serif" font-size="10.00" fill="#000000">::Iter_orbitIncTrig</text>
<polyline fill="none" stroke="#000000" points="72.0949,-38.5 193.0949,-38.5 "/>
<text text-anchor="middle" x="132.5949" y="-26.5" font-family="Helvetica,sans-Serif" font-size="10.00" fill="#000000"> </text>
<polyline fill="none" stroke="#000000" points="72.0949,-19.5 193.0949,-19.5 "/>
<text text-anchor="start" x="80.0949" y="-7.5" font-family="Helvetica,sans-Serif" font-size="10.00" fill="#000000">+ operator*()</text>
</g>
<!-- Node4 -->
<g id="node2" class="node">
<title>Node4</title>
<g id="a_node2"><a xlink:href="../../d3/d61/classo2_1_1emcal_1_1CTFHelper_1_1__Iter.html" target="_top" xlink:title="{o2::emcal::CTFHelper\l::_Iter\&lt; Iter_orbitIncTrig,\l TriggerRecord, uint32_t \&gt;\n||+ _Iter()\l+ _Iter()\l+ operator++()\l+ operator&#45;&#45;()\l+ operator&#45;()\l+ operator&#45;()\l+ operator&#45;()\l+ operator!=()\l+ operator==()\l+ operator\&gt;()\l+ operator\&lt;()\l}">
<polygon fill="none" stroke="#000000" points="61.0949,-106.5 61.0949,-295.5 204.0949,-295.5 204.0949,-106.5 61.0949,-106.5"/>
<text text-anchor="start" x="69.0949" y="-283.5" font-family="Helvetica,sans-Serif" font-size="10.00" fill="#000000">o2::emcal::CTFHelper</text>
<text text-anchor="start" x="69.0949" y="-272.5" font-family="Helvetica,sans-Serif" font-size="10.00" fill="#000000">::_Iter&lt; Iter_orbitIncTrig,</text>
<text text-anchor="middle" x="132.5949" y="-261.5" font-family="Helvetica,sans-Serif" font-size="10.00" fill="#000000"> TriggerRecord, uint32_t &gt;</text>
<polyline fill="none" stroke="#000000" points="61.0949,-254.5 204.0949,-254.5 "/>
<text text-anchor="middle" x="132.5949" y="-242.5" font-family="Helvetica,sans-Serif" font-size="10.00" fill="#000000"> </text>
<polyline fill="none" stroke="#000000" points="61.0949,-235.5 204.0949,-235.5 "/>
<text text-anchor="start" x="69.0949" y="-223.5" font-family="Helvetica,sans-Serif" font-size="10.00" fill="#000000">+ _Iter()</text>
<text text-anchor="start" x="69.0949" y="-212.5" font-family="Helvetica,sans-Serif" font-size="10.00" fill="#000000">+ _Iter()</text>
<text text-anchor="start" x="69.0949" y="-201.5" font-family="Helvetica,sans-Serif" font-size="10.00" fill="#000000">+ operator++()</text>
<text text-anchor="start" x="69.0949" y="-190.5" font-family="Helvetica,sans-Serif" font-size="10.00" fill="#000000">+ operator&#45;&#45;()</text>
<text text-anchor="start" x="69.0949" y="-179.5" font-family="Helvetica,sans-Serif" font-size="10.00" fill="#000000">+ operator&#45;()</text>
<text text-anchor="start" x="69.0949" y="-168.5" font-family="Helvetica,sans-Serif" font-size="10.00" fill="#000000">+ operator&#45;()</text>
<text text-anchor="start" x="69.0949" y="-157.5" font-family="Helvetica,sans-Serif" font-size="10.00" fill="#000000">+ operator&#45;()</text>
<text text-anchor="start" x="69.0949" y="-146.5" font-family="Helvetica,sans-Serif" font-size="10.00" fill="#000000">+ operator!=()</text>
<text text-anchor="start" x="69.0949" y="-135.5" font-family="Helvetica,sans-Serif" font-size="10.00" fill="#000000">+ operator==()</text>
<text text-anchor="start" x="69.0949" y="-124.5" font-family="Helvetica,sans-Serif" font-size="10.00" fill="#000000">+ operator&gt;()</text>
<text text-anchor="start" x="69.0949" y="-113.5" font-family="Helvetica,sans-Serif" font-size="10.00" fill="#000000">+ operator&lt;()</text>
</a>
</g>
</g>
<!-- Node4&#45;&gt;Node3 -->
<g id="edge1" class="edge">
<title>Node4&#45;&gt;Node3</title>
<path fill="none" stroke="#191970" d="M132.5949,-95.9018C132.5949,-86.2608 132.5949,-77.0404 132.5949,-68.8096"/>
<polygon fill="none" stroke="#191970" points="129.095,-96.0772 132.5949,-106.0773 136.095,-96.0773 129.095,-96.0772"/>
</g>
<!-- Node5 -->
<g id="node3" class="node">
<title>Node5</title>
<polygon fill="none" stroke="#bfbfbf" points="1.0949,-580.5 1.0949,-637.5 46.0949,-637.5 46.0949,-580.5 1.0949,-580.5"/>
<text text-anchor="middle" x="23.5949" y="-625.5" font-family="Helvetica,sans-Serif" font-size="10.00" fill="#000000">size_t</text>
<polyline fill="none" stroke="#bfbfbf" points="1.0949,-618.5 46.0949,-618.5 "/>
<text text-anchor="middle" x="23.5949" y="-606.5" font-family="Helvetica,sans-Serif" font-size="10.00" fill="#000000"> </text>
<polyline fill="none" stroke="#bfbfbf" points="1.0949,-599.5 46.0949,-599.5 "/>
<text text-anchor="middle" x="23.5949" y="-587.5" font-family="Helvetica,sans-Serif" font-size="10.00" fill="#000000"> </text>
</g>
<!-- Node5&#45;&gt;Node4 -->
<g id="edge2" class="edge">
<title>Node5&#45;&gt;Node4</title>
<path fill="none" stroke="#404040" d="M16.1616,-580.4997C4.9913,-532.3314 -12.129,-432.409 14.5949,-354 23.1347,-328.9438 37.6223,-304.7967 53.5793,-283.379"/>
<polygon fill="none" stroke="#404040" points="53.6803,-283.2476 54.1691,-276.0531 60.9982,-273.7371 60.5094,-280.9316 53.6803,-283.2476"/>
<text text-anchor="middle" x="39.0949" y="-441" font-family="Helvetica,sans-Serif" font-size="10.00" fill="#000000"> #mIndex</text>
</g>
<!-- Node7 -->
<g id="node5" class="node">
<title>Node7</title>
<g id="a_node5"><a xlink:href="../../d3/d61/classo2_1_1emcal_1_1CTFHelper_1_1__Iter.html" target="_top" xlink:title="{o2::emcal::CTFHelper\l::_Iter\&lt; I, D, T \&gt;\n||+ _Iter()\l+ _Iter()\l+ operator++()\l+ operator&#45;&#45;()\l+ operator&#45;()\l+ operator&#45;()\l+ operator&#45;()\l+ operator!=()\l+ operator==()\l+ operator\&gt;()\l+ operator\&lt;()\l}">
<polygon fill="none" stroke="#000000" points="72.0949,-354.5 72.0949,-532.5 193.0949,-532.5 193.0949,-354.5 72.0949,-354.5"/>
<text text-anchor="start" x="80.0949" y="-520.5" font-family="Helvetica,sans-Serif" font-size="10.00" fill="#000000">o2::emcal::CTFHelper</text>
<text text-anchor="middle" x="132.5949" y="-509.5" font-family="Helvetica,sans-Serif" font-size="10.00" fill="#000000">::_Iter&lt; I, D, T &gt;</text>
<polyline fill="none" stroke="#000000" points="72.0949,-502.5 193.0949,-502.5 "/>
<text text-anchor="middle" x="132.5949" y="-490.5" font-family="Helvetica,sans-Serif" font-size="10.00" fill="#000000"> </text>
<polyline fill="none" stroke="#000000" points="72.0949,-483.5 193.0949,-483.5 "/>
<text text-anchor="start" x="80.0949" y="-471.5" font-family="Helvetica,sans-Serif" font-size="10.00" fill="#000000">+ _Iter()</text>
<text text-anchor="start" x="80.0949" y="-460.5" font-family="Helvetica,sans-Serif" font-size="10.00" fill="#000000">+ _Iter()</text>
<text text-anchor="start" x="80.0949" y="-449.5" font-family="Helvetica,sans-Serif" font-size="10.00" fill="#000000">+ operator++()</text>
<text text-anchor="start" x="80.0949" y="-438.5" font-family="Helvetica,sans-Serif" font-size="10.00" fill="#000000">+ operator&#45;&#45;()</text>
<text text-anchor="start" x="80.0949" y="-427.5" font-family="Helvetica,sans-Serif" font-size="10.00" fill="#000000">+ operator&#45;()</text>
<text text-anchor="start" x="80.0949" y="-416.5" font-family="Helvetica,sans-Serif" font-size="10.00" fill="#000000">+ operator&#45;()</text>
<text text-anchor="start" x="80.0949" y="-405.5" font-family="Helvetica,sans-Serif" font-size="10.00" fill="#000000">+ operator&#45;()</text>
<text text-anchor="start" x="80.0949" y="-394.5" font-family="Helvetica,sans-Serif" font-size="10.00" fill="#000000">+ operator!=()</text>
<text text-anchor="start" x="80.0949" y="-383.5" font-family="Helvetica,sans-Serif" font-size="10.00" fill="#000000">+ operator==()</text>
<text text-anchor="start" x="80.0949" y="-372.5" font-family="Helvetica,sans-Serif" font-size="10.00" fill="#000000">+ operator&gt;()</text>
<text text-anchor="start" x="80.0949" y="-361.5" font-family="Helvetica,sans-Serif" font-size="10.00" fill="#000000">+ operator&lt;()</text>
</a>
</g>
</g>
<!-- Node5&#45;&gt;Node7 -->
<g id="edge5" class="edge">
<title>Node5&#45;&gt;Node7</title>
<path fill="none" stroke="#404040" d="M42.5812,-580.1721C49.629,-569.4712 58.0801,-556.6394 66.9422,-543.1836"/>
<polygon fill="none" stroke="#404040" points="67.1824,-542.8189 67.1421,-535.6079 73.7829,-532.7971 73.8232,-540.0082 67.1824,-542.8189"/>
<text text-anchor="middle" x="84.0949" y="-554" font-family="Helvetica,sans-Serif" font-size="10.00" fill="#000000"> #mIndex</text>
</g>
<!-- Node6 -->
<g id="node4" class="node">
<title>Node6</title>
<g id="a_node4"><a xlink:href="../../d2/dae/classgsl_1_1span_3_01const_01TriggerRecord_01_4.html" target="_top" xlink:title="{span\&lt; const TriggerRecord \&gt;\n||}">
<polygon fill="none" stroke="#000000" points="211.5949,-415 211.5949,-472 369.5949,-472 369.5949,-415 211.5949,-415"/>
<text text-anchor="middle" x="290.5949" y="-460" font-family="Helvetica,sans-Serif" font-size="10.00" fill="#000000">span&lt; const TriggerRecord &gt;</text>
<polyline fill="none" stroke="#000000" points="211.5949,-453 369.5949,-453 "/>
<text text-anchor="middle" x="290.5949" y="-441" font-family="Helvetica,sans-Serif" font-size="10.00" fill="#000000"> </text>
<polyline fill="none" stroke="#000000" points="211.5949,-434 369.5949,-434 "/>
<text text-anchor="middle" x="290.5949" y="-422" font-family="Helvetica,sans-Serif" font-size="10.00" fill="#000000"> </text>
</a>
</g>
</g>
<!-- Node6&#45;&gt;Node4 -->
<g id="edge3" class="edge">
<title>Node6&#45;&gt;Node4</title>
<path fill="none" stroke="#404040" d="M289.8503,-414.8425C287.9793,-387.2673 282.0106,-345.2661 263.5949,-314 250.8883,-292.4268 232.5668,-272.9217 213.6345,-256.4252"/>
<polygon fill="none" stroke="#404040" points="213.4908,-256.3041 206.3249,-255.4976 204.3133,-248.5727 211.4792,-249.3792 213.4908,-256.3041"/>
<text text-anchor="middle" x="295.0949" y="-322.5" font-family="Helvetica,sans-Serif" font-size="10.00" fill="#000000"> #mData</text>
</g>
<!-- Node7&#45;&gt;Node4 -->
<g id="edge4" class="edge">
<title>Node7&#45;&gt;Node4</title>
<path fill="none" stroke="#ffa500" d="M132.5949,-343.8726C132.5949,-327.973 132.5949,-311.5607 132.5949,-295.7777"/>
<polygon fill="#ffa500" stroke="#ffa500" points="129.095,-344.235 132.5949,-354.2351 136.095,-344.2351 129.095,-344.235"/>
<text text-anchor="start" x="132.5949" y="-328" font-family="Helvetica,sans-Serif" font-size="10.00" fill="#000000"> &lt; Iter_orbitIncTrig,</text>
<text text-anchor="middle" x="196.0949" y="-317" font-family="Helvetica,sans-Serif" font-size="10.00" fill="#000000"> TriggerRecord, uint32_t &gt;</text>
</g>
<!-- Node8 -->
<g id="node6" class="node">
<title>Node8</title>
<polygon fill="none" stroke="#bfbfbf" points="83.0949,-580.5 83.0949,-637.5 182.0949,-637.5 182.0949,-580.5 83.0949,-580.5"/>
<text text-anchor="middle" x="132.5949" y="-625.5" font-family="Helvetica,sans-Serif" font-size="10.00" fill="#000000">span&lt; const D &gt;</text>
<polyline fill="none" stroke="#bfbfbf" points="83.0949,-618.5 182.0949,-618.5 "/>
<text text-anchor="middle" x="132.5949" y="-606.5" font-family="Helvetica,sans-Serif" font-size="10.00" fill="#000000"> </text>
<polyline fill="none" stroke="#bfbfbf" points="83.0949,-599.5 182.0949,-599.5 "/>
<text text-anchor="middle" x="132.5949" y="-587.5" font-family="Helvetica,sans-Serif" font-size="10.00" fill="#000000"> </text>
</g>
<!-- Node8&#45;&gt;Node7 -->
<g id="edge6" class="edge">
<title>Node8&#45;&gt;Node7</title>
<path fill="none" stroke="#404040" d="M132.5949,-580.1721C132.5949,-569.9957 132.5949,-557.8923 132.5949,-545.1577"/>
<polygon fill="none" stroke="#404040" points="132.595,-544.7971 128.5949,-538.7972 132.5949,-532.7971 136.5949,-538.7971 132.595,-544.7971"/>
<text text-anchor="middle" x="155.0949" y="-554" font-family="Helvetica,sans-Serif" font-size="10.00" fill="#000000"> #mData</text>
</g>
</g>
</svg>
        <g id="navigator" transform="translate(0 0)" fill="#404254">
                <rect fill="#f2f5e9" fill-opacity="0.5" stroke="#606060" stroke-width=".5" x="0" y="0" width="60" height="60"/>
                <use id="zoomplus" xlink:href="#zoomPlus" x="17" y="9" onmousedown="handleZoom(evt,'in')"/>
                <use id="zoomminus" xlink:href="#zoomMin" x="42" y="9" onmousedown="handleZoom(evt,'out')"/>
                <use id="reset" xlink:href="#resetDef" x="30" y="36" onmousedown="handleReset()"/>
                <g id="arrowUp" xlink:href="#dirArrow" transform="translate(30 24)" onmousedown="handlePan(0,-1)">
                  <use xlink:href="#rim" fill="#404040">
                        <set attributeName="fill" to="#808080" begin="arrowUp.mouseover" end="arrowUp.mouseout"/>
                  </use>
                  <path fill="none" stroke="white" stroke-width="1.5" d="M0,-3.0v7 M-2.5,-0.5L0,-3.0L2.5,-0.5"/>
                </g>
                <g id="arrowRight" xlink:href="#dirArrow" transform="rotate(90) translate(36 -43)" onmousedown="handlePan(1,0)">
                  <use xlink:href="#rim" fill="#404040">
                        <set attributeName="fill" to="#808080" begin="arrowRight.mouseover" end="arrowRight.mouseout"/>
                  </use>
                  <path fill="none" stroke="white" stroke-width="1.5" d="M0,-3.0v7 M-2.5,-0.5L0,-3.0L2.5,-0.5"/>
                </g>
                <g id="arrowDown" xlink:href="#dirArrow" transform="rotate(180) translate(-30 -48)" onmousedown="handlePan(0,1)">
                  <use xlink:href="#rim" fill="#404040">
                        <set attributeName="fill" to="#808080" begin="arrowDown.mouseover" end="arrowDown.mouseout"/>
                  </use>
                  <path fill="none" stroke="white" stroke-width="1.5" d="M0,-3.0v7 M-2.5,-0.5L0,-3.0L2.5,-0.5"/>
                </g>
                <g id="arrowLeft" xlink:href="#dirArrow" transform="rotate(270) translate(-36 17)" onmousedown="handlePan(-1,0)">
                  <use xlink:href="#rim" fill="#404040">
                        <set attributeName="fill" to="#808080" begin="arrowLeft.mouseover" end="arrowLeft.mouseout"/>
                  </use>
                  <path fill="none" stroke="white" stroke-width="1.5" d="M0,-3.0v7 M-2.5,-0.5L0,-3.0L2.5,-0.5"/>
                </g>
        </g>
        <svg viewBox="0 0 15 15" width="100%" height="30px" preserveAspectRatio="xMaxYMin meet">
         <g id="arrow_out" transform="scale(0.3 0.3)">
          <a xlink:href="classo2_1_1emcal_1_1CTFHelper_1_1Iter__orbitIncTrig__coll__graph_org.svg" target="_base">
           <rect id="button" ry="5" rx="5" y="6" x="6" height="38" width="38"
                fill="#f2f5e9" fill-opacity="0.5" stroke="#606060" stroke-width="1.0"/>
           <path id="arrow"
             d="M 11.500037,31.436501 C 11.940474,20.09759 22.043105,11.32322 32.158766,21.979434 L 37.068811,17.246167 C 37.068811,17.246167 37.088388,32 37.088388,32 L 22.160133,31.978069 C 22.160133,31.978069 26.997745,27.140456 26.997745,27.140456 C 18.528582,18.264221 13.291696,25.230495 11.500037,31.436501 z"
             style="fill:#404040;"/>
          </a>
         </g>
        </svg>
</svg>
