<?xml version="1.0" encoding="UTF-8" standalone="no"?>
<!DOCTYPE svg PUBLIC "-//W3C//DTD SVG 1.1//EN"
 "http://www.w3.org/Graphics/SVG/1.1/DTD/svg11.dtd">
<!-- Generated by graphviz version 2.40.1 (20161225.0304)
 -->
<!-- Title: /home/travis/build/AliceO2Group/AliceO2/GPU/GPUTracking/Base/GPUParamRTC.h Pages: 1 -->
<svg width="1095pt" height="509pt"
 viewBox="0.00 0.00 1094.50 509.00" xmlns="http://www.w3.org/2000/svg" xmlns:xlink="http://www.w3.org/1999/xlink">
<g id="graph0" class="graph" transform="scale(1 1) rotate(0) translate(4 505)">
<title>/home/travis/build/AliceO2Group/AliceO2/GPU/GPUTracking/Base/GPUParamRTC.h</title>
<!-- Node0 -->
<g id="node1" class="node">
<title>Node0</title>
<polygon fill="#bfbfbf" stroke="#000000" points="915.5,-448.5 915.5,-500.5 1047.5,-500.5 1047.5,-448.5 915.5,-448.5"/>
<text text-anchor="start" x="923.5" y="-488.5" font-family="Helvetica,sans-Serif" font-size="10.00" fill="#000000">/home/travis/build</text>
<text text-anchor="start" x="923.5" y="-477.5" font-family="Helvetica,sans-Serif" font-size="10.00" fill="#000000">/AliceO2Group/AliceO2</text>
<text text-anchor="start" x="923.5" y="-466.5" font-family="Helvetica,sans-Serif" font-size="10.00" fill="#000000">/GPU/GPUTracking/Base</text>
<text text-anchor="middle" x="981.5" y="-455.5" font-family="Helvetica,sans-Serif" font-size="10.00" fill="#000000">/GPUParamRTC.h</text>
</g>
<!-- Node1 -->
<g id="node2" class="node">
<title>Node1</title>
<g id="a_node2"><a xlink:href="../../df/d13/GPUParam_8h.html" target="_top" xlink:title="GPUParam.h">
<polygon fill="none" stroke="#000000" points="480,-392.5 480,-411.5 557,-411.5 557,-392.5 480,-392.5"/>
<text text-anchor="middle" x="518.5" y="-399.5" font-family="Helvetica,sans-Serif" font-size="10.00" fill="#000000">GPUParam.h</text>
</a>
</g>
</g>
<!-- Node0&#45;&gt;Node1 -->
<g id="edge1" class="edge">
<title>Node0&#45;&gt;Node1</title>
<path fill="none" stroke="#191970" d="M915.1634,-464.1125C820.9498,-449.3599 650.5842,-422.6827 567.1706,-409.6212"/>
<polygon fill="#191970" stroke="#191970" points="567.62,-406.149 557.1989,-408.0598 566.537,-413.0647 567.62,-406.149"/>
</g>
<!-- Node17 -->
<g id="node18" class="node">
<title>Node17</title>
<polygon fill="none" stroke="#bfbfbf" points="1042.5,-280.5 1042.5,-299.5 1086.5,-299.5 1086.5,-280.5 1042.5,-280.5"/>
<text text-anchor="middle" x="1064.5" y="-287.5" font-family="Helvetica,sans-Serif" font-size="10.00" fill="#000000">string</text>
</g>
<!-- Node0&#45;&gt;Node17 -->
<g id="edge32" class="edge">
<title>Node0&#45;&gt;Node17</title>
<path fill="none" stroke="#191970" d="M993.2158,-448.457C1010.0703,-410.9913 1040.7777,-342.732 1055.7809,-309.3816"/>
<polygon fill="#191970" stroke="#191970" points="1059.152,-310.4191 1060.0628,-299.8635 1052.7682,-307.5472 1059.152,-310.4191"/>
</g>
<!-- Node18 -->
<g id="node19" class="node">
<title>Node18</title>
<g id="a_node19"><a xlink:href="../../da/d08/qconfig_8h.html" target="_top" xlink:title="utils/qconfig.h">
<polygon fill="none" stroke="#000000" points="939,-280.5 939,-299.5 1024,-299.5 1024,-280.5 939,-280.5"/>
<text text-anchor="middle" x="981.5" y="-287.5" font-family="Helvetica,sans-Serif" font-size="10.00" fill="#000000">utils/qconfig.h</text>
</a>
</g>
</g>
<!-- Node0&#45;&gt;Node18 -->
<g id="edge33" class="edge">
<title>Node0&#45;&gt;Node18</title>
<path fill="none" stroke="#191970" d="M981.5,-448.457C981.5,-411.3157 981.5,-343.9117 981.5,-310.2556"/>
<polygon fill="#191970" stroke="#191970" points="985.0001,-309.8634 981.5,-299.8635 978.0001,-309.8635 985.0001,-309.8634"/>
</g>
<!-- Node2 -->
<g id="node3" class="node">
<title>Node2</title>
<g id="a_node3"><a xlink:href="../../df/d21/GPUCommonDef_8h.html" target="_top" xlink:title="GPUCommonDef.h">
<polygon fill="none" stroke="#000000" points="387,-56.5 387,-75.5 494,-75.5 494,-56.5 387,-56.5"/>
<text text-anchor="middle" x="440.5" y="-63.5" font-family="Helvetica,sans-Serif" font-size="10.00" fill="#000000">GPUCommonDef.h</text>
</a>
</g>
</g>
<!-- Node1&#45;&gt;Node2 -->
<g id="edge2" class="edge">
<title>Node1&#45;&gt;Node2</title>
<path fill="none" stroke="#191970" d="M479.9261,-398.8017C383.8415,-389.7774 141.5,-360.0709 141.5,-290 141.5,-290 141.5,-290 141.5,-178 141.5,-135.8832 172.2112,-131.58 209.5,-112 237.9754,-97.0478 318.6764,-83.1025 376.6689,-74.5723"/>
<polygon fill="#191970" stroke="#191970" points="377.4589,-77.9944 386.853,-73.0953 376.4541,-71.0669 377.4589,-77.9944"/>
</g>
<!-- Node5 -->
<g id="node6" class="node">
<title>Node5</title>
<g id="a_node6"><a xlink:href="../../d6/da2/GPUCommonMath_8h.html" target="_top" xlink:title="GPUCommonMath.h">
<polygon fill="none" stroke="#000000" points="615,-336.5 615,-355.5 730,-355.5 730,-336.5 615,-336.5"/>
<text text-anchor="middle" x="672.5" y="-343.5" font-family="Helvetica,sans-Serif" font-size="10.00" fill="#000000">GPUCommonMath.h</text>
</a>
</g>
</g>
<!-- Node1&#45;&gt;Node5 -->
<g id="edge5" class="edge">
<title>Node1&#45;&gt;Node5</title>
<path fill="none" stroke="#191970" d="M544.9735,-392.3733C570.3597,-383.1419 608.8645,-369.1402 636.922,-358.9375"/>
<polygon fill="#191970" stroke="#191970" points="638.1701,-362.2079 646.3719,-355.5011 635.7778,-355.6293 638.1701,-362.2079"/>
</g>
<!-- Node8 -->
<g id="node9" class="node">
<title>Node8</title>
<g id="a_node9"><a xlink:href="../../d2/d6d/GPUDef_8h.html" target="_top" xlink:title="GPUDef.h">
<polygon fill="none" stroke="#000000" points="390,-224.5 390,-243.5 453,-243.5 453,-224.5 390,-224.5"/>
<text text-anchor="middle" x="421.5" y="-231.5" font-family="Helvetica,sans-Serif" font-size="10.00" fill="#000000">GPUDef.h</text>
</a>
</g>
</g>
<!-- Node1&#45;&gt;Node8 -->
<g id="edge9" class="edge">
<title>Node1&#45;&gt;Node8</title>
<path fill="none" stroke="#191970" d="M482.25,-392.3385C463.5925,-385.3978 442.3343,-374.0085 430.5,-356 410.0782,-324.9237 413.3812,-279.2872 417.5089,-253.544"/>
<polygon fill="#191970" stroke="#191970" points="420.9836,-253.9977 419.3214,-243.534 414.0956,-252.7504 420.9836,-253.9977"/>
</g>
<!-- Node15 -->
<g id="node16" class="node">
<title>Node15</title>
<g id="a_node16"><a xlink:href="../../dd/dc6/GPUSettings_8h.html" target="_top" xlink:title="GPUSettings.h">
<polygon fill="none" stroke="#000000" points="848.5,-336.5 848.5,-355.5 934.5,-355.5 934.5,-336.5 848.5,-336.5"/>
<text text-anchor="middle" x="891.5" y="-343.5" font-family="Helvetica,sans-Serif" font-size="10.00" fill="#000000">GPUSettings.h</text>
</a>
</g>
</g>
<!-- Node1&#45;&gt;Node15 -->
<g id="edge18" class="edge">
<title>Node1&#45;&gt;Node15</title>
<path fill="none" stroke="#191970" d="M557.0127,-396.2179C623.9442,-386.1692 761.8474,-365.4653 838.0189,-354.0293"/>
<polygon fill="#191970" stroke="#191970" points="838.974,-357.4253 848.3435,-352.4793 837.9347,-350.5028 838.974,-357.4253"/>
</g>
<!-- Node21 -->
<g id="node22" class="node">
<title>Node21</title>
<g id="a_node22"><a xlink:href="../../d6/d1b/GPUTPCGeometry_8h.html" target="_top" xlink:title="GPUTPCGeometry.h">
<polygon fill="none" stroke="#000000" points="0,-224.5 0,-243.5 113,-243.5 113,-224.5 0,-224.5"/>
<text text-anchor="middle" x="56.5" y="-231.5" font-family="Helvetica,sans-Serif" font-size="10.00" fill="#000000">GPUTPCGeometry.h</text>
</a>
</g>
</g>
<!-- Node1&#45;&gt;Node21 -->
<g id="edge27" class="edge">
<title>Node1&#45;&gt;Node21</title>
<path fill="none" stroke="#191970" d="M479.9231,-399.4195C387.0651,-392.9324 156.614,-375.0923 127.5,-356 90.5937,-331.7977 70.476,-281.2698 61.7906,-253.4337"/>
<polygon fill="#191970" stroke="#191970" points="65.0976,-252.2728 58.9236,-243.6627 58.3807,-254.2436 65.0976,-252.2728"/>
</g>
<!-- Node22 -->
<g id="node23" class="node">
<title>Node22</title>
<g id="a_node23"><a xlink:href="../../d9/d9c/GPUTPCGMPolynomialField_8h.html" target="_top" xlink:title="GPUTPCGMPolynomialField.h">
<polygon fill="none" stroke="#000000" points="439.5,-336.5 439.5,-355.5 597.5,-355.5 597.5,-336.5 439.5,-336.5"/>
<text text-anchor="middle" x="518.5" y="-343.5" font-family="Helvetica,sans-Serif" font-size="10.00" fill="#000000">GPUTPCGMPolynomialField.h</text>
</a>
</g>
</g>
<!-- Node1&#45;&gt;Node22 -->
<g id="edge29" class="edge">
<title>Node1&#45;&gt;Node22</title>
<path fill="none" stroke="#191970" d="M518.5,-392.2455C518.5,-384.9382 518.5,-374.6944 518.5,-365.7046"/>
<polygon fill="#191970" stroke="#191970" points="522.0001,-365.6426 518.5,-355.6427 515.0001,-365.6427 522.0001,-365.6426"/>
</g>
<!-- Node3 -->
<g id="node4" class="node">
<title>Node3</title>
<g id="a_node4"><a xlink:href="../../d5/d93/GPUCommonDefSettings_8h.html" target="_top" xlink:title="GPUCommonDefSettings.h">
<polygon fill="none" stroke="#000000" points="289.5,-.5 289.5,-19.5 437.5,-19.5 437.5,-.5 289.5,-.5"/>
<text text-anchor="middle" x="363.5" y="-7.5" font-family="Helvetica,sans-Serif" font-size="10.00" fill="#000000">GPUCommonDefSettings.h</text>
</a>
</g>
</g>
<!-- Node2&#45;&gt;Node3 -->
<g id="edge3" class="edge">
<title>Node2&#45;&gt;Node3</title>
<path fill="none" stroke="#191970" d="M427.0876,-56.2455C415.4943,-47.814 398.5252,-35.4729 385.0322,-25.6598"/>
<polygon fill="#191970" stroke="#191970" points="386.9047,-22.6938 376.7587,-19.6427 382.7874,-28.355 386.9047,-22.6938"/>
</g>
<!-- Node4 -->
<g id="node5" class="node">
<title>Node4</title>
<g id="a_node5"><a xlink:href="../../da/d5a/GPUCommonDefAPI_8h.html" target="_top" xlink:title="GPUCommonDefAPI.h">
<polygon fill="none" stroke="#000000" points="455.5,-.5 455.5,-19.5 579.5,-19.5 579.5,-.5 455.5,-.5"/>
<text text-anchor="middle" x="517.5" y="-7.5" font-family="Helvetica,sans-Serif" font-size="10.00" fill="#000000">GPUCommonDefAPI.h</text>
</a>
</g>
</g>
<!-- Node2&#45;&gt;Node4 -->
<g id="edge4" class="edge">
<title>Node2&#45;&gt;Node4</title>
<path fill="none" stroke="#191970" d="M453.9124,-56.2455C465.5057,-47.814 482.4748,-35.4729 495.9678,-25.6598"/>
<polygon fill="#191970" stroke="#191970" points="498.2126,-28.355 504.2413,-19.6427 494.0953,-22.6938 498.2126,-28.355"/>
</g>
<!-- Node5&#45;&gt;Node2 -->
<g id="edge6" class="edge">
<title>Node5&#45;&gt;Node2</title>
<path fill="none" stroke="#191970" d="M661.5254,-336.2143C648.0459,-322.9753 628.3735,-298.848 640.5,-280 667.1886,-238.5186 815.8114,-229.4814 842.5,-188 847.3095,-180.5247 845.4965,-176.3686 842.5,-168 831.6423,-137.6761 824.676,-127.606 796.5,-112 747.6657,-84.9519 592.8275,-73.2329 504.272,-68.6346"/>
<polygon fill="#191970" stroke="#191970" points="504.239,-65.1286 494.0757,-68.1214 503.8871,-72.1197 504.239,-65.1286"/>
</g>
<!-- Node6 -->
<g id="node7" class="node">
<title>Node6</title>
<polygon fill="none" stroke="#bfbfbf" points="649,-280.5 649,-299.5 696,-299.5 696,-280.5 649,-280.5"/>
<text text-anchor="middle" x="672.5" y="-287.5" font-family="Helvetica,sans-Serif" font-size="10.00" fill="#000000">cmath</text>
</g>
<!-- Node5&#45;&gt;Node6 -->
<g id="edge7" class="edge">
<title>Node5&#45;&gt;Node6</title>
<path fill="none" stroke="#191970" d="M672.5,-336.2455C672.5,-328.9382 672.5,-318.6944 672.5,-309.7046"/>
<polygon fill="#191970" stroke="#191970" points="676.0001,-309.6426 672.5,-299.6427 669.0001,-309.6427 676.0001,-309.6426"/>
</g>
<!-- Node7 -->
<g id="node8" class="node">
<title>Node7</title>
<polygon fill="none" stroke="#bfbfbf" points="714.5,-280.5 714.5,-299.5 778.5,-299.5 778.5,-280.5 714.5,-280.5"/>
<text text-anchor="middle" x="746.5" y="-287.5" font-family="Helvetica,sans-Serif" font-size="10.00" fill="#000000">algorithm</text>
</g>
<!-- Node5&#45;&gt;Node7 -->
<g id="edge8" class="edge">
<title>Node5&#45;&gt;Node7</title>
<path fill="none" stroke="#191970" d="M685.3898,-336.2455C696.4254,-327.8943 712.5292,-315.7076 725.4353,-305.9408"/>
<polygon fill="#191970" stroke="#191970" points="727.8959,-308.4681 733.7579,-299.6427 723.6717,-302.8862 727.8959,-308.4681"/>
</g>
<!-- Node8&#45;&gt;Node2 -->
<g id="edge10" class="edge">
<title>Node8&#45;&gt;Node2</title>
<path fill="none" stroke="#191970" d="M389.986,-232.2171C334.5429,-228.3506 223.1683,-217.0752 199.5,-188 193.8884,-181.1064 197.1612,-176.5757 199.5,-168 207.1012,-140.129 209.1225,-128.9723 232.5,-112 255.2739,-95.4659 324.4826,-82.3331 376.8665,-74.4011"/>
<polygon fill="#191970" stroke="#191970" points="377.3898,-77.8618 386.7682,-72.9327 376.3629,-70.9376 377.3898,-77.8618"/>
</g>
<!-- Node9 -->
<g id="node10" class="node">
<title>Node9</title>
<g id="a_node10"><a xlink:href="../../d2/d37/GPUDefConstantsAndSettings_8h.html" target="_top" xlink:title="GPUDefConstantsAndSettings.h">
<polygon fill="none" stroke="#000000" points="616,-112.5 616,-131.5 787,-131.5 787,-112.5 616,-112.5"/>
<text text-anchor="middle" x="701.5" y="-119.5" font-family="Helvetica,sans-Serif" font-size="10.00" fill="#000000">GPUDefConstantsAndSettings.h</text>
</a>
</g>
</g>
<!-- Node8&#45;&gt;Node9 -->
<g id="edge11" class="edge">
<title>Node8&#45;&gt;Node9</title>
<path fill="none" stroke="#191970" d="M453.2135,-232.5191C515.1681,-228.9862 649.1452,-217.9988 682.5,-188 695.3578,-176.4359 699.7451,-156.7916 701.1327,-141.934"/>
<polygon fill="#191970" stroke="#191970" points="704.6401,-141.897 701.6997,-131.7184 697.6508,-141.509 704.6401,-141.897"/>
</g>
<!-- Node10 -->
<g id="node11" class="node">
<title>Node10</title>
<g id="a_node11"><a xlink:href="../../dc/de9/GPUDefGPUParameters_8h.html" target="_top" xlink:title="GPUDefGPUParameters.h">
<polygon fill="none" stroke="#000000" points="351.5,-168.5 351.5,-187.5 491.5,-187.5 491.5,-168.5 351.5,-168.5"/>
<text text-anchor="middle" x="421.5" y="-175.5" font-family="Helvetica,sans-Serif" font-size="10.00" fill="#000000">GPUDefGPUParameters.h</text>
</a>
</g>
</g>
<!-- Node8&#45;&gt;Node10 -->
<g id="edge13" class="edge">
<title>Node8&#45;&gt;Node10</title>
<path fill="none" stroke="#191970" d="M421.5,-224.2455C421.5,-216.9382 421.5,-206.6944 421.5,-197.7046"/>
<polygon fill="#191970" stroke="#191970" points="425.0001,-197.6426 421.5,-187.6427 418.0001,-197.6427 425.0001,-197.6426"/>
</g>
<!-- Node12 -->
<g id="node13" class="node">
<title>Node12</title>
<g id="a_node13"><a xlink:href="../../d3/d4c/GPUDefOpenCL12Templates_8h.html" target="_top" xlink:title="GPUDefOpenCL12Templates.h">
<polygon fill="none" stroke="#000000" points="509.5,-168.5 509.5,-187.5 673.5,-187.5 673.5,-168.5 509.5,-168.5"/>
<text text-anchor="middle" x="591.5" y="-175.5" font-family="Helvetica,sans-Serif" font-size="10.00" fill="#000000">GPUDefOpenCL12Templates.h</text>
</a>
</g>
</g>
<!-- Node8&#45;&gt;Node12 -->
<g id="edge15" class="edge">
<title>Node8&#45;&gt;Node12</title>
<path fill="none" stroke="#191970" d="M450.724,-224.3733C478.9925,-215.0613 521.9965,-200.8953 553.0344,-190.671"/>
<polygon fill="#191970" stroke="#191970" points="554.2544,-193.9542 562.6573,-187.5011 552.0643,-187.3056 554.2544,-193.9542"/>
</g>
<!-- Node13 -->
<g id="node14" class="node">
<title>Node13</title>
<g id="a_node14"><a xlink:href="../../d2/d45/GPUCommonRtypes_8h.html" target="_top" xlink:title="GPUCommonRtypes.h">
<polygon fill="none" stroke="#000000" points="208,-168.5 208,-187.5 333,-187.5 333,-168.5 208,-168.5"/>
<text text-anchor="middle" x="270.5" y="-175.5" font-family="Helvetica,sans-Serif" font-size="10.00" fill="#000000">GPUCommonRtypes.h</text>
</a>
</g>
</g>
<!-- Node8&#45;&gt;Node13 -->
<g id="edge16" class="edge">
<title>Node8&#45;&gt;Node13</title>
<path fill="none" stroke="#191970" d="M395.5422,-224.3733C370.7593,-215.1822 333.2254,-201.2624 305.746,-191.0713"/>
<polygon fill="#191970" stroke="#191970" points="306.7121,-187.6968 296.1191,-187.5011 304.2781,-194.26 306.7121,-187.6968"/>
</g>
<!-- Node9&#45;&gt;Node2 -->
<g id="edge12" class="edge">
<title>Node9&#45;&gt;Node2</title>
<path fill="none" stroke="#191970" d="M656.9291,-112.4369C612.0732,-102.8127 542.8351,-87.957 494.7992,-77.6504"/>
<polygon fill="#191970" stroke="#191970" points="495.3989,-74.1995 484.8871,-75.5237 493.9303,-81.0437 495.3989,-74.1995"/>
</g>
<!-- Node11 -->
<g id="node12" class="node">
<title>Node11</title>
<g id="a_node12"><a xlink:href="../../d6/dff/GPUDefMacros_8h.html" target="_top" xlink:title="GPUDefMacros.h">
<polygon fill="none" stroke="#000000" points="372.5,-112.5 372.5,-131.5 470.5,-131.5 470.5,-112.5 372.5,-112.5"/>
<text text-anchor="middle" x="421.5" y="-119.5" font-family="Helvetica,sans-Serif" font-size="10.00" fill="#000000">GPUDefMacros.h</text>
</a>
</g>
</g>
<!-- Node10&#45;&gt;Node11 -->
<g id="edge14" class="edge">
<title>Node10&#45;&gt;Node11</title>
<path fill="none" stroke="#191970" d="M421.5,-168.2455C421.5,-160.9382 421.5,-150.6944 421.5,-141.7046"/>
<polygon fill="#191970" stroke="#191970" points="425.0001,-141.6426 421.5,-131.6427 418.0001,-141.6427 425.0001,-141.6426"/>
</g>
<!-- Node14 -->
<g id="node15" class="node">
<title>Node14</title>
<polygon fill="none" stroke="#bfbfbf" points="241,-112.5 241,-131.5 300,-131.5 300,-112.5 241,-112.5"/>
<text text-anchor="middle" x="270.5" y="-119.5" font-family="Helvetica,sans-Serif" font-size="10.00" fill="#000000">Rtypes.h</text>
</g>
<!-- Node13&#45;&gt;Node14 -->
<g id="edge17" class="edge">
<title>Node13&#45;&gt;Node14</title>
<path fill="none" stroke="#191970" d="M270.5,-168.2455C270.5,-160.9382 270.5,-150.6944 270.5,-141.7046"/>
<polygon fill="#191970" stroke="#191970" points="274.0001,-141.6426 270.5,-131.6427 267.0001,-141.6427 274.0001,-141.6426"/>
</g>
<!-- Node15&#45;&gt;Node2 -->
<g id="edge19" class="edge">
<title>Node15&#45;&gt;Node2</title>
<path fill="none" stroke="#191970" d="M894.3035,-336.2066C899.5887,-316.8521 910.5,-272.2612 910.5,-234 910.5,-234 910.5,-234 910.5,-178 910.5,-95.513 633.0971,-73.6639 504.5247,-67.9671"/>
<polygon fill="#191970" stroke="#191970" points="504.5542,-64.4653 494.415,-67.539 504.2579,-71.4591 504.5542,-64.4653"/>
</g>
<!-- Node16 -->
<g id="node17" class="node">
<title>Node16</title>
<polygon fill="none" stroke="#bfbfbf" points="797,-280.5 797,-299.5 844,-299.5 844,-280.5 797,-280.5"/>
<text text-anchor="middle" x="820.5" y="-287.5" font-family="Helvetica,sans-Serif" font-size="10.00" fill="#000000">vector</text>
</g>
<!-- Node15&#45;&gt;Node16 -->
<g id="edge20" class="edge">
<title>Node15&#45;&gt;Node16</title>
<path fill="none" stroke="#191970" d="M879.1327,-336.2455C868.5446,-327.8943 853.0936,-315.7076 840.7107,-305.9408"/>
<polygon fill="#191970" stroke="#191970" points="842.7447,-303.0875 832.7255,-299.6427 838.4097,-308.5837 842.7447,-303.0875"/>
</g>
<!-- Node15&#45;&gt;Node17 -->
<g id="edge21" class="edge">
<title>Node15&#45;&gt;Node17</title>
<path fill="none" stroke="#191970" d="M921.2398,-336.3733C952.2735,-326.3276 1000.7591,-310.6329 1032.5812,-300.3321"/>
<polygon fill="#191970" stroke="#191970" points="1033.8482,-303.6008 1042.2843,-297.1912 1031.6924,-296.941 1033.8482,-303.6008"/>
</g>
<!-- Node15&#45;&gt;Node18 -->
<g id="edge22" class="edge">
<title>Node15&#45;&gt;Node18</title>
<path fill="none" stroke="#191970" d="M907.1768,-336.2455C920.9856,-327.6534 941.3193,-315.0014 957.2292,-305.1018"/>
<polygon fill="#191970" stroke="#191970" points="959.3613,-307.8974 966.0028,-299.6427 955.6632,-301.954 959.3613,-307.8974"/>
</g>
<!-- Node19 -->
<g id="node20" class="node">
<title>Node19</title>
<g id="a_node20"><a xlink:href="../../d8/de9/qconfigoptions_8h.html" target="_top" xlink:title="qconfigoptions.h">
<polygon fill="none" stroke="#000000" points="785,-224.5 785,-243.5 882,-243.5 882,-224.5 785,-224.5"/>
<text text-anchor="middle" x="833.5" y="-231.5" font-family="Helvetica,sans-Serif" font-size="10.00" fill="#000000">qconfigoptions.h</text>
</a>
</g>
</g>
<!-- Node18&#45;&gt;Node19 -->
<g id="edge23" class="edge">
<title>Node18&#45;&gt;Node19</title>
<path fill="none" stroke="#191970" d="M956.0579,-280.3733C931.7674,-271.1822 894.9792,-257.2624 868.0457,-247.0713"/>
<polygon fill="#191970" stroke="#191970" points="869.2016,-243.7666 858.6101,-243.5011 866.7243,-250.3136 869.2016,-243.7666"/>
</g>
<!-- Node19&#45;&gt;Node15 -->
<g id="edge24" class="edge">
<title>Node19&#45;&gt;Node15</title>
<path fill="none" stroke="#191970" d="M838.4325,-243.5249C848.0105,-262.0202 869.2812,-303.0946 881.7901,-327.2498"/>
<polygon fill="#191970" stroke="#191970" points="878.8484,-329.1805 886.555,-336.4509 885.0643,-325.9615 878.8484,-329.1805"/>
</g>
<!-- Node20 -->
<g id="node21" class="node">
<title>Node20</title>
<g id="a_node21"><a xlink:href="../../d4/d57/GPUSettingsList_8h.html" target="_top" xlink:title="GPUSettingsList.h">
<polygon fill="none" stroke="#000000" points="729.5,-168.5 729.5,-187.5 833.5,-187.5 833.5,-168.5 729.5,-168.5"/>
<text text-anchor="middle" x="781.5" y="-175.5" font-family="Helvetica,sans-Serif" font-size="10.00" fill="#000000">GPUSettingsList.h</text>
</a>
</g>
</g>
<!-- Node19&#45;&gt;Node20 -->
<g id="edge25" class="edge">
<title>Node19&#45;&gt;Node20</title>
<path fill="none" stroke="#191970" d="M824.4423,-224.2455C816.9858,-216.2155 806.2366,-204.6394 797.3583,-195.0781"/>
<polygon fill="#191970" stroke="#191970" points="799.8232,-192.589 790.4539,-187.6427 794.6937,-197.3522 799.8232,-192.589"/>
</g>
<!-- Node20&#45;&gt;Node9 -->
<g id="edge26" class="edge">
<title>Node20&#45;&gt;Node9</title>
<path fill="none" stroke="#191970" d="M767.5651,-168.2455C755.4053,-159.7337 737.5536,-147.2375 723.4715,-137.3801"/>
<polygon fill="#191970" stroke="#191970" points="725.4747,-134.51 715.2752,-131.6427 721.4605,-140.2447 725.4747,-134.51"/>
</g>
<!-- Node21&#45;&gt;Node2 -->
<g id="edge28" class="edge">
<title>Node21&#45;&gt;Node2</title>
<path fill="none" stroke="#191970" d="M58.973,-224.4115C65.5931,-200.852 86.0939,-140.0144 127.5,-112 167.0087,-85.2694 297.0045,-73.6354 376.5033,-68.9178"/>
<polygon fill="#191970" stroke="#191970" points="377.1094,-72.3889 386.8932,-68.3234 376.7096,-65.4003 377.1094,-72.3889"/>
</g>
<!-- Node23 -->
<g id="node24" class="node">
<title>Node23</title>
<g id="a_node24"><a xlink:href="../../da/dab/GPUTPCDef_8h.html" target="_top" xlink:title="GPUTPCDef.h">
<polygon fill="none" stroke="#000000" points="458.5,-280.5 458.5,-299.5 540.5,-299.5 540.5,-280.5 458.5,-280.5"/>
<text text-anchor="middle" x="499.5" y="-287.5" font-family="Helvetica,sans-Serif" font-size="10.00" fill="#000000">GPUTPCDef.h</text>
</a>
</g>
</g>
<!-- Node22&#45;&gt;Node23 -->
<g id="edge30" class="edge">
<title>Node22&#45;&gt;Node23</title>
<path fill="none" stroke="#191970" d="M515.1905,-336.2455C512.6567,-328.7776 509.0823,-318.2427 505.985,-309.1137"/>
<polygon fill="#191970" stroke="#191970" points="509.2991,-307.9879 502.7716,-299.6427 502.6702,-310.237 509.2991,-307.9879"/>
</g>
<!-- Node23&#45;&gt;Node8 -->
<g id="edge31" class="edge">
<title>Node23&#45;&gt;Node8</title>
<path fill="none" stroke="#191970" d="M485.9134,-280.2455C474.1695,-271.814 456.9801,-259.4729 443.3118,-249.6598"/>
<polygon fill="#191970" stroke="#191970" points="445.0954,-246.6316 434.9309,-243.6427 441.0129,-252.3179 445.0954,-246.6316"/>
</g>
</g>
</svg>
