<?xml version="1.0" encoding="UTF-8" standalone="no"?>
<!DOCTYPE svg PUBLIC "-//W3C//DTD SVG 1.1//EN"
 "http://www.w3.org/Graphics/SVG/1.1/DTD/svg11.dtd">
<!-- Generated by graphviz version 2.40.1 (20161225.0304)
 -->
<!-- Title: /home/travis/build/AliceO2Group/AliceO2/Detectors/TOF/reconstruction/include/TOFReconstruction/CTFCoder.h Pages: 1 -->
<svg width="987pt" height="261pt"
 viewBox="0.00 0.00 987.00 261.00" xmlns="http://www.w3.org/2000/svg" xmlns:xlink="http://www.w3.org/1999/xlink">
<g id="graph0" class="graph" transform="scale(1 1) rotate(0) translate(4 257)">
<title>/home/travis/build/AliceO2Group/AliceO2/Detectors/TOF/reconstruction/include/TOFReconstruction/CTFCoder.h</title>
<!-- Node84 -->
<g id="node1" class="node">
<title>Node84</title>
<polygon fill="#bfbfbf" stroke="#000000" points="234,-189.5 234,-252.5 395,-252.5 395,-189.5 234,-189.5"/>
<text text-anchor="start" x="242" y="-240.5" font-family="Helvetica,sans-Serif" font-size="10.00" fill="#000000">/home/travis/build</text>
<text text-anchor="start" x="242" y="-229.5" font-family="Helvetica,sans-Serif" font-size="10.00" fill="#000000">/AliceO2Group/AliceO2</text>
<text text-anchor="start" x="242" y="-218.5" font-family="Helvetica,sans-Serif" font-size="10.00" fill="#000000">/Detectors/TOF/reconstruction</text>
<text text-anchor="start" x="242" y="-207.5" font-family="Helvetica,sans-Serif" font-size="10.00" fill="#000000">/include/TOFReconstruction</text>
<text text-anchor="middle" x="314.5" y="-196.5" font-family="Helvetica,sans-Serif" font-size="10.00" fill="#000000">/CTFCoder.h</text>
</g>
<!-- Node85 -->
<g id="node2" class="node">
<title>Node85</title>
<g id="a_node2"><a xlink:href="../../dc/def/test__ctf__io__tof_8cxx.html" target="_top" xlink:title="/home/travis/build\l/AliceO2Group/AliceO2\l/Detectors/CTF/test/test\l_ctf_io_tof.cxx">
<polygon fill="none" stroke="#000000" points="0,-95 0,-147 131,-147 131,-95 0,-95"/>
<text text-anchor="start" x="8" y="-135" font-family="Helvetica,sans-Serif" font-size="10.00" fill="#000000">/home/travis/build</text>
<text text-anchor="start" x="8" y="-124" font-family="Helvetica,sans-Serif" font-size="10.00" fill="#000000">/AliceO2Group/AliceO2</text>
<text text-anchor="start" x="8" y="-113" font-family="Helvetica,sans-Serif" font-size="10.00" fill="#000000">/Detectors/CTF/test/test</text>
<text text-anchor="middle" x="65.5" y="-102" font-family="Helvetica,sans-Serif" font-size="10.00" fill="#000000">_ctf_io_tof.cxx</text>
</a>
</g>
</g>
<!-- Node84&#45;&gt;Node85 -->
<g id="edge1" class="edge">
<title>Node84&#45;&gt;Node85</title>
<path fill="none" stroke="#191970" d="M224.1312,-186.6297C196.8505,-176.0538 166.8793,-164.2346 139.5,-153 134.8383,-151.0871 130.0243,-149.0795 125.193,-147.0415"/>
<polygon fill="#191970" stroke="#191970" points="223.0706,-189.9721 233.6599,-190.3156 225.5961,-183.4435 223.0706,-189.9721"/>
</g>
<!-- Node86 -->
<g id="node3" class="node">
<title>Node86</title>
<g id="a_node3"><a xlink:href="../../d7/de7/TOF_2reconstruction_2src_2CTFCoder_8cxx.html" target="_top" xlink:title="/home/travis/build\l/AliceO2Group/AliceO2\l/Detectors/TOF/reconstruction\l/src/CTFCoder.cxx">
<polygon fill="none" stroke="#000000" points="149,-95 149,-147 310,-147 310,-95 149,-95"/>
<text text-anchor="start" x="157" y="-135" font-family="Helvetica,sans-Serif" font-size="10.00" fill="#000000">/home/travis/build</text>
<text text-anchor="start" x="157" y="-124" font-family="Helvetica,sans-Serif" font-size="10.00" fill="#000000">/AliceO2Group/AliceO2</text>
<text text-anchor="start" x="157" y="-113" font-family="Helvetica,sans-Serif" font-size="10.00" fill="#000000">/Detectors/TOF/reconstruction</text>
<text text-anchor="middle" x="229.5" y="-102" font-family="Helvetica,sans-Serif" font-size="10.00" fill="#000000">/src/CTFCoder.cxx</text>
</a>
</g>
</g>
<!-- Node84&#45;&gt;Node86 -->
<g id="edge2" class="edge">
<title>Node84&#45;&gt;Node86</title>
<path fill="none" stroke="#191970" d="M280.9324,-181.5088C271.0998,-169.9409 260.599,-157.5871 251.6663,-147.078"/>
<polygon fill="#191970" stroke="#191970" points="278.4622,-184.0067 287.6055,-189.3594 283.7957,-179.4732 278.4622,-184.0067"/>
</g>
<!-- Node87 -->
<g id="node4" class="node">
<title>Node87</title>
<g id="a_node4"><a xlink:href="../../d8/d6f/TOF_2workflow_2include_2TOFWorkflowUtils_2EntropyDecoderSpec_8h.html" target="_top" xlink:title="/home/travis/build\l/AliceO2Group/AliceO2\l/Detectors/TOF/workflow\l/include/TOFWorkflowUtils\l/EntropyDecoderSpec.h">
<polygon fill="none" stroke="#000000" points="328.5,-89.5 328.5,-152.5 472.5,-152.5 472.5,-89.5 328.5,-89.5"/>
<text text-anchor="start" x="336.5" y="-140.5" font-family="Helvetica,sans-Serif" font-size="10.00" fill="#000000">/home/travis/build</text>
<text text-anchor="start" x="336.5" y="-129.5" font-family="Helvetica,sans-Serif" font-size="10.00" fill="#000000">/AliceO2Group/AliceO2</text>
<text text-anchor="start" x="336.5" y="-118.5" font-family="Helvetica,sans-Serif" font-size="10.00" fill="#000000">/Detectors/TOF/workflow</text>
<text text-anchor="start" x="336.5" y="-107.5" font-family="Helvetica,sans-Serif" font-size="10.00" fill="#000000">/include/TOFWorkflowUtils</text>
<text text-anchor="middle" x="400.5" y="-96.5" font-family="Helvetica,sans-Serif" font-size="10.00" fill="#000000">/EntropyDecoderSpec.h</text>
</a>
</g>
</g>
<!-- Node84&#45;&gt;Node87 -->
<g id="edge3" class="edge">
<title>Node84&#45;&gt;Node87</title>
<path fill="none" stroke="#191970" d="M348.4625,-181.5088C356.6617,-171.9748 365.32,-161.907 373.1709,-152.778"/>
<polygon fill="#191970" stroke="#191970" points="345.5777,-179.4954 341.7109,-189.3594 350.885,-184.0596 345.5777,-179.4954"/>
</g>
<!-- Node91 -->
<g id="node8" class="node">
<title>Node91</title>
<g id="a_node8"><a xlink:href="../../d6/daa/TOF_2workflow_2include_2TOFWorkflowUtils_2EntropyEncoderSpec_8h.html" target="_top" xlink:title="/home/travis/build\l/AliceO2Group/AliceO2\l/Detectors/TOF/workflow\l/include/TOFWorkflowUtils\l/EntropyEncoderSpec.h">
<polygon fill="none" stroke="#000000" points="565.5,-89.5 565.5,-152.5 709.5,-152.5 709.5,-89.5 565.5,-89.5"/>
<text text-anchor="start" x="573.5" y="-140.5" font-family="Helvetica,sans-Serif" font-size="10.00" fill="#000000">/home/travis/build</text>
<text text-anchor="start" x="573.5" y="-129.5" font-family="Helvetica,sans-Serif" font-size="10.00" fill="#000000">/AliceO2Group/AliceO2</text>
<text text-anchor="start" x="573.5" y="-118.5" font-family="Helvetica,sans-Serif" font-size="10.00" fill="#000000">/Detectors/TOF/workflow</text>
<text text-anchor="start" x="573.5" y="-107.5" font-family="Helvetica,sans-Serif" font-size="10.00" fill="#000000">/include/TOFWorkflowUtils</text>
<text text-anchor="middle" x="637.5" y="-96.5" font-family="Helvetica,sans-Serif" font-size="10.00" fill="#000000">/EntropyEncoderSpec.h</text>
</a>
</g>
</g>
<!-- Node84&#45;&gt;Node91 -->
<g id="edge7" class="edge">
<title>Node84&#45;&gt;Node91</title>
<path fill="none" stroke="#191970" d="M404.8197,-193.0372C455.5016,-177.3462 517.8753,-158.0355 565.2819,-143.3585"/>
<polygon fill="#191970" stroke="#191970" points="403.6909,-189.7228 395.1733,-196.0237 405.7611,-196.4096 403.6909,-189.7228"/>
</g>
<!-- Node88 -->
<g id="node5" class="node">
<title>Node88</title>
<g id="a_node5"><a xlink:href="../../dc/d55/ctf-reader-workflow_8cxx.html" target="_top" xlink:title="/home/travis/build\l/AliceO2Group/AliceO2\l/Detectors/CTF/workflow\l/src/ctf&#45;reader&#45;workflow.cxx">
<polygon fill="none" stroke="#000000" points="53,-.5 53,-52.5 204,-52.5 204,-.5 53,-.5"/>
<text text-anchor="start" x="61" y="-40.5" font-family="Helvetica,sans-Serif" font-size="10.00" fill="#000000">/home/travis/build</text>
<text text-anchor="start" x="61" y="-29.5" font-family="Helvetica,sans-Serif" font-size="10.00" fill="#000000">/AliceO2Group/AliceO2</text>
<text text-anchor="start" x="61" y="-18.5" font-family="Helvetica,sans-Serif" font-size="10.00" fill="#000000">/Detectors/CTF/workflow</text>
<text text-anchor="middle" x="128.5" y="-7.5" font-family="Helvetica,sans-Serif" font-size="10.00" fill="#000000">/src/ctf&#45;reader&#45;workflow.cxx</text>
</a>
</g>
</g>
<!-- Node87&#45;&gt;Node88 -->
<g id="edge4" class="edge">
<title>Node87&#45;&gt;Node88</title>
<path fill="none" stroke="#191970" d="M318.7968,-89.1067C318.6978,-89.0711 318.5989,-89.0355 318.5,-89 281.0819,-75.5558 239.1266,-61.6349 204.1782,-50.3533"/>
<polygon fill="#191970" stroke="#191970" points="317.5493,-92.3772 328.1432,-92.5178 319.9493,-85.8014 317.5493,-92.3772"/>
</g>
<!-- Node89 -->
<g id="node6" class="node">
<title>Node89</title>
<g id="a_node6"><a xlink:href="../../da/dfd/tof-reco-workflow_8cxx.html" target="_top" xlink:title="Basic DPL workflow for TOF reconstruction starting from digits. ">
<polygon fill="none" stroke="#000000" points="398,-.5 398,-52.5 601,-52.5 601,-.5 398,-.5"/>
<text text-anchor="start" x="406" y="-40.5" font-family="Helvetica,sans-Serif" font-size="10.00" fill="#000000">/home/travis/build</text>
<text text-anchor="start" x="406" y="-29.5" font-family="Helvetica,sans-Serif" font-size="10.00" fill="#000000">/AliceO2Group/AliceO2</text>
<text text-anchor="start" x="406" y="-18.5" font-family="Helvetica,sans-Serif" font-size="10.00" fill="#000000">/Detectors/GlobalTrackingWorkflow</text>
<text text-anchor="middle" x="499.5" y="-7.5" font-family="Helvetica,sans-Serif" font-size="10.00" fill="#000000">/tofworkflow/src/tof&#45;reco&#45;workflow.cxx</text>
</a>
</g>
</g>
<!-- Node87&#45;&gt;Node89 -->
<g id="edge5" class="edge">
<title>Node87&#45;&gt;Node89</title>
<path fill="none" stroke="#191970" d="M441.1976,-82.1523C451.606,-72.217 462.5509,-61.7696 472.1109,-52.6442"/>
<polygon fill="#191970" stroke="#191970" points="438.5579,-79.8334 433.741,-89.27 443.3912,-84.8969 438.5579,-79.8334"/>
</g>
<!-- Node90 -->
<g id="node7" class="node">
<title>Node90</title>
<g id="a_node7"><a xlink:href="../../d8/dc2/TOF_2workflow_2src_2EntropyDecoderSpec_8cxx.html" target="_top" xlink:title="/home/travis/build\l/AliceO2Group/AliceO2\l/Detectors/TOF/workflow\l/src/EntropyDecoderSpec.cxx">
<polygon fill="none" stroke="#000000" points="222.5,-.5 222.5,-52.5 380.5,-52.5 380.5,-.5 222.5,-.5"/>
<text text-anchor="start" x="230.5" y="-40.5" font-family="Helvetica,sans-Serif" font-size="10.00" fill="#000000">/home/travis/build</text>
<text text-anchor="start" x="230.5" y="-29.5" font-family="Helvetica,sans-Serif" font-size="10.00" fill="#000000">/AliceO2Group/AliceO2</text>
<text text-anchor="start" x="230.5" y="-18.5" font-family="Helvetica,sans-Serif" font-size="10.00" fill="#000000">/Detectors/TOF/workflow</text>
<text text-anchor="middle" x="301.5" y="-7.5" font-family="Helvetica,sans-Serif" font-size="10.00" fill="#000000">/src/EntropyDecoderSpec.cxx</text>
</a>
</g>
</g>
<!-- Node87&#45;&gt;Node90 -->
<g id="edge6" class="edge">
<title>Node87&#45;&gt;Node90</title>
<path fill="none" stroke="#191970" d="M359.8024,-82.1523C349.394,-72.217 338.4491,-61.7696 328.8891,-52.6442"/>
<polygon fill="#191970" stroke="#191970" points="357.6088,-84.8969 367.259,-89.27 362.4421,-79.8334 357.6088,-84.8969"/>
</g>
<!-- Node91&#45;&gt;Node89 -->
<g id="edge8" class="edge">
<title>Node91&#45;&gt;Node89</title>
<path fill="none" stroke="#191970" d="M582.8773,-83.5953C567.7471,-73.2344 551.6517,-62.2126 537.6788,-52.6442"/>
<polygon fill="#191970" stroke="#191970" points="580.9357,-86.5077 591.1641,-89.27 584.8907,-80.7321 580.9357,-86.5077"/>
</g>
<!-- Node92 -->
<g id="node9" class="node">
<title>Node92</title>
<g id="a_node9"><a xlink:href="../../d5/db8/TOF_2workflow_2src_2entropy-encoder-workflow_8cxx.html" target="_top" xlink:title="/home/travis/build\l/AliceO2Group/AliceO2\l/Detectors/TOF/workflow\l/src/entropy&#45;encoder&#45;workflow.cxx">
<polygon fill="none" stroke="#000000" points="619.5,-.5 619.5,-52.5 803.5,-52.5 803.5,-.5 619.5,-.5"/>
<text text-anchor="start" x="627.5" y="-40.5" font-family="Helvetica,sans-Serif" font-size="10.00" fill="#000000">/home/travis/build</text>
<text text-anchor="start" x="627.5" y="-29.5" font-family="Helvetica,sans-Serif" font-size="10.00" fill="#000000">/AliceO2Group/AliceO2</text>
<text text-anchor="start" x="627.5" y="-18.5" font-family="Helvetica,sans-Serif" font-size="10.00" fill="#000000">/Detectors/TOF/workflow</text>
<text text-anchor="middle" x="711.5" y="-7.5" font-family="Helvetica,sans-Serif" font-size="10.00" fill="#000000">/src/entropy&#45;encoder&#45;workflow.cxx</text>
</a>
</g>
</g>
<!-- Node91&#45;&gt;Node92 -->
<g id="edge9" class="edge">
<title>Node91&#45;&gt;Node92</title>
<path fill="none" stroke="#191970" d="M668.6012,-81.2829C676.1761,-71.6095 684.0896,-61.5038 691.0273,-52.6442"/>
<polygon fill="#191970" stroke="#191970" points="665.7565,-79.2388 662.3468,-89.27 671.2678,-83.5545 665.7565,-79.2388"/>
</g>
<!-- Node93 -->
<g id="node10" class="node">
<title>Node93</title>
<g id="a_node10"><a xlink:href="../../df/d4e/TOF_2workflow_2src_2EntropyEncoderSpec_8cxx.html" target="_top" xlink:title="/home/travis/build\l/AliceO2Group/AliceO2\l/Detectors/TOF/workflow\l/src/EntropyEncoderSpec.cxx">
<polygon fill="none" stroke="#000000" points="822,-.5 822,-52.5 979,-52.5 979,-.5 822,-.5"/>
<text text-anchor="start" x="830" y="-40.5" font-family="Helvetica,sans-Serif" font-size="10.00" fill="#000000">/home/travis/build</text>
<text text-anchor="start" x="830" y="-29.5" font-family="Helvetica,sans-Serif" font-size="10.00" fill="#000000">/AliceO2Group/AliceO2</text>
<text text-anchor="start" x="830" y="-18.5" font-family="Helvetica,sans-Serif" font-size="10.00" fill="#000000">/Detectors/TOF/workflow</text>
<text text-anchor="middle" x="900.5" y="-7.5" font-family="Helvetica,sans-Serif" font-size="10.00" fill="#000000">/src/EntropyEncoderSpec.cxx</text>
</a>
</g>
</g>
<!-- Node91&#45;&gt;Node93 -->
<g id="edge10" class="edge">
<title>Node91&#45;&gt;Node93</title>
<path fill="none" stroke="#191970" d="M719.365,-91.5846C754.1281,-79.0937 794.3151,-64.6539 827.991,-52.5536"/>
<polygon fill="#191970" stroke="#191970" points="717.9412,-88.3771 709.7138,-95.0525 720.3082,-94.9647 717.9412,-88.3771"/>
</g>
</g>
</svg>
