<?xml version="1.0" encoding="UTF-8" standalone="no"?>
<!DOCTYPE svg PUBLIC "-//W3C//DTD SVG 1.1//EN"
 "http://www.w3.org/Graphics/SVG/1.1/DTD/svg11.dtd">
<!-- Generated by graphviz version 2.40.1 (20161225.0304)
 -->
<!-- Title: /home/travis/build/AliceO2Group/AliceO2/Detectors/ZDC/base/src/Geometry.cxx Pages: 1 -->
<svg width="267pt" height="173pt"
 viewBox="0.00 0.00 267.00 173.00" xmlns="http://www.w3.org/2000/svg" xmlns:xlink="http://www.w3.org/1999/xlink">
<g id="graph0" class="graph" transform="scale(1 1) rotate(0) translate(4 169)">
<title>/home/travis/build/AliceO2Group/AliceO2/Detectors/ZDC/base/src/Geometry.cxx</title>
<!-- Node0 -->
<g id="node1" class="node">
<title>Node0</title>
<polygon fill="#bfbfbf" stroke="#000000" points="96.5,-112.5 96.5,-164.5 230.5,-164.5 230.5,-112.5 96.5,-112.5"/>
<text text-anchor="start" x="104.5" y="-152.5" font-family="Helvetica,sans-Serif" font-size="10.00" fill="#000000">/home/travis/build</text>
<text text-anchor="start" x="104.5" y="-141.5" font-family="Helvetica,sans-Serif" font-size="10.00" fill="#000000">/AliceO2Group/AliceO2</text>
<text text-anchor="start" x="104.5" y="-130.5" font-family="Helvetica,sans-Serif" font-size="10.00" fill="#000000">/Detectors/ZDC/base/src</text>
<text text-anchor="middle" x="163.5" y="-119.5" font-family="Helvetica,sans-Serif" font-size="10.00" fill="#000000">/Geometry.cxx</text>
</g>
<!-- Node1 -->
<g id="node2" class="node">
<title>Node1</title>
<g id="a_node2"><a xlink:href="../../db/d64/ZDC_2base_2include_2ZDCBase_2Geometry_8h.html" target="_top" xlink:title="ZDCBase/Geometry.h">
<polygon fill="none" stroke="#000000" points="45,-56.5 45,-75.5 166,-75.5 166,-56.5 45,-56.5"/>
<text text-anchor="middle" x="105.5" y="-63.5" font-family="Helvetica,sans-Serif" font-size="10.00" fill="#000000">ZDCBase/Geometry.h</text>
</a>
</g>
</g>
<!-- Node0&#45;&gt;Node1 -->
<g id="edge1" class="edge">
<title>Node0&#45;&gt;Node1</title>
<path fill="none" stroke="#191970" d="M142.5607,-112.3258C134.8705,-102.7131 126.3588,-92.0735 119.4339,-83.4174"/>
<polygon fill="#191970" stroke="#191970" points="122.1072,-81.1563 113.1272,-75.534 116.6411,-85.5292 122.1072,-81.1563"/>
</g>
<!-- Node5 -->
<g id="node6" class="node">
<title>Node5</title>
<polygon fill="none" stroke="#bfbfbf" points="184,-56.5 184,-75.5 259,-75.5 259,-56.5 184,-56.5"/>
<text text-anchor="middle" x="221.5" y="-63.5" font-family="Helvetica,sans-Serif" font-size="10.00" fill="#000000">FairLogger.h</text>
</g>
<!-- Node0&#45;&gt;Node5 -->
<g id="edge5" class="edge">
<title>Node0&#45;&gt;Node5</title>
<path fill="none" stroke="#191970" d="M184.4393,-112.3258C192.1295,-102.7131 200.6412,-92.0735 207.5661,-83.4174"/>
<polygon fill="#191970" stroke="#191970" points="210.3589,-85.5292 213.8728,-75.534 204.8928,-81.1563 210.3589,-85.5292"/>
</g>
<!-- Node2 -->
<g id="node3" class="node">
<title>Node2</title>
<polygon fill="none" stroke="#bfbfbf" points="0,-.5 0,-19.5 59,-19.5 59,-.5 0,-.5"/>
<text text-anchor="middle" x="29.5" y="-7.5" font-family="Helvetica,sans-Serif" font-size="10.00" fill="#000000">Rtypes.h</text>
</g>
<!-- Node1&#45;&gt;Node2 -->
<g id="edge2" class="edge">
<title>Node1&#45;&gt;Node2</title>
<path fill="none" stroke="#191970" d="M92.2618,-56.2455C80.819,-47.814 64.0704,-35.4729 50.7525,-25.6598"/>
<polygon fill="#191970" stroke="#191970" points="52.7133,-22.757 42.5865,-19.6427 48.5609,-28.3924 52.7133,-22.757"/>
</g>
<!-- Node3 -->
<g id="node4" class="node">
<title>Node3</title>
<polygon fill="none" stroke="#bfbfbf" points="77.5,-.5 77.5,-19.5 133.5,-19.5 133.5,-.5 77.5,-.5"/>
<text text-anchor="middle" x="105.5" y="-7.5" font-family="Helvetica,sans-Serif" font-size="10.00" fill="#000000">TMath.h</text>
</g>
<!-- Node1&#45;&gt;Node3 -->
<g id="edge3" class="edge">
<title>Node1&#45;&gt;Node3</title>
<path fill="none" stroke="#191970" d="M105.5,-56.2455C105.5,-48.9382 105.5,-38.6944 105.5,-29.7046"/>
<polygon fill="#191970" stroke="#191970" points="109.0001,-29.6426 105.5,-19.6427 102.0001,-29.6427 109.0001,-29.6426"/>
</g>
<!-- Node4 -->
<g id="node5" class="node">
<title>Node4</title>
<polygon fill="none" stroke="#bfbfbf" points="152,-.5 152,-19.5 199,-19.5 199,-.5 152,-.5"/>
<text text-anchor="middle" x="175.5" y="-7.5" font-family="Helvetica,sans-Serif" font-size="10.00" fill="#000000">cmath</text>
</g>
<!-- Node1&#45;&gt;Node4 -->
<g id="edge4" class="edge">
<title>Node1&#45;&gt;Node4</title>
<path fill="none" stroke="#191970" d="M117.6931,-56.2455C128.1321,-47.8943 143.3655,-35.7076 155.574,-25.9408"/>
<polygon fill="#191970" stroke="#191970" points="157.8244,-28.6227 163.4467,-19.6427 153.4515,-23.1566 157.8244,-28.6227"/>
</g>
</g>
</svg>
