<?xml version="1.0" encoding="UTF-8" standalone="no"?>
<!DOCTYPE svg PUBLIC "-//W3C//DTD SVG 1.1//EN"
 "http://www.w3.org/Graphics/SVG/1.1/DTD/svg11.dtd">
<!-- Generated by graphviz version 2.40.1 (20161225.0304)
 -->
<!-- Title: o2::its::TrackITSExt Pages: 1 -->
<svg width="257pt" height="585pt"
 viewBox="0.00 0.00 256.50 585.00" xmlns="http://www.w3.org/2000/svg" xmlns:xlink="http://www.w3.org/1999/xlink">
<g id="graph0" class="graph" transform="scale(1 1) rotate(0) translate(4 581)">
<title>o2::its::TrackITSExt</title>
<!-- Node3 -->
<g id="node1" class="node">
<title>Node3</title>
<polygon fill="#bfbfbf" stroke="#000000" points="52.5,-.5 52.5,-90.5 204.5,-90.5 204.5,-.5 52.5,-.5"/>
<text text-anchor="middle" x="128.5" y="-78.5" font-family="Helvetica,sans-Serif" font-size="10.00" fill="#000000">o2::its::TrackITSExt</text>
<polyline fill="none" stroke="#000000" points="52.5,-71.5 204.5,-71.5 "/>
<text text-anchor="middle" x="128.5" y="-59.5" font-family="Helvetica,sans-Serif" font-size="10.00" fill="#000000"> </text>
<polyline fill="none" stroke="#000000" points="52.5,-52.5 204.5,-52.5 "/>
<text text-anchor="start" x="60.5" y="-40.5" font-family="Helvetica,sans-Serif" font-size="10.00" fill="#000000">+ TrackITSExt()</text>
<text text-anchor="start" x="60.5" y="-29.5" font-family="Helvetica,sans-Serif" font-size="10.00" fill="#000000">+ setClusterIndex()</text>
<text text-anchor="start" x="60.5" y="-18.5" font-family="Helvetica,sans-Serif" font-size="10.00" fill="#000000">+ getClusterIndex()</text>
<text text-anchor="start" x="60.5" y="-7.5" font-family="Helvetica,sans-Serif" font-size="10.00" fill="#000000">+ setExternalClusterIndex()</text>
</g>
<!-- Node4 -->
<g id="node2" class="node">
<title>Node4</title>
<g id="a_node2"><a xlink:href="../../d0/d66/classo2_1_1its_1_1TrackITS.html" target="_top" xlink:title="{o2::its::TrackITS\n||+ TrackITS()\l+ TrackITS()\l+ TrackITS()\l+ TrackITS()\l+ operator=()\l+ ~TrackITS()\l+ propagate()\l+ update()\l+ getChi2()\l+ getNumberOfClusters()\l+ getFirstClusterEntry()\l+ getClusterEntry()\l+ shiftFirstClusterEntry()\l+ setFirstClusterEntry()\l+ setNumberOfClusters()\l+ operator\&lt;()\l+ getImpactParams()\l+ setClusterRefs()\l+ getClusterRefs()\l+ getClusterRefs()\l+ setChi2()\l+ isBetter()\l+ getParamOut()\l+ getParamOut()\l+ setPattern()\l+ getPattern()\l+ hasHitOnLayer()\l}">
<polygon fill="none" stroke="#000000" points="5,-128.5 5,-471.5 146,-471.5 146,-128.5 5,-128.5"/>
<text text-anchor="middle" x="75.5" y="-459.5" font-family="Helvetica,sans-Serif" font-size="10.00" fill="#000000">o2::its::TrackITS</text>
<polyline fill="none" stroke="#000000" points="5,-452.5 146,-452.5 "/>
<text text-anchor="middle" x="75.5" y="-440.5" font-family="Helvetica,sans-Serif" font-size="10.00" fill="#000000"> </text>
<polyline fill="none" stroke="#000000" points="5,-433.5 146,-433.5 "/>
<text text-anchor="start" x="13" y="-421.5" font-family="Helvetica,sans-Serif" font-size="10.00" fill="#000000">+ TrackITS()</text>
<text text-anchor="start" x="13" y="-410.5" font-family="Helvetica,sans-Serif" font-size="10.00" fill="#000000">+ TrackITS()</text>
<text text-anchor="start" x="13" y="-399.5" font-family="Helvetica,sans-Serif" font-size="10.00" fill="#000000">+ TrackITS()</text>
<text text-anchor="start" x="13" y="-388.5" font-family="Helvetica,sans-Serif" font-size="10.00" fill="#000000">+ TrackITS()</text>
<text text-anchor="start" x="13" y="-377.5" font-family="Helvetica,sans-Serif" font-size="10.00" fill="#000000">+ operator=()</text>
<text text-anchor="start" x="13" y="-366.5" font-family="Helvetica,sans-Serif" font-size="10.00" fill="#000000">+ ~TrackITS()</text>
<text text-anchor="start" x="13" y="-355.5" font-family="Helvetica,sans-Serif" font-size="10.00" fill="#000000">+ propagate()</text>
<text text-anchor="start" x="13" y="-344.5" font-family="Helvetica,sans-Serif" font-size="10.00" fill="#000000">+ update()</text>
<text text-anchor="start" x="13" y="-333.5" font-family="Helvetica,sans-Serif" font-size="10.00" fill="#000000">+ getChi2()</text>
<text text-anchor="start" x="13" y="-322.5" font-family="Helvetica,sans-Serif" font-size="10.00" fill="#000000">+ getNumberOfClusters()</text>
<text text-anchor="start" x="13" y="-311.5" font-family="Helvetica,sans-Serif" font-size="10.00" fill="#000000">+ getFirstClusterEntry()</text>
<text text-anchor="start" x="13" y="-300.5" font-family="Helvetica,sans-Serif" font-size="10.00" fill="#000000">+ getClusterEntry()</text>
<text text-anchor="start" x="13" y="-289.5" font-family="Helvetica,sans-Serif" font-size="10.00" fill="#000000">+ shiftFirstClusterEntry()</text>
<text text-anchor="start" x="13" y="-278.5" font-family="Helvetica,sans-Serif" font-size="10.00" fill="#000000">+ setFirstClusterEntry()</text>
<text text-anchor="start" x="13" y="-267.5" font-family="Helvetica,sans-Serif" font-size="10.00" fill="#000000">+ setNumberOfClusters()</text>
<text text-anchor="start" x="13" y="-256.5" font-family="Helvetica,sans-Serif" font-size="10.00" fill="#000000">+ operator&lt;()</text>
<text text-anchor="start" x="13" y="-245.5" font-family="Helvetica,sans-Serif" font-size="10.00" fill="#000000">+ getImpactParams()</text>
<text text-anchor="start" x="13" y="-234.5" font-family="Helvetica,sans-Serif" font-size="10.00" fill="#000000">+ setClusterRefs()</text>
<text text-anchor="start" x="13" y="-223.5" font-family="Helvetica,sans-Serif" font-size="10.00" fill="#000000">+ getClusterRefs()</text>
<text text-anchor="start" x="13" y="-212.5" font-family="Helvetica,sans-Serif" font-size="10.00" fill="#000000">+ getClusterRefs()</text>
<text text-anchor="start" x="13" y="-201.5" font-family="Helvetica,sans-Serif" font-size="10.00" fill="#000000">+ setChi2()</text>
<text text-anchor="start" x="13" y="-190.5" font-family="Helvetica,sans-Serif" font-size="10.00" fill="#000000">+ isBetter()</text>
<text text-anchor="start" x="13" y="-179.5" font-family="Helvetica,sans-Serif" font-size="10.00" fill="#000000">+ getParamOut()</text>
<text text-anchor="start" x="13" y="-168.5" font-family="Helvetica,sans-Serif" font-size="10.00" fill="#000000">+ getParamOut()</text>
<text text-anchor="start" x="13" y="-157.5" font-family="Helvetica,sans-Serif" font-size="10.00" fill="#000000">+ setPattern()</text>
<text text-anchor="start" x="13" y="-146.5" font-family="Helvetica,sans-Serif" font-size="10.00" fill="#000000">+ getPattern()</text>
<text text-anchor="start" x="13" y="-135.5" font-family="Helvetica,sans-Serif" font-size="10.00" fill="#000000">+ hasHitOnLayer()</text>
</a>
</g>
</g>
<!-- Node4&#45;&gt;Node3 -->
<g id="edge1" class="edge">
<title>Node4&#45;&gt;Node3</title>
<path fill="none" stroke="#191970" d="M113.3137,-118.4228C115.3733,-108.5331 117.3206,-99.1823 119.0905,-90.6834"/>
<polygon fill="none" stroke="#191970" points="109.8315,-117.9771 111.2192,-128.4807 116.6845,-119.4043 109.8315,-117.9771"/>
</g>
<!-- Node5 -->
<g id="node3" class="node">
<title>Node5</title>
<polygon fill="none" stroke="#bfbfbf" points="0,-519.5 0,-576.5 125,-576.5 125,-519.5 0,-519.5"/>
<text text-anchor="middle" x="62.5" y="-564.5" font-family="Helvetica,sans-Serif" font-size="10.00" fill="#000000">o2::track::TrackParCov</text>
<polyline fill="none" stroke="#bfbfbf" points="0,-557.5 125,-557.5 "/>
<text text-anchor="middle" x="62.5" y="-545.5" font-family="Helvetica,sans-Serif" font-size="10.00" fill="#000000"> </text>
<polyline fill="none" stroke="#bfbfbf" points="0,-538.5 125,-538.5 "/>
<text text-anchor="middle" x="62.5" y="-526.5" font-family="Helvetica,sans-Serif" font-size="10.00" fill="#000000"> </text>
</g>
<!-- Node5&#45;&gt;Node4 -->
<g id="edge2" class="edge">
<title>Node5&#45;&gt;Node4</title>
<path fill="none" stroke="#191970" d="M64.5412,-509.0598C65.1187,-498.0428 65.7869,-485.2967 66.5027,-471.6416"/>
<polygon fill="none" stroke="#191970" points="61.0451,-508.8963 64.0167,-519.0659 68.0355,-509.2628 61.0451,-508.8963"/>
</g>
<!-- Node6 -->
<g id="node4" class="node">
<title>Node6</title>
<polygon fill="none" stroke="#bfbfbf" points="151.5,-519.5 151.5,-576.5 195.5,-576.5 195.5,-519.5 151.5,-519.5"/>
<text text-anchor="middle" x="173.5" y="-564.5" font-family="Helvetica,sans-Serif" font-size="10.00" fill="#000000">static</text>
<polyline fill="none" stroke="#bfbfbf" points="151.5,-557.5 195.5,-557.5 "/>
<text text-anchor="middle" x="173.5" y="-545.5" font-family="Helvetica,sans-Serif" font-size="10.00" fill="#000000"> </text>
<polyline fill="none" stroke="#bfbfbf" points="151.5,-538.5 195.5,-538.5 "/>
<text text-anchor="middle" x="173.5" y="-526.5" font-family="Helvetica,sans-Serif" font-size="10.00" fill="#000000"> </text>
</g>
<!-- Node6&#45;&gt;Node3 -->
<g id="edge4" class="edge">
<title>Node6&#45;&gt;Node3</title>
<path fill="none" stroke="#404040" d="M174.9391,-519.4372C177.805,-451.1358 181.8623,-273.2362 155.5,-128 153.9816,-119.6348 151.8213,-110.9501 149.3756,-102.493"/>
<polygon fill="none" stroke="#404040" points="149.2905,-102.2157 143.7043,-97.6555 145.7652,-90.7451 151.3514,-95.3053 149.2905,-102.2157"/>
<text text-anchor="middle" x="212.5" y="-297.5" font-family="Helvetica,sans-Serif" font-size="10.00" fill="#000000"> +MaxClusters</text>
</g>
<!-- Node6&#45;&gt;Node4 -->
<g id="edge3" class="edge">
<title>Node6&#45;&gt;Node4</title>
<path fill="none" stroke="#404040" d="M151.1227,-530.729C145.4987,-526.6834 139.3855,-522.5283 133.5,-519 117.8154,-509.5972 106.992,-515.9779 96.5,-501 92.5369,-495.3425 89.0592,-489.3663 86.0156,-483.1541"/>
<polygon fill="none" stroke="#404040" points="85.8248,-482.72 79.7482,-478.8373 80.995,-471.7348 87.0716,-475.6175 85.8248,-482.72"/>
<text text-anchor="middle" x="132.5" y="-493" font-family="Helvetica,sans-Serif" font-size="10.00" fill="#000000"> +MaxClusters</text>
</g>
</g>
</svg>
