<?xml version="1.0" encoding="UTF-8" standalone="no"?>
<!DOCTYPE svg PUBLIC "-//W3C//DTD SVG 1.1//EN"
 "http://www.w3.org/Graphics/SVG/1.1/DTD/svg11.dtd">
<!-- Generated by graphviz version 2.40.1 (20161225.0304)
 -->
<!-- Title: o2::framework::DanglingContext Pages: 1 -->
<svg width="1593pt" height="540pt"
 viewBox="0.00 0.00 1593.00 540.00" xmlns="http://www.w3.org/2000/svg" xmlns:xlink="http://www.w3.org/1999/xlink">
<g id="graph0" class="graph" transform="scale(1 1) rotate(0) translate(4 536)">
<title>o2::framework::DanglingContext</title>
<!-- Node1 -->
<g id="node1" class="node">
<title>Node1</title>
<polygon fill="#bfbfbf" stroke="#000000" points="779,-.5 779,-68.5 955,-68.5 955,-.5 779,-.5"/>
<text text-anchor="middle" x="867" y="-56.5" font-family="Helvetica,sans-Serif" font-size="10.00" fill="#000000">o2::framework::DanglingContext</text>
<polyline fill="none" stroke="#000000" points="779,-49.5 955,-49.5 "/>
<text text-anchor="middle" x="867" y="-37.5" font-family="Helvetica,sans-Serif" font-size="10.00" fill="#000000"> </text>
<polyline fill="none" stroke="#000000" points="779,-30.5 955,-30.5 "/>
<text text-anchor="start" x="787" y="-18.5" font-family="Helvetica,sans-Serif" font-size="10.00" fill="#000000">+ DanglingContext()</text>
<text text-anchor="start" x="787" y="-7.5" font-family="Helvetica,sans-Serif" font-size="10.00" fill="#000000">+ services()</text>
</g>
<!-- Node2 -->
<g id="node2" class="node">
<title>Node2</title>
<g id="a_node2"><a xlink:href="../../dc/dba/structo2_1_1framework_1_1ServiceRegistry.html" target="_top" xlink:title="{o2::framework::ServiceRegistry\n||+ ServiceRegistry()\l+ ServiceRegistry()\l+ operator=()\l+ preProcessingCallbacks()\l+ postProcessingCallbacks()\l+ preDanglingCallbacks()\l+ postDanglingCallbacks()\l+ preEOSCallbacks()\l+ postEOSCallbacks()\l+ postDispatchingCallbacks()\l+ declareService()\l+ bindService()\l+ registerService()\l+ getPos()\l+ get()\l+ registerService()\l+ registerService()\l+ registerService()\l+ active()\l+ get()\l}">
<polygon fill="none" stroke="#000000" points="782,-116.5 782,-382.5 952,-382.5 952,-116.5 782,-116.5"/>
<text text-anchor="middle" x="867" y="-370.5" font-family="Helvetica,sans-Serif" font-size="10.00" fill="#000000">o2::framework::ServiceRegistry</text>
<polyline fill="none" stroke="#000000" points="782,-363.5 952,-363.5 "/>
<text text-anchor="middle" x="867" y="-351.5" font-family="Helvetica,sans-Serif" font-size="10.00" fill="#000000"> </text>
<polyline fill="none" stroke="#000000" points="782,-344.5 952,-344.5 "/>
<text text-anchor="start" x="790" y="-332.5" font-family="Helvetica,sans-Serif" font-size="10.00" fill="#000000">+ ServiceRegistry()</text>
<text text-anchor="start" x="790" y="-321.5" font-family="Helvetica,sans-Serif" font-size="10.00" fill="#000000">+ ServiceRegistry()</text>
<text text-anchor="start" x="790" y="-310.5" font-family="Helvetica,sans-Serif" font-size="10.00" fill="#000000">+ operator=()</text>
<text text-anchor="start" x="790" y="-299.5" font-family="Helvetica,sans-Serif" font-size="10.00" fill="#000000">+ preProcessingCallbacks()</text>
<text text-anchor="start" x="790" y="-288.5" font-family="Helvetica,sans-Serif" font-size="10.00" fill="#000000">+ postProcessingCallbacks()</text>
<text text-anchor="start" x="790" y="-277.5" font-family="Helvetica,sans-Serif" font-size="10.00" fill="#000000">+ preDanglingCallbacks()</text>
<text text-anchor="start" x="790" y="-266.5" font-family="Helvetica,sans-Serif" font-size="10.00" fill="#000000">+ postDanglingCallbacks()</text>
<text text-anchor="start" x="790" y="-255.5" font-family="Helvetica,sans-Serif" font-size="10.00" fill="#000000">+ preEOSCallbacks()</text>
<text text-anchor="start" x="790" y="-244.5" font-family="Helvetica,sans-Serif" font-size="10.00" fill="#000000">+ postEOSCallbacks()</text>
<text text-anchor="start" x="790" y="-233.5" font-family="Helvetica,sans-Serif" font-size="10.00" fill="#000000">+ postDispatchingCallbacks()</text>
<text text-anchor="start" x="790" y="-222.5" font-family="Helvetica,sans-Serif" font-size="10.00" fill="#000000">+ declareService()</text>
<text text-anchor="start" x="790" y="-211.5" font-family="Helvetica,sans-Serif" font-size="10.00" fill="#000000">+ bindService()</text>
<text text-anchor="start" x="790" y="-200.5" font-family="Helvetica,sans-Serif" font-size="10.00" fill="#000000">+ registerService()</text>
<text text-anchor="start" x="790" y="-189.5" font-family="Helvetica,sans-Serif" font-size="10.00" fill="#000000">+ getPos()</text>
<text text-anchor="start" x="790" y="-178.5" font-family="Helvetica,sans-Serif" font-size="10.00" fill="#000000">+ get()</text>
<text text-anchor="start" x="790" y="-167.5" font-family="Helvetica,sans-Serif" font-size="10.00" fill="#000000">+ registerService()</text>
<text text-anchor="start" x="790" y="-156.5" font-family="Helvetica,sans-Serif" font-size="10.00" fill="#000000">+ registerService()</text>
<text text-anchor="start" x="790" y="-145.5" font-family="Helvetica,sans-Serif" font-size="10.00" fill="#000000">+ registerService()</text>
<text text-anchor="start" x="790" y="-134.5" font-family="Helvetica,sans-Serif" font-size="10.00" fill="#000000">+ active()</text>
<text text-anchor="start" x="790" y="-123.5" font-family="Helvetica,sans-Serif" font-size="10.00" fill="#000000">+ get()</text>
</a>
</g>
</g>
<!-- Node2&#45;&gt;Node1 -->
<g id="edge1" class="edge">
<title>Node2&#45;&gt;Node1</title>
<path fill="none" stroke="#404040" d="M867,-116.3956C867,-103.7997 867,-91.7017 867,-80.8495"/>
<polygon fill="none" stroke="#404040" points="867.0001,-80.7271 863,-74.7271 867,-68.7271 871,-74.727 867.0001,-80.7271"/>
<text text-anchor="middle" x="898.5" y="-90" font-family="Helvetica,sans-Serif" font-size="10.00" fill="#000000"> +mServices</text>
</g>
<!-- Node3 -->
<g id="node3" class="node">
<title>Node3</title>
<polygon fill="none" stroke="#bfbfbf" points="0,-452.5 0,-531.5 162,-531.5 162,-452.5 0,-452.5"/>
<text text-anchor="start" x="8" y="-519.5" font-family="Helvetica,sans-Serif" font-size="10.00" fill="#000000">array&lt; o2::framework</text>
<text text-anchor="start" x="8" y="-508.5" font-family="Helvetica,sans-Serif" font-size="10.00" fill="#000000">::ServiceMeta, MAX_SERVICES</text>
<text text-anchor="middle" x="81" y="-497.5" font-family="Helvetica,sans-Serif" font-size="10.00" fill="#000000">+MAX_DISTANCE &gt;</text>
<polyline fill="none" stroke="#bfbfbf" points="0,-490.5 162,-490.5 "/>
<text text-anchor="middle" x="81" y="-478.5" font-family="Helvetica,sans-Serif" font-size="10.00" fill="#000000"> </text>
<polyline fill="none" stroke="#bfbfbf" points="0,-471.5 162,-471.5 "/>
<text text-anchor="middle" x="81" y="-459.5" font-family="Helvetica,sans-Serif" font-size="10.00" fill="#000000"> </text>
</g>
<!-- Node3&#45;&gt;Node2 -->
<g id="edge2" class="edge">
<title>Node3&#45;&gt;Node2</title>
<path fill="none" stroke="#404040" d="M131.1843,-452.368C156.0804,-434.3964 187.3322,-414.2499 218,-401 404.1103,-320.5919 639.4994,-279.2804 769.5173,-261.2154"/>
<polygon fill="none" stroke="#404040" points="769.8764,-261.1664 775.2786,-256.3898 781.7656,-259.5393 776.3634,-264.3159 769.8764,-261.1664"/>
<text text-anchor="middle" x="261.5" y="-415" font-family="Helvetica,sans-Serif" font-size="10.00" fill="#000000"> +mServicesMeta</text>
</g>
<!-- Node4 -->
<g id="node4" class="node">
<title>Node4</title>
<polygon fill="none" stroke="#bfbfbf" points="180,-458 180,-526 328,-526 328,-458 180,-458"/>
<text text-anchor="start" x="188" y="-514" font-family="Helvetica,sans-Serif" font-size="10.00" fill="#000000">vector&lt; o2::framework</text>
<text text-anchor="middle" x="254" y="-503" font-family="Helvetica,sans-Serif" font-size="10.00" fill="#000000">::ServiceDanglingHandle &gt;</text>
<polyline fill="none" stroke="#bfbfbf" points="180,-496 328,-496 "/>
<text text-anchor="middle" x="254" y="-484" font-family="Helvetica,sans-Serif" font-size="10.00" fill="#000000"> </text>
<polyline fill="none" stroke="#bfbfbf" points="180,-477 328,-477 "/>
<text text-anchor="middle" x="254" y="-465" font-family="Helvetica,sans-Serif" font-size="10.00" fill="#000000"> </text>
</g>
<!-- Node4&#45;&gt;Node2 -->
<g id="edge3" class="edge">
<title>Node4&#45;&gt;Node2</title>
<path fill="none" stroke="#404040" d="M283.5686,-457.9843C301.8568,-438.8233 326.7903,-415.8323 353,-401 486.8986,-325.2258 662.3013,-284.1284 769.7064,-264.5272"/>
<polygon fill="none" stroke="#404040" points="770.0035,-264.474 775.2033,-259.4778 781.8152,-262.356 776.6154,-267.3522 770.0035,-264.474"/>
<text text-anchor="middle" x="414.5" y="-420.5" font-family="Helvetica,sans-Serif" font-size="10.00" fill="#000000"> +mPreDanglingHandles</text>
<text text-anchor="middle" x="414.5" y="-409.5" font-family="Helvetica,sans-Serif" font-size="10.00" fill="#000000">+mPostDanglingHandles</text>
</g>
<!-- Node5 -->
<g id="node5" class="node">
<title>Node5</title>
<polygon fill="none" stroke="#bfbfbf" points="346.5,-458 346.5,-526 503.5,-526 503.5,-458 346.5,-458"/>
<text text-anchor="start" x="354.5" y="-514" font-family="Helvetica,sans-Serif" font-size="10.00" fill="#000000">vector&lt; o2::framework</text>
<text text-anchor="middle" x="425" y="-503" font-family="Helvetica,sans-Serif" font-size="10.00" fill="#000000">::ServiceProcessingHandle &gt;</text>
<polyline fill="none" stroke="#bfbfbf" points="346.5,-496 503.5,-496 "/>
<text text-anchor="middle" x="425" y="-484" font-family="Helvetica,sans-Serif" font-size="10.00" fill="#000000"> </text>
<polyline fill="none" stroke="#bfbfbf" points="346.5,-477 503.5,-477 "/>
<text text-anchor="middle" x="425" y="-465" font-family="Helvetica,sans-Serif" font-size="10.00" fill="#000000"> </text>
</g>
<!-- Node5&#45;&gt;Node2 -->
<g id="edge4" class="edge">
<title>Node5&#45;&gt;Node2</title>
<path fill="none" stroke="#404040" d="M455.0868,-457.7785C472.6646,-439.2511 496.0524,-416.9572 520,-401 598.5363,-348.6683 698.1207,-307.3844 770.444,-281.2159"/>
<polygon fill="none" stroke="#404040" points="770.5123,-281.1915 774.8128,-275.4031 781.81,-277.1464 777.5095,-282.9349 770.5123,-281.1915"/>
<text text-anchor="middle" x="586" y="-420.5" font-family="Helvetica,sans-Serif" font-size="10.00" fill="#000000"> +mPreProcessingHandles</text>
<text text-anchor="middle" x="586" y="-409.5" font-family="Helvetica,sans-Serif" font-size="10.00" fill="#000000">+mPostProcessingHandles</text>
</g>
<!-- Node6 -->
<g id="node6" class="node">
<title>Node6</title>
<polygon fill="none" stroke="#bfbfbf" points="522,-458 522,-526 686,-526 686,-458 522,-458"/>
<text text-anchor="start" x="530" y="-514" font-family="Helvetica,sans-Serif" font-size="10.00" fill="#000000">array&lt; void *, MAX</text>
<text text-anchor="middle" x="604" y="-503" font-family="Helvetica,sans-Serif" font-size="10.00" fill="#000000">_SERVICES+MAX_DISTANCE &gt;</text>
<polyline fill="none" stroke="#bfbfbf" points="522,-496 686,-496 "/>
<text text-anchor="middle" x="604" y="-484" font-family="Helvetica,sans-Serif" font-size="10.00" fill="#000000"> </text>
<polyline fill="none" stroke="#bfbfbf" points="522,-477 686,-477 "/>
<text text-anchor="middle" x="604" y="-465" font-family="Helvetica,sans-Serif" font-size="10.00" fill="#000000"> </text>
</g>
<!-- Node6&#45;&gt;Node2 -->
<g id="edge5" class="edge">
<title>Node6&#45;&gt;Node2</title>
<path fill="none" stroke="#404040" d="M633.7681,-457.7846C649.4193,-440.3096 669.2127,-418.9957 688,-401 714.5472,-375.5714 744.6356,-349.2336 772.4647,-325.7913"/>
<polygon fill="none" stroke="#404040" points="772.6119,-325.6678 774.6396,-318.7477 781.8074,-317.9578 779.7797,-324.878 772.6119,-325.6678"/>
<text text-anchor="middle" x="733" y="-415" font-family="Helvetica,sans-Serif" font-size="10.00" fill="#000000"> +mServicesValue</text>
</g>
<!-- Node7 -->
<g id="node7" class="node">
<title>Node7</title>
<polygon fill="none" stroke="#bfbfbf" points="704,-458 704,-526 866,-526 866,-458 704,-458"/>
<text text-anchor="start" x="712" y="-514" font-family="Helvetica,sans-Serif" font-size="10.00" fill="#000000">vector&lt; o2::framework</text>
<text text-anchor="middle" x="785" y="-503" font-family="Helvetica,sans-Serif" font-size="10.00" fill="#000000">::ServiceDispatchingHandle &gt;</text>
<polyline fill="none" stroke="#bfbfbf" points="704,-496 866,-496 "/>
<text text-anchor="middle" x="785" y="-484" font-family="Helvetica,sans-Serif" font-size="10.00" fill="#000000"> </text>
<polyline fill="none" stroke="#bfbfbf" points="704,-477 866,-477 "/>
<text text-anchor="middle" x="785" y="-465" font-family="Helvetica,sans-Serif" font-size="10.00" fill="#000000"> </text>
</g>
<!-- Node7&#45;&gt;Node2 -->
<g id="edge6" class="edge">
<title>Node7&#45;&gt;Node2</title>
<path fill="none" stroke="#404040" d="M782.0607,-457.7807C781.4996,-440.4972 782.2368,-419.3549 787,-401 787.5638,-398.8272 788.164,-396.6509 788.7978,-394.4731"/>
<polygon fill="none" stroke="#404040" points="788.8644,-394.2629 786.8659,-387.3343 792.493,-382.8247 794.4914,-389.7534 788.8644,-394.2629"/>
<text text-anchor="middle" x="857" y="-415" font-family="Helvetica,sans-Serif" font-size="10.00" fill="#000000"> +mPostDispatchingHandles</text>
</g>
<!-- Node8 -->
<g id="node8" class="node">
<title>Node8</title>
<polygon fill="none" stroke="#bfbfbf" points="884,-458 884,-526 1014,-526 1014,-458 884,-458"/>
<text text-anchor="start" x="892" y="-514" font-family="Helvetica,sans-Serif" font-size="10.00" fill="#000000">vector&lt; o2::framework</text>
<text text-anchor="middle" x="949" y="-503" font-family="Helvetica,sans-Serif" font-size="10.00" fill="#000000">::ServiceSpec &gt;</text>
<polyline fill="none" stroke="#bfbfbf" points="884,-496 1014,-496 "/>
<text text-anchor="middle" x="949" y="-484" font-family="Helvetica,sans-Serif" font-size="10.00" fill="#000000"> </text>
<polyline fill="none" stroke="#bfbfbf" points="884,-477 1014,-477 "/>
<text text-anchor="middle" x="949" y="-465" font-family="Helvetica,sans-Serif" font-size="10.00" fill="#000000"> </text>
</g>
<!-- Node8&#45;&gt;Node2 -->
<g id="edge7" class="edge">
<title>Node8&#45;&gt;Node2</title>
<path fill="none" stroke="#404040" d="M941.963,-457.9811C938.0995,-440.7488 932.897,-419.5917 927,-401 926.2783,-398.7248 925.5391,-396.4349 924.7841,-394.1339"/>
<polygon fill="none" stroke="#404040" points="924.7141,-393.9256 919.0098,-389.5141 920.8879,-382.5519 926.5922,-386.9633 924.7141,-393.9256"/>
<text text-anchor="middle" x="961" y="-415" font-family="Helvetica,sans-Serif" font-size="10.00" fill="#000000"> +mSpecs</text>
</g>
<!-- Node9 -->
<g id="node9" class="node">
<title>Node9</title>
<polygon fill="none" stroke="#bfbfbf" points="1032,-458 1032,-526 1196,-526 1196,-458 1032,-458"/>
<text text-anchor="start" x="1040" y="-514" font-family="Helvetica,sans-Serif" font-size="10.00" fill="#000000">array&lt; uint32_t, MAX</text>
<text text-anchor="middle" x="1114" y="-503" font-family="Helvetica,sans-Serif" font-size="10.00" fill="#000000">_SERVICES+MAX_DISTANCE &gt;</text>
<polyline fill="none" stroke="#bfbfbf" points="1032,-496 1196,-496 "/>
<text text-anchor="middle" x="1114" y="-484" font-family="Helvetica,sans-Serif" font-size="10.00" fill="#000000"> </text>
<polyline fill="none" stroke="#bfbfbf" points="1032,-477 1196,-477 "/>
<text text-anchor="middle" x="1114" y="-465" font-family="Helvetica,sans-Serif" font-size="10.00" fill="#000000"> </text>
</g>
<!-- Node9&#45;&gt;Node2 -->
<g id="edge8" class="edge">
<title>Node9&#45;&gt;Node2</title>
<path fill="none" stroke="#404040" d="M1079.1348,-457.77C1048.47,-427.6638 1002.3961,-382.4294 961.0136,-341.8008"/>
<polygon fill="none" stroke="#404040" points="960.8244,-341.615 953.7406,-340.2659 952.2614,-333.2081 959.3452,-334.5572 960.8244,-341.615"/>
<text text-anchor="middle" x="1094.5" y="-415" font-family="Helvetica,sans-Serif" font-size="10.00" fill="#000000"> +mServicesKey</text>
</g>
<!-- Node10 -->
<g id="node10" class="node">
<title>Node10</title>
<polygon fill="none" stroke="#bfbfbf" points="1214,-458 1214,-526 1344,-526 1344,-458 1214,-458"/>
<text text-anchor="start" x="1222" y="-514" font-family="Helvetica,sans-Serif" font-size="10.00" fill="#000000">vector&lt; o2::framework</text>
<text text-anchor="middle" x="1279" y="-503" font-family="Helvetica,sans-Serif" font-size="10.00" fill="#000000">::ServiceEOSHandle &gt;</text>
<polyline fill="none" stroke="#bfbfbf" points="1214,-496 1344,-496 "/>
<text text-anchor="middle" x="1279" y="-484" font-family="Helvetica,sans-Serif" font-size="10.00" fill="#000000"> </text>
<polyline fill="none" stroke="#bfbfbf" points="1214,-477 1344,-477 "/>
<text text-anchor="middle" x="1279" y="-465" font-family="Helvetica,sans-Serif" font-size="10.00" fill="#000000"> </text>
</g>
<!-- Node10&#45;&gt;Node2 -->
<g id="edge9" class="edge">
<title>Node10&#45;&gt;Node2</title>
<path fill="none" stroke="#404040" d="M1228.3287,-457.874C1201.9638,-440.4225 1169.0442,-419.1028 1139,-401 1081.2838,-366.2239 1015.2793,-329.3918 962.7448,-300.7525"/>
<polygon fill="none" stroke="#404040" points="962.6268,-300.6883 955.4447,-301.3344 952.0859,-294.9533 959.268,-294.3072 962.6268,-300.6883"/>
<text text-anchor="middle" x="1238.5" y="-420.5" font-family="Helvetica,sans-Serif" font-size="10.00" fill="#000000"> +mPreEOSHandles</text>
<text text-anchor="middle" x="1238.5" y="-409.5" font-family="Helvetica,sans-Serif" font-size="10.00" fill="#000000">+mPostEOSHandles</text>
</g>
<!-- Node11 -->
<g id="node11" class="node">
<title>Node11</title>
<polygon fill="none" stroke="#bfbfbf" points="1362.5,-463.5 1362.5,-520.5 1391.5,-520.5 1391.5,-463.5 1362.5,-463.5"/>
<text text-anchor="middle" x="1377" y="-508.5" font-family="Helvetica,sans-Serif" font-size="10.00" fill="#000000">int</text>
<polyline fill="none" stroke="#bfbfbf" points="1362.5,-501.5 1391.5,-501.5 "/>
<text text-anchor="middle" x="1377" y="-489.5" font-family="Helvetica,sans-Serif" font-size="10.00" fill="#000000"> </text>
<polyline fill="none" stroke="#bfbfbf" points="1362.5,-482.5 1391.5,-482.5 "/>
<text text-anchor="middle" x="1377" y="-470.5" font-family="Helvetica,sans-Serif" font-size="10.00" fill="#000000"> </text>
</g>
<!-- Node11&#45;&gt;Node2 -->
<g id="edge10" class="edge">
<title>Node11&#45;&gt;Node2</title>
<path fill="none" stroke="#404040" d="M1362.4342,-464.8976C1359.5526,-460.4089 1356.3684,-455.9393 1353,-452 1330.0342,-425.1418 1322.6779,-418.5401 1292,-401 1186.5699,-340.7204 1052.9609,-297.8873 963.9739,-273.4779"/>
<polygon fill="none" stroke="#404040" points="963.8458,-273.4432 957.0079,-275.7329 952.2643,-270.3016 959.1023,-268.0119 963.8458,-273.4432"/>
<text text-anchor="middle" x="1393.5" y="-426" font-family="Helvetica,sans-Serif" font-size="10.00" fill="#000000"> +MAX_DISTANCE</text>
<text text-anchor="middle" x="1393.5" y="-415" font-family="Helvetica,sans-Serif" font-size="10.00" fill="#000000">+MAX_SERVICES</text>
<text text-anchor="middle" x="1393.5" y="-404" font-family="Helvetica,sans-Serif" font-size="10.00" fill="#000000">+MAX_SERVICES_MASK</text>
</g>
<!-- Node12 -->
<g id="node12" class="node">
<title>Node12</title>
<polygon fill="none" stroke="#bfbfbf" points="1445,-452.5 1445,-531.5 1585,-531.5 1585,-452.5 1445,-452.5"/>
<text text-anchor="start" x="1453" y="-519.5" font-family="Helvetica,sans-Serif" font-size="10.00" fill="#000000">array&lt; std::atomic</text>
<text text-anchor="start" x="1453" y="-508.5" font-family="Helvetica,sans-Serif" font-size="10.00" fill="#000000">&lt; bool &gt;, MAX_SERVICES</text>
<text text-anchor="middle" x="1515" y="-497.5" font-family="Helvetica,sans-Serif" font-size="10.00" fill="#000000">+MAX_DISTANCE &gt;</text>
<polyline fill="none" stroke="#bfbfbf" points="1445,-490.5 1585,-490.5 "/>
<text text-anchor="middle" x="1515" y="-478.5" font-family="Helvetica,sans-Serif" font-size="10.00" fill="#000000"> </text>
<polyline fill="none" stroke="#bfbfbf" points="1445,-471.5 1585,-471.5 "/>
<text text-anchor="middle" x="1515" y="-459.5" font-family="Helvetica,sans-Serif" font-size="10.00" fill="#000000"> </text>
</g>
<!-- Node12&#45;&gt;Node2 -->
<g id="edge11" class="edge">
<title>Node12&#45;&gt;Node2</title>
<path fill="none" stroke="#404040" d="M1497.3345,-452.4899C1487.3411,-434.3227 1473.1735,-413.9749 1455,-401 1376.5055,-344.959 1109.8155,-291.6302 964.0653,-265.7674"/>
<polygon fill="none" stroke="#404040" points="963.8844,-265.7356 957.281,-268.633 952.0667,-263.6519 958.6701,-260.7545 963.8844,-265.7356"/>
<text text-anchor="middle" x="1535" y="-415" font-family="Helvetica,sans-Serif" font-size="10.00" fill="#000000"> +mServicesBooked</text>
</g>
</g>
</svg>
