<?xml version="1.0" encoding="UTF-8" standalone="no"?>
<!DOCTYPE svg PUBLIC "-//W3C//DTD SVG 1.1//EN"
 "http://www.w3.org/Graphics/SVG/1.1/DTD/svg11.dtd">
<!-- Generated by graphviz version 2.40.1 (20161225.0304)
 -->
<!-- Title: /home/travis/build/AliceO2Group/AliceO2/GPU/GPUTracking/Standalone/utils/qconfigrtc.h Pages: 1 -->
<svg width="427pt" height="397pt"
 viewBox="0.00 0.00 427.00 397.00" xmlns="http://www.w3.org/2000/svg" xmlns:xlink="http://www.w3.org/1999/xlink">
<g id="graph0" class="graph" transform="scale(1 1) rotate(0) translate(4 393)">
<title>/home/travis/build/AliceO2Group/AliceO2/GPU/GPUTracking/Standalone/utils/qconfigrtc.h</title>
<!-- Node0 -->
<g id="node1" class="node">
<title>Node0</title>
<polygon fill="#bfbfbf" stroke="#000000" points="195.5,-336.5 195.5,-388.5 358.5,-388.5 358.5,-336.5 195.5,-336.5"/>
<text text-anchor="start" x="203.5" y="-376.5" font-family="Helvetica,sans-Serif" font-size="10.00" fill="#000000">/home/travis/build</text>
<text text-anchor="start" x="203.5" y="-365.5" font-family="Helvetica,sans-Serif" font-size="10.00" fill="#000000">/AliceO2Group/AliceO2</text>
<text text-anchor="start" x="203.5" y="-354.5" font-family="Helvetica,sans-Serif" font-size="10.00" fill="#000000">/GPU/GPUTracking/Standalone</text>
<text text-anchor="middle" x="277" y="-343.5" font-family="Helvetica,sans-Serif" font-size="10.00" fill="#000000">/utils/qconfigrtc.h</text>
</g>
<!-- Node1 -->
<g id="node2" class="node">
<title>Node1</title>
<g id="a_node2"><a xlink:href="../../da/d08/qconfig_8h.html" target="_top" xlink:title="qconfig.h">
<polygon fill="none" stroke="#000000" points="196.5,-280.5 196.5,-299.5 257.5,-299.5 257.5,-280.5 196.5,-280.5"/>
<text text-anchor="middle" x="227" y="-287.5" font-family="Helvetica,sans-Serif" font-size="10.00" fill="#000000">qconfig.h</text>
</a>
</g>
</g>
<!-- Node0&#45;&gt;Node1 -->
<g id="edge1" class="edge">
<title>Node0&#45;&gt;Node1</title>
<path fill="none" stroke="#191970" d="M258.9489,-336.3258C252.4575,-326.9134 245.2872,-316.5164 239.3869,-307.961"/>
<polygon fill="#191970" stroke="#191970" points="242.1338,-305.7791 233.5752,-299.534 236.3713,-309.7532 242.1338,-305.7791"/>
</g>
<!-- Node11 -->
<g id="node12" class="node">
<title>Node11</title>
<g id="a_node12"><a xlink:href="../../dd/d03/qconfig__helpers_8h.html" target="_top" xlink:title="qconfig_helpers.h">
<polygon fill="none" stroke="#000000" points="284,-280.5 284,-299.5 386,-299.5 386,-280.5 284,-280.5"/>
<text text-anchor="middle" x="335" y="-287.5" font-family="Helvetica,sans-Serif" font-size="10.00" fill="#000000">qconfig_helpers.h</text>
</a>
</g>
</g>
<!-- Node0&#45;&gt;Node11 -->
<g id="edge13" class="edge">
<title>Node0&#45;&gt;Node11</title>
<path fill="none" stroke="#191970" d="M297.9393,-336.3258C305.6295,-326.7131 314.1412,-316.0735 321.0661,-307.4174"/>
<polygon fill="#191970" stroke="#191970" points="323.8589,-309.5292 327.3728,-299.534 318.3928,-305.1563 323.8589,-309.5292"/>
</g>
<!-- Node2 -->
<g id="node3" class="node">
<title>Node2</title>
<g id="a_node3"><a xlink:href="../../d8/de9/qconfigoptions_8h.html" target="_top" xlink:title="qconfigoptions.h">
<polygon fill="none" stroke="#000000" points="178.5,-224.5 178.5,-243.5 275.5,-243.5 275.5,-224.5 178.5,-224.5"/>
<text text-anchor="middle" x="227" y="-231.5" font-family="Helvetica,sans-Serif" font-size="10.00" fill="#000000">qconfigoptions.h</text>
</a>
</g>
</g>
<!-- Node1&#45;&gt;Node2 -->
<g id="edge2" class="edge">
<title>Node1&#45;&gt;Node2</title>
<path fill="none" stroke="#191970" d="M227,-280.2455C227,-272.9382 227,-262.6944 227,-253.7046"/>
<polygon fill="#191970" stroke="#191970" points="230.5001,-253.6426 227,-243.6427 223.5001,-253.6427 230.5001,-253.6426"/>
</g>
<!-- Node3 -->
<g id="node4" class="node">
<title>Node3</title>
<g id="a_node4"><a xlink:href="../../dd/dc6/GPUSettings_8h.html" target="_top" xlink:title="GPUSettings.h">
<polygon fill="none" stroke="#000000" points="85,-168.5 85,-187.5 171,-187.5 171,-168.5 85,-168.5"/>
<text text-anchor="middle" x="128" y="-175.5" font-family="Helvetica,sans-Serif" font-size="10.00" fill="#000000">GPUSettings.h</text>
</a>
</g>
</g>
<!-- Node2&#45;&gt;Node3 -->
<g id="edge3" class="edge">
<title>Node2&#45;&gt;Node3</title>
<path fill="none" stroke="#191970" d="M209.7555,-224.2455C194.4239,-215.5731 171.7801,-202.7645 154.2084,-192.825"/>
<polygon fill="#191970" stroke="#191970" points="155.4741,-189.5198 145.0469,-187.6427 152.0276,-195.6126 155.4741,-189.5198"/>
</g>
<!-- Node9 -->
<g id="node10" class="node">
<title>Node9</title>
<g id="a_node10"><a xlink:href="../../d4/d57/GPUSettingsList_8h.html" target="_top" xlink:title="GPUSettingsList.h">
<polygon fill="none" stroke="#000000" points="189,-168.5 189,-187.5 293,-187.5 293,-168.5 189,-168.5"/>
<text text-anchor="middle" x="241" y="-175.5" font-family="Helvetica,sans-Serif" font-size="10.00" fill="#000000">GPUSettingsList.h</text>
</a>
</g>
</g>
<!-- Node2&#45;&gt;Node9 -->
<g id="edge10" class="edge">
<title>Node2&#45;&gt;Node9</title>
<path fill="none" stroke="#191970" d="M229.4386,-224.2455C231.2855,-216.8579 233.8828,-206.4689 236.1478,-197.4087"/>
<polygon fill="#191970" stroke="#191970" points="239.5594,-198.193 238.5893,-187.6427 232.7684,-196.4952 239.5594,-198.193"/>
</g>
<!-- Node3&#45;&gt;Node1 -->
<g id="edge9" class="edge">
<title>Node3&#45;&gt;Node1</title>
<path fill="none" stroke="#191970" d="M132.8349,-187.627C139.8786,-201.1066 153.8915,-225.9732 170,-244 180.0287,-255.223 192.9684,-265.9013 203.9835,-274.1394"/>
<polygon fill="#191970" stroke="#191970" points="202.1641,-277.1437 212.3125,-280.1869 206.2769,-271.4793 202.1641,-277.1437"/>
</g>
<!-- Node4 -->
<g id="node5" class="node">
<title>Node4</title>
<g id="a_node5"><a xlink:href="../../df/d21/GPUCommonDef_8h.html" target="_top" xlink:title="GPUCommonDef.h">
<polygon fill="none" stroke="#000000" points="97.5,-56.5 97.5,-75.5 204.5,-75.5 204.5,-56.5 97.5,-56.5"/>
<text text-anchor="middle" x="151" y="-63.5" font-family="Helvetica,sans-Serif" font-size="10.00" fill="#000000">GPUCommonDef.h</text>
</a>
</g>
</g>
<!-- Node3&#45;&gt;Node4 -->
<g id="edge4" class="edge">
<title>Node3&#45;&gt;Node4</title>
<path fill="none" stroke="#191970" d="M112.7385,-168.4396C94.972,-156.0291 69.4461,-133.4179 81,-112 88.573,-97.9617 102.5073,-87.5084 115.9614,-80.1453"/>
<polygon fill="#191970" stroke="#191970" points="117.758,-83.1593 125.115,-75.5353 114.6094,-76.9074 117.758,-83.1593"/>
</g>
<!-- Node7 -->
<g id="node8" class="node">
<title>Node7</title>
<polygon fill="none" stroke="#bfbfbf" points="90.5,-112.5 90.5,-131.5 137.5,-131.5 137.5,-112.5 90.5,-112.5"/>
<text text-anchor="middle" x="114" y="-119.5" font-family="Helvetica,sans-Serif" font-size="10.00" fill="#000000">vector</text>
</g>
<!-- Node3&#45;&gt;Node7 -->
<g id="edge7" class="edge">
<title>Node3&#45;&gt;Node7</title>
<path fill="none" stroke="#191970" d="M125.5614,-168.2455C123.7145,-160.8579 121.1172,-150.4689 118.8522,-141.4087"/>
<polygon fill="#191970" stroke="#191970" points="122.2316,-140.4952 116.4107,-131.6427 115.4406,-142.193 122.2316,-140.4952"/>
</g>
<!-- Node8 -->
<g id="node9" class="node">
<title>Node8</title>
<polygon fill="none" stroke="#bfbfbf" points="345,-112.5 345,-131.5 389,-131.5 389,-112.5 345,-112.5"/>
<text text-anchor="middle" x="367" y="-119.5" font-family="Helvetica,sans-Serif" font-size="10.00" fill="#000000">string</text>
</g>
<!-- Node3&#45;&gt;Node8 -->
<g id="edge8" class="edge">
<title>Node3&#45;&gt;Node8</title>
<path fill="none" stroke="#191970" d="M171.3129,-169.6625C211.4429,-161.6612 272.96,-148.6971 334.7997,-132.1498"/>
<polygon fill="#191970" stroke="#191970" points="335.986,-135.4547 344.7242,-129.4634 334.157,-128.6978 335.986,-135.4547"/>
</g>
<!-- Node5 -->
<g id="node6" class="node">
<title>Node5</title>
<g id="a_node6"><a xlink:href="../../d5/d93/GPUCommonDefSettings_8h.html" target="_top" xlink:title="GPUCommonDefSettings.h">
<polygon fill="none" stroke="#000000" points="0,-.5 0,-19.5 148,-19.5 148,-.5 0,-.5"/>
<text text-anchor="middle" x="74" y="-7.5" font-family="Helvetica,sans-Serif" font-size="10.00" fill="#000000">GPUCommonDefSettings.h</text>
</a>
</g>
</g>
<!-- Node4&#45;&gt;Node5 -->
<g id="edge5" class="edge">
<title>Node4&#45;&gt;Node5</title>
<path fill="none" stroke="#191970" d="M137.5876,-56.2455C125.9943,-47.814 109.0252,-35.4729 95.5322,-25.6598"/>
<polygon fill="#191970" stroke="#191970" points="97.4047,-22.6938 87.2587,-19.6427 93.2874,-28.355 97.4047,-22.6938"/>
</g>
<!-- Node6 -->
<g id="node7" class="node">
<title>Node6</title>
<g id="a_node7"><a xlink:href="../../da/d5a/GPUCommonDefAPI_8h.html" target="_top" xlink:title="GPUCommonDefAPI.h">
<polygon fill="none" stroke="#000000" points="166,-.5 166,-19.5 290,-19.5 290,-.5 166,-.5"/>
<text text-anchor="middle" x="228" y="-7.5" font-family="Helvetica,sans-Serif" font-size="10.00" fill="#000000">GPUCommonDefAPI.h</text>
</a>
</g>
</g>
<!-- Node4&#45;&gt;Node6 -->
<g id="edge6" class="edge">
<title>Node4&#45;&gt;Node6</title>
<path fill="none" stroke="#191970" d="M164.4124,-56.2455C176.0057,-47.814 192.9748,-35.4729 206.4678,-25.6598"/>
<polygon fill="#191970" stroke="#191970" points="208.7126,-28.355 214.7413,-19.6427 204.5953,-22.6938 208.7126,-28.355"/>
</g>
<!-- Node10 -->
<g id="node11" class="node">
<title>Node10</title>
<g id="a_node11"><a xlink:href="../../d2/d37/GPUDefConstantsAndSettings_8h.html" target="_top" xlink:title="GPUDefConstantsAndSettings.h">
<polygon fill="none" stroke="#000000" points="155.5,-112.5 155.5,-131.5 326.5,-131.5 326.5,-112.5 155.5,-112.5"/>
<text text-anchor="middle" x="241" y="-119.5" font-family="Helvetica,sans-Serif" font-size="10.00" fill="#000000">GPUDefConstantsAndSettings.h</text>
</a>
</g>
</g>
<!-- Node9&#45;&gt;Node10 -->
<g id="edge11" class="edge">
<title>Node9&#45;&gt;Node10</title>
<path fill="none" stroke="#191970" d="M241,-168.2455C241,-160.9382 241,-150.6944 241,-141.7046"/>
<polygon fill="#191970" stroke="#191970" points="244.5001,-141.6426 241,-131.6427 237.5001,-141.6427 244.5001,-141.6426"/>
</g>
<!-- Node10&#45;&gt;Node4 -->
<g id="edge12" class="edge">
<title>Node10&#45;&gt;Node4</title>
<path fill="none" stroke="#191970" d="M225.3232,-112.2455C211.5144,-103.6534 191.1807,-91.0014 175.2708,-81.1018"/>
<polygon fill="#191970" stroke="#191970" points="176.8368,-77.954 166.4972,-75.6427 173.1387,-83.8974 176.8368,-77.954"/>
</g>
<!-- Node11&#45;&gt;Node8 -->
<g id="edge14" class="edge">
<title>Node11&#45;&gt;Node8</title>
<path fill="none" stroke="#191970" d="M336.8121,-280.4862C341.8925,-253.8144 356.3501,-177.9117 363.2486,-141.695"/>
<polygon fill="#191970" stroke="#191970" points="366.695,-142.3062 365.128,-131.8279 359.8186,-140.9963 366.695,-142.3062"/>
</g>
<!-- Node12 -->
<g id="node13" class="node">
<title>Node12</title>
<polygon fill="none" stroke="#bfbfbf" points="363,-224.5 363,-243.5 419,-243.5 419,-224.5 363,-224.5"/>
<text text-anchor="middle" x="391" y="-231.5" font-family="Helvetica,sans-Serif" font-size="10.00" fill="#000000">sstream</text>
</g>
<!-- Node11&#45;&gt;Node12 -->
<g id="edge15" class="edge">
<title>Node11&#45;&gt;Node12</title>
<path fill="none" stroke="#191970" d="M344.7545,-280.2455C352.8648,-272.1352 364.5925,-260.4075 374.2081,-250.7919"/>
<polygon fill="#191970" stroke="#191970" points="376.7611,-253.1887 381.3573,-243.6427 371.8113,-248.2389 376.7611,-253.1887"/>
</g>
</g>
</svg>
