<?xml version="1.0" encoding="UTF-8" standalone="no"?>
<!DOCTYPE svg PUBLIC "-//W3C//DTD SVG 1.1//EN"
 "http://www.w3.org/Graphics/SVG/1.1/DTD/svg11.dtd">
<!-- Generated by graphviz version 2.40.1 (20161225.0304)
 -->
<!-- Title: /home/travis/build/AliceO2Group/AliceO2/Utilities/DataSampling/include/DataSampling/DataSamplingConditionFactory.h Pages: 1 -->
<svg width="1733pt" height="172pt"
 viewBox="0.00 0.00 1733.00 172.00" xmlns="http://www.w3.org/2000/svg" xmlns:xlink="http://www.w3.org/1999/xlink">
<g id="graph0" class="graph" transform="scale(1 1) rotate(0) translate(4 168)">
<title>/home/travis/build/AliceO2Group/AliceO2/Utilities/DataSampling/include/DataSampling/DataSamplingConditionFactory.h</title>
<!-- Node6 -->
<g id="node1" class="node">
<title>Node6</title>
<polygon fill="#bfbfbf" stroke="#000000" points="816.5,-100.5 816.5,-163.5 1015.5,-163.5 1015.5,-100.5 816.5,-100.5"/>
<text text-anchor="start" x="824.5" y="-151.5" font-family="Helvetica,sans-Serif" font-size="10.00" fill="#000000">/home/travis/build</text>
<text text-anchor="start" x="824.5" y="-140.5" font-family="Helvetica,sans-Serif" font-size="10.00" fill="#000000">/AliceO2Group/AliceO2</text>
<text text-anchor="start" x="824.5" y="-129.5" font-family="Helvetica,sans-Serif" font-size="10.00" fill="#000000">/Utilities/DataSampling</text>
<text text-anchor="start" x="824.5" y="-118.5" font-family="Helvetica,sans-Serif" font-size="10.00" fill="#000000">/include/DataSampling/DataSampling</text>
<text text-anchor="middle" x="916" y="-107.5" font-family="Helvetica,sans-Serif" font-size="10.00" fill="#000000">ConditionFactory.h</text>
</g>
<!-- Node7 -->
<g id="node2" class="node">
<title>Node7</title>
<g id="a_node2"><a xlink:href="../../d0/d38/DataSamplingConditionCustom_8cxx.html" target="_top" xlink:title="Implementation of DataSamplingConditionCustom. ">
<polygon fill="none" stroke="#000000" points="0,-6 0,-58 210,-58 210,-6 0,-6"/>
<text text-anchor="start" x="8" y="-46" font-family="Helvetica,sans-Serif" font-size="10.00" fill="#000000">/home/travis/build</text>
<text text-anchor="start" x="8" y="-35" font-family="Helvetica,sans-Serif" font-size="10.00" fill="#000000">/AliceO2Group/AliceO2</text>
<text text-anchor="start" x="8" y="-24" font-family="Helvetica,sans-Serif" font-size="10.00" fill="#000000">/Utilities/DataSampling</text>
<text text-anchor="middle" x="105" y="-13" font-family="Helvetica,sans-Serif" font-size="10.00" fill="#000000">/src/DataSamplingConditionCustom.cxx</text>
</a>
</g>
</g>
<!-- Node6&#45;&gt;Node7 -->
<g id="edge1" class="edge">
<title>Node6&#45;&gt;Node7</title>
<path fill="none" stroke="#191970" d="M806.0833,-127.2735C668.0225,-119.9663 424.3251,-102.5215 219,-64 210.1102,-62.3322 200.9086,-60.2923 191.765,-58.0577"/>
<polygon fill="#191970" stroke="#191970" points="806.0788,-130.7779 816.2475,-127.8032 806.4432,-123.7874 806.0788,-130.7779"/>
</g>
<!-- Node8 -->
<g id="node3" class="node">
<title>Node8</title>
<g id="a_node3"><a xlink:href="../../de/d2b/DataSamplingConditionFactory_8cxx.html" target="_top" xlink:title="Implementation of DataSamplingConditionFactory. ">
<polygon fill="none" stroke="#000000" points="228,-6 228,-58 434,-58 434,-6 228,-6"/>
<text text-anchor="start" x="236" y="-46" font-family="Helvetica,sans-Serif" font-size="10.00" fill="#000000">/home/travis/build</text>
<text text-anchor="start" x="236" y="-35" font-family="Helvetica,sans-Serif" font-size="10.00" fill="#000000">/AliceO2Group/AliceO2</text>
<text text-anchor="start" x="236" y="-24" font-family="Helvetica,sans-Serif" font-size="10.00" fill="#000000">/Utilities/DataSampling</text>
<text text-anchor="middle" x="331" y="-13" font-family="Helvetica,sans-Serif" font-size="10.00" fill="#000000">/src/DataSamplingConditionFactory.cxx</text>
</a>
</g>
</g>
<!-- Node6&#45;&gt;Node8 -->
<g id="edge2" class="edge">
<title>Node6&#45;&gt;Node8</title>
<path fill="none" stroke="#191970" d="M806.0557,-120.4715C709.7112,-109.3542 566.2169,-90.3326 443,-64 434.793,-62.2461 426.3035,-60.2199 417.8389,-58.0557"/>
<polygon fill="#191970" stroke="#191970" points="805.771,-123.9617 816.1043,-121.6221 806.5674,-117.0071 805.771,-123.9617"/>
</g>
<!-- Node9 -->
<g id="node4" class="node">
<title>Node9</title>
<g id="a_node4"><a xlink:href="../../d0/dd6/DataSamplingConditionNConsecutive_8cxx.html" target="_top" xlink:title="Implementation of DataSamplingConditionNConsecutive. ">
<polygon fill="none" stroke="#000000" points="452,-6 452,-58 692,-58 692,-6 452,-6"/>
<text text-anchor="start" x="460" y="-46" font-family="Helvetica,sans-Serif" font-size="10.00" fill="#000000">/home/travis/build</text>
<text text-anchor="start" x="460" y="-35" font-family="Helvetica,sans-Serif" font-size="10.00" fill="#000000">/AliceO2Group/AliceO2</text>
<text text-anchor="start" x="460" y="-24" font-family="Helvetica,sans-Serif" font-size="10.00" fill="#000000">/Utilities/DataSampling</text>
<text text-anchor="middle" x="572" y="-13" font-family="Helvetica,sans-Serif" font-size="10.00" fill="#000000">/src/DataSamplingConditionNConsecutive.cxx</text>
</a>
</g>
</g>
<!-- Node6&#45;&gt;Node9 -->
<g id="edge3" class="edge">
<title>Node6&#45;&gt;Node9</title>
<path fill="none" stroke="#191970" d="M806.1981,-100.0808C759.5518,-86.5209 705.8524,-70.9106 661.6504,-58.0612"/>
<polygon fill="#191970" stroke="#191970" points="805.4593,-103.5109 816.0389,-102.9415 807.4134,-96.7892 805.4593,-103.5109"/>
</g>
<!-- Node10 -->
<g id="node5" class="node">
<title>Node10</title>
<g id="a_node5"><a xlink:href="../../d0/dab/DataSamplingConditionPayloadSize_8cxx.html" target="_top" xlink:title="Implementation of DataSamplingConditionPayloadSize. ">
<polygon fill="none" stroke="#000000" points="710.5,-.5 710.5,-63.5 901.5,-63.5 901.5,-.5 710.5,-.5"/>
<text text-anchor="start" x="718.5" y="-51.5" font-family="Helvetica,sans-Serif" font-size="10.00" fill="#000000">/home/travis/build</text>
<text text-anchor="start" x="718.5" y="-40.5" font-family="Helvetica,sans-Serif" font-size="10.00" fill="#000000">/AliceO2Group/AliceO2</text>
<text text-anchor="start" x="718.5" y="-29.5" font-family="Helvetica,sans-Serif" font-size="10.00" fill="#000000">/Utilities/DataSampling</text>
<text text-anchor="start" x="718.5" y="-18.5" font-family="Helvetica,sans-Serif" font-size="10.00" fill="#000000">/src/DataSamplingConditionPayload</text>
<text text-anchor="middle" x="806" y="-7.5" font-family="Helvetica,sans-Serif" font-size="10.00" fill="#000000">Size.cxx</text>
</a>
</g>
</g>
<!-- Node6&#45;&gt;Node10 -->
<g id="edge4" class="edge">
<title>Node6&#45;&gt;Node10</title>
<path fill="none" stroke="#191970" d="M873.5019,-93.3653C862.7377,-83.5797 851.299,-73.1809 840.9558,-63.778"/>
<polygon fill="#191970" stroke="#191970" points="871.4415,-96.2224 881.1953,-100.3594 876.1503,-91.0428 871.4415,-96.2224"/>
</g>
<!-- Node11 -->
<g id="node6" class="node">
<title>Node11</title>
<g id="a_node6"><a xlink:href="../../d4/dba/DataSamplingConditionRandom_8cxx.html" target="_top" xlink:title="Implementation of random DataSamplingCondition. ">
<polygon fill="none" stroke="#000000" points="919.5,-6 919.5,-58 1132.5,-58 1132.5,-6 919.5,-6"/>
<text text-anchor="start" x="927.5" y="-46" font-family="Helvetica,sans-Serif" font-size="10.00" fill="#000000">/home/travis/build</text>
<text text-anchor="start" x="927.5" y="-35" font-family="Helvetica,sans-Serif" font-size="10.00" fill="#000000">/AliceO2Group/AliceO2</text>
<text text-anchor="start" x="927.5" y="-24" font-family="Helvetica,sans-Serif" font-size="10.00" fill="#000000">/Utilities/DataSampling</text>
<text text-anchor="middle" x="1026" y="-13" font-family="Helvetica,sans-Serif" font-size="10.00" fill="#000000">/src/DataSamplingConditionRandom.cxx</text>
</a>
</g>
</g>
<!-- Node6&#45;&gt;Node11 -->
<g id="edge5" class="edge">
<title>Node6&#45;&gt;Node11</title>
<path fill="none" stroke="#191970" d="M958.3414,-93.5078C971.3793,-81.6552 985.4207,-68.8902 997.3142,-58.078"/>
<polygon fill="#191970" stroke="#191970" points="955.8497,-91.0428 950.8047,-100.3594 960.5585,-96.2224 955.8497,-91.0428"/>
</g>
<!-- Node12 -->
<g id="node7" class="node">
<title>Node12</title>
<g id="a_node7"><a xlink:href="../../de/d3b/DataSamplingPolicy_8cxx.html" target="_top" xlink:title="Implementation of O2 Data Sampling Policy. ">
<polygon fill="none" stroke="#000000" points="1151,-6 1151,-58 1305,-58 1305,-6 1151,-6"/>
<text text-anchor="start" x="1159" y="-46" font-family="Helvetica,sans-Serif" font-size="10.00" fill="#000000">/home/travis/build</text>
<text text-anchor="start" x="1159" y="-35" font-family="Helvetica,sans-Serif" font-size="10.00" fill="#000000">/AliceO2Group/AliceO2</text>
<text text-anchor="start" x="1159" y="-24" font-family="Helvetica,sans-Serif" font-size="10.00" fill="#000000">/Utilities/DataSampling</text>
<text text-anchor="middle" x="1228" y="-13" font-family="Helvetica,sans-Serif" font-size="10.00" fill="#000000">/src/DataSamplingPolicy.cxx</text>
</a>
</g>
</g>
<!-- Node6&#45;&gt;Node12 -->
<g id="edge6" class="edge">
<title>Node6&#45;&gt;Node12</title>
<path fill="none" stroke="#191970" d="M1025.5634,-100.5693C1062.6912,-89.5116 1104.2973,-76.6721 1142,-64 1147.5872,-62.1221 1153.3558,-60.1186 1159.1367,-58.065"/>
<polygon fill="#191970" stroke="#191970" points="1024.3142,-97.2891 1015.7233,-103.4897 1026.3058,-103.9998 1024.3142,-97.2891"/>
</g>
<!-- Node13 -->
<g id="node8" class="node">
<title>Node13</title>
<g id="a_node8"><a xlink:href="../../dd/d70/test__DataSamplingCondition_8cxx.html" target="_top" xlink:title="/home/travis/build\l/AliceO2Group/AliceO2\l/Utilities/DataSampling\l/test/test_DataSamplingCondition.cxx">
<polygon fill="none" stroke="#000000" points="1323.5,-6 1323.5,-58 1524.5,-58 1524.5,-6 1323.5,-6"/>
<text text-anchor="start" x="1331.5" y="-46" font-family="Helvetica,sans-Serif" font-size="10.00" fill="#000000">/home/travis/build</text>
<text text-anchor="start" x="1331.5" y="-35" font-family="Helvetica,sans-Serif" font-size="10.00" fill="#000000">/AliceO2Group/AliceO2</text>
<text text-anchor="start" x="1331.5" y="-24" font-family="Helvetica,sans-Serif" font-size="10.00" fill="#000000">/Utilities/DataSampling</text>
<text text-anchor="middle" x="1424" y="-13" font-family="Helvetica,sans-Serif" font-size="10.00" fill="#000000">/test/test_DataSamplingCondition.cxx</text>
</a>
</g>
</g>
<!-- Node6&#45;&gt;Node13 -->
<g id="edge7" class="edge">
<title>Node6&#45;&gt;Node13</title>
<path fill="none" stroke="#191970" d="M1025.7075,-116.6944C1106.0148,-104.658 1217.3705,-86.2339 1314,-64 1321.8499,-62.1938 1329.9691,-60.1582 1338.076,-58.0109"/>
<polygon fill="#191970" stroke="#191970" points="1024.9524,-113.2682 1015.5773,-118.2035 1025.9839,-120.1918 1024.9524,-113.2682"/>
</g>
<!-- Node14 -->
<g id="node9" class="node">
<title>Node14</title>
<g id="a_node9"><a xlink:href="../../d3/ddc/test__DataSamplingPolicy_8cxx.html" target="_top" xlink:title="/home/travis/build\l/AliceO2Group/AliceO2\l/Utilities/DataSampling\l/test/test_DataSamplingPolicy.cxx">
<polygon fill="none" stroke="#000000" points="1543,-6 1543,-58 1725,-58 1725,-6 1543,-6"/>
<text text-anchor="start" x="1551" y="-46" font-family="Helvetica,sans-Serif" font-size="10.00" fill="#000000">/home/travis/build</text>
<text text-anchor="start" x="1551" y="-35" font-family="Helvetica,sans-Serif" font-size="10.00" fill="#000000">/AliceO2Group/AliceO2</text>
<text text-anchor="start" x="1551" y="-24" font-family="Helvetica,sans-Serif" font-size="10.00" fill="#000000">/Utilities/DataSampling</text>
<text text-anchor="middle" x="1634" y="-13" font-family="Helvetica,sans-Serif" font-size="10.00" fill="#000000">/test/test_DataSamplingPolicy.cxx</text>
</a>
</g>
</g>
<!-- Node6&#45;&gt;Node14 -->
<g id="edge8" class="edge">
<title>Node6&#45;&gt;Node14</title>
<path fill="none" stroke="#191970" d="M1026.0026,-126.5507C1150.4146,-118.8542 1358.5302,-101.3354 1534,-64 1541.8449,-62.3308 1549.9471,-60.2901 1557.9866,-58.0549"/>
<polygon fill="#191970" stroke="#191970" points="1025.4801,-123.0759 1015.7111,-127.1767 1025.9052,-130.063 1025.4801,-123.0759"/>
</g>
</g>
</svg>
