<?xml version="1.0" encoding="UTF-8" standalone="no"?>
<!DOCTYPE svg PUBLIC "-//W3C//DTD SVG 1.1//EN"
 "http://www.w3.org/Graphics/SVG/1.1/DTD/svg11.dtd">
<!-- Generated by graphviz version 2.40.1 (20161225.0304)
 -->
<!-- Title: /home/travis/build/AliceO2Group/AliceO2/Detectors/TPC/simulation/include/TPCSimulation/PadResponse.h Pages: 1 -->
<!--zoomable 632 -->
<svg id="main" version="1.1" xmlns="http://www.w3.org/2000/svg" xmlns:xlink="http://www.w3.org/1999/xlink" xml:space="preserve" onload="init(evt)">
<style type="text/css"><![CDATA[
.edge:hover path { stroke: red; }
.edge:hover polygon { stroke: red; fill: red; }
]]></style>
<script type="text/javascript"><![CDATA[
var edges = document.getElementsByTagName('g');
if (edges && edges.length) {
  for (var i=0;i<edges.length;i++) {
    if (edges[i].id.substr(0,4)=='edge') {
      edges[i].setAttribute('class','edge');
    }
  }
}
]]></script>
        <defs>
                <circle id="rim" cx="0" cy="0" r="7"/>
                <circle id="rim2" cx="0" cy="0" r="3.5"/>
                <g id="zoomPlus">
                        <use xlink:href="#rim" fill="#404040">
                                <set attributeName="fill" to="#808080" begin="zoomplus.mouseover" end="zoomplus.mouseout"/>
                        </use>
                        <path d="M-4,0h8M0,-4v8" fill="none" stroke="white" stroke-width="1.5" pointer-events="none"/>
                </g>
                <g id="zoomMin">
                        <use xlink:href="#rim" fill="#404040">
                                <set attributeName="fill" to="#808080" begin="zoomminus.mouseover" end="zoomminus.mouseout"/>
                        </use>
                        <path d="M-4,0h8" fill="none" stroke="white" stroke-width="1.5" pointer-events="none"/>
                </g>
                <g id="dirArrow">
                        <path fill="none" stroke="white" stroke-width="1.5" d="M0,-3.0v7 M-2.5,-0.5L0,-3.0L2.5,-0.5"/>
                </g>
               <g id="resetDef">
                       <use xlink:href="#rim2" fill="#404040">
                               <set attributeName="fill" to="#808080" begin="reset.mouseover" end="reset.mouseout"/>
                       </use>
               </g>
        </defs>

<script type="text/javascript">
var viewWidth = 1833;
var viewHeight = 632;
var sectionId = 'dynsection-0';
</script>
<script xlink:href="../../svgpan.js"/>
<svg id="graph" class="graph">
<g id="viewport">
<title>/home/travis/build/AliceO2Group/AliceO2/Detectors/TPC/simulation/include/TPCSimulation/PadResponse.h</title>
<!-- Node0 -->
<g id="node1" class="node">
<title>Node0</title>
<polygon fill="#bfbfbf" stroke="#000000" points="727.5,-571.5 727.5,-623.5 932.5,-623.5 932.5,-571.5 727.5,-571.5"/>
<text text-anchor="start" x="735.5" y="-611.5" font-family="Helvetica,sans-Serif" font-size="10.00" fill="#000000">/home/travis/build</text>
<text text-anchor="start" x="735.5" y="-600.5" font-family="Helvetica,sans-Serif" font-size="10.00" fill="#000000">/AliceO2Group/AliceO2</text>
<text text-anchor="start" x="735.5" y="-589.5" font-family="Helvetica,sans-Serif" font-size="10.00" fill="#000000">/Detectors/TPC/simulation</text>
<text text-anchor="middle" x="830" y="-578.5" font-family="Helvetica,sans-Serif" font-size="10.00" fill="#000000">/include/TPCSimulation/PadResponse.h</text>
</g>
<!-- Node1 -->
<g id="node2" class="node">
<title>Node1</title>
<polygon fill="none" stroke="#bfbfbf" points="739,-515.5 739,-534.5 813,-534.5 813,-515.5 739,-515.5"/>
<text text-anchor="middle" x="776" y="-522.5" font-family="Helvetica,sans-Serif" font-size="10.00" fill="#000000">TGraph2D.h</text>
</g>
<!-- Node0&#45;&gt;Node1 -->
<g id="edge1" class="edge">
<title>Node0&#45;&gt;Node1</title>
<path fill="none" stroke="#191970" d="M810.5048,-571.3258C803.4195,-561.8132 795.5853,-551.2951 789.1749,-542.6886"/>
<polygon fill="#191970" stroke="#191970" points="791.8816,-540.4632 783.1012,-534.534 786.2677,-544.6446 791.8816,-540.4632"/>
</g>
<!-- Node2 -->
<g id="node3" class="node">
<title>Node2</title>
<g id="a_node3"><a xlink:href="../../d5/d1d/TPC_2base_2include_2TPCBase_2Mapper_8h.html" target="_top" xlink:title="TPCBase/Mapper.h">
<polygon fill="none" stroke="#000000" points="831.5,-515.5 831.5,-534.5 938.5,-534.5 938.5,-515.5 831.5,-515.5"/>
<text text-anchor="middle" x="885" y="-522.5" font-family="Helvetica,sans-Serif" font-size="10.00" fill="#000000">TPCBase/Mapper.h</text>
</a>
</g>
</g>
<!-- Node0&#45;&gt;Node2 -->
<g id="edge2" class="edge">
<title>Node0&#45;&gt;Node2</title>
<path fill="none" stroke="#191970" d="M849.8563,-571.3258C857.0727,-561.8132 865.052,-551.2951 871.5811,-542.6886"/>
<polygon fill="#191970" stroke="#191970" points="874.5118,-544.6163 877.7673,-534.534 868.935,-540.3856 874.5118,-544.6163"/>
</g>
<!-- Node3 -->
<g id="node4" class="node">
<title>Node3</title>
<polygon fill="none" stroke="#bfbfbf" points="361,-459.5 361,-478.5 399,-478.5 399,-459.5 361,-459.5"/>
<text text-anchor="middle" x="380" y="-466.5" font-family="Helvetica,sans-Serif" font-size="10.00" fill="#000000">map</text>
</g>
<!-- Node2&#45;&gt;Node3 -->
<g id="edge3" class="edge">
<title>Node2&#45;&gt;Node3</title>
<path fill="none" stroke="#191970" d="M831.4196,-516.2351C828.2356,-515.7951 825.0776,-515.3792 822,-515 640.8892,-492.683 592.1617,-513.6448 413,-479 411.7106,-478.7507 410.3999,-478.4706 409.0809,-478.167"/>
<polygon fill="#191970" stroke="#191970" points="409.5905,-474.681 399.027,-475.4949 407.7924,-481.4461 409.5905,-474.681"/>
</g>
<!-- Node4 -->
<g id="node5" class="node">
<title>Node4</title>
<polygon fill="none" stroke="#bfbfbf" points="493.5,-403.5 493.5,-422.5 540.5,-422.5 540.5,-403.5 493.5,-403.5"/>
<text text-anchor="middle" x="517" y="-410.5" font-family="Helvetica,sans-Serif" font-size="10.00" fill="#000000">vector</text>
</g>
<!-- Node2&#45;&gt;Node4 -->
<g id="edge4" class="edge">
<title>Node2&#45;&gt;Node4</title>
<path fill="none" stroke="#191970" d="M831.4023,-516.3658C828.2226,-515.8929 825.0703,-515.4341 822,-515 757.7005,-505.9085 580.1558,-522.5672 532,-479 519.3625,-467.5667 516.2297,-447.905 515.8883,-433.0077"/>
<polygon fill="#191970" stroke="#191970" points="519.3919,-432.8168 516.0601,-422.7595 512.3928,-432.6994 519.3919,-432.8168"/>
</g>
<!-- Node5 -->
<g id="node6" class="node">
<title>Node5</title>
<polygon fill="none" stroke="#bfbfbf" points="1261,-459.5 1261,-478.5 1303,-478.5 1303,-459.5 1261,-459.5"/>
<text text-anchor="middle" x="1282" y="-466.5" font-family="Helvetica,sans-Serif" font-size="10.00" fill="#000000">array</text>
</g>
<!-- Node2&#45;&gt;Node5 -->
<g id="edge5" class="edge">
<title>Node2&#45;&gt;Node5</title>
<path fill="none" stroke="#191970" d="M938.7801,-520.7372C1009.8492,-514.5193 1138.7052,-501.2172 1247,-479 1248.2536,-478.7428 1249.5279,-478.4638 1250.8117,-478.1679"/>
<polygon fill="#191970" stroke="#191970" points="1251.8327,-481.5196 1260.6562,-475.6547 1250.1012,-474.7371 1251.8327,-481.5196"/>
</g>
<!-- Node6 -->
<g id="node7" class="node">
<title>Node6</title>
<polygon fill="none" stroke="#bfbfbf" points="1321,-459.5 1321,-478.5 1365,-478.5 1365,-459.5 1321,-459.5"/>
<text text-anchor="middle" x="1343" y="-466.5" font-family="Helvetica,sans-Serif" font-size="10.00" fill="#000000">string</text>
</g>
<!-- Node2&#45;&gt;Node6 -->
<g id="edge6" class="edge">
<title>Node2&#45;&gt;Node6</title>
<path fill="none" stroke="#191970" d="M938.8104,-522.7368C1018.4142,-518.6158 1172.211,-507.6959 1310.8428,-478.8703"/>
<polygon fill="#191970" stroke="#191970" points="1311.7382,-482.2585 1320.7968,-476.7638 1310.2888,-475.4101 1311.7382,-482.2585"/>
</g>
<!-- Node7 -->
<g id="node8" class="node">
<title>Node7</title>
<polygon fill="none" stroke="#bfbfbf" points="658.5,-179.5 658.5,-198.5 705.5,-198.5 705.5,-179.5 658.5,-179.5"/>
<text text-anchor="middle" x="682" y="-186.5" font-family="Helvetica,sans-Serif" font-size="10.00" fill="#000000">cmath</text>
</g>
<!-- Node2&#45;&gt;Node7 -->
<g id="edge7" class="edge">
<title>Node2&#45;&gt;Node7</title>
<path fill="none" stroke="#191970" d="M831.4098,-516.3115C828.2282,-515.8523 825.0734,-515.4113 822,-515 675.7669,-495.4297 624.7947,-543.2859 492,-479 454.9433,-461.0609 427,-454.1705 427,-413 427,-413 427,-413 427,-301 427,-253.1685 579.3018,-212.3746 648.4994,-196.3086"/>
<polygon fill="#191970" stroke="#191970" points="649.4975,-199.6708 658.4673,-194.0322 647.939,-192.8465 649.4975,-199.6708"/>
</g>
<!-- Node8 -->
<g id="node9" class="node">
<title>Node8</title>
<g id="a_node9"><a xlink:href="../../d1/d73/Defs_8h.html" target="_top" xlink:title="DataFormatsTPC/Defs.h">
<polygon fill="none" stroke="#000000" points="931.5,-235.5 931.5,-254.5 1064.5,-254.5 1064.5,-235.5 931.5,-235.5"/>
<text text-anchor="middle" x="998" y="-242.5" font-family="Helvetica,sans-Serif" font-size="10.00" fill="#000000">DataFormatsTPC/Defs.h</text>
</a>
</g>
</g>
<!-- Node2&#45;&gt;Node8 -->
<g id="edge8" class="edge">
<title>Node2&#45;&gt;Node8</title>
<path fill="none" stroke="#191970" d="M933.3147,-515.4508C1011.4767,-498.6023 1157,-460.8132 1157,-413 1157,-413 1157,-413 1157,-357 1157,-302.7808 1094.441,-272.5137 1047.8043,-257.4832"/>
<polygon fill="#191970" stroke="#191970" points="1048.7095,-254.0998 1038.1224,-254.5039 1046.6508,-260.7903 1048.7095,-254.0998"/>
</g>
<!-- Node13 -->
<g id="node14" class="node">
<title>Node13</title>
<g id="a_node14"><a xlink:href="../../dc/d73/Cartesian_8h.html" target="_top" xlink:title="MathUtils/Cartesian.h">
<polygon fill="none" stroke="#000000" points="1031,-179.5 1031,-198.5 1153,-198.5 1153,-179.5 1031,-179.5"/>
<text text-anchor="middle" x="1092" y="-186.5" font-family="Helvetica,sans-Serif" font-size="10.00" fill="#000000">MathUtils/Cartesian.h</text>
</a>
</g>
</g>
<!-- Node2&#45;&gt;Node13 -->
<g id="edge56" class="edge">
<title>Node2&#45;&gt;Node13</title>
<path fill="none" stroke="#191970" d="M938.6907,-520.0749C984.2529,-514.4286 1050.5466,-502.6955 1104,-479 1149.6753,-458.7525 1195,-462.962 1195,-413 1195,-413 1195,-413 1195,-301 1195,-256.4711 1150.3441,-222.0241 1119.8393,-203.6879"/>
<polygon fill="#191970" stroke="#191970" points="1121.3019,-200.4909 1110.8918,-198.5213 1117.8015,-206.5529 1121.3019,-200.4909"/>
</g>
<!-- Node25 -->
<g id="node26" class="node">
<title>Node25</title>
<g id="a_node26"><a xlink:href="../../de/d41/PadPos_8h.html" target="_top" xlink:title="TPCBase/PadPos.h">
<polygon fill="none" stroke="#000000" points="716,-347.5 716,-366.5 822,-366.5 822,-347.5 716,-347.5"/>
<text text-anchor="middle" x="769" y="-354.5" font-family="Helvetica,sans-Serif" font-size="10.00" fill="#000000">TPCBase/PadPos.h</text>
</a>
</g>
</g>
<!-- Node2&#45;&gt;Node25 -->
<g id="edge28" class="edge">
<title>Node2&#45;&gt;Node25</title>
<path fill="none" stroke="#191970" d="M866.0056,-515.3787C851.7219,-507.3242 832.5335,-494.6444 820,-479 794.9935,-447.7867 780.4029,-402.5545 773.6328,-376.8404"/>
<polygon fill="#191970" stroke="#191970" points="776.9485,-375.6715 771.1326,-366.8157 770.1566,-377.3655 776.9485,-375.6715"/>
</g>
<!-- Node26 -->
<g id="node27" class="node">
<title>Node26</title>
<g id="a_node27"><a xlink:href="../../dd/d0b/PadSecPos_8h.html" target="_top" xlink:title="TPCBase/PadSecPos.h">
<polygon fill="none" stroke="#000000" points="635.5,-403.5 635.5,-422.5 758.5,-422.5 758.5,-403.5 635.5,-403.5"/>
<text text-anchor="middle" x="697" y="-410.5" font-family="Helvetica,sans-Serif" font-size="10.00" fill="#000000">TPCBase/PadSecPos.h</text>
</a>
</g>
</g>
<!-- Node2&#45;&gt;Node26 -->
<g id="edge29" class="edge">
<title>Node2&#45;&gt;Node26</title>
<path fill="none" stroke="#191970" d="M854.2415,-515.4106C830.9841,-507.4527 798.7675,-494.8834 773,-479 750.4068,-465.0733 727.8721,-444.4416 713.2783,-429.9622"/>
<polygon fill="#191970" stroke="#191970" points="715.5554,-427.2871 706.0377,-422.6327 710.5756,-432.2066 715.5554,-427.2871"/>
</g>
<!-- Node27 -->
<g id="node28" class="node">
<title>Node27</title>
<g id="a_node28"><a xlink:href="../../d3/dd6/Sector_8h.html" target="_top" xlink:title="TPCBase/Sector.h">
<polygon fill="none" stroke="#000000" points="794.5,-291.5 794.5,-310.5 895.5,-310.5 895.5,-291.5 794.5,-291.5"/>
<text text-anchor="middle" x="845" y="-298.5" font-family="Helvetica,sans-Serif" font-size="10.00" fill="#000000">TPCBase/Sector.h</text>
</a>
</g>
</g>
<!-- Node2&#45;&gt;Node27 -->
<g id="edge55" class="edge">
<title>Node2&#45;&gt;Node27</title>
<path fill="none" stroke="#191970" d="M831.4056,-516.3424C828.2251,-515.8754 825.0717,-515.4243 822,-515 754.175,-505.6312 573.1069,-516.7731 516,-479 492.0912,-463.1856 491.3576,-450.7055 484,-423 481.7185,-414.4089 478.6368,-410.0886 484,-403 520.1712,-355.1925 691.0116,-323.3953 784.1243,-309.3051"/>
<polygon fill="#191970" stroke="#191970" points="784.8821,-312.7309 794.2571,-307.7952 783.8504,-305.8074 784.8821,-312.7309"/>
</g>
<!-- Node29 -->
<g id="node30" class="node">
<title>Node29</title>
<g id="a_node30"><a xlink:href="../../da/d61/PadROCPos_8h.html" target="_top" xlink:title="TPCBase/PadROCPos.h">
<polygon fill="none" stroke="#000000" points="963.5,-403.5 963.5,-422.5 1090.5,-422.5 1090.5,-403.5 963.5,-403.5"/>
<text text-anchor="middle" x="1027" y="-410.5" font-family="Helvetica,sans-Serif" font-size="10.00" fill="#000000">TPCBase/PadROCPos.h</text>
</a>
</g>
</g>
<!-- Node2&#45;&gt;Node29 -->
<g id="edge34" class="edge">
<title>Node2&#45;&gt;Node29</title>
<path fill="none" stroke="#191970" d="M899.2206,-515.4969C912.5758,-506.4418 932.9924,-492.2611 950,-479 970.6191,-462.923 993.2266,-443.2895 1008.5775,-429.6353"/>
<polygon fill="#191970" stroke="#191970" points="1011.1818,-432.0016 1016.3005,-422.7253 1006.5143,-426.7849 1011.1818,-432.0016"/>
</g>
<!-- Node31 -->
<g id="node32" class="node">
<title>Node31</title>
<g id="a_node32"><a xlink:href="../../d3/d54/DigitPos_8h.html" target="_top" xlink:title="TPCBase/DigitPos.h">
<polygon fill="none" stroke="#000000" points="829,-459.5 829,-478.5 941,-478.5 941,-459.5 829,-459.5"/>
<text text-anchor="middle" x="885" y="-466.5" font-family="Helvetica,sans-Serif" font-size="10.00" fill="#000000">TPCBase/DigitPos.h</text>
</a>
</g>
</g>
<!-- Node2&#45;&gt;Node31 -->
<g id="edge40" class="edge">
<title>Node2&#45;&gt;Node31</title>
<path fill="none" stroke="#191970" d="M885,-515.2455C885,-507.9382 885,-497.6944 885,-488.7046"/>
<polygon fill="#191970" stroke="#191970" points="888.5001,-488.6426 885,-478.6427 881.5001,-488.6427 888.5001,-488.6426"/>
</g>
<!-- Node33 -->
<g id="node34" class="node">
<title>Node33</title>
<g id="a_node34"><a xlink:href="../../d1/d1f/FECInfo_8h.html" target="_top" xlink:title="TPCBase/FECInfo.h">
<polygon fill="none" stroke="#000000" points="1353,-291.5 1353,-310.5 1461,-310.5 1461,-291.5 1353,-291.5"/>
<text text-anchor="middle" x="1407" y="-298.5" font-family="Helvetica,sans-Serif" font-size="10.00" fill="#000000">TPCBase/FECInfo.h</text>
</a>
</g>
</g>
<!-- Node2&#45;&gt;Node33 -->
<g id="edge48" class="edge">
<title>Node2&#45;&gt;Node33</title>
<path fill="none" stroke="#191970" d="M938.8223,-521.172C1018.1548,-514.8902 1162.15,-500.8643 1209,-479 1291.597,-440.453 1364.4278,-355.6772 1393.5306,-318.7618"/>
<polygon fill="#191970" stroke="#191970" points="1396.3015,-320.9001 1399.6693,-310.8547 1390.7722,-316.6073 1396.3015,-320.9001"/>
</g>
<!-- Node34 -->
<g id="node35" class="node">
<title>Node34</title>
<g id="a_node35"><a xlink:href="../../da/d9d/PadRegionInfo_8h.html" target="_top" xlink:title="TPCBase/PadRegionInfo.h">
<polygon fill="none" stroke="#000000" points="541,-459.5 541,-478.5 681,-478.5 681,-459.5 541,-459.5"/>
<text text-anchor="middle" x="611" y="-466.5" font-family="Helvetica,sans-Serif" font-size="10.00" fill="#000000">TPCBase/PadRegionInfo.h</text>
</a>
</g>
</g>
<!-- Node2&#45;&gt;Node34 -->
<g id="edge50" class="edge">
<title>Node2&#45;&gt;Node34</title>
<path fill="none" stroke="#191970" d="M838.209,-515.4369C791.0205,-505.7925 718.128,-490.8948 667.6876,-480.5858"/>
<polygon fill="#191970" stroke="#191970" points="668.0963,-477.097 657.598,-478.5237 666.6946,-483.9553 668.0963,-477.097"/>
</g>
<!-- Node35 -->
<g id="node36" class="node">
<title>Node35</title>
<g id="a_node36"><a xlink:href="../../d6/d42/PartitionInfo_8h.html" target="_top" xlink:title="TPCBase/PartitionInfo.h">
<polygon fill="none" stroke="#000000" points="1383.5,-459.5 1383.5,-478.5 1514.5,-478.5 1514.5,-459.5 1383.5,-459.5"/>
<text text-anchor="middle" x="1449" y="-466.5" font-family="Helvetica,sans-Serif" font-size="10.00" fill="#000000">TPCBase/PartitionInfo.h</text>
</a>
</g>
</g>
<!-- Node2&#45;&gt;Node35 -->
<g id="edge54" class="edge">
<title>Node2&#45;&gt;Node35</title>
<path fill="none" stroke="#191970" d="M938.6159,-520.6408C1026.8279,-513.3185 1208.3458,-497.6204 1372.8579,-479.0919"/>
<polygon fill="#191970" stroke="#191970" points="1373.6251,-482.5275 1383.1677,-477.9244 1372.8374,-475.5719 1373.6251,-482.5275"/>
</g>
<!-- Node8&#45;&gt;Node7 -->
<g id="edge9" class="edge">
<title>Node8&#45;&gt;Node7</title>
<path fill="none" stroke="#191970" d="M944.0367,-235.4369C878.5942,-223.8395 770.286,-204.6456 715.6832,-194.9692"/>
<polygon fill="#191970" stroke="#191970" points="715.9646,-191.4646 705.5073,-193.1658 714.7431,-198.3572 715.9646,-191.4646"/>
</g>
<!-- Node9 -->
<g id="node10" class="node">
<title>Node9</title>
<g id="a_node10"><a xlink:href="../../d1/da8/GPUROOTCartesianFwd_8h.html" target="_top" xlink:title="GPUROOTCartesianFwd.h">
<polygon fill="none" stroke="#000000" points="0,-118 0,-137 140,-137 140,-118 0,-118"/>
<text text-anchor="middle" x="70" y="-125" font-family="Helvetica,sans-Serif" font-size="10.00" fill="#000000">GPUROOTCartesianFwd.h</text>
</a>
</g>
</g>
<!-- Node8&#45;&gt;Node9 -->
<g id="edge10" class="edge">
<title>Node8&#45;&gt;Node9</title>
<path fill="none" stroke="#191970" d="M965.2281,-235.4863C912.8564,-220.7087 806.8368,-192.5342 715,-179 465.6296,-142.2496 398.9815,-175.3337 149,-143 140.6312,-141.9175 131.8158,-140.4836 123.2299,-138.924"/>
<polygon fill="#191970" stroke="#191970" points="123.7725,-135.4647 113.2968,-137.0492 122.4741,-142.3433 123.7725,-135.4647"/>
</g>
<!-- Node8&#45;&gt;Node13 -->
<g id="edge14" class="edge">
<title>Node8&#45;&gt;Node13</title>
<path fill="none" stroke="#191970" d="M1014.3736,-235.2455C1028.9308,-226.5731 1050.431,-213.7645 1067.1152,-203.825"/>
<polygon fill="#191970" stroke="#191970" points="1069.0144,-206.7676 1075.8141,-198.6427 1065.4317,-200.7539 1069.0144,-206.7676"/>
</g>
<!-- Node10 -->
<g id="node11" class="node">
<title>Node10</title>
<g id="a_node11"><a xlink:href="../../df/d21/GPUCommonDef_8h.html" target="_top" xlink:title="GPUCommonDef.h">
<polygon fill="none" stroke="#000000" points="778.5,-56.5 778.5,-75.5 885.5,-75.5 885.5,-56.5 778.5,-56.5"/>
<text text-anchor="middle" x="832" y="-63.5" font-family="Helvetica,sans-Serif" font-size="10.00" fill="#000000">GPUCommonDef.h</text>
</a>
</g>
</g>
<!-- Node9&#45;&gt;Node10 -->
<g id="edge11" class="edge">
<title>Node9&#45;&gt;Node10</title>
<path fill="none" stroke="#191970" d="M113.3006,-117.9802C124.8522,-115.7217 137.3593,-113.5277 149,-112 375.4187,-82.2846 646.7313,-71.2617 767.9853,-67.6117"/>
<polygon fill="#191970" stroke="#191970" points="768.3075,-71.1038 778.2002,-67.311 768.1015,-64.1068 768.3075,-71.1038"/>
</g>
<!-- Node11 -->
<g id="node12" class="node">
<title>Node11</title>
<g id="a_node12"><a xlink:href="../../d5/d93/GPUCommonDefSettings_8h.html" target="_top" xlink:title="GPUCommonDefSettings.h">
<polygon fill="none" stroke="#000000" points="681,-.5 681,-19.5 829,-19.5 829,-.5 681,-.5"/>
<text text-anchor="middle" x="755" y="-7.5" font-family="Helvetica,sans-Serif" font-size="10.00" fill="#000000">GPUCommonDefSettings.h</text>
</a>
</g>
</g>
<!-- Node10&#45;&gt;Node11 -->
<g id="edge12" class="edge">
<title>Node10&#45;&gt;Node11</title>
<path fill="none" stroke="#191970" d="M818.5876,-56.2455C806.9943,-47.814 790.0252,-35.4729 776.5322,-25.6598"/>
<polygon fill="#191970" stroke="#191970" points="778.4047,-22.6938 768.2587,-19.6427 774.2874,-28.355 778.4047,-22.6938"/>
</g>
<!-- Node12 -->
<g id="node13" class="node">
<title>Node12</title>
<g id="a_node13"><a xlink:href="../../da/d5a/GPUCommonDefAPI_8h.html" target="_top" xlink:title="GPUCommonDefAPI.h">
<polygon fill="none" stroke="#000000" points="847,-.5 847,-19.5 971,-19.5 971,-.5 847,-.5"/>
<text text-anchor="middle" x="909" y="-7.5" font-family="Helvetica,sans-Serif" font-size="10.00" fill="#000000">GPUCommonDefAPI.h</text>
</a>
</g>
</g>
<!-- Node10&#45;&gt;Node12 -->
<g id="edge13" class="edge">
<title>Node10&#45;&gt;Node12</title>
<path fill="none" stroke="#191970" d="M845.4124,-56.2455C857.0057,-47.814 873.9748,-35.4729 887.4678,-25.6598"/>
<polygon fill="#191970" stroke="#191970" points="889.7126,-28.355 895.7413,-19.6427 885.5953,-22.6938 889.7126,-28.355"/>
</g>
<!-- Node13&#45;&gt;Node9 -->
<g id="edge27" class="edge">
<title>Node13&#45;&gt;Node9</title>
<path fill="none" stroke="#191970" d="M1030.6666,-186.1277C824.9225,-176.4771 170.9273,-145.6716 149,-143 140.3308,-141.9438 131.1872,-140.4797 122.3171,-138.8699"/>
<polygon fill="#191970" stroke="#191970" points="122.9351,-135.4248 112.4587,-137.0043 121.6335,-142.3027 122.9351,-135.4248"/>
</g>
<!-- Node13&#45;&gt;Node10 -->
<g id="edge15" class="edge">
<title>Node13&#45;&gt;Node10</title>
<path fill="none" stroke="#191970" d="M1153.466,-187.795C1279.2115,-184.692 1556.452,-174.3357 1585,-143 1594.2788,-132.8151 1594.4407,-122.035 1585,-112 1561.5311,-87.0537 1073.5345,-72.1597 895.9235,-67.5484"/>
<polygon fill="#191970" stroke="#191970" points="895.7716,-64.0434 885.6849,-67.285 895.5916,-71.0411 895.7716,-64.0434"/>
</g>
<!-- Node14 -->
<g id="node15" class="node">
<title>Node14</title>
<g id="a_node15"><a xlink:href="../../d2/d45/GPUCommonRtypes_8h.html" target="_top" xlink:title="GPUCommonRtypes.h">
<polygon fill="none" stroke="#000000" points="1632.5,-118 1632.5,-137 1757.5,-137 1757.5,-118 1632.5,-118"/>
<text text-anchor="middle" x="1695" y="-125" font-family="Helvetica,sans-Serif" font-size="10.00" fill="#000000">GPUCommonRtypes.h</text>
</a>
</g>
</g>
<!-- Node13&#45;&gt;Node14 -->
<g id="edge16" class="edge">
<title>Node13&#45;&gt;Node14</title>
<path fill="none" stroke="#191970" d="M1153.3991,-185.8551C1251.8188,-180.3149 1450.8242,-167.0597 1618,-143 1625.7819,-141.88 1633.9643,-140.4783 1641.9721,-138.9786"/>
<polygon fill="#191970" stroke="#191970" points="1642.8266,-142.3782 1651.9785,-137.0403 1641.4954,-135.5059 1642.8266,-142.3782"/>
</g>
<!-- Node16 -->
<g id="node17" class="node">
<title>Node16</title>
<polygon fill="none" stroke="#bfbfbf" points="158,-112.5 158,-142.5 322,-142.5 322,-112.5 158,-112.5"/>
<text text-anchor="start" x="166" y="-130.5" font-family="Helvetica,sans-Serif" font-size="10.00" fill="#000000">Math/GenVector/Displacement</text>
<text text-anchor="middle" x="240" y="-119.5" font-family="Helvetica,sans-Serif" font-size="10.00" fill="#000000">Vector3D.h</text>
</g>
<!-- Node13&#45;&gt;Node16 -->
<g id="edge18" class="edge">
<title>Node13&#45;&gt;Node16</title>
<path fill="none" stroke="#191970" d="M1030.9003,-186.1641C878.6742,-178.9641 484.4348,-159.456 332.3749,-143.0517"/>
<polygon fill="#191970" stroke="#191970" points="332.6091,-139.5562 322.2827,-141.926 331.8331,-146.513 332.6091,-139.5562"/>
</g>
<!-- Node17 -->
<g id="node18" class="node">
<title>Node17</title>
<polygon fill="none" stroke="#bfbfbf" points="340.5,-118 340.5,-137 529.5,-137 529.5,-118 340.5,-118"/>
<text text-anchor="middle" x="435" y="-125" font-family="Helvetica,sans-Serif" font-size="10.00" fill="#000000">Math/GenVector/PositionVector3D.h</text>
</g>
<!-- Node13&#45;&gt;Node17 -->
<g id="edge19" class="edge">
<title>Node13&#45;&gt;Node17</title>
<path fill="none" stroke="#191970" d="M1030.9082,-185.2203C928.8346,-178.6135 717.2356,-163.6729 539,-143 527.7799,-141.6986 515.9081,-140.1208 504.3551,-138.4763"/>
<polygon fill="#191970" stroke="#191970" points="504.7077,-134.9909 494.3088,-137.0192 503.7028,-141.9184 504.7077,-134.9909"/>
</g>
<!-- Node18 -->
<g id="node19" class="node">
<title>Node18</title>
<polygon fill="none" stroke="#bfbfbf" points="548,-118 548,-137 708,-137 708,-118 548,-118"/>
<text text-anchor="middle" x="628" y="-125" font-family="Helvetica,sans-Serif" font-size="10.00" fill="#000000">Math/GenVector/Rotation3D.h</text>
</g>
<!-- Node13&#45;&gt;Node18 -->
<g id="edge20" class="edge">
<title>Node13&#45;&gt;Node18</title>
<path fill="none" stroke="#191970" d="M1030.8166,-182.4527C956.475,-174.2764 827.3001,-159.3592 717,-143 708.3205,-141.7127 699.1841,-140.2478 690.205,-138.7444"/>
<polygon fill="#191970" stroke="#191970" points="690.6121,-135.2634 680.1669,-137.038 689.4389,-142.1644 690.6121,-135.2634"/>
</g>
<!-- Node19 -->
<g id="node20" class="node">
<title>Node19</title>
<polygon fill="none" stroke="#bfbfbf" points="726,-118 726,-137 894,-137 894,-118 726,-118"/>
<text text-anchor="middle" x="810" y="-125" font-family="Helvetica,sans-Serif" font-size="10.00" fill="#000000">Math/GenVector/Transform3D.h</text>
</g>
<!-- Node13&#45;&gt;Node19 -->
<g id="edge21" class="edge">
<title>Node13&#45;&gt;Node19</title>
<path fill="none" stroke="#191970" d="M1048.2469,-179.4581C998.5415,-168.6181 917.4001,-150.9224 863.8499,-139.2439"/>
<polygon fill="#191970" stroke="#191970" points="864.3719,-135.7755 853.8557,-137.0643 862.8803,-142.6148 864.3719,-135.7755"/>
</g>
<!-- Node20 -->
<g id="node21" class="node">
<title>Node20</title>
<polygon fill="none" stroke="#bfbfbf" points="912.5,-118 912.5,-137 1085.5,-137 1085.5,-118 912.5,-118"/>
<text text-anchor="middle" x="999" y="-125" font-family="Helvetica,sans-Serif" font-size="10.00" fill="#000000">Math/GenVector/Translation3D.h</text>
</g>
<!-- Node13&#45;&gt;Node20 -->
<g id="edge22" class="edge">
<title>Node13&#45;&gt;Node20</title>
<path fill="none" stroke="#191970" d="M1077.4688,-179.3906C1062.5906,-169.5519 1039.2496,-154.1167 1021.8872,-142.6351"/>
<polygon fill="#191970" stroke="#191970" points="1023.701,-139.6385 1013.4292,-137.0419 1019.8398,-145.4773 1023.701,-139.6385"/>
</g>
<!-- Node21 -->
<g id="node22" class="node">
<title>Node21</title>
<polygon fill="none" stroke="#bfbfbf" points="1104,-112.5 1104,-142.5 1268,-142.5 1268,-112.5 1104,-112.5"/>
<text text-anchor="start" x="1112" y="-130.5" font-family="Helvetica,sans-Serif" font-size="10.00" fill="#000000">Math/GenVector/Displacement</text>
<text text-anchor="middle" x="1186" y="-119.5" font-family="Helvetica,sans-Serif" font-size="10.00" fill="#000000">Vector2D.h</text>
</g>
<!-- Node13&#45;&gt;Node21 -->
<g id="edge23" class="edge">
<title>Node13&#45;&gt;Node21</title>
<path fill="none" stroke="#191970" d="M1106.6875,-179.3906C1119.4093,-171.0673 1138.2527,-158.7389 1154.3806,-148.1872"/>
<polygon fill="#191970" stroke="#191970" points="1156.5531,-150.9484 1163.005,-142.5446 1152.7206,-145.0907 1156.5531,-150.9484"/>
</g>
<!-- Node22 -->
<g id="node23" class="node">
<title>Node22</title>
<polygon fill="none" stroke="#bfbfbf" points="1286.5,-118 1286.5,-137 1475.5,-137 1475.5,-118 1286.5,-118"/>
<text text-anchor="middle" x="1381" y="-125" font-family="Helvetica,sans-Serif" font-size="10.00" fill="#000000">Math/GenVector/PositionVector2D.h</text>
</g>
<!-- Node13&#45;&gt;Node22 -->
<g id="edge24" class="edge">
<title>Node13&#45;&gt;Node22</title>
<path fill="none" stroke="#191970" d="M1136.8392,-179.4581C1187.8843,-168.5956 1271.2798,-150.8488 1326.1553,-139.1711"/>
<polygon fill="#191970" stroke="#191970" points="1327.0032,-142.5691 1336.0556,-137.0643 1325.5461,-135.7224 1327.0032,-142.5691"/>
</g>
<!-- Node23 -->
<g id="node24" class="node">
<title>Node23</title>
<polygon fill="none" stroke="#bfbfbf" points="1494,-118 1494,-137 1576,-137 1576,-118 1494,-118"/>
<text text-anchor="middle" x="1535" y="-125" font-family="Helvetica,sans-Serif" font-size="10.00" fill="#000000">TGeoMatrix.h</text>
</g>
<!-- Node13&#45;&gt;Node23 -->
<g id="edge25" class="edge">
<title>Node13&#45;&gt;Node23</title>
<path fill="none" stroke="#191970" d="M1153.1557,-185.3418C1230.9338,-179.8917 1369.0691,-167.5356 1485,-143 1489.1511,-142.1215 1493.451,-141.0479 1497.7075,-139.8795"/>
<polygon fill="#191970" stroke="#191970" points="1498.852,-143.1916 1507.47,-137.0288 1496.8898,-136.4722 1498.852,-143.1916"/>
</g>
<!-- Node24 -->
<g id="node25" class="node">
<title>Node24</title>
<polygon fill="none" stroke="#bfbfbf" points="1775.5,-118 1775.5,-137 1824.5,-137 1824.5,-118 1775.5,-118"/>
<text text-anchor="middle" x="1800" y="-125" font-family="Helvetica,sans-Serif" font-size="10.00" fill="#000000">iosfwd</text>
</g>
<!-- Node13&#45;&gt;Node24 -->
<g id="edge26" class="edge">
<title>Node13&#45;&gt;Node24</title>
<path fill="none" stroke="#191970" d="M1153.035,-187.7217C1296.5303,-184.2527 1651.8756,-172.8352 1767,-143 1768.976,-142.4879 1770.9779,-141.8588 1772.9678,-141.1504"/>
<polygon fill="#191970" stroke="#191970" points="1774.7561,-144.1971 1782.6415,-137.1209 1772.0645,-137.7352 1774.7561,-144.1971"/>
</g>
<!-- Node15 -->
<g id="node16" class="node">
<title>Node15</title>
<polygon fill="none" stroke="#bfbfbf" points="1665.5,-56.5 1665.5,-75.5 1724.5,-75.5 1724.5,-56.5 1665.5,-56.5"/>
<text text-anchor="middle" x="1695" y="-63.5" font-family="Helvetica,sans-Serif" font-size="10.00" fill="#000000">Rtypes.h</text>
</g>
<!-- Node14&#45;&gt;Node15 -->
<g id="edge17" class="edge">
<title>Node14&#45;&gt;Node15</title>
<path fill="none" stroke="#191970" d="M1695,-117.8906C1695,-109.3657 1695,-96.6392 1695,-85.9235"/>
<polygon fill="#191970" stroke="#191970" points="1698.5001,-85.7448 1695,-75.7449 1691.5001,-85.7449 1698.5001,-85.7448"/>
</g>
<!-- Node26&#45;&gt;Node25 -->
<g id="edge33" class="edge">
<title>Node26&#45;&gt;Node25</title>
<path fill="none" stroke="#191970" d="M709.5414,-403.2455C720.2787,-394.8943 735.9473,-382.7076 748.5047,-372.9408"/>
<polygon fill="#191970" stroke="#191970" points="750.8575,-375.5449 756.6023,-366.6427 746.5599,-370.0194 750.8575,-375.5449"/>
</g>
<!-- Node26&#45;&gt;Node27 -->
<g id="edge30" class="edge">
<title>Node26&#45;&gt;Node27</title>
<path fill="none" stroke="#191970" d="M695.5687,-403.2227C694.0797,-389.1049 693.566,-362.9588 707,-347 718.1759,-333.7237 757.1249,-321.4446 790.8061,-312.9183"/>
<polygon fill="#191970" stroke="#191970" points="791.7227,-316.2972 800.5945,-310.5058 790.0475,-309.5006 791.7227,-316.2972"/>
</g>
<!-- Node27&#45;&gt;Node8 -->
<g id="edge32" class="edge">
<title>Node27&#45;&gt;Node8</title>
<path fill="none" stroke="#191970" d="M871.3016,-291.3733C896.4128,-282.1822 934.4438,-268.2624 962.2872,-258.0713"/>
<polygon fill="#191970" stroke="#191970" points="963.8538,-261.2251 972.0416,-254.5011 961.4478,-254.6516 963.8538,-261.2251"/>
</g>
<!-- Node28 -->
<g id="node29" class="node">
<title>Node28</title>
<g id="a_node29"><a xlink:href="../../d0/dda/DataFormats_2Detectors_2TPC_2include_2DataFormatsTPC_2Constants_8h.html" target="_top" xlink:title="DataFormatsTPC/Constants.h">
<polygon fill="none" stroke="#000000" points="754.5,-235.5 754.5,-254.5 913.5,-254.5 913.5,-235.5 754.5,-235.5"/>
<text text-anchor="middle" x="834" y="-242.5" font-family="Helvetica,sans-Serif" font-size="10.00" fill="#000000">DataFormatsTPC/Constants.h</text>
</a>
</g>
</g>
<!-- Node27&#45;&gt;Node28 -->
<g id="edge31" class="edge">
<title>Node27&#45;&gt;Node28</title>
<path fill="none" stroke="#191970" d="M843.0839,-291.2455C841.6486,-283.9382 839.6364,-273.6944 837.8705,-264.7046"/>
<polygon fill="#191970" stroke="#191970" points="841.256,-263.7805 835.8941,-254.6427 834.3873,-265.1298 841.256,-263.7805"/>
</g>
<!-- Node29&#45;&gt;Node8 -->
<g id="edge35" class="edge">
<title>Node29&#45;&gt;Node8</title>
<path fill="none" stroke="#191970" d="M1026.3883,-403.4158C1024.9435,-382.7109 1020.7622,-332.3348 1012,-291 1010.1223,-282.1421 1007.3224,-272.5322 1004.7189,-264.3979"/>
<polygon fill="#191970" stroke="#191970" points="1007.9837,-263.1239 1001.5036,-254.7418 1001.3422,-265.3354 1007.9837,-263.1239"/>
</g>
<!-- Node29&#45;&gt;Node25 -->
<g id="edge39" class="edge">
<title>Node29&#45;&gt;Node25</title>
<path fill="none" stroke="#191970" d="M982.9414,-403.4369C938.6011,-393.8127 870.1589,-378.957 822.6751,-368.6504"/>
<polygon fill="#191970" stroke="#191970" points="823.3918,-365.2245 812.8769,-366.5237 821.9069,-372.0653 823.3918,-365.2245"/>
</g>
<!-- Node30 -->
<g id="node31" class="node">
<title>Node30</title>
<g id="a_node31"><a xlink:href="../../dc/d14/ROC_8h.html" target="_top" xlink:title="TPCBase/ROC.h">
<polygon fill="none" stroke="#000000" points="878,-347.5 878,-366.5 970,-366.5 970,-347.5 878,-347.5"/>
<text text-anchor="middle" x="924" y="-354.5" font-family="Helvetica,sans-Serif" font-size="10.00" fill="#000000">TPCBase/ROC.h</text>
</a>
</g>
</g>
<!-- Node29&#45;&gt;Node30 -->
<g id="edge36" class="edge">
<title>Node29&#45;&gt;Node30</title>
<path fill="none" stroke="#191970" d="M1009.0588,-403.2455C992.96,-394.4928 969.1121,-381.527 950.7609,-371.5496"/>
<polygon fill="#191970" stroke="#191970" points="952.1929,-368.3444 941.7356,-366.6427 948.8493,-374.4942 952.1929,-368.3444"/>
</g>
<!-- Node30&#45;&gt;Node8 -->
<g id="edge37" class="edge">
<title>Node30&#45;&gt;Node8</title>
<path fill="none" stroke="#191970" d="M930.3092,-347.4509C942.6515,-328.7707 970.1682,-287.1238 986.0568,-263.0761"/>
<polygon fill="#191970" stroke="#191970" points="989.1143,-264.7977 991.7068,-254.5249 983.274,-260.9388 989.1143,-264.7977"/>
</g>
<!-- Node30&#45;&gt;Node27 -->
<g id="edge38" class="edge">
<title>Node30&#45;&gt;Node27</title>
<path fill="none" stroke="#191970" d="M910.2393,-347.2455C898.3448,-338.814 880.935,-326.4729 867.0915,-316.6598"/>
<polygon fill="#191970" stroke="#191970" points="868.7854,-313.5704 858.6031,-310.6427 864.7372,-319.2811 868.7854,-313.5704"/>
</g>
<!-- Node31&#45;&gt;Node8 -->
<g id="edge41" class="edge">
<title>Node31&#45;&gt;Node8</title>
<path fill="none" stroke="#191970" d="M941.2397,-464.8266C998.1214,-459.2979 1080.3783,-447.2639 1100,-423 1143.9084,-368.7036 1060.7394,-293.1732 1019.3819,-260.7777"/>
<polygon fill="#191970" stroke="#191970" points="1021.3171,-257.8511 1011.2521,-254.5428 1017.0572,-263.4057 1021.3171,-257.8511"/>
</g>
<!-- Node31&#45;&gt;Node25 -->
<g id="edge46" class="edge">
<title>Node31&#45;&gt;Node25</title>
<path fill="none" stroke="#191970" d="M875.1099,-459.4509C855.3344,-440.3574 810.7079,-397.2697 786.0959,-373.5063"/>
<polygon fill="#191970" stroke="#191970" points="788.4902,-370.9529 778.8651,-366.5249 783.628,-375.9888 788.4902,-370.9529"/>
</g>
<!-- Node31&#45;&gt;Node26 -->
<g id="edge47" class="edge">
<title>Node31&#45;&gt;Node26</title>
<path fill="none" stroke="#191970" d="M852.6816,-459.3733C821.1494,-449.9807 773.0379,-435.6496 738.6499,-425.4064"/>
<polygon fill="#191970" stroke="#191970" points="739.4797,-422.0016 728.8966,-422.5011 737.4813,-428.7103 739.4797,-422.0016"/>
</g>
<!-- Node32 -->
<g id="node33" class="node">
<title>Node32</title>
<g id="a_node33"><a xlink:href="../../df/d26/CRU_8h.html" target="_top" xlink:title="TPCBase/CRU.h">
<polygon fill="none" stroke="#000000" points="853,-403.5 853,-422.5 945,-422.5 945,-403.5 853,-403.5"/>
<text text-anchor="middle" x="899" y="-410.5" font-family="Helvetica,sans-Serif" font-size="10.00" fill="#000000">TPCBase/CRU.h</text>
</a>
</g>
</g>
<!-- Node31&#45;&gt;Node32 -->
<g id="edge42" class="edge">
<title>Node31&#45;&gt;Node32</title>
<path fill="none" stroke="#191970" d="M887.4386,-459.2455C889.2855,-451.8579 891.8828,-441.4689 894.1478,-432.4087"/>
<polygon fill="#191970" stroke="#191970" points="897.5594,-433.193 896.5893,-422.6427 890.7684,-431.4952 897.5594,-433.193"/>
</g>
<!-- Node32&#45;&gt;Node8 -->
<g id="edge43" class="edge">
<title>Node32&#45;&gt;Node8</title>
<path fill="none" stroke="#191970" d="M928.6996,-403.3485C946.1333,-396.1187 967.0288,-384.4335 979,-367 1000.2457,-336.0602 1001.3175,-290.3734 999.8727,-264.5849"/>
<polygon fill="#191970" stroke="#191970" points="1003.3588,-264.2671 999.1232,-254.5557 996.3782,-264.7888 1003.3588,-264.2671"/>
</g>
<!-- Node32&#45;&gt;Node27 -->
<g id="edge44" class="edge">
<title>Node32&#45;&gt;Node27</title>
<path fill="none" stroke="#191970" d="M891.6328,-403.167C885.0857,-394.1132 875.5623,-380.1349 869,-367 861.4324,-351.853 855.0125,-333.7171 850.7221,-320.2927"/>
<polygon fill="#191970" stroke="#191970" points="854.05,-319.2069 847.7567,-310.6837 847.3613,-321.2712 854.05,-319.2069"/>
</g>
<!-- Node32&#45;&gt;Node30 -->
<g id="edge45" class="edge">
<title>Node32&#45;&gt;Node30</title>
<path fill="none" stroke="#191970" d="M903.3547,-403.2455C906.7244,-395.6973 911.493,-385.0158 915.5983,-375.8197"/>
<polygon fill="#191970" stroke="#191970" points="918.8147,-377.2009 919.6952,-366.6427 912.4227,-374.3473 918.8147,-377.2009"/>
</g>
<!-- Node33&#45;&gt;Node24 -->
<g id="edge49" class="edge">
<title>Node33&#45;&gt;Node24</title>
<path fill="none" stroke="#191970" d="M1429.4163,-291.398C1486.1423,-267.0484 1639.9142,-200.7228 1767,-143 1768.167,-142.4699 1769.3559,-141.9267 1770.5559,-141.3758"/>
<polygon fill="#191970" stroke="#191970" points="1772.1949,-144.4738 1779.7935,-137.0906 1769.2492,-138.1238 1772.1949,-144.4738"/>
</g>
<!-- Node34&#45;&gt;Node4 -->
<g id="edge51" class="edge">
<title>Node34&#45;&gt;Node4</title>
<path fill="none" stroke="#191970" d="M594.6264,-459.2455C580.0692,-450.5731 558.569,-437.7645 541.8848,-427.825"/>
<polygon fill="#191970" stroke="#191970" points="543.5683,-424.7539 533.1859,-422.6427 539.9856,-430.7676 543.5683,-424.7539"/>
</g>
<!-- Node34&#45;&gt;Node8 -->
<g id="edge52" class="edge">
<title>Node34&#45;&gt;Node8</title>
<path fill="none" stroke="#191970" d="M608.5457,-459.3636C605.6609,-445.8728 602.3907,-420.993 612,-403 655.3253,-321.8755 700.5181,-324.9281 786,-291 829.3344,-273.8004 880.332,-262.4786 921.4483,-255.3719"/>
<polygon fill="#191970" stroke="#191970" points="922.1253,-258.8073 931.4074,-253.6991 920.9657,-251.904 922.1253,-258.8073"/>
</g>
<!-- Node34&#45;&gt;Node25 -->
<g id="edge53" class="edge">
<title>Node34&#45;&gt;Node25</title>
<path fill="none" stroke="#191970" d="M610.5779,-459.1177C610.5221,-444.8692 612.5701,-418.5617 627,-403 639.148,-389.8992 679.4065,-377.5658 713.9689,-368.9739"/>
<polygon fill="#191970" stroke="#191970" points="715.1108,-372.2986 724.0051,-366.5418 713.4621,-365.4955 715.1108,-372.2986"/>
</g>
</g>
</svg>
        <g id="navigator" transform="translate(0 0)" fill="#404254">
                <rect fill="#f2f5e9" fill-opacity="0.5" stroke="#606060" stroke-width=".5" x="0" y="0" width="60" height="60"/>
                <use id="zoomplus" xlink:href="#zoomPlus" x="17" y="9" onmousedown="handleZoom(evt,'in')"/>
                <use id="zoomminus" xlink:href="#zoomMin" x="42" y="9" onmousedown="handleZoom(evt,'out')"/>
                <use id="reset" xlink:href="#resetDef" x="30" y="36" onmousedown="handleReset()"/>
                <g id="arrowUp" xlink:href="#dirArrow" transform="translate(30 24)" onmousedown="handlePan(0,-1)">
                  <use xlink:href="#rim" fill="#404040">
                        <set attributeName="fill" to="#808080" begin="arrowUp.mouseover" end="arrowUp.mouseout"/>
                  </use>
                  <path fill="none" stroke="white" stroke-width="1.5" d="M0,-3.0v7 M-2.5,-0.5L0,-3.0L2.5,-0.5"/>
                </g>
                <g id="arrowRight" xlink:href="#dirArrow" transform="rotate(90) translate(36 -43)" onmousedown="handlePan(1,0)">
                  <use xlink:href="#rim" fill="#404040">
                        <set attributeName="fill" to="#808080" begin="arrowRight.mouseover" end="arrowRight.mouseout"/>
                  </use>
                  <path fill="none" stroke="white" stroke-width="1.5" d="M0,-3.0v7 M-2.5,-0.5L0,-3.0L2.5,-0.5"/>
                </g>
                <g id="arrowDown" xlink:href="#dirArrow" transform="rotate(180) translate(-30 -48)" onmousedown="handlePan(0,1)">
                  <use xlink:href="#rim" fill="#404040">
                        <set attributeName="fill" to="#808080" begin="arrowDown.mouseover" end="arrowDown.mouseout"/>
                  </use>
                  <path fill="none" stroke="white" stroke-width="1.5" d="M0,-3.0v7 M-2.5,-0.5L0,-3.0L2.5,-0.5"/>
                </g>
                <g id="arrowLeft" xlink:href="#dirArrow" transform="rotate(270) translate(-36 17)" onmousedown="handlePan(-1,0)">
                  <use xlink:href="#rim" fill="#404040">
                        <set attributeName="fill" to="#808080" begin="arrowLeft.mouseover" end="arrowLeft.mouseout"/>
                  </use>
                  <path fill="none" stroke="white" stroke-width="1.5" d="M0,-3.0v7 M-2.5,-0.5L0,-3.0L2.5,-0.5"/>
                </g>
        </g>
        <svg viewBox="0 0 15 15" width="100%" height="30px" preserveAspectRatio="xMaxYMin meet">
         <g id="arrow_out" transform="scale(0.3 0.3)">
          <a xlink:href="TPC_2simulation_2include_2TPCSimulation_2PadResponse_8h__incl_org.svg" target="_base">
           <rect id="button" ry="5" rx="5" y="6" x="6" height="38" width="38"
                fill="#f2f5e9" fill-opacity="0.5" stroke="#606060" stroke-width="1.0"/>
           <path id="arrow"
             d="M 11.500037,31.436501 C 11.940474,20.09759 22.043105,11.32322 32.158766,21.979434 L 37.068811,17.246167 C 37.068811,17.246167 37.088388,32 37.088388,32 L 22.160133,31.978069 C 22.160133,31.978069 26.997745,27.140456 26.997745,27.140456 C 18.528582,18.264221 13.291696,25.230495 11.500037,31.436501 z"
             style="fill:#404040;"/>
          </a>
         </g>
        </svg>
</svg>
