<?xml version="1.0" encoding="UTF-8" standalone="no"?>
<!DOCTYPE svg PUBLIC "-//W3C//DTD SVG 1.1//EN"
 "http://www.w3.org/Graphics/SVG/1.1/DTD/svg11.dtd">
<!-- Generated by graphviz version 2.40.1 (20161225.0304)
 -->
<!-- Title: o2::trd::CalSingleChamberStatus Pages: 1 -->
<svg width="198pt" height="424pt"
 viewBox="0.00 0.00 197.50 424.00" xmlns="http://www.w3.org/2000/svg" xmlns:xlink="http://www.w3.org/1999/xlink">
<g id="graph0" class="graph" transform="scale(1 1) rotate(0) translate(4 420)">
<title>o2::trd::CalSingleChamberStatus</title>
<!-- Node1 -->
<g id="node1" class="node">
<title>Node1</title>
<polygon fill="#bfbfbf" stroke="#000000" points="4.5,-.5 4.5,-266.5 168.5,-266.5 168.5,-.5 4.5,-.5"/>
<text text-anchor="start" x="12.5" y="-254.5" font-family="Helvetica,sans-Serif" font-size="10.00" fill="#000000">o2::trd::CalSingleChamber</text>
<text text-anchor="middle" x="86.5" y="-243.5" font-family="Helvetica,sans-Serif" font-size="10.00" fill="#000000">Status</text>
<polyline fill="none" stroke="#000000" points="4.5,-236.5 168.5,-236.5 "/>
<text text-anchor="middle" x="86.5" y="-224.5" font-family="Helvetica,sans-Serif" font-size="10.00" fill="#000000"> </text>
<polyline fill="none" stroke="#000000" points="4.5,-217.5 168.5,-217.5 "/>
<text text-anchor="start" x="12.5" y="-205.5" font-family="Helvetica,sans-Serif" font-size="10.00" fill="#000000">+ CalSingleChamberStatus()</text>
<text text-anchor="start" x="12.5" y="-194.5" font-family="Helvetica,sans-Serif" font-size="10.00" fill="#000000">+ CalSingleChamberStatus()</text>
<text text-anchor="start" x="12.5" y="-183.5" font-family="Helvetica,sans-Serif" font-size="10.00" fill="#000000">+ CalSingleChamberStatus()</text>
<text text-anchor="start" x="12.5" y="-172.5" font-family="Helvetica,sans-Serif" font-size="10.00" fill="#000000">+ ~CalSingleChamberStatus()</text>
<text text-anchor="start" x="12.5" y="-161.5" font-family="Helvetica,sans-Serif" font-size="10.00" fill="#000000">+ operator=()</text>
<text text-anchor="start" x="12.5" y="-150.5" font-family="Helvetica,sans-Serif" font-size="10.00" fill="#000000">+ Copy()</text>
<text text-anchor="start" x="12.5" y="-139.5" font-family="Helvetica,sans-Serif" font-size="10.00" fill="#000000">+ isMasked()</text>
<text text-anchor="start" x="12.5" y="-128.5" font-family="Helvetica,sans-Serif" font-size="10.00" fill="#000000">+ isBridgedLeft()</text>
<text text-anchor="start" x="12.5" y="-117.5" font-family="Helvetica,sans-Serif" font-size="10.00" fill="#000000">+ isBridgedRight()</text>
<text text-anchor="start" x="12.5" y="-106.5" font-family="Helvetica,sans-Serif" font-size="10.00" fill="#000000">+ isNotConnected()</text>
<text text-anchor="start" x="12.5" y="-95.5" font-family="Helvetica,sans-Serif" font-size="10.00" fill="#000000">+ getNrows()</text>
<text text-anchor="start" x="12.5" y="-84.5" font-family="Helvetica,sans-Serif" font-size="10.00" fill="#000000">+ getNcols()</text>
<text text-anchor="start" x="12.5" y="-73.5" font-family="Helvetica,sans-Serif" font-size="10.00" fill="#000000">+ getChannel()</text>
<text text-anchor="start" x="12.5" y="-62.5" font-family="Helvetica,sans-Serif" font-size="10.00" fill="#000000">+ getNchannels()</text>
<text text-anchor="start" x="12.5" y="-51.5" font-family="Helvetica,sans-Serif" font-size="10.00" fill="#000000">+ getStatus()</text>
<text text-anchor="start" x="12.5" y="-40.5" font-family="Helvetica,sans-Serif" font-size="10.00" fill="#000000">+ getStatus()</text>
<text text-anchor="start" x="12.5" y="-29.5" font-family="Helvetica,sans-Serif" font-size="10.00" fill="#000000">+ setStatus()</text>
<text text-anchor="start" x="12.5" y="-18.5" font-family="Helvetica,sans-Serif" font-size="10.00" fill="#000000">+ setStatus()</text>
<text text-anchor="start" x="12.5" y="-7.5" font-family="Helvetica,sans-Serif" font-size="10.00" fill="#000000"># ClassDefNV()</text>
</g>
<!-- Node2 -->
<g id="node2" class="node">
<title>Node2</title>
<polygon fill="none" stroke="#bfbfbf" points="0,-358.5 0,-415.5 91,-415.5 91,-358.5 0,-358.5"/>
<text text-anchor="middle" x="45.5" y="-403.5" font-family="Helvetica,sans-Serif" font-size="10.00" fill="#000000">vector&lt; char &gt;</text>
<polyline fill="none" stroke="#bfbfbf" points="0,-396.5 91,-396.5 "/>
<text text-anchor="middle" x="45.5" y="-384.5" font-family="Helvetica,sans-Serif" font-size="10.00" fill="#000000"> </text>
<polyline fill="none" stroke="#bfbfbf" points="0,-377.5 91,-377.5 "/>
<text text-anchor="middle" x="45.5" y="-365.5" font-family="Helvetica,sans-Serif" font-size="10.00" fill="#000000"> </text>
</g>
<!-- Node2&#45;&gt;Node1 -->
<g id="edge1" class="edge">
<title>Node2&#45;&gt;Node1</title>
<path fill="none" stroke="#404040" d="M49.9222,-358.4121C53.1013,-337.9586 57.5126,-309.776 61.5,-285 61.8501,-282.8246 62.2037,-280.6317 62.5601,-278.4247"/>
<polygon fill="none" stroke="#404040" points="62.5716,-278.3531 59.5824,-271.7907 64.4902,-266.5074 67.4795,-273.0698 62.5716,-278.3531"/>
<text text-anchor="middle" x="84" y="-310" font-family="Helvetica,sans-Serif" font-size="10.00" fill="#000000"> #mData</text>
</g>
<!-- Node3 -->
<g id="node3" class="node">
<title>Node3</title>
<polygon fill="none" stroke="#bfbfbf" points="109.5,-358.5 109.5,-415.5 147.5,-415.5 147.5,-358.5 109.5,-358.5"/>
<text text-anchor="middle" x="128.5" y="-403.5" font-family="Helvetica,sans-Serif" font-size="10.00" fill="#000000">Int_t</text>
<polyline fill="none" stroke="#bfbfbf" points="109.5,-396.5 147.5,-396.5 "/>
<text text-anchor="middle" x="128.5" y="-384.5" font-family="Helvetica,sans-Serif" font-size="10.00" fill="#000000"> </text>
<polyline fill="none" stroke="#bfbfbf" points="109.5,-377.5 147.5,-377.5 "/>
<text text-anchor="middle" x="128.5" y="-365.5" font-family="Helvetica,sans-Serif" font-size="10.00" fill="#000000"> </text>
</g>
<!-- Node3&#45;&gt;Node1 -->
<g id="edge2" class="edge">
<title>Node3&#45;&gt;Node1</title>
<path fill="none" stroke="#404040" d="M123.7637,-358.4131C120.402,-338.1228 115.6076,-309.185 110.5723,-278.7935"/>
<polygon fill="none" stroke="#404040" points="110.5187,-278.4693 105.5917,-273.2038 108.5572,-266.6307 113.4841,-271.8962 110.5187,-278.4693"/>
<text text-anchor="middle" x="154.5" y="-332" font-family="Helvetica,sans-Serif" font-size="10.00" fill="#000000"> #mNrows</text>
<text text-anchor="middle" x="154.5" y="-321" font-family="Helvetica,sans-Serif" font-size="10.00" fill="#000000">#mCha</text>
<text text-anchor="middle" x="154.5" y="-310" font-family="Helvetica,sans-Serif" font-size="10.00" fill="#000000">#mNchannels</text>
<text text-anchor="middle" x="154.5" y="-299" font-family="Helvetica,sans-Serif" font-size="10.00" fill="#000000">#mNcols</text>
<text text-anchor="middle" x="154.5" y="-288" font-family="Helvetica,sans-Serif" font-size="10.00" fill="#000000">#mPla</text>
</g>
</g>
</svg>
