<?xml version="1.0" encoding="UTF-8" standalone="no"?>
<!DOCTYPE svg PUBLIC "-//W3C//DTD SVG 1.1//EN"
 "http://www.w3.org/Graphics/SVG/1.1/DTD/svg11.dtd">
<!-- Generated by graphviz version 2.40.1 (20161225.0304)
 -->
<!-- Title: /home/travis/build/AliceO2Group/AliceO2/GPU/GPUTracking/Standalone/display/GPUDisplayBackend.cxx Pages: 1 -->
<svg width="414pt" height="509pt"
 viewBox="0.00 0.00 414.22 509.00" xmlns="http://www.w3.org/2000/svg" xmlns:xlink="http://www.w3.org/1999/xlink">
<g id="graph0" class="graph" transform="scale(1 1) rotate(0) translate(4 505)">
<title>/home/travis/build/AliceO2Group/AliceO2/GPU/GPUTracking/Standalone/display/GPUDisplayBackend.cxx</title>
<!-- Node0 -->
<g id="node1" class="node">
<title>Node0</title>
<polygon fill="#bfbfbf" stroke="#000000" points="73,-448.5 73,-500.5 251,-500.5 251,-448.5 73,-448.5"/>
<text text-anchor="start" x="81" y="-488.5" font-family="Helvetica,sans-Serif" font-size="10.00" fill="#000000">/home/travis/build</text>
<text text-anchor="start" x="81" y="-477.5" font-family="Helvetica,sans-Serif" font-size="10.00" fill="#000000">/AliceO2Group/AliceO2</text>
<text text-anchor="start" x="81" y="-466.5" font-family="Helvetica,sans-Serif" font-size="10.00" fill="#000000">/GPU/GPUTracking/Standalone</text>
<text text-anchor="middle" x="162" y="-455.5" font-family="Helvetica,sans-Serif" font-size="10.00" fill="#000000">/display/GPUDisplayBackend.cxx</text>
</g>
<!-- Node1 -->
<g id="node2" class="node">
<title>Node1</title>
<g id="a_node2"><a xlink:href="../../d7/dba/GPUDisplayBackend_8h.html" target="_top" xlink:title="GPUDisplayBackend.h">
<polygon fill="none" stroke="#000000" points="65.5,-336.5 65.5,-355.5 190.5,-355.5 190.5,-336.5 65.5,-336.5"/>
<text text-anchor="middle" x="128" y="-343.5" font-family="Helvetica,sans-Serif" font-size="10.00" fill="#000000">GPUDisplayBackend.h</text>
</a>
</g>
</g>
<!-- Node0&#45;&gt;Node1 -->
<g id="edge1" class="edge">
<title>Node0&#45;&gt;Node1</title>
<path fill="none" stroke="#191970" d="M155.1196,-448.4961C148.6125,-423.9033 138.9955,-387.5564 133.1337,-365.4024"/>
<polygon fill="#191970" stroke="#191970" points="136.4589,-364.2862 130.5174,-355.5142 129.6918,-366.0768 136.4589,-364.2862"/>
</g>
<!-- Node5 -->
<g id="node6" class="node">
<title>Node5</title>
<g id="a_node6"><a xlink:href="../../dc/d69/GPUDisplay_8h.html" target="_top" xlink:title="GPUDisplay.h">
<polygon fill="none" stroke="#000000" points="156,-392.5 156,-411.5 238,-411.5 238,-392.5 156,-392.5"/>
<text text-anchor="middle" x="197" y="-399.5" font-family="Helvetica,sans-Serif" font-size="10.00" fill="#000000">GPUDisplay.h</text>
</a>
</g>
</g>
<!-- Node0&#45;&gt;Node5 -->
<g id="edge5" class="edge">
<title>Node0&#45;&gt;Node5</title>
<path fill="none" stroke="#191970" d="M174.6358,-448.3258C179.0347,-439.2138 183.8791,-429.179 187.9311,-420.7857"/>
<polygon fill="#191970" stroke="#191970" points="191.2018,-422.0612 192.3974,-411.534 184.8979,-419.0179 191.2018,-422.0612"/>
</g>
<!-- Node2 -->
<g id="node3" class="node">
<title>Node2</title>
<g id="a_node3"><a xlink:href="../../df/d21/GPUCommonDef_8h.html" target="_top" xlink:title="GPUCommonDef.h">
<polygon fill="none" stroke="#000000" points="97.5,-56.5 97.5,-75.5 204.5,-75.5 204.5,-56.5 97.5,-56.5"/>
<text text-anchor="middle" x="151" y="-63.5" font-family="Helvetica,sans-Serif" font-size="10.00" fill="#000000">GPUCommonDef.h</text>
</a>
</g>
</g>
<!-- Node1&#45;&gt;Node2 -->
<g id="edge2" class="edge">
<title>Node1&#45;&gt;Node2</title>
<path fill="none" stroke="#191970" d="M125.8509,-336.4693C121.7032,-317.2151 113,-272.2552 113,-234 113,-234 113,-234 113,-178 113,-143.6118 129.2634,-106.2832 140.511,-84.5791"/>
<polygon fill="#191970" stroke="#191970" points="143.7317,-85.9804 145.393,-75.5166 137.569,-82.6605 143.7317,-85.9804"/>
</g>
<!-- Node3 -->
<g id="node4" class="node">
<title>Node3</title>
<g id="a_node4"><a xlink:href="../../d5/d93/GPUCommonDefSettings_8h.html" target="_top" xlink:title="GPUCommonDefSettings.h">
<polygon fill="none" stroke="#000000" points="0,-.5 0,-19.5 148,-19.5 148,-.5 0,-.5"/>
<text text-anchor="middle" x="74" y="-7.5" font-family="Helvetica,sans-Serif" font-size="10.00" fill="#000000">GPUCommonDefSettings.h</text>
</a>
</g>
</g>
<!-- Node2&#45;&gt;Node3 -->
<g id="edge3" class="edge">
<title>Node2&#45;&gt;Node3</title>
<path fill="none" stroke="#191970" d="M137.5876,-56.2455C125.9943,-47.814 109.0252,-35.4729 95.5322,-25.6598"/>
<polygon fill="#191970" stroke="#191970" points="97.4047,-22.6938 87.2587,-19.6427 93.2874,-28.355 97.4047,-22.6938"/>
</g>
<!-- Node4 -->
<g id="node5" class="node">
<title>Node4</title>
<g id="a_node5"><a xlink:href="../../da/d5a/GPUCommonDefAPI_8h.html" target="_top" xlink:title="GPUCommonDefAPI.h">
<polygon fill="none" stroke="#000000" points="166,-.5 166,-19.5 290,-19.5 290,-.5 166,-.5"/>
<text text-anchor="middle" x="228" y="-7.5" font-family="Helvetica,sans-Serif" font-size="10.00" fill="#000000">GPUCommonDefAPI.h</text>
</a>
</g>
</g>
<!-- Node2&#45;&gt;Node4 -->
<g id="edge4" class="edge">
<title>Node2&#45;&gt;Node4</title>
<path fill="none" stroke="#191970" d="M164.4124,-56.2455C176.0057,-47.814 192.9748,-35.4729 206.4678,-25.6598"/>
<polygon fill="#191970" stroke="#191970" points="208.7126,-28.355 214.7413,-19.6427 204.5953,-22.6938 208.7126,-28.355"/>
</g>
<!-- Node5&#45;&gt;Node1 -->
<g id="edge16" class="edge">
<title>Node5&#45;&gt;Node1</title>
<path fill="none" stroke="#191970" d="M184.9811,-392.2455C174.7902,-383.9746 159.9638,-371.9416 147.9893,-362.2232"/>
<polygon fill="#191970" stroke="#191970" points="149.8514,-359.2268 139.8812,-355.6427 145.4402,-364.662 149.8514,-359.2268"/>
</g>
<!-- Node6 -->
<g id="node7" class="node">
<title>Node6</title>
<g id="a_node7"><a xlink:href="../../dd/dc6/GPUSettings_8h.html" target="_top" xlink:title="GPUSettings.h">
<polygon fill="none" stroke="#000000" points="216,-336.5 216,-355.5 302,-355.5 302,-336.5 216,-336.5"/>
<text text-anchor="middle" x="259" y="-343.5" font-family="Helvetica,sans-Serif" font-size="10.00" fill="#000000">GPUSettings.h</text>
</a>
</g>
</g>
<!-- Node5&#45;&gt;Node6 -->
<g id="edge6" class="edge">
<title>Node5&#45;&gt;Node6</title>
<path fill="none" stroke="#191970" d="M207.7996,-392.2455C216.8678,-384.0549 230.0206,-372.1749 240.7245,-362.5069"/>
<polygon fill="#191970" stroke="#191970" points="243.2491,-364.9429 248.3242,-355.6427 238.5571,-359.7482 243.2491,-364.9429"/>
</g>
<!-- Node6&#45;&gt;Node2 -->
<g id="edge7" class="edge">
<title>Node6&#45;&gt;Node2</title>
<path fill="none" stroke="#191970" d="M227.2779,-336.4135C208.4573,-329.2081 185.5144,-317.5258 171,-300 151.45,-276.3938 151,-264.6506 151,-234 151,-234 151,-234 151,-178 151,-145.7116 151,-108.1872 151,-85.8048"/>
<polygon fill="#191970" stroke="#191970" points="154.5001,-85.5883 151,-75.5884 147.5001,-85.5884 154.5001,-85.5883"/>
</g>
<!-- Node7 -->
<g id="node8" class="node">
<title>Node7</title>
<polygon fill="none" stroke="#bfbfbf" points="179.5,-280.5 179.5,-299.5 226.5,-299.5 226.5,-280.5 179.5,-280.5"/>
<text text-anchor="middle" x="203" y="-287.5" font-family="Helvetica,sans-Serif" font-size="10.00" fill="#000000">vector</text>
</g>
<!-- Node6&#45;&gt;Node7 -->
<g id="edge8" class="edge">
<title>Node6&#45;&gt;Node7</title>
<path fill="none" stroke="#191970" d="M249.2455,-336.2455C241.1352,-328.1352 229.4075,-316.4075 219.7919,-306.7919"/>
<polygon fill="#191970" stroke="#191970" points="222.1887,-304.2389 212.6427,-299.6427 217.2389,-309.1887 222.1887,-304.2389"/>
</g>
<!-- Node8 -->
<g id="node9" class="node">
<title>Node8</title>
<polygon fill="none" stroke="#bfbfbf" points="245,-280.5 245,-299.5 289,-299.5 289,-280.5 245,-280.5"/>
<text text-anchor="middle" x="267" y="-287.5" font-family="Helvetica,sans-Serif" font-size="10.00" fill="#000000">string</text>
</g>
<!-- Node6&#45;&gt;Node8 -->
<g id="edge9" class="edge">
<title>Node6&#45;&gt;Node8</title>
<path fill="none" stroke="#191970" d="M260.3935,-336.2455C261.4374,-328.9382 262.9008,-318.6944 264.1851,-309.7046"/>
<polygon fill="#191970" stroke="#191970" points="267.673,-310.0372 265.6225,-299.6427 260.7434,-309.0472 267.673,-310.0372"/>
</g>
<!-- Node9 -->
<g id="node10" class="node">
<title>Node9</title>
<g id="a_node10"><a xlink:href="../../da/d08/qconfig_8h.html" target="_top" xlink:title="utils/qconfig.h">
<polygon fill="none" stroke="#000000" points="307.5,-280.5 307.5,-299.5 392.5,-299.5 392.5,-280.5 307.5,-280.5"/>
<text text-anchor="middle" x="350" y="-287.5" font-family="Helvetica,sans-Serif" font-size="10.00" fill="#000000">utils/qconfig.h</text>
</a>
</g>
</g>
<!-- Node6&#45;&gt;Node9 -->
<g id="edge10" class="edge">
<title>Node6&#45;&gt;Node9</title>
<path fill="none" stroke="#191970" d="M274.851,-336.2455C288.8132,-327.6534 309.3728,-315.0014 325.4596,-305.1018"/>
<polygon fill="#191970" stroke="#191970" points="327.6484,-307.8645 334.3307,-299.6427 323.9797,-301.9029 327.6484,-307.8645"/>
</g>
<!-- Node10 -->
<g id="node11" class="node">
<title>Node10</title>
<g id="a_node11"><a xlink:href="../../d8/de9/qconfigoptions_8h.html" target="_top" xlink:title="qconfigoptions.h">
<polygon fill="none" stroke="#000000" points="301.5,-224.5 301.5,-243.5 398.5,-243.5 398.5,-224.5 301.5,-224.5"/>
<text text-anchor="middle" x="350" y="-231.5" font-family="Helvetica,sans-Serif" font-size="10.00" fill="#000000">qconfigoptions.h</text>
</a>
</g>
</g>
<!-- Node9&#45;&gt;Node10 -->
<g id="edge11" class="edge">
<title>Node9&#45;&gt;Node10</title>
<path fill="none" stroke="#191970" d="M350,-280.2455C350,-272.9382 350,-262.6944 350,-253.7046"/>
<polygon fill="#191970" stroke="#191970" points="353.5001,-253.6426 350,-243.6427 346.5001,-253.6427 353.5001,-253.6426"/>
</g>
<!-- Node10&#45;&gt;Node6 -->
<g id="edge12" class="edge">
<title>Node10&#45;&gt;Node6</title>
<path fill="none" stroke="#191970" d="M367.1892,-243.6629C387.5542,-256.3687 416.9494,-279.4873 402,-300 391.0839,-314.9784 348.2068,-327.5046 312.2246,-335.6842"/>
<polygon fill="#191970" stroke="#191970" points="311.3028,-332.3033 302.2909,-337.8745 312.81,-339.1392 311.3028,-332.3033"/>
</g>
<!-- Node11 -->
<g id="node12" class="node">
<title>Node11</title>
<g id="a_node12"><a xlink:href="../../d4/d57/GPUSettingsList_8h.html" target="_top" xlink:title="GPUSettingsList.h">
<polygon fill="none" stroke="#000000" points="256,-168.5 256,-187.5 360,-187.5 360,-168.5 256,-168.5"/>
<text text-anchor="middle" x="308" y="-175.5" font-family="Helvetica,sans-Serif" font-size="10.00" fill="#000000">GPUSettingsList.h</text>
</a>
</g>
</g>
<!-- Node10&#45;&gt;Node11 -->
<g id="edge13" class="edge">
<title>Node10&#45;&gt;Node11</title>
<path fill="none" stroke="#191970" d="M342.6842,-224.2455C336.7821,-216.3761 328.3258,-205.101 321.2406,-195.6542"/>
<polygon fill="#191970" stroke="#191970" points="324.0321,-193.5427 315.232,-187.6427 318.432,-197.7427 324.0321,-193.5427"/>
</g>
<!-- Node12 -->
<g id="node13" class="node">
<title>Node12</title>
<g id="a_node13"><a xlink:href="../../d2/d37/GPUDefConstantsAndSettings_8h.html" target="_top" xlink:title="GPUDefConstantsAndSettings.h">
<polygon fill="none" stroke="#000000" points="201.5,-112.5 201.5,-131.5 372.5,-131.5 372.5,-112.5 201.5,-112.5"/>
<text text-anchor="middle" x="287" y="-119.5" font-family="Helvetica,sans-Serif" font-size="10.00" fill="#000000">GPUDefConstantsAndSettings.h</text>
</a>
</g>
</g>
<!-- Node11&#45;&gt;Node12 -->
<g id="edge14" class="edge">
<title>Node11&#45;&gt;Node12</title>
<path fill="none" stroke="#191970" d="M304.3421,-168.2455C301.5416,-160.7776 297.591,-150.2427 294.1676,-141.1137"/>
<polygon fill="#191970" stroke="#191970" points="297.4045,-139.777 290.616,-131.6427 290.8501,-142.2349 297.4045,-139.777"/>
</g>
<!-- Node12&#45;&gt;Node2 -->
<g id="edge15" class="edge">
<title>Node12&#45;&gt;Node2</title>
<path fill="none" stroke="#191970" d="M263.6208,-112.3733C241.4955,-103.2629 208.0866,-89.5062 183.3981,-79.3404"/>
<polygon fill="#191970" stroke="#191970" points="184.6536,-76.0723 174.0742,-75.5011 181.9883,-82.5451 184.6536,-76.0723"/>
</g>
</g>
</svg>
