<?xml version="1.0" encoding="UTF-8" standalone="no"?>
<!DOCTYPE svg PUBLIC "-//W3C//DTD SVG 1.1//EN"
 "http://www.w3.org/Graphics/SVG/1.1/DTD/svg11.dtd">
<!-- Generated by graphviz version 2.40.1 (20161225.0304)
 -->
<!-- Title: /home/travis/build/AliceO2Group/AliceO2/Framework/Core/src/TableBuilder.cxx Pages: 1 -->
<svg width="3037pt" height="587pt"
 viewBox="0.00 0.00 3036.76 587.00" xmlns="http://www.w3.org/2000/svg" xmlns:xlink="http://www.w3.org/1999/xlink">
<g id="graph0" class="graph" transform="scale(1 1) rotate(0) translate(4 583)">
<title>/home/travis/build/AliceO2Group/AliceO2/Framework/Core/src/TableBuilder.cxx</title>
<!-- Node0 -->
<g id="node1" class="node">
<title>Node0</title>
<polygon fill="#bfbfbf" stroke="#000000" points="1513.7571,-537.5 1513.7571,-578.5 1712.7571,-578.5 1712.7571,-537.5 1513.7571,-537.5"/>
<text text-anchor="start" x="1521.7571" y="-566.5" font-family="Helvetica,sans-Serif" font-size="10.00" fill="#000000">/home/travis/build</text>
<text text-anchor="start" x="1521.7571" y="-555.5" font-family="Helvetica,sans-Serif" font-size="10.00" fill="#000000">/AliceO2Group/AliceO2</text>
<text text-anchor="middle" x="1613.2571" y="-544.5" font-family="Helvetica,sans-Serif" font-size="10.00" fill="#000000">/Framework/Core/src/TableBuilder.cxx</text>
</g>
<!-- Node1 -->
<g id="node2" class="node">
<title>Node1</title>
<g id="a_node2"><a xlink:href="../../d5/d98/TableBuilder_8h.html" target="_top" xlink:title="Framework/TableBuilder.h">
<polygon fill="none" stroke="#000000" points="480.2571,-481.5 480.2571,-500.5 622.2571,-500.5 622.2571,-481.5 480.2571,-481.5"/>
<text text-anchor="middle" x="551.2571" y="-488.5" font-family="Helvetica,sans-Serif" font-size="10.00" fill="#000000">Framework/TableBuilder.h</text>
</a>
</g>
</g>
<!-- Node0&#45;&gt;Node1 -->
<g id="edge1" class="edge">
<title>Node0&#45;&gt;Node1</title>
<path fill="none" stroke="#191970" d="M1513.3467,-551.6968C1304.224,-538.5036 823.9476,-508.2036 632.3462,-496.1158"/>
<polygon fill="#191970" stroke="#191970" points="632.5425,-492.6213 622.3419,-495.4846 632.1017,-499.6074 632.5425,-492.6213"/>
</g>
<!-- Node33 -->
<g id="node34" class="node">
<title>Node33</title>
<polygon fill="none" stroke="#bfbfbf" points="678.2571,-252 678.2571,-271 736.2571,-271 736.2571,-252 678.2571,-252"/>
<text text-anchor="middle" x="707.2571" y="-259" font-family="Helvetica,sans-Serif" font-size="10.00" fill="#000000">memory</text>
</g>
<!-- Node0&#45;&gt;Node33 -->
<g id="edge100" class="edge">
<title>Node0&#45;&gt;Node33</title>
<path fill="none" stroke="#191970" d="M1513.7001,-554.79C1171.006,-543.2529 58.3846,-501.5558 8.2571,-445 -16.0873,-417.5337 19.5386,-386.0499 46.2571,-369 151.0143,-302.1512 541.726,-271.9865 667.781,-263.8535"/>
<polygon fill="#191970" stroke="#191970" points="668.3564,-267.3242 678.1148,-263.1982 667.9133,-260.3382 668.3564,-267.3242"/>
</g>
<!-- Node42 -->
<g id="node43" class="node">
<title>Node42</title>
<polygon fill="none" stroke="#bfbfbf" points="2947.7571,-313.5 2947.7571,-332.5 3028.7571,-332.5 3028.7571,-313.5 2947.7571,-313.5"/>
<text text-anchor="middle" x="2988.2571" y="-320.5" font-family="Helvetica,sans-Serif" font-size="10.00" fill="#000000">arrow/table.h</text>
</g>
<!-- Node0&#45;&gt;Node42 -->
<g id="edge104" class="edge">
<title>Node0&#45;&gt;Node42</title>
<path fill="none" stroke="#191970" d="M1712.9739,-540.9575C1985.4654,-494.3862 2735.7171,-366.1614 2937.6455,-331.65"/>
<polygon fill="#191970" stroke="#191970" points="2938.4082,-335.0705 2947.6756,-329.9357 2937.2288,-328.1705 2938.4082,-335.0705"/>
</g>
<!-- Node56 -->
<g id="node57" class="node">
<title>Node56</title>
<polygon fill="none" stroke="#bfbfbf" points="1399.7571,-425.5 1399.7571,-444.5 1508.7571,-444.5 1508.7571,-425.5 1399.7571,-425.5"/>
<text text-anchor="middle" x="1454.2571" y="-432.5" font-family="Helvetica,sans-Serif" font-size="10.00" fill="#000000">arrow/type_traits.h</text>
</g>
<!-- Node0&#45;&gt;Node56 -->
<g id="edge105" class="edge">
<title>Node0&#45;&gt;Node56</title>
<path fill="none" stroke="#191970" d="M1586.6441,-537.4126C1555.0779,-512.9935 1503.1531,-472.8252 1474.6176,-450.7506"/>
<polygon fill="#191970" stroke="#191970" points="1476.6122,-447.8686 1466.561,-444.5182 1472.3291,-453.4053 1476.6122,-447.8686"/>
</g>
<!-- Node58 -->
<g id="node59" class="node">
<title>Node58</title>
<polygon fill="none" stroke="#bfbfbf" points="1527.2571,-425.5 1527.2571,-444.5 1613.2571,-444.5 1613.2571,-425.5 1527.2571,-425.5"/>
<text text-anchor="middle" x="1570.2571" y="-432.5" font-family="Helvetica,sans-Serif" font-size="10.00" fill="#000000">arrow/status.h</text>
</g>
<!-- Node0&#45;&gt;Node58 -->
<g id="edge106" class="edge">
<title>Node0&#45;&gt;Node58</title>
<path fill="none" stroke="#191970" d="M1606.0599,-537.4126C1597.9279,-514.1513 1584.7998,-476.5989 1576.9025,-454.0089"/>
<polygon fill="#191970" stroke="#191970" points="1580.1886,-452.8029 1573.5846,-444.5182 1573.5808,-455.113 1580.1886,-452.8029"/>
</g>
<!-- Node59 -->
<g id="node60" class="node">
<title>Node59</title>
<polygon fill="none" stroke="#bfbfbf" points="1631.2571,-425.5 1631.2571,-444.5 1755.2571,-444.5 1755.2571,-425.5 1631.2571,-425.5"/>
<text text-anchor="middle" x="1693.2571" y="-432.5" font-family="Helvetica,sans-Serif" font-size="10.00" fill="#000000">arrow/memory_pool.h</text>
</g>
<!-- Node0&#45;&gt;Node59 -->
<g id="edge102" class="edge">
<title>Node0&#45;&gt;Node59</title>
<path fill="none" stroke="#191970" d="M1626.6473,-537.4126C1641.982,-513.8355 1666.8657,-475.5767 1681.4865,-453.0973"/>
<polygon fill="#191970" stroke="#191970" points="1684.5481,-454.8094 1687.0664,-444.5182 1678.6801,-450.9927 1684.5481,-454.8094"/>
</g>
<!-- Node61 -->
<g id="node62" class="node">
<title>Node61</title>
<polygon fill="none" stroke="#bfbfbf" points="1773.7571,-425.5 1773.7571,-444.5 1862.7571,-444.5 1862.7571,-425.5 1773.7571,-425.5"/>
<text text-anchor="middle" x="1818.2571" y="-432.5" font-family="Helvetica,sans-Serif" font-size="10.00" fill="#000000">arrow/builder.h</text>
</g>
<!-- Node0&#45;&gt;Node61 -->
<g id="edge101" class="edge">
<title>Node0&#45;&gt;Node61</title>
<path fill="none" stroke="#191970" d="M1647.5695,-537.4126C1688.7942,-512.6777 1756.9508,-471.7838 1793.4181,-449.9034"/>
<polygon fill="#191970" stroke="#191970" points="1795.6193,-452.6644 1802.3935,-444.5182 1792.0178,-446.6619 1795.6193,-452.6644"/>
</g>
<!-- Node62 -->
<g id="node63" class="node">
<title>Node62</title>
<polygon fill="none" stroke="#bfbfbf" points="2156.7571,-481.5 2156.7571,-500.5 2275.7571,-500.5 2275.7571,-481.5 2156.7571,-481.5"/>
<text text-anchor="middle" x="2216.2571" y="-488.5" font-family="Helvetica,sans-Serif" font-size="10.00" fill="#000000">arrow/record_batch.h</text>
</g>
<!-- Node0&#45;&gt;Node62 -->
<g id="edge103" class="edge">
<title>Node0&#45;&gt;Node62</title>
<path fill="none" stroke="#191970" d="M1712.797,-548.0835C1819.1967,-537.2944 1992.7887,-519.1485 2142.2571,-501 2143.5601,-500.8418 2144.8758,-500.6804 2146.2012,-500.5165"/>
<polygon fill="#191970" stroke="#191970" points="2147.0177,-503.9412 2156.5004,-499.216 2146.1407,-496.9964 2147.0177,-503.9412"/>
</g>
<!-- Node2 -->
<g id="node3" class="node">
<title>Node2</title>
<g id="a_node3"><a xlink:href="../../de/d33/ASoA_8h.html" target="_top" xlink:title="Framework/ASoA.h">
<polygon fill="none" stroke="#000000" points="1061.2571,-425.5 1061.2571,-444.5 1169.2571,-444.5 1169.2571,-425.5 1061.2571,-425.5"/>
<text text-anchor="middle" x="1115.2571" y="-432.5" font-family="Helvetica,sans-Serif" font-size="10.00" fill="#000000">Framework/ASoA.h</text>
</a>
</g>
</g>
<!-- Node1&#45;&gt;Node2 -->
<g id="edge2" class="edge">
<title>Node1&#45;&gt;Node2</title>
<path fill="none" stroke="#191970" d="M622.4023,-483.9359C733.0273,-472.9519 944.5881,-451.9459 1050.9079,-441.3893"/>
<polygon fill="#191970" stroke="#191970" points="1051.5662,-444.8412 1061.1714,-440.3702 1050.8745,-437.8755 1051.5662,-444.8412"/>
</g>
<!-- Node8 -->
<g id="node9" class="node">
<title>Node8</title>
<g id="a_node9"><a xlink:href="../../de/d9b/FunctionalHelpers_8h.html" target="_top" xlink:title="Framework/FunctionalHelpers.h">
<polygon fill="none" stroke="#000000" points="579.2571,-369.5 579.2571,-388.5 749.2571,-388.5 749.2571,-369.5 579.2571,-369.5"/>
<text text-anchor="middle" x="664.2571" y="-376.5" font-family="Helvetica,sans-Serif" font-size="10.00" fill="#000000">Framework/FunctionalHelpers.h</text>
</a>
</g>
</g>
<!-- Node1&#45;&gt;Node8 -->
<g id="edge83" class="edge">
<title>Node1&#45;&gt;Node8</title>
<path fill="none" stroke="#191970" d="M560.8914,-481.4509C580.072,-462.4401 623.2519,-419.6423 647.2909,-395.816"/>
<polygon fill="#191970" stroke="#191970" points="650.0086,-398.0503 654.6472,-388.5249 645.0808,-393.0786 650.0086,-398.0503"/>
</g>
<!-- Node9 -->
<g id="node10" class="node">
<title>Node9</title>
<polygon fill="none" stroke="#bfbfbf" points="518.7571,-313.5 518.7571,-332.5 583.7571,-332.5 583.7571,-313.5 518.7571,-313.5"/>
<text text-anchor="middle" x="551.2571" y="-320.5" font-family="Helvetica,sans-Serif" font-size="10.00" fill="#000000">functional</text>
</g>
<!-- Node1&#45;&gt;Node9 -->
<g id="edge94" class="edge">
<title>Node1&#45;&gt;Node9</title>
<path fill="none" stroke="#191970" d="M551.2571,-481.4862C551.2571,-454.9293 551.2571,-379.5651 551.2571,-343.1655"/>
<polygon fill="#191970" stroke="#191970" points="554.7572,-342.8278 551.2571,-332.8279 547.7572,-342.8279 554.7572,-342.8278"/>
</g>
<!-- Node12 -->
<g id="node13" class="node">
<title>Node12</title>
<polygon fill="none" stroke="#bfbfbf" points="265.7571,-.5 265.7571,-19.5 334.7571,-19.5 334.7571,-.5 265.7571,-.5"/>
<text text-anchor="middle" x="300.2571" y="-7.5" font-family="Helvetica,sans-Serif" font-size="10.00" fill="#000000">type_traits</text>
</g>
<!-- Node1&#45;&gt;Node12 -->
<g id="edge99" class="edge">
<title>Node1&#45;&gt;Node12</title>
<path fill="none" stroke="#191970" d="M480.2214,-486.7717C399.665,-480.9345 274.1898,-468.3745 233.2571,-445 172.8613,-410.5111 135.2571,-392.5495 135.2571,-323 135.2571,-323 135.2571,-323 135.2571,-127.5 135.2571,-68.1149 207.0513,-35.9484 255.924,-20.9314"/>
<polygon fill="#191970" stroke="#191970" points="257.0599,-24.2456 265.6677,-18.0685 255.0866,-17.5295 257.0599,-24.2456"/>
</g>
<!-- Node16 -->
<g id="node17" class="node">
<title>Node16</title>
<polygon fill="none" stroke="#bfbfbf" points="1858.2571,-.5 1858.2571,-19.5 1902.2571,-19.5 1902.2571,-.5 1858.2571,-.5"/>
<text text-anchor="middle" x="1880.2571" y="-7.5" font-family="Helvetica,sans-Serif" font-size="10.00" fill="#000000">string</text>
</g>
<!-- Node1&#45;&gt;Node16 -->
<g id="edge96" class="edge">
<title>Node1&#45;&gt;Node16</title>
<path fill="none" stroke="#191970" d="M543.7733,-481.1443C522.4417,-451.7881 465.6019,-363.8194 509.2571,-313 578.3948,-232.5161 648.2829,-320.0544 745.2571,-277 765.1779,-268.1556 763.7592,-255.7413 783.2571,-246 1005.2366,-135.0974 1084.1758,-170.772 1325.2571,-112 1428.7312,-86.7746 1453.6468,-75.9975 1558.2571,-56 1663.4724,-35.8868 1789.5599,-20.3239 1847.8174,-13.6114"/>
<polygon fill="#191970" stroke="#191970" points="1848.3472,-17.0737 1857.8856,-12.4619 1847.5531,-10.1189 1848.3472,-17.0737"/>
</g>
<!-- Node18 -->
<g id="node19" class="node">
<title>Node18</title>
<g id="a_node19"><a xlink:href="../../d1/d76/RuntimeError_8h.html" target="_top" xlink:title="Framework/RuntimeError.h">
<polygon fill="none" stroke="#000000" points="539.2571,-.5 539.2571,-19.5 685.2571,-19.5 685.2571,-.5 539.2571,-.5"/>
<text text-anchor="middle" x="612.2571" y="-7.5" font-family="Helvetica,sans-Serif" font-size="10.00" fill="#000000">Framework/RuntimeError.h</text>
</a>
</g>
</g>
<!-- Node1&#45;&gt;Node18 -->
<g id="edge86" class="edge">
<title>Node1&#45;&gt;Node18</title>
<path fill="none" stroke="#191970" d="M523.1301,-481.4789C503.9622,-473.9089 478.9493,-461.7903 461.2571,-445 432.9464,-418.1325 438.6229,-401.6628 417.2571,-369 384.7997,-319.3812 338.2571,-320.7917 338.2571,-261.5 338.2571,-261.5 338.2571,-261.5 338.2571,-194.5 338.2571,-91.5194 473.0718,-42.2306 553.5711,-21.979"/>
<polygon fill="#191970" stroke="#191970" points="554.7003,-25.3063 563.5871,-19.5379 553.0427,-18.5054 554.7003,-25.3063"/>
</g>
<!-- Node25 -->
<g id="node26" class="node">
<title>Node25</title>
<polygon fill="none" stroke="#bfbfbf" points="1166.7571,-.5 1166.7571,-19.5 1213.7571,-19.5 1213.7571,-.5 1166.7571,-.5"/>
<text text-anchor="middle" x="1190.2571" y="-7.5" font-family="Helvetica,sans-Serif" font-size="10.00" fill="#000000">vector</text>
</g>
<!-- Node1&#45;&gt;Node25 -->
<g id="edge95" class="edge">
<title>Node1&#45;&gt;Node25</title>
<path fill="none" stroke="#191970" d="M535.5869,-481.2563C523.7443,-473.0515 508.0703,-460.2317 499.2571,-445 469.4331,-393.4558 447.0544,-364.8987 476.2571,-313 560.6576,-163.0044 647.3228,-175.5858 807.2571,-112 878.2164,-83.7884 902.7445,-99.9382 975.2571,-76 995.6553,-69.266 999.0123,-63.1819 1019.2571,-56 1076.0784,-35.8423 1094.4617,-37.0176 1156.5742,-20.0784"/>
<polygon fill="#191970" stroke="#191970" points="1157.7987,-23.3708 1166.4966,-17.3211 1155.9245,-16.6264 1157.7987,-23.3708"/>
</g>
<!-- Node1&#45;&gt;Node33 -->
<g id="edge97" class="edge">
<title>Node1&#45;&gt;Node33</title>
<path fill="none" stroke="#191970" d="M480.1049,-490.1175C341.6939,-487.6589 47.0054,-478.5055 16.2571,-445 10.2469,-438.4509 11.0104,-432.1753 16.2571,-425 117.295,-286.8224 222.6352,-367.7078 390.2571,-333 428.6842,-325.0433 437.9946,-321.7141 476.2571,-313 543.6723,-297.6465 622.2685,-280.2258 668.2189,-270.0893"/>
<polygon fill="#191970" stroke="#191970" points="669.0535,-273.4894 678.0655,-267.9184 667.5464,-266.6535 669.0535,-273.4894"/>
</g>
<!-- Node1&#45;&gt;Node42 -->
<g id="edge92" class="edge">
<title>Node1&#45;&gt;Node42</title>
<path fill="none" stroke="#191970" d="M622.3114,-488.5971C805.0788,-482.1779 1282.0403,-463.8321 1351.2571,-445 1370.0535,-439.886 1371.4538,-430.0887 1390.2571,-425 1672.5407,-348.6066 1759.1549,-439.1708 2047.2571,-389 2077.8725,-383.6686 2083.6157,-374.1801 2114.2571,-369 2466.0685,-309.5243 2560.9441,-365.5778 2916.2571,-333 2923.0964,-332.3729 2930.2818,-331.5605 2937.3569,-330.67"/>
<polygon fill="#191970" stroke="#191970" points="2938.1336,-334.098 2947.5907,-329.3217 2937.2192,-327.1579 2938.1336,-334.098"/>
</g>
<!-- Node53 -->
<g id="node54" class="node">
<title>Node53</title>
<g id="a_node54"><a xlink:href="../../db/d4f/StructToTuple_8h.html" target="_top" xlink:title="Framework/StructToTuple.h">
<polygon fill="none" stroke="#000000" points="261.7571,-425.5 261.7571,-444.5 408.7571,-444.5 408.7571,-425.5 261.7571,-425.5"/>
<text text-anchor="middle" x="335.2571" y="-432.5" font-family="Helvetica,sans-Serif" font-size="10.00" fill="#000000">Framework/StructToTuple.h</text>
</a>
</g>
</g>
<!-- Node1&#45;&gt;Node53 -->
<g id="edge79" class="edge">
<title>Node1&#45;&gt;Node53</title>
<path fill="none" stroke="#191970" d="M514.1254,-481.3733C477.4304,-471.8598 421.1932,-457.2797 381.5919,-447.0127"/>
<polygon fill="#191970" stroke="#191970" points="382.4626,-443.6228 371.9043,-444.5011 380.7059,-450.3988 382.4626,-443.6228"/>
</g>
<!-- Node54 -->
<g id="node55" class="node">
<title>Node54</title>
<polygon fill="none" stroke="#bfbfbf" points="201.7571,-369.5 201.7571,-388.5 242.7571,-388.5 242.7571,-369.5 201.7571,-369.5"/>
<text text-anchor="middle" x="222.2571" y="-376.5" font-family="Helvetica,sans-Serif" font-size="10.00" fill="#000000">tuple</text>
</g>
<!-- Node1&#45;&gt;Node54 -->
<g id="edge98" class="edge">
<title>Node1&#45;&gt;Node54</title>
<path fill="none" stroke="#191970" d="M479.9518,-487.7463C403.1038,-482.9215 287.1065,-471.4053 252.2571,-445 237.5649,-433.8678 229.8646,-413.8723 225.9648,-398.7979"/>
<polygon fill="#191970" stroke="#191970" points="229.3472,-397.8847 223.7512,-388.8882 222.5155,-399.4108 229.3472,-397.8847"/>
</g>
<!-- Node55 -->
<g id="node56" class="node">
<title>Node55</title>
<g id="a_node56"><a xlink:href="../../d7/dbe/VariantHelpers_8h.html" target="_top" xlink:title="Framework/VariantHelpers.h">
<polygon fill="none" stroke="#000000" points="1187.7571,-425.5 1187.7571,-444.5 1342.7571,-444.5 1342.7571,-425.5 1187.7571,-425.5"/>
<text text-anchor="middle" x="1265.2571" y="-432.5" font-family="Helvetica,sans-Serif" font-size="10.00" fill="#000000">Framework/VariantHelpers.h</text>
</a>
</g>
</g>
<!-- Node1&#45;&gt;Node55 -->
<g id="edge84" class="edge">
<title>Node1&#45;&gt;Node55</title>
<path fill="none" stroke="#191970" d="M622.3292,-486.7428C736.7894,-479.6752 969.3048,-464.4465 1177.2874,-445.056"/>
<polygon fill="#191970" stroke="#191970" points="1177.8559,-448.5182 1187.4855,-444.1 1177.2025,-441.5487 1177.8559,-448.5182"/>
</g>
<!-- Node1&#45;&gt;Node56 -->
<g id="edge87" class="edge">
<title>Node1&#45;&gt;Node56</title>
<path fill="none" stroke="#191970" d="M622.2668,-489.2103C766.4019,-485.1087 1103.5224,-473.1291 1385.2571,-445 1386.725,-444.8534 1388.2095,-444.6982 1389.7058,-444.5354"/>
<polygon fill="#191970" stroke="#191970" points="1390.1745,-448.0045 1399.6987,-443.3635 1389.3591,-441.0521 1390.1745,-448.0045"/>
</g>
<!-- Node57 -->
<g id="node58" class="node">
<title>Node57</title>
<polygon fill="none" stroke="#bfbfbf" points="25.2571,-425.5 25.2571,-444.5 81.2571,-444.5 81.2571,-425.5 25.2571,-425.5"/>
<text text-anchor="middle" x="53.2571" y="-432.5" font-family="Helvetica,sans-Serif" font-size="10.00" fill="#000000">sstream</text>
</g>
<!-- Node1&#45;&gt;Node57 -->
<g id="edge88" class="edge">
<title>Node1&#45;&gt;Node57</title>
<path fill="none" stroke="#191970" d="M480.0656,-487.5361C391.1933,-482.4006 234.4775,-470.6757 91.6852,-444.9997"/>
<polygon fill="#191970" stroke="#191970" points="91.8955,-441.4803 81.4294,-443.1268 90.6379,-448.3664 91.8955,-441.4803"/>
</g>
<!-- Node1&#45;&gt;Node58 -->
<g id="edge89" class="edge">
<title>Node1&#45;&gt;Node58</title>
<path fill="none" stroke="#191970" d="M622.4614,-488.8947C815.1498,-482.992 1343.9415,-465.3771 1517.2571,-445 1517.3588,-444.988 1517.4606,-444.976 1517.5625,-444.9639"/>
<polygon fill="#191970" stroke="#191970" points="1517.805,-448.4636 1527.2354,-443.6348 1516.852,-441.5287 1517.805,-448.4636"/>
</g>
<!-- Node1&#45;&gt;Node59 -->
<g id="edge90" class="edge">
<title>Node1&#45;&gt;Node59</title>
<path fill="none" stroke="#191970" d="M622.5409,-490.3248C793.1931,-488.1933 1238.8047,-479.5817 1620.8123,-445.0475"/>
<polygon fill="#191970" stroke="#191970" points="1621.3178,-448.5161 1630.9588,-444.1228 1620.6824,-441.5449 1621.3178,-448.5161"/>
</g>
<!-- Node60 -->
<g id="node61" class="node">
<title>Node60</title>
<polygon fill="none" stroke="#bfbfbf" points="99.2571,-425.5 99.2571,-444.5 167.2571,-444.5 167.2571,-425.5 99.2571,-425.5"/>
<text text-anchor="middle" x="133.2571" y="-432.5" font-family="Helvetica,sans-Serif" font-size="10.00" fill="#000000">arrow/stl.h</text>
</g>
<!-- Node1&#45;&gt;Node60 -->
<g id="edge91" class="edge">
<title>Node1&#45;&gt;Node60</title>
<path fill="none" stroke="#191970" d="M480.0768,-483.8962C405.3933,-476.035 284.7044,-462.1768 181.2571,-445 179.9817,-444.7882 178.6888,-444.5664 177.3848,-444.3364"/>
<polygon fill="#191970" stroke="#191970" points="177.7541,-440.8449 167.281,-442.4465 176.467,-447.7256 177.7541,-440.8449"/>
</g>
<!-- Node1&#45;&gt;Node61 -->
<g id="edge93" class="edge">
<title>Node1&#45;&gt;Node61</title>
<path fill="none" stroke="#191970" d="M622.3589,-489.6611C843.9687,-485.277 1521.2434,-470.2299 1763.3805,-444.8955"/>
<polygon fill="#191970" stroke="#191970" points="1763.9763,-448.3516 1773.5424,-443.7975 1763.2243,-441.3921 1763.9763,-448.3516"/>
</g>
<!-- Node3 -->
<g id="node4" class="node">
<title>Node3</title>
<g id="a_node4"><a xlink:href="../../dd/dce/Pack_8h.html" target="_top" xlink:title="Framework/Pack.h">
<polygon fill="none" stroke="#000000" points="640.7571,-313.5 640.7571,-332.5 745.7571,-332.5 745.7571,-313.5 640.7571,-313.5"/>
<text text-anchor="middle" x="693.2571" y="-320.5" font-family="Helvetica,sans-Serif" font-size="10.00" fill="#000000">Framework/Pack.h</text>
</a>
</g>
</g>
<!-- Node2&#45;&gt;Node3 -->
<g id="edge3" class="edge">
<title>Node2&#45;&gt;Node3</title>
<path fill="none" stroke="#191970" d="M1061.0739,-427.0466C1012.2684,-419.2992 938.8001,-406.1841 876.2571,-389 822.3764,-374.1959 761.7059,-350.9608 725.5258,-336.3752"/>
<polygon fill="#191970" stroke="#191970" points="726.5786,-333.0252 715.9966,-332.5049 723.9445,-339.5107 726.5786,-333.0252"/>
</g>
<!-- Node7 -->
<g id="node8" class="node">
<title>Node7</title>
<g id="a_node8"><a xlink:href="../../d1/d00/CheckTypes_8h.html" target="_top" xlink:title="Framework/CheckTypes.h">
<polygon fill="none" stroke="#000000" points="883.2571,-313.5 883.2571,-332.5 1023.2571,-332.5 1023.2571,-313.5 883.2571,-313.5"/>
<text text-anchor="middle" x="953.2571" y="-320.5" font-family="Helvetica,sans-Serif" font-size="10.00" fill="#000000">Framework/CheckTypes.h</text>
</a>
</g>
</g>
<!-- Node2&#45;&gt;Node7 -->
<g id="edge7" class="edge">
<title>Node2&#45;&gt;Node7</title>
<path fill="none" stroke="#191970" d="M1104.5368,-425.4661C1089.2633,-412.097 1060.1084,-387.361 1033.2571,-369 1016.5007,-357.5419 996.7341,-346.1577 981.0417,-337.581"/>
<polygon fill="#191970" stroke="#191970" points="982.3236,-334.2957 971.8608,-332.628 978.9999,-340.4564 982.3236,-334.2957"/>
</g>
<!-- Node2&#45;&gt;Node8 -->
<g id="edge8" class="edge">
<title>Node2&#45;&gt;Node8</title>
<path fill="none" stroke="#191970" d="M1060.8559,-428.2451C983.9654,-418.6977 842.6903,-401.1558 751.1666,-389.7914"/>
<polygon fill="#191970" stroke="#191970" points="751.4445,-386.2991 741.0894,-388.5402 750.5819,-393.2458 751.4445,-386.2991"/>
</g>
<!-- Node10 -->
<g id="node11" class="node">
<title>Node10</title>
<g id="a_node11"><a xlink:href="../../d9/de8/CompilerBuiltins_8h.html" target="_top" xlink:title="Framework/CompilerBuiltins.h">
<polygon fill="none" stroke="#000000" points="2727.2571,-313.5 2727.2571,-332.5 2891.2571,-332.5 2891.2571,-313.5 2727.2571,-313.5"/>
<text text-anchor="middle" x="2809.2571" y="-320.5" font-family="Helvetica,sans-Serif" font-size="10.00" fill="#000000">Framework/CompilerBuiltins.h</text>
</a>
</g>
</g>
<!-- Node2&#45;&gt;Node10 -->
<g id="edge11" class="edge">
<title>Node2&#45;&gt;Node10</title>
<path fill="none" stroke="#191970" d="M1169.5039,-426.0053C1172.4608,-425.635 1175.393,-425.296 1178.2571,-425 1342.2446,-408.0525 1759.1981,-428.4999 1919.2571,-389 1939.7203,-383.95 1941.7914,-374.0402 1962.2571,-369 2122.5377,-329.5271 2534.9029,-345.566 2716.8686,-333.0196"/>
<polygon fill="#191970" stroke="#191970" points="2717.2233,-336.503 2726.9387,-332.2768 2716.7083,-329.522 2717.2233,-336.503"/>
</g>
<!-- Node11 -->
<g id="node12" class="node">
<title>Node11</title>
<g id="a_node12"><a xlink:href="../../db/d31/Traits_8h.html" target="_top" xlink:title="Framework/Traits.h">
<polygon fill="none" stroke="#000000" points="299.7571,-369.5 299.7571,-388.5 408.7571,-388.5 408.7571,-369.5 299.7571,-369.5"/>
<text text-anchor="middle" x="354.2571" y="-376.5" font-family="Helvetica,sans-Serif" font-size="10.00" fill="#000000">Framework/Traits.h</text>
</a>
</g>
</g>
<!-- Node2&#45;&gt;Node11 -->
<g id="edge12" class="edge">
<title>Node2&#45;&gt;Node11</title>
<path fill="none" stroke="#191970" d="M1061.1379,-431.0175C924.599,-420.97 566.5349,-394.621 419.1095,-383.7723"/>
<polygon fill="#191970" stroke="#191970" points="419.0948,-380.2619 408.8649,-383.0184 418.581,-387.243 419.0948,-380.2619"/>
</g>
<!-- Node13 -->
<g id="node14" class="node">
<title>Node13</title>
<g id="a_node14"><a xlink:href="../../d0/d91/Expressions_8h.html" target="_top" xlink:title="Framework/Expressions.h">
<polygon fill="none" stroke="#000000" points="1293.7571,-369.5 1293.7571,-388.5 1434.7571,-388.5 1434.7571,-369.5 1293.7571,-369.5"/>
<text text-anchor="middle" x="1364.2571" y="-376.5" font-family="Helvetica,sans-Serif" font-size="10.00" fill="#000000">Framework/Expressions.h</text>
</a>
</g>
</g>
<!-- Node2&#45;&gt;Node13 -->
<g id="edge14" class="edge">
<title>Node2&#45;&gt;Node13</title>
<path fill="none" stroke="#191970" d="M1157.7788,-425.4369C1200.3932,-415.8529 1266.0747,-401.0812 1311.8781,-390.78"/>
<polygon fill="#191970" stroke="#191970" points="1312.9224,-394.1326 1321.9108,-388.5237 1311.3865,-387.3032 1312.9224,-394.1326"/>
</g>
<!-- Node2&#45;&gt;Node18 -->
<g id="edge71" class="edge">
<title>Node2&#45;&gt;Node18</title>
<path fill="none" stroke="#191970" d="M1061.0215,-430.2727C999.6689,-424.126 897.118,-411.4282 811.2571,-389 786.8975,-382.6369 782.1675,-376.8846 758.2571,-369 702.5399,-350.6269 672.3985,-374.8254 631.2571,-333 608.1994,-309.559 612.2571,-294.3806 612.2571,-261.5 612.2571,-261.5 612.2571,-261.5 612.2571,-127.5 612.2571,-93.1399 612.2571,-53.128 612.2571,-29.7764"/>
<polygon fill="#191970" stroke="#191970" points="615.7572,-29.7489 612.2571,-19.7489 608.7572,-29.749 615.7572,-29.7489"/>
</g>
<!-- Node34 -->
<g id="node35" class="node">
<title>Node34</title>
<polygon fill="none" stroke="#bfbfbf" points="2261.2571,-252 2261.2571,-271 2313.2571,-271 2313.2571,-252 2261.2571,-252"/>
<text text-anchor="middle" x="2287.2571" y="-259" font-family="Helvetica,sans-Serif" font-size="10.00" fill="#000000">cassert</text>
</g>
<!-- Node2&#45;&gt;Node34 -->
<g id="edge77" class="edge">
<title>Node2&#45;&gt;Node34</title>
<path fill="none" stroke="#191970" d="M1169.5032,-425.9977C1172.4602,-425.6294 1175.3927,-425.2929 1178.2571,-425 1349.9917,-407.4416 1788.195,-436.1642 1954.2571,-389 1971.8641,-383.9993 1972.6332,-373.9406 1990.2571,-369 2038.9741,-355.3429 2865.1952,-369.4764 2900.2571,-333 2906.417,-326.5916 2906.2736,-319.5432 2900.2571,-313 2861.1419,-270.4608 2449.9788,-263.0396 2323.843,-261.7619"/>
<polygon fill="#191970" stroke="#191970" points="2323.5892,-258.2594 2313.5567,-261.6651 2323.5233,-265.2591 2323.5892,-258.2594"/>
</g>
<!-- Node2&#45;&gt;Node42 -->
<g id="edge72" class="edge">
<title>Node2&#45;&gt;Node42</title>
<path fill="none" stroke="#191970" d="M1169.5024,-425.9906C1172.4597,-425.6241 1175.3924,-425.2899 1178.2571,-425 1537.6646,-388.6262 1632.369,-438.1214 1990.2571,-389 2029.1348,-383.6639 2037.3732,-374.2909 2076.2571,-369 2454.0009,-317.6004 2554.3749,-375.198 2933.2571,-333 2934.5592,-332.855 2935.877,-332.6974 2937.2051,-332.5291"/>
<polygon fill="#191970" stroke="#191970" points="2938.0986,-335.937 2947.502,-331.0559 2937.1071,-329.0076 2938.0986,-335.937"/>
</g>
<!-- Node43 -->
<g id="node44" class="node">
<title>Node43</title>
<polygon fill="none" stroke="#bfbfbf" points="1041.7571,-313.5 1041.7571,-332.5 1188.7571,-332.5 1188.7571,-313.5 1041.7571,-313.5"/>
<text text-anchor="middle" x="1115.2571" y="-320.5" font-family="Helvetica,sans-Serif" font-size="10.00" fill="#000000">gandiva/selection_vector.h</text>
</g>
<!-- Node2&#45;&gt;Node43 -->
<g id="edge76" class="edge">
<title>Node2&#45;&gt;Node43</title>
<path fill="none" stroke="#191970" d="M1115.2571,-425.4509C1115.2571,-407.184 1115.2571,-366.9553 1115.2571,-342.6976"/>
<polygon fill="#191970" stroke="#191970" points="1118.7572,-342.5249 1115.2571,-332.5249 1111.7572,-342.5249 1118.7572,-342.5249"/>
</g>
<!-- Node48 -->
<g id="node49" class="node">
<title>Node48</title>
<g id="a_node49"><a xlink:href="../../d4/de7/ArrowTypes_8h.html" target="_top" xlink:title="Framework/ArrowTypes.h">
<polygon fill="none" stroke="#000000" points="885.7571,-369.5 885.7571,-388.5 1024.7571,-388.5 1024.7571,-369.5 885.7571,-369.5"/>
<text text-anchor="middle" x="955.2571" y="-376.5" font-family="Helvetica,sans-Serif" font-size="10.00" fill="#000000">Framework/ArrowTypes.h</text>
</a>
</g>
</g>
<!-- Node2&#45;&gt;Node48 -->
<g id="edge69" class="edge">
<title>Node2&#45;&gt;Node48</title>
<path fill="none" stroke="#191970" d="M1087.7521,-425.3733C1061.3769,-416.1419 1021.3719,-402.1402 992.2213,-391.9375"/>
<polygon fill="#191970" stroke="#191970" points="992.998,-388.5012 982.4031,-388.5011 990.6855,-395.1082 992.998,-388.5012"/>
</g>
<!-- Node49 -->
<g id="node50" class="node">
<title>Node49</title>
<polygon fill="none" stroke="#bfbfbf" points="1453.2571,-369.5 1453.2571,-388.5 1533.2571,-388.5 1533.2571,-369.5 1453.2571,-369.5"/>
<text text-anchor="middle" x="1493.2571" y="-376.5" font-family="Helvetica,sans-Serif" font-size="10.00" fill="#000000">arrow/array.h</text>
</g>
<!-- Node2&#45;&gt;Node49 -->
<g id="edge73" class="edge">
<title>Node2&#45;&gt;Node49</title>
<path fill="none" stroke="#191970" d="M1169.5414,-426.3044C1172.4886,-425.857 1175.4085,-425.4195 1178.2571,-425 1295.8483,-407.6823 1326.0355,-408.6647 1443.2571,-389 1443.358,-388.9831 1443.4591,-388.9661 1443.5602,-388.949"/>
<polygon fill="#191970" stroke="#191970" points="1443.9449,-392.4355 1453.1806,-387.244 1442.7232,-385.5429 1443.9449,-392.4355"/>
</g>
<!-- Node50 -->
<g id="node51" class="node">
<title>Node50</title>
<polygon fill="none" stroke="#bfbfbf" points="1551.2571,-369.5 1551.2571,-388.5 1661.2571,-388.5 1661.2571,-369.5 1551.2571,-369.5"/>
<text text-anchor="middle" x="1606.2571" y="-376.5" font-family="Helvetica,sans-Serif" font-size="10.00" fill="#000000">arrow/util/variant.h</text>
</g>
<!-- Node2&#45;&gt;Node50 -->
<g id="edge74" class="edge">
<title>Node2&#45;&gt;Node50</title>
<path fill="none" stroke="#191970" d="M1169.524,-426.1785C1172.4757,-425.7636 1175.4013,-425.3675 1178.2571,-425 1336.1876,-404.674 1379.2424,-409.3497 1540.8202,-389.12"/>
<polygon fill="#191970" stroke="#191970" points="1541.6455,-392.5436 1551.1272,-387.8162 1540.7669,-385.599 1541.6455,-392.5436"/>
</g>
<!-- Node51 -->
<g id="node52" class="node">
<title>Node51</title>
<polygon fill="none" stroke="#bfbfbf" points="1679.7571,-369.5 1679.7571,-388.5 1812.7571,-388.5 1812.7571,-369.5 1679.7571,-369.5"/>
<text text-anchor="middle" x="1746.2571" y="-376.5" font-family="Helvetica,sans-Serif" font-size="10.00" fill="#000000">arrow/compute/kernel.h</text>
</g>
<!-- Node2&#45;&gt;Node51 -->
<g id="edge75" class="edge">
<title>Node2&#45;&gt;Node51</title>
<path fill="none" stroke="#191970" d="M1169.5132,-426.0902C1172.4677,-425.698 1175.3968,-425.3311 1178.2571,-425 1392.7576,-400.1734 1450.4088,-410.9702 1669.3444,-389.0332"/>
<polygon fill="#191970" stroke="#191970" points="1669.9585,-392.489 1679.5545,-387.9983 1669.2525,-385.5247 1669.9585,-392.489"/>
</g>
<!-- Node52 -->
<g id="node53" class="node">
<title>Node52</title>
<polygon fill="none" stroke="#bfbfbf" points="1830.7571,-369.5 1830.7571,-388.5 1909.7571,-388.5 1909.7571,-369.5 1830.7571,-369.5"/>
<text text-anchor="middle" x="1870.2571" y="-376.5" font-family="Helvetica,sans-Serif" font-size="10.00" fill="#000000">fmt/format.h</text>
</g>
<!-- Node2&#45;&gt;Node52 -->
<g id="edge78" class="edge">
<title>Node2&#45;&gt;Node52</title>
<path fill="none" stroke="#191970" d="M1169.5066,-426.0306C1172.4628,-425.6538 1175.3941,-425.3064 1178.2571,-425 1459.9577,-394.848 1536.2496,-425.6002 1820.3289,-389.083"/>
<polygon fill="#191970" stroke="#191970" points="1821.0586,-392.5176 1830.5228,-387.7554 1820.1545,-385.5763 1821.0586,-392.5176"/>
</g>
<!-- Node4 -->
<g id="node5" class="node">
<title>Node4</title>
<polygon fill="none" stroke="#bfbfbf" points="792.7571,-252 792.7571,-271 845.7571,-271 845.7571,-252 792.7571,-252"/>
<text text-anchor="middle" x="819.2571" y="-259" font-family="Helvetica,sans-Serif" font-size="10.00" fill="#000000">cstddef</text>
</g>
<!-- Node3&#45;&gt;Node4 -->
<g id="edge4" class="edge">
<title>Node3&#45;&gt;Node4</title>
<path fill="none" stroke="#191970" d="M712.9446,-313.3906C733.7493,-303.2359 766.7681,-287.1196 790.489,-275.5416"/>
<polygon fill="#191970" stroke="#191970" points="792.2564,-278.5736 799.7078,-271.0419 789.1859,-272.283 792.2564,-278.5736"/>
</g>
<!-- Node5 -->
<g id="node6" class="node">
<title>Node5</title>
<polygon fill="none" stroke="#bfbfbf" points="863.7571,-252 863.7571,-271 908.7571,-271 908.7571,-252 863.7571,-252"/>
<text text-anchor="middle" x="886.2571" y="-259" font-family="Helvetica,sans-Serif" font-size="10.00" fill="#000000">utility</text>
</g>
<!-- Node3&#45;&gt;Node5 -->
<g id="edge5" class="edge">
<title>Node3&#45;&gt;Node5</title>
<path fill="none" stroke="#191970" d="M733.9169,-313.4563C766.8536,-305.2337 814.1988,-292.2927 854.2571,-277 855.6628,-276.4634 857.0909,-275.8884 858.5245,-275.2872"/>
<polygon fill="#191970" stroke="#191970" points="860.2044,-278.3692 867.8831,-271.0694 857.3281,-271.9874 860.2044,-278.3692"/>
</g>
<!-- Node6 -->
<g id="node7" class="node">
<title>Node6</title>
<polygon fill="none" stroke="#bfbfbf" points="927.2571,-252 927.2571,-271 973.2571,-271 973.2571,-252 927.2571,-252"/>
<text text-anchor="middle" x="950.2571" y="-259" font-family="Helvetica,sans-Serif" font-size="10.00" fill="#000000">cstdio</text>
</g>
<!-- Node3&#45;&gt;Node6 -->
<g id="edge6" class="edge">
<title>Node3&#45;&gt;Node6</title>
<path fill="none" stroke="#191970" d="M745.7581,-313.7024C801.5958,-303.5501 886.0813,-287.36 917.2571,-277 918.9089,-276.4511 920.5867,-275.8412 922.2657,-275.1899"/>
<polygon fill="#191970" stroke="#191970" points="923.909,-278.2937 931.7247,-271.1407 921.1542,-271.8585 923.909,-278.2937"/>
</g>
<!-- Node8&#45;&gt;Node3 -->
<g id="edge9" class="edge">
<title>Node8&#45;&gt;Node3</title>
<path fill="none" stroke="#191970" d="M669.3085,-369.2455C673.259,-361.617 678.8668,-350.7881 683.6629,-341.5267"/>
<polygon fill="#191970" stroke="#191970" points="686.7729,-343.1321 688.2636,-332.6427 680.557,-339.9131 686.7729,-343.1321"/>
</g>
<!-- Node8&#45;&gt;Node9 -->
<g id="edge10" class="edge">
<title>Node8&#45;&gt;Node9</title>
<path fill="none" stroke="#191970" d="M644.8317,-369.3733C626.8549,-360.4644 599.913,-347.1127 579.548,-337.0203"/>
<polygon fill="#191970" stroke="#191970" points="580.9432,-333.8055 570.429,-332.5011 577.8349,-340.0776 580.9432,-333.8055"/>
</g>
<!-- Node11&#45;&gt;Node12 -->
<g id="edge13" class="edge">
<title>Node11&#45;&gt;Node12</title>
<path fill="none" stroke="#191970" d="M346.2892,-369.3264C331.2682,-350.0743 300.2571,-305.0539 300.2571,-261.5 300.2571,-261.5 300.2571,-261.5 300.2571,-127.5 300.2571,-93.1399 300.2571,-53.128 300.2571,-29.7764"/>
<polygon fill="#191970" stroke="#191970" points="303.7572,-29.7489 300.2571,-19.7489 296.7572,-29.749 303.7572,-29.7489"/>
</g>
<!-- Node13&#45;&gt;Node3 -->
<g id="edge17" class="edge">
<title>Node13&#45;&gt;Node3</title>
<path fill="none" stroke="#191970" d="M1293.6165,-375.6778C1181.6702,-369.9704 956.4559,-356.6894 755.9226,-333.113"/>
<polygon fill="#191970" stroke="#191970" points="756.1311,-329.6133 745.7882,-331.9102 755.306,-336.5645 756.1311,-329.6133"/>
</g>
<!-- Node13&#45;&gt;Node7 -->
<g id="edge18" class="edge">
<title>Node13&#45;&gt;Node7</title>
<path fill="none" stroke="#191970" d="M1294.0707,-369.4369C1221.6624,-359.571 1108.907,-344.2078 1033.1301,-333.8829"/>
<polygon fill="#191970" stroke="#191970" points="1033.535,-330.4059 1023.154,-332.5237 1032.5899,-337.3418 1033.535,-330.4059"/>
</g>
<!-- Node13&#45;&gt;Node10 -->
<g id="edge16" class="edge">
<title>Node13&#45;&gt;Node10</title>
<path fill="none" stroke="#191970" d="M1434.8902,-369.7972C1438.0532,-369.503 1441.1867,-369.2347 1444.2571,-369 2005.7478,-326.0735 2151.4479,-371.4317 2716.9019,-333.036"/>
<polygon fill="#191970" stroke="#191970" points="2717.2065,-336.5234 2726.944,-332.3483 2716.7282,-329.5398 2717.2065,-336.5234"/>
</g>
<!-- Node14 -->
<g id="node15" class="node">
<title>Node14</title>
<g id="a_node15"><a xlink:href="../../dd/dc2/BasicOps_8h.html" target="_top" xlink:title="Framework/BasicOps.h">
<polygon fill="none" stroke="#000000" points="1985.2571,-313.5 1985.2571,-332.5 2113.2571,-332.5 2113.2571,-313.5 1985.2571,-313.5"/>
<text text-anchor="middle" x="2049.2571" y="-320.5" font-family="Helvetica,sans-Serif" font-size="10.00" fill="#000000">Framework/BasicOps.h</text>
</a>
</g>
</g>
<!-- Node13&#45;&gt;Node14 -->
<g id="edge15" class="edge">
<title>Node13&#45;&gt;Node14</title>
<path fill="none" stroke="#191970" d="M1434.9032,-369.9484C1438.0628,-369.6132 1441.1919,-369.295 1444.2571,-369 1676.8117,-346.6152 1738.7558,-356.7966 1974.908,-333.0724"/>
<polygon fill="#191970" stroke="#191970" points="1975.5972,-336.5205 1985.1928,-332.0289 1974.8905,-329.5563 1975.5972,-336.5205"/>
</g>
<!-- Node15 -->
<g id="node16" class="node">
<title>Node15</title>
<g id="a_node16"><a xlink:href="../../d9/dff/Configurable_8h.html" target="_top" xlink:title="Framework/Configurable.h">
<polygon fill="none" stroke="#000000" points="2077.2571,-56.5 2077.2571,-75.5 2221.2571,-75.5 2221.2571,-56.5 2077.2571,-56.5"/>
<text text-anchor="middle" x="2149.2571" y="-63.5" font-family="Helvetica,sans-Serif" font-size="10.00" fill="#000000">Framework/Configurable.h</text>
</a>
</g>
</g>
<!-- Node13&#45;&gt;Node15 -->
<g id="edge19" class="edge">
<title>Node13&#45;&gt;Node15</title>
<path fill="none" stroke="#191970" d="M1434.8941,-369.8462C1438.0561,-369.5387 1441.1883,-369.2543 1444.2571,-369 1492.9091,-364.9689 2284.1751,-363.5456 2322.2571,-333 2347.9062,-312.4268 2341.2571,-294.3806 2341.2571,-261.5 2341.2571,-261.5 2341.2571,-261.5 2341.2571,-194.5 2341.2571,-128.6618 2262.3213,-94.4237 2205.6753,-78.33"/>
<polygon fill="#191970" stroke="#191970" points="2206.3031,-74.8737 2195.7349,-75.6245 2204.4647,-81.628 2206.3031,-74.8737"/>
</g>
<!-- Node13&#45;&gt;Node16 -->
<g id="edge67" class="edge">
<title>Node13&#45;&gt;Node16</title>
<path fill="none" stroke="#191970" d="M1434.8938,-369.8425C1438.0559,-369.536 1441.1881,-369.2528 1444.2571,-369 1543.8886,-360.7929 2259.2114,-387.1306 2343.2571,-333 2373.1685,-313.7352 2379.2571,-297.0785 2379.2571,-261.5 2379.2571,-261.5 2379.2571,-261.5 2379.2571,-127.5 2379.2571,-31.2463 2023.0332,-13.764 1912.5408,-10.6565"/>
<polygon fill="#191970" stroke="#191970" points="1912.4299,-7.1525 1902.3424,-10.3915 1912.248,-14.1501 1912.4299,-7.1525"/>
</g>
<!-- Node17 -->
<g id="node18" class="node">
<title>Node17</title>
<g id="a_node18"><a xlink:href="../../de/d56/Variant_8h.html" target="_top" xlink:title="Framework/Variant.h">
<polygon fill="none" stroke="#000000" points="849.7571,-56.5 849.7571,-75.5 966.7571,-75.5 966.7571,-56.5 849.7571,-56.5"/>
<text text-anchor="middle" x="908.2571" y="-63.5" font-family="Helvetica,sans-Serif" font-size="10.00" fill="#000000">Framework/Variant.h</text>
</a>
</g>
</g>
<!-- Node13&#45;&gt;Node17 -->
<g id="edge21" class="edge">
<title>Node13&#45;&gt;Node17</title>
<path fill="none" stroke="#191970" d="M1353.1633,-369.221C1333.1946,-350.4746 1293.2571,-307.2618 1293.2571,-261.5 1293.2571,-261.5 1293.2571,-261.5 1293.2571,-194.5 1293.2571,-128.6452 1088.0142,-90.4532 977.2388,-74.6358"/>
<polygon fill="#191970" stroke="#191970" points="977.5388,-71.1437 967.1494,-73.2197 976.5658,-78.0758 977.5388,-71.1437"/>
</g>
<!-- Node13&#45;&gt;Node18 -->
<g id="edge56" class="edge">
<title>Node13&#45;&gt;Node18</title>
<path fill="none" stroke="#191970" d="M1345.2037,-369.305C1319.74,-356.3701 1273.1845,-332.7978 1233.2571,-313 1005.874,-200.2533 730.1825,-66.9132 641.3343,-24.0247"/>
<polygon fill="#191970" stroke="#191970" points="642.6697,-20.7829 632.1424,-19.5885 639.6271,-27.0871 642.6697,-20.7829"/>
</g>
<!-- Node26 -->
<g id="node27" class="node">
<title>Node26</title>
<g id="a_node27"><a xlink:href="../../d4/d2b/InitContext_8h.html" target="_top" xlink:title="Framework/InitContext.h">
<polygon fill="none" stroke="#000000" points="2407.7571,-313.5 2407.7571,-332.5 2544.7571,-332.5 2544.7571,-313.5 2407.7571,-313.5"/>
<text text-anchor="middle" x="2476.2571" y="-320.5" font-family="Helvetica,sans-Serif" font-size="10.00" fill="#000000">Framework/InitContext.h</text>
</a>
</g>
</g>
<!-- Node13&#45;&gt;Node26 -->
<g id="edge32" class="edge">
<title>Node13&#45;&gt;Node26</title>
<path fill="none" stroke="#191970" d="M1434.8931,-369.8344C1438.0554,-369.5301 1441.1879,-369.2496 1444.2571,-369 1864.9497,-334.7917 1972.4894,-366.272 2393.2571,-333 2394.5593,-332.897 2395.8725,-332.7889 2397.1943,-332.6762"/>
<polygon fill="#191970" stroke="#191970" points="2397.8219,-336.1333 2407.458,-331.7294 2397.1788,-329.1629 2397.8219,-336.1333"/>
</g>
<!-- Node27 -->
<g id="node28" class="node">
<title>Node27</title>
<g id="a_node28"><a xlink:href="../../de/dc6/ConfigParamRegistry_8h.html" target="_top" xlink:title="Framework/ConfigParamRegistry.h">
<polygon fill="none" stroke="#000000" points="2131.2571,-313.5 2131.2571,-332.5 2313.2571,-332.5 2313.2571,-313.5 2131.2571,-313.5"/>
<text text-anchor="middle" x="2222.2571" y="-320.5" font-family="Helvetica,sans-Serif" font-size="10.00" fill="#000000">Framework/ConfigParamRegistry.h</text>
</a>
</g>
</g>
<!-- Node13&#45;&gt;Node27 -->
<g id="edge33" class="edge">
<title>Node13&#45;&gt;Node27</title>
<path fill="none" stroke="#191970" d="M1434.8981,-369.8926C1438.059,-369.5725 1441.1899,-369.2728 1444.2571,-369 1741.453,-342.569 1819.6309,-355.7155 2120.9021,-333.0676"/>
<polygon fill="#191970" stroke="#191970" points="2121.5482,-336.5287 2131.2546,-332.2819 2121.0184,-329.5488 2121.5482,-336.5287"/>
</g>
<!-- Node13&#45;&gt;Node33 -->
<g id="edge68" class="edge">
<title>Node13&#45;&gt;Node33</title>
<path fill="none" stroke="#191970" d="M1337.1757,-369.4775C1312.114,-360.5224 1273.9111,-346.5087 1241.2571,-333 1221.4076,-324.7884 1218.0343,-318.4535 1197.2571,-313 1018.6138,-266.111 966.0408,-303.4975 783.2571,-277 771.1974,-275.2518 758.1672,-272.8027 746.3596,-270.3668"/>
<polygon fill="#191970" stroke="#191970" points="746.8611,-266.8954 736.3529,-268.2474 745.4107,-273.7435 746.8611,-266.8954"/>
</g>
<!-- Node35 -->
<g id="node36" class="node">
<title>Node35</title>
<g id="a_node36"><a xlink:href="../../da/d88/RootConfigParamHelpers_8h.html" target="_top" xlink:title="Framework/RootConfigParam\lHelpers.h">
<polygon fill="none" stroke="#000000" points="1321.7571,-179.5 1321.7571,-209.5 1478.7571,-209.5 1478.7571,-179.5 1321.7571,-179.5"/>
<text text-anchor="start" x="1329.7571" y="-197.5" font-family="Helvetica,sans-Serif" font-size="10.00" fill="#000000">Framework/RootConfigParam</text>
<text text-anchor="middle" x="1400.2571" y="-186.5" font-family="Helvetica,sans-Serif" font-size="10.00" fill="#000000">Helpers.h</text>
</a>
</g>
</g>
<!-- Node13&#45;&gt;Node35 -->
<g id="edge49" class="edge">
<title>Node13&#45;&gt;Node35</title>
<path fill="none" stroke="#191970" d="M1359.624,-369.172C1354.1354,-356.2877 1346.2152,-332.9763 1350.2571,-313 1357.2238,-278.5684 1374.5112,-241.7027 1386.8031,-218.3985"/>
<polygon fill="#191970" stroke="#191970" points="1389.8926,-220.0431 1391.5592,-209.5802 1383.7316,-216.7202 1389.8926,-220.0431"/>
</g>
<!-- Node38 -->
<g id="node39" class="node">
<title>Node38</title>
<polygon fill="none" stroke="#bfbfbf" points="763.7571,-313.5 763.7571,-332.5 864.7571,-332.5 864.7571,-313.5 763.7571,-313.5"/>
<text text-anchor="middle" x="814.2571" y="-320.5" font-family="Helvetica,sans-Serif" font-size="10.00" fill="#000000">arrow/type_fwd.h</text>
</g>
<!-- Node13&#45;&gt;Node38 -->
<g id="edge57" class="edge">
<title>Node13&#45;&gt;Node38</title>
<path fill="none" stroke="#191970" d="M1293.4846,-373.954C1200.1131,-366.9398 1030.4445,-352.9634 875.1644,-333.0335"/>
<polygon fill="#191970" stroke="#191970" points="875.3248,-329.5251 864.9582,-331.7121 874.426,-336.4672 875.3248,-329.5251"/>
</g>
<!-- Node39 -->
<g id="node40" class="node">
<title>Node39</title>
<polygon fill="none" stroke="#bfbfbf" points="2563.2571,-313.5 2563.2571,-332.5 2709.2571,-332.5 2709.2571,-313.5 2563.2571,-313.5"/>
<text text-anchor="middle" x="2636.2571" y="-320.5" font-family="Helvetica,sans-Serif" font-size="10.00" fill="#000000">gandiva/gandiva_aliases.h</text>
</g>
<!-- Node13&#45;&gt;Node39 -->
<g id="edge58" class="edge">
<title>Node13&#45;&gt;Node39</title>
<path fill="none" stroke="#191970" d="M1434.8914,-369.8133C1438.0541,-369.5147 1441.1872,-369.2411 1444.2571,-369 1932.9703,-330.6121 2060.3857,-370.3624 2552.7527,-333.0463"/>
<polygon fill="#191970" stroke="#191970" points="2553.2677,-336.5172 2562.9717,-332.2647 2552.7339,-329.5376 2553.2677,-336.5172"/>
</g>
<!-- Node40 -->
<g id="node41" class="node">
<title>Node40</title>
<polygon fill="none" stroke="#bfbfbf" points="1359.2571,-313.5 1359.2571,-332.5 1437.2571,-332.5 1437.2571,-313.5 1359.2571,-313.5"/>
<text text-anchor="middle" x="1398.2571" y="-320.5" font-family="Helvetica,sans-Serif" font-size="10.00" fill="#000000">arrow/type.h</text>
</g>
<!-- Node13&#45;&gt;Node40 -->
<g id="edge59" class="edge">
<title>Node13&#45;&gt;Node40</title>
<path fill="none" stroke="#191970" d="M1370.1794,-369.2455C1374.8598,-361.5367 1381.5243,-350.5598 1387.186,-341.2348"/>
<polygon fill="#191970" stroke="#191970" points="1390.2045,-343.007 1392.4026,-332.6427 1384.221,-339.3741 1390.2045,-343.007"/>
</g>
<!-- Node41 -->
<g id="node42" class="node">
<title>Node41</title>
<polygon fill="none" stroke="#bfbfbf" points="1455.7571,-313.5 1455.7571,-332.5 1550.7571,-332.5 1550.7571,-313.5 1455.7571,-313.5"/>
<text text-anchor="middle" x="1503.2571" y="-320.5" font-family="Helvetica,sans-Serif" font-size="10.00" fill="#000000">gandiva/arrow.h</text>
</g>
<!-- Node13&#45;&gt;Node41 -->
<g id="edge60" class="edge">
<title>Node13&#45;&gt;Node41</title>
<path fill="none" stroke="#191970" d="M1388.152,-369.3733C1410.7653,-360.2629 1444.9112,-346.5062 1470.1443,-336.3404"/>
<polygon fill="#191970" stroke="#191970" points="1471.7063,-339.4845 1479.6739,-332.5011 1469.0905,-332.9917 1471.7063,-339.4845"/>
</g>
<!-- Node13&#45;&gt;Node42 -->
<g id="edge61" class="edge">
<title>Node13&#45;&gt;Node42</title>
<path fill="none" stroke="#191970" d="M1434.8892,-369.7836C1438.0525,-369.4931 1441.1863,-369.2293 1444.2571,-369 2089.7686,-320.7958 2254.4856,-377.5873 2900.2571,-333 2912.361,-332.1643 2925.3637,-330.8937 2937.5613,-329.5357"/>
<polygon fill="#191970" stroke="#191970" points="2938.0465,-333.0031 2947.5805,-328.3821 2937.2458,-326.049 2938.0465,-333.0031"/>
</g>
<!-- Node13&#45;&gt;Node43 -->
<g id="edge62" class="edge">
<title>Node13&#45;&gt;Node43</title>
<path fill="none" stroke="#191970" d="M1321.7354,-369.4369C1279.121,-359.8529 1213.4395,-345.0812 1167.6361,-334.78"/>
<polygon fill="#191970" stroke="#191970" points="1168.1277,-331.3032 1157.6034,-332.5237 1166.5917,-338.1326 1168.1277,-331.3032"/>
</g>
<!-- Node44 -->
<g id="node45" class="node">
<title>Node44</title>
<polygon fill="none" stroke="#bfbfbf" points="1569.2571,-313.5 1569.2571,-332.5 1661.2571,-332.5 1661.2571,-313.5 1569.2571,-313.5"/>
<text text-anchor="middle" x="1615.2571" y="-320.5" font-family="Helvetica,sans-Serif" font-size="10.00" fill="#000000">gandiva/node.h</text>
</g>
<!-- Node13&#45;&gt;Node44 -->
<g id="edge63" class="edge">
<title>Node13&#45;&gt;Node44</title>
<path fill="none" stroke="#191970" d="M1407.1203,-369.4369C1450.1673,-359.8328 1516.5643,-345.0191 1562.7481,-334.7152"/>
<polygon fill="#191970" stroke="#191970" points="1563.5728,-338.1173 1572.5706,-332.5237 1562.0484,-331.2853 1563.5728,-338.1173"/>
</g>
<!-- Node45 -->
<g id="node46" class="node">
<title>Node45</title>
<polygon fill="none" stroke="#bfbfbf" points="1679.7571,-313.5 1679.7571,-332.5 1768.7571,-332.5 1768.7571,-313.5 1679.7571,-313.5"/>
<text text-anchor="middle" x="1724.2571" y="-320.5" font-family="Helvetica,sans-Serif" font-size="10.00" fill="#000000">gandiva/filter.h</text>
</g>
<!-- Node13&#45;&gt;Node45 -->
<g id="edge64" class="edge">
<title>Node13&#45;&gt;Node45</title>
<path fill="none" stroke="#191970" d="M1432.12,-369.4715C1491.9549,-360.9162 1581.7573,-347.703 1669.6176,-333.0635"/>
<polygon fill="#191970" stroke="#191970" points="1670.2037,-336.5142 1679.4887,-331.4112 1669.048,-329.6102 1670.2037,-336.5142"/>
</g>
<!-- Node46 -->
<g id="node47" class="node">
<title>Node46</title>
<polygon fill="none" stroke="#bfbfbf" points="1787.2571,-313.5 1787.2571,-332.5 1897.2571,-332.5 1897.2571,-313.5 1787.2571,-313.5"/>
<text text-anchor="middle" x="1842.2571" y="-320.5" font-family="Helvetica,sans-Serif" font-size="10.00" fill="#000000">gandiva/projector.h</text>
</g>
<!-- Node13&#45;&gt;Node46 -->
<g id="edge65" class="edge">
<title>Node13&#45;&gt;Node46</title>
<path fill="none" stroke="#191970" d="M1434.9196,-370.1024C1438.0747,-369.7255 1441.1985,-369.3565 1444.2571,-369 1588.9419,-352.1376 1627.9903,-352.307 1776.9874,-332.9813"/>
<polygon fill="#191970" stroke="#191970" points="1777.4997,-336.4443 1786.9629,-331.6798 1776.594,-329.5031 1777.4997,-336.4443"/>
</g>
<!-- Node47 -->
<g id="node48" class="node">
<title>Node47</title>
<polygon fill="none" stroke="#bfbfbf" points="1915.7571,-313.5 1915.7571,-332.5 1966.7571,-332.5 1966.7571,-313.5 1915.7571,-313.5"/>
<text text-anchor="middle" x="1941.2571" y="-320.5" font-family="Helvetica,sans-Serif" font-size="10.00" fill="#000000">variant</text>
</g>
<!-- Node13&#45;&gt;Node47 -->
<g id="edge66" class="edge">
<title>Node13&#45;&gt;Node47</title>
<path fill="none" stroke="#191970" d="M1434.9071,-369.9876C1438.0656,-369.6418 1441.1935,-369.3107 1444.2571,-369 1645.8603,-348.5563 1701.7646,-368.7994 1905.2805,-332.8263"/>
<polygon fill="#191970" stroke="#191970" points="1906.1737,-336.2221 1915.3996,-331.0133 1904.9391,-329.3318 1906.1737,-336.2221"/>
</g>
<!-- Node15&#45;&gt;Node16 -->
<g id="edge20" class="edge">
<title>Node15&#45;&gt;Node16</title>
<path fill="none" stroke="#191970" d="M2103.32,-56.4369C2049.0518,-45.1394 1960.1566,-26.6333 1912.6271,-16.7387"/>
<polygon fill="#191970" stroke="#191970" points="1913.0893,-13.26 1902.5859,-14.6484 1911.6626,-20.1131 1913.0893,-13.26"/>
</g>
<!-- Node17&#45;&gt;Node12 -->
<g id="edge23" class="edge">
<title>Node17&#45;&gt;Node12</title>
<path fill="none" stroke="#191970" d="M849.6835,-60.6051C728.7114,-49.4629 453.5426,-24.1184 345.2449,-14.1436"/>
<polygon fill="#191970" stroke="#191970" points="345.2719,-10.6314 334.993,-13.1994 344.6298,-17.6019 345.2719,-10.6314"/>
</g>
<!-- Node17&#45;&gt;Node16 -->
<g id="edge31" class="edge">
<title>Node17&#45;&gt;Node16</title>
<path fill="none" stroke="#191970" d="M966.9835,-60.3066C983.8502,-58.7806 1002.2737,-57.2183 1019.2571,-56 1342.1721,-32.836 1733.9891,-15.9797 1847.8187,-11.306"/>
<polygon fill="#191970" stroke="#191970" points="1848.1062,-14.7972 1857.955,-10.8919 1847.8204,-7.8031 1848.1062,-14.7972"/>
</g>
<!-- Node17&#45;&gt;Node18 -->
<g id="edge22" class="edge">
<title>Node17&#45;&gt;Node18</title>
<path fill="none" stroke="#191970" d="M857.7092,-56.4369C806.4125,-46.7321 726.9992,-31.708 672.4753,-21.3926"/>
<polygon fill="#191970" stroke="#191970" points="673.0728,-17.9437 662.5965,-19.5237 671.7715,-24.8217 673.0728,-17.9437"/>
</g>
<!-- Node19 -->
<g id="node20" class="node">
<title>Node19</title>
<polygon fill="none" stroke="#bfbfbf" points="963.2571,-.5 963.2571,-19.5 1013.2571,-19.5 1013.2571,-.5 963.2571,-.5"/>
<text text-anchor="middle" x="988.2571" y="-7.5" font-family="Helvetica,sans-Serif" font-size="10.00" fill="#000000">cstring</text>
</g>
<!-- Node17&#45;&gt;Node19 -->
<g id="edge24" class="edge">
<title>Node17&#45;&gt;Node19</title>
<path fill="none" stroke="#191970" d="M922.192,-56.2455C934.3518,-47.7337 952.2035,-35.2375 966.2855,-25.3801"/>
<polygon fill="#191970" stroke="#191970" points="968.2966,-28.2447 974.4818,-19.6427 964.2824,-22.51 968.2966,-28.2447"/>
</g>
<!-- Node20 -->
<g id="node21" class="node">
<title>Node20</title>
<polygon fill="none" stroke="#bfbfbf" points="1031.2571,-.5 1031.2571,-19.5 1081.2571,-19.5 1081.2571,-.5 1031.2571,-.5"/>
<text text-anchor="middle" x="1056.2571" y="-7.5" font-family="Helvetica,sans-Serif" font-size="10.00" fill="#000000">cstdint</text>
</g>
<!-- Node17&#45;&gt;Node20 -->
<g id="edge25" class="edge">
<title>Node17&#45;&gt;Node20</title>
<path fill="none" stroke="#191970" d="M933.6992,-56.3733C957.9897,-47.1822 994.7779,-33.2624 1021.7114,-23.0713"/>
<polygon fill="#191970" stroke="#191970" points="1023.0328,-26.3136 1031.147,-19.5011 1020.5555,-19.7666 1023.0328,-26.3136"/>
</g>
<!-- Node21 -->
<g id="node22" class="node">
<title>Node21</title>
<polygon fill="none" stroke="#bfbfbf" points="1099.7571,-.5 1099.7571,-19.5 1148.7571,-19.5 1148.7571,-.5 1099.7571,-.5"/>
<text text-anchor="middle" x="1124.2571" y="-7.5" font-family="Helvetica,sans-Serif" font-size="10.00" fill="#000000">cstdlib</text>
</g>
<!-- Node17&#45;&gt;Node21 -->
<g id="edge26" class="edge">
<title>Node17&#45;&gt;Node21</title>
<path fill="none" stroke="#191970" d="M947.7797,-56.4758C982.6308,-47.9736 1035.0175,-34.9427 1089.5614,-20.1181"/>
<polygon fill="#191970" stroke="#191970" points="1090.6818,-23.4403 1099.4061,-17.429 1088.8372,-16.6877 1090.6818,-23.4403"/>
</g>
<!-- Node22 -->
<g id="node23" class="node">
<title>Node22</title>
<polygon fill="none" stroke="#bfbfbf" points="703.7571,-.5 703.7571,-19.5 752.7571,-19.5 752.7571,-.5 703.7571,-.5"/>
<text text-anchor="middle" x="728.2571" y="-7.5" font-family="Helvetica,sans-Serif" font-size="10.00" fill="#000000">iosfwd</text>
</g>
<!-- Node17&#45;&gt;Node22 -->
<g id="edge27" class="edge">
<title>Node17&#45;&gt;Node22</title>
<path fill="none" stroke="#191970" d="M877.314,-56.3733C845.4313,-46.4542 795.8453,-31.0275 762.7269,-20.7239"/>
<polygon fill="#191970" stroke="#191970" points="763.6036,-17.3313 753.0153,-17.7026 761.5241,-24.0153 763.6036,-17.3313"/>
</g>
<!-- Node23 -->
<g id="node24" class="node">
<title>Node23</title>
<polygon fill="none" stroke="#bfbfbf" points="770.7571,-.5 770.7571,-19.5 853.7571,-19.5 853.7571,-.5 770.7571,-.5"/>
<text text-anchor="middle" x="812.2571" y="-7.5" font-family="Helvetica,sans-Serif" font-size="10.00" fill="#000000">initializer_list</text>
</g>
<!-- Node17&#45;&gt;Node23 -->
<g id="edge28" class="edge">
<title>Node17&#45;&gt;Node23</title>
<path fill="none" stroke="#191970" d="M891.5352,-56.2455C876.6682,-47.5731 854.7105,-34.7645 837.6713,-24.825"/>
<polygon fill="#191970" stroke="#191970" points="839.1888,-21.6582 828.7874,-19.6427 835.6616,-27.7047 839.1888,-21.6582"/>
</g>
<!-- Node24 -->
<g id="node25" class="node">
<title>Node24</title>
<polygon fill="none" stroke="#bfbfbf" points="871.7571,-.5 871.7571,-19.5 944.7571,-19.5 944.7571,-.5 871.7571,-.5"/>
<text text-anchor="middle" x="908.2571" y="-7.5" font-family="Helvetica,sans-Serif" font-size="10.00" fill="#000000">string_view</text>
</g>
<!-- Node17&#45;&gt;Node24 -->
<g id="edge29" class="edge">
<title>Node17&#45;&gt;Node24</title>
<path fill="none" stroke="#191970" d="M908.2571,-56.2455C908.2571,-48.9382 908.2571,-38.6944 908.2571,-29.7046"/>
<polygon fill="#191970" stroke="#191970" points="911.7572,-29.6426 908.2571,-19.6427 904.7572,-29.6427 911.7572,-29.6426"/>
</g>
<!-- Node17&#45;&gt;Node25 -->
<g id="edge30" class="edge">
<title>Node17&#45;&gt;Node25</title>
<path fill="none" stroke="#191970" d="M967.0083,-57.0456C1015.4363,-49.2335 1086.062,-36.854 1156.6007,-19.9451"/>
<polygon fill="#191970" stroke="#191970" points="1157.6593,-23.2898 1166.5511,-17.5291 1156.0076,-16.4874 1157.6593,-23.2898"/>
</g>
<!-- Node27&#45;&gt;Node16 -->
<g id="edge47" class="edge">
<title>Node27&#45;&gt;Node16</title>
<path fill="none" stroke="#191970" d="M2131.2422,-313.8625C2128.2113,-313.5697 2125.2098,-313.2815 2122.2571,-313 1983.7048,-299.7907 1507.2571,-333.6805 1507.2571,-194.5 1507.2571,-194.5 1507.2571,-194.5 1507.2571,-127.5 1507.2571,-56.3141 1757.5303,-22.9098 1848.0642,-13.1549"/>
<polygon fill="#191970" stroke="#191970" points="1848.4618,-16.6324 1858.0413,-12.1065 1847.7302,-9.6708 1848.4618,-16.6324"/>
</g>
<!-- Node28 -->
<g id="node29" class="node">
<title>Node28</title>
<g id="a_node29"><a xlink:href="../../df/d72/ParamRetriever_8h.html" target="_top" xlink:title="Framework/ParamRetriever.h">
<polygon fill="none" stroke="#000000" points="1793.7571,-185 1793.7571,-204 1950.7571,-204 1950.7571,-185 1793.7571,-185"/>
<text text-anchor="middle" x="1872.2571" y="-192" font-family="Helvetica,sans-Serif" font-size="10.00" fill="#000000">Framework/ParamRetriever.h</text>
</a>
</g>
</g>
<!-- Node27&#45;&gt;Node28 -->
<g id="edge34" class="edge">
<title>Node27&#45;&gt;Node28</title>
<path fill="none" stroke="#191970" d="M2196.2361,-313.4466C2134.4778,-290.7725 1978.951,-233.6719 1908.2447,-207.7126"/>
<polygon fill="#191970" stroke="#191970" points="1909.0429,-204.2773 1898.4493,-204.1163 1906.6304,-210.8484 1909.0429,-204.2773"/>
</g>
<!-- Node31 -->
<g id="node32" class="node">
<title>Node31</title>
<g id="a_node32"><a xlink:href="../../dd/daf/ConfigParamStore_8h.html" target="_top" xlink:title="Framework/ConfigParamStore.h">
<polygon fill="none" stroke="#000000" points="1734.2571,-252 1734.2571,-271 1904.2571,-271 1904.2571,-252 1734.2571,-252"/>
<text text-anchor="middle" x="1819.2571" y="-259" font-family="Helvetica,sans-Serif" font-size="10.00" fill="#000000">Framework/ConfigParamStore.h</text>
</a>
</g>
</g>
<!-- Node27&#45;&gt;Node31 -->
<g id="edge41" class="edge">
<title>Node27&#45;&gt;Node31</title>
<path fill="none" stroke="#191970" d="M2159.7305,-313.4581C2087.2628,-302.3991 1968.0372,-284.2047 1891.6241,-272.5436"/>
<polygon fill="#191970" stroke="#191970" points="1892.0124,-269.0624 1881.5988,-271.0137 1890.9563,-275.9823 1892.0124,-269.0624"/>
</g>
<!-- Node32 -->
<g id="node33" class="node">
<title>Node32</title>
<polygon fill="none" stroke="#bfbfbf" points="2129.7571,-246.5 2129.7571,-276.5 2242.7571,-276.5 2242.7571,-246.5 2129.7571,-246.5"/>
<text text-anchor="start" x="2137.7571" y="-264.5" font-family="Helvetica,sans-Serif" font-size="10.00" fill="#000000">boost/property_tree</text>
<text text-anchor="middle" x="2186.2571" y="-253.5" font-family="Helvetica,sans-Serif" font-size="10.00" fill="#000000">/ptree.hpp</text>
</g>
<!-- Node27&#45;&gt;Node32 -->
<g id="edge45" class="edge">
<title>Node27&#45;&gt;Node32</title>
<path fill="none" stroke="#191970" d="M2216.6321,-313.3906C2212.2562,-305.9151 2205.989,-295.2087 2200.2827,-285.4605"/>
<polygon fill="#191970" stroke="#191970" points="2203.1361,-283.4066 2195.0637,-276.5446 2197.095,-286.9429 2203.1361,-283.4066"/>
</g>
<!-- Node27&#45;&gt;Node33 -->
<g id="edge46" class="edge">
<title>Node27&#45;&gt;Node33</title>
<path fill="none" stroke="#191970" d="M2130.9938,-313.5973C2128.0484,-313.3821 2125.1302,-313.182 2122.2571,-313 1528.1223,-275.3565 1374.7167,-344.7402 783.2571,-277 771.1505,-275.6134 758.1066,-273.2704 746.3007,-270.8203"/>
<polygon fill="#191970" stroke="#191970" points="746.8127,-267.3502 736.2993,-268.661 745.3354,-274.1926 746.8127,-267.3502"/>
</g>
<!-- Node27&#45;&gt;Node34 -->
<g id="edge48" class="edge">
<title>Node27&#45;&gt;Node34</title>
<path fill="none" stroke="#191970" d="M2232.4133,-313.3906C2242.277,-304.0581 2257.4626,-289.6902 2269.3558,-278.4374"/>
<polygon fill="#191970" stroke="#191970" points="2272.0992,-280.6601 2276.9576,-271.2449 2267.2882,-275.5753 2272.0992,-280.6601"/>
</g>
<!-- Node28&#45;&gt;Node16 -->
<g id="edge39" class="edge">
<title>Node28&#45;&gt;Node16</title>
<path fill="none" stroke="#191970" d="M1872.8926,-184.6303C1873.5457,-174.266 1874.5626,-157.4923 1875.2571,-143 1877.1839,-102.7901 1878.8038,-55.712 1879.6422,-29.7366"/>
<polygon fill="#191970" stroke="#191970" points="1883.1422,-29.788 1879.9615,-19.6819 1876.1458,-29.5657 1883.1422,-29.788"/>
</g>
<!-- Node28&#45;&gt;Node25 -->
<g id="edge40" class="edge">
<title>Node28&#45;&gt;Node25</title>
<path fill="none" stroke="#191970" d="M1871.7841,-184.8225C1870.3705,-167.3175 1864.7334,-130.4978 1842.2571,-112 1746.1872,-32.9351 1343.8147,-14.6095 1224.0366,-10.8704"/>
<polygon fill="#191970" stroke="#191970" points="1224.0799,-7.3703 1213.98,-10.5705 1223.8712,-14.3672 1224.0799,-7.3703"/>
</g>
<!-- Node29 -->
<g id="node30" class="node">
<title>Node29</title>
<g id="a_node30"><a xlink:href="../../d0/d1c/ConfigParamSpec_8h.html" target="_top" xlink:title="Framework/ConfigParamSpec.h">
<polygon fill="none" stroke="#000000" points="1534.7571,-118 1534.7571,-137 1701.7571,-137 1701.7571,-118 1534.7571,-118"/>
<text text-anchor="middle" x="1618.2571" y="-125" font-family="Helvetica,sans-Serif" font-size="10.00" fill="#000000">Framework/ConfigParamSpec.h</text>
</a>
</g>
</g>
<!-- Node28&#45;&gt;Node29 -->
<g id="edge35" class="edge">
<title>Node28&#45;&gt;Node29</title>
<path fill="none" stroke="#191970" d="M1836.1348,-184.9717C1791.0313,-173.0743 1713.8138,-152.7059 1664.4519,-139.6852"/>
<polygon fill="#191970" stroke="#191970" points="1665.228,-136.2703 1654.666,-137.1039 1663.4425,-143.0388 1665.228,-136.2703"/>
</g>
<!-- Node30 -->
<g id="node31" class="node">
<title>Node30</title>
<polygon fill="none" stroke="#bfbfbf" points="1719.7571,-112.5 1719.7571,-142.5 1832.7571,-142.5 1832.7571,-112.5 1719.7571,-112.5"/>
<text text-anchor="start" x="1727.7571" y="-130.5" font-family="Helvetica,sans-Serif" font-size="10.00" fill="#000000">boost/property_tree</text>
<text text-anchor="middle" x="1776.2571" y="-119.5" font-family="Helvetica,sans-Serif" font-size="10.00" fill="#000000">/ptree_fwd.hpp</text>
</g>
<!-- Node28&#45;&gt;Node30 -->
<g id="edge38" class="edge">
<title>Node28&#45;&gt;Node30</title>
<path fill="none" stroke="#191970" d="M1858.5026,-184.9005C1844.8689,-175.3853 1823.544,-160.5023 1806.025,-148.2755"/>
<polygon fill="#191970" stroke="#191970" points="1807.9843,-145.3748 1797.7808,-142.5218 1803.978,-151.1151 1807.9843,-145.3748"/>
</g>
<!-- Node29&#45;&gt;Node16 -->
<g id="edge37" class="edge">
<title>Node29&#45;&gt;Node16</title>
<path fill="none" stroke="#191970" d="M1639.6976,-117.8845C1686.0638,-97.0905 1795.7992,-47.8771 1849.5339,-23.7785"/>
<polygon fill="#191970" stroke="#191970" points="1851.1955,-26.8693 1858.8877,-19.5836 1848.331,-20.4822 1851.1955,-26.8693"/>
</g>
<!-- Node29&#45;&gt;Node17 -->
<g id="edge36" class="edge">
<title>Node29&#45;&gt;Node17</title>
<path fill="none" stroke="#191970" d="M1534.7405,-118.0639C1515.231,-115.9661 1494.524,-113.8254 1475.2571,-112 1295.7144,-94.9896 1083.8114,-78.841 977.0699,-70.98"/>
<polygon fill="#191970" stroke="#191970" points="977.3026,-67.4878 967.0729,-70.2454 976.7895,-74.469 977.3026,-67.4878"/>
</g>
<!-- Node31&#45;&gt;Node28 -->
<g id="edge42" class="edge">
<title>Node31&#45;&gt;Node28</title>
<path fill="none" stroke="#191970" d="M1826.8507,-251.9005C1835.0369,-241.552 1848.2456,-224.8542 1858.3114,-212.1295"/>
<polygon fill="#191970" stroke="#191970" points="1861.2185,-214.0959 1864.6776,-204.0817 1855.7285,-209.7531 1861.2185,-214.0959"/>
</g>
<!-- Node31&#45;&gt;Node29 -->
<g id="edge43" class="edge">
<title>Node31&#45;&gt;Node29</title>
<path fill="none" stroke="#191970" d="M1804.8017,-251.8631C1770.2508,-228.8292 1682.6624,-170.4369 1640.977,-142.6466"/>
<polygon fill="#191970" stroke="#191970" points="1642.8435,-139.6845 1632.5815,-137.0496 1638.9606,-145.5089 1642.8435,-139.6845"/>
</g>
<!-- Node31&#45;&gt;Node30 -->
<g id="edge44" class="edge">
<title>Node31&#45;&gt;Node30</title>
<path fill="none" stroke="#191970" d="M1810.6487,-251.6377C1802.6047,-241.8092 1790.9992,-225.924 1785.2571,-210 1778.6018,-191.5438 1776.4802,-169.3795 1775.9523,-152.674"/>
<polygon fill="#191970" stroke="#191970" points="1779.4506,-152.5256 1775.8038,-142.5781 1772.4513,-152.6286 1779.4506,-152.5256"/>
</g>
<!-- Node35&#45;&gt;Node12 -->
<g id="edge54" class="edge">
<title>Node35&#45;&gt;Node12</title>
<path fill="none" stroke="#191970" d="M1321.4406,-186.1503C1238.7314,-177.0258 1105.0338,-161.2503 990.2571,-143 745.441,-104.0725 454.5546,-43.1497 344.9694,-19.673"/>
<polygon fill="#191970" stroke="#191970" points="345.4498,-16.1965 334.938,-17.5199 343.9808,-23.0406 345.4498,-16.1965"/>
</g>
<!-- Node35&#45;&gt;Node18 -->
<g id="edge51" class="edge">
<title>Node35&#45;&gt;Node18</title>
<path fill="none" stroke="#191970" d="M1321.4721,-179.7183C1212.7029,-158.8819 1010.6508,-118.6297 840.2571,-76 773.9167,-59.4027 697.7764,-36.5893 652.4187,-22.5933"/>
<polygon fill="#191970" stroke="#191970" points="653.2611,-19.1902 642.6733,-19.5755 651.1904,-25.877 653.2611,-19.1902"/>
</g>
<!-- Node35&#45;&gt;Node29 -->
<g id="edge50" class="edge">
<title>Node35&#45;&gt;Node29</title>
<path fill="none" stroke="#191970" d="M1449.1805,-179.4639C1487.8501,-167.5792 1541.1899,-151.1858 1577.5505,-140.0108"/>
<polygon fill="#191970" stroke="#191970" points="1578.7989,-143.2887 1587.3294,-137.0053 1576.7424,-136.5976 1578.7989,-143.2887"/>
</g>
<!-- Node35&#45;&gt;Node30 -->
<g id="edge53" class="edge">
<title>Node35&#45;&gt;Node30</title>
<path fill="none" stroke="#191970" d="M1478.8726,-182.9079C1539.3001,-173.658 1625.0565,-159.7992 1709.4154,-143.0951"/>
<polygon fill="#191970" stroke="#191970" points="1710.3055,-146.4866 1719.4274,-141.0977 1708.9359,-139.6218 1710.3055,-146.4866"/>
</g>
<!-- Node36 -->
<g id="node37" class="node">
<title>Node36</title>
<polygon fill="none" stroke="#bfbfbf" points="1334.7571,-118 1334.7571,-137 1391.7571,-137 1391.7571,-118 1334.7571,-118"/>
<text text-anchor="middle" x="1363.2571" y="-125" font-family="Helvetica,sans-Serif" font-size="10.00" fill="#000000">TClass.h</text>
</g>
<!-- Node35&#45;&gt;Node36 -->
<g id="edge52" class="edge">
<title>Node35&#45;&gt;Node36</title>
<path fill="none" stroke="#191970" d="M1391.8612,-179.2967C1386.3763,-169.3645 1379.182,-156.3371 1373.3808,-145.8321"/>
<polygon fill="#191970" stroke="#191970" points="1376.4318,-144.1169 1368.5337,-137.055 1370.3041,-147.5009 1376.4318,-144.1169"/>
</g>
<!-- Node37 -->
<g id="node38" class="node">
<title>Node37</title>
<polygon fill="none" stroke="#bfbfbf" points="1409.7571,-118 1409.7571,-137 1466.7571,-137 1466.7571,-118 1409.7571,-118"/>
<text text-anchor="middle" x="1438.2571" y="-125" font-family="Helvetica,sans-Serif" font-size="10.00" fill="#000000">typeinfo</text>
</g>
<!-- Node35&#45;&gt;Node37 -->
<g id="edge55" class="edge">
<title>Node35&#45;&gt;Node37</title>
<path fill="none" stroke="#191970" d="M1408.8799,-179.2967C1414.513,-169.3645 1421.9017,-156.3371 1427.8598,-145.8321"/>
<polygon fill="#191970" stroke="#191970" points="1430.9488,-147.4801 1432.8378,-137.055 1424.86,-144.0266 1430.9488,-147.4801"/>
</g>
<!-- Node48&#45;&gt;Node38 -->
<g id="edge70" class="edge">
<title>Node48&#45;&gt;Node38</title>
<path fill="none" stroke="#191970" d="M931.0183,-369.3733C907.9782,-360.2226 873.1357,-346.3844 847.507,-336.2057"/>
<polygon fill="#191970" stroke="#191970" points="848.7653,-332.9395 838.1796,-332.5011 846.1815,-339.4452 848.7653,-332.9395"/>
</g>
<!-- Node53&#45;&gt;Node11 -->
<g id="edge80" class="edge">
<title>Node53&#45;&gt;Node11</title>
<path fill="none" stroke="#191970" d="M338.5666,-425.2455C341.1004,-417.7776 344.6748,-407.2427 347.7721,-398.1137"/>
<polygon fill="#191970" stroke="#191970" points="351.0869,-399.237 350.9855,-388.6427 344.458,-396.9879 351.0869,-399.237"/>
</g>
<!-- Node53&#45;&gt;Node12 -->
<g id="edge82" class="edge">
<title>Node53&#45;&gt;Node12</title>
<path fill="none" stroke="#191970" d="M322.5974,-425.4549C312.3025,-417.0029 298.222,-403.7442 290.2571,-389 262.6822,-337.9549 262.2571,-319.517 262.2571,-261.5 262.2571,-261.5 262.2571,-261.5 262.2571,-127.5 262.2571,-91.2454 278.8376,-51.6181 290.0941,-28.8929"/>
<polygon fill="#191970" stroke="#191970" points="293.3535,-30.2076 294.8126,-19.7137 287.1279,-27.0073 293.3535,-30.2076"/>
</g>
<!-- Node53&#45;&gt;Node54 -->
<g id="edge81" class="edge">
<title>Node53&#45;&gt;Node54</title>
<path fill="none" stroke="#191970" d="M315.8317,-425.3733C297.8549,-416.4644 270.913,-403.1127 250.548,-393.0203"/>
<polygon fill="#191970" stroke="#191970" points="251.9432,-389.8055 241.429,-388.5011 248.8349,-396.0776 251.9432,-389.8055"/>
</g>
<!-- Node55&#45;&gt;Node10 -->
<g id="edge85" class="edge">
<title>Node55&#45;&gt;Node10</title>
<path fill="none" stroke="#191970" d="M1343.0316,-426.2818C1347.843,-425.8245 1352.6144,-425.3925 1357.2571,-425 1621.2432,-402.6797 1688.9352,-418.1286 1952.2571,-389 2007.742,-382.8623 2020.7588,-375.0152 2076.2571,-369 2357.0452,-338.5665 2431.7113,-356.192 2716.7086,-333.0849"/>
<polygon fill="#191970" stroke="#191970" points="2717.256,-336.5519 2726.9362,-332.2456 2716.6834,-329.5753 2717.256,-336.5519"/>
</g>
</g>
</svg>
