<?xml version="1.0" encoding="UTF-8" standalone="no"?>
<!DOCTYPE svg PUBLIC "-//W3C//DTD SVG 1.1//EN"
 "http://www.w3.org/Graphics/SVG/1.1/DTD/svg11.dtd">
<!-- Generated by graphviz version 2.40.1 (20161225.0304)
 -->
<!-- Title: TimestampUserTask Pages: 1 -->
<!--zoomable 877 -->
<svg id="main" version="1.1" xmlns="http://www.w3.org/2000/svg" xmlns:xlink="http://www.w3.org/1999/xlink" xml:space="preserve" onload="init(evt)">
<style type="text/css"><![CDATA[
.edge:hover path { stroke: red; }
.edge:hover polygon { stroke: red; fill: red; }
]]></style>
<script type="text/javascript"><![CDATA[
var edges = document.getElementsByTagName('g');
if (edges && edges.length) {
  for (var i=0;i<edges.length;i++) {
    if (edges[i].id.substr(0,4)=='edge') {
      edges[i].setAttribute('class','edge');
    }
  }
}
]]></script>
        <defs>
                <circle id="rim" cx="0" cy="0" r="7"/>
                <circle id="rim2" cx="0" cy="0" r="3.5"/>
                <g id="zoomPlus">
                        <use xlink:href="#rim" fill="#404040">
                                <set attributeName="fill" to="#808080" begin="zoomplus.mouseover" end="zoomplus.mouseout"/>
                        </use>
                        <path d="M-4,0h8M0,-4v8" fill="none" stroke="white" stroke-width="1.5" pointer-events="none"/>
                </g>
                <g id="zoomMin">
                        <use xlink:href="#rim" fill="#404040">
                                <set attributeName="fill" to="#808080" begin="zoomminus.mouseover" end="zoomminus.mouseout"/>
                        </use>
                        <path d="M-4,0h8" fill="none" stroke="white" stroke-width="1.5" pointer-events="none"/>
                </g>
                <g id="dirArrow">
                        <path fill="none" stroke="white" stroke-width="1.5" d="M0,-3.0v7 M-2.5,-0.5L0,-3.0L2.5,-0.5"/>
                </g>
               <g id="resetDef">
                       <use xlink:href="#rim2" fill="#404040">
                               <set attributeName="fill" to="#808080" begin="reset.mouseover" end="reset.mouseout"/>
                       </use>
               </g>
        </defs>

<script type="text/javascript">
var viewWidth = 883;
var viewHeight = 877;
var sectionId = 'dynsection-0';
</script>
<script xlink:href="../../svgpan.js"/>
<svg id="graph" class="graph">
<g id="viewport">
<title>TimestampUserTask</title>
<!-- Node1 -->
<g id="node1" class="node">
<title>Node1</title>
<polygon fill="#bfbfbf" stroke="#000000" points="321,-.5 321,-68.5 437,-68.5 437,-.5 321,-.5"/>
<text text-anchor="middle" x="379" y="-56.5" font-family="Helvetica,sans-Serif" font-size="10.00" fill="#000000">TimestampUserTask</text>
<polyline fill="none" stroke="#000000" points="321,-49.5 437,-49.5 "/>
<text text-anchor="middle" x="379" y="-37.5" font-family="Helvetica,sans-Serif" font-size="10.00" fill="#000000"> </text>
<polyline fill="none" stroke="#000000" points="321,-30.5 437,-30.5 "/>
<text text-anchor="start" x="329" y="-18.5" font-family="Helvetica,sans-Serif" font-size="10.00" fill="#000000">+ init()</text>
<text text-anchor="start" x="329" y="-7.5" font-family="Helvetica,sans-Serif" font-size="10.00" fill="#000000">+ process()</text>
</g>
<!-- Node2 -->
<g id="node2" class="node">
<title>Node2</title>
<g id="a_node2"><a xlink:href="../../de/de9/structo2_1_1framework_1_1Service.html" target="_top" xlink:title="{o2::framework::Service\l\&lt; o2::ccdb::BasicCCDBManager \&gt;\n||+ operator&#45;\&gt;()\l}">
<polygon fill="none" stroke="#000000" points="126,-359.5 126,-427.5 308,-427.5 308,-359.5 126,-359.5"/>
<text text-anchor="start" x="134" y="-415.5" font-family="Helvetica,sans-Serif" font-size="10.00" fill="#000000">o2::framework::Service</text>
<text text-anchor="middle" x="217" y="-404.5" font-family="Helvetica,sans-Serif" font-size="10.00" fill="#000000">&lt; o2::ccdb::BasicCCDBManager &gt;</text>
<polyline fill="none" stroke="#000000" points="126,-397.5 308,-397.5 "/>
<text text-anchor="middle" x="217" y="-385.5" font-family="Helvetica,sans-Serif" font-size="10.00" fill="#000000"> </text>
<polyline fill="none" stroke="#000000" points="126,-378.5 308,-378.5 "/>
<text text-anchor="start" x="134" y="-366.5" font-family="Helvetica,sans-Serif" font-size="10.00" fill="#000000">+ operator&#45;&gt;()</text>
</a>
</g>
</g>
<!-- Node2&#45;&gt;Node1 -->
<g id="edge1" class="edge">
<title>Node2&#45;&gt;Node1</title>
<path fill="none" stroke="#404040" d="M221.3214,-359.0937C229.0952,-306.286 248.8303,-203.3598 292,-127 302.153,-109.041 316.5083,-91.8517 330.6369,-77.269"/>
<polygon fill="none" stroke="#404040" points="330.879,-77.027 332.2939,-69.9561 339.3651,-68.5425 337.9502,-75.6135 330.879,-77.027"/>
<text text-anchor="middle" x="272" y="-217" font-family="Helvetica,sans-Serif" font-size="10.00" fill="#000000"> +ccdb</text>
</g>
<!-- Node3 -->
<g id="node3" class="node">
<title>Node3</title>
<g id="a_node3"><a xlink:href="../../da/d73/classo2_1_1ccdb_1_1BasicCCDBManager.html" target="_top" xlink:title="{o2::ccdb::BasicCCDBManager\n||+ setURL()\l+ setTimestamp()\l+ getURL()\l+ getTimestamp()\l+ getForTimeStamp()\l+ get()\l+ isHostReachable()\l+ clearCache()\l+ clearCache()\l+ isCachingEnabled()\l+ setCaching()\l+ isLocalObjectValidityChecking\lEnabled()\l+ setLocalObjectValidityChecking()\l+ setCreatedNotAfter()\l+ getCreatedNotAfter()\l+ resetCreatedNotAfter()\l+ setCreatedNotBefore()\l+ getCreatedNotBefore()\l+ resetCreatedNotBefore()\l+ instance()\l}">
<polygon fill="none" stroke="#000000" points="176.5,-475.5 176.5,-752.5 365.5,-752.5 365.5,-475.5 176.5,-475.5"/>
<text text-anchor="middle" x="271" y="-740.5" font-family="Helvetica,sans-Serif" font-size="10.00" fill="#000000">o2::ccdb::BasicCCDBManager</text>
<polyline fill="none" stroke="#000000" points="176.5,-733.5 365.5,-733.5 "/>
<text text-anchor="middle" x="271" y="-721.5" font-family="Helvetica,sans-Serif" font-size="10.00" fill="#000000"> </text>
<polyline fill="none" stroke="#000000" points="176.5,-714.5 365.5,-714.5 "/>
<text text-anchor="start" x="184.5" y="-702.5" font-family="Helvetica,sans-Serif" font-size="10.00" fill="#000000">+ setURL()</text>
<text text-anchor="start" x="184.5" y="-691.5" font-family="Helvetica,sans-Serif" font-size="10.00" fill="#000000">+ setTimestamp()</text>
<text text-anchor="start" x="184.5" y="-680.5" font-family="Helvetica,sans-Serif" font-size="10.00" fill="#000000">+ getURL()</text>
<text text-anchor="start" x="184.5" y="-669.5" font-family="Helvetica,sans-Serif" font-size="10.00" fill="#000000">+ getTimestamp()</text>
<text text-anchor="start" x="184.5" y="-658.5" font-family="Helvetica,sans-Serif" font-size="10.00" fill="#000000">+ getForTimeStamp()</text>
<text text-anchor="start" x="184.5" y="-647.5" font-family="Helvetica,sans-Serif" font-size="10.00" fill="#000000">+ get()</text>
<text text-anchor="start" x="184.5" y="-636.5" font-family="Helvetica,sans-Serif" font-size="10.00" fill="#000000">+ isHostReachable()</text>
<text text-anchor="start" x="184.5" y="-625.5" font-family="Helvetica,sans-Serif" font-size="10.00" fill="#000000">+ clearCache()</text>
<text text-anchor="start" x="184.5" y="-614.5" font-family="Helvetica,sans-Serif" font-size="10.00" fill="#000000">+ clearCache()</text>
<text text-anchor="start" x="184.5" y="-603.5" font-family="Helvetica,sans-Serif" font-size="10.00" fill="#000000">+ isCachingEnabled()</text>
<text text-anchor="start" x="184.5" y="-592.5" font-family="Helvetica,sans-Serif" font-size="10.00" fill="#000000">+ setCaching()</text>
<text text-anchor="start" x="184.5" y="-581.5" font-family="Helvetica,sans-Serif" font-size="10.00" fill="#000000">+ isLocalObjectValidityChecking</text>
<text text-anchor="start" x="184.5" y="-570.5" font-family="Helvetica,sans-Serif" font-size="10.00" fill="#000000">Enabled()</text>
<text text-anchor="start" x="184.5" y="-559.5" font-family="Helvetica,sans-Serif" font-size="10.00" fill="#000000">+ setLocalObjectValidityChecking()</text>
<text text-anchor="start" x="184.5" y="-548.5" font-family="Helvetica,sans-Serif" font-size="10.00" fill="#000000">+ setCreatedNotAfter()</text>
<text text-anchor="start" x="184.5" y="-537.5" font-family="Helvetica,sans-Serif" font-size="10.00" fill="#000000">+ getCreatedNotAfter()</text>
<text text-anchor="start" x="184.5" y="-526.5" font-family="Helvetica,sans-Serif" font-size="10.00" fill="#000000">+ resetCreatedNotAfter()</text>
<text text-anchor="start" x="184.5" y="-515.5" font-family="Helvetica,sans-Serif" font-size="10.00" fill="#000000">+ setCreatedNotBefore()</text>
<text text-anchor="start" x="184.5" y="-504.5" font-family="Helvetica,sans-Serif" font-size="10.00" fill="#000000">+ getCreatedNotBefore()</text>
<text text-anchor="start" x="184.5" y="-493.5" font-family="Helvetica,sans-Serif" font-size="10.00" fill="#000000">+ resetCreatedNotBefore()</text>
<text text-anchor="start" x="184.5" y="-482.5" font-family="Helvetica,sans-Serif" font-size="10.00" fill="#000000">+ instance()</text>
</a>
</g>
</g>
<!-- Node3&#45;&gt;Node2 -->
<g id="edge2" class="edge">
<title>Node3&#45;&gt;Node2</title>
<path fill="none" stroke="#404040" d="M257.5602,-475.3838C255.1532,-465.3234 252.324,-455.4328 249,-446 248.1547,-443.6011 247.1894,-441.194 246.134,-438.8008"/>
<polygon fill="none" stroke="#404040" points="245.9989,-438.5296 239.7432,-434.9426 240.6483,-427.7885 246.904,-431.3755 245.9989,-438.5296"/>
<text text-anchor="middle" x="275.5" y="-449" font-family="Helvetica,sans-Serif" font-size="10.00" fill="#000000"> +service</text>
</g>
<!-- Node4 -->
<g id="node4" class="node">
<title>Node4</title>
<g id="a_node4"><a xlink:href="../../de/de9/structo2_1_1framework_1_1Service.html" target="_top" xlink:title="{o2::framework::Service\&lt; T \&gt;\n||+ operator&#45;\&gt;()\l}">
<polygon fill="none" stroke="#000000" points="0,-585.5 0,-642.5 158,-642.5 158,-585.5 0,-585.5"/>
<text text-anchor="middle" x="79" y="-630.5" font-family="Helvetica,sans-Serif" font-size="10.00" fill="#000000">o2::framework::Service&lt; T &gt;</text>
<polyline fill="none" stroke="#000000" points="0,-623.5 158,-623.5 "/>
<text text-anchor="middle" x="79" y="-611.5" font-family="Helvetica,sans-Serif" font-size="10.00" fill="#000000"> </text>
<polyline fill="none" stroke="#000000" points="0,-604.5 158,-604.5 "/>
<text text-anchor="start" x="8" y="-592.5" font-family="Helvetica,sans-Serif" font-size="10.00" fill="#000000">+ operator&#45;&gt;()</text>
</a>
</g>
</g>
<!-- Node4&#45;&gt;Node2 -->
<g id="edge3" class="edge">
<title>Node4&#45;&gt;Node2</title>
<path fill="none" stroke="#ffa500" d="M66.3984,-575.4059C56.9791,-538.7493 49.7568,-483.7748 76,-446 82.8556,-436.132 102.9939,-426.5763 125.9826,-418.3828"/>
<polygon fill="#ffa500" stroke="#ffa500" points="63.0713,-576.5086 69.0873,-585.2297 69.823,-574.6605 63.0713,-576.5086"/>
<text text-anchor="middle" x="160.5" y="-449" font-family="Helvetica,sans-Serif" font-size="10.00" fill="#000000"> &lt; o2::ccdb::BasicCCDBManager &gt;</text>
</g>
<!-- Node5 -->
<g id="node5" class="node">
<title>Node5</title>
<polygon fill="none" stroke="#bfbfbf" points="308.5,-811.5 308.5,-868.5 337.5,-868.5 337.5,-811.5 308.5,-811.5"/>
<text text-anchor="middle" x="323" y="-856.5" font-family="Helvetica,sans-Serif" font-size="10.00" fill="#000000">T</text>
<polyline fill="none" stroke="#bfbfbf" points="308.5,-849.5 337.5,-849.5 "/>
<text text-anchor="middle" x="323" y="-837.5" font-family="Helvetica,sans-Serif" font-size="10.00" fill="#000000"> </text>
<polyline fill="none" stroke="#bfbfbf" points="308.5,-830.5 337.5,-830.5 "/>
<text text-anchor="middle" x="323" y="-818.5" font-family="Helvetica,sans-Serif" font-size="10.00" fill="#000000"> </text>
</g>
<!-- Node5&#45;&gt;Node4 -->
<g id="edge4" class="edge">
<title>Node5&#45;&gt;Node4</title>
<path fill="none" stroke="#404040" d="M308.1322,-834.6128C278.4501,-823.281 210.9323,-794.5523 167,-753 136.9165,-724.5463 112.6835,-683.7403 97.3228,-653.6985"/>
<polygon fill="none" stroke="#404040" points="97.2251,-653.502 90.97,-649.9138 91.8764,-642.7599 98.1314,-646.3481 97.2251,-653.502"/>
<text text-anchor="middle" x="241.5" y="-779.5" font-family="Helvetica,sans-Serif" font-size="10.00" fill="#000000"> +service</text>
</g>
<!-- Node11 -->
<g id="node11" class="node">
<title>Node11</title>
<g id="a_node11"><a xlink:href="../../da/d2f/structo2_1_1framework_1_1ConfigurableBase.html" target="_top" xlink:title="{o2::framework::Configurable\lBase\&lt; T \&gt;\n||+ ConfigurableBase()\l}">
<polygon fill="none" stroke="#000000" points="541.5,-580 541.5,-648 696.5,-648 696.5,-580 541.5,-580"/>
<text text-anchor="start" x="549.5" y="-636" font-family="Helvetica,sans-Serif" font-size="10.00" fill="#000000">o2::framework::Configurable</text>
<text text-anchor="middle" x="619" y="-625" font-family="Helvetica,sans-Serif" font-size="10.00" fill="#000000">Base&lt; T &gt;</text>
<polyline fill="none" stroke="#000000" points="541.5,-618 696.5,-618 "/>
<text text-anchor="middle" x="619" y="-606" font-family="Helvetica,sans-Serif" font-size="10.00" fill="#000000"> </text>
<polyline fill="none" stroke="#000000" points="541.5,-599 696.5,-599 "/>
<text text-anchor="start" x="549.5" y="-587" font-family="Helvetica,sans-Serif" font-size="10.00" fill="#000000">+ ConfigurableBase()</text>
</a>
</g>
</g>
<!-- Node5&#45;&gt;Node11 -->
<g id="edge12" class="edge">
<title>Node5&#45;&gt;Node11</title>
<path fill="none" stroke="#404040" d="M337.6156,-836.4945C372.5068,-827.5509 462.1356,-801.1243 521,-753 552.6586,-727.1176 578.7447,-688.5588 596.0222,-658.6139"/>
<polygon fill="none" stroke="#404040" points="596.1024,-658.4711 595.556,-651.2807 601.9831,-648.0108 602.5295,-655.2011 596.1024,-658.4711"/>
<text text-anchor="middle" x="511.5" y="-779.5" font-family="Helvetica,sans-Serif" font-size="10.00" fill="#000000"> +value</text>
</g>
<!-- Node6 -->
<g id="node6" class="node">
<title>Node6</title>
<g id="a_node6"><a xlink:href="../../d8/d71/structo2_1_1framework_1_1Configurable.html" target="_top" xlink:title="{o2::framework::Configurable\l\&lt; std::string \&gt;\n||+ Configurable()\l}">
<polygon fill="none" stroke="#000000" points="301.5,-127.5 301.5,-195.5 456.5,-195.5 456.5,-127.5 301.5,-127.5"/>
<text text-anchor="start" x="309.5" y="-183.5" font-family="Helvetica,sans-Serif" font-size="10.00" fill="#000000">o2::framework::Configurable</text>
<text text-anchor="middle" x="379" y="-172.5" font-family="Helvetica,sans-Serif" font-size="10.00" fill="#000000">&lt; std::string &gt;</text>
<polyline fill="none" stroke="#000000" points="301.5,-165.5 456.5,-165.5 "/>
<text text-anchor="middle" x="379" y="-153.5" font-family="Helvetica,sans-Serif" font-size="10.00" fill="#000000"> </text>
<polyline fill="none" stroke="#000000" points="301.5,-146.5 456.5,-146.5 "/>
<text text-anchor="start" x="309.5" y="-134.5" font-family="Helvetica,sans-Serif" font-size="10.00" fill="#000000">+ Configurable()</text>
</a>
</g>
</g>
<!-- Node6&#45;&gt;Node1 -->
<g id="edge5" class="edge">
<title>Node6&#45;&gt;Node1</title>
<path fill="none" stroke="#404040" d="M379,-127.4663C379,-113.0883 379,-96.1205 379,-80.6429"/>
<polygon fill="none" stroke="#404040" points="379.0001,-80.6276 375,-74.6276 379,-68.6276 383,-74.6276 379.0001,-80.6276"/>
<text text-anchor="middle" x="394.5" y="-101" font-family="Helvetica,sans-Serif" font-size="10.00" fill="#000000"> +url</text>
<text text-anchor="middle" x="394.5" y="-90" font-family="Helvetica,sans-Serif" font-size="10.00" fill="#000000">+path</text>
</g>
<!-- Node7 -->
<g id="node7" class="node">
<title>Node7</title>
<g id="a_node7"><a xlink:href="../../da/def/structo2_1_1framework_1_1ConfigurablePolicyConst.html" target="_top" xlink:title="{o2::framework::Configurable\lPolicyConst\&lt; std::string \&gt;\n||+ ConfigurablePolicyConst()\l}">
<polygon fill="none" stroke="#000000" points="301.5,-243.5 301.5,-311.5 456.5,-311.5 456.5,-243.5 301.5,-243.5"/>
<text text-anchor="start" x="309.5" y="-299.5" font-family="Helvetica,sans-Serif" font-size="10.00" fill="#000000">o2::framework::Configurable</text>
<text text-anchor="middle" x="379" y="-288.5" font-family="Helvetica,sans-Serif" font-size="10.00" fill="#000000">PolicyConst&lt; std::string &gt;</text>
<polyline fill="none" stroke="#000000" points="301.5,-281.5 456.5,-281.5 "/>
<text text-anchor="middle" x="379" y="-269.5" font-family="Helvetica,sans-Serif" font-size="10.00" fill="#000000"> </text>
<polyline fill="none" stroke="#000000" points="301.5,-262.5 456.5,-262.5 "/>
<text text-anchor="start" x="309.5" y="-250.5" font-family="Helvetica,sans-Serif" font-size="10.00" fill="#000000">+ ConfigurablePolicyConst()</text>
</a>
</g>
</g>
<!-- Node7&#45;&gt;Node6 -->
<g id="edge6" class="edge">
<title>Node7&#45;&gt;Node6</title>
<path fill="none" stroke="#191970" d="M379,-233.1851C379,-220.8048 379,-207.5422 379,-195.833"/>
<polygon fill="none" stroke="#191970" points="375.5001,-233.3235 379,-243.3236 382.5001,-233.3236 375.5001,-233.3235"/>
</g>
<!-- Node8 -->
<g id="node8" class="node">
<title>Node8</title>
<g id="a_node8"><a xlink:href="../../da/d2f/structo2_1_1framework_1_1ConfigurableBase.html" target="_top" xlink:title="{o2::framework::Configurable\lBase\&lt; std::string \&gt;\n||+ ConfigurableBase()\l}">
<polygon fill="none" stroke="#000000" points="326.5,-359.5 326.5,-427.5 481.5,-427.5 481.5,-359.5 326.5,-359.5"/>
<text text-anchor="start" x="334.5" y="-415.5" font-family="Helvetica,sans-Serif" font-size="10.00" fill="#000000">o2::framework::Configurable</text>
<text text-anchor="middle" x="404" y="-404.5" font-family="Helvetica,sans-Serif" font-size="10.00" fill="#000000">Base&lt; std::string &gt;</text>
<polyline fill="none" stroke="#000000" points="326.5,-397.5 481.5,-397.5 "/>
<text text-anchor="middle" x="404" y="-385.5" font-family="Helvetica,sans-Serif" font-size="10.00" fill="#000000"> </text>
<polyline fill="none" stroke="#000000" points="326.5,-378.5 481.5,-378.5 "/>
<text text-anchor="start" x="334.5" y="-366.5" font-family="Helvetica,sans-Serif" font-size="10.00" fill="#000000">+ ConfigurableBase()</text>
</a>
</g>
</g>
<!-- Node8&#45;&gt;Node7 -->
<g id="edge7" class="edge">
<title>Node8&#45;&gt;Node7</title>
<path fill="none" stroke="#191970" d="M394.4494,-349.1851C391.7812,-336.8048 388.9229,-323.5422 386.3994,-311.833"/>
<polygon fill="none" stroke="#191970" points="391.1061,-350.2854 396.6344,-359.3236 397.949,-348.8106 391.1061,-350.2854"/>
</g>
<!-- Node9 -->
<g id="node9" class="node">
<title>Node9</title>
<polygon fill="none" stroke="#bfbfbf" points="604.5,-811.5 604.5,-868.5 633.5,-868.5 633.5,-811.5 604.5,-811.5"/>
<text text-anchor="middle" x="619" y="-856.5" font-family="Helvetica,sans-Serif" font-size="10.00" fill="#000000">int</text>
<polyline fill="none" stroke="#bfbfbf" points="604.5,-849.5 633.5,-849.5 "/>
<text text-anchor="middle" x="619" y="-837.5" font-family="Helvetica,sans-Serif" font-size="10.00" fill="#000000"> </text>
<polyline fill="none" stroke="#bfbfbf" points="604.5,-830.5 633.5,-830.5 "/>
<text text-anchor="middle" x="619" y="-818.5" font-family="Helvetica,sans-Serif" font-size="10.00" fill="#000000"> </text>
</g>
<!-- Node9&#45;&gt;Node8 -->
<g id="edge8" class="edge">
<title>Node9&#45;&gt;Node8</title>
<path fill="none" stroke="#404040" d="M604.3765,-834.5265C577.379,-823.5914 520.0079,-796.3079 493,-753 419.993,-635.9315 502.9413,-572.1175 447,-446 445.7669,-443.2201 444.3453,-440.467 442.7858,-437.7636"/>
<polygon fill="none" stroke="#404040" points="442.7379,-437.6899 436.113,-434.842 436.1937,-427.6313 442.8187,-430.4792 442.7379,-437.6899"/>
<text text-anchor="middle" x="513" y="-617" font-family="Helvetica,sans-Serif" font-size="10.00" fill="#000000"> +name</text>
<text text-anchor="middle" x="513" y="-606" font-family="Helvetica,sans-Serif" font-size="10.00" fill="#000000">+help</text>
</g>
<!-- Node9&#45;&gt;Node11 -->
<g id="edge11" class="edge">
<title>Node9&#45;&gt;Node11</title>
<path fill="none" stroke="#404040" d="M619,-811.3769C619,-773.3778 619,-705.8033 619,-660.4497"/>
<polygon fill="none" stroke="#404040" points="619.0001,-660.29 615,-654.29 619,-648.29 623,-654.29 619.0001,-660.29"/>
<text text-anchor="middle" x="639" y="-785" font-family="Helvetica,sans-Serif" font-size="10.00" fill="#000000"> +name</text>
<text text-anchor="middle" x="639" y="-774" font-family="Helvetica,sans-Serif" font-size="10.00" fill="#000000">+help</text>
</g>
<!-- Node17 -->
<g id="node17" class="node">
<title>Node17</title>
<g id="a_node17"><a xlink:href="../../da/d2f/structo2_1_1framework_1_1ConfigurableBase.html" target="_top" xlink:title="{o2::framework::Configurable\lBase\&lt; long \&gt;\n||+ ConfigurableBase()\l}">
<polygon fill="none" stroke="#000000" points="719.5,-359.5 719.5,-427.5 874.5,-427.5 874.5,-359.5 719.5,-359.5"/>
<text text-anchor="start" x="727.5" y="-415.5" font-family="Helvetica,sans-Serif" font-size="10.00" fill="#000000">o2::framework::Configurable</text>
<text text-anchor="middle" x="797" y="-404.5" font-family="Helvetica,sans-Serif" font-size="10.00" fill="#000000">Base&lt; long &gt;</text>
<polyline fill="none" stroke="#000000" points="719.5,-397.5 874.5,-397.5 "/>
<text text-anchor="middle" x="797" y="-385.5" font-family="Helvetica,sans-Serif" font-size="10.00" fill="#000000"> </text>
<polyline fill="none" stroke="#000000" points="719.5,-378.5 874.5,-378.5 "/>
<text text-anchor="start" x="727.5" y="-366.5" font-family="Helvetica,sans-Serif" font-size="10.00" fill="#000000">+ ConfigurableBase()</text>
</a>
</g>
</g>
<!-- Node9&#45;&gt;Node17 -->
<g id="edge20" class="edge">
<title>Node9&#45;&gt;Node17</title>
<path fill="none" stroke="#404040" d="M633.8285,-836.4346C665.217,-828.0202 738.1016,-803.7064 770,-753 831.3555,-655.4677 818.4281,-512.2946 806.3266,-439.5648"/>
<polygon fill="none" stroke="#404040" points="806.3141,-439.493 801.3413,-434.2708 804.2491,-427.672 809.222,-432.8942 806.3141,-439.493"/>
<text text-anchor="middle" x="836" y="-617" font-family="Helvetica,sans-Serif" font-size="10.00" fill="#000000"> +name</text>
<text text-anchor="middle" x="836" y="-606" font-family="Helvetica,sans-Serif" font-size="10.00" fill="#000000">+help</text>
</g>
<!-- Node10 -->
<g id="node10" class="node">
<title>Node10</title>
<polygon fill="none" stroke="#bfbfbf" points="384,-585.5 384,-642.5 428,-642.5 428,-585.5 384,-585.5"/>
<text text-anchor="middle" x="406" y="-630.5" font-family="Helvetica,sans-Serif" font-size="10.00" fill="#000000">string</text>
<polyline fill="none" stroke="#bfbfbf" points="384,-623.5 428,-623.5 "/>
<text text-anchor="middle" x="406" y="-611.5" font-family="Helvetica,sans-Serif" font-size="10.00" fill="#000000"> </text>
<polyline fill="none" stroke="#bfbfbf" points="384,-604.5 428,-604.5 "/>
<text text-anchor="middle" x="406" y="-592.5" font-family="Helvetica,sans-Serif" font-size="10.00" fill="#000000"> </text>
</g>
<!-- Node10&#45;&gt;Node8 -->
<g id="edge9" class="edge">
<title>Node10&#45;&gt;Node8</title>
<path fill="none" stroke="#404040" d="M405.7385,-585.1735C405.4034,-548.2261 404.8183,-483.7136 404.4203,-439.8345"/>
<polygon fill="none" stroke="#404040" points="404.4198,-439.7673 400.3655,-433.8039 404.3108,-427.7678 408.3651,-433.7313 404.4198,-439.7673"/>
<text text-anchor="middle" x="423.5" y="-449" font-family="Helvetica,sans-Serif" font-size="10.00" fill="#000000"> +value</text>
</g>
<!-- Node11&#45;&gt;Node8 -->
<g id="edge10" class="edge">
<title>Node11&#45;&gt;Node8</title>
<path fill="none" stroke="#ffa500" d="M595.2027,-571.0671C572.6079,-533.6847 535.5303,-480.2545 491,-446 482.7502,-439.6539 473.6819,-433.4444 464.6107,-427.6456"/>
<polygon fill="#ffa500" stroke="#ffa500" points="592.2347,-572.9238 600.3541,-579.7302 598.2514,-569.3461 592.2347,-572.9238"/>
<text text-anchor="middle" x="541.5" y="-449" font-family="Helvetica,sans-Serif" font-size="10.00" fill="#000000"> &lt; std::string &gt;</text>
</g>
<!-- Node12 -->
<g id="node12" class="node">
<title>Node12</title>
<g id="a_node12"><a xlink:href="../../da/def/structo2_1_1framework_1_1ConfigurablePolicyConst.html" target="_top" xlink:title="{o2::framework::Configurable\lPolicyConst\&lt; T \&gt;\n||+ ConfigurablePolicyConst()\l}">
<polygon fill="none" stroke="#000000" points="546.5,-359.5 546.5,-427.5 701.5,-427.5 701.5,-359.5 546.5,-359.5"/>
<text text-anchor="start" x="554.5" y="-415.5" font-family="Helvetica,sans-Serif" font-size="10.00" fill="#000000">o2::framework::Configurable</text>
<text text-anchor="middle" x="624" y="-404.5" font-family="Helvetica,sans-Serif" font-size="10.00" fill="#000000">PolicyConst&lt; T &gt;</text>
<polyline fill="none" stroke="#000000" points="546.5,-397.5 701.5,-397.5 "/>
<text text-anchor="middle" x="624" y="-385.5" font-family="Helvetica,sans-Serif" font-size="10.00" fill="#000000"> </text>
<polyline fill="none" stroke="#000000" points="546.5,-378.5 701.5,-378.5 "/>
<text text-anchor="start" x="554.5" y="-366.5" font-family="Helvetica,sans-Serif" font-size="10.00" fill="#000000">+ ConfigurablePolicyConst()</text>
</a>
</g>
</g>
<!-- Node11&#45;&gt;Node12 -->
<g id="edge14" class="edge">
<title>Node11&#45;&gt;Node12</title>
<path fill="none" stroke="#191970" d="M620.0123,-569.3578C620.9615,-527.4959 622.3605,-465.7998 623.2242,-427.7112"/>
<polygon fill="none" stroke="#191970" points="616.5089,-569.4701 619.7813,-579.5469 623.5071,-569.6288 616.5089,-569.4701"/>
</g>
<!-- Node11&#45;&gt;Node17 -->
<g id="edge22" class="edge">
<title>Node11&#45;&gt;Node17</title>
<path fill="none" stroke="#ffa500" d="M628.1738,-569.7755C637.8243,-532.7873 656.2886,-480.6549 689,-446 694.3664,-440.3147 705.8582,-433.4546 719.4256,-426.5959"/>
<polygon fill="#ffa500" stroke="#ffa500" points="624.7028,-569.2297 625.681,-579.7793 631.4951,-570.9223 624.7028,-569.2297"/>
<text text-anchor="middle" x="712.5" y="-449" font-family="Helvetica,sans-Serif" font-size="10.00" fill="#000000"> &lt; long &gt;</text>
</g>
<!-- Node12&#45;&gt;Node7 -->
<g id="edge13" class="edge">
<title>Node12&#45;&gt;Node7</title>
<path fill="none" stroke="#ffa500" d="M543.035,-355.1655C513.2593,-341.0677 479.77,-325.2115 450.8514,-311.5194"/>
<polygon fill="#ffa500" stroke="#ffa500" points="541.6114,-358.364 552.1473,-359.48 544.607,-352.0373 541.6114,-358.364"/>
<text text-anchor="middle" x="545.5" y="-333" font-family="Helvetica,sans-Serif" font-size="10.00" fill="#000000"> &lt; std::string &gt;</text>
</g>
<!-- Node16 -->
<g id="node16" class="node">
<title>Node16</title>
<g id="a_node16"><a xlink:href="../../da/def/structo2_1_1framework_1_1ConfigurablePolicyConst.html" target="_top" xlink:title="{o2::framework::Configurable\lPolicyConst\&lt; long \&gt;\n||+ ConfigurablePolicyConst()\l}">
<polygon fill="none" stroke="#000000" points="647.5,-243.5 647.5,-311.5 802.5,-311.5 802.5,-243.5 647.5,-243.5"/>
<text text-anchor="start" x="655.5" y="-299.5" font-family="Helvetica,sans-Serif" font-size="10.00" fill="#000000">o2::framework::Configurable</text>
<text text-anchor="middle" x="725" y="-288.5" font-family="Helvetica,sans-Serif" font-size="10.00" fill="#000000">PolicyConst&lt; long &gt;</text>
<polyline fill="none" stroke="#000000" points="647.5,-281.5 802.5,-281.5 "/>
<text text-anchor="middle" x="725" y="-269.5" font-family="Helvetica,sans-Serif" font-size="10.00" fill="#000000"> </text>
<polyline fill="none" stroke="#000000" points="647.5,-262.5 802.5,-262.5 "/>
<text text-anchor="start" x="655.5" y="-250.5" font-family="Helvetica,sans-Serif" font-size="10.00" fill="#000000">+ ConfigurablePolicyConst()</text>
</a>
</g>
</g>
<!-- Node12&#45;&gt;Node16 -->
<g id="edge23" class="edge">
<title>Node12&#45;&gt;Node16</title>
<path fill="none" stroke="#ffa500" d="M660.3329,-351.7711C671.7407,-338.6691 684.1979,-324.3619 695.1066,-311.833"/>
<polygon fill="#ffa500" stroke="#ffa500" points="657.684,-349.4834 653.7571,-359.3236 662.9634,-354.08 657.684,-349.4834"/>
<text text-anchor="middle" x="700.5" y="-333" font-family="Helvetica,sans-Serif" font-size="10.00" fill="#000000"> &lt; long &gt;</text>
</g>
<!-- Node13 -->
<g id="node13" class="node">
<title>Node13</title>
<g id="a_node13"><a xlink:href="../../d8/d71/structo2_1_1framework_1_1Configurable.html" target="_top" xlink:title="{o2::framework::Configurable\l\&lt; T, IP \&gt;\n||+ Configurable()\l}">
<polygon fill="none" stroke="#000000" points="474.5,-243.5 474.5,-311.5 629.5,-311.5 629.5,-243.5 474.5,-243.5"/>
<text text-anchor="start" x="482.5" y="-299.5" font-family="Helvetica,sans-Serif" font-size="10.00" fill="#000000">o2::framework::Configurable</text>
<text text-anchor="middle" x="552" y="-288.5" font-family="Helvetica,sans-Serif" font-size="10.00" fill="#000000">&lt; T, IP &gt;</text>
<polyline fill="none" stroke="#000000" points="474.5,-281.5 629.5,-281.5 "/>
<text text-anchor="middle" x="552" y="-269.5" font-family="Helvetica,sans-Serif" font-size="10.00" fill="#000000"> </text>
<polyline fill="none" stroke="#000000" points="474.5,-262.5 629.5,-262.5 "/>
<text text-anchor="start" x="482.5" y="-250.5" font-family="Helvetica,sans-Serif" font-size="10.00" fill="#000000">+ Configurable()</text>
</a>
</g>
</g>
<!-- Node13&#45;&gt;Node6 -->
<g id="edge15" class="edge">
<title>Node13&#45;&gt;Node6</title>
<path fill="none" stroke="#ffa500" d="M491.8777,-237.6137C485.5,-233.3622 479.1135,-229.0963 473,-225 458.7659,-215.4627 443.3501,-205.0739 429.1997,-195.5139"/>
<polygon fill="#ffa500" stroke="#ffa500" points="490.2797,-240.7546 500.5428,-243.385 494.1601,-234.9286 490.2797,-240.7546"/>
<text text-anchor="middle" x="510.5" y="-217" font-family="Helvetica,sans-Serif" font-size="10.00" fill="#000000"> &lt; std::string &gt;</text>
</g>
<!-- Node15 -->
<g id="node15" class="node">
<title>Node15</title>
<g id="a_node15"><a xlink:href="../../d8/d71/structo2_1_1framework_1_1Configurable.html" target="_top" xlink:title="{o2::framework::Configurable\l\&lt; long \&gt;\n||+ Configurable()\l}">
<polygon fill="none" stroke="#000000" points="474.5,-127.5 474.5,-195.5 629.5,-195.5 629.5,-127.5 474.5,-127.5"/>
<text text-anchor="start" x="482.5" y="-183.5" font-family="Helvetica,sans-Serif" font-size="10.00" fill="#000000">o2::framework::Configurable</text>
<text text-anchor="middle" x="552" y="-172.5" font-family="Helvetica,sans-Serif" font-size="10.00" fill="#000000">&lt; long &gt;</text>
<polyline fill="none" stroke="#000000" points="474.5,-165.5 629.5,-165.5 "/>
<text text-anchor="middle" x="552" y="-153.5" font-family="Helvetica,sans-Serif" font-size="10.00" fill="#000000"> </text>
<polyline fill="none" stroke="#000000" points="474.5,-146.5 629.5,-146.5 "/>
<text text-anchor="start" x="482.5" y="-134.5" font-family="Helvetica,sans-Serif" font-size="10.00" fill="#000000">+ Configurable()</text>
</a>
</g>
</g>
<!-- Node13&#45;&gt;Node15 -->
<g id="edge24" class="edge">
<title>Node13&#45;&gt;Node15</title>
<path fill="none" stroke="#ffa500" d="M552,-233.1851C552,-220.8048 552,-207.5422 552,-195.833"/>
<polygon fill="#ffa500" stroke="#ffa500" points="548.5001,-233.3235 552,-243.3236 555.5001,-233.3236 548.5001,-233.3235"/>
<text text-anchor="middle" x="575.5" y="-217" font-family="Helvetica,sans-Serif" font-size="10.00" fill="#000000"> &lt; long &gt;</text>
</g>
<!-- Node14 -->
<g id="node14" class="node">
<title>Node14</title>
<polygon fill="none" stroke="#bfbfbf" points="499.5,-365 499.5,-422 528.5,-422 528.5,-365 499.5,-365"/>
<text text-anchor="middle" x="514" y="-410" font-family="Helvetica,sans-Serif" font-size="10.00" fill="#000000">IP</text>
<polyline fill="none" stroke="#bfbfbf" points="499.5,-403 528.5,-403 "/>
<text text-anchor="middle" x="514" y="-391" font-family="Helvetica,sans-Serif" font-size="10.00" fill="#000000"> </text>
<polyline fill="none" stroke="#bfbfbf" points="499.5,-384 528.5,-384 "/>
<text text-anchor="middle" x="514" y="-372" font-family="Helvetica,sans-Serif" font-size="10.00" fill="#000000"> </text>
</g>
<!-- Node14&#45;&gt;Node13 -->
<g id="edge16" class="edge">
<title>Node14&#45;&gt;Node13</title>
<path fill="none" stroke="#191970" d="M526.6194,-354.9777C531.2112,-340.9607 536.3654,-325.2266 540.8235,-311.6178"/>
<polygon fill="none" stroke="#191970" points="523.1803,-354.2331 523.3933,-364.8258 529.8325,-356.4123 523.1803,-354.2331"/>
</g>
<!-- Node15&#45;&gt;Node1 -->
<g id="edge17" class="edge">
<title>Node15&#45;&gt;Node1</title>
<path fill="none" stroke="#404040" d="M505.6392,-127.4663C484.0172,-111.5935 458.0958,-92.5646 435.3526,-75.8686"/>
<polygon fill="none" stroke="#404040" points="435.1621,-75.7289 427.9584,-75.4027 425.4888,-68.6276 432.6925,-68.9538 435.1621,-75.7289"/>
<text text-anchor="middle" x="509" y="-95.5" font-family="Helvetica,sans-Serif" font-size="10.00" fill="#000000"> +nolaterthan</text>
</g>
<!-- Node16&#45;&gt;Node15 -->
<g id="edge18" class="edge">
<title>Node16&#45;&gt;Node15</title>
<path fill="none" stroke="#191970" d="M665.4547,-237.5737C645.0943,-223.9216 622.5202,-208.7852 602.9044,-195.6324"/>
<polygon fill="none" stroke="#191970" points="663.7751,-240.6614 674.03,-243.3236 667.6735,-234.8474 663.7751,-240.6614"/>
</g>
<!-- Node17&#45;&gt;Node16 -->
<g id="edge19" class="edge">
<title>Node17&#45;&gt;Node16</title>
<path fill="none" stroke="#191970" d="M770.4136,-350.6663C762.47,-337.8683 753.8686,-324.0106 746.3101,-311.833"/>
<polygon fill="none" stroke="#191970" points="767.5396,-352.6729 775.787,-359.3236 773.4871,-348.9814 767.5396,-352.6729"/>
</g>
<!-- Node18 -->
<g id="node18" class="node">
<title>Node18</title>
<g id="a_node18"><a xlink:href="../../d7/d63/classlong.html" target="_top" xlink:title="{long\n||}">
<polygon fill="none" stroke="#000000" points="723,-585.5 723,-642.5 761,-642.5 761,-585.5 723,-585.5"/>
<text text-anchor="middle" x="742" y="-630.5" font-family="Helvetica,sans-Serif" font-size="10.00" fill="#000000">long</text>
<polyline fill="none" stroke="#000000" points="723,-623.5 761,-623.5 "/>
<text text-anchor="middle" x="742" y="-611.5" font-family="Helvetica,sans-Serif" font-size="10.00" fill="#000000"> </text>
<polyline fill="none" stroke="#000000" points="723,-604.5 761,-604.5 "/>
<text text-anchor="middle" x="742" y="-592.5" font-family="Helvetica,sans-Serif" font-size="10.00" fill="#000000"> </text>
</a>
</g>
</g>
<!-- Node18&#45;&gt;Node17 -->
<g id="edge21" class="edge">
<title>Node18&#45;&gt;Node17</title>
<path fill="none" stroke="#404040" d="M735.9721,-585.3163C730.1128,-550.7574 724.6434,-491.6528 744,-446 745.2165,-443.1308 746.6726,-440.3371 748.3125,-437.6302"/>
<polygon fill="none" stroke="#404040" points="748.4659,-437.4148 748.6908,-430.2072 755.4305,-427.6426 755.2056,-434.8502 748.4659,-437.4148"/>
<text text-anchor="middle" x="763.5" y="-449" font-family="Helvetica,sans-Serif" font-size="10.00" fill="#000000"> +value</text>
</g>
</g>
</svg>
        <g id="navigator" transform="translate(0 0)" fill="#404254">
                <rect fill="#f2f5e9" fill-opacity="0.5" stroke="#606060" stroke-width=".5" x="0" y="0" width="60" height="60"/>
                <use id="zoomplus" xlink:href="#zoomPlus" x="17" y="9" onmousedown="handleZoom(evt,'in')"/>
                <use id="zoomminus" xlink:href="#zoomMin" x="42" y="9" onmousedown="handleZoom(evt,'out')"/>
                <use id="reset" xlink:href="#resetDef" x="30" y="36" onmousedown="handleReset()"/>
                <g id="arrowUp" xlink:href="#dirArrow" transform="translate(30 24)" onmousedown="handlePan(0,-1)">
                  <use xlink:href="#rim" fill="#404040">
                        <set attributeName="fill" to="#808080" begin="arrowUp.mouseover" end="arrowUp.mouseout"/>
                  </use>
                  <path fill="none" stroke="white" stroke-width="1.5" d="M0,-3.0v7 M-2.5,-0.5L0,-3.0L2.5,-0.5"/>
                </g>
                <g id="arrowRight" xlink:href="#dirArrow" transform="rotate(90) translate(36 -43)" onmousedown="handlePan(1,0)">
                  <use xlink:href="#rim" fill="#404040">
                        <set attributeName="fill" to="#808080" begin="arrowRight.mouseover" end="arrowRight.mouseout"/>
                  </use>
                  <path fill="none" stroke="white" stroke-width="1.5" d="M0,-3.0v7 M-2.5,-0.5L0,-3.0L2.5,-0.5"/>
                </g>
                <g id="arrowDown" xlink:href="#dirArrow" transform="rotate(180) translate(-30 -48)" onmousedown="handlePan(0,1)">
                  <use xlink:href="#rim" fill="#404040">
                        <set attributeName="fill" to="#808080" begin="arrowDown.mouseover" end="arrowDown.mouseout"/>
                  </use>
                  <path fill="none" stroke="white" stroke-width="1.5" d="M0,-3.0v7 M-2.5,-0.5L0,-3.0L2.5,-0.5"/>
                </g>
                <g id="arrowLeft" xlink:href="#dirArrow" transform="rotate(270) translate(-36 17)" onmousedown="handlePan(-1,0)">
                  <use xlink:href="#rim" fill="#404040">
                        <set attributeName="fill" to="#808080" begin="arrowLeft.mouseover" end="arrowLeft.mouseout"/>
                  </use>
                  <path fill="none" stroke="white" stroke-width="1.5" d="M0,-3.0v7 M-2.5,-0.5L0,-3.0L2.5,-0.5"/>
                </g>
        </g>
        <svg viewBox="0 0 15 15" width="100%" height="30px" preserveAspectRatio="xMaxYMin meet">
         <g id="arrow_out" transform="scale(0.3 0.3)">
          <a xlink:href="structTimestampUserTask__coll__graph_org.svg" target="_base">
           <rect id="button" ry="5" rx="5" y="6" x="6" height="38" width="38"
                fill="#f2f5e9" fill-opacity="0.5" stroke="#606060" stroke-width="1.0"/>
           <path id="arrow"
             d="M 11.500037,31.436501 C 11.940474,20.09759 22.043105,11.32322 32.158766,21.979434 L 37.068811,17.246167 C 37.068811,17.246167 37.088388,32 37.088388,32 L 22.160133,31.978069 C 22.160133,31.978069 26.997745,27.140456 26.997745,27.140456 C 18.528582,18.264221 13.291696,25.230495 11.500037,31.436501 z"
             style="fill:#404040;"/>
          </a>
         </g>
        </svg>
</svg>
