<?xml version="1.0" encoding="UTF-8" standalone="no"?>
<!DOCTYPE svg PUBLIC "-//W3C//DTD SVG 1.1//EN"
 "http://www.w3.org/Graphics/SVG/1.1/DTD/svg11.dtd">
<!-- Generated by graphviz version 2.40.1 (20161225.0304)
 -->
<!-- Title: /home/travis/build/AliceO2Group/AliceO2/DataFormats/Detectors/FIT/FDD/include/DataFormatsFDD/Digit.h Pages: 1 -->
<!--zoomable 339 -->
<svg id="main" version="1.1" xmlns="http://www.w3.org/2000/svg" xmlns:xlink="http://www.w3.org/1999/xlink" xml:space="preserve" onload="init(evt)">
<style type="text/css"><![CDATA[
.edge:hover path { stroke: red; }
.edge:hover polygon { stroke: red; fill: red; }
]]></style>
<script type="text/javascript"><![CDATA[
var edges = document.getElementsByTagName('g');
if (edges && edges.length) {
  for (var i=0;i<edges.length;i++) {
    if (edges[i].id.substr(0,4)=='edge') {
      edges[i].setAttribute('class','edge');
    }
  }
}
]]></script>
        <defs>
                <circle id="rim" cx="0" cy="0" r="7"/>
                <circle id="rim2" cx="0" cy="0" r="3.5"/>
                <g id="zoomPlus">
                        <use xlink:href="#rim" fill="#404040">
                                <set attributeName="fill" to="#808080" begin="zoomplus.mouseover" end="zoomplus.mouseout"/>
                        </use>
                        <path d="M-4,0h8M0,-4v8" fill="none" stroke="white" stroke-width="1.5" pointer-events="none"/>
                </g>
                <g id="zoomMin">
                        <use xlink:href="#rim" fill="#404040">
                                <set attributeName="fill" to="#808080" begin="zoomminus.mouseover" end="zoomminus.mouseout"/>
                        </use>
                        <path d="M-4,0h8" fill="none" stroke="white" stroke-width="1.5" pointer-events="none"/>
                </g>
                <g id="dirArrow">
                        <path fill="none" stroke="white" stroke-width="1.5" d="M0,-3.0v7 M-2.5,-0.5L0,-3.0L2.5,-0.5"/>
                </g>
               <g id="resetDef">
                       <use xlink:href="#rim2" fill="#404040">
                               <set attributeName="fill" to="#808080" begin="reset.mouseover" end="reset.mouseout"/>
                       </use>
               </g>
        </defs>

<script type="text/javascript">
var viewWidth = 2820;
var viewHeight = 339;
var sectionId = 'dynsection-1';
</script>
<script xlink:href="../../svgpan.js"/>
<svg id="graph" class="graph">
<g id="viewport">
<title>/home/travis/build/AliceO2Group/AliceO2/DataFormats/Detectors/FIT/FDD/include/DataFormatsFDD/Digit.h</title>
<!-- Node17 -->
<g id="node1" class="node">
<title>Node17</title>
<polygon fill="#bfbfbf" stroke="#000000" points="1560.5,-267.5 1560.5,-330.5 1742.5,-330.5 1742.5,-267.5 1560.5,-267.5"/>
<text text-anchor="start" x="1568.5" y="-318.5" font-family="Helvetica,sans-Serif" font-size="10.00" fill="#000000">/home/travis/build</text>
<text text-anchor="start" x="1568.5" y="-307.5" font-family="Helvetica,sans-Serif" font-size="10.00" fill="#000000">/AliceO2Group/AliceO2</text>
<text text-anchor="start" x="1568.5" y="-296.5" font-family="Helvetica,sans-Serif" font-size="10.00" fill="#000000">/DataFormats/Detectors</text>
<text text-anchor="start" x="1568.5" y="-285.5" font-family="Helvetica,sans-Serif" font-size="10.00" fill="#000000">/FIT/FDD/include/DataFormatsFDD</text>
<text text-anchor="middle" x="1651.5" y="-274.5" font-family="Helvetica,sans-Serif" font-size="10.00" fill="#000000">/Digit.h</text>
</g>
<!-- Node18 -->
<g id="node2" class="node">
<title>Node18</title>
<g id="a_node2"><a xlink:href="../../d7/d65/FIT_2FDD_2reconstruction_2include_2FDDReconstruction_2CTFCoder_8h.html" target="_top" xlink:title="/home/travis/build\l/AliceO2Group/AliceO2\l/Detectors/FIT/FDD/reconstruction\l/include/FDDReconstruction/CTFCoder.h">
<polygon fill="none" stroke="#000000" points="361.5,-178.5 361.5,-230.5 569.5,-230.5 569.5,-178.5 361.5,-178.5"/>
<text text-anchor="start" x="369.5" y="-218.5" font-family="Helvetica,sans-Serif" font-size="10.00" fill="#000000">/home/travis/build</text>
<text text-anchor="start" x="369.5" y="-207.5" font-family="Helvetica,sans-Serif" font-size="10.00" fill="#000000">/AliceO2Group/AliceO2</text>
<text text-anchor="start" x="369.5" y="-196.5" font-family="Helvetica,sans-Serif" font-size="10.00" fill="#000000">/Detectors/FIT/FDD/reconstruction</text>
<text text-anchor="middle" x="465.5" y="-185.5" font-family="Helvetica,sans-Serif" font-size="10.00" fill="#000000">/include/FDDReconstruction/CTFCoder.h</text>
</a>
</g>
</g>
<!-- Node17&#45;&gt;Node18 -->
<g id="edge1" class="edge">
<title>Node17&#45;&gt;Node18</title>
<path fill="none" stroke="#191970" d="M1550.3486,-290.9403C1327.4321,-273.1784 795.7812,-230.8167 569.8996,-212.8185"/>
<polygon fill="#191970" stroke="#191970" points="1550.1594,-294.4362 1560.4059,-291.7417 1550.7155,-287.4583 1550.1594,-294.4362"/>
</g>
<!-- Node27 -->
<g id="node11" class="node">
<title>Node27</title>
<g id="a_node11"><a xlink:href="../../d2/dde/FDD_2reconstruction_2include_2FDDReconstruction_2ReadRaw_8h.html" target="_top" xlink:title="/home/travis/build\l/AliceO2Group/AliceO2\l/Detectors/FIT/FDD/reconstruction\l/include/FDDReconstruction/ReadRaw.h">
<polygon fill="none" stroke="#000000" points="835.5,-178.5 835.5,-230.5 1041.5,-230.5 1041.5,-178.5 835.5,-178.5"/>
<text text-anchor="start" x="843.5" y="-218.5" font-family="Helvetica,sans-Serif" font-size="10.00" fill="#000000">/home/travis/build</text>
<text text-anchor="start" x="843.5" y="-207.5" font-family="Helvetica,sans-Serif" font-size="10.00" fill="#000000">/AliceO2Group/AliceO2</text>
<text text-anchor="start" x="843.5" y="-196.5" font-family="Helvetica,sans-Serif" font-size="10.00" fill="#000000">/Detectors/FIT/FDD/reconstruction</text>
<text text-anchor="middle" x="938.5" y="-185.5" font-family="Helvetica,sans-Serif" font-size="10.00" fill="#000000">/include/FDDReconstruction/ReadRaw.h</text>
</a>
</g>
</g>
<!-- Node17&#45;&gt;Node27 -->
<g id="edge10" class="edge">
<title>Node17&#45;&gt;Node27</title>
<path fill="none" stroke="#191970" d="M1550.2593,-290.841C1431.3007,-280.4716 1228.2209,-260.3235 1055.5,-231 1050.9827,-230.2331 1046.3777,-229.4023 1041.7335,-228.5242"/>
<polygon fill="#191970" stroke="#191970" points="1550.1788,-294.3471 1560.4434,-291.7228 1550.7826,-287.3732 1550.1788,-294.3471"/>
</g>
<!-- Node29 -->
<g id="node13" class="node">
<title>Node29</title>
<g id="a_node13"><a xlink:href="../../d8/dbe/Reconstructor_8h.html" target="_top" xlink:title="/home/travis/build\l/AliceO2Group/AliceO2\l/Detectors/FIT/FDD/reconstruction\l/include/FDDReconstruction/Reconstructor.h">
<polygon fill="none" stroke="#000000" points="1294.5,-178.5 1294.5,-230.5 1522.5,-230.5 1522.5,-178.5 1294.5,-178.5"/>
<text text-anchor="start" x="1302.5" y="-218.5" font-family="Helvetica,sans-Serif" font-size="10.00" fill="#000000">/home/travis/build</text>
<text text-anchor="start" x="1302.5" y="-207.5" font-family="Helvetica,sans-Serif" font-size="10.00" fill="#000000">/AliceO2Group/AliceO2</text>
<text text-anchor="start" x="1302.5" y="-196.5" font-family="Helvetica,sans-Serif" font-size="10.00" fill="#000000">/Detectors/FIT/FDD/reconstruction</text>
<text text-anchor="middle" x="1408.5" y="-185.5" font-family="Helvetica,sans-Serif" font-size="10.00" fill="#000000">/include/FDDReconstruction/Reconstructor.h</text>
</a>
</g>
</g>
<!-- Node17&#45;&gt;Node29 -->
<g id="edge12" class="edge">
<title>Node17&#45;&gt;Node29</title>
<path fill="none" stroke="#191970" d="M1560.7616,-263.7129C1532.4957,-252.7205 1501.852,-240.8036 1475.5158,-230.5617"/>
<polygon fill="#191970" stroke="#191970" points="1559.658,-267.039 1570.2467,-267.4015 1562.1952,-260.5149 1559.658,-267.039"/>
</g>
<!-- Node32 -->
<g id="node16" class="node">
<title>Node32</title>
<g id="a_node16"><a xlink:href="../../d3/db6/ReconstructorSpec_8cxx.html" target="_top" xlink:title="/home/travis/build\l/AliceO2Group/AliceO2\l/Detectors/FIT/FDD/workflow\l/src/ReconstructorSpec.cxx">
<polygon fill="none" stroke="#000000" points="1010,-.5 1010,-52.5 1165,-52.5 1165,-.5 1010,-.5"/>
<text text-anchor="start" x="1018" y="-40.5" font-family="Helvetica,sans-Serif" font-size="10.00" fill="#000000">/home/travis/build</text>
<text text-anchor="start" x="1018" y="-29.5" font-family="Helvetica,sans-Serif" font-size="10.00" fill="#000000">/AliceO2Group/AliceO2</text>
<text text-anchor="start" x="1018" y="-18.5" font-family="Helvetica,sans-Serif" font-size="10.00" fill="#000000">/Detectors/FIT/FDD/workflow</text>
<text text-anchor="middle" x="1087.5" y="-7.5" font-family="Helvetica,sans-Serif" font-size="10.00" fill="#000000">/src/ReconstructorSpec.cxx</text>
</a>
</g>
</g>
<!-- Node17&#45;&gt;Node32 -->
<g id="edge27" class="edge">
<title>Node17&#45;&gt;Node32</title>
<path fill="none" stroke="#191970" d="M1550.3689,-286.6437C1402.3979,-266.112 1138.9345,-219.3903 1088.5,-142 1071.2014,-115.4557 1074.8748,-77.6807 1080.2223,-52.6492"/>
<polygon fill="#191970" stroke="#191970" points="1549.9989,-290.1256 1560.3818,-288.0176 1550.9505,-283.1906 1549.9989,-290.1256"/>
</g>
<!-- Node34 -->
<g id="node18" class="node">
<title>Node34</title>
<g id="a_node18"><a xlink:href="../../d3/d51/FIT_2FDD_2simulation_2include_2FDDSimulation_2Digitizer_8h.html" target="_top" xlink:title="/home/travis/build\l/AliceO2Group/AliceO2\l/Detectors/FIT/FDD/simulation\l/include/FDDSimulation/Digitizer.h">
<polygon fill="none" stroke="#000000" points="1560,-178.5 1560,-230.5 1743,-230.5 1743,-178.5 1560,-178.5"/>
<text text-anchor="start" x="1568" y="-218.5" font-family="Helvetica,sans-Serif" font-size="10.00" fill="#000000">/home/travis/build</text>
<text text-anchor="start" x="1568" y="-207.5" font-family="Helvetica,sans-Serif" font-size="10.00" fill="#000000">/AliceO2Group/AliceO2</text>
<text text-anchor="start" x="1568" y="-196.5" font-family="Helvetica,sans-Serif" font-size="10.00" fill="#000000">/Detectors/FIT/FDD/simulation</text>
<text text-anchor="middle" x="1651.5" y="-185.5" font-family="Helvetica,sans-Serif" font-size="10.00" fill="#000000">/include/FDDSimulation/Digitizer.h</text>
</a>
</g>
</g>
<!-- Node17&#45;&gt;Node34 -->
<g id="edge17" class="edge">
<title>Node17&#45;&gt;Node34</title>
<path fill="none" stroke="#191970" d="M1651.5,-257.2457C1651.5,-248.2008 1651.5,-238.8836 1651.5,-230.6442"/>
<polygon fill="#191970" stroke="#191970" points="1648.0001,-257.2699 1651.5,-267.27 1655.0001,-257.27 1648.0001,-257.2699"/>
</g>
<!-- Node36 -->
<g id="node20" class="node">
<title>Node36</title>
<g id="a_node20"><a xlink:href="../../d2/d97/FDDDigitizerSpec_8cxx.html" target="_top" xlink:title="/home/travis/build\l/AliceO2Group/AliceO2\l/Steer/DigitizerWorkflow\l/src/FDDDigitizerSpec.cxx">
<polygon fill="none" stroke="#000000" points="1719.5,-89.5 1719.5,-141.5 1861.5,-141.5 1861.5,-89.5 1719.5,-89.5"/>
<text text-anchor="start" x="1727.5" y="-129.5" font-family="Helvetica,sans-Serif" font-size="10.00" fill="#000000">/home/travis/build</text>
<text text-anchor="start" x="1727.5" y="-118.5" font-family="Helvetica,sans-Serif" font-size="10.00" fill="#000000">/AliceO2Group/AliceO2</text>
<text text-anchor="start" x="1727.5" y="-107.5" font-family="Helvetica,sans-Serif" font-size="10.00" fill="#000000">/Steer/DigitizerWorkflow</text>
<text text-anchor="middle" x="1790.5" y="-96.5" font-family="Helvetica,sans-Serif" font-size="10.00" fill="#000000">/src/FDDDigitizerSpec.cxx</text>
</a>
</g>
</g>
<!-- Node17&#45;&gt;Node36 -->
<g id="edge28" class="edge">
<title>Node17&#45;&gt;Node36</title>
<path fill="none" stroke="#191970" d="M1719.772,-261.4906C1731.5461,-252.6906 1742.781,-242.4781 1751.5,-231 1771.7274,-204.3717 1781.8425,-166.6164 1786.6226,-141.6123"/>
<polygon fill="#191970" stroke="#191970" points="1717.663,-258.6958 1711.5588,-267.3555 1721.7309,-264.3925 1717.663,-258.6958"/>
</g>
<!-- Node37 -->
<g id="node21" class="node">
<title>Node37</title>
<g id="a_node21"><a xlink:href="../../d7/d05/FDD_2simulation_2include_2FDDSimulation_2Digits2Raw_8h.html" target="_top" xlink:title="/home/travis/build\l/AliceO2Group/AliceO2\l/Detectors/FIT/FDD/simulation\l/include/FDDSimulation/Digits2Raw.h">
<polygon fill="none" stroke="#000000" points="1862,-178.5 1862,-230.5 2059,-230.5 2059,-178.5 1862,-178.5"/>
<text text-anchor="start" x="1870" y="-218.5" font-family="Helvetica,sans-Serif" font-size="10.00" fill="#000000">/home/travis/build</text>
<text text-anchor="start" x="1870" y="-207.5" font-family="Helvetica,sans-Serif" font-size="10.00" fill="#000000">/AliceO2Group/AliceO2</text>
<text text-anchor="start" x="1870" y="-196.5" font-family="Helvetica,sans-Serif" font-size="10.00" fill="#000000">/Detectors/FIT/FDD/simulation</text>
<text text-anchor="middle" x="1960.5" y="-185.5" font-family="Helvetica,sans-Serif" font-size="10.00" fill="#000000">/include/FDDSimulation/Digits2Raw.h</text>
</a>
</g>
</g>
<!-- Node17&#45;&gt;Node37 -->
<g id="edge20" class="edge">
<title>Node17&#45;&gt;Node37</title>
<path fill="none" stroke="#191970" d="M1752.2645,-268.1837C1792.0587,-256.0136 1837.2858,-242.182 1875.4,-230.5257"/>
<polygon fill="#191970" stroke="#191970" points="1751.0781,-264.8864 1742.5389,-271.158 1753.1253,-271.5804 1751.0781,-264.8864"/>
</g>
<!-- Node40 -->
<g id="node24" class="node">
<title>Node40</title>
<g id="a_node24"><a xlink:href="../../dd/d24/FIT_2FDD_2workflow_2include_2FDDWorkflow_2DigitReaderSpec_8h.html" target="_top" xlink:title="/home/travis/build\l/AliceO2Group/AliceO2\l/Detectors/FIT/FDD/workflow\l/include/FDDWorkflow/DigitReaderSpec.h">
<polygon fill="none" stroke="#000000" points="2262,-178.5 2262,-230.5 2477,-230.5 2477,-178.5 2262,-178.5"/>
<text text-anchor="start" x="2270" y="-218.5" font-family="Helvetica,sans-Serif" font-size="10.00" fill="#000000">/home/travis/build</text>
<text text-anchor="start" x="2270" y="-207.5" font-family="Helvetica,sans-Serif" font-size="10.00" fill="#000000">/AliceO2Group/AliceO2</text>
<text text-anchor="start" x="2270" y="-196.5" font-family="Helvetica,sans-Serif" font-size="10.00" fill="#000000">/Detectors/FIT/FDD/workflow</text>
<text text-anchor="middle" x="2369.5" y="-185.5" font-family="Helvetica,sans-Serif" font-size="10.00" fill="#000000">/include/FDDWorkflow/DigitReaderSpec.h</text>
</a>
</g>
</g>
<!-- Node17&#45;&gt;Node40 -->
<g id="edge23" class="edge">
<title>Node17&#45;&gt;Node40</title>
<path fill="none" stroke="#191970" d="M1753.1125,-285.6262C1887.7649,-267.9039 2124.2942,-236.7729 2261.8936,-218.6627"/>
<polygon fill="#191970" stroke="#191970" points="1752.2573,-282.2085 1742.7996,-286.9836 1753.1708,-289.1486 1752.2573,-282.2085"/>
</g>
<!-- Node43 -->
<g id="node27" class="node">
<title>Node43</title>
<g id="a_node27"><a xlink:href="../../d8/dcd/FDDDigitWriterSpec_8h.html" target="_top" xlink:title="/home/travis/build\l/AliceO2Group/AliceO2\l/Steer/DigitizerWorkflow\l/src/FDDDigitWriterSpec.h">
<polygon fill="none" stroke="#000000" points="2599.5,-178.5 2599.5,-230.5 2741.5,-230.5 2741.5,-178.5 2599.5,-178.5"/>
<text text-anchor="start" x="2607.5" y="-218.5" font-family="Helvetica,sans-Serif" font-size="10.00" fill="#000000">/home/travis/build</text>
<text text-anchor="start" x="2607.5" y="-207.5" font-family="Helvetica,sans-Serif" font-size="10.00" fill="#000000">/AliceO2Group/AliceO2</text>
<text text-anchor="start" x="2607.5" y="-196.5" font-family="Helvetica,sans-Serif" font-size="10.00" fill="#000000">/Steer/DigitizerWorkflow</text>
<text text-anchor="middle" x="2670.5" y="-185.5" font-family="Helvetica,sans-Serif" font-size="10.00" fill="#000000">/src/FDDDigitWriterSpec.h</text>
</a>
</g>
</g>
<!-- Node17&#45;&gt;Node43 -->
<g id="edge29" class="edge">
<title>Node17&#45;&gt;Node43</title>
<path fill="none" stroke="#191970" d="M1752.9401,-292.768C1910.2855,-282.6439 2222.5631,-260.7247 2486.5,-231 2523.8631,-226.7922 2565.3256,-220.9261 2599.4187,-215.7824"/>
<polygon fill="#191970" stroke="#191970" points="1752.5578,-289.2852 1742.8022,-293.4177 1753.0056,-296.2709 1752.5578,-289.2852"/>
</g>
<!-- Node19 -->
<g id="node3" class="node">
<title>Node19</title>
<g id="a_node3"><a xlink:href="../../de/da4/test__ctf__io__fdd_8cxx.html" target="_top" xlink:title="/home/travis/build\l/AliceO2Group/AliceO2\l/Detectors/CTF/test/test\l_ctf_io_fdd.cxx">
<polygon fill="none" stroke="#000000" points="0,-89.5 0,-141.5 131,-141.5 131,-89.5 0,-89.5"/>
<text text-anchor="start" x="8" y="-129.5" font-family="Helvetica,sans-Serif" font-size="10.00" fill="#000000">/home/travis/build</text>
<text text-anchor="start" x="8" y="-118.5" font-family="Helvetica,sans-Serif" font-size="10.00" fill="#000000">/AliceO2Group/AliceO2</text>
<text text-anchor="start" x="8" y="-107.5" font-family="Helvetica,sans-Serif" font-size="10.00" fill="#000000">/Detectors/CTF/test/test</text>
<text text-anchor="middle" x="65.5" y="-96.5" font-family="Helvetica,sans-Serif" font-size="10.00" fill="#000000">_ctf_io_fdd.cxx</text>
</a>
</g>
</g>
<!-- Node18&#45;&gt;Node19 -->
<g id="edge2" class="edge">
<title>Node18&#45;&gt;Node19</title>
<path fill="none" stroke="#191970" d="M351.4743,-186.8726C288.7039,-176.0961 209.7196,-160.7712 140.5,-142 137.4345,-141.1687 134.3144,-140.2728 131.1743,-139.3308"/>
<polygon fill="#191970" stroke="#191970" points="350.9598,-190.3353 361.4054,-188.563 352.1345,-183.4346 350.9598,-190.3353"/>
</g>
<!-- Node20 -->
<g id="node4" class="node">
<title>Node20</title>
<g id="a_node4"><a xlink:href="../../d6/de5/FIT_2FDD_2reconstruction_2src_2CTFCoder_8cxx.html" target="_top" xlink:title="/home/travis/build\l/AliceO2Group/AliceO2\l/Detectors/FIT/FDD/reconstruction\l/src/CTFCoder.cxx">
<polygon fill="none" stroke="#000000" points="149.5,-89.5 149.5,-141.5 329.5,-141.5 329.5,-89.5 149.5,-89.5"/>
<text text-anchor="start" x="157.5" y="-129.5" font-family="Helvetica,sans-Serif" font-size="10.00" fill="#000000">/home/travis/build</text>
<text text-anchor="start" x="157.5" y="-118.5" font-family="Helvetica,sans-Serif" font-size="10.00" fill="#000000">/AliceO2Group/AliceO2</text>
<text text-anchor="start" x="157.5" y="-107.5" font-family="Helvetica,sans-Serif" font-size="10.00" fill="#000000">/Detectors/FIT/FDD/reconstruction</text>
<text text-anchor="middle" x="239.5" y="-96.5" font-family="Helvetica,sans-Serif" font-size="10.00" fill="#000000">/src/CTFCoder.cxx</text>
</a>
</g>
</g>
<!-- Node18&#45;&gt;Node20 -->
<g id="edge3" class="edge">
<title>Node18&#45;&gt;Node20</title>
<path fill="none" stroke="#191970" d="M389.7467,-174.6679C362.5491,-163.9574 332.1102,-151.9704 305.7792,-141.6011"/>
<polygon fill="#191970" stroke="#191970" points="388.6326,-177.9908 399.2196,-178.3984 391.1976,-171.4776 388.6326,-177.9908"/>
</g>
<!-- Node21 -->
<g id="node5" class="node">
<title>Node21</title>
<g id="a_node5"><a xlink:href="../../de/d2a/FIT_2FDD_2workflow_2include_2FDDWorkflow_2EntropyDecoderSpec_8h.html" target="_top" xlink:title="/home/travis/build\l/AliceO2Group/AliceO2\l/Detectors/FIT/FDD/workflow\l/include/FDDWorkflow/EntropyDecoderSpec.h">
<polygon fill="none" stroke="#000000" points="347.5,-89.5 347.5,-141.5 583.5,-141.5 583.5,-89.5 347.5,-89.5"/>
<text text-anchor="start" x="355.5" y="-129.5" font-family="Helvetica,sans-Serif" font-size="10.00" fill="#000000">/home/travis/build</text>
<text text-anchor="start" x="355.5" y="-118.5" font-family="Helvetica,sans-Serif" font-size="10.00" fill="#000000">/AliceO2Group/AliceO2</text>
<text text-anchor="start" x="355.5" y="-107.5" font-family="Helvetica,sans-Serif" font-size="10.00" fill="#000000">/Detectors/FIT/FDD/workflow</text>
<text text-anchor="middle" x="465.5" y="-96.5" font-family="Helvetica,sans-Serif" font-size="10.00" fill="#000000">/include/FDDWorkflow/EntropyDecoderSpec.h</text>
</a>
</g>
</g>
<!-- Node18&#45;&gt;Node21 -->
<g id="edge4" class="edge">
<title>Node18&#45;&gt;Node21</title>
<path fill="none" stroke="#191970" d="M465.5,-168.1155C465.5,-159.2061 465.5,-149.8475 465.5,-141.5341"/>
<polygon fill="#191970" stroke="#191970" points="462.0001,-168.2784 465.5,-178.2784 469.0001,-168.2785 462.0001,-168.2784"/>
</g>
<!-- Node24 -->
<g id="node8" class="node">
<title>Node24</title>
<g id="a_node8"><a xlink:href="../../d9/d3b/FIT_2FDD_2workflow_2include_2FDDWorkflow_2EntropyEncoderSpec_8h.html" target="_top" xlink:title="/home/travis/build\l/AliceO2Group/AliceO2\l/Detectors/FIT/FDD/workflow\l/include/FDDWorkflow/EntropyEncoderSpec.h">
<polygon fill="none" stroke="#000000" points="602,-89.5 602,-141.5 837,-141.5 837,-89.5 602,-89.5"/>
<text text-anchor="start" x="610" y="-129.5" font-family="Helvetica,sans-Serif" font-size="10.00" fill="#000000">/home/travis/build</text>
<text text-anchor="start" x="610" y="-118.5" font-family="Helvetica,sans-Serif" font-size="10.00" fill="#000000">/AliceO2Group/AliceO2</text>
<text text-anchor="start" x="610" y="-107.5" font-family="Helvetica,sans-Serif" font-size="10.00" fill="#000000">/Detectors/FIT/FDD/workflow</text>
<text text-anchor="middle" x="719.5" y="-96.5" font-family="Helvetica,sans-Serif" font-size="10.00" fill="#000000">/include/FDDWorkflow/EntropyEncoderSpec.h</text>
</a>
</g>
</g>
<!-- Node18&#45;&gt;Node24 -->
<g id="edge7" class="edge">
<title>Node18&#45;&gt;Node24</title>
<path fill="none" stroke="#191970" d="M549.4392,-175.0882C580.3088,-164.2717 615.0283,-152.1062 645.0092,-141.6011"/>
<polygon fill="#191970" stroke="#191970" points="548.2722,-171.7884 539.9921,-178.3984 550.587,-178.3946 548.2722,-171.7884"/>
</g>
<!-- Node22 -->
<g id="node6" class="node">
<title>Node22</title>
<g id="a_node6"><a xlink:href="../../dc/d55/ctf-reader-workflow_8cxx.html" target="_top" xlink:title="/home/travis/build\l/AliceO2Group/AliceO2\l/Detectors/CTF/workflow\l/src/ctf&#45;reader&#45;workflow.cxx">
<polygon fill="none" stroke="#000000" points="231,-.5 231,-52.5 382,-52.5 382,-.5 231,-.5"/>
<text text-anchor="start" x="239" y="-40.5" font-family="Helvetica,sans-Serif" font-size="10.00" fill="#000000">/home/travis/build</text>
<text text-anchor="start" x="239" y="-29.5" font-family="Helvetica,sans-Serif" font-size="10.00" fill="#000000">/AliceO2Group/AliceO2</text>
<text text-anchor="start" x="239" y="-18.5" font-family="Helvetica,sans-Serif" font-size="10.00" fill="#000000">/Detectors/CTF/workflow</text>
<text text-anchor="middle" x="306.5" y="-7.5" font-family="Helvetica,sans-Serif" font-size="10.00" fill="#000000">/src/ctf&#45;reader&#45;workflow.cxx</text>
</a>
</g>
</g>
<!-- Node21&#45;&gt;Node22 -->
<g id="edge5" class="edge">
<title>Node21&#45;&gt;Node22</title>
<path fill="none" stroke="#191970" d="M409.7288,-84.2821C391.1955,-73.9082 370.7682,-62.4741 353.0104,-52.5341"/>
<polygon fill="#191970" stroke="#191970" points="408.2192,-87.4481 418.6547,-89.2784 411.6383,-81.3399 408.2192,-87.4481"/>
</g>
<!-- Node23 -->
<g id="node7" class="node">
<title>Node23</title>
<g id="a_node7"><a xlink:href="../../d5/dab/FIT_2FDD_2workflow_2src_2EntropyDecoderSpec_8cxx.html" target="_top" xlink:title="/home/travis/build\l/AliceO2Group/AliceO2\l/Detectors/FIT/FDD/workflow\l/src/EntropyDecoderSpec.cxx">
<polygon fill="none" stroke="#000000" points="400.5,-.5 400.5,-52.5 558.5,-52.5 558.5,-.5 400.5,-.5"/>
<text text-anchor="start" x="408.5" y="-40.5" font-family="Helvetica,sans-Serif" font-size="10.00" fill="#000000">/home/travis/build</text>
<text text-anchor="start" x="408.5" y="-29.5" font-family="Helvetica,sans-Serif" font-size="10.00" fill="#000000">/AliceO2Group/AliceO2</text>
<text text-anchor="start" x="408.5" y="-18.5" font-family="Helvetica,sans-Serif" font-size="10.00" fill="#000000">/Detectors/FIT/FDD/workflow</text>
<text text-anchor="middle" x="479.5" y="-7.5" font-family="Helvetica,sans-Serif" font-size="10.00" fill="#000000">/src/EntropyDecoderSpec.cxx</text>
</a>
</g>
</g>
<!-- Node21&#45;&gt;Node23 -->
<g id="edge6" class="edge">
<title>Node21&#45;&gt;Node23</title>
<path fill="none" stroke="#191970" d="M471.2234,-79.1155C472.6249,-70.2061 474.097,-60.8475 475.4047,-52.5341"/>
<polygon fill="#191970" stroke="#191970" points="467.7213,-78.856 469.6247,-89.2784 474.6362,-79.9438 467.7213,-78.856"/>
</g>
<!-- Node25 -->
<g id="node9" class="node">
<title>Node25</title>
<g id="a_node9"><a xlink:href="../../d0/ddc/FIT_2FDD_2workflow_2src_2entropy-encoder-workflow_8cxx.html" target="_top" xlink:title="/home/travis/build\l/AliceO2Group/AliceO2\l/Detectors/FIT/FDD/workflow\l/src/entropy&#45;encoder&#45;workflow.cxx">
<polygon fill="none" stroke="#000000" points="609.5,-.5 609.5,-52.5 793.5,-52.5 793.5,-.5 609.5,-.5"/>
<text text-anchor="start" x="617.5" y="-40.5" font-family="Helvetica,sans-Serif" font-size="10.00" fill="#000000">/home/travis/build</text>
<text text-anchor="start" x="617.5" y="-29.5" font-family="Helvetica,sans-Serif" font-size="10.00" fill="#000000">/AliceO2Group/AliceO2</text>
<text text-anchor="start" x="617.5" y="-18.5" font-family="Helvetica,sans-Serif" font-size="10.00" fill="#000000">/Detectors/FIT/FDD/workflow</text>
<text text-anchor="middle" x="701.5" y="-7.5" font-family="Helvetica,sans-Serif" font-size="10.00" fill="#000000">/src/entropy&#45;encoder&#45;workflow.cxx</text>
</a>
</g>
</g>
<!-- Node24&#45;&gt;Node25 -->
<g id="edge8" class="edge">
<title>Node24&#45;&gt;Node25</title>
<path fill="none" stroke="#191970" d="M712.2001,-79.4059C710.3806,-70.4097 708.465,-60.9379 706.7653,-52.5341"/>
<polygon fill="#191970" stroke="#191970" points="708.7838,-80.1707 714.1968,-89.2784 715.6449,-78.783 708.7838,-80.1707"/>
</g>
<!-- Node26 -->
<g id="node10" class="node">
<title>Node26</title>
<g id="a_node10"><a xlink:href="../../db/d31/FIT_2FDD_2workflow_2src_2EntropyEncoderSpec_8cxx.html" target="_top" xlink:title="/home/travis/build\l/AliceO2Group/AliceO2\l/Detectors/FIT/FDD/workflow\l/src/EntropyEncoderSpec.cxx">
<polygon fill="none" stroke="#000000" points="812,-.5 812,-52.5 969,-52.5 969,-.5 812,-.5"/>
<text text-anchor="start" x="820" y="-40.5" font-family="Helvetica,sans-Serif" font-size="10.00" fill="#000000">/home/travis/build</text>
<text text-anchor="start" x="820" y="-29.5" font-family="Helvetica,sans-Serif" font-size="10.00" fill="#000000">/AliceO2Group/AliceO2</text>
<text text-anchor="start" x="820" y="-18.5" font-family="Helvetica,sans-Serif" font-size="10.00" fill="#000000">/Detectors/FIT/FDD/workflow</text>
<text text-anchor="middle" x="890.5" y="-7.5" font-family="Helvetica,sans-Serif" font-size="10.00" fill="#000000">/src/EntropyEncoderSpec.cxx</text>
</a>
</g>
</g>
<!-- Node24&#45;&gt;Node26 -->
<g id="edge9" class="edge">
<title>Node24&#45;&gt;Node26</title>
<path fill="none" stroke="#191970" d="M778.9373,-84.5648C799.0127,-74.1162 821.2077,-62.5644 840.4793,-52.5341"/>
<polygon fill="#191970" stroke="#191970" points="777.1353,-81.5569 769.8808,-89.2784 780.3671,-87.7663 777.1353,-81.5569"/>
</g>
<!-- Node28 -->
<g id="node12" class="node">
<title>Node28</title>
<g id="a_node12"><a xlink:href="../../df/d82/FDD_2reconstruction_2src_2ReadRaw_8cxx.html" target="_top" xlink:title="/home/travis/build\l/AliceO2Group/AliceO2\l/Detectors/FIT/FDD/reconstruction\l/src/ReadRaw.cxx">
<polygon fill="none" stroke="#000000" points="855.5,-89.5 855.5,-141.5 1035.5,-141.5 1035.5,-89.5 855.5,-89.5"/>
<text text-anchor="start" x="863.5" y="-129.5" font-family="Helvetica,sans-Serif" font-size="10.00" fill="#000000">/home/travis/build</text>
<text text-anchor="start" x="863.5" y="-118.5" font-family="Helvetica,sans-Serif" font-size="10.00" fill="#000000">/AliceO2Group/AliceO2</text>
<text text-anchor="start" x="863.5" y="-107.5" font-family="Helvetica,sans-Serif" font-size="10.00" fill="#000000">/Detectors/FIT/FDD/reconstruction</text>
<text text-anchor="middle" x="945.5" y="-96.5" font-family="Helvetica,sans-Serif" font-size="10.00" fill="#000000">/src/ReadRaw.cxx</text>
</a>
</g>
</g>
<!-- Node27&#45;&gt;Node28 -->
<g id="edge11" class="edge">
<title>Node27&#45;&gt;Node28</title>
<path fill="none" stroke="#191970" d="M941.3617,-168.1155C942.0624,-159.2061 942.7985,-149.8475 943.4524,-141.5341"/>
<polygon fill="#191970" stroke="#191970" points="937.8573,-168.0348 940.5624,-178.2784 944.8358,-168.5837 937.8573,-168.0348"/>
</g>
<!-- Node30 -->
<g id="node14" class="node">
<title>Node30</title>
<g id="a_node14"><a xlink:href="../../d8/d07/Reconstructor_8cxx.html" target="_top" xlink:title="Implementation of the FDD reconstruction. ">
<polygon fill="none" stroke="#000000" points="1097.5,-89.5 1097.5,-141.5 1277.5,-141.5 1277.5,-89.5 1097.5,-89.5"/>
<text text-anchor="start" x="1105.5" y="-129.5" font-family="Helvetica,sans-Serif" font-size="10.00" fill="#000000">/home/travis/build</text>
<text text-anchor="start" x="1105.5" y="-118.5" font-family="Helvetica,sans-Serif" font-size="10.00" fill="#000000">/AliceO2Group/AliceO2</text>
<text text-anchor="start" x="1105.5" y="-107.5" font-family="Helvetica,sans-Serif" font-size="10.00" fill="#000000">/Detectors/FIT/FDD/reconstruction</text>
<text text-anchor="middle" x="1187.5" y="-96.5" font-family="Helvetica,sans-Serif" font-size="10.00" fill="#000000">/src/Reconstructor.cxx</text>
</a>
</g>
</g>
<!-- Node29&#45;&gt;Node30 -->
<g id="edge13" class="edge">
<title>Node29&#45;&gt;Node30</title>
<path fill="none" stroke="#191970" d="M1334.0741,-174.5276C1307.5669,-163.8527 1277.9489,-151.9251 1252.3129,-141.6011"/>
<polygon fill="#191970" stroke="#191970" points="1333.1024,-177.9094 1343.686,-178.3984 1335.7174,-171.4161 1333.1024,-177.9094"/>
</g>
<!-- Node31 -->
<g id="node15" class="node">
<title>Node31</title>
<g id="a_node15"><a xlink:href="../../d7/df4/ReconstructorSpec_8h.html" target="_top" xlink:title="/home/travis/build\l/AliceO2Group/AliceO2\l/Detectors/FIT/FDD/workflow\l/include/FDDWorkflow/ReconstructorSpec.h">
<polygon fill="none" stroke="#000000" points="1296,-89.5 1296,-141.5 1521,-141.5 1521,-89.5 1296,-89.5"/>
<text text-anchor="start" x="1304" y="-129.5" font-family="Helvetica,sans-Serif" font-size="10.00" fill="#000000">/home/travis/build</text>
<text text-anchor="start" x="1304" y="-118.5" font-family="Helvetica,sans-Serif" font-size="10.00" fill="#000000">/AliceO2Group/AliceO2</text>
<text text-anchor="start" x="1304" y="-107.5" font-family="Helvetica,sans-Serif" font-size="10.00" fill="#000000">/Detectors/FIT/FDD/workflow</text>
<text text-anchor="middle" x="1408.5" y="-96.5" font-family="Helvetica,sans-Serif" font-size="10.00" fill="#000000">/include/FDDWorkflow/ReconstructorSpec.h</text>
</a>
</g>
</g>
<!-- Node29&#45;&gt;Node31 -->
<g id="edge14" class="edge">
<title>Node29&#45;&gt;Node31</title>
<path fill="none" stroke="#191970" d="M1408.5,-168.1155C1408.5,-159.2061 1408.5,-149.8475 1408.5,-141.5341"/>
<polygon fill="#191970" stroke="#191970" points="1405.0001,-168.2784 1408.5,-178.2784 1412.0001,-168.2785 1405.0001,-168.2784"/>
</g>
<!-- Node31&#45;&gt;Node32 -->
<g id="edge15" class="edge">
<title>Node31&#45;&gt;Node32</title>
<path fill="none" stroke="#191970" d="M1304.5022,-86.6657C1259.1911,-74.1028 1206.9928,-59.6304 1165.1472,-48.0283"/>
<polygon fill="#191970" stroke="#191970" points="1303.7867,-90.0993 1314.3584,-89.3984 1305.657,-83.3538 1303.7867,-90.0993"/>
</g>
<!-- Node33 -->
<g id="node17" class="node">
<title>Node33</title>
<g id="a_node17"><a xlink:href="../../d6/d61/FIT_2FDD_2workflow_2src_2RecoWorkflow_8cxx.html" target="_top" xlink:title="/home/travis/build\l/AliceO2Group/AliceO2\l/Detectors/FIT/FDD/workflow\l/src/RecoWorkflow.cxx">
<polygon fill="none" stroke="#000000" points="1930,-.5 1930,-52.5 2085,-52.5 2085,-.5 1930,-.5"/>
<text text-anchor="start" x="1938" y="-40.5" font-family="Helvetica,sans-Serif" font-size="10.00" fill="#000000">/home/travis/build</text>
<text text-anchor="start" x="1938" y="-29.5" font-family="Helvetica,sans-Serif" font-size="10.00" fill="#000000">/AliceO2Group/AliceO2</text>
<text text-anchor="start" x="1938" y="-18.5" font-family="Helvetica,sans-Serif" font-size="10.00" fill="#000000">/Detectors/FIT/FDD/workflow</text>
<text text-anchor="middle" x="2007.5" y="-7.5" font-family="Helvetica,sans-Serif" font-size="10.00" fill="#000000">/src/RecoWorkflow.cxx</text>
</a>
</g>
</g>
<!-- Node31&#45;&gt;Node33 -->
<g id="edge16" class="edge">
<title>Node31&#45;&gt;Node33</title>
<path fill="none" stroke="#191970" d="M1531.1986,-88.9379C1677.9575,-63.7748 1837.4431,-44.812 1929.9518,-34.6437"/>
<polygon fill="#191970" stroke="#191970" points="1530.3615,-85.5306 1521.1035,-90.6822 1531.5534,-92.4284 1530.3615,-85.5306"/>
</g>
<!-- Node35 -->
<g id="node19" class="node">
<title>Node35</title>
<g id="a_node19"><a xlink:href="../../d0/d8c/FIT_2FDD_2simulation_2src_2Digitizer_8cxx.html" target="_top" xlink:title="/home/travis/build\l/AliceO2Group/AliceO2\l/Detectors/FIT/FDD/simulation\l/src/Digitizer.cxx">
<polygon fill="none" stroke="#000000" points="1539.5,-89.5 1539.5,-141.5 1701.5,-141.5 1701.5,-89.5 1539.5,-89.5"/>
<text text-anchor="start" x="1547.5" y="-129.5" font-family="Helvetica,sans-Serif" font-size="10.00" fill="#000000">/home/travis/build</text>
<text text-anchor="start" x="1547.5" y="-118.5" font-family="Helvetica,sans-Serif" font-size="10.00" fill="#000000">/AliceO2Group/AliceO2</text>
<text text-anchor="start" x="1547.5" y="-107.5" font-family="Helvetica,sans-Serif" font-size="10.00" fill="#000000">/Detectors/FIT/FDD/simulation</text>
<text text-anchor="middle" x="1620.5" y="-96.5" font-family="Helvetica,sans-Serif" font-size="10.00" fill="#000000">/src/Digitizer.cxx</text>
</a>
</g>
</g>
<!-- Node34&#45;&gt;Node35 -->
<g id="edge18" class="edge">
<title>Node34&#45;&gt;Node35</title>
<path fill="none" stroke="#191970" d="M1639.0289,-168.6959C1635.8654,-159.6135 1632.5267,-150.0282 1629.5681,-141.5341"/>
<polygon fill="#191970" stroke="#191970" points="1635.772,-169.9862 1642.3666,-178.2784 1642.3825,-167.6836 1635.772,-169.9862"/>
</g>
<!-- Node34&#45;&gt;Node36 -->
<g id="edge19" class="edge">
<title>Node34&#45;&gt;Node36</title>
<path fill="none" stroke="#191970" d="M1701.1414,-172.7152C1717.1066,-162.4929 1734.5981,-151.2933 1749.8399,-141.5341"/>
<polygon fill="#191970" stroke="#191970" points="1698.9871,-169.9386 1692.4528,-178.2784 1702.7617,-175.8337 1698.9871,-169.9386"/>
</g>
<!-- Node38 -->
<g id="node22" class="node">
<title>Node38</title>
<g id="a_node22"><a xlink:href="../../d3/de9/FIT_2FDD_2simulation_2src_2digit2raw_8cxx.html" target="_top" xlink:title="/home/travis/build\l/AliceO2Group/AliceO2\l/Detectors/FIT/FDD/simulation\l/src/digit2raw.cxx">
<polygon fill="none" stroke="#000000" points="1879.5,-89.5 1879.5,-141.5 2041.5,-141.5 2041.5,-89.5 1879.5,-89.5"/>
<text text-anchor="start" x="1887.5" y="-129.5" font-family="Helvetica,sans-Serif" font-size="10.00" fill="#000000">/home/travis/build</text>
<text text-anchor="start" x="1887.5" y="-118.5" font-family="Helvetica,sans-Serif" font-size="10.00" fill="#000000">/AliceO2Group/AliceO2</text>
<text text-anchor="start" x="1887.5" y="-107.5" font-family="Helvetica,sans-Serif" font-size="10.00" fill="#000000">/Detectors/FIT/FDD/simulation</text>
<text text-anchor="middle" x="1960.5" y="-96.5" font-family="Helvetica,sans-Serif" font-size="10.00" fill="#000000">/src/digit2raw.cxx</text>
</a>
</g>
</g>
<!-- Node37&#45;&gt;Node38 -->
<g id="edge21" class="edge">
<title>Node37&#45;&gt;Node38</title>
<path fill="none" stroke="#191970" d="M1960.5,-168.1155C1960.5,-159.2061 1960.5,-149.8475 1960.5,-141.5341"/>
<polygon fill="#191970" stroke="#191970" points="1957.0001,-168.2784 1960.5,-178.2784 1964.0001,-168.2785 1957.0001,-168.2784"/>
</g>
<!-- Node39 -->
<g id="node23" class="node">
<title>Node39</title>
<g id="a_node23"><a xlink:href="../../d8/d53/FDD_2simulation_2src_2Digits2Raw_8cxx.html" target="_top" xlink:title="/home/travis/build\l/AliceO2Group/AliceO2\l/Detectors/FIT/FDD/simulation\l/src/Digits2Raw.cxx">
<polygon fill="none" stroke="#000000" points="2059.5,-89.5 2059.5,-141.5 2221.5,-141.5 2221.5,-89.5 2059.5,-89.5"/>
<text text-anchor="start" x="2067.5" y="-129.5" font-family="Helvetica,sans-Serif" font-size="10.00" fill="#000000">/home/travis/build</text>
<text text-anchor="start" x="2067.5" y="-118.5" font-family="Helvetica,sans-Serif" font-size="10.00" fill="#000000">/AliceO2Group/AliceO2</text>
<text text-anchor="start" x="2067.5" y="-107.5" font-family="Helvetica,sans-Serif" font-size="10.00" fill="#000000">/Detectors/FIT/FDD/simulation</text>
<text text-anchor="middle" x="2140.5" y="-96.5" font-family="Helvetica,sans-Serif" font-size="10.00" fill="#000000">/src/Digits2Raw.cxx</text>
</a>
</g>
</g>
<!-- Node37&#45;&gt;Node39 -->
<g id="edge22" class="edge">
<title>Node37&#45;&gt;Node39</title>
<path fill="none" stroke="#191970" d="M2022.7802,-173.7059C2043.987,-163.2203 2067.4694,-151.6096 2087.8467,-141.5341"/>
<polygon fill="#191970" stroke="#191970" points="2020.9452,-170.7087 2013.5324,-178.2784 2024.0478,-176.9836 2020.9452,-170.7087"/>
</g>
<!-- Node40&#45;&gt;Node33 -->
<g id="edge26" class="edge">
<title>Node40&#45;&gt;Node33</title>
<path fill="none" stroke="#191970" d="M2487.009,-184.1421C2531.7366,-173.7957 2575.1879,-159.6428 2588.5,-142 2602.6879,-123.1966 2604.2404,-106.5244 2588.5,-89 2555.4518,-52.206 2235.6453,-35.2019 2085.1139,-29.1875"/>
<polygon fill="#191970" stroke="#191970" points="2486.1427,-180.7494 2477.1541,-186.358 2487.6784,-187.5789 2486.1427,-180.7494"/>
</g>
<!-- Node41 -->
<g id="node25" class="node">
<title>Node41</title>
<g id="a_node25"><a xlink:href="../../dc/d21/FIT_2FDD_2workflow_2src_2DigitReaderSpec_8cxx.html" target="_top" xlink:title="/home/travis/build\l/AliceO2Group/AliceO2\l/Detectors/FIT/FDD/workflow\l/src/DigitReaderSpec.cxx">
<polygon fill="none" stroke="#000000" points="2240,-89.5 2240,-141.5 2395,-141.5 2395,-89.5 2240,-89.5"/>
<text text-anchor="start" x="2248" y="-129.5" font-family="Helvetica,sans-Serif" font-size="10.00" fill="#000000">/home/travis/build</text>
<text text-anchor="start" x="2248" y="-118.5" font-family="Helvetica,sans-Serif" font-size="10.00" fill="#000000">/AliceO2Group/AliceO2</text>
<text text-anchor="start" x="2248" y="-107.5" font-family="Helvetica,sans-Serif" font-size="10.00" fill="#000000">/Detectors/FIT/FDD/workflow</text>
<text text-anchor="middle" x="2317.5" y="-96.5" font-family="Helvetica,sans-Serif" font-size="10.00" fill="#000000">/src/DigitReaderSpec.cxx</text>
</a>
</g>
</g>
<!-- Node40&#45;&gt;Node41 -->
<g id="edge24" class="edge">
<title>Node40&#45;&gt;Node41</title>
<path fill="none" stroke="#191970" d="M2349.0879,-169.5639C2343.6323,-160.2264 2337.8322,-150.2993 2332.711,-141.5341"/>
<polygon fill="#191970" stroke="#191970" points="2346.1127,-171.4098 2354.1795,-178.2784 2352.1567,-167.8785 2346.1127,-171.4098"/>
</g>
<!-- Node42 -->
<g id="node26" class="node">
<title>Node42</title>
<g id="a_node26"><a xlink:href="../../d7/d01/FIT_2FDD_2workflow_2src_2digits-reader-workflow_8cxx.html" target="_top" xlink:title="/home/travis/build\l/AliceO2Group/AliceO2\l/Detectors/FIT/FDD/workflow\l/src/digits&#45;reader&#45;workflow.cxx">
<polygon fill="none" stroke="#000000" points="2413.5,-89.5 2413.5,-141.5 2579.5,-141.5 2579.5,-89.5 2413.5,-89.5"/>
<text text-anchor="start" x="2421.5" y="-129.5" font-family="Helvetica,sans-Serif" font-size="10.00" fill="#000000">/home/travis/build</text>
<text text-anchor="start" x="2421.5" y="-118.5" font-family="Helvetica,sans-Serif" font-size="10.00" fill="#000000">/AliceO2Group/AliceO2</text>
<text text-anchor="start" x="2421.5" y="-107.5" font-family="Helvetica,sans-Serif" font-size="10.00" fill="#000000">/Detectors/FIT/FDD/workflow</text>
<text text-anchor="middle" x="2496.5" y="-96.5" font-family="Helvetica,sans-Serif" font-size="10.00" fill="#000000">/src/digits&#45;reader&#45;workflow.cxx</text>
</a>
</g>
</g>
<!-- Node40&#45;&gt;Node42 -->
<g id="edge25" class="edge">
<title>Node40&#45;&gt;Node42</title>
<path fill="none" stroke="#191970" d="M2415.2613,-172.431C2429.7385,-162.2856 2445.5531,-151.203 2459.3501,-141.5341"/>
<polygon fill="#191970" stroke="#191970" points="2413.0979,-169.6732 2406.9173,-178.2784 2417.1152,-175.4057 2413.0979,-169.6732"/>
</g>
<!-- Node44 -->
<g id="node28" class="node">
<title>Node44</title>
<g id="a_node28"><a xlink:href="../../d2/dd7/SimpleDigitizerWorkflow_8cxx.html" target="_top" xlink:title="/home/travis/build\l/AliceO2Group/AliceO2\l/Steer/DigitizerWorkflow\l/src/SimpleDigitizerWorkflow.cxx">
<polygon fill="none" stroke="#000000" points="2635.5,-89.5 2635.5,-141.5 2811.5,-141.5 2811.5,-89.5 2635.5,-89.5"/>
<text text-anchor="start" x="2643.5" y="-129.5" font-family="Helvetica,sans-Serif" font-size="10.00" fill="#000000">/home/travis/build</text>
<text text-anchor="start" x="2643.5" y="-118.5" font-family="Helvetica,sans-Serif" font-size="10.00" fill="#000000">/AliceO2Group/AliceO2</text>
<text text-anchor="start" x="2643.5" y="-107.5" font-family="Helvetica,sans-Serif" font-size="10.00" fill="#000000">/Steer/DigitizerWorkflow</text>
<text text-anchor="middle" x="2723.5" y="-96.5" font-family="Helvetica,sans-Serif" font-size="10.00" fill="#000000">/src/SimpleDigitizerWorkflow.cxx</text>
</a>
</g>
</g>
<!-- Node43&#45;&gt;Node44 -->
<g id="edge30" class="edge">
<title>Node43&#45;&gt;Node44</title>
<path fill="none" stroke="#191970" d="M2691.3046,-169.5639C2696.8651,-160.2264 2702.7768,-150.2993 2707.9965,-141.5341"/>
<polygon fill="#191970" stroke="#191970" points="2688.2245,-167.8957 2686.1151,-178.2784 2694.2388,-171.4773 2688.2245,-167.8957"/>
</g>
</g>
</svg>
        <g id="navigator" transform="translate(0 0)" fill="#404254">
                <rect fill="#f2f5e9" fill-opacity="0.5" stroke="#606060" stroke-width=".5" x="0" y="0" width="60" height="60"/>
                <use id="zoomplus" xlink:href="#zoomPlus" x="17" y="9" onmousedown="handleZoom(evt,'in')"/>
                <use id="zoomminus" xlink:href="#zoomMin" x="42" y="9" onmousedown="handleZoom(evt,'out')"/>
                <use id="reset" xlink:href="#resetDef" x="30" y="36" onmousedown="handleReset()"/>
                <g id="arrowUp" xlink:href="#dirArrow" transform="translate(30 24)" onmousedown="handlePan(0,-1)">
                  <use xlink:href="#rim" fill="#404040">
                        <set attributeName="fill" to="#808080" begin="arrowUp.mouseover" end="arrowUp.mouseout"/>
                  </use>
                  <path fill="none" stroke="white" stroke-width="1.5" d="M0,-3.0v7 M-2.5,-0.5L0,-3.0L2.5,-0.5"/>
                </g>
                <g id="arrowRight" xlink:href="#dirArrow" transform="rotate(90) translate(36 -43)" onmousedown="handlePan(1,0)">
                  <use xlink:href="#rim" fill="#404040">
                        <set attributeName="fill" to="#808080" begin="arrowRight.mouseover" end="arrowRight.mouseout"/>
                  </use>
                  <path fill="none" stroke="white" stroke-width="1.5" d="M0,-3.0v7 M-2.5,-0.5L0,-3.0L2.5,-0.5"/>
                </g>
                <g id="arrowDown" xlink:href="#dirArrow" transform="rotate(180) translate(-30 -48)" onmousedown="handlePan(0,1)">
                  <use xlink:href="#rim" fill="#404040">
                        <set attributeName="fill" to="#808080" begin="arrowDown.mouseover" end="arrowDown.mouseout"/>
                  </use>
                  <path fill="none" stroke="white" stroke-width="1.5" d="M0,-3.0v7 M-2.5,-0.5L0,-3.0L2.5,-0.5"/>
                </g>
                <g id="arrowLeft" xlink:href="#dirArrow" transform="rotate(270) translate(-36 17)" onmousedown="handlePan(-1,0)">
                  <use xlink:href="#rim" fill="#404040">
                        <set attributeName="fill" to="#808080" begin="arrowLeft.mouseover" end="arrowLeft.mouseout"/>
                  </use>
                  <path fill="none" stroke="white" stroke-width="1.5" d="M0,-3.0v7 M-2.5,-0.5L0,-3.0L2.5,-0.5"/>
                </g>
        </g>
        <svg viewBox="0 0 15 15" width="100%" height="30px" preserveAspectRatio="xMaxYMin meet">
         <g id="arrow_out" transform="scale(0.3 0.3)">
          <a xlink:href="DataFormats_2Detectors_2FIT_2FDD_2include_2DataFormatsFDD_2Digit_8h__dep__incl_org.svg" target="_base">
           <rect id="button" ry="5" rx="5" y="6" x="6" height="38" width="38"
                fill="#f2f5e9" fill-opacity="0.5" stroke="#606060" stroke-width="1.0"/>
           <path id="arrow"
             d="M 11.500037,31.436501 C 11.940474,20.09759 22.043105,11.32322 32.158766,21.979434 L 37.068811,17.246167 C 37.068811,17.246167 37.088388,32 37.088388,32 L 22.160133,31.978069 C 22.160133,31.978069 26.997745,27.140456 26.997745,27.140456 C 18.528582,18.264221 13.291696,25.230495 11.500037,31.436501 z"
             style="fill:#404040;"/>
          </a>
         </g>
        </svg>
</svg>
