<?xml version="1.0" encoding="UTF-8" standalone="no"?>
<!DOCTYPE svg PUBLIC "-//W3C//DTD SVG 1.1//EN"
 "http://www.w3.org/Graphics/SVG/1.1/DTD/svg11.dtd">
<!-- Generated by graphviz version 2.40.1 (20161225.0304)
 -->
<!-- Title: /home/travis/build/AliceO2Group/AliceO2/Detectors/MUON/MID/Raw/include/MIDRaw/DecodedDataAggregator.h Pages: 1 -->
<svg width="724pt" height="150pt"
 viewBox="0.00 0.00 724.00 150.00" xmlns="http://www.w3.org/2000/svg" xmlns:xlink="http://www.w3.org/1999/xlink">
<g id="graph0" class="graph" transform="scale(1 1) rotate(0) translate(4 146)">
<title>/home/travis/build/AliceO2Group/AliceO2/Detectors/MUON/MID/Raw/include/MIDRaw/DecodedDataAggregator.h</title>
<!-- Node18 -->
<g id="node1" class="node">
<title>Node18</title>
<polygon fill="#bfbfbf" stroke="#000000" points="240.5,-89.5 240.5,-141.5 469.5,-141.5 469.5,-89.5 240.5,-89.5"/>
<text text-anchor="start" x="248.5" y="-129.5" font-family="Helvetica,sans-Serif" font-size="10.00" fill="#000000">/home/travis/build</text>
<text text-anchor="start" x="248.5" y="-118.5" font-family="Helvetica,sans-Serif" font-size="10.00" fill="#000000">/AliceO2Group/AliceO2</text>
<text text-anchor="start" x="248.5" y="-107.5" font-family="Helvetica,sans-Serif" font-size="10.00" fill="#000000">/Detectors/MUON/MID/Raw</text>
<text text-anchor="middle" x="355" y="-96.5" font-family="Helvetica,sans-Serif" font-size="10.00" fill="#000000">/include/MIDRaw/DecodedDataAggregator.h</text>
</g>
<!-- Node19 -->
<g id="node2" class="node">
<title>Node19</title>
<g id="a_node2"><a xlink:href="../../d1/d9a/DecodedDataAggregator_8cxx.html" target="_top" xlink:title="MID decoded raw data aggregator. ">
<polygon fill="none" stroke="#000000" points="0,-.5 0,-52.5 176,-52.5 176,-.5 0,-.5"/>
<text text-anchor="start" x="8" y="-40.5" font-family="Helvetica,sans-Serif" font-size="10.00" fill="#000000">/home/travis/build</text>
<text text-anchor="start" x="8" y="-29.5" font-family="Helvetica,sans-Serif" font-size="10.00" fill="#000000">/AliceO2Group/AliceO2</text>
<text text-anchor="start" x="8" y="-18.5" font-family="Helvetica,sans-Serif" font-size="10.00" fill="#000000">/Detectors/MUON/MID/Raw</text>
<text text-anchor="middle" x="88" y="-7.5" font-family="Helvetica,sans-Serif" font-size="10.00" fill="#000000">/src/DecodedDataAggregator.cxx</text>
</a>
</g>
</g>
<!-- Node18&#45;&gt;Node19 -->
<g id="edge1" class="edge">
<title>Node18&#45;&gt;Node19</title>
<path fill="none" stroke="#191970" d="M267.184,-86.228C234.6299,-75.3766 197.9546,-63.1515 166.3033,-52.6011"/>
<polygon fill="#191970" stroke="#191970" points="266.1016,-89.5565 276.6953,-89.3984 268.3152,-82.9157 266.1016,-89.5565"/>
</g>
<!-- Node20 -->
<g id="node3" class="node">
<title>Node20</title>
<g id="a_node3"><a xlink:href="../../d8/d4c/testRaw_8cxx.html" target="_top" xlink:title="Test MID raw data decoder. ">
<polygon fill="none" stroke="#000000" points="194,-.5 194,-52.5 340,-52.5 340,-.5 194,-.5"/>
<text text-anchor="start" x="202" y="-40.5" font-family="Helvetica,sans-Serif" font-size="10.00" fill="#000000">/home/travis/build</text>
<text text-anchor="start" x="202" y="-29.5" font-family="Helvetica,sans-Serif" font-size="10.00" fill="#000000">/AliceO2Group/AliceO2</text>
<text text-anchor="start" x="202" y="-18.5" font-family="Helvetica,sans-Serif" font-size="10.00" fill="#000000">/Detectors/MUON/MID/Raw</text>
<text text-anchor="middle" x="267" y="-7.5" font-family="Helvetica,sans-Serif" font-size="10.00" fill="#000000">/test/testRaw.cxx</text>
</a>
</g>
</g>
<!-- Node18&#45;&gt;Node20 -->
<g id="edge2" class="edge">
<title>Node18&#45;&gt;Node20</title>
<path fill="none" stroke="#191970" d="M321.8793,-82.0029C312.2389,-72.2529 301.8551,-61.7511 292.7416,-52.5341"/>
<polygon fill="#191970" stroke="#191970" points="319.5532,-84.6284 329.0731,-89.2784 324.5309,-79.7066 319.5532,-84.6284"/>
</g>
<!-- Node21 -->
<g id="node4" class="node">
<title>Node21</title>
<g id="a_node4"><a xlink:href="../../db/de7/RawAggregatorSpec_8cxx.html" target="_top" xlink:title="Data processor spec for MID raw data aggregator device. ">
<polygon fill="none" stroke="#000000" points="358,-.5 358,-52.5 528,-52.5 528,-.5 358,-.5"/>
<text text-anchor="start" x="366" y="-40.5" font-family="Helvetica,sans-Serif" font-size="10.00" fill="#000000">/home/travis/build</text>
<text text-anchor="start" x="366" y="-29.5" font-family="Helvetica,sans-Serif" font-size="10.00" fill="#000000">/AliceO2Group/AliceO2</text>
<text text-anchor="start" x="366" y="-18.5" font-family="Helvetica,sans-Serif" font-size="10.00" fill="#000000">/Detectors/MUON/MID/Workflow</text>
<text text-anchor="middle" x="443" y="-7.5" font-family="Helvetica,sans-Serif" font-size="10.00" fill="#000000">/src/RawAggregatorSpec.cxx</text>
</a>
</g>
</g>
<!-- Node18&#45;&gt;Node21 -->
<g id="edge3" class="edge">
<title>Node18&#45;&gt;Node21</title>
<path fill="none" stroke="#191970" d="M388.1207,-82.0029C397.7611,-72.2529 408.1449,-61.7511 417.2584,-52.5341"/>
<polygon fill="#191970" stroke="#191970" points="385.4691,-79.7066 380.9269,-89.2784 390.4468,-84.6284 385.4691,-79.7066"/>
</g>
<!-- Node22 -->
<g id="node5" class="node">
<title>Node22</title>
<g id="a_node5"><a xlink:href="../../de/d2b/ZeroSuppressionSpec_8cxx.html" target="_top" xlink:title="MID zero suppression spec. ">
<polygon fill="none" stroke="#000000" points="546,-.5 546,-52.5 716,-52.5 716,-.5 546,-.5"/>
<text text-anchor="start" x="554" y="-40.5" font-family="Helvetica,sans-Serif" font-size="10.00" fill="#000000">/home/travis/build</text>
<text text-anchor="start" x="554" y="-29.5" font-family="Helvetica,sans-Serif" font-size="10.00" fill="#000000">/AliceO2Group/AliceO2</text>
<text text-anchor="start" x="554" y="-18.5" font-family="Helvetica,sans-Serif" font-size="10.00" fill="#000000">/Detectors/MUON/MID/Workflow</text>
<text text-anchor="middle" x="631" y="-7.5" font-family="Helvetica,sans-Serif" font-size="10.00" fill="#000000">/src/ZeroSuppressionSpec.cxx</text>
</a>
</g>
</g>
<!-- Node18&#45;&gt;Node22 -->
<g id="edge4" class="edge">
<title>Node18&#45;&gt;Node22</title>
<path fill="none" stroke="#191970" d="M445.776,-86.228C479.4275,-75.3766 517.3391,-63.1515 550.0572,-52.6011"/>
<polygon fill="#191970" stroke="#191970" points="444.3875,-82.9982 435.9442,-89.3984 446.5358,-89.6604 444.3875,-82.9982"/>
</g>
</g>
</svg>
