<?xml version="1.0" encoding="UTF-8" standalone="no"?>
<!DOCTYPE svg PUBLIC "-//W3C//DTD SVG 1.1//EN"
 "http://www.w3.org/Graphics/SVG/1.1/DTD/svg11.dtd">
<!-- Generated by graphviz version 2.40.1 (20161225.0304)
 -->
<!-- Title: /home/travis/build/AliceO2Group/AliceO2/Detectors/TRD/base/include/TRDBase/GeometryFlat.h Pages: 1 -->
<svg width="1090pt" height="285pt"
 viewBox="0.00 0.00 1089.50 285.00" xmlns="http://www.w3.org/2000/svg" xmlns:xlink="http://www.w3.org/1999/xlink">
<g id="graph0" class="graph" transform="scale(1 1) rotate(0) translate(4 281)">
<title>/home/travis/build/AliceO2Group/AliceO2/Detectors/TRD/base/include/TRDBase/GeometryFlat.h</title>
<!-- Node0 -->
<g id="node1" class="node">
<title>Node0</title>
<polygon fill="#bfbfbf" stroke="#000000" points="503.5,-224.5 503.5,-276.5 658.5,-276.5 658.5,-224.5 503.5,-224.5"/>
<text text-anchor="start" x="511.5" y="-264.5" font-family="Helvetica,sans-Serif" font-size="10.00" fill="#000000">/home/travis/build</text>
<text text-anchor="start" x="511.5" y="-253.5" font-family="Helvetica,sans-Serif" font-size="10.00" fill="#000000">/AliceO2Group/AliceO2</text>
<text text-anchor="start" x="511.5" y="-242.5" font-family="Helvetica,sans-Serif" font-size="10.00" fill="#000000">/Detectors/TRD/base/include</text>
<text text-anchor="middle" x="581" y="-231.5" font-family="Helvetica,sans-Serif" font-size="10.00" fill="#000000">/TRDBase/GeometryFlat.h</text>
</g>
<!-- Node1 -->
<g id="node2" class="node">
<title>Node1</title>
<polygon fill="none" stroke="#bfbfbf" points="0,-112.5 0,-131.5 50,-131.5 50,-112.5 0,-112.5"/>
<text text-anchor="middle" x="25" y="-119.5" font-family="Helvetica,sans-Serif" font-size="10.00" fill="#000000">cstring</text>
</g>
<!-- Node0&#45;&gt;Node1 -->
<g id="edge1" class="edge">
<title>Node0&#45;&gt;Node1</title>
<path fill="none" stroke="#191970" d="M503.2251,-234.5226C402.887,-213.5347 222.8479,-174.6044 59.9199,-132.1366"/>
<polygon fill="#191970" stroke="#191970" points="60.7646,-128.7398 50.2043,-129.5946 58.9927,-135.5119 60.7646,-128.7398"/>
</g>
<!-- Node2 -->
<g id="node3" class="node">
<title>Node2</title>
<g id="a_node3"><a xlink:href="../../db/dff/FlatObject_8h.html" target="_top" xlink:title="Definition of FlatObject class. ">
<polygon fill="none" stroke="#000000" points="310.5,-168.5 310.5,-187.5 385.5,-187.5 385.5,-168.5 310.5,-168.5"/>
<text text-anchor="middle" x="348" y="-175.5" font-family="Helvetica,sans-Serif" font-size="10.00" fill="#000000">FlatObject.h</text>
</a>
</g>
</g>
<!-- Node0&#45;&gt;Node2 -->
<g id="edge2" class="edge">
<title>Node0&#45;&gt;Node2</title>
<path fill="none" stroke="#191970" d="M503.4144,-226.3585C464.95,-214.39 420.0916,-200.4319 388.4834,-190.5968"/>
<polygon fill="#191970" stroke="#191970" points="389.2999,-187.1854 378.7115,-187.5562 387.2201,-193.8693 389.2999,-187.1854"/>
</g>
<!-- Node6 -->
<g id="node7" class="node">
<title>Node6</title>
<g id="a_node7"><a xlink:href="../../df/d21/GPUCommonDef_8h.html" target="_top" xlink:title="GPUCommonDef.h">
<polygon fill="none" stroke="#000000" points="460.5,-56.5 460.5,-75.5 567.5,-75.5 567.5,-56.5 460.5,-56.5"/>
<text text-anchor="middle" x="514" y="-63.5" font-family="Helvetica,sans-Serif" font-size="10.00" fill="#000000">GPUCommonDef.h</text>
</a>
</g>
</g>
<!-- Node0&#45;&gt;Node6 -->
<g id="edge15" class="edge">
<title>Node0&#45;&gt;Node6</title>
<path fill="none" stroke="#191970" d="M529.5179,-224.2977C516.1572,-214.8013 503.4422,-202.7096 496,-188 479.095,-154.5867 493.6914,-109.8831 504.6358,-84.9132"/>
<polygon fill="#191970" stroke="#191970" points="507.8312,-86.342 508.8596,-75.7972 501.4798,-83.3992 507.8312,-86.342"/>
</g>
<!-- Node14 -->
<g id="node15" class="node">
<title>Node14</title>
<g id="a_node15"><a xlink:href="../../d0/d53/GPUCommonTransform3D_8h.html" target="_top" xlink:title="GPUCommonTransform3D.h">
<polygon fill="none" stroke="#000000" points="504.5,-168.5 504.5,-187.5 657.5,-187.5 657.5,-168.5 504.5,-168.5"/>
<text text-anchor="middle" x="581" y="-175.5" font-family="Helvetica,sans-Serif" font-size="10.00" fill="#000000">GPUCommonTransform3D.h</text>
</a>
</g>
</g>
<!-- Node0&#45;&gt;Node14 -->
<g id="edge16" class="edge">
<title>Node0&#45;&gt;Node14</title>
<path fill="none" stroke="#191970" d="M581,-224.3258C581,-215.5142 581,-205.8397 581,-197.621"/>
<polygon fill="#191970" stroke="#191970" points="584.5001,-197.534 581,-187.534 577.5001,-197.534 584.5001,-197.534"/>
</g>
<!-- Node15 -->
<g id="node16" class="node">
<title>Node15</title>
<g id="a_node16"><a xlink:href="../../d8/d06/TRD_2base_2include_2TRDBase_2GeometryBase_8h.html" target="_top" xlink:title="TRDBase/GeometryBase.h">
<polygon fill="none" stroke="#000000" points="714,-168.5 714,-187.5 860,-187.5 860,-168.5 714,-168.5"/>
<text text-anchor="middle" x="787" y="-175.5" font-family="Helvetica,sans-Serif" font-size="10.00" fill="#000000">TRDBase/GeometryBase.h</text>
</a>
</g>
</g>
<!-- Node0&#45;&gt;Node15 -->
<g id="edge18" class="edge">
<title>Node0&#45;&gt;Node15</title>
<path fill="none" stroke="#191970" d="M655.0797,-224.4283C687.4006,-213.0532 723.8558,-200.2231 750.2399,-190.9374"/>
<polygon fill="#191970" stroke="#191970" points="751.5582,-194.184 759.8291,-187.5626 749.2343,-187.581 751.5582,-194.184"/>
</g>
<!-- Node17 -->
<g id="node18" class="node">
<title>Node17</title>
<g id="a_node18"><a xlink:href="../../d6/dc2/DataFormats_2Detectors_2TRD_2include_2DataFormatsTRD_2Constants_8h.html" target="_top" xlink:title="DataFormatsTRD/Constants.h">
<polygon fill="none" stroke="#000000" points="920.5,-112.5 920.5,-131.5 1081.5,-131.5 1081.5,-112.5 920.5,-112.5"/>
<text text-anchor="middle" x="1001" y="-119.5" font-family="Helvetica,sans-Serif" font-size="10.00" fill="#000000">DataFormatsTRD/Constants.h</text>
</a>
</g>
</g>
<!-- Node0&#45;&gt;Node17 -->
<g id="edge27" class="edge">
<title>Node0&#45;&gt;Node17</title>
<path fill="none" stroke="#191970" d="M658.5443,-239.0827C717.3567,-229.1354 799.6298,-212.4353 869,-188 907.9567,-174.2777 950.1922,-151.6668 976.13,-136.8028"/>
<polygon fill="#191970" stroke="#191970" points="978.0189,-139.7534 984.9124,-131.7079 974.5063,-133.6985 978.0189,-139.7534"/>
</g>
<!-- Node18 -->
<g id="node19" class="node">
<title>Node18</title>
<g id="a_node19"><a xlink:href="../../da/de4/PadPlane_8h.html" target="_top" xlink:title="TRDBase/PadPlane.h">
<polygon fill="none" stroke="#000000" points="618.5,-112.5 618.5,-131.5 735.5,-131.5 735.5,-112.5 618.5,-112.5"/>
<text text-anchor="middle" x="677" y="-119.5" font-family="Helvetica,sans-Serif" font-size="10.00" fill="#000000">TRDBase/PadPlane.h</text>
</a>
</g>
</g>
<!-- Node0&#45;&gt;Node18 -->
<g id="edge26" class="edge">
<title>Node0&#45;&gt;Node18</title>
<path fill="none" stroke="#191970" d="M630.7998,-224.2768C644.589,-214.6608 658.1773,-202.5084 667,-188 675.3736,-174.23 677.6007,-155.9448 677.8881,-142.1131"/>
<polygon fill="#191970" stroke="#191970" points="681.3836,-141.6967 677.7657,-131.7388 674.3841,-141.7794 681.3836,-141.6967"/>
</g>
<!-- Node2&#45;&gt;Node1 -->
<g id="edge5" class="edge">
<title>Node2&#45;&gt;Node1</title>
<path fill="none" stroke="#191970" d="M310.297,-173.5673C256.6846,-166.9226 155.2311,-153.0894 59.9496,-131.9893"/>
<polygon fill="#191970" stroke="#191970" points="60.6808,-128.5664 50.1568,-129.7896 59.1466,-135.3962 60.6808,-128.5664"/>
</g>
<!-- Node3 -->
<g id="node4" class="node">
<title>Node3</title>
<polygon fill="none" stroke="#bfbfbf" points="356.5,-112.5 356.5,-131.5 409.5,-131.5 409.5,-112.5 356.5,-112.5"/>
<text text-anchor="middle" x="383" y="-119.5" font-family="Helvetica,sans-Serif" font-size="10.00" fill="#000000">cstddef</text>
</g>
<!-- Node2&#45;&gt;Node3 -->
<g id="edge3" class="edge">
<title>Node2&#45;&gt;Node3</title>
<path fill="none" stroke="#191970" d="M354.0965,-168.2455C358.9145,-160.5367 365.7751,-149.5598 371.6032,-140.2348"/>
<polygon fill="#191970" stroke="#191970" points="374.6413,-141.9777 376.9733,-131.6427 368.7053,-138.2677 374.6413,-141.9777"/>
</g>
<!-- Node4 -->
<g id="node5" class="node">
<title>Node4</title>
<polygon fill="none" stroke="#bfbfbf" points="68,-112.5 68,-131.5 126,-131.5 126,-112.5 68,-112.5"/>
<text text-anchor="middle" x="97" y="-119.5" font-family="Helvetica,sans-Serif" font-size="10.00" fill="#000000">memory</text>
</g>
<!-- Node2&#45;&gt;Node4 -->
<g id="edge4" class="edge">
<title>Node2&#45;&gt;Node4</title>
<path fill="none" stroke="#191970" d="M310.3748,-170.2788C269.9076,-161.8764 203.4398,-147.794 136.2706,-131.9957"/>
<polygon fill="#191970" stroke="#191970" points="136.8953,-128.547 126.3584,-129.6529 135.2851,-135.3593 136.8953,-128.547"/>
</g>
<!-- Node5 -->
<g id="node6" class="node">
<title>Node5</title>
<polygon fill="none" stroke="#bfbfbf" points="286,-112.5 286,-131.5 338,-131.5 338,-112.5 286,-112.5"/>
<text text-anchor="middle" x="312" y="-119.5" font-family="Helvetica,sans-Serif" font-size="10.00" fill="#000000">cassert</text>
</g>
<!-- Node2&#45;&gt;Node5 -->
<g id="edge6" class="edge">
<title>Node2&#45;&gt;Node5</title>
<path fill="none" stroke="#191970" d="M341.7293,-168.2455C336.7736,-160.5367 329.717,-149.5598 323.7224,-140.2348"/>
<polygon fill="#191970" stroke="#191970" points="326.5506,-138.1618 318.1989,-131.6427 320.6624,-141.9471 326.5506,-138.1618"/>
</g>
<!-- Node2&#45;&gt;Node6 -->
<g id="edge7" class="edge">
<title>Node2&#45;&gt;Node6</title>
<path fill="none" stroke="#191970" d="M363.0514,-168.4474C377.4866,-159.2392 399.8526,-144.8491 419,-132 444.337,-114.9974 473.0623,-94.9286 492.2291,-81.4224"/>
<polygon fill="#191970" stroke="#191970" points="494.4142,-84.1642 500.5648,-75.5375 490.3769,-78.4457 494.4142,-84.1642"/>
</g>
<!-- Node9 -->
<g id="node10" class="node">
<title>Node9</title>
<g id="a_node10"><a xlink:href="../../d2/d45/GPUCommonRtypes_8h.html" target="_top" xlink:title="GPUCommonRtypes.h">
<polygon fill="none" stroke="#000000" points="614.5,-56.5 614.5,-75.5 739.5,-75.5 739.5,-56.5 614.5,-56.5"/>
<text text-anchor="middle" x="677" y="-63.5" font-family="Helvetica,sans-Serif" font-size="10.00" fill="#000000">GPUCommonRtypes.h</text>
</a>
</g>
</g>
<!-- Node2&#45;&gt;Node9 -->
<g id="edge10" class="edge">
<title>Node2&#45;&gt;Node9</title>
<path fill="none" stroke="#191970" d="M376.0504,-168.4509C435.1727,-148.3242 572.6121,-101.5363 639.3258,-78.8253"/>
<polygon fill="#191970" stroke="#191970" points="640.6821,-82.0609 649.0206,-75.5249 638.4262,-75.4343 640.6821,-82.0609"/>
</g>
<!-- Node11 -->
<g id="node12" class="node">
<title>Node11</title>
<g id="a_node12"><a xlink:href="../../df/d5b/GPUCommonLogger_8h.html" target="_top" xlink:title="GPUCommonLogger.h">
<polygon fill="none" stroke="#000000" points="144.5,-112.5 144.5,-131.5 267.5,-131.5 267.5,-112.5 144.5,-112.5"/>
<text text-anchor="middle" x="206" y="-119.5" font-family="Helvetica,sans-Serif" font-size="10.00" fill="#000000">GPUCommonLogger.h</text>
</a>
</g>
</g>
<!-- Node2&#45;&gt;Node11 -->
<g id="edge12" class="edge">
<title>Node2&#45;&gt;Node11</title>
<path fill="none" stroke="#191970" d="M323.5893,-168.3733C300.3858,-159.2226 265.2962,-145.3844 239.4858,-135.2057"/>
<polygon fill="#191970" stroke="#191970" points="240.6789,-131.9139 230.0921,-131.5011 238.1108,-138.4258 240.6789,-131.9139"/>
</g>
<!-- Node7 -->
<g id="node8" class="node">
<title>Node7</title>
<g id="a_node8"><a xlink:href="../../d5/d93/GPUCommonDefSettings_8h.html" target="_top" xlink:title="GPUCommonDefSettings.h">
<polygon fill="none" stroke="#000000" points="460,-.5 460,-19.5 608,-19.5 608,-.5 460,-.5"/>
<text text-anchor="middle" x="534" y="-7.5" font-family="Helvetica,sans-Serif" font-size="10.00" fill="#000000">GPUCommonDefSettings.h</text>
</a>
</g>
</g>
<!-- Node6&#45;&gt;Node7 -->
<g id="edge8" class="edge">
<title>Node6&#45;&gt;Node7</title>
<path fill="none" stroke="#191970" d="M517.4837,-56.2455C520.1508,-48.7776 523.9133,-38.2427 527.1737,-29.1137"/>
<polygon fill="#191970" stroke="#191970" points="530.4889,-30.2373 530.5562,-19.6427 523.8967,-27.8829 530.4889,-30.2373"/>
</g>
<!-- Node8 -->
<g id="node9" class="node">
<title>Node8</title>
<g id="a_node9"><a xlink:href="../../da/d5a/GPUCommonDefAPI_8h.html" target="_top" xlink:title="GPUCommonDefAPI.h">
<polygon fill="none" stroke="#000000" points="318,-.5 318,-19.5 442,-19.5 442,-.5 318,-.5"/>
<text text-anchor="middle" x="380" y="-7.5" font-family="Helvetica,sans-Serif" font-size="10.00" fill="#000000">GPUCommonDefAPI.h</text>
</a>
</g>
</g>
<!-- Node6&#45;&gt;Node8 -->
<g id="edge9" class="edge">
<title>Node6&#45;&gt;Node8</title>
<path fill="none" stroke="#191970" d="M490.9646,-56.3733C469.2612,-47.3032 436.5382,-33.6279 412.245,-23.4755"/>
<polygon fill="#191970" stroke="#191970" points="413.3111,-20.1278 402.7348,-19.5011 410.6119,-26.5865 413.3111,-20.1278"/>
</g>
<!-- Node10 -->
<g id="node11" class="node">
<title>Node10</title>
<polygon fill="none" stroke="#bfbfbf" points="647.5,-.5 647.5,-19.5 706.5,-19.5 706.5,-.5 647.5,-.5"/>
<text text-anchor="middle" x="677" y="-7.5" font-family="Helvetica,sans-Serif" font-size="10.00" fill="#000000">Rtypes.h</text>
</g>
<!-- Node9&#45;&gt;Node10 -->
<g id="edge11" class="edge">
<title>Node9&#45;&gt;Node10</title>
<path fill="none" stroke="#191970" d="M677,-56.2455C677,-48.9382 677,-38.6944 677,-29.7046"/>
<polygon fill="#191970" stroke="#191970" points="680.5001,-29.6426 677,-19.6427 673.5001,-29.6427 680.5001,-29.6426"/>
</g>
<!-- Node12 -->
<g id="node13" class="node">
<title>Node12</title>
<polygon fill="none" stroke="#bfbfbf" points="140,-56.5 140,-75.5 200,-75.5 200,-56.5 140,-56.5"/>
<text text-anchor="middle" x="170" y="-63.5" font-family="Helvetica,sans-Serif" font-size="10.00" fill="#000000">iostream</text>
</g>
<!-- Node11&#45;&gt;Node12 -->
<g id="edge13" class="edge">
<title>Node11&#45;&gt;Node12</title>
<path fill="none" stroke="#191970" d="M199.7293,-112.2455C194.7736,-104.5367 187.717,-93.5598 181.7224,-84.2348"/>
<polygon fill="#191970" stroke="#191970" points="184.5506,-82.1618 176.1989,-75.6427 178.6624,-85.9471 184.5506,-82.1618"/>
</g>
<!-- Node13 -->
<g id="node14" class="node">
<title>Node13</title>
<polygon fill="none" stroke="#bfbfbf" points="218,-56.5 218,-75.5 264,-75.5 264,-56.5 218,-56.5"/>
<text text-anchor="middle" x="241" y="-63.5" font-family="Helvetica,sans-Serif" font-size="10.00" fill="#000000">cstdio</text>
</g>
<!-- Node11&#45;&gt;Node13 -->
<g id="edge14" class="edge">
<title>Node11&#45;&gt;Node13</title>
<path fill="none" stroke="#191970" d="M212.0965,-112.2455C216.9145,-104.5367 223.7751,-93.5598 229.6032,-84.2348"/>
<polygon fill="#191970" stroke="#191970" points="232.6413,-85.9777 234.9733,-75.6427 226.7053,-82.2677 232.6413,-85.9777"/>
</g>
<!-- Node14&#45;&gt;Node6 -->
<g id="edge17" class="edge">
<title>Node14&#45;&gt;Node6</title>
<path fill="none" stroke="#191970" d="M575.2876,-168.4509C564.1623,-149.8533 539.4192,-108.4919 525.005,-84.3964"/>
<polygon fill="#191970" stroke="#191970" points="527.8352,-82.3098 519.6979,-75.5249 521.8281,-85.9034 527.8352,-82.3098"/>
</g>
<!-- Node15&#45;&gt;Node6 -->
<g id="edge19" class="edge">
<title>Node15&#45;&gt;Node6</title>
<path fill="none" stroke="#191970" d="M730.2863,-168.4923C694.6876,-161.2681 648.4136,-149.5371 610,-132 581.0923,-118.8026 551.5073,-96.9442 532.9652,-82.027"/>
<polygon fill="#191970" stroke="#191970" points="534.9854,-79.1574 525.0331,-75.524 530.5474,-84.5707 534.9854,-79.1574"/>
</g>
<!-- Node16 -->
<g id="node17" class="node">
<title>Node16</title>
<g id="a_node17"><a xlink:href="../../d5/d17/CommonParam_8h.html" target="_top" xlink:title="TRDBase/CommonParam.h">
<polygon fill="none" stroke="#000000" points="754,-112.5 754,-131.5 902,-131.5 902,-112.5 754,-112.5"/>
<text text-anchor="middle" x="828" y="-119.5" font-family="Helvetica,sans-Serif" font-size="10.00" fill="#000000">TRDBase/CommonParam.h</text>
</a>
</g>
</g>
<!-- Node15&#45;&gt;Node16 -->
<g id="edge20" class="edge">
<title>Node15&#45;&gt;Node16</title>
<path fill="none" stroke="#191970" d="M794.1417,-168.2455C799.8444,-160.4564 807.99,-149.3308 814.8625,-139.9439"/>
<polygon fill="#191970" stroke="#191970" points="817.8568,-141.7789 820.9402,-131.6427 812.2087,-137.6437 817.8568,-141.7789"/>
</g>
<!-- Node15&#45;&gt;Node17 -->
<g id="edge22" class="edge">
<title>Node15&#45;&gt;Node17</title>
<path fill="none" stroke="#191970" d="M823.7879,-168.3733C860.0661,-158.8799 915.6236,-144.3415 954.8446,-134.0781"/>
<polygon fill="#191970" stroke="#191970" points="955.904,-137.4188 964.6921,-131.5011 954.1318,-130.6468 955.904,-137.4188"/>
</g>
<!-- Node15&#45;&gt;Node18 -->
<g id="edge23" class="edge">
<title>Node15&#45;&gt;Node18</title>
<path fill="none" stroke="#191970" d="M767.8395,-168.2455C750.4889,-159.4125 724.7099,-146.2887 705.0417,-136.2758"/>
<polygon fill="#191970" stroke="#191970" points="706.4405,-133.0605 695.941,-131.6427 703.2647,-139.2986 706.4405,-133.0605"/>
</g>
<!-- Node16&#45;&gt;Node9 -->
<g id="edge21" class="edge">
<title>Node16&#45;&gt;Node9</title>
<path fill="none" stroke="#191970" d="M802.0422,-112.3733C777.2593,-103.1822 739.7254,-89.2624 712.246,-79.0713"/>
<polygon fill="#191970" stroke="#191970" points="713.2121,-75.6968 702.6191,-75.5011 710.7781,-82.26 713.2121,-75.6968"/>
</g>
<!-- Node18&#45;&gt;Node6 -->
<g id="edge25" class="edge">
<title>Node18&#45;&gt;Node6</title>
<path fill="none" stroke="#191970" d="M648.9793,-112.3733C621.9922,-103.1016 580.9983,-89.0178 551.2689,-78.804"/>
<polygon fill="#191970" stroke="#191970" points="552.2497,-75.4403 541.6551,-75.5011 549.9752,-82.0605 552.2497,-75.4403"/>
</g>
<!-- Node18&#45;&gt;Node9 -->
<g id="edge24" class="edge">
<title>Node18&#45;&gt;Node9</title>
<path fill="none" stroke="#191970" d="M677,-112.2455C677,-104.9382 677,-94.6944 677,-85.7046"/>
<polygon fill="#191970" stroke="#191970" points="680.5001,-85.6426 677,-75.6427 673.5001,-85.6427 680.5001,-85.6426"/>
</g>
</g>
</svg>
