<?xml version="1.0" encoding="UTF-8" standalone="no"?>
<!DOCTYPE svg PUBLIC "-//W3C//DTD SVG 1.1//EN"
 "http://www.w3.org/Graphics/SVG/1.1/DTD/svg11.dtd">
<!-- Generated by graphviz version 2.40.1 (20161225.0304)
 -->
<!-- Title: /home/travis/build/AliceO2Group/AliceO2/GPU/GPUTracking/DataCompression/GPUTPCClusterStatistics.h Pages: 1 -->
<svg width="1153pt" height="621pt"
 viewBox="0.00 0.00 1153.00 621.00" xmlns="http://www.w3.org/2000/svg" xmlns:xlink="http://www.w3.org/1999/xlink">
<g id="graph0" class="graph" transform="scale(1 1) rotate(0) translate(4 617)">
<title>/home/travis/build/AliceO2Group/AliceO2/GPU/GPUTracking/DataCompression/GPUTPCClusterStatistics.h</title>
<!-- Node0 -->
<g id="node1" class="node">
<title>Node0</title>
<polygon fill="#bfbfbf" stroke="#000000" points="871,-560.5 871,-612.5 1066,-612.5 1066,-560.5 871,-560.5"/>
<text text-anchor="start" x="879" y="-600.5" font-family="Helvetica,sans-Serif" font-size="10.00" fill="#000000">/home/travis/build</text>
<text text-anchor="start" x="879" y="-589.5" font-family="Helvetica,sans-Serif" font-size="10.00" fill="#000000">/AliceO2Group/AliceO2</text>
<text text-anchor="start" x="879" y="-578.5" font-family="Helvetica,sans-Serif" font-size="10.00" fill="#000000">/GPU/GPUTracking/DataCompression</text>
<text text-anchor="middle" x="968.5" y="-567.5" font-family="Helvetica,sans-Serif" font-size="10.00" fill="#000000">/GPUTPCClusterStatistics.h</text>
</g>
<!-- Node1 -->
<g id="node2" class="node">
<title>Node1</title>
<g id="a_node2"><a xlink:href="../../d5/d92/GPUTPCCompression_8h.html" target="_top" xlink:title="GPUTPCCompression.h">
<polygon fill="none" stroke="#000000" points="740,-448.5 740,-467.5 869,-467.5 869,-448.5 740,-448.5"/>
<text text-anchor="middle" x="804.5" y="-455.5" font-family="Helvetica,sans-Serif" font-size="10.00" fill="#000000">GPUTPCCompression.h</text>
</a>
</g>
</g>
<!-- Node0&#45;&gt;Node1 -->
<g id="edge1" class="edge">
<title>Node0&#45;&gt;Node1</title>
<path fill="none" stroke="#191970" d="M935.3122,-560.4961C902.2054,-534.5558 852.4083,-495.5379 824.7834,-473.8928"/>
<polygon fill="#191970" stroke="#191970" points="826.6728,-470.9268 816.6426,-467.5142 822.3554,-476.4368 826.6728,-470.9268"/>
</g>
<!-- Node19 -->
<g id="node20" class="node">
<title>Node19</title>
<polygon fill="none" stroke="#bfbfbf" points="959,-280.5 959,-299.5 1006,-299.5 1006,-280.5 959,-280.5"/>
<text text-anchor="middle" x="982.5" y="-287.5" font-family="Helvetica,sans-Serif" font-size="10.00" fill="#000000">vector</text>
</g>
<!-- Node0&#45;&gt;Node19 -->
<g id="edge44" class="edge">
<title>Node0&#45;&gt;Node19</title>
<path fill="none" stroke="#191970" d="M968.5,-560.4123C968.5,-534.4505 968.5,-493.4714 968.5,-458 968.5,-458 968.5,-458 968.5,-402 968.5,-369.311 974.4446,-331.6669 978.5866,-309.4058"/>
<polygon fill="#191970" stroke="#191970" points="982.0324,-310.0207 980.4941,-299.5381 975.1597,-308.692 982.0324,-310.0207"/>
</g>
<!-- Node27 -->
<g id="node28" class="node">
<title>Node27</title>
<g id="a_node28"><a xlink:href="../../d7/d7d/TPCClusterDecompressor_8h.html" target="_top" xlink:title="TPCClusterDecompressor.h">
<polygon fill="none" stroke="#000000" points="996,-504.5 996,-523.5 1145,-523.5 1145,-504.5 996,-504.5"/>
<text text-anchor="middle" x="1070.5" y="-511.5" font-family="Helvetica,sans-Serif" font-size="10.00" fill="#000000">TPCClusterDecompressor.h</text>
</a>
</g>
</g>
<!-- Node0&#45;&gt;Node27 -->
<g id="edge40" class="edge">
<title>Node0&#45;&gt;Node27</title>
<path fill="none" stroke="#191970" d="M1005.3243,-560.3258C1019.8346,-550.0122 1036.0079,-538.5165 1048.6133,-529.5567"/>
<polygon fill="#191970" stroke="#191970" points="1050.9635,-532.1803 1057.0866,-523.534 1046.9081,-526.4747 1050.9635,-532.1803"/>
</g>
<!-- Node2 -->
<g id="node3" class="node">
<title>Node2</title>
<g id="a_node3"><a xlink:href="../../d2/d6d/GPUDef_8h.html" target="_top" xlink:title="GPUDef.h">
<polygon fill="none" stroke="#000000" points="620,-224.5 620,-243.5 683,-243.5 683,-224.5 620,-224.5"/>
<text text-anchor="middle" x="651.5" y="-231.5" font-family="Helvetica,sans-Serif" font-size="10.00" fill="#000000">GPUDef.h</text>
</a>
</g>
</g>
<!-- Node1&#45;&gt;Node2 -->
<g id="edge2" class="edge">
<title>Node1&#45;&gt;Node2</title>
<path fill="none" stroke="#191970" d="M802.2862,-448.2944C799.0936,-435.1462 792.5685,-411.1215 783.5,-392 758.039,-338.3138 750.7007,-323.7535 710.5,-280 699.926,-268.4915 686.2574,-257.6389 674.7394,-249.3683"/>
<polygon fill="#191970" stroke="#191970" points="676.6421,-246.4282 666.4376,-243.5788 672.6379,-252.1699 676.6421,-246.4282"/>
</g>
<!-- Node12 -->
<g id="node13" class="node">
<title>Node12</title>
<g id="a_node13"><a xlink:href="../../d6/d57/GPUProcessor_8h.html" target="_top" xlink:title="GPUProcessor.h">
<polygon fill="none" stroke="#000000" points="73,-336.5 73,-355.5 166,-355.5 166,-336.5 73,-336.5"/>
<text text-anchor="middle" x="119.5" y="-343.5" font-family="Helvetica,sans-Serif" font-size="10.00" fill="#000000">GPUProcessor.h</text>
</a>
</g>
</g>
<!-- Node1&#45;&gt;Node12 -->
<g id="edge13" class="edge">
<title>Node1&#45;&gt;Node12</title>
<path fill="none" stroke="#191970" d="M745.6872,-448.4683C688.4435,-439.1843 598.9956,-424.6598 521.5,-412 398.4182,-391.8932 254.1666,-368.1721 176.3044,-355.3553"/>
<polygon fill="#191970" stroke="#191970" points="176.662,-351.8672 166.2263,-353.6963 175.5249,-358.7742 176.662,-351.8672"/>
</g>
<!-- Node15 -->
<g id="node16" class="node">
<title>Node15</title>
<g id="a_node16"><a xlink:href="../../d6/da2/GPUCommonMath_8h.html" target="_top" xlink:title="GPUCommonMath.h">
<polygon fill="none" stroke="#000000" points="248,-336.5 248,-355.5 363,-355.5 363,-336.5 248,-336.5"/>
<text text-anchor="middle" x="305.5" y="-343.5" font-family="Helvetica,sans-Serif" font-size="10.00" fill="#000000">GPUCommonMath.h</text>
</a>
</g>
</g>
<!-- Node1&#45;&gt;Node15 -->
<g id="edge18" class="edge">
<title>Node1&#45;&gt;Node15</title>
<path fill="none" stroke="#191970" d="M761.9555,-448.4509C670.8106,-427.9936 456.9462,-379.9919 357.7424,-357.7258"/>
<polygon fill="#191970" stroke="#191970" points="358.4606,-354.2999 347.9368,-355.5249 356.9275,-361.13 358.4606,-354.2999"/>
</g>
<!-- Node17 -->
<g id="node18" class="node">
<title>Node17</title>
<g id="a_node18"><a xlink:href="../../df/d13/GPUParam_8h.html" target="_top" xlink:title="GPUParam.h">
<polygon fill="none" stroke="#000000" points="698,-392.5 698,-411.5 775,-411.5 775,-392.5 698,-392.5"/>
<text text-anchor="middle" x="736.5" y="-399.5" font-family="Helvetica,sans-Serif" font-size="10.00" fill="#000000">GPUParam.h</text>
</a>
</g>
</g>
<!-- Node1&#45;&gt;Node17 -->
<g id="edge22" class="edge">
<title>Node1&#45;&gt;Node17</title>
<path fill="none" stroke="#191970" d="M792.6553,-448.2455C782.612,-439.9746 768.0005,-427.9416 756.1996,-418.2232"/>
<polygon fill="#191970" stroke="#191970" points="758.1533,-415.298 748.209,-411.6427 753.7033,-420.7015 758.1533,-415.298"/>
</g>
<!-- Node3 -->
<g id="node4" class="node">
<title>Node3</title>
<g id="a_node4"><a xlink:href="../../df/d21/GPUCommonDef_8h.html" target="_top" xlink:title="GPUCommonDef.h">
<polygon fill="none" stroke="#000000" points="404,-56.5 404,-75.5 511,-75.5 511,-56.5 404,-56.5"/>
<text text-anchor="middle" x="457.5" y="-63.5" font-family="Helvetica,sans-Serif" font-size="10.00" fill="#000000">GPUCommonDef.h</text>
</a>
</g>
</g>
<!-- Node2&#45;&gt;Node3 -->
<g id="edge3" class="edge">
<title>Node2&#45;&gt;Node3</title>
<path fill="none" stroke="#191970" d="M619.8012,-226.3048C599.484,-219.6506 574.3996,-207.8739 560.5,-188 541.0058,-160.1268 571.1741,-139.7465 551.5,-112 540.6946,-96.761 523.4052,-86.3427 506.5835,-79.331"/>
<polygon fill="#191970" stroke="#191970" points="507.3763,-75.8871 496.7857,-75.5856 504.8767,-82.4256 507.3763,-75.8871"/>
</g>
<!-- Node6 -->
<g id="node7" class="node">
<title>Node6</title>
<g id="a_node7"><a xlink:href="../../d2/d37/GPUDefConstantsAndSettings_8h.html" target="_top" xlink:title="GPUDefConstantsAndSettings.h">
<polygon fill="none" stroke="#000000" points="372,-112.5 372,-131.5 543,-131.5 543,-112.5 372,-112.5"/>
<text text-anchor="middle" x="457.5" y="-119.5" font-family="Helvetica,sans-Serif" font-size="10.00" fill="#000000">GPUDefConstantsAndSettings.h</text>
</a>
</g>
</g>
<!-- Node2&#45;&gt;Node6 -->
<g id="edge6" class="edge">
<title>Node2&#45;&gt;Node6</title>
<path fill="none" stroke="#191970" d="M619.8543,-226.0671C593.8037,-218.6681 556.5661,-206.0458 527.5,-188 506.148,-174.7435 485.713,-154.2694 472.4936,-139.6419"/>
<polygon fill="#191970" stroke="#191970" points="474.8271,-136.9959 465.5916,-131.8039 469.5736,-141.622 474.8271,-136.9959"/>
</g>
<!-- Node7 -->
<g id="node8" class="node">
<title>Node7</title>
<g id="a_node8"><a xlink:href="../../dc/de9/GPUDefGPUParameters_8h.html" target="_top" xlink:title="GPUDefGPUParameters.h">
<polygon fill="none" stroke="#000000" points="895.5,-168.5 895.5,-187.5 1035.5,-187.5 1035.5,-168.5 895.5,-168.5"/>
<text text-anchor="middle" x="965.5" y="-175.5" font-family="Helvetica,sans-Serif" font-size="10.00" fill="#000000">GPUDefGPUParameters.h</text>
</a>
</g>
</g>
<!-- Node2&#45;&gt;Node7 -->
<g id="edge8" class="edge">
<title>Node2&#45;&gt;Node7</title>
<path fill="none" stroke="#191970" d="M683.0452,-228.3741C734.0797,-219.2724 835.7241,-201.1447 902.1397,-189.2999"/>
<polygon fill="#191970" stroke="#191970" points="902.8477,-192.729 912.0779,-187.5275 901.6187,-185.8377 902.8477,-192.729"/>
</g>
<!-- Node9 -->
<g id="node10" class="node">
<title>Node9</title>
<g id="a_node10"><a xlink:href="../../d3/d4c/GPUDefOpenCL12Templates_8h.html" target="_top" xlink:title="GPUDefOpenCL12Templates.h">
<polygon fill="none" stroke="#000000" points="569.5,-168.5 569.5,-187.5 733.5,-187.5 733.5,-168.5 569.5,-168.5"/>
<text text-anchor="middle" x="651.5" y="-175.5" font-family="Helvetica,sans-Serif" font-size="10.00" fill="#000000">GPUDefOpenCL12Templates.h</text>
</a>
</g>
</g>
<!-- Node2&#45;&gt;Node9 -->
<g id="edge10" class="edge">
<title>Node2&#45;&gt;Node9</title>
<path fill="none" stroke="#191970" d="M651.5,-224.2455C651.5,-216.9382 651.5,-206.6944 651.5,-197.7046"/>
<polygon fill="#191970" stroke="#191970" points="655.0001,-197.6426 651.5,-187.6427 648.0001,-197.6427 655.0001,-197.6426"/>
</g>
<!-- Node10 -->
<g id="node11" class="node">
<title>Node10</title>
<g id="a_node11"><a xlink:href="../../d2/d45/GPUCommonRtypes_8h.html" target="_top" xlink:title="GPUCommonRtypes.h">
<polygon fill="none" stroke="#000000" points="752,-168.5 752,-187.5 877,-187.5 877,-168.5 752,-168.5"/>
<text text-anchor="middle" x="814.5" y="-175.5" font-family="Helvetica,sans-Serif" font-size="10.00" fill="#000000">GPUCommonRtypes.h</text>
</a>
</g>
</g>
<!-- Node2&#45;&gt;Node10 -->
<g id="edge11" class="edge">
<title>Node2&#45;&gt;Node10</title>
<path fill="none" stroke="#191970" d="M679.5207,-224.3733C706.5078,-215.1016 747.5017,-201.0178 777.2311,-190.804"/>
<polygon fill="#191970" stroke="#191970" points="778.5248,-194.0605 786.8449,-187.5011 776.2503,-187.4403 778.5248,-194.0605"/>
</g>
<!-- Node4 -->
<g id="node5" class="node">
<title>Node4</title>
<g id="a_node5"><a xlink:href="../../d5/d93/GPUCommonDefSettings_8h.html" target="_top" xlink:title="GPUCommonDefSettings.h">
<polygon fill="none" stroke="#000000" points="306.5,-.5 306.5,-19.5 454.5,-19.5 454.5,-.5 306.5,-.5"/>
<text text-anchor="middle" x="380.5" y="-7.5" font-family="Helvetica,sans-Serif" font-size="10.00" fill="#000000">GPUCommonDefSettings.h</text>
</a>
</g>
</g>
<!-- Node3&#45;&gt;Node4 -->
<g id="edge4" class="edge">
<title>Node3&#45;&gt;Node4</title>
<path fill="none" stroke="#191970" d="M444.0876,-56.2455C432.4943,-47.814 415.5252,-35.4729 402.0322,-25.6598"/>
<polygon fill="#191970" stroke="#191970" points="403.9047,-22.6938 393.7587,-19.6427 399.7874,-28.355 403.9047,-22.6938"/>
</g>
<!-- Node5 -->
<g id="node6" class="node">
<title>Node5</title>
<g id="a_node6"><a xlink:href="../../da/d5a/GPUCommonDefAPI_8h.html" target="_top" xlink:title="GPUCommonDefAPI.h">
<polygon fill="none" stroke="#000000" points="472.5,-.5 472.5,-19.5 596.5,-19.5 596.5,-.5 472.5,-.5"/>
<text text-anchor="middle" x="534.5" y="-7.5" font-family="Helvetica,sans-Serif" font-size="10.00" fill="#000000">GPUCommonDefAPI.h</text>
</a>
</g>
</g>
<!-- Node3&#45;&gt;Node5 -->
<g id="edge5" class="edge">
<title>Node3&#45;&gt;Node5</title>
<path fill="none" stroke="#191970" d="M470.9124,-56.2455C482.5057,-47.814 499.4748,-35.4729 512.9678,-25.6598"/>
<polygon fill="#191970" stroke="#191970" points="515.2126,-28.355 521.2413,-19.6427 511.0953,-22.6938 515.2126,-28.355"/>
</g>
<!-- Node6&#45;&gt;Node3 -->
<g id="edge7" class="edge">
<title>Node6&#45;&gt;Node3</title>
<path fill="none" stroke="#191970" d="M457.5,-112.2455C457.5,-104.9382 457.5,-94.6944 457.5,-85.7046"/>
<polygon fill="#191970" stroke="#191970" points="461.0001,-85.6426 457.5,-75.6427 454.0001,-85.6427 461.0001,-85.6426"/>
</g>
<!-- Node8 -->
<g id="node9" class="node">
<title>Node8</title>
<g id="a_node9"><a xlink:href="../../d6/dff/GPUDefMacros_8h.html" target="_top" xlink:title="GPUDefMacros.h">
<polygon fill="none" stroke="#000000" points="916.5,-112.5 916.5,-131.5 1014.5,-131.5 1014.5,-112.5 916.5,-112.5"/>
<text text-anchor="middle" x="965.5" y="-119.5" font-family="Helvetica,sans-Serif" font-size="10.00" fill="#000000">GPUDefMacros.h</text>
</a>
</g>
</g>
<!-- Node7&#45;&gt;Node8 -->
<g id="edge9" class="edge">
<title>Node7&#45;&gt;Node8</title>
<path fill="none" stroke="#191970" d="M965.5,-168.2455C965.5,-160.9382 965.5,-150.6944 965.5,-141.7046"/>
<polygon fill="#191970" stroke="#191970" points="969.0001,-141.6426 965.5,-131.6427 962.0001,-141.6427 969.0001,-141.6426"/>
</g>
<!-- Node11 -->
<g id="node12" class="node">
<title>Node11</title>
<polygon fill="none" stroke="#bfbfbf" points="785,-112.5 785,-131.5 844,-131.5 844,-112.5 785,-112.5"/>
<text text-anchor="middle" x="814.5" y="-119.5" font-family="Helvetica,sans-Serif" font-size="10.00" fill="#000000">Rtypes.h</text>
</g>
<!-- Node10&#45;&gt;Node11 -->
<g id="edge12" class="edge">
<title>Node10&#45;&gt;Node11</title>
<path fill="none" stroke="#191970" d="M814.5,-168.2455C814.5,-160.9382 814.5,-150.6944 814.5,-141.7046"/>
<polygon fill="#191970" stroke="#191970" points="818.0001,-141.6426 814.5,-131.6427 811.0001,-141.6427 818.0001,-141.6426"/>
</g>
<!-- Node12&#45;&gt;Node2 -->
<g id="edge15" class="edge">
<title>Node12&#45;&gt;Node2</title>
<path fill="none" stroke="#191970" d="M119.1493,-336.1064C119.2205,-321.3441 121.7626,-293.8129 138.5,-280 156.6173,-265.0482 490.7099,-243.6447 609.7831,-236.4586"/>
<polygon fill="#191970" stroke="#191970" points="610.19,-239.9406 619.9622,-235.8474 609.7704,-232.9531 610.19,-239.9406"/>
</g>
<!-- Node12&#45;&gt;Node3 -->
<g id="edge14" class="edge">
<title>Node12&#45;&gt;Node3</title>
<path fill="none" stroke="#191970" d="M113.893,-336.4834C103.3226,-317.6141 81.5,-273.8343 81.5,-234 81.5,-234 81.5,-234 81.5,-178 81.5,-113.6659 286.239,-83.2919 393.557,-71.7898"/>
<polygon fill="#191970" stroke="#191970" points="394.0473,-75.2577 403.6284,-70.7351 393.3182,-68.2958 394.0473,-75.2577"/>
</g>
<!-- Node13 -->
<g id="node14" class="node">
<title>Node13</title>
<polygon fill="none" stroke="#bfbfbf" points="0,-280.5 0,-299.5 53,-299.5 53,-280.5 0,-280.5"/>
<text text-anchor="middle" x="26.5" y="-287.5" font-family="Helvetica,sans-Serif" font-size="10.00" fill="#000000">cstddef</text>
</g>
<!-- Node12&#45;&gt;Node13 -->
<g id="edge16" class="edge">
<title>Node12&#45;&gt;Node13</title>
<path fill="none" stroke="#191970" d="M103.3006,-336.2455C88.8982,-327.5731 67.6268,-314.7645 51.1201,-304.825"/>
<polygon fill="#191970" stroke="#191970" points="52.886,-301.8028 42.5137,-299.6427 49.275,-307.7996 52.886,-301.8028"/>
</g>
<!-- Node14 -->
<g id="node15" class="node">
<title>Node14</title>
<polygon fill="none" stroke="#bfbfbf" points="147.5,-280.5 147.5,-299.5 211.5,-299.5 211.5,-280.5 147.5,-280.5"/>
<text text-anchor="middle" x="179.5" y="-287.5" font-family="Helvetica,sans-Serif" font-size="10.00" fill="#000000">algorithm</text>
</g>
<!-- Node12&#45;&gt;Node14 -->
<g id="edge17" class="edge">
<title>Node12&#45;&gt;Node14</title>
<path fill="none" stroke="#191970" d="M129.9512,-336.2455C138.7269,-328.0549 151.4554,-316.1749 161.814,-306.5069"/>
<polygon fill="#191970" stroke="#191970" points="164.2461,-309.0246 169.1686,-299.6427 159.4699,-303.9072 164.2461,-309.0246"/>
</g>
<!-- Node15&#45;&gt;Node3 -->
<g id="edge19" class="edge">
<title>Node15&#45;&gt;Node3</title>
<path fill="none" stroke="#191970" d="M305.5,-336.4116C305.5,-317.0538 305.5,-271.9167 305.5,-234 305.5,-234 305.5,-234 305.5,-178 305.5,-124.8635 366.4479,-94.1127 411.1564,-78.7035"/>
<polygon fill="#191970" stroke="#191970" points="412.3031,-82.0108 420.705,-75.5566 410.112,-75.3626 412.3031,-82.0108"/>
</g>
<!-- Node15&#45;&gt;Node14 -->
<g id="edge21" class="edge">
<title>Node15&#45;&gt;Node14</title>
<path fill="none" stroke="#191970" d="M283.8398,-336.3733C263.5228,-327.3435 232.936,-313.7494 210.125,-303.6111"/>
<polygon fill="#191970" stroke="#191970" points="211.4372,-300.3642 200.8775,-299.5011 208.5941,-306.7609 211.4372,-300.3642"/>
</g>
<!-- Node16 -->
<g id="node17" class="node">
<title>Node16</title>
<polygon fill="none" stroke="#bfbfbf" points="230,-280.5 230,-299.5 277,-299.5 277,-280.5 230,-280.5"/>
<text text-anchor="middle" x="253.5" y="-287.5" font-family="Helvetica,sans-Serif" font-size="10.00" fill="#000000">cmath</text>
</g>
<!-- Node15&#45;&gt;Node16 -->
<g id="edge20" class="edge">
<title>Node15&#45;&gt;Node16</title>
<path fill="none" stroke="#191970" d="M296.4423,-336.2455C288.9858,-328.2155 278.2366,-316.6394 269.3583,-307.0781"/>
<polygon fill="#191970" stroke="#191970" points="271.8232,-304.589 262.4539,-299.6427 266.6937,-309.3522 271.8232,-304.589"/>
</g>
<!-- Node17&#45;&gt;Node2 -->
<g id="edge25" class="edge">
<title>Node17&#45;&gt;Node2</title>
<path fill="none" stroke="#191970" d="M734.4007,-392.4899C729.3684,-371.071 715.1679,-317.9614 690.5,-280 683.9108,-269.8599 675.3287,-259.5061 667.8931,-251.1955"/>
<polygon fill="#191970" stroke="#191970" points="670.3006,-248.6427 660.9561,-243.6495 665.1473,-253.3801 670.3006,-248.6427"/>
</g>
<!-- Node17&#45;&gt;Node3 -->
<g id="edge23" class="edge">
<title>Node17&#45;&gt;Node3</title>
<path fill="none" stroke="#191970" d="M752.9277,-392.435C816.522,-355.244 1043.8741,-220.7097 1061.5,-188 1073.227,-166.2373 1053.5664,-119.2888 1044.5,-112 1004.4722,-79.8203 665.5288,-69.816 521.661,-67.002"/>
<polygon fill="#191970" stroke="#191970" points="521.2991,-63.4946 511.2344,-66.804 521.1661,-70.4933 521.2991,-63.4946"/>
</g>
<!-- Node17&#45;&gt;Node15 -->
<g id="edge24" class="edge">
<title>Node17&#45;&gt;Node15</title>
<path fill="none" stroke="#191970" d="M697.8723,-396.9811C624.5836,-387.4587 464.5242,-366.6621 373.0944,-354.7826"/>
<polygon fill="#191970" stroke="#191970" points="373.4772,-351.303 363.1096,-353.4852 372.5752,-358.2446 373.4772,-351.303"/>
</g>
<!-- Node18 -->
<g id="node19" class="node">
<title>Node18</title>
<g id="a_node19"><a xlink:href="../../dd/dc6/GPUSettings_8h.html" target="_top" xlink:title="GPUSettings.h">
<polygon fill="none" stroke="#000000" points="446.5,-336.5 446.5,-355.5 532.5,-355.5 532.5,-336.5 446.5,-336.5"/>
<text text-anchor="middle" x="489.5" y="-343.5" font-family="Helvetica,sans-Serif" font-size="10.00" fill="#000000">GPUSettings.h</text>
</a>
</g>
</g>
<!-- Node17&#45;&gt;Node18 -->
<g id="edge26" class="edge">
<title>Node17&#45;&gt;Node18</title>
<path fill="none" stroke="#191970" d="M697.9063,-393.25C655.813,-383.7066 588.2142,-368.3806 541.4737,-357.7835"/>
<polygon fill="#191970" stroke="#191970" points="542.0665,-354.3292 531.5401,-355.5314 540.5187,-361.1559 542.0665,-354.3292"/>
</g>
<!-- Node24 -->
<g id="node25" class="node">
<title>Node24</title>
<g id="a_node25"><a xlink:href="../../d6/d1b/GPUTPCGeometry_8h.html" target="_top" xlink:title="GPUTPCGeometry.h">
<polygon fill="none" stroke="#000000" points="815,-224.5 815,-243.5 928,-243.5 928,-224.5 815,-224.5"/>
<text text-anchor="middle" x="871.5" y="-231.5" font-family="Helvetica,sans-Serif" font-size="10.00" fill="#000000">GPUTPCGeometry.h</text>
</a>
</g>
</g>
<!-- Node17&#45;&gt;Node24 -->
<g id="edge35" class="edge">
<title>Node17&#45;&gt;Node24</title>
<path fill="none" stroke="#191970" d="M744.145,-392.4862C765.9473,-365.3545 828.6859,-287.2798 857.1502,-251.8576"/>
<polygon fill="#191970" stroke="#191970" points="860.0669,-253.8154 863.6026,-243.8279 854.6104,-249.4306 860.0669,-253.8154"/>
</g>
<!-- Node25 -->
<g id="node26" class="node">
<title>Node25</title>
<g id="a_node26"><a xlink:href="../../d9/d9c/GPUTPCGMPolynomialField_8h.html" target="_top" xlink:title="GPUTPCGMPolynomialField.h">
<polygon fill="none" stroke="#000000" points="550.5,-336.5 550.5,-355.5 708.5,-355.5 708.5,-336.5 550.5,-336.5"/>
<text text-anchor="middle" x="629.5" y="-343.5" font-family="Helvetica,sans-Serif" font-size="10.00" fill="#000000">GPUTPCGMPolynomialField.h</text>
</a>
</g>
</g>
<!-- Node17&#45;&gt;Node25 -->
<g id="edge37" class="edge">
<title>Node17&#45;&gt;Node25</title>
<path fill="none" stroke="#191970" d="M717.862,-392.2455C701.0614,-383.4527 676.1366,-370.4079 657.0382,-360.4125"/>
<polygon fill="#191970" stroke="#191970" points="658.4073,-357.1787 647.9244,-355.6427 655.1614,-363.3807 658.4073,-357.1787"/>
</g>
<!-- Node18&#45;&gt;Node3 -->
<g id="edge27" class="edge">
<title>Node18&#45;&gt;Node3</title>
<path fill="none" stroke="#191970" d="M446.2823,-339.3625C420.0691,-333.2505 387.6979,-321.6815 366.5,-300 344.7839,-277.7885 343.5,-265.0635 343.5,-234 343.5,-234 343.5,-234 343.5,-178 343.5,-147.4754 342.8336,-135.345 362.5,-112 375.2508,-96.8642 394.1511,-86.3122 411.7428,-79.1703"/>
<polygon fill="#191970" stroke="#191970" points="413.2169,-82.3549 421.334,-75.5459 410.7424,-75.8068 413.2169,-82.3549"/>
</g>
<!-- Node18&#45;&gt;Node19 -->
<g id="edge28" class="edge">
<title>Node18&#45;&gt;Node19</title>
<path fill="none" stroke="#191970" d="M532.5815,-337.4191C535.5948,-336.9101 538.5899,-336.4308 541.5,-336 692.8265,-313.5995 874.9592,-298.2571 948.8799,-292.5134"/>
<polygon fill="#191970" stroke="#191970" points="949.2825,-295.9929 958.9845,-291.736 948.7454,-289.0135 949.2825,-295.9929"/>
</g>
<!-- Node20 -->
<g id="node21" class="node">
<title>Node20</title>
<polygon fill="none" stroke="#bfbfbf" points="517.5,-280.5 517.5,-299.5 561.5,-299.5 561.5,-280.5 517.5,-280.5"/>
<text text-anchor="middle" x="539.5" y="-287.5" font-family="Helvetica,sans-Serif" font-size="10.00" fill="#000000">string</text>
</g>
<!-- Node18&#45;&gt;Node20 -->
<g id="edge29" class="edge">
<title>Node18&#45;&gt;Node20</title>
<path fill="none" stroke="#191970" d="M498.2093,-336.2455C505.3073,-328.2958 515.5084,-316.8706 523.995,-307.3656"/>
<polygon fill="#191970" stroke="#191970" points="526.8411,-309.4331 530.8905,-299.6427 521.6195,-304.771 526.8411,-309.4331"/>
</g>
<!-- Node21 -->
<g id="node22" class="node">
<title>Node21</title>
<g id="a_node22"><a xlink:href="../../da/d08/qconfig_8h.html" target="_top" xlink:title="utils/qconfig.h">
<polygon fill="none" stroke="#000000" points="376,-280.5 376,-299.5 461,-299.5 461,-280.5 376,-280.5"/>
<text text-anchor="middle" x="418.5" y="-287.5" font-family="Helvetica,sans-Serif" font-size="10.00" fill="#000000">utils/qconfig.h</text>
</a>
</g>
</g>
<!-- Node18&#45;&gt;Node21 -->
<g id="edge30" class="edge">
<title>Node18&#45;&gt;Node21</title>
<path fill="none" stroke="#191970" d="M477.1327,-336.2455C466.5446,-327.8943 451.0936,-315.7076 438.7107,-305.9408"/>
<polygon fill="#191970" stroke="#191970" points="440.7447,-303.0875 430.7255,-299.6427 436.4097,-308.5837 440.7447,-303.0875"/>
</g>
<!-- Node22 -->
<g id="node23" class="node">
<title>Node22</title>
<g id="a_node23"><a xlink:href="../../d8/de9/qconfigoptions_8h.html" target="_top" xlink:title="qconfigoptions.h">
<polygon fill="none" stroke="#000000" points="375,-224.5 375,-243.5 472,-243.5 472,-224.5 375,-224.5"/>
<text text-anchor="middle" x="423.5" y="-231.5" font-family="Helvetica,sans-Serif" font-size="10.00" fill="#000000">qconfigoptions.h</text>
</a>
</g>
</g>
<!-- Node21&#45;&gt;Node22 -->
<g id="edge31" class="edge">
<title>Node21&#45;&gt;Node22</title>
<path fill="none" stroke="#191970" d="M419.3709,-280.2455C420.0234,-272.9382 420.938,-262.6944 421.7407,-253.7046"/>
<polygon fill="#191970" stroke="#191970" points="425.2358,-253.9143 422.639,-243.6427 418.2635,-253.2918 425.2358,-253.9143"/>
</g>
<!-- Node22&#45;&gt;Node18 -->
<g id="edge32" class="edge">
<title>Node22&#45;&gt;Node18</title>
<path fill="none" stroke="#191970" d="M436.1501,-243.6542C446.4964,-252.1727 460.7926,-265.4679 469.5,-280 478.1432,-294.4251 483.3225,-312.8884 486.2372,-326.6167"/>
<polygon fill="#191970" stroke="#191970" points="482.7999,-327.277 488.112,-336.4439 489.6759,-325.9651 482.7999,-327.277"/>
</g>
<!-- Node23 -->
<g id="node24" class="node">
<title>Node23</title>
<g id="a_node24"><a xlink:href="../../d4/d57/GPUSettingsList_8h.html" target="_top" xlink:title="GPUSettingsList.h">
<polygon fill="none" stroke="#000000" points="371.5,-168.5 371.5,-187.5 475.5,-187.5 475.5,-168.5 371.5,-168.5"/>
<text text-anchor="middle" x="423.5" y="-175.5" font-family="Helvetica,sans-Serif" font-size="10.00" fill="#000000">GPUSettingsList.h</text>
</a>
</g>
</g>
<!-- Node22&#45;&gt;Node23 -->
<g id="edge33" class="edge">
<title>Node22&#45;&gt;Node23</title>
<path fill="none" stroke="#191970" d="M423.5,-224.2455C423.5,-216.9382 423.5,-206.6944 423.5,-197.7046"/>
<polygon fill="#191970" stroke="#191970" points="427.0001,-197.6426 423.5,-187.6427 420.0001,-197.6427 427.0001,-197.6426"/>
</g>
<!-- Node23&#45;&gt;Node6 -->
<g id="edge34" class="edge">
<title>Node23&#45;&gt;Node6</title>
<path fill="none" stroke="#191970" d="M429.4223,-168.2455C434.1027,-160.5367 440.7673,-149.5598 446.4289,-140.2348"/>
<polygon fill="#191970" stroke="#191970" points="449.4475,-142.007 451.6455,-131.6427 443.4639,-138.3741 449.4475,-142.007"/>
</g>
<!-- Node24&#45;&gt;Node3 -->
<g id="edge36" class="edge">
<title>Node24&#45;&gt;Node3</title>
<path fill="none" stroke="#191970" d="M928.1646,-226.4482C972.9597,-219.1794 1030.2455,-206.5401 1044.5,-188 1060.7258,-166.896 1040.9007,-125.1339 1023.5,-112 984.1565,-82.3039 660.8436,-70.932 521.2648,-67.3776"/>
<polygon fill="#191970" stroke="#191970" points="521.2226,-63.8756 511.1385,-67.1253 521.0482,-70.8734 521.2226,-63.8756"/>
</g>
<!-- Node26 -->
<g id="node27" class="node">
<title>Node26</title>
<g id="a_node27"><a xlink:href="../../da/dab/GPUTPCDef_8h.html" target="_top" xlink:title="GPUTPCDef.h">
<polygon fill="none" stroke="#000000" points="599.5,-280.5 599.5,-299.5 681.5,-299.5 681.5,-280.5 599.5,-280.5"/>
<text text-anchor="middle" x="640.5" y="-287.5" font-family="Helvetica,sans-Serif" font-size="10.00" fill="#000000">GPUTPCDef.h</text>
</a>
</g>
</g>
<!-- Node25&#45;&gt;Node26 -->
<g id="edge38" class="edge">
<title>Node25&#45;&gt;Node26</title>
<path fill="none" stroke="#191970" d="M631.4161,-336.2455C632.8514,-328.9382 634.8636,-318.6944 636.6295,-309.7046"/>
<polygon fill="#191970" stroke="#191970" points="640.1127,-310.1298 638.6059,-299.6427 633.244,-308.7805 640.1127,-310.1298"/>
</g>
<!-- Node26&#45;&gt;Node2 -->
<g id="edge39" class="edge">
<title>Node26&#45;&gt;Node2</title>
<path fill="none" stroke="#191970" d="M642.4161,-280.2455C643.8514,-272.9382 645.8636,-262.6944 647.6295,-253.7046"/>
<polygon fill="#191970" stroke="#191970" points="651.1127,-254.1298 649.6059,-243.6427 644.244,-252.7805 651.1127,-254.1298"/>
</g>
<!-- Node27&#45;&gt;Node1 -->
<g id="edge41" class="edge">
<title>Node27&#45;&gt;Node1</title>
<path fill="none" stroke="#191970" d="M1025.0752,-504.4369C979.2645,-494.7925 908.5002,-479.8948 859.5325,-469.5858"/>
<polygon fill="#191970" stroke="#191970" points="860.244,-466.1589 849.7374,-467.5237 858.8019,-473.0088 860.244,-466.1589"/>
</g>
<!-- Node27&#45;&gt;Node19 -->
<g id="edge42" class="edge">
<title>Node27&#45;&gt;Node19</title>
<path fill="none" stroke="#191970" d="M1059.5089,-504.4849C1050.2077,-495.8549 1037.1968,-482.3238 1029.5,-468 1001.0924,-415.133 989.0718,-344.0555 984.6823,-309.9248"/>
<polygon fill="#191970" stroke="#191970" points="988.1396,-309.3581 983.4736,-299.8461 981.1894,-310.1917 988.1396,-309.3581"/>
</g>
<!-- Node28 -->
<g id="node29" class="node">
<title>Node28</title>
<polygon fill="none" stroke="#bfbfbf" points="1038,-448.5 1038,-467.5 1103,-467.5 1103,-448.5 1038,-448.5"/>
<text text-anchor="middle" x="1070.5" y="-455.5" font-family="Helvetica,sans-Serif" font-size="10.00" fill="#000000">functional</text>
</g>
<!-- Node27&#45;&gt;Node28 -->
<g id="edge43" class="edge">
<title>Node27&#45;&gt;Node28</title>
<path fill="none" stroke="#191970" d="M1070.5,-504.2455C1070.5,-496.9382 1070.5,-486.6944 1070.5,-477.7046"/>
<polygon fill="#191970" stroke="#191970" points="1074.0001,-477.6426 1070.5,-467.6427 1067.0001,-477.6427 1074.0001,-477.6426"/>
</g>
</g>
</svg>
