<?xml version="1.0" encoding="UTF-8" standalone="no"?>
<!DOCTYPE svg PUBLIC "-//W3C//DTD SVG 1.1//EN"
 "http://www.w3.org/Graphics/SVG/1.1/DTD/svg11.dtd">
<!-- Generated by graphviz version 2.40.1 (20161225.0304)
 -->
<!-- Title: /home/travis/build/AliceO2Group/AliceO2/GPU/TPCFastTransformation/Spline.h Pages: 1 -->
<!--zoomable 397 -->
<svg id="main" version="1.1" xmlns="http://www.w3.org/2000/svg" xmlns:xlink="http://www.w3.org/1999/xlink" xml:space="preserve" onload="init(evt)">
<style type="text/css"><![CDATA[
.edge:hover path { stroke: red; }
.edge:hover polygon { stroke: red; fill: red; }
]]></style>
<script type="text/javascript"><![CDATA[
var edges = document.getElementsByTagName('g');
if (edges && edges.length) {
  for (var i=0;i<edges.length;i++) {
    if (edges[i].id.substr(0,4)=='edge') {
      edges[i].setAttribute('class','edge');
    }
  }
}
]]></script>
        <defs>
                <circle id="rim" cx="0" cy="0" r="7"/>
                <circle id="rim2" cx="0" cy="0" r="3.5"/>
                <g id="zoomPlus">
                        <use xlink:href="#rim" fill="#404040">
                                <set attributeName="fill" to="#808080" begin="zoomplus.mouseover" end="zoomplus.mouseout"/>
                        </use>
                        <path d="M-4,0h8M0,-4v8" fill="none" stroke="white" stroke-width="1.5" pointer-events="none"/>
                </g>
                <g id="zoomMin">
                        <use xlink:href="#rim" fill="#404040">
                                <set attributeName="fill" to="#808080" begin="zoomminus.mouseover" end="zoomminus.mouseout"/>
                        </use>
                        <path d="M-4,0h8" fill="none" stroke="white" stroke-width="1.5" pointer-events="none"/>
                </g>
                <g id="dirArrow">
                        <path fill="none" stroke="white" stroke-width="1.5" d="M0,-3.0v7 M-2.5,-0.5L0,-3.0L2.5,-0.5"/>
                </g>
               <g id="resetDef">
                       <use xlink:href="#rim2" fill="#404040">
                               <set attributeName="fill" to="#808080" begin="reset.mouseover" end="reset.mouseout"/>
                       </use>
               </g>
        </defs>

<script type="text/javascript">
var viewWidth = 806;
var viewHeight = 397;
var sectionId = 'dynsection-0';
</script>
<script xlink:href="../../svgpan.js"/>
<svg id="graph" class="graph">
<g id="viewport">
<title>/home/travis/build/AliceO2Group/AliceO2/GPU/TPCFastTransformation/Spline.h</title>
<!-- Node0 -->
<g id="node1" class="node">
<title>Node0</title>
<polygon fill="#bfbfbf" stroke="#000000" points="269.5,-336.5 269.5,-388.5 424.5,-388.5 424.5,-336.5 269.5,-336.5"/>
<text text-anchor="start" x="277.5" y="-376.5" font-family="Helvetica,sans-Serif" font-size="10.00" fill="#000000">/home/travis/build</text>
<text text-anchor="start" x="277.5" y="-365.5" font-family="Helvetica,sans-Serif" font-size="10.00" fill="#000000">/AliceO2Group/AliceO2</text>
<text text-anchor="start" x="277.5" y="-354.5" font-family="Helvetica,sans-Serif" font-size="10.00" fill="#000000">/GPU/TPCFastTransformation</text>
<text text-anchor="middle" x="347" y="-343.5" font-family="Helvetica,sans-Serif" font-size="10.00" fill="#000000">/Spline.h</text>
</g>
<!-- Node1 -->
<g id="node2" class="node">
<title>Node1</title>
<g id="a_node2"><a xlink:href="../../db/d58/SplineSpec_8h.html" target="_top" xlink:title="Definition of SplineSpec class. ">
<polygon fill="none" stroke="#000000" points="307.5,-280.5 307.5,-299.5 386.5,-299.5 386.5,-280.5 307.5,-280.5"/>
<text text-anchor="middle" x="347" y="-287.5" font-family="Helvetica,sans-Serif" font-size="10.00" fill="#000000">SplineSpec.h</text>
</a>
</g>
</g>
<!-- Node0&#45;&gt;Node1 -->
<g id="edge1" class="edge">
<title>Node0&#45;&gt;Node1</title>
<path fill="none" stroke="#191970" d="M347,-336.3258C347,-327.5142 347,-317.8397 347,-309.621"/>
<polygon fill="#191970" stroke="#191970" points="350.5001,-309.534 347,-299.534 343.5001,-309.534 350.5001,-309.534"/>
</g>
<!-- Node2 -->
<g id="node3" class="node">
<title>Node2</title>
<g id="a_node3"><a xlink:href="../../de/da6/Spline1D_8h.html" target="_top" xlink:title="Definition of Spline1D class. ">
<polygon fill="none" stroke="#000000" points="275.5,-224.5 275.5,-243.5 344.5,-243.5 344.5,-224.5 275.5,-224.5"/>
<text text-anchor="middle" x="310" y="-231.5" font-family="Helvetica,sans-Serif" font-size="10.00" fill="#000000">Spline1D.h</text>
</a>
</g>
</g>
<!-- Node1&#45;&gt;Node2 -->
<g id="edge2" class="edge">
<title>Node1&#45;&gt;Node2</title>
<path fill="none" stroke="#191970" d="M340.5551,-280.2455C335.4618,-272.5367 328.2092,-261.5598 322.048,-252.2348"/>
<polygon fill="#191970" stroke="#191970" points="324.8038,-250.0566 316.3711,-243.6427 318.9635,-253.9155 324.8038,-250.0566"/>
</g>
<!-- Node4 -->
<g id="node5" class="node">
<title>Node4</title>
<g id="a_node5"><a xlink:href="../../df/d21/GPUCommonDef_8h.html" target="_top" xlink:title="GPUCommonDef.h">
<polygon fill="none" stroke="#000000" points="120.5,-56.5 120.5,-75.5 227.5,-75.5 227.5,-56.5 120.5,-56.5"/>
<text text-anchor="middle" x="174" y="-63.5" font-family="Helvetica,sans-Serif" font-size="10.00" fill="#000000">GPUCommonDef.h</text>
</a>
</g>
</g>
<!-- Node1&#45;&gt;Node4 -->
<g id="edge21" class="edge">
<title>Node1&#45;&gt;Node4</title>
<path fill="none" stroke="#191970" d="M322.2155,-280.4437C304.7699,-272.7236 281.8027,-260.4386 266,-244 219.9013,-196.0462 191.3396,-120.4186 179.8363,-85.2139"/>
<polygon fill="#191970" stroke="#191970" points="183.1675,-84.1395 176.8135,-75.6615 176.4937,-86.2515 183.1675,-84.1395"/>
</g>
<!-- Node7 -->
<g id="node8" class="node">
<title>Node7</title>
<g id="a_node8"><a xlink:href="../../db/dff/FlatObject_8h.html" target="_top" xlink:title="Definition of FlatObject class. ">
<polygon fill="none" stroke="#000000" points="341.5,-112.5 341.5,-131.5 416.5,-131.5 416.5,-112.5 341.5,-112.5"/>
<text text-anchor="middle" x="379" y="-119.5" font-family="Helvetica,sans-Serif" font-size="10.00" fill="#000000">FlatObject.h</text>
</a>
</g>
</g>
<!-- Node1&#45;&gt;Node7 -->
<g id="edge20" class="edge">
<title>Node1&#45;&gt;Node7</title>
<path fill="none" stroke="#191970" d="M348.8121,-280.4862C353.8925,-253.8144 368.3501,-177.9117 375.2486,-141.695"/>
<polygon fill="#191970" stroke="#191970" points="378.695,-142.3062 377.128,-131.8279 371.8186,-140.9963 378.695,-142.3062"/>
</g>
<!-- Node17 -->
<g id="node18" class="node">
<title>Node17</title>
<g id="a_node18"><a xlink:href="../../db/d04/SplineUtil_8h.html" target="_top" xlink:title="SplineUtil.h">
<polygon fill="none" stroke="#000000" points="434.5,-112.5 434.5,-131.5 507.5,-131.5 507.5,-112.5 434.5,-112.5"/>
<text text-anchor="middle" x="471" y="-119.5" font-family="Helvetica,sans-Serif" font-size="10.00" fill="#000000">SplineUtil.h</text>
</a>
</g>
</g>
<!-- Node1&#45;&gt;Node17 -->
<g id="edge22" class="edge">
<title>Node1&#45;&gt;Node17</title>
<path fill="none" stroke="#191970" d="M354.0221,-280.4862C373.963,-253.4695 431.1868,-175.9405 457.4854,-140.3102"/>
<polygon fill="#191970" stroke="#191970" points="460.6235,-141.9521 463.7461,-131.8279 454.9915,-137.7951 460.6235,-141.9521"/>
</g>
<!-- Node3 -->
<g id="node4" class="node">
<title>Node3</title>
<g id="a_node4"><a xlink:href="../../d0/d51/Spline1DSpec_8h.html" target="_top" xlink:title="Definition of Spline1DSpec class. ">
<polygon fill="none" stroke="#000000" points="259,-168.5 259,-187.5 351,-187.5 351,-168.5 259,-168.5"/>
<text text-anchor="middle" x="305" y="-175.5" font-family="Helvetica,sans-Serif" font-size="10.00" fill="#000000">Spline1DSpec.h</text>
</a>
</g>
</g>
<!-- Node2&#45;&gt;Node3 -->
<g id="edge3" class="edge">
<title>Node2&#45;&gt;Node3</title>
<path fill="none" stroke="#191970" d="M309.1291,-224.2455C308.4766,-216.9382 307.562,-206.6944 306.7593,-197.7046"/>
<polygon fill="#191970" stroke="#191970" points="310.2365,-197.2918 305.861,-187.6427 303.2642,-197.9143 310.2365,-197.2918"/>
</g>
<!-- Node3&#45;&gt;Node4 -->
<g id="edge4" class="edge">
<title>Node3&#45;&gt;Node4</title>
<path fill="none" stroke="#191970" d="M292.8858,-168.2466C281.4768,-159.0145 263.9528,-144.7142 249,-132 229.3777,-115.3154 207.2836,-95.7791 192.188,-82.3138"/>
<polygon fill="#191970" stroke="#191970" points="194.3698,-79.5696 184.5817,-75.5143 189.7045,-84.7884 194.3698,-79.5696"/>
</g>
<!-- Node3&#45;&gt;Node7 -->
<g id="edge7" class="edge">
<title>Node3&#45;&gt;Node7</title>
<path fill="none" stroke="#191970" d="M317.8898,-168.2455C328.9254,-159.8943 345.0292,-147.7076 357.9353,-137.9408"/>
<polygon fill="#191970" stroke="#191970" points="360.3959,-140.4681 366.2579,-131.6427 356.1717,-134.8862 360.3959,-140.4681"/>
</g>
<!-- Node3&#45;&gt;Node17 -->
<g id="edge18" class="edge">
<title>Node3&#45;&gt;Node17</title>
<path fill="none" stroke="#191970" d="M333.5364,-168.3733C361.0202,-159.1016 402.7686,-145.0178 433.0452,-134.804"/>
<polygon fill="#191970" stroke="#191970" points="434.4794,-138.0141 442.836,-131.5011 432.2418,-131.3813 434.4794,-138.0141"/>
</g>
<!-- Node18 -->
<g id="node19" class="node">
<title>Node18</title>
<polygon fill="none" stroke="#bfbfbf" points="258.5,-112.5 258.5,-131.5 323.5,-131.5 323.5,-112.5 258.5,-112.5"/>
<text text-anchor="middle" x="291" y="-119.5" font-family="Helvetica,sans-Serif" font-size="10.00" fill="#000000">functional</text>
</g>
<!-- Node3&#45;&gt;Node18 -->
<g id="edge19" class="edge">
<title>Node3&#45;&gt;Node18</title>
<path fill="none" stroke="#191970" d="M302.5614,-168.2455C300.7145,-160.8579 298.1172,-150.4689 295.8522,-141.4087"/>
<polygon fill="#191970" stroke="#191970" points="299.2316,-140.4952 293.4107,-131.6427 292.4406,-142.193 299.2316,-140.4952"/>
</g>
<!-- Node5 -->
<g id="node6" class="node">
<title>Node5</title>
<g id="a_node6"><a xlink:href="../../d5/d93/GPUCommonDefSettings_8h.html" target="_top" xlink:title="GPUCommonDefSettings.h">
<polygon fill="none" stroke="#000000" points="142,-.5 142,-19.5 290,-19.5 290,-.5 142,-.5"/>
<text text-anchor="middle" x="216" y="-7.5" font-family="Helvetica,sans-Serif" font-size="10.00" fill="#000000">GPUCommonDefSettings.h</text>
</a>
</g>
</g>
<!-- Node4&#45;&gt;Node5 -->
<g id="edge5" class="edge">
<title>Node4&#45;&gt;Node5</title>
<path fill="none" stroke="#191970" d="M181.3158,-56.2455C187.2179,-48.3761 195.6742,-37.101 202.7594,-27.6542"/>
<polygon fill="#191970" stroke="#191970" points="205.568,-29.7427 208.768,-19.6427 199.9679,-25.5427 205.568,-29.7427"/>
</g>
<!-- Node6 -->
<g id="node7" class="node">
<title>Node6</title>
<g id="a_node7"><a xlink:href="../../da/d5a/GPUCommonDefAPI_8h.html" target="_top" xlink:title="GPUCommonDefAPI.h">
<polygon fill="none" stroke="#000000" points="0,-.5 0,-19.5 124,-19.5 124,-.5 0,-.5"/>
<text text-anchor="middle" x="62" y="-7.5" font-family="Helvetica,sans-Serif" font-size="10.00" fill="#000000">GPUCommonDefAPI.h</text>
</a>
</g>
</g>
<!-- Node4&#45;&gt;Node6 -->
<g id="edge6" class="edge">
<title>Node4&#45;&gt;Node6</title>
<path fill="none" stroke="#191970" d="M154.7465,-56.3733C136.9288,-47.4644 110.2253,-34.1127 90.0406,-24.0203"/>
<polygon fill="#191970" stroke="#191970" points="91.5118,-20.8428 81.0022,-19.5011 88.3813,-27.1038 91.5118,-20.8428"/>
</g>
<!-- Node7&#45;&gt;Node4 -->
<g id="edge12" class="edge">
<title>Node7&#45;&gt;Node4</title>
<path fill="none" stroke="#191970" d="M343.7592,-112.3733C309.0806,-102.9001 256.0117,-88.4032 218.4538,-78.1435"/>
<polygon fill="#191970" stroke="#191970" points="219.3498,-74.7601 208.7809,-75.5011 217.5051,-81.5126 219.3498,-74.7601"/>
</g>
<!-- Node8 -->
<g id="node9" class="node">
<title>Node8</title>
<polygon fill="none" stroke="#bfbfbf" points="600.5,-56.5 600.5,-75.5 653.5,-75.5 653.5,-56.5 600.5,-56.5"/>
<text text-anchor="middle" x="627" y="-63.5" font-family="Helvetica,sans-Serif" font-size="10.00" fill="#000000">cstddef</text>
</g>
<!-- Node7&#45;&gt;Node8 -->
<g id="edge8" class="edge">
<title>Node7&#45;&gt;Node8</title>
<path fill="none" stroke="#191970" d="M416.6544,-113.8087C419.4784,-113.1961 422.2842,-112.5879 425,-112 496.1646,-96.5943 516.6834,-94.5867 590.521,-76.2683"/>
<polygon fill="#191970" stroke="#191970" points="591.4425,-79.6457 600.2959,-73.826 589.7457,-72.8545 591.4425,-79.6457"/>
</g>
<!-- Node9 -->
<g id="node10" class="node">
<title>Node9</title>
<polygon fill="none" stroke="#bfbfbf" points="672,-56.5 672,-75.5 730,-75.5 730,-56.5 672,-56.5"/>
<text text-anchor="middle" x="701" y="-63.5" font-family="Helvetica,sans-Serif" font-size="10.00" fill="#000000">memory</text>
</g>
<!-- Node7&#45;&gt;Node9 -->
<g id="edge9" class="edge">
<title>Node7&#45;&gt;Node9</title>
<path fill="none" stroke="#191970" d="M416.6161,-113.6175C419.449,-113.0491 422.2672,-112.5032 425,-112 527.0272,-93.2136 556.4641,-97.3627 661.5478,-76.1299"/>
<polygon fill="#191970" stroke="#191970" points="662.522,-79.503 671.6151,-74.0656 661.1159,-72.6457 662.522,-79.503"/>
</g>
<!-- Node10 -->
<g id="node11" class="node">
<title>Node10</title>
<polygon fill="none" stroke="#bfbfbf" points="748,-56.5 748,-75.5 798,-75.5 798,-56.5 748,-56.5"/>
<text text-anchor="middle" x="773" y="-63.5" font-family="Helvetica,sans-Serif" font-size="10.00" fill="#000000">cstring</text>
</g>
<!-- Node7&#45;&gt;Node10 -->
<g id="edge10" class="edge">
<title>Node7&#45;&gt;Node10</title>
<path fill="none" stroke="#191970" d="M416.5967,-113.5065C419.434,-112.9637 422.2586,-112.454 425,-112 560.3345,-89.5893 599.5082,-103.2447 737.7432,-75.9515"/>
<polygon fill="#191970" stroke="#191970" points="738.7565,-79.3178 747.87,-73.9146 737.3761,-72.4553 738.7565,-79.3178"/>
</g>
<!-- Node11 -->
<g id="node12" class="node">
<title>Node11</title>
<polygon fill="none" stroke="#bfbfbf" points="246,-56.5 246,-75.5 298,-75.5 298,-56.5 246,-56.5"/>
<text text-anchor="middle" x="272" y="-63.5" font-family="Helvetica,sans-Serif" font-size="10.00" fill="#000000">cassert</text>
</g>
<!-- Node7&#45;&gt;Node11 -->
<g id="edge11" class="edge">
<title>Node7&#45;&gt;Node11</title>
<path fill="none" stroke="#191970" d="M360.362,-112.2455C343.5614,-103.4527 318.6366,-90.4079 299.5382,-80.4125"/>
<polygon fill="#191970" stroke="#191970" points="300.9073,-77.1787 290.4244,-75.6427 297.6614,-83.3807 300.9073,-77.1787"/>
</g>
<!-- Node12 -->
<g id="node13" class="node">
<title>Node12</title>
<g id="a_node13"><a xlink:href="../../d2/d45/GPUCommonRtypes_8h.html" target="_top" xlink:title="GPUCommonRtypes.h">
<polygon fill="none" stroke="#000000" points="316.5,-56.5 316.5,-75.5 441.5,-75.5 441.5,-56.5 316.5,-56.5"/>
<text text-anchor="middle" x="379" y="-63.5" font-family="Helvetica,sans-Serif" font-size="10.00" fill="#000000">GPUCommonRtypes.h</text>
</a>
</g>
</g>
<!-- Node7&#45;&gt;Node12 -->
<g id="edge13" class="edge">
<title>Node7&#45;&gt;Node12</title>
<path fill="none" stroke="#191970" d="M379,-112.2455C379,-104.9382 379,-94.6944 379,-85.7046"/>
<polygon fill="#191970" stroke="#191970" points="382.5001,-85.6426 379,-75.6427 375.5001,-85.6427 382.5001,-85.6426"/>
</g>
<!-- Node14 -->
<g id="node15" class="node">
<title>Node14</title>
<g id="a_node15"><a xlink:href="../../df/d5b/GPUCommonLogger_8h.html" target="_top" xlink:title="GPUCommonLogger.h">
<polygon fill="none" stroke="#000000" points="459.5,-56.5 459.5,-75.5 582.5,-75.5 582.5,-56.5 459.5,-56.5"/>
<text text-anchor="middle" x="521" y="-63.5" font-family="Helvetica,sans-Serif" font-size="10.00" fill="#000000">GPUCommonLogger.h</text>
</a>
</g>
</g>
<!-- Node7&#45;&gt;Node14 -->
<g id="edge15" class="edge">
<title>Node7&#45;&gt;Node14</title>
<path fill="none" stroke="#191970" d="M403.4107,-112.3733C426.6142,-103.2226 461.7038,-89.3844 487.5142,-79.2057"/>
<polygon fill="#191970" stroke="#191970" points="488.8892,-82.4258 496.9079,-75.5011 486.3211,-75.9139 488.8892,-82.4258"/>
</g>
<!-- Node13 -->
<g id="node14" class="node">
<title>Node13</title>
<polygon fill="none" stroke="#bfbfbf" points="349.5,-.5 349.5,-19.5 408.5,-19.5 408.5,-.5 349.5,-.5"/>
<text text-anchor="middle" x="379" y="-7.5" font-family="Helvetica,sans-Serif" font-size="10.00" fill="#000000">Rtypes.h</text>
</g>
<!-- Node12&#45;&gt;Node13 -->
<g id="edge14" class="edge">
<title>Node12&#45;&gt;Node13</title>
<path fill="none" stroke="#191970" d="M379,-56.2455C379,-48.9382 379,-38.6944 379,-29.7046"/>
<polygon fill="#191970" stroke="#191970" points="382.5001,-29.6426 379,-19.6427 375.5001,-29.6427 382.5001,-29.6426"/>
</g>
<!-- Node15 -->
<g id="node16" class="node">
<title>Node15</title>
<polygon fill="none" stroke="#bfbfbf" points="527,-.5 527,-19.5 587,-19.5 587,-.5 527,-.5"/>
<text text-anchor="middle" x="557" y="-7.5" font-family="Helvetica,sans-Serif" font-size="10.00" fill="#000000">iostream</text>
</g>
<!-- Node14&#45;&gt;Node15 -->
<g id="edge16" class="edge">
<title>Node14&#45;&gt;Node15</title>
<path fill="none" stroke="#191970" d="M527.2707,-56.2455C532.2264,-48.5367 539.283,-37.5598 545.2776,-28.2348"/>
<polygon fill="#191970" stroke="#191970" points="548.3376,-29.9471 550.8011,-19.6427 542.4494,-26.1618 548.3376,-29.9471"/>
</g>
<!-- Node16 -->
<g id="node17" class="node">
<title>Node16</title>
<polygon fill="none" stroke="#bfbfbf" points="463,-.5 463,-19.5 509,-19.5 509,-.5 463,-.5"/>
<text text-anchor="middle" x="486" y="-7.5" font-family="Helvetica,sans-Serif" font-size="10.00" fill="#000000">cstdio</text>
</g>
<!-- Node14&#45;&gt;Node16 -->
<g id="edge17" class="edge">
<title>Node14&#45;&gt;Node16</title>
<path fill="none" stroke="#191970" d="M514.9035,-56.2455C510.0855,-48.5367 503.2249,-37.5598 497.3968,-28.2348"/>
<polygon fill="#191970" stroke="#191970" points="500.2947,-26.2677 492.0267,-19.6427 494.3587,-29.9777 500.2947,-26.2677"/>
</g>
</g>
</svg>
        <g id="navigator" transform="translate(0 0)" fill="#404254">
                <rect fill="#f2f5e9" fill-opacity="0.5" stroke="#606060" stroke-width=".5" x="0" y="0" width="60" height="60"/>
                <use id="zoomplus" xlink:href="#zoomPlus" x="17" y="9" onmousedown="handleZoom(evt,'in')"/>
                <use id="zoomminus" xlink:href="#zoomMin" x="42" y="9" onmousedown="handleZoom(evt,'out')"/>
                <use id="reset" xlink:href="#resetDef" x="30" y="36" onmousedown="handleReset()"/>
                <g id="arrowUp" xlink:href="#dirArrow" transform="translate(30 24)" onmousedown="handlePan(0,-1)">
                  <use xlink:href="#rim" fill="#404040">
                        <set attributeName="fill" to="#808080" begin="arrowUp.mouseover" end="arrowUp.mouseout"/>
                  </use>
                  <path fill="none" stroke="white" stroke-width="1.5" d="M0,-3.0v7 M-2.5,-0.5L0,-3.0L2.5,-0.5"/>
                </g>
                <g id="arrowRight" xlink:href="#dirArrow" transform="rotate(90) translate(36 -43)" onmousedown="handlePan(1,0)">
                  <use xlink:href="#rim" fill="#404040">
                        <set attributeName="fill" to="#808080" begin="arrowRight.mouseover" end="arrowRight.mouseout"/>
                  </use>
                  <path fill="none" stroke="white" stroke-width="1.5" d="M0,-3.0v7 M-2.5,-0.5L0,-3.0L2.5,-0.5"/>
                </g>
                <g id="arrowDown" xlink:href="#dirArrow" transform="rotate(180) translate(-30 -48)" onmousedown="handlePan(0,1)">
                  <use xlink:href="#rim" fill="#404040">
                        <set attributeName="fill" to="#808080" begin="arrowDown.mouseover" end="arrowDown.mouseout"/>
                  </use>
                  <path fill="none" stroke="white" stroke-width="1.5" d="M0,-3.0v7 M-2.5,-0.5L0,-3.0L2.5,-0.5"/>
                </g>
                <g id="arrowLeft" xlink:href="#dirArrow" transform="rotate(270) translate(-36 17)" onmousedown="handlePan(-1,0)">
                  <use xlink:href="#rim" fill="#404040">
                        <set attributeName="fill" to="#808080" begin="arrowLeft.mouseover" end="arrowLeft.mouseout"/>
                  </use>
                  <path fill="none" stroke="white" stroke-width="1.5" d="M0,-3.0v7 M-2.5,-0.5L0,-3.0L2.5,-0.5"/>
                </g>
        </g>
        <svg viewBox="0 0 15 15" width="100%" height="30px" preserveAspectRatio="xMaxYMin meet">
         <g id="arrow_out" transform="scale(0.3 0.3)">
          <a xlink:href="Spline_8h__incl_org.svg" target="_base">
           <rect id="button" ry="5" rx="5" y="6" x="6" height="38" width="38"
                fill="#f2f5e9" fill-opacity="0.5" stroke="#606060" stroke-width="1.0"/>
           <path id="arrow"
             d="M 11.500037,31.436501 C 11.940474,20.09759 22.043105,11.32322 32.158766,21.979434 L 37.068811,17.246167 C 37.068811,17.246167 37.088388,32 37.088388,32 L 22.160133,31.978069 C 22.160133,31.978069 26.997745,27.140456 26.997745,27.140456 C 18.528582,18.264221 13.291696,25.230495 11.500037,31.436501 z"
             style="fill:#404040;"/>
          </a>
         </g>
        </svg>
</svg>
