<?xml version="1.0" encoding="UTF-8" standalone="no"?>
<!DOCTYPE svg PUBLIC "-//W3C//DTD SVG 1.1//EN"
 "http://www.w3.org/Graphics/SVG/1.1/DTD/svg11.dtd">
<!-- Generated by graphviz version 2.40.1 (20161225.0304)
 -->
<!-- Title: /home/travis/build/AliceO2Group/AliceO2/Detectors/ITSMFT/common/reconstruction/include/ITSMFTReconstruction/ChipMappingMFT.h Pages: 1 -->
<svg width="1372pt" height="419pt"
 viewBox="0.00 0.00 1372.12 419.00" xmlns="http://www.w3.org/2000/svg" xmlns:xlink="http://www.w3.org/1999/xlink">
<g id="graph0" class="graph" transform="scale(1 1) rotate(0) translate(4 415)">
<title>/home/travis/build/AliceO2Group/AliceO2/Detectors/ITSMFT/common/reconstruction/include/ITSMFTReconstruction/ChipMappingMFT.h</title>
<!-- Node0 -->
<g id="node1" class="node">
<title>Node0</title>
<polygon fill="#bfbfbf" stroke="#000000" points="237.6204,-347.5 237.6204,-410.5 456.6204,-410.5 456.6204,-347.5 237.6204,-347.5"/>
<text text-anchor="start" x="245.6204" y="-398.5" font-family="Helvetica,sans-Serif" font-size="10.00" fill="#000000">/home/travis/build</text>
<text text-anchor="start" x="245.6204" y="-387.5" font-family="Helvetica,sans-Serif" font-size="10.00" fill="#000000">/AliceO2Group/AliceO2</text>
<text text-anchor="start" x="245.6204" y="-376.5" font-family="Helvetica,sans-Serif" font-size="10.00" fill="#000000">/Detectors/ITSMFT/common</text>
<text text-anchor="start" x="245.6204" y="-365.5" font-family="Helvetica,sans-Serif" font-size="10.00" fill="#000000">/reconstruction/include</text>
<text text-anchor="middle" x="347.1204" y="-354.5" font-family="Helvetica,sans-Serif" font-size="10.00" fill="#000000">/ITSMFTReconstruction/ChipMappingMFT.h</text>
</g>
<!-- Node1 -->
<g id="node2" class="node">
<title>Node1</title>
<polygon fill="none" stroke="#bfbfbf" points="176.6204,-224.5 176.6204,-243.5 235.6204,-243.5 235.6204,-224.5 176.6204,-224.5"/>
<text text-anchor="middle" x="206.1204" y="-231.5" font-family="Helvetica,sans-Serif" font-size="10.00" fill="#000000">Rtypes.h</text>
</g>
<!-- Node0&#45;&gt;Node1 -->
<g id="edge1" class="edge">
<title>Node0&#45;&gt;Node1</title>
<path fill="none" stroke="#191970" d="M306.681,-347.2643C293.5683,-336.2944 279.2788,-323.5855 267.1204,-311 248.9935,-292.2363 230.7485,-268.4022 218.9993,-252.2577"/>
<polygon fill="#191970" stroke="#191970" points="221.5574,-249.8193 212.8822,-243.7371 215.871,-253.9017 221.5574,-249.8193"/>
</g>
<!-- Node2 -->
<g id="node3" class="node">
<title>Node2</title>
<polygon fill="none" stroke="#bfbfbf" points="1322.1204,-112.5 1322.1204,-131.5 1364.1204,-131.5 1364.1204,-112.5 1322.1204,-112.5"/>
<text text-anchor="middle" x="1343.1204" y="-119.5" font-family="Helvetica,sans-Serif" font-size="10.00" fill="#000000">array</text>
</g>
<!-- Node0&#45;&gt;Node2 -->
<g id="edge2" class="edge">
<title>Node0&#45;&gt;Node2</title>
<path fill="none" stroke="#191970" d="M456.791,-367.5478C615.2131,-349.5176 916.4756,-309.6409 1166.1204,-244 1236.1517,-225.5862 1267.9713,-239.2565 1319.1204,-188 1331.4736,-175.6208 1337.5183,-156.3938 1340.4456,-141.879"/>
<polygon fill="#191970" stroke="#191970" points="1343.9185,-142.3321 1342.1294,-131.8895 1337.0159,-141.1686 1343.9185,-142.3321"/>
</g>
<!-- Node3 -->
<g id="node4" class="node">
<title>Node3</title>
<polygon fill="none" stroke="#bfbfbf" points="276.6204,-286 276.6204,-305 351.6204,-305 351.6204,-286 276.6204,-286"/>
<text text-anchor="middle" x="314.1204" y="-293" font-family="Helvetica,sans-Serif" font-size="10.00" fill="#000000">FairLogger.h</text>
</g>
<!-- Node0&#45;&gt;Node3 -->
<g id="edge3" class="edge">
<title>Node0&#45;&gt;Node3</title>
<path fill="none" stroke="#191970" d="M334.6445,-347.4322C330.3016,-336.4435 325.5627,-324.4526 321.7337,-314.7641"/>
<polygon fill="#191970" stroke="#191970" points="324.9284,-313.3248 317.9978,-305.3112 318.4184,-315.8977 324.9284,-313.3248"/>
</g>
<!-- Node4 -->
<g id="node5" class="node">
<title>Node4</title>
<g id="a_node5"><a xlink:href="../../dc/dcd/DataHeader_8h.html" target="_top" xlink:title="Headers/DataHeader.h">
<polygon fill="none" stroke="#000000" points="253.6204,-224.5 253.6204,-243.5 380.6204,-243.5 380.6204,-224.5 253.6204,-224.5"/>
<text text-anchor="middle" x="317.1204" y="-231.5" font-family="Helvetica,sans-Serif" font-size="10.00" fill="#000000">Headers/DataHeader.h</text>
</a>
</g>
</g>
<!-- Node0&#45;&gt;Node4 -->
<g id="edge4" class="edge">
<title>Node0&#45;&gt;Node4</title>
<path fill="none" stroke="#191970" d="M359.1007,-347.2515C364.7438,-327.3298 368.5833,-301.4462 360.1204,-280 355.5734,-268.4774 346.6272,-258.143 338.067,-250.2024"/>
<polygon fill="#191970" stroke="#191970" points="340.305,-247.5106 330.4513,-243.6175 335.7266,-252.8057 340.305,-247.5106"/>
</g>
<!-- Node15 -->
<g id="node16" class="node">
<title>Node15</title>
<g id="a_node16"><a xlink:href="../../dc/dd8/RUInfo_8h.html" target="_top" xlink:title="ITSMFTReconstruction\l/RUInfo.h">
<polygon fill="none" stroke="#000000" points="96.6204,-280.5 96.6204,-310.5 219.6204,-310.5 219.6204,-280.5 96.6204,-280.5"/>
<text text-anchor="start" x="104.6204" y="-298.5" font-family="Helvetica,sans-Serif" font-size="10.00" fill="#000000">ITSMFTReconstruction</text>
<text text-anchor="middle" x="158.1204" y="-287.5" font-family="Helvetica,sans-Serif" font-size="10.00" fill="#000000">/RUInfo.h</text>
</a>
</g>
</g>
<!-- Node0&#45;&gt;Node15 -->
<g id="edge15" class="edge">
<title>Node0&#45;&gt;Node15</title>
<path fill="none" stroke="#191970" d="M275.6676,-347.4322C250.7174,-336.4093 223.4845,-324.3778 201.5192,-314.6736"/>
<polygon fill="#191970" stroke="#191970" points="202.6998,-311.3688 192.1383,-310.5291 199.871,-317.7718 202.6998,-311.3688"/>
</g>
<!-- Node16 -->
<g id="node17" class="node">
<title>Node16</title>
<g id="a_node17"><a xlink:href="../../d6/d31/DetID_8h.html" target="_top" xlink:title="DetectorsCommonDataFormats\l/DetID.h">
<polygon fill="none" stroke="#000000" points="450.6204,-280.5 450.6204,-310.5 621.6204,-310.5 621.6204,-280.5 450.6204,-280.5"/>
<text text-anchor="start" x="458.6204" y="-298.5" font-family="Helvetica,sans-Serif" font-size="10.00" fill="#000000">DetectorsCommonDataFormats</text>
<text text-anchor="middle" x="536.1204" y="-287.5" font-family="Helvetica,sans-Serif" font-size="10.00" fill="#000000">/DetID.h</text>
</a>
</g>
</g>
<!-- Node0&#45;&gt;Node16 -->
<g id="edge18" class="edge">
<title>Node0&#45;&gt;Node16</title>
<path fill="none" stroke="#191970" d="M418.5732,-347.4322C443.5233,-336.4093 470.7563,-324.3778 492.7215,-314.6736"/>
<polygon fill="#191970" stroke="#191970" points="494.3698,-317.7718 502.1024,-310.5291 491.5409,-311.3688 494.3698,-317.7718"/>
</g>
<!-- Node5 -->
<g id="node6" class="node">
<title>Node5</title>
<polygon fill="none" stroke="#bfbfbf" points="616.1204,-112.5 616.1204,-131.5 666.1204,-131.5 666.1204,-112.5 616.1204,-112.5"/>
<text text-anchor="middle" x="641.1204" y="-119.5" font-family="Helvetica,sans-Serif" font-size="10.00" fill="#000000">cstdint</text>
</g>
<!-- Node4&#45;&gt;Node5 -->
<g id="edge5" class="edge">
<title>Node4&#45;&gt;Node5</title>
<path fill="none" stroke="#191970" d="M380.6851,-226.7089C425.3575,-220.1434 485.8729,-208.3087 536.1204,-188 552.9952,-181.1796 593.3769,-154.582 618.8569,-137.3042"/>
<polygon fill="#191970" stroke="#191970" points="620.8921,-140.1527 627.185,-131.6292 616.9503,-134.3681 620.8921,-140.1527"/>
</g>
<!-- Node6 -->
<g id="node7" class="node">
<title>Node6</title>
<polygon fill="none" stroke="#bfbfbf" points="20.1204,-168.5 20.1204,-187.5 78.1204,-187.5 78.1204,-168.5 20.1204,-168.5"/>
<text text-anchor="middle" x="49.1204" y="-175.5" font-family="Helvetica,sans-Serif" font-size="10.00" fill="#000000">memory</text>
</g>
<!-- Node4&#45;&gt;Node6 -->
<g id="edge6" class="edge">
<title>Node4&#45;&gt;Node6</title>
<path fill="none" stroke="#191970" d="M264.8619,-224.4728C220.3105,-216.1413 154.3594,-203.316 87.9249,-188.0874"/>
<polygon fill="#191970" stroke="#191970" points="88.6532,-184.6635 78.1221,-185.8233 87.0779,-191.484 88.6532,-184.6635"/>
</g>
<!-- Node7 -->
<g id="node8" class="node">
<title>Node7</title>
<polygon fill="none" stroke="#bfbfbf" points="584.1204,-168.5 584.1204,-187.5 636.1204,-187.5 636.1204,-168.5 584.1204,-168.5"/>
<text text-anchor="middle" x="610.1204" y="-175.5" font-family="Helvetica,sans-Serif" font-size="10.00" fill="#000000">cassert</text>
</g>
<!-- Node4&#45;&gt;Node7 -->
<g id="edge7" class="edge">
<title>Node4&#45;&gt;Node7</title>
<path fill="none" stroke="#191970" d="M375.6164,-224.4761C427.0322,-215.8405 503.7871,-202.3061 570.1204,-188 571.3799,-187.7284 572.66,-187.4455 573.9517,-187.1543"/>
<polygon fill="#191970" stroke="#191970" points="574.9946,-190.5046 583.9274,-184.8077 573.3917,-183.6906 574.9946,-190.5046"/>
</g>
<!-- Node8 -->
<g id="node9" class="node">
<title>Node8</title>
<polygon fill="none" stroke="#bfbfbf" points="96.1204,-168.5 96.1204,-187.5 146.1204,-187.5 146.1204,-168.5 96.1204,-168.5"/>
<text text-anchor="middle" x="121.1204" y="-175.5" font-family="Helvetica,sans-Serif" font-size="10.00" fill="#000000">cstring</text>
</g>
<!-- Node4&#45;&gt;Node8 -->
<g id="edge8" class="edge">
<title>Node4&#45;&gt;Node8</title>
<path fill="none" stroke="#191970" d="M283.2738,-224.489C252.5311,-215.8281 205.6766,-202.5735 156.2741,-188.3168"/>
<polygon fill="#191970" stroke="#191970" points="156.9423,-184.8667 146.3637,-185.4531 154.999,-191.5916 156.9423,-184.8667"/>
</g>
<!-- Node9 -->
<g id="node10" class="node">
<title>Node9</title>
<polygon fill="none" stroke="#bfbfbf" points="494.1204,-56.5 494.1204,-75.5 558.1204,-75.5 558.1204,-56.5 494.1204,-56.5"/>
<text text-anchor="middle" x="526.1204" y="-63.5" font-family="Helvetica,sans-Serif" font-size="10.00" fill="#000000">algorithm</text>
</g>
<!-- Node4&#45;&gt;Node9 -->
<g id="edge9" class="edge">
<title>Node4&#45;&gt;Node9</title>
<path fill="none" stroke="#191970" d="M253.4886,-224.9561C164.4099,-212.2228 13.0974,-190.2965 11.1204,-188 5.3209,-181.2636 5.4785,-174.8689 11.1204,-168 71.0872,-94.9913 371.6667,-73.3381 483.8295,-67.7426"/>
<polygon fill="#191970" stroke="#191970" points="484.2609,-71.226 494.0813,-67.25 483.9249,-64.234 484.2609,-71.226"/>
</g>
<!-- Node10 -->
<g id="node11" class="node">
<title>Node10</title>
<polygon fill="none" stroke="#bfbfbf" points="164.6204,-168.5 164.6204,-187.5 229.6204,-187.5 229.6204,-168.5 164.6204,-168.5"/>
<text text-anchor="middle" x="197.1204" y="-175.5" font-family="Helvetica,sans-Serif" font-size="10.00" fill="#000000">stdexcept</text>
</g>
<!-- Node4&#45;&gt;Node10 -->
<g id="edge10" class="edge">
<title>Node4&#45;&gt;Node10</title>
<path fill="none" stroke="#191970" d="M296.4916,-224.3733C277.2285,-215.3838 248.2717,-201.8706 226.5784,-191.7471"/>
<polygon fill="#191970" stroke="#191970" points="228.0219,-188.5584 217.4799,-187.5011 225.0616,-194.9017 228.0219,-188.5584"/>
</g>
<!-- Node11 -->
<g id="node12" class="node">
<title>Node11</title>
<polygon fill="none" stroke="#bfbfbf" points="654.1204,-168.5 654.1204,-187.5 698.1204,-187.5 698.1204,-168.5 654.1204,-168.5"/>
<text text-anchor="middle" x="676.1204" y="-175.5" font-family="Helvetica,sans-Serif" font-size="10.00" fill="#000000">string</text>
</g>
<!-- Node4&#45;&gt;Node11 -->
<g id="edge11" class="edge">
<title>Node4&#45;&gt;Node11</title>
<path fill="none" stroke="#191970" d="M380.8987,-228.3493C445.2199,-221.9105 547.4065,-209.6615 643.9704,-187.9471"/>
<polygon fill="#191970" stroke="#191970" points="644.9301,-191.3181 653.8978,-185.6762 643.3691,-184.4943 644.9301,-191.3181"/>
</g>
<!-- Node12 -->
<g id="node13" class="node">
<title>Node12</title>
<polygon fill="none" stroke="#bfbfbf" points="248.1204,-168.5 248.1204,-187.5 298.1204,-187.5 298.1204,-168.5 248.1204,-168.5"/>
<text text-anchor="middle" x="273.1204" y="-175.5" font-family="Helvetica,sans-Serif" font-size="10.00" fill="#000000">climits</text>
</g>
<!-- Node4&#45;&gt;Node12 -->
<g id="edge12" class="edge">
<title>Node4&#45;&gt;Node12</title>
<path fill="none" stroke="#191970" d="M309.4561,-224.2455C303.273,-216.3761 294.414,-205.101 286.9915,-195.6542"/>
<polygon fill="#191970" stroke="#191970" points="289.6271,-193.3435 280.6968,-187.6427 284.1229,-197.6683 289.6271,-193.3435"/>
</g>
<!-- Node13 -->
<g id="node14" class="node">
<title>Node13</title>
<g id="a_node14"><a xlink:href="../../d7/df8/Types_8h.html" target="_top" xlink:title="MemoryResources/Types.h">
<polygon fill="none" stroke="#000000" points="316.1204,-168.5 316.1204,-187.5 462.1204,-187.5 462.1204,-168.5 316.1204,-168.5"/>
<text text-anchor="middle" x="389.1204" y="-175.5" font-family="Helvetica,sans-Serif" font-size="10.00" fill="#000000">MemoryResources/Types.h</text>
</a>
</g>
</g>
<!-- Node4&#45;&gt;Node13 -->
<g id="edge13" class="edge">
<title>Node4&#45;&gt;Node13</title>
<path fill="none" stroke="#191970" d="M329.6618,-224.2455C340.3991,-215.8943 356.0677,-203.7076 368.625,-193.9408"/>
<polygon fill="#191970" stroke="#191970" points="370.9779,-196.5449 376.7226,-187.6427 366.6803,-191.0194 370.9779,-196.5449"/>
</g>
<!-- Node14 -->
<g id="node15" class="node">
<title>Node14</title>
<polygon fill="none" stroke="#bfbfbf" points="480.6204,-168.5 480.6204,-187.5 527.6204,-187.5 527.6204,-168.5 480.6204,-168.5"/>
<text text-anchor="middle" x="504.1204" y="-175.5" font-family="Helvetica,sans-Serif" font-size="10.00" fill="#000000">cerrno</text>
</g>
<!-- Node4&#45;&gt;Node14 -->
<g id="edge14" class="edge">
<title>Node4&#45;&gt;Node14</title>
<path fill="none" stroke="#191970" d="M349.2815,-224.4339C378.4964,-215.7351 423.0301,-202.453 470.7483,-188.1042"/>
<polygon fill="#191970" stroke="#191970" points="471.7631,-191.4539 480.3307,-185.2213 469.7464,-184.7507 471.7631,-191.4539"/>
</g>
<!-- Node15&#45;&gt;Node1 -->
<g id="edge16" class="edge">
<title>Node15&#45;&gt;Node1</title>
<path fill="none" stroke="#191970" d="M169.9855,-280.2977C176.7178,-271.672 185.1789,-260.8312 192.2209,-251.8087"/>
<polygon fill="#191970" stroke="#191970" points="195.0413,-253.8836 198.435,-243.8469 189.5231,-249.5766 195.0413,-253.8836"/>
</g>
<!-- Node15&#45;&gt;Node5 -->
<g id="edge17" class="edge">
<title>Node15&#45;&gt;Node5</title>
<path fill="none" stroke="#191970" d="M116.4706,-280.4254C59.7098,-257.7275 -30.3981,-212.6605 11.1204,-168 31.5013,-146.0766 475.4791,-128.0854 605.5911,-123.269"/>
<polygon fill="#191970" stroke="#191970" points="605.939,-126.7587 615.8039,-122.8942 605.6822,-119.7634 605.939,-126.7587"/>
</g>
<!-- Node16&#45;&gt;Node1 -->
<g id="edge19" class="edge">
<title>Node16&#45;&gt;Node1</title>
<path fill="none" stroke="#191970" d="M450.4668,-282.3089C394.5852,-273.2545 319.8777,-260.3092 245.8936,-244.2736"/>
<polygon fill="#191970" stroke="#191970" points="246.4515,-240.813 235.9346,-242.0951 244.9556,-247.6513 246.4515,-240.813"/>
</g>
<!-- Node16&#45;&gt;Node2 -->
<g id="edge20" class="edge">
<title>Node16&#45;&gt;Node2</title>
<path fill="none" stroke="#191970" d="M621.7402,-291.9887C795.8344,-283.4797 1184.028,-257.1203 1295.1204,-188 1313.0805,-176.8254 1326.4176,-156.2373 1334.4155,-141.016"/>
<polygon fill="#191970" stroke="#191970" points="1337.607,-142.4576 1338.8951,-131.9414 1331.3301,-139.359 1337.607,-142.4576"/>
</g>
<!-- Node16&#45;&gt;Node4 -->
<g id="edge44" class="edge">
<title>Node16&#45;&gt;Node4</title>
<path fill="none" stroke="#191970" d="M482.5469,-280.4554C445.2049,-269.9689 396.0012,-256.1515 360.9868,-246.3187"/>
<polygon fill="#191970" stroke="#191970" points="361.6315,-242.8644 351.0576,-243.5303 359.7389,-249.6037 361.6315,-242.8644"/>
</g>
<!-- Node16&#45;&gt;Node5 -->
<g id="edge23" class="edge">
<title>Node16&#45;&gt;Node5</title>
<path fill="none" stroke="#191970" d="M621.8601,-280.695C645.4341,-273.0607 669.3675,-261.5001 687.1204,-244 711.9944,-219.48 723.2819,-198.9638 707.1204,-168 699.9958,-154.3502 686.768,-143.926 674.0147,-136.4806"/>
<polygon fill="#191970" stroke="#191970" points="675.3712,-133.2362 664.9063,-131.5822 672.0557,-139.4012 675.3712,-133.2362"/>
</g>
<!-- Node16&#45;&gt;Node7 -->
<g id="edge22" class="edge">
<title>Node16&#45;&gt;Node7</title>
<path fill="none" stroke="#191970" d="M478.8994,-280.4512C443.6287,-268.3015 408.5712,-249.1049 428.1204,-224 428.4063,-223.6327 521.0957,-200.3321 574.07,-187.0393"/>
<polygon fill="#191970" stroke="#191970" points="575.2485,-190.3522 584.0962,-184.524 573.545,-183.5626 575.2485,-190.3522"/>
</g>
<!-- Node16&#45;&gt;Node11 -->
<g id="edge25" class="edge">
<title>Node16&#45;&gt;Node11</title>
<path fill="none" stroke="#191970" d="M614.2206,-280.4308C634.6597,-272.7947 654.7022,-261.2992 668.1204,-244 678.1678,-231.0464 679.529,-212.1506 678.7495,-197.8936"/>
<polygon fill="#191970" stroke="#191970" points="682.208,-197.2863 677.7905,-187.6563 675.2385,-197.9392 682.208,-197.2863"/>
</g>
<!-- Node17 -->
<g id="node18" class="node">
<title>Node17</title>
<polygon fill="none" stroke="#bfbfbf" points="437.1204,-224.5 437.1204,-243.5 481.1204,-243.5 481.1204,-224.5 437.1204,-224.5"/>
<text text-anchor="middle" x="459.1204" y="-231.5" font-family="Helvetica,sans-Serif" font-size="10.00" fill="#000000">bitset</text>
</g>
<!-- Node16&#45;&gt;Node17 -->
<g id="edge21" class="edge">
<title>Node16&#45;&gt;Node17</title>
<path fill="none" stroke="#191970" d="M517.0867,-280.2977C505.6189,-271.1384 491.0242,-259.4816 479.3485,-250.1562"/>
<polygon fill="#191970" stroke="#191970" points="481.447,-247.3529 471.449,-243.8469 477.0784,-252.8225 481.447,-247.3529"/>
</g>
<!-- Node18 -->
<g id="node19" class="node">
<title>Node18</title>
<polygon fill="none" stroke="#bfbfbf" points="499.6204,-224.5 499.6204,-243.5 572.6204,-243.5 572.6204,-224.5 499.6204,-224.5"/>
<text text-anchor="middle" x="536.1204" y="-231.5" font-family="Helvetica,sans-Serif" font-size="10.00" fill="#000000">string_view</text>
</g>
<!-- Node16&#45;&gt;Node18 -->
<g id="edge24" class="edge">
<title>Node16&#45;&gt;Node18</title>
<path fill="none" stroke="#191970" d="M536.1204,-280.2977C536.1204,-272.3834 536.1204,-262.6043 536.1204,-254.0759"/>
<polygon fill="#191970" stroke="#191970" points="539.6205,-253.8469 536.1204,-243.8469 532.6205,-253.847 539.6205,-253.8469"/>
</g>
<!-- Node19 -->
<g id="node20" class="node">
<title>Node19</title>
<polygon fill="none" stroke="#bfbfbf" points="590.6204,-224.5 590.6204,-243.5 659.6204,-243.5 659.6204,-224.5 590.6204,-224.5"/>
<text text-anchor="middle" x="625.1204" y="-231.5" font-family="Helvetica,sans-Serif" font-size="10.00" fill="#000000">type_traits</text>
</g>
<!-- Node16&#45;&gt;Node19 -->
<g id="edge26" class="edge">
<title>Node16&#45;&gt;Node19</title>
<path fill="none" stroke="#191970" d="M558.1204,-280.2977C571.7171,-270.9022 589.117,-258.8787 602.7771,-249.4395"/>
<polygon fill="#191970" stroke="#191970" points="604.8989,-252.2276 611.1361,-243.6633 600.9195,-246.4688 604.8989,-252.2276"/>
</g>
<!-- Node20 -->
<g id="node21" class="node">
<title>Node20</title>
<g id="a_node21"><a xlink:href="../../d9/d52/Common_2MathUtils_2include_2MathUtils_2Utils_8h.html" target="_top" xlink:title="MathUtils/Utils.h">
<polygon fill="none" stroke="#000000" points="864.1204,-224.5 864.1204,-243.5 962.1204,-243.5 962.1204,-224.5 864.1204,-224.5"/>
<text text-anchor="middle" x="913.1204" y="-231.5" font-family="Helvetica,sans-Serif" font-size="10.00" fill="#000000">MathUtils/Utils.h</text>
</a>
</g>
</g>
<!-- Node16&#45;&gt;Node20 -->
<g id="edge27" class="edge">
<title>Node16&#45;&gt;Node20</title>
<path fill="none" stroke="#191970" d="M621.6675,-281.5447C692.5626,-269.9796 791.4846,-253.8424 853.9062,-243.6596"/>
<polygon fill="#191970" stroke="#191970" points="854.6748,-247.0806 863.9808,-242.0161 853.5477,-240.1719 854.6748,-247.0806"/>
</g>
<!-- Node21 -->
<g id="node22" class="node">
<title>Node21</title>
<g id="a_node22"><a xlink:href="../../de/def/bitOps_8h.html" target="_top" xlink:title="MathUtils/detail/bitOps.h">
<polygon fill="none" stroke="#000000" points="754.6204,-168.5 754.6204,-187.5 891.6204,-187.5 891.6204,-168.5 754.6204,-168.5"/>
<text text-anchor="middle" x="823.1204" y="-175.5" font-family="Helvetica,sans-Serif" font-size="10.00" fill="#000000">MathUtils/detail/bitOps.h</text>
</a>
</g>
</g>
<!-- Node20&#45;&gt;Node21 -->
<g id="edge28" class="edge">
<title>Node20&#45;&gt;Node21</title>
<path fill="none" stroke="#191970" d="M897.4436,-224.2455C883.6348,-215.6534 863.3011,-203.0014 847.3911,-193.1018"/>
<polygon fill="#191970" stroke="#191970" points="848.9572,-189.954 838.6175,-187.6427 845.259,-195.8974 848.9572,-189.954"/>
</g>
<!-- Node22 -->
<g id="node23" class="node">
<title>Node22</title>
<g id="a_node23"><a xlink:href="../../d3/dfc/StatAccumulator_8h.html" target="_top" xlink:title="MathUtils/detail/StatAccumulator.h">
<polygon fill="none" stroke="#000000" points="910.1204,-168.5 910.1204,-187.5 1096.1204,-187.5 1096.1204,-168.5 910.1204,-168.5"/>
<text text-anchor="middle" x="1003.1204" y="-175.5" font-family="Helvetica,sans-Serif" font-size="10.00" fill="#000000">MathUtils/detail/StatAccumulator.h</text>
</a>
</g>
</g>
<!-- Node20&#45;&gt;Node22 -->
<g id="edge30" class="edge">
<title>Node20&#45;&gt;Node22</title>
<path fill="none" stroke="#191970" d="M928.7972,-224.2455C942.6059,-215.6534 962.9396,-203.0014 978.8496,-193.1018"/>
<polygon fill="#191970" stroke="#191970" points="980.9817,-195.8974 987.6232,-187.6427 977.2836,-189.954 980.9817,-195.8974"/>
</g>
<!-- Node24 -->
<g id="node25" class="node">
<title>Node24</title>
<g id="a_node25"><a xlink:href="../../dd/d7d/trigonometric_8h.html" target="_top" xlink:title="MathUtils/detail/trigonometric.h">
<polygon fill="none" stroke="#000000" points="1114.1204,-168.5 1114.1204,-187.5 1286.1204,-187.5 1286.1204,-168.5 1114.1204,-168.5"/>
<text text-anchor="middle" x="1200.1204" y="-175.5" font-family="Helvetica,sans-Serif" font-size="10.00" fill="#000000">MathUtils/detail/trigonometric.h</text>
</a>
</g>
</g>
<!-- Node20&#45;&gt;Node24 -->
<g id="edge32" class="edge">
<title>Node20&#45;&gt;Node24</title>
<path fill="none" stroke="#191970" d="M962.1313,-224.4369C1011.7651,-214.7522 1088.5477,-199.7703 1141.4038,-189.4569"/>
<polygon fill="#191970" stroke="#191970" points="1142.167,-192.8741 1151.3116,-187.5237 1140.8263,-186.0036 1142.167,-192.8741"/>
</g>
<!-- Node21&#45;&gt;Node5 -->
<g id="edge29" class="edge">
<title>Node21&#45;&gt;Node5</title>
<path fill="none" stroke="#191970" d="M791.8334,-168.3733C759.5965,-158.4542 709.4596,-143.0275 675.9732,-132.7239"/>
<polygon fill="#191970" stroke="#191970" points="676.7408,-129.2983 666.1537,-129.7026 674.6821,-135.9887 676.7408,-129.2983"/>
</g>
<!-- Node23 -->
<g id="node24" class="node">
<title>Node23</title>
<polygon fill="none" stroke="#bfbfbf" points="841.6204,-112.5 841.6204,-131.5 882.6204,-131.5 882.6204,-112.5 841.6204,-112.5"/>
<text text-anchor="middle" x="862.1204" y="-119.5" font-family="Helvetica,sans-Serif" font-size="10.00" fill="#000000">tuple</text>
</g>
<!-- Node22&#45;&gt;Node23 -->
<g id="edge31" class="edge">
<title>Node22&#45;&gt;Node23</title>
<path fill="none" stroke="#191970" d="M978.8816,-168.3733C954.864,-158.8343 918.0214,-144.2018 892.1598,-133.9306"/>
<polygon fill="#191970" stroke="#191970" points="893.4212,-130.6657 882.8354,-130.2273 890.8373,-137.1713 893.4212,-130.6657"/>
</g>
<!-- Node24&#45;&gt;Node2 -->
<g id="edge33" class="edge">
<title>Node24&#45;&gt;Node2</title>
<path fill="none" stroke="#191970" d="M1224.7029,-168.3733C1249.0612,-158.8343 1286.4264,-144.2018 1312.6548,-133.9306"/>
<polygon fill="#191970" stroke="#191970" points="1314.0763,-137.1328 1322.1115,-130.2273 1311.5237,-130.6148 1314.0763,-137.1328"/>
</g>
<!-- Node24&#45;&gt;Node23 -->
<g id="edge35" class="edge">
<title>Node24&#45;&gt;Node23</title>
<path fill="none" stroke="#191970" d="M1118.5839,-168.4903C1057.295,-160.6497 971.4629,-148.1942 897.1204,-132 895.6539,-131.6805 894.1582,-131.3343 892.6515,-130.969"/>
<polygon fill="#191970" stroke="#191970" points="893.2989,-127.5203 882.7376,-128.3631 891.5193,-134.2904 893.2989,-127.5203"/>
</g>
<!-- Node25 -->
<g id="node26" class="node">
<title>Node25</title>
<polygon fill="none" stroke="#bfbfbf" points="1227.6204,-56.5 1227.6204,-75.5 1274.6204,-75.5 1274.6204,-56.5 1227.6204,-56.5"/>
<text text-anchor="middle" x="1251.1204" y="-63.5" font-family="Helvetica,sans-Serif" font-size="10.00" fill="#000000">cmath</text>
</g>
<!-- Node24&#45;&gt;Node25 -->
<g id="edge34" class="edge">
<title>Node24&#45;&gt;Node25</title>
<path fill="none" stroke="#191970" d="M1228.9311,-168.4613C1245.6394,-161.274 1265.2718,-149.5938 1275.1204,-132 1283.7185,-116.64 1274.9852,-97.6133 1265.7344,-83.941"/>
<polygon fill="#191970" stroke="#191970" points="1268.5046,-81.8002 1259.7575,-75.8219 1262.8673,-85.9501 1268.5046,-81.8002"/>
</g>
<!-- Node26 -->
<g id="node27" class="node">
<title>Node26</title>
<g id="a_node27"><a xlink:href="../../df/d21/GPUCommonDef_8h.html" target="_top" xlink:title="GPUCommonDef.h">
<polygon fill="none" stroke="#000000" points="979.6204,-56.5 979.6204,-75.5 1086.6204,-75.5 1086.6204,-56.5 979.6204,-56.5"/>
<text text-anchor="middle" x="1033.1204" y="-63.5" font-family="Helvetica,sans-Serif" font-size="10.00" fill="#000000">GPUCommonDef.h</text>
</a>
</g>
</g>
<!-- Node24&#45;&gt;Node26 -->
<g id="edge36" class="edge">
<title>Node24&#45;&gt;Node26</title>
<path fill="none" stroke="#191970" d="M1113.828,-168.8715C1039.4136,-160.1082 942.0625,-146.1488 930.1204,-132 909.8358,-107.9672 947.4795,-89.6546 982.8234,-78.4857"/>
<polygon fill="#191970" stroke="#191970" points="984.11,-81.7539 992.6812,-75.5261 982.0971,-75.0495 984.11,-81.7539"/>
</g>
<!-- Node29 -->
<g id="node30" class="node">
<title>Node29</title>
<g id="a_node30"><a xlink:href="../../d6/da2/GPUCommonMath_8h.html" target="_top" xlink:title="GPUCommonMath.h">
<polygon fill="none" stroke="#000000" points="1150.6204,-112.5 1150.6204,-131.5 1265.6204,-131.5 1265.6204,-112.5 1150.6204,-112.5"/>
<text text-anchor="middle" x="1208.1204" y="-119.5" font-family="Helvetica,sans-Serif" font-size="10.00" fill="#000000">GPUCommonMath.h</text>
</a>
</g>
</g>
<!-- Node24&#45;&gt;Node29 -->
<g id="edge39" class="edge">
<title>Node24&#45;&gt;Node29</title>
<path fill="none" stroke="#191970" d="M1201.5139,-168.2455C1202.5578,-160.9382 1204.0212,-150.6944 1205.3054,-141.7046"/>
<polygon fill="#191970" stroke="#191970" points="1208.7934,-142.0372 1206.7428,-131.6427 1201.8637,-141.0472 1208.7934,-142.0372"/>
</g>
<!-- Node30 -->
<g id="node31" class="node">
<title>Node30</title>
<g id="a_node31"><a xlink:href="../../d6/d84/MathConstants_8h.html" target="_top" xlink:title="useful math constants ">
<polygon fill="none" stroke="#000000" points="939.1204,-112.5 939.1204,-131.5 1133.1204,-131.5 1133.1204,-112.5 939.1204,-112.5"/>
<text text-anchor="middle" x="1036.1204" y="-119.5" font-family="Helvetica,sans-Serif" font-size="10.00" fill="#000000">CommonConstants/MathConstants.h</text>
</a>
</g>
</g>
<!-- Node24&#45;&gt;Node30 -->
<g id="edge43" class="edge">
<title>Node24&#45;&gt;Node30</title>
<path fill="none" stroke="#191970" d="M1171.9278,-168.3733C1144.7751,-159.1016 1103.5297,-145.0178 1073.6179,-134.804"/>
<polygon fill="#191970" stroke="#191970" points="1074.5396,-131.4204 1063.9451,-131.5011 1072.2776,-138.0449 1074.5396,-131.4204"/>
</g>
<!-- Node27 -->
<g id="node28" class="node">
<title>Node27</title>
<g id="a_node28"><a xlink:href="../../d5/d93/GPUCommonDefSettings_8h.html" target="_top" xlink:title="GPUCommonDefSettings.h">
<polygon fill="none" stroke="#000000" points="882.1204,-.5 882.1204,-19.5 1030.1204,-19.5 1030.1204,-.5 882.1204,-.5"/>
<text text-anchor="middle" x="956.1204" y="-7.5" font-family="Helvetica,sans-Serif" font-size="10.00" fill="#000000">GPUCommonDefSettings.h</text>
</a>
</g>
</g>
<!-- Node26&#45;&gt;Node27 -->
<g id="edge37" class="edge">
<title>Node26&#45;&gt;Node27</title>
<path fill="none" stroke="#191970" d="M1019.708,-56.2455C1008.1146,-47.814 991.1456,-35.4729 977.6525,-25.6598"/>
<polygon fill="#191970" stroke="#191970" points="979.525,-22.6938 969.379,-19.6427 975.4078,-28.355 979.525,-22.6938"/>
</g>
<!-- Node28 -->
<g id="node29" class="node">
<title>Node28</title>
<g id="a_node29"><a xlink:href="../../da/d5a/GPUCommonDefAPI_8h.html" target="_top" xlink:title="GPUCommonDefAPI.h">
<polygon fill="none" stroke="#000000" points="1048.1204,-.5 1048.1204,-19.5 1172.1204,-19.5 1172.1204,-.5 1048.1204,-.5"/>
<text text-anchor="middle" x="1110.1204" y="-7.5" font-family="Helvetica,sans-Serif" font-size="10.00" fill="#000000">GPUCommonDefAPI.h</text>
</a>
</g>
</g>
<!-- Node26&#45;&gt;Node28 -->
<g id="edge38" class="edge">
<title>Node26&#45;&gt;Node28</title>
<path fill="none" stroke="#191970" d="M1046.5327,-56.2455C1058.1261,-47.814 1075.0951,-35.4729 1088.5882,-25.6598"/>
<polygon fill="#191970" stroke="#191970" points="1090.8329,-28.355 1096.8617,-19.6427 1086.7157,-22.6938 1090.8329,-28.355"/>
</g>
<!-- Node29&#45;&gt;Node9 -->
<g id="edge42" class="edge">
<title>Node29&#45;&gt;Node9</title>
<path fill="none" stroke="#191970" d="M1150.5615,-113.0162C1147.7099,-112.6536 1144.8842,-112.3121 1142.1204,-112 927.0124,-87.7077 668.1417,-73.1246 568.2624,-68.0427"/>
<polygon fill="#191970" stroke="#191970" points="568.4283,-64.5467 558.2648,-67.5388 568.0759,-71.5378 568.4283,-64.5467"/>
</g>
<!-- Node29&#45;&gt;Node25 -->
<g id="edge41" class="edge">
<title>Node29&#45;&gt;Node25</title>
<path fill="none" stroke="#191970" d="M1215.6104,-112.2455C1221.653,-104.3761 1230.3107,-93.101 1237.5645,-83.6542"/>
<polygon fill="#191970" stroke="#191970" points="1240.4019,-85.7058 1243.7162,-75.6427 1234.8498,-81.4426 1240.4019,-85.7058"/>
</g>
<!-- Node29&#45;&gt;Node26 -->
<g id="edge40" class="edge">
<title>Node29&#45;&gt;Node26</title>
<path fill="none" stroke="#191970" d="M1178.0368,-112.3733C1148.9369,-103.0613 1104.6681,-88.8953 1072.7173,-78.671"/>
<polygon fill="#191970" stroke="#191970" points="1073.4024,-75.2155 1062.8114,-75.5011 1071.2689,-81.8824 1073.4024,-75.2155"/>
</g>
</g>
</svg>
