<?xml version="1.0" encoding="UTF-8" standalone="no"?>
<!DOCTYPE svg PUBLIC "-//W3C//DTD SVG 1.1//EN"
 "http://www.w3.org/Graphics/SVG/1.1/DTD/svg11.dtd">
<!-- Generated by graphviz version 2.40.1 (20161225.0304)
 -->
<!-- Title: /home/travis/build/AliceO2Group/AliceO2/Framework/Core/include/Framework/RootTableBuilderHelpers.h Pages: 1 -->
<svg width="4168pt" height="598pt"
 viewBox="0.00 0.00 4167.87 598.00" xmlns="http://www.w3.org/2000/svg" xmlns:xlink="http://www.w3.org/1999/xlink">
<g id="graph0" class="graph" transform="scale(1 1) rotate(0) translate(4 594)">
<title>/home/travis/build/AliceO2Group/AliceO2/Framework/Core/include/Framework/RootTableBuilderHelpers.h</title>
<!-- Node0 -->
<g id="node1" class="node">
<title>Node0</title>
<polygon fill="#bfbfbf" stroke="#000000" points="3281.8736,-537.5 3281.8736,-589.5 3486.8736,-589.5 3486.8736,-537.5 3281.8736,-537.5"/>
<text text-anchor="start" x="3289.8736" y="-577.5" font-family="Helvetica,sans-Serif" font-size="10.00" fill="#000000">/home/travis/build</text>
<text text-anchor="start" x="3289.8736" y="-566.5" font-family="Helvetica,sans-Serif" font-size="10.00" fill="#000000">/AliceO2Group/AliceO2</text>
<text text-anchor="start" x="3289.8736" y="-555.5" font-family="Helvetica,sans-Serif" font-size="10.00" fill="#000000">/Framework/Core/include</text>
<text text-anchor="middle" x="3384.3736" y="-544.5" font-family="Helvetica,sans-Serif" font-size="10.00" fill="#000000">/Framework/RootTableBuilderHelpers.h</text>
</g>
<!-- Node1 -->
<g id="node2" class="node">
<title>Node1</title>
<g id="a_node2"><a xlink:href="../../d5/d98/TableBuilder_8h.html" target="_top" xlink:title="Framework/TableBuilder.h">
<polygon fill="none" stroke="#000000" points="2578.3736,-481.5 2578.3736,-500.5 2720.3736,-500.5 2720.3736,-481.5 2578.3736,-481.5"/>
<text text-anchor="middle" x="2649.3736" y="-488.5" font-family="Helvetica,sans-Serif" font-size="10.00" fill="#000000">Framework/TableBuilder.h</text>
</a>
</g>
</g>
<!-- Node0&#45;&gt;Node1 -->
<g id="edge1" class="edge">
<title>Node0&#45;&gt;Node1</title>
<path fill="none" stroke="#191970" d="M3281.7883,-553.381C3134.3354,-538.8364 2865.4455,-512.3132 2730.7787,-499.0298"/>
<polygon fill="#191970" stroke="#191970" points="2730.8268,-495.5176 2720.5315,-498.019 2730.1396,-502.4838 2730.8268,-495.5176"/>
</g>
<!-- Node16 -->
<g id="node17" class="node">
<title>Node16</title>
<polygon fill="none" stroke="#bfbfbf" points="899.3736,-.5 899.3736,-19.5 943.3736,-19.5 943.3736,-.5 899.3736,-.5"/>
<text text-anchor="middle" x="921.3736" y="-7.5" font-family="Helvetica,sans-Serif" font-size="10.00" fill="#000000">string</text>
</g>
<!-- Node0&#45;&gt;Node16 -->
<g id="edge113" class="edge">
<title>Node0&#45;&gt;Node16</title>
<path fill="none" stroke="#191970" d="M3281.8027,-563.0862C2827.885,-560.9854 997.0346,-549.6062 424.3736,-501 237.8429,-485.1677 8.3736,-622.2014 8.3736,-435 8.3736,-435 8.3736,-435 8.3736,-127.5 8.3736,-103.775 -51.813,-107.8292 151.3736,-56 294.3268,-19.5352 761.5758,-11.7642 889.0153,-10.3065"/>
<polygon fill="#191970" stroke="#191970" points="889.3146,-13.8035 899.2758,-10.1946 889.2382,-6.804 889.3146,-13.8035"/>
</g>
<!-- Node25 -->
<g id="node26" class="node">
<title>Node25</title>
<polygon fill="none" stroke="#bfbfbf" points="1712.8736,-.5 1712.8736,-19.5 1759.8736,-19.5 1759.8736,-.5 1712.8736,-.5"/>
<text text-anchor="middle" x="1736.3736" y="-7.5" font-family="Helvetica,sans-Serif" font-size="10.00" fill="#000000">vector</text>
</g>
<!-- Node0&#45;&gt;Node25 -->
<g id="edge112" class="edge">
<title>Node0&#45;&gt;Node25</title>
<path fill="none" stroke="#191970" d="M3281.5359,-562.246C2723.5467,-555.1128 84.3736,-517.0384 84.3736,-435 84.3736,-435 84.3736,-435 84.3736,-379 84.3736,-313.4011 92.915,-281.0365 148.3736,-246 285.4536,-159.3982 1485.3814,-35.2435 1702.7012,-13.3578"/>
<polygon fill="#191970" stroke="#191970" points="1703.2575,-16.8196 1712.8575,-12.3375 1702.5578,-9.8547 1703.2575,-16.8196"/>
</g>
<!-- Node33 -->
<g id="node34" class="node">
<title>Node33</title>
<polygon fill="none" stroke="#bfbfbf" points="2624.3736,-252 2624.3736,-271 2682.3736,-271 2682.3736,-252 2624.3736,-252"/>
<text text-anchor="middle" x="2653.3736" y="-259" font-family="Helvetica,sans-Serif" font-size="10.00" fill="#000000">memory</text>
</g>
<!-- Node0&#45;&gt;Node33 -->
<g id="edge114" class="edge">
<title>Node0&#45;&gt;Node33</title>
<path fill="none" stroke="#191970" d="M3387.5349,-537.3497C3388.6831,-520.8672 3388.618,-499.3148 3383.3736,-481 3375.358,-453.008 3371.3147,-444.1413 3349.3736,-425 3302.2748,-383.9114 3280.1128,-387.3791 3220.3736,-369 3026.9675,-309.4976 2785.8219,-276.9725 2692.6414,-265.8932"/>
<polygon fill="#191970" stroke="#191970" points="2692.8784,-262.3971 2682.5385,-264.7075 2692.0623,-269.3494 2692.8784,-262.3971"/>
</g>
<!-- Node42 -->
<g id="node43" class="node">
<title>Node42</title>
<polygon fill="none" stroke="#bfbfbf" points="2539.8736,-313.5 2539.8736,-332.5 2620.8736,-332.5 2620.8736,-313.5 2539.8736,-313.5"/>
<text text-anchor="middle" x="2580.3736" y="-320.5" font-family="Helvetica,sans-Serif" font-size="10.00" fill="#000000">arrow/table.h</text>
</g>
<!-- Node0&#45;&gt;Node42 -->
<g id="edge105" class="edge">
<title>Node0&#45;&gt;Node42</title>
<path fill="none" stroke="#191970" d="M3381.2384,-537.3527C3375.9222,-505.4047 3361.9796,-452.2512 3326.3736,-425 3216.8916,-341.2075 2781.3455,-326.2495 2631.4034,-323.5798"/>
<polygon fill="#191970" stroke="#191970" points="2631.1666,-320.0755 2621.1096,-323.4081 2631.0498,-327.0745 2631.1666,-320.0755"/>
</g>
<!-- Node54 -->
<g id="node55" class="node">
<title>Node54</title>
<polygon fill="none" stroke="#bfbfbf" points="2919.8736,-369.5 2919.8736,-388.5 2960.8736,-388.5 2960.8736,-369.5 2919.8736,-369.5"/>
<text text-anchor="middle" x="2940.3736" y="-376.5" font-family="Helvetica,sans-Serif" font-size="10.00" fill="#000000">tuple</text>
</g>
<!-- Node0&#45;&gt;Node54 -->
<g id="edge115" class="edge">
<title>Node0&#45;&gt;Node54</title>
<path fill="none" stroke="#191970" d="M3370.6026,-537.3169C3349.8979,-498.1616 3312.6029,-428.532 3307.3736,-425 3279.6859,-406.2991 3054.4444,-387.6014 2971.171,-381.2623"/>
<polygon fill="#191970" stroke="#191970" points="2971.3023,-377.7624 2961.0675,-380.501 2970.7763,-384.7426 2971.3023,-377.7624"/>
</g>
<!-- Node56 -->
<g id="node57" class="node">
<title>Node56</title>
<polygon fill="none" stroke="#bfbfbf" points="2995.8736,-425.5 2995.8736,-444.5 3104.8736,-444.5 3104.8736,-425.5 2995.8736,-425.5"/>
<text text-anchor="middle" x="3050.3736" y="-432.5" font-family="Helvetica,sans-Serif" font-size="10.00" fill="#000000">arrow/type_traits.h</text>
</g>
<!-- Node0&#45;&gt;Node56 -->
<g id="edge104" class="edge">
<title>Node0&#45;&gt;Node56</title>
<path fill="none" stroke="#191970" d="M3316.7837,-537.4961C3246.4401,-510.4328 3139.0985,-469.1352 3084.6361,-448.1818"/>
<polygon fill="#191970" stroke="#191970" points="3085.6929,-444.8384 3075.103,-444.5142 3083.1793,-451.3715 3085.6929,-444.8384"/>
</g>
<!-- Node60 -->
<g id="node61" class="node">
<title>Node60</title>
<polygon fill="none" stroke="#bfbfbf" points="3123.3736,-425.5 3123.3736,-444.5 3191.3736,-444.5 3191.3736,-425.5 3123.3736,-425.5"/>
<text text-anchor="middle" x="3157.3736" y="-432.5" font-family="Helvetica,sans-Serif" font-size="10.00" fill="#000000">arrow/stl.h</text>
</g>
<!-- Node0&#45;&gt;Node60 -->
<g id="edge103" class="edge">
<title>Node0&#45;&gt;Node60</title>
<path fill="none" stroke="#191970" d="M3338.4367,-537.4961C3291.6203,-510.9943 3220.6909,-470.8427 3183.0095,-449.512"/>
<polygon fill="#191970" stroke="#191970" points="3184.6073,-446.3946 3174.1807,-444.5142 3181.1589,-452.4863 3184.6073,-446.3946"/>
</g>
<!-- Node61 -->
<g id="node62" class="node">
<title>Node61</title>
<polygon fill="none" stroke="#bfbfbf" points="3209.8736,-425.5 3209.8736,-444.5 3298.8736,-444.5 3298.8736,-425.5 3209.8736,-425.5"/>
<text text-anchor="middle" x="3254.3736" y="-432.5" font-family="Helvetica,sans-Serif" font-size="10.00" fill="#000000">arrow/builder.h</text>
</g>
<!-- Node0&#45;&gt;Node61 -->
<g id="edge106" class="edge">
<title>Node0&#45;&gt;Node61</title>
<path fill="none" stroke="#191970" d="M3352.8909,-537.2074C3340.2956,-526.3265 3325.8458,-513.3773 3313.3736,-501 3297.4735,-485.221 3280.5539,-466.0156 3268.9296,-452.4001"/>
<polygon fill="#191970" stroke="#191970" points="3271.5652,-450.0964 3262.4326,-444.7254 3266.2225,-454.6192 3271.5652,-450.0964"/>
</g>
<!-- Node62 -->
<g id="node63" class="node">
<title>Node62</title>
<g id="a_node63"><a xlink:href="../../dd/da4/Logger_8h.html" target="_top" xlink:title="Framework/Logger.h">
<polygon fill="none" stroke="#000000" points="3431.8736,-481.5 3431.8736,-500.5 3546.8736,-500.5 3546.8736,-481.5 3431.8736,-481.5"/>
<text text-anchor="middle" x="3489.3736" y="-488.5" font-family="Helvetica,sans-Serif" font-size="10.00" fill="#000000">Framework/Logger.h</text>
</a>
</g>
</g>
<!-- Node0&#45;&gt;Node62 -->
<g id="edge100" class="edge">
<title>Node0&#45;&gt;Node62</title>
<path fill="none" stroke="#191970" d="M3422.281,-537.3258C3437.363,-526.912 3454.1904,-515.2931 3467.2201,-506.2965"/>
<polygon fill="#191970" stroke="#191970" points="3469.3254,-509.0961 3475.5657,-500.534 3465.348,-503.3358 3469.3254,-509.0961"/>
</g>
<!-- Node64 -->
<g id="node65" class="node">
<title>Node64</title>
<polygon fill="none" stroke="#bfbfbf" points="3564.8736,-481.5 3564.8736,-500.5 3623.8736,-500.5 3623.8736,-481.5 3564.8736,-481.5"/>
<text text-anchor="middle" x="3594.3736" y="-488.5" font-family="Helvetica,sans-Serif" font-size="10.00" fill="#000000">Rtypes.h</text>
</g>
<!-- Node0&#45;&gt;Node64 -->
<g id="edge102" class="edge">
<title>Node0&#45;&gt;Node64</title>
<path fill="none" stroke="#191970" d="M3459.8917,-537.4283C3492.8402,-526.0532 3530.0033,-513.2231 3556.8996,-503.9374"/>
<polygon fill="#191970" stroke="#191970" points="3558.3647,-507.1344 3566.6751,-500.5626 3556.0803,-500.5176 3558.3647,-507.1344"/>
</g>
<!-- Node65 -->
<g id="node66" class="node">
<title>Node65</title>
<polygon fill="none" stroke="#bfbfbf" points="3641.8736,-481.5 3641.8736,-500.5 3726.8736,-500.5 3726.8736,-481.5 3641.8736,-481.5"/>
<text text-anchor="middle" x="3684.3736" y="-488.5" font-family="Helvetica,sans-Serif" font-size="10.00" fill="#000000">TTreeReader.h</text>
</g>
<!-- Node0&#45;&gt;Node65 -->
<g id="edge107" class="edge">
<title>Node0&#45;&gt;Node65</title>
<path fill="none" stroke="#191970" d="M3487.1968,-538.651C3537.2339,-526.5588 3595.0686,-512.582 3635.1044,-502.9067"/>
<polygon fill="#191970" stroke="#191970" points="3635.9859,-506.2945 3644.8839,-500.5433 3634.3416,-499.4904 3635.9859,-506.2945"/>
</g>
<!-- Node66 -->
<g id="node67" class="node">
<title>Node66</title>
<polygon fill="none" stroke="#bfbfbf" points="3744.8736,-481.5 3744.8736,-500.5 3857.8736,-500.5 3857.8736,-481.5 3744.8736,-481.5"/>
<text text-anchor="middle" x="3801.3736" y="-488.5" font-family="Helvetica,sans-Serif" font-size="10.00" fill="#000000">TTreeReaderValue.h</text>
</g>
<!-- Node0&#45;&gt;Node66 -->
<g id="edge108" class="edge">
<title>Node0&#45;&gt;Node66</title>
<path fill="none" stroke="#191970" d="M3486.9173,-545.6716C3564.9055,-532.1126 3669.8305,-513.8702 3736.5491,-502.2704"/>
<polygon fill="#191970" stroke="#191970" points="3737.2605,-505.6993 3746.5132,-500.5381 3736.0614,-498.8028 3737.2605,-505.6993"/>
</g>
<!-- Node67 -->
<g id="node68" class="node">
<title>Node67</title>
<polygon fill="none" stroke="#bfbfbf" points="3876.3736,-481.5 3876.3736,-500.5 3986.3736,-500.5 3986.3736,-481.5 3876.3736,-481.5"/>
<text text-anchor="middle" x="3931.3736" y="-488.5" font-family="Helvetica,sans-Serif" font-size="10.00" fill="#000000">TTreeReaderArray.h</text>
</g>
<!-- Node0&#45;&gt;Node67 -->
<g id="edge109" class="edge">
<title>Node0&#45;&gt;Node67</title>
<path fill="none" stroke="#191970" d="M3487.1817,-550.9922C3582.6471,-539.1941 3729.0188,-520.6392 3865.9666,-501.1736"/>
<polygon fill="#191970" stroke="#191970" points="3866.8234,-504.5869 3876.2294,-499.7106 3865.8355,-497.657 3866.8234,-504.5869"/>
</g>
<!-- Node68 -->
<g id="node69" class="node">
<title>Node68</title>
<polygon fill="none" stroke="#bfbfbf" points="4004.3736,-481.5 4004.3736,-500.5 4064.3736,-500.5 4064.3736,-481.5 4004.3736,-481.5"/>
<text text-anchor="middle" x="4034.3736" y="-488.5" font-family="Helvetica,sans-Serif" font-size="10.00" fill="#000000">TBuffer.h</text>
</g>
<!-- Node0&#45;&gt;Node68 -->
<g id="edge110" class="edge">
<title>Node0&#45;&gt;Node68</title>
<path fill="none" stroke="#191970" d="M3486.9131,-557.6947C3606.6227,-549.8592 3810.5658,-533.2274 3994.1266,-500.9954"/>
<polygon fill="#191970" stroke="#191970" points="3995.003,-504.3946 4004.2372,-499.2004 3993.7793,-497.5024 3995.003,-504.3946"/>
</g>
<!-- Node69 -->
<g id="node70" class="node">
<title>Node69</title>
<polygon fill="none" stroke="#bfbfbf" points="4082.8736,-481.5 4082.8736,-500.5 4159.8736,-500.5 4159.8736,-481.5 4082.8736,-481.5"/>
<text text-anchor="middle" x="4121.3736" y="-488.5" font-family="Helvetica,sans-Serif" font-size="10.00" fill="#000000">TBufferFile.h</text>
</g>
<!-- Node0&#45;&gt;Node69 -->
<g id="edge111" class="edge">
<title>Node0&#45;&gt;Node69</title>
<path fill="none" stroke="#191970" d="M3486.9549,-557.8872C3619.8402,-549.7864 3858.7577,-532.4016 4072.5104,-500.9691"/>
<polygon fill="#191970" stroke="#191970" points="4073.2916,-504.3916 4082.6695,-499.4617 4072.2641,-497.4674 4073.2916,-504.3916"/>
</g>
<!-- Node2 -->
<g id="node3" class="node">
<title>Node2</title>
<g id="a_node3"><a xlink:href="../../de/d33/ASoA_8h.html" target="_top" xlink:title="Framework/ASoA.h">
<polygon fill="none" stroke="#000000" points="1823.3736,-425.5 1823.3736,-444.5 1931.3736,-444.5 1931.3736,-425.5 1823.3736,-425.5"/>
<text text-anchor="middle" x="1877.3736" y="-432.5" font-family="Helvetica,sans-Serif" font-size="10.00" fill="#000000">Framework/ASoA.h</text>
</a>
</g>
</g>
<!-- Node1&#45;&gt;Node2 -->
<g id="edge2" class="edge">
<title>Node1&#45;&gt;Node2</title>
<path fill="none" stroke="#191970" d="M2578.1294,-485.832C2428.8243,-475.0016 2085.1162,-450.0694 1941.8765,-439.679"/>
<polygon fill="#191970" stroke="#191970" points="1941.7326,-436.1594 1931.5056,-438.9267 1941.2261,-443.1411 1941.7326,-436.1594"/>
</g>
<!-- Node8 -->
<g id="node9" class="node">
<title>Node8</title>
<g id="a_node9"><a xlink:href="../../de/d9b/FunctionalHelpers_8h.html" target="_top" xlink:title="Framework/FunctionalHelpers.h">
<polygon fill="none" stroke="#000000" points="196.3736,-369.5 196.3736,-388.5 366.3736,-388.5 366.3736,-369.5 196.3736,-369.5"/>
<text text-anchor="middle" x="281.3736" y="-376.5" font-family="Helvetica,sans-Serif" font-size="10.00" fill="#000000">Framework/FunctionalHelpers.h</text>
</a>
</g>
</g>
<!-- Node1&#45;&gt;Node8 -->
<g id="edge83" class="edge">
<title>Node1&#45;&gt;Node8</title>
<path fill="none" stroke="#191970" d="M2578.1818,-487.6328C2236.6967,-471.4815 767.0184,-401.9697 376.8035,-383.5136"/>
<polygon fill="#191970" stroke="#191970" points="376.8338,-380.0112 366.6796,-383.0347 376.503,-387.0034 376.8338,-380.0112"/>
</g>
<!-- Node9 -->
<g id="node10" class="node">
<title>Node9</title>
<polygon fill="none" stroke="#bfbfbf" points="112.8736,-313.5 112.8736,-332.5 177.8736,-332.5 177.8736,-313.5 112.8736,-313.5"/>
<text text-anchor="middle" x="145.3736" y="-320.5" font-family="Helvetica,sans-Serif" font-size="10.00" fill="#000000">functional</text>
</g>
<!-- Node1&#45;&gt;Node9 -->
<g id="edge94" class="edge">
<title>Node1&#45;&gt;Node9</title>
<path fill="none" stroke="#191970" d="M2578.1396,-489.9154C2184.9136,-483.6944 293.3768,-450.6439 187.3736,-389 169.8211,-378.7927 158.4458,-357.9988 152.019,-342.4641"/>
<polygon fill="#191970" stroke="#191970" points="155.1547,-340.8609 148.3451,-332.7443 148.6069,-343.3359 155.1547,-340.8609"/>
</g>
<!-- Node12 -->
<g id="node13" class="node">
<title>Node12</title>
<polygon fill="none" stroke="#bfbfbf" points="2773.8736,-.5 2773.8736,-19.5 2842.8736,-19.5 2842.8736,-.5 2773.8736,-.5"/>
<text text-anchor="middle" x="2808.3736" y="-7.5" font-family="Helvetica,sans-Serif" font-size="10.00" fill="#000000">type_traits</text>
</g>
<!-- Node1&#45;&gt;Node12 -->
<g id="edge99" class="edge">
<title>Node1&#45;&gt;Node12</title>
<path fill="none" stroke="#191970" d="M2720.4641,-485.9491C2792.5679,-479.6933 2898.2555,-467.0631 2932.3736,-445 2982.6294,-412.5011 2989.3736,-382.8484 2989.3736,-323 2989.3736,-323 2989.3736,-323 2989.3736,-127.5 2989.3736,-62.7394 2906.8488,-31.8629 2853.2459,-18.6381"/>
<polygon fill="#191970" stroke="#191970" points="2853.8075,-15.1749 2843.2722,-16.2967 2852.2076,-21.9896 2853.8075,-15.1749"/>
</g>
<!-- Node1&#45;&gt;Node16 -->
<g id="edge96" class="edge">
<title>Node1&#45;&gt;Node16</title>
<path fill="none" stroke="#191970" d="M2578.2341,-490.7132C2253.0193,-489.2137 905.6544,-480.9113 485.3736,-445 288.7861,-428.2024 46.3736,-576.3038 46.3736,-379 46.3736,-379 46.3736,-379 46.3736,-127.5 46.3736,-40.6919 731.6028,-15.5073 889.2875,-10.861"/>
<polygon fill="#191970" stroke="#191970" points="889.4114,-14.359 899.3066,-10.5728 889.2101,-7.3619 889.4114,-14.359"/>
</g>
<!-- Node18 -->
<g id="node19" class="node">
<title>Node18</title>
<g id="a_node19"><a xlink:href="../../d1/d76/RuntimeError_8h.html" target="_top" xlink:title="Framework/RuntimeError.h">
<polygon fill="none" stroke="#000000" points="2324.3736,-.5 2324.3736,-19.5 2470.3736,-19.5 2470.3736,-.5 2324.3736,-.5"/>
<text text-anchor="middle" x="2397.3736" y="-7.5" font-family="Helvetica,sans-Serif" font-size="10.00" fill="#000000">Framework/RuntimeError.h</text>
</a>
</g>
</g>
<!-- Node1&#45;&gt;Node18 -->
<g id="edge86" class="edge">
<title>Node1&#45;&gt;Node18</title>
<path fill="none" stroke="#191970" d="M2661.9234,-481.4082C2683.5096,-463.7155 2725.3736,-423.6472 2725.3736,-379 2725.3736,-379 2725.3736,-379 2725.3736,-127.5 2725.3736,-73.8261 2567.7427,-38.1016 2471.0331,-21.2348"/>
<polygon fill="#191970" stroke="#191970" points="2471.4519,-17.7556 2461.0042,-19.5149 2470.2687,-24.6549 2471.4519,-17.7556"/>
</g>
<!-- Node1&#45;&gt;Node25 -->
<g id="edge95" class="edge">
<title>Node1&#45;&gt;Node25</title>
<path fill="none" stroke="#191970" d="M2578.1862,-486.2761C2483.9801,-479.2879 2327.7118,-464.8499 2310.3736,-445 2304.526,-438.3054 2304.5011,-431.6728 2310.3736,-425 2351.9649,-377.7404 2537.7363,-421.9598 2591.3736,-389 2617,-373.2527 2620.5395,-361.7515 2629.3736,-333 2631.9843,-324.5031 2633.23,-321.0088 2629.3736,-313 2567.2196,-183.9212 2509.7716,-166.7284 2377.3736,-112 2243.476,-56.6518 2196.4559,-98.7916 2053.3736,-76 1949.3719,-59.4335 1827.8246,-31.7689 1770.1069,-18.1211"/>
<polygon fill="#191970" stroke="#191970" points="1770.6294,-14.6479 1760.0912,-15.7417 1769.0114,-21.4583 1770.6294,-14.6479"/>
</g>
<!-- Node1&#45;&gt;Node33 -->
<g id="edge97" class="edge">
<title>Node1&#45;&gt;Node33</title>
<path fill="none" stroke="#191970" d="M2651.3167,-481.3422C2656.4464,-454.5753 2669.547,-377.1801 2663.3736,-313 2662.3582,-302.4436 2660.1977,-290.836 2658.1439,-281.3173"/>
<polygon fill="#191970" stroke="#191970" points="2661.4931,-280.2621 2655.8568,-271.2909 2654.6684,-281.8189 2661.4931,-280.2621"/>
</g>
<!-- Node1&#45;&gt;Node42 -->
<g id="edge92" class="edge">
<title>Node1&#45;&gt;Node42</title>
<path fill="none" stroke="#191970" d="M2647.1788,-481.4288C2644.073,-468.4331 2637.9239,-444.5804 2630.3736,-425 2618.7799,-394.934 2601.617,-361.6955 2590.7171,-341.5825"/>
<polygon fill="#191970" stroke="#191970" points="2593.6632,-339.6757 2585.7858,-332.5907 2587.5256,-343.0417 2593.6632,-339.6757"/>
</g>
<!-- Node53 -->
<g id="node54" class="node">
<title>Node53</title>
<g id="a_node54"><a xlink:href="../../db/d4f/StructToTuple_8h.html" target="_top" xlink:title="Framework/StructToTuple.h">
<polygon fill="none" stroke="#000000" points="2753.8736,-425.5 2753.8736,-444.5 2900.8736,-444.5 2900.8736,-425.5 2753.8736,-425.5"/>
<text text-anchor="middle" x="2827.3736" y="-432.5" font-family="Helvetica,sans-Serif" font-size="10.00" fill="#000000">Framework/StructToTuple.h</text>
</a>
</g>
</g>
<!-- Node1&#45;&gt;Node53 -->
<g id="edge79" class="edge">
<title>Node1&#45;&gt;Node53</title>
<path fill="none" stroke="#191970" d="M2679.9729,-481.3733C2709.6997,-472.021 2754.9895,-457.7725 2787.5192,-447.5385"/>
<polygon fill="#191970" stroke="#191970" points="2788.6849,-450.8409 2797.1736,-444.5011 2786.5841,-444.1636 2788.6849,-450.8409"/>
</g>
<!-- Node1&#45;&gt;Node54 -->
<g id="edge98" class="edge">
<title>Node1&#45;&gt;Node54</title>
<path fill="none" stroke="#191970" d="M2720.6072,-485.7337C2787.1483,-479.5327 2880.4372,-467.1531 2909.3736,-445 2924.0948,-433.7298 2932.1181,-413.7542 2936.2891,-398.7221"/>
<polygon fill="#191970" stroke="#191970" points="2939.7289,-399.3886 2938.6861,-388.8453 2932.9263,-397.7377 2939.7289,-399.3886"/>
</g>
<!-- Node55 -->
<g id="node56" class="node">
<title>Node55</title>
<g id="a_node56"><a xlink:href="../../d7/dbe/VariantHelpers_8h.html" target="_top" xlink:title="Framework/VariantHelpers.h">
<polygon fill="none" stroke="#000000" points="2427.8736,-369.5 2427.8736,-388.5 2582.8736,-388.5 2582.8736,-369.5 2427.8736,-369.5"/>
<text text-anchor="middle" x="2505.3736" y="-376.5" font-family="Helvetica,sans-Serif" font-size="10.00" fill="#000000">Framework/VariantHelpers.h</text>
</a>
</g>
</g>
<!-- Node1&#45;&gt;Node55 -->
<g id="edge84" class="edge">
<title>Node1&#45;&gt;Node55</title>
<path fill="none" stroke="#191970" d="M2578.1648,-487.2011C2475.745,-480.9989 2296.9298,-467.1235 2277.3736,-445 2271.4865,-438.3401 2271.7439,-431.8789 2277.3736,-425 2286.9883,-413.2517 2363.9804,-399.4331 2425.8752,-390.0302"/>
<polygon fill="#191970" stroke="#191970" points="2426.6879,-393.4475 2436.0576,-388.502 2425.6489,-386.525 2426.6879,-393.4475"/>
</g>
<!-- Node1&#45;&gt;Node56 -->
<g id="edge87" class="edge">
<title>Node1&#45;&gt;Node56</title>
<path fill="none" stroke="#191970" d="M2719.0217,-481.4788C2786.2112,-472.2632 2890.7761,-457.8412 2981.3736,-445 2982.8342,-444.793 2984.3121,-444.583 2985.8024,-444.3708"/>
<polygon fill="#191970" stroke="#191970" points="2986.3609,-447.8266 2995.7649,-442.9464 2985.3701,-440.8971 2986.3609,-447.8266"/>
</g>
<!-- Node57 -->
<g id="node58" class="node">
<title>Node57</title>
<polygon fill="none" stroke="#bfbfbf" points="2319.3736,-425.5 2319.3736,-444.5 2375.3736,-444.5 2375.3736,-425.5 2319.3736,-425.5"/>
<text text-anchor="middle" x="2347.3736" y="-432.5" font-family="Helvetica,sans-Serif" font-size="10.00" fill="#000000">sstream</text>
</g>
<!-- Node1&#45;&gt;Node57 -->
<g id="edge88" class="edge">
<title>Node1&#45;&gt;Node57</title>
<path fill="none" stroke="#191970" d="M2584.7901,-481.4928C2533.2446,-473.5153 2459.0148,-461.1603 2385.4866,-445.0988"/>
<polygon fill="#191970" stroke="#191970" points="2386.1086,-441.6519 2375.5891,-442.913 2384.5991,-448.4872 2386.1086,-441.6519"/>
</g>
<!-- Node58 -->
<g id="node59" class="node">
<title>Node58</title>
<polygon fill="none" stroke="#bfbfbf" points="2393.3736,-425.5 2393.3736,-444.5 2479.3736,-444.5 2479.3736,-425.5 2393.3736,-425.5"/>
<text text-anchor="middle" x="2436.3736" y="-432.5" font-family="Helvetica,sans-Serif" font-size="10.00" fill="#000000">arrow/status.h</text>
</g>
<!-- Node1&#45;&gt;Node58 -->
<g id="edge89" class="edge">
<title>Node1&#45;&gt;Node58</title>
<path fill="none" stroke="#191970" d="M2612.7576,-481.3733C2576.7256,-471.9001 2521.5858,-457.4032 2482.5622,-447.1435"/>
<polygon fill="#191970" stroke="#191970" points="2483.0731,-443.6589 2472.5118,-444.5011 2481.2931,-450.4289 2483.0731,-443.6589"/>
</g>
<!-- Node59 -->
<g id="node60" class="node">
<title>Node59</title>
<polygon fill="none" stroke="#bfbfbf" points="2497.3736,-425.5 2497.3736,-444.5 2621.3736,-444.5 2621.3736,-425.5 2497.3736,-425.5"/>
<text text-anchor="middle" x="2559.3736" y="-432.5" font-family="Helvetica,sans-Serif" font-size="10.00" fill="#000000">arrow/memory_pool.h</text>
</g>
<!-- Node1&#45;&gt;Node59 -->
<g id="edge90" class="edge">
<title>Node1&#45;&gt;Node59</title>
<path fill="none" stroke="#191970" d="M2633.6968,-481.2455C2619.888,-472.6534 2599.5543,-460.0014 2583.6443,-450.1018"/>
<polygon fill="#191970" stroke="#191970" points="2585.2104,-446.954 2574.8707,-444.6427 2581.5122,-452.8974 2585.2104,-446.954"/>
</g>
<!-- Node1&#45;&gt;Node60 -->
<g id="edge91" class="edge">
<title>Node1&#45;&gt;Node60</title>
<path fill="none" stroke="#191970" d="M2720.479,-486.7152C2811.8405,-480.5777 2975.1437,-467.47 3113.3736,-445 3113.4751,-444.9835 3113.5767,-444.9669 3113.6784,-444.9502"/>
<polygon fill="#191970" stroke="#191970" points="3114.143,-448.4235 3123.346,-443.1741 3112.8781,-441.5388 3114.143,-448.4235"/>
</g>
<!-- Node1&#45;&gt;Node61 -->
<g id="edge93" class="edge">
<title>Node1&#45;&gt;Node61</title>
<path fill="none" stroke="#191970" d="M2720.5073,-487.3367C2823.7687,-481.514 3021.3744,-468.4748 3199.5554,-444.9832"/>
<polygon fill="#191970" stroke="#191970" points="3200.1895,-448.4298 3209.6396,-443.6396 3199.2649,-441.4911 3200.1895,-448.4298"/>
</g>
<!-- Node3 -->
<g id="node4" class="node">
<title>Node3</title>
<g id="a_node4"><a xlink:href="../../dd/dce/Pack_8h.html" target="_top" xlink:title="Framework/Pack.h">
<polygon fill="none" stroke="#000000" points="195.8736,-313.5 195.8736,-332.5 300.8736,-332.5 300.8736,-313.5 195.8736,-313.5"/>
<text text-anchor="middle" x="248.3736" y="-320.5" font-family="Helvetica,sans-Serif" font-size="10.00" fill="#000000">Framework/Pack.h</text>
</a>
</g>
</g>
<!-- Node2&#45;&gt;Node3 -->
<g id="edge3" class="edge">
<title>Node2&#45;&gt;Node3</title>
<path fill="none" stroke="#191970" d="M1823.2004,-433.0301C1680.2578,-427.6774 1281.094,-411.7262 949.3736,-389 667.8483,-369.7127 594.3939,-368.5896 311.0773,-333.1453"/>
<polygon fill="#191970" stroke="#191970" points="311.2675,-329.6418 300.9096,-331.8699 310.3962,-336.5874 311.2675,-329.6418"/>
</g>
<!-- Node7 -->
<g id="node8" class="node">
<title>Node7</title>
<g id="a_node8"><a xlink:href="../../d1/d00/CheckTypes_8h.html" target="_top" xlink:title="Framework/CheckTypes.h">
<polygon fill="none" stroke="#000000" points="603.3736,-313.5 603.3736,-332.5 743.3736,-332.5 743.3736,-313.5 603.3736,-313.5"/>
<text text-anchor="middle" x="673.3736" y="-320.5" font-family="Helvetica,sans-Serif" font-size="10.00" fill="#000000">Framework/CheckTypes.h</text>
</a>
</g>
</g>
<!-- Node2&#45;&gt;Node7 -->
<g id="edge7" class="edge">
<title>Node2&#45;&gt;Node7</title>
<path fill="none" stroke="#191970" d="M1823.3548,-432.0765C1726.2055,-426.4419 1515.6911,-412.513 1339.3736,-389 1290.1192,-382.4316 1278.6575,-375.3425 1229.3736,-369 1020.7073,-342.1463 966.7654,-353.4398 757.3736,-333 756.0992,-332.8756 754.8141,-332.7481 753.5207,-332.6178"/>
<polygon fill="#191970" stroke="#191970" points="753.7849,-329.1264 743.4759,-331.5706 753.059,-336.0887 753.7849,-329.1264"/>
</g>
<!-- Node2&#45;&gt;Node8 -->
<g id="edge8" class="edge">
<title>Node2&#45;&gt;Node8</title>
<path fill="none" stroke="#191970" d="M1823.3573,-433.1047C1591.2206,-424.9595 676.5821,-392.867 376.9642,-382.3541"/>
<polygon fill="#191970" stroke="#191970" points="376.684,-378.8422 366.5674,-381.9893 376.4385,-385.8379 376.684,-378.8422"/>
</g>
<!-- Node10 -->
<g id="node11" class="node">
<title>Node10</title>
<g id="a_node11"><a xlink:href="../../d9/de8/CompilerBuiltins_8h.html" target="_top" xlink:title="Framework/CompilerBuiltins.h">
<polygon fill="none" stroke="#000000" points="2281.3736,-313.5 2281.3736,-332.5 2445.3736,-332.5 2445.3736,-313.5 2281.3736,-313.5"/>
<text text-anchor="middle" x="2363.3736" y="-320.5" font-family="Helvetica,sans-Serif" font-size="10.00" fill="#000000">Framework/CompilerBuiltins.h</text>
</a>
</g>
</g>
<!-- Node2&#45;&gt;Node10 -->
<g id="edge11" class="edge">
<title>Node2&#45;&gt;Node10</title>
<path fill="none" stroke="#191970" d="M1931.4448,-425.9402C1980.6518,-417.4069 2055.1885,-403.7583 2119.3736,-389 2190.8437,-372.5666 2272.9801,-349.4636 2321.4016,-335.4014"/>
<polygon fill="#191970" stroke="#191970" points="2322.5854,-338.7021 2331.2065,-332.5436 2320.6266,-331.9817 2322.5854,-338.7021"/>
</g>
<!-- Node11 -->
<g id="node12" class="node">
<title>Node11</title>
<g id="a_node12"><a xlink:href="../../db/d31/Traits_8h.html" target="_top" xlink:title="Framework/Traits.h">
<polygon fill="none" stroke="#000000" points="2753.8736,-369.5 2753.8736,-388.5 2862.8736,-388.5 2862.8736,-369.5 2753.8736,-369.5"/>
<text text-anchor="middle" x="2808.3736" y="-376.5" font-family="Helvetica,sans-Serif" font-size="10.00" fill="#000000">Framework/Traits.h</text>
</a>
</g>
</g>
<!-- Node2&#45;&gt;Node11 -->
<g id="edge12" class="edge">
<title>Node2&#45;&gt;Node11</title>
<path fill="none" stroke="#191970" d="M1931.4522,-431.7472C2092.6902,-422.0486 2569.689,-393.357 2743.8135,-382.8833"/>
<polygon fill="#191970" stroke="#191970" points="2744.0821,-386.3736 2753.8539,-382.2794 2743.6618,-379.3862 2744.0821,-386.3736"/>
</g>
<!-- Node13 -->
<g id="node14" class="node">
<title>Node13</title>
<g id="a_node14"><a xlink:href="../../d0/d91/Expressions_8h.html" target="_top" xlink:title="Framework/Expressions.h">
<polygon fill="none" stroke="#000000" points="1348.8736,-369.5 1348.8736,-388.5 1489.8736,-388.5 1489.8736,-369.5 1348.8736,-369.5"/>
<text text-anchor="middle" x="1419.3736" y="-376.5" font-family="Helvetica,sans-Serif" font-size="10.00" fill="#000000">Framework/Expressions.h</text>
</a>
</g>
</g>
<!-- Node2&#45;&gt;Node13 -->
<g id="edge14" class="edge">
<title>Node2&#45;&gt;Node13</title>
<path fill="none" stroke="#191970" d="M1823.0364,-428.3562C1743.0998,-418.5822 1593.2562,-400.2608 1500.3318,-388.8988"/>
<polygon fill="#191970" stroke="#191970" points="1500.4789,-385.3908 1490.128,-387.6512 1499.6292,-392.3391 1500.4789,-385.3908"/>
</g>
<!-- Node2&#45;&gt;Node18 -->
<g id="edge71" class="edge">
<title>Node2&#45;&gt;Node18</title>
<path fill="none" stroke="#191970" d="M1931.4836,-430.9452C2006.1675,-424.7984 2144.8315,-411.4028 2261.3736,-389 2308.8026,-379.8827 2433.2388,-362.6375 2471.3736,-333 2500.1243,-310.6556 2511.3736,-297.9126 2511.3736,-261.5 2511.3736,-261.5 2511.3736,-261.5 2511.3736,-194.5 2511.3736,-123.3427 2449.2471,-56.6981 2416.7202,-26.682"/>
<polygon fill="#191970" stroke="#191970" points="2418.9173,-23.9506 2409.1442,-19.8595 2414.233,-29.1523 2418.9173,-23.9506"/>
</g>
<!-- Node34 -->
<g id="node35" class="node">
<title>Node34</title>
<polygon fill="none" stroke="#bfbfbf" points="1853.3736,-252 1853.3736,-271 1905.3736,-271 1905.3736,-252 1853.3736,-252"/>
<text text-anchor="middle" x="1879.3736" y="-259" font-family="Helvetica,sans-Serif" font-size="10.00" fill="#000000">cassert</text>
</g>
<!-- Node2&#45;&gt;Node34 -->
<g id="edge77" class="edge">
<title>Node2&#45;&gt;Node34</title>
<path fill="none" stroke="#191970" d="M1931.6247,-427.3463C2072.0494,-407.2799 2437.6954,-353.3019 2454.3736,-333 2460.016,-326.1316 2460.3721,-319.5598 2454.3736,-313 2417.9766,-273.1975 2036.2615,-263.919 1915.6712,-261.9737"/>
<polygon fill="#191970" stroke="#191970" points="1915.5355,-258.4713 1905.4828,-261.817 1915.4278,-265.4705 1915.5355,-258.4713"/>
</g>
<!-- Node2&#45;&gt;Node42 -->
<g id="edge72" class="edge">
<title>Node2&#45;&gt;Node42</title>
<path fill="none" stroke="#191970" d="M1931.3792,-432.3488C2042.4106,-426.5167 2292.8066,-411.2947 2375.3736,-389 2395.722,-383.5055 2398.6181,-376.3462 2418.3736,-369 2455.0938,-355.3454 2497.7577,-343.3822 2530.0824,-335.0809"/>
<polygon fill="#191970" stroke="#191970" points="2531.3607,-338.3676 2540.1936,-332.5168 2529.64,-331.5823 2531.3607,-338.3676"/>
</g>
<!-- Node43 -->
<g id="node44" class="node">
<title>Node43</title>
<polygon fill="none" stroke="#bfbfbf" points="437.8736,-313.5 437.8736,-332.5 584.8736,-332.5 584.8736,-313.5 437.8736,-313.5"/>
<text text-anchor="middle" x="511.3736" y="-320.5" font-family="Helvetica,sans-Serif" font-size="10.00" fill="#000000">gandiva/selection_vector.h</text>
</g>
<!-- Node2&#45;&gt;Node43 -->
<g id="edge76" class="edge">
<title>Node2&#45;&gt;Node43</title>
<path fill="none" stroke="#191970" d="M1823.029,-432.8026C1711.4707,-427.9262 1448.662,-414.5588 1229.3736,-389 1174.3613,-382.5881 1161.3879,-375.3934 1106.3736,-369 883.1004,-343.0528 823.2059,-354.3072 595.3919,-333.0478"/>
<polygon fill="#191970" stroke="#191970" points="595.404,-329.5335 585.1193,-332.0779 594.746,-336.5025 595.404,-329.5335"/>
</g>
<!-- Node48 -->
<g id="node49" class="node">
<title>Node48</title>
<g id="a_node49"><a xlink:href="../../d4/de7/ArrowTypes_8h.html" target="_top" xlink:title="Framework/ArrowTypes.h">
<polygon fill="none" stroke="#000000" points="958.8736,-369.5 958.8736,-388.5 1097.8736,-388.5 1097.8736,-369.5 958.8736,-369.5"/>
<text text-anchor="middle" x="1028.3736" y="-376.5" font-family="Helvetica,sans-Serif" font-size="10.00" fill="#000000">Framework/ArrowTypes.h</text>
</a>
</g>
</g>
<!-- Node2&#45;&gt;Node48 -->
<g id="edge69" class="edge">
<title>Node2&#45;&gt;Node48</title>
<path fill="none" stroke="#191970" d="M1823.2974,-431.4331C1678.1552,-421.8596 1279.4605,-395.5617 1108.2282,-384.2672"/>
<polygon fill="#191970" stroke="#191970" points="1108.2317,-380.7599 1098.023,-383.5941 1107.7709,-387.7447 1108.2317,-380.7599"/>
</g>
<!-- Node49 -->
<g id="node50" class="node">
<title>Node49</title>
<polygon fill="none" stroke="#bfbfbf" points="1654.3736,-369.5 1654.3736,-388.5 1734.3736,-388.5 1734.3736,-369.5 1654.3736,-369.5"/>
<text text-anchor="middle" x="1694.3736" y="-376.5" font-family="Helvetica,sans-Serif" font-size="10.00" fill="#000000">arrow/array.h</text>
</g>
<!-- Node2&#45;&gt;Node49 -->
<g id="edge73" class="edge">
<title>Node2&#45;&gt;Node49</title>
<path fill="none" stroke="#191970" d="M1845.9147,-425.3733C1815.3529,-416.021 1768.7909,-401.7725 1735.3475,-391.5385"/>
<polygon fill="#191970" stroke="#191970" points="1736.0084,-388.0806 1725.4219,-388.5011 1733.96,-394.7742 1736.0084,-388.0806"/>
</g>
<!-- Node50 -->
<g id="node51" class="node">
<title>Node50</title>
<polygon fill="none" stroke="#bfbfbf" points="1752.3736,-369.5 1752.3736,-388.5 1862.3736,-388.5 1862.3736,-369.5 1752.3736,-369.5"/>
<text text-anchor="middle" x="1807.3736" y="-376.5" font-family="Helvetica,sans-Serif" font-size="10.00" fill="#000000">arrow/util/variant.h</text>
</g>
<!-- Node2&#45;&gt;Node50 -->
<g id="edge74" class="edge">
<title>Node2&#45;&gt;Node50</title>
<path fill="none" stroke="#191970" d="M1865.1805,-425.2455C1854.7415,-416.8943 1839.5081,-404.7076 1827.2996,-394.9408"/>
<polygon fill="#191970" stroke="#191970" points="1829.4221,-392.1566 1819.4269,-388.6427 1825.0492,-397.6227 1829.4221,-392.1566"/>
</g>
<!-- Node51 -->
<g id="node52" class="node">
<title>Node51</title>
<polygon fill="none" stroke="#bfbfbf" points="1880.8736,-369.5 1880.8736,-388.5 2013.8736,-388.5 2013.8736,-369.5 1880.8736,-369.5"/>
<text text-anchor="middle" x="1947.3736" y="-376.5" font-family="Helvetica,sans-Serif" font-size="10.00" fill="#000000">arrow/compute/kernel.h</text>
</g>
<!-- Node2&#45;&gt;Node51 -->
<g id="edge75" class="edge">
<title>Node2&#45;&gt;Node51</title>
<path fill="none" stroke="#191970" d="M1889.5666,-425.2455C1900.0057,-416.8943 1915.239,-404.7076 1927.4475,-394.9408"/>
<polygon fill="#191970" stroke="#191970" points="1929.698,-397.6227 1935.3202,-388.6427 1925.3251,-392.1566 1929.698,-397.6227"/>
</g>
<!-- Node52 -->
<g id="node53" class="node">
<title>Node52</title>
<polygon fill="none" stroke="#bfbfbf" points="2031.8736,-369.5 2031.8736,-388.5 2110.8736,-388.5 2110.8736,-369.5 2031.8736,-369.5"/>
<text text-anchor="middle" x="2071.3736" y="-376.5" font-family="Helvetica,sans-Serif" font-size="10.00" fill="#000000">fmt/format.h</text>
</g>
<!-- Node2&#45;&gt;Node52 -->
<g id="edge78" class="edge">
<title>Node2&#45;&gt;Node52</title>
<path fill="none" stroke="#191970" d="M1910.7234,-425.3733C1943.4016,-415.9404 1993.3354,-401.5265 2028.8505,-391.2747"/>
<polygon fill="#191970" stroke="#191970" points="2029.8219,-394.6373 2038.459,-388.5011 2027.8805,-387.9119 2029.8219,-394.6373"/>
</g>
<!-- Node4 -->
<g id="node5" class="node">
<title>Node4</title>
<polygon fill="none" stroke="#bfbfbf" points="221.8736,-252 221.8736,-271 274.8736,-271 274.8736,-252 221.8736,-252"/>
<text text-anchor="middle" x="248.3736" y="-259" font-family="Helvetica,sans-Serif" font-size="10.00" fill="#000000">cstddef</text>
</g>
<!-- Node3&#45;&gt;Node4 -->
<g id="edge4" class="edge">
<title>Node3&#45;&gt;Node4</title>
<path fill="none" stroke="#191970" d="M248.3736,-313.3906C248.3736,-304.8657 248.3736,-292.1392 248.3736,-281.4235"/>
<polygon fill="#191970" stroke="#191970" points="251.8737,-281.2448 248.3736,-271.2449 244.8737,-281.2449 251.8737,-281.2448"/>
</g>
<!-- Node5 -->
<g id="node6" class="node">
<title>Node5</title>
<polygon fill="none" stroke="#bfbfbf" points="292.8736,-252 292.8736,-271 337.8736,-271 337.8736,-252 292.8736,-252"/>
<text text-anchor="middle" x="315.3736" y="-259" font-family="Helvetica,sans-Serif" font-size="10.00" fill="#000000">utility</text>
</g>
<!-- Node3&#45;&gt;Node5 -->
<g id="edge5" class="edge">
<title>Node3&#45;&gt;Node5</title>
<path fill="none" stroke="#191970" d="M258.8423,-313.3906C269.1072,-303.9683 284.9639,-289.4134 297.2741,-278.1137"/>
<polygon fill="#191970" stroke="#191970" points="299.757,-280.5856 304.7572,-271.2449 295.0234,-275.4287 299.757,-280.5856"/>
</g>
<!-- Node6 -->
<g id="node7" class="node">
<title>Node6</title>
<polygon fill="none" stroke="#bfbfbf" points="157.3736,-252 157.3736,-271 203.3736,-271 203.3736,-252 157.3736,-252"/>
<text text-anchor="middle" x="180.3736" y="-259" font-family="Helvetica,sans-Serif" font-size="10.00" fill="#000000">cstdio</text>
</g>
<!-- Node3&#45;&gt;Node6 -->
<g id="edge6" class="edge">
<title>Node3&#45;&gt;Node6</title>
<path fill="none" stroke="#191970" d="M237.7486,-313.3906C227.3304,-303.9683 211.2372,-289.4134 198.7431,-278.1137"/>
<polygon fill="#191970" stroke="#191970" points="200.9128,-275.3568 191.1484,-271.2449 196.2173,-280.5484 200.9128,-275.3568"/>
</g>
<!-- Node8&#45;&gt;Node3 -->
<g id="edge9" class="edge">
<title>Node8&#45;&gt;Node3</title>
<path fill="none" stroke="#191970" d="M275.6254,-369.2455C271.13,-361.617 264.7487,-350.7881 259.2911,-341.5267"/>
<polygon fill="#191970" stroke="#191970" points="262.1482,-339.4811 254.0559,-332.6427 256.1174,-343.035 262.1482,-339.4811"/>
</g>
<!-- Node8&#45;&gt;Node9 -->
<g id="edge10" class="edge">
<title>Node8&#45;&gt;Node9</title>
<path fill="none" stroke="#191970" d="M257.9943,-369.3733C235.8691,-360.2629 202.4602,-346.5062 177.7717,-336.3404"/>
<polygon fill="#191970" stroke="#191970" points="179.0272,-333.0723 168.4477,-332.5011 176.3619,-339.5451 179.0272,-333.0723"/>
</g>
<!-- Node11&#45;&gt;Node12 -->
<g id="edge13" class="edge">
<title>Node11&#45;&gt;Node12</title>
<path fill="none" stroke="#191970" d="M2808.3736,-369.2511C2808.3736,-349.1182 2808.3736,-301.4826 2808.3736,-261.5 2808.3736,-261.5 2808.3736,-261.5 2808.3736,-127.5 2808.3736,-93.1399 2808.3736,-53.128 2808.3736,-29.7764"/>
<polygon fill="#191970" stroke="#191970" points="2811.8737,-29.7489 2808.3736,-19.7489 2804.8737,-29.749 2811.8737,-29.7489"/>
</g>
<!-- Node13&#45;&gt;Node3 -->
<g id="edge17" class="edge">
<title>Node13&#45;&gt;Node3</title>
<path fill="none" stroke="#191970" d="M1348.6352,-376.5676C1126.3855,-368.8578 449.1591,-344.8279 310.9177,-332.9606"/>
<polygon fill="#191970" stroke="#191970" points="311.1744,-329.4695 300.8921,-332.0238 310.5231,-336.4391 311.1744,-329.4695"/>
</g>
<!-- Node13&#45;&gt;Node7 -->
<g id="edge18" class="edge">
<title>Node13&#45;&gt;Node7</title>
<path fill="none" stroke="#191970" d="M1348.6043,-372.1001C1336.5215,-371.0039 1324.0911,-369.9274 1312.3736,-369 1065.9591,-349.4974 1003.5216,-355.6184 757.3736,-333 756.0985,-332.8828 754.8128,-332.762 753.5188,-332.638"/>
<polygon fill="#191970" stroke="#191970" points="753.7696,-329.1457 743.4702,-331.6302 753.071,-336.1108 753.7696,-329.1457"/>
</g>
<!-- Node13&#45;&gt;Node10 -->
<g id="edge16" class="edge">
<title>Node13&#45;&gt;Node10</title>
<path fill="none" stroke="#191970" d="M1489.9539,-375.624C1665.224,-367.1674 2116.9958,-344.9035 2267.3736,-333 2268.6421,-332.8996 2269.9198,-332.7963 2271.2051,-332.6905"/>
<polygon fill="#191970" stroke="#191970" points="2271.5157,-336.1768 2281.179,-331.8327 2270.9159,-329.2025 2271.5157,-336.1768"/>
</g>
<!-- Node14 -->
<g id="node15" class="node">
<title>Node14</title>
<g id="a_node15"><a xlink:href="../../dd/dc2/BasicOps_8h.html" target="_top" xlink:title="Framework/BasicOps.h">
<polygon fill="none" stroke="#000000" points="1463.3736,-313.5 1463.3736,-332.5 1591.3736,-332.5 1591.3736,-313.5 1463.3736,-313.5"/>
<text text-anchor="middle" x="1527.3736" y="-320.5" font-family="Helvetica,sans-Serif" font-size="10.00" fill="#000000">Framework/BasicOps.h</text>
</a>
</g>
</g>
<!-- Node13&#45;&gt;Node14 -->
<g id="edge15" class="edge">
<title>Node13&#45;&gt;Node14</title>
<path fill="none" stroke="#191970" d="M1438.1857,-369.2455C1455.2209,-360.4125 1480.5311,-347.2887 1499.8417,-337.2758"/>
<polygon fill="#191970" stroke="#191970" points="1501.5106,-340.353 1508.777,-332.6427 1498.2883,-334.1388 1501.5106,-340.353"/>
</g>
<!-- Node15 -->
<g id="node16" class="node">
<title>Node15</title>
<g id="a_node16"><a xlink:href="../../d9/dff/Configurable_8h.html" target="_top" xlink:title="Framework/Configurable.h">
<polygon fill="none" stroke="#000000" points="799.3736,-56.5 799.3736,-75.5 943.3736,-75.5 943.3736,-56.5 799.3736,-56.5"/>
<text text-anchor="middle" x="871.3736" y="-63.5" font-family="Helvetica,sans-Serif" font-size="10.00" fill="#000000">Framework/Configurable.h</text>
</a>
</g>
</g>
<!-- Node13&#45;&gt;Node15 -->
<g id="edge19" class="edge">
<title>Node13&#45;&gt;Node15</title>
<path fill="none" stroke="#191970" d="M1348.6789,-373.0856C1332.172,-371.7246 1314.6579,-370.2966 1298.3736,-369 1246.1636,-364.8431 868.6422,-366.4902 828.3736,-333 803.0933,-311.9752 809.3736,-294.3806 809.3736,-261.5 809.3736,-261.5 809.3736,-261.5 809.3736,-194.5 809.3736,-151.2308 838.2415,-107.1806 856.5809,-83.5619"/>
<polygon fill="#191970" stroke="#191970" points="859.479,-85.5428 863.012,-75.5544 854.0212,-81.1595 859.479,-85.5428"/>
</g>
<!-- Node13&#45;&gt;Node16 -->
<g id="edge67" class="edge">
<title>Node13&#45;&gt;Node16</title>
<path fill="none" stroke="#191970" d="M1348.6817,-373.0505C1332.1747,-371.691 1314.6598,-370.2725 1298.3736,-369 1244.0587,-364.7564 855.0073,-362.7603 809.3736,-333 779.2303,-313.3419 771.3736,-297.487 771.3736,-261.5 771.3736,-261.5 771.3736,-261.5 771.3736,-127.5 771.3736,-94.6194 768.0472,-80.1385 790.3736,-56 815.9563,-28.3408 859.1347,-17.3087 888.8851,-12.911"/>
<polygon fill="#191970" stroke="#191970" points="889.7155,-16.3326 899.1808,-11.5724 888.813,-9.391 889.7155,-16.3326"/>
</g>
<!-- Node17 -->
<g id="node18" class="node">
<title>Node17</title>
<g id="a_node18"><a xlink:href="../../de/d56/Variant_8h.html" target="_top" xlink:title="Framework/Variant.h">
<polygon fill="none" stroke="#000000" points="2062.8736,-56.5 2062.8736,-75.5 2179.8736,-75.5 2179.8736,-56.5 2062.8736,-56.5"/>
<text text-anchor="middle" x="2121.3736" y="-63.5" font-family="Helvetica,sans-Serif" font-size="10.00" fill="#000000">Framework/Variant.h</text>
</a>
</g>
</g>
<!-- Node13&#45;&gt;Node17 -->
<g id="edge21" class="edge">
<title>Node13&#45;&gt;Node17</title>
<path fill="none" stroke="#191970" d="M1489.9056,-374.0605C1583.8407,-366.8688 1744.6391,-352.2468 1800.3736,-333 1816.5842,-327.402 1818.1738,-320.943 1833.3736,-313 1868.289,-294.7541 1882.0065,-299.4583 1914.3736,-277 1998.293,-218.7714 2076.8523,-123.535 2107.6553,-84.0394"/>
<polygon fill="#191970" stroke="#191970" points="2110.7812,-85.7177 2114.1209,-75.663 2105.2399,-81.4404 2110.7812,-85.7177"/>
</g>
<!-- Node13&#45;&gt;Node18 -->
<g id="edge56" class="edge">
<title>Node13&#45;&gt;Node18</title>
<path fill="none" stroke="#191970" d="M1490.055,-375.4008C1680.3997,-365.633 2189.9147,-338.9604 2196.3736,-333 2269.2633,-265.7355 2172.6151,-194.6979 2227.3736,-112 2257.7435,-66.1344 2316.452,-37.7819 2356.2783,-22.9518"/>
<polygon fill="#191970" stroke="#191970" points="2357.4925,-26.2347 2365.718,-19.557 2355.1236,-19.6477 2357.4925,-26.2347"/>
</g>
<!-- Node26 -->
<g id="node27" class="node">
<title>Node26</title>
<g id="a_node27"><a xlink:href="../../d4/d2b/InitContext_8h.html" target="_top" xlink:title="Framework/InitContext.h">
<polygon fill="none" stroke="#000000" points="1885.8736,-313.5 1885.8736,-332.5 2022.8736,-332.5 2022.8736,-313.5 1885.8736,-313.5"/>
<text text-anchor="middle" x="1954.3736" y="-320.5" font-family="Helvetica,sans-Serif" font-size="10.00" fill="#000000">Framework/InitContext.h</text>
</a>
</g>
</g>
<!-- Node13&#45;&gt;Node26 -->
<g id="edge32" class="edge">
<title>Node13&#45;&gt;Node26</title>
<path fill="none" stroke="#191970" d="M1489.8794,-372.2317C1578.8451,-363.5976 1736.5341,-347.9829 1871.3736,-333 1872.6718,-332.8557 1873.9814,-332.7093 1875.2999,-332.5609"/>
<polygon fill="#191970" stroke="#191970" points="1876.0037,-336.0034 1885.5425,-331.3922 1875.2101,-329.0485 1876.0037,-336.0034"/>
</g>
<!-- Node27 -->
<g id="node28" class="node">
<title>Node27</title>
<g id="a_node28"><a xlink:href="../../de/dc6/ConfigParamRegistry_8h.html" target="_top" xlink:title="Framework/ConfigParamRegistry.h">
<polygon fill="none" stroke="#000000" points="1609.3736,-313.5 1609.3736,-332.5 1791.3736,-332.5 1791.3736,-313.5 1609.3736,-313.5"/>
<text text-anchor="middle" x="1700.3736" y="-320.5" font-family="Helvetica,sans-Serif" font-size="10.00" fill="#000000">Framework/ConfigParamRegistry.h</text>
</a>
</g>
</g>
<!-- Node13&#45;&gt;Node27 -->
<g id="edge33" class="edge">
<title>Node13&#45;&gt;Node27</title>
<path fill="none" stroke="#191970" d="M1467.3599,-369.4369C1515.855,-359.7724 1590.8209,-344.8326 1642.5614,-334.5213"/>
<polygon fill="#191970" stroke="#191970" points="1643.4621,-337.9107 1652.5852,-332.5237 1642.0939,-331.0457 1643.4621,-337.9107"/>
</g>
<!-- Node13&#45;&gt;Node33 -->
<g id="edge68" class="edge">
<title>Node13&#45;&gt;Node33</title>
<path fill="none" stroke="#191970" d="M1490.1809,-373.9167C1590.9869,-366.2047 1770.6114,-350.5732 1833.3736,-333 1853.6701,-327.317 1855.9557,-318.2303 1876.3736,-313 2018.2113,-276.6667 2476.2955,-264.9482 2613.9162,-262.2021"/>
<polygon fill="#191970" stroke="#191970" points="2614.0785,-265.6997 2624.0084,-262.0055 2613.942,-258.701 2614.0785,-265.6997"/>
</g>
<!-- Node35 -->
<g id="node36" class="node">
<title>Node35</title>
<g id="a_node36"><a xlink:href="../../da/d88/RootConfigParamHelpers_8h.html" target="_top" xlink:title="Framework/RootConfigParam\lHelpers.h">
<polygon fill="none" stroke="#000000" points="2236.8736,-179.5 2236.8736,-209.5 2393.8736,-209.5 2393.8736,-179.5 2236.8736,-179.5"/>
<text text-anchor="start" x="2244.8736" y="-197.5" font-family="Helvetica,sans-Serif" font-size="10.00" fill="#000000">Framework/RootConfigParam</text>
<text text-anchor="middle" x="2315.3736" y="-186.5" font-family="Helvetica,sans-Serif" font-size="10.00" fill="#000000">Helpers.h</text>
</a>
</g>
</g>
<!-- Node13&#45;&gt;Node35 -->
<g id="edge49" class="edge">
<title>Node13&#45;&gt;Node35</title>
<path fill="none" stroke="#191970" d="M1490.0045,-375.8521C1684.3181,-367.0801 2213.5639,-342.3895 2229.3736,-333 2272.1932,-307.5692 2296.7788,-251.6663 2307.967,-219.1943"/>
<polygon fill="#191970" stroke="#191970" points="2311.3416,-220.136 2311.1349,-209.5431 2304.6907,-217.9528 2311.3416,-220.136"/>
</g>
<!-- Node38 -->
<g id="node39" class="node">
<title>Node38</title>
<polygon fill="none" stroke="#bfbfbf" points="318.8736,-313.5 318.8736,-332.5 419.8736,-332.5 419.8736,-313.5 318.8736,-313.5"/>
<text text-anchor="middle" x="369.3736" y="-320.5" font-family="Helvetica,sans-Serif" font-size="10.00" fill="#000000">arrow/type_fwd.h</text>
</g>
<!-- Node13&#45;&gt;Node38 -->
<g id="edge57" class="edge">
<title>Node13&#45;&gt;Node38</title>
<path fill="none" stroke="#191970" d="M1348.8236,-376.842C1156.7314,-370.7911 626.2052,-352.8688 430.3554,-333.0762"/>
<polygon fill="#191970" stroke="#191970" points="430.4774,-329.57 420.1679,-332.012 429.7501,-336.5321 430.4774,-329.57"/>
</g>
<!-- Node39 -->
<g id="node40" class="node">
<title>Node39</title>
<polygon fill="none" stroke="#bfbfbf" points="2041.3736,-313.5 2041.3736,-332.5 2187.3736,-332.5 2187.3736,-313.5 2041.3736,-313.5"/>
<text text-anchor="middle" x="2114.3736" y="-320.5" font-family="Helvetica,sans-Serif" font-size="10.00" fill="#000000">gandiva/gandiva_aliases.h</text>
</g>
<!-- Node13&#45;&gt;Node39 -->
<g id="edge58" class="edge">
<title>Node13&#45;&gt;Node39</title>
<path fill="none" stroke="#191970" d="M1490.1403,-374.7161C1602.3096,-367.6971 1828.0675,-352.6401 2030.8243,-333.0104"/>
<polygon fill="#191970" stroke="#191970" points="2031.459,-336.4652 2041.0727,-332.0123 2030.7805,-329.4982 2031.459,-336.4652"/>
</g>
<!-- Node40 -->
<g id="node41" class="node">
<title>Node40</title>
<polygon fill="none" stroke="#bfbfbf" points="837.3736,-313.5 837.3736,-332.5 915.3736,-332.5 915.3736,-313.5 837.3736,-313.5"/>
<text text-anchor="middle" x="876.3736" y="-320.5" font-family="Helvetica,sans-Serif" font-size="10.00" fill="#000000">arrow/type.h</text>
</g>
<!-- Node13&#45;&gt;Node40 -->
<g id="edge59" class="edge">
<title>Node13&#45;&gt;Node40</title>
<path fill="none" stroke="#191970" d="M1348.868,-372.4039C1336.6976,-371.2673 1324.1699,-370.0985 1312.3736,-369 1143.2182,-353.2481 1097.3743,-358.4904 925.741,-333.0645"/>
<polygon fill="#191970" stroke="#191970" points="926.009,-329.5657 915.6014,-331.5487 924.974,-336.4888 926.009,-329.5657"/>
</g>
<!-- Node41 -->
<g id="node42" class="node">
<title>Node41</title>
<polygon fill="none" stroke="#bfbfbf" points="933.8736,-313.5 933.8736,-332.5 1028.8736,-332.5 1028.8736,-313.5 933.8736,-313.5"/>
<text text-anchor="middle" x="981.3736" y="-320.5" font-family="Helvetica,sans-Serif" font-size="10.00" fill="#000000">gandiva/arrow.h</text>
</g>
<!-- Node13&#45;&gt;Node41 -->
<g id="edge60" class="edge">
<title>Node13&#45;&gt;Node41</title>
<path fill="none" stroke="#191970" d="M1348.6507,-371.6067C1274.2113,-363.5653 1153.3815,-349.7791 1038.9192,-333.0126"/>
<polygon fill="#191970" stroke="#191970" points="1039.3322,-329.5357 1028.9285,-331.539 1038.3107,-336.4608 1039.3322,-329.5357"/>
</g>
<!-- Node13&#45;&gt;Node42 -->
<g id="edge61" class="edge">
<title>Node13&#45;&gt;Node42</title>
<path fill="none" stroke="#191970" d="M1490.0492,-375.867C1722.4175,-365.5651 2448.3428,-333.3732 2454.3736,-333 2479.1595,-331.4661 2506.6544,-329.3342 2529.6195,-327.4327"/>
<polygon fill="#191970" stroke="#191970" points="2530.1532,-330.9003 2539.8263,-326.5782 2529.5692,-323.9247 2530.1532,-330.9003"/>
</g>
<!-- Node13&#45;&gt;Node43 -->
<g id="edge62" class="edge">
<title>Node13&#45;&gt;Node43</title>
<path fill="none" stroke="#191970" d="M1348.5518,-375.1753C1164.8738,-365.24 681.9832,-339.014 595.2461,-332.9096"/>
<polygon fill="#191970" stroke="#191970" points="595.3523,-329.4076 585.1142,-332.1335 594.8176,-336.3871 595.3523,-329.4076"/>
</g>
<!-- Node44 -->
<g id="node45" class="node">
<title>Node44</title>
<polygon fill="none" stroke="#bfbfbf" points="1047.3736,-313.5 1047.3736,-332.5 1139.3736,-332.5 1139.3736,-313.5 1047.3736,-313.5"/>
<text text-anchor="middle" x="1093.3736" y="-320.5" font-family="Helvetica,sans-Serif" font-size="10.00" fill="#000000">gandiva/node.h</text>
</g>
<!-- Node13&#45;&gt;Node44 -->
<g id="edge63" class="edge">
<title>Node13&#45;&gt;Node44</title>
<path fill="none" stroke="#191970" d="M1361.9791,-369.4582C1309.3531,-360.6636 1228.9741,-347.1174 1149.7382,-333.2257"/>
<polygon fill="#191970" stroke="#191970" points="1150.0347,-329.7243 1139.58,-331.4417 1148.8239,-336.6188 1150.0347,-329.7243"/>
</g>
<!-- Node45 -->
<g id="node46" class="node">
<title>Node45</title>
<polygon fill="none" stroke="#bfbfbf" points="1157.8736,-313.5 1157.8736,-332.5 1246.8736,-332.5 1246.8736,-313.5 1157.8736,-313.5"/>
<text text-anchor="middle" x="1202.3736" y="-320.5" font-family="Helvetica,sans-Serif" font-size="10.00" fill="#000000">gandiva/filter.h</text>
</g>
<!-- Node13&#45;&gt;Node45 -->
<g id="edge64" class="edge">
<title>Node13&#45;&gt;Node45</title>
<path fill="none" stroke="#191970" d="M1382.0699,-369.3733C1345.2051,-359.8598 1288.7076,-345.2797 1248.9229,-335.0127"/>
<polygon fill="#191970" stroke="#191970" points="1249.7478,-331.611 1239.1904,-332.5011 1247.9986,-338.3889 1249.7478,-331.611"/>
</g>
<!-- Node46 -->
<g id="node47" class="node">
<title>Node46</title>
<polygon fill="none" stroke="#bfbfbf" points="1265.3736,-313.5 1265.3736,-332.5 1375.3736,-332.5 1375.3736,-313.5 1265.3736,-313.5"/>
<text text-anchor="middle" x="1320.3736" y="-320.5" font-family="Helvetica,sans-Serif" font-size="10.00" fill="#000000">gandiva/projector.h</text>
</g>
<!-- Node13&#45;&gt;Node46 -->
<g id="edge65" class="edge">
<title>Node13&#45;&gt;Node46</title>
<path fill="none" stroke="#191970" d="M1402.1291,-369.2455C1386.7975,-360.5731 1364.1537,-347.7645 1346.582,-337.825"/>
<polygon fill="#191970" stroke="#191970" points="1347.8477,-334.5198 1337.4204,-332.6427 1344.4012,-340.6126 1347.8477,-334.5198"/>
</g>
<!-- Node47 -->
<g id="node48" class="node">
<title>Node47</title>
<polygon fill="none" stroke="#bfbfbf" points="1393.8736,-313.5 1393.8736,-332.5 1444.8736,-332.5 1444.8736,-313.5 1393.8736,-313.5"/>
<text text-anchor="middle" x="1419.3736" y="-320.5" font-family="Helvetica,sans-Serif" font-size="10.00" fill="#000000">variant</text>
</g>
<!-- Node13&#45;&gt;Node47 -->
<g id="edge66" class="edge">
<title>Node13&#45;&gt;Node47</title>
<path fill="none" stroke="#191970" d="M1419.3736,-369.2455C1419.3736,-361.9382 1419.3736,-351.6944 1419.3736,-342.7046"/>
<polygon fill="#191970" stroke="#191970" points="1422.8737,-342.6426 1419.3736,-332.6427 1415.8737,-342.6427 1422.8737,-342.6426"/>
</g>
<!-- Node15&#45;&gt;Node16 -->
<g id="edge20" class="edge">
<title>Node15&#45;&gt;Node16</title>
<path fill="none" stroke="#191970" d="M880.0829,-56.2455C887.1809,-48.2958 897.382,-36.8706 905.8686,-27.3656"/>
<polygon fill="#191970" stroke="#191970" points="908.7146,-29.4331 912.764,-19.6427 903.4931,-24.771 908.7146,-29.4331"/>
</g>
<!-- Node17&#45;&gt;Node12 -->
<g id="edge23" class="edge">
<title>Node17&#45;&gt;Node12</title>
<path fill="none" stroke="#191970" d="M2179.9468,-61.2255C2314.4423,-50.2622 2643.0299,-23.4778 2763.3098,-13.6733"/>
<polygon fill="#191970" stroke="#191970" points="2763.9375,-17.1339 2773.62,-12.8329 2763.3687,-10.157 2763.9375,-17.1339"/>
</g>
<!-- Node17&#45;&gt;Node16 -->
<g id="edge31" class="edge">
<title>Node17&#45;&gt;Node16</title>
<path fill="none" stroke="#191970" d="M2062.6827,-63.2611C1849.0199,-53.2902 1116.6888,-19.1147 953.6969,-11.5084"/>
<polygon fill="#191970" stroke="#191970" points="953.529,-7.9969 943.3767,-11.0268 953.2026,-14.9893 953.529,-7.9969"/>
</g>
<!-- Node17&#45;&gt;Node18 -->
<g id="edge22" class="edge">
<title>Node17&#45;&gt;Node18</title>
<path fill="none" stroke="#191970" d="M2168.5061,-56.4369C2216.1383,-46.7724 2289.7703,-31.8326 2340.5901,-21.5213"/>
<polygon fill="#191970" stroke="#191970" points="2341.3312,-24.9423 2350.4355,-19.5237 2339.9392,-18.0821 2341.3312,-24.9423"/>
</g>
<!-- Node19 -->
<g id="node20" class="node">
<title>Node19</title>
<polygon fill="none" stroke="#bfbfbf" points="2182.3736,-.5 2182.3736,-19.5 2232.3736,-19.5 2232.3736,-.5 2182.3736,-.5"/>
<text text-anchor="middle" x="2207.3736" y="-7.5" font-family="Helvetica,sans-Serif" font-size="10.00" fill="#000000">cstring</text>
</g>
<!-- Node17&#45;&gt;Node19 -->
<g id="edge24" class="edge">
<title>Node17&#45;&gt;Node19</title>
<path fill="none" stroke="#191970" d="M2136.3536,-56.2455C2149.5487,-47.6534 2168.9786,-35.0014 2184.1815,-25.1018"/>
<polygon fill="#191970" stroke="#191970" points="2186.0951,-28.0325 2192.5652,-19.6427 2182.2753,-22.1665 2186.0951,-28.0325"/>
</g>
<!-- Node20 -->
<g id="node21" class="node">
<title>Node20</title>
<polygon fill="none" stroke="#bfbfbf" points="2250.3736,-.5 2250.3736,-19.5 2300.3736,-19.5 2300.3736,-.5 2250.3736,-.5"/>
<text text-anchor="middle" x="2275.3736" y="-7.5" font-family="Helvetica,sans-Serif" font-size="10.00" fill="#000000">cstdint</text>
</g>
<!-- Node17&#45;&gt;Node20 -->
<g id="edge25" class="edge">
<title>Node17&#45;&gt;Node20</title>
<path fill="none" stroke="#191970" d="M2147.8471,-56.3733C2173.541,-47.03 2212.6734,-32.8001 2240.8112,-22.5682"/>
<polygon fill="#191970" stroke="#191970" points="2242.0634,-25.8371 2250.2652,-19.1303 2239.6712,-19.2585 2242.0634,-25.8371"/>
</g>
<!-- Node21 -->
<g id="node22" class="node">
<title>Node21</title>
<polygon fill="none" stroke="#bfbfbf" points="1855.8736,-.5 1855.8736,-19.5 1904.8736,-19.5 1904.8736,-.5 1855.8736,-.5"/>
<text text-anchor="middle" x="1880.3736" y="-7.5" font-family="Helvetica,sans-Serif" font-size="10.00" fill="#000000">cstdlib</text>
</g>
<!-- Node17&#45;&gt;Node21 -->
<g id="edge26" class="edge">
<title>Node17&#45;&gt;Node21</title>
<path fill="none" stroke="#191970" d="M2073.2072,-56.4391C2033.1203,-48.2364 1974.358,-35.6466 1915.0831,-20.3242"/>
<polygon fill="#191970" stroke="#191970" points="1915.7418,-16.8789 1905.182,-17.7401 1913.974,-23.652 1915.7418,-16.8789"/>
</g>
<!-- Node22 -->
<g id="node23" class="node">
<title>Node22</title>
<polygon fill="none" stroke="#bfbfbf" points="1922.8736,-.5 1922.8736,-19.5 1971.8736,-19.5 1971.8736,-.5 1922.8736,-.5"/>
<text text-anchor="middle" x="1947.3736" y="-7.5" font-family="Helvetica,sans-Serif" font-size="10.00" fill="#000000">iosfwd</text>
</g>
<!-- Node17&#45;&gt;Node22 -->
<g id="edge27" class="edge">
<title>Node17&#45;&gt;Node22</title>
<path fill="none" stroke="#191970" d="M2091.4619,-56.3733C2061.0378,-46.5816 2013.9374,-31.4229 1981.9359,-21.1235"/>
<polygon fill="#191970" stroke="#191970" points="1982.708,-17.6953 1972.1166,-17.9633 1980.5634,-24.3587 1982.708,-17.6953"/>
</g>
<!-- Node23 -->
<g id="node24" class="node">
<title>Node23</title>
<polygon fill="none" stroke="#bfbfbf" points="1989.8736,-.5 1989.8736,-19.5 2072.8736,-19.5 2072.8736,-.5 1989.8736,-.5"/>
<text text-anchor="middle" x="2031.3736" y="-7.5" font-family="Helvetica,sans-Serif" font-size="10.00" fill="#000000">initializer_list</text>
</g>
<!-- Node17&#45;&gt;Node23 -->
<g id="edge28" class="edge">
<title>Node17&#45;&gt;Node23</title>
<path fill="none" stroke="#191970" d="M2105.6968,-56.2455C2091.888,-47.6534 2071.5543,-35.0014 2055.6443,-25.1018"/>
<polygon fill="#191970" stroke="#191970" points="2057.2104,-21.954 2046.8707,-19.6427 2053.5122,-27.8974 2057.2104,-21.954"/>
</g>
<!-- Node24 -->
<g id="node25" class="node">
<title>Node24</title>
<polygon fill="none" stroke="#bfbfbf" points="2090.8736,-.5 2090.8736,-19.5 2163.8736,-19.5 2163.8736,-.5 2090.8736,-.5"/>
<text text-anchor="middle" x="2127.3736" y="-7.5" font-family="Helvetica,sans-Serif" font-size="10.00" fill="#000000">string_view</text>
</g>
<!-- Node17&#45;&gt;Node24 -->
<g id="edge29" class="edge">
<title>Node17&#45;&gt;Node24</title>
<path fill="none" stroke="#191970" d="M2122.4187,-56.2455C2123.2016,-48.9382 2124.2992,-38.6944 2125.2624,-29.7046"/>
<polygon fill="#191970" stroke="#191970" points="2128.7551,-29.9587 2126.3404,-19.6427 2121.7949,-29.2129 2128.7551,-29.9587"/>
</g>
<!-- Node17&#45;&gt;Node25 -->
<g id="edge30" class="edge">
<title>Node17&#45;&gt;Node25</title>
<path fill="none" stroke="#191970" d="M2062.4813,-57.4338C1980.8709,-45.5632 1836.0413,-24.4971 1770.3987,-14.9491"/>
<polygon fill="#191970" stroke="#191970" points="1770.5962,-11.4411 1760.1965,-13.4652 1769.5886,-18.3682 1770.5962,-11.4411"/>
</g>
<!-- Node27&#45;&gt;Node16 -->
<g id="edge47" class="edge">
<title>Node27&#45;&gt;Node16</title>
<path fill="none" stroke="#191970" d="M1623.7356,-313.4796C1436.5677,-289.7168 971.3736,-227.3513 971.3736,-194.5 971.3736,-194.5 971.3736,-194.5 971.3736,-127.5 971.3736,-94.6194 965.9719,-85.937 952.3736,-56 947.8693,-46.0837 941.2947,-35.9515 935.3581,-27.7293"/>
<polygon fill="#191970" stroke="#191970" points="938.0993,-25.551 929.2948,-19.6577 932.5025,-29.7553 938.0993,-25.551"/>
</g>
<!-- Node28 -->
<g id="node29" class="node">
<title>Node28</title>
<g id="a_node29"><a xlink:href="../../df/d72/ParamRetriever_8h.html" target="_top" xlink:title="Framework/ParamRetriever.h">
<polygon fill="none" stroke="#000000" points="1467.8736,-185 1467.8736,-204 1624.8736,-204 1624.8736,-185 1467.8736,-185"/>
<text text-anchor="middle" x="1546.3736" y="-192" font-family="Helvetica,sans-Serif" font-size="10.00" fill="#000000">Framework/ParamRetriever.h</text>
</a>
</g>
</g>
<!-- Node27&#45;&gt;Node28 -->
<g id="edge34" class="edge">
<title>Node27&#45;&gt;Node28</title>
<path fill="none" stroke="#191970" d="M1629.7383,-313.4397C1586.7107,-306.0052 1537.5478,-294.06 1524.3736,-277 1509.869,-258.2172 1522.1096,-230.6623 1533.3168,-212.6525"/>
<polygon fill="#191970" stroke="#191970" points="1536.3135,-214.4668 1538.9361,-204.2016 1530.4845,-210.5908 1536.3135,-214.4668"/>
</g>
<!-- Node31 -->
<g id="node32" class="node">
<title>Node31</title>
<g id="a_node32"><a xlink:href="../../dd/daf/ConfigParamStore_8h.html" target="_top" xlink:title="Framework/ConfigParamStore.h">
<polygon fill="none" stroke="#000000" points="1533.3736,-252 1533.3736,-271 1703.3736,-271 1703.3736,-252 1533.3736,-252"/>
<text text-anchor="middle" x="1618.3736" y="-259" font-family="Helvetica,sans-Serif" font-size="10.00" fill="#000000">Framework/ConfigParamStore.h</text>
</a>
</g>
</g>
<!-- Node27&#45;&gt;Node31 -->
<g id="edge41" class="edge">
<title>Node27&#45;&gt;Node31</title>
<path fill="none" stroke="#191970" d="M1687.5611,-313.3906C1674.6834,-303.7324 1654.6152,-288.6812 1639.4016,-277.271"/>
<polygon fill="#191970" stroke="#191970" points="1641.1961,-274.2419 1631.0961,-271.0419 1636.9961,-279.8419 1641.1961,-274.2419"/>
</g>
<!-- Node32 -->
<g id="node33" class="node">
<title>Node32</title>
<polygon fill="none" stroke="#bfbfbf" points="1721.8736,-246.5 1721.8736,-276.5 1834.8736,-276.5 1834.8736,-246.5 1721.8736,-246.5"/>
<text text-anchor="start" x="1729.8736" y="-264.5" font-family="Helvetica,sans-Serif" font-size="10.00" fill="#000000">boost/property_tree</text>
<text text-anchor="middle" x="1778.3736" y="-253.5" font-family="Helvetica,sans-Serif" font-size="10.00" fill="#000000">/ptree.hpp</text>
</g>
<!-- Node27&#45;&gt;Node32 -->
<g id="edge45" class="edge">
<title>Node27&#45;&gt;Node32</title>
<path fill="none" stroke="#191970" d="M1712.5611,-313.3906C1722.9219,-305.2215 1738.1761,-293.1941 1751.3904,-282.7752"/>
<polygon fill="#191970" stroke="#191970" points="1753.607,-285.4846 1759.2926,-276.5446 1749.2729,-279.9877 1753.607,-285.4846"/>
</g>
<!-- Node27&#45;&gt;Node33 -->
<g id="edge46" class="edge">
<title>Node27&#45;&gt;Node33</title>
<path fill="none" stroke="#191970" d="M1791.5279,-316.539C1808.748,-315.343 1826.6121,-314.1189 1843.3736,-313 2139.5716,-293.2275 2496.821,-271.1207 2614.0432,-263.9122"/>
<polygon fill="#191970" stroke="#191970" points="2614.5444,-267.3881 2624.3108,-263.2812 2614.1149,-260.4013 2614.5444,-267.3881"/>
</g>
<!-- Node27&#45;&gt;Node34 -->
<g id="edge48" class="edge">
<title>Node27&#45;&gt;Node34</title>
<path fill="none" stroke="#191970" d="M1733.0496,-313.4588C1762.2327,-304.7085 1806.0146,-291.0149 1843.3736,-277 1845.1893,-276.3188 1847.047,-275.5972 1848.9147,-274.8526"/>
<polygon fill="#191970" stroke="#191970" points="1850.2852,-278.0734 1858.1898,-271.0188 1847.6111,-271.6043 1850.2852,-278.0734"/>
</g>
<!-- Node28&#45;&gt;Node16 -->
<g id="edge39" class="edge">
<title>Node28&#45;&gt;Node16</title>
<path fill="none" stroke="#191970" d="M1514.087,-184.969C1406.4369,-153.1907 1060.5367,-51.081 953.3483,-19.4389"/>
<polygon fill="#191970" stroke="#191970" points="954.0338,-15.992 943.452,-16.5175 952.0519,-22.7056 954.0338,-15.992"/>
</g>
<!-- Node28&#45;&gt;Node25 -->
<g id="edge40" class="edge">
<title>Node28&#45;&gt;Node25</title>
<path fill="none" stroke="#191970" d="M1545.8057,-184.8681C1545.3247,-168.3854 1546.5243,-134.3862 1562.3736,-112 1596.9744,-63.1284 1662.9914,-34.0344 1703.0129,-20.1028"/>
<polygon fill="#191970" stroke="#191970" points="1704.2279,-23.387 1712.5928,-16.8848 1701.9988,-16.7514 1704.2279,-23.387"/>
</g>
<!-- Node29 -->
<g id="node30" class="node">
<title>Node29</title>
<g id="a_node30"><a xlink:href="../../d0/d1c/ConfigParamSpec_8h.html" target="_top" xlink:title="Framework/ConfigParamSpec.h">
<polygon fill="none" stroke="#000000" points="1571.8736,-118 1571.8736,-137 1738.8736,-137 1738.8736,-118 1571.8736,-118"/>
<text text-anchor="middle" x="1655.3736" y="-125" font-family="Helvetica,sans-Serif" font-size="10.00" fill="#000000">Framework/ConfigParamSpec.h</text>
</a>
</g>
</g>
<!-- Node28&#45;&gt;Node29 -->
<g id="edge35" class="edge">
<title>Node28&#45;&gt;Node29</title>
<path fill="none" stroke="#191970" d="M1561.9906,-184.9005C1580.0404,-173.8057 1609.9632,-155.4128 1631.0643,-142.4424"/>
<polygon fill="#191970" stroke="#191970" points="1633.099,-145.3001 1639.7855,-137.0817 1629.4334,-139.3366 1633.099,-145.3001"/>
</g>
<!-- Node30 -->
<g id="node31" class="node">
<title>Node30</title>
<polygon fill="none" stroke="#bfbfbf" points="1756.8736,-112.5 1756.8736,-142.5 1869.8736,-142.5 1869.8736,-112.5 1756.8736,-112.5"/>
<text text-anchor="start" x="1764.8736" y="-130.5" font-family="Helvetica,sans-Serif" font-size="10.00" fill="#000000">boost/property_tree</text>
<text text-anchor="middle" x="1813.3736" y="-119.5" font-family="Helvetica,sans-Serif" font-size="10.00" fill="#000000">/ptree_fwd.hpp</text>
</g>
<!-- Node28&#45;&gt;Node30 -->
<g id="edge38" class="edge">
<title>Node28&#45;&gt;Node30</title>
<path fill="none" stroke="#191970" d="M1584.3446,-184.9717C1626.4566,-174.4043 1695.2008,-157.1538 1746.4037,-144.3052"/>
<polygon fill="#191970" stroke="#191970" points="1747.5499,-147.6261 1756.3973,-141.7974 1745.8461,-140.8366 1747.5499,-147.6261"/>
</g>
<!-- Node29&#45;&gt;Node16 -->
<g id="edge37" class="edge">
<title>Node29&#45;&gt;Node16</title>
<path fill="none" stroke="#191970" d="M1595.929,-117.984C1447.9748,-94.2992 1066.9682,-33.307 953.636,-15.1646"/>
<polygon fill="#191970" stroke="#191970" points="953.9483,-11.6701 943.5207,-13.5454 952.8418,-18.5821 953.9483,-11.6701"/>
</g>
<!-- Node29&#45;&gt;Node17 -->
<g id="edge36" class="edge">
<title>Node29&#45;&gt;Node17</title>
<path fill="none" stroke="#191970" d="M1709.7958,-117.9188C1722.1351,-115.8613 1735.1922,-113.7744 1747.3736,-112 1853.5641,-96.532 1977.2239,-82.0002 2052.3667,-73.5555"/>
<polygon fill="#191970" stroke="#191970" points="2053.0925,-76.9962 2062.6408,-72.4049 2052.3133,-70.0397 2053.0925,-76.9962"/>
</g>
<!-- Node31&#45;&gt;Node28 -->
<g id="edge42" class="edge">
<title>Node31&#45;&gt;Node28</title>
<path fill="none" stroke="#191970" d="M1608.0577,-251.9005C1596.6161,-241.2535 1577.9521,-223.8856 1564.1462,-211.0385"/>
<polygon fill="#191970" stroke="#191970" points="1566.3753,-208.3317 1556.6703,-204.0817 1561.6067,-213.4562 1566.3753,-208.3317"/>
</g>
<!-- Node31&#45;&gt;Node29 -->
<g id="edge43" class="edge">
<title>Node31&#45;&gt;Node29</title>
<path fill="none" stroke="#191970" d="M1621.3161,-251.6462C1624.3902,-241.2949 1629.3204,-224.5316 1633.3736,-210 1639.3848,-188.4485 1645.9554,-163.6313 1650.3361,-146.8911"/>
<polygon fill="#191970" stroke="#191970" points="1653.7338,-147.7319 1652.8707,-137.1723 1646.9604,-145.9654 1653.7338,-147.7319"/>
</g>
<!-- Node31&#45;&gt;Node30 -->
<g id="edge44" class="edge">
<title>Node31&#45;&gt;Node30</title>
<path fill="none" stroke="#191970" d="M1632.3975,-251.8631C1663.7699,-230.3045 1740.2162,-177.7722 1783.0378,-148.3461"/>
<polygon fill="#191970" stroke="#191970" points="1785.1242,-151.1591 1791.3836,-142.611 1781.1597,-145.39 1785.1242,-151.1591"/>
</g>
<!-- Node35&#45;&gt;Node12 -->
<g id="edge54" class="edge">
<title>Node35&#45;&gt;Node12</title>
<path fill="none" stroke="#191970" d="M2355.7178,-179.4016C2450.1588,-144.0581 2684.3177,-56.4266 2773.301,-23.1255"/>
<polygon fill="#191970" stroke="#191970" points="2774.7871,-26.3065 2782.926,-19.5235 2772.3336,-19.7506 2774.7871,-26.3065"/>
</g>
<!-- Node35&#45;&gt;Node18 -->
<g id="edge51" class="edge">
<title>Node35&#45;&gt;Node18</title>
<path fill="none" stroke="#191970" d="M2341.3435,-179.3816C2354.2766,-170.4664 2368.9196,-157.992 2377.3736,-143 2397.6453,-107.0508 2399.4585,-57.3422 2398.6384,-30.0107"/>
<polygon fill="#191970" stroke="#191970" points="2402.1235,-29.6029 2398.1718,-19.7726 2395.1308,-29.9216 2402.1235,-29.6029"/>
</g>
<!-- Node35&#45;&gt;Node29 -->
<g id="edge50" class="edge">
<title>Node35&#45;&gt;Node29</title>
<path fill="none" stroke="#191970" d="M2236.6065,-189.2711C2126.7536,-181.5435 1921.428,-165.5193 1747.3736,-143 1737.8359,-141.766 1727.7735,-140.2706 1717.9428,-138.7015"/>
<polygon fill="#191970" stroke="#191970" points="1718.2471,-135.2049 1707.8137,-137.0475 1717.1189,-142.1134 1718.2471,-135.2049"/>
</g>
<!-- Node35&#45;&gt;Node30 -->
<g id="edge53" class="edge">
<title>Node35&#45;&gt;Node30</title>
<path fill="none" stroke="#191970" d="M2236.6601,-183.9944C2138.5189,-170.8959 1972.4684,-148.7338 1880.2152,-136.4211"/>
<polygon fill="#191970" stroke="#191970" points="1880.534,-132.9327 1870.1589,-135.0789 1879.6079,-139.8712 1880.534,-132.9327"/>
</g>
<!-- Node36 -->
<g id="node37" class="node">
<title>Node36</title>
<polygon fill="none" stroke="#bfbfbf" points="2236.8736,-118 2236.8736,-137 2293.8736,-137 2293.8736,-118 2236.8736,-118"/>
<text text-anchor="middle" x="2265.3736" y="-125" font-family="Helvetica,sans-Serif" font-size="10.00" fill="#000000">TClass.h</text>
</g>
<!-- Node35&#45;&gt;Node36 -->
<g id="edge52" class="edge">
<title>Node35&#45;&gt;Node36</title>
<path fill="none" stroke="#191970" d="M2304.0278,-179.2967C2296.4645,-169.1618 2286.496,-155.804 2278.5767,-145.1921"/>
<polygon fill="#191970" stroke="#191970" points="2281.2901,-142.976 2272.5041,-137.055 2275.68,-147.1626 2281.2901,-142.976"/>
</g>
<!-- Node37 -->
<g id="node38" class="node">
<title>Node37</title>
<polygon fill="none" stroke="#bfbfbf" points="2311.8736,-118 2311.8736,-137 2368.8736,-137 2368.8736,-118 2311.8736,-118"/>
<text text-anchor="middle" x="2340.3736" y="-125" font-family="Helvetica,sans-Serif" font-size="10.00" fill="#000000">typeinfo</text>
</g>
<!-- Node35&#45;&gt;Node37 -->
<g id="edge55" class="edge">
<title>Node35&#45;&gt;Node37</title>
<path fill="none" stroke="#191970" d="M2321.0465,-179.2967C2324.6769,-169.5672 2329.4155,-156.8675 2333.2921,-146.4784"/>
<polygon fill="#191970" stroke="#191970" points="2336.5915,-147.6476 2336.8083,-137.055 2330.0332,-145.2004 2336.5915,-147.6476"/>
</g>
<!-- Node48&#45;&gt;Node38 -->
<g id="edge70" class="edge">
<title>Node48&#45;&gt;Node38</title>
<path fill="none" stroke="#191970" d="M958.4213,-375.7149C848.1343,-370.0767 626.9286,-356.9117 430.1248,-333.1278"/>
<polygon fill="#191970" stroke="#191970" points="430.5295,-329.6513 420.1791,-331.9141 429.6815,-336.5997 430.5295,-329.6513"/>
</g>
<!-- Node53&#45;&gt;Node11 -->
<g id="edge80" class="edge">
<title>Node53&#45;&gt;Node11</title>
<path fill="none" stroke="#191970" d="M2824.064,-425.2455C2821.5303,-417.7776 2817.9559,-407.2427 2814.8586,-398.1137"/>
<polygon fill="#191970" stroke="#191970" points="2818.1727,-396.9879 2811.6452,-388.6427 2811.5438,-399.237 2818.1727,-396.9879"/>
</g>
<!-- Node53&#45;&gt;Node12 -->
<g id="edge82" class="edge">
<title>Node53&#45;&gt;Node12</title>
<path fill="none" stroke="#191970" d="M2839.4568,-425.2333C2849.3429,-416.6462 2863.0119,-403.3135 2871.3736,-389 2886.8342,-362.5345 2891.3736,-353.6506 2891.3736,-323 2891.3736,-323 2891.3736,-323 2891.3736,-127.5 2891.3736,-84.8281 2854.403,-46.7772 2829.8105,-26.1864"/>
<polygon fill="#191970" stroke="#191970" points="2831.6901,-23.2059 2821.709,-19.6524 2827.2956,-28.6546 2831.6901,-23.2059"/>
</g>
<!-- Node53&#45;&gt;Node54 -->
<g id="edge81" class="edge">
<title>Node53&#45;&gt;Node54</title>
<path fill="none" stroke="#191970" d="M2846.799,-425.3733C2864.7757,-416.4644 2891.7177,-403.1127 2912.0826,-393.0203"/>
<polygon fill="#191970" stroke="#191970" points="2913.7957,-396.0776 2921.2017,-388.5011 2910.6874,-389.8055 2913.7957,-396.0776"/>
</g>
<!-- Node55&#45;&gt;Node10 -->
<g id="edge85" class="edge">
<title>Node55&#45;&gt;Node10</title>
<path fill="none" stroke="#191970" d="M2480.9629,-369.3733C2457.7593,-360.2226 2422.6697,-346.3844 2396.8593,-336.2057"/>
<polygon fill="#191970" stroke="#191970" points="2398.0525,-332.9139 2387.4657,-332.5011 2395.4844,-339.4258 2398.0525,-332.9139"/>
</g>
<!-- Node63 -->
<g id="node64" class="node">
<title>Node63</title>
<polygon fill="none" stroke="#bfbfbf" points="3435.3736,-425.5 3435.3736,-444.5 3543.3736,-444.5 3543.3736,-425.5 3435.3736,-425.5"/>
<text text-anchor="middle" x="3489.3736" y="-432.5" font-family="Helvetica,sans-Serif" font-size="10.00" fill="#000000">fairlogger/Logger.h</text>
</g>
<!-- Node62&#45;&gt;Node63 -->
<g id="edge101" class="edge">
<title>Node62&#45;&gt;Node63</title>
<path fill="none" stroke="#191970" d="M3489.3736,-481.2455C3489.3736,-473.9382 3489.3736,-463.6944 3489.3736,-454.7046"/>
<polygon fill="#191970" stroke="#191970" points="3492.8737,-454.6426 3489.3736,-444.6427 3485.8737,-454.6427 3492.8737,-454.6426"/>
</g>
</g>
</svg>
