<?xml version="1.0" encoding="UTF-8" standalone="no"?>
<!DOCTYPE svg PUBLIC "-//W3C//DTD SVG 1.1//EN"
 "http://www.w3.org/Graphics/SVG/1.1/DTD/svg11.dtd">
<!-- Generated by graphviz version 2.40.1 (20161225.0304)
 -->
<!-- Title: /home/travis/build/AliceO2Group/AliceO2/DataFormats/Detectors/FIT/FDD/include/DataFormatsFDD/RawEventData.h Pages: 1 -->
<!--zoomable 251 -->
<svg id="main" version="1.1" xmlns="http://www.w3.org/2000/svg" xmlns:xlink="http://www.w3.org/1999/xlink" xml:space="preserve" onload="init(evt)">
<style type="text/css"><![CDATA[
.edge:hover path { stroke: red; }
.edge:hover polygon { stroke: red; fill: red; }
]]></style>
<script type="text/javascript"><![CDATA[
var edges = document.getElementsByTagName('g');
if (edges && edges.length) {
  for (var i=0;i<edges.length;i++) {
    if (edges[i].id.substr(0,4)=='edge') {
      edges[i].setAttribute('class','edge');
    }
  }
}
]]></script>
        <defs>
                <circle id="rim" cx="0" cy="0" r="7"/>
                <circle id="rim2" cx="0" cy="0" r="3.5"/>
                <g id="zoomPlus">
                        <use xlink:href="#rim" fill="#404040">
                                <set attributeName="fill" to="#808080" begin="zoomplus.mouseover" end="zoomplus.mouseout"/>
                        </use>
                        <path d="M-4,0h8M0,-4v8" fill="none" stroke="white" stroke-width="1.5" pointer-events="none"/>
                </g>
                <g id="zoomMin">
                        <use xlink:href="#rim" fill="#404040">
                                <set attributeName="fill" to="#808080" begin="zoomminus.mouseover" end="zoomminus.mouseout"/>
                        </use>
                        <path d="M-4,0h8" fill="none" stroke="white" stroke-width="1.5" pointer-events="none"/>
                </g>
                <g id="dirArrow">
                        <path fill="none" stroke="white" stroke-width="1.5" d="M0,-3.0v7 M-2.5,-0.5L0,-3.0L2.5,-0.5"/>
                </g>
               <g id="resetDef">
                       <use xlink:href="#rim2" fill="#404040">
                               <set attributeName="fill" to="#808080" begin="reset.mouseover" end="reset.mouseout"/>
                       </use>
               </g>
        </defs>

<script type="text/javascript">
var viewWidth = 1201;
var viewHeight = 251;
var sectionId = 'dynsection-0';
</script>
<script xlink:href="../../svgpan.js"/>
<svg id="graph" class="graph">
<g id="viewport">
<title>/home/travis/build/AliceO2Group/AliceO2/DataFormats/Detectors/FIT/FDD/include/DataFormatsFDD/RawEventData.h</title>
<!-- Node0 -->
<g id="node1" class="node">
<title>Node0</title>
<polygon fill="#bfbfbf" stroke="#000000" points="381.7926,-179.5 381.7926,-242.5 563.7926,-242.5 563.7926,-179.5 381.7926,-179.5"/>
<text text-anchor="start" x="389.7926" y="-230.5" font-family="Helvetica,sans-Serif" font-size="10.00" fill="#000000">/home/travis/build</text>
<text text-anchor="start" x="389.7926" y="-219.5" font-family="Helvetica,sans-Serif" font-size="10.00" fill="#000000">/AliceO2Group/AliceO2</text>
<text text-anchor="start" x="389.7926" y="-208.5" font-family="Helvetica,sans-Serif" font-size="10.00" fill="#000000">/DataFormats/Detectors</text>
<text text-anchor="start" x="389.7926" y="-197.5" font-family="Helvetica,sans-Serif" font-size="10.00" fill="#000000">/FIT/FDD/include/DataFormatsFDD</text>
<text text-anchor="middle" x="472.7926" y="-186.5" font-family="Helvetica,sans-Serif" font-size="10.00" fill="#000000">/RawEventData.h</text>
</g>
<!-- Node1 -->
<g id="node2" class="node">
<title>Node1</title>
<g id="a_node2"><a xlink:href="../../d9/d15/Detectors_2FIT_2FDD_2base_2include_2FDDBase_2Constants_8h.html" target="_top" xlink:title="FDDBase/Constants.h">
<polygon fill="none" stroke="#000000" points="519.7926,-56.5 519.7926,-75.5 641.7926,-75.5 641.7926,-56.5 519.7926,-56.5"/>
<text text-anchor="middle" x="580.7926" y="-63.5" font-family="Helvetica,sans-Serif" font-size="10.00" fill="#000000">FDDBase/Constants.h</text>
</a>
</g>
</g>
<!-- Node0&#45;&gt;Node1 -->
<g id="edge1" class="edge">
<title>Node0&#45;&gt;Node1</title>
<path fill="none" stroke="#191970" d="M492.5881,-179.4831C505.4152,-159.6511 522.837,-133.7806 539.7926,-112 547.5614,-102.0205 556.8984,-91.4483 564.6985,-82.959"/>
<polygon fill="#191970" stroke="#191970" points="567.3495,-85.2481 571.6047,-75.5453 562.2275,-80.4767 567.3495,-85.2481"/>
</g>
<!-- Node7 -->
<g id="node8" class="node">
<title>Node7</title>
<g id="a_node8"><a xlink:href="../../d1/d18/FIT_2FDD_2include_2DataFormatsFDD_2ChannelData_8h.html" target="_top" xlink:title="DataFormatsFDD/ChannelData.h">
<polygon fill="none" stroke="#000000" points="15.2926,-118 15.2926,-137 190.2926,-137 190.2926,-118 15.2926,-118"/>
<text text-anchor="middle" x="102.7926" y="-125" font-family="Helvetica,sans-Serif" font-size="10.00" fill="#000000">DataFormatsFDD/ChannelData.h</text>
</a>
</g>
</g>
<!-- Node0&#45;&gt;Node7 -->
<g id="edge7" class="edge">
<title>Node0&#45;&gt;Node7</title>
<path fill="none" stroke="#191970" d="M381.3319,-190.3595C310.1237,-174.2896 213.8248,-152.5573 155.1246,-139.31"/>
<polygon fill="#191970" stroke="#191970" points="155.8518,-135.8862 145.3266,-137.0989 154.3107,-142.7145 155.8518,-135.8862"/>
</g>
<!-- Node9 -->
<g id="node10" class="node">
<title>Node9</title>
<polygon fill="none" stroke="#bfbfbf" points="109.2926,-.5 109.2926,-19.5 168.2926,-19.5 168.2926,-.5 109.2926,-.5"/>
<text text-anchor="middle" x="138.7926" y="-7.5" font-family="Helvetica,sans-Serif" font-size="10.00" fill="#000000">Rtypes.h</text>
</g>
<!-- Node0&#45;&gt;Node9 -->
<g id="edge31" class="edge">
<title>Node0&#45;&gt;Node9</title>
<path fill="none" stroke="#191970" d="M381.7406,-204.0861C252.8368,-193.3608 30.0123,-171.0017 5.7926,-143 -2.5817,-133.318 -1.6198,-69.9235 8.7926,-56 19.8697,-41.1877 64.9346,-27.4981 98.9235,-18.9721"/>
<polygon fill="#191970" stroke="#191970" points="100.1814,-22.2679 109.0663,-16.4964 98.5215,-15.4676 100.1814,-22.2679"/>
</g>
<!-- Node10 -->
<g id="node11" class="node">
<title>Node10</title>
<g id="a_node11"><a xlink:href="../../d4/dee/RAWDataHeader_8h.html" target="_top" xlink:title="Definition of the RAW Data Header. ">
<polygon fill="none" stroke="#000000" points="585.2926,-118 585.2926,-137 734.2926,-137 734.2926,-118 585.2926,-118"/>
<text text-anchor="middle" x="659.7926" y="-125" font-family="Helvetica,sans-Serif" font-size="10.00" fill="#000000">Headers/RAWDataHeader.h</text>
</a>
</g>
</g>
<!-- Node0&#45;&gt;Node10 -->
<g id="edge10" class="edge">
<title>Node0&#45;&gt;Node10</title>
<path fill="none" stroke="#191970" d="M543.4893,-179.4322C572.9921,-166.2585 605.7209,-151.6443 628.9236,-141.2838"/>
<polygon fill="#191970" stroke="#191970" points="630.5432,-144.3937 638.2472,-137.1205 627.6891,-138.002 630.5432,-144.3937"/>
</g>
<!-- Node11 -->
<g id="node12" class="node">
<title>Node11</title>
<g id="a_node12"><a xlink:href="../../d6/dfc/FDD_2include_2DataFormatsFDD_2LookUpTable_8h.html" target="_top" xlink:title="DataFormatsFDD/LookUpTable.h">
<polygon fill="none" stroke="#000000" points="246.7926,-118 246.7926,-137 420.7926,-137 420.7926,-118 246.7926,-118"/>
<text text-anchor="middle" x="333.7926" y="-125" font-family="Helvetica,sans-Serif" font-size="10.00" fill="#000000">DataFormatsFDD/LookUpTable.h</text>
</a>
</g>
</g>
<!-- Node0&#45;&gt;Node11 -->
<g id="edge12" class="edge">
<title>Node0&#45;&gt;Node11</title>
<path fill="none" stroke="#191970" d="M420.2427,-179.4322C399.096,-166.729 375.7196,-152.6864 358.6126,-142.4098"/>
<polygon fill="#191970" stroke="#191970" points="360.1822,-139.2698 349.8077,-137.1205 356.5775,-145.2704 360.1822,-139.2698"/>
</g>
<!-- Node13 -->
<g id="node14" class="node">
<title>Node13</title>
<polygon fill="none" stroke="#bfbfbf" points="115.7926,-56.5 115.7926,-75.5 175.7926,-75.5 175.7926,-56.5 115.7926,-56.5"/>
<text text-anchor="middle" x="145.7926" y="-63.5" font-family="Helvetica,sans-Serif" font-size="10.00" fill="#000000">iostream</text>
</g>
<!-- Node0&#45;&gt;Node13 -->
<g id="edge28" class="edge">
<title>Node0&#45;&gt;Node13</title>
<path fill="none" stroke="#191970" d="M381.5333,-193.8962C336.547,-183.1862 282.4986,-166.8038 237.7926,-143 229.6578,-138.6686 188.7954,-103.5204 164.3479,-82.2378"/>
<polygon fill="#191970" stroke="#191970" points="166.5939,-79.5525 156.7574,-75.6163 161.9923,-84.8275 166.5939,-79.5525"/>
</g>
<!-- Node14 -->
<g id="node15" class="node">
<title>Node14</title>
<polygon fill="none" stroke="#bfbfbf" points="301.7926,-56.5 301.7926,-75.5 357.7926,-75.5 357.7926,-56.5 301.7926,-56.5"/>
<text text-anchor="middle" x="329.7926" y="-63.5" font-family="Helvetica,sans-Serif" font-size="10.00" fill="#000000">iomanip</text>
</g>
<!-- Node0&#45;&gt;Node14 -->
<g id="edge29" class="edge">
<title>Node0&#45;&gt;Node14</title>
<path fill="none" stroke="#191970" d="M465.3367,-179.0678C458.9636,-157.8043 447.8815,-130.4798 429.7926,-112 420.2338,-102.2346 390.1457,-89.0238 365.449,-79.2649"/>
<polygon fill="#191970" stroke="#191970" points="366.5484,-75.9372 355.9597,-75.5772 364.0128,-82.4619 366.5484,-75.9372"/>
</g>
<!-- Node15 -->
<g id="node16" class="node">
<title>Node15</title>
<g id="a_node16"><a xlink:href="../../dd/da4/Logger_8h.html" target="_top" xlink:title="Framework/Logger.h">
<polygon fill="none" stroke="#000000" points="660.2926,-56.5 660.2926,-75.5 775.2926,-75.5 775.2926,-56.5 660.2926,-56.5"/>
<text text-anchor="middle" x="717.7926" y="-63.5" font-family="Helvetica,sans-Serif" font-size="10.00" fill="#000000">Framework/Logger.h</text>
</a>
</g>
</g>
<!-- Node0&#45;&gt;Node15 -->
<g id="edge27" class="edge">
<title>Node0&#45;&gt;Node15</title>
<path fill="none" stroke="#191970" d="M504.7102,-179.2414C532.1219,-152.1988 568.4978,-116.9503 576.7926,-112 602.7705,-96.4964 634.6026,-85.5344 661.4435,-78.2108"/>
<polygon fill="#191970" stroke="#191970" points="662.6801,-81.5048 671.4636,-75.5802 660.9026,-74.7343 662.6801,-81.5048"/>
</g>
<!-- Node17 -->
<g id="node18" class="node">
<title>Node17</title>
<g id="a_node18"><a xlink:href="../../d9/d80/InteractionRecord_8h.html" target="_top" xlink:title="CommonDataFormat/Interaction\lRecord.h">
<polygon fill="none" stroke="#000000" points="754.7926,-112.5 754.7926,-142.5 928.7926,-142.5 928.7926,-112.5 754.7926,-112.5"/>
<text text-anchor="start" x="762.7926" y="-130.5" font-family="Helvetica,sans-Serif" font-size="10.00" fill="#000000">CommonDataFormat/Interaction</text>
<text text-anchor="middle" x="841.7926" y="-119.5" font-family="Helvetica,sans-Serif" font-size="10.00" fill="#000000">Record.h</text>
</a>
</g>
</g>
<!-- Node0&#45;&gt;Node17 -->
<g id="edge20" class="edge">
<title>Node0&#45;&gt;Node17</title>
<path fill="none" stroke="#191970" d="M564.0061,-190.3595C625.9432,-176.344 706.9142,-158.0213 765.4422,-144.7771"/>
<polygon fill="#191970" stroke="#191970" points="766.3857,-148.1522 775.3666,-142.5314 764.8407,-141.3248 766.3857,-148.1522"/>
</g>
<!-- Node22 -->
<g id="node23" class="node">
<title>Node22</title>
<polygon fill="none" stroke="#bfbfbf" points="946.7926,-118 946.7926,-137 996.7926,-137 996.7926,-118 946.7926,-118"/>
<text text-anchor="middle" x="971.7926" y="-125" font-family="Helvetica,sans-Serif" font-size="10.00" fill="#000000">cstring</text>
</g>
<!-- Node0&#45;&gt;Node22 -->
<g id="edge30" class="edge">
<title>Node0&#45;&gt;Node22</title>
<path fill="none" stroke="#191970" d="M563.9922,-205.2991C658.945,-197.6045 811.2025,-180.2901 937.7926,-143 939.7528,-142.4226 941.7454,-141.7526 943.7327,-141.0215"/>
<polygon fill="#191970" stroke="#191970" points="945.5472,-144.0588 953.4512,-137.0034 942.8726,-137.5898 945.5472,-144.0588"/>
</g>
<!-- Node2 -->
<g id="node3" class="node">
<title>Node2</title>
<g id="a_node3"><a xlink:href="../../d3/d9d/PhysicsConstants_8h.html" target="_top" xlink:title="Header to collect physics constants. ">
<polygon fill="none" stroke="#000000" points="471.2926,-.5 471.2926,-19.5 678.2926,-19.5 678.2926,-.5 471.2926,-.5"/>
<text text-anchor="middle" x="574.7926" y="-7.5" font-family="Helvetica,sans-Serif" font-size="10.00" fill="#000000">CommonConstants/PhysicsConstants.h</text>
</a>
</g>
</g>
<!-- Node1&#45;&gt;Node2 -->
<g id="edge2" class="edge">
<title>Node1&#45;&gt;Node2</title>
<path fill="none" stroke="#191970" d="M579.7475,-56.2455C578.9646,-48.9382 577.867,-38.6944 576.9038,-29.7046"/>
<polygon fill="#191970" stroke="#191970" points="580.3713,-29.2129 575.8258,-19.6427 573.4111,-29.9587 580.3713,-29.2129"/>
</g>
<!-- Node3 -->
<g id="node4" class="node">
<title>Node3</title>
<polygon fill="none" stroke="#bfbfbf" points="822.7926,-.5 822.7926,-19.5 872.7926,-19.5 872.7926,-.5 822.7926,-.5"/>
<text text-anchor="middle" x="847.7926" y="-7.5" font-family="Helvetica,sans-Serif" font-size="10.00" fill="#000000">cstdint</text>
</g>
<!-- Node1&#45;&gt;Node3 -->
<g id="edge3" class="edge">
<title>Node1&#45;&gt;Node3</title>
<path fill="none" stroke="#191970" d="M636.6574,-56.4479C681.7399,-48.4045 746.9736,-36.0142 812.5172,-20.1539"/>
<polygon fill="#191970" stroke="#191970" points="813.7295,-23.4606 822.611,-17.6841 812.0657,-16.6612 813.7295,-23.4606"/>
</g>
<!-- Node4 -->
<g id="node5" class="node">
<title>Node4</title>
<polygon fill="none" stroke="#bfbfbf" points="230.2926,-.5 230.2926,-19.5 303.2926,-19.5 303.2926,-.5 230.2926,-.5"/>
<text text-anchor="middle" x="266.7926" y="-7.5" font-family="Helvetica,sans-Serif" font-size="10.00" fill="#000000">string_view</text>
</g>
<!-- Node1&#45;&gt;Node4 -->
<g id="edge4" class="edge">
<title>Node1&#45;&gt;Node4</title>
<path fill="none" stroke="#191970" d="M520.7819,-56.4763C468.6079,-48.0195 390.7482,-34.9761 313.3476,-20.0415"/>
<polygon fill="#191970" stroke="#191970" points="313.9046,-16.5843 303.4209,-18.115 312.5709,-23.4561 313.9046,-16.5843"/>
</g>
<!-- Node5 -->
<g id="node6" class="node">
<title>Node5</title>
<polygon fill="none" stroke="#bfbfbf" points="321.7926,-.5 321.7926,-19.5 365.7926,-19.5 365.7926,-.5 321.7926,-.5"/>
<text text-anchor="middle" x="343.7926" y="-7.5" font-family="Helvetica,sans-Serif" font-size="10.00" fill="#000000">string</text>
</g>
<!-- Node1&#45;&gt;Node5 -->
<g id="edge5" class="edge">
<title>Node1&#45;&gt;Node5</title>
<path fill="none" stroke="#191970" d="M532.2003,-56.47C492.4709,-48.3808 434.6732,-35.9377 375.893,-20.1292"/>
<polygon fill="#191970" stroke="#191970" points="376.638,-16.7048 366.0699,-17.4579 374.801,-23.4595 376.638,-16.7048"/>
</g>
<!-- Node6 -->
<g id="node7" class="node">
<title>Node6</title>
<polygon fill="none" stroke="#bfbfbf" points="384.2926,-.5 384.2926,-19.5 453.2926,-19.5 453.2926,-.5 384.2926,-.5"/>
<text text-anchor="middle" x="418.7926" y="-7.5" font-family="Helvetica,sans-Serif" font-size="10.00" fill="#000000">type_traits</text>
</g>
<!-- Node1&#45;&gt;Node6 -->
<g id="edge6" class="edge">
<title>Node1&#45;&gt;Node6</title>
<path fill="none" stroke="#191970" d="M552.9438,-56.3733C526.1223,-47.1016 485.3799,-33.0178 455.8328,-22.804"/>
<polygon fill="#191970" stroke="#191970" points="456.8728,-19.4603 446.278,-19.5011 454.5858,-26.0762 456.8728,-19.4603"/>
</g>
<!-- Node8 -->
<g id="node9" class="node">
<title>Node8</title>
<polygon fill="none" stroke="#bfbfbf" points="17.7926,-56.5 17.7926,-75.5 59.7926,-75.5 59.7926,-56.5 17.7926,-56.5"/>
<text text-anchor="middle" x="38.7926" y="-63.5" font-family="Helvetica,sans-Serif" font-size="10.00" fill="#000000">array</text>
</g>
<!-- Node7&#45;&gt;Node8 -->
<g id="edge8" class="edge">
<title>Node7&#45;&gt;Node8</title>
<path fill="none" stroke="#191970" d="M92.7926,-117.8906C83.0807,-108.5581 68.1287,-94.1902 56.4185,-82.9374"/>
<polygon fill="#191970" stroke="#191970" points="58.5692,-80.15 48.9336,-75.7449 53.719,-85.1974 58.5692,-80.15"/>
</g>
<!-- Node7&#45;&gt;Node9 -->
<g id="edge9" class="edge">
<title>Node7&#45;&gt;Node9</title>
<path fill="none" stroke="#191970" d="M101.7132,-117.9309C100.4862,-103.9109 99.5019,-77.1578 106.7926,-56 110.3305,-45.7331 116.8671,-35.6738 123.1148,-27.5931"/>
<polygon fill="#191970" stroke="#191970" points="125.9714,-29.63 129.6251,-19.6851 120.5671,-25.1809 125.9714,-29.63"/>
</g>
<!-- Node10&#45;&gt;Node3 -->
<g id="edge11" class="edge">
<title>Node10&#45;&gt;Node3</title>
<path fill="none" stroke="#191970" d="M693.2578,-117.9459C719.5746,-109.4682 756.4081,-95.4076 784.7926,-76 804.2843,-62.6728 822.4367,-42.4888 834.201,-27.9517"/>
<polygon fill="#191970" stroke="#191970" points="837.2264,-29.7664 840.6553,-19.7418 831.7233,-25.4402 837.2264,-29.7664"/>
</g>
<!-- Node11&#45;&gt;Node1 -->
<g id="edge19" class="edge">
<title>Node11&#45;&gt;Node1</title>
<path fill="none" stroke="#191970" d="M372.1154,-117.9581C415.2896,-107.2082 485.5421,-89.7162 532.4511,-78.0365"/>
<polygon fill="#191970" stroke="#191970" points="533.5219,-81.3768 542.38,-75.5643 531.8306,-74.5842 533.5219,-81.3768"/>
</g>
<!-- Node11&#45;&gt;Node9 -->
<g id="edge13" class="edge">
<title>Node11&#45;&gt;Node9</title>
<path fill="none" stroke="#191970" d="M309.1449,-117.9963C286.0814,-108.661 251.0425,-93.3275 222.7926,-76 198.6944,-61.219 173.5128,-40.6408 157.0816,-26.4093"/>
<polygon fill="#191970" stroke="#191970" points="159.1624,-23.5786 149.3388,-19.6101 154.5434,-28.8385 159.1624,-23.5786"/>
</g>
<!-- Node12 -->
<g id="node13" class="node">
<title>Node12</title>
<polygon fill="none" stroke="#bfbfbf" points="231.7926,-56.5 231.7926,-75.5 283.7926,-75.5 283.7926,-56.5 231.7926,-56.5"/>
<text text-anchor="middle" x="257.7926" y="-63.5" font-family="Helvetica,sans-Serif" font-size="10.00" fill="#000000">cassert</text>
</g>
<!-- Node11&#45;&gt;Node12 -->
<g id="edge14" class="edge">
<title>Node11&#45;&gt;Node12</title>
<path fill="none" stroke="#191970" d="M321.9176,-117.8906C310.1629,-108.3786 291.944,-93.6357 277.9255,-82.2917"/>
<polygon fill="#191970" stroke="#191970" points="279.8104,-79.3146 269.8351,-75.7449 275.407,-84.7562 279.8104,-79.3146"/>
</g>
<!-- Node11&#45;&gt;Node13 -->
<g id="edge15" class="edge">
<title>Node11&#45;&gt;Node13</title>
<path fill="none" stroke="#191970" d="M304.4176,-117.8906C272.134,-107.3298 220.1391,-90.3208 184.538,-78.6747"/>
<polygon fill="#191970" stroke="#191970" points="185.554,-75.3246 174.9614,-75.5419 183.3775,-81.9776 185.554,-75.3246"/>
</g>
<!-- Node11&#45;&gt;Node14 -->
<g id="edge16" class="edge">
<title>Node11&#45;&gt;Node14</title>
<path fill="none" stroke="#191970" d="M333.1676,-117.8906C332.6132,-109.3657 331.7854,-96.6392 331.0885,-85.9235"/>
<polygon fill="#191970" stroke="#191970" points="334.5682,-85.4966 330.4264,-75.7449 327.5829,-85.951 334.5682,-85.4966"/>
</g>
<!-- Node11&#45;&gt;Node15 -->
<g id="edge17" class="edge">
<title>Node11&#45;&gt;Node15</title>
<path fill="none" stroke="#191970" d="M393.3713,-117.9581C462.8851,-106.825 577.5514,-88.4605 650.2955,-76.8101"/>
<polygon fill="#191970" stroke="#191970" points="650.9521,-80.2496 660.2727,-75.2122 649.845,-73.3377 650.9521,-80.2496"/>
</g>
<!-- Node16 -->
<g id="node17" class="node">
<title>Node16</title>
<polygon fill="none" stroke="#bfbfbf" points="696.7926,-.5 696.7926,-19.5 804.7926,-19.5 804.7926,-.5 696.7926,-.5"/>
<text text-anchor="middle" x="750.7926" y="-7.5" font-family="Helvetica,sans-Serif" font-size="10.00" fill="#000000">fairlogger/Logger.h</text>
</g>
<!-- Node15&#45;&gt;Node16 -->
<g id="edge18" class="edge">
<title>Node15&#45;&gt;Node16</title>
<path fill="none" stroke="#191970" d="M723.5408,-56.2455C728.0362,-48.617 734.4175,-37.7881 739.8751,-28.5267"/>
<polygon fill="#191970" stroke="#191970" points="743.0488,-30.035 745.1103,-19.6427 737.018,-26.4811 743.0488,-30.035"/>
</g>
<!-- Node17&#45;&gt;Node3 -->
<g id="edge24" class="edge">
<title>Node17&#45;&gt;Node3</title>
<path fill="none" stroke="#191970" d="M842.577,-112.1389C843.658,-90.9692 845.6062,-52.8174 846.7912,-29.6112"/>
<polygon fill="#191970" stroke="#191970" points="850.2899,-29.725 847.3045,-19.5595 843.299,-29.3679 850.2899,-29.725"/>
</g>
<!-- Node18 -->
<g id="node19" class="node">
<title>Node18</title>
<g id="a_node19"><a xlink:href="../../d2/d45/GPUCommonRtypes_8h.html" target="_top" xlink:title="GPUCommonRtypes.h">
<polygon fill="none" stroke="#000000" points="376.2926,-56.5 376.2926,-75.5 501.2926,-75.5 501.2926,-56.5 376.2926,-56.5"/>
<text text-anchor="middle" x="438.7926" y="-63.5" font-family="Helvetica,sans-Serif" font-size="10.00" fill="#000000">GPUCommonRtypes.h</text>
</a>
</g>
</g>
<!-- Node17&#45;&gt;Node18 -->
<g id="edge21" class="edge">
<title>Node17&#45;&gt;Node18</title>
<path fill="none" stroke="#191970" d="M754.7002,-113.692C751.0154,-113.1183 747.3675,-112.5523 743.7926,-112 664.3341,-99.7245 573.1677,-86.0252 511.358,-76.7947"/>
<polygon fill="#191970" stroke="#191970" points="511.7223,-73.3104 501.3152,-75.2957 510.6889,-80.2337 511.7223,-73.3104"/>
</g>
<!-- Node19 -->
<g id="node20" class="node">
<title>Node19</title>
<polygon fill="none" stroke="#bfbfbf" points="870.2926,-56.5 870.2926,-75.5 919.2926,-75.5 919.2926,-56.5 870.2926,-56.5"/>
<text text-anchor="middle" x="894.7926" y="-63.5" font-family="Helvetica,sans-Serif" font-size="10.00" fill="#000000">iosfwd</text>
</g>
<!-- Node17&#45;&gt;Node19 -->
<g id="edge23" class="edge">
<title>Node17&#45;&gt;Node19</title>
<path fill="none" stroke="#191970" d="M854.8938,-112.2977C862.404,-103.5831 871.8626,-92.6075 879.6853,-83.5302"/>
<polygon fill="#191970" stroke="#191970" points="882.4298,-85.707 886.3067,-75.8469 877.1271,-81.1372 882.4298,-85.707"/>
</g>
<!-- Node20 -->
<g id="node21" class="node">
<title>Node20</title>
<polygon fill="none" stroke="#bfbfbf" points="937.2926,-56.5 937.2926,-75.5 984.2926,-75.5 984.2926,-56.5 937.2926,-56.5"/>
<text text-anchor="middle" x="960.7926" y="-63.5" font-family="Helvetica,sans-Serif" font-size="10.00" fill="#000000">cmath</text>
</g>
<!-- Node17&#45;&gt;Node20 -->
<g id="edge25" class="edge">
<title>Node17&#45;&gt;Node20</title>
<path fill="none" stroke="#191970" d="M870.9033,-112.4554C889.975,-102.599 914.7408,-89.7999 933.4465,-80.1327"/>
<polygon fill="#191970" stroke="#191970" points="935.075,-83.2309 942.3518,-75.5303 931.8612,-77.0122 935.075,-83.2309"/>
</g>
<!-- Node21 -->
<g id="node22" class="node">
<title>Node21</title>
<g id="a_node22"><a xlink:href="../../d4/dc6/LHCConstants_8h.html" target="_top" xlink:title="Header to collect LHC related constants. ">
<polygon fill="none" stroke="#000000" points="1002.7926,-56.5 1002.7926,-75.5 1192.7926,-75.5 1192.7926,-56.5 1002.7926,-56.5"/>
<text text-anchor="middle" x="1097.7926" y="-63.5" font-family="Helvetica,sans-Serif" font-size="10.00" fill="#000000">CommonConstants/LHCConstants.h</text>
</a>
</g>
</g>
<!-- Node17&#45;&gt;Node21 -->
<g id="edge26" class="edge">
<title>Node17&#45;&gt;Node21</title>
<path fill="none" stroke="#191970" d="M904.4173,-112.4554C948.7239,-101.8114 1007.316,-87.7356 1048.3481,-77.8783"/>
<polygon fill="#191970" stroke="#191970" points="1049.2159,-81.2695 1058.1217,-75.5303 1047.5808,-74.4631 1049.2159,-81.2695"/>
</g>
<!-- Node18&#45;&gt;Node9 -->
<g id="edge22" class="edge">
<title>Node18&#45;&gt;Node9</title>
<path fill="none" stroke="#191970" d="M387.5617,-56.4369C328.2904,-45.3729 231.9814,-27.3952 178.2381,-17.3632"/>
<polygon fill="#191970" stroke="#191970" points="178.8712,-13.9209 168.3987,-15.5265 177.5866,-20.8021 178.8712,-13.9209"/>
</g>
</g>
</svg>
        <g id="navigator" transform="translate(0 0)" fill="#404254">
                <rect fill="#f2f5e9" fill-opacity="0.5" stroke="#606060" stroke-width=".5" x="0" y="0" width="60" height="60"/>
                <use id="zoomplus" xlink:href="#zoomPlus" x="17" y="9" onmousedown="handleZoom(evt,'in')"/>
                <use id="zoomminus" xlink:href="#zoomMin" x="42" y="9" onmousedown="handleZoom(evt,'out')"/>
                <use id="reset" xlink:href="#resetDef" x="30" y="36" onmousedown="handleReset()"/>
                <g id="arrowUp" xlink:href="#dirArrow" transform="translate(30 24)" onmousedown="handlePan(0,-1)">
                  <use xlink:href="#rim" fill="#404040">
                        <set attributeName="fill" to="#808080" begin="arrowUp.mouseover" end="arrowUp.mouseout"/>
                  </use>
                  <path fill="none" stroke="white" stroke-width="1.5" d="M0,-3.0v7 M-2.5,-0.5L0,-3.0L2.5,-0.5"/>
                </g>
                <g id="arrowRight" xlink:href="#dirArrow" transform="rotate(90) translate(36 -43)" onmousedown="handlePan(1,0)">
                  <use xlink:href="#rim" fill="#404040">
                        <set attributeName="fill" to="#808080" begin="arrowRight.mouseover" end="arrowRight.mouseout"/>
                  </use>
                  <path fill="none" stroke="white" stroke-width="1.5" d="M0,-3.0v7 M-2.5,-0.5L0,-3.0L2.5,-0.5"/>
                </g>
                <g id="arrowDown" xlink:href="#dirArrow" transform="rotate(180) translate(-30 -48)" onmousedown="handlePan(0,1)">
                  <use xlink:href="#rim" fill="#404040">
                        <set attributeName="fill" to="#808080" begin="arrowDown.mouseover" end="arrowDown.mouseout"/>
                  </use>
                  <path fill="none" stroke="white" stroke-width="1.5" d="M0,-3.0v7 M-2.5,-0.5L0,-3.0L2.5,-0.5"/>
                </g>
                <g id="arrowLeft" xlink:href="#dirArrow" transform="rotate(270) translate(-36 17)" onmousedown="handlePan(-1,0)">
                  <use xlink:href="#rim" fill="#404040">
                        <set attributeName="fill" to="#808080" begin="arrowLeft.mouseover" end="arrowLeft.mouseout"/>
                  </use>
                  <path fill="none" stroke="white" stroke-width="1.5" d="M0,-3.0v7 M-2.5,-0.5L0,-3.0L2.5,-0.5"/>
                </g>
        </g>
        <svg viewBox="0 0 15 15" width="100%" height="30px" preserveAspectRatio="xMaxYMin meet">
         <g id="arrow_out" transform="scale(0.3 0.3)">
          <a xlink:href="FDD_2include_2DataFormatsFDD_2RawEventData_8h__incl_org.svg" target="_base">
           <rect id="button" ry="5" rx="5" y="6" x="6" height="38" width="38"
                fill="#f2f5e9" fill-opacity="0.5" stroke="#606060" stroke-width="1.0"/>
           <path id="arrow"
             d="M 11.500037,31.436501 C 11.940474,20.09759 22.043105,11.32322 32.158766,21.979434 L 37.068811,17.246167 C 37.068811,17.246167 37.088388,32 37.088388,32 L 22.160133,31.978069 C 22.160133,31.978069 26.997745,27.140456 26.997745,27.140456 C 18.528582,18.264221 13.291696,25.230495 11.500037,31.436501 z"
             style="fill:#404040;"/>
          </a>
         </g>
        </svg>
</svg>
