<?xml version="1.0" encoding="UTF-8" standalone="no"?>
<!DOCTYPE svg PUBLIC "-//W3C//DTD SVG 1.1//EN"
 "http://www.w3.org/Graphics/SVG/1.1/DTD/svg11.dtd">
<!-- Generated by graphviz version 2.40.1 (20161225.0304)
 -->
<!-- Title: /home/travis/build/AliceO2Group/AliceO2/Detectors/TPC/base/include/TPCBase/PadRegionInfo.h Pages: 1 -->
<svg width="1871pt" height="352pt"
 viewBox="0.00 0.00 1870.50 352.00" xmlns="http://www.w3.org/2000/svg" xmlns:xlink="http://www.w3.org/1999/xlink">
<g id="graph0" class="graph" transform="scale(1 1) rotate(0) translate(4 348)">
<title>/home/travis/build/AliceO2Group/AliceO2/Detectors/TPC/base/include/TPCBase/PadRegionInfo.h</title>
<!-- Node0 -->
<g id="node1" class="node">
<title>Node0</title>
<polygon fill="#bfbfbf" stroke="#000000" points="355.5,-291.5 355.5,-343.5 508.5,-343.5 508.5,-291.5 355.5,-291.5"/>
<text text-anchor="start" x="363.5" y="-331.5" font-family="Helvetica,sans-Serif" font-size="10.00" fill="#000000">/home/travis/build</text>
<text text-anchor="start" x="363.5" y="-320.5" font-family="Helvetica,sans-Serif" font-size="10.00" fill="#000000">/AliceO2Group/AliceO2</text>
<text text-anchor="start" x="363.5" y="-309.5" font-family="Helvetica,sans-Serif" font-size="10.00" fill="#000000">/Detectors/TPC/base/include</text>
<text text-anchor="middle" x="432" y="-298.5" font-family="Helvetica,sans-Serif" font-size="10.00" fill="#000000">/TPCBase/PadRegionInfo.h</text>
</g>
<!-- Node1 -->
<g id="node2" class="node">
<title>Node1</title>
<polygon fill="none" stroke="#bfbfbf" points="300.5,-235.5 300.5,-254.5 347.5,-254.5 347.5,-235.5 300.5,-235.5"/>
<text text-anchor="middle" x="324" y="-242.5" font-family="Helvetica,sans-Serif" font-size="10.00" fill="#000000">vector</text>
</g>
<!-- Node0&#45;&gt;Node1 -->
<g id="edge1" class="edge">
<title>Node0&#45;&gt;Node1</title>
<path fill="none" stroke="#191970" d="M393.0095,-291.3258C377.4966,-280.912 360.1884,-269.2931 346.7865,-260.2965"/>
<polygon fill="#191970" stroke="#191970" points="348.4559,-257.2017 338.2024,-254.534 344.5543,-263.0136 348.4559,-257.2017"/>
</g>
<!-- Node2 -->
<g id="node3" class="node">
<title>Node2</title>
<g id="a_node3"><a xlink:href="../../d1/d73/Defs_8h.html" target="_top" xlink:title="DataFormatsTPC/Defs.h">
<polygon fill="none" stroke="#000000" points="365.5,-235.5 365.5,-254.5 498.5,-254.5 498.5,-235.5 365.5,-235.5"/>
<text text-anchor="middle" x="432" y="-242.5" font-family="Helvetica,sans-Serif" font-size="10.00" fill="#000000">DataFormatsTPC/Defs.h</text>
</a>
</g>
</g>
<!-- Node0&#45;&gt;Node2 -->
<g id="edge2" class="edge">
<title>Node0&#45;&gt;Node2</title>
<path fill="none" stroke="#191970" d="M432,-291.3258C432,-282.5142 432,-272.8397 432,-264.621"/>
<polygon fill="#191970" stroke="#191970" points="435.5001,-264.534 432,-254.534 428.5001,-264.534 435.5001,-264.534"/>
</g>
<!-- Node20 -->
<g id="node21" class="node">
<title>Node20</title>
<g id="a_node21"><a xlink:href="../../de/d41/PadPos_8h.html" target="_top" xlink:title="TPCBase/PadPos.h">
<polygon fill="none" stroke="#000000" points="517,-235.5 517,-254.5 623,-254.5 623,-235.5 517,-235.5"/>
<text text-anchor="middle" x="570" y="-242.5" font-family="Helvetica,sans-Serif" font-size="10.00" fill="#000000">TPCBase/PadPos.h</text>
</a>
</g>
</g>
<!-- Node0&#45;&gt;Node20 -->
<g id="edge22" class="edge">
<title>Node0&#45;&gt;Node20</title>
<path fill="none" stroke="#191970" d="M481.8212,-291.3258C502.4057,-280.5115 525.4639,-268.3976 542.8373,-259.2703"/>
<polygon fill="#191970" stroke="#191970" points="544.6277,-262.2833 551.8525,-254.534 541.372,-256.0865 544.6277,-262.2833"/>
</g>
<!-- Node3 -->
<g id="node4" class="node">
<title>Node3</title>
<polygon fill="none" stroke="#bfbfbf" points="356.5,-179.5 356.5,-198.5 403.5,-198.5 403.5,-179.5 356.5,-179.5"/>
<text text-anchor="middle" x="380" y="-186.5" font-family="Helvetica,sans-Serif" font-size="10.00" fill="#000000">cmath</text>
</g>
<!-- Node2&#45;&gt;Node3 -->
<g id="edge3" class="edge">
<title>Node2&#45;&gt;Node3</title>
<path fill="none" stroke="#191970" d="M422.9423,-235.2455C415.4858,-227.2155 404.7366,-215.6394 395.8583,-206.0781"/>
<polygon fill="#191970" stroke="#191970" points="398.3232,-203.589 388.9539,-198.6427 393.1937,-208.3522 398.3232,-203.589"/>
</g>
<!-- Node4 -->
<g id="node5" class="node">
<title>Node4</title>
<g id="a_node5"><a xlink:href="../../d1/da8/GPUROOTCartesianFwd_8h.html" target="_top" xlink:title="GPUROOTCartesianFwd.h">
<polygon fill="none" stroke="#000000" points="37,-118 37,-137 177,-137 177,-118 37,-118"/>
<text text-anchor="middle" x="107" y="-125" font-family="Helvetica,sans-Serif" font-size="10.00" fill="#000000">GPUROOTCartesianFwd.h</text>
</a>
</g>
</g>
<!-- Node2&#45;&gt;Node4 -->
<g id="edge4" class="edge">
<title>Node2&#45;&gt;Node4</title>
<path fill="none" stroke="#191970" d="M432.2245,-235.2538C431.9886,-220.6841 429.2342,-193.401 413,-179 375.6125,-145.8344 240.2436,-151.535 191,-143 183.3974,-141.6823 175.4152,-140.2599 167.5218,-138.8299"/>
<polygon fill="#191970" stroke="#191970" points="168.0719,-135.3726 157.6062,-137.0217 166.816,-142.259 168.0719,-135.3726"/>
</g>
<!-- Node8 -->
<g id="node9" class="node">
<title>Node8</title>
<g id="a_node9"><a xlink:href="../../dc/d73/Cartesian_8h.html" target="_top" xlink:title="MathUtils/Cartesian.h">
<polygon fill="none" stroke="#000000" points="786,-179.5 786,-198.5 908,-198.5 908,-179.5 786,-179.5"/>
<text text-anchor="middle" x="847" y="-186.5" font-family="Helvetica,sans-Serif" font-size="10.00" fill="#000000">MathUtils/Cartesian.h</text>
</a>
</g>
</g>
<!-- Node2&#45;&gt;Node8 -->
<g id="edge8" class="edge">
<title>Node2&#45;&gt;Node8</title>
<path fill="none" stroke="#191970" d="M498.6769,-236.0026C574.547,-225.7647 697.9758,-209.1093 775.7119,-198.6196"/>
<polygon fill="#191970" stroke="#191970" points="776.4557,-202.051 785.8978,-197.2451 775.5195,-195.1139 776.4557,-202.051"/>
</g>
<!-- Node5 -->
<g id="node6" class="node">
<title>Node5</title>
<g id="a_node6"><a xlink:href="../../df/d21/GPUCommonDef_8h.html" target="_top" xlink:title="GPUCommonDef.h">
<polygon fill="none" stroke="#000000" points="97.5,-56.5 97.5,-75.5 204.5,-75.5 204.5,-56.5 97.5,-56.5"/>
<text text-anchor="middle" x="151" y="-63.5" font-family="Helvetica,sans-Serif" font-size="10.00" fill="#000000">GPUCommonDef.h</text>
</a>
</g>
</g>
<!-- Node4&#45;&gt;Node5 -->
<g id="edge5" class="edge">
<title>Node4&#45;&gt;Node5</title>
<path fill="none" stroke="#191970" d="M113.875,-117.8906C120.3593,-108.8273 130.2414,-95.0149 138.1801,-83.9188"/>
<polygon fill="#191970" stroke="#191970" points="141.0559,-85.9143 144.0281,-75.7449 135.3629,-81.8412 141.0559,-85.9143"/>
</g>
<!-- Node6 -->
<g id="node7" class="node">
<title>Node6</title>
<g id="a_node7"><a xlink:href="../../d5/d93/GPUCommonDefSettings_8h.html" target="_top" xlink:title="GPUCommonDefSettings.h">
<polygon fill="none" stroke="#000000" points="0,-.5 0,-19.5 148,-19.5 148,-.5 0,-.5"/>
<text text-anchor="middle" x="74" y="-7.5" font-family="Helvetica,sans-Serif" font-size="10.00" fill="#000000">GPUCommonDefSettings.h</text>
</a>
</g>
</g>
<!-- Node5&#45;&gt;Node6 -->
<g id="edge6" class="edge">
<title>Node5&#45;&gt;Node6</title>
<path fill="none" stroke="#191970" d="M137.5876,-56.2455C125.9943,-47.814 109.0252,-35.4729 95.5322,-25.6598"/>
<polygon fill="#191970" stroke="#191970" points="97.4047,-22.6938 87.2587,-19.6427 93.2874,-28.355 97.4047,-22.6938"/>
</g>
<!-- Node7 -->
<g id="node8" class="node">
<title>Node7</title>
<g id="a_node8"><a xlink:href="../../da/d5a/GPUCommonDefAPI_8h.html" target="_top" xlink:title="GPUCommonDefAPI.h">
<polygon fill="none" stroke="#000000" points="166,-.5 166,-19.5 290,-19.5 290,-.5 166,-.5"/>
<text text-anchor="middle" x="228" y="-7.5" font-family="Helvetica,sans-Serif" font-size="10.00" fill="#000000">GPUCommonDefAPI.h</text>
</a>
</g>
</g>
<!-- Node5&#45;&gt;Node7 -->
<g id="edge7" class="edge">
<title>Node5&#45;&gt;Node7</title>
<path fill="none" stroke="#191970" d="M164.4124,-56.2455C176.0057,-47.814 192.9748,-35.4729 206.4678,-25.6598"/>
<polygon fill="#191970" stroke="#191970" points="208.7126,-28.355 214.7413,-19.6427 204.5953,-22.6938 208.7126,-28.355"/>
</g>
<!-- Node8&#45;&gt;Node4 -->
<g id="edge21" class="edge">
<title>Node8&#45;&gt;Node4</title>
<path fill="none" stroke="#191970" d="M785.7281,-187.0041C669.4075,-182.7058 408.7424,-170.6346 191,-143 182.0329,-141.8619 172.5738,-140.3871 163.3655,-138.8004"/>
<polygon fill="#191970" stroke="#191970" points="163.9657,-135.3523 153.507,-137.0454 162.7387,-142.244 163.9657,-135.3523"/>
</g>
<!-- Node8&#45;&gt;Node5 -->
<g id="edge9" class="edge">
<title>Node8&#45;&gt;Node5</title>
<path fill="none" stroke="#191970" d="M785.8116,-186.9569C638.9361,-181.7008 274.8823,-166.4557 225,-143 210.6221,-136.2392 182.3286,-104.0192 165.1962,-83.4591"/>
<polygon fill="#191970" stroke="#191970" points="167.8784,-81.2104 158.8159,-75.722 162.4778,-85.6639 167.8784,-81.2104"/>
</g>
<!-- Node9 -->
<g id="node10" class="node">
<title>Node9</title>
<g id="a_node10"><a xlink:href="../../d2/d45/GPUCommonRtypes_8h.html" target="_top" xlink:title="GPUCommonRtypes.h">
<polygon fill="none" stroke="#000000" points="233.5,-118 233.5,-137 358.5,-137 358.5,-118 233.5,-118"/>
<text text-anchor="middle" x="296" y="-125" font-family="Helvetica,sans-Serif" font-size="10.00" fill="#000000">GPUCommonRtypes.h</text>
</a>
</g>
</g>
<!-- Node8&#45;&gt;Node9 -->
<g id="edge10" class="edge">
<title>Node8&#45;&gt;Node9</title>
<path fill="none" stroke="#191970" d="M785.848,-185.4127C694.5118,-179.5391 517.2182,-166.1463 368,-143 360.8769,-141.8951 353.3994,-140.5251 346.069,-139.0605"/>
<polygon fill="#191970" stroke="#191970" points="346.7132,-135.6197 336.2114,-137.0205 345.2946,-142.4744 346.7132,-135.6197"/>
</g>
<!-- Node11 -->
<g id="node12" class="node">
<title>Node11</title>
<polygon fill="none" stroke="#bfbfbf" points="377,-112.5 377,-142.5 541,-142.5 541,-112.5 377,-112.5"/>
<text text-anchor="start" x="385" y="-130.5" font-family="Helvetica,sans-Serif" font-size="10.00" fill="#000000">Math/GenVector/Displacement</text>
<text text-anchor="middle" x="459" y="-119.5" font-family="Helvetica,sans-Serif" font-size="10.00" fill="#000000">Vector3D.h</text>
</g>
<!-- Node8&#45;&gt;Node11 -->
<g id="edge12" class="edge">
<title>Node8&#45;&gt;Node11</title>
<path fill="none" stroke="#191970" d="M785.7385,-179.7125C728.0764,-170.9177 639.0232,-157.1996 551.3757,-143.0485"/>
<polygon fill="#191970" stroke="#191970" points="551.6808,-139.5524 541.2502,-141.4107 550.563,-146.4626 551.6808,-139.5524"/>
</g>
<!-- Node12 -->
<g id="node13" class="node">
<title>Node12</title>
<polygon fill="none" stroke="#bfbfbf" points="559.5,-118 559.5,-137 748.5,-137 748.5,-118 559.5,-118"/>
<text text-anchor="middle" x="654" y="-125" font-family="Helvetica,sans-Serif" font-size="10.00" fill="#000000">Math/GenVector/PositionVector3D.h</text>
</g>
<!-- Node8&#45;&gt;Node12 -->
<g id="edge13" class="edge">
<title>Node8&#45;&gt;Node12</title>
<path fill="none" stroke="#191970" d="M816.8438,-179.3906C783.7015,-168.8298 730.3238,-151.8208 693.7758,-140.1747"/>
<polygon fill="#191970" stroke="#191970" points="694.5351,-136.7433 683.9445,-137.0419 692.4098,-143.4129 694.5351,-136.7433"/>
</g>
<!-- Node13 -->
<g id="node14" class="node">
<title>Node13</title>
<polygon fill="none" stroke="#bfbfbf" points="767,-118 767,-137 927,-137 927,-118 767,-118"/>
<text text-anchor="middle" x="847" y="-125" font-family="Helvetica,sans-Serif" font-size="10.00" fill="#000000">Math/GenVector/Rotation3D.h</text>
</g>
<!-- Node8&#45;&gt;Node13 -->
<g id="edge14" class="edge">
<title>Node8&#45;&gt;Node13</title>
<path fill="none" stroke="#191970" d="M847,-179.3906C847,-170.8657 847,-158.1392 847,-147.4235"/>
<polygon fill="#191970" stroke="#191970" points="850.5001,-147.2448 847,-137.2449 843.5001,-147.2449 850.5001,-147.2448"/>
</g>
<!-- Node14 -->
<g id="node15" class="node">
<title>Node14</title>
<polygon fill="none" stroke="#bfbfbf" points="945,-118 945,-137 1113,-137 1113,-118 945,-118"/>
<text text-anchor="middle" x="1029" y="-125" font-family="Helvetica,sans-Serif" font-size="10.00" fill="#000000">Math/GenVector/Transform3D.h</text>
</g>
<!-- Node8&#45;&gt;Node14 -->
<g id="edge15" class="edge">
<title>Node8&#45;&gt;Node14</title>
<path fill="none" stroke="#191970" d="M875.4375,-179.3906C906.5572,-168.8749 956.5964,-151.966 991.0485,-140.3243"/>
<polygon fill="#191970" stroke="#191970" points="992.4089,-143.5591 1000.7622,-137.0419 990.168,-136.9274 992.4089,-143.5591"/>
</g>
<!-- Node15 -->
<g id="node16" class="node">
<title>Node15</title>
<polygon fill="none" stroke="#bfbfbf" points="1131.5,-118 1131.5,-137 1304.5,-137 1304.5,-118 1131.5,-118"/>
<text text-anchor="middle" x="1218" y="-125" font-family="Helvetica,sans-Serif" font-size="10.00" fill="#000000">Math/GenVector/Translation3D.h</text>
</g>
<!-- Node8&#45;&gt;Node15 -->
<g id="edge16" class="edge">
<title>Node8&#45;&gt;Node15</title>
<path fill="none" stroke="#191970" d="M904.5617,-179.4581C971.0029,-168.4443 1080.1384,-150.3531 1150.5159,-138.6867"/>
<polygon fill="#191970" stroke="#191970" points="1151.3156,-142.102 1160.6085,-137.0137 1150.1708,-135.1962 1151.3156,-142.102"/>
</g>
<!-- Node16 -->
<g id="node17" class="node">
<title>Node16</title>
<polygon fill="none" stroke="#bfbfbf" points="1323,-112.5 1323,-142.5 1487,-142.5 1487,-112.5 1323,-112.5"/>
<text text-anchor="start" x="1331" y="-130.5" font-family="Helvetica,sans-Serif" font-size="10.00" fill="#000000">Math/GenVector/Displacement</text>
<text text-anchor="middle" x="1405" y="-119.5" font-family="Helvetica,sans-Serif" font-size="10.00" fill="#000000">Vector2D.h</text>
</g>
<!-- Node8&#45;&gt;Node16 -->
<g id="edge17" class="edge">
<title>Node8&#45;&gt;Node16</title>
<path fill="none" stroke="#191970" d="M908.3556,-184.3443C995.8599,-177.3967 1161.7417,-163.0888 1312.774,-143.1098"/>
<polygon fill="#191970" stroke="#191970" points="1313.2505,-146.5774 1322.6998,-141.7857 1312.3248,-139.6388 1313.2505,-146.5774"/>
</g>
<!-- Node17 -->
<g id="node18" class="node">
<title>Node17</title>
<polygon fill="none" stroke="#bfbfbf" points="1505.5,-118 1505.5,-137 1694.5,-137 1694.5,-118 1505.5,-118"/>
<text text-anchor="middle" x="1600" y="-125" font-family="Helvetica,sans-Serif" font-size="10.00" fill="#000000">Math/GenVector/PositionVector2D.h</text>
</g>
<!-- Node8&#45;&gt;Node17 -->
<g id="edge18" class="edge">
<title>Node8&#45;&gt;Node17</title>
<path fill="none" stroke="#191970" d="M908.4355,-186.2288C1023.8171,-180.673 1280.7001,-166.6384 1496,-143 1507.4383,-141.7442 1519.5492,-140.167 1531.3079,-138.5029"/>
<polygon fill="#191970" stroke="#191970" points="1532.1295,-141.9206 1541.5249,-137.0241 1531.1266,-134.9928 1532.1295,-141.9206"/>
</g>
<!-- Node18 -->
<g id="node19" class="node">
<title>Node18</title>
<polygon fill="none" stroke="#bfbfbf" points="1713,-118 1713,-137 1795,-137 1795,-118 1713,-118"/>
<text text-anchor="middle" x="1754" y="-125" font-family="Helvetica,sans-Serif" font-size="10.00" fill="#000000">TGeoMatrix.h</text>
</g>
<!-- Node8&#45;&gt;Node18 -->
<g id="edge19" class="edge">
<title>Node8&#45;&gt;Node18</title>
<path fill="none" stroke="#191970" d="M908.1622,-187.6776C1077.649,-183.7013 1550.9153,-170.4007 1704,-143 1708.4995,-142.1946 1713.161,-141.1074 1717.7472,-139.8802"/>
<polygon fill="#191970" stroke="#191970" points="1718.9483,-143.176 1727.5747,-137.025 1716.9952,-136.454 1718.9483,-143.176"/>
</g>
<!-- Node19 -->
<g id="node20" class="node">
<title>Node19</title>
<polygon fill="none" stroke="#bfbfbf" points="1813.5,-118 1813.5,-137 1862.5,-137 1862.5,-118 1813.5,-118"/>
<text text-anchor="middle" x="1838" y="-125" font-family="Helvetica,sans-Serif" font-size="10.00" fill="#000000">iosfwd</text>
</g>
<!-- Node8&#45;&gt;Node19 -->
<g id="edge20" class="edge">
<title>Node8&#45;&gt;Node19</title>
<path fill="none" stroke="#191970" d="M908.1491,-187.4039C1105.4513,-182.0674 1717.4144,-163.9947 1804,-143 1806.3406,-142.4325 1808.7173,-141.7036 1811.0705,-140.8721"/>
<polygon fill="#191970" stroke="#191970" points="1812.5316,-144.0559 1820.4586,-137.0265 1809.8782,-137.5783 1812.5316,-144.0559"/>
</g>
<!-- Node10 -->
<g id="node11" class="node">
<title>Node10</title>
<polygon fill="none" stroke="#bfbfbf" points="266.5,-56.5 266.5,-75.5 325.5,-75.5 325.5,-56.5 266.5,-56.5"/>
<text text-anchor="middle" x="296" y="-63.5" font-family="Helvetica,sans-Serif" font-size="10.00" fill="#000000">Rtypes.h</text>
</g>
<!-- Node9&#45;&gt;Node10 -->
<g id="edge11" class="edge">
<title>Node9&#45;&gt;Node10</title>
<path fill="none" stroke="#191970" d="M296,-117.8906C296,-109.3657 296,-96.6392 296,-85.9235"/>
<polygon fill="#191970" stroke="#191970" points="299.5001,-85.7448 296,-75.7449 292.5001,-85.7449 299.5001,-85.7448"/>
</g>
</g>
</svg>
