<?xml version="1.0" encoding="UTF-8" standalone="no"?>
<!DOCTYPE svg PUBLIC "-//W3C//DTD SVG 1.1//EN"
 "http://www.w3.org/Graphics/SVG/1.1/DTD/svg11.dtd">
<!-- Generated by graphviz version 2.40.1 (20161225.0304)
 -->
<!-- Title: /home/travis/build/AliceO2Group/AliceO2/Analysis/DataModel/include/PIDBase/ParamBase.h Pages: 1 -->
<!--zoomable 317 -->
<svg id="main" version="1.1" xmlns="http://www.w3.org/2000/svg" xmlns:xlink="http://www.w3.org/1999/xlink" xml:space="preserve" onload="init(evt)">
<style type="text/css"><![CDATA[
.edge:hover path { stroke: red; }
.edge:hover polygon { stroke: red; fill: red; }
]]></style>
<script type="text/javascript"><![CDATA[
var edges = document.getElementsByTagName('g');
if (edges && edges.length) {
  for (var i=0;i<edges.length;i++) {
    if (edges[i].id.substr(0,4)=='edge') {
      edges[i].setAttribute('class','edge');
    }
  }
}
]]></script>
        <defs>
                <circle id="rim" cx="0" cy="0" r="7"/>
                <circle id="rim2" cx="0" cy="0" r="3.5"/>
                <g id="zoomPlus">
                        <use xlink:href="#rim" fill="#404040">
                                <set attributeName="fill" to="#808080" begin="zoomplus.mouseover" end="zoomplus.mouseout"/>
                        </use>
                        <path d="M-4,0h8M0,-4v8" fill="none" stroke="white" stroke-width="1.5" pointer-events="none"/>
                </g>
                <g id="zoomMin">
                        <use xlink:href="#rim" fill="#404040">
                                <set attributeName="fill" to="#808080" begin="zoomminus.mouseover" end="zoomminus.mouseout"/>
                        </use>
                        <path d="M-4,0h8" fill="none" stroke="white" stroke-width="1.5" pointer-events="none"/>
                </g>
                <g id="dirArrow">
                        <path fill="none" stroke="white" stroke-width="1.5" d="M0,-3.0v7 M-2.5,-0.5L0,-3.0L2.5,-0.5"/>
                </g>
               <g id="resetDef">
                       <use xlink:href="#rim2" fill="#404040">
                               <set attributeName="fill" to="#808080" begin="reset.mouseover" end="reset.mouseout"/>
                       </use>
               </g>
        </defs>

<script type="text/javascript">
var viewWidth = 854;
var viewHeight = 317;
var sectionId = 'dynsection-1';
</script>
<script xlink:href="../../svgpan.js"/>
<svg id="graph" class="graph">
<g id="viewport">
<title>/home/travis/build/AliceO2Group/AliceO2/Analysis/DataModel/include/PIDBase/ParamBase.h</title>
<!-- Node2 -->
<g id="node1" class="node">
<title>Node2</title>
<polygon fill="#bfbfbf" stroke="#000000" points="346,-256.5 346,-308.5 501,-308.5 501,-256.5 346,-256.5"/>
<text text-anchor="start" x="354" y="-296.5" font-family="Helvetica,sans-Serif" font-size="10.00" fill="#000000">/home/travis/build</text>
<text text-anchor="start" x="354" y="-285.5" font-family="Helvetica,sans-Serif" font-size="10.00" fill="#000000">/AliceO2Group/AliceO2</text>
<text text-anchor="start" x="354" y="-274.5" font-family="Helvetica,sans-Serif" font-size="10.00" fill="#000000">/Analysis/DataModel/include</text>
<text text-anchor="middle" x="423.5" y="-263.5" font-family="Helvetica,sans-Serif" font-size="10.00" fill="#000000">/PIDBase/ParamBase.h</text>
</g>
<!-- Node3 -->
<g id="node2" class="node">
<title>Node3</title>
<g id="a_node2"><a xlink:href="../../d4/dca/BetheBloch_8h.html" target="_top" xlink:title="Implementation for the TPC PID response of the BB parametrization. ">
<polygon fill="none" stroke="#000000" points="0,-167.5 0,-219.5 155,-219.5 155,-167.5 0,-167.5"/>
<text text-anchor="start" x="8" y="-207.5" font-family="Helvetica,sans-Serif" font-size="10.00" fill="#000000">/home/travis/build</text>
<text text-anchor="start" x="8" y="-196.5" font-family="Helvetica,sans-Serif" font-size="10.00" fill="#000000">/AliceO2Group/AliceO2</text>
<text text-anchor="start" x="8" y="-185.5" font-family="Helvetica,sans-Serif" font-size="10.00" fill="#000000">/Analysis/DataModel/include</text>
<text text-anchor="middle" x="77.5" y="-174.5" font-family="Helvetica,sans-Serif" font-size="10.00" fill="#000000">/PID/BetheBloch.h</text>
</a>
</g>
</g>
<!-- Node2&#45;&gt;Node3 -->
<g id="edge1" class="edge">
<title>Node2&#45;&gt;Node3</title>
<path fill="none" stroke="#191970" d="M335.8893,-262.889C285.304,-251.2046 220.5878,-235.6403 163.5,-220 160.7878,-219.2569 158.0317,-218.4873 155.2515,-217.6986"/>
<polygon fill="#191970" stroke="#191970" points="335.2812,-266.3404 345.8115,-265.173 336.8515,-259.5188 335.2812,-266.3404"/>
</g>
<!-- Node5 -->
<g id="node4" class="node">
<title>Node5</title>
<g id="a_node4"><a xlink:href="../../d3/da9/TOFReso_8h.html" target="_top" xlink:title="Implementation for the TOF PID response of the expected times resolution. ">
<polygon fill="none" stroke="#000000" points="346,-167.5 346,-219.5 501,-219.5 501,-167.5 346,-167.5"/>
<text text-anchor="start" x="354" y="-207.5" font-family="Helvetica,sans-Serif" font-size="10.00" fill="#000000">/home/travis/build</text>
<text text-anchor="start" x="354" y="-196.5" font-family="Helvetica,sans-Serif" font-size="10.00" fill="#000000">/AliceO2Group/AliceO2</text>
<text text-anchor="start" x="354" y="-185.5" font-family="Helvetica,sans-Serif" font-size="10.00" fill="#000000">/Analysis/DataModel/include</text>
<text text-anchor="middle" x="423.5" y="-174.5" font-family="Helvetica,sans-Serif" font-size="10.00" fill="#000000">/PID/TOFReso.h</text>
</a>
</g>
</g>
<!-- Node2&#45;&gt;Node5 -->
<g id="edge3" class="edge">
<title>Node2&#45;&gt;Node5</title>
<path fill="none" stroke="#191970" d="M423.5,-246.1155C423.5,-237.2061 423.5,-227.8475 423.5,-219.5341"/>
<polygon fill="#191970" stroke="#191970" points="420.0001,-246.2784 423.5,-256.2784 427.0001,-246.2785 420.0001,-246.2784"/>
</g>
<!-- Node7 -->
<g id="node6" class="node">
<title>Node7</title>
<g id="a_node6"><a xlink:href="../../d0/d5c/TPCReso_8h.html" target="_top" xlink:title="Implementation for the TPC PID response of the BB resolution. ">
<polygon fill="none" stroke="#000000" points="173,-167.5 173,-219.5 328,-219.5 328,-167.5 173,-167.5"/>
<text text-anchor="start" x="181" y="-207.5" font-family="Helvetica,sans-Serif" font-size="10.00" fill="#000000">/home/travis/build</text>
<text text-anchor="start" x="181" y="-196.5" font-family="Helvetica,sans-Serif" font-size="10.00" fill="#000000">/AliceO2Group/AliceO2</text>
<text text-anchor="start" x="181" y="-185.5" font-family="Helvetica,sans-Serif" font-size="10.00" fill="#000000">/Analysis/DataModel/include</text>
<text text-anchor="middle" x="250.5" y="-174.5" font-family="Helvetica,sans-Serif" font-size="10.00" fill="#000000">/PID/TPCReso.h</text>
</a>
</g>
</g>
<!-- Node2&#45;&gt;Node7 -->
<g id="edge5" class="edge">
<title>Node2&#45;&gt;Node7</title>
<path fill="none" stroke="#191970" d="M363.3675,-251.5648C343.0573,-241.1162 320.6027,-229.5644 301.1057,-219.5341"/>
<polygon fill="#191970" stroke="#191970" points="362.0366,-254.816 372.53,-256.2784 365.2388,-248.5914 362.0366,-254.816"/>
</g>
<!-- Node8 -->
<g id="node7" class="node">
<title>Node8</title>
<g id="a_node7"><a xlink:href="../../dc/d68/DetectorResponse_8h.html" target="_top" xlink:title="Handler for any detector (or other entity) response. This provides the basic quantities computed by a...">
<polygon fill="none" stroke="#000000" points="519,-167.5 519,-219.5 680,-219.5 680,-167.5 519,-167.5"/>
<text text-anchor="start" x="527" y="-207.5" font-family="Helvetica,sans-Serif" font-size="10.00" fill="#000000">/home/travis/build</text>
<text text-anchor="start" x="527" y="-196.5" font-family="Helvetica,sans-Serif" font-size="10.00" fill="#000000">/AliceO2Group/AliceO2</text>
<text text-anchor="start" x="527" y="-185.5" font-family="Helvetica,sans-Serif" font-size="10.00" fill="#000000">/Analysis/DataModel/include</text>
<text text-anchor="middle" x="599.5" y="-174.5" font-family="Helvetica,sans-Serif" font-size="10.00" fill="#000000">/PIDBase/DetectorResponse.h</text>
</a>
</g>
</g>
<!-- Node2&#45;&gt;Node8 -->
<g id="edge7" class="edge">
<title>Node2&#45;&gt;Node8</title>
<path fill="none" stroke="#191970" d="M484.3962,-251.7059C505.1317,-241.2203 528.0923,-229.6096 548.0167,-219.5341"/>
<polygon fill="#191970" stroke="#191970" points="482.6983,-248.6424 475.3539,-256.2784 485.8572,-254.8891 482.6983,-248.6424"/>
</g>
<!-- Node13 -->
<g id="node12" class="node">
<title>Node13</title>
<g id="a_node12"><a xlink:href="../../d7/d11/ParamBase_8cxx.html" target="_top" xlink:title="Set of utilities to handle the parametrization of the PID response for each detector These are the ba...">
<polygon fill="none" stroke="#000000" points="698.5,-167.5 698.5,-219.5 832.5,-219.5 832.5,-167.5 698.5,-167.5"/>
<text text-anchor="start" x="706.5" y="-207.5" font-family="Helvetica,sans-Serif" font-size="10.00" fill="#000000">/home/travis/build</text>
<text text-anchor="start" x="706.5" y="-196.5" font-family="Helvetica,sans-Serif" font-size="10.00" fill="#000000">/AliceO2Group/AliceO2</text>
<text text-anchor="start" x="706.5" y="-185.5" font-family="Helvetica,sans-Serif" font-size="10.00" fill="#000000">/Analysis/DataModel/src</text>
<text text-anchor="middle" x="765.5" y="-174.5" font-family="Helvetica,sans-Serif" font-size="10.00" fill="#000000">/ParamBase.cxx</text>
</a>
</g>
</g>
<!-- Node2&#45;&gt;Node13 -->
<g id="edge12" class="edge">
<title>Node2&#45;&gt;Node13</title>
<path fill="none" stroke="#191970" d="M511.0624,-264.3473C563.2311,-252.9327 630.5547,-237.1505 689.5,-220 692.4518,-219.1412 695.4575,-218.2342 698.4861,-217.2938"/>
<polygon fill="#191970" stroke="#191970" points="510.1984,-260.9533 501.1709,-266.4991 511.6864,-267.7934 510.1984,-260.9533"/>
</g>
<!-- Node4 -->
<g id="node3" class="node">
<title>Node4</title>
<g id="a_node3"><a xlink:href="../../d1/dc6/handleParamTPCBetheBloch_8cxx.html" target="_top" xlink:title="A simple tool to produce Bethe Bloch parametrization objects for the TPC PID Response. ">
<polygon fill="none" stroke="#000000" points="71.5,-78.5 71.5,-130.5 249.5,-130.5 249.5,-78.5 71.5,-78.5"/>
<text text-anchor="start" x="79.5" y="-118.5" font-family="Helvetica,sans-Serif" font-size="10.00" fill="#000000">/home/travis/build</text>
<text text-anchor="start" x="79.5" y="-107.5" font-family="Helvetica,sans-Serif" font-size="10.00" fill="#000000">/AliceO2Group/AliceO2</text>
<text text-anchor="start" x="79.5" y="-96.5" font-family="Helvetica,sans-Serif" font-size="10.00" fill="#000000">/Analysis/DataModel/src</text>
<text text-anchor="middle" x="160.5" y="-85.5" font-family="Helvetica,sans-Serif" font-size="10.00" fill="#000000">/handleParamTPCBetheBloch.cxx</text>
</a>
</g>
</g>
<!-- Node3&#45;&gt;Node4 -->
<g id="edge2" class="edge">
<title>Node3&#45;&gt;Node4</title>
<path fill="none" stroke="#191970" d="M109.0065,-159.7159C118.0234,-150.0472 127.7096,-139.6608 136.221,-130.5341"/>
<polygon fill="#191970" stroke="#191970" points="106.2144,-157.578 101.9538,-167.2784 111.3338,-162.3522 106.2144,-157.578"/>
</g>
<!-- Node6 -->
<g id="node5" class="node">
<title>Node6</title>
<g id="a_node5"><a xlink:href="../../d0/d84/handleParamTOFReso_8cxx.html" target="_top" xlink:title="/home/travis/build\l/AliceO2Group/AliceO2\l/Analysis/DataModel/src\l/handleParamTOFReso.cxx">
<polygon fill="none" stroke="#000000" points="350.5,-78.5 350.5,-130.5 496.5,-130.5 496.5,-78.5 350.5,-78.5"/>
<text text-anchor="start" x="358.5" y="-118.5" font-family="Helvetica,sans-Serif" font-size="10.00" fill="#000000">/home/travis/build</text>
<text text-anchor="start" x="358.5" y="-107.5" font-family="Helvetica,sans-Serif" font-size="10.00" fill="#000000">/AliceO2Group/AliceO2</text>
<text text-anchor="start" x="358.5" y="-96.5" font-family="Helvetica,sans-Serif" font-size="10.00" fill="#000000">/Analysis/DataModel/src</text>
<text text-anchor="middle" x="423.5" y="-85.5" font-family="Helvetica,sans-Serif" font-size="10.00" fill="#000000">/handleParamTOFReso.cxx</text>
</a>
</g>
</g>
<!-- Node5&#45;&gt;Node6 -->
<g id="edge4" class="edge">
<title>Node5&#45;&gt;Node6</title>
<path fill="none" stroke="#191970" d="M423.5,-157.1155C423.5,-148.2061 423.5,-138.8475 423.5,-130.5341"/>
<polygon fill="#191970" stroke="#191970" points="420.0001,-157.2784 423.5,-167.2784 427.0001,-157.2785 420.0001,-157.2784"/>
</g>
<!-- Node7&#45;&gt;Node4 -->
<g id="edge6" class="edge">
<title>Node7&#45;&gt;Node4</title>
<path fill="none" stroke="#191970" d="M216.6265,-160.0029C206.767,-150.2529 196.1472,-139.7511 186.8267,-130.5341"/>
<polygon fill="#191970" stroke="#191970" points="214.4123,-162.7356 223.9838,-167.2784 219.3343,-157.7583 214.4123,-162.7356"/>
</g>
<!-- Node9 -->
<g id="node8" class="node">
<title>Node9</title>
<g id="a_node8"><a xlink:href="../../d9/d66/PIDTOF_8h.html" target="_top" xlink:title="Implementation of the TOF detector response for PID. ">
<polygon fill="none" stroke="#000000" points="518,-78.5 518,-130.5 673,-130.5 673,-78.5 518,-78.5"/>
<text text-anchor="start" x="526" y="-118.5" font-family="Helvetica,sans-Serif" font-size="10.00" fill="#000000">/home/travis/build</text>
<text text-anchor="start" x="526" y="-107.5" font-family="Helvetica,sans-Serif" font-size="10.00" fill="#000000">/AliceO2Group/AliceO2</text>
<text text-anchor="start" x="526" y="-96.5" font-family="Helvetica,sans-Serif" font-size="10.00" fill="#000000">/Analysis/DataModel/include</text>
<text text-anchor="middle" x="595.5" y="-85.5" font-family="Helvetica,sans-Serif" font-size="10.00" fill="#000000">/PID/PIDTOF.h</text>
</a>
</g>
</g>
<!-- Node8&#45;&gt;Node9 -->
<g id="edge8" class="edge">
<title>Node8&#45;&gt;Node9</title>
<path fill="none" stroke="#191970" d="M597.8647,-157.1155C597.4643,-148.2061 597.0437,-138.8475 596.6701,-130.5341"/>
<polygon fill="#191970" stroke="#191970" points="594.376,-157.4457 598.3215,-167.2784 601.3689,-157.1313 594.376,-157.4457"/>
</g>
<!-- Node11 -->
<g id="node10" class="node">
<title>Node11</title>
<g id="a_node10"><a xlink:href="../../df/d83/PIDTPC_8h.html" target="_top" xlink:title="Implementation of the TPC detector response for PID. ">
<polygon fill="none" stroke="#000000" points="691,-78.5 691,-130.5 846,-130.5 846,-78.5 691,-78.5"/>
<text text-anchor="start" x="699" y="-118.5" font-family="Helvetica,sans-Serif" font-size="10.00" fill="#000000">/home/travis/build</text>
<text text-anchor="start" x="699" y="-107.5" font-family="Helvetica,sans-Serif" font-size="10.00" fill="#000000">/AliceO2Group/AliceO2</text>
<text text-anchor="start" x="699" y="-96.5" font-family="Helvetica,sans-Serif" font-size="10.00" fill="#000000">/Analysis/DataModel/include</text>
<text text-anchor="middle" x="768.5" y="-85.5" font-family="Helvetica,sans-Serif" font-size="10.00" fill="#000000">/PID/PIDTPC.h</text>
</a>
</g>
</g>
<!-- Node8&#45;&gt;Node11 -->
<g id="edge10" class="edge">
<title>Node8&#45;&gt;Node11</title>
<path fill="none" stroke="#191970" d="M658.2421,-162.5648C678.0827,-152.1162 700.0181,-140.5644 719.0644,-130.5341"/>
<polygon fill="#191970" stroke="#191970" points="656.5087,-159.5219 649.2915,-167.2784 659.7705,-165.7156 656.5087,-159.5219"/>
</g>
<!-- Node10 -->
<g id="node9" class="node">
<title>Node10</title>
<g id="a_node9"><a xlink:href="../../d5/d53/pidTOF_8cxx.html" target="_top" xlink:title="/home/travis/build\l/AliceO2Group/AliceO2\l/Analysis/Tasks/pidTOF.cxx">
<polygon fill="none" stroke="#000000" points="522.5,-.5 522.5,-41.5 668.5,-41.5 668.5,-.5 522.5,-.5"/>
<text text-anchor="start" x="530.5" y="-29.5" font-family="Helvetica,sans-Serif" font-size="10.00" fill="#000000">/home/travis/build</text>
<text text-anchor="start" x="530.5" y="-18.5" font-family="Helvetica,sans-Serif" font-size="10.00" fill="#000000">/AliceO2Group/AliceO2</text>
<text text-anchor="middle" x="595.5" y="-7.5" font-family="Helvetica,sans-Serif" font-size="10.00" fill="#000000">/Analysis/Tasks/pidTOF.cxx</text>
</a>
</g>
</g>
<!-- Node9&#45;&gt;Node10 -->
<g id="edge9" class="edge">
<title>Node9&#45;&gt;Node10</title>
<path fill="none" stroke="#191970" d="M595.5,-67.8168C595.5,-58.8649 595.5,-49.5976 595.5,-41.6941"/>
<polygon fill="#191970" stroke="#191970" points="592.0001,-68.08 595.5,-78.0801 599.0001,-68.0801 592.0001,-68.08"/>
</g>
<!-- Node12 -->
<g id="node11" class="node">
<title>Node12</title>
<g id="a_node11"><a xlink:href="../../db/da2/pidTPC_8cxx.html" target="_top" xlink:title="/home/travis/build\l/AliceO2Group/AliceO2\l/Analysis/Tasks/pidTPC.cxx">
<polygon fill="none" stroke="#000000" points="694.5,-.5 694.5,-41.5 842.5,-41.5 842.5,-.5 694.5,-.5"/>
<text text-anchor="start" x="702.5" y="-29.5" font-family="Helvetica,sans-Serif" font-size="10.00" fill="#000000">/home/travis/build</text>
<text text-anchor="start" x="702.5" y="-18.5" font-family="Helvetica,sans-Serif" font-size="10.00" fill="#000000">/AliceO2Group/AliceO2</text>
<text text-anchor="middle" x="768.5" y="-7.5" font-family="Helvetica,sans-Serif" font-size="10.00" fill="#000000">/Analysis/Tasks/pidTPC.cxx</text>
</a>
</g>
</g>
<!-- Node11&#45;&gt;Node12 -->
<g id="edge11" class="edge">
<title>Node11&#45;&gt;Node12</title>
<path fill="none" stroke="#191970" d="M768.5,-67.8168C768.5,-58.8649 768.5,-49.5976 768.5,-41.6941"/>
<polygon fill="#191970" stroke="#191970" points="765.0001,-68.08 768.5,-78.0801 772.0001,-68.0801 765.0001,-68.08"/>
</g>
</g>
</svg>
        <g id="navigator" transform="translate(0 0)" fill="#404254">
                <rect fill="#f2f5e9" fill-opacity="0.5" stroke="#606060" stroke-width=".5" x="0" y="0" width="60" height="60"/>
                <use id="zoomplus" xlink:href="#zoomPlus" x="17" y="9" onmousedown="handleZoom(evt,'in')"/>
                <use id="zoomminus" xlink:href="#zoomMin" x="42" y="9" onmousedown="handleZoom(evt,'out')"/>
                <use id="reset" xlink:href="#resetDef" x="30" y="36" onmousedown="handleReset()"/>
                <g id="arrowUp" xlink:href="#dirArrow" transform="translate(30 24)" onmousedown="handlePan(0,-1)">
                  <use xlink:href="#rim" fill="#404040">
                        <set attributeName="fill" to="#808080" begin="arrowUp.mouseover" end="arrowUp.mouseout"/>
                  </use>
                  <path fill="none" stroke="white" stroke-width="1.5" d="M0,-3.0v7 M-2.5,-0.5L0,-3.0L2.5,-0.5"/>
                </g>
                <g id="arrowRight" xlink:href="#dirArrow" transform="rotate(90) translate(36 -43)" onmousedown="handlePan(1,0)">
                  <use xlink:href="#rim" fill="#404040">
                        <set attributeName="fill" to="#808080" begin="arrowRight.mouseover" end="arrowRight.mouseout"/>
                  </use>
                  <path fill="none" stroke="white" stroke-width="1.5" d="M0,-3.0v7 M-2.5,-0.5L0,-3.0L2.5,-0.5"/>
                </g>
                <g id="arrowDown" xlink:href="#dirArrow" transform="rotate(180) translate(-30 -48)" onmousedown="handlePan(0,1)">
                  <use xlink:href="#rim" fill="#404040">
                        <set attributeName="fill" to="#808080" begin="arrowDown.mouseover" end="arrowDown.mouseout"/>
                  </use>
                  <path fill="none" stroke="white" stroke-width="1.5" d="M0,-3.0v7 M-2.5,-0.5L0,-3.0L2.5,-0.5"/>
                </g>
                <g id="arrowLeft" xlink:href="#dirArrow" transform="rotate(270) translate(-36 17)" onmousedown="handlePan(-1,0)">
                  <use xlink:href="#rim" fill="#404040">
                        <set attributeName="fill" to="#808080" begin="arrowLeft.mouseover" end="arrowLeft.mouseout"/>
                  </use>
                  <path fill="none" stroke="white" stroke-width="1.5" d="M0,-3.0v7 M-2.5,-0.5L0,-3.0L2.5,-0.5"/>
                </g>
        </g>
        <svg viewBox="0 0 15 15" width="100%" height="30px" preserveAspectRatio="xMaxYMin meet">
         <g id="arrow_out" transform="scale(0.3 0.3)">
          <a xlink:href="ParamBase_8h__dep__incl_org.svg" target="_base">
           <rect id="button" ry="5" rx="5" y="6" x="6" height="38" width="38"
                fill="#f2f5e9" fill-opacity="0.5" stroke="#606060" stroke-width="1.0"/>
           <path id="arrow"
             d="M 11.500037,31.436501 C 11.940474,20.09759 22.043105,11.32322 32.158766,21.979434 L 37.068811,17.246167 C 37.068811,17.246167 37.088388,32 37.088388,32 L 22.160133,31.978069 C 22.160133,31.978069 26.997745,27.140456 26.997745,27.140456 C 18.528582,18.264221 13.291696,25.230495 11.500037,31.436501 z"
             style="fill:#404040;"/>
          </a>
         </g>
        </svg>
</svg>
