<?xml version="1.0" encoding="UTF-8" standalone="no"?>
<!DOCTYPE svg PUBLIC "-//W3C//DTD SVG 1.1//EN"
 "http://www.w3.org/Graphics/SVG/1.1/DTD/svg11.dtd">
<!-- Generated by graphviz version 2.40.1 (20161225.0304)
 -->
<!-- Title: o2::framework::Configurable&lt; T, IP &gt; Pages: 1 -->
<!--zoomable 299 -->
<svg id="main" version="1.1" xmlns="http://www.w3.org/2000/svg" xmlns:xlink="http://www.w3.org/1999/xlink" xml:space="preserve" onload="init(evt)">
<style type="text/css"><![CDATA[
.edge:hover path { stroke: red; }
.edge:hover polygon { stroke: red; fill: red; }
]]></style>
<script type="text/javascript"><![CDATA[
var edges = document.getElementsByTagName('g');
if (edges && edges.length) {
  for (var i=0;i<edges.length;i++) {
    if (edges[i].id.substr(0,4)=='edge') {
      edges[i].setAttribute('class','edge');
    }
  }
}
]]></script>
        <defs>
                <circle id="rim" cx="0" cy="0" r="7"/>
                <circle id="rim2" cx="0" cy="0" r="3.5"/>
                <g id="zoomPlus">
                        <use xlink:href="#rim" fill="#404040">
                                <set attributeName="fill" to="#808080" begin="zoomplus.mouseover" end="zoomplus.mouseout"/>
                        </use>
                        <path d="M-4,0h8M0,-4v8" fill="none" stroke="white" stroke-width="1.5" pointer-events="none"/>
                </g>
                <g id="zoomMin">
                        <use xlink:href="#rim" fill="#404040">
                                <set attributeName="fill" to="#808080" begin="zoomminus.mouseover" end="zoomminus.mouseout"/>
                        </use>
                        <path d="M-4,0h8" fill="none" stroke="white" stroke-width="1.5" pointer-events="none"/>
                </g>
                <g id="dirArrow">
                        <path fill="none" stroke="white" stroke-width="1.5" d="M0,-3.0v7 M-2.5,-0.5L0,-3.0L2.5,-0.5"/>
                </g>
               <g id="resetDef">
                       <use xlink:href="#rim2" fill="#404040">
                               <set attributeName="fill" to="#808080" begin="reset.mouseover" end="reset.mouseout"/>
                       </use>
               </g>
        </defs>

<script type="text/javascript">
var viewWidth = 1812;
var viewHeight = 299;
var sectionId = 'dynsection-0';
</script>
<script xlink:href="../../svgpan.js"/>
<svg id="graph" class="graph">
<g id="viewport">
<title>o2::framework::Configurable&lt; T, IP &gt;</title>
<!-- Node0 -->
<g id="node1" class="node">
<title>Node0</title>
<polygon fill="#bfbfbf" stroke="#000000" points="828,-127.5 828,-195.5 983,-195.5 983,-127.5 828,-127.5"/>
<text text-anchor="start" x="836" y="-183.5" font-family="Helvetica,sans-Serif" font-size="10.00" fill="#000000">o2::framework::Configurable</text>
<text text-anchor="middle" x="905.5" y="-172.5" font-family="Helvetica,sans-Serif" font-size="10.00" fill="#000000">&lt; T, IP &gt;</text>
<polyline fill="none" stroke="#000000" points="828,-165.5 983,-165.5 "/>
<text text-anchor="middle" x="905.5" y="-153.5" font-family="Helvetica,sans-Serif" font-size="10.00" fill="#000000"> </text>
<polyline fill="none" stroke="#000000" points="828,-146.5 983,-146.5 "/>
<text text-anchor="start" x="836" y="-134.5" font-family="Helvetica,sans-Serif" font-size="10.00" fill="#000000">+ Configurable()</text>
</g>
<!-- Node2 -->
<g id="node3" class="node">
<title>Node2</title>
<g id="a_node3"><a xlink:href="../../d8/d71/structo2_1_1framework_1_1Configurable.html" target="_top" xlink:title="{o2::framework::Configurable\l\&lt; long \&gt;\n||+ Configurable()\l}">
<polygon fill="none" stroke="#000000" points="0,-.5 0,-68.5 155,-68.5 155,-.5 0,-.5"/>
<text text-anchor="start" x="8" y="-56.5" font-family="Helvetica,sans-Serif" font-size="10.00" fill="#000000">o2::framework::Configurable</text>
<text text-anchor="middle" x="77.5" y="-45.5" font-family="Helvetica,sans-Serif" font-size="10.00" fill="#000000">&lt; long &gt;</text>
<polyline fill="none" stroke="#000000" points="0,-38.5 155,-38.5 "/>
<text text-anchor="middle" x="77.5" y="-26.5" font-family="Helvetica,sans-Serif" font-size="10.00" fill="#000000"> </text>
<polyline fill="none" stroke="#000000" points="0,-19.5 155,-19.5 "/>
<text text-anchor="start" x="8" y="-7.5" font-family="Helvetica,sans-Serif" font-size="10.00" fill="#000000">+ Configurable()</text>
</a>
</g>
</g>
<!-- Node0&#45;&gt;Node2 -->
<g id="edge2" class="edge">
<title>Node0&#45;&gt;Node2</title>
<path fill="none" stroke="#ffa500" d="M817.5472,-156.5392C671.594,-147.8874 385.6047,-129.0393 286.5,-109 241.9469,-99.9912 194.0613,-83.4588 155.3813,-68.2528"/>
<polygon fill="#ffa500" stroke="#ffa500" points="817.6206,-160.0496 827.8094,-157.1444 818.0328,-153.0617 817.6206,-160.0496"/>
<text text-anchor="middle" x="310" y="-95.5" font-family="Helvetica,sans-Serif" font-size="10.00" fill="#000000"> &lt; long &gt;</text>
</g>
<!-- Node3 -->
<g id="node4" class="node">
<title>Node3</title>
<g id="a_node4"><a xlink:href="../../d8/d71/structo2_1_1framework_1_1Configurable.html" target="_top" xlink:title="{o2::framework::Configurable\l\&lt; o2::test::SimplePODClass \&gt;\n||+ Configurable()\l}">
<polygon fill="none" stroke="#000000" points="173,-.5 173,-68.5 336,-68.5 336,-.5 173,-.5"/>
<text text-anchor="start" x="181" y="-56.5" font-family="Helvetica,sans-Serif" font-size="10.00" fill="#000000">o2::framework::Configurable</text>
<text text-anchor="middle" x="254.5" y="-45.5" font-family="Helvetica,sans-Serif" font-size="10.00" fill="#000000">&lt; o2::test::SimplePODClass &gt;</text>
<polyline fill="none" stroke="#000000" points="173,-38.5 336,-38.5 "/>
<text text-anchor="middle" x="254.5" y="-26.5" font-family="Helvetica,sans-Serif" font-size="10.00" fill="#000000"> </text>
<polyline fill="none" stroke="#000000" points="173,-19.5 336,-19.5 "/>
<text text-anchor="start" x="181" y="-7.5" font-family="Helvetica,sans-Serif" font-size="10.00" fill="#000000">+ Configurable()</text>
</a>
</g>
</g>
<!-- Node0&#45;&gt;Node3 -->
<g id="edge3" class="edge">
<title>Node0&#45;&gt;Node3</title>
<path fill="none" stroke="#ffa500" d="M817.7687,-156.9884C691.3477,-149.7457 464.5566,-133.7732 386.5,-109 357.4051,-99.766 327.575,-83.6038 303.6497,-68.688"/>
<polygon fill="#ffa500" stroke="#ffa500" points="817.6318,-160.4861 827.8138,-157.5576 818.0279,-153.4973 817.6318,-160.4861"/>
<text text-anchor="middle" x="461.5" y="-95.5" font-family="Helvetica,sans-Serif" font-size="10.00" fill="#000000"> &lt; o2::test::SimplePODClass &gt;</text>
</g>
<!-- Node4 -->
<g id="node5" class="node">
<title>Node4</title>
<g id="a_node5"><a xlink:href="../../d8/d71/structo2_1_1framework_1_1Configurable.html" target="_top" xlink:title="{o2::framework::Configurable\l\&lt; o2::analysis::SimpleInclusiveCut \&gt;\n||+ Configurable()\l}">
<polygon fill="none" stroke="#000000" points="354,-.5 354,-68.5 551,-68.5 551,-.5 354,-.5"/>
<text text-anchor="start" x="362" y="-56.5" font-family="Helvetica,sans-Serif" font-size="10.00" fill="#000000">o2::framework::Configurable</text>
<text text-anchor="middle" x="452.5" y="-45.5" font-family="Helvetica,sans-Serif" font-size="10.00" fill="#000000">&lt; o2::analysis::SimpleInclusiveCut &gt;</text>
<polyline fill="none" stroke="#000000" points="354,-38.5 551,-38.5 "/>
<text text-anchor="middle" x="452.5" y="-26.5" font-family="Helvetica,sans-Serif" font-size="10.00" fill="#000000"> </text>
<polyline fill="none" stroke="#000000" points="354,-19.5 551,-19.5 "/>
<text text-anchor="start" x="362" y="-7.5" font-family="Helvetica,sans-Serif" font-size="10.00" fill="#000000">+ Configurable()</text>
</a>
</g>
</g>
<!-- Node0&#45;&gt;Node4 -->
<g id="edge4" class="edge">
<title>Node0&#45;&gt;Node4</title>
<path fill="none" stroke="#ffa500" d="M817.6904,-155.2262C752.4659,-148.6237 662.0915,-135.3375 586.5,-109 557.8454,-99.0162 528.1386,-83.1506 503.9991,-68.6216"/>
<polygon fill="#ffa500" stroke="#ffa500" points="817.643,-158.7383 827.9365,-156.2295 818.3252,-151.7716 817.643,-158.7383"/>
<text text-anchor="start" x="586.5" y="-101" font-family="Helvetica,sans-Serif" font-size="10.00" fill="#000000"> &lt; o2::analysis::SimpleInclusive</text>
<text text-anchor="middle" x="665" y="-90" font-family="Helvetica,sans-Serif" font-size="10.00" fill="#000000">Cut &gt;</text>
</g>
<!-- Node5 -->
<g id="node6" class="node">
<title>Node5</title>
<g id="a_node6"><a xlink:href="../../d8/d71/structo2_1_1framework_1_1Configurable.html" target="_top" xlink:title="{o2::framework::Configurable\l\&lt; double \&gt;\n||+ Configurable()\l}">
<polygon fill="none" stroke="#000000" points="569,-.5 569,-68.5 724,-68.5 724,-.5 569,-.5"/>
<text text-anchor="start" x="577" y="-56.5" font-family="Helvetica,sans-Serif" font-size="10.00" fill="#000000">o2::framework::Configurable</text>
<text text-anchor="middle" x="646.5" y="-45.5" font-family="Helvetica,sans-Serif" font-size="10.00" fill="#000000">&lt; double &gt;</text>
<polyline fill="none" stroke="#000000" points="569,-38.5 724,-38.5 "/>
<text text-anchor="middle" x="646.5" y="-26.5" font-family="Helvetica,sans-Serif" font-size="10.00" fill="#000000"> </text>
<polyline fill="none" stroke="#000000" points="569,-19.5 724,-19.5 "/>
<text text-anchor="start" x="577" y="-7.5" font-family="Helvetica,sans-Serif" font-size="10.00" fill="#000000">+ Configurable()</text>
</a>
</g>
</g>
<!-- Node0&#45;&gt;Node5 -->
<g id="edge5" class="edge">
<title>Node0&#45;&gt;Node5</title>
<path fill="none" stroke="#ffa500" d="M821.0243,-123.0909C811.043,-118.4068 801.0246,-113.6373 791.5,-109 765.1632,-96.1771 736.4211,-81.5453 711.5235,-68.6632"/>
<polygon fill="#ffa500" stroke="#ffa500" points="819.6236,-126.2996 830.165,-127.3624 822.5872,-119.9579 819.6236,-126.2996"/>
<text text-anchor="middle" x="821" y="-95.5" font-family="Helvetica,sans-Serif" font-size="10.00" fill="#000000"> &lt; double &gt;</text>
</g>
<!-- Node6 -->
<g id="node7" class="node">
<title>Node6</title>
<g id="a_node7"><a xlink:href="../../d8/d71/structo2_1_1framework_1_1Configurable.html" target="_top" xlink:title="{o2::framework::Configurable\l\&lt; configurableCut \&gt;\n||+ Configurable()\l}">
<polygon fill="none" stroke="#000000" points="742,-.5 742,-68.5 897,-68.5 897,-.5 742,-.5"/>
<text text-anchor="start" x="750" y="-56.5" font-family="Helvetica,sans-Serif" font-size="10.00" fill="#000000">o2::framework::Configurable</text>
<text text-anchor="middle" x="819.5" y="-45.5" font-family="Helvetica,sans-Serif" font-size="10.00" fill="#000000">&lt; configurableCut &gt;</text>
<polyline fill="none" stroke="#000000" points="742,-38.5 897,-38.5 "/>
<text text-anchor="middle" x="819.5" y="-26.5" font-family="Helvetica,sans-Serif" font-size="10.00" fill="#000000"> </text>
<polyline fill="none" stroke="#000000" points="742,-19.5 897,-19.5 "/>
<text text-anchor="start" x="750" y="-7.5" font-family="Helvetica,sans-Serif" font-size="10.00" fill="#000000">+ Configurable()</text>
</a>
</g>
</g>
<!-- Node0&#45;&gt;Node6 -->
<g id="edge6" class="edge">
<title>Node0&#45;&gt;Node6</title>
<path fill="none" stroke="#ffa500" d="M874.404,-118.9452C872.0463,-115.5952 869.7218,-112.2515 867.5,-109 858.559,-95.9153 849.0425,-81.2996 840.8609,-68.503"/>
<polygon fill="#ffa500" stroke="#ffa500" points="871.6489,-121.1104 880.2933,-127.2362 877.3558,-117.0568 871.6489,-121.1104"/>
<text text-anchor="middle" x="919" y="-95.5" font-family="Helvetica,sans-Serif" font-size="10.00" fill="#000000"> &lt; configurableCut &gt;</text>
</g>
<!-- Node7 -->
<g id="node8" class="node">
<title>Node7</title>
<g id="a_node8"><a xlink:href="../../d8/d71/structo2_1_1framework_1_1Configurable.html" target="_top" xlink:title="{o2::framework::Configurable\l\&lt; std::string \&gt;\n||+ Configurable()\l}">
<polygon fill="none" stroke="#000000" points="915,-.5 915,-68.5 1070,-68.5 1070,-.5 915,-.5"/>
<text text-anchor="start" x="923" y="-56.5" font-family="Helvetica,sans-Serif" font-size="10.00" fill="#000000">o2::framework::Configurable</text>
<text text-anchor="middle" x="992.5" y="-45.5" font-family="Helvetica,sans-Serif" font-size="10.00" fill="#000000">&lt; std::string &gt;</text>
<polyline fill="none" stroke="#000000" points="915,-38.5 1070,-38.5 "/>
<text text-anchor="middle" x="992.5" y="-26.5" font-family="Helvetica,sans-Serif" font-size="10.00" fill="#000000"> </text>
<polyline fill="none" stroke="#000000" points="915,-19.5 1070,-19.5 "/>
<text text-anchor="start" x="923" y="-7.5" font-family="Helvetica,sans-Serif" font-size="10.00" fill="#000000">+ Configurable()</text>
</a>
</g>
</g>
<!-- Node0&#45;&gt;Node7 -->
<g id="edge7" class="edge">
<title>Node0&#45;&gt;Node7</title>
<path fill="none" stroke="#ffa500" d="M961.5853,-120.3375C964.8487,-116.7259 967.8674,-112.9382 970.5,-109 978.5196,-97.0034 983.6786,-82.0202 986.9674,-68.6428"/>
<polygon fill="#ffa500" stroke="#ffa500" points="959.0759,-117.8977 954.5883,-127.4952 964.0815,-122.7909 959.0759,-117.8977"/>
<text text-anchor="middle" x="1018" y="-95.5" font-family="Helvetica,sans-Serif" font-size="10.00" fill="#000000"> &lt; std::string &gt;</text>
</g>
<!-- Node8 -->
<g id="node9" class="node">
<title>Node8</title>
<g id="a_node9"><a xlink:href="../../d8/d71/structo2_1_1framework_1_1Configurable.html" target="_top" xlink:title="{o2::framework::Configurable\l\&lt; float \&gt;\n||+ Configurable()\l}">
<polygon fill="none" stroke="#000000" points="1088,-.5 1088,-68.5 1243,-68.5 1243,-.5 1088,-.5"/>
<text text-anchor="start" x="1096" y="-56.5" font-family="Helvetica,sans-Serif" font-size="10.00" fill="#000000">o2::framework::Configurable</text>
<text text-anchor="middle" x="1165.5" y="-45.5" font-family="Helvetica,sans-Serif" font-size="10.00" fill="#000000">&lt; float &gt;</text>
<polyline fill="none" stroke="#000000" points="1088,-38.5 1243,-38.5 "/>
<text text-anchor="middle" x="1165.5" y="-26.5" font-family="Helvetica,sans-Serif" font-size="10.00" fill="#000000"> </text>
<polyline fill="none" stroke="#000000" points="1088,-19.5 1243,-19.5 "/>
<text text-anchor="start" x="1096" y="-7.5" font-family="Helvetica,sans-Serif" font-size="10.00" fill="#000000">+ Configurable()</text>
</a>
</g>
</g>
<!-- Node0&#45;&gt;Node8 -->
<g id="edge8" class="edge">
<title>Node0&#45;&gt;Node8</title>
<path fill="none" stroke="#ffa500" d="M993.0014,-136.4732C1015.2083,-128.8312 1038.6653,-119.5987 1059.5,-109 1081.5532,-97.7814 1104.2254,-82.4488 1122.9128,-68.6089"/>
<polygon fill="#ffa500" stroke="#ffa500" points="991.5979,-133.2527 983.2375,-139.7607 993.8316,-139.8868 991.5979,-133.2527"/>
<text text-anchor="middle" x="1119.5" y="-95.5" font-family="Helvetica,sans-Serif" font-size="10.00" fill="#000000"> &lt; float &gt;</text>
</g>
<!-- Node9 -->
<g id="node10" class="node">
<title>Node9</title>
<g id="a_node10"><a xlink:href="../../d8/d71/structo2_1_1framework_1_1Configurable.html" target="_top" xlink:title="{o2::framework::Configurable\l\&lt; int \&gt;\n||+ Configurable()\l}">
<polygon fill="none" stroke="#000000" points="1261,-.5 1261,-68.5 1416,-68.5 1416,-.5 1261,-.5"/>
<text text-anchor="start" x="1269" y="-56.5" font-family="Helvetica,sans-Serif" font-size="10.00" fill="#000000">o2::framework::Configurable</text>
<text text-anchor="middle" x="1338.5" y="-45.5" font-family="Helvetica,sans-Serif" font-size="10.00" fill="#000000">&lt; int &gt;</text>
<polyline fill="none" stroke="#000000" points="1261,-38.5 1416,-38.5 "/>
<text text-anchor="middle" x="1338.5" y="-26.5" font-family="Helvetica,sans-Serif" font-size="10.00" fill="#000000"> </text>
<polyline fill="none" stroke="#000000" points="1261,-19.5 1416,-19.5 "/>
<text text-anchor="start" x="1269" y="-7.5" font-family="Helvetica,sans-Serif" font-size="10.00" fill="#000000">+ Configurable()</text>
</a>
</g>
</g>
<!-- Node0&#45;&gt;Node9 -->
<g id="edge9" class="edge">
<title>Node0&#45;&gt;Node9</title>
<path fill="none" stroke="#ffa500" d="M993.0958,-145.7984C1039.4251,-136.6672 1097.0125,-124.0005 1147.5,-109 1195.37,-94.7772 1205.9909,-87.1861 1252.5,-69 1255.1968,-67.9455 1257.9396,-66.8687 1260.7085,-65.7779"/>
<polygon fill="#ffa500" stroke="#ffa500" points="992.2315,-142.401 983.0866,-147.7509 993.5718,-149.2715 992.2315,-142.401"/>
<text text-anchor="middle" x="1226" y="-95.5" font-family="Helvetica,sans-Serif" font-size="10.00" fill="#000000"> &lt; int &gt;</text>
</g>
<!-- Node10 -->
<g id="node11" class="node">
<title>Node10</title>
<g id="a_node11"><a xlink:href="../../d8/d71/structo2_1_1framework_1_1Configurable.html" target="_top" xlink:title="{o2::framework::Configurable\l\&lt; o2::analysis::DptDptBinningCuts \&gt;\n||+ Configurable()\l}">
<polygon fill="none" stroke="#000000" points="1434,-.5 1434,-68.5 1631,-68.5 1631,-.5 1434,-.5"/>
<text text-anchor="start" x="1442" y="-56.5" font-family="Helvetica,sans-Serif" font-size="10.00" fill="#000000">o2::framework::Configurable</text>
<text text-anchor="middle" x="1532.5" y="-45.5" font-family="Helvetica,sans-Serif" font-size="10.00" fill="#000000">&lt; o2::analysis::DptDptBinningCuts &gt;</text>
<polyline fill="none" stroke="#000000" points="1434,-38.5 1631,-38.5 "/>
<text text-anchor="middle" x="1532.5" y="-26.5" font-family="Helvetica,sans-Serif" font-size="10.00" fill="#000000"> </text>
<polyline fill="none" stroke="#000000" points="1434,-19.5 1631,-19.5 "/>
<text text-anchor="start" x="1442" y="-7.5" font-family="Helvetica,sans-Serif" font-size="10.00" fill="#000000">+ Configurable()</text>
</a>
</g>
</g>
<!-- Node0&#45;&gt;Node10 -->
<g id="edge10" class="edge">
<title>Node0&#45;&gt;Node10</title>
<path fill="none" stroke="#ffa500" d="M993.2991,-150.8835C1097.5659,-137.132 1276.1639,-109.959 1425.5,-69 1428.2293,-68.2514 1430.9928,-67.477 1433.7776,-66.6819"/>
<polygon fill="#ffa500" stroke="#ffa500" points="992.5959,-147.4455 983.1341,-152.2126 993.5035,-154.3864 992.5959,-147.4455"/>
<text text-anchor="start" x="1341.5" y="-101" font-family="Helvetica,sans-Serif" font-size="10.00" fill="#000000"> &lt; o2::analysis::DptDptBinning</text>
<text text-anchor="middle" x="1417" y="-90" font-family="Helvetica,sans-Serif" font-size="10.00" fill="#000000">Cuts &gt;</text>
</g>
<!-- Node11 -->
<g id="node12" class="node">
<title>Node11</title>
<g id="a_node12"><a xlink:href="../../d8/d71/structo2_1_1framework_1_1Configurable.html" target="_top" xlink:title="{o2::framework::Configurable\l\&lt; bool \&gt;\n||+ Configurable()\l}">
<polygon fill="none" stroke="#000000" points="1649,-.5 1649,-68.5 1804,-68.5 1804,-.5 1649,-.5"/>
<text text-anchor="start" x="1657" y="-56.5" font-family="Helvetica,sans-Serif" font-size="10.00" fill="#000000">o2::framework::Configurable</text>
<text text-anchor="middle" x="1726.5" y="-45.5" font-family="Helvetica,sans-Serif" font-size="10.00" fill="#000000">&lt; bool &gt;</text>
<polyline fill="none" stroke="#000000" points="1649,-38.5 1804,-38.5 "/>
<text text-anchor="middle" x="1726.5" y="-26.5" font-family="Helvetica,sans-Serif" font-size="10.00" fill="#000000"> </text>
<polyline fill="none" stroke="#000000" points="1649,-19.5 1804,-19.5 "/>
<text text-anchor="start" x="1657" y="-7.5" font-family="Helvetica,sans-Serif" font-size="10.00" fill="#000000">+ Configurable()</text>
</a>
</g>
</g>
<!-- Node0&#45;&gt;Node11 -->
<g id="edge11" class="edge">
<title>Node0&#45;&gt;Node11</title>
<path fill="none" stroke="#ffa500" d="M993.3179,-158.6961C1109.3349,-153.8553 1319.6638,-141.1374 1496.5,-109 1561.8528,-97.1231 1577.58,-90.2868 1640.5,-69 1643.243,-68.072 1646.0254,-67.104 1648.8281,-66.1061"/>
<polygon fill="#ffa500" stroke="#ffa500" points="992.9239,-155.2092 983.0746,-159.1132 993.2088,-162.2034 992.9239,-155.2092"/>
<text text-anchor="middle" x="1609" y="-95.5" font-family="Helvetica,sans-Serif" font-size="10.00" fill="#000000"> &lt; bool &gt;</text>
</g>
<!-- Node1 -->
<g id="node2" class="node">
<title>Node1</title>
<polygon fill="none" stroke="#bfbfbf" points="891,-233.5 891,-290.5 920,-290.5 920,-233.5 891,-233.5"/>
<text text-anchor="middle" x="905.5" y="-278.5" font-family="Helvetica,sans-Serif" font-size="10.00" fill="#000000">IP</text>
<polyline fill="none" stroke="#bfbfbf" points="891,-271.5 920,-271.5 "/>
<text text-anchor="middle" x="905.5" y="-259.5" font-family="Helvetica,sans-Serif" font-size="10.00" fill="#000000"> </text>
<polyline fill="none" stroke="#bfbfbf" points="891,-252.5 920,-252.5 "/>
<text text-anchor="middle" x="905.5" y="-240.5" font-family="Helvetica,sans-Serif" font-size="10.00" fill="#000000"> </text>
</g>
<!-- Node1&#45;&gt;Node0 -->
<g id="edge1" class="edge">
<title>Node1&#45;&gt;Node0</title>
<path fill="none" stroke="#191970" d="M905.5,-223.1903C905.5,-214.1667 905.5,-204.6233 905.5,-195.8097"/>
<polygon fill="none" stroke="#191970" points="902.0001,-223.4695 905.5,-233.4696 909.0001,-223.4696 902.0001,-223.4695"/>
</g>
</g>
</svg>
        <g id="navigator" transform="translate(0 0)" fill="#404254">
                <rect fill="#f2f5e9" fill-opacity="0.5" stroke="#606060" stroke-width=".5" x="0" y="0" width="60" height="60"/>
                <use id="zoomplus" xlink:href="#zoomPlus" x="17" y="9" onmousedown="handleZoom(evt,'in')"/>
                <use id="zoomminus" xlink:href="#zoomMin" x="42" y="9" onmousedown="handleZoom(evt,'out')"/>
                <use id="reset" xlink:href="#resetDef" x="30" y="36" onmousedown="handleReset()"/>
                <g id="arrowUp" xlink:href="#dirArrow" transform="translate(30 24)" onmousedown="handlePan(0,-1)">
                  <use xlink:href="#rim" fill="#404040">
                        <set attributeName="fill" to="#808080" begin="arrowUp.mouseover" end="arrowUp.mouseout"/>
                  </use>
                  <path fill="none" stroke="white" stroke-width="1.5" d="M0,-3.0v7 M-2.5,-0.5L0,-3.0L2.5,-0.5"/>
                </g>
                <g id="arrowRight" xlink:href="#dirArrow" transform="rotate(90) translate(36 -43)" onmousedown="handlePan(1,0)">
                  <use xlink:href="#rim" fill="#404040">
                        <set attributeName="fill" to="#808080" begin="arrowRight.mouseover" end="arrowRight.mouseout"/>
                  </use>
                  <path fill="none" stroke="white" stroke-width="1.5" d="M0,-3.0v7 M-2.5,-0.5L0,-3.0L2.5,-0.5"/>
                </g>
                <g id="arrowDown" xlink:href="#dirArrow" transform="rotate(180) translate(-30 -48)" onmousedown="handlePan(0,1)">
                  <use xlink:href="#rim" fill="#404040">
                        <set attributeName="fill" to="#808080" begin="arrowDown.mouseover" end="arrowDown.mouseout"/>
                  </use>
                  <path fill="none" stroke="white" stroke-width="1.5" d="M0,-3.0v7 M-2.5,-0.5L0,-3.0L2.5,-0.5"/>
                </g>
                <g id="arrowLeft" xlink:href="#dirArrow" transform="rotate(270) translate(-36 17)" onmousedown="handlePan(-1,0)">
                  <use xlink:href="#rim" fill="#404040">
                        <set attributeName="fill" to="#808080" begin="arrowLeft.mouseover" end="arrowLeft.mouseout"/>
                  </use>
                  <path fill="none" stroke="white" stroke-width="1.5" d="M0,-3.0v7 M-2.5,-0.5L0,-3.0L2.5,-0.5"/>
                </g>
        </g>
        <svg viewBox="0 0 15 15" width="100%" height="30px" preserveAspectRatio="xMaxYMin meet">
         <g id="arrow_out" transform="scale(0.3 0.3)">
          <a xlink:href="structo2_1_1framework_1_1Configurable__inherit__graph_org.svg" target="_base">
           <rect id="button" ry="5" rx="5" y="6" x="6" height="38" width="38"
                fill="#f2f5e9" fill-opacity="0.5" stroke="#606060" stroke-width="1.0"/>
           <path id="arrow"
             d="M 11.500037,31.436501 C 11.940474,20.09759 22.043105,11.32322 32.158766,21.979434 L 37.068811,17.246167 C 37.068811,17.246167 37.088388,32 37.088388,32 L 22.160133,31.978069 C 22.160133,31.978069 26.997745,27.140456 26.997745,27.140456 C 18.528582,18.264221 13.291696,25.230495 11.500037,31.436501 z"
             style="fill:#404040;"/>
          </a>
         </g>
        </svg>
</svg>
