<?xml version="1.0" encoding="UTF-8" standalone="no"?>
<!DOCTYPE svg PUBLIC "-//W3C//DTD SVG 1.1//EN"
 "http://www.w3.org/Graphics/SVG/1.1/DTD/svg11.dtd">
<!-- Generated by graphviz version 2.40.1 (20161225.0304)
 -->
<!-- Title: /home/travis/build/AliceO2Group/AliceO2/Detectors/ITSMFT/ITS/tracking/include/ITStracking/Cluster.h Pages: 1 -->
<!--zoomable 408 -->
<svg id="main" version="1.1" xmlns="http://www.w3.org/2000/svg" xmlns:xlink="http://www.w3.org/1999/xlink" xml:space="preserve" onload="init(evt)">
<style type="text/css"><![CDATA[
.edge:hover path { stroke: red; }
.edge:hover polygon { stroke: red; fill: red; }
]]></style>
<script type="text/javascript"><![CDATA[
var edges = document.getElementsByTagName('g');
if (edges && edges.length) {
  for (var i=0;i<edges.length;i++) {
    if (edges[i].id.substr(0,4)=='edge') {
      edges[i].setAttribute('class','edge');
    }
  }
}
]]></script>
        <defs>
                <circle id="rim" cx="0" cy="0" r="7"/>
                <circle id="rim2" cx="0" cy="0" r="3.5"/>
                <g id="zoomPlus">
                        <use xlink:href="#rim" fill="#404040">
                                <set attributeName="fill" to="#808080" begin="zoomplus.mouseover" end="zoomplus.mouseout"/>
                        </use>
                        <path d="M-4,0h8M0,-4v8" fill="none" stroke="white" stroke-width="1.5" pointer-events="none"/>
                </g>
                <g id="zoomMin">
                        <use xlink:href="#rim" fill="#404040">
                                <set attributeName="fill" to="#808080" begin="zoomminus.mouseover" end="zoomminus.mouseout"/>
                        </use>
                        <path d="M-4,0h8" fill="none" stroke="white" stroke-width="1.5" pointer-events="none"/>
                </g>
                <g id="dirArrow">
                        <path fill="none" stroke="white" stroke-width="1.5" d="M0,-3.0v7 M-2.5,-0.5L0,-3.0L2.5,-0.5"/>
                </g>
               <g id="resetDef">
                       <use xlink:href="#rim2" fill="#404040">
                               <set attributeName="fill" to="#808080" begin="reset.mouseover" end="reset.mouseout"/>
                       </use>
               </g>
        </defs>

<script type="text/javascript">
var viewWidth = 1330;
var viewHeight = 408;
var sectionId = 'dynsection-0';
</script>
<script xlink:href="../../svgpan.js"/>
<svg id="graph" class="graph">
<g id="viewport">
<title>/home/travis/build/AliceO2Group/AliceO2/Detectors/ITSMFT/ITS/tracking/include/ITStracking/Cluster.h</title>
<!-- Node0 -->
<g id="node1" class="node">
<title>Node0</title>
<polygon fill="#bfbfbf" stroke="#000000" points="867.5,-336.5 867.5,-399.5 1022.5,-399.5 1022.5,-336.5 867.5,-336.5"/>
<text text-anchor="start" x="875.5" y="-387.5" font-family="Helvetica,sans-Serif" font-size="10.00" fill="#000000">/home/travis/build</text>
<text text-anchor="start" x="875.5" y="-376.5" font-family="Helvetica,sans-Serif" font-size="10.00" fill="#000000">/AliceO2Group/AliceO2</text>
<text text-anchor="start" x="875.5" y="-365.5" font-family="Helvetica,sans-Serif" font-size="10.00" fill="#000000">/Detectors/ITSMFT/ITS</text>
<text text-anchor="start" x="875.5" y="-354.5" font-family="Helvetica,sans-Serif" font-size="10.00" fill="#000000">/tracking/include/ITStracking</text>
<text text-anchor="middle" x="945" y="-343.5" font-family="Helvetica,sans-Serif" font-size="10.00" fill="#000000">/Cluster.h</text>
</g>
<!-- Node1 -->
<g id="node2" class="node">
<title>Node1</title>
<polygon fill="none" stroke="#bfbfbf" points="849,-112.5 849,-131.5 891,-131.5 891,-112.5 849,-112.5"/>
<text text-anchor="middle" x="870" y="-119.5" font-family="Helvetica,sans-Serif" font-size="10.00" fill="#000000">array</text>
</g>
<!-- Node0&#45;&gt;Node1 -->
<g id="edge1" class="edge">
<title>Node0&#45;&gt;Node1</title>
<path fill="none" stroke="#191970" d="M935.3486,-336.3434C919.626,-284.7732 888.9406,-184.1252 875.9925,-141.6553"/>
<polygon fill="#191970" stroke="#191970" points="879.3001,-140.5024 873.0359,-131.9578 872.6044,-142.5438 879.3001,-140.5024"/>
</g>
<!-- Node2 -->
<g id="node3" class="node">
<title>Node2</title>
<g id="a_node3"><a xlink:href="../../df/d3d/Definitions_8h.html" target="_top" xlink:title="ITStracking/Definitions.h">
<polygon fill="none" stroke="#000000" points="1186,-168.5 1186,-187.5 1322,-187.5 1322,-168.5 1186,-168.5"/>
<text text-anchor="middle" x="1254" y="-175.5" font-family="Helvetica,sans-Serif" font-size="10.00" fill="#000000">ITStracking/Definitions.h</text>
</a>
</g>
</g>
<!-- Node0&#45;&gt;Node2 -->
<g id="edge2" class="edge">
<title>Node0&#45;&gt;Node2</title>
<path fill="none" stroke="#191970" d="M1022.7856,-350.8872C1113.1804,-329.1573 1253.6291,-289.0325 1282,-244 1291.6701,-228.6509 1281.2531,-209.3859 1270.4871,-195.6393"/>
<polygon fill="#191970" stroke="#191970" points="1273.0482,-193.2476 1263.9152,-187.8775 1267.706,-197.771 1273.0482,-193.2476"/>
</g>
<!-- Node7 -->
<g id="node8" class="node">
<title>Node7</title>
<g id="a_node8"><a xlink:href="../../dc/d3e/MathUtils_8h.html" target="_top" xlink:title="ITStracking/MathUtils.h">
<polygon fill="none" stroke="#000000" points="681,-280.5 681,-299.5 811,-299.5 811,-280.5 681,-280.5"/>
<text text-anchor="middle" x="746" y="-287.5" font-family="Helvetica,sans-Serif" font-size="10.00" fill="#000000">ITStracking/MathUtils.h</text>
</a>
</g>
</g>
<!-- Node0&#45;&gt;Node7 -->
<g id="edge8" class="edge">
<title>Node0&#45;&gt;Node7</title>
<path fill="none" stroke="#191970" d="M867.4916,-337.6198C837.1817,-325.7396 804.0059,-312.736 779.9921,-303.3235"/>
<polygon fill="#191970" stroke="#191970" points="781.2073,-300.0406 770.6196,-299.6499 778.6527,-306.5579 781.2073,-300.0406"/>
</g>
<!-- Node23 -->
<g id="node24" class="node">
<title>Node23</title>
<g id="a_node24"><a xlink:href="../../dc/ddf/ITS_2tracking_2include_2ITStracking_2IndexTableUtils_8h.html" target="_top" xlink:title="ITStracking/IndexTableUtils.h">
<polygon fill="none" stroke="#000000" points="998,-280.5 998,-299.5 1156,-299.5 1156,-280.5 998,-280.5"/>
<text text-anchor="middle" x="1077" y="-287.5" font-family="Helvetica,sans-Serif" font-size="10.00" fill="#000000">ITStracking/IndexTableUtils.h</text>
</a>
</g>
</g>
<!-- Node0&#45;&gt;Node23 -->
<g id="edge34" class="edge">
<title>Node0&#45;&gt;Node23</title>
<path fill="none" stroke="#191970" d="M998.309,-336.4992C1016.9148,-325.5049 1036.9191,-313.6842 1052.1022,-304.7124"/>
<polygon fill="#191970" stroke="#191970" points="1054.0484,-307.6277 1060.8772,-299.5271 1050.4873,-301.6012 1054.0484,-307.6277"/>
</g>
<!-- Node2&#45;&gt;Node1 -->
<g id="edge3" class="edge">
<title>Node2&#45;&gt;Node1</title>
<path fill="none" stroke="#191970" d="M1188.4244,-168.4369C1104.7942,-156.2408 963.5574,-135.6438 901.1938,-126.5491"/>
<polygon fill="#191970" stroke="#191970" points="901.5892,-123.0698 891.1887,-125.09 900.579,-129.9965 901.5892,-123.0698"/>
</g>
<!-- Node3 -->
<g id="node4" class="node">
<title>Node3</title>
<g id="a_node4"><a xlink:href="../../df/d21/GPUCommonDef_8h.html" target="_top" xlink:title="GPUCommonDef.h">
<polygon fill="none" stroke="#000000" points="776.5,-56.5 776.5,-75.5 883.5,-75.5 883.5,-56.5 776.5,-56.5"/>
<text text-anchor="middle" x="830" y="-63.5" font-family="Helvetica,sans-Serif" font-size="10.00" fill="#000000">GPUCommonDef.h</text>
</a>
</g>
</g>
<!-- Node2&#45;&gt;Node3 -->
<g id="edge4" class="edge">
<title>Node2&#45;&gt;Node3</title>
<path fill="none" stroke="#191970" d="M1245.5213,-168.4237C1231.7402,-153.5605 1202.8957,-125.2707 1172,-112 1123.2694,-91.0685 978.3561,-77.0869 893.6116,-70.4541"/>
<polygon fill="#191970" stroke="#191970" points="893.8251,-66.9602 883.5857,-69.6816 893.2873,-73.9395 893.8251,-66.9602"/>
</g>
<!-- Node6 -->
<g id="node7" class="node">
<title>Node6</title>
<polygon fill="none" stroke="#bfbfbf" points="1227.5,-112.5 1227.5,-131.5 1280.5,-131.5 1280.5,-112.5 1227.5,-112.5"/>
<text text-anchor="middle" x="1254" y="-119.5" font-family="Helvetica,sans-Serif" font-size="10.00" fill="#000000">cstddef</text>
</g>
<!-- Node2&#45;&gt;Node6 -->
<g id="edge7" class="edge">
<title>Node2&#45;&gt;Node6</title>
<path fill="none" stroke="#191970" d="M1254,-168.2455C1254,-160.9382 1254,-150.6944 1254,-141.7046"/>
<polygon fill="#191970" stroke="#191970" points="1257.5001,-141.6426 1254,-131.6427 1250.5001,-141.6427 1257.5001,-141.6426"/>
</g>
<!-- Node4 -->
<g id="node5" class="node">
<title>Node4</title>
<g id="a_node5"><a xlink:href="../../d5/d93/GPUCommonDefSettings_8h.html" target="_top" xlink:title="GPUCommonDefSettings.h">
<polygon fill="none" stroke="#000000" points="679,-.5 679,-19.5 827,-19.5 827,-.5 679,-.5"/>
<text text-anchor="middle" x="753" y="-7.5" font-family="Helvetica,sans-Serif" font-size="10.00" fill="#000000">GPUCommonDefSettings.h</text>
</a>
</g>
</g>
<!-- Node3&#45;&gt;Node4 -->
<g id="edge5" class="edge">
<title>Node3&#45;&gt;Node4</title>
<path fill="none" stroke="#191970" d="M816.5876,-56.2455C804.9943,-47.814 788.0252,-35.4729 774.5322,-25.6598"/>
<polygon fill="#191970" stroke="#191970" points="776.4047,-22.6938 766.2587,-19.6427 772.2874,-28.355 776.4047,-22.6938"/>
</g>
<!-- Node5 -->
<g id="node6" class="node">
<title>Node5</title>
<g id="a_node6"><a xlink:href="../../da/d5a/GPUCommonDefAPI_8h.html" target="_top" xlink:title="GPUCommonDefAPI.h">
<polygon fill="none" stroke="#000000" points="845,-.5 845,-19.5 969,-19.5 969,-.5 845,-.5"/>
<text text-anchor="middle" x="907" y="-7.5" font-family="Helvetica,sans-Serif" font-size="10.00" fill="#000000">GPUCommonDefAPI.h</text>
</a>
</g>
</g>
<!-- Node3&#45;&gt;Node5 -->
<g id="edge6" class="edge">
<title>Node3&#45;&gt;Node5</title>
<path fill="none" stroke="#191970" d="M843.4124,-56.2455C855.0057,-47.814 871.9748,-35.4729 885.4678,-25.6598"/>
<polygon fill="#191970" stroke="#191970" points="887.7126,-28.355 893.7413,-19.6427 883.5953,-22.6938 887.7126,-28.355"/>
</g>
<!-- Node7&#45;&gt;Node1 -->
<g id="edge9" class="edge">
<title>Node7&#45;&gt;Node1</title>
<path fill="none" stroke="#191970" d="M759.0002,-280.3897C770.1944,-271.6987 786.3402,-258.1316 798,-244 812.5547,-226.3598 843.961,-169.963 860.0531,-140.4306"/>
<polygon fill="#191970" stroke="#191970" points="863.1843,-141.9987 864.8769,-131.5399 857.0315,-138.6604 863.1843,-141.9987"/>
</g>
<!-- Node7&#45;&gt;Node3 -->
<g id="edge33" class="edge">
<title>Node7&#45;&gt;Node3</title>
<path fill="none" stroke="#191970" d="M749.6094,-280.375C762.3989,-246.2697 805.709,-130.7761 822.8912,-84.9567"/>
<polygon fill="#191970" stroke="#191970" points="826.1699,-86.1814 826.4041,-75.5891 819.6156,-83.7235 826.1699,-86.1814"/>
</g>
<!-- Node8 -->
<g id="node9" class="node">
<title>Node8</title>
<polygon fill="none" stroke="#bfbfbf" points="587.5,-56.5 587.5,-75.5 634.5,-75.5 634.5,-56.5 587.5,-56.5"/>
<text text-anchor="middle" x="611" y="-63.5" font-family="Helvetica,sans-Serif" font-size="10.00" fill="#000000">cmath</text>
</g>
<!-- Node7&#45;&gt;Node8 -->
<g id="edge10" class="edge">
<title>Node7&#45;&gt;Node8</title>
<path fill="none" stroke="#191970" d="M680.8724,-288.4196C545.3627,-283.6092 240.3798,-264.3523 177,-188 151.2326,-156.9586 193.4034,-127.4769 221,-112 281.7415,-77.9346 493.9072,-68.9444 577.1324,-66.7025"/>
<polygon fill="#191970" stroke="#191970" points="577.4013,-70.197 587.3096,-66.4451 577.2242,-63.1992 577.4013,-70.197"/>
</g>
<!-- Node9 -->
<g id="node10" class="node">
<title>Node9</title>
<polygon fill="none" stroke="#bfbfbf" points="0,-224.5 0,-243.5 52,-243.5 52,-224.5 0,-224.5"/>
<text text-anchor="middle" x="26" y="-231.5" font-family="Helvetica,sans-Serif" font-size="10.00" fill="#000000">cassert</text>
</g>
<!-- Node7&#45;&gt;Node9 -->
<g id="edge11" class="edge">
<title>Node7&#45;&gt;Node9</title>
<path fill="none" stroke="#191970" d="M680.7976,-287.381C537.2853,-281.3381 196.8067,-265.4058 62.3192,-243.8363"/>
<polygon fill="#191970" stroke="#191970" points="62.677,-240.3474 52.2347,-242.1391 61.5152,-247.2503 62.677,-240.3474"/>
</g>
<!-- Node10 -->
<g id="node11" class="node">
<title>Node10</title>
<polygon fill="none" stroke="#bfbfbf" points="70,-224.5 70,-243.5 130,-243.5 130,-224.5 70,-224.5"/>
<text text-anchor="middle" x="100" y="-231.5" font-family="Helvetica,sans-Serif" font-size="10.00" fill="#000000">iostream</text>
</g>
<!-- Node7&#45;&gt;Node10 -->
<g id="edge12" class="edge">
<title>Node7&#45;&gt;Node10</title>
<path fill="none" stroke="#191970" d="M680.6144,-288.1545C569.6955,-284.3213 337.8135,-273.2663 144,-244 142.7365,-243.8092 141.4553,-243.6021 140.1639,-243.3816"/>
<polygon fill="#191970" stroke="#191970" points="140.6644,-239.914 130.1853,-241.4752 139.3508,-246.7896 140.6644,-239.914"/>
</g>
<!-- Node11 -->
<g id="node12" class="node">
<title>Node11</title>
<g id="a_node12"><a xlink:href="../../d9/d52/Common_2MathUtils_2include_2MathUtils_2Utils_8h.html" target="_top" xlink:title="MathUtils/Utils.h">
<polygon fill="none" stroke="#000000" points="485,-224.5 485,-243.5 583,-243.5 583,-224.5 485,-224.5"/>
<text text-anchor="middle" x="534" y="-231.5" font-family="Helvetica,sans-Serif" font-size="10.00" fill="#000000">MathUtils/Utils.h</text>
</a>
</g>
</g>
<!-- Node7&#45;&gt;Node11 -->
<g id="edge13" class="edge">
<title>Node7&#45;&gt;Node11</title>
<path fill="none" stroke="#191970" d="M709.5559,-280.3733C673.6931,-270.9001 618.8122,-256.4032 579.9718,-246.1435"/>
<polygon fill="#191970" stroke="#191970" points="580.5308,-242.6712 569.9685,-243.5011 578.743,-249.439 580.5308,-242.6712"/>
</g>
<!-- Node17 -->
<g id="node18" class="node">
<title>Node17</title>
<g id="a_node18"><a xlink:href="../../d6/da2/GPUCommonMath_8h.html" target="_top" xlink:title="GPUCommonMath.h">
<polygon fill="none" stroke="#000000" points="677.5,-112.5 677.5,-131.5 792.5,-131.5 792.5,-112.5 677.5,-112.5"/>
<text text-anchor="middle" x="735" y="-119.5" font-family="Helvetica,sans-Serif" font-size="10.00" fill="#000000">GPUCommonMath.h</text>
</a>
</g>
</g>
<!-- Node7&#45;&gt;Node17 -->
<g id="edge32" class="edge">
<title>Node7&#45;&gt;Node17</title>
<path fill="none" stroke="#191970" d="M745.3771,-280.4862C743.6382,-253.9293 738.7037,-178.5651 736.3204,-142.1655"/>
<polygon fill="#191970" stroke="#191970" points="739.7895,-141.5778 735.6435,-131.8279 732.8044,-142.0352 739.7895,-141.5778"/>
</g>
<!-- Node20 -->
<g id="node21" class="node">
<title>Node20</title>
<g id="a_node21"><a xlink:href="../../d0/d86/Detectors_2ITSMFT_2ITS_2tracking_2include_2ITStracking_2Constants_8h.html" target="_top" xlink:title="ITStracking/Constants.h">
<polygon fill="none" stroke="#000000" points="964,-224.5 964,-243.5 1096,-243.5 1096,-224.5 964,-224.5"/>
<text text-anchor="middle" x="1030" y="-231.5" font-family="Helvetica,sans-Serif" font-size="10.00" fill="#000000">ITStracking/Constants.h</text>
</a>
</g>
</g>
<!-- Node7&#45;&gt;Node20 -->
<g id="edge28" class="edge">
<title>Node7&#45;&gt;Node20</title>
<path fill="none" stroke="#191970" d="M794.4986,-280.4369C843.5115,-270.7724 919.2777,-255.8326 971.5707,-245.5213"/>
<polygon fill="#191970" stroke="#191970" points="972.5674,-248.8922 981.7014,-243.5237 971.2132,-242.0244 972.5674,-248.8922"/>
</g>
<!-- Node12 -->
<g id="node13" class="node">
<title>Node12</title>
<g id="a_node13"><a xlink:href="../../de/def/bitOps_8h.html" target="_top" xlink:title="MathUtils/detail/bitOps.h">
<polygon fill="none" stroke="#000000" points="186.5,-168.5 186.5,-187.5 323.5,-187.5 323.5,-168.5 186.5,-168.5"/>
<text text-anchor="middle" x="255" y="-175.5" font-family="Helvetica,sans-Serif" font-size="10.00" fill="#000000">MathUtils/detail/bitOps.h</text>
</a>
</g>
</g>
<!-- Node11&#45;&gt;Node12 -->
<g id="edge14" class="edge">
<title>Node11&#45;&gt;Node12</title>
<path fill="none" stroke="#191970" d="M486.3552,-224.4369C438.2053,-214.7724 363.7729,-199.8326 312.4007,-189.5213"/>
<polygon fill="#191970" stroke="#191970" points="312.9415,-186.0601 302.4483,-187.5237 311.5639,-192.9232 312.9415,-186.0601"/>
</g>
<!-- Node14 -->
<g id="node15" class="node">
<title>Node14</title>
<g id="a_node15"><a xlink:href="../../d3/dfc/StatAccumulator_8h.html" target="_top" xlink:title="MathUtils/detail/StatAccumulator.h">
<polygon fill="none" stroke="#000000" points="342,-168.5 342,-187.5 528,-187.5 528,-168.5 342,-168.5"/>
<text text-anchor="middle" x="435" y="-175.5" font-family="Helvetica,sans-Serif" font-size="10.00" fill="#000000">MathUtils/detail/StatAccumulator.h</text>
</a>
</g>
</g>
<!-- Node11&#45;&gt;Node14 -->
<g id="edge16" class="edge">
<title>Node11&#45;&gt;Node14</title>
<path fill="none" stroke="#191970" d="M516.7555,-224.2455C501.4239,-215.5731 478.7801,-202.7645 461.2084,-192.825"/>
<polygon fill="#191970" stroke="#191970" points="462.4741,-189.5198 452.0469,-187.6427 459.0276,-195.6126 462.4741,-189.5198"/>
</g>
<!-- Node16 -->
<g id="node17" class="node">
<title>Node16</title>
<g id="a_node17"><a xlink:href="../../dd/d7d/trigonometric_8h.html" target="_top" xlink:title="MathUtils/detail/trigonometric.h">
<polygon fill="none" stroke="#000000" points="546,-168.5 546,-187.5 718,-187.5 718,-168.5 546,-168.5"/>
<text text-anchor="middle" x="632" y="-175.5" font-family="Helvetica,sans-Serif" font-size="10.00" fill="#000000">MathUtils/detail/trigonometric.h</text>
</a>
</g>
</g>
<!-- Node11&#45;&gt;Node16 -->
<g id="edge18" class="edge">
<title>Node11&#45;&gt;Node16</title>
<path fill="none" stroke="#191970" d="M551.0703,-224.2455C566.247,-215.5731 588.6621,-202.7645 606.0563,-192.825"/>
<polygon fill="#191970" stroke="#191970" points="608.1794,-195.643 615.1253,-187.6427 604.7064,-189.5653 608.1794,-195.643"/>
</g>
<!-- Node13 -->
<g id="node14" class="node">
<title>Node13</title>
<polygon fill="none" stroke="#bfbfbf" points="230,-112.5 230,-131.5 280,-131.5 280,-112.5 230,-112.5"/>
<text text-anchor="middle" x="255" y="-119.5" font-family="Helvetica,sans-Serif" font-size="10.00" fill="#000000">cstdint</text>
</g>
<!-- Node12&#45;&gt;Node13 -->
<g id="edge15" class="edge">
<title>Node12&#45;&gt;Node13</title>
<path fill="none" stroke="#191970" d="M255,-168.2455C255,-160.9382 255,-150.6944 255,-141.7046"/>
<polygon fill="#191970" stroke="#191970" points="258.5001,-141.6426 255,-131.6427 251.5001,-141.6427 258.5001,-141.6426"/>
</g>
<!-- Node15 -->
<g id="node16" class="node">
<title>Node15</title>
<polygon fill="none" stroke="#bfbfbf" points="329.5,-112.5 329.5,-131.5 370.5,-131.5 370.5,-112.5 329.5,-112.5"/>
<text text-anchor="middle" x="350" y="-119.5" font-family="Helvetica,sans-Serif" font-size="10.00" fill="#000000">tuple</text>
</g>
<!-- Node14&#45;&gt;Node15 -->
<g id="edge17" class="edge">
<title>Node14&#45;&gt;Node15</title>
<path fill="none" stroke="#191970" d="M420.1941,-168.2455C407.2744,-159.7337 388.3069,-147.2375 373.3448,-137.3801"/>
<polygon fill="#191970" stroke="#191970" points="374.9124,-134.2216 364.6362,-131.6427 371.0613,-140.067 374.9124,-134.2216"/>
</g>
<!-- Node16&#45;&gt;Node1 -->
<g id="edge19" class="edge">
<title>Node16&#45;&gt;Node1</title>
<path fill="none" stroke="#191970" d="M672.6432,-168.4369C719.7416,-157.3549 796.3189,-139.3367 838.9144,-129.3143"/>
<polygon fill="#191970" stroke="#191970" points="839.7896,-132.704 848.7221,-127.0066 838.1862,-125.8901 839.7896,-132.704"/>
</g>
<!-- Node16&#45;&gt;Node3 -->
<g id="edge22" class="edge">
<title>Node16&#45;&gt;Node3</title>
<path fill="none" stroke="#191970" d="M634.6328,-168.3606C639.0748,-153.9303 649.4406,-126.8268 668,-112 684.1094,-99.1305 731.6444,-86.4784 771.086,-77.7109"/>
<polygon fill="#191970" stroke="#191970" points="771.8903,-81.1178 780.9151,-75.5678 770.399,-74.2785 771.8903,-81.1178"/>
</g>
<!-- Node16&#45;&gt;Node8 -->
<g id="edge20" class="edge">
<title>Node16&#45;&gt;Node8</title>
<path fill="none" stroke="#191970" d="M630.2096,-168.4509C626.769,-150.1013 619.1733,-109.5908 614.6317,-85.3693"/>
<polygon fill="#191970" stroke="#191970" points="618.0689,-84.7086 612.7859,-75.5249 611.1888,-85.9986 618.0689,-84.7086"/>
</g>
<!-- Node16&#45;&gt;Node15 -->
<g id="edge21" class="edge">
<title>Node16&#45;&gt;Node15</title>
<path fill="none" stroke="#191970" d="M565.3878,-168.4703C516.6587,-160.8968 448.8549,-149.1124 380.6124,-131.8581"/>
<polygon fill="#191970" stroke="#191970" points="381.0991,-128.3696 370.5428,-129.2725 379.3581,-135.1496 381.0991,-128.3696"/>
</g>
<!-- Node16&#45;&gt;Node17 -->
<g id="edge23" class="edge">
<title>Node16&#45;&gt;Node17</title>
<path fill="none" stroke="#191970" d="M649.9412,-168.2455C666.04,-159.4928 689.8879,-146.527 708.2391,-136.5496"/>
<polygon fill="#191970" stroke="#191970" points="710.1507,-139.4942 717.2644,-131.6427 706.8071,-133.3444 710.1507,-139.4942"/>
</g>
<!-- Node19 -->
<g id="node20" class="node">
<title>Node19</title>
<g id="a_node20"><a xlink:href="../../d6/d84/MathConstants_8h.html" target="_top" xlink:title="useful math constants ">
<polygon fill="none" stroke="#000000" points="389,-112.5 389,-131.5 583,-131.5 583,-112.5 389,-112.5"/>
<text text-anchor="middle" x="486" y="-119.5" font-family="Helvetica,sans-Serif" font-size="10.00" fill="#000000">CommonConstants/MathConstants.h</text>
</a>
</g>
</g>
<!-- Node16&#45;&gt;Node19 -->
<g id="edge27" class="edge">
<title>Node16&#45;&gt;Node19</title>
<path fill="none" stroke="#191970" d="M606.9017,-168.3733C583.0445,-159.2226 546.9665,-145.3844 520.429,-135.2057"/>
<polygon fill="#191970" stroke="#191970" points="521.361,-131.8145 510.7708,-131.5011 518.8541,-138.3503 521.361,-131.8145"/>
</g>
<!-- Node17&#45;&gt;Node3 -->
<g id="edge24" class="edge">
<title>Node17&#45;&gt;Node3</title>
<path fill="none" stroke="#191970" d="M751.5477,-112.2455C766.2599,-103.5731 787.9888,-90.7645 804.8505,-80.825"/>
<polygon fill="#191970" stroke="#191970" points="806.8046,-83.736 813.6419,-75.6427 803.2498,-77.7057 806.8046,-83.736"/>
</g>
<!-- Node17&#45;&gt;Node8 -->
<g id="edge25" class="edge">
<title>Node17&#45;&gt;Node8</title>
<path fill="none" stroke="#191970" d="M713.6836,-112.3733C693.7784,-103.3838 663.8564,-89.8706 641.44,-79.7471"/>
<polygon fill="#191970" stroke="#191970" points="642.5925,-76.4272 632.0382,-75.5011 639.7113,-82.8068 642.5925,-76.4272"/>
</g>
<!-- Node18 -->
<g id="node19" class="node">
<title>Node18</title>
<polygon fill="none" stroke="#bfbfbf" points="694,-56.5 694,-75.5 758,-75.5 758,-56.5 694,-56.5"/>
<text text-anchor="middle" x="726" y="-63.5" font-family="Helvetica,sans-Serif" font-size="10.00" fill="#000000">algorithm</text>
</g>
<!-- Node17&#45;&gt;Node18 -->
<g id="edge26" class="edge">
<title>Node17&#45;&gt;Node18</title>
<path fill="none" stroke="#191970" d="M733.4323,-112.2455C732.2579,-104.9382 730.6116,-94.6944 729.1668,-85.7046"/>
<polygon fill="#191970" stroke="#191970" points="732.5922,-84.9606 727.5497,-75.6427 725.6809,-86.0714 732.5922,-84.9606"/>
</g>
<!-- Node20&#45;&gt;Node2 -->
<g id="edge31" class="edge">
<title>Node20&#45;&gt;Node2</title>
<path fill="none" stroke="#191970" d="M1068.2525,-224.4369C1106.3467,-214.9133 1164.9313,-200.2672 1206.0987,-189.9753"/>
<polygon fill="#191970" stroke="#191970" points="1207.0528,-193.3446 1215.9053,-187.5237 1205.355,-186.5536 1207.0528,-193.3446"/>
</g>
<!-- Node21 -->
<g id="node22" class="node">
<title>Node21</title>
<polygon fill="none" stroke="#bfbfbf" points="1005,-168.5 1005,-187.5 1055,-187.5 1055,-168.5 1005,-168.5"/>
<text text-anchor="middle" x="1030" y="-175.5" font-family="Helvetica,sans-Serif" font-size="10.00" fill="#000000">climits</text>
</g>
<!-- Node20&#45;&gt;Node21 -->
<g id="edge29" class="edge">
<title>Node20&#45;&gt;Node21</title>
<path fill="none" stroke="#191970" d="M1030,-224.2455C1030,-216.9382 1030,-206.6944 1030,-197.7046"/>
<polygon fill="#191970" stroke="#191970" points="1033.5001,-197.6426 1030,-187.6427 1026.5001,-197.6427 1033.5001,-197.6426"/>
</g>
<!-- Node22 -->
<g id="node23" class="node">
<title>Node22</title>
<polygon fill="none" stroke="#bfbfbf" points="1079.5,-168.5 1079.5,-187.5 1126.5,-187.5 1126.5,-168.5 1079.5,-168.5"/>
<text text-anchor="middle" x="1103" y="-175.5" font-family="Helvetica,sans-Serif" font-size="10.00" fill="#000000">vector</text>
</g>
<!-- Node20&#45;&gt;Node22 -->
<g id="edge30" class="edge">
<title>Node20&#45;&gt;Node22</title>
<path fill="none" stroke="#191970" d="M1042.7156,-224.2455C1053.602,-215.8943 1069.4883,-203.7076 1082.22,-193.9408"/>
<polygon fill="#191970" stroke="#191970" points="1084.6261,-196.5063 1090.4301,-187.6427 1080.3654,-190.9523 1084.6261,-196.5063"/>
</g>
<!-- Node23&#45;&gt;Node1 -->
<g id="edge35" class="edge">
<title>Node23&#45;&gt;Node1</title>
<path fill="none" stroke="#191970" d="M1030.1453,-280.4855C1005.6082,-273.6217 976.3185,-262.2587 955,-244 925.5239,-218.7546 934.7837,-199.4178 912,-168 904.5909,-157.7832 895.2087,-147.3219 887.1919,-138.9621"/>
<polygon fill="#191970" stroke="#191970" points="889.5356,-136.3534 880.0332,-131.6677 884.5396,-141.2564 889.5356,-136.3534"/>
</g>
<!-- Node23&#45;&gt;Node2 -->
<g id="edge39" class="edge">
<title>Node23&#45;&gt;Node2</title>
<path fill="none" stroke="#191970" d="M1102.3729,-280.4111C1122.9687,-272.1181 1152.3642,-259.1035 1176,-244 1198.4496,-229.6544 1221.4043,-209.4251 1236.5448,-195.1532"/>
<polygon fill="#191970" stroke="#191970" points="1239.3018,-197.3588 1244.0994,-187.9124 1234.4581,-192.3051 1239.3018,-197.3588"/>
</g>
<!-- Node23&#45;&gt;Node3 -->
<g id="edge41" class="edge">
<title>Node23&#45;&gt;Node3</title>
<path fill="none" stroke="#191970" d="M1088.4015,-280.1815C1112.0963,-258.5859 1162.2698,-205.8741 1135,-168 1106.0601,-127.8065 970.7491,-94.3348 890.3998,-77.5721"/>
<polygon fill="#191970" stroke="#191970" points="890.9049,-74.1027 880.4044,-75.5137 889.4929,-80.9588 890.9049,-74.1027"/>
</g>
<!-- Node23&#45;&gt;Node17 -->
<g id="edge40" class="edge">
<title>Node23&#45;&gt;Node17</title>
<path fill="none" stroke="#191970" d="M1039.6217,-280.4826C1010.4505,-272.4436 969.2645,-259.7355 935,-244 866.512,-212.5478 792.3875,-162.7099 756.6676,-137.5801"/>
<polygon fill="#191970" stroke="#191970" points="758.6232,-134.6762 748.4405,-131.7497 754.5757,-140.3874 758.6232,-134.6762"/>
</g>
<!-- Node23&#45;&gt;Node20 -->
<g id="edge38" class="edge">
<title>Node23&#45;&gt;Node20</title>
<path fill="none" stroke="#191970" d="M1068.8132,-280.2455C1062.1411,-272.2958 1052.5521,-260.8706 1044.5747,-251.3656"/>
<polygon fill="#191970" stroke="#191970" points="1047.2026,-249.0524 1038.093,-243.6427 1041.8408,-253.5525 1047.2026,-249.0524"/>
</g>
<!-- Node23&#45;&gt;Node22 -->
<g id="edge37" class="edge">
<title>Node23&#45;&gt;Node22</title>
<path fill="none" stroke="#191970" d="M1085.2089,-280.1677C1092.0114,-271.3343 1101.1631,-257.6831 1105,-244 1109.2559,-228.823 1108.363,-210.9093 1106.6246,-197.5771"/>
<polygon fill="#191970" stroke="#191970" points="1110.0694,-196.9519 1105.0598,-187.6162 1103.1542,-198.0383 1110.0694,-196.9519"/>
</g>
<!-- Node24 -->
<g id="node25" class="node">
<title>Node24</title>
<polygon fill="none" stroke="#bfbfbf" points="1228.5,-224.5 1228.5,-243.5 1273.5,-243.5 1273.5,-224.5 1228.5,-224.5"/>
<text text-anchor="middle" x="1251" y="-231.5" font-family="Helvetica,sans-Serif" font-size="10.00" fill="#000000">utility</text>
</g>
<!-- Node23&#45;&gt;Node24 -->
<g id="edge36" class="edge">
<title>Node23&#45;&gt;Node24</title>
<path fill="none" stroke="#191970" d="M1106.9117,-280.3733C1138.0372,-270.3559 1186.6168,-254.721 1218.6266,-244.419"/>
<polygon fill="#191970" stroke="#191970" points="1219.9472,-247.6709 1228.394,-241.2755 1217.8026,-241.0075 1219.9472,-247.6709"/>
</g>
</g>
</svg>
        <g id="navigator" transform="translate(0 0)" fill="#404254">
                <rect fill="#f2f5e9" fill-opacity="0.5" stroke="#606060" stroke-width=".5" x="0" y="0" width="60" height="60"/>
                <use id="zoomplus" xlink:href="#zoomPlus" x="17" y="9" onmousedown="handleZoom(evt,'in')"/>
                <use id="zoomminus" xlink:href="#zoomMin" x="42" y="9" onmousedown="handleZoom(evt,'out')"/>
                <use id="reset" xlink:href="#resetDef" x="30" y="36" onmousedown="handleReset()"/>
                <g id="arrowUp" xlink:href="#dirArrow" transform="translate(30 24)" onmousedown="handlePan(0,-1)">
                  <use xlink:href="#rim" fill="#404040">
                        <set attributeName="fill" to="#808080" begin="arrowUp.mouseover" end="arrowUp.mouseout"/>
                  </use>
                  <path fill="none" stroke="white" stroke-width="1.5" d="M0,-3.0v7 M-2.5,-0.5L0,-3.0L2.5,-0.5"/>
                </g>
                <g id="arrowRight" xlink:href="#dirArrow" transform="rotate(90) translate(36 -43)" onmousedown="handlePan(1,0)">
                  <use xlink:href="#rim" fill="#404040">
                        <set attributeName="fill" to="#808080" begin="arrowRight.mouseover" end="arrowRight.mouseout"/>
                  </use>
                  <path fill="none" stroke="white" stroke-width="1.5" d="M0,-3.0v7 M-2.5,-0.5L0,-3.0L2.5,-0.5"/>
                </g>
                <g id="arrowDown" xlink:href="#dirArrow" transform="rotate(180) translate(-30 -48)" onmousedown="handlePan(0,1)">
                  <use xlink:href="#rim" fill="#404040">
                        <set attributeName="fill" to="#808080" begin="arrowDown.mouseover" end="arrowDown.mouseout"/>
                  </use>
                  <path fill="none" stroke="white" stroke-width="1.5" d="M0,-3.0v7 M-2.5,-0.5L0,-3.0L2.5,-0.5"/>
                </g>
                <g id="arrowLeft" xlink:href="#dirArrow" transform="rotate(270) translate(-36 17)" onmousedown="handlePan(-1,0)">
                  <use xlink:href="#rim" fill="#404040">
                        <set attributeName="fill" to="#808080" begin="arrowLeft.mouseover" end="arrowLeft.mouseout"/>
                  </use>
                  <path fill="none" stroke="white" stroke-width="1.5" d="M0,-3.0v7 M-2.5,-0.5L0,-3.0L2.5,-0.5"/>
                </g>
        </g>
        <svg viewBox="0 0 15 15" width="100%" height="30px" preserveAspectRatio="xMaxYMin meet">
         <g id="arrow_out" transform="scale(0.3 0.3)">
          <a xlink:href="Detectors_2ITSMFT_2ITS_2tracking_2include_2ITStracking_2Cluster_8h__incl_org.svg" target="_base">
           <rect id="button" ry="5" rx="5" y="6" x="6" height="38" width="38"
                fill="#f2f5e9" fill-opacity="0.5" stroke="#606060" stroke-width="1.0"/>
           <path id="arrow"
             d="M 11.500037,31.436501 C 11.940474,20.09759 22.043105,11.32322 32.158766,21.979434 L 37.068811,17.246167 C 37.068811,17.246167 37.088388,32 37.088388,32 L 22.160133,31.978069 C 22.160133,31.978069 26.997745,27.140456 26.997745,27.140456 C 18.528582,18.264221 13.291696,25.230495 11.500037,31.436501 z"
             style="fill:#404040;"/>
          </a>
         </g>
        </svg>
</svg>
