<?xml version="1.0" encoding="UTF-8" standalone="no"?>
<!DOCTYPE svg PUBLIC "-//W3C//DTD SVG 1.1//EN"
 "http://www.w3.org/Graphics/SVG/1.1/DTD/svg11.dtd">
<!-- Generated by graphviz version 2.40.1 (20161225.0304)
 -->
<!-- Title: /home/travis/build/AliceO2Group/AliceO2/Detectors/DCS/include/DetectorsDCS/StringUtils.h Pages: 1 -->
<!--zoomable 517 -->
<svg id="main" version="1.1" xmlns="http://www.w3.org/2000/svg" xmlns:xlink="http://www.w3.org/1999/xlink" xml:space="preserve" onload="init(evt)">
<style type="text/css"><![CDATA[
.edge:hover path { stroke: red; }
.edge:hover polygon { stroke: red; fill: red; }
]]></style>
<script type="text/javascript"><![CDATA[
var edges = document.getElementsByTagName('g');
if (edges && edges.length) {
  for (var i=0;i<edges.length;i++) {
    if (edges[i].id.substr(0,4)=='edge') {
      edges[i].setAttribute('class','edge');
    }
  }
}
]]></script>
        <defs>
                <circle id="rim" cx="0" cy="0" r="7"/>
                <circle id="rim2" cx="0" cy="0" r="3.5"/>
                <g id="zoomPlus">
                        <use xlink:href="#rim" fill="#404040">
                                <set attributeName="fill" to="#808080" begin="zoomplus.mouseover" end="zoomplus.mouseout"/>
                        </use>
                        <path d="M-4,0h8M0,-4v8" fill="none" stroke="white" stroke-width="1.5" pointer-events="none"/>
                </g>
                <g id="zoomMin">
                        <use xlink:href="#rim" fill="#404040">
                                <set attributeName="fill" to="#808080" begin="zoomminus.mouseover" end="zoomminus.mouseout"/>
                        </use>
                        <path d="M-4,0h8" fill="none" stroke="white" stroke-width="1.5" pointer-events="none"/>
                </g>
                <g id="dirArrow">
                        <path fill="none" stroke="white" stroke-width="1.5" d="M0,-3.0v7 M-2.5,-0.5L0,-3.0L2.5,-0.5"/>
                </g>
               <g id="resetDef">
                       <use xlink:href="#rim2" fill="#404040">
                               <set attributeName="fill" to="#808080" begin="reset.mouseover" end="reset.mouseout"/>
                       </use>
               </g>
        </defs>

<script type="text/javascript">
var viewWidth = 1068;
var viewHeight = 517;
var sectionId = 'dynsection-1';
</script>
<script xlink:href="../../svgpan.js"/>
<svg id="graph" class="graph">
<g id="viewport">
<title>/home/travis/build/AliceO2Group/AliceO2/Detectors/DCS/include/DetectorsDCS/StringUtils.h</title>
<!-- Node5 -->
<g id="node1" class="node">
<title>Node5</title>
<polygon fill="#bfbfbf" stroke="#000000" points="539,-456.5 539,-508.5 689,-508.5 689,-456.5 539,-456.5"/>
<text text-anchor="start" x="547" y="-496.5" font-family="Helvetica,sans-Serif" font-size="10.00" fill="#000000">/home/travis/build</text>
<text text-anchor="start" x="547" y="-485.5" font-family="Helvetica,sans-Serif" font-size="10.00" fill="#000000">/AliceO2Group/AliceO2</text>
<text text-anchor="start" x="547" y="-474.5" font-family="Helvetica,sans-Serif" font-size="10.00" fill="#000000">/Detectors/DCS/include</text>
<text text-anchor="middle" x="614" y="-463.5" font-family="Helvetica,sans-Serif" font-size="10.00" fill="#000000">/DetectorsDCS/StringUtils.h</text>
</g>
<!-- Node6 -->
<g id="node2" class="node">
<title>Node6</title>
<g id="a_node2"><a xlink:href="../../d0/dee/DataPointCompositeObject_8h.html" target="_top" xlink:title="/home/travis/build\l/AliceO2Group/AliceO2\l/Detectors/DCS/include\l/DetectorsDCS/DataPointComposite\lObject.h">
<polygon fill="none" stroke="#000000" points="449.5,-267.5 449.5,-330.5 640.5,-330.5 640.5,-267.5 449.5,-267.5"/>
<text text-anchor="start" x="457.5" y="-318.5" font-family="Helvetica,sans-Serif" font-size="10.00" fill="#000000">/home/travis/build</text>
<text text-anchor="start" x="457.5" y="-307.5" font-family="Helvetica,sans-Serif" font-size="10.00" fill="#000000">/AliceO2Group/AliceO2</text>
<text text-anchor="start" x="457.5" y="-296.5" font-family="Helvetica,sans-Serif" font-size="10.00" fill="#000000">/Detectors/DCS/include</text>
<text text-anchor="start" x="457.5" y="-285.5" font-family="Helvetica,sans-Serif" font-size="10.00" fill="#000000">/DetectorsDCS/DataPointComposite</text>
<text text-anchor="middle" x="545" y="-274.5" font-family="Helvetica,sans-Serif" font-size="10.00" fill="#000000">Object.h</text>
</a>
</g>
</g>
<!-- Node5&#45;&gt;Node6 -->
<g id="edge1" class="edge">
<title>Node5&#45;&gt;Node6</title>
<path fill="none" stroke="#191970" d="M600.5557,-446.7459C587.8937,-413.0724 569.1045,-363.104 556.9536,-330.7897"/>
<polygon fill="#191970" stroke="#191970" points="597.3182,-448.0807 604.114,-456.2089 603.8704,-445.6169 597.3182,-448.0807"/>
</g>
<!-- Node13 -->
<g id="node9" class="node">
<title>Node13</title>
<g id="a_node9"><a xlink:href="../../d1/d2d/DataPointIdentifier_8h.html" target="_top" xlink:title="/home/travis/build\l/AliceO2Group/AliceO2\l/Detectors/DCS/include\l/DetectorsDCS/DataPointIdentifier.h">
<polygon fill="none" stroke="#000000" points="236,-367.5 236,-419.5 426,-419.5 426,-367.5 236,-367.5"/>
<text text-anchor="start" x="244" y="-407.5" font-family="Helvetica,sans-Serif" font-size="10.00" fill="#000000">/home/travis/build</text>
<text text-anchor="start" x="244" y="-396.5" font-family="Helvetica,sans-Serif" font-size="10.00" fill="#000000">/AliceO2Group/AliceO2</text>
<text text-anchor="start" x="244" y="-385.5" font-family="Helvetica,sans-Serif" font-size="10.00" fill="#000000">/Detectors/DCS/include</text>
<text text-anchor="middle" x="331" y="-374.5" font-family="Helvetica,sans-Serif" font-size="10.00" fill="#000000">/DetectorsDCS/DataPointIdentifier.h</text>
</a>
</g>
</g>
<!-- Node5&#45;&gt;Node13 -->
<g id="edge10" class="edge">
<title>Node5&#45;&gt;Node13</title>
<path fill="none" stroke="#191970" d="M529.2719,-455.8541C492.7692,-444.3744 450.2239,-430.9944 413.9242,-419.5786"/>
<polygon fill="#191970" stroke="#191970" points="528.3148,-459.222 538.9042,-458.8833 530.4148,-452.5444 528.3148,-459.222"/>
</g>
<!-- Node15 -->
<g id="node11" class="node">
<title>Node15</title>
<g id="a_node11"><a xlink:href="../../d6/d8e/DataPointValue_8h.html" target="_top" xlink:title="/home/travis/build\l/AliceO2Group/AliceO2\l/Detectors/DCS/include\l/DetectorsDCS/DataPointValue.h">
<polygon fill="none" stroke="#000000" points="617,-367.5 617,-419.5 791,-419.5 791,-367.5 617,-367.5"/>
<text text-anchor="start" x="625" y="-407.5" font-family="Helvetica,sans-Serif" font-size="10.00" fill="#000000">/home/travis/build</text>
<text text-anchor="start" x="625" y="-396.5" font-family="Helvetica,sans-Serif" font-size="10.00" fill="#000000">/AliceO2Group/AliceO2</text>
<text text-anchor="start" x="625" y="-385.5" font-family="Helvetica,sans-Serif" font-size="10.00" fill="#000000">/Detectors/DCS/include</text>
<text text-anchor="middle" x="704" y="-374.5" font-family="Helvetica,sans-Serif" font-size="10.00" fill="#000000">/DetectorsDCS/DataPointValue.h</text>
</a>
</g>
</g>
<!-- Node5&#45;&gt;Node15 -->
<g id="edge17" class="edge">
<title>Node5&#45;&gt;Node15</title>
<path fill="none" stroke="#191970" d="M647.8735,-449.0029C657.733,-439.2529 668.3528,-428.7511 677.6733,-419.5341"/>
<polygon fill="#191970" stroke="#191970" points="645.1657,-446.7583 640.5162,-456.2784 650.0877,-451.7356 645.1657,-446.7583"/>
</g>
<!-- Node17 -->
<g id="node13" class="node">
<title>Node17</title>
<g id="a_node13"><a xlink:href="../../dd/d9a/StringUtils_8cxx.html" target="_top" xlink:title="/home/travis/build\l/AliceO2Group/AliceO2\l/Detectors/DCS/src/StringUtils.cxx">
<polygon fill="none" stroke="#000000" points="809,-373 809,-414 991,-414 991,-373 809,-373"/>
<text text-anchor="start" x="817" y="-402" font-family="Helvetica,sans-Serif" font-size="10.00" fill="#000000">/home/travis/build</text>
<text text-anchor="start" x="817" y="-391" font-family="Helvetica,sans-Serif" font-size="10.00" fill="#000000">/AliceO2Group/AliceO2</text>
<text text-anchor="middle" x="900" y="-380" font-family="Helvetica,sans-Serif" font-size="10.00" fill="#000000">/Detectors/DCS/src/StringUtils.cxx</text>
</a>
</g>
</g>
<!-- Node5&#45;&gt;Node17 -->
<g id="edge24" class="edge">
<title>Node5&#45;&gt;Node17</title>
<path fill="none" stroke="#191970" d="M698.8033,-456.1102C742.066,-442.6473 793.8973,-426.518 834.1166,-414.0022"/>
<polygon fill="#191970" stroke="#191970" points="697.6515,-452.803 689.1431,-459.1163 699.7315,-459.4868 697.6515,-452.803"/>
</g>
<!-- Node7 -->
<g id="node3" class="node">
<title>Node7</title>
<g id="a_node3"><a xlink:href="../../d7/da7/DCSProcessor_8h.html" target="_top" xlink:title="/home/travis/build\l/AliceO2Group/AliceO2\l/Detectors/DCS/include\l/DetectorsDCS/DCSProcessor.h">
<polygon fill="none" stroke="#000000" points="642,-178.5 642,-230.5 808,-230.5 808,-178.5 642,-178.5"/>
<text text-anchor="start" x="650" y="-218.5" font-family="Helvetica,sans-Serif" font-size="10.00" fill="#000000">/home/travis/build</text>
<text text-anchor="start" x="650" y="-207.5" font-family="Helvetica,sans-Serif" font-size="10.00" fill="#000000">/AliceO2Group/AliceO2</text>
<text text-anchor="start" x="650" y="-196.5" font-family="Helvetica,sans-Serif" font-size="10.00" fill="#000000">/Detectors/DCS/include</text>
<text text-anchor="middle" x="725" y="-185.5" font-family="Helvetica,sans-Serif" font-size="10.00" fill="#000000">/DetectorsDCS/DCSProcessor.h</text>
</a>
</g>
</g>
<!-- Node6&#45;&gt;Node7 -->
<g id="edge2" class="edge">
<title>Node6&#45;&gt;Node7</title>
<path fill="none" stroke="#191970" d="M614.1301,-262.7067C634.5301,-251.9967 656.4441,-240.4919 675.3587,-230.5617"/>
<polygon fill="#191970" stroke="#191970" points="612.4147,-259.6542 605.1876,-267.4015 615.6686,-265.852 612.4147,-259.6542"/>
</g>
<!-- Node9 -->
<g id="node5" class="node">
<title>Node9</title>
<g id="a_node5"><a xlink:href="../../d8/d4e/DCSDataProcessorSpec_8h.html" target="_top" xlink:title="/home/travis/build\l/AliceO2Group/AliceO2\l/Detectors/DCS/testWorkflow\l/DCSDataProcessorSpec.h">
<polygon fill="none" stroke="#000000" points="359.5,-89.5 359.5,-141.5 516.5,-141.5 516.5,-89.5 359.5,-89.5"/>
<text text-anchor="start" x="367.5" y="-129.5" font-family="Helvetica,sans-Serif" font-size="10.00" fill="#000000">/home/travis/build</text>
<text text-anchor="start" x="367.5" y="-118.5" font-family="Helvetica,sans-Serif" font-size="10.00" fill="#000000">/AliceO2Group/AliceO2</text>
<text text-anchor="start" x="367.5" y="-107.5" font-family="Helvetica,sans-Serif" font-size="10.00" fill="#000000">/Detectors/DCS/testWorkflow</text>
<text text-anchor="middle" x="438" y="-96.5" font-family="Helvetica,sans-Serif" font-size="10.00" fill="#000000">/DCSDataProcessorSpec.h</text>
</a>
</g>
</g>
<!-- Node6&#45;&gt;Node9 -->
<g id="edge9" class="edge">
<title>Node6&#45;&gt;Node9</title>
<path fill="none" stroke="#191970" d="M483.0941,-260.9838C473.0167,-252.2787 463.7011,-242.2306 457,-231 440.652,-203.6017 437.2097,-166.368 436.9921,-141.6675"/>
<polygon fill="#191970" stroke="#191970" points="480.9598,-263.7596 490.9183,-267.3762 485.3887,-258.3388 480.9598,-263.7596"/>
</g>
<!-- Node11 -->
<g id="node7" class="node">
<title>Node11</title>
<g id="a_node7"><a xlink:href="../../d4/d16/DataPointCompositeObject_8cxx.html" target="_top" xlink:title="/home/travis/build\l/AliceO2Group/AliceO2\l/Detectors/DCS/src/DataPoint\lCompositeObject.cxx">
<polygon fill="none" stroke="#000000" points="466,-178.5 466,-230.5 624,-230.5 624,-178.5 466,-178.5"/>
<text text-anchor="start" x="474" y="-218.5" font-family="Helvetica,sans-Serif" font-size="10.00" fill="#000000">/home/travis/build</text>
<text text-anchor="start" x="474" y="-207.5" font-family="Helvetica,sans-Serif" font-size="10.00" fill="#000000">/AliceO2Group/AliceO2</text>
<text text-anchor="start" x="474" y="-196.5" font-family="Helvetica,sans-Serif" font-size="10.00" fill="#000000">/Detectors/DCS/src/DataPoint</text>
<text text-anchor="middle" x="545" y="-185.5" font-family="Helvetica,sans-Serif" font-size="10.00" fill="#000000">CompositeObject.cxx</text>
</a>
</g>
</g>
<!-- Node6&#45;&gt;Node11 -->
<g id="edge6" class="edge">
<title>Node6&#45;&gt;Node11</title>
<path fill="none" stroke="#191970" d="M545,-257.2457C545,-248.2008 545,-238.8836 545,-230.6442"/>
<polygon fill="#191970" stroke="#191970" points="541.5001,-257.2699 545,-267.27 548.5001,-257.27 541.5001,-257.2699"/>
</g>
<!-- Node12 -->
<g id="node8" class="node">
<title>Node12</title>
<g id="a_node8"><a xlink:href="../../db/d55/DCSDataGeneratorSpec_8h.html" target="_top" xlink:title="/home/travis/build\l/AliceO2Group/AliceO2\l/Detectors/DCS/testWorkflow\l/DCSDataGeneratorSpec.h">
<polygon fill="none" stroke="#000000" points="252.5,-178.5 252.5,-230.5 409.5,-230.5 409.5,-178.5 252.5,-178.5"/>
<text text-anchor="start" x="260.5" y="-218.5" font-family="Helvetica,sans-Serif" font-size="10.00" fill="#000000">/home/travis/build</text>
<text text-anchor="start" x="260.5" y="-207.5" font-family="Helvetica,sans-Serif" font-size="10.00" fill="#000000">/AliceO2Group/AliceO2</text>
<text text-anchor="start" x="260.5" y="-196.5" font-family="Helvetica,sans-Serif" font-size="10.00" fill="#000000">/Detectors/DCS/testWorkflow</text>
<text text-anchor="middle" x="331" y="-185.5" font-family="Helvetica,sans-Serif" font-size="10.00" fill="#000000">/DCSDataGeneratorSpec.h</text>
</a>
</g>
</g>
<!-- Node6&#45;&gt;Node12 -->
<g id="edge7" class="edge">
<title>Node6&#45;&gt;Node12</title>
<path fill="none" stroke="#191970" d="M464.1154,-263.2823C439.4945,-252.4099 412.9087,-240.67 390.018,-230.5617"/>
<polygon fill="#191970" stroke="#191970" points="462.8819,-266.5636 473.4436,-267.4015 465.7096,-260.1601 462.8819,-266.5636"/>
</g>
<!-- Node8 -->
<g id="node4" class="node">
<title>Node8</title>
<g id="a_node4"><a xlink:href="../../d0/d0b/DCSProcessor_8cxx.html" target="_top" xlink:title="/home/travis/build\l/AliceO2Group/AliceO2\l/Detectors/DCS/src/DCSProcessor.cxx">
<polygon fill="none" stroke="#000000" points="626.5,-95 626.5,-136 823.5,-136 823.5,-95 626.5,-95"/>
<text text-anchor="start" x="634.5" y="-124" font-family="Helvetica,sans-Serif" font-size="10.00" fill="#000000">/home/travis/build</text>
<text text-anchor="start" x="634.5" y="-113" font-family="Helvetica,sans-Serif" font-size="10.00" fill="#000000">/AliceO2Group/AliceO2</text>
<text text-anchor="middle" x="725" y="-102" font-family="Helvetica,sans-Serif" font-size="10.00" fill="#000000">/Detectors/DCS/src/DCSProcessor.cxx</text>
</a>
</g>
</g>
<!-- Node7&#45;&gt;Node8 -->
<g id="edge3" class="edge">
<title>Node7&#45;&gt;Node8</title>
<path fill="none" stroke="#191970" d="M725,-168.1335C725,-157.2443 725,-145.6825 725,-136.1771"/>
<polygon fill="#191970" stroke="#191970" points="721.5001,-168.2784 725,-178.2784 728.5001,-168.2785 721.5001,-168.2784"/>
</g>
<!-- Node7&#45;&gt;Node9 -->
<g id="edge4" class="edge">
<title>Node7&#45;&gt;Node9</title>
<path fill="none" stroke="#191970" d="M632.1495,-175.7066C594.9544,-164.1723 552.5511,-151.0228 516.8808,-139.9613"/>
<polygon fill="#191970" stroke="#191970" points="631.3997,-179.1385 641.9877,-178.7575 633.4731,-172.4526 631.3997,-179.1385"/>
</g>
<!-- Node10 -->
<g id="node6" class="node">
<title>Node10</title>
<g id="a_node6"><a xlink:href="../../da/dd6/dcs-data-workflow_8cxx.html" target="_top" xlink:title="/home/travis/build\l/AliceO2Group/AliceO2\l/Detectors/DCS/testWorkflow\l/dcs&#45;data&#45;workflow.cxx">
<polygon fill="none" stroke="#000000" points="305.5,-.5 305.5,-52.5 462.5,-52.5 462.5,-.5 305.5,-.5"/>
<text text-anchor="start" x="313.5" y="-40.5" font-family="Helvetica,sans-Serif" font-size="10.00" fill="#000000">/home/travis/build</text>
<text text-anchor="start" x="313.5" y="-29.5" font-family="Helvetica,sans-Serif" font-size="10.00" fill="#000000">/AliceO2Group/AliceO2</text>
<text text-anchor="start" x="313.5" y="-18.5" font-family="Helvetica,sans-Serif" font-size="10.00" fill="#000000">/Detectors/DCS/testWorkflow</text>
<text text-anchor="middle" x="384" y="-7.5" font-family="Helvetica,sans-Serif" font-size="10.00" fill="#000000">/dcs&#45;data&#45;workflow.cxx</text>
</a>
</g>
</g>
<!-- Node9&#45;&gt;Node10 -->
<g id="edge5" class="edge">
<title>Node9&#45;&gt;Node10</title>
<path fill="none" stroke="#191970" d="M416.8028,-80.5639C411.1374,-71.2264 405.1142,-61.2993 399.796,-52.5341"/>
<polygon fill="#191970" stroke="#191970" points="413.9107,-82.5446 422.0903,-89.2784 419.8953,-78.9135 413.9107,-82.5446"/>
</g>
<!-- Node12&#45;&gt;Node10 -->
<g id="edge8" class="edge">
<title>Node12&#45;&gt;Node10</title>
<path fill="none" stroke="#191970" d="M334.3297,-168.158C337.166,-145.0402 342.2286,-114.7231 351,-89 355.2374,-76.5733 361.6976,-63.616 367.7823,-52.7425"/>
<polygon fill="#191970" stroke="#191970" points="330.8367,-167.8978 333.1778,-178.2308 337.7914,-168.6932 330.8367,-167.8978"/>
</g>
<!-- Node13&#45;&gt;Node6 -->
<g id="edge11" class="edge">
<title>Node13&#45;&gt;Node6</title>
<path fill="none" stroke="#191970" d="M399.3141,-363.3332C423.0166,-352.8665 449.6458,-341.1073 473.5912,-330.5333"/>
<polygon fill="#191970" stroke="#191970" points="397.7769,-360.186 390.0429,-367.4273 400.6046,-366.5894 397.7769,-360.186"/>
</g>
<!-- Node13&#45;&gt;Node7 -->
<g id="edge12" class="edge">
<title>Node13&#45;&gt;Node7</title>
<path fill="none" stroke="#191970" d="M436.3005,-377.2521C522.2908,-363.2631 632.3974,-343.4224 650,-331 684.9408,-306.3419 706.2661,-259.796 716.8348,-230.5608"/>
<polygon fill="#191970" stroke="#191970" points="435.5196,-373.8328 426.2071,-378.8854 436.6378,-380.7429 435.5196,-373.8328"/>
</g>
<!-- Node13&#45;&gt;Node9 -->
<g id="edge16" class="edge">
<title>Node13&#45;&gt;Node9</title>
<path fill="none" stroke="#191970" d="M297.6215,-359.5832C257.7404,-314.8508 201.3184,-235.1297 243,-178 257.2745,-158.435 311.5912,-141.992 359.2835,-130.8898"/>
<polygon fill="#191970" stroke="#191970" points="295.2811,-362.2115 304.6013,-367.2497 300.4572,-357.499 295.2811,-362.2115"/>
</g>
<!-- Node13&#45;&gt;Node10 -->
<g id="edge14" class="edge">
<title>Node13&#45;&gt;Node10</title>
<path fill="none" stroke="#191970" d="M264.4655,-361.5869C252.9372,-353.1874 242.321,-343.0304 235,-331 199.5746,-272.7867 198.1637,-240.6384 225,-178 248.4992,-123.1507 302.6888,-78.7443 341.2628,-52.5112"/>
<polygon fill="#191970" stroke="#191970" points="262.7523,-364.6549 272.9869,-367.3942 266.6944,-358.8704 262.7523,-364.6549"/>
</g>
<!-- Node13&#45;&gt;Node12 -->
<g id="edge15" class="edge">
<title>Node13&#45;&gt;Node12</title>
<path fill="none" stroke="#191970" d="M331,-356.8402C331,-319.7407 331,-263.3142 331,-230.5564"/>
<polygon fill="#191970" stroke="#191970" points="327.5001,-357.2203 331,-367.2204 334.5001,-357.2204 327.5001,-357.2203"/>
</g>
<!-- Node14 -->
<g id="node10" class="node">
<title>Node14</title>
<g id="a_node10"><a xlink:href="../../db/d45/DataPointIdentifier_8cxx.html" target="_top" xlink:title="/home/travis/build\l/AliceO2Group/AliceO2\l/Detectors/DCS/src/DataPoint\lIdentifier.cxx">
<polygon fill="none" stroke="#000000" points="0,-273 0,-325 158,-325 158,-273 0,-273"/>
<text text-anchor="start" x="8" y="-313" font-family="Helvetica,sans-Serif" font-size="10.00" fill="#000000">/home/travis/build</text>
<text text-anchor="start" x="8" y="-302" font-family="Helvetica,sans-Serif" font-size="10.00" fill="#000000">/AliceO2Group/AliceO2</text>
<text text-anchor="start" x="8" y="-291" font-family="Helvetica,sans-Serif" font-size="10.00" fill="#000000">/Detectors/DCS/src/DataPoint</text>
<text text-anchor="middle" x="79" y="-280" font-family="Helvetica,sans-Serif" font-size="10.00" fill="#000000">Identifier.cxx</text>
</a>
</g>
</g>
<!-- Node13&#45;&gt;Node14 -->
<g id="edge13" class="edge">
<title>Node13&#45;&gt;Node14</title>
<path fill="none" stroke="#191970" d="M251.8416,-363.8156C218.7879,-351.4205 180.7196,-337.1449 148.7373,-325.1515"/>
<polygon fill="#191970" stroke="#191970" points="250.8806,-367.1932 261.4728,-367.4273 253.3385,-360.6389 250.8806,-367.1932"/>
</g>
<!-- Node15&#45;&gt;Node6 -->
<g id="edge18" class="edge">
<title>Node15&#45;&gt;Node6</title>
<path fill="none" stroke="#191970" d="M651.3651,-362.217C634.2343,-352.0355 615.2175,-340.733 598.0561,-330.5333"/>
<polygon fill="#191970" stroke="#191970" points="649.7471,-365.3268 660.1317,-367.4273 653.3235,-359.3094 649.7471,-365.3268"/>
</g>
<!-- Node15&#45;&gt;Node7 -->
<g id="edge19" class="edge">
<title>Node15&#45;&gt;Node7</title>
<path fill="none" stroke="#191970" d="M708.0733,-356.8402C712.1955,-319.7407 718.4651,-263.3142 722.1048,-230.5564"/>
<polygon fill="#191970" stroke="#191970" points="704.5458,-356.895 706.92,-367.2204 711.503,-357.6681 704.5458,-356.895"/>
</g>
<!-- Node15&#45;&gt;Node9 -->
<g id="edge23" class="edge">
<title>Node15&#45;&gt;Node9</title>
<path fill="none" stroke="#191970" d="M743.8364,-360.5496C793.2051,-315.7969 865.2586,-234.8686 817,-178 812.139,-172.2718 626.2306,-143.6251 516.6362,-127.1737"/>
<polygon fill="#191970" stroke="#191970" points="741.2702,-358.1481 736.1296,-367.4122 745.9255,-363.3758 741.2702,-358.1481"/>
</g>
<!-- Node15&#45;&gt;Node10 -->
<g id="edge21" class="edge">
<title>Node15&#45;&gt;Node10</title>
<path fill="none" stroke="#191970" d="M776.8935,-362.0659C790.1054,-353.607 802.6401,-343.3053 812,-331 877.3595,-245.073 906.1384,-168.4108 833,-89 808.3404,-62.2255 584.8394,-41.509 462.763,-32.0773"/>
<polygon fill="#191970" stroke="#191970" points="774.8848,-359.1904 768.1401,-367.3611 778.508,-365.1798 774.8848,-359.1904"/>
</g>
<!-- Node15&#45;&gt;Node12 -->
<g id="edge22" class="edge">
<title>Node15&#45;&gt;Node12</title>
<path fill="none" stroke="#191970" d="M606.9448,-384.955C554.7767,-376.9127 491.0746,-361.3017 441,-331 399.4176,-305.8372 365.2764,-259.6716 346.5636,-230.6134"/>
<polygon fill="#191970" stroke="#191970" points="606.4778,-388.4239 616.8809,-386.4176 607.4973,-381.4985 606.4778,-388.4239"/>
</g>
<!-- Node16 -->
<g id="node12" class="node">
<title>Node16</title>
<g id="a_node12"><a xlink:href="../../d6/d40/DataPointValue_8cxx.html" target="_top" xlink:title="/home/travis/build\l/AliceO2Group/AliceO2\l/Detectors/DCS/src/DataPoint\lValue.cxx">
<polygon fill="none" stroke="#000000" points="902,-273 902,-325 1060,-325 1060,-273 902,-273"/>
<text text-anchor="start" x="910" y="-313" font-family="Helvetica,sans-Serif" font-size="10.00" fill="#000000">/home/travis/build</text>
<text text-anchor="start" x="910" y="-302" font-family="Helvetica,sans-Serif" font-size="10.00" fill="#000000">/AliceO2Group/AliceO2</text>
<text text-anchor="start" x="910" y="-291" font-family="Helvetica,sans-Serif" font-size="10.00" fill="#000000">/Detectors/DCS/src/DataPoint</text>
<text text-anchor="middle" x="981" y="-280" font-family="Helvetica,sans-Serif" font-size="10.00" fill="#000000">Value.cxx</text>
</a>
</g>
</g>
<!-- Node15&#45;&gt;Node16 -->
<g id="edge20" class="edge">
<title>Node15&#45;&gt;Node16</title>
<path fill="none" stroke="#191970" d="M790.8315,-364.0842C821.538,-353.661 856.314,-341.8328 888,-331 893.6549,-329.0667 899.5018,-327.0639 905.3827,-325.0468"/>
<polygon fill="#191970" stroke="#191970" points="789.3587,-360.8878 781.014,-367.4159 791.6083,-367.5165 789.3587,-360.8878"/>
</g>
</g>
</svg>
        <g id="navigator" transform="translate(0 0)" fill="#404254">
                <rect fill="#f2f5e9" fill-opacity="0.5" stroke="#606060" stroke-width=".5" x="0" y="0" width="60" height="60"/>
                <use id="zoomplus" xlink:href="#zoomPlus" x="17" y="9" onmousedown="handleZoom(evt,'in')"/>
                <use id="zoomminus" xlink:href="#zoomMin" x="42" y="9" onmousedown="handleZoom(evt,'out')"/>
                <use id="reset" xlink:href="#resetDef" x="30" y="36" onmousedown="handleReset()"/>
                <g id="arrowUp" xlink:href="#dirArrow" transform="translate(30 24)" onmousedown="handlePan(0,-1)">
                  <use xlink:href="#rim" fill="#404040">
                        <set attributeName="fill" to="#808080" begin="arrowUp.mouseover" end="arrowUp.mouseout"/>
                  </use>
                  <path fill="none" stroke="white" stroke-width="1.5" d="M0,-3.0v7 M-2.5,-0.5L0,-3.0L2.5,-0.5"/>
                </g>
                <g id="arrowRight" xlink:href="#dirArrow" transform="rotate(90) translate(36 -43)" onmousedown="handlePan(1,0)">
                  <use xlink:href="#rim" fill="#404040">
                        <set attributeName="fill" to="#808080" begin="arrowRight.mouseover" end="arrowRight.mouseout"/>
                  </use>
                  <path fill="none" stroke="white" stroke-width="1.5" d="M0,-3.0v7 M-2.5,-0.5L0,-3.0L2.5,-0.5"/>
                </g>
                <g id="arrowDown" xlink:href="#dirArrow" transform="rotate(180) translate(-30 -48)" onmousedown="handlePan(0,1)">
                  <use xlink:href="#rim" fill="#404040">
                        <set attributeName="fill" to="#808080" begin="arrowDown.mouseover" end="arrowDown.mouseout"/>
                  </use>
                  <path fill="none" stroke="white" stroke-width="1.5" d="M0,-3.0v7 M-2.5,-0.5L0,-3.0L2.5,-0.5"/>
                </g>
                <g id="arrowLeft" xlink:href="#dirArrow" transform="rotate(270) translate(-36 17)" onmousedown="handlePan(-1,0)">
                  <use xlink:href="#rim" fill="#404040">
                        <set attributeName="fill" to="#808080" begin="arrowLeft.mouseover" end="arrowLeft.mouseout"/>
                  </use>
                  <path fill="none" stroke="white" stroke-width="1.5" d="M0,-3.0v7 M-2.5,-0.5L0,-3.0L2.5,-0.5"/>
                </g>
        </g>
        <svg viewBox="0 0 15 15" width="100%" height="30px" preserveAspectRatio="xMaxYMin meet">
         <g id="arrow_out" transform="scale(0.3 0.3)">
          <a xlink:href="Detectors_2DCS_2include_2DetectorsDCS_2StringUtils_8h__dep__incl_org.svg" target="_base">
           <rect id="button" ry="5" rx="5" y="6" x="6" height="38" width="38"
                fill="#f2f5e9" fill-opacity="0.5" stroke="#606060" stroke-width="1.0"/>
           <path id="arrow"
             d="M 11.500037,31.436501 C 11.940474,20.09759 22.043105,11.32322 32.158766,21.979434 L 37.068811,17.246167 C 37.068811,17.246167 37.088388,32 37.088388,32 L 22.160133,31.978069 C 22.160133,31.978069 26.997745,27.140456 26.997745,27.140456 C 18.528582,18.264221 13.291696,25.230495 11.500037,31.436501 z"
             style="fill:#404040;"/>
          </a>
         </g>
        </svg>
</svg>
