<?xml version="1.0" encoding="UTF-8" standalone="no"?>
<!DOCTYPE svg PUBLIC "-//W3C//DTD SVG 1.1//EN"
 "http://www.w3.org/Graphics/SVG/1.1/DTD/svg11.dtd">
<!-- Generated by graphviz version 2.40.1 (20161225.0304)
 -->
<!-- Title: pidTOFTaskQA Pages: 1 -->
<!--zoomable 877 -->
<svg id="main" version="1.1" xmlns="http://www.w3.org/2000/svg" xmlns:xlink="http://www.w3.org/1999/xlink" xml:space="preserve" onload="init(evt)">
<style type="text/css"><![CDATA[
.edge:hover path { stroke: red; }
.edge:hover polygon { stroke: red; fill: red; }
]]></style>
<script type="text/javascript"><![CDATA[
var edges = document.getElementsByTagName('g');
if (edges && edges.length) {
  for (var i=0;i<edges.length;i++) {
    if (edges[i].id.substr(0,4)=='edge') {
      edges[i].setAttribute('class','edge');
    }
  }
}
]]></script>
        <defs>
                <circle id="rim" cx="0" cy="0" r="7"/>
                <circle id="rim2" cx="0" cy="0" r="3.5"/>
                <g id="zoomPlus">
                        <use xlink:href="#rim" fill="#404040">
                                <set attributeName="fill" to="#808080" begin="zoomplus.mouseover" end="zoomplus.mouseout"/>
                        </use>
                        <path d="M-4,0h8M0,-4v8" fill="none" stroke="white" stroke-width="1.5" pointer-events="none"/>
                </g>
                <g id="zoomMin">
                        <use xlink:href="#rim" fill="#404040">
                                <set attributeName="fill" to="#808080" begin="zoomminus.mouseover" end="zoomminus.mouseout"/>
                        </use>
                        <path d="M-4,0h8" fill="none" stroke="white" stroke-width="1.5" pointer-events="none"/>
                </g>
                <g id="dirArrow">
                        <path fill="none" stroke="white" stroke-width="1.5" d="M0,-3.0v7 M-2.5,-0.5L0,-3.0L2.5,-0.5"/>
                </g>
               <g id="resetDef">
                       <use xlink:href="#rim2" fill="#404040">
                               <set attributeName="fill" to="#808080" begin="reset.mouseover" end="reset.mouseout"/>
                       </use>
               </g>
        </defs>

<script type="text/javascript">
var viewWidth = 680;
var viewHeight = 877;
var sectionId = 'dynsection-0';
</script>
<script xlink:href="../../svgpan.js"/>
<svg id="graph" class="graph">
<g id="viewport">
<title>pidTOFTaskQA</title>
<!-- Node1 -->
<g id="node1" class="node">
<title>Node1</title>
<polygon fill="#bfbfbf" stroke="#000000" points="283.5,-.5 283.5,-68.5 369.5,-68.5 369.5,-.5 283.5,-.5"/>
<text text-anchor="middle" x="326.5" y="-56.5" font-family="Helvetica,sans-Serif" font-size="10.00" fill="#000000">pidTOFTaskQA</text>
<polyline fill="none" stroke="#000000" points="283.5,-49.5 369.5,-49.5 "/>
<text text-anchor="middle" x="326.5" y="-37.5" font-family="Helvetica,sans-Serif" font-size="10.00" fill="#000000"> </text>
<polyline fill="none" stroke="#000000" points="283.5,-30.5 369.5,-30.5 "/>
<text text-anchor="start" x="291.5" y="-18.5" font-family="Helvetica,sans-Serif" font-size="10.00" fill="#000000">+ init()</text>
<text text-anchor="start" x="291.5" y="-7.5" font-family="Helvetica,sans-Serif" font-size="10.00" fill="#000000">+ process()</text>
</g>
<!-- Node2 -->
<g id="node2" class="node">
<title>Node2</title>
<g id="a_node2"><a xlink:href="../../d8/d34/classo2_1_1framework_1_1HistogramRegistry.html" target="_top" xlink:title="{o2::framework::Histogram\lRegistry\n||+ HistogramRegistry()\l+ add()\l+ add()\l+ add()\l+ addClone()\l+ contains()\l+ get()\l+ operator()()\l+ spec()\l+ ref()\l+ setHash()\l+ operator*()\l+ fill()\l+ fill()\l+ getSize()\l+ getSize()\l+ print()\l}">
<polygon fill="none" stroke="#000000" points="0,-160.5 0,-404.5 145,-404.5 145,-160.5 0,-160.5"/>
<text text-anchor="start" x="8" y="-392.5" font-family="Helvetica,sans-Serif" font-size="10.00" fill="#000000">o2::framework::Histogram</text>
<text text-anchor="middle" x="72.5" y="-381.5" font-family="Helvetica,sans-Serif" font-size="10.00" fill="#000000">Registry</text>
<polyline fill="none" stroke="#000000" points="0,-374.5 145,-374.5 "/>
<text text-anchor="middle" x="72.5" y="-362.5" font-family="Helvetica,sans-Serif" font-size="10.00" fill="#000000"> </text>
<polyline fill="none" stroke="#000000" points="0,-355.5 145,-355.5 "/>
<text text-anchor="start" x="8" y="-343.5" font-family="Helvetica,sans-Serif" font-size="10.00" fill="#000000">+ HistogramRegistry()</text>
<text text-anchor="start" x="8" y="-332.5" font-family="Helvetica,sans-Serif" font-size="10.00" fill="#000000">+ add()</text>
<text text-anchor="start" x="8" y="-321.5" font-family="Helvetica,sans-Serif" font-size="10.00" fill="#000000">+ add()</text>
<text text-anchor="start" x="8" y="-310.5" font-family="Helvetica,sans-Serif" font-size="10.00" fill="#000000">+ add()</text>
<text text-anchor="start" x="8" y="-299.5" font-family="Helvetica,sans-Serif" font-size="10.00" fill="#000000">+ addClone()</text>
<text text-anchor="start" x="8" y="-288.5" font-family="Helvetica,sans-Serif" font-size="10.00" fill="#000000">+ contains()</text>
<text text-anchor="start" x="8" y="-277.5" font-family="Helvetica,sans-Serif" font-size="10.00" fill="#000000">+ get()</text>
<text text-anchor="start" x="8" y="-266.5" font-family="Helvetica,sans-Serif" font-size="10.00" fill="#000000">+ operator()()</text>
<text text-anchor="start" x="8" y="-255.5" font-family="Helvetica,sans-Serif" font-size="10.00" fill="#000000">+ spec()</text>
<text text-anchor="start" x="8" y="-244.5" font-family="Helvetica,sans-Serif" font-size="10.00" fill="#000000">+ ref()</text>
<text text-anchor="start" x="8" y="-233.5" font-family="Helvetica,sans-Serif" font-size="10.00" fill="#000000">+ setHash()</text>
<text text-anchor="start" x="8" y="-222.5" font-family="Helvetica,sans-Serif" font-size="10.00" fill="#000000">+ operator*()</text>
<text text-anchor="start" x="8" y="-211.5" font-family="Helvetica,sans-Serif" font-size="10.00" fill="#000000">+ fill()</text>
<text text-anchor="start" x="8" y="-200.5" font-family="Helvetica,sans-Serif" font-size="10.00" fill="#000000">+ fill()</text>
<text text-anchor="start" x="8" y="-189.5" font-family="Helvetica,sans-Serif" font-size="10.00" fill="#000000">+ getSize()</text>
<text text-anchor="start" x="8" y="-178.5" font-family="Helvetica,sans-Serif" font-size="10.00" fill="#000000">+ getSize()</text>
<text text-anchor="start" x="8" y="-167.5" font-family="Helvetica,sans-Serif" font-size="10.00" fill="#000000">+ print()</text>
</a>
</g>
</g>
<!-- Node2&#45;&gt;Node1 -->
<g id="edge1" class="edge">
<title>Node2&#45;&gt;Node1</title>
<path fill="none" stroke="#404040" d="M145.1908,-170.2307C147.9406,-166.7398 150.7139,-163.3203 153.5,-160 183.8124,-123.8758 192.3843,-114.7668 230.5,-87 243.5917,-77.4629 258.6123,-68.4547 272.8245,-60.6812"/>
<polygon fill="none" stroke="#404040" points="272.9031,-60.6392 276.313,-54.2853 283.4897,-54.989 280.0798,-61.343 272.9031,-60.6392"/>
<text text-anchor="middle" x="251" y="-112" font-family="Helvetica,sans-Serif" font-size="10.00" fill="#000000"> +histos</text>
</g>
<!-- Node3 -->
<g id="node3" class="node">
<title>Node3</title>
<polygon fill="none" stroke="#bfbfbf" points="44.5,-458 44.5,-515 100.5,-515 100.5,-458 44.5,-458"/>
<text text-anchor="middle" x="72.5" y="-503" font-family="Helvetica,sans-Serif" font-size="10.00" fill="#000000">uint32_t</text>
<polyline fill="none" stroke="#bfbfbf" points="44.5,-496 100.5,-496 "/>
<text text-anchor="middle" x="72.5" y="-484" font-family="Helvetica,sans-Serif" font-size="10.00" fill="#000000"> </text>
<polyline fill="none" stroke="#bfbfbf" points="44.5,-477 100.5,-477 "/>
<text text-anchor="middle" x="72.5" y="-465" font-family="Helvetica,sans-Serif" font-size="10.00" fill="#000000"> </text>
</g>
<!-- Node3&#45;&gt;Node2 -->
<g id="edge2" class="edge">
<title>Node3&#45;&gt;Node2</title>
<path fill="none" stroke="#404040" d="M72.5,-457.7045C72.5,-446.265 72.5,-432.2292 72.5,-417.1268"/>
<polygon fill="none" stroke="#404040" points="72.5001,-416.8155 68.5,-410.8155 72.5,-404.8155 76.5,-410.8155 72.5001,-416.8155"/>
<text text-anchor="middle" x="95" y="-426" font-family="Helvetica,sans-Serif" font-size="10.00" fill="#000000"> +lookup</text>
</g>
<!-- Node4 -->
<g id="node4" class="node">
<title>Node4</title>
<g id="a_node4"><a xlink:href="../../d8/d71/structo2_1_1framework_1_1Configurable.html" target="_top" xlink:title="{o2::framework::Configurable\l\&lt; int \&gt;\n||+ Configurable()\l}">
<polygon fill="none" stroke="#000000" points="163,-248.5 163,-316.5 318,-316.5 318,-248.5 163,-248.5"/>
<text text-anchor="start" x="171" y="-304.5" font-family="Helvetica,sans-Serif" font-size="10.00" fill="#000000">o2::framework::Configurable</text>
<text text-anchor="middle" x="240.5" y="-293.5" font-family="Helvetica,sans-Serif" font-size="10.00" fill="#000000">&lt; int &gt;</text>
<polyline fill="none" stroke="#000000" points="163,-286.5 318,-286.5 "/>
<text text-anchor="middle" x="240.5" y="-274.5" font-family="Helvetica,sans-Serif" font-size="10.00" fill="#000000"> </text>
<polyline fill="none" stroke="#000000" points="163,-267.5 318,-267.5 "/>
<text text-anchor="start" x="171" y="-255.5" font-family="Helvetica,sans-Serif" font-size="10.00" fill="#000000">+ Configurable()</text>
</a>
</g>
</g>
<!-- Node4&#45;&gt;Node1 -->
<g id="edge3" class="edge">
<title>Node4&#45;&gt;Node1</title>
<path fill="none" stroke="#404040" d="M246.9267,-248.3241C255.0908,-208.5191 271.0043,-141.2899 294.5,-87 295.6268,-84.3964 296.8646,-81.7675 298.1781,-79.1466"/>
<polygon fill="none" stroke="#404040" points="298.2212,-79.0665 297.5466,-71.887 303.9144,-68.503 304.589,-75.6825 298.2212,-79.0665"/>
<text text-anchor="middle" x="317" y="-112" font-family="Helvetica,sans-Serif" font-size="10.00" fill="#000000"> +nBinsP</text>
</g>
<!-- Node5 -->
<g id="node5" class="node">
<title>Node5</title>
<g id="a_node5"><a xlink:href="../../da/def/structo2_1_1framework_1_1ConfigurablePolicyConst.html" target="_top" xlink:title="{o2::framework::Configurable\lPolicyConst\&lt; int \&gt;\n||+ ConfigurablePolicyConst()\l}">
<polygon fill="none" stroke="#000000" points="124,-452.5 124,-520.5 279,-520.5 279,-452.5 124,-452.5"/>
<text text-anchor="start" x="132" y="-508.5" font-family="Helvetica,sans-Serif" font-size="10.00" fill="#000000">o2::framework::Configurable</text>
<text text-anchor="middle" x="201.5" y="-497.5" font-family="Helvetica,sans-Serif" font-size="10.00" fill="#000000">PolicyConst&lt; int &gt;</text>
<polyline fill="none" stroke="#000000" points="124,-490.5 279,-490.5 "/>
<text text-anchor="middle" x="201.5" y="-478.5" font-family="Helvetica,sans-Serif" font-size="10.00" fill="#000000"> </text>
<polyline fill="none" stroke="#000000" points="124,-471.5 279,-471.5 "/>
<text text-anchor="start" x="132" y="-459.5" font-family="Helvetica,sans-Serif" font-size="10.00" fill="#000000">+ ConfigurablePolicyConst()</text>
</a>
</g>
</g>
<!-- Node5&#45;&gt;Node4 -->
<g id="edge4" class="edge">
<title>Node5&#45;&gt;Node4</title>
<path fill="none" stroke="#191970" d="M209.9739,-442.1748C217.1745,-404.5105 227.3627,-351.2181 233.951,-316.7564"/>
<polygon fill="none" stroke="#191970" points="206.4678,-441.8756 208.0277,-452.355 213.3433,-443.1901 206.4678,-441.8756"/>
</g>
<!-- Node6 -->
<g id="node6" class="node">
<title>Node6</title>
<g id="a_node6"><a xlink:href="../../da/d2f/structo2_1_1framework_1_1ConfigurableBase.html" target="_top" xlink:title="{o2::framework::Configurable\lBase\&lt; int \&gt;\n||+ ConfigurableBase()\l}">
<polygon fill="none" stroke="#000000" points="124,-568.5 124,-636.5 279,-636.5 279,-568.5 124,-568.5"/>
<text text-anchor="start" x="132" y="-624.5" font-family="Helvetica,sans-Serif" font-size="10.00" fill="#000000">o2::framework::Configurable</text>
<text text-anchor="middle" x="201.5" y="-613.5" font-family="Helvetica,sans-Serif" font-size="10.00" fill="#000000">Base&lt; int &gt;</text>
<polyline fill="none" stroke="#000000" points="124,-606.5 279,-606.5 "/>
<text text-anchor="middle" x="201.5" y="-594.5" font-family="Helvetica,sans-Serif" font-size="10.00" fill="#000000"> </text>
<polyline fill="none" stroke="#000000" points="124,-587.5 279,-587.5 "/>
<text text-anchor="start" x="132" y="-575.5" font-family="Helvetica,sans-Serif" font-size="10.00" fill="#000000">+ ConfigurableBase()</text>
</a>
</g>
</g>
<!-- Node6&#45;&gt;Node5 -->
<g id="edge5" class="edge">
<title>Node6&#45;&gt;Node5</title>
<path fill="none" stroke="#191970" d="M201.5,-558.1851C201.5,-545.8048 201.5,-532.5422 201.5,-520.833"/>
<polygon fill="none" stroke="#191970" points="198.0001,-558.3235 201.5,-568.3236 205.0001,-558.3236 198.0001,-558.3235"/>
</g>
<!-- Node7 -->
<g id="node7" class="node">
<title>Node7</title>
<polygon fill="none" stroke="#bfbfbf" points="396,-811.5 396,-868.5 425,-868.5 425,-811.5 396,-811.5"/>
<text text-anchor="middle" x="410.5" y="-856.5" font-family="Helvetica,sans-Serif" font-size="10.00" fill="#000000">int</text>
<polyline fill="none" stroke="#bfbfbf" points="396,-849.5 425,-849.5 "/>
<text text-anchor="middle" x="410.5" y="-837.5" font-family="Helvetica,sans-Serif" font-size="10.00" fill="#000000"> </text>
<polyline fill="none" stroke="#bfbfbf" points="396,-830.5 425,-830.5 "/>
<text text-anchor="middle" x="410.5" y="-818.5" font-family="Helvetica,sans-Serif" font-size="10.00" fill="#000000"> </text>
</g>
<!-- Node7&#45;&gt;Node6 -->
<g id="edge6" class="edge">
<title>Node7&#45;&gt;Node6</title>
<path fill="none" stroke="#404040" d="M395.6481,-832.6914C370.2613,-819.6108 318.0221,-790.0656 284.5,-753 256.4248,-721.957 234.1967,-679.7473 219.8374,-647.9286"/>
<polygon fill="none" stroke="#404040" points="219.7373,-647.7009 213.6605,-643.8186 214.9069,-636.716 220.9837,-640.5983 219.7373,-647.7009"/>
<text text-anchor="middle" x="304" y="-727" font-family="Helvetica,sans-Serif" font-size="10.00" fill="#000000"> +value</text>
<text text-anchor="middle" x="304" y="-716" font-family="Helvetica,sans-Serif" font-size="10.00" fill="#000000">+name</text>
<text text-anchor="middle" x="304" y="-705" font-family="Helvetica,sans-Serif" font-size="10.00" fill="#000000">+help</text>
</g>
<!-- Node8 -->
<g id="node8" class="node">
<title>Node8</title>
<g id="a_node8"><a xlink:href="../../da/d2f/structo2_1_1framework_1_1ConfigurableBase.html" target="_top" xlink:title="{o2::framework::Configurable\lBase\&lt; T \&gt;\n||+ ConfigurableBase()\l}">
<polygon fill="none" stroke="#000000" points="333,-684.5 333,-752.5 488,-752.5 488,-684.5 333,-684.5"/>
<text text-anchor="start" x="341" y="-740.5" font-family="Helvetica,sans-Serif" font-size="10.00" fill="#000000">o2::framework::Configurable</text>
<text text-anchor="middle" x="410.5" y="-729.5" font-family="Helvetica,sans-Serif" font-size="10.00" fill="#000000">Base&lt; T &gt;</text>
<polyline fill="none" stroke="#000000" points="333,-722.5 488,-722.5 "/>
<text text-anchor="middle" x="410.5" y="-710.5" font-family="Helvetica,sans-Serif" font-size="10.00" fill="#000000"> </text>
<polyline fill="none" stroke="#000000" points="333,-703.5 488,-703.5 "/>
<text text-anchor="start" x="341" y="-691.5" font-family="Helvetica,sans-Serif" font-size="10.00" fill="#000000">+ ConfigurableBase()</text>
</a>
</g>
</g>
<!-- Node7&#45;&gt;Node8 -->
<g id="edge8" class="edge">
<title>Node7&#45;&gt;Node8</title>
<path fill="none" stroke="#404040" d="M410.5,-811.2062C410.5,-797.3632 410.5,-780.4255 410.5,-764.8327"/>
<polygon fill="none" stroke="#404040" points="410.5001,-764.7007 406.5,-758.7008 410.5,-752.7007 414.5,-758.7007 410.5001,-764.7007"/>
<text text-anchor="middle" x="430.5" y="-785" font-family="Helvetica,sans-Serif" font-size="10.00" fill="#000000"> +name</text>
<text text-anchor="middle" x="430.5" y="-774" font-family="Helvetica,sans-Serif" font-size="10.00" fill="#000000">+help</text>
</g>
<!-- Node15 -->
<g id="node15" class="node">
<title>Node15</title>
<g id="a_node15"><a xlink:href="../../da/d2f/structo2_1_1framework_1_1ConfigurableBase.html" target="_top" xlink:title="{o2::framework::Configurable\lBase\&lt; float \&gt;\n||+ ConfigurableBase()\l}">
<polygon fill="none" stroke="#000000" points="517,-568.5 517,-636.5 672,-636.5 672,-568.5 517,-568.5"/>
<text text-anchor="start" x="525" y="-624.5" font-family="Helvetica,sans-Serif" font-size="10.00" fill="#000000">o2::framework::Configurable</text>
<text text-anchor="middle" x="594.5" y="-613.5" font-family="Helvetica,sans-Serif" font-size="10.00" fill="#000000">Base&lt; float &gt;</text>
<polyline fill="none" stroke="#000000" points="517,-606.5 672,-606.5 "/>
<text text-anchor="middle" x="594.5" y="-594.5" font-family="Helvetica,sans-Serif" font-size="10.00" fill="#000000"> </text>
<polyline fill="none" stroke="#000000" points="517,-587.5 672,-587.5 "/>
<text text-anchor="start" x="525" y="-575.5" font-family="Helvetica,sans-Serif" font-size="10.00" fill="#000000">+ ConfigurableBase()</text>
</a>
</g>
</g>
<!-- Node7&#45;&gt;Node15 -->
<g id="edge18" class="edge">
<title>Node7&#45;&gt;Node15</title>
<path fill="none" stroke="#404040" d="M425.1105,-827.8891C443.5909,-812.0488 475.6352,-782.791 497.5,-753 517.9661,-725.1148 515.0766,-713.2749 533.5,-684 541.4426,-671.3791 550.776,-658.2244 559.7206,-646.2587"/>
<polygon fill="none" stroke="#404040" points="559.8517,-646.0859 560.2907,-638.8881 567.1036,-636.525 566.6646,-643.7227 559.8517,-646.0859"/>
<text text-anchor="middle" x="553.5" y="-721.5" font-family="Helvetica,sans-Serif" font-size="10.00" fill="#000000"> +name</text>
<text text-anchor="middle" x="553.5" y="-710.5" font-family="Helvetica,sans-Serif" font-size="10.00" fill="#000000">+help</text>
</g>
<!-- Node8&#45;&gt;Node6 -->
<g id="edge7" class="edge">
<title>Node8&#45;&gt;Node6</title>
<path fill="none" stroke="#ffa500" d="M340.445,-679.6178C315.2932,-665.6579 287.144,-650.0344 262.7936,-636.5194"/>
<polygon fill="#ffa500" stroke="#ffa500" points="338.7632,-682.6873 349.2053,-684.48 342.1602,-676.5668 338.7632,-682.6873"/>
<text text-anchor="middle" x="332" y="-658" font-family="Helvetica,sans-Serif" font-size="10.00" fill="#000000"> &lt; int &gt;</text>
</g>
<!-- Node10 -->
<g id="node10" class="node">
<title>Node10</title>
<g id="a_node10"><a xlink:href="../../da/def/structo2_1_1framework_1_1ConfigurablePolicyConst.html" target="_top" xlink:title="{o2::framework::Configurable\lPolicyConst\&lt; T \&gt;\n||+ ConfigurablePolicyConst()\l}">
<polygon fill="none" stroke="#000000" points="344,-568.5 344,-636.5 499,-636.5 499,-568.5 344,-568.5"/>
<text text-anchor="start" x="352" y="-624.5" font-family="Helvetica,sans-Serif" font-size="10.00" fill="#000000">o2::framework::Configurable</text>
<text text-anchor="middle" x="421.5" y="-613.5" font-family="Helvetica,sans-Serif" font-size="10.00" fill="#000000">PolicyConst&lt; T &gt;</text>
<polyline fill="none" stroke="#000000" points="344,-606.5 499,-606.5 "/>
<text text-anchor="middle" x="421.5" y="-594.5" font-family="Helvetica,sans-Serif" font-size="10.00" fill="#000000"> </text>
<polyline fill="none" stroke="#000000" points="344,-587.5 499,-587.5 "/>
<text text-anchor="start" x="352" y="-575.5" font-family="Helvetica,sans-Serif" font-size="10.00" fill="#000000">+ ConfigurablePolicyConst()</text>
</a>
</g>
</g>
<!-- Node8&#45;&gt;Node10 -->
<g id="edge11" class="edge">
<title>Node8&#45;&gt;Node10</title>
<path fill="none" stroke="#191970" d="M414.7023,-674.1851C415.8763,-661.8048 417.1339,-648.5422 418.2443,-636.833"/>
<polygon fill="none" stroke="#191970" points="411.2006,-674.0378 413.7409,-684.3236 418.1694,-674.6987 411.2006,-674.0378"/>
</g>
<!-- Node8&#45;&gt;Node15 -->
<g id="edge19" class="edge">
<title>Node8&#45;&gt;Node15</title>
<path fill="none" stroke="#ffa500" d="M439.8293,-676.3488C446.6212,-668.5379 454.2894,-660.9715 462.5,-655 480.2547,-642.087 488.0898,-645.087 508.5,-637 511.1921,-635.9333 513.9307,-634.8461 516.6961,-633.7465"/>
<polygon fill="#ffa500" stroke="#ffa500" points="437.0191,-674.2549 433.342,-684.1912 442.4129,-678.7167 437.0191,-674.2549"/>
<text text-anchor="middle" x="486.5" y="-658" font-family="Helvetica,sans-Serif" font-size="10.00" fill="#000000"> &lt; float &gt;</text>
</g>
<!-- Node9 -->
<g id="node9" class="node">
<title>Node9</title>
<polygon fill="none" stroke="#bfbfbf" points="207,-811.5 207,-868.5 236,-868.5 236,-811.5 207,-811.5"/>
<text text-anchor="middle" x="221.5" y="-856.5" font-family="Helvetica,sans-Serif" font-size="10.00" fill="#000000">T</text>
<polyline fill="none" stroke="#bfbfbf" points="207,-849.5 236,-849.5 "/>
<text text-anchor="middle" x="221.5" y="-837.5" font-family="Helvetica,sans-Serif" font-size="10.00" fill="#000000"> </text>
<polyline fill="none" stroke="#bfbfbf" points="207,-830.5 236,-830.5 "/>
<text text-anchor="middle" x="221.5" y="-818.5" font-family="Helvetica,sans-Serif" font-size="10.00" fill="#000000"> </text>
</g>
<!-- Node9&#45;&gt;Node8 -->
<g id="edge9" class="edge">
<title>Node9&#45;&gt;Node8</title>
<path fill="none" stroke="#404040" d="M236.0167,-830.6678C259.5537,-815.5369 307.4067,-784.7742 347.0545,-759.2864"/>
<polygon fill="none" stroke="#404040" points="347.1063,-759.2531 349.9903,-752.6439 357.2004,-752.764 354.3164,-759.3733 347.1063,-759.2531"/>
<text text-anchor="middle" x="347" y="-779.5" font-family="Helvetica,sans-Serif" font-size="10.00" fill="#000000"> +value</text>
</g>
<!-- Node10&#45;&gt;Node5 -->
<g id="edge10" class="edge">
<title>Node10&#45;&gt;Node5</title>
<path fill="none" stroke="#ffa500" d="M348.1045,-563.8006C321.5412,-549.7944 291.7635,-534.0935 266.0196,-520.5194"/>
<polygon fill="#ffa500" stroke="#ffa500" points="346.5011,-566.9118 356.9792,-568.48 349.766,-560.7198 346.5011,-566.9118"/>
<text text-anchor="middle" x="338" y="-542" font-family="Helvetica,sans-Serif" font-size="10.00" fill="#000000"> &lt; int &gt;</text>
</g>
<!-- Node14 -->
<g id="node14" class="node">
<title>Node14</title>
<g id="a_node14"><a xlink:href="../../da/def/structo2_1_1framework_1_1ConfigurablePolicyConst.html" target="_top" xlink:title="{o2::framework::Configurable\lPolicyConst\&lt; float \&gt;\n||+ ConfigurablePolicyConst()\l}">
<polygon fill="none" stroke="#000000" points="470,-452.5 470,-520.5 625,-520.5 625,-452.5 470,-452.5"/>
<text text-anchor="start" x="478" y="-508.5" font-family="Helvetica,sans-Serif" font-size="10.00" fill="#000000">o2::framework::Configurable</text>
<text text-anchor="middle" x="547.5" y="-497.5" font-family="Helvetica,sans-Serif" font-size="10.00" fill="#000000">PolicyConst&lt; float &gt;</text>
<polyline fill="none" stroke="#000000" points="470,-490.5 625,-490.5 "/>
<text text-anchor="middle" x="547.5" y="-478.5" font-family="Helvetica,sans-Serif" font-size="10.00" fill="#000000"> </text>
<polyline fill="none" stroke="#000000" points="470,-471.5 625,-471.5 "/>
<text text-anchor="start" x="478" y="-459.5" font-family="Helvetica,sans-Serif" font-size="10.00" fill="#000000">+ ConfigurablePolicyConst()</text>
</a>
</g>
</g>
<!-- Node10&#45;&gt;Node14 -->
<g id="edge20" class="edge">
<title>Node10&#45;&gt;Node14</title>
<path fill="none" stroke="#ffa500" d="M466.0295,-561.5046C480.476,-548.2046 496.344,-533.596 510.2073,-520.833"/>
<polygon fill="#ffa500" stroke="#ffa500" points="463.6091,-558.9755 458.6227,-568.3236 468.3503,-564.1254 463.6091,-558.9755"/>
<text text-anchor="middle" x="511.5" y="-542" font-family="Helvetica,sans-Serif" font-size="10.00" fill="#000000"> &lt; float &gt;</text>
</g>
<!-- Node11 -->
<g id="node11" class="node">
<title>Node11</title>
<g id="a_node11"><a xlink:href="../../d8/d71/structo2_1_1framework_1_1Configurable.html" target="_top" xlink:title="{o2::framework::Configurable\l\&lt; T, IP \&gt;\n||+ Configurable()\l}">
<polygon fill="none" stroke="#000000" points="297,-452.5 297,-520.5 452,-520.5 452,-452.5 297,-452.5"/>
<text text-anchor="start" x="305" y="-508.5" font-family="Helvetica,sans-Serif" font-size="10.00" fill="#000000">o2::framework::Configurable</text>
<text text-anchor="middle" x="374.5" y="-497.5" font-family="Helvetica,sans-Serif" font-size="10.00" fill="#000000">&lt; T, IP &gt;</text>
<polyline fill="none" stroke="#000000" points="297,-490.5 452,-490.5 "/>
<text text-anchor="middle" x="374.5" y="-478.5" font-family="Helvetica,sans-Serif" font-size="10.00" fill="#000000"> </text>
<polyline fill="none" stroke="#000000" points="297,-471.5 452,-471.5 "/>
<text text-anchor="start" x="305" y="-459.5" font-family="Helvetica,sans-Serif" font-size="10.00" fill="#000000">+ Configurable()</text>
</a>
</g>
</g>
<!-- Node11&#45;&gt;Node4 -->
<g id="edge12" class="edge">
<title>Node11&#45;&gt;Node4</title>
<path fill="none" stroke="#ffa500" d="M346.3309,-443.6156C321.5438,-405.8801 285.9286,-351.6599 263.0018,-316.7564"/>
<polygon fill="#ffa500" stroke="#ffa500" points="343.6559,-445.9184 352.0714,-452.355 349.5066,-442.0753 343.6559,-445.9184"/>
<text text-anchor="middle" x="358" y="-426" font-family="Helvetica,sans-Serif" font-size="10.00" fill="#000000"> &lt; int &gt;</text>
</g>
<!-- Node13 -->
<g id="node13" class="node">
<title>Node13</title>
<g id="a_node13"><a xlink:href="../../d8/d71/structo2_1_1framework_1_1Configurable.html" target="_top" xlink:title="{o2::framework::Configurable\l\&lt; float \&gt;\n||+ Configurable()\l}">
<polygon fill="none" stroke="#000000" points="336,-248.5 336,-316.5 491,-316.5 491,-248.5 336,-248.5"/>
<text text-anchor="start" x="344" y="-304.5" font-family="Helvetica,sans-Serif" font-size="10.00" fill="#000000">o2::framework::Configurable</text>
<text text-anchor="middle" x="413.5" y="-293.5" font-family="Helvetica,sans-Serif" font-size="10.00" fill="#000000">&lt; float &gt;</text>
<polyline fill="none" stroke="#000000" points="336,-286.5 491,-286.5 "/>
<text text-anchor="middle" x="413.5" y="-274.5" font-family="Helvetica,sans-Serif" font-size="10.00" fill="#000000"> </text>
<polyline fill="none" stroke="#000000" points="336,-267.5 491,-267.5 "/>
<text text-anchor="start" x="344" y="-255.5" font-family="Helvetica,sans-Serif" font-size="10.00" fill="#000000">+ Configurable()</text>
</a>
</g>
</g>
<!-- Node11&#45;&gt;Node13 -->
<g id="edge21" class="edge">
<title>Node11&#45;&gt;Node13</title>
<path fill="none" stroke="#ffa500" d="M382.9739,-442.1748C390.1745,-404.5105 400.3627,-351.2181 406.951,-316.7564"/>
<polygon fill="#ffa500" stroke="#ffa500" points="379.4678,-441.8756 381.0277,-452.355 386.3433,-443.1901 379.4678,-441.8756"/>
<text text-anchor="middle" x="409.5" y="-426" font-family="Helvetica,sans-Serif" font-size="10.00" fill="#000000"> &lt; float &gt;</text>
</g>
<!-- Node12 -->
<g id="node12" class="node">
<title>Node12</title>
<polygon fill="none" stroke="#bfbfbf" points="297,-574 297,-631 326,-631 326,-574 297,-574"/>
<text text-anchor="middle" x="311.5" y="-619" font-family="Helvetica,sans-Serif" font-size="10.00" fill="#000000">IP</text>
<polyline fill="none" stroke="#bfbfbf" points="297,-612 326,-612 "/>
<text text-anchor="middle" x="311.5" y="-600" font-family="Helvetica,sans-Serif" font-size="10.00" fill="#000000"> </text>
<polyline fill="none" stroke="#bfbfbf" points="297,-593 326,-593 "/>
<text text-anchor="middle" x="311.5" y="-581" font-family="Helvetica,sans-Serif" font-size="10.00" fill="#000000"> </text>
</g>
<!-- Node12&#45;&gt;Node11 -->
<g id="edge13" class="edge">
<title>Node12&#45;&gt;Node11</title>
<path fill="none" stroke="#191970" d="M319.4856,-564.1509C322.0463,-555.596 325.3338,-546.7654 329.5,-539 332.9052,-532.653 337.1861,-526.3972 341.7452,-520.5386"/>
<polygon fill="none" stroke="#191970" points="316.0577,-563.4181 316.8042,-573.9866 322.8112,-565.2593 316.0577,-563.4181"/>
</g>
<!-- Node13&#45;&gt;Node1 -->
<g id="edge14" class="edge">
<title>Node13&#45;&gt;Node1</title>
<path fill="none" stroke="#404040" d="M401.4944,-248.277C386.1638,-204.5762 359.5848,-128.8106 342.5338,-80.2054"/>
<polygon fill="none" stroke="#404040" points="342.4944,-80.0931 336.7337,-75.7556 338.522,-68.7697 344.2827,-73.1073 342.4944,-80.0931"/>
<text text-anchor="middle" x="380.5" y="-117.5" font-family="Helvetica,sans-Serif" font-size="10.00" fill="#000000"> +MaxP</text>
<text text-anchor="middle" x="380.5" y="-106.5" font-family="Helvetica,sans-Serif" font-size="10.00" fill="#000000">+MinP</text>
</g>
<!-- Node14&#45;&gt;Node13 -->
<g id="edge15" class="edge">
<title>Node14&#45;&gt;Node13</title>
<path fill="none" stroke="#191970" d="M519.3309,-443.6156C494.5438,-405.8801 458.9286,-351.6599 436.0018,-316.7564"/>
<polygon fill="none" stroke="#191970" points="516.6559,-445.9184 525.0714,-452.355 522.5066,-442.0753 516.6559,-445.9184"/>
</g>
<!-- Node15&#45;&gt;Node14 -->
<g id="edge16" class="edge">
<title>Node15&#45;&gt;Node14</title>
<path fill="none" stroke="#191970" d="M576.8454,-558.9268C571.7439,-546.3359 566.2499,-532.7764 561.4108,-520.833"/>
<polygon fill="none" stroke="#191970" points="573.6535,-560.3698 580.6527,-568.3236 580.1413,-557.7411 573.6535,-560.3698"/>
</g>
<!-- Node16 -->
<g id="node16" class="node">
<title>Node16</title>
<g id="a_node16"><a xlink:href="../../d4/dc3/classfloat.html" target="_top" xlink:title="{float\n||}">
<polygon fill="none" stroke="#000000" points="582.5,-690 582.5,-747 620.5,-747 620.5,-690 582.5,-690"/>
<text text-anchor="middle" x="601.5" y="-735" font-family="Helvetica,sans-Serif" font-size="10.00" fill="#000000">float</text>
<polyline fill="none" stroke="#000000" points="582.5,-728 620.5,-728 "/>
<text text-anchor="middle" x="601.5" y="-716" font-family="Helvetica,sans-Serif" font-size="10.00" fill="#000000"> </text>
<polyline fill="none" stroke="#000000" points="582.5,-709 620.5,-709 "/>
<text text-anchor="middle" x="601.5" y="-697" font-family="Helvetica,sans-Serif" font-size="10.00" fill="#000000"> </text>
</a>
</g>
</g>
<!-- Node16&#45;&gt;Node15 -->
<g id="edge17" class="edge">
<title>Node16&#45;&gt;Node15</title>
<path fill="none" stroke="#404040" d="M599.7697,-689.8258C599.0257,-677.4977 598.137,-662.7709 597.3033,-648.9549"/>
<polygon fill="none" stroke="#404040" points="597.2817,-648.596 592.9276,-642.8478 596.5588,-636.6178 600.913,-642.3659 597.2817,-648.596"/>
<text text-anchor="middle" x="617" y="-658" font-family="Helvetica,sans-Serif" font-size="10.00" fill="#000000"> +value</text>
</g>
<!-- Node17 -->
<g id="node17" class="node">
<title>Node17</title>
<polygon fill="none" stroke="#bfbfbf" points="509.5,-254 509.5,-311 553.5,-311 553.5,-254 509.5,-254"/>
<text text-anchor="middle" x="531.5" y="-299" font-family="Helvetica,sans-Serif" font-size="10.00" fill="#000000">static</text>
<polyline fill="none" stroke="#bfbfbf" points="509.5,-292 553.5,-292 "/>
<text text-anchor="middle" x="531.5" y="-280" font-family="Helvetica,sans-Serif" font-size="10.00" fill="#000000"> </text>
<polyline fill="none" stroke="#bfbfbf" points="509.5,-273 553.5,-273 "/>
<text text-anchor="middle" x="531.5" y="-261" font-family="Helvetica,sans-Serif" font-size="10.00" fill="#000000"> </text>
</g>
<!-- Node17&#45;&gt;Node1 -->
<g id="edge22" class="edge">
<title>Node17&#45;&gt;Node1</title>
<path fill="none" stroke="#404040" d="M529.6508,-253.8194C526.7672,-227.5021 519.3871,-188.4076 500.5,-160 470.8121,-115.3473 419.4871,-81.227 380.2497,-59.9146"/>
<polygon fill="none" stroke="#404040" points="380.1387,-59.8559 372.9646,-60.5862 369.5313,-54.2449 376.7053,-53.5146 380.1387,-59.8559"/>
<text text-anchor="middle" x="527" y="-134" font-family="Helvetica,sans-Serif" font-size="10.00" fill="#000000"> +hnsigma</text>
<text text-anchor="middle" x="527" y="-123" font-family="Helvetica,sans-Serif" font-size="10.00" fill="#000000">+hexpected_diff</text>
<text text-anchor="middle" x="527" y="-112" font-family="Helvetica,sans-Serif" font-size="10.00" fill="#000000">+hexpected</text>
<text text-anchor="middle" x="527" y="-101" font-family="Helvetica,sans-Serif" font-size="10.00" fill="#000000">+Np</text>
<text text-anchor="middle" x="527" y="-90" font-family="Helvetica,sans-Serif" font-size="10.00" fill="#000000">+pT</text>
</g>
</g>
</svg>
        <g id="navigator" transform="translate(0 0)" fill="#404254">
                <rect fill="#f2f5e9" fill-opacity="0.5" stroke="#606060" stroke-width=".5" x="0" y="0" width="60" height="60"/>
                <use id="zoomplus" xlink:href="#zoomPlus" x="17" y="9" onmousedown="handleZoom(evt,'in')"/>
                <use id="zoomminus" xlink:href="#zoomMin" x="42" y="9" onmousedown="handleZoom(evt,'out')"/>
                <use id="reset" xlink:href="#resetDef" x="30" y="36" onmousedown="handleReset()"/>
                <g id="arrowUp" xlink:href="#dirArrow" transform="translate(30 24)" onmousedown="handlePan(0,-1)">
                  <use xlink:href="#rim" fill="#404040">
                        <set attributeName="fill" to="#808080" begin="arrowUp.mouseover" end="arrowUp.mouseout"/>
                  </use>
                  <path fill="none" stroke="white" stroke-width="1.5" d="M0,-3.0v7 M-2.5,-0.5L0,-3.0L2.5,-0.5"/>
                </g>
                <g id="arrowRight" xlink:href="#dirArrow" transform="rotate(90) translate(36 -43)" onmousedown="handlePan(1,0)">
                  <use xlink:href="#rim" fill="#404040">
                        <set attributeName="fill" to="#808080" begin="arrowRight.mouseover" end="arrowRight.mouseout"/>
                  </use>
                  <path fill="none" stroke="white" stroke-width="1.5" d="M0,-3.0v7 M-2.5,-0.5L0,-3.0L2.5,-0.5"/>
                </g>
                <g id="arrowDown" xlink:href="#dirArrow" transform="rotate(180) translate(-30 -48)" onmousedown="handlePan(0,1)">
                  <use xlink:href="#rim" fill="#404040">
                        <set attributeName="fill" to="#808080" begin="arrowDown.mouseover" end="arrowDown.mouseout"/>
                  </use>
                  <path fill="none" stroke="white" stroke-width="1.5" d="M0,-3.0v7 M-2.5,-0.5L0,-3.0L2.5,-0.5"/>
                </g>
                <g id="arrowLeft" xlink:href="#dirArrow" transform="rotate(270) translate(-36 17)" onmousedown="handlePan(-1,0)">
                  <use xlink:href="#rim" fill="#404040">
                        <set attributeName="fill" to="#808080" begin="arrowLeft.mouseover" end="arrowLeft.mouseout"/>
                  </use>
                  <path fill="none" stroke="white" stroke-width="1.5" d="M0,-3.0v7 M-2.5,-0.5L0,-3.0L2.5,-0.5"/>
                </g>
        </g>
        <svg viewBox="0 0 15 15" width="100%" height="30px" preserveAspectRatio="xMaxYMin meet">
         <g id="arrow_out" transform="scale(0.3 0.3)">
          <a xlink:href="structpidTOFTaskQA__coll__graph_org.svg" target="_base">
           <rect id="button" ry="5" rx="5" y="6" x="6" height="38" width="38"
                fill="#f2f5e9" fill-opacity="0.5" stroke="#606060" stroke-width="1.0"/>
           <path id="arrow"
             d="M 11.500037,31.436501 C 11.940474,20.09759 22.043105,11.32322 32.158766,21.979434 L 37.068811,17.246167 C 37.068811,17.246167 37.088388,32 37.088388,32 L 22.160133,31.978069 C 22.160133,31.978069 26.997745,27.140456 26.997745,27.140456 C 18.528582,18.264221 13.291696,25.230495 11.500037,31.436501 z"
             style="fill:#404040;"/>
          </a>
         </g>
        </svg>
</svg>
