<?xml version="1.0" encoding="UTF-8" standalone="no"?>
<!DOCTYPE svg PUBLIC "-//W3C//DTD SVG 1.1//EN"
 "http://www.w3.org/Graphics/SVG/1.1/DTD/svg11.dtd">
<!-- Generated by graphviz version 2.40.1 (20161225.0304)
 -->
<!-- Title: o2::zdc::RecEvent Pages: 1 -->
<!--zoomable 705 -->
<svg id="main" version="1.1" xmlns="http://www.w3.org/2000/svg" xmlns:xlink="http://www.w3.org/1999/xlink" xml:space="preserve" onload="init(evt)">
<style type="text/css"><![CDATA[
.edge:hover path { stroke: red; }
.edge:hover polygon { stroke: red; fill: red; }
]]></style>
<script type="text/javascript"><![CDATA[
var edges = document.getElementsByTagName('g');
if (edges && edges.length) {
  for (var i=0;i<edges.length;i++) {
    if (edges[i].id.substr(0,4)=='edge') {
      edges[i].setAttribute('class','edge');
    }
  }
}
]]></script>
        <defs>
                <circle id="rim" cx="0" cy="0" r="7"/>
                <circle id="rim2" cx="0" cy="0" r="3.5"/>
                <g id="zoomPlus">
                        <use xlink:href="#rim" fill="#404040">
                                <set attributeName="fill" to="#808080" begin="zoomplus.mouseover" end="zoomplus.mouseout"/>
                        </use>
                        <path d="M-4,0h8M0,-4v8" fill="none" stroke="white" stroke-width="1.5" pointer-events="none"/>
                </g>
                <g id="zoomMin">
                        <use xlink:href="#rim" fill="#404040">
                                <set attributeName="fill" to="#808080" begin="zoomminus.mouseover" end="zoomminus.mouseout"/>
                        </use>
                        <path d="M-4,0h8" fill="none" stroke="white" stroke-width="1.5" pointer-events="none"/>
                </g>
                <g id="dirArrow">
                        <path fill="none" stroke="white" stroke-width="1.5" d="M0,-3.0v7 M-2.5,-0.5L0,-3.0L2.5,-0.5"/>
                </g>
               <g id="resetDef">
                       <use xlink:href="#rim2" fill="#404040">
                               <set attributeName="fill" to="#808080" begin="reset.mouseover" end="reset.mouseout"/>
                       </use>
               </g>
        </defs>

<script type="text/javascript">
var viewWidth = 1186;
var viewHeight = 705;
var sectionId = 'dynsection-0';
</script>
<script xlink:href="../../svgpan.js"/>
<svg id="graph" class="graph">
<g id="viewport">
<title>o2::zdc::RecEvent</title>
<!-- Node1 -->
<g id="node1" class="node">
<title>Node1</title>
<polygon fill="#bfbfbf" stroke="#000000" points="556,-.5 556,-68.5 658,-68.5 658,-.5 556,-.5"/>
<text text-anchor="middle" x="607" y="-56.5" font-family="Helvetica,sans-Serif" font-size="10.00" fill="#000000">o2::zdc::RecEvent</text>
<polyline fill="none" stroke="#000000" points="556,-49.5 658,-49.5 "/>
<text text-anchor="middle" x="607" y="-37.5" font-family="Helvetica,sans-Serif" font-size="10.00" fill="#000000"> </text>
<polyline fill="none" stroke="#000000" points="556,-30.5 658,-30.5 "/>
<text text-anchor="start" x="564" y="-18.5" font-family="Helvetica,sans-Serif" font-size="10.00" fill="#000000">+ print()</text>
<text text-anchor="start" x="564" y="-7.5" font-family="Helvetica,sans-Serif" font-size="10.00" fill="#000000">+ ClassDefNV()</text>
</g>
<!-- Node2 -->
<g id="node2" class="node">
<title>Node2</title>
<g id="a_node2"><a xlink:href="../../d1/d21/structo2_1_1InteractionRecord.html" target="_top" xlink:title="{o2::InteractionRecord\n||+ InteractionRecord()\l+ InteractionRecord()\l+ InteractionRecord()\l+ InteractionRecord()\l+ clear()\l+ isDummy()\l+ setFromNS()\l+ bc2ns()\l+ operator==()\l+ operator!=()\l+ differenceInBC()\l+ differenceInBCNS()\l+ differenceInBCMS()\l+ toLong()\l+ setFromLong()\l+ operator\&gt;()\l+ operator\&gt;=()\l+ operator\&lt;()\l+ operator\&lt;=()\l+ operator&#45;&#45;()\l+ operator&#45;&#45;()\l+ operator++()\l+ operator++()\l+ operator+=()\l+ operator&#45;=()\l+ operator+=()\l+ operator&#45;=()\l+ operator+()\l+ operator&#45;()\l+ operator+()\l+ operator&#45;()\l+ print()\l+ asString()\l+ ClassDefNV()\l+ bc2ns()\l+ ns2bc()\l}">
<polygon fill="none" stroke="#000000" points="102.5,-127.5 102.5,-569.5 223.5,-569.5 223.5,-127.5 102.5,-127.5"/>
<text text-anchor="middle" x="163" y="-557.5" font-family="Helvetica,sans-Serif" font-size="10.00" fill="#000000">o2::InteractionRecord</text>
<polyline fill="none" stroke="#000000" points="102.5,-550.5 223.5,-550.5 "/>
<text text-anchor="middle" x="163" y="-538.5" font-family="Helvetica,sans-Serif" font-size="10.00" fill="#000000"> </text>
<polyline fill="none" stroke="#000000" points="102.5,-531.5 223.5,-531.5 "/>
<text text-anchor="start" x="110.5" y="-519.5" font-family="Helvetica,sans-Serif" font-size="10.00" fill="#000000">+ InteractionRecord()</text>
<text text-anchor="start" x="110.5" y="-508.5" font-family="Helvetica,sans-Serif" font-size="10.00" fill="#000000">+ InteractionRecord()</text>
<text text-anchor="start" x="110.5" y="-497.5" font-family="Helvetica,sans-Serif" font-size="10.00" fill="#000000">+ InteractionRecord()</text>
<text text-anchor="start" x="110.5" y="-486.5" font-family="Helvetica,sans-Serif" font-size="10.00" fill="#000000">+ InteractionRecord()</text>
<text text-anchor="start" x="110.5" y="-475.5" font-family="Helvetica,sans-Serif" font-size="10.00" fill="#000000">+ clear()</text>
<text text-anchor="start" x="110.5" y="-464.5" font-family="Helvetica,sans-Serif" font-size="10.00" fill="#000000">+ isDummy()</text>
<text text-anchor="start" x="110.5" y="-453.5" font-family="Helvetica,sans-Serif" font-size="10.00" fill="#000000">+ setFromNS()</text>
<text text-anchor="start" x="110.5" y="-442.5" font-family="Helvetica,sans-Serif" font-size="10.00" fill="#000000">+ bc2ns()</text>
<text text-anchor="start" x="110.5" y="-431.5" font-family="Helvetica,sans-Serif" font-size="10.00" fill="#000000">+ operator==()</text>
<text text-anchor="start" x="110.5" y="-420.5" font-family="Helvetica,sans-Serif" font-size="10.00" fill="#000000">+ operator!=()</text>
<text text-anchor="start" x="110.5" y="-409.5" font-family="Helvetica,sans-Serif" font-size="10.00" fill="#000000">+ differenceInBC()</text>
<text text-anchor="start" x="110.5" y="-398.5" font-family="Helvetica,sans-Serif" font-size="10.00" fill="#000000">+ differenceInBCNS()</text>
<text text-anchor="start" x="110.5" y="-387.5" font-family="Helvetica,sans-Serif" font-size="10.00" fill="#000000">+ differenceInBCMS()</text>
<text text-anchor="start" x="110.5" y="-376.5" font-family="Helvetica,sans-Serif" font-size="10.00" fill="#000000">+ toLong()</text>
<text text-anchor="start" x="110.5" y="-365.5" font-family="Helvetica,sans-Serif" font-size="10.00" fill="#000000">+ setFromLong()</text>
<text text-anchor="start" x="110.5" y="-354.5" font-family="Helvetica,sans-Serif" font-size="10.00" fill="#000000">+ operator&gt;()</text>
<text text-anchor="start" x="110.5" y="-343.5" font-family="Helvetica,sans-Serif" font-size="10.00" fill="#000000">+ operator&gt;=()</text>
<text text-anchor="start" x="110.5" y="-332.5" font-family="Helvetica,sans-Serif" font-size="10.00" fill="#000000">+ operator&lt;()</text>
<text text-anchor="start" x="110.5" y="-321.5" font-family="Helvetica,sans-Serif" font-size="10.00" fill="#000000">+ operator&lt;=()</text>
<text text-anchor="start" x="110.5" y="-310.5" font-family="Helvetica,sans-Serif" font-size="10.00" fill="#000000">+ operator&#45;&#45;()</text>
<text text-anchor="start" x="110.5" y="-299.5" font-family="Helvetica,sans-Serif" font-size="10.00" fill="#000000">+ operator&#45;&#45;()</text>
<text text-anchor="start" x="110.5" y="-288.5" font-family="Helvetica,sans-Serif" font-size="10.00" fill="#000000">+ operator++()</text>
<text text-anchor="start" x="110.5" y="-277.5" font-family="Helvetica,sans-Serif" font-size="10.00" fill="#000000">+ operator++()</text>
<text text-anchor="start" x="110.5" y="-266.5" font-family="Helvetica,sans-Serif" font-size="10.00" fill="#000000">+ operator+=()</text>
<text text-anchor="start" x="110.5" y="-255.5" font-family="Helvetica,sans-Serif" font-size="10.00" fill="#000000">+ operator&#45;=()</text>
<text text-anchor="start" x="110.5" y="-244.5" font-family="Helvetica,sans-Serif" font-size="10.00" fill="#000000">+ operator+=()</text>
<text text-anchor="start" x="110.5" y="-233.5" font-family="Helvetica,sans-Serif" font-size="10.00" fill="#000000">+ operator&#45;=()</text>
<text text-anchor="start" x="110.5" y="-222.5" font-family="Helvetica,sans-Serif" font-size="10.00" fill="#000000">+ operator+()</text>
<text text-anchor="start" x="110.5" y="-211.5" font-family="Helvetica,sans-Serif" font-size="10.00" fill="#000000">+ operator&#45;()</text>
<text text-anchor="start" x="110.5" y="-200.5" font-family="Helvetica,sans-Serif" font-size="10.00" fill="#000000">+ operator+()</text>
<text text-anchor="start" x="110.5" y="-189.5" font-family="Helvetica,sans-Serif" font-size="10.00" fill="#000000">+ operator&#45;()</text>
<text text-anchor="start" x="110.5" y="-178.5" font-family="Helvetica,sans-Serif" font-size="10.00" fill="#000000">+ print()</text>
<text text-anchor="start" x="110.5" y="-167.5" font-family="Helvetica,sans-Serif" font-size="10.00" fill="#000000">+ asString()</text>
<text text-anchor="start" x="110.5" y="-156.5" font-family="Helvetica,sans-Serif" font-size="10.00" fill="#000000">+ ClassDefNV()</text>
<text text-anchor="start" x="110.5" y="-145.5" font-family="Helvetica,sans-Serif" font-size="10.00" fill="#000000">+ bc2ns()</text>
<text text-anchor="start" x="110.5" y="-134.5" font-family="Helvetica,sans-Serif" font-size="10.00" fill="#000000">+ ns2bc()</text>
</a>
</g>
</g>
<!-- Node2&#45;&gt;Node1 -->
<g id="edge1" class="edge">
<title>Node2&#45;&gt;Node1</title>
<path fill="none" stroke="#404040" d="M223.5763,-133.5617C235.0727,-115.997 248.7439,-100.0279 265,-87 306.8722,-53.4429 456.8646,-41.1541 543.676,-36.7916"/>
<polygon fill="none" stroke="#404040" points="543.7605,-36.7877 549.563,-32.5062 555.7468,-36.2156 549.9444,-40.4971 543.7605,-36.7877"/>
<text text-anchor="middle" x="274.5" y="-95.5" font-family="Helvetica,sans-Serif" font-size="10.00" fill="#000000"> +ir</text>
</g>
<!-- Node3 -->
<g id="node3" class="node">
<title>Node3</title>
<polygon fill="none" stroke="#bfbfbf" points="0,-634 0,-691 50,-691 50,-634 0,-634"/>
<text text-anchor="middle" x="25" y="-679" font-family="Helvetica,sans-Serif" font-size="10.00" fill="#000000">double</text>
<polyline fill="none" stroke="#bfbfbf" points="0,-672 50,-672 "/>
<text text-anchor="middle" x="25" y="-660" font-family="Helvetica,sans-Serif" font-size="10.00" fill="#000000"> </text>
<polyline fill="none" stroke="#bfbfbf" points="0,-653 50,-653 "/>
<text text-anchor="middle" x="25" y="-641" font-family="Helvetica,sans-Serif" font-size="10.00" fill="#000000"> </text>
</g>
<!-- Node3&#45;&gt;Node2 -->
<g id="edge2" class="edge">
<title>Node3&#45;&gt;Node2</title>
<path fill="none" stroke="#404040" d="M30.8328,-633.7663C34.0539,-619.7484 38.5189,-602.7662 44,-588 58.7421,-548.2839 78.0926,-506.4543 96.8937,-469.063"/>
<polygon fill="none" stroke="#404040" points="97.0126,-468.8284 96.159,-461.668 102.4403,-458.126 103.2939,-465.2865 97.0126,-468.8284"/>
<text text-anchor="middle" x="82" y="-596.5" font-family="Helvetica,sans-Serif" font-size="10.00" fill="#000000"> +DummyTime</text>
</g>
<!-- Node4 -->
<g id="node4" class="node">
<title>Node4</title>
<polygon fill="none" stroke="#bfbfbf" points="96,-634 96,-691 152,-691 152,-634 96,-634"/>
<text text-anchor="middle" x="124" y="-679" font-family="Helvetica,sans-Serif" font-size="10.00" fill="#000000">uint16_t</text>
<polyline fill="none" stroke="#bfbfbf" points="96,-672 152,-672 "/>
<text text-anchor="middle" x="124" y="-660" font-family="Helvetica,sans-Serif" font-size="10.00" fill="#000000"> </text>
<polyline fill="none" stroke="#bfbfbf" points="96,-653 152,-653 "/>
<text text-anchor="middle" x="124" y="-641" font-family="Helvetica,sans-Serif" font-size="10.00" fill="#000000"> </text>
</g>
<!-- Node4&#45;&gt;Node2 -->
<g id="edge3" class="edge">
<title>Node4&#45;&gt;Node2</title>
<path fill="none" stroke="#404040" d="M123.4227,-633.7966C123.3895,-619.9363 123.7093,-603.079 125,-588 125.179,-585.9092 125.3654,-583.8091 125.5588,-581.7007"/>
<polygon fill="none" stroke="#404040" points="125.5795,-581.4873 122.1795,-575.128 126.7418,-569.5437 130.1419,-575.9029 125.5795,-581.4873"/>
<text text-anchor="middle" x="157" y="-602" font-family="Helvetica,sans-Serif" font-size="10.00" fill="#000000"> +DummyBC</text>
<text text-anchor="middle" x="157" y="-591" font-family="Helvetica,sans-Serif" font-size="10.00" fill="#000000">+bc</text>
</g>
<!-- Node5 -->
<g id="node5" class="node">
<title>Node5</title>
<g id="a_node5"><a xlink:href="../../d3/d87/classuint32__t.html" target="_top" xlink:title="{uint32_t\n||}">
<polygon fill="none" stroke="#000000" points="226,-634 226,-691 282,-691 282,-634 226,-634"/>
<text text-anchor="middle" x="254" y="-679" font-family="Helvetica,sans-Serif" font-size="10.00" fill="#000000">uint32_t</text>
<polyline fill="none" stroke="#000000" points="226,-672 282,-672 "/>
<text text-anchor="middle" x="254" y="-660" font-family="Helvetica,sans-Serif" font-size="10.00" fill="#000000"> </text>
<polyline fill="none" stroke="#000000" points="226,-653 282,-653 "/>
<text text-anchor="middle" x="254" y="-641" font-family="Helvetica,sans-Serif" font-size="10.00" fill="#000000"> </text>
</a>
</g>
</g>
<!-- Node5&#45;&gt;Node1 -->
<g id="edge9" class="edge">
<title>Node5&#45;&gt;Node1</title>
<path fill="none" stroke="#404040" d="M273.5576,-633.887C277.7463,-626.4177 281.6226,-618.1641 284,-610 344.0862,-403.6607 175.295,-296.8236 307,-127 336.0896,-89.4912 464.4763,-60.2022 543.5704,-45.3118"/>
<polygon fill="none" stroke="#404040" points="544.0187,-45.229 549.1912,-40.2045 555.8186,-43.0466 550.6461,-48.0711 544.0187,-45.229"/>
<text text-anchor="middle" x="324.5" y="-346" font-family="Helvetica,sans-Serif" font-size="10.00" fill="#000000"> +flags</text>
</g>
<!-- Node5&#45;&gt;Node2 -->
<g id="edge4" class="edge">
<title>Node5&#45;&gt;Node2</title>
<path fill="none" stroke="#404040" d="M227.0431,-633.9336C221.3151,-626.59 215.8439,-618.3818 212,-610 207.7445,-600.7207 203.8585,-591.0945 200.31,-581.2505"/>
<polygon fill="none" stroke="#404040" points="200.2058,-580.9479 194.4697,-576.5778 196.2975,-569.6022 202.0336,-573.9723 200.2058,-580.9479"/>
<text text-anchor="middle" x="248" y="-602" font-family="Helvetica,sans-Serif" font-size="10.00" fill="#000000"> +orbit</text>
<text text-anchor="middle" x="248" y="-591" font-family="Helvetica,sans-Serif" font-size="10.00" fill="#000000">+DummyOrbit</text>
</g>
<!-- Node6 -->
<g id="node6" class="node">
<title>Node6</title>
<polygon fill="none" stroke="#bfbfbf" points="351.5,-320 351.5,-377 510.5,-377 510.5,-320 351.5,-320"/>
<text text-anchor="middle" x="431" y="-365" font-family="Helvetica,sans-Serif" font-size="10.00" fill="#000000">array&lt; float, NChannelsZN &gt;</text>
<polyline fill="none" stroke="#bfbfbf" points="351.5,-358 510.5,-358 "/>
<text text-anchor="middle" x="431" y="-346" font-family="Helvetica,sans-Serif" font-size="10.00" fill="#000000"> </text>
<polyline fill="none" stroke="#bfbfbf" points="351.5,-339 510.5,-339 "/>
<text text-anchor="middle" x="431" y="-327" font-family="Helvetica,sans-Serif" font-size="10.00" fill="#000000"> </text>
</g>
<!-- Node6&#45;&gt;Node1 -->
<g id="edge5" class="edge">
<title>Node6&#45;&gt;Node1</title>
<path fill="none" stroke="#404040" d="M436.8581,-319.8699C448.4745,-268.6728 478.425,-159.9746 536,-87 539.2938,-82.8252 542.9985,-78.8179 546.9423,-75.0094"/>
<polygon fill="none" stroke="#404040" points="546.9489,-75.0035 548.7527,-68.0216 555.8913,-67.0013 554.0875,-73.9832 546.9489,-75.0035"/>
<text text-anchor="middle" x="569.5" y="-101" font-family="Helvetica,sans-Serif" font-size="10.00" fill="#000000"> +energyZNA</text>
<text text-anchor="middle" x="569.5" y="-90" font-family="Helvetica,sans-Serif" font-size="10.00" fill="#000000">+energyZNC</text>
</g>
<!-- Node7 -->
<g id="node7" class="node">
<title>Node7</title>
<polygon fill="none" stroke="#bfbfbf" points="528,-320 528,-377 686,-377 686,-320 528,-320"/>
<text text-anchor="middle" x="607" y="-365" font-family="Helvetica,sans-Serif" font-size="10.00" fill="#000000">array&lt; float, NChannelsZP &gt;</text>
<polyline fill="none" stroke="#bfbfbf" points="528,-358 686,-358 "/>
<text text-anchor="middle" x="607" y="-346" font-family="Helvetica,sans-Serif" font-size="10.00" fill="#000000"> </text>
<polyline fill="none" stroke="#bfbfbf" points="528,-339 686,-339 "/>
<text text-anchor="middle" x="607" y="-327" font-family="Helvetica,sans-Serif" font-size="10.00" fill="#000000"> </text>
</g>
<!-- Node7&#45;&gt;Node1 -->
<g id="edge6" class="edge">
<title>Node7&#45;&gt;Node1</title>
<path fill="none" stroke="#404040" d="M607,-319.8022C607,-265.3285 607,-146.5175 607,-80.6985"/>
<polygon fill="none" stroke="#404040" points="607.0001,-80.6643 603,-74.6644 607,-68.6643 611,-74.6643 607.0001,-80.6643"/>
<text text-anchor="middle" x="639" y="-101" font-family="Helvetica,sans-Serif" font-size="10.00" fill="#000000"> +energyZPA</text>
<text text-anchor="middle" x="639" y="-90" font-family="Helvetica,sans-Serif" font-size="10.00" fill="#000000">+energyZPC</text>
</g>
<!-- Node8 -->
<g id="node8" class="node">
<title>Node8</title>
<g id="a_node8"><a xlink:href="../../d2/db4/classROOT_1_1Math_1_1PositionVector2D.html" target="_top" xlink:title="{ROOT::Math::PositionVector2\lD\&lt; float \&gt;\n||}">
<polygon fill="none" stroke="#000000" points="704.5,-314.5 704.5,-382.5 859.5,-382.5 859.5,-314.5 704.5,-314.5"/>
<text text-anchor="start" x="712.5" y="-370.5" font-family="Helvetica,sans-Serif" font-size="10.00" fill="#000000">ROOT::Math::PositionVector2</text>
<text text-anchor="middle" x="782" y="-359.5" font-family="Helvetica,sans-Serif" font-size="10.00" fill="#000000">D&lt; float &gt;</text>
<polyline fill="none" stroke="#000000" points="704.5,-352.5 859.5,-352.5 "/>
<text text-anchor="middle" x="782" y="-340.5" font-family="Helvetica,sans-Serif" font-size="10.00" fill="#000000"> </text>
<polyline fill="none" stroke="#000000" points="704.5,-333.5 859.5,-333.5 "/>
<text text-anchor="middle" x="782" y="-321.5" font-family="Helvetica,sans-Serif" font-size="10.00" fill="#000000"> </text>
</a>
</g>
</g>
<!-- Node8&#45;&gt;Node1 -->
<g id="edge7" class="edge">
<title>Node8&#45;&gt;Node1</title>
<path fill="none" stroke="#404040" d="M774.8761,-314.1838C762.3696,-260.7279 732.1908,-156.5079 675,-87 672.1808,-83.5736 669.0985,-80.2346 665.8523,-77.0089"/>
<polygon fill="none" stroke="#404040" points="665.7459,-76.9103 658.6263,-75.7652 656.9449,-68.7528 664.0646,-69.8979 665.7459,-76.9103"/>
<text text-anchor="middle" x="724.5" y="-101" font-family="Helvetica,sans-Serif" font-size="10.00" fill="#000000"> +centroidZNA</text>
<text text-anchor="middle" x="724.5" y="-90" font-family="Helvetica,sans-Serif" font-size="10.00" fill="#000000">+centroidZNC</text>
</g>
<!-- Node9 -->
<g id="node9" class="node">
<title>Node9</title>
<g id="a_node9"><a xlink:href="../../d2/db4/classROOT_1_1Math_1_1PositionVector2D.html" target="_top" xlink:title="{ROOT::Math::PositionVector2\lD\&lt; CoordSystem, Tag \&gt;\n||}">
<polygon fill="none" stroke="#000000" points="704.5,-628.5 704.5,-696.5 859.5,-696.5 859.5,-628.5 704.5,-628.5"/>
<text text-anchor="start" x="712.5" y="-684.5" font-family="Helvetica,sans-Serif" font-size="10.00" fill="#000000">ROOT::Math::PositionVector2</text>
<text text-anchor="middle" x="782" y="-673.5" font-family="Helvetica,sans-Serif" font-size="10.00" fill="#000000">D&lt; CoordSystem, Tag &gt;</text>
<polyline fill="none" stroke="#000000" points="704.5,-666.5 859.5,-666.5 "/>
<text text-anchor="middle" x="782" y="-654.5" font-family="Helvetica,sans-Serif" font-size="10.00" fill="#000000"> </text>
<polyline fill="none" stroke="#000000" points="704.5,-647.5 859.5,-647.5 "/>
<text text-anchor="middle" x="782" y="-635.5" font-family="Helvetica,sans-Serif" font-size="10.00" fill="#000000"> </text>
</a>
</g>
</g>
<!-- Node9&#45;&gt;Node8 -->
<g id="edge8" class="edge">
<title>Node9&#45;&gt;Node8</title>
<path fill="none" stroke="#ffa500" d="M782,-618.2243C782,-554.9078 782,-439.8461 782,-382.6591"/>
<polygon fill="#ffa500" stroke="#ffa500" points="778.5001,-618.2987 782,-628.2988 785.5001,-618.2988 778.5001,-618.2987"/>
<text text-anchor="middle" x="806" y="-596.5" font-family="Helvetica,sans-Serif" font-size="10.00" fill="#000000"> &lt; float &gt;</text>
</g>
<!-- Node10 -->
<g id="node10" class="node">
<title>Node10</title>
<polygon fill="none" stroke="#bfbfbf" points="878,-314.5 878,-382.5 994,-382.5 994,-314.5 878,-314.5"/>
<text text-anchor="start" x="886" y="-370.5" font-family="Helvetica,sans-Serif" font-size="10.00" fill="#000000">array&lt; TDCChannel,</text>
<text text-anchor="middle" x="936" y="-359.5" font-family="Helvetica,sans-Serif" font-size="10.00" fill="#000000"> NTDCChannels &gt;</text>
<polyline fill="none" stroke="#bfbfbf" points="878,-352.5 994,-352.5 "/>
<text text-anchor="middle" x="936" y="-340.5" font-family="Helvetica,sans-Serif" font-size="10.00" fill="#000000"> </text>
<polyline fill="none" stroke="#bfbfbf" points="878,-333.5 994,-333.5 "/>
<text text-anchor="middle" x="936" y="-321.5" font-family="Helvetica,sans-Serif" font-size="10.00" fill="#000000"> </text>
</g>
<!-- Node10&#45;&gt;Node1 -->
<g id="edge10" class="edge">
<title>Node10&#45;&gt;Node1</title>
<path fill="none" stroke="#404040" d="M934.7175,-314.3355C931.1289,-266.4979 917.8132,-179.5365 869,-127 817.272,-71.3264 729.9856,-49.1445 670.4972,-40.3173"/>
<polygon fill="none" stroke="#404040" points="670.1354,-40.2675 663.6454,-43.4109 658.2477,-38.6291 664.7377,-35.4858 670.1354,-40.2675"/>
<text text-anchor="middle" x="883" y="-95.5" font-family="Helvetica,sans-Serif" font-size="10.00" fill="#000000"> +tdcChannels</text>
</g>
<!-- Node11 -->
<g id="node11" class="node">
<title>Node11</title>
<polygon fill="none" stroke="#bfbfbf" points="1012,-320 1012,-377 1178,-377 1178,-320 1012,-320"/>
<text text-anchor="middle" x="1095" y="-365" font-family="Helvetica,sans-Serif" font-size="10.00" fill="#000000">array&lt; float, NChannelsZEM &gt;</text>
<polyline fill="none" stroke="#bfbfbf" points="1012,-358 1178,-358 "/>
<text text-anchor="middle" x="1095" y="-346" font-family="Helvetica,sans-Serif" font-size="10.00" fill="#000000"> </text>
<polyline fill="none" stroke="#bfbfbf" points="1012,-339 1178,-339 "/>
<text text-anchor="middle" x="1095" y="-327" font-family="Helvetica,sans-Serif" font-size="10.00" fill="#000000"> </text>
</g>
<!-- Node11&#45;&gt;Node1 -->
<g id="edge11" class="edge">
<title>Node11&#45;&gt;Node1</title>
<path fill="none" stroke="#404040" d="M1089.8178,-319.8393C1080.1844,-273.9274 1055.5324,-183.3434 1003,-127 975.8914,-97.9247 960.8069,-99.2835 923,-87 837.9074,-59.3534 734.9653,-45.7211 670.215,-39.4074"/>
<polygon fill="none" stroke="#404040" points="670.1339,-39.3999 663.7857,-42.8204 658.1866,-38.2761 664.5349,-34.8555 670.1339,-39.3999"/>
<text text-anchor="middle" x="1018.5" y="-95.5" font-family="Helvetica,sans-Serif" font-size="10.00" fill="#000000"> +eneregyZEM</text>
</g>
</g>
</svg>
        <g id="navigator" transform="translate(0 0)" fill="#404254">
                <rect fill="#f2f5e9" fill-opacity="0.5" stroke="#606060" stroke-width=".5" x="0" y="0" width="60" height="60"/>
                <use id="zoomplus" xlink:href="#zoomPlus" x="17" y="9" onmousedown="handleZoom(evt,'in')"/>
                <use id="zoomminus" xlink:href="#zoomMin" x="42" y="9" onmousedown="handleZoom(evt,'out')"/>
                <use id="reset" xlink:href="#resetDef" x="30" y="36" onmousedown="handleReset()"/>
                <g id="arrowUp" xlink:href="#dirArrow" transform="translate(30 24)" onmousedown="handlePan(0,-1)">
                  <use xlink:href="#rim" fill="#404040">
                        <set attributeName="fill" to="#808080" begin="arrowUp.mouseover" end="arrowUp.mouseout"/>
                  </use>
                  <path fill="none" stroke="white" stroke-width="1.5" d="M0,-3.0v7 M-2.5,-0.5L0,-3.0L2.5,-0.5"/>
                </g>
                <g id="arrowRight" xlink:href="#dirArrow" transform="rotate(90) translate(36 -43)" onmousedown="handlePan(1,0)">
                  <use xlink:href="#rim" fill="#404040">
                        <set attributeName="fill" to="#808080" begin="arrowRight.mouseover" end="arrowRight.mouseout"/>
                  </use>
                  <path fill="none" stroke="white" stroke-width="1.5" d="M0,-3.0v7 M-2.5,-0.5L0,-3.0L2.5,-0.5"/>
                </g>
                <g id="arrowDown" xlink:href="#dirArrow" transform="rotate(180) translate(-30 -48)" onmousedown="handlePan(0,1)">
                  <use xlink:href="#rim" fill="#404040">
                        <set attributeName="fill" to="#808080" begin="arrowDown.mouseover" end="arrowDown.mouseout"/>
                  </use>
                  <path fill="none" stroke="white" stroke-width="1.5" d="M0,-3.0v7 M-2.5,-0.5L0,-3.0L2.5,-0.5"/>
                </g>
                <g id="arrowLeft" xlink:href="#dirArrow" transform="rotate(270) translate(-36 17)" onmousedown="handlePan(-1,0)">
                  <use xlink:href="#rim" fill="#404040">
                        <set attributeName="fill" to="#808080" begin="arrowLeft.mouseover" end="arrowLeft.mouseout"/>
                  </use>
                  <path fill="none" stroke="white" stroke-width="1.5" d="M0,-3.0v7 M-2.5,-0.5L0,-3.0L2.5,-0.5"/>
                </g>
        </g>
        <svg viewBox="0 0 15 15" width="100%" height="30px" preserveAspectRatio="xMaxYMin meet">
         <g id="arrow_out" transform="scale(0.3 0.3)">
          <a xlink:href="structo2_1_1zdc_1_1RecEvent__coll__graph_org.svg" target="_base">
           <rect id="button" ry="5" rx="5" y="6" x="6" height="38" width="38"
                fill="#f2f5e9" fill-opacity="0.5" stroke="#606060" stroke-width="1.0"/>
           <path id="arrow"
             d="M 11.500037,31.436501 C 11.940474,20.09759 22.043105,11.32322 32.158766,21.979434 L 37.068811,17.246167 C 37.068811,17.246167 37.088388,32 37.088388,32 L 22.160133,31.978069 C 22.160133,31.978069 26.997745,27.140456 26.997745,27.140456 C 18.528582,18.264221 13.291696,25.230495 11.500037,31.436501 z"
             style="fill:#404040;"/>
          </a>
         </g>
        </svg>
</svg>
