<?xml version="1.0" encoding="UTF-8" standalone="no"?>
<!DOCTYPE svg PUBLIC "-//W3C//DTD SVG 1.1//EN"
 "http://www.w3.org/Graphics/SVG/1.1/DTD/svg11.dtd">
<!-- Generated by graphviz version 2.40.1 (20161225.0304)
 -->
<!-- Title: /home/travis/build/AliceO2Group/AliceO2/Framework/Core/include/Framework/DeviceMetricsInfo.h Pages: 1 -->
<svg width="657pt" height="117pt"
 viewBox="0.00 0.00 656.50 117.00" xmlns="http://www.w3.org/2000/svg" xmlns:xlink="http://www.w3.org/1999/xlink">
<g id="graph0" class="graph" transform="scale(1 1) rotate(0) translate(4 113)">
<title>/home/travis/build/AliceO2Group/AliceO2/Framework/Core/include/Framework/DeviceMetricsInfo.h</title>
<!-- Node0 -->
<g id="node1" class="node">
<title>Node0</title>
<polygon fill="#bfbfbf" stroke="#000000" points="272.5,-56.5 272.5,-108.5 445.5,-108.5 445.5,-56.5 272.5,-56.5"/>
<text text-anchor="start" x="280.5" y="-96.5" font-family="Helvetica,sans-Serif" font-size="10.00" fill="#000000">/home/travis/build</text>
<text text-anchor="start" x="280.5" y="-85.5" font-family="Helvetica,sans-Serif" font-size="10.00" fill="#000000">/AliceO2Group/AliceO2</text>
<text text-anchor="start" x="280.5" y="-74.5" font-family="Helvetica,sans-Serif" font-size="10.00" fill="#000000">/Framework/Core/include</text>
<text text-anchor="middle" x="359" y="-63.5" font-family="Helvetica,sans-Serif" font-size="10.00" fill="#000000">/Framework/DeviceMetricsInfo.h</text>
</g>
<!-- Node1 -->
<g id="node2" class="node">
<title>Node1</title>
<g id="a_node2"><a xlink:href="../../d1/d76/RuntimeError_8h.html" target="_top" xlink:title="Framework/RuntimeError.h">
<polygon fill="none" stroke="#000000" points="0,-.5 0,-19.5 146,-19.5 146,-.5 0,-.5"/>
<text text-anchor="middle" x="73" y="-7.5" font-family="Helvetica,sans-Serif" font-size="10.00" fill="#000000">Framework/RuntimeError.h</text>
</a>
</g>
</g>
<!-- Node0&#45;&gt;Node1 -->
<g id="edge1" class="edge">
<title>Node0&#45;&gt;Node1</title>
<path fill="none" stroke="#191970" d="M272.4144,-60.5509C222.4442,-47.8836 161.5284,-32.4416 120.2718,-21.9832"/>
<polygon fill="#191970" stroke="#191970" points="121.0382,-18.5669 110.4848,-19.5023 119.3181,-25.3523 121.0382,-18.5669"/>
</g>
<!-- Node2 -->
<g id="node3" class="node">
<title>Node2</title>
<polygon fill="none" stroke="#bfbfbf" points="164,-.5 164,-19.5 206,-19.5 206,-.5 164,-.5"/>
<text text-anchor="middle" x="185" y="-7.5" font-family="Helvetica,sans-Serif" font-size="10.00" fill="#000000">array</text>
</g>
<!-- Node0&#45;&gt;Node2 -->
<g id="edge2" class="edge">
<title>Node0&#45;&gt;Node2</title>
<path fill="none" stroke="#191970" d="M296.182,-56.3258C268.7081,-44.8784 237.7393,-31.9747 215.477,-22.6988"/>
<polygon fill="#191970" stroke="#191970" points="216.7822,-19.451 206.2053,-18.8355 214.0899,-25.9125 216.7822,-19.451"/>
</g>
<!-- Node3 -->
<g id="node4" class="node">
<title>Node3</title>
<polygon fill="none" stroke="#bfbfbf" points="224.5,-.5 224.5,-19.5 277.5,-19.5 277.5,-.5 224.5,-.5"/>
<text text-anchor="middle" x="251" y="-7.5" font-family="Helvetica,sans-Serif" font-size="10.00" fill="#000000">cstddef</text>
</g>
<!-- Node0&#45;&gt;Node3 -->
<g id="edge3" class="edge">
<title>Node0&#45;&gt;Node3</title>
<path fill="none" stroke="#191970" d="M320.0095,-56.3258C304.4966,-45.912 287.1884,-34.2931 273.7865,-25.2965"/>
<polygon fill="#191970" stroke="#191970" points="275.4559,-22.2017 265.2024,-19.534 271.5543,-28.0136 275.4559,-22.2017"/>
</g>
<!-- Node4 -->
<g id="node5" class="node">
<title>Node4</title>
<polygon fill="none" stroke="#bfbfbf" points="296,-.5 296,-19.5 346,-19.5 346,-.5 296,-.5"/>
<text text-anchor="middle" x="321" y="-7.5" font-family="Helvetica,sans-Serif" font-size="10.00" fill="#000000">cstring</text>
</g>
<!-- Node0&#45;&gt;Node4 -->
<g id="edge4" class="edge">
<title>Node0&#45;&gt;Node4</title>
<path fill="none" stroke="#191970" d="M345.2811,-56.3258C340.4527,-47.1136 335.1299,-36.9584 330.7016,-28.5096"/>
<polygon fill="#191970" stroke="#191970" points="333.7395,-26.7663 325.9971,-19.534 327.5395,-30.016 333.7395,-26.7663"/>
</g>
<!-- Node5 -->
<g id="node6" class="node">
<title>Node5</title>
<polygon fill="none" stroke="#bfbfbf" points="364.5,-.5 364.5,-19.5 429.5,-19.5 429.5,-.5 364.5,-.5"/>
<text text-anchor="middle" x="397" y="-7.5" font-family="Helvetica,sans-Serif" font-size="10.00" fill="#000000">functional</text>
</g>
<!-- Node0&#45;&gt;Node5 -->
<g id="edge5" class="edge">
<title>Node0&#45;&gt;Node5</title>
<path fill="none" stroke="#191970" d="M372.7189,-56.3258C377.5473,-47.1136 382.8701,-36.9584 387.2984,-28.5096"/>
<polygon fill="#191970" stroke="#191970" points="390.4605,-30.016 392.0029,-19.534 384.2605,-26.7663 390.4605,-30.016"/>
</g>
<!-- Node6 -->
<g id="node7" class="node">
<title>Node6</title>
<polygon fill="none" stroke="#bfbfbf" points="448,-.5 448,-19.5 492,-19.5 492,-.5 448,-.5"/>
<text text-anchor="middle" x="470" y="-7.5" font-family="Helvetica,sans-Serif" font-size="10.00" fill="#000000">string</text>
</g>
<!-- Node0&#45;&gt;Node6 -->
<g id="edge6" class="edge">
<title>Node0&#45;&gt;Node6</title>
<path fill="none" stroke="#191970" d="M399.0735,-56.3258C415.1707,-45.8119 433.1486,-34.0696 446.9768,-25.0377"/>
<polygon fill="#191970" stroke="#191970" points="448.9447,-27.9328 455.4031,-19.534 445.1168,-22.0721 448.9447,-27.9328"/>
</g>
<!-- Node7 -->
<g id="node8" class="node">
<title>Node7</title>
<polygon fill="none" stroke="#bfbfbf" points="510.5,-.5 510.5,-19.5 583.5,-19.5 583.5,-.5 510.5,-.5"/>
<text text-anchor="middle" x="547" y="-7.5" font-family="Helvetica,sans-Serif" font-size="10.00" fill="#000000">string_view</text>
</g>
<!-- Node0&#45;&gt;Node7 -->
<g id="edge7" class="edge">
<title>Node0&#45;&gt;Node7</title>
<path fill="none" stroke="#191970" d="M426.6067,-56.4283C455.8435,-45.1534 488.7873,-32.449 512.8133,-23.1837"/>
<polygon fill="#191970" stroke="#191970" points="514.1323,-26.4263 522.2032,-19.5626 511.6136,-19.8952 514.1323,-26.4263"/>
</g>
<!-- Node8 -->
<g id="node9" class="node">
<title>Node8</title>
<polygon fill="none" stroke="#bfbfbf" points="601.5,-.5 601.5,-19.5 648.5,-19.5 648.5,-.5 601.5,-.5"/>
<text text-anchor="middle" x="625" y="-7.5" font-family="Helvetica,sans-Serif" font-size="10.00" fill="#000000">vector</text>
</g>
<!-- Node0&#45;&gt;Node8 -->
<g id="edge8" class="edge">
<title>Node0&#45;&gt;Node8</title>
<path fill="none" stroke="#191970" d="M445.6428,-60.2827C487.3567,-49.3655 538.2837,-35.7169 591.6335,-20.3282"/>
<polygon fill="#191970" stroke="#191970" points="592.6363,-23.6817 601.2678,-17.5377 590.6888,-16.958 592.6363,-23.6817"/>
</g>
</g>
</svg>
