<?xml version="1.0" encoding="UTF-8" standalone="no"?>
<!DOCTYPE svg PUBLIC "-//W3C//DTD SVG 1.1//EN"
 "http://www.w3.org/Graphics/SVG/1.1/DTD/svg11.dtd">
<!-- Generated by graphviz version 2.40.1 (20161225.0304)
 -->
<!-- Title: /home/travis/build/AliceO2Group/AliceO2/Detectors/MUON/MID/Simulation/include/MIDSimulation/Detector.h Pages: 1 -->
<svg width="3005pt" height="475pt"
 viewBox="0.00 0.00 3005.02 475.00" xmlns="http://www.w3.org/2000/svg" xmlns:xlink="http://www.w3.org/1999/xlink">
<g id="graph0" class="graph" transform="scale(1 1) rotate(0) translate(4 471)">
<title>/home/travis/build/AliceO2Group/AliceO2/Detectors/MUON/MID/Simulation/include/MIDSimulation/Detector.h</title>
<!-- Node0 -->
<g id="node1" class="node">
<title>Node0</title>
<polygon fill="#bfbfbf" stroke="#000000" points="1192.0167,-414.5 1192.0167,-466.5 1374.0167,-466.5 1374.0167,-414.5 1192.0167,-414.5"/>
<text text-anchor="start" x="1200.0167" y="-454.5" font-family="Helvetica,sans-Serif" font-size="10.00" fill="#000000">/home/travis/build</text>
<text text-anchor="start" x="1200.0167" y="-443.5" font-family="Helvetica,sans-Serif" font-size="10.00" fill="#000000">/AliceO2Group/AliceO2</text>
<text text-anchor="start" x="1200.0167" y="-432.5" font-family="Helvetica,sans-Serif" font-size="10.00" fill="#000000">/Detectors/MUON/MID/Simulation</text>
<text text-anchor="middle" x="1283.0167" y="-421.5" font-family="Helvetica,sans-Serif" font-size="10.00" fill="#000000">/include/MIDSimulation/Detector.h</text>
</g>
<!-- Node1 -->
<g id="node2" class="node">
<title>Node1</title>
<polygon fill="none" stroke="#bfbfbf" points="1221.5167,-241 1221.5167,-260 1268.5167,-260 1268.5167,-241 1221.5167,-241"/>
<text text-anchor="middle" x="1245.0167" y="-248" font-family="Helvetica,sans-Serif" font-size="10.00" fill="#000000">vector</text>
</g>
<!-- Node0&#45;&gt;Node1 -->
<g id="edge1" class="edge">
<title>Node0&#45;&gt;Node1</title>
<path fill="none" stroke="#191970" d="M1276.9586,-414.3912C1274.4172,-403.204 1271.4852,-389.9799 1269.0167,-378 1261.1722,-339.9298 1252.9977,-295.2482 1248.5029,-270.1684"/>
<polygon fill="#191970" stroke="#191970" points="1251.9121,-269.349 1246.711,-260.1187 1245.0207,-270.5778 1251.9121,-269.349"/>
</g>
<!-- Node2 -->
<g id="node3" class="node">
<title>Node2</title>
<g id="a_node3"><a xlink:href="../../d1/d3a/Base_2include_2DetectorsBase_2Detector_8h.html" target="_top" xlink:title="DetectorsBase/Detector.h">
<polygon fill="none" stroke="#000000" points="688.5167,-302.5 688.5167,-321.5 829.5167,-321.5 829.5167,-302.5 688.5167,-302.5"/>
<text text-anchor="middle" x="759.0167" y="-309.5" font-family="Helvetica,sans-Serif" font-size="10.00" fill="#000000">DetectorsBase/Detector.h</text>
</a>
</g>
</g>
<!-- Node0&#45;&gt;Node2 -->
<g id="edge2" class="edge">
<title>Node0&#45;&gt;Node2</title>
<path fill="none" stroke="#191970" d="M1191.7429,-418.117C1080.1905,-390.7611 895.5017,-345.4701 807.9524,-324.0004"/>
<polygon fill="#191970" stroke="#191970" points="808.5664,-320.5474 798.0205,-321.5649 806.8991,-327.3459 808.5664,-320.5474"/>
</g>
<!-- Node27 -->
<g id="node28" class="node">
<title>Node27</title>
<g id="a_node28"><a xlink:href="../../d4/d25/BaseHits_8h.html" target="_top" xlink:title="SimulationDataFormat\l/BaseHits.h">
<polygon fill="none" stroke="#000000" points="1465.5167,-235.5 1465.5167,-265.5 1592.5167,-265.5 1592.5167,-235.5 1465.5167,-235.5"/>
<text text-anchor="start" x="1473.5167" y="-253.5" font-family="Helvetica,sans-Serif" font-size="10.00" fill="#000000">SimulationDataFormat</text>
<text text-anchor="middle" x="1529.0167" y="-242.5" font-family="Helvetica,sans-Serif" font-size="10.00" fill="#000000">/BaseHits.h</text>
</a>
</g>
</g>
<!-- Node0&#45;&gt;Node27 -->
<g id="edge33" class="edge">
<title>Node0&#45;&gt;Node27</title>
<path fill="none" stroke="#191970" d="M1286.0906,-414.272C1291.3436,-382.2408 1305.2209,-329.0014 1341.0167,-302 1350.5741,-294.7907 1407.004,-279.8168 1455.5699,-267.8645"/>
<polygon fill="#191970" stroke="#191970" points="1456.5958,-271.2168 1465.4776,-265.4407 1454.9323,-264.4173 1456.5958,-271.2168"/>
</g>
<!-- Node42 -->
<g id="node43" class="node">
<title>Node42</title>
<g id="a_node43"><a xlink:href="../../d7/d8d/Detectors_2MUON_2MID_2Simulation_2include_2MIDSimulation_2Hit_8h.html" target="_top" xlink:title="Hit for MID. ">
<polygon fill="none" stroke="#000000" points="1447.0167,-302.5 1447.0167,-321.5 1561.0167,-321.5 1561.0167,-302.5 1447.0167,-302.5"/>
<text text-anchor="middle" x="1504.0167" y="-309.5" font-family="Helvetica,sans-Serif" font-size="10.00" fill="#000000">MIDSimulation/Hit.h</text>
</a>
</g>
</g>
<!-- Node0&#45;&gt;Node42 -->
<g id="edge51" class="edge">
<title>Node0&#45;&gt;Node42</title>
<path fill="none" stroke="#191970" d="M1374.0513,-421.5009C1404.2462,-412.0269 1436.6032,-398.1339 1462.0167,-378 1477.7589,-365.5282 1489.3285,-345.4429 1496.2933,-330.7012"/>
<polygon fill="#191970" stroke="#191970" points="1499.5158,-332.0683 1500.3742,-321.5083 1493.1178,-329.2281 1499.5158,-332.0683"/>
</g>
<!-- Node44 -->
<g id="node45" class="node">
<title>Node44</title>
<g id="a_node45"><a xlink:href="../../d0/d2e/MID_2Simulation_2include_2MIDSimulation_2Stepper_8h.html" target="_top" xlink:title="MIDSimulation/Stepper.h">
<polygon fill="none" stroke="#000000" points="1315.5167,-358.5 1315.5167,-377.5 1452.5167,-377.5 1452.5167,-358.5 1315.5167,-358.5"/>
<text text-anchor="middle" x="1384.0167" y="-365.5" font-family="Helvetica,sans-Serif" font-size="10.00" fill="#000000">MIDSimulation/Stepper.h</text>
</a>
</g>
</g>
<!-- Node0&#45;&gt;Node44 -->
<g id="edge55" class="edge">
<title>Node0&#45;&gt;Node44</title>
<path fill="none" stroke="#191970" d="M1319.48,-414.3258C1333.848,-404.0122 1349.8628,-392.5165 1362.3446,-383.5567"/>
<polygon fill="#191970" stroke="#191970" points="1364.6521,-386.2087 1370.7349,-377.534 1360.5701,-380.5221 1364.6521,-386.2087"/>
</g>
<!-- Node2&#45;&gt;Node1 -->
<g id="edge4" class="edge">
<title>Node2&#45;&gt;Node1</title>
<path fill="none" stroke="#191970" d="M829.7132,-307.205C937.4149,-299.4826 1137.4193,-283.3866 1207.0167,-266 1209.6478,-265.3427 1212.3365,-264.5382 1215.0076,-263.6449"/>
<polygon fill="#191970" stroke="#191970" points="1216.3175,-266.892 1224.4692,-260.1243 1213.8763,-260.3314 1216.3175,-266.892"/>
</g>
<!-- Node3 -->
<g id="node4" class="node">
<title>Node3</title>
<polygon fill="none" stroke="#bfbfbf" points="441.0167,-179.5 441.0167,-198.5 479.0167,-198.5 479.0167,-179.5 441.0167,-179.5"/>
<text text-anchor="middle" x="460.0167" y="-186.5" font-family="Helvetica,sans-Serif" font-size="10.00" fill="#000000">map</text>
</g>
<!-- Node2&#45;&gt;Node3 -->
<g id="edge3" class="edge">
<title>Node2&#45;&gt;Node3</title>
<path fill="none" stroke="#191970" d="M688.4691,-310.2726C505.8414,-305.4589 30.1642,-290.6067 7.0167,-266 -2.4235,-255.9646 -2.2204,-245.2226 7.0167,-235 35.4668,-203.5146 334.8907,-192.4846 430.7046,-189.7464"/>
<polygon fill="#191970" stroke="#191970" points="430.9486,-193.241 440.848,-189.466 430.7551,-186.2437 430.9486,-193.241"/>
</g>
<!-- Node4 -->
<g id="node5" class="node">
<title>Node4</title>
<polygon fill="none" stroke="#bfbfbf" points="1056.5167,-179.5 1056.5167,-198.5 1139.5167,-198.5 1139.5167,-179.5 1056.5167,-179.5"/>
<text text-anchor="middle" x="1098.0167" y="-186.5" font-family="Helvetica,sans-Serif" font-size="10.00" fill="#000000">initializer_list</text>
</g>
<!-- Node2&#45;&gt;Node4 -->
<g id="edge5" class="edge">
<title>Node2&#45;&gt;Node4</title>
<path fill="none" stroke="#191970" d="M829.8963,-308.3468C933.4704,-302.2736 1116.1015,-288.4929 1136.0167,-266 1151.8706,-248.0941 1132.9303,-222.3908 1116.5792,-205.6951"/>
<polygon fill="#191970" stroke="#191970" points="1118.9989,-203.1662 1109.3829,-198.7184 1114.1264,-208.192 1118.9989,-203.1662"/>
</g>
<!-- Node5 -->
<g id="node6" class="node">
<title>Node5</title>
<polygon fill="none" stroke="#bfbfbf" points="843.0167,-241 843.0167,-260 901.0167,-260 901.0167,-241 843.0167,-241"/>
<text text-anchor="middle" x="872.0167" y="-248" font-family="Helvetica,sans-Serif" font-size="10.00" fill="#000000">memory</text>
</g>
<!-- Node2&#45;&gt;Node5 -->
<g id="edge6" class="edge">
<title>Node2&#45;&gt;Node5</title>
<path fill="none" stroke="#191970" d="M776.673,-302.3906C795.1653,-292.3262 824.4177,-276.4057 845.6475,-264.8514"/>
<polygon fill="#191970" stroke="#191970" points="847.3742,-267.8965 854.4845,-260.0419 844.0279,-261.7481 847.3742,-267.8965"/>
</g>
<!-- Node6 -->
<g id="node7" class="node">
<title>Node6</title>
<polygon fill="none" stroke="#bfbfbf" points="919.0167,-241 919.0167,-260 1003.0167,-260 1003.0167,-241 919.0167,-241"/>
<text text-anchor="middle" x="961.0167" y="-248" font-family="Helvetica,sans-Serif" font-size="10.00" fill="#000000">FairDetector.h</text>
</g>
<!-- Node2&#45;&gt;Node6 -->
<g id="edge7" class="edge">
<title>Node2&#45;&gt;Node6</title>
<path fill="none" stroke="#191970" d="M790.5792,-302.3906C825.4152,-291.7846 881.6117,-274.6753 919.8755,-263.0257"/>
<polygon fill="#191970" stroke="#191970" points="921.1288,-266.3028 929.6759,-260.0419 919.09,-259.6063 921.1288,-266.3028"/>
</g>
<!-- Node7 -->
<g id="node8" class="node">
<title>Node7</title>
<polygon fill="none" stroke="#bfbfbf" points="1021.0167,-241 1021.0167,-260 1127.0167,-260 1127.0167,-241 1021.0167,-241"/>
<text text-anchor="middle" x="1074.0167" y="-248" font-family="Helvetica,sans-Serif" font-size="10.00" fill="#000000">FairRootManager.h</text>
</g>
<!-- Node2&#45;&gt;Node7 -->
<g id="edge8" class="edge">
<title>Node2&#45;&gt;Node7</title>
<path fill="none" stroke="#191970" d="M817.5128,-302.4761C868.9285,-293.8405 945.6834,-280.3061 1012.0167,-266 1017.0397,-264.9167 1022.2744,-263.7181 1027.4798,-262.4813"/>
<polygon fill="#191970" stroke="#191970" points="1028.4981,-265.8358 1037.3907,-260.0762 1026.8473,-259.0333 1028.4981,-265.8358"/>
</g>
<!-- Node8 -->
<g id="node9" class="node">
<title>Node8</title>
<g id="a_node9"><a xlink:href="../../d0/d9a/MaterialManager_8h.html" target="_top" xlink:title="DetectorsBase/MaterialManager.h">
<polygon fill="none" stroke="#000000" points="447.5167,-241 447.5167,-260 628.5167,-260 628.5167,-241 447.5167,-241"/>
<text text-anchor="middle" x="538.0167" y="-248" font-family="Helvetica,sans-Serif" font-size="10.00" fill="#000000">DetectorsBase/MaterialManager.h</text>
</a>
</g>
</g>
<!-- Node2&#45;&gt;Node8 -->
<g id="edge9" class="edge">
<title>Node2&#45;&gt;Node8</title>
<path fill="none" stroke="#191970" d="M724.4855,-302.3906C686.0485,-291.6944 623.8423,-274.3836 581.9631,-262.7294"/>
<polygon fill="#191970" stroke="#191970" points="582.8778,-259.351 572.3055,-260.0419 581.0011,-266.0948 582.8778,-259.351"/>
</g>
<!-- Node9 -->
<g id="node10" class="node">
<title>Node9</title>
<polygon fill="none" stroke="#bfbfbf" points="589.5167,-56.5 589.5167,-75.5 648.5167,-75.5 648.5167,-56.5 589.5167,-56.5"/>
<text text-anchor="middle" x="619.0167" y="-63.5" font-family="Helvetica,sans-Serif" font-size="10.00" fill="#000000">Rtypes.h</text>
</g>
<!-- Node2&#45;&gt;Node9 -->
<g id="edge15" class="edge">
<title>Node2&#45;&gt;Node9</title>
<path fill="none" stroke="#191970" d="M688.4169,-306.4991C599.1566,-298.8481 454.9896,-283.8975 438.0167,-266 411.3464,-237.8768 412.9734,-212.7576 432.0167,-179 463.4651,-123.2522 534.6997,-91.9012 579.6086,-77.0056"/>
<polygon fill="#191970" stroke="#191970" points="580.8565,-80.2813 589.3176,-73.9048 578.7268,-73.6131 580.8565,-80.2813"/>
</g>
<!-- Node12 -->
<g id="node13" class="node">
<title>Node12</title>
<polygon fill="none" stroke="#bfbfbf" points="16.0167,-241 16.0167,-260 74.0167,-260 74.0167,-241 16.0167,-241"/>
<text text-anchor="middle" x="45.0167" y="-248" font-family="Helvetica,sans-Serif" font-size="10.00" fill="#000000">cxxabi.h</text>
</g>
<!-- Node2&#45;&gt;Node12 -->
<g id="edge16" class="edge">
<title>Node2&#45;&gt;Node12</title>
<path fill="none" stroke="#191970" d="M688.3948,-310.0418C539.2441,-305.4418 196.5407,-292.2958 83.0167,-266 80.2186,-265.3519 77.3594,-264.5235 74.5278,-263.5877"/>
<polygon fill="#191970" stroke="#191970" points="75.7285,-260.3001 65.1355,-260.0983 73.2906,-266.8619 75.7285,-260.3001"/>
</g>
<!-- Node13 -->
<g id="node14" class="node">
<title>Node13</title>
<polygon fill="none" stroke="#bfbfbf" points="92.5167,-241 92.5167,-260 149.5167,-260 149.5167,-241 92.5167,-241"/>
<text text-anchor="middle" x="121.0167" y="-248" font-family="Helvetica,sans-Serif" font-size="10.00" fill="#000000">typeinfo</text>
</g>
<!-- Node2&#45;&gt;Node13 -->
<g id="edge17" class="edge">
<title>Node2&#45;&gt;Node13</title>
<path fill="none" stroke="#191970" d="M688.4924,-309.4299C552.095,-303.9938 256.8869,-289.8339 158.0167,-266 155.3783,-265.364 152.6858,-264.5624 150.0168,-263.6605"/>
<polygon fill="#191970" stroke="#191970" points="151.1833,-260.3595 140.5924,-260.0706 148.6915,-266.9011 151.1833,-260.3595"/>
</g>
<!-- Node14 -->
<g id="node15" class="node">
<title>Node14</title>
<polygon fill="none" stroke="#bfbfbf" points="167.5167,-241 167.5167,-260 236.5167,-260 236.5167,-241 167.5167,-241"/>
<text text-anchor="middle" x="202.0167" y="-248" font-family="Helvetica,sans-Serif" font-size="10.00" fill="#000000">type_traits</text>
</g>
<!-- Node2&#45;&gt;Node14 -->
<g id="edge18" class="edge">
<title>Node2&#45;&gt;Node14</title>
<path fill="none" stroke="#191970" d="M688.484,-307.856C568.2186,-300.4252 328.4806,-283.9272 246.0167,-266 242.5889,-265.2548 239.0615,-264.3181 235.5663,-263.276"/>
<polygon fill="#191970" stroke="#191970" points="236.5031,-259.9002 225.9108,-260.1315 234.3354,-266.5561 236.5031,-259.9002"/>
</g>
<!-- Node15 -->
<g id="node16" class="node">
<title>Node15</title>
<polygon fill="none" stroke="#bfbfbf" points="255.0167,-241 255.0167,-260 299.0167,-260 299.0167,-241 255.0167,-241"/>
<text text-anchor="middle" x="277.0167" y="-248" font-family="Helvetica,sans-Serif" font-size="10.00" fill="#000000">string</text>
</g>
<!-- Node2&#45;&gt;Node15 -->
<g id="edge19" class="edge">
<title>Node2&#45;&gt;Node15</title>
<path fill="none" stroke="#191970" d="M688.1179,-307.8952C579.5675,-301.0825 377.4576,-286.1671 308.0167,-266 306.3085,-265.5039 304.5814,-264.9157 302.8625,-264.2632"/>
<polygon fill="#191970" stroke="#191970" points="303.8576,-260.8757 293.2976,-260.0182 301.0181,-267.2739 303.8576,-260.8757"/>
</g>
<!-- Node16 -->
<g id="node17" class="node">
<title>Node16</title>
<polygon fill="none" stroke="#bfbfbf" points="317.0167,-241 317.0167,-260 391.0167,-260 391.0167,-241 317.0167,-241"/>
<text text-anchor="middle" x="354.0167" y="-248" font-family="Helvetica,sans-Serif" font-size="10.00" fill="#000000">TMessage.h</text>
</g>
<!-- Node2&#45;&gt;Node16 -->
<g id="edge20" class="edge">
<title>Node2&#45;&gt;Node16</title>
<path fill="none" stroke="#191970" d="M688.241,-306.2842C616.3573,-299.667 502.1054,-286.9105 405.0167,-266 400.844,-265.1013 396.5192,-264.0233 392.2328,-262.8597"/>
<polygon fill="#191970" stroke="#191970" points="392.9675,-259.4293 382.3899,-260.0336 391.0357,-266.1575 392.9675,-259.4293"/>
</g>
<!-- Node17 -->
<g id="node18" class="node">
<title>Node17</title>
<g id="a_node18"><a xlink:href="../../de/d61/ShmManager_8h.html" target="_top" xlink:title="CommonUtils/ShmManager.h">
<polygon fill="none" stroke="#000000" points="797.0167,-179.5 797.0167,-198.5 955.0167,-198.5 955.0167,-179.5 797.0167,-179.5"/>
<text text-anchor="middle" x="876.0167" y="-186.5" font-family="Helvetica,sans-Serif" font-size="10.00" fill="#000000">CommonUtils/ShmManager.h</text>
</a>
</g>
</g>
<!-- Node2&#45;&gt;Node17 -->
<g id="edge21" class="edge">
<title>Node2&#45;&gt;Node17</title>
<path fill="none" stroke="#191970" d="M768.1975,-302.3484C788.0185,-281.511 835.0323,-232.0862 859.9198,-205.9224"/>
<polygon fill="#191970" stroke="#191970" points="862.5224,-208.2646 866.8786,-198.6068 857.4504,-203.4401 862.5224,-208.2646"/>
</g>
<!-- Node23 -->
<g id="node24" class="node">
<title>Node23</title>
<g id="a_node24"><a xlink:href="../../d0/d91/ShmAllocator_8h.html" target="_top" xlink:title="CommonUtils/ShmAllocator.h">
<polygon fill="none" stroke="#000000" points="1287.0167,-241 1287.0167,-260 1447.0167,-260 1447.0167,-241 1287.0167,-241"/>
<text text-anchor="middle" x="1367.0167" y="-248" font-family="Helvetica,sans-Serif" font-size="10.00" fill="#000000">CommonUtils/ShmAllocator.h</text>
</a>
</g>
</g>
<!-- Node2&#45;&gt;Node23 -->
<g id="edge27" class="edge">
<title>Node2&#45;&gt;Node23</title>
<path fill="none" stroke="#191970" d="M829.7375,-307.6227C929.8165,-300.9989 1118.3699,-286.9391 1278.0167,-266 1287.3654,-264.7738 1297.2314,-263.2688 1306.8561,-261.6835"/>
<polygon fill="#191970" stroke="#191970" points="1307.489,-265.1262 1316.767,-260.0106 1306.3239,-258.2239 1307.489,-265.1262"/>
</g>
<!-- Node24 -->
<g id="node25" class="node">
<title>Node24</title>
<polygon fill="none" stroke="#bfbfbf" points="1254.0167,-179.5 1254.0167,-198.5 1306.0167,-198.5 1306.0167,-179.5 1254.0167,-179.5"/>
<text text-anchor="middle" x="1280.0167" y="-186.5" font-family="Helvetica,sans-Serif" font-size="10.00" fill="#000000">cassert</text>
</g>
<!-- Node2&#45;&gt;Node24 -->
<g id="edge32" class="edge">
<title>Node2&#45;&gt;Node24</title>
<path fill="none" stroke="#191970" d="M829.7156,-307.3228C926.2892,-300.3188 1094.0769,-285.7839 1152.0167,-266 1173.7953,-258.5636 1226.8986,-224.4289 1257.425,-204.189"/>
<polygon fill="#191970" stroke="#191970" points="1259.3717,-207.0978 1265.7533,-198.6405 1255.4905,-201.2723 1259.3717,-207.0978"/>
</g>
<!-- Node25 -->
<g id="node26" class="node">
<title>Node25</title>
<polygon fill="none" stroke="#bfbfbf" points="647.0167,-241 647.0167,-260 713.0167,-260 713.0167,-241 647.0167,-241"/>
<text text-anchor="middle" x="680.0167" y="-248" font-family="Helvetica,sans-Serif" font-size="10.00" fill="#000000">sys/shm.h</text>
</g>
<!-- Node2&#45;&gt;Node25 -->
<g id="edge30" class="edge">
<title>Node2&#45;&gt;Node25</title>
<path fill="none" stroke="#191970" d="M746.673,-302.3906C734.2665,-292.7324 714.9324,-277.6812 700.2754,-266.271"/>
<polygon fill="#191970" stroke="#191970" points="702.3147,-263.423 692.2738,-260.0419 698.0146,-268.9466 702.3147,-263.423"/>
</g>
<!-- Node26 -->
<g id="node27" class="node">
<title>Node26</title>
<polygon fill="none" stroke="#bfbfbf" points="731.0167,-241 731.0167,-260 787.0167,-260 787.0167,-241 731.0167,-241"/>
<text text-anchor="middle" x="759.0167" y="-248" font-family="Helvetica,sans-Serif" font-size="10.00" fill="#000000">unistd.h</text>
</g>
<!-- Node2&#45;&gt;Node26 -->
<g id="edge31" class="edge">
<title>Node2&#45;&gt;Node26</title>
<path fill="none" stroke="#191970" d="M759.0167,-302.3906C759.0167,-293.8657 759.0167,-281.1392 759.0167,-270.4235"/>
<polygon fill="#191970" stroke="#191970" points="762.5168,-270.2448 759.0167,-260.2449 755.5168,-270.2449 762.5168,-270.2448"/>
</g>
<!-- Node8&#45;&gt;Node3 -->
<g id="edge11" class="edge">
<title>Node8&#45;&gt;Node3</title>
<path fill="none" stroke="#191970" d="M525.8292,-240.8906C513.5798,-231.2324 494.4904,-216.1812 480.019,-204.771"/>
<polygon fill="#191970" stroke="#191970" points="482.1384,-201.985 472.1186,-198.5419 477.8043,-207.4819 482.1384,-201.985"/>
</g>
<!-- Node8&#45;&gt;Node4 -->
<g id="edge13" class="edge">
<title>Node8&#45;&gt;Node4</title>
<path fill="none" stroke="#191970" d="M595.5713,-240.9598C609.4466,-238.8313 624.2426,-236.7032 638.0167,-235 810.332,-213.6926 854.558,-219.1135 1027.0167,-199 1033.2645,-198.2713 1039.8122,-197.4407 1046.2978,-196.5768"/>
<polygon fill="#191970" stroke="#191970" points="1046.9509,-200.0202 1056.3865,-195.2016 1046.0054,-193.0843 1046.9509,-200.0202"/>
</g>
<!-- Node8&#45;&gt;Node9 -->
<g id="edge10" class="edge">
<title>Node8&#45;&gt;Node9</title>
<path fill="none" stroke="#191970" d="M555.2333,-240.8367C569.4212,-231.9054 588.81,-217.2707 599.0167,-199 619.1444,-162.97 621.0125,-113.2921 620.2401,-85.9875"/>
<polygon fill="#191970" stroke="#191970" points="623.7265,-85.5979 619.793,-75.7603 616.7332,-85.9037 623.7265,-85.5979"/>
</g>
<!-- Node10 -->
<g id="node11" class="node">
<title>Node10</title>
<polygon fill="none" stroke="#bfbfbf" points="497.5167,-179.5 497.5167,-198.5 590.5167,-198.5 590.5167,-179.5 497.5167,-179.5"/>
<text text-anchor="middle" x="544.0167" y="-186.5" font-family="Helvetica,sans-Serif" font-size="10.00" fill="#000000">unordered_map</text>
</g>
<!-- Node8&#45;&gt;Node10 -->
<g id="edge12" class="edge">
<title>Node8&#45;&gt;Node10</title>
<path fill="none" stroke="#191970" d="M538.9542,-240.8906C539.7859,-232.3657 541.0275,-219.6392 542.073,-208.9235"/>
<polygon fill="#191970" stroke="#191970" points="545.5784,-209.0375 543.066,-198.7449 538.6115,-208.3577 545.5784,-209.0375"/>
</g>
<!-- Node11 -->
<g id="node12" class="node">
<title>Node11</title>
<polygon fill="none" stroke="#bfbfbf" points="1172.5167,-118 1172.5167,-137 1221.5167,-137 1221.5167,-118 1172.5167,-118"/>
<text text-anchor="middle" x="1197.0167" y="-125" font-family="Helvetica,sans-Serif" font-size="10.00" fill="#000000">iosfwd</text>
</g>
<!-- Node8&#45;&gt;Node11 -->
<g id="edge14" class="edge">
<title>Node8&#45;&gt;Node11</title>
<path fill="none" stroke="#191970" d="M596.6492,-240.9724C610.2164,-238.8899 624.6065,-236.7789 638.0167,-235 782.5206,-215.8316 820.9117,-226.744 964.0167,-199 1009.3269,-190.2156 1120.7578,-159.0885 1164.0167,-143 1165.6074,-142.4084 1167.2269,-141.7707 1168.8517,-141.103"/>
<polygon fill="#191970" stroke="#191970" points="1170.3026,-144.2886 1178.0521,-137.0639 1167.4886,-137.8791 1170.3026,-144.2886"/>
</g>
<!-- Node18 -->
<g id="node19" class="node">
<title>Node18</title>
<polygon fill="none" stroke="#bfbfbf" points="799.0167,-118 799.0167,-137 831.0167,-137 831.0167,-118 799.0167,-118"/>
<text text-anchor="middle" x="815.0167" y="-125" font-family="Helvetica,sans-Serif" font-size="10.00" fill="#000000">list</text>
</g>
<!-- Node17&#45;&gt;Node18 -->
<g id="edge22" class="edge">
<title>Node17&#45;&gt;Node18</title>
<path fill="none" stroke="#191970" d="M866.4855,-179.3906C857.2288,-170.0581 842.9777,-155.6902 831.8164,-144.4374"/>
<polygon fill="#191970" stroke="#191970" points="834.2095,-141.88 824.6824,-137.2449 829.2396,-146.8095 834.2095,-141.88"/>
</g>
<!-- Node19 -->
<g id="node20" class="node">
<title>Node19</title>
<polygon fill="none" stroke="#bfbfbf" points="849.5167,-118 849.5167,-137 902.5167,-137 902.5167,-118 849.5167,-118"/>
<text text-anchor="middle" x="876.0167" y="-125" font-family="Helvetica,sans-Serif" font-size="10.00" fill="#000000">cstddef</text>
</g>
<!-- Node17&#45;&gt;Node19 -->
<g id="edge23" class="edge">
<title>Node17&#45;&gt;Node19</title>
<path fill="none" stroke="#191970" d="M876.0167,-179.3906C876.0167,-170.8657 876.0167,-158.1392 876.0167,-147.4235"/>
<polygon fill="#191970" stroke="#191970" points="879.5168,-147.2448 876.0167,-137.2449 872.5168,-147.2449 879.5168,-147.2448"/>
</g>
<!-- Node20 -->
<g id="node21" class="node">
<title>Node20</title>
<polygon fill="none" stroke="#bfbfbf" points="921.0167,-118 921.0167,-137 971.0167,-137 971.0167,-118 921.0167,-118"/>
<text text-anchor="middle" x="946.0167" y="-125" font-family="Helvetica,sans-Serif" font-size="10.00" fill="#000000">atomic</text>
</g>
<!-- Node17&#45;&gt;Node20 -->
<g id="edge24" class="edge">
<title>Node17&#45;&gt;Node20</title>
<path fill="none" stroke="#191970" d="M886.9542,-179.3906C897.6788,-169.9683 914.2454,-155.4134 927.1069,-144.1137"/>
<polygon fill="#191970" stroke="#191970" points="929.7226,-146.4745 934.925,-137.2449 925.1024,-141.2158 929.7226,-146.4745"/>
</g>
<!-- Node21 -->
<g id="node22" class="node">
<title>Node21</title>
<polygon fill="none" stroke="#bfbfbf" points="989.5167,-112.5 989.5167,-142.5 1154.5167,-142.5 1154.5167,-112.5 989.5167,-112.5"/>
<text text-anchor="start" x="997.5167" y="-130.5" font-family="Helvetica,sans-Serif" font-size="10.00" fill="#000000">boost/interprocess</text>
<text text-anchor="middle" x="1072.0167" y="-119.5" font-family="Helvetica,sans-Serif" font-size="10.00" fill="#000000">/managed_external_buffer.hpp</text>
</g>
<!-- Node17&#45;&gt;Node21 -->
<g id="edge25" class="edge">
<title>Node17&#45;&gt;Node21</title>
<path fill="none" stroke="#191970" d="M906.6417,-179.3906C935.3785,-170.3737 979.0957,-156.6563 1014.3654,-145.5896"/>
<polygon fill="#191970" stroke="#191970" points="1015.5763,-148.878 1024.0697,-142.5446 1013.4805,-142.199 1015.5763,-148.878"/>
</g>
<!-- Node22 -->
<g id="node23" class="node">
<title>Node22</title>
<polygon fill="none" stroke="#bfbfbf" points="647.0167,-112.5 647.0167,-142.5 781.0167,-142.5 781.0167,-112.5 647.0167,-112.5"/>
<text text-anchor="start" x="655.0167" y="-130.5" font-family="Helvetica,sans-Serif" font-size="10.00" fill="#000000">boost/interprocess</text>
<text text-anchor="middle" x="714.0167" y="-119.5" font-family="Helvetica,sans-Serif" font-size="10.00" fill="#000000">/allocators/allocator.hpp</text>
</g>
<!-- Node17&#45;&gt;Node22 -->
<g id="edge26" class="edge">
<title>Node17&#45;&gt;Node22</title>
<path fill="none" stroke="#191970" d="M850.7042,-179.3906C827.3584,-170.5279 792.0505,-157.1239 763.1683,-146.1594"/>
<polygon fill="#191970" stroke="#191970" points="764.2376,-142.8217 753.6464,-142.5446 761.7531,-149.366 764.2376,-142.8217"/>
</g>
<!-- Node23&#45;&gt;Node17 -->
<g id="edge28" class="edge">
<title>Node23&#45;&gt;Node17</title>
<path fill="none" stroke="#191970" d="M1315.3303,-240.9718C1303.1171,-238.8664 1290.125,-236.7456 1278.0167,-235 1170.8342,-219.5479 1046.9659,-206.0252 965.3732,-197.7115"/>
<polygon fill="#191970" stroke="#191970" points="965.4429,-194.2007 955.1407,-196.6736 964.7365,-201.1649 965.4429,-194.2007"/>
</g>
<!-- Node23&#45;&gt;Node24 -->
<g id="edge29" class="edge">
<title>Node23&#45;&gt;Node24</title>
<path fill="none" stroke="#191970" d="M1353.423,-240.8906C1339.6324,-231.1421 1318.0695,-215.8994 1301.8757,-204.4521"/>
<polygon fill="#191970" stroke="#191970" points="1303.7011,-201.4563 1293.515,-198.5419 1299.6605,-207.1723 1303.7011,-201.4563"/>
</g>
<!-- Node28 -->
<g id="node29" class="node">
<title>Node28</title>
<g id="a_node29"><a xlink:href="../../dc/d73/Cartesian_8h.html" target="_top" xlink:title="MathUtils/Cartesian.h">
<polygon fill="none" stroke="#000000" points="1977.0167,-179.5 1977.0167,-198.5 2099.0167,-198.5 2099.0167,-179.5 1977.0167,-179.5"/>
<text text-anchor="middle" x="2038.0167" y="-186.5" font-family="Helvetica,sans-Serif" font-size="10.00" fill="#000000">MathUtils/Cartesian.h</text>
</a>
</g>
</g>
<!-- Node27&#45;&gt;Node28 -->
<g id="edge34" class="edge">
<title>Node27&#45;&gt;Node28</title>
<path fill="none" stroke="#191970" d="M1592.6453,-236.5823C1595.8087,-236.0184 1598.9456,-235.4867 1602.0167,-235 1729.8304,-214.7446 1880.1815,-201.1044 1966.759,-194.2268"/>
<polygon fill="#191970" stroke="#191970" points="1967.0429,-197.7154 1976.7376,-193.4417 1966.4938,-190.7369 1967.0429,-197.7154"/>
</g>
<!-- Node28&#45;&gt;Node11 -->
<g id="edge48" class="edge">
<title>Node28&#45;&gt;Node11</title>
<path fill="none" stroke="#191970" d="M1976.7265,-188.4274C1813.6935,-186.4392 1372.1862,-177.8964 1231.0167,-143 1228.8165,-142.4561 1226.5835,-141.772 1224.3678,-140.996"/>
<polygon fill="#191970" stroke="#191970" points="1225.5006,-137.6785 1214.9186,-137.1564 1222.8654,-144.1635 1225.5006,-137.6785"/>
</g>
<!-- Node29 -->
<g id="node30" class="node">
<title>Node29</title>
<g id="a_node30"><a xlink:href="../../df/d21/GPUCommonDef_8h.html" target="_top" xlink:title="GPUCommonDef.h">
<polygon fill="none" stroke="#000000" points="2316.5167,-56.5 2316.5167,-75.5 2423.5167,-75.5 2423.5167,-56.5 2316.5167,-56.5"/>
<text text-anchor="middle" x="2370.0167" y="-63.5" font-family="Helvetica,sans-Serif" font-size="10.00" fill="#000000">GPUCommonDef.h</text>
</a>
</g>
</g>
<!-- Node28&#45;&gt;Node29 -->
<g id="edge35" class="edge">
<title>Node28&#45;&gt;Node29</title>
<path fill="none" stroke="#191970" d="M2099.2548,-185.5705C2197.2887,-179.4482 2380.4909,-165.164 2400.0167,-143 2415.0382,-125.949 2399.9875,-100.5212 2386.3264,-83.6096"/>
<polygon fill="#191970" stroke="#191970" points="2388.646,-80.9383 2379.4759,-75.6317 2383.3352,-85.4986 2388.646,-80.9383"/>
</g>
<!-- Node32 -->
<g id="node33" class="node">
<title>Node32</title>
<g id="a_node33"><a xlink:href="../../d2/d45/GPUCommonRtypes_8h.html" target="_top" xlink:title="GPUCommonRtypes.h">
<polygon fill="none" stroke="#000000" points="1239.5167,-118 1239.5167,-137 1364.5167,-137 1364.5167,-118 1239.5167,-118"/>
<text text-anchor="middle" x="1302.0167" y="-125" font-family="Helvetica,sans-Serif" font-size="10.00" fill="#000000">GPUCommonRtypes.h</text>
</a>
</g>
</g>
<!-- Node28&#45;&gt;Node32 -->
<g id="edge38" class="edge">
<title>Node28&#45;&gt;Node32</title>
<path fill="none" stroke="#191970" d="M1976.833,-187.6797C1859.4144,-184.5015 1594.5492,-174.2137 1374.0167,-143 1366.6224,-141.9534 1358.8543,-140.5776 1351.2679,-139.0772"/>
<polygon fill="#191970" stroke="#191970" points="1351.9473,-135.6437 1341.4462,-137.0503 1350.5325,-142.4993 1351.9473,-135.6437"/>
</g>
<!-- Node33 -->
<g id="node34" class="node">
<title>Node33</title>
<polygon fill="none" stroke="#bfbfbf" points="2447.0167,-112.5 2447.0167,-142.5 2611.0167,-142.5 2611.0167,-112.5 2447.0167,-112.5"/>
<text text-anchor="start" x="2455.0167" y="-130.5" font-family="Helvetica,sans-Serif" font-size="10.00" fill="#000000">Math/GenVector/Displacement</text>
<text text-anchor="middle" x="2529.0167" y="-119.5" font-family="Helvetica,sans-Serif" font-size="10.00" fill="#000000">Vector3D.h</text>
</g>
<!-- Node28&#45;&gt;Node33 -->
<g id="edge40" class="edge">
<title>Node28&#45;&gt;Node33</title>
<path fill="none" stroke="#191970" d="M2099.0239,-182.7399C2176.7178,-174.5737 2315.0553,-159.3834 2433.0167,-143 2434.2865,-142.8236 2435.5655,-142.6441 2436.852,-142.4617"/>
<polygon fill="#191970" stroke="#191970" points="2437.4395,-145.9132 2446.8335,-141.0138 2436.4346,-138.9857 2437.4395,-145.9132"/>
</g>
<!-- Node34 -->
<g id="node35" class="node">
<title>Node34</title>
<polygon fill="none" stroke="#bfbfbf" points="2629.5167,-118 2629.5167,-137 2818.5167,-137 2818.5167,-118 2629.5167,-118"/>
<text text-anchor="middle" x="2724.0167" y="-125" font-family="Helvetica,sans-Serif" font-size="10.00" fill="#000000">Math/GenVector/PositionVector3D.h</text>
</g>
<!-- Node28&#45;&gt;Node34 -->
<g id="edge41" class="edge">
<title>Node28&#45;&gt;Node34</title>
<path fill="none" stroke="#191970" d="M2099.3186,-185.5519C2205.5605,-179.2642 2430.6901,-164.5644 2620.0167,-143 2631.3096,-141.7137 2643.2611,-140.1363 2654.8828,-138.4854"/>
<polygon fill="#191970" stroke="#191970" points="2655.5916,-141.9193 2664.9862,-137.0212 2654.5876,-134.9917 2655.5916,-141.9193"/>
</g>
<!-- Node35 -->
<g id="node36" class="node">
<title>Node35</title>
<polygon fill="none" stroke="#bfbfbf" points="2837.0167,-118 2837.0167,-137 2997.0167,-137 2997.0167,-118 2837.0167,-118"/>
<text text-anchor="middle" x="2917.0167" y="-125" font-family="Helvetica,sans-Serif" font-size="10.00" fill="#000000">Math/GenVector/Rotation3D.h</text>
</g>
<!-- Node28&#45;&gt;Node35 -->
<g id="edge42" class="edge">
<title>Node28&#45;&gt;Node35</title>
<path fill="none" stroke="#191970" d="M2099.1803,-187.817C2232.1722,-184.7235 2557.4591,-174.3329 2828.0167,-143 2837.832,-141.8633 2848.2064,-140.3474 2858.2702,-138.7077"/>
<polygon fill="#191970" stroke="#191970" points="2858.9182,-142.1479 2868.1983,-137.0362 2857.756,-135.2451 2858.9182,-142.1479"/>
</g>
<!-- Node36 -->
<g id="node37" class="node">
<title>Node36</title>
<polygon fill="none" stroke="#bfbfbf" points="1383.0167,-118 1383.0167,-137 1551.0167,-137 1551.0167,-118 1383.0167,-118"/>
<text text-anchor="middle" x="1467.0167" y="-125" font-family="Helvetica,sans-Serif" font-size="10.00" fill="#000000">Math/GenVector/Transform3D.h</text>
</g>
<!-- Node28&#45;&gt;Node36 -->
<g id="edge43" class="edge">
<title>Node28&#45;&gt;Node36</title>
<path fill="none" stroke="#191970" d="M1976.8772,-184.4281C1885.9821,-177.3316 1709.9238,-162.4345 1561.0167,-143 1551.2993,-141.7317 1541.0447,-140.2203 1531.0221,-138.6461"/>
<polygon fill="#191970" stroke="#191970" points="1531.533,-135.1834 1521.1053,-137.0577 1530.4259,-142.0953 1531.533,-135.1834"/>
</g>
<!-- Node37 -->
<g id="node38" class="node">
<title>Node37</title>
<polygon fill="none" stroke="#bfbfbf" points="1569.5167,-118 1569.5167,-137 1742.5167,-137 1742.5167,-118 1569.5167,-118"/>
<text text-anchor="middle" x="1656.0167" y="-125" font-family="Helvetica,sans-Serif" font-size="10.00" fill="#000000">Math/GenVector/Translation3D.h</text>
</g>
<!-- Node28&#45;&gt;Node37 -->
<g id="edge44" class="edge">
<title>Node28&#45;&gt;Node37</title>
<path fill="none" stroke="#191970" d="M1978.858,-179.4956C1921.0214,-170.2012 1830.4643,-155.6417 1752.0167,-143 1743.2975,-141.5949 1734.1331,-140.1168 1725.0695,-138.6543"/>
<polygon fill="#191970" stroke="#191970" points="1725.3383,-135.1524 1714.9084,-137.0143 1724.2229,-142.063 1725.3383,-135.1524"/>
</g>
<!-- Node38 -->
<g id="node39" class="node">
<title>Node38</title>
<polygon fill="none" stroke="#bfbfbf" points="1761.0167,-112.5 1761.0167,-142.5 1925.0167,-142.5 1925.0167,-112.5 1761.0167,-112.5"/>
<text text-anchor="start" x="1769.0167" y="-130.5" font-family="Helvetica,sans-Serif" font-size="10.00" fill="#000000">Math/GenVector/Displacement</text>
<text text-anchor="middle" x="1843.0167" y="-119.5" font-family="Helvetica,sans-Serif" font-size="10.00" fill="#000000">Vector2D.h</text>
</g>
<!-- Node28&#45;&gt;Node38 -->
<g id="edge45" class="edge">
<title>Node28&#45;&gt;Node38</title>
<path fill="none" stroke="#191970" d="M2007.548,-179.3906C1978.9579,-170.3737 1935.4637,-156.6563 1900.374,-145.5896"/>
<polygon fill="#191970" stroke="#191970" points="1901.3088,-142.2145 1890.7191,-142.5446 1899.2033,-148.8904 1901.3088,-142.2145"/>
</g>
<!-- Node39 -->
<g id="node40" class="node">
<title>Node39</title>
<polygon fill="none" stroke="#bfbfbf" points="1943.5167,-118 1943.5167,-137 2132.5167,-137 2132.5167,-118 1943.5167,-118"/>
<text text-anchor="middle" x="2038.0167" y="-125" font-family="Helvetica,sans-Serif" font-size="10.00" fill="#000000">Math/GenVector/PositionVector2D.h</text>
</g>
<!-- Node28&#45;&gt;Node39 -->
<g id="edge46" class="edge">
<title>Node28&#45;&gt;Node39</title>
<path fill="none" stroke="#191970" d="M2038.0167,-179.3906C2038.0167,-170.8657 2038.0167,-158.1392 2038.0167,-147.4235"/>
<polygon fill="#191970" stroke="#191970" points="2041.5168,-147.2448 2038.0167,-137.2449 2034.5168,-147.2449 2041.5168,-147.2448"/>
</g>
<!-- Node40 -->
<g id="node41" class="node">
<title>Node40</title>
<polygon fill="none" stroke="#bfbfbf" points="2151.0167,-118 2151.0167,-137 2233.0167,-137 2233.0167,-118 2151.0167,-118"/>
<text text-anchor="middle" x="2192.0167" y="-125" font-family="Helvetica,sans-Serif" font-size="10.00" fill="#000000">TGeoMatrix.h</text>
</g>
<!-- Node28&#45;&gt;Node40 -->
<g id="edge47" class="edge">
<title>Node28&#45;&gt;Node40</title>
<path fill="none" stroke="#191970" d="M2062.0792,-179.3906C2088.0723,-169.0103 2129.6645,-152.4004 2158.7714,-140.7766"/>
<polygon fill="#191970" stroke="#191970" points="2160.1344,-144.0011 2168.1232,-137.0419 2157.5383,-137.5003 2160.1344,-144.0011"/>
</g>
<!-- Node41 -->
<g id="node42" class="node">
<title>Node41</title>
<g id="a_node42"><a xlink:href="../../d1/da8/GPUROOTCartesianFwd_8h.html" target="_top" xlink:title="GPUROOTCartesianFwd.h">
<polygon fill="none" stroke="#000000" points="2251.0167,-118 2251.0167,-137 2391.0167,-137 2391.0167,-118 2251.0167,-118"/>
<text text-anchor="middle" x="2321.0167" y="-125" font-family="Helvetica,sans-Serif" font-size="10.00" fill="#000000">GPUROOTCartesianFwd.h</text>
</a>
</g>
</g>
<!-- Node28&#45;&gt;Node41 -->
<g id="edge49" class="edge">
<title>Node28&#45;&gt;Node41</title>
<path fill="none" stroke="#191970" d="M2081.925,-179.4581C2131.8066,-168.6181 2213.2357,-150.9224 2266.9759,-139.2439"/>
<polygon fill="#191970" stroke="#191970" points="2267.9768,-142.6081 2277.0055,-137.0643 2266.4903,-135.7678 2267.9768,-142.6081"/>
</g>
<!-- Node30 -->
<g id="node31" class="node">
<title>Node30</title>
<g id="a_node31"><a xlink:href="../../d5/d93/GPUCommonDefSettings_8h.html" target="_top" xlink:title="GPUCommonDefSettings.h">
<polygon fill="none" stroke="#000000" points="2219.0167,-.5 2219.0167,-19.5 2367.0167,-19.5 2367.0167,-.5 2219.0167,-.5"/>
<text text-anchor="middle" x="2293.0167" y="-7.5" font-family="Helvetica,sans-Serif" font-size="10.00" fill="#000000">GPUCommonDefSettings.h</text>
</a>
</g>
</g>
<!-- Node29&#45;&gt;Node30 -->
<g id="edge36" class="edge">
<title>Node29&#45;&gt;Node30</title>
<path fill="none" stroke="#191970" d="M2356.6043,-56.2455C2345.011,-47.814 2328.042,-35.4729 2314.5489,-25.6598"/>
<polygon fill="#191970" stroke="#191970" points="2316.4214,-22.6938 2306.2754,-19.6427 2312.3042,-28.355 2316.4214,-22.6938"/>
</g>
<!-- Node31 -->
<g id="node32" class="node">
<title>Node31</title>
<g id="a_node32"><a xlink:href="../../da/d5a/GPUCommonDefAPI_8h.html" target="_top" xlink:title="GPUCommonDefAPI.h">
<polygon fill="none" stroke="#000000" points="2385.0167,-.5 2385.0167,-19.5 2509.0167,-19.5 2509.0167,-.5 2385.0167,-.5"/>
<text text-anchor="middle" x="2447.0167" y="-7.5" font-family="Helvetica,sans-Serif" font-size="10.00" fill="#000000">GPUCommonDefAPI.h</text>
</a>
</g>
</g>
<!-- Node29&#45;&gt;Node31 -->
<g id="edge37" class="edge">
<title>Node29&#45;&gt;Node31</title>
<path fill="none" stroke="#191970" d="M2383.4291,-56.2455C2395.0224,-47.814 2411.9915,-35.4729 2425.4845,-25.6598"/>
<polygon fill="#191970" stroke="#191970" points="2427.7293,-28.355 2433.758,-19.6427 2423.6121,-22.6938 2427.7293,-28.355"/>
</g>
<!-- Node32&#45;&gt;Node9 -->
<g id="edge39" class="edge">
<title>Node32&#45;&gt;Node9</title>
<path fill="none" stroke="#191970" d="M1263.1348,-117.9848C1252.7527,-115.7263 1241.5036,-113.5311 1231.0167,-112 1016.6307,-80.6987 756.6998,-70.1007 658.8355,-67.0651"/>
<polygon fill="#191970" stroke="#191970" points="658.8942,-63.5654 648.7933,-66.7627 658.6835,-70.5622 658.8942,-63.5654"/>
</g>
<!-- Node41&#45;&gt;Node29 -->
<g id="edge50" class="edge">
<title>Node41&#45;&gt;Node29</title>
<path fill="none" stroke="#191970" d="M2328.673,-117.8906C2335.9657,-108.7376 2347.1175,-94.7409 2356.0019,-83.59"/>
<polygon fill="#191970" stroke="#191970" points="2358.7584,-85.747 2362.2525,-75.7449 2353.2837,-81.3849 2358.7584,-85.747"/>
</g>
<!-- Node42&#45;&gt;Node23 -->
<g id="edge54" class="edge">
<title>Node42&#45;&gt;Node23</title>
<path fill="none" stroke="#191970" d="M1482.6105,-302.3906C1459.7884,-292.1457 1423.4488,-275.8326 1397.611,-264.2339"/>
<polygon fill="#191970" stroke="#191970" points="1398.829,-260.9443 1388.2727,-260.0419 1395.9622,-267.3303 1398.829,-260.9443"/>
</g>
<!-- Node42&#45;&gt;Node27 -->
<g id="edge53" class="edge">
<title>Node42&#45;&gt;Node27</title>
<path fill="none" stroke="#191970" d="M1507.923,-302.3906C1510.8992,-295.0692 1515.1351,-284.6488 1519.0311,-275.0647"/>
<polygon fill="#191970" stroke="#191970" points="1522.3775,-276.1265 1522.901,-265.5446 1515.8928,-273.4904 1522.3775,-276.1265"/>
</g>
<!-- Node43 -->
<g id="node44" class="node">
<title>Node43</title>
<polygon fill="none" stroke="#bfbfbf" points="1610.5167,-241 1610.5167,-260 1667.5167,-260 1667.5167,-241 1610.5167,-241"/>
<text text-anchor="middle" x="1639.0167" y="-248" font-family="Helvetica,sans-Serif" font-size="10.00" fill="#000000">ostream</text>
</g>
<!-- Node42&#45;&gt;Node43 -->
<g id="edge52" class="edge">
<title>Node42&#45;&gt;Node43</title>
<path fill="none" stroke="#191970" d="M1525.1105,-302.3906C1547.5994,-292.1457 1583.4085,-275.8326 1608.8691,-264.2339"/>
<polygon fill="#191970" stroke="#191970" points="1610.4219,-267.3727 1618.0711,-260.0419 1607.5199,-261.0025 1610.4219,-267.3727"/>
</g>
<!-- Node44&#45;&gt;Node1 -->
<g id="edge58" class="edge">
<title>Node44&#45;&gt;Node1</title>
<path fill="none" stroke="#191970" d="M1372.6418,-358.3845C1348.9185,-338.3306 1293.9264,-291.8445 1264.4707,-266.9449"/>
<polygon fill="#191970" stroke="#191970" points="1266.4454,-264.0312 1256.5488,-260.2484 1261.9263,-269.3771 1266.4454,-264.0312"/>
</g>
<!-- Node44&#45;&gt;Node42 -->
<g id="edge56" class="edge">
<title>Node44&#45;&gt;Node42</title>
<path fill="none" stroke="#191970" d="M1404.6455,-358.3733C1423.9086,-349.3838 1452.8654,-335.8706 1474.5586,-325.7471"/>
<polygon fill="#191970" stroke="#191970" points="1476.0755,-328.9017 1483.6572,-321.5011 1473.1152,-322.5584 1476.0755,-328.9017"/>
</g>
<!-- Node45 -->
<g id="node46" class="node">
<title>Node45</title>
<polygon fill="none" stroke="#bfbfbf" points="1349.5167,-302.5 1349.5167,-321.5 1428.5167,-321.5 1428.5167,-302.5 1349.5167,-302.5"/>
<text text-anchor="middle" x="1389.0167" y="-309.5" font-family="Helvetica,sans-Serif" font-size="10.00" fill="#000000">TVirtualMC.h</text>
</g>
<!-- Node44&#45;&gt;Node45 -->
<g id="edge57" class="edge">
<title>Node44&#45;&gt;Node45</title>
<path fill="none" stroke="#191970" d="M1384.8877,-358.2455C1385.5401,-350.9382 1386.4547,-340.6944 1387.2574,-331.7046"/>
<polygon fill="#191970" stroke="#191970" points="1390.7525,-331.9143 1388.1558,-321.6427 1383.7802,-331.2918 1390.7525,-331.9143"/>
</g>
</g>
</svg>
