<?xml version="1.0" encoding="UTF-8" standalone="no"?>
<!DOCTYPE svg PUBLIC "-//W3C//DTD SVG 1.1//EN"
 "http://www.w3.org/Graphics/SVG/1.1/DTD/svg11.dtd">
<!-- Generated by graphviz version 2.40.1 (20161225.0304)
 -->
<!-- Title: /home/travis/build/AliceO2Group/AliceO2/DataFormats/Detectors/CPV/src/Cluster.cxx Pages: 1 -->
<svg width="1012pt" height="374pt"
 viewBox="0.00 0.00 1011.81 374.00" xmlns="http://www.w3.org/2000/svg" xmlns:xlink="http://www.w3.org/1999/xlink">
<g id="graph0" class="graph" transform="scale(1 1) rotate(0) translate(4 370)">
<title>/home/travis/build/AliceO2Group/AliceO2/DataFormats/Detectors/CPV/src/Cluster.cxx</title>
<!-- Node0 -->
<g id="node1" class="node">
<title>Node0</title>
<polygon fill="#bfbfbf" stroke="#000000" points="263.8072,-313.5 263.8072,-365.5 396.8072,-365.5 396.8072,-313.5 263.8072,-313.5"/>
<text text-anchor="start" x="271.8072" y="-353.5" font-family="Helvetica,sans-Serif" font-size="10.00" fill="#000000">/home/travis/build</text>
<text text-anchor="start" x="271.8072" y="-342.5" font-family="Helvetica,sans-Serif" font-size="10.00" fill="#000000">/AliceO2Group/AliceO2</text>
<text text-anchor="start" x="271.8072" y="-331.5" font-family="Helvetica,sans-Serif" font-size="10.00" fill="#000000">/DataFormats/Detectors</text>
<text text-anchor="middle" x="330.3072" y="-320.5" font-family="Helvetica,sans-Serif" font-size="10.00" fill="#000000">/CPV/src/Cluster.cxx</text>
</g>
<!-- Node1 -->
<g id="node2" class="node">
<title>Node1</title>
<g id="a_node2"><a xlink:href="../../d1/d8b/DataFormats_2Detectors_2CPV_2include_2DataFormatsCPV_2Cluster_8h.html" target="_top" xlink:title="DataFormatsCPV/Cluster.h">
<polygon fill="none" stroke="#000000" points="257.8072,-257.5 257.8072,-276.5 402.8072,-276.5 402.8072,-257.5 257.8072,-257.5"/>
<text text-anchor="middle" x="330.3072" y="-264.5" font-family="Helvetica,sans-Serif" font-size="10.00" fill="#000000">DataFormatsCPV/Cluster.h</text>
</a>
</g>
</g>
<!-- Node0&#45;&gt;Node1 -->
<g id="edge1" class="edge">
<title>Node0&#45;&gt;Node1</title>
<path fill="none" stroke="#191970" d="M330.3072,-313.3258C330.3072,-304.5142 330.3072,-294.8397 330.3072,-286.621"/>
<polygon fill="#191970" stroke="#191970" points="333.8073,-286.534 330.3072,-276.534 326.8073,-286.534 333.8073,-286.534"/>
</g>
<!-- Node10 -->
<g id="node11" class="node">
<title>Node10</title>
<g id="a_node11"><a xlink:href="../../de/ddd/CPV_2base_2include_2CPVBase_2Geometry_8h.html" target="_top" xlink:title="CPVBase/Geometry.h">
<polygon fill="none" stroke="#000000" points="61.8072,-257.5 61.8072,-276.5 180.8072,-276.5 180.8072,-257.5 61.8072,-257.5"/>
<text text-anchor="middle" x="121.3072" y="-264.5" font-family="Helvetica,sans-Serif" font-size="10.00" fill="#000000">CPVBase/Geometry.h</text>
</a>
</g>
</g>
<!-- Node0&#45;&gt;Node10 -->
<g id="edge10" class="edge">
<title>Node0&#45;&gt;Node10</title>
<path fill="none" stroke="#191970" d="M263.6037,-316.3612C228.8729,-304.3135 187.7049,-290.0327 158.6077,-279.9392"/>
<polygon fill="#191970" stroke="#191970" points="159.4442,-276.5248 148.8494,-276.5541 157.1501,-283.1382 159.4442,-276.5248"/>
</g>
<!-- Node14 -->
<g id="node15" class="node">
<title>Node14</title>
<g id="a_node15"><a xlink:href="../../de/d2a/CPVSimParams_8h.html" target="_top" xlink:title="CPVBase/CPVSimParams.h">
<polygon fill="none" stroke="#000000" points="461.3072,-257.5 461.3072,-276.5 607.3072,-276.5 607.3072,-257.5 461.3072,-257.5"/>
<text text-anchor="middle" x="534.3072" y="-264.5" font-family="Helvetica,sans-Serif" font-size="10.00" fill="#000000">CPVBase/CPVSimParams.h</text>
</a>
</g>
</g>
<!-- Node0&#45;&gt;Node14 -->
<g id="edge15" class="edge">
<title>Node0&#45;&gt;Node14</title>
<path fill="none" stroke="#191970" d="M396.8222,-315.8611C430.3739,-303.9371 469.7774,-289.9334 497.7791,-279.9818"/>
<polygon fill="#191970" stroke="#191970" points="499.2972,-283.1568 507.5477,-276.5101 496.953,-276.561 499.2972,-283.1568"/>
</g>
<!-- Node2 -->
<g id="node3" class="node">
<title>Node2</title>
<g id="a_node3"><a xlink:href="../../de/dfb/DataFormats_2Detectors_2CPV_2include_2DataFormatsCPV_2Digit_8h.html" target="_top" xlink:title="DataFormatsCPV/Digit.h">
<polygon fill="none" stroke="#000000" points="263.3072,-196 263.3072,-215 397.3072,-215 397.3072,-196 263.3072,-196"/>
<text text-anchor="middle" x="330.3072" y="-203" font-family="Helvetica,sans-Serif" font-size="10.00" fill="#000000">DataFormatsCPV/Digit.h</text>
</a>
</g>
</g>
<!-- Node1&#45;&gt;Node2 -->
<g id="edge2" class="edge">
<title>Node1&#45;&gt;Node2</title>
<path fill="none" stroke="#191970" d="M330.3072,-257.3906C330.3072,-248.8657 330.3072,-236.1392 330.3072,-225.4235"/>
<polygon fill="#191970" stroke="#191970" points="333.8073,-225.2448 330.3072,-215.2449 326.8073,-225.2449 333.8073,-225.2448"/>
</g>
<!-- Node3 -->
<g id="node4" class="node">
<title>Node3</title>
<polygon fill="none" stroke="#bfbfbf" points="130.8072,-129 130.8072,-148 177.8072,-148 177.8072,-129 130.8072,-129"/>
<text text-anchor="middle" x="154.3072" y="-136" font-family="Helvetica,sans-Serif" font-size="10.00" fill="#000000">cmath</text>
</g>
<!-- Node2&#45;&gt;Node3 -->
<g id="edge3" class="edge">
<title>Node2&#45;&gt;Node3</title>
<path fill="none" stroke="#191970" d="M300.7187,-195.9565C271.3564,-186.244 225.2352,-170.3332 186.3072,-154 184.9553,-153.4328 183.5788,-152.8374 182.194,-152.224"/>
<polygon fill="#191970" stroke="#191970" points="183.6501,-149.0413 173.1046,-148.0207 180.712,-155.3948 183.6501,-149.0413"/>
</g>
<!-- Node4 -->
<g id="node5" class="node">
<title>Node4</title>
<g id="a_node5"><a xlink:href="../../df/d5d/common_2include_2CommonDataFormat_2TimeStamp_8h.html" target="_top" xlink:title="CommonDataFormat/TimeStamp.h">
<polygon fill="none" stroke="#000000" points="195.8072,-129 195.8072,-148 382.8072,-148 382.8072,-129 195.8072,-129"/>
<text text-anchor="middle" x="289.3072" y="-136" font-family="Helvetica,sans-Serif" font-size="10.00" fill="#000000">CommonDataFormat/TimeStamp.h</text>
</a>
</g>
</g>
<!-- Node2&#45;&gt;Node4 -->
<g id="edge4" class="edge">
<title>Node2&#45;&gt;Node4</title>
<path fill="none" stroke="#191970" d="M324.4329,-195.9005C318.222,-185.751 308.2737,-169.4941 300.5473,-156.8679"/>
<polygon fill="#191970" stroke="#191970" points="303.3757,-154.7844 295.1706,-148.0817 297.4049,-158.4382 303.3757,-154.7844"/>
</g>
<!-- Node5 -->
<g id="node6" class="node">
<title>Node5</title>
<g id="a_node6"><a xlink:href="../../d2/d45/GPUCommonRtypes_8h.html" target="_top" xlink:title="GPUCommonRtypes.h">
<polygon fill="none" stroke="#000000" points="79.8072,-62 79.8072,-81 204.8072,-81 204.8072,-62 79.8072,-62"/>
<text text-anchor="middle" x="142.3072" y="-69" font-family="Helvetica,sans-Serif" font-size="10.00" fill="#000000">GPUCommonRtypes.h</text>
</a>
</g>
</g>
<!-- Node4&#45;&gt;Node5 -->
<g id="edge5" class="edge">
<title>Node4&#45;&gt;Node5</title>
<path fill="none" stroke="#191970" d="M268.2457,-128.9005C243.1391,-117.4574 200.9995,-98.2509 172.4474,-85.2374"/>
<polygon fill="#191970" stroke="#191970" points="173.8807,-82.0443 163.3297,-81.0817 170.9775,-88.4139 173.8807,-82.0443"/>
</g>
<!-- Node7 -->
<g id="node8" class="node">
<title>Node7</title>
<g id="a_node8"><a xlink:href="../../df/d21/GPUCommonDef_8h.html" target="_top" xlink:title="GPUCommonDef.h">
<polygon fill="none" stroke="#000000" points="235.8072,-62 235.8072,-81 342.8072,-81 342.8072,-62 235.8072,-62"/>
<text text-anchor="middle" x="289.3072" y="-69" font-family="Helvetica,sans-Serif" font-size="10.00" fill="#000000">GPUCommonDef.h</text>
</a>
</g>
</g>
<!-- Node4&#45;&gt;Node7 -->
<g id="edge7" class="edge">
<title>Node4&#45;&gt;Node7</title>
<path fill="none" stroke="#191970" d="M289.3072,-128.9005C289.3072,-119.149 289.3072,-103.7597 289.3072,-91.3695"/>
<polygon fill="#191970" stroke="#191970" points="292.8073,-91.0816 289.3072,-81.0817 285.8073,-91.0817 292.8073,-91.0816"/>
</g>
<!-- Node6 -->
<g id="node7" class="node">
<title>Node6</title>
<polygon fill="none" stroke="#bfbfbf" points="26.8072,-.5 26.8072,-19.5 85.8072,-19.5 85.8072,-.5 26.8072,-.5"/>
<text text-anchor="middle" x="56.3072" y="-7.5" font-family="Helvetica,sans-Serif" font-size="10.00" fill="#000000">Rtypes.h</text>
</g>
<!-- Node5&#45;&gt;Node6 -->
<g id="edge6" class="edge">
<title>Node5&#45;&gt;Node6</title>
<path fill="none" stroke="#191970" d="M128.8697,-61.8906C115.2377,-52.1421 93.9226,-36.8994 77.915,-25.4521"/>
<polygon fill="#191970" stroke="#191970" points="79.8204,-22.5118 69.6504,-19.5419 75.7486,-28.2057 79.8204,-22.5118"/>
</g>
<!-- Node8 -->
<g id="node9" class="node">
<title>Node8</title>
<g id="a_node9"><a xlink:href="../../d5/d93/GPUCommonDefSettings_8h.html" target="_top" xlink:title="GPUCommonDefSettings.h">
<polygon fill="none" stroke="#000000" points="139.3072,-.5 139.3072,-19.5 287.3072,-19.5 287.3072,-.5 139.3072,-.5"/>
<text text-anchor="middle" x="213.3072" y="-7.5" font-family="Helvetica,sans-Serif" font-size="10.00" fill="#000000">GPUCommonDefSettings.h</text>
</a>
</g>
</g>
<!-- Node7&#45;&gt;Node8 -->
<g id="edge8" class="edge">
<title>Node7&#45;&gt;Node8</title>
<path fill="none" stroke="#191970" d="M277.4322,-61.8906C265.6775,-52.3786 247.4586,-37.6357 233.44,-26.2917"/>
<polygon fill="#191970" stroke="#191970" points="235.325,-23.3146 225.3496,-19.7449 230.9216,-28.7562 235.325,-23.3146"/>
</g>
<!-- Node9 -->
<g id="node10" class="node">
<title>Node9</title>
<g id="a_node10"><a xlink:href="../../da/d5a/GPUCommonDefAPI_8h.html" target="_top" xlink:title="GPUCommonDefAPI.h">
<polygon fill="none" stroke="#000000" points="305.3072,-.5 305.3072,-19.5 429.3072,-19.5 429.3072,-.5 305.3072,-.5"/>
<text text-anchor="middle" x="367.3072" y="-7.5" font-family="Helvetica,sans-Serif" font-size="10.00" fill="#000000">GPUCommonDefAPI.h</text>
</a>
</g>
</g>
<!-- Node7&#45;&gt;Node9 -->
<g id="edge9" class="edge">
<title>Node7&#45;&gt;Node9</title>
<path fill="none" stroke="#191970" d="M301.4947,-61.8906C313.7442,-52.2324 332.8335,-37.1812 347.305,-25.771"/>
<polygon fill="#191970" stroke="#191970" points="349.5196,-28.4819 355.2053,-19.5419 345.1855,-22.985 349.5196,-28.4819"/>
</g>
<!-- Node10&#45;&gt;Node6 -->
<g id="edge12" class="edge">
<title>Node10&#45;&gt;Node6</title>
<path fill="none" stroke="#191970" d="M70.5912,-257.4201C50.1251,-250.7945 28.5029,-239.6576 16.3072,-221 -23.9377,-159.4314 21.6001,-67.4493 44.6074,-28.4926"/>
<polygon fill="#191970" stroke="#191970" points="47.6993,-30.1443 49.9054,-19.7816 41.7186,-26.5068 47.6993,-30.1443"/>
</g>
<!-- Node11 -->
<g id="node12" class="node">
<title>Node11</title>
<polygon fill="none" stroke="#bfbfbf" points="99.3072,-196 99.3072,-215 143.3072,-215 143.3072,-196 99.3072,-196"/>
<text text-anchor="middle" x="121.3072" y="-203" font-family="Helvetica,sans-Serif" font-size="10.00" fill="#000000">string</text>
</g>
<!-- Node10&#45;&gt;Node11 -->
<g id="edge11" class="edge">
<title>Node10&#45;&gt;Node11</title>
<path fill="none" stroke="#191970" d="M121.3072,-257.3906C121.3072,-248.8657 121.3072,-236.1392 121.3072,-225.4235"/>
<polygon fill="#191970" stroke="#191970" points="124.8073,-225.2448 121.3072,-215.2449 117.8073,-225.2449 124.8073,-225.2448"/>
</g>
<!-- Node12 -->
<g id="node13" class="node">
<title>Node12</title>
<polygon fill="none" stroke="#bfbfbf" points="161.3072,-196 161.3072,-215 245.3072,-215 245.3072,-196 161.3072,-196"/>
<text text-anchor="middle" x="203.3072" y="-203" font-family="Helvetica,sans-Serif" font-size="10.00" fill="#000000">RStringView.h</text>
</g>
<!-- Node10&#45;&gt;Node12 -->
<g id="edge13" class="edge">
<title>Node10&#45;&gt;Node12</title>
<path fill="none" stroke="#191970" d="M134.1197,-257.3906C146.9974,-247.7324 167.0656,-232.6812 182.2792,-221.271"/>
<polygon fill="#191970" stroke="#191970" points="184.6847,-223.8419 190.5847,-215.0419 180.4846,-218.2419 184.6847,-223.8419"/>
</g>
<!-- Node13 -->
<g id="node14" class="node">
<title>Node13</title>
<polygon fill="none" stroke="#bfbfbf" points="25.3072,-196 25.3072,-215 81.3072,-215 81.3072,-196 25.3072,-196"/>
<text text-anchor="middle" x="53.3072" y="-203" font-family="Helvetica,sans-Serif" font-size="10.00" fill="#000000">TMath.h</text>
</g>
<!-- Node10&#45;&gt;Node13 -->
<g id="edge14" class="edge">
<title>Node10&#45;&gt;Node13</title>
<path fill="none" stroke="#191970" d="M110.6822,-257.3906C100.2641,-247.9683 84.1708,-233.4134 71.6768,-222.1137"/>
<polygon fill="#191970" stroke="#191970" points="73.8464,-219.3568 64.082,-215.2449 69.151,-224.5484 73.8464,-219.3568"/>
</g>
<!-- Node15 -->
<g id="node16" class="node">
<title>Node15</title>
<g id="a_node16"><a xlink:href="../../db/d2c/ConfigurableParam_8h.html" target="_top" xlink:title="CommonUtils/Configurable\lParam.h">
<polygon fill="none" stroke="#000000" points="668.3072,-123.5 668.3072,-153.5 816.3072,-153.5 816.3072,-123.5 668.3072,-123.5"/>
<text text-anchor="start" x="676.3072" y="-141.5" font-family="Helvetica,sans-Serif" font-size="10.00" fill="#000000">CommonUtils/Configurable</text>
<text text-anchor="middle" x="742.3072" y="-130.5" font-family="Helvetica,sans-Serif" font-size="10.00" fill="#000000">Param.h</text>
</a>
</g>
</g>
<!-- Node14&#45;&gt;Node15 -->
<g id="edge16" class="edge">
<title>Node14&#45;&gt;Node15</title>
<path fill="none" stroke="#191970" d="M552.6726,-257.3484C569.6468,-248.3043 595.4671,-234.2322 617.3072,-221 650.3298,-200.9926 687.1,-176.4381 712.1595,-159.3432"/>
<polygon fill="#191970" stroke="#191970" points="714.2348,-162.1642 720.5097,-153.6273 710.2807,-156.3878 714.2348,-162.1642"/>
</g>
<!-- Node22 -->
<g id="node23" class="node">
<title>Node22</title>
<g id="a_node23"><a xlink:href="../../da/d6b/ConfigurableParamHelper_8h.html" target="_top" xlink:title="CommonUtils/Configurable\lParamHelper.h">
<polygon fill="none" stroke="#000000" points="460.3072,-190.5 460.3072,-220.5 608.3072,-220.5 608.3072,-190.5 460.3072,-190.5"/>
<text text-anchor="start" x="468.3072" y="-208.5" font-family="Helvetica,sans-Serif" font-size="10.00" fill="#000000">CommonUtils/Configurable</text>
<text text-anchor="middle" x="534.3072" y="-197.5" font-family="Helvetica,sans-Serif" font-size="10.00" fill="#000000">ParamHelper.h</text>
</a>
</g>
</g>
<!-- Node14&#45;&gt;Node22 -->
<g id="edge23" class="edge">
<title>Node14&#45;&gt;Node22</title>
<path fill="none" stroke="#191970" d="M534.3072,-257.3906C534.3072,-250.2234 534.3072,-240.0862 534.3072,-230.671"/>
<polygon fill="#191970" stroke="#191970" points="537.8073,-230.5446 534.3072,-220.5446 530.8073,-230.5446 537.8073,-230.5446"/>
</g>
<!-- Node16 -->
<g id="node17" class="node">
<title>Node16</title>
<polygon fill="none" stroke="#bfbfbf" points="657.8072,-62 657.8072,-81 704.8072,-81 704.8072,-62 657.8072,-62"/>
<text text-anchor="middle" x="681.3072" y="-69" font-family="Helvetica,sans-Serif" font-size="10.00" fill="#000000">vector</text>
</g>
<!-- Node15&#45;&gt;Node16 -->
<g id="edge17" class="edge">
<title>Node15&#45;&gt;Node16</title>
<path fill="none" stroke="#191970" d="M728.4654,-123.2967C719.0536,-112.9591 706.5889,-99.2684 696.8383,-88.5588"/>
<polygon fill="#191970" stroke="#191970" points="699.3268,-86.0931 690.0065,-81.055 694.1507,-90.8057 699.3268,-86.0931"/>
</g>
<!-- Node17 -->
<g id="node18" class="node">
<title>Node17</title>
<polygon fill="none" stroke="#bfbfbf" points="723.3072,-62 723.3072,-81 761.3072,-81 761.3072,-62 723.3072,-62"/>
<text text-anchor="middle" x="742.3072" y="-69" font-family="Helvetica,sans-Serif" font-size="10.00" fill="#000000">map</text>
</g>
<!-- Node15&#45;&gt;Node17 -->
<g id="edge18" class="edge">
<title>Node15&#45;&gt;Node17</title>
<path fill="none" stroke="#191970" d="M742.3072,-123.2967C742.3072,-113.7699 742.3072,-101.3954 742.3072,-91.1306"/>
<polygon fill="#191970" stroke="#191970" points="745.8073,-91.0549 742.3072,-81.055 738.8073,-91.055 745.8073,-91.0549"/>
</g>
<!-- Node18 -->
<g id="node19" class="node">
<title>Node18</title>
<polygon fill="none" stroke="#bfbfbf" points="779.8072,-62 779.8072,-81 872.8072,-81 872.8072,-62 779.8072,-62"/>
<text text-anchor="middle" x="826.3072" y="-69" font-family="Helvetica,sans-Serif" font-size="10.00" fill="#000000">unordered_map</text>
</g>
<!-- Node15&#45;&gt;Node18 -->
<g id="edge19" class="edge">
<title>Node15&#45;&gt;Node18</title>
<path fill="none" stroke="#191970" d="M761.3681,-123.2967C774.8369,-112.5537 792.8457,-98.1895 806.482,-87.3129"/>
<polygon fill="#191970" stroke="#191970" points="808.6925,-90.0268 814.3278,-81.055 804.3276,-84.5544 808.6925,-90.0268"/>
</g>
<!-- Node19 -->
<g id="node20" class="node">
<title>Node19</title>
<polygon fill="none" stroke="#bfbfbf" points="890.8072,-56.5 890.8072,-86.5 1003.8072,-86.5 1003.8072,-56.5 890.8072,-56.5"/>
<text text-anchor="start" x="898.8072" y="-74.5" font-family="Helvetica,sans-Serif" font-size="10.00" fill="#000000">boost/property_tree</text>
<text text-anchor="middle" x="947.3072" y="-63.5" font-family="Helvetica,sans-Serif" font-size="10.00" fill="#000000">/ptree.hpp</text>
</g>
<!-- Node15&#45;&gt;Node19 -->
<g id="edge20" class="edge">
<title>Node15&#45;&gt;Node19</title>
<path fill="none" stroke="#191970" d="M788.3132,-123.4639C818.8029,-113.499 858.9913,-100.3642 891.3343,-89.7936"/>
<polygon fill="#191970" stroke="#191970" points="892.6827,-93.0352 901.1006,-86.6017 890.508,-86.3815 892.6827,-93.0352"/>
</g>
<!-- Node20 -->
<g id="node21" class="node">
<title>Node20</title>
<polygon fill="none" stroke="#bfbfbf" points="475.8072,-62 475.8072,-81 532.8072,-81 532.8072,-62 475.8072,-62"/>
<text text-anchor="middle" x="504.3072" y="-69" font-family="Helvetica,sans-Serif" font-size="10.00" fill="#000000">typeinfo</text>
</g>
<!-- Node15&#45;&gt;Node20 -->
<g id="edge21" class="edge">
<title>Node15&#45;&gt;Node20</title>
<path fill="none" stroke="#191970" d="M688.8954,-123.4639C644.5164,-110.9707 582.439,-93.4951 542.8008,-82.3364"/>
<polygon fill="#191970" stroke="#191970" points="543.5603,-78.9143 532.986,-79.5734 541.6634,-85.6524 543.5603,-78.9143"/>
</g>
<!-- Node21 -->
<g id="node22" class="node">
<title>Node21</title>
<polygon fill="none" stroke="#bfbfbf" points="579.3072,-62 579.3072,-81 639.3072,-81 639.3072,-62 579.3072,-62"/>
<text text-anchor="middle" x="609.3072" y="-69" font-family="Helvetica,sans-Serif" font-size="10.00" fill="#000000">iostream</text>
</g>
<!-- Node15&#45;&gt;Node21 -->
<g id="edge22" class="edge">
<title>Node15&#45;&gt;Node21</title>
<path fill="none" stroke="#191970" d="M712.4594,-123.4639C690.0432,-112.1715 659.5466,-96.8086 637.5334,-85.7192"/>
<polygon fill="#191970" stroke="#191970" points="638.8772,-82.4772 628.3717,-81.1039 635.7279,-88.7287 638.8772,-82.4772"/>
</g>
<!-- Node22&#45;&gt;Node15 -->
<g id="edge24" class="edge">
<title>Node22&#45;&gt;Node15</title>
<path fill="none" stroke="#191970" d="M580.9865,-190.4639C611.9224,-180.499 652.6989,-167.3642 685.5152,-156.7936"/>
<polygon fill="#191970" stroke="#191970" points="686.9791,-159.9992 695.4244,-153.6017 684.8328,-153.3363 686.9791,-159.9992"/>
</g>
<!-- Node22&#45;&gt;Node20 -->
<g id="edge27" class="edge">
<title>Node22&#45;&gt;Node20</title>
<path fill="none" stroke="#191970" d="M519.0332,-190.3254C510.5502,-180.7875 500.8215,-167.7214 496.3072,-154 489.5193,-133.3679 493.5167,-108.3858 497.941,-91.3556"/>
<polygon fill="#191970" stroke="#191970" points="501.393,-92.0165 500.8011,-81.4383 494.6671,-90.0768 501.393,-92.0165"/>
</g>
<!-- Node23 -->
<g id="node24" class="node">
<title>Node23</title>
<polygon fill="none" stroke="#bfbfbf" points="505.8072,-129 505.8072,-148 562.8072,-148 562.8072,-129 505.8072,-129"/>
<text text-anchor="middle" x="534.3072" y="-136" font-family="Helvetica,sans-Serif" font-size="10.00" fill="#000000">TClass.h</text>
</g>
<!-- Node22&#45;&gt;Node23 -->
<g id="edge25" class="edge">
<title>Node22&#45;&gt;Node23</title>
<path fill="none" stroke="#191970" d="M534.3072,-190.2967C534.3072,-180.7699 534.3072,-168.3954 534.3072,-158.1306"/>
<polygon fill="#191970" stroke="#191970" points="537.8073,-158.0549 534.3072,-148.055 530.8073,-158.055 537.8073,-158.0549"/>
</g>
<!-- Node24 -->
<g id="node25" class="node">
<title>Node24</title>
<polygon fill="none" stroke="#bfbfbf" points="580.8072,-129 580.8072,-148 649.8072,-148 649.8072,-129 580.8072,-129"/>
<text text-anchor="middle" x="615.3072" y="-136" font-family="Helvetica,sans-Serif" font-size="10.00" fill="#000000">type_traits</text>
</g>
<!-- Node22&#45;&gt;Node24 -->
<g id="edge26" class="edge">
<title>Node22&#45;&gt;Node24</title>
<path fill="none" stroke="#191970" d="M552.6874,-190.2967C565.5526,-179.6551 582.7135,-165.4602 595.8168,-154.6217"/>
<polygon fill="#191970" stroke="#191970" points="598.2809,-157.1257 603.7557,-148.055 593.8193,-151.7318 598.2809,-157.1257"/>
</g>
<!-- Node25 -->
<g id="node26" class="node">
<title>Node25</title>
<polygon fill="none" stroke="#bfbfbf" points="401.3072,-129 401.3072,-148 449.3072,-148 449.3072,-129 401.3072,-129"/>
<text text-anchor="middle" x="425.3072" y="-136" font-family="Helvetica,sans-Serif" font-size="10.00" fill="#000000">TFile.h</text>
</g>
<!-- Node22&#45;&gt;Node25 -->
<g id="edge28" class="edge">
<title>Node22&#45;&gt;Node25</title>
<path fill="none" stroke="#191970" d="M509.8455,-190.4639C491.8862,-179.4247 467.5983,-164.4954 449.6638,-153.4715"/>
<polygon fill="#191970" stroke="#191970" points="451.2836,-150.3588 440.9315,-148.1039 447.6179,-156.3223 451.2836,-150.3588"/>
</g>
</g>
</svg>
