<?xml version="1.0" encoding="UTF-8" standalone="no"?>
<!DOCTYPE svg PUBLIC "-//W3C//DTD SVG 1.1//EN"
 "http://www.w3.org/Graphics/SVG/1.1/DTD/svg11.dtd">
<!-- Generated by graphviz version 2.40.1 (20161225.0304)
 -->
<!-- Title: /home/travis/build/AliceO2Group/AliceO2/Detectors/Calibration/include/DetectorsCalibration/TimeSlot.h Pages: 1 -->
<!--zoomable 472 -->
<svg id="main" version="1.1" xmlns="http://www.w3.org/2000/svg" xmlns:xlink="http://www.w3.org/1999/xlink" xml:space="preserve" onload="init(evt)">
<style type="text/css"><![CDATA[
.edge:hover path { stroke: red; }
.edge:hover polygon { stroke: red; fill: red; }
]]></style>
<script type="text/javascript"><![CDATA[
var edges = document.getElementsByTagName('g');
if (edges && edges.length) {
  for (var i=0;i<edges.length;i++) {
    if (edges[i].id.substr(0,4)=='edge') {
      edges[i].setAttribute('class','edge');
    }
  }
}
]]></script>
        <defs>
                <circle id="rim" cx="0" cy="0" r="7"/>
                <circle id="rim2" cx="0" cy="0" r="3.5"/>
                <g id="zoomPlus">
                        <use xlink:href="#rim" fill="#404040">
                                <set attributeName="fill" to="#808080" begin="zoomplus.mouseover" end="zoomplus.mouseout"/>
                        </use>
                        <path d="M-4,0h8M0,-4v8" fill="none" stroke="white" stroke-width="1.5" pointer-events="none"/>
                </g>
                <g id="zoomMin">
                        <use xlink:href="#rim" fill="#404040">
                                <set attributeName="fill" to="#808080" begin="zoomminus.mouseover" end="zoomminus.mouseout"/>
                        </use>
                        <path d="M-4,0h8" fill="none" stroke="white" stroke-width="1.5" pointer-events="none"/>
                </g>
                <g id="dirArrow">
                        <path fill="none" stroke="white" stroke-width="1.5" d="M0,-3.0v7 M-2.5,-0.5L0,-3.0L2.5,-0.5"/>
                </g>
               <g id="resetDef">
                       <use xlink:href="#rim2" fill="#404040">
                               <set attributeName="fill" to="#808080" begin="reset.mouseover" end="reset.mouseout"/>
                       </use>
               </g>
        </defs>

<script type="text/javascript">
var viewWidth = 1825;
var viewHeight = 472;
var sectionId = 'dynsection-1';
</script>
<script xlink:href="../../svgpan.js"/>
<svg id="graph" class="graph">
<g id="viewport">
<title>/home/travis/build/AliceO2Group/AliceO2/Detectors/Calibration/include/DetectorsCalibration/TimeSlot.h</title>
<!-- Node5 -->
<g id="node1" class="node">
<title>Node5</title>
<polygon fill="#bfbfbf" stroke="#000000" points="725.5,-400.5 725.5,-463.5 883.5,-463.5 883.5,-400.5 725.5,-400.5"/>
<text text-anchor="start" x="733.5" y="-451.5" font-family="Helvetica,sans-Serif" font-size="10.00" fill="#000000">/home/travis/build</text>
<text text-anchor="start" x="733.5" y="-440.5" font-family="Helvetica,sans-Serif" font-size="10.00" fill="#000000">/AliceO2Group/AliceO2</text>
<text text-anchor="start" x="733.5" y="-429.5" font-family="Helvetica,sans-Serif" font-size="10.00" fill="#000000">/Detectors/Calibration</text>
<text text-anchor="start" x="733.5" y="-418.5" font-family="Helvetica,sans-Serif" font-size="10.00" fill="#000000">/include/DetectorsCalibration</text>
<text text-anchor="middle" x="804.5" y="-407.5" font-family="Helvetica,sans-Serif" font-size="10.00" fill="#000000">/TimeSlot.h</text>
</g>
<!-- Node6 -->
<g id="node2" class="node">
<title>Node6</title>
<g id="a_node2"><a xlink:href="../../de/d56/MeanVertexCalibrator_8h.html" target="_top" xlink:title="/home/travis/build\l/AliceO2Group/AliceO2\l/Detectors/Calibration\l/include/DetectorsCalibration\l/MeanVertexCalibrator.h">
<polygon fill="none" stroke="#000000" points="373.5,-200.5 373.5,-263.5 531.5,-263.5 531.5,-200.5 373.5,-200.5"/>
<text text-anchor="start" x="381.5" y="-251.5" font-family="Helvetica,sans-Serif" font-size="10.00" fill="#000000">/home/travis/build</text>
<text text-anchor="start" x="381.5" y="-240.5" font-family="Helvetica,sans-Serif" font-size="10.00" fill="#000000">/AliceO2Group/AliceO2</text>
<text text-anchor="start" x="381.5" y="-229.5" font-family="Helvetica,sans-Serif" font-size="10.00" fill="#000000">/Detectors/Calibration</text>
<text text-anchor="start" x="381.5" y="-218.5" font-family="Helvetica,sans-Serif" font-size="10.00" fill="#000000">/include/DetectorsCalibration</text>
<text text-anchor="middle" x="452.5" y="-207.5" font-family="Helvetica,sans-Serif" font-size="10.00" fill="#000000">/MeanVertexCalibrator.h</text>
</a>
</g>
</g>
<!-- Node5&#45;&gt;Node6 -->
<g id="edge1" class="edge">
<title>Node5&#45;&gt;Node6</title>
<path fill="none" stroke="#191970" d="M730.9451,-395.9191C711.1621,-385.8775 689.8814,-374.7657 670.5,-364 611.9024,-331.4512 546.3119,-291.1974 502.5274,-263.7576"/>
<polygon fill="#191970" stroke="#191970" points="729.4132,-399.0665 739.917,-400.4525 732.5701,-392.8188 729.4132,-399.0665"/>
</g>
<!-- Node11 -->
<g id="node7" class="node">
<title>Node11</title>
<g id="a_node7"><a xlink:href="../../d5/db6/MeanVertexData_8h.html" target="_top" xlink:title="/home/travis/build\l/AliceO2Group/AliceO2\l/Detectors/Calibration\l/include/DetectorsCalibration\l/MeanVertexData.h">
<polygon fill="none" stroke="#000000" points="373.5,-300.5 373.5,-363.5 531.5,-363.5 531.5,-300.5 373.5,-300.5"/>
<text text-anchor="start" x="381.5" y="-351.5" font-family="Helvetica,sans-Serif" font-size="10.00" fill="#000000">/home/travis/build</text>
<text text-anchor="start" x="381.5" y="-340.5" font-family="Helvetica,sans-Serif" font-size="10.00" fill="#000000">/AliceO2Group/AliceO2</text>
<text text-anchor="start" x="381.5" y="-329.5" font-family="Helvetica,sans-Serif" font-size="10.00" fill="#000000">/Detectors/Calibration</text>
<text text-anchor="start" x="381.5" y="-318.5" font-family="Helvetica,sans-Serif" font-size="10.00" fill="#000000">/include/DetectorsCalibration</text>
<text text-anchor="middle" x="452.5" y="-307.5" font-family="Helvetica,sans-Serif" font-size="10.00" fill="#000000">/MeanVertexData.h</text>
</a>
</g>
</g>
<!-- Node5&#45;&gt;Node11 -->
<g id="edge6" class="edge">
<title>Node5&#45;&gt;Node11</title>
<path fill="none" stroke="#191970" d="M715.4104,-406.6905C658.8149,-390.6122 586.2114,-369.9862 531.6456,-354.4845"/>
<polygon fill="#191970" stroke="#191970" points="714.4896,-410.0673 725.0654,-409.4334 716.4026,-403.3337 714.4896,-410.0673"/>
</g>
<!-- Node13 -->
<g id="node9" class="node">
<title>Node13</title>
<g id="a_node9"><a xlink:href="../../dc/df2/TimeSlotCalibration_8h.html" target="_top" xlink:title="/home/travis/build\l/AliceO2Group/AliceO2\l/Detectors/Calibration\l/include/DetectorsCalibration\l/TimeSlotCalibration.h">
<polygon fill="none" stroke="#000000" points="725.5,-300.5 725.5,-363.5 883.5,-363.5 883.5,-300.5 725.5,-300.5"/>
<text text-anchor="start" x="733.5" y="-351.5" font-family="Helvetica,sans-Serif" font-size="10.00" fill="#000000">/home/travis/build</text>
<text text-anchor="start" x="733.5" y="-340.5" font-family="Helvetica,sans-Serif" font-size="10.00" fill="#000000">/AliceO2Group/AliceO2</text>
<text text-anchor="start" x="733.5" y="-329.5" font-family="Helvetica,sans-Serif" font-size="10.00" fill="#000000">/Detectors/Calibration</text>
<text text-anchor="start" x="733.5" y="-318.5" font-family="Helvetica,sans-Serif" font-size="10.00" fill="#000000">/include/DetectorsCalibration</text>
<text text-anchor="middle" x="804.5" y="-307.5" font-family="Helvetica,sans-Serif" font-size="10.00" fill="#000000">/TimeSlotCalibration.h</text>
</a>
</g>
</g>
<!-- Node5&#45;&gt;Node13 -->
<g id="edge9" class="edge">
<title>Node5&#45;&gt;Node13</title>
<path fill="none" stroke="#191970" d="M804.5,-390.2111C804.5,-381.37 804.5,-372.1767 804.5,-363.778"/>
<polygon fill="#191970" stroke="#191970" points="801.0001,-390.3593 804.5,-400.3594 808.0001,-390.3594 801.0001,-390.3593"/>
</g>
<!-- Node15 -->
<g id="node11" class="node">
<title>Node15</title>
<g id="a_node11"><a xlink:href="../../da/d2b/LHCClockCalibrator_8h.html" target="_top" xlink:title="/home/travis/build\l/AliceO2Group/AliceO2\l/Detectors/TOF/calibration\l/include/TOFCalibration/LHCClock\lCalibrator.h">
<polygon fill="none" stroke="#000000" points="550,-200.5 550,-263.5 729,-263.5 729,-200.5 550,-200.5"/>
<text text-anchor="start" x="558" y="-251.5" font-family="Helvetica,sans-Serif" font-size="10.00" fill="#000000">/home/travis/build</text>
<text text-anchor="start" x="558" y="-240.5" font-family="Helvetica,sans-Serif" font-size="10.00" fill="#000000">/AliceO2Group/AliceO2</text>
<text text-anchor="start" x="558" y="-229.5" font-family="Helvetica,sans-Serif" font-size="10.00" fill="#000000">/Detectors/TOF/calibration</text>
<text text-anchor="start" x="558" y="-218.5" font-family="Helvetica,sans-Serif" font-size="10.00" fill="#000000">/include/TOFCalibration/LHCClock</text>
<text text-anchor="middle" x="639.5" y="-207.5" font-family="Helvetica,sans-Serif" font-size="10.00" fill="#000000">Calibrator.h</text>
</a>
</g>
</g>
<!-- Node5&#45;&gt;Node15 -->
<g id="edge29" class="edge">
<title>Node5&#45;&gt;Node15</title>
<path fill="none" stroke="#191970" d="M748.9461,-394.3172C737.4859,-385.1553 726.0218,-374.8457 716.5,-364 689.5442,-333.2965 667.1551,-291.7653 653.593,-263.5444"/>
<polygon fill="#191970" stroke="#191970" points="746.8133,-397.0924 756.8556,-400.4692 751.111,-391.5669 746.8133,-397.0924"/>
</g>
<!-- Node20 -->
<g id="node16" class="node">
<title>Node20</title>
<g id="a_node16"><a xlink:href="../../dd/d2a/TOFCalibCollector_8h.html" target="_top" xlink:title="/home/travis/build\l/AliceO2Group/AliceO2\l/Detectors/TOF/calibration\l/include/TOFCalibration/TOFCalib\lCollector.h">
<polygon fill="none" stroke="#000000" points="1211.5,-200.5 1211.5,-263.5 1387.5,-263.5 1387.5,-200.5 1211.5,-200.5"/>
<text text-anchor="start" x="1219.5" y="-251.5" font-family="Helvetica,sans-Serif" font-size="10.00" fill="#000000">/home/travis/build</text>
<text text-anchor="start" x="1219.5" y="-240.5" font-family="Helvetica,sans-Serif" font-size="10.00" fill="#000000">/AliceO2Group/AliceO2</text>
<text text-anchor="start" x="1219.5" y="-229.5" font-family="Helvetica,sans-Serif" font-size="10.00" fill="#000000">/Detectors/TOF/calibration</text>
<text text-anchor="start" x="1219.5" y="-218.5" font-family="Helvetica,sans-Serif" font-size="10.00" fill="#000000">/include/TOFCalibration/TOFCalib</text>
<text text-anchor="middle" x="1299.5" y="-207.5" font-family="Helvetica,sans-Serif" font-size="10.00" fill="#000000">Collector.h</text>
</a>
</g>
</g>
<!-- Node5&#45;&gt;Node20 -->
<g id="edge30" class="edge">
<title>Node5&#45;&gt;Node20</title>
<path fill="none" stroke="#191970" d="M885.8282,-395.2458C900.9799,-386.2986 915.9668,-375.8384 928.5,-364 952.8847,-340.9669 940.9568,-319.1444 968.5,-300 978.5709,-293 1116.7627,-266.1222 1211.3688,-248.3276"/>
<polygon fill="#191970" stroke="#191970" points="883.8558,-392.3415 876.9054,-400.338 887.3254,-398.4212 883.8558,-392.3415"/>
</g>
<!-- Node25 -->
<g id="node21" class="node">
<title>Node25</title>
<g id="a_node21"><a xlink:href="../../db/dc2/TOFChannelCalibrator_8h.html" target="_top" xlink:title="/home/travis/build\l/AliceO2Group/AliceO2\l/Detectors/TOF/calibration\l/include/TOFCalibration/TOFChannel\lCalibrator.h">
<polygon fill="none" stroke="#000000" points="920,-200.5 920,-263.5 1111,-263.5 1111,-200.5 920,-200.5"/>
<text text-anchor="start" x="928" y="-251.5" font-family="Helvetica,sans-Serif" font-size="10.00" fill="#000000">/home/travis/build</text>
<text text-anchor="start" x="928" y="-240.5" font-family="Helvetica,sans-Serif" font-size="10.00" fill="#000000">/AliceO2Group/AliceO2</text>
<text text-anchor="start" x="928" y="-229.5" font-family="Helvetica,sans-Serif" font-size="10.00" fill="#000000">/Detectors/TOF/calibration</text>
<text text-anchor="start" x="928" y="-218.5" font-family="Helvetica,sans-Serif" font-size="10.00" fill="#000000">/include/TOFCalibration/TOFChannel</text>
<text text-anchor="middle" x="1015.5" y="-207.5" font-family="Helvetica,sans-Serif" font-size="10.00" fill="#000000">Calibrator.h</text>
</a>
</g>
</g>
<!-- Node5&#45;&gt;Node25 -->
<g id="edge31" class="edge">
<title>Node5&#45;&gt;Node25</title>
<path fill="none" stroke="#191970" d="M859.1685,-394.1517C870.7807,-384.9407 882.5314,-374.6524 892.5,-364 915.9151,-338.9789 912.6743,-325.5599 935.5,-300 947.0346,-287.0838 961.0252,-274.3895 974.0606,-263.5311"/>
<polygon fill="#191970" stroke="#191970" points="856.9344,-391.4551 851.175,-400.3478 861.2229,-396.9876 856.9344,-391.4551"/>
</g>
<!-- Node29 -->
<g id="node25" class="node">
<title>Node29</title>
<g id="a_node25"><a xlink:href="../../df/d8d/TimeSlot_8cxx.html" target="_top" xlink:title="/home/travis/build\l/AliceO2Group/AliceO2\l/Detectors/Calibration\l/src/TimeSlot.cxx">
<polygon fill="none" stroke="#000000" points="978,-306 978,-358 1105,-358 1105,-306 978,-306"/>
<text text-anchor="start" x="986" y="-346" font-family="Helvetica,sans-Serif" font-size="10.00" fill="#000000">/home/travis/build</text>
<text text-anchor="start" x="986" y="-335" font-family="Helvetica,sans-Serif" font-size="10.00" fill="#000000">/AliceO2Group/AliceO2</text>
<text text-anchor="start" x="986" y="-324" font-family="Helvetica,sans-Serif" font-size="10.00" fill="#000000">/Detectors/Calibration</text>
<text text-anchor="middle" x="1041.5" y="-313" font-family="Helvetica,sans-Serif" font-size="10.00" fill="#000000">/src/TimeSlot.cxx</text>
</a>
</g>
</g>
<!-- Node5&#45;&gt;Node29 -->
<g id="edge28" class="edge">
<title>Node5&#45;&gt;Node29</title>
<path fill="none" stroke="#191970" d="M888.7574,-396.4483C918.6868,-383.8199 951.8043,-369.8463 979.5297,-358.1478"/>
<polygon fill="#191970" stroke="#191970" points="887.0158,-393.3844 879.163,-400.4966 889.7371,-399.8338 887.0158,-393.3844"/>
</g>
<!-- Node7 -->
<g id="node3" class="node">
<title>Node7</title>
<g id="a_node3"><a xlink:href="../../d5/d39/MeanVertexCalibrator_8cxx.html" target="_top" xlink:title="/home/travis/build\l/AliceO2Group/AliceO2\l/Detectors/Calibration\l/src/MeanVertexCalibrator.cxx">
<polygon fill="none" stroke="#000000" points="287.5,-106 287.5,-158 449.5,-158 449.5,-106 287.5,-106"/>
<text text-anchor="start" x="295.5" y="-146" font-family="Helvetica,sans-Serif" font-size="10.00" fill="#000000">/home/travis/build</text>
<text text-anchor="start" x="295.5" y="-135" font-family="Helvetica,sans-Serif" font-size="10.00" fill="#000000">/AliceO2Group/AliceO2</text>
<text text-anchor="start" x="295.5" y="-124" font-family="Helvetica,sans-Serif" font-size="10.00" fill="#000000">/Detectors/Calibration</text>
<text text-anchor="middle" x="368.5" y="-113" font-family="Helvetica,sans-Serif" font-size="10.00" fill="#000000">/src/MeanVertexCalibrator.cxx</text>
</a>
</g>
</g>
<!-- Node6&#45;&gt;Node7 -->
<g id="edge2" class="edge">
<title>Node6&#45;&gt;Node7</title>
<path fill="none" stroke="#191970" d="M419.3274,-192.5088C409.6104,-180.9409 399.2332,-168.5871 390.4055,-158.078"/>
<polygon fill="#191970" stroke="#191970" points="416.8099,-194.9535 425.9219,-200.3594 422.1699,-190.4511 416.8099,-194.9535"/>
</g>
<!-- Node8 -->
<g id="node4" class="node">
<title>Node8</title>
<g id="a_node4"><a xlink:href="../../d2/d6a/MeanVertexCalibratorSpec_8h.html" target="_top" xlink:title="Device to calibrate MeanVertex. ">
<polygon fill="none" stroke="#000000" points="63.5,-100.5 63.5,-163.5 269.5,-163.5 269.5,-100.5 63.5,-100.5"/>
<text text-anchor="start" x="71.5" y="-151.5" font-family="Helvetica,sans-Serif" font-size="10.00" fill="#000000">/home/travis/build</text>
<text text-anchor="start" x="71.5" y="-140.5" font-family="Helvetica,sans-Serif" font-size="10.00" fill="#000000">/AliceO2Group/AliceO2</text>
<text text-anchor="start" x="71.5" y="-129.5" font-family="Helvetica,sans-Serif" font-size="10.00" fill="#000000">/Detectors/Calibration</text>
<text text-anchor="start" x="71.5" y="-118.5" font-family="Helvetica,sans-Serif" font-size="10.00" fill="#000000">/workflow/include/DetectorsCalibration</text>
<text text-anchor="middle" x="166.5" y="-107.5" font-family="Helvetica,sans-Serif" font-size="10.00" fill="#000000">Workflow/MeanVertexCalibratorSpec.h</text>
</a>
</g>
</g>
<!-- Node6&#45;&gt;Node8 -->
<g id="edge3" class="edge">
<title>Node6&#45;&gt;Node8</title>
<path fill="none" stroke="#191970" d="M363.8931,-199.8015C324.8611,-186.0326 290.4435,-174.1493 259.7905,-163.6542"/>
<polygon fill="#191970" stroke="#191970" points="362.7752,-203.1185 373.37,-203.1496 365.1071,-196.5183 362.7752,-203.1185"/>
</g>
<!-- Node9 -->
<g id="node5" class="node">
<title>Node9</title>
<g id="a_node5"><a xlink:href="../../df/d9c/mean-vertex-calibration-workflow_8cxx.html" target="_top" xlink:title="/home/travis/build\l/AliceO2Group/AliceO2\l/Detectors/Calibration\l/workflow/src/mean&#45;vertex\l&#45;calibration&#45;workflow.cxx">
<polygon fill="none" stroke="#000000" points="0,-.5 0,-63.5 147,-63.5 147,-.5 0,-.5"/>
<text text-anchor="start" x="8" y="-51.5" font-family="Helvetica,sans-Serif" font-size="10.00" fill="#000000">/home/travis/build</text>
<text text-anchor="start" x="8" y="-40.5" font-family="Helvetica,sans-Serif" font-size="10.00" fill="#000000">/AliceO2Group/AliceO2</text>
<text text-anchor="start" x="8" y="-29.5" font-family="Helvetica,sans-Serif" font-size="10.00" fill="#000000">/Detectors/Calibration</text>
<text text-anchor="start" x="8" y="-18.5" font-family="Helvetica,sans-Serif" font-size="10.00" fill="#000000">/workflow/src/mean&#45;vertex</text>
<text text-anchor="middle" x="73.5" y="-7.5" font-family="Helvetica,sans-Serif" font-size="10.00" fill="#000000">&#45;calibration&#45;workflow.cxx</text>
</a>
</g>
</g>
<!-- Node8&#45;&gt;Node9 -->
<g id="edge4" class="edge">
<title>Node8&#45;&gt;Node9</title>
<path fill="none" stroke="#191970" d="M130.039,-92.7946C121.0939,-83.1763 111.6284,-72.9983 103.0536,-63.778"/>
<polygon fill="#191970" stroke="#191970" points="127.7011,-95.4202 137.0742,-100.3594 132.827,-90.6531 127.7011,-95.4202"/>
</g>
<!-- Node10 -->
<g id="node6" class="node">
<title>Node10</title>
<g id="a_node6"><a xlink:href="../../db/d3b/MeanVertexCalibratorSpec_8cxx.html" target="_top" xlink:title="/home/travis/build\l/AliceO2Group/AliceO2\l/Detectors/Calibration\l/workflow/src/MeanVertexCalibrator\lSpec.cxx">
<polygon fill="none" stroke="#000000" points="165.5,-.5 165.5,-63.5 355.5,-63.5 355.5,-.5 165.5,-.5"/>
<text text-anchor="start" x="173.5" y="-51.5" font-family="Helvetica,sans-Serif" font-size="10.00" fill="#000000">/home/travis/build</text>
<text text-anchor="start" x="173.5" y="-40.5" font-family="Helvetica,sans-Serif" font-size="10.00" fill="#000000">/AliceO2Group/AliceO2</text>
<text text-anchor="start" x="173.5" y="-29.5" font-family="Helvetica,sans-Serif" font-size="10.00" fill="#000000">/Detectors/Calibration</text>
<text text-anchor="start" x="173.5" y="-18.5" font-family="Helvetica,sans-Serif" font-size="10.00" fill="#000000">/workflow/src/MeanVertexCalibrator</text>
<text text-anchor="middle" x="260.5" y="-7.5" font-family="Helvetica,sans-Serif" font-size="10.00" fill="#000000">Spec.cxx</text>
</a>
</g>
</g>
<!-- Node8&#45;&gt;Node10 -->
<g id="edge5" class="edge">
<title>Node8&#45;&gt;Node10</title>
<path fill="none" stroke="#191970" d="M203.3531,-92.7946C212.3943,-83.1763 221.9616,-72.9983 230.6287,-63.778"/>
<polygon fill="#191970" stroke="#191970" points="200.5411,-90.6759 196.2422,-100.3594 205.6415,-95.4703 200.5411,-90.6759"/>
</g>
<!-- Node11&#45;&gt;Node6 -->
<g id="edge7" class="edge">
<title>Node11&#45;&gt;Node6</title>
<path fill="none" stroke="#191970" d="M452.5,-290.2111C452.5,-281.37 452.5,-272.1767 452.5,-263.778"/>
<polygon fill="#191970" stroke="#191970" points="449.0001,-290.3593 452.5,-300.3594 456.0001,-290.3594 449.0001,-290.3593"/>
</g>
<!-- Node12 -->
<g id="node8" class="node">
<title>Node12</title>
<g id="a_node8"><a xlink:href="../../db/d38/MeanVertexData_8cxx.html" target="_top" xlink:title="/home/travis/build\l/AliceO2Group/AliceO2\l/Detectors/Calibration\l/src/MeanVertexData.cxx">
<polygon fill="none" stroke="#000000" points="217.5,-206 217.5,-258 355.5,-258 355.5,-206 217.5,-206"/>
<text text-anchor="start" x="225.5" y="-246" font-family="Helvetica,sans-Serif" font-size="10.00" fill="#000000">/home/travis/build</text>
<text text-anchor="start" x="225.5" y="-235" font-family="Helvetica,sans-Serif" font-size="10.00" fill="#000000">/AliceO2Group/AliceO2</text>
<text text-anchor="start" x="225.5" y="-224" font-family="Helvetica,sans-Serif" font-size="10.00" fill="#000000">/Detectors/Calibration</text>
<text text-anchor="middle" x="286.5" y="-213" font-family="Helvetica,sans-Serif" font-size="10.00" fill="#000000">/src/MeanVertexData.cxx</text>
</a>
</g>
</g>
<!-- Node11&#45;&gt;Node12 -->
<g id="edge8" class="edge">
<title>Node11&#45;&gt;Node12</title>
<path fill="none" stroke="#191970" d="M391.3508,-295.1631C370.915,-282.8524 348.5765,-269.3955 329.7894,-258.078"/>
<polygon fill="#191970" stroke="#191970" points="389.6047,-298.1972 399.9766,-300.3594 393.2168,-292.2012 389.6047,-298.1972"/>
</g>
<!-- Node13&#45;&gt;Node6 -->
<g id="edge10" class="edge">
<title>Node13&#45;&gt;Node6</title>
<path fill="none" stroke="#191970" d="M715.6178,-311.3773C664.1263,-298.8659 598.262,-281.8953 540.5,-264 537.5496,-263.0859 534.5524,-262.1313 531.5316,-261.1471"/>
<polygon fill="#191970" stroke="#191970" points="714.8459,-314.7915 725.3884,-313.7398 716.4911,-307.9875 714.8459,-314.7915"/>
</g>
<!-- Node14 -->
<g id="node10" class="node">
<title>Node14</title>
<g id="a_node10"><a xlink:href="../../d8/df3/TimeSlotCalibration_8cxx.html" target="_top" xlink:title="/home/travis/build\l/AliceO2Group/AliceO2\l/Detectors/Calibration\l/src/TimeSlotCalibration.cxx">
<polygon fill="none" stroke="#000000" points="747.5,-206 747.5,-258 901.5,-258 901.5,-206 747.5,-206"/>
<text text-anchor="start" x="755.5" y="-246" font-family="Helvetica,sans-Serif" font-size="10.00" fill="#000000">/home/travis/build</text>
<text text-anchor="start" x="755.5" y="-235" font-family="Helvetica,sans-Serif" font-size="10.00" fill="#000000">/AliceO2Group/AliceO2</text>
<text text-anchor="start" x="755.5" y="-224" font-family="Helvetica,sans-Serif" font-size="10.00" fill="#000000">/Detectors/Calibration</text>
<text text-anchor="middle" x="824.5" y="-213" font-family="Helvetica,sans-Serif" font-size="10.00" fill="#000000">/src/TimeSlotCalibration.cxx</text>
</a>
</g>
</g>
<!-- Node13&#45;&gt;Node14 -->
<g id="edge11" class="edge">
<title>Node13&#45;&gt;Node14</title>
<path fill="none" stroke="#191970" d="M812.8001,-290.4993C814.9957,-279.5216 817.3038,-267.9808 819.2844,-258.078"/>
<polygon fill="#191970" stroke="#191970" points="809.3573,-289.8671 810.8281,-300.3594 816.2214,-291.24 809.3573,-289.8671"/>
</g>
<!-- Node13&#45;&gt;Node15 -->
<g id="edge12" class="edge">
<title>Node13&#45;&gt;Node15</title>
<path fill="none" stroke="#191970" d="M743.5202,-295.0425C726.4823,-284.7166 708.1279,-273.5927 691.6504,-263.6063"/>
<polygon fill="#191970" stroke="#191970" points="741.9269,-298.1695 752.293,-300.3594 745.555,-292.1831 741.9269,-298.1695"/>
</g>
<!-- Node13&#45;&gt;Node20 -->
<g id="edge17" class="edge">
<title>Node13&#45;&gt;Node20</title>
<path fill="none" stroke="#191970" d="M893.7414,-309.5066C907.6896,-306.1917 921.9636,-302.9154 935.5,-300 986.8771,-288.9347 1121.1042,-264.2663 1211.3966,-247.8841"/>
<polygon fill="#191970" stroke="#191970" points="892.567,-306.1888 883.6577,-311.9225 894.198,-312.9962 892.567,-306.1888"/>
</g>
<!-- Node13&#45;&gt;Node25 -->
<g id="edge23" class="edge">
<title>Node13&#45;&gt;Node25</title>
<path fill="none" stroke="#191970" d="M880.1485,-296.1476C902.6503,-285.4833 927.1265,-273.8832 948.9996,-263.5168"/>
<polygon fill="#191970" stroke="#191970" points="878.5097,-293.0511 870.9721,-300.4966 881.5076,-299.3767 878.5097,-293.0511"/>
</g>
<!-- Node16 -->
<g id="node12" class="node">
<title>Node16</title>
<g id="a_node12"><a xlink:href="../../d1/dff/LHCClockCalibrator_8cxx.html" target="_top" xlink:title="/home/travis/build\l/AliceO2Group/AliceO2\l/Detectors/TOF/calibration\l/src/LHCClockCalibrator.cxx">
<polygon fill="none" stroke="#000000" points="667,-106 667,-158 818,-158 818,-106 667,-106"/>
<text text-anchor="start" x="675" y="-146" font-family="Helvetica,sans-Serif" font-size="10.00" fill="#000000">/home/travis/build</text>
<text text-anchor="start" x="675" y="-135" font-family="Helvetica,sans-Serif" font-size="10.00" fill="#000000">/AliceO2Group/AliceO2</text>
<text text-anchor="start" x="675" y="-124" font-family="Helvetica,sans-Serif" font-size="10.00" fill="#000000">/Detectors/TOF/calibration</text>
<text text-anchor="middle" x="742.5" y="-113" font-family="Helvetica,sans-Serif" font-size="10.00" fill="#000000">/src/LHCClockCalibrator.cxx</text>
</a>
</g>
</g>
<!-- Node15&#45;&gt;Node16 -->
<g id="edge13" class="edge">
<title>Node15&#45;&gt;Node16</title>
<path fill="none" stroke="#191970" d="M679.4895,-193.1752C691.6008,-181.4167 704.6071,-168.7892 715.6397,-158.078"/>
<polygon fill="#191970" stroke="#191970" points="676.8266,-190.8824 672.0898,-200.3594 681.7027,-195.9047 676.8266,-190.8824"/>
</g>
<!-- Node17 -->
<g id="node13" class="node">
<title>Node17</title>
<g id="a_node13"><a xlink:href="../../d0/d37/LHCClockCalibratorSpec_8h.html" target="_top" xlink:title="Device to calibrate LHC clock phase using TOF data. ">
<polygon fill="none" stroke="#000000" points="468,-100.5 468,-163.5 649,-163.5 649,-100.5 468,-100.5"/>
<text text-anchor="start" x="476" y="-151.5" font-family="Helvetica,sans-Serif" font-size="10.00" fill="#000000">/home/travis/build</text>
<text text-anchor="start" x="476" y="-140.5" font-family="Helvetica,sans-Serif" font-size="10.00" fill="#000000">/AliceO2Group/AliceO2</text>
<text text-anchor="start" x="476" y="-129.5" font-family="Helvetica,sans-Serif" font-size="10.00" fill="#000000">/Detectors/TOF/calibration</text>
<text text-anchor="start" x="476" y="-118.5" font-family="Helvetica,sans-Serif" font-size="10.00" fill="#000000">/testWorkflow/LHCClockCalibrator</text>
<text text-anchor="middle" x="558.5" y="-107.5" font-family="Helvetica,sans-Serif" font-size="10.00" fill="#000000">Spec.h</text>
</a>
</g>
</g>
<!-- Node15&#45;&gt;Node17 -->
<g id="edge14" class="edge">
<title>Node15&#45;&gt;Node17</title>
<path fill="none" stroke="#191970" d="M607.5121,-192.5088C599.7896,-182.9748 591.6347,-172.907 584.2402,-163.778"/>
<polygon fill="#191970" stroke="#191970" points="604.8571,-194.7917 613.8711,-200.3594 610.2966,-190.3857 604.8571,-194.7917"/>
</g>
<!-- Node18 -->
<g id="node14" class="node">
<title>Node18</title>
<g id="a_node14"><a xlink:href="../../d1/d1b/lhc-clockphase-workflow_8cxx.html" target="_top" xlink:title="/home/travis/build\l/AliceO2Group/AliceO2\l/Detectors/TOF/calibration\l/testWorkflow/lhc&#45;clockphase\l&#45;workflow.cxx">
<polygon fill="none" stroke="#000000" points="479,-.5 479,-63.5 638,-63.5 638,-.5 479,-.5"/>
<text text-anchor="start" x="487" y="-51.5" font-family="Helvetica,sans-Serif" font-size="10.00" fill="#000000">/home/travis/build</text>
<text text-anchor="start" x="487" y="-40.5" font-family="Helvetica,sans-Serif" font-size="10.00" fill="#000000">/AliceO2Group/AliceO2</text>
<text text-anchor="start" x="487" y="-29.5" font-family="Helvetica,sans-Serif" font-size="10.00" fill="#000000">/Detectors/TOF/calibration</text>
<text text-anchor="start" x="487" y="-18.5" font-family="Helvetica,sans-Serif" font-size="10.00" fill="#000000">/testWorkflow/lhc&#45;clockphase</text>
<text text-anchor="middle" x="558.5" y="-7.5" font-family="Helvetica,sans-Serif" font-size="10.00" fill="#000000">&#45;workflow.cxx</text>
</a>
</g>
</g>
<!-- Node17&#45;&gt;Node18 -->
<g id="edge15" class="edge">
<title>Node17&#45;&gt;Node18</title>
<path fill="none" stroke="#191970" d="M558.5,-90.2111C558.5,-81.37 558.5,-72.1767 558.5,-63.778"/>
<polygon fill="#191970" stroke="#191970" points="555.0001,-90.3593 558.5,-100.3594 562.0001,-90.3594 555.0001,-90.3593"/>
</g>
<!-- Node19 -->
<g id="node15" class="node">
<title>Node19</title>
<g id="a_node15"><a xlink:href="../../dc/da8/tof-calib-workflow_8cxx.html" target="_top" xlink:title="/home/travis/build\l/AliceO2Group/AliceO2\l/Detectors/TOF/calibration\l/testWorkflow/tof&#45;calib&#45;workflow.cxx">
<polygon fill="none" stroke="#000000" points="742.5,-6 742.5,-58 936.5,-58 936.5,-6 742.5,-6"/>
<text text-anchor="start" x="750.5" y="-46" font-family="Helvetica,sans-Serif" font-size="10.00" fill="#000000">/home/travis/build</text>
<text text-anchor="start" x="750.5" y="-35" font-family="Helvetica,sans-Serif" font-size="10.00" fill="#000000">/AliceO2Group/AliceO2</text>
<text text-anchor="start" x="750.5" y="-24" font-family="Helvetica,sans-Serif" font-size="10.00" fill="#000000">/Detectors/TOF/calibration</text>
<text text-anchor="middle" x="839.5" y="-13" font-family="Helvetica,sans-Serif" font-size="10.00" fill="#000000">/testWorkflow/tof&#45;calib&#45;workflow.cxx</text>
</a>
</g>
</g>
<!-- Node17&#45;&gt;Node19 -->
<g id="edge16" class="edge">
<title>Node17&#45;&gt;Node19</title>
<path fill="none" stroke="#191970" d="M656.5602,-97.1031C692.5243,-84.3045 732.5827,-70.0489 766.0247,-58.1478"/>
<polygon fill="#191970" stroke="#191970" points="655.2722,-93.8464 647.0245,-100.4966 657.6192,-100.4412 655.2722,-93.8464"/>
</g>
<!-- Node21 -->
<g id="node17" class="node">
<title>Node21</title>
<g id="a_node17"><a xlink:href="../../d2/d3f/TOFCalibCollector_8cxx.html" target="_top" xlink:title="/home/travis/build\l/AliceO2Group/AliceO2\l/Detectors/TOF/calibration\l/src/TOFCalibCollector.cxx">
<polygon fill="none" stroke="#000000" points="1228,-106 1228,-158 1371,-158 1371,-106 1228,-106"/>
<text text-anchor="start" x="1236" y="-146" font-family="Helvetica,sans-Serif" font-size="10.00" fill="#000000">/home/travis/build</text>
<text text-anchor="start" x="1236" y="-135" font-family="Helvetica,sans-Serif" font-size="10.00" fill="#000000">/AliceO2Group/AliceO2</text>
<text text-anchor="start" x="1236" y="-124" font-family="Helvetica,sans-Serif" font-size="10.00" fill="#000000">/Detectors/TOF/calibration</text>
<text text-anchor="middle" x="1299.5" y="-113" font-family="Helvetica,sans-Serif" font-size="10.00" fill="#000000">/src/TOFCalibCollector.cxx</text>
</a>
</g>
</g>
<!-- Node20&#45;&gt;Node21 -->
<g id="edge18" class="edge">
<title>Node20&#45;&gt;Node21</title>
<path fill="none" stroke="#191970" d="M1299.5,-190.1631C1299.5,-179.2863 1299.5,-167.8798 1299.5,-158.078"/>
<polygon fill="#191970" stroke="#191970" points="1296.0001,-190.3593 1299.5,-200.3594 1303.0001,-190.3594 1296.0001,-190.3593"/>
</g>
<!-- Node22 -->
<g id="node18" class="node">
<title>Node22</title>
<g id="a_node18"><a xlink:href="../../d1/df4/TOFCalibCollectorSpec_8h.html" target="_top" xlink:title="Device to collect information for TOF time slewing calibration. ">
<polygon fill="none" stroke="#000000" points="1610.5,-106 1610.5,-158 1816.5,-158 1816.5,-106 1610.5,-106"/>
<text text-anchor="start" x="1618.5" y="-146" font-family="Helvetica,sans-Serif" font-size="10.00" fill="#000000">/home/travis/build</text>
<text text-anchor="start" x="1618.5" y="-135" font-family="Helvetica,sans-Serif" font-size="10.00" fill="#000000">/AliceO2Group/AliceO2</text>
<text text-anchor="start" x="1618.5" y="-124" font-family="Helvetica,sans-Serif" font-size="10.00" fill="#000000">/Detectors/TOF/calibration</text>
<text text-anchor="middle" x="1713.5" y="-113" font-family="Helvetica,sans-Serif" font-size="10.00" fill="#000000">/testWorkflow/TOFCalibCollectorSpec.h</text>
</a>
</g>
</g>
<!-- Node20&#45;&gt;Node22 -->
<g id="edge19" class="edge">
<title>Node20&#45;&gt;Node22</title>
<path fill="none" stroke="#191970" d="M1397.79,-211.3473C1457.0068,-198.5377 1533.814,-181.2748 1601.5,-164 1608.8479,-162.1247 1616.4464,-160.1121 1624.0643,-158.0427"/>
<polygon fill="#191970" stroke="#191970" points="1396.7317,-207.995 1387.6945,-213.5249 1398.2077,-214.8377 1396.7317,-207.995"/>
</g>
<!-- Node24 -->
<g id="node20" class="node">
<title>Node24</title>
<g id="a_node20"><a xlink:href="../../d7/d2e/TOFCalibCollectorWriterSpec_8h.html" target="_top" xlink:title="Device to write to tree the information for TOF time slewing calibration. ">
<polygon fill="none" stroke="#000000" points="1389,-100.5 1389,-163.5 1592,-163.5 1592,-100.5 1389,-100.5"/>
<text text-anchor="start" x="1397" y="-151.5" font-family="Helvetica,sans-Serif" font-size="10.00" fill="#000000">/home/travis/build</text>
<text text-anchor="start" x="1397" y="-140.5" font-family="Helvetica,sans-Serif" font-size="10.00" fill="#000000">/AliceO2Group/AliceO2</text>
<text text-anchor="start" x="1397" y="-129.5" font-family="Helvetica,sans-Serif" font-size="10.00" fill="#000000">/Detectors/TOF/calibration</text>
<text text-anchor="start" x="1397" y="-118.5" font-family="Helvetica,sans-Serif" font-size="10.00" fill="#000000">/testWorkflow/TOFCalibCollectorWriter</text>
<text text-anchor="middle" x="1490.5" y="-107.5" font-family="Helvetica,sans-Serif" font-size="10.00" fill="#000000">Spec.h</text>
</a>
</g>
</g>
<!-- Node20&#45;&gt;Node24 -->
<g id="edge21" class="edge">
<title>Node20&#45;&gt;Node24</title>
<path fill="none" stroke="#191970" d="M1368.7937,-195.7206C1388.9374,-185.1741 1410.7671,-173.745 1430.303,-163.5168"/>
<polygon fill="#191970" stroke="#191970" points="1366.9072,-192.7575 1359.6714,-200.4966 1370.1541,-198.959 1366.9072,-192.7575"/>
</g>
<!-- Node23 -->
<g id="node19" class="node">
<title>Node23</title>
<g id="a_node19"><a xlink:href="../../d8/d3b/tof-collect-calib-workflow_8cxx.html" target="_top" xlink:title="/home/travis/build\l/AliceO2Group/AliceO2\l/Detectors/TOF/calibration\l/testWorkflow/tof&#45;collect\l&#45;calib&#45;workflow.cxx">
<polygon fill="none" stroke="#000000" points="1530,-.5 1530,-63.5 1673,-63.5 1673,-.5 1530,-.5"/>
<text text-anchor="start" x="1538" y="-51.5" font-family="Helvetica,sans-Serif" font-size="10.00" fill="#000000">/home/travis/build</text>
<text text-anchor="start" x="1538" y="-40.5" font-family="Helvetica,sans-Serif" font-size="10.00" fill="#000000">/AliceO2Group/AliceO2</text>
<text text-anchor="start" x="1538" y="-29.5" font-family="Helvetica,sans-Serif" font-size="10.00" fill="#000000">/Detectors/TOF/calibration</text>
<text text-anchor="start" x="1538" y="-18.5" font-family="Helvetica,sans-Serif" font-size="10.00" fill="#000000">/testWorkflow/tof&#45;collect</text>
<text text-anchor="middle" x="1601.5" y="-7.5" font-family="Helvetica,sans-Serif" font-size="10.00" fill="#000000">&#45;calib&#45;workflow.cxx</text>
</a>
</g>
</g>
<!-- Node22&#45;&gt;Node23 -->
<g id="edge20" class="edge">
<title>Node22&#45;&gt;Node23</title>
<path fill="none" stroke="#191970" d="M1676.6279,-99.0785C1663.8416,-87.6621 1649.5432,-74.8957 1636.8798,-63.5891"/>
<polygon fill="#191970" stroke="#191970" points="1674.5752,-101.9378 1684.3657,-105.9872 1679.2374,-96.7162 1674.5752,-101.9378"/>
</g>
<!-- Node24&#45;&gt;Node23 -->
<g id="edge22" class="edge">
<title>Node24&#45;&gt;Node23</title>
<path fill="none" stroke="#191970" d="M1533.0683,-93.6502C1544.0223,-83.7817 1555.6879,-73.2722 1566.2264,-63.778"/>
<polygon fill="#191970" stroke="#191970" points="1530.708,-91.0656 1525.6211,-100.3594 1535.3934,-96.2664 1530.708,-91.0656"/>
</g>
<!-- Node26 -->
<g id="node22" class="node">
<title>Node26</title>
<g id="a_node22"><a xlink:href="../../d9/dff/TOFChannelCalibrator_8cxx.html" target="_top" xlink:title="/home/travis/build\l/AliceO2Group/AliceO2\l/Detectors/TOF/calibration\l/src/TOFChannelCalibrator.cxx">
<polygon fill="none" stroke="#000000" points="836,-106 836,-158 999,-158 999,-106 836,-106"/>
<text text-anchor="start" x="844" y="-146" font-family="Helvetica,sans-Serif" font-size="10.00" fill="#000000">/home/travis/build</text>
<text text-anchor="start" x="844" y="-135" font-family="Helvetica,sans-Serif" font-size="10.00" fill="#000000">/AliceO2Group/AliceO2</text>
<text text-anchor="start" x="844" y="-124" font-family="Helvetica,sans-Serif" font-size="10.00" fill="#000000">/Detectors/TOF/calibration</text>
<text text-anchor="middle" x="917.5" y="-113" font-family="Helvetica,sans-Serif" font-size="10.00" fill="#000000">/src/TOFChannelCalibrator.cxx</text>
</a>
</g>
</g>
<!-- Node25&#45;&gt;Node26 -->
<g id="edge24" class="edge">
<title>Node25&#45;&gt;Node26</title>
<path fill="none" stroke="#191970" d="M977.4517,-193.1752C965.9284,-181.4167 953.5534,-168.7892 943.0564,-158.078"/>
<polygon fill="#191970" stroke="#191970" points="974.9931,-195.667 984.4922,-200.3594 979.9926,-190.7675 974.9931,-195.667"/>
</g>
<!-- Node27 -->
<g id="node23" class="node">
<title>Node27</title>
<g id="a_node23"><a xlink:href="../../df/de3/TOFChannelCalibratorSpec_8h.html" target="_top" xlink:title="Device to calibrate TOF channles (offsets) ">
<polygon fill="none" stroke="#000000" points="1017,-100.5 1017,-163.5 1210,-163.5 1210,-100.5 1017,-100.5"/>
<text text-anchor="start" x="1025" y="-151.5" font-family="Helvetica,sans-Serif" font-size="10.00" fill="#000000">/home/travis/build</text>
<text text-anchor="start" x="1025" y="-140.5" font-family="Helvetica,sans-Serif" font-size="10.00" fill="#000000">/AliceO2Group/AliceO2</text>
<text text-anchor="start" x="1025" y="-129.5" font-family="Helvetica,sans-Serif" font-size="10.00" fill="#000000">/Detectors/TOF/calibration</text>
<text text-anchor="start" x="1025" y="-118.5" font-family="Helvetica,sans-Serif" font-size="10.00" fill="#000000">/testWorkflow/TOFChannelCalibrator</text>
<text text-anchor="middle" x="1113.5" y="-107.5" font-family="Helvetica,sans-Serif" font-size="10.00" fill="#000000">Spec.h</text>
</a>
</g>
</g>
<!-- Node25&#45;&gt;Node27 -->
<g id="edge25" class="edge">
<title>Node25&#45;&gt;Node27</title>
<path fill="none" stroke="#191970" d="M1053.6415,-193.0801C1063.1497,-183.3779 1073.2322,-173.0896 1082.3575,-163.778"/>
<polygon fill="#191970" stroke="#191970" points="1051.0074,-190.7675 1046.5078,-200.3594 1056.0069,-195.667 1051.0074,-190.7675"/>
</g>
<!-- Node27&#45;&gt;Node19 -->
<g id="edge26" class="edge">
<title>Node27&#45;&gt;Node19</title>
<path fill="none" stroke="#191970" d="M1017.4347,-96.9397C982.4821,-84.1832 943.6151,-69.9982 911.145,-58.1478"/>
<polygon fill="#191970" stroke="#191970" points="1016.5869,-100.356 1027.1808,-100.4966 1018.9868,-93.7803 1016.5869,-100.356"/>
</g>
<!-- Node28 -->
<g id="node24" class="node">
<title>Node28</title>
<g id="a_node24"><a xlink:href="../../db/d97/tof-channel-calib-workflow_8cxx.html" target="_top" xlink:title="/home/travis/build\l/AliceO2Group/AliceO2\l/Detectors/TOF/calibration\l/testWorkflow/tof&#45;channel\l&#45;calib&#45;workflow.cxx">
<polygon fill="none" stroke="#000000" points="1042,-.5 1042,-63.5 1185,-63.5 1185,-.5 1042,-.5"/>
<text text-anchor="start" x="1050" y="-51.5" font-family="Helvetica,sans-Serif" font-size="10.00" fill="#000000">/home/travis/build</text>
<text text-anchor="start" x="1050" y="-40.5" font-family="Helvetica,sans-Serif" font-size="10.00" fill="#000000">/AliceO2Group/AliceO2</text>
<text text-anchor="start" x="1050" y="-29.5" font-family="Helvetica,sans-Serif" font-size="10.00" fill="#000000">/Detectors/TOF/calibration</text>
<text text-anchor="start" x="1050" y="-18.5" font-family="Helvetica,sans-Serif" font-size="10.00" fill="#000000">/testWorkflow/tof&#45;channel</text>
<text text-anchor="middle" x="1113.5" y="-7.5" font-family="Helvetica,sans-Serif" font-size="10.00" fill="#000000">&#45;calib&#45;workflow.cxx</text>
</a>
</g>
</g>
<!-- Node27&#45;&gt;Node28 -->
<g id="edge27" class="edge">
<title>Node27&#45;&gt;Node28</title>
<path fill="none" stroke="#191970" d="M1113.5,-90.2111C1113.5,-81.37 1113.5,-72.1767 1113.5,-63.778"/>
<polygon fill="#191970" stroke="#191970" points="1110.0001,-90.3593 1113.5,-100.3594 1117.0001,-90.3594 1110.0001,-90.3593"/>
</g>
</g>
</svg>
        <g id="navigator" transform="translate(0 0)" fill="#404254">
                <rect fill="#f2f5e9" fill-opacity="0.5" stroke="#606060" stroke-width=".5" x="0" y="0" width="60" height="60"/>
                <use id="zoomplus" xlink:href="#zoomPlus" x="17" y="9" onmousedown="handleZoom(evt,'in')"/>
                <use id="zoomminus" xlink:href="#zoomMin" x="42" y="9" onmousedown="handleZoom(evt,'out')"/>
                <use id="reset" xlink:href="#resetDef" x="30" y="36" onmousedown="handleReset()"/>
                <g id="arrowUp" xlink:href="#dirArrow" transform="translate(30 24)" onmousedown="handlePan(0,-1)">
                  <use xlink:href="#rim" fill="#404040">
                        <set attributeName="fill" to="#808080" begin="arrowUp.mouseover" end="arrowUp.mouseout"/>
                  </use>
                  <path fill="none" stroke="white" stroke-width="1.5" d="M0,-3.0v7 M-2.5,-0.5L0,-3.0L2.5,-0.5"/>
                </g>
                <g id="arrowRight" xlink:href="#dirArrow" transform="rotate(90) translate(36 -43)" onmousedown="handlePan(1,0)">
                  <use xlink:href="#rim" fill="#404040">
                        <set attributeName="fill" to="#808080" begin="arrowRight.mouseover" end="arrowRight.mouseout"/>
                  </use>
                  <path fill="none" stroke="white" stroke-width="1.5" d="M0,-3.0v7 M-2.5,-0.5L0,-3.0L2.5,-0.5"/>
                </g>
                <g id="arrowDown" xlink:href="#dirArrow" transform="rotate(180) translate(-30 -48)" onmousedown="handlePan(0,1)">
                  <use xlink:href="#rim" fill="#404040">
                        <set attributeName="fill" to="#808080" begin="arrowDown.mouseover" end="arrowDown.mouseout"/>
                  </use>
                  <path fill="none" stroke="white" stroke-width="1.5" d="M0,-3.0v7 M-2.5,-0.5L0,-3.0L2.5,-0.5"/>
                </g>
                <g id="arrowLeft" xlink:href="#dirArrow" transform="rotate(270) translate(-36 17)" onmousedown="handlePan(-1,0)">
                  <use xlink:href="#rim" fill="#404040">
                        <set attributeName="fill" to="#808080" begin="arrowLeft.mouseover" end="arrowLeft.mouseout"/>
                  </use>
                  <path fill="none" stroke="white" stroke-width="1.5" d="M0,-3.0v7 M-2.5,-0.5L0,-3.0L2.5,-0.5"/>
                </g>
        </g>
        <svg viewBox="0 0 15 15" width="100%" height="30px" preserveAspectRatio="xMaxYMin meet">
         <g id="arrow_out" transform="scale(0.3 0.3)">
          <a xlink:href="TimeSlot_8h__dep__incl_org.svg" target="_base">
           <rect id="button" ry="5" rx="5" y="6" x="6" height="38" width="38"
                fill="#f2f5e9" fill-opacity="0.5" stroke="#606060" stroke-width="1.0"/>
           <path id="arrow"
             d="M 11.500037,31.436501 C 11.940474,20.09759 22.043105,11.32322 32.158766,21.979434 L 37.068811,17.246167 C 37.068811,17.246167 37.088388,32 37.088388,32 L 22.160133,31.978069 C 22.160133,31.978069 26.997745,27.140456 26.997745,27.140456 C 18.528582,18.264221 13.291696,25.230495 11.500037,31.436501 z"
             style="fill:#404040;"/>
          </a>
         </g>
        </svg>
</svg>
