<?xml version="1.0" encoding="UTF-8" standalone="no"?>
<!DOCTYPE svg PUBLIC "-//W3C//DTD SVG 1.1//EN"
 "http://www.w3.org/Graphics/SVG/1.1/DTD/svg11.dtd">
<!-- Generated by graphviz version 2.40.1 (20161225.0304)
 -->
<!-- Title: /home/travis/build/AliceO2Group/AliceO2/Detectors/EMCAL/base/src/ClusterFactory.cxx Pages: 1 -->
<svg width="2613pt" height="430pt"
 viewBox="0.00 0.00 2613.00 430.00" xmlns="http://www.w3.org/2000/svg" xmlns:xlink="http://www.w3.org/1999/xlink">
<g id="graph0" class="graph" transform="scale(1 1) rotate(0) translate(4 426)">
<title>/home/travis/build/AliceO2Group/AliceO2/Detectors/EMCAL/base/src/ClusterFactory.cxx</title>
<!-- Node0 -->
<g id="node1" class="node">
<title>Node0</title>
<polygon fill="#bfbfbf" stroke="#000000" points="637.5,-369.5 637.5,-421.5 766.5,-421.5 766.5,-369.5 637.5,-369.5"/>
<text text-anchor="start" x="645.5" y="-409.5" font-family="Helvetica,sans-Serif" font-size="10.00" fill="#000000">/home/travis/build</text>
<text text-anchor="start" x="645.5" y="-398.5" font-family="Helvetica,sans-Serif" font-size="10.00" fill="#000000">/AliceO2Group/AliceO2</text>
<text text-anchor="start" x="645.5" y="-387.5" font-family="Helvetica,sans-Serif" font-size="10.00" fill="#000000">/Detectors/EMCAL/base</text>
<text text-anchor="middle" x="702" y="-376.5" font-family="Helvetica,sans-Serif" font-size="10.00" fill="#000000">/src/ClusterFactory.cxx</text>
</g>
<!-- Node1 -->
<g id="node2" class="node">
<title>Node1</title>
<polygon fill="none" stroke="#bfbfbf" points="586,-185 586,-204 628,-204 628,-185 586,-185"/>
<text text-anchor="middle" x="607" y="-192" font-family="Helvetica,sans-Serif" font-size="10.00" fill="#000000">array</text>
</g>
<!-- Node0&#45;&gt;Node1 -->
<g id="edge1" class="edge">
<title>Node0&#45;&gt;Node1</title>
<path fill="none" stroke="#191970" d="M658.2929,-369.2579C643.7064,-359.1379 628.1029,-346.6894 616,-333 597.1573,-311.6872 592.115,-304.5438 585,-277 579.3508,-255.1307 588.2207,-230.0671 596.3272,-213.3596"/>
<polygon fill="#191970" stroke="#191970" points="599.615,-214.6246 601.1394,-204.14 593.4094,-211.3856 599.615,-214.6246"/>
</g>
<!-- Node2 -->
<g id="node3" class="node">
<title>Node2</title>
<polygon fill="none" stroke="#bfbfbf" points="893.5,-185 893.5,-204 950.5,-204 950.5,-185 893.5,-185"/>
<text text-anchor="middle" x="922" y="-192" font-family="Helvetica,sans-Serif" font-size="10.00" fill="#000000">gsl/span</text>
</g>
<!-- Node0&#45;&gt;Node2 -->
<g id="edge2" class="edge">
<title>Node0&#45;&gt;Node2</title>
<path fill="none" stroke="#191970" d="M766.6702,-379.129C817.6051,-362.516 885.4272,-331.3119 919,-277 930.6772,-258.1093 929.3175,-231.8616 926.4247,-214.084"/>
<polygon fill="#191970" stroke="#191970" points="929.8131,-213.1716 924.4763,-204.019 922.9407,-214.502 929.8131,-213.1716"/>
</g>
<!-- Node3 -->
<g id="node4" class="node">
<title>Node3</title>
<polygon fill="none" stroke="#bfbfbf" points="471.5,-56.5 471.5,-75.5 530.5,-75.5 530.5,-56.5 471.5,-56.5"/>
<text text-anchor="middle" x="501" y="-63.5" font-family="Helvetica,sans-Serif" font-size="10.00" fill="#000000">Rtypes.h</text>
</g>
<!-- Node0&#45;&gt;Node3 -->
<g id="edge3" class="edge">
<title>Node0&#45;&gt;Node3</title>
<path fill="none" stroke="#191970" d="M637.2158,-389.9386C463.4297,-374.1557 0,-326.0192 0,-261.5 0,-261.5 0,-261.5 0,-194.5 0,-99.4914 342.329,-73.7508 461.0388,-67.6809"/>
<polygon fill="#191970" stroke="#191970" points="461.3443,-71.1702 471.1605,-67.1837 461.0008,-64.1787 461.3443,-71.1702"/>
</g>
<!-- Node4 -->
<g id="node5" class="node">
<title>Node4</title>
<g id="a_node5"><a xlink:href="../../dc/d27/DataFormats_2Detectors_2EMCAL_2include_2DataFormatsEMCAL_2Cluster_8h.html" target="_top" xlink:title="DataFormatsEMCAL/Cluster.h">
<polygon fill="none" stroke="#000000" points="986,-252 986,-271 1144,-271 1144,-252 986,-252"/>
<text text-anchor="middle" x="1065" y="-259" font-family="Helvetica,sans-Serif" font-size="10.00" fill="#000000">DataFormatsEMCAL/Cluster.h</text>
</a>
</g>
</g>
<!-- Node0&#45;&gt;Node4 -->
<g id="edge4" class="edge">
<title>Node0&#45;&gt;Node4</title>
<path fill="none" stroke="#191970" d="M766.723,-387.7508C822.1168,-379.3998 902.9788,-363.0557 968,-333 998.4659,-318.9173 1028.8416,-294.4054 1047.2753,-278.0664"/>
<polygon fill="#191970" stroke="#191970" points="1049.7955,-280.5061 1054.862,-271.2012 1045.0987,-275.3157 1049.7955,-280.5061"/>
</g>
<!-- Node14 -->
<g id="node15" class="node">
<title>Node14</title>
<g id="a_node15"><a xlink:href="../../d3/d6e/DataFormats_2Detectors_2EMCAL_2include_2DataFormatsEMCAL_2Digit_8h.html" target="_top" xlink:title="DataFormatsEMCAL/Digit.h">
<polygon fill="none" stroke="#000000" points="352,-252 352,-271 500,-271 500,-252 352,-252"/>
<text text-anchor="middle" x="426" y="-259" font-family="Helvetica,sans-Serif" font-size="10.00" fill="#000000">DataFormatsEMCAL/Digit.h</text>
</a>
</g>
</g>
<!-- Node0&#45;&gt;Node14 -->
<g id="edge17" class="edge">
<title>Node0&#45;&gt;Node14</title>
<path fill="none" stroke="#191970" d="M637.3711,-370.574C610.6216,-359.743 579.4893,-346.4648 552,-333 515.7479,-315.243 475.427,-291.6479 450.388,-276.5144"/>
<polygon fill="#191970" stroke="#191970" points="451.9429,-273.3637 441.5801,-271.1584 448.3059,-279.3447 451.9429,-273.3637"/>
</g>
<!-- Node16 -->
<g id="node17" class="node">
<title>Node16</title>
<g id="a_node17"><a xlink:href="../../dd/dda/DataFormats_2Detectors_2EMCAL_2include_2DataFormatsEMCAL_2Constants_8h.html" target="_top" xlink:title="DataFormatsEMCAL/Constants.h">
<polygon fill="none" stroke="#000000" points="90.5,-185 90.5,-204 263.5,-204 263.5,-185 90.5,-185"/>
<text text-anchor="middle" x="177" y="-192" font-family="Helvetica,sans-Serif" font-size="10.00" fill="#000000">DataFormatsEMCAL/Constants.h</text>
</a>
</g>
</g>
<!-- Node0&#45;&gt;Node16 -->
<g id="edge51" class="edge">
<title>Node0&#45;&gt;Node16</title>
<path fill="none" stroke="#191970" d="M637.4496,-377.2197C564.803,-355.9531 443.7699,-318.4254 343,-277 292.0686,-256.0627 235.0608,-226.257 202.8533,-208.792"/>
<polygon fill="#191970" stroke="#191970" points="204.5251,-205.7171 194.0702,-204.0011 201.1731,-211.8624 204.5251,-205.7171"/>
</g>
<!-- Node20 -->
<g id="node21" class="node">
<title>Node20</title>
<g id="a_node21"><a xlink:href="../../d5/dd3/DataFormats_2Detectors_2EMCAL_2include_2DataFormatsEMCAL_2Cell_8h.html" target="_top" xlink:title="DataFormatsEMCAL/Cell.h">
<polygon fill="none" stroke="#000000" points="116.5,-252 116.5,-271 259.5,-271 259.5,-252 116.5,-252"/>
<text text-anchor="middle" x="188" y="-259" font-family="Helvetica,sans-Serif" font-size="10.00" fill="#000000">DataFormatsEMCAL/Cell.h</text>
</a>
</g>
</g>
<!-- Node0&#45;&gt;Node20 -->
<g id="edge28" class="edge">
<title>Node0&#45;&gt;Node20</title>
<path fill="none" stroke="#191970" d="M637.3821,-388.8493C539.5352,-378.2154 358.747,-356.2079 298,-333 263.2169,-319.7114 228.0011,-294.2379 207.0892,-277.5604"/>
<polygon fill="#191970" stroke="#191970" points="209.2648,-274.8184 199.2988,-271.2228 204.8474,-280.2486 209.2648,-274.8184"/>
</g>
<!-- Node22 -->
<g id="node23" class="node">
<title>Node22</title>
<g id="a_node23"><a xlink:href="../../d8/da3/AnalysisCluster_8h.html" target="_top" xlink:title="DataFormatsEMCAL/Analysis\lCluster.h">
<polygon fill="none" stroke="#000000" points="730.5,-246.5 730.5,-276.5 887.5,-276.5 887.5,-246.5 730.5,-246.5"/>
<text text-anchor="start" x="738.5" y="-264.5" font-family="Helvetica,sans-Serif" font-size="10.00" fill="#000000">DataFormatsEMCAL/Analysis</text>
<text text-anchor="middle" x="809" y="-253.5" font-family="Helvetica,sans-Serif" font-size="10.00" fill="#000000">Cluster.h</text>
</a>
</g>
</g>
<!-- Node0&#45;&gt;Node22 -->
<g id="edge31" class="edge">
<title>Node0&#45;&gt;Node22</title>
<path fill="none" stroke="#191970" d="M749.2735,-369.438C763.4501,-359.6331 777.8977,-347.3314 788,-333 797.6569,-319.3003 802.9179,-301.1549 805.7591,-286.572"/>
<polygon fill="#191970" stroke="#191970" points="809.2125,-287.1412 807.4285,-276.6976 802.3104,-285.9742 809.2125,-287.1412"/>
</g>
<!-- Node24 -->
<g id="node25" class="node">
<title>Node24</title>
<g id="a_node25"><a xlink:href="../../dc/d73/Cartesian_8h.html" target="_top" xlink:title="MathUtils/Cartesian.h">
<polygon fill="none" stroke="#000000" points="1477,-185 1477,-204 1599,-204 1599,-185 1477,-185"/>
<text text-anchor="middle" x="1538" y="-192" font-family="Helvetica,sans-Serif" font-size="10.00" fill="#000000">MathUtils/Cartesian.h</text>
</a>
</g>
</g>
<!-- Node0&#45;&gt;Node24 -->
<g id="edge66" class="edge">
<title>Node0&#45;&gt;Node24</title>
<path fill="none" stroke="#191970" d="M766.8206,-382.8943C869.1329,-362.6577 1074.1073,-320.7366 1246,-277 1335.8196,-254.1462 1440.0979,-223.739 1496.5382,-206.9548"/>
<polygon fill="#191970" stroke="#191970" points="1497.5896,-210.2937 1506.1736,-204.0835 1495.5905,-203.5852 1497.5896,-210.2937"/>
</g>
<!-- Node35 -->
<g id="node36" class="node">
<title>Node35</title>
<g id="a_node36"><a xlink:href="../../dd/da8/EMCAL_2base_2include_2EMCALBase_2Geometry_8h.html" target="_top" xlink:title="EMCALBase/Geometry.h">
<polygon fill="none" stroke="#000000" points="1717.5,-252 1717.5,-271 1850.5,-271 1850.5,-252 1717.5,-252"/>
<text text-anchor="middle" x="1784" y="-259" font-family="Helvetica,sans-Serif" font-size="10.00" fill="#000000">EMCALBase/Geometry.h</text>
</a>
</g>
</g>
<!-- Node0&#45;&gt;Node35 -->
<g id="edge52" class="edge">
<title>Node0&#45;&gt;Node35</title>
<path fill="none" stroke="#191970" d="M766.7867,-391.8868C891.138,-384.4788 1171.7303,-365.4753 1406,-333 1522.8908,-316.7962 1658.4937,-288.8997 1731.2959,-273.1699"/>
<polygon fill="#191970" stroke="#191970" points="1732.1127,-276.5742 1741.1433,-271.0336 1730.6286,-269.7333 1732.1127,-276.5742"/>
</g>
<!-- Node42 -->
<g id="node43" class="node">
<title>Node42</title>
<g id="a_node43"><a xlink:href="../../d0/d55/ClusterFactory_8h.html" target="_top" xlink:title="EMCALBase/ClusterFactory.h">
<polygon fill="none" stroke="#000000" points="625,-313.5 625,-332.5 779,-332.5 779,-313.5 625,-313.5"/>
<text text-anchor="middle" x="702" y="-320.5" font-family="Helvetica,sans-Serif" font-size="10.00" fill="#000000">EMCALBase/ClusterFactory.h</text>
</a>
</g>
</g>
<!-- Node0&#45;&gt;Node42 -->
<g id="edge67" class="edge">
<title>Node0&#45;&gt;Node42</title>
<path fill="none" stroke="#191970" d="M702,-369.3258C702,-360.5142 702,-350.8397 702,-342.621"/>
<polygon fill="#191970" stroke="#191970" points="705.5001,-342.534 702,-332.534 698.5001,-342.534 705.5001,-342.534"/>
</g>
<!-- Node4&#45;&gt;Node1 -->
<g id="edge5" class="edge">
<title>Node4&#45;&gt;Node1</title>
<path fill="none" stroke="#191970" d="M985.7069,-253.1039C906.8714,-244.2629 782.6382,-228.9973 676,-210 663.4726,-207.7683 649.7794,-204.8031 637.9176,-202.0641"/>
<polygon fill="#191970" stroke="#191970" points="638.5762,-198.6236 628.0403,-199.7395 636.9725,-205.4374 638.5762,-198.6236"/>
</g>
<!-- Node5 -->
<g id="node6" class="node">
<title>Node5</title>
<polygon fill="none" stroke="#bfbfbf" points="680.5,-118 680.5,-137 729.5,-137 729.5,-118 680.5,-118"/>
<text text-anchor="middle" x="705" y="-125" font-family="Helvetica,sans-Serif" font-size="10.00" fill="#000000">iosfwd</text>
</g>
<!-- Node4&#45;&gt;Node5 -->
<g id="edge6" class="edge">
<title>Node4&#45;&gt;Node5</title>
<path fill="none" stroke="#191970" d="M1093.4224,-251.9211C1131.7635,-237.5658 1192.2875,-208.9437 1165,-179 1135.9117,-147.0802 820.6943,-149.4958 778,-143 765.2913,-141.0664 751.4682,-138.3033 739.3035,-135.6442"/>
<polygon fill="#191970" stroke="#191970" points="740.0594,-132.2269 729.536,-133.4555 738.5287,-139.0575 740.0594,-132.2269"/>
</g>
<!-- Node6 -->
<g id="node7" class="node">
<title>Node6</title>
<polygon fill="none" stroke="#bfbfbf" points="2561,-118 2561,-137 2605,-137 2605,-118 2561,-118"/>
<text text-anchor="middle" x="2583" y="-125" font-family="Helvetica,sans-Serif" font-size="10.00" fill="#000000">string</text>
</g>
<!-- Node4&#45;&gt;Node6 -->
<g id="edge7" class="edge">
<title>Node4&#45;&gt;Node6</title>
<path fill="none" stroke="#191970" d="M1144.1799,-259.5054C1273.9951,-255.3195 1525.8788,-243.0942 1608,-210 1628.5371,-201.7237 1626.2438,-186.7105 1647,-179 1835.6725,-108.9117 2357.0719,-193.127 2552,-143 2553.9231,-142.5055 2555.8655,-141.8809 2557.7903,-141.1679"/>
<polygon fill="#191970" stroke="#191970" points="2559.3612,-144.3005 2567.0966,-137.0607 2556.5348,-137.8964 2559.3612,-144.3005"/>
</g>
<!-- Node7 -->
<g id="node8" class="node">
<title>Node7</title>
<polygon fill="none" stroke="#bfbfbf" points="1655.5,-185 1655.5,-204 1702.5,-204 1702.5,-185 1655.5,-185"/>
<text text-anchor="middle" x="1679" y="-192" font-family="Helvetica,sans-Serif" font-size="10.00" fill="#000000">vector</text>
</g>
<!-- Node4&#45;&gt;Node7 -->
<g id="edge8" class="edge">
<title>Node4&#45;&gt;Node7</title>
<path fill="none" stroke="#191970" d="M1144.033,-257.3495C1279.1435,-249.7671 1548.8637,-232.3748 1641,-210 1643.7911,-209.3222 1646.6455,-208.4735 1649.474,-207.5245"/>
<polygon fill="#191970" stroke="#191970" points="1650.7204,-210.7952 1658.8613,-204.0146 1648.2689,-204.2385 1650.7204,-210.7952"/>
</g>
<!-- Node8 -->
<g id="node9" class="node">
<title>Node8</title>
<g id="a_node9"><a xlink:href="../../df/d5d/common_2include_2CommonDataFormat_2TimeStamp_8h.html" target="_top" xlink:title="CommonDataFormat/TimeStamp.h">
<polygon fill="none" stroke="#000000" points="968.5,-185 968.5,-204 1155.5,-204 1155.5,-185 968.5,-185"/>
<text text-anchor="middle" x="1062" y="-192" font-family="Helvetica,sans-Serif" font-size="10.00" fill="#000000">CommonDataFormat/TimeStamp.h</text>
</a>
</g>
</g>
<!-- Node4&#45;&gt;Node8 -->
<g id="edge9" class="edge">
<title>Node4&#45;&gt;Node8</title>
<path fill="none" stroke="#191970" d="M1064.5702,-251.9005C1064.1335,-242.149 1063.4445,-226.7597 1062.8897,-214.3695"/>
<polygon fill="#191970" stroke="#191970" points="1066.3729,-213.9151 1062.429,-204.0817 1059.3799,-214.2282 1066.3729,-213.9151"/>
</g>
<!-- Node13 -->
<g id="node14" class="node">
<title>Node13</title>
<g id="a_node14"><a xlink:href="../../de/d64/RangeReference_8h.html" target="_top" xlink:title="Class to refer to the 1st entry and N elements of some group in the continuous container. ">
<polygon fill="none" stroke="#000000" points="1249,-185 1249,-204 1459,-204 1459,-185 1249,-185"/>
<text text-anchor="middle" x="1354" y="-192" font-family="Helvetica,sans-Serif" font-size="10.00" fill="#000000">CommonDataFormat/RangeReference.h</text>
</a>
</g>
</g>
<!-- Node4&#45;&gt;Node13 -->
<g id="edge15" class="edge">
<title>Node4&#45;&gt;Node13</title>
<path fill="none" stroke="#191970" d="M1106.0997,-251.9717C1157.7397,-239.9998 1246.378,-219.4504 1302.4913,-206.4415"/>
<polygon fill="#191970" stroke="#191970" points="1303.623,-209.772 1312.5741,-204.1039 1302.042,-202.9529 1303.623,-209.772"/>
</g>
<!-- Node9 -->
<g id="node10" class="node">
<title>Node9</title>
<g id="a_node10"><a xlink:href="../../d2/d45/GPUCommonRtypes_8h.html" target="_top" xlink:title="GPUCommonRtypes.h">
<polygon fill="none" stroke="#000000" points="786.5,-118 786.5,-137 911.5,-137 911.5,-118 786.5,-118"/>
<text text-anchor="middle" x="849" y="-125" font-family="Helvetica,sans-Serif" font-size="10.00" fill="#000000">GPUCommonRtypes.h</text>
</a>
</g>
</g>
<!-- Node8&#45;&gt;Node9 -->
<g id="edge10" class="edge">
<title>Node8&#45;&gt;Node9</title>
<path fill="none" stroke="#191970" d="M1031.4823,-184.9005C994.0753,-173.134 930.5731,-153.1591 889.2131,-140.1492"/>
<polygon fill="#191970" stroke="#191970" points="890.0505,-136.7436 879.4611,-137.0817 887.9501,-143.421 890.0505,-136.7436"/>
</g>
<!-- Node10 -->
<g id="node11" class="node">
<title>Node10</title>
<g id="a_node11"><a xlink:href="../../df/d21/GPUCommonDef_8h.html" target="_top" xlink:title="GPUCommonDef.h">
<polygon fill="none" stroke="#000000" points="1153.5,-56.5 1153.5,-75.5 1260.5,-75.5 1260.5,-56.5 1153.5,-56.5"/>
<text text-anchor="middle" x="1207" y="-63.5" font-family="Helvetica,sans-Serif" font-size="10.00" fill="#000000">GPUCommonDef.h</text>
</a>
</g>
</g>
<!-- Node8&#45;&gt;Node10 -->
<g id="edge12" class="edge">
<title>Node8&#45;&gt;Node10</title>
<path fill="none" stroke="#191970" d="M1004.0905,-184.9496C922.0985,-171.2941 781.6332,-147.3513 778,-143 769.1695,-132.4241 768.7916,-122.2486 778,-112 801.9402,-85.3555 1029.6075,-72.8467 1143.1941,-68.2248"/>
<polygon fill="#191970" stroke="#191970" points="1143.6362,-71.71 1153.4889,-67.8148 1143.3575,-64.7156 1143.6362,-71.71"/>
</g>
<!-- Node9&#45;&gt;Node3 -->
<g id="edge11" class="edge">
<title>Node9&#45;&gt;Node3</title>
<path fill="none" stroke="#191970" d="M795.0068,-117.9581C724.6585,-105.5259 603.2835,-84.076 540.7677,-73.0279"/>
<polygon fill="#191970" stroke="#191970" points="541.3497,-69.5766 530.8931,-71.2828 540.1314,-76.4698 541.3497,-69.5766"/>
</g>
<!-- Node11 -->
<g id="node12" class="node">
<title>Node11</title>
<g id="a_node12"><a xlink:href="../../d5/d93/GPUCommonDefSettings_8h.html" target="_top" xlink:title="GPUCommonDefSettings.h">
<polygon fill="none" stroke="#000000" points="1056,-.5 1056,-19.5 1204,-19.5 1204,-.5 1056,-.5"/>
<text text-anchor="middle" x="1130" y="-7.5" font-family="Helvetica,sans-Serif" font-size="10.00" fill="#000000">GPUCommonDefSettings.h</text>
</a>
</g>
</g>
<!-- Node10&#45;&gt;Node11 -->
<g id="edge13" class="edge">
<title>Node10&#45;&gt;Node11</title>
<path fill="none" stroke="#191970" d="M1193.5876,-56.2455C1181.9943,-47.814 1165.0252,-35.4729 1151.5322,-25.6598"/>
<polygon fill="#191970" stroke="#191970" points="1153.4047,-22.6938 1143.2587,-19.6427 1149.2874,-28.355 1153.4047,-22.6938"/>
</g>
<!-- Node12 -->
<g id="node13" class="node">
<title>Node12</title>
<g id="a_node13"><a xlink:href="../../da/d5a/GPUCommonDefAPI_8h.html" target="_top" xlink:title="GPUCommonDefAPI.h">
<polygon fill="none" stroke="#000000" points="1222,-.5 1222,-19.5 1346,-19.5 1346,-.5 1222,-.5"/>
<text text-anchor="middle" x="1284" y="-7.5" font-family="Helvetica,sans-Serif" font-size="10.00" fill="#000000">GPUCommonDefAPI.h</text>
</a>
</g>
</g>
<!-- Node10&#45;&gt;Node12 -->
<g id="edge14" class="edge">
<title>Node10&#45;&gt;Node12</title>
<path fill="none" stroke="#191970" d="M1220.4124,-56.2455C1232.0057,-47.814 1248.9748,-35.4729 1262.4678,-25.6598"/>
<polygon fill="#191970" stroke="#191970" points="1264.7126,-28.355 1270.7413,-19.6427 1260.5953,-22.6938 1264.7126,-28.355"/>
</g>
<!-- Node13&#45;&gt;Node9 -->
<g id="edge16" class="edge">
<title>Node13&#45;&gt;Node9</title>
<path fill="none" stroke="#191970" d="M1282.2854,-184.9778C1266.7023,-182.9594 1250.303,-180.8738 1235,-179 1095.5715,-161.9279 1059.6056,-165.8087 921,-143 914.2185,-141.8841 907.1107,-140.5534 900.1126,-139.1475"/>
<polygon fill="#191970" stroke="#191970" points="900.4909,-135.6516 889.9887,-137.0499 899.0706,-142.506 900.4909,-135.6516"/>
</g>
<!-- Node14&#45;&gt;Node3 -->
<g id="edge20" class="edge">
<title>Node14&#45;&gt;Node3</title>
<path fill="none" stroke="#191970" d="M434.2723,-251.8757C442.3939,-241.9761 454.6085,-225.8119 462,-210 481.6565,-167.9507 492.9046,-114.2054 497.8838,-85.7462"/>
<polygon fill="#191970" stroke="#191970" points="501.3437,-86.2763 499.5404,-75.836 494.4395,-85.1221 501.3437,-86.2763"/>
</g>
<!-- Node14&#45;&gt;Node5 -->
<g id="edge18" class="edge">
<title>Node14&#45;&gt;Node5</title>
<path fill="none" stroke="#191970" d="M441.9874,-251.9505C469.2002,-235.8821 526.4892,-202.8588 577,-179 608.1125,-164.304 644.6114,-149.8852 670.6556,-140.0597"/>
<polygon fill="#191970" stroke="#191970" points="671.9536,-143.3111 680.0924,-136.5279 669.5,-136.7552 671.9536,-143.3111"/>
</g>
<!-- Node14&#45;&gt;Node8 -->
<g id="edge21" class="edge">
<title>Node14&#45;&gt;Node8</title>
<path fill="none" stroke="#191970" d="M500.0164,-254.2618C526.7905,-251.6495 557.2558,-248.684 585,-246 751.6549,-229.8775 793.8373,-230.585 960,-210 970.6835,-208.6765 981.9726,-207.1201 992.9942,-205.5131"/>
<polygon fill="#191970" stroke="#191970" points="993.6367,-208.9562 1003.0158,-204.0283 992.6108,-202.0318 993.6367,-208.9562"/>
</g>
<!-- Node15 -->
<g id="node16" class="node">
<title>Node15</title>
<polygon fill="none" stroke="#bfbfbf" points="406.5,-185 406.5,-204 453.5,-204 453.5,-185 406.5,-185"/>
<text text-anchor="middle" x="430" y="-192" font-family="Helvetica,sans-Serif" font-size="10.00" fill="#000000">cmath</text>
</g>
<!-- Node14&#45;&gt;Node15 -->
<g id="edge19" class="edge">
<title>Node14&#45;&gt;Node15</title>
<path fill="none" stroke="#191970" d="M426.5731,-251.9005C427.1553,-242.149 428.074,-226.7597 428.8138,-214.3695"/>
<polygon fill="#191970" stroke="#191970" points="432.3257,-214.2725 429.428,-204.0817 425.3381,-213.8553 432.3257,-214.2725"/>
</g>
<!-- Node14&#45;&gt;Node16 -->
<g id="edge22" class="edge">
<title>Node14&#45;&gt;Node16</title>
<path fill="none" stroke="#191970" d="M390.5888,-251.9717C346.4655,-240.0991 270.9916,-219.7909 222.5889,-206.7669"/>
<polygon fill="#191970" stroke="#191970" points="223.2582,-203.3225 212.6922,-204.1039 221.4393,-210.0821 223.2582,-203.3225"/>
</g>
<!-- Node19 -->
<g id="node20" class="node">
<title>Node19</title>
<polygon fill="none" stroke="#bfbfbf" points="281.5,-179.5 281.5,-209.5 388.5,-209.5 388.5,-179.5 281.5,-179.5"/>
<text text-anchor="start" x="289.5" y="-197.5" font-family="Helvetica,sans-Serif" font-size="10.00" fill="#000000">boost/serialization</text>
<text text-anchor="middle" x="335" y="-186.5" font-family="Helvetica,sans-Serif" font-size="10.00" fill="#000000">/base_object.hpp</text>
</g>
<!-- Node14&#45;&gt;Node19 -->
<g id="edge27" class="edge">
<title>Node14&#45;&gt;Node19</title>
<path fill="none" stroke="#191970" d="M412.9619,-251.9005C400.1558,-242.4718 380.191,-227.7725 363.6712,-215.6096"/>
<polygon fill="#191970" stroke="#191970" points="365.5306,-212.6323 355.4027,-209.5218 361.3803,-218.2693 365.5306,-212.6323"/>
</g>
<!-- Node16&#45;&gt;Node3 -->
<g id="edge23" class="edge">
<title>Node16&#45;&gt;Node3</title>
<path fill="none" stroke="#191970" d="M176.0692,-184.9342C174.9643,-167.6107 175.4033,-131.0752 196,-112 215.1842,-94.2329 382.6306,-76.8006 460.9412,-69.5341"/>
<polygon fill="#191970" stroke="#191970" points="461.7363,-72.976 471.3748,-68.5773 461.097,-66.0052 461.7363,-72.976"/>
</g>
<!-- Node16&#45;&gt;Node5 -->
<g id="edge24" class="edge">
<title>Node16&#45;&gt;Node5</title>
<path fill="none" stroke="#191970" d="M231.6725,-184.9925C244.8542,-182.8628 258.9115,-180.726 272,-179 430.1025,-158.1505 471.3395,-166.9642 629,-143 642.6564,-140.9242 657.571,-138.0233 670.5429,-135.2918"/>
<polygon fill="#191970" stroke="#191970" points="671.4282,-138.6815 680.4684,-133.1566 669.9559,-131.8381 671.4282,-138.6815"/>
</g>
<!-- Node17 -->
<g id="node18" class="node">
<title>Node17</title>
<polygon fill="none" stroke="#bfbfbf" points="555.5,-118 555.5,-137 620.5,-137 620.5,-118 555.5,-118"/>
<text text-anchor="middle" x="588" y="-125" font-family="Helvetica,sans-Serif" font-size="10.00" fill="#000000">exception</text>
</g>
<!-- Node16&#45;&gt;Node17 -->
<g id="edge25" class="edge">
<title>Node16&#45;&gt;Node17</title>
<path fill="none" stroke="#191970" d="M235.2788,-184.9897C247.4148,-183.0097 260.1248,-180.9364 272,-179 369.7564,-163.0592 484.526,-144.3582 545.2615,-134.4628"/>
<polygon fill="#191970" stroke="#191970" points="545.9391,-137.8987 555.2461,-132.8361 544.8134,-130.9897 545.9391,-137.8987"/>
</g>
<!-- Node18 -->
<g id="node19" class="node">
<title>Node18</title>
<polygon fill="none" stroke="#bfbfbf" points="205,-118 205,-137 255,-137 255,-118 205,-118"/>
<text text-anchor="middle" x="230" y="-125" font-family="Helvetica,sans-Serif" font-size="10.00" fill="#000000">cstdint</text>
</g>
<!-- Node16&#45;&gt;Node18 -->
<g id="edge26" class="edge">
<title>Node16&#45;&gt;Node18</title>
<path fill="none" stroke="#191970" d="M184.5936,-184.9005C192.7798,-174.552 205.9885,-157.8542 216.0543,-145.1295"/>
<polygon fill="#191970" stroke="#191970" points="218.9614,-147.0959 222.4205,-137.0817 213.4714,-142.7531 218.9614,-147.0959"/>
</g>
<!-- Node20&#45;&gt;Node16 -->
<g id="edge30" class="edge">
<title>Node20&#45;&gt;Node16</title>
<path fill="none" stroke="#191970" d="M186.424,-251.9005C184.8066,-242.0495 182.2447,-226.4451 180.2,-213.9912"/>
<polygon fill="#191970" stroke="#191970" points="183.6471,-213.3825 178.5731,-204.0817 176.7395,-214.5166 183.6471,-213.3825"/>
</g>
<!-- Node21 -->
<g id="node22" class="node">
<title>Node21</title>
<polygon fill="none" stroke="#bfbfbf" points="28,-185 28,-204 72,-204 72,-185 28,-185"/>
<text text-anchor="middle" x="50" y="-192" font-family="Helvetica,sans-Serif" font-size="10.00" fill="#000000">bitset</text>
</g>
<!-- Node20&#45;&gt;Node21 -->
<g id="edge29" class="edge">
<title>Node20&#45;&gt;Node21</title>
<path fill="none" stroke="#191970" d="M167.8409,-251.9085C146.2985,-241.6328 111.1689,-224.8014 81,-210 80.0276,-209.5229 79.0387,-209.0363 78.0405,-208.5439"/>
<polygon fill="#191970" stroke="#191970" points="79.5084,-205.3651 68.9949,-204.054 76.3961,-211.6352 79.5084,-205.3651"/>
</g>
<!-- Node22&#45;&gt;Node1 -->
<g id="edge34" class="edge">
<title>Node22&#45;&gt;Node1</title>
<path fill="none" stroke="#191970" d="M754.304,-246.398C721.4293,-236.8858 678.9416,-223.8212 642,-210 640.3739,-209.3916 638.7152,-208.746 637.0475,-208.0771"/>
<polygon fill="#191970" stroke="#191970" points="638.1363,-204.7381 627.5615,-204.0879 635.4228,-211.1908 638.1363,-204.7381"/>
</g>
<!-- Node22&#45;&gt;Node2 -->
<g id="edge33" class="edge">
<title>Node22&#45;&gt;Node2</title>
<path fill="none" stroke="#191970" d="M834.3594,-246.4639C853.0631,-235.3741 878.3881,-220.3584 897.005,-209.32"/>
<polygon fill="#191970" stroke="#191970" points="898.9857,-212.2147 905.8023,-204.1039 895.4156,-206.1935 898.9857,-212.2147"/>
</g>
<!-- Node22&#45;&gt;Node3 -->
<g id="edge35" class="edge">
<title>Node22&#45;&gt;Node3</title>
<path fill="none" stroke="#191970" d="M741.9603,-246.401C718.932,-238.5816 694.3576,-226.9831 676,-210 640.5411,-177.1961 664.8571,-144.3682 629,-112 604.4425,-89.8319 568.4275,-78.1505 540.8508,-72.1171"/>
<polygon fill="#191970" stroke="#191970" points="541.2318,-68.6233 530.7364,-70.0712 539.8439,-75.4844 541.2318,-68.6233"/>
</g>
<!-- Node23 -->
<g id="node24" class="node">
<title>Node23</title>
<polygon fill="none" stroke="#bfbfbf" points="684.5,-185 684.5,-204 759.5,-204 759.5,-185 684.5,-185"/>
<text text-anchor="middle" x="722" y="-192" font-family="Helvetica,sans-Serif" font-size="10.00" fill="#000000">FairLogger.h</text>
</g>
<!-- Node22&#45;&gt;Node23 -->
<g id="edge32" class="edge">
<title>Node22&#45;&gt;Node23</title>
<path fill="none" stroke="#191970" d="M789.2584,-246.2967C775.3085,-235.5537 756.6565,-221.1895 742.5332,-210.3129"/>
<polygon fill="#191970" stroke="#191970" points="744.4656,-207.3835 734.4072,-204.055 740.1945,-212.9295 744.4656,-207.3835"/>
</g>
<!-- Node22&#45;&gt;Node24 -->
<g id="edge36" class="edge">
<title>Node22&#45;&gt;Node24</title>
<path fill="none" stroke="#191970" d="M887.604,-253.9396C915.7891,-251.3102 947.8093,-248.4165 977,-246 1195.0621,-227.9481 1251.5056,-241.7353 1468,-210 1475.1122,-208.9574 1482.5778,-207.5965 1489.8755,-206.1138"/>
<polygon fill="#191970" stroke="#191970" points="1490.6178,-209.5343 1499.6737,-204.035 1489.165,-202.6867 1490.6178,-209.5343"/>
</g>
<!-- Node34 -->
<g id="node35" class="node">
<title>Node34</title>
<polygon fill="none" stroke="#bfbfbf" points="777,-185 777,-204 875,-204 875,-185 777,-185"/>
<text text-anchor="middle" x="826" y="-192" font-family="Helvetica,sans-Serif" font-size="10.00" fill="#000000">TLorentzVector.h</text>
</g>
<!-- Node22&#45;&gt;Node34 -->
<g id="edge50" class="edge">
<title>Node22&#45;&gt;Node34</title>
<path fill="none" stroke="#191970" d="M812.8576,-246.2967C815.3005,-236.6685 818.4815,-224.1318 821.102,-213.8038"/>
<polygon fill="#191970" stroke="#191970" points="824.5086,-214.6086 823.5756,-204.055 817.7236,-212.887 824.5086,-214.6086"/>
</g>
<!-- Node24&#45;&gt;Node5 -->
<g id="edge47" class="edge">
<title>Node24&#45;&gt;Node5</title>
<path fill="none" stroke="#191970" d="M1500.4242,-184.9787C1489.9874,-182.663 1478.6071,-180.4409 1468,-179 1163.7111,-137.6635 1082.4657,-183.0138 778,-143 765.2547,-141.325 751.4233,-138.62 739.2622,-135.9351"/>
<polygon fill="#191970" stroke="#191970" points="740.0284,-132.5201 729.5003,-133.7076 738.471,-139.3446 740.0284,-132.5201"/>
</g>
<!-- Node24&#45;&gt;Node9 -->
<g id="edge38" class="edge">
<title>Node24&#45;&gt;Node9</title>
<path fill="none" stroke="#191970" d="M1500.0465,-184.9933C1489.7096,-182.7065 1478.4739,-180.4954 1468,-179 1226.8088,-144.5642 1162.2912,-176.7277 921,-143 913.6039,-141.9662 905.8348,-140.5973 898.248,-139.1"/>
<polygon fill="#191970" stroke="#191970" points="898.9268,-135.6664 888.426,-137.0751 897.5134,-142.5222 898.9268,-135.6664"/>
</g>
<!-- Node24&#45;&gt;Node10 -->
<g id="edge37" class="edge">
<title>Node24&#45;&gt;Node10</title>
<path fill="none" stroke="#191970" d="M1532.9281,-184.9742C1523.0167,-167.3791 1499.2834,-129.9457 1468,-112 1435.2306,-93.2019 1337.1067,-79.5925 1270.9572,-72.25"/>
<polygon fill="#191970" stroke="#191970" points="1270.9502,-68.7287 1260.6301,-71.1256 1270.1924,-75.6875 1270.9502,-68.7287"/>
</g>
<!-- Node25 -->
<g id="node26" class="node">
<title>Node25</title>
<polygon fill="none" stroke="#bfbfbf" points="1295,-112.5 1295,-142.5 1459,-142.5 1459,-112.5 1295,-112.5"/>
<text text-anchor="start" x="1303" y="-130.5" font-family="Helvetica,sans-Serif" font-size="10.00" fill="#000000">Math/GenVector/Displacement</text>
<text text-anchor="middle" x="1377" y="-119.5" font-family="Helvetica,sans-Serif" font-size="10.00" fill="#000000">Vector3D.h</text>
</g>
<!-- Node24&#45;&gt;Node25 -->
<g id="edge39" class="edge">
<title>Node24&#45;&gt;Node25</title>
<path fill="none" stroke="#191970" d="M1514.9326,-184.9005C1490.9245,-174.9096 1452.6954,-159.0006 1422.5663,-146.4624"/>
<polygon fill="#191970" stroke="#191970" points="1423.6743,-143.1325 1413.0971,-142.5218 1420.9848,-149.5953 1423.6743,-143.1325"/>
</g>
<!-- Node26 -->
<g id="node27" class="node">
<title>Node26</title>
<polygon fill="none" stroke="#bfbfbf" points="1515.5,-118 1515.5,-137 1704.5,-137 1704.5,-118 1515.5,-118"/>
<text text-anchor="middle" x="1610" y="-125" font-family="Helvetica,sans-Serif" font-size="10.00" fill="#000000">Math/GenVector/PositionVector3D.h</text>
</g>
<!-- Node24&#45;&gt;Node26 -->
<g id="edge40" class="edge">
<title>Node24&#45;&gt;Node26</title>
<path fill="none" stroke="#191970" d="M1548.3158,-184.9005C1559.7575,-174.2535 1578.4215,-156.8856 1592.2273,-144.0385"/>
<polygon fill="#191970" stroke="#191970" points="1594.7669,-146.4562 1599.7033,-137.0817 1589.9983,-141.3317 1594.7669,-146.4562"/>
</g>
<!-- Node27 -->
<g id="node28" class="node">
<title>Node27</title>
<polygon fill="none" stroke="#bfbfbf" points="1723,-118 1723,-137 1883,-137 1883,-118 1723,-118"/>
<text text-anchor="middle" x="1803" y="-125" font-family="Helvetica,sans-Serif" font-size="10.00" fill="#000000">Math/GenVector/Rotation3D.h</text>
</g>
<!-- Node24&#45;&gt;Node27 -->
<g id="edge41" class="edge">
<title>Node24&#45;&gt;Node27</title>
<path fill="none" stroke="#191970" d="M1575.6866,-184.9717C1622.8417,-173.0495 1703.6416,-152.6208 1755.1268,-139.6038"/>
<polygon fill="#191970" stroke="#191970" points="1756.1773,-142.9484 1765.0143,-137.1039 1754.4615,-136.1619 1756.1773,-142.9484"/>
</g>
<!-- Node28 -->
<g id="node29" class="node">
<title>Node28</title>
<polygon fill="none" stroke="#bfbfbf" points="1901,-118 1901,-137 2069,-137 2069,-118 1901,-118"/>
<text text-anchor="middle" x="1985" y="-125" font-family="Helvetica,sans-Serif" font-size="10.00" fill="#000000">Math/GenVector/Transform3D.h</text>
</g>
<!-- Node24&#45;&gt;Node28 -->
<g id="edge42" class="edge">
<title>Node24&#45;&gt;Node28</title>
<path fill="none" stroke="#191970" d="M1581.5203,-184.9263C1591.8138,-182.8229 1602.7718,-180.7143 1613,-179 1736.3081,-158.3331 1768.3156,-161.2803 1892,-143 1901.0375,-141.6643 1910.5548,-140.1742 1919.9131,-138.6606"/>
<polygon fill="#191970" stroke="#191970" points="1920.6712,-142.0833 1929.9752,-137.0152 1919.5414,-135.175 1920.6712,-142.0833"/>
</g>
<!-- Node29 -->
<g id="node30" class="node">
<title>Node29</title>
<polygon fill="none" stroke="#bfbfbf" points="2087.5,-118 2087.5,-137 2260.5,-137 2260.5,-118 2087.5,-118"/>
<text text-anchor="middle" x="2174" y="-125" font-family="Helvetica,sans-Serif" font-size="10.00" fill="#000000">Math/GenVector/Translation3D.h</text>
</g>
<!-- Node24&#45;&gt;Node29 -->
<g id="edge43" class="edge">
<title>Node24&#45;&gt;Node29</title>
<path fill="none" stroke="#191970" d="M1579.4904,-184.9492C1590.3478,-182.7185 1602.0731,-180.5458 1613,-179 1818.2416,-149.9657 1872.1728,-167.541 2078,-143 2088.3536,-141.7655 2099.2991,-140.2245 2109.9483,-138.5968"/>
<polygon fill="#191970" stroke="#191970" points="2110.7004,-142.0217 2120.0385,-137.0167 2109.6174,-135.106 2110.7004,-142.0217"/>
</g>
<!-- Node30 -->
<g id="node31" class="node">
<title>Node30</title>
<polygon fill="none" stroke="#bfbfbf" points="2279,-112.5 2279,-142.5 2443,-142.5 2443,-112.5 2279,-112.5"/>
<text text-anchor="start" x="2287" y="-130.5" font-family="Helvetica,sans-Serif" font-size="10.00" fill="#000000">Math/GenVector/Displacement</text>
<text text-anchor="middle" x="2361" y="-119.5" font-family="Helvetica,sans-Serif" font-size="10.00" fill="#000000">Vector2D.h</text>
</g>
<!-- Node24&#45;&gt;Node30 -->
<g id="edge44" class="edge">
<title>Node24&#45;&gt;Node30</title>
<path fill="none" stroke="#191970" d="M1578.6841,-184.9417C1589.7594,-182.6551 1601.7927,-180.4569 1613,-179 1899.7412,-141.7255 1977.6426,-174.8434 2268.7184,-143.0554"/>
<polygon fill="#191970" stroke="#191970" points="2269.1661,-146.5273 2278.7197,-141.9469 2268.395,-139.5699 2269.1661,-146.5273"/>
</g>
<!-- Node31 -->
<g id="node32" class="node">
<title>Node31</title>
<polygon fill="none" stroke="#bfbfbf" points="929.5,-118 929.5,-137 1118.5,-137 1118.5,-118 929.5,-118"/>
<text text-anchor="middle" x="1024" y="-125" font-family="Helvetica,sans-Serif" font-size="10.00" fill="#000000">Math/GenVector/PositionVector2D.h</text>
</g>
<!-- Node24&#45;&gt;Node31 -->
<g id="edge45" class="edge">
<title>Node24&#45;&gt;Node31</title>
<path fill="none" stroke="#191970" d="M1498.5389,-184.9489C1488.6123,-182.771 1477.9507,-180.6232 1468,-179 1318.0265,-154.5355 1278.7374,-162.2043 1128,-143 1117.3244,-141.6399 1106.0504,-140.0842 1095.0198,-138.4952"/>
<polygon fill="#191970" stroke="#191970" points="1095.3826,-135.0112 1084.9821,-137.0312 1094.3723,-141.9379 1095.3826,-135.0112"/>
</g>
<!-- Node32 -->
<g id="node33" class="node">
<title>Node32</title>
<polygon fill="none" stroke="#bfbfbf" points="2461,-118 2461,-137 2543,-137 2543,-118 2461,-118"/>
<text text-anchor="middle" x="2502" y="-125" font-family="Helvetica,sans-Serif" font-size="10.00" fill="#000000">TGeoMatrix.h</text>
</g>
<!-- Node24&#45;&gt;Node32 -->
<g id="edge46" class="edge">
<title>Node24&#45;&gt;Node32</title>
<path fill="none" stroke="#191970" d="M1578.2824,-184.9335C1589.4648,-182.6176 1601.6523,-180.4068 1613,-179 1983.3967,-133.0823 2084.2589,-206.7856 2452,-143 2456.5038,-142.2188 2461.1679,-141.1463 2465.7555,-139.927"/>
<polygon fill="#191970" stroke="#191970" points="2466.9531,-143.224 2475.5843,-137.0796 2465.0053,-136.5005 2466.9531,-143.224"/>
</g>
<!-- Node33 -->
<g id="node34" class="node">
<title>Node33</title>
<g id="a_node34"><a xlink:href="../../d1/da8/GPUROOTCartesianFwd_8h.html" target="_top" xlink:title="GPUROOTCartesianFwd.h">
<polygon fill="none" stroke="#000000" points="1137,-118 1137,-137 1277,-137 1277,-118 1137,-118"/>
<text text-anchor="middle" x="1207" y="-125" font-family="Helvetica,sans-Serif" font-size="10.00" fill="#000000">GPUROOTCartesianFwd.h</text>
</a>
</g>
</g>
<!-- Node24&#45;&gt;Node33 -->
<g id="edge48" class="edge">
<title>Node24&#45;&gt;Node33</title>
<path fill="none" stroke="#191970" d="M1495.8356,-184.9984C1486.6678,-182.9787 1477.0155,-180.8873 1468,-179 1458.0966,-176.9268 1339.4292,-153.5555 1265.5583,-139.0191"/>
<polygon fill="#191970" stroke="#191970" points="1265.9357,-135.5263 1255.4481,-137.0297 1264.5842,-142.3946 1265.9357,-135.5263"/>
</g>
<!-- Node33&#45;&gt;Node10 -->
<g id="edge49" class="edge">
<title>Node33&#45;&gt;Node10</title>
<path fill="none" stroke="#191970" d="M1207,-117.8906C1207,-109.3657 1207,-96.6392 1207,-85.9235"/>
<polygon fill="#191970" stroke="#191970" points="1210.5001,-85.7448 1207,-75.7449 1203.5001,-85.7449 1210.5001,-85.7448"/>
</g>
<!-- Node35&#45;&gt;Node6 -->
<g id="edge54" class="edge">
<title>Node35&#45;&gt;Node6</title>
<path fill="none" stroke="#191970" d="M1850.7628,-260.1372C1956.5999,-256.9135 2168.9471,-246.107 2345,-210 2439.7274,-190.5722 2462.5012,-179.6152 2552,-143 2553.1904,-142.513 2554.3981,-141.9992 2555.612,-141.4666"/>
<polygon fill="#191970" stroke="#191970" points="2557.2768,-144.552 2564.8518,-137.1446 2554.3108,-138.2113 2557.2768,-144.552"/>
</g>
<!-- Node35&#45;&gt;Node7 -->
<g id="edge56" class="edge">
<title>Node35&#45;&gt;Node7</title>
<path fill="none" stroke="#191970" d="M1768.9561,-251.9005C1751.6466,-240.8554 1723.0023,-222.5776 1702.6911,-209.6172"/>
<polygon fill="#191970" stroke="#191970" points="1704.3288,-206.5103 1694.016,-204.0817 1700.5633,-212.4113 1704.3288,-206.5103"/>
</g>
<!-- Node35&#45;&gt;Node16 -->
<g id="edge62" class="edge">
<title>Node35&#45;&gt;Node16</title>
<path fill="none" stroke="#191970" d="M1717.3694,-259.733C1444.1018,-252.4176 416.8291,-224.2228 272,-210 261.0494,-208.9246 249.4474,-207.377 238.2533,-205.6713"/>
<polygon fill="#191970" stroke="#191970" points="238.542,-202.1736 228.1182,-204.0694 237.4491,-209.0877 238.542,-202.1736"/>
</g>
<!-- Node35&#45;&gt;Node17 -->
<g id="edge53" class="edge">
<title>Node35&#45;&gt;Node17</title>
<path fill="none" stroke="#191970" d="M1717.0366,-257.6536C1592.2443,-250.0734 1328.738,-232.0138 1240,-210 1204.9926,-201.3155 1200.0993,-187.3052 1165,-179 950.7776,-128.3107 889.3176,-171.2499 671,-143 657.8082,-141.293 643.54,-138.8487 630.616,-136.4042"/>
<polygon fill="#191970" stroke="#191970" points="631.0692,-132.9269 620.5856,-134.4578 629.7357,-139.7987 631.0692,-132.9269"/>
</g>
<!-- Node35&#45;&gt;Node24 -->
<g id="edge65" class="edge">
<title>Node35&#45;&gt;Node24</title>
<path fill="none" stroke="#191970" d="M1749.0154,-251.9717C1705.4237,-240.0991 1630.8591,-219.7909 1583.0396,-206.7669"/>
<polygon fill="#191970" stroke="#191970" points="1583.8305,-203.3549 1573.2622,-204.1039 1581.9909,-210.1088 1583.8305,-203.3549"/>
</g>
<!-- Node35&#45;&gt;Node32 -->
<g id="edge58" class="edge">
<title>Node35&#45;&gt;Node32</title>
<path fill="none" stroke="#191970" d="M1774.0884,-251.8669C1757.9762,-235.0784 1729.8337,-200.227 1750,-179 1803.794,-122.3766 2375.103,-156.6691 2452,-143 2456.5005,-142.2 2461.1626,-141.116 2465.7491,-139.8906"/>
<polygon fill="#191970" stroke="#191970" points="2466.9494,-143.1867 2475.5768,-137.0371 2464.9975,-136.4643 2466.9494,-143.1867"/>
</g>
<!-- Node36 -->
<g id="node37" class="node">
<title>Node36</title>
<polygon fill="none" stroke="#bfbfbf" points="1934.5,-185 1934.5,-204 1975.5,-204 1975.5,-185 1934.5,-185"/>
<text text-anchor="middle" x="1955" y="-192" font-family="Helvetica,sans-Serif" font-size="10.00" fill="#000000">tuple</text>
</g>
<!-- Node35&#45;&gt;Node36 -->
<g id="edge55" class="edge">
<title>Node35&#45;&gt;Node36</title>
<path fill="none" stroke="#191970" d="M1814.1354,-251.9639C1843.2217,-242.4358 1888.2765,-226.8186 1926,-210 1926.9907,-209.5583 1927.994,-209.0968 1929.0027,-208.6209"/>
<polygon fill="#191970" stroke="#191970" points="1930.6592,-211.7057 1938.0274,-204.0926 1927.5197,-205.4492 1930.6592,-211.7057"/>
</g>
<!-- Node37 -->
<g id="node38" class="node">
<title>Node37</title>
<polygon fill="none" stroke="#bfbfbf" points="1994,-185 1994,-204 2078,-204 2078,-185 1994,-185"/>
<text text-anchor="middle" x="2036" y="-192" font-family="Helvetica,sans-Serif" font-size="10.00" fill="#000000">RStringView.h</text>
</g>
<!-- Node35&#45;&gt;Node37 -->
<g id="edge57" class="edge">
<title>Node35&#45;&gt;Node37</title>
<path fill="none" stroke="#191970" d="M1823.4223,-251.9462C1864.0485,-241.9726 1929.1497,-225.6337 1985,-210 1988.4003,-209.0482 1991.92,-208.0358 1995.4479,-207.0019"/>
<polygon fill="#191970" stroke="#191970" points="1996.7335,-210.2711 2005.3198,-204.0643 1994.7369,-203.5619 1996.7335,-210.2711"/>
</g>
<!-- Node38 -->
<g id="node39" class="node">
<title>Node38</title>
<polygon fill="none" stroke="#bfbfbf" points="2096.5,-185 2096.5,-204 2163.5,-204 2163.5,-185 2096.5,-185"/>
<text text-anchor="middle" x="2130" y="-192" font-family="Helvetica,sans-Serif" font-size="10.00" fill="#000000">TNamed.h</text>
</g>
<!-- Node35&#45;&gt;Node38 -->
<g id="edge59" class="edge">
<title>Node35&#45;&gt;Node38</title>
<path fill="none" stroke="#191970" d="M1850.6255,-253.6386C1912.5046,-245.5242 2006.8849,-231.0691 2087,-210 2089.9739,-209.2179 2093.0327,-208.3175 2096.0825,-207.3524"/>
<polygon fill="#191970" stroke="#191970" points="2097.3221,-210.6281 2105.6789,-204.1155 2095.0848,-203.9952 2097.3221,-210.6281"/>
</g>
<!-- Node39 -->
<g id="node40" class="node">
<title>Node39</title>
<polygon fill="none" stroke="#bfbfbf" points="2182,-185 2182,-204 2250,-204 2250,-185 2182,-185"/>
<text text-anchor="middle" x="2216" y="-192" font-family="Helvetica,sans-Serif" font-size="10.00" fill="#000000">TParticle.h</text>
</g>
<!-- Node35&#45;&gt;Node39 -->
<g id="edge60" class="edge">
<title>Node35&#45;&gt;Node39</title>
<path fill="none" stroke="#191970" d="M1850.5277,-257.0516C1928.626,-250.8312 2061.6339,-237.1111 2173,-210 2176.1612,-209.2304 2179.4128,-208.3098 2182.6447,-207.3062"/>
<polygon fill="#191970" stroke="#191970" points="2183.8012,-210.61 2192.1715,-204.1147 2181.5776,-203.9726 2183.8012,-210.61"/>
</g>
<!-- Node40 -->
<g id="node41" class="node">
<title>Node40</title>
<polygon fill="none" stroke="#bfbfbf" points="2268,-185 2268,-204 2336,-204 2336,-185 2268,-185"/>
<text text-anchor="middle" x="2302" y="-192" font-family="Helvetica,sans-Serif" font-size="10.00" fill="#000000">TVector3.h</text>
</g>
<!-- Node35&#45;&gt;Node40 -->
<g id="edge61" class="edge">
<title>Node35&#45;&gt;Node40</title>
<path fill="none" stroke="#191970" d="M1850.5236,-259.271C1943.1524,-255.0449 2115.7449,-243.0867 2259,-210 2262.2474,-209.25 2265.5867,-208.3288 2268.9002,-207.3129"/>
<polygon fill="#191970" stroke="#191970" points="2270.2705,-210.5454 2278.6463,-204.0572 2268.0525,-203.906 2270.2705,-210.5454"/>
</g>
<!-- Node41 -->
<g id="node42" class="node">
<title>Node41</title>
<g id="a_node42"><a xlink:href="../../db/dcf/EMCAL_2base_2include_2EMCALBase_2GeometryBase_8h.html" target="_top" xlink:title="EMCALBase/GeometryBase.h">
<polygon fill="none" stroke="#000000" points="1759,-185 1759,-204 1917,-204 1917,-185 1759,-185"/>
<text text-anchor="middle" x="1838" y="-192" font-family="Helvetica,sans-Serif" font-size="10.00" fill="#000000">EMCALBase/GeometryBase.h</text>
</a>
</g>
</g>
<!-- Node35&#45;&gt;Node41 -->
<g id="edge63" class="edge">
<title>Node35&#45;&gt;Node41</title>
<path fill="none" stroke="#191970" d="M1791.7369,-251.9005C1800.0775,-241.552 1813.5354,-224.8542 1823.7912,-212.1295"/>
<polygon fill="#191970" stroke="#191970" points="1826.7273,-214.064 1830.2775,-204.0817 1821.2771,-209.6713 1826.7273,-214.064"/>
</g>
<!-- Node41&#45;&gt;Node6 -->
<g id="edge64" class="edge">
<title>Node41&#45;&gt;Node6</title>
<path fill="none" stroke="#191970" d="M1886.2652,-184.952C1899.1326,-182.6937 1913.0565,-180.5069 1926,-179 2202.8124,-146.774 2282.7238,-214.7908 2552,-143 2553.9187,-142.4885 2555.8578,-141.8513 2557.7802,-141.1293"/>
<polygon fill="#191970" stroke="#191970" points="2559.3603,-144.2573 2567.0813,-137.0022 2556.5211,-137.8589 2559.3603,-144.2573"/>
</g>
<!-- Node42&#45;&gt;Node1 -->
<g id="edge68" class="edge">
<title>Node42&#45;&gt;Node1</title>
<path fill="none" stroke="#191970" d="M701.6065,-313.0912C700.5399,-297.4821 696.5918,-266.8067 682,-246 670.8095,-230.0433 652.9826,-217.5042 637.5165,-208.7953"/>
<polygon fill="#191970" stroke="#191970" points="638.7437,-205.4835 628.2722,-203.8714 635.4529,-211.6617 638.7437,-205.4835"/>
</g>
<!-- Node42&#45;&gt;Node2 -->
<g id="edge69" class="edge">
<title>Node42&#45;&gt;Node2</title>
<path fill="none" stroke="#191970" d="M774.8977,-313.493C822.5977,-305.8644 879.253,-293.6699 897,-277 914.2448,-260.8019 919.7248,-233.149 921.3941,-214.3655"/>
<polygon fill="#191970" stroke="#191970" points="924.8962,-214.4338 922.0046,-204.2412 917.9089,-214.0124 924.8962,-214.4338"/>
</g>
<!-- Node42&#45;&gt;Node3 -->
<g id="edge70" class="edge">
<title>Node42&#45;&gt;Node3</title>
<path fill="none" stroke="#191970" d="M653.7367,-313.4935C630.4275,-306.7428 603.5595,-295.4804 585,-277 530.0926,-222.3267 509.9841,-127.2497 503.6042,-86.0222"/>
<polygon fill="#191970" stroke="#191970" points="507.0367,-85.3015 502.1513,-75.9002 500.1077,-86.2961 507.0367,-85.3015"/>
</g>
<!-- Node42&#45;&gt;Node4 -->
<g id="edge72" class="edge">
<title>Node42&#45;&gt;Node4</title>
<path fill="none" stroke="#191970" d="M758.3205,-313.4581C823.329,-302.4443 930.1112,-284.3531 998.9711,-272.6867"/>
<polygon fill="#191970" stroke="#191970" points="999.5713,-276.135 1008.8461,-271.0137 998.4019,-269.2333 999.5713,-276.135"/>
</g>
<!-- Node42&#45;&gt;Node14 -->
<g id="edge73" class="edge">
<title>Node42&#45;&gt;Node14</title>
<path fill="none" stroke="#191970" d="M659.1778,-313.4581C610.53,-302.6181 531.115,-284.9224 478.7042,-273.2439"/>
<polygon fill="#191970" stroke="#191970" points="479.4445,-269.8231 468.9226,-271.0643 477.922,-276.6555 479.4445,-269.8231"/>
</g>
<!-- Node42&#45;&gt;Node20 -->
<g id="edge74" class="edge">
<title>Node42&#45;&gt;Node20</title>
<path fill="none" stroke="#191970" d="M624.7709,-313.7596C529.2227,-302.3272 367.2562,-282.948 269.6923,-271.2745"/>
<polygon fill="#191970" stroke="#191970" points="269.927,-267.7777 259.5819,-270.0648 269.0953,-274.7281 269.927,-267.7777"/>
</g>
<!-- Node42&#45;&gt;Node22 -->
<g id="edge75" class="edge">
<title>Node42&#45;&gt;Node22</title>
<path fill="none" stroke="#191970" d="M718.7188,-313.3906C733.4681,-304.9132 755.4462,-292.2809 774.0244,-281.6028"/>
<polygon fill="#191970" stroke="#191970" points="775.899,-284.5623 782.8249,-276.5446 772.4108,-278.4933 775.899,-284.5623"/>
</g>
<!-- Node42&#45;&gt;Node24 -->
<g id="edge77" class="edge">
<title>Node42&#45;&gt;Node24</title>
<path fill="none" stroke="#191970" d="M779.334,-317.6643C869.4213,-310.8592 1022.5679,-297.4619 1153,-277 1294.4024,-254.8171 1328.1253,-240.3611 1468,-210 1473.4738,-208.8119 1479.1861,-207.5625 1484.8839,-206.3102"/>
<polygon fill="#191970" stroke="#191970" points="1486.0576,-209.6356 1495.0699,-204.0653 1484.5509,-202.7996 1486.0576,-209.6356"/>
</g>
<!-- Node42&#45;&gt;Node35 -->
<g id="edge76" class="edge">
<title>Node42&#45;&gt;Node35</title>
<path fill="none" stroke="#191970" d="M779.3805,-318.6018C978.8162,-307.266 1508.5856,-277.1543 1707.2846,-265.8604"/>
<polygon fill="#191970" stroke="#191970" points="1707.56,-269.3505 1717.3452,-265.2886 1707.1627,-262.3618 1707.56,-269.3505"/>
</g>
<!-- Node43 -->
<g id="node44" class="node">
<title>Node43</title>
<polygon fill="none" stroke="#bfbfbf" points="594.5,-252 594.5,-271 673.5,-271 673.5,-252 594.5,-252"/>
<text text-anchor="middle" x="634" y="-259" font-family="Helvetica,sans-Serif" font-size="10.00" fill="#000000">fmt/format.h</text>
</g>
<!-- Node42&#45;&gt;Node43 -->
<g id="edge71" class="edge">
<title>Node42&#45;&gt;Node43</title>
<path fill="none" stroke="#191970" d="M691.375,-313.3906C680.9569,-303.9683 664.8636,-289.4134 652.3696,-278.1137"/>
<polygon fill="#191970" stroke="#191970" points="654.5392,-275.3568 644.7748,-271.2449 649.8438,-280.5484 654.5392,-275.3568"/>
</g>
</g>
</svg>
