<?xml version="1.0" encoding="UTF-8" standalone="no"?>
<!DOCTYPE svg PUBLIC "-//W3C//DTD SVG 1.1//EN"
 "http://www.w3.org/Graphics/SVG/1.1/DTD/svg11.dtd">
<!-- Generated by graphviz version 2.40.1 (20161225.0304)
 -->
<!-- Title: /home/travis/build/AliceO2Group/AliceO2/Detectors/ITSMFT/MFT/base/src/Flex.cxx Pages: 1 -->
<!--zoomable 352 -->
<svg id="main" version="1.1" xmlns="http://www.w3.org/2000/svg" xmlns:xlink="http://www.w3.org/1999/xlink" xml:space="preserve" onload="init(evt)">
<style type="text/css"><![CDATA[
.edge:hover path { stroke: red; }
.edge:hover polygon { stroke: red; fill: red; }
]]></style>
<script type="text/javascript"><![CDATA[
var edges = document.getElementsByTagName('g');
if (edges && edges.length) {
  for (var i=0;i<edges.length;i++) {
    if (edges[i].id.substr(0,4)=='edge') {
      edges[i].setAttribute('class','edge');
    }
  }
}
]]></script>
        <defs>
                <circle id="rim" cx="0" cy="0" r="7"/>
                <circle id="rim2" cx="0" cy="0" r="3.5"/>
                <g id="zoomPlus">
                        <use xlink:href="#rim" fill="#404040">
                                <set attributeName="fill" to="#808080" begin="zoomplus.mouseover" end="zoomplus.mouseout"/>
                        </use>
                        <path d="M-4,0h8M0,-4v8" fill="none" stroke="white" stroke-width="1.5" pointer-events="none"/>
                </g>
                <g id="zoomMin">
                        <use xlink:href="#rim" fill="#404040">
                                <set attributeName="fill" to="#808080" begin="zoomminus.mouseover" end="zoomminus.mouseout"/>
                        </use>
                        <path d="M-4,0h8" fill="none" stroke="white" stroke-width="1.5" pointer-events="none"/>
                </g>
                <g id="dirArrow">
                        <path fill="none" stroke="white" stroke-width="1.5" d="M0,-3.0v7 M-2.5,-0.5L0,-3.0L2.5,-0.5"/>
                </g>
               <g id="resetDef">
                       <use xlink:href="#rim2" fill="#404040">
                               <set attributeName="fill" to="#808080" begin="reset.mouseover" end="reset.mouseout"/>
                       </use>
               </g>
        </defs>

<script type="text/javascript">
var viewWidth = 2535;
var viewHeight = 352;
var sectionId = 'dynsection-0';
</script>
<script xlink:href="../../svgpan.js"/>
<svg id="graph" class="graph">
<g id="viewport">
<title>/home/travis/build/AliceO2Group/AliceO2/Detectors/ITSMFT/MFT/base/src/Flex.cxx</title>
<!-- Node0 -->
<g id="node1" class="node">
<title>Node0</title>
<polygon fill="#bfbfbf" stroke="#000000" points="833.5,-291.5 833.5,-343.5 960.5,-343.5 960.5,-291.5 833.5,-291.5"/>
<text text-anchor="start" x="841.5" y="-331.5" font-family="Helvetica,sans-Serif" font-size="10.00" fill="#000000">/home/travis/build</text>
<text text-anchor="start" x="841.5" y="-320.5" font-family="Helvetica,sans-Serif" font-size="10.00" fill="#000000">/AliceO2Group/AliceO2</text>
<text text-anchor="start" x="841.5" y="-309.5" font-family="Helvetica,sans-Serif" font-size="10.00" fill="#000000">/Detectors/ITSMFT/MFT</text>
<text text-anchor="middle" x="897" y="-298.5" font-family="Helvetica,sans-Serif" font-size="10.00" fill="#000000">/base/src/Flex.cxx</text>
</g>
<!-- Node1 -->
<g id="node2" class="node">
<title>Node1</title>
<polygon fill="none" stroke="#bfbfbf" points="15,-235.5 15,-254.5 107,-254.5 107,-235.5 15,-235.5"/>
<text text-anchor="middle" x="61" y="-242.5" font-family="Helvetica,sans-Serif" font-size="10.00" fill="#000000">TGeoManager.h</text>
</g>
<!-- Node0&#45;&gt;Node1 -->
<g id="edge1" class="edge">
<title>Node0&#45;&gt;Node1</title>
<path fill="none" stroke="#191970" d="M833.4446,-314.2111C700.7278,-306.9407 384.5878,-287.5211 121,-255 119.7325,-254.8436 118.4508,-254.6797 117.1591,-254.5093"/>
<polygon fill="#191970" stroke="#191970" points="117.5215,-251.0258 107.1304,-253.0936 116.543,-257.9571 117.5215,-251.0258"/>
</g>
<!-- Node2 -->
<g id="node3" class="node">
<title>Node2</title>
<polygon fill="none" stroke="#bfbfbf" points="0,-179.5 0,-198.5 88,-198.5 88,-179.5 0,-179.5"/>
<text text-anchor="middle" x="44" y="-186.5" font-family="Helvetica,sans-Serif" font-size="10.00" fill="#000000">TGeoVolume.h</text>
</g>
<!-- Node0&#45;&gt;Node2 -->
<g id="edge2" class="edge">
<title>Node0&#45;&gt;Node2</title>
<path fill="none" stroke="#191970" d="M833.3264,-315.8395C677.3469,-311.1815 279.7331,-295.5768 154,-255 144.7803,-252.0246 97.2764,-222.6035 67.7901,-204.0609"/>
<polygon fill="#191970" stroke="#191970" points="69.606,-201.0683 59.28,-198.6969 65.8734,-206.9901 69.606,-201.0683"/>
</g>
<!-- Node3 -->
<g id="node4" class="node">
<title>Node3</title>
<polygon fill="none" stroke="#bfbfbf" points="935.5,-235.5 935.5,-254.5 1006.5,-254.5 1006.5,-235.5 935.5,-235.5"/>
<text text-anchor="middle" x="971" y="-242.5" font-family="Helvetica,sans-Serif" font-size="10.00" fill="#000000">TGeoTrd2.h</text>
</g>
<!-- Node0&#45;&gt;Node3 -->
<g id="edge3" class="edge">
<title>Node0&#45;&gt;Node3</title>
<path fill="none" stroke="#191970" d="M923.7157,-291.3258C933.8339,-281.4127 945.0668,-270.4075 954.0445,-261.6118"/>
<polygon fill="#191970" stroke="#191970" points="956.575,-264.0324 961.2687,-254.534 951.6762,-259.0322 956.575,-264.0324"/>
</g>
<!-- Node4 -->
<g id="node5" class="node">
<title>Node4</title>
<polygon fill="none" stroke="#bfbfbf" points="679,-56.5 679,-75.5 761,-75.5 761,-56.5 679,-56.5"/>
<text text-anchor="middle" x="720" y="-63.5" font-family="Helvetica,sans-Serif" font-size="10.00" fill="#000000">TGeoMatrix.h</text>
</g>
<!-- Node0&#45;&gt;Node4 -->
<g id="edge4" class="edge">
<title>Node0&#45;&gt;Node4</title>
<path fill="none" stroke="#191970" d="M833.099,-302.8196C788.7945,-291.206 735.434,-273.8504 722,-255 703.032,-228.3844 712.3719,-128.7546 717.4503,-85.8536"/>
<polygon fill="#191970" stroke="#191970" points="720.9393,-86.1566 718.6864,-75.8041 713.9917,-85.3019 720.9393,-86.1566"/>
</g>
<!-- Node5 -->
<g id="node6" class="node">
<title>Node5</title>
<polygon fill="none" stroke="#bfbfbf" points="1024.5,-235.5 1024.5,-254.5 1101.5,-254.5 1101.5,-235.5 1024.5,-235.5"/>
<text text-anchor="middle" x="1063" y="-242.5" font-family="Helvetica,sans-Serif" font-size="10.00" fill="#000000">TGeoBBox.h</text>
</g>
<!-- Node0&#45;&gt;Node5 -->
<g id="edge5" class="edge">
<title>Node0&#45;&gt;Node5</title>
<path fill="none" stroke="#191970" d="M956.9298,-291.3258C982.2641,-280.2612 1010.7133,-267.8361 1031.7662,-258.6413"/>
<polygon fill="#191970" stroke="#191970" points="1033.4072,-261.7439 1041.1704,-254.534 1030.6055,-255.329 1033.4072,-261.7439"/>
</g>
<!-- Node6 -->
<g id="node7" class="node">
<title>Node6</title>
<polygon fill="none" stroke="#bfbfbf" points="1120,-235.5 1120,-254.5 1194,-254.5 1194,-235.5 1120,-235.5"/>
<text text-anchor="middle" x="1157" y="-242.5" font-family="Helvetica,sans-Serif" font-size="10.00" fill="#000000">TGeoTube.h</text>
</g>
<!-- Node0&#45;&gt;Node6 -->
<g id="edge6" class="edge">
<title>Node0&#45;&gt;Node6</title>
<path fill="none" stroke="#191970" d="M960.6032,-299.7645C1007.8243,-286.5971 1071.0224,-268.9745 1112.8224,-257.3188"/>
<polygon fill="#191970" stroke="#191970" points="1114.0121,-260.6206 1122.7045,-254.5632 1112.1319,-253.8778 1114.0121,-260.6206"/>
</g>
<!-- Node7 -->
<g id="node8" class="node">
<title>Node7</title>
<polygon fill="none" stroke="#bfbfbf" points="1212,-235.5 1212,-254.5 1346,-254.5 1346,-235.5 1212,-235.5"/>
<text text-anchor="middle" x="1279" y="-242.5" font-family="Helvetica,sans-Serif" font-size="10.00" fill="#000000">TGeoCompositeShape.h</text>
</g>
<!-- Node0&#45;&gt;Node7 -->
<g id="edge7" class="edge">
<title>Node0&#45;&gt;Node7</title>
<path fill="none" stroke="#191970" d="M960.5083,-305.4467C1032.2929,-291.8227 1148.2946,-269.8066 1218.7202,-256.4405"/>
<polygon fill="#191970" stroke="#191970" points="1219.5975,-259.8366 1228.7695,-254.5333 1218.2922,-252.9594 1219.5975,-259.8366"/>
</g>
<!-- Node8 -->
<g id="node9" class="node">
<title>Node8</title>
<polygon fill="none" stroke="#bfbfbf" points="1364,-235.5 1364,-254.5 1462,-254.5 1462,-235.5 1364,-235.5"/>
<text text-anchor="middle" x="1413" y="-242.5" font-family="Helvetica,sans-Serif" font-size="10.00" fill="#000000">TGeoBoolNode.h</text>
</g>
<!-- Node0&#45;&gt;Node8 -->
<g id="edge8" class="edge">
<title>Node0&#45;&gt;Node8</title>
<path fill="none" stroke="#191970" d="M960.8219,-309.5096C1047.4253,-298.507 1207.2366,-277.6376 1353.8853,-255.1315"/>
<polygon fill="#191970" stroke="#191970" points="1354.6216,-258.5594 1363.9721,-253.5776 1353.5558,-251.641 1354.6216,-258.5594"/>
</g>
<!-- Node9 -->
<g id="node10" class="node">
<title>Node9</title>
<polygon fill="none" stroke="#bfbfbf" points="1480,-235.5 1480,-254.5 1536,-254.5 1536,-235.5 1480,-235.5"/>
<text text-anchor="middle" x="1508" y="-242.5" font-family="Helvetica,sans-Serif" font-size="10.00" fill="#000000">TMath.h</text>
</g>
<!-- Node0&#45;&gt;Node9 -->
<g id="edge9" class="edge">
<title>Node0&#45;&gt;Node9</title>
<path fill="none" stroke="#191970" d="M960.7527,-313.807C1065.3769,-307.0351 1280.0296,-290.1551 1469.94,-254.953"/>
<polygon fill="#191970" stroke="#191970" points="1470.639,-258.383 1479.8228,-253.1001 1469.349,-251.5029 1470.639,-258.383"/>
</g>
<!-- Node10 -->
<g id="node11" class="node">
<title>Node10</title>
<polygon fill="none" stroke="#bfbfbf" points="1554.5,-235.5 1554.5,-254.5 1629.5,-254.5 1629.5,-235.5 1554.5,-235.5"/>
<text text-anchor="middle" x="1592" y="-242.5" font-family="Helvetica,sans-Serif" font-size="10.00" fill="#000000">FairLogger.h</text>
</g>
<!-- Node0&#45;&gt;Node10 -->
<g id="edge10" class="edge">
<title>Node0&#45;&gt;Node10</title>
<path fill="none" stroke="#191970" d="M960.7633,-313.7592C1075.518,-306.5007 1324.519,-288.352 1544.2493,-254.9524"/>
<polygon fill="#191970" stroke="#191970" points="1545.0056,-258.3774 1554.3593,-253.4016 1543.9442,-251.4584 1545.0056,-258.3774"/>
</g>
<!-- Node11 -->
<g id="node12" class="node">
<title>Node11</title>
<g id="a_node12"><a xlink:href="../../d9/de7/LadderSegmentation_8h.html" target="_top" xlink:title="Description of the virtual segmentation of a ladder. ">
<polygon fill="none" stroke="#000000" points="415.5,-235.5 415.5,-254.5 588.5,-254.5 588.5,-235.5 415.5,-235.5"/>
<text text-anchor="middle" x="502" y="-242.5" font-family="Helvetica,sans-Serif" font-size="10.00" fill="#000000">MFTBase/LadderSegmentation.h</text>
</a>
</g>
</g>
<!-- Node0&#45;&gt;Node11 -->
<g id="edge11" class="edge">
<title>Node0&#45;&gt;Node11</title>
<path fill="none" stroke="#191970" d="M833.0974,-305.771C758.8578,-292.1448 637.2062,-269.8163 563.8528,-256.3527"/>
<polygon fill="#191970" stroke="#191970" points="564.3003,-252.8765 553.8328,-254.5136 563.0366,-259.7615 564.3003,-252.8765"/>
</g>
<!-- Node16 -->
<g id="node17" class="node">
<title>Node16</title>
<g id="a_node17"><a xlink:href="../../d3/dbd/ChipSegmentation_8h.html" target="_top" xlink:title="Chip (sensor) segmentation description. ">
<polygon fill="none" stroke="#000000" points="530,-179.5 530,-198.5 692,-198.5 692,-179.5 530,-179.5"/>
<text text-anchor="middle" x="611" y="-186.5" font-family="Helvetica,sans-Serif" font-size="10.00" fill="#000000">MFTBase/ChipSegmentation.h</text>
</a>
</g>
</g>
<!-- Node0&#45;&gt;Node16 -->
<g id="edge19" class="edge">
<title>Node0&#45;&gt;Node16</title>
<path fill="none" stroke="#191970" d="M833.3845,-305.5087C790.7828,-295.8007 734.4058,-279.6333 689,-255 665.3194,-242.1529 642.2835,-221.3199 627.462,-206.4981"/>
<polygon fill="#191970" stroke="#191970" points="629.6088,-203.6863 620.121,-198.971 624.5975,-208.5738 629.6088,-203.6863"/>
</g>
<!-- Node17 -->
<g id="node18" class="node">
<title>Node17</title>
<g id="a_node18"><a xlink:href="../../d2/d8d/Flex_8h.html" target="_top" xlink:title="Flex (Printed Cabled Board) class for ALICE MFT upgrade. ">
<polygon fill="none" stroke="#000000" points="1648,-235.5 1648,-254.5 1740,-254.5 1740,-235.5 1648,-235.5"/>
<text text-anchor="middle" x="1694" y="-242.5" font-family="Helvetica,sans-Serif" font-size="10.00" fill="#000000">MFTBase/Flex.h</text>
</a>
</g>
</g>
<!-- Node0&#45;&gt;Node17 -->
<g id="edge20" class="edge">
<title>Node0&#45;&gt;Node17</title>
<path fill="none" stroke="#191970" d="M960.7447,-314.1944C1087.6929,-307.1625 1381.2308,-288.6613 1637.5832,-255.0787"/>
<polygon fill="#191970" stroke="#191970" points="1638.3814,-258.5037 1647.8371,-253.7246 1637.465,-251.564 1638.3814,-258.5037"/>
</g>
<!-- Node18 -->
<g id="node19" class="node">
<title>Node18</title>
<g id="a_node19"><a xlink:href="../../d0/d12/Ladder_8h.html" target="_top" xlink:title="Class building the Ladder geometry. ">
<polygon fill="none" stroke="#000000" points="163,-235.5 163,-254.5 267,-254.5 267,-235.5 163,-235.5"/>
<text text-anchor="middle" x="215" y="-242.5" font-family="Helvetica,sans-Serif" font-size="10.00" fill="#000000">MFTBase/Ladder.h</text>
</a>
</g>
</g>
<!-- Node0&#45;&gt;Node18 -->
<g id="edge21" class="edge">
<title>Node0&#45;&gt;Node18</title>
<path fill="none" stroke="#191970" d="M833.4785,-312.0947C721.6258,-302.3449 482.2921,-280.4454 281,-255 279.7389,-254.8406 278.4646,-254.6765 277.1807,-254.5083"/>
<polygon fill="#191970" stroke="#191970" points="277.586,-251.0313 267.2057,-253.1526 276.6432,-257.9676 277.586,-251.0313"/>
</g>
<!-- Node19 -->
<g id="node20" class="node">
<title>Node19</title>
<g id="a_node20"><a xlink:href="../../d6/d2e/ITSMFT_2MFT_2base_2include_2MFTBase_2Geometry_8h.html" target="_top" xlink:title="MFTBase/Geometry.h">
<polygon fill="none" stroke="#000000" points="144.5,-179.5 144.5,-198.5 263.5,-198.5 263.5,-179.5 144.5,-179.5"/>
<text text-anchor="middle" x="204" y="-186.5" font-family="Helvetica,sans-Serif" font-size="10.00" fill="#000000">MFTBase/Geometry.h</text>
</a>
</g>
</g>
<!-- Node0&#45;&gt;Node19 -->
<g id="edge24" class="edge">
<title>Node0&#45;&gt;Node19</title>
<path fill="none" stroke="#191970" d="M833.3015,-313.2065C739.1849,-306.0025 557.8338,-288.8251 407,-255 346.1622,-241.3569 277.6121,-217.1403 237.7629,-202.1405"/>
<polygon fill="#191970" stroke="#191970" points="238.8635,-198.8147 228.2723,-198.5377 236.3791,-205.359 238.8635,-198.8147"/>
</g>
<!-- Node20 -->
<g id="node21" class="node">
<title>Node20</title>
<g id="a_node21"><a xlink:href="../../d3/dba/SegmentationAlpide_8h.html" target="_top" xlink:title="Definition of the SegmentationAlpide class. ">
<polygon fill="none" stroke="#000000" points="731,-235.5 731,-254.5 917,-254.5 917,-235.5 731,-235.5"/>
<text text-anchor="middle" x="824" y="-242.5" font-family="Helvetica,sans-Serif" font-size="10.00" fill="#000000">ITSMFTBase/SegmentationAlpide.h</text>
</a>
</g>
</g>
<!-- Node0&#45;&gt;Node20 -->
<g id="edge26" class="edge">
<title>Node0&#45;&gt;Node20</title>
<path fill="none" stroke="#191970" d="M870.6453,-291.3258C860.6638,-281.4127 849.5828,-270.4075 840.7264,-261.6118"/>
<polygon fill="#191970" stroke="#191970" points="843.1615,-259.0974 833.5998,-254.534 838.2287,-264.0641 843.1615,-259.0974"/>
</g>
<!-- Node12 -->
<g id="node13" class="node">
<title>Node12</title>
<polygon fill="none" stroke="#bfbfbf" points="281.5,-179.5 281.5,-198.5 370.5,-198.5 370.5,-179.5 281.5,-179.5"/>
<text text-anchor="middle" x="326" y="-186.5" font-family="Helvetica,sans-Serif" font-size="10.00" fill="#000000">TClonesArray.h</text>
</g>
<!-- Node11&#45;&gt;Node12 -->
<g id="edge12" class="edge">
<title>Node11&#45;&gt;Node12</title>
<path fill="none" stroke="#191970" d="M471.7445,-235.3733C442.3517,-226.021 397.5708,-211.7725 365.4066,-201.5385"/>
<polygon fill="#191970" stroke="#191970" points="366.4512,-198.198 355.8607,-198.5011 364.3287,-204.8685 366.4512,-198.198"/>
</g>
<!-- Node13 -->
<g id="node14" class="node">
<title>Node13</title>
<polygon fill="none" stroke="#bfbfbf" points="388.5,-179.5 388.5,-198.5 473.5,-198.5 473.5,-179.5 388.5,-179.5"/>
<text text-anchor="middle" x="431" y="-186.5" font-family="Helvetica,sans-Serif" font-size="10.00" fill="#000000">TXMLEngine.h</text>
</g>
<!-- Node11&#45;&gt;Node13 -->
<g id="edge13" class="edge">
<title>Node11&#45;&gt;Node13</title>
<path fill="none" stroke="#191970" d="M489.6327,-235.2455C479.0446,-226.8943 463.5936,-214.7076 451.2107,-204.9408"/>
<polygon fill="#191970" stroke="#191970" points="453.2447,-202.0875 443.2255,-198.6427 448.9097,-207.5837 453.2447,-202.0875"/>
</g>
<!-- Node14 -->
<g id="node15" class="node">
<title>Node14</title>
<g id="a_node15"><a xlink:href="../../d3/de7/VSegmentation_8h.html" target="_top" xlink:title="Abstract base class for MFT Segmentation description. ">
<polygon fill="none" stroke="#000000" points="482.5,-118 482.5,-137 629.5,-137 629.5,-118 482.5,-118"/>
<text text-anchor="middle" x="556" y="-125" font-family="Helvetica,sans-Serif" font-size="10.00" fill="#000000">MFTBase/VSegmentation.h</text>
</a>
</g>
</g>
<!-- Node11&#45;&gt;Node14 -->
<g id="edge14" class="edge">
<title>Node11&#45;&gt;Node14</title>
<path fill="none" stroke="#191970" d="M503.7958,-235.2586C506.4494,-222.0699 512.0879,-197.9993 521,-179 526.5665,-167.1332 534.7115,-154.9545 541.7438,-145.4214"/>
<polygon fill="#191970" stroke="#191970" points="544.7418,-147.2621 548.0246,-137.1886 539.1765,-143.0162 544.7418,-147.2621"/>
</g>
<!-- Node11&#45;&gt;Node16 -->
<g id="edge17" class="edge">
<title>Node11&#45;&gt;Node16</title>
<path fill="none" stroke="#191970" d="M520.9864,-235.2455C538.1792,-226.4125 563.7238,-213.2887 583.2132,-203.2758"/>
<polygon fill="#191970" stroke="#191970" points="584.9359,-206.3257 592.2312,-198.6427 581.737,-200.0993 584.9359,-206.3257"/>
</g>
<!-- Node14&#45;&gt;Node4 -->
<g id="edge16" class="edge">
<title>Node14&#45;&gt;Node4</title>
<path fill="none" stroke="#191970" d="M581.625,-117.8906C609.4263,-107.4652 653.9844,-90.7559 684.9994,-79.1252"/>
<polygon fill="#191970" stroke="#191970" points="686.4206,-82.3303 694.5549,-75.5419 683.9627,-75.776 686.4206,-82.3303"/>
</g>
<!-- Node15 -->
<g id="node16" class="node">
<title>Node15</title>
<polygon fill="none" stroke="#bfbfbf" points="170.5,-56.5 170.5,-75.5 237.5,-75.5 237.5,-56.5 170.5,-56.5"/>
<text text-anchor="middle" x="204" y="-63.5" font-family="Helvetica,sans-Serif" font-size="10.00" fill="#000000">TNamed.h</text>
</g>
<!-- Node14&#45;&gt;Node15 -->
<g id="edge15" class="edge">
<title>Node14&#45;&gt;Node15</title>
<path fill="none" stroke="#191970" d="M501.3862,-117.9581C431.5098,-105.7496 311.8609,-84.845 247.6957,-73.6343"/>
<polygon fill="#191970" stroke="#191970" points="247.9666,-70.1287 237.5134,-71.8553 246.7618,-77.0243 247.9666,-70.1287"/>
</g>
<!-- Node16&#45;&gt;Node14 -->
<g id="edge18" class="edge">
<title>Node16&#45;&gt;Node14</title>
<path fill="none" stroke="#191970" d="M602.4063,-179.3906C594.1403,-170.1478 581.4574,-155.966 571.4383,-144.7628"/>
<polygon fill="#191970" stroke="#191970" points="573.99,-142.3657 564.7149,-137.2449 568.7722,-147.0321 573.99,-142.3657"/>
</g>
<!-- Node18&#45;&gt;Node2 -->
<g id="edge23" class="edge">
<title>Node18&#45;&gt;Node2</title>
<path fill="none" stroke="#191970" d="M185.6041,-235.3733C157.1693,-226.0613 113.9123,-211.8953 82.6919,-201.671"/>
<polygon fill="#191970" stroke="#191970" points="83.605,-198.2872 73.0124,-198.5011 81.4264,-204.9396 83.605,-198.2872"/>
</g>
<!-- Node18&#45;&gt;Node15 -->
<g id="edge22" class="edge">
<title>Node18&#45;&gt;Node15</title>
<path fill="none" stroke="#191970" d="M183.11,-235.4777C165.5823,-228.43 145.3495,-216.8893 135,-199 111.1696,-157.8086 156.6349,-107.5695 184.5259,-82.2493"/>
<polygon fill="#191970" stroke="#191970" points="186.9894,-84.7438 192.1882,-75.5122 182.3672,-79.4869 186.9894,-84.7438"/>
</g>
<!-- Node19&#45;&gt;Node15 -->
<g id="edge25" class="edge">
<title>Node19&#45;&gt;Node15</title>
<path fill="none" stroke="#191970" d="M204,-179.3484C204,-159.2295 204,-112.4608 204,-85.7098"/>
<polygon fill="#191970" stroke="#191970" points="207.5001,-85.6067 204,-75.6068 200.5001,-85.6068 207.5001,-85.6067"/>
</g>
<!-- Node21 -->
<g id="node22" class="node">
<title>Node21</title>
<polygon fill="none" stroke="#bfbfbf" points="2372.5,-56.5 2372.5,-75.5 2431.5,-75.5 2431.5,-56.5 2372.5,-56.5"/>
<text text-anchor="middle" x="2402" y="-63.5" font-family="Helvetica,sans-Serif" font-size="10.00" fill="#000000">Rtypes.h</text>
</g>
<!-- Node20&#45;&gt;Node21 -->
<g id="edge27" class="edge">
<title>Node20&#45;&gt;Node21</title>
<path fill="none" stroke="#191970" d="M917.1801,-235.7412C920.4932,-235.4796 923.7744,-235.2314 927,-235 1103.8407,-222.3163 2398.9905,-272.577 2520,-143 2529.4038,-132.9304 2527.7743,-123.3748 2520,-112 2510.7481,-98.4633 2472.227,-85.0867 2441.68,-76.2779"/>
<polygon fill="#191970" stroke="#191970" points="2442.2539,-72.8038 2431.6801,-73.4721 2440.3628,-79.5435 2442.2539,-72.8038"/>
</g>
<!-- Node22 -->
<g id="node23" class="node">
<title>Node22</title>
<g id="a_node23"><a xlink:href="../../dc/d73/Cartesian_8h.html" target="_top" xlink:title="MathUtils/Cartesian.h">
<polygon fill="none" stroke="#000000" points="1571,-179.5 1571,-198.5 1693,-198.5 1693,-179.5 1571,-179.5"/>
<text text-anchor="middle" x="1632" y="-186.5" font-family="Helvetica,sans-Serif" font-size="10.00" fill="#000000">MathUtils/Cartesian.h</text>
</a>
</g>
</g>
<!-- Node20&#45;&gt;Node22 -->
<g id="edge28" class="edge">
<title>Node20&#45;&gt;Node22</title>
<path fill="none" stroke="#191970" d="M917.1861,-235.8196C920.4975,-235.5358 923.7767,-235.2616 927,-235 1158.5148,-216.2132 1433.2906,-200.0494 1560.6384,-192.9082"/>
<polygon fill="#191970" stroke="#191970" points="1560.8674,-196.401 1570.6564,-192.348 1560.4766,-189.4119 1560.8674,-196.401"/>
</g>
<!-- Node22&#45;&gt;Node4 -->
<g id="edge41" class="edge">
<title>Node22&#45;&gt;Node4</title>
<path fill="none" stroke="#191970" d="M1570.818,-188.6672C1386.9029,-187.2572 847.4111,-179.9799 778,-143 754.3208,-130.3845 737.5536,-103.3734 728.3273,-84.9436"/>
<polygon fill="#191970" stroke="#191970" points="731.4142,-83.2837 723.9815,-75.7336 725.0836,-86.2709 731.4142,-83.2837"/>
</g>
<!-- Node23 -->
<g id="node24" class="node">
<title>Node23</title>
<g id="a_node24"><a xlink:href="../../df/d21/GPUCommonDef_8h.html" target="_top" xlink:title="GPUCommonDef.h">
<polygon fill="none" stroke="#000000" points="2067.5,-56.5 2067.5,-75.5 2174.5,-75.5 2174.5,-56.5 2067.5,-56.5"/>
<text text-anchor="middle" x="2121" y="-63.5" font-family="Helvetica,sans-Serif" font-size="10.00" fill="#000000">GPUCommonDef.h</text>
</a>
</g>
</g>
<!-- Node22&#45;&gt;Node23 -->
<g id="edge29" class="edge">
<title>Node22&#45;&gt;Node23</title>
<path fill="none" stroke="#191970" d="M1693.3044,-188.1658C1824.9466,-185.7377 2125.2725,-176.5431 2156,-143 2171.8548,-125.6924 2154.2653,-99.9788 2138.8148,-83.104"/>
<polygon fill="#191970" stroke="#191970" points="2141.0273,-80.3573 2131.5578,-75.6056 2135.9972,-85.2254 2141.0273,-80.3573"/>
</g>
<!-- Node26 -->
<g id="node27" class="node">
<title>Node26</title>
<g id="a_node27"><a xlink:href="../../d2/d45/GPUCommonRtypes_8h.html" target="_top" xlink:title="GPUCommonRtypes.h">
<polygon fill="none" stroke="#000000" points="2203.5,-118 2203.5,-137 2328.5,-137 2328.5,-118 2203.5,-118"/>
<text text-anchor="middle" x="2266" y="-125" font-family="Helvetica,sans-Serif" font-size="10.00" fill="#000000">GPUCommonRtypes.h</text>
</a>
</g>
</g>
<!-- Node22&#45;&gt;Node26 -->
<g id="edge32" class="edge">
<title>Node22&#45;&gt;Node26</title>
<path fill="none" stroke="#191970" d="M1693.2501,-186.2739C1796.0924,-181.1756 2009.8217,-168.3454 2189,-143 2196.7846,-141.8988 2204.9685,-140.5075 2212.9769,-139.0124"/>
<polygon fill="#191970" stroke="#191970" points="2213.8302,-142.4124 2222.9838,-137.0774 2212.5011,-135.5397 2213.8302,-142.4124"/>
</g>
<!-- Node27 -->
<g id="node28" class="node">
<title>Node27</title>
<polygon fill="none" stroke="#bfbfbf" points="2347,-112.5 2347,-142.5 2511,-142.5 2511,-112.5 2347,-112.5"/>
<text text-anchor="start" x="2355" y="-130.5" font-family="Helvetica,sans-Serif" font-size="10.00" fill="#000000">Math/GenVector/Displacement</text>
<text text-anchor="middle" x="2429" y="-119.5" font-family="Helvetica,sans-Serif" font-size="10.00" fill="#000000">Vector3D.h</text>
</g>
<!-- Node22&#45;&gt;Node27 -->
<g id="edge34" class="edge">
<title>Node22&#45;&gt;Node27</title>
<path fill="none" stroke="#191970" d="M1693.1045,-187.1512C1814.0563,-183.0278 2092.6679,-171.2256 2336.5924,-143.0881"/>
<polygon fill="#191970" stroke="#191970" points="2337.1876,-146.5425 2346.7153,-141.9086 2336.3774,-139.5895 2337.1876,-146.5425"/>
</g>
<!-- Node28 -->
<g id="node29" class="node">
<title>Node28</title>
<polygon fill="none" stroke="#bfbfbf" points="786.5,-118 786.5,-137 975.5,-137 975.5,-118 786.5,-118"/>
<text text-anchor="middle" x="881" y="-125" font-family="Helvetica,sans-Serif" font-size="10.00" fill="#000000">Math/GenVector/PositionVector3D.h</text>
</g>
<!-- Node22&#45;&gt;Node28 -->
<g id="edge35" class="edge">
<title>Node22&#45;&gt;Node28</title>
<path fill="none" stroke="#191970" d="M1570.754,-186.2195C1455.7282,-180.6484 1199.6372,-166.5893 985,-143 973.5618,-141.7429 961.451,-140.1651 949.6923,-138.5008"/>
<polygon fill="#191970" stroke="#191970" points="949.8736,-134.9906 939.4753,-137.0218 948.8707,-141.9184 949.8736,-134.9906"/>
</g>
<!-- Node29 -->
<g id="node30" class="node">
<title>Node29</title>
<polygon fill="none" stroke="#bfbfbf" points="994,-118 994,-137 1154,-137 1154,-118 994,-118"/>
<text text-anchor="middle" x="1074" y="-125" font-family="Helvetica,sans-Serif" font-size="10.00" fill="#000000">Math/GenVector/Rotation3D.h</text>
</g>
<!-- Node22&#45;&gt;Node29 -->
<g id="edge36" class="edge">
<title>Node22&#45;&gt;Node29</title>
<path fill="none" stroke="#191970" d="M1570.7462,-184.4599C1481.0294,-177.4779 1308.7212,-162.8073 1163,-143 1153.8696,-141.7589 1144.2426,-140.2712 1134.8278,-138.7153"/>
<polygon fill="#191970" stroke="#191970" points="1135.1719,-135.2239 1124.7285,-137.0087 1134.0056,-142.1261 1135.1719,-135.2239"/>
</g>
<!-- Node30 -->
<g id="node31" class="node">
<title>Node30</title>
<polygon fill="none" stroke="#bfbfbf" points="1172,-118 1172,-137 1340,-137 1340,-118 1172,-118"/>
<text text-anchor="middle" x="1256" y="-125" font-family="Helvetica,sans-Serif" font-size="10.00" fill="#000000">Math/GenVector/Transform3D.h</text>
</g>
<!-- Node22&#45;&gt;Node30 -->
<g id="edge37" class="edge">
<title>Node22&#45;&gt;Node30</title>
<path fill="none" stroke="#191970" d="M1573.3946,-179.4705C1516.3529,-170.1881 1427.2209,-155.6648 1350,-143 1341.4617,-141.5997 1332.4877,-140.1244 1323.6127,-138.6633"/>
<polygon fill="#191970" stroke="#191970" points="1324.099,-135.1963 1313.6631,-137.0244 1322.9612,-142.1032 1324.099,-135.1963"/>
</g>
<!-- Node31 -->
<g id="node32" class="node">
<title>Node31</title>
<polygon fill="none" stroke="#bfbfbf" points="1358.5,-118 1358.5,-137 1531.5,-137 1531.5,-118 1358.5,-118"/>
<text text-anchor="middle" x="1445" y="-125" font-family="Helvetica,sans-Serif" font-size="10.00" fill="#000000">Math/GenVector/Translation3D.h</text>
</g>
<!-- Node22&#45;&gt;Node31 -->
<g id="edge38" class="edge">
<title>Node22&#45;&gt;Node31</title>
<path fill="none" stroke="#191970" d="M1602.7813,-179.3906C1570.6693,-168.8298 1518.951,-151.8208 1483.5392,-140.1747"/>
<polygon fill="#191970" stroke="#191970" points="1484.6065,-136.8413 1474.0136,-137.0419 1482.4196,-143.4909 1484.6065,-136.8413"/>
</g>
<!-- Node32 -->
<g id="node33" class="node">
<title>Node32</title>
<polygon fill="none" stroke="#bfbfbf" points="1550,-112.5 1550,-142.5 1714,-142.5 1714,-112.5 1550,-112.5"/>
<text text-anchor="start" x="1558" y="-130.5" font-family="Helvetica,sans-Serif" font-size="10.00" fill="#000000">Math/GenVector/Displacement</text>
<text text-anchor="middle" x="1632" y="-119.5" font-family="Helvetica,sans-Serif" font-size="10.00" fill="#000000">Vector2D.h</text>
</g>
<!-- Node22&#45;&gt;Node32 -->
<g id="edge39" class="edge">
<title>Node22&#45;&gt;Node32</title>
<path fill="none" stroke="#191970" d="M1632,-179.3906C1632,-172.2234 1632,-162.0862 1632,-152.671"/>
<polygon fill="#191970" stroke="#191970" points="1635.5001,-152.5446 1632,-142.5446 1628.5001,-152.5446 1635.5001,-152.5446"/>
</g>
<!-- Node33 -->
<g id="node34" class="node">
<title>Node33</title>
<polygon fill="none" stroke="#bfbfbf" points="1732.5,-118 1732.5,-137 1921.5,-137 1921.5,-118 1732.5,-118"/>
<text text-anchor="middle" x="1827" y="-125" font-family="Helvetica,sans-Serif" font-size="10.00" fill="#000000">Math/GenVector/PositionVector2D.h</text>
</g>
<!-- Node22&#45;&gt;Node33 -->
<g id="edge40" class="edge">
<title>Node22&#45;&gt;Node33</title>
<path fill="none" stroke="#191970" d="M1662.4688,-179.3906C1695.9544,-168.8298 1749.8853,-151.8208 1786.812,-140.1747"/>
<polygon fill="#191970" stroke="#191970" points="1788.261,-143.3877 1796.7452,-137.0419 1786.1555,-136.7118 1788.261,-143.3877"/>
</g>
<!-- Node34 -->
<g id="node35" class="node">
<title>Node34</title>
<polygon fill="none" stroke="#bfbfbf" points="1939.5,-118 1939.5,-137 1988.5,-137 1988.5,-118 1939.5,-118"/>
<text text-anchor="middle" x="1964" y="-125" font-family="Helvetica,sans-Serif" font-size="10.00" fill="#000000">iosfwd</text>
</g>
<!-- Node22&#45;&gt;Node34 -->
<g id="edge42" class="edge">
<title>Node22&#45;&gt;Node34</title>
<path fill="none" stroke="#191970" d="M1693.2697,-184.7311C1754.5215,-179.2715 1850.8701,-167.4259 1931,-143 1932.8618,-142.4325 1934.7524,-141.7776 1936.6382,-141.0647"/>
<polygon fill="#191970" stroke="#191970" points="1938.0291,-144.2766 1945.8692,-137.1504 1935.2963,-137.8321 1938.0291,-144.2766"/>
</g>
<!-- Node35 -->
<g id="node36" class="node">
<title>Node35</title>
<g id="a_node36"><a xlink:href="../../d1/da8/GPUROOTCartesianFwd_8h.html" target="_top" xlink:title="GPUROOTCartesianFwd.h">
<polygon fill="none" stroke="#000000" points="2007,-118 2007,-137 2147,-137 2147,-118 2007,-118"/>
<text text-anchor="middle" x="2077" y="-125" font-family="Helvetica,sans-Serif" font-size="10.00" fill="#000000">GPUROOTCartesianFwd.h</text>
</a>
</g>
</g>
<!-- Node22&#45;&gt;Node35 -->
<g id="edge43" class="edge">
<title>Node22&#45;&gt;Node35</title>
<path fill="none" stroke="#191970" d="M1693.0568,-182.6245C1765.8646,-174.7223 1891.1416,-160.1773 1998,-143 2005.4841,-141.7969 2013.3429,-140.408 2021.0815,-138.9658"/>
<polygon fill="#191970" stroke="#191970" points="2021.9749,-142.3587 2031.1441,-137.0505 2020.666,-135.4822 2021.9749,-142.3587"/>
</g>
<!-- Node24 -->
<g id="node25" class="node">
<title>Node24</title>
<g id="a_node25"><a xlink:href="../../d5/d93/GPUCommonDefSettings_8h.html" target="_top" xlink:title="GPUCommonDefSettings.h">
<polygon fill="none" stroke="#000000" points="1970,-.5 1970,-19.5 2118,-19.5 2118,-.5 1970,-.5"/>
<text text-anchor="middle" x="2044" y="-7.5" font-family="Helvetica,sans-Serif" font-size="10.00" fill="#000000">GPUCommonDefSettings.h</text>
</a>
</g>
</g>
<!-- Node23&#45;&gt;Node24 -->
<g id="edge30" class="edge">
<title>Node23&#45;&gt;Node24</title>
<path fill="none" stroke="#191970" d="M2107.5876,-56.2455C2095.9943,-47.814 2079.0252,-35.4729 2065.5322,-25.6598"/>
<polygon fill="#191970" stroke="#191970" points="2067.4047,-22.6938 2057.2587,-19.6427 2063.2874,-28.355 2067.4047,-22.6938"/>
</g>
<!-- Node25 -->
<g id="node26" class="node">
<title>Node25</title>
<g id="a_node26"><a xlink:href="../../da/d5a/GPUCommonDefAPI_8h.html" target="_top" xlink:title="GPUCommonDefAPI.h">
<polygon fill="none" stroke="#000000" points="2136,-.5 2136,-19.5 2260,-19.5 2260,-.5 2136,-.5"/>
<text text-anchor="middle" x="2198" y="-7.5" font-family="Helvetica,sans-Serif" font-size="10.00" fill="#000000">GPUCommonDefAPI.h</text>
</a>
</g>
</g>
<!-- Node23&#45;&gt;Node25 -->
<g id="edge31" class="edge">
<title>Node23&#45;&gt;Node25</title>
<path fill="none" stroke="#191970" d="M2134.4124,-56.2455C2146.0057,-47.814 2162.9748,-35.4729 2176.4678,-25.6598"/>
<polygon fill="#191970" stroke="#191970" points="2178.7126,-28.355 2184.7413,-19.6427 2174.5953,-22.6938 2178.7126,-28.355"/>
</g>
<!-- Node26&#45;&gt;Node21 -->
<g id="edge33" class="edge">
<title>Node26&#45;&gt;Node21</title>
<path fill="none" stroke="#191970" d="M2287.25,-117.8906C2309.9055,-107.6457 2345.9798,-91.3326 2371.6291,-79.7339"/>
<polygon fill="#191970" stroke="#191970" points="2373.2297,-82.8514 2380.8992,-75.5419 2370.3454,-76.4732 2373.2297,-82.8514"/>
</g>
<!-- Node35&#45;&gt;Node23 -->
<g id="edge44" class="edge">
<title>Node35&#45;&gt;Node23</title>
<path fill="none" stroke="#191970" d="M2083.875,-117.8906C2090.3593,-108.8273 2100.2414,-95.0149 2108.1801,-83.9188"/>
<polygon fill="#191970" stroke="#191970" points="2111.0559,-85.9143 2114.0281,-75.7449 2105.3629,-81.8412 2111.0559,-85.9143"/>
</g>
</g>
</svg>
        <g id="navigator" transform="translate(0 0)" fill="#404254">
                <rect fill="#f2f5e9" fill-opacity="0.5" stroke="#606060" stroke-width=".5" x="0" y="0" width="60" height="60"/>
                <use id="zoomplus" xlink:href="#zoomPlus" x="17" y="9" onmousedown="handleZoom(evt,'in')"/>
                <use id="zoomminus" xlink:href="#zoomMin" x="42" y="9" onmousedown="handleZoom(evt,'out')"/>
                <use id="reset" xlink:href="#resetDef" x="30" y="36" onmousedown="handleReset()"/>
                <g id="arrowUp" xlink:href="#dirArrow" transform="translate(30 24)" onmousedown="handlePan(0,-1)">
                  <use xlink:href="#rim" fill="#404040">
                        <set attributeName="fill" to="#808080" begin="arrowUp.mouseover" end="arrowUp.mouseout"/>
                  </use>
                  <path fill="none" stroke="white" stroke-width="1.5" d="M0,-3.0v7 M-2.5,-0.5L0,-3.0L2.5,-0.5"/>
                </g>
                <g id="arrowRight" xlink:href="#dirArrow" transform="rotate(90) translate(36 -43)" onmousedown="handlePan(1,0)">
                  <use xlink:href="#rim" fill="#404040">
                        <set attributeName="fill" to="#808080" begin="arrowRight.mouseover" end="arrowRight.mouseout"/>
                  </use>
                  <path fill="none" stroke="white" stroke-width="1.5" d="M0,-3.0v7 M-2.5,-0.5L0,-3.0L2.5,-0.5"/>
                </g>
                <g id="arrowDown" xlink:href="#dirArrow" transform="rotate(180) translate(-30 -48)" onmousedown="handlePan(0,1)">
                  <use xlink:href="#rim" fill="#404040">
                        <set attributeName="fill" to="#808080" begin="arrowDown.mouseover" end="arrowDown.mouseout"/>
                  </use>
                  <path fill="none" stroke="white" stroke-width="1.5" d="M0,-3.0v7 M-2.5,-0.5L0,-3.0L2.5,-0.5"/>
                </g>
                <g id="arrowLeft" xlink:href="#dirArrow" transform="rotate(270) translate(-36 17)" onmousedown="handlePan(-1,0)">
                  <use xlink:href="#rim" fill="#404040">
                        <set attributeName="fill" to="#808080" begin="arrowLeft.mouseover" end="arrowLeft.mouseout"/>
                  </use>
                  <path fill="none" stroke="white" stroke-width="1.5" d="M0,-3.0v7 M-2.5,-0.5L0,-3.0L2.5,-0.5"/>
                </g>
        </g>
        <svg viewBox="0 0 15 15" width="100%" height="30px" preserveAspectRatio="xMaxYMin meet">
         <g id="arrow_out" transform="scale(0.3 0.3)">
          <a xlink:href="Flex_8cxx__incl_org.svg" target="_base">
           <rect id="button" ry="5" rx="5" y="6" x="6" height="38" width="38"
                fill="#f2f5e9" fill-opacity="0.5" stroke="#606060" stroke-width="1.0"/>
           <path id="arrow"
             d="M 11.500037,31.436501 C 11.940474,20.09759 22.043105,11.32322 32.158766,21.979434 L 37.068811,17.246167 C 37.068811,17.246167 37.088388,32 37.088388,32 L 22.160133,31.978069 C 22.160133,31.978069 26.997745,27.140456 26.997745,27.140456 C 18.528582,18.264221 13.291696,25.230495 11.500037,31.436501 z"
             style="fill:#404040;"/>
          </a>
         </g>
        </svg>
</svg>
