<?xml version="1.0" encoding="UTF-8" standalone="no"?>
<!DOCTYPE svg PUBLIC "-//W3C//DTD SVG 1.1//EN"
 "http://www.w3.org/Graphics/SVG/1.1/DTD/svg11.dtd">
<!-- Generated by graphviz version 2.40.1 (20161225.0304)
 -->
<!-- Title: /home/travis/build/AliceO2Group/AliceO2/Detectors/MUON/MCH/Simulation/include/MCHSimulation/Digitizer.h Pages: 1 -->
<svg width="2383pt" height="430pt"
 viewBox="0.00 0.00 2383.02 430.00" xmlns="http://www.w3.org/2000/svg" xmlns:xlink="http://www.w3.org/1999/xlink">
<g id="graph0" class="graph" transform="scale(1 1) rotate(0) translate(4 426)">
<title>/home/travis/build/AliceO2Group/AliceO2/Detectors/MUON/MCH/Simulation/include/MCHSimulation/Digitizer.h</title>
<!-- Node0 -->
<g id="node1" class="node">
<title>Node0</title>
<polygon fill="#bfbfbf" stroke="#000000" points="442.5168,-369.5 442.5168,-421.5 627.5168,-421.5 627.5168,-369.5 442.5168,-369.5"/>
<text text-anchor="start" x="450.5168" y="-409.5" font-family="Helvetica,sans-Serif" font-size="10.00" fill="#000000">/home/travis/build</text>
<text text-anchor="start" x="450.5168" y="-398.5" font-family="Helvetica,sans-Serif" font-size="10.00" fill="#000000">/AliceO2Group/AliceO2</text>
<text text-anchor="start" x="450.5168" y="-387.5" font-family="Helvetica,sans-Serif" font-size="10.00" fill="#000000">/Detectors/MUON/MCH/Simulation</text>
<text text-anchor="middle" x="535.0168" y="-376.5" font-family="Helvetica,sans-Serif" font-size="10.00" fill="#000000">/include/MCHSimulation/Digitizer.h</text>
</g>
<!-- Node1 -->
<g id="node2" class="node">
<title>Node1</title>
<g id="a_node2"><a xlink:href="../../d8/d72/Detectors_2MUON_2MCH_2Base_2include_2MCHBase_2Digit_8h.html" target="_top" xlink:title="MCHBase/Digit.h">
<polygon fill="none" stroke="#000000" points="123.0168,-308 123.0168,-327 221.0168,-327 221.0168,-308 123.0168,-308"/>
<text text-anchor="middle" x="172.0168" y="-315" font-family="Helvetica,sans-Serif" font-size="10.00" fill="#000000">MCHBase/Digit.h</text>
</a>
</g>
</g>
<!-- Node0&#45;&gt;Node1 -->
<g id="edge1" class="edge">
<title>Node0&#45;&gt;Node1</title>
<path fill="none" stroke="#191970" d="M442.4773,-375.6155C374.1132,-360.9257 283.3781,-341.4289 226.3363,-329.172"/>
<polygon fill="#191970" stroke="#191970" points="226.9504,-325.7241 216.4383,-327.0451 225.4798,-332.5679 226.9504,-325.7241"/>
</g>
<!-- Node3 -->
<g id="node4" class="node">
<title>Node3</title>
<g id="a_node4"><a xlink:href="../../d5/daf/Detectors_2MUON_2MCH_2Simulation_2include_2MCHSimulation_2Hit_8h.html" target="_top" xlink:title="MCHSimulation/Hit.h">
<polygon fill="none" stroke="#000000" points="547.0168,-308 547.0168,-327 665.0168,-327 665.0168,-308 547.0168,-308"/>
<text text-anchor="middle" x="606.0168" y="-315" font-family="Helvetica,sans-Serif" font-size="10.00" fill="#000000">MCHSimulation/Hit.h</text>
</a>
</g>
</g>
<!-- Node0&#45;&gt;Node3 -->
<g id="edge3" class="edge">
<title>Node0&#45;&gt;Node3</title>
<path fill="none" stroke="#191970" d="M559.0541,-369.0928C569.4661,-357.6543 581.3517,-344.5968 590.5607,-334.4799"/>
<polygon fill="#191970" stroke="#191970" points="593.1498,-336.835 597.293,-327.0839 587.9732,-332.123 593.1498,-336.835"/>
</g>
<!-- Node28 -->
<g id="node29" class="node">
<title>Node28</title>
<g id="a_node29"><a xlink:href="../../d7/dcd/MCCompLabel_8h.html" target="_top" xlink:title="SimulationDataFormat\l/MCCompLabel.h">
<polygon fill="none" stroke="#000000" points="401.5168,-302.5 401.5168,-332.5 528.5168,-332.5 528.5168,-302.5 401.5168,-302.5"/>
<text text-anchor="start" x="409.5168" y="-320.5" font-family="Helvetica,sans-Serif" font-size="10.00" fill="#000000">SimulationDataFormat</text>
<text text-anchor="middle" x="465.0168" y="-309.5" font-family="Helvetica,sans-Serif" font-size="10.00" fill="#000000">/MCCompLabel.h</text>
</a>
</g>
</g>
<!-- Node0&#45;&gt;Node28 -->
<g id="edge30" class="edge">
<title>Node0&#45;&gt;Node28</title>
<path fill="none" stroke="#191970" d="M511.3179,-369.0928C502.8511,-359.6583 493.3958,-349.1224 485.2481,-340.0436"/>
<polygon fill="#191970" stroke="#191970" points="487.7664,-337.6093 478.4824,-332.5046 482.5567,-342.2847 487.7664,-337.6093"/>
</g>
<!-- Node29 -->
<g id="node30" class="node">
<title>Node29</title>
<g id="a_node30"><a xlink:href="../../db/d14/MCTruthContainer_8h.html" target="_top" xlink:title="Definition of a container to keep Monte Carlo truth external to simulation objects. ">
<polygon fill="none" stroke="#000000" points="723.5168,-235.5 723.5168,-265.5 850.5168,-265.5 850.5168,-235.5 723.5168,-235.5"/>
<text text-anchor="start" x="731.5168" y="-253.5" font-family="Helvetica,sans-Serif" font-size="10.00" fill="#000000">SimulationDataFormat</text>
<text text-anchor="middle" x="787.0168" y="-242.5" font-family="Helvetica,sans-Serif" font-size="10.00" fill="#000000">/MCTruthContainer.h</text>
</a>
</g>
</g>
<!-- Node0&#45;&gt;Node29 -->
<g id="edge32" class="edge">
<title>Node0&#45;&gt;Node29</title>
<path fill="none" stroke="#191970" d="M600.4216,-369.4329C624.1415,-359.1171 650.7991,-346.4977 674.0168,-333 705.2994,-314.8138 738.4386,-289.857 760.6808,-272.1676"/>
<polygon fill="#191970" stroke="#191970" points="763.0387,-274.7629 768.6452,-265.773 758.6562,-269.3045 763.0387,-274.7629"/>
</g>
<!-- Node2 -->
<g id="node3" class="node">
<title>Node2</title>
<polygon fill="none" stroke="#bfbfbf" points="275.5168,-56.5 275.5168,-75.5 334.5168,-75.5 334.5168,-56.5 275.5168,-56.5"/>
<text text-anchor="middle" x="305.0168" y="-63.5" font-family="Helvetica,sans-Serif" font-size="10.00" fill="#000000">Rtypes.h</text>
</g>
<!-- Node1&#45;&gt;Node2 -->
<g id="edge2" class="edge">
<title>Node1&#45;&gt;Node2</title>
<path fill="none" stroke="#191970" d="M154.2196,-307.7897C101.4394,-277.8123 -46.7913,-184.3848 15.0168,-112 31.0812,-93.1865 189.5296,-76.4553 265.1913,-69.4661"/>
<polygon fill="#191970" stroke="#191970" points="265.6535,-72.9385 275.2946,-68.5453 265.0182,-65.9674 265.6535,-72.9385"/>
</g>
<!-- Node4 -->
<g id="node5" class="node">
<title>Node4</title>
<g id="a_node5"><a xlink:href="../../d4/d25/BaseHits_8h.html" target="_top" xlink:title="SimulationDataFormat\l/BaseHits.h">
<polygon fill="none" stroke="#000000" points="1190.5168,-235.5 1190.5168,-265.5 1317.5168,-265.5 1317.5168,-235.5 1190.5168,-235.5"/>
<text text-anchor="start" x="1198.5168" y="-253.5" font-family="Helvetica,sans-Serif" font-size="10.00" fill="#000000">SimulationDataFormat</text>
<text text-anchor="middle" x="1254.0168" y="-242.5" font-family="Helvetica,sans-Serif" font-size="10.00" fill="#000000">/BaseHits.h</text>
</a>
</g>
</g>
<!-- Node3&#45;&gt;Node4 -->
<g id="edge4" class="edge">
<title>Node3&#45;&gt;Node4</title>
<path fill="none" stroke="#191970" d="M665.2403,-311.3766C783.8768,-299.1102 1050.3832,-271.5547 1180.1761,-258.1348"/>
<polygon fill="#191970" stroke="#191970" points="1180.8275,-261.5862 1190.4145,-257.0762 1180.1075,-254.6233 1180.8275,-261.5862"/>
</g>
<!-- Node20 -->
<g id="node21" class="node">
<title>Node20</title>
<g id="a_node21"><a xlink:href="../../d0/d91/ShmAllocator_8h.html" target="_top" xlink:title="CommonUtils/ShmAllocator.h">
<polygon fill="none" stroke="#000000" points="493.0168,-241 493.0168,-260 653.0168,-260 653.0168,-241 493.0168,-241"/>
<text text-anchor="middle" x="573.0168" y="-248" font-family="Helvetica,sans-Serif" font-size="10.00" fill="#000000">CommonUtils/ShmAllocator.h</text>
</a>
</g>
</g>
<!-- Node3&#45;&gt;Node20 -->
<g id="edge22" class="edge">
<title>Node3&#45;&gt;Node20</title>
<path fill="none" stroke="#191970" d="M601.2887,-307.9005C596.3386,-297.8505 588.4392,-281.8122 582.2471,-269.2403"/>
<polygon fill="#191970" stroke="#191970" points="585.2944,-267.5061 577.7361,-260.0817 579.0148,-270.5991 585.2944,-267.5061"/>
</g>
<!-- Node5 -->
<g id="node6" class="node">
<title>Node5</title>
<g id="a_node6"><a xlink:href="../../dc/d73/Cartesian_8h.html" target="_top" xlink:title="MathUtils/Cartesian.h">
<polygon fill="none" stroke="#000000" points="1478.0168,-179.5 1478.0168,-198.5 1600.0168,-198.5 1600.0168,-179.5 1478.0168,-179.5"/>
<text text-anchor="middle" x="1539.0168" y="-186.5" font-family="Helvetica,sans-Serif" font-size="10.00" fill="#000000">MathUtils/Cartesian.h</text>
</a>
</g>
</g>
<!-- Node4&#45;&gt;Node5 -->
<g id="edge5" class="edge">
<title>Node4&#45;&gt;Node5</title>
<path fill="none" stroke="#191970" d="M1317.6216,-236.7747C1367.8582,-225.9342 1437.1973,-210.9716 1484.8194,-200.6952"/>
<polygon fill="#191970" stroke="#191970" points="1485.6004,-204.1073 1494.6371,-198.5767 1484.1238,-197.2648 1485.6004,-204.1073"/>
</g>
<!-- Node6 -->
<g id="node7" class="node">
<title>Node6</title>
<g id="a_node7"><a xlink:href="../../df/d21/GPUCommonDef_8h.html" target="_top" xlink:title="GPUCommonDef.h">
<polygon fill="none" stroke="#000000" points="1832.5168,-56.5 1832.5168,-75.5 1939.5168,-75.5 1939.5168,-56.5 1832.5168,-56.5"/>
<text text-anchor="middle" x="1886.0168" y="-63.5" font-family="Helvetica,sans-Serif" font-size="10.00" fill="#000000">GPUCommonDef.h</text>
</a>
</g>
</g>
<!-- Node5&#45;&gt;Node6 -->
<g id="edge6" class="edge">
<title>Node5&#45;&gt;Node6</title>
<path fill="none" stroke="#191970" d="M1561.0261,-179.4104C1579.8936,-170.8335 1607.5097,-157.4206 1630.0168,-143 1648.6603,-131.0548 1648.986,-121.4361 1669.0168,-112 1717.4982,-89.1612 1777.3936,-77.5597 1821.9677,-71.7272"/>
<polygon fill="#191970" stroke="#191970" points="1822.6015,-75.1754 1832.0925,-70.4667 1821.7366,-68.2291 1822.6015,-75.1754"/>
</g>
<!-- Node9 -->
<g id="node10" class="node">
<title>Node9</title>
<g id="a_node10"><a xlink:href="../../d2/d45/GPUCommonRtypes_8h.html" target="_top" xlink:title="GPUCommonRtypes.h">
<polygon fill="none" stroke="#000000" points="550.5168,-118 550.5168,-137 675.5168,-137 675.5168,-118 550.5168,-118"/>
<text text-anchor="middle" x="613.0168" y="-125" font-family="Helvetica,sans-Serif" font-size="10.00" fill="#000000">GPUCommonRtypes.h</text>
</a>
</g>
</g>
<!-- Node5&#45;&gt;Node9 -->
<g id="edge9" class="edge">
<title>Node5&#45;&gt;Node9</title>
<path fill="none" stroke="#191970" d="M1477.8737,-186.966C1309.0021,-181.1475 838.5324,-163.5274 685.0168,-143 677.5265,-141.9984 669.6572,-140.6332 661.9831,-139.1256"/>
<polygon fill="#191970" stroke="#191970" points="662.556,-135.6702 652.0554,-137.0802 661.1434,-142.5262 662.556,-135.6702"/>
</g>
<!-- Node10 -->
<g id="node11" class="node">
<title>Node10</title>
<polygon fill="none" stroke="#bfbfbf" points="2211.0168,-112.5 2211.0168,-142.5 2375.0168,-142.5 2375.0168,-112.5 2211.0168,-112.5"/>
<text text-anchor="start" x="2219.0168" y="-130.5" font-family="Helvetica,sans-Serif" font-size="10.00" fill="#000000">Math/GenVector/Displacement</text>
<text text-anchor="middle" x="2293.0168" y="-119.5" font-family="Helvetica,sans-Serif" font-size="10.00" fill="#000000">Vector3D.h</text>
</g>
<!-- Node5&#45;&gt;Node10 -->
<g id="edge11" class="edge">
<title>Node5&#45;&gt;Node10</title>
<path fill="none" stroke="#191970" d="M1600.4503,-186.7801C1716.0091,-182.1589 1973.7834,-169.7375 2200.634,-143.0908"/>
<polygon fill="#191970" stroke="#191970" points="2201.2122,-146.5468 2210.7302,-141.8929 2200.3874,-139.5956 2201.2122,-146.5468"/>
</g>
<!-- Node11 -->
<g id="node12" class="node">
<title>Node11</title>
<polygon fill="none" stroke="#bfbfbf" points="693.5168,-118 693.5168,-137 882.5168,-137 882.5168,-118 693.5168,-118"/>
<text text-anchor="middle" x="788.0168" y="-125" font-family="Helvetica,sans-Serif" font-size="10.00" fill="#000000">Math/GenVector/PositionVector3D.h</text>
</g>
<!-- Node5&#45;&gt;Node11 -->
<g id="edge12" class="edge">
<title>Node5&#45;&gt;Node11</title>
<path fill="none" stroke="#191970" d="M1477.7708,-186.2195C1362.7449,-180.6484 1106.6539,-166.5893 892.0168,-143 880.5786,-141.7429 868.4678,-140.1651 856.7091,-138.5008"/>
<polygon fill="#191970" stroke="#191970" points="856.8904,-134.9906 846.4921,-137.0218 855.8875,-141.9184 856.8904,-134.9906"/>
</g>
<!-- Node12 -->
<g id="node13" class="node">
<title>Node12</title>
<polygon fill="none" stroke="#bfbfbf" points="901.0168,-118 901.0168,-137 1061.0168,-137 1061.0168,-118 901.0168,-118"/>
<text text-anchor="middle" x="981.0168" y="-125" font-family="Helvetica,sans-Serif" font-size="10.00" fill="#000000">Math/GenVector/Rotation3D.h</text>
</g>
<!-- Node5&#45;&gt;Node12 -->
<g id="edge13" class="edge">
<title>Node5&#45;&gt;Node12</title>
<path fill="none" stroke="#191970" d="M1477.763,-184.4599C1388.0462,-177.4779 1215.738,-162.8073 1070.0168,-143 1060.8864,-141.7589 1051.2594,-140.2712 1041.8446,-138.7153"/>
<polygon fill="#191970" stroke="#191970" points="1042.1887,-135.2239 1031.7453,-137.0087 1041.0223,-142.1261 1042.1887,-135.2239"/>
</g>
<!-- Node13 -->
<g id="node14" class="node">
<title>Node13</title>
<polygon fill="none" stroke="#bfbfbf" points="1079.0168,-118 1079.0168,-137 1247.0168,-137 1247.0168,-118 1079.0168,-118"/>
<text text-anchor="middle" x="1163.0168" y="-125" font-family="Helvetica,sans-Serif" font-size="10.00" fill="#000000">Math/GenVector/Transform3D.h</text>
</g>
<!-- Node5&#45;&gt;Node13 -->
<g id="edge14" class="edge">
<title>Node5&#45;&gt;Node13</title>
<path fill="none" stroke="#191970" d="M1480.4113,-179.4705C1423.3697,-170.1881 1334.2376,-155.6648 1257.0168,-143 1248.4784,-141.5997 1239.5045,-140.1244 1230.6295,-138.6633"/>
<polygon fill="#191970" stroke="#191970" points="1231.1157,-135.1963 1220.6798,-137.0244 1229.978,-142.1032 1231.1157,-135.1963"/>
</g>
<!-- Node14 -->
<g id="node15" class="node">
<title>Node14</title>
<polygon fill="none" stroke="#bfbfbf" points="1265.5168,-118 1265.5168,-137 1438.5168,-137 1438.5168,-118 1265.5168,-118"/>
<text text-anchor="middle" x="1352.0168" y="-125" font-family="Helvetica,sans-Serif" font-size="10.00" fill="#000000">Math/GenVector/Translation3D.h</text>
</g>
<!-- Node5&#45;&gt;Node14 -->
<g id="edge15" class="edge">
<title>Node5&#45;&gt;Node14</title>
<path fill="none" stroke="#191970" d="M1509.798,-179.3906C1477.6861,-168.8298 1425.9678,-151.8208 1390.556,-140.1747"/>
<polygon fill="#191970" stroke="#191970" points="1391.6233,-136.8413 1381.0303,-137.0419 1389.4363,-143.4909 1391.6233,-136.8413"/>
</g>
<!-- Node15 -->
<g id="node16" class="node">
<title>Node15</title>
<polygon fill="none" stroke="#bfbfbf" points="1457.0168,-112.5 1457.0168,-142.5 1621.0168,-142.5 1621.0168,-112.5 1457.0168,-112.5"/>
<text text-anchor="start" x="1465.0168" y="-130.5" font-family="Helvetica,sans-Serif" font-size="10.00" fill="#000000">Math/GenVector/Displacement</text>
<text text-anchor="middle" x="1539.0168" y="-119.5" font-family="Helvetica,sans-Serif" font-size="10.00" fill="#000000">Vector2D.h</text>
</g>
<!-- Node5&#45;&gt;Node15 -->
<g id="edge16" class="edge">
<title>Node5&#45;&gt;Node15</title>
<path fill="none" stroke="#191970" d="M1539.0168,-179.3906C1539.0168,-172.2234 1539.0168,-162.0862 1539.0168,-152.671"/>
<polygon fill="#191970" stroke="#191970" points="1542.5169,-152.5446 1539.0168,-142.5446 1535.5169,-152.5446 1542.5169,-152.5446"/>
</g>
<!-- Node16 -->
<g id="node17" class="node">
<title>Node16</title>
<polygon fill="none" stroke="#bfbfbf" points="1677.5168,-118 1677.5168,-137 1866.5168,-137 1866.5168,-118 1677.5168,-118"/>
<text text-anchor="middle" x="1772.0168" y="-125" font-family="Helvetica,sans-Serif" font-size="10.00" fill="#000000">Math/GenVector/PositionVector2D.h</text>
</g>
<!-- Node5&#45;&gt;Node16 -->
<g id="edge17" class="edge">
<title>Node5&#45;&gt;Node16</title>
<path fill="none" stroke="#191970" d="M1575.1674,-179.4581C1615.7237,-168.7533 1681.6098,-151.3628 1725.8574,-139.6837"/>
<polygon fill="#191970" stroke="#191970" points="1727.0057,-143.0005 1735.7813,-137.0643 1725.2192,-136.2323 1727.0057,-143.0005"/>
</g>
<!-- Node17 -->
<g id="node18" class="node">
<title>Node17</title>
<polygon fill="none" stroke="#bfbfbf" points="1885.0168,-118 1885.0168,-137 1967.0168,-137 1967.0168,-118 1885.0168,-118"/>
<text text-anchor="middle" x="1926.0168" y="-125" font-family="Helvetica,sans-Serif" font-size="10.00" fill="#000000">TGeoMatrix.h</text>
</g>
<!-- Node5&#45;&gt;Node17 -->
<g id="edge18" class="edge">
<title>Node5&#45;&gt;Node17</title>
<path fill="none" stroke="#191970" d="M1600.1239,-183.7175C1668.0527,-177.1388 1780.7498,-164.1168 1876.0168,-143 1880.1093,-142.0928 1884.3503,-141.0094 1888.5533,-139.8427"/>
<polygon fill="#191970" stroke="#191970" points="1889.5928,-143.1853 1898.2039,-137.0128 1887.623,-136.4681 1889.5928,-143.1853"/>
</g>
<!-- Node18 -->
<g id="node19" class="node">
<title>Node18</title>
<polygon fill="none" stroke="#bfbfbf" points="1985.5168,-118 1985.5168,-137 2034.5168,-137 2034.5168,-118 1985.5168,-118"/>
<text text-anchor="middle" x="2010.0168" y="-125" font-family="Helvetica,sans-Serif" font-size="10.00" fill="#000000">iosfwd</text>
</g>
<!-- Node5&#45;&gt;Node18 -->
<g id="edge19" class="edge">
<title>Node5&#45;&gt;Node18</title>
<path fill="none" stroke="#191970" d="M1600.0818,-185.0105C1703.0459,-177.8762 1906.7426,-161.897 1976.0168,-143 1977.9882,-142.4622 1979.9893,-141.8221 1981.9828,-141.113"/>
<polygon fill="#191970" stroke="#191970" points="1983.7762,-144.1617 1991.7159,-137.1466 1981.1345,-137.6793 1983.7762,-144.1617"/>
</g>
<!-- Node19 -->
<g id="node20" class="node">
<title>Node19</title>
<g id="a_node20"><a xlink:href="../../d1/da8/GPUROOTCartesianFwd_8h.html" target="_top" xlink:title="GPUROOTCartesianFwd.h">
<polygon fill="none" stroke="#000000" points="2053.0168,-118 2053.0168,-137 2193.0168,-137 2193.0168,-118 2053.0168,-118"/>
<text text-anchor="middle" x="2123.0168" y="-125" font-family="Helvetica,sans-Serif" font-size="10.00" fill="#000000">GPUROOTCartesianFwd.h</text>
</a>
</g>
</g>
<!-- Node5&#45;&gt;Node19 -->
<g id="edge20" class="edge">
<title>Node5&#45;&gt;Node19</title>
<path fill="none" stroke="#191970" d="M1600.2753,-185.4607C1695.526,-179.4984 1884.7558,-165.8154 2044.0168,-143 2051.9841,-141.8586 2060.3644,-140.4464 2068.5688,-138.943"/>
<polygon fill="#191970" stroke="#191970" points="2069.2732,-142.3719 2078.4494,-137.076 2067.9734,-135.4936 2069.2732,-142.3719"/>
</g>
<!-- Node7 -->
<g id="node8" class="node">
<title>Node7</title>
<g id="a_node8"><a xlink:href="../../d5/d93/GPUCommonDefSettings_8h.html" target="_top" xlink:title="GPUCommonDefSettings.h">
<polygon fill="none" stroke="#000000" points="1735.0168,-.5 1735.0168,-19.5 1883.0168,-19.5 1883.0168,-.5 1735.0168,-.5"/>
<text text-anchor="middle" x="1809.0168" y="-7.5" font-family="Helvetica,sans-Serif" font-size="10.00" fill="#000000">GPUCommonDefSettings.h</text>
</a>
</g>
</g>
<!-- Node6&#45;&gt;Node7 -->
<g id="edge7" class="edge">
<title>Node6&#45;&gt;Node7</title>
<path fill="none" stroke="#191970" d="M1872.6044,-56.2455C1861.011,-47.814 1844.042,-35.4729 1830.5489,-25.6598"/>
<polygon fill="#191970" stroke="#191970" points="1832.4214,-22.6938 1822.2754,-19.6427 1828.3042,-28.355 1832.4214,-22.6938"/>
</g>
<!-- Node8 -->
<g id="node9" class="node">
<title>Node8</title>
<g id="a_node9"><a xlink:href="../../da/d5a/GPUCommonDefAPI_8h.html" target="_top" xlink:title="GPUCommonDefAPI.h">
<polygon fill="none" stroke="#000000" points="1901.0168,-.5 1901.0168,-19.5 2025.0168,-19.5 2025.0168,-.5 1901.0168,-.5"/>
<text text-anchor="middle" x="1963.0168" y="-7.5" font-family="Helvetica,sans-Serif" font-size="10.00" fill="#000000">GPUCommonDefAPI.h</text>
</a>
</g>
</g>
<!-- Node6&#45;&gt;Node8 -->
<g id="edge8" class="edge">
<title>Node6&#45;&gt;Node8</title>
<path fill="none" stroke="#191970" d="M1899.4291,-56.2455C1911.0225,-47.814 1927.9915,-35.4729 1941.4846,-25.6598"/>
<polygon fill="#191970" stroke="#191970" points="1943.7293,-28.355 1949.7581,-19.6427 1939.6121,-22.6938 1943.7293,-28.355"/>
</g>
<!-- Node9&#45;&gt;Node2 -->
<g id="edge10" class="edge">
<title>Node9&#45;&gt;Node2</title>
<path fill="none" stroke="#191970" d="M569.2591,-117.9369C559.9441,-115.9413 550.1605,-113.8752 541.0168,-112 472.206,-97.8886 391.8885,-82.4534 344.9223,-73.5319"/>
<polygon fill="#191970" stroke="#191970" points="345.3349,-70.0478 334.8578,-71.6228 344.0304,-76.9252 345.3349,-70.0478"/>
</g>
<!-- Node19&#45;&gt;Node6 -->
<g id="edge21" class="edge">
<title>Node19&#45;&gt;Node6</title>
<path fill="none" stroke="#191970" d="M2086.2455,-117.9581C2044.9061,-107.2308 1977.6935,-89.7895 1932.6845,-78.11"/>
<polygon fill="#191970" stroke="#191970" points="1933.4328,-74.6883 1922.8742,-75.5643 1931.6745,-81.4639 1933.4328,-74.6883"/>
</g>
<!-- Node21 -->
<g id="node22" class="node">
<title>Node21</title>
<g id="a_node22"><a xlink:href="../../de/d61/ShmManager_8h.html" target="_top" xlink:title="CommonUtils/ShmManager.h">
<polygon fill="none" stroke="#000000" points="155.0168,-179.5 155.0168,-198.5 313.0168,-198.5 313.0168,-179.5 155.0168,-179.5"/>
<text text-anchor="middle" x="234.0168" y="-186.5" font-family="Helvetica,sans-Serif" font-size="10.00" fill="#000000">CommonUtils/ShmManager.h</text>
</a>
</g>
</g>
<!-- Node20&#45;&gt;Node21 -->
<g id="edge23" class="edge">
<title>Node20&#45;&gt;Node21</title>
<path fill="none" stroke="#191970" d="M520.42,-240.9581C459.9584,-229.9894 360.804,-212.0012 296.4726,-200.3305"/>
<polygon fill="#191970" stroke="#191970" points="296.9222,-196.855 286.458,-198.5137 295.6726,-203.7426 296.9222,-196.855"/>
</g>
<!-- Node27 -->
<g id="node28" class="node">
<title>Node27</title>
<polygon fill="none" stroke="#bfbfbf" points="533.0168,-179.5 533.0168,-198.5 585.0168,-198.5 585.0168,-179.5 533.0168,-179.5"/>
<text text-anchor="middle" x="559.0168" y="-186.5" font-family="Helvetica,sans-Serif" font-size="10.00" fill="#000000">cassert</text>
</g>
<!-- Node20&#45;&gt;Node27 -->
<g id="edge29" class="edge">
<title>Node20&#45;&gt;Node27</title>
<path fill="none" stroke="#191970" d="M570.8293,-240.8906C568.8682,-232.276 565.9304,-219.3708 563.4753,-208.5858"/>
<polygon fill="#191970" stroke="#191970" points="566.8675,-207.7185 561.2351,-198.7449 560.0421,-209.2723 566.8675,-207.7185"/>
</g>
<!-- Node22 -->
<g id="node23" class="node">
<title>Node22</title>
<polygon fill="none" stroke="#bfbfbf" points="24.0168,-118 24.0168,-137 56.0168,-137 56.0168,-118 24.0168,-118"/>
<text text-anchor="middle" x="40.0168" y="-125" font-family="Helvetica,sans-Serif" font-size="10.00" fill="#000000">list</text>
</g>
<!-- Node21&#45;&gt;Node22 -->
<g id="edge24" class="edge">
<title>Node21&#45;&gt;Node22</title>
<path fill="none" stroke="#191970" d="M184.2975,-179.4424C149.9328,-171.8876 103.6348,-159.8017 65.0168,-143 64.3143,-142.6944 63.6084,-142.3714 62.9018,-142.0341"/>
<polygon fill="#191970" stroke="#191970" points="64.3564,-138.8399 53.9064,-137.0939 60.9867,-144.9755 64.3564,-138.8399"/>
</g>
<!-- Node23 -->
<g id="node24" class="node">
<title>Node23</title>
<polygon fill="none" stroke="#bfbfbf" points="74.5168,-118 74.5168,-137 127.5168,-137 127.5168,-118 74.5168,-118"/>
<text text-anchor="middle" x="101.0168" y="-125" font-family="Helvetica,sans-Serif" font-size="10.00" fill="#000000">cstddef</text>
</g>
<!-- Node21&#45;&gt;Node23 -->
<g id="edge25" class="edge">
<title>Node21&#45;&gt;Node23</title>
<path fill="none" stroke="#191970" d="M213.2355,-179.3906C191.1774,-169.1908 156.1117,-152.9763 131.0498,-141.3875"/>
<polygon fill="#191970" stroke="#191970" points="132.1977,-138.0622 121.6521,-137.0419 129.2597,-144.4158 132.1977,-138.0622"/>
</g>
<!-- Node24 -->
<g id="node25" class="node">
<title>Node24</title>
<polygon fill="none" stroke="#bfbfbf" points="146.0168,-118 146.0168,-137 196.0168,-137 196.0168,-118 146.0168,-118"/>
<text text-anchor="middle" x="171.0168" y="-125" font-family="Helvetica,sans-Serif" font-size="10.00" fill="#000000">atomic</text>
</g>
<!-- Node21&#45;&gt;Node24 -->
<g id="edge26" class="edge">
<title>Node21&#45;&gt;Node24</title>
<path fill="none" stroke="#191970" d="M224.173,-179.3906C214.6128,-170.0581 199.8945,-155.6902 188.3672,-144.4374"/>
<polygon fill="#191970" stroke="#191970" points="190.6,-141.7257 180.9993,-137.2449 185.7102,-146.7348 190.6,-141.7257"/>
</g>
<!-- Node25 -->
<g id="node26" class="node">
<title>Node25</title>
<polygon fill="none" stroke="#bfbfbf" points="214.5168,-112.5 214.5168,-142.5 379.5168,-142.5 379.5168,-112.5 214.5168,-112.5"/>
<text text-anchor="start" x="222.5168" y="-130.5" font-family="Helvetica,sans-Serif" font-size="10.00" fill="#000000">boost/interprocess</text>
<text text-anchor="middle" x="297.0168" y="-119.5" font-family="Helvetica,sans-Serif" font-size="10.00" fill="#000000">/managed_external_buffer.hpp</text>
</g>
<!-- Node21&#45;&gt;Node25 -->
<g id="edge27" class="edge">
<title>Node21&#45;&gt;Node25</title>
<path fill="none" stroke="#191970" d="M243.8605,-179.3906C251.9921,-171.4527 263.8554,-159.8718 274.3127,-149.6635"/>
<polygon fill="#191970" stroke="#191970" points="276.8943,-152.0345 281.6052,-142.5446 272.0046,-147.0255 276.8943,-152.0345"/>
</g>
<!-- Node26 -->
<g id="node27" class="node">
<title>Node26</title>
<polygon fill="none" stroke="#bfbfbf" points="398.0168,-112.5 398.0168,-142.5 532.0168,-142.5 532.0168,-112.5 398.0168,-112.5"/>
<text text-anchor="start" x="406.0168" y="-130.5" font-family="Helvetica,sans-Serif" font-size="10.00" fill="#000000">boost/interprocess</text>
<text text-anchor="middle" x="465.0168" y="-119.5" font-family="Helvetica,sans-Serif" font-size="10.00" fill="#000000">/allocators/allocator.hpp</text>
</g>
<!-- Node21&#45;&gt;Node26 -->
<g id="edge28" class="edge">
<title>Node21&#45;&gt;Node26</title>
<path fill="none" stroke="#191970" d="M269.8571,-179.4581C304.1146,-170.3376 356.6015,-156.3638 398.5181,-145.2042"/>
<polygon fill="#191970" stroke="#191970" points="399.6178,-148.5334 408.3807,-142.5784 397.8169,-141.769 399.6178,-148.5334"/>
</g>
<!-- Node28&#45;&gt;Node9 -->
<g id="edge31" class="edge">
<title>Node28&#45;&gt;Node9</title>
<path fill="none" stroke="#191970" d="M466.6944,-302.3277C468.9809,-285.3299 473.9945,-257.245 484.0168,-235 496.5807,-207.1136 501.3797,-199.5686 524.0168,-179 541.1184,-163.461 563.6789,-150.4697 581.8061,-141.4223"/>
<polygon fill="#191970" stroke="#191970" points="583.3508,-144.5631 590.829,-137.0579 580.3028,-138.2616 583.3508,-144.5631"/>
</g>
<!-- Node29&#45;&gt;Node9 -->
<g id="edge33" class="edge">
<title>Node29&#45;&gt;Node9</title>
<path fill="none" stroke="#191970" d="M723.4746,-235.6652C686.9996,-225.9533 645.9378,-212.5834 633.0168,-199 619.8632,-185.1721 615.2346,-163.4219 613.6699,-147.5391"/>
<polygon fill="#191970" stroke="#191970" points="617.1395,-146.9581 612.9939,-137.208 610.1544,-147.4152 617.1395,-146.9581"/>
</g>
<!-- Node29&#45;&gt;Node27 -->
<g id="edge35" class="edge">
<title>Node29&#45;&gt;Node27</title>
<path fill="none" stroke="#191970" d="M731.2417,-235.4554C688.7035,-223.9813 631.3806,-208.5192 594.8019,-198.6526"/>
<polygon fill="#191970" stroke="#191970" points="595.631,-195.2512 585.0645,-196.026 593.8079,-202.0096 595.631,-195.2512"/>
</g>
<!-- Node30 -->
<g id="node31" class="node">
<title>Node30</title>
<polygon fill="none" stroke="#bfbfbf" points="1089.0168,-179.5 1089.0168,-198.5 1139.0168,-198.5 1139.0168,-179.5 1089.0168,-179.5"/>
<text text-anchor="middle" x="1114.0168" y="-186.5" font-family="Helvetica,sans-Serif" font-size="10.00" fill="#000000">cstdint</text>
</g>
<!-- Node29&#45;&gt;Node30 -->
<g id="edge34" class="edge">
<title>Node29&#45;&gt;Node30</title>
<path fill="none" stroke="#191970" d="M850.5892,-241.4302C907.9494,-232.7699 994.7724,-218.4809 1078.8744,-199.0729"/>
<polygon fill="#191970" stroke="#191970" points="1079.9073,-202.426 1088.8494,-196.7436 1078.3155,-195.6094 1079.9073,-202.426"/>
</g>
<!-- Node31 -->
<g id="node32" class="node">
<title>Node31</title>
<polygon fill="none" stroke="#bfbfbf" points="641.5168,-179.5 641.5168,-198.5 706.5168,-198.5 706.5168,-179.5 641.5168,-179.5"/>
<text text-anchor="middle" x="674.0168" y="-186.5" font-family="Helvetica,sans-Serif" font-size="10.00" fill="#000000">stdexcept</text>
</g>
<!-- Node29&#45;&gt;Node31 -->
<g id="edge36" class="edge">
<title>Node29&#45;&gt;Node31</title>
<path fill="none" stroke="#191970" d="M759.3738,-235.4554C741.5118,-225.734 718.3899,-213.15 700.7173,-203.5317"/>
<polygon fill="#191970" stroke="#191970" points="701.9843,-200.2365 691.5277,-198.5303 698.638,-206.3849 701.9843,-200.2365"/>
</g>
<!-- Node32 -->
<g id="node33" class="node">
<title>Node32</title>
<polygon fill="none" stroke="#bfbfbf" points="725.0168,-179.5 725.0168,-198.5 773.0168,-198.5 773.0168,-179.5 725.0168,-179.5"/>
<text text-anchor="middle" x="749.0168" y="-186.5" font-family="Helvetica,sans-Serif" font-size="10.00" fill="#000000">gsl/gsl</text>
</g>
<!-- Node29&#45;&gt;Node32 -->
<g id="edge37" class="edge">
<title>Node29&#45;&gt;Node32</title>
<path fill="none" stroke="#191970" d="M777.6235,-235.2977C772.4037,-226.8498 765.871,-216.2773 760.3667,-207.369"/>
<polygon fill="#191970" stroke="#191970" points="763.335,-205.5143 755.101,-198.8469 757.38,-209.1938 763.335,-205.5143"/>
</g>
<!-- Node33 -->
<g id="node34" class="node">
<title>Node33</title>
<polygon fill="none" stroke="#bfbfbf" points="791.5168,-179.5 791.5168,-198.5 860.5168,-198.5 860.5168,-179.5 791.5168,-179.5"/>
<text text-anchor="middle" x="826.0168" y="-186.5" font-family="Helvetica,sans-Serif" font-size="10.00" fill="#000000">type_traits</text>
</g>
<!-- Node29&#45;&gt;Node33 -->
<g id="edge38" class="edge">
<title>Node29&#45;&gt;Node33</title>
<path fill="none" stroke="#191970" d="M796.6572,-235.2977C802.0144,-226.8498 808.7189,-216.2773 814.3681,-207.369"/>
<polygon fill="#191970" stroke="#191970" points="817.3727,-209.1664 819.7724,-198.8469 811.4611,-205.4176 817.3727,-209.1664"/>
</g>
<!-- Node34 -->
<g id="node35" class="node">
<title>Node34</title>
<polygon fill="none" stroke="#bfbfbf" points="879.0168,-179.5 879.0168,-198.5 929.0168,-198.5 929.0168,-179.5 879.0168,-179.5"/>
<text text-anchor="middle" x="904.0168" y="-186.5" font-family="Helvetica,sans-Serif" font-size="10.00" fill="#000000">cstring</text>
</g>
<!-- Node29&#45;&gt;Node34 -->
<g id="edge39" class="edge">
<title>Node29&#45;&gt;Node34</title>
<path fill="none" stroke="#191970" d="M815.6382,-235.4554C834.3037,-225.644 858.5166,-212.9167 876.8779,-203.2653"/>
<polygon fill="#191970" stroke="#191970" points="878.6627,-206.2812 885.8859,-198.5303 875.4058,-200.0851 878.6627,-206.2812"/>
</g>
<!-- Node35 -->
<g id="node36" class="node">
<title>Node35</title>
<polygon fill="none" stroke="#bfbfbf" points="947.0168,-179.5 947.0168,-198.5 1005.0168,-198.5 1005.0168,-179.5 947.0168,-179.5"/>
<text text-anchor="middle" x="976.0168" y="-186.5" font-family="Helvetica,sans-Serif" font-size="10.00" fill="#000000">memory</text>
</g>
<!-- Node29&#45;&gt;Node35 -->
<g id="edge40" class="edge">
<title>Node29&#45;&gt;Node35</title>
<path fill="none" stroke="#191970" d="M833.2514,-235.4554C865.1613,-225.072 907.1078,-211.4228 937.2649,-201.6097"/>
<polygon fill="#191970" stroke="#191970" points="938.5823,-204.8617 947.0086,-198.4392 936.4163,-198.2053 938.5823,-204.8617"/>
</g>
<!-- Node36 -->
<g id="node37" class="node">
<title>Node36</title>
<polygon fill="none" stroke="#bfbfbf" points="1023.5168,-179.5 1023.5168,-198.5 1070.5168,-198.5 1070.5168,-179.5 1023.5168,-179.5"/>
<text text-anchor="middle" x="1047.0168" y="-186.5" font-family="Helvetica,sans-Serif" font-size="10.00" fill="#000000">vector</text>
</g>
<!-- Node29&#45;&gt;Node36 -->
<g id="edge41" class="edge">
<title>Node29&#45;&gt;Node36</title>
<path fill="none" stroke="#191970" d="M850.9132,-237.2745C894.2432,-228.0125 952.9931,-214.887 1013.549,-198.9882"/>
<polygon fill="#191970" stroke="#191970" points="1014.5094,-202.3546 1023.2813,-196.4129 1012.7187,-195.5875 1014.5094,-202.3546"/>
</g>
</g>
</svg>
