<?xml version="1.0" encoding="UTF-8" standalone="no"?>
<!DOCTYPE svg PUBLIC "-//W3C//DTD SVG 1.1//EN"
 "http://www.w3.org/Graphics/SVG/1.1/DTD/svg11.dtd">
<!-- Generated by graphviz version 2.40.1 (20161225.0304)
 -->
<!-- Title: /home/travis/build/AliceO2Group/AliceO2/Detectors/FIT/raw/include/FITRaw/DataBlockBase.h Pages: 1 -->
<svg width="636pt" height="517pt"
 viewBox="0.00 0.00 636.00 517.00" xmlns="http://www.w3.org/2000/svg" xmlns:xlink="http://www.w3.org/1999/xlink">
<g id="graph0" class="graph" transform="scale(1 1) rotate(0) translate(4 513)">
<title>/home/travis/build/AliceO2Group/AliceO2/Detectors/FIT/raw/include/FITRaw/DataBlockBase.h</title>
<!-- Node18 -->
<g id="node1" class="node">
<title>Node18</title>
<polygon fill="#bfbfbf" stroke="#000000" points="296,-456.5 296,-508.5 439,-508.5 439,-456.5 296,-456.5"/>
<text text-anchor="start" x="304" y="-496.5" font-family="Helvetica,sans-Serif" font-size="10.00" fill="#000000">/home/travis/build</text>
<text text-anchor="start" x="304" y="-485.5" font-family="Helvetica,sans-Serif" font-size="10.00" fill="#000000">/AliceO2Group/AliceO2</text>
<text text-anchor="start" x="304" y="-474.5" font-family="Helvetica,sans-Serif" font-size="10.00" fill="#000000">/Detectors/FIT/raw/include</text>
<text text-anchor="middle" x="367.5" y="-463.5" font-family="Helvetica,sans-Serif" font-size="10.00" fill="#000000">/FITRaw/DataBlockBase.h</text>
</g>
<!-- Node19 -->
<g id="node2" class="node">
<title>Node19</title>
<g id="a_node2"><a xlink:href="../../d7/df9/DataBlockFT0_8h.html" target="_top" xlink:title="/home/travis/build\l/AliceO2Group/AliceO2\l/Detectors/FIT/FT0/raw\l/include/FT0Raw/DataBlockFT0.h">
<polygon fill="none" stroke="#000000" points="194.5,-367.5 194.5,-419.5 370.5,-419.5 370.5,-367.5 194.5,-367.5"/>
<text text-anchor="start" x="202.5" y="-407.5" font-family="Helvetica,sans-Serif" font-size="10.00" fill="#000000">/home/travis/build</text>
<text text-anchor="start" x="202.5" y="-396.5" font-family="Helvetica,sans-Serif" font-size="10.00" fill="#000000">/AliceO2Group/AliceO2</text>
<text text-anchor="start" x="202.5" y="-385.5" font-family="Helvetica,sans-Serif" font-size="10.00" fill="#000000">/Detectors/FIT/FT0/raw</text>
<text text-anchor="middle" x="282.5" y="-374.5" font-family="Helvetica,sans-Serif" font-size="10.00" fill="#000000">/include/FT0Raw/DataBlockFT0.h</text>
</a>
</g>
</g>
<!-- Node18&#45;&gt;Node19 -->
<g id="edge1" class="edge">
<title>Node18&#45;&gt;Node19</title>
<path fill="none" stroke="#191970" d="M335.5084,-449.0029C326.1966,-439.2529 316.1668,-428.7511 307.3641,-419.5341"/>
<polygon fill="#191970" stroke="#191970" points="333.0191,-451.464 342.4569,-456.2784 338.0813,-446.6293 333.0191,-451.464"/>
</g>
<!-- Node30 -->
<g id="node13" class="node">
<title>Node30</title>
<g id="a_node13"><a xlink:href="../../de/d9c/DataBlockBase_8cxx.html" target="_top" xlink:title="/home/travis/build\l/AliceO2Group/AliceO2\l/Detectors/FIT/raw/src\l/DataBlockBase.cxx">
<polygon fill="none" stroke="#000000" points="389,-367.5 389,-419.5 516,-419.5 516,-367.5 389,-367.5"/>
<text text-anchor="start" x="397" y="-407.5" font-family="Helvetica,sans-Serif" font-size="10.00" fill="#000000">/home/travis/build</text>
<text text-anchor="start" x="397" y="-396.5" font-family="Helvetica,sans-Serif" font-size="10.00" fill="#000000">/AliceO2Group/AliceO2</text>
<text text-anchor="start" x="397" y="-385.5" font-family="Helvetica,sans-Serif" font-size="10.00" fill="#000000">/Detectors/FIT/raw/src</text>
<text text-anchor="middle" x="452.5" y="-374.5" font-family="Helvetica,sans-Serif" font-size="10.00" fill="#000000">/DataBlockBase.cxx</text>
</a>
</g>
</g>
<!-- Node18&#45;&gt;Node30 -->
<g id="edge14" class="edge">
<title>Node18&#45;&gt;Node30</title>
<path fill="none" stroke="#191970" d="M399.4916,-449.0029C408.8034,-439.2529 418.8332,-428.7511 427.6359,-419.5341"/>
<polygon fill="#191970" stroke="#191970" points="396.9187,-446.6293 392.5431,-456.2784 401.9809,-451.464 396.9187,-446.6293"/>
</g>
<!-- Node20 -->
<g id="node3" class="node">
<title>Node20</title>
<g id="a_node3"><a xlink:href="../../da/d89/DigitBlockFT0_8h.html" target="_top" xlink:title="/home/travis/build\l/AliceO2Group/AliceO2\l/Detectors/FIT/FT0/raw\l/include/FT0Raw/DigitBlockFT0.h">
<polygon fill="none" stroke="#000000" points="194.5,-278.5 194.5,-330.5 370.5,-330.5 370.5,-278.5 194.5,-278.5"/>
<text text-anchor="start" x="202.5" y="-318.5" font-family="Helvetica,sans-Serif" font-size="10.00" fill="#000000">/home/travis/build</text>
<text text-anchor="start" x="202.5" y="-307.5" font-family="Helvetica,sans-Serif" font-size="10.00" fill="#000000">/AliceO2Group/AliceO2</text>
<text text-anchor="start" x="202.5" y="-296.5" font-family="Helvetica,sans-Serif" font-size="10.00" fill="#000000">/Detectors/FIT/FT0/raw</text>
<text text-anchor="middle" x="282.5" y="-285.5" font-family="Helvetica,sans-Serif" font-size="10.00" fill="#000000">/include/FT0Raw/DigitBlockFT0.h</text>
</a>
</g>
</g>
<!-- Node19&#45;&gt;Node20 -->
<g id="edge2" class="edge">
<title>Node19&#45;&gt;Node20</title>
<path fill="none" stroke="#191970" d="M282.5,-357.1155C282.5,-348.2061 282.5,-338.8475 282.5,-330.5341"/>
<polygon fill="#191970" stroke="#191970" points="279.0001,-357.2784 282.5,-367.2784 286.0001,-357.2785 279.0001,-357.2784"/>
</g>
<!-- Node21 -->
<g id="node4" class="node">
<title>Node21</title>
<g id="a_node4"><a xlink:href="../../d4/d6c/RawReaderFT0Base_8h.html" target="_top" xlink:title="/home/travis/build\l/AliceO2Group/AliceO2\l/Detectors/FIT/FT0/raw\l/include/FT0Raw/RawReaderFT0Base.h">
<polygon fill="none" stroke="#000000" points="13.5,-184 13.5,-236 217.5,-236 217.5,-184 13.5,-184"/>
<text text-anchor="start" x="21.5" y="-224" font-family="Helvetica,sans-Serif" font-size="10.00" fill="#000000">/home/travis/build</text>
<text text-anchor="start" x="21.5" y="-213" font-family="Helvetica,sans-Serif" font-size="10.00" fill="#000000">/AliceO2Group/AliceO2</text>
<text text-anchor="start" x="21.5" y="-202" font-family="Helvetica,sans-Serif" font-size="10.00" fill="#000000">/Detectors/FIT/FT0/raw</text>
<text text-anchor="middle" x="115.5" y="-191" font-family="Helvetica,sans-Serif" font-size="10.00" fill="#000000">/include/FT0Raw/RawReaderFT0Base.h</text>
</a>
</g>
</g>
<!-- Node19&#45;&gt;Node21 -->
<g id="edge12" class="edge">
<title>Node19&#45;&gt;Node21</title>
<path fill="none" stroke="#191970" d="M223.4597,-361.8019C210.031,-352.9422 196.4985,-342.5384 185.5,-331 158.7084,-302.893 138.0625,-262.6542 126.3457,-236.4275"/>
<polygon fill="#191970" stroke="#191970" points="221.9273,-364.9756 232.2416,-367.3975 225.6888,-359.0721 221.9273,-364.9756"/>
</g>
<!-- Node29 -->
<g id="node12" class="node">
<title>Node29</title>
<g id="a_node12"><a xlink:href="../../d0/d26/DataBlockFT0_8cxx.html" target="_top" xlink:title="/home/travis/build\l/AliceO2Group/AliceO2\l/Detectors/FIT/FT0/raw\l/src/DataBlockFT0.cxx">
<polygon fill="none" stroke="#000000" points="389,-278.5 389,-330.5 516,-330.5 516,-278.5 389,-278.5"/>
<text text-anchor="start" x="397" y="-318.5" font-family="Helvetica,sans-Serif" font-size="10.00" fill="#000000">/home/travis/build</text>
<text text-anchor="start" x="397" y="-307.5" font-family="Helvetica,sans-Serif" font-size="10.00" fill="#000000">/AliceO2Group/AliceO2</text>
<text text-anchor="start" x="397" y="-296.5" font-family="Helvetica,sans-Serif" font-size="10.00" fill="#000000">/Detectors/FIT/FT0/raw</text>
<text text-anchor="middle" x="452.5" y="-285.5" font-family="Helvetica,sans-Serif" font-size="10.00" fill="#000000">/src/DataBlockFT0.cxx</text>
</a>
</g>
</g>
<!-- Node19&#45;&gt;Node29 -->
<g id="edge13" class="edge">
<title>Node19&#45;&gt;Node29</title>
<path fill="none" stroke="#191970" d="M341.5897,-362.5648C361.5477,-352.1162 383.6129,-340.5644 402.7718,-330.5341"/>
<polygon fill="#191970" stroke="#191970" points="339.8221,-359.5395 332.5861,-367.2784 343.0688,-365.741 339.8221,-359.5395"/>
</g>
<!-- Node20&#45;&gt;Node21 -->
<g id="edge3" class="edge">
<title>Node20&#45;&gt;Node21</title>
<path fill="none" stroke="#191970" d="M227.4891,-273.3711C206.1943,-261.321 182.0908,-247.6816 161.7148,-236.1515"/>
<polygon fill="#191970" stroke="#191970" points="225.9975,-276.5485 236.4244,-278.4273 229.4449,-270.4563 225.9975,-276.5485"/>
</g>
<!-- Node26 -->
<g id="node9" class="node">
<title>Node26</title>
<g id="a_node9"><a xlink:href="../../db/d5f/DigitBlockFT0_8cxx.html" target="_top" xlink:title="/home/travis/build\l/AliceO2Group/AliceO2\l/Detectors/FIT/FT0/raw\l/src/DigitBlockFT0.cxx">
<polygon fill="none" stroke="#000000" points="236,-184 236,-236 363,-236 363,-184 236,-184"/>
<text text-anchor="start" x="244" y="-224" font-family="Helvetica,sans-Serif" font-size="10.00" fill="#000000">/home/travis/build</text>
<text text-anchor="start" x="244" y="-213" font-family="Helvetica,sans-Serif" font-size="10.00" fill="#000000">/AliceO2Group/AliceO2</text>
<text text-anchor="start" x="244" y="-202" font-family="Helvetica,sans-Serif" font-size="10.00" fill="#000000">/Detectors/FIT/FT0/raw</text>
<text text-anchor="middle" x="299.5" y="-191" font-family="Helvetica,sans-Serif" font-size="10.00" fill="#000000">/src/DigitBlockFT0.cxx</text>
</a>
</g>
</g>
<!-- Node20&#45;&gt;Node26 -->
<g id="edge8" class="edge">
<title>Node20&#45;&gt;Node26</title>
<path fill="none" stroke="#191970" d="M288.977,-268.4957C290.902,-257.795 292.9739,-246.2773 294.766,-236.3157"/>
<polygon fill="#191970" stroke="#191970" points="285.5162,-267.9656 287.1903,-278.4273 292.4056,-269.205 285.5162,-267.9656"/>
</g>
<!-- Node27 -->
<g id="node10" class="node">
<title>Node27</title>
<g id="a_node10"><a xlink:href="../../d5/db7/FT0DataProcessDPLSpec_8h.html" target="_top" xlink:title="/home/travis/build\l/AliceO2Group/AliceO2\l/Detectors/FIT/FT0/workflow\l/include/FT0Workflow/FT0DataProcess\lDPLSpec.h">
<polygon fill="none" stroke="#000000" points="381,-178.5 381,-241.5 582,-241.5 582,-178.5 381,-178.5"/>
<text text-anchor="start" x="389" y="-229.5" font-family="Helvetica,sans-Serif" font-size="10.00" fill="#000000">/home/travis/build</text>
<text text-anchor="start" x="389" y="-218.5" font-family="Helvetica,sans-Serif" font-size="10.00" fill="#000000">/AliceO2Group/AliceO2</text>
<text text-anchor="start" x="389" y="-207.5" font-family="Helvetica,sans-Serif" font-size="10.00" fill="#000000">/Detectors/FIT/FT0/workflow</text>
<text text-anchor="start" x="389" y="-196.5" font-family="Helvetica,sans-Serif" font-size="10.00" fill="#000000">/include/FT0Workflow/FT0DataProcess</text>
<text text-anchor="middle" x="481.5" y="-185.5" font-family="Helvetica,sans-Serif" font-size="10.00" fill="#000000">DPLSpec.h</text>
</a>
</g>
</g>
<!-- Node20&#45;&gt;Node27 -->
<g id="edge9" class="edge">
<title>Node20&#45;&gt;Node27</title>
<path fill="none" stroke="#191970" d="M346.6116,-274.0551C368.5049,-263.6585 393.0266,-252.0138 415.0965,-241.5333"/>
<polygon fill="#191970" stroke="#191970" points="344.9362,-270.976 337.4044,-278.4273 347.939,-277.2992 344.9362,-270.976"/>
</g>
<!-- Node22 -->
<g id="node5" class="node">
<title>Node22</title>
<g id="a_node5"><a xlink:href="../../d5/da3/RawReaderFT0Base_8cxx.html" target="_top" xlink:title="/home/travis/build\l/AliceO2Group/AliceO2\l/Detectors/FIT/FT0/raw\l/src/RawReaderFT0Base.cxx">
<polygon fill="none" stroke="#000000" points="0,-89.5 0,-141.5 153,-141.5 153,-89.5 0,-89.5"/>
<text text-anchor="start" x="8" y="-129.5" font-family="Helvetica,sans-Serif" font-size="10.00" fill="#000000">/home/travis/build</text>
<text text-anchor="start" x="8" y="-118.5" font-family="Helvetica,sans-Serif" font-size="10.00" fill="#000000">/AliceO2Group/AliceO2</text>
<text text-anchor="start" x="8" y="-107.5" font-family="Helvetica,sans-Serif" font-size="10.00" fill="#000000">/Detectors/FIT/FT0/raw</text>
<text text-anchor="middle" x="76.5" y="-96.5" font-family="Helvetica,sans-Serif" font-size="10.00" fill="#000000">/src/RawReaderFT0Base.cxx</text>
</a>
</g>
</g>
<!-- Node21&#45;&gt;Node22 -->
<g id="edge4" class="edge">
<title>Node21&#45;&gt;Node22</title>
<path fill="none" stroke="#191970" d="M100.9138,-174.6565C96.4212,-163.7706 91.5564,-151.9827 87.3604,-141.8157"/>
<polygon fill="#191970" stroke="#191970" points="97.6896,-176.0188 104.7398,-183.9273 104.1602,-173.3483 97.6896,-176.0188"/>
</g>
<!-- Node23 -->
<g id="node6" class="node">
<title>Node23</title>
<g id="a_node6"><a xlink:href="../../d7/d5a/RawReaderFT0_8h.html" target="_top" xlink:title="/home/travis/build\l/AliceO2Group/AliceO2\l/Detectors/FIT/FT0/workflow\l/include/FT0Workflow/RawReaderFT0.h">
<polygon fill="none" stroke="#000000" points="171.5,-89.5 171.5,-141.5 375.5,-141.5 375.5,-89.5 171.5,-89.5"/>
<text text-anchor="start" x="179.5" y="-129.5" font-family="Helvetica,sans-Serif" font-size="10.00" fill="#000000">/home/travis/build</text>
<text text-anchor="start" x="179.5" y="-118.5" font-family="Helvetica,sans-Serif" font-size="10.00" fill="#000000">/AliceO2Group/AliceO2</text>
<text text-anchor="start" x="179.5" y="-107.5" font-family="Helvetica,sans-Serif" font-size="10.00" fill="#000000">/Detectors/FIT/FT0/workflow</text>
<text text-anchor="middle" x="273.5" y="-96.5" font-family="Helvetica,sans-Serif" font-size="10.00" fill="#000000">/include/FT0Workflow/RawReaderFT0.h</text>
</a>
</g>
</g>
<!-- Node21&#45;&gt;Node23 -->
<g id="edge5" class="edge">
<title>Node21&#45;&gt;Node23</title>
<path fill="none" stroke="#191970" d="M167.8162,-178.7096C187.897,-166.6993 210.584,-153.1301 229.7758,-141.6515"/>
<polygon fill="#191970" stroke="#191970" points="165.878,-175.7905 159.0924,-183.9273 169.4711,-181.798 165.878,-175.7905"/>
</g>
<!-- Node24 -->
<g id="node7" class="node">
<title>Node24</title>
<g id="a_node7"><a xlink:href="../../d6/d99/FT0Workflow_8cxx.html" target="_top" xlink:title="/home/travis/build\l/AliceO2Group/AliceO2\l/Detectors/FIT/FT0/workflow\l/src/FT0Workflow.cxx">
<polygon fill="none" stroke="#000000" points="347.5,-.5 347.5,-52.5 499.5,-52.5 499.5,-.5 347.5,-.5"/>
<text text-anchor="start" x="355.5" y="-40.5" font-family="Helvetica,sans-Serif" font-size="10.00" fill="#000000">/home/travis/build</text>
<text text-anchor="start" x="355.5" y="-29.5" font-family="Helvetica,sans-Serif" font-size="10.00" fill="#000000">/AliceO2Group/AliceO2</text>
<text text-anchor="start" x="355.5" y="-18.5" font-family="Helvetica,sans-Serif" font-size="10.00" fill="#000000">/Detectors/FIT/FT0/workflow</text>
<text text-anchor="middle" x="423.5" y="-7.5" font-family="Helvetica,sans-Serif" font-size="10.00" fill="#000000">/src/FT0Workflow.cxx</text>
</a>
</g>
</g>
<!-- Node23&#45;&gt;Node24 -->
<g id="edge6" class="edge">
<title>Node23&#45;&gt;Node24</title>
<path fill="none" stroke="#191970" d="M326.5917,-83.9989C343.9487,-73.7004 363.0219,-62.3837 379.6222,-52.5341"/>
<polygon fill="#191970" stroke="#191970" points="324.5078,-81.1656 317.6936,-89.2784 328.0798,-87.1857 324.5078,-81.1656"/>
</g>
<!-- Node25 -->
<g id="node8" class="node">
<title>Node25</title>
<g id="a_node8"><a xlink:href="../../d0/d8d/RawReaderFT0_8cxx.html" target="_top" xlink:title="/home/travis/build\l/AliceO2Group/AliceO2\l/Detectors/FIT/FT0/workflow\l/src/RawReaderFT0.cxx">
<polygon fill="none" stroke="#000000" points="177.5,-.5 177.5,-52.5 329.5,-52.5 329.5,-.5 177.5,-.5"/>
<text text-anchor="start" x="185.5" y="-40.5" font-family="Helvetica,sans-Serif" font-size="10.00" fill="#000000">/home/travis/build</text>
<text text-anchor="start" x="185.5" y="-29.5" font-family="Helvetica,sans-Serif" font-size="10.00" fill="#000000">/AliceO2Group/AliceO2</text>
<text text-anchor="start" x="185.5" y="-18.5" font-family="Helvetica,sans-Serif" font-size="10.00" fill="#000000">/Detectors/FIT/FT0/workflow</text>
<text text-anchor="middle" x="253.5" y="-7.5" font-family="Helvetica,sans-Serif" font-size="10.00" fill="#000000">/src/RawReaderFT0.cxx</text>
</a>
</g>
</g>
<!-- Node23&#45;&gt;Node25 -->
<g id="edge7" class="edge">
<title>Node23&#45;&gt;Node25</title>
<path fill="none" stroke="#191970" d="M265.389,-79.4059C263.3673,-70.4097 261.2389,-60.9379 259.3504,-52.5341"/>
<polygon fill="#191970" stroke="#191970" points="262.0001,-80.2892 267.6075,-89.2784 268.8298,-78.7543 262.0001,-80.2892"/>
</g>
<!-- Node27&#45;&gt;Node24 -->
<g id="edge11" class="edge">
<title>Node27&#45;&gt;Node24</title>
<path fill="none" stroke="#191970" d="M455.1094,-169.4155C450.3064,-160.6474 445.7848,-151.2306 442.5,-142 432.0078,-112.516 427.2634,-76.7081 425.1483,-52.8543"/>
<polygon fill="#191970" stroke="#191970" points="452.1762,-171.337 460.1764,-178.283 458.254,-167.864 452.1762,-171.337"/>
</g>
<!-- Node28 -->
<g id="node11" class="node">
<title>Node28</title>
<g id="a_node11"><a xlink:href="../../d7/d18/FT0DataProcessDPLSpec_8cxx.html" target="_top" xlink:title="/home/travis/build\l/AliceO2Group/AliceO2\l/Detectors/FIT/FT0/workflow\l/src/FT0DataProcessDPLSpec.cxx">
<polygon fill="none" stroke="#000000" points="451,-89.5 451,-141.5 628,-141.5 628,-89.5 451,-89.5"/>
<text text-anchor="start" x="459" y="-129.5" font-family="Helvetica,sans-Serif" font-size="10.00" fill="#000000">/home/travis/build</text>
<text text-anchor="start" x="459" y="-118.5" font-family="Helvetica,sans-Serif" font-size="10.00" fill="#000000">/AliceO2Group/AliceO2</text>
<text text-anchor="start" x="459" y="-107.5" font-family="Helvetica,sans-Serif" font-size="10.00" fill="#000000">/Detectors/FIT/FT0/workflow</text>
<text text-anchor="middle" x="539.5" y="-96.5" font-family="Helvetica,sans-Serif" font-size="10.00" fill="#000000">/src/FT0DataProcessDPLSpec.cxx</text>
</a>
</g>
</g>
<!-- Node27&#45;&gt;Node28 -->
<g id="edge10" class="edge">
<title>Node27&#45;&gt;Node28</title>
<path fill="none" stroke="#191970" d="M506.2332,-169.702C512.0615,-160.2058 518.1249,-150.3266 523.4539,-141.6442"/>
<polygon fill="#191970" stroke="#191970" points="503.2225,-167.9164 500.9745,-178.27 509.1884,-171.578 503.2225,-167.9164"/>
</g>
</g>
</svg>
