<?xml version="1.0" encoding="UTF-8" standalone="no"?>
<!DOCTYPE svg PUBLIC "-//W3C//DTD SVG 1.1//EN"
 "http://www.w3.org/Graphics/SVG/1.1/DTD/svg11.dtd">
<!-- Generated by graphviz version 2.40.1 (20161225.0304)
 -->
<!-- Title: /home/travis/build/AliceO2Group/AliceO2/GPU/GPUTracking/Interface/GPUO2InterfaceConfiguration.h Pages: 1 -->
<!--zoomable 475 -->
<svg id="main" version="1.1" xmlns="http://www.w3.org/2000/svg" xmlns:xlink="http://www.w3.org/1999/xlink" xml:space="preserve" onload="init(evt)">
<style type="text/css"><![CDATA[
.edge:hover path { stroke: red; }
.edge:hover polygon { stroke: red; fill: red; }
]]></style>
<script type="text/javascript"><![CDATA[
var edges = document.getElementsByTagName('g');
if (edges && edges.length) {
  for (var i=0;i<edges.length;i++) {
    if (edges[i].id.substr(0,4)=='edge') {
      edges[i].setAttribute('class','edge');
    }
  }
}
]]></script>
        <defs>
                <circle id="rim" cx="0" cy="0" r="7"/>
                <circle id="rim2" cx="0" cy="0" r="3.5"/>
                <g id="zoomPlus">
                        <use xlink:href="#rim" fill="#404040">
                                <set attributeName="fill" to="#808080" begin="zoomplus.mouseover" end="zoomplus.mouseout"/>
                        </use>
                        <path d="M-4,0h8M0,-4v8" fill="none" stroke="white" stroke-width="1.5" pointer-events="none"/>
                </g>
                <g id="zoomMin">
                        <use xlink:href="#rim" fill="#404040">
                                <set attributeName="fill" to="#808080" begin="zoomminus.mouseover" end="zoomminus.mouseout"/>
                        </use>
                        <path d="M-4,0h8" fill="none" stroke="white" stroke-width="1.5" pointer-events="none"/>
                </g>
                <g id="dirArrow">
                        <path fill="none" stroke="white" stroke-width="1.5" d="M0,-3.0v7 M-2.5,-0.5L0,-3.0L2.5,-0.5"/>
                </g>
               <g id="resetDef">
                       <use xlink:href="#rim2" fill="#404040">
                               <set attributeName="fill" to="#808080" begin="reset.mouseover" end="reset.mouseout"/>
                       </use>
               </g>
        </defs>

<script type="text/javascript">
var viewWidth = 1097;
var viewHeight = 475;
var sectionId = 'dynsection-0';
</script>
<script xlink:href="../../svgpan.js"/>
<svg id="graph" class="graph">
<g id="viewport">
<title>/home/travis/build/AliceO2Group/AliceO2/GPU/GPUTracking/Interface/GPUO2InterfaceConfiguration.h</title>
<!-- Node0 -->
<g id="node1" class="node">
<title>Node0</title>
<polygon fill="#bfbfbf" stroke="#000000" points="532,-414.5 532,-466.5 704,-466.5 704,-414.5 532,-414.5"/>
<text text-anchor="start" x="540" y="-454.5" font-family="Helvetica,sans-Serif" font-size="10.00" fill="#000000">/home/travis/build</text>
<text text-anchor="start" x="540" y="-443.5" font-family="Helvetica,sans-Serif" font-size="10.00" fill="#000000">/AliceO2Group/AliceO2</text>
<text text-anchor="start" x="540" y="-432.5" font-family="Helvetica,sans-Serif" font-size="10.00" fill="#000000">/GPU/GPUTracking/Interface</text>
<text text-anchor="middle" x="618" y="-421.5" font-family="Helvetica,sans-Serif" font-size="10.00" fill="#000000">/GPUO2InterfaceConfiguration.h</text>
</g>
<!-- Node1 -->
<g id="node2" class="node">
<title>Node1</title>
<polygon fill="none" stroke="#bfbfbf" points="406,-168.5 406,-187.5 464,-187.5 464,-168.5 406,-168.5"/>
<text text-anchor="middle" x="435" y="-175.5" font-family="Helvetica,sans-Serif" font-size="10.00" fill="#000000">memory</text>
</g>
<!-- Node0&#45;&gt;Node1 -->
<g id="edge1" class="edge">
<title>Node0&#45;&gt;Node1</title>
<path fill="none" stroke="#191970" d="M581.5784,-414.4881C553.2379,-392.611 514.6991,-359.0359 490,-322 463.1411,-281.7256 446.7785,-226.4696 439.4891,-197.5128"/>
<polygon fill="#191970" stroke="#191970" points="442.8899,-196.6852 437.1367,-187.7885 436.0862,-198.3311 442.8899,-196.6852"/>
</g>
<!-- Node2 -->
<g id="node3" class="node">
<title>Node2</title>
<polygon fill="none" stroke="#bfbfbf" points="730,-297 730,-316 772,-316 772,-297 730,-297"/>
<text text-anchor="middle" x="751" y="-304" font-family="Helvetica,sans-Serif" font-size="10.00" fill="#000000">array</text>
</g>
<!-- Node0&#45;&gt;Node2 -->
<g id="edge2" class="edge">
<title>Node0&#45;&gt;Node2</title>
<path fill="none" stroke="#191970" d="M648.1804,-414.3982C660.4899,-403.4375 674.6933,-390.3796 687,-378 704.673,-360.2223 723.681,-338.6417 736.349,-323.8704"/>
<polygon fill="#191970" stroke="#191970" points="739.1982,-325.9229 743.0172,-316.0403 733.8689,-321.3844 739.1982,-325.9229"/>
</g>
<!-- Node3 -->
<g id="node4" class="node">
<title>Node3</title>
<polygon fill="none" stroke="#bfbfbf" points="340.5,-168.5 340.5,-187.5 387.5,-187.5 387.5,-168.5 340.5,-168.5"/>
<text text-anchor="middle" x="364" y="-175.5" font-family="Helvetica,sans-Serif" font-size="10.00" fill="#000000">vector</text>
</g>
<!-- Node0&#45;&gt;Node3 -->
<g id="edge3" class="edge">
<title>Node0&#45;&gt;Node3</title>
<path fill="none" stroke="#191970" d="M570.1862,-414.4829C552.5207,-404.0372 532.7394,-391.3185 516,-378 458.144,-331.9679 445.2581,-316.3518 404,-255 391.3806,-236.2346 379.8067,-212.9999 372.3915,-196.9901"/>
<polygon fill="#191970" stroke="#191970" points="375.4662,-195.2955 368.15,-187.6323 369.0905,-198.1853 375.4662,-195.2955"/>
</g>
<!-- Node4 -->
<g id="node5" class="node">
<title>Node4</title>
<polygon fill="none" stroke="#bfbfbf" points="1015.5,-358.5 1015.5,-377.5 1080.5,-377.5 1080.5,-358.5 1015.5,-358.5"/>
<text text-anchor="middle" x="1048" y="-365.5" font-family="Helvetica,sans-Serif" font-size="10.00" fill="#000000">functional</text>
</g>
<!-- Node0&#45;&gt;Node4 -->
<g id="edge4" class="edge">
<title>Node0&#45;&gt;Node4</title>
<path fill="none" stroke="#191970" d="M704.1495,-427.648C781.909,-415.7611 899.3611,-397.0943 1001,-378 1002.4604,-377.7256 1003.9452,-377.441 1005.4438,-377.149"/>
<polygon fill="#191970" stroke="#191970" points="1006.3108,-380.5448 1015.4245,-375.1419 1004.9307,-373.6821 1006.3108,-380.5448"/>
</g>
<!-- Node5 -->
<g id="node6" class="node">
<title>Node5</title>
<polygon fill="none" stroke="#bfbfbf" points="1041,-168.5 1041,-187.5 1089,-187.5 1089,-168.5 1041,-168.5"/>
<text text-anchor="middle" x="1065" y="-175.5" font-family="Helvetica,sans-Serif" font-size="10.00" fill="#000000">gsl/gsl</text>
</g>
<!-- Node0&#45;&gt;Node5 -->
<g id="edge5" class="edge">
<title>Node0&#45;&gt;Node5</title>
<path fill="none" stroke="#191970" d="M704.3266,-425.0272C777.0821,-408.7336 881.155,-377.5076 957,-322 1003.8994,-287.6764 1039.6548,-227.2255 1055.7061,-196.7234"/>
<polygon fill="#191970" stroke="#191970" points="1058.9318,-198.1035 1060.3819,-187.6084 1052.7034,-194.9085 1058.9318,-198.1035"/>
</g>
<!-- Node6 -->
<g id="node7" class="node">
<title>Node6</title>
<g id="a_node7"><a xlink:href="../../dd/dc6/GPUSettings_8h.html" target="_top" xlink:title="GPUSettings.h">
<polygon fill="none" stroke="#000000" points="203,-358.5 203,-377.5 289,-377.5 289,-358.5 203,-358.5"/>
<text text-anchor="middle" x="246" y="-365.5" font-family="Helvetica,sans-Serif" font-size="10.00" fill="#000000">GPUSettings.h</text>
</a>
</g>
</g>
<!-- Node0&#45;&gt;Node6 -->
<g id="edge6" class="edge">
<title>Node0&#45;&gt;Node6</title>
<path fill="none" stroke="#191970" d="M531.7207,-423.6848C459.8955,-409.6866 359.9035,-390.1989 299.2468,-378.3774"/>
<polygon fill="#191970" stroke="#191970" points="299.6125,-374.8829 289.1276,-376.4052 298.2734,-381.7536 299.6125,-374.8829"/>
</g>
<!-- Node15 -->
<g id="node16" class="node">
<title>Node15</title>
<g id="a_node16"><a xlink:href="../../d4/dc5/GPUDataTypes_8h.html" target="_top" xlink:title="GPUDataTypes.h">
<polygon fill="none" stroke="#000000" points="6,-358.5 6,-377.5 104,-377.5 104,-358.5 6,-358.5"/>
<text text-anchor="middle" x="55" y="-365.5" font-family="Helvetica,sans-Serif" font-size="10.00" fill="#000000">GPUDataTypes.h</text>
</a>
</g>
</g>
<!-- Node0&#45;&gt;Node15 -->
<g id="edge18" class="edge">
<title>Node0&#45;&gt;Node15</title>
<path fill="none" stroke="#191970" d="M531.8796,-429.4099C416.3309,-414.5302 214.1178,-388.4903 114.2537,-375.6304"/>
<polygon fill="#191970" stroke="#191970" points="114.6996,-372.159 104.3345,-374.353 113.8055,-379.1016 114.6996,-372.159"/>
</g>
<!-- Node17 -->
<g id="node18" class="node">
<title>Node17</title>
<g id="a_node18"><a xlink:href="../../d6/d20/GPUHostDataTypes_8h.html" target="_top" xlink:title="GPUHostDataTypes.h">
<polygon fill="none" stroke="#000000" points="558,-358.5 558,-377.5 678,-377.5 678,-358.5 558,-358.5"/>
<text text-anchor="middle" x="618" y="-365.5" font-family="Helvetica,sans-Serif" font-size="10.00" fill="#000000">GPUHostDataTypes.h</text>
</a>
</g>
</g>
<!-- Node0&#45;&gt;Node17 -->
<g id="edge21" class="edge">
<title>Node0&#45;&gt;Node17</title>
<path fill="none" stroke="#191970" d="M618,-414.3258C618,-405.5142 618,-395.8397 618,-387.621"/>
<polygon fill="#191970" stroke="#191970" points="621.5001,-387.534 618,-377.534 614.5001,-387.534 621.5001,-387.534"/>
</g>
<!-- Node18 -->
<g id="node19" class="node">
<title>Node18</title>
<g id="a_node19"><a xlink:href="../../d0/dda/DataFormats_2Detectors_2TPC_2include_2DataFormatsTPC_2Constants_8h.html" target="_top" xlink:title="DataFormatsTPC/Constants.h">
<polygon fill="none" stroke="#000000" points="789.5,-297 789.5,-316 948.5,-316 948.5,-297 789.5,-297"/>
<text text-anchor="middle" x="869" y="-304" font-family="Helvetica,sans-Serif" font-size="10.00" fill="#000000">DataFormatsTPC/Constants.h</text>
</a>
</g>
</g>
<!-- Node0&#45;&gt;Node18 -->
<g id="edge42" class="edge">
<title>Node0&#45;&gt;Node18</title>
<path fill="none" stroke="#191970" d="M666.9912,-414.3453C719.2723,-386.4343 800.1985,-343.2307 841.9831,-320.9233"/>
<polygon fill="#191970" stroke="#191970" points="843.8298,-323.9051 851.003,-316.1079 840.5331,-317.73 843.8298,-323.9051"/>
</g>
<!-- Node6&#45;&gt;Node3 -->
<g id="edge10" class="edge">
<title>Node6&#45;&gt;Node3</title>
<path fill="none" stroke="#191970" d="M277.8979,-358.4466C296.3859,-351.3007 318.5912,-339.6695 332,-322 360.1544,-284.8993 364.4565,-227.8406 364.587,-197.9027"/>
<polygon fill="#191970" stroke="#191970" points="368.0824,-197.4822 364.4644,-187.5243 361.0829,-197.5649 368.0824,-197.4822"/>
</g>
<!-- Node7 -->
<g id="node8" class="node">
<title>Node7</title>
<g id="a_node8"><a xlink:href="../../df/d21/GPUCommonDef_8h.html" target="_top" xlink:title="GPUCommonDef.h">
<polygon fill="none" stroke="#000000" points="113.5,-56.5 113.5,-75.5 220.5,-75.5 220.5,-56.5 113.5,-56.5"/>
<text text-anchor="middle" x="167" y="-63.5" font-family="Helvetica,sans-Serif" font-size="10.00" fill="#000000">GPUCommonDef.h</text>
</a>
</g>
</g>
<!-- Node6&#45;&gt;Node7 -->
<g id="edge7" class="edge">
<title>Node6&#45;&gt;Node7</title>
<path fill="none" stroke="#191970" d="M202.9065,-361.3004C177.8647,-355.1971 147.665,-343.6593 129,-322 104.4374,-293.4969 110,-277.1265 110,-239.5 110,-239.5 110,-239.5 110,-178 110,-147.4754 114.7591,-138.9991 129,-112 134.5093,-101.5551 142.6474,-91.2907 149.9805,-83.1174"/>
<polygon fill="#191970" stroke="#191970" points="152.6356,-85.4025 156.9181,-75.7118 147.5271,-80.6168 152.6356,-85.4025"/>
</g>
<!-- Node10 -->
<g id="node11" class="node">
<title>Node10</title>
<polygon fill="none" stroke="#bfbfbf" points="138,-297 138,-316 182,-316 182,-297 138,-297"/>
<text text-anchor="middle" x="160" y="-304" font-family="Helvetica,sans-Serif" font-size="10.00" fill="#000000">string</text>
</g>
<!-- Node6&#45;&gt;Node10 -->
<g id="edge11" class="edge">
<title>Node6&#45;&gt;Node10</title>
<path fill="none" stroke="#191970" d="M232.5625,-358.3906C218.9305,-348.6421 197.6154,-333.3994 181.6078,-321.9521"/>
<polygon fill="#191970" stroke="#191970" points="183.5132,-319.0118 173.3431,-316.0419 179.4414,-324.7057 183.5132,-319.0118"/>
</g>
<!-- Node11 -->
<g id="node12" class="node">
<title>Node11</title>
<g id="a_node12"><a xlink:href="../../da/d08/qconfig_8h.html" target="_top" xlink:title="utils/qconfig.h">
<polygon fill="none" stroke="#000000" points="238.5,-297 238.5,-316 323.5,-316 323.5,-297 238.5,-297"/>
<text text-anchor="middle" x="281" y="-304" font-family="Helvetica,sans-Serif" font-size="10.00" fill="#000000">utils/qconfig.h</text>
</a>
</g>
</g>
<!-- Node6&#45;&gt;Node11 -->
<g id="edge12" class="edge">
<title>Node6&#45;&gt;Node11</title>
<path fill="none" stroke="#191970" d="M251.4688,-358.3906C256.5246,-349.5068 264.1772,-336.0601 270.4254,-325.0811"/>
<polygon fill="#191970" stroke="#191970" points="273.5498,-326.6672 275.4541,-316.2449 267.466,-323.2048 273.5498,-326.6672"/>
</g>
<!-- Node8 -->
<g id="node9" class="node">
<title>Node8</title>
<g id="a_node9"><a xlink:href="../../d5/d93/GPUCommonDefSettings_8h.html" target="_top" xlink:title="GPUCommonDefSettings.h">
<polygon fill="none" stroke="#000000" points="16,-.5 16,-19.5 164,-19.5 164,-.5 16,-.5"/>
<text text-anchor="middle" x="90" y="-7.5" font-family="Helvetica,sans-Serif" font-size="10.00" fill="#000000">GPUCommonDefSettings.h</text>
</a>
</g>
</g>
<!-- Node7&#45;&gt;Node8 -->
<g id="edge8" class="edge">
<title>Node7&#45;&gt;Node8</title>
<path fill="none" stroke="#191970" d="M153.5876,-56.2455C141.9943,-47.814 125.0252,-35.4729 111.5322,-25.6598"/>
<polygon fill="#191970" stroke="#191970" points="113.4047,-22.6938 103.2587,-19.6427 109.2874,-28.355 113.4047,-22.6938"/>
</g>
<!-- Node9 -->
<g id="node10" class="node">
<title>Node9</title>
<g id="a_node10"><a xlink:href="../../da/d5a/GPUCommonDefAPI_8h.html" target="_top" xlink:title="GPUCommonDefAPI.h">
<polygon fill="none" stroke="#000000" points="182,-.5 182,-19.5 306,-19.5 306,-.5 182,-.5"/>
<text text-anchor="middle" x="244" y="-7.5" font-family="Helvetica,sans-Serif" font-size="10.00" fill="#000000">GPUCommonDefAPI.h</text>
</a>
</g>
</g>
<!-- Node7&#45;&gt;Node9 -->
<g id="edge9" class="edge">
<title>Node7&#45;&gt;Node9</title>
<path fill="none" stroke="#191970" d="M180.4124,-56.2455C192.0057,-47.814 208.9748,-35.4729 222.4678,-25.6598"/>
<polygon fill="#191970" stroke="#191970" points="224.7126,-28.355 230.7413,-19.6427 220.5953,-22.6938 224.7126,-28.355"/>
</g>
<!-- Node12 -->
<g id="node13" class="node">
<title>Node12</title>
<g id="a_node13"><a xlink:href="../../d8/de9/qconfigoptions_8h.html" target="_top" xlink:title="qconfigoptions.h">
<polygon fill="none" stroke="#000000" points="175.5,-230 175.5,-249 272.5,-249 272.5,-230 175.5,-230"/>
<text text-anchor="middle" x="224" y="-237" font-family="Helvetica,sans-Serif" font-size="10.00" fill="#000000">qconfigoptions.h</text>
</a>
</g>
</g>
<!-- Node11&#45;&gt;Node12 -->
<g id="edge13" class="edge">
<title>Node11&#45;&gt;Node12</title>
<path fill="none" stroke="#191970" d="M272.8333,-296.9005C263.9446,-286.4525 249.55,-269.5325 238.6869,-256.7635"/>
<polygon fill="#191970" stroke="#191970" points="241.2972,-254.4303 232.1516,-249.0817 235.9656,-258.9662 241.2972,-254.4303"/>
</g>
<!-- Node12&#45;&gt;Node6 -->
<g id="edge14" class="edge">
<title>Node12&#45;&gt;Node6</title>
<path fill="none" stroke="#191970" d="M223.6747,-249.2755C223.3608,-264.8468 223.5668,-296.1626 229,-322 230.9218,-331.1389 234.3176,-340.8913 237.5716,-349.0536"/>
<polygon fill="#191970" stroke="#191970" points="234.3903,-350.5174 241.4957,-358.3763 240.842,-347.8017 234.3903,-350.5174"/>
</g>
<!-- Node13 -->
<g id="node14" class="node">
<title>Node13</title>
<g id="a_node14"><a xlink:href="../../d4/d57/GPUSettingsList_8h.html" target="_top" xlink:title="GPUSettingsList.h">
<polygon fill="none" stroke="#000000" points="172,-168.5 172,-187.5 276,-187.5 276,-168.5 172,-168.5"/>
<text text-anchor="middle" x="224" y="-175.5" font-family="Helvetica,sans-Serif" font-size="10.00" fill="#000000">GPUSettingsList.h</text>
</a>
</g>
</g>
<!-- Node12&#45;&gt;Node13 -->
<g id="edge15" class="edge">
<title>Node12&#45;&gt;Node13</title>
<path fill="none" stroke="#191970" d="M224,-229.8906C224,-221.3657 224,-208.6392 224,-197.9235"/>
<polygon fill="#191970" stroke="#191970" points="227.5001,-197.7448 224,-187.7449 220.5001,-197.7449 227.5001,-197.7448"/>
</g>
<!-- Node14 -->
<g id="node15" class="node">
<title>Node14</title>
<g id="a_node15"><a xlink:href="../../d2/d37/GPUDefConstantsAndSettings_8h.html" target="_top" xlink:title="GPUDefConstantsAndSettings.h">
<polygon fill="none" stroke="#000000" points="138.5,-112.5 138.5,-131.5 309.5,-131.5 309.5,-112.5 138.5,-112.5"/>
<text text-anchor="middle" x="224" y="-119.5" font-family="Helvetica,sans-Serif" font-size="10.00" fill="#000000">GPUDefConstantsAndSettings.h</text>
</a>
</g>
</g>
<!-- Node13&#45;&gt;Node14 -->
<g id="edge16" class="edge">
<title>Node13&#45;&gt;Node14</title>
<path fill="none" stroke="#191970" d="M224,-168.2455C224,-160.9382 224,-150.6944 224,-141.7046"/>
<polygon fill="#191970" stroke="#191970" points="227.5001,-141.6426 224,-131.6427 220.5001,-141.6427 227.5001,-141.6426"/>
</g>
<!-- Node14&#45;&gt;Node7 -->
<g id="edge17" class="edge">
<title>Node14&#45;&gt;Node7</title>
<path fill="none" stroke="#191970" d="M214.0714,-112.2455C205.8162,-104.1352 193.8791,-92.4075 184.0918,-82.7919"/>
<polygon fill="#191970" stroke="#191970" points="186.4011,-80.1542 176.8149,-75.6427 181.4954,-85.1476 186.4011,-80.1542"/>
</g>
<!-- Node15&#45;&gt;Node7 -->
<g id="edge19" class="edge">
<title>Node15&#45;&gt;Node7</title>
<path fill="none" stroke="#191970" d="M45.2898,-358.2809C37.0848,-349.5202 25.638,-335.9118 19,-322 2.7965,-288.0412 0,-277.1265 0,-239.5 0,-239.5 0,-239.5 0,-178 0,-122.8053 63.7002,-93.0667 112.4173,-78.3939"/>
<polygon fill="#191970" stroke="#191970" points="113.6008,-81.6956 122.2471,-75.5725 111.6695,-74.9673 113.6008,-81.6956"/>
</g>
<!-- Node16 -->
<g id="node17" class="node">
<title>Node16</title>
<polygon fill="none" stroke="#bfbfbf" points="28.5,-297 28.5,-316 81.5,-316 81.5,-297 28.5,-297"/>
<text text-anchor="middle" x="55" y="-304" font-family="Helvetica,sans-Serif" font-size="10.00" fill="#000000">cstddef</text>
</g>
<!-- Node15&#45;&gt;Node16 -->
<g id="edge20" class="edge">
<title>Node15&#45;&gt;Node16</title>
<path fill="none" stroke="#191970" d="M55,-358.3906C55,-349.8657 55,-337.1392 55,-326.4235"/>
<polygon fill="#191970" stroke="#191970" points="58.5001,-326.2448 55,-316.2449 51.5001,-326.2449 58.5001,-326.2448"/>
</g>
<!-- Node17&#45;&gt;Node2 -->
<g id="edge24" class="edge">
<title>Node17&#45;&gt;Node2</title>
<path fill="none" stroke="#191970" d="M638.7813,-358.3906C660.8394,-348.1908 695.905,-331.9763 720.9669,-320.3875"/>
<polygon fill="#191970" stroke="#191970" points="722.7571,-323.4158 730.3647,-316.0419 719.8191,-317.0622 722.7571,-323.4158"/>
</g>
<!-- Node17&#45;&gt;Node3 -->
<g id="edge23" class="edge">
<title>Node17&#45;&gt;Node3</title>
<path fill="none" stroke="#191970" d="M575.125,-358.4382C548.9789,-351.2421 515.7524,-339.5609 490,-322 488.2857,-320.831 412.4342,-233.6998 379.2621,-195.5563"/>
<polygon fill="#191970" stroke="#191970" points="381.7214,-193.0506 372.5186,-187.8009 376.4391,-197.6437 381.7214,-193.0506"/>
</g>
<!-- Node17&#45;&gt;Node7 -->
<g id="edge22" class="edge">
<title>Node17&#45;&gt;Node7</title>
<path fill="none" stroke="#191970" d="M582.5243,-358.4267C562.5332,-351.3614 538.532,-339.8202 523,-322 475.7176,-267.752 523.0443,-219.7111 473,-168 437.8266,-131.6551 299.9327,-95.8155 221.7954,-77.8645"/>
<polygon fill="#191970" stroke="#191970" points="222.174,-74.3613 211.6468,-75.5563 220.6216,-81.187 222.174,-74.3613"/>
</g>
<!-- Node17&#45;&gt;Node18 -->
<g id="edge25" class="edge">
<title>Node17&#45;&gt;Node18</title>
<path fill="none" stroke="#191970" d="M656.9434,-358.4581C700.9087,-347.6857 772.5065,-330.1428 820.1751,-318.4631"/>
<polygon fill="#191970" stroke="#191970" points="821.0855,-321.8436 829.9653,-316.0643 819.4196,-315.0447 821.0855,-321.8436"/>
</g>
<!-- Node19 -->
<g id="node20" class="node">
<title>Node19</title>
<g id="a_node20"><a xlink:href="../../d1/da6/ConstMCTruthContainer_8h.html" target="_top" xlink:title="A const (ready only) version of MCTruthContainer. ">
<polygon fill="none" stroke="#000000" points="532,-291.5 532,-321.5 674,-321.5 674,-291.5 532,-291.5"/>
<text text-anchor="start" x="540" y="-309.5" font-family="Helvetica,sans-Serif" font-size="10.00" fill="#000000">SimulationDataFormat</text>
<text text-anchor="middle" x="603" y="-298.5" font-family="Helvetica,sans-Serif" font-size="10.00" fill="#000000">/ConstMCTruthContainer.h</text>
</a>
</g>
</g>
<!-- Node17&#45;&gt;Node19 -->
<g id="edge26" class="edge">
<title>Node17&#45;&gt;Node19</title>
<path fill="none" stroke="#191970" d="M615.6563,-358.3906C613.8893,-351.1463 611.3824,-340.8679 609.0653,-331.3676"/>
<polygon fill="#191970" stroke="#191970" points="612.4394,-330.4304 606.6694,-321.5446 605.6387,-332.0892 612.4394,-330.4304"/>
</g>
<!-- Node29 -->
<g id="node30" class="node">
<title>Node29</title>
<g id="a_node30"><a xlink:href="../../d7/dcd/MCCompLabel_8h.html" target="_top" xlink:title="SimulationDataFormat\l/MCCompLabel.h">
<polygon fill="none" stroke="#000000" points="831.5,-224.5 831.5,-254.5 958.5,-254.5 958.5,-224.5 831.5,-224.5"/>
<text text-anchor="start" x="839.5" y="-242.5" font-family="Helvetica,sans-Serif" font-size="10.00" fill="#000000">SimulationDataFormat</text>
<text text-anchor="middle" x="895" y="-231.5" font-family="Helvetica,sans-Serif" font-size="10.00" fill="#000000">/MCCompLabel.h</text>
</a>
</g>
</g>
<!-- Node17&#45;&gt;Node29 -->
<g id="edge40" class="edge">
<title>Node17&#45;&gt;Node29</title>
<path fill="none" stroke="#191970" d="M632.1473,-358.4018C645.4508,-349.2794 665.8323,-335.0532 683,-322 700.3503,-308.808 701.7282,-301.1813 721,-291 739.3995,-281.2796 785.1457,-267.8769 825.1144,-257.181"/>
<polygon fill="#191970" stroke="#191970" points="826.0966,-260.5416 834.8646,-254.5941 824.3014,-253.7757 826.0966,-260.5416"/>
</g>
<!-- Node20 -->
<g id="node21" class="node">
<title>Node20</title>
<g id="a_node21"><a xlink:href="../../db/d14/MCTruthContainer_8h.html" target="_top" xlink:title="Definition of a container to keep Monte Carlo truth external to simulation objects. ">
<polygon fill="none" stroke="#000000" points="559.5,-224.5 559.5,-254.5 686.5,-254.5 686.5,-224.5 559.5,-224.5"/>
<text text-anchor="start" x="567.5" y="-242.5" font-family="Helvetica,sans-Serif" font-size="10.00" fill="#000000">SimulationDataFormat</text>
<text text-anchor="middle" x="623" y="-231.5" font-family="Helvetica,sans-Serif" font-size="10.00" fill="#000000">/MCTruthContainer.h</text>
</a>
</g>
</g>
<!-- Node19&#45;&gt;Node20 -->
<g id="edge27" class="edge">
<title>Node19&#45;&gt;Node20</title>
<path fill="none" stroke="#191970" d="M607.5383,-291.2967C609.9164,-283.3299 612.889,-273.3718 615.5907,-264.3213"/>
<polygon fill="#191970" stroke="#191970" points="618.973,-265.2265 618.4797,-254.6432 612.2655,-263.2242 618.973,-265.2265"/>
</g>
<!-- Node28 -->
<g id="node29" class="node">
<title>Node28</title>
<g id="a_node29"><a xlink:href="../../db/d31/Traits_8h.html" target="_top" xlink:title="Framework/Traits.h">
<polygon fill="none" stroke="#000000" points="704.5,-230 704.5,-249 813.5,-249 813.5,-230 704.5,-230"/>
<text text-anchor="middle" x="759" y="-237" font-family="Helvetica,sans-Serif" font-size="10.00" fill="#000000">Framework/Traits.h</text>
</a>
</g>
</g>
<!-- Node19&#45;&gt;Node28 -->
<g id="edge38" class="edge">
<title>Node19&#45;&gt;Node28</title>
<path fill="none" stroke="#191970" d="M638.0094,-291.4639C664.7738,-279.969 701.3589,-264.2561 727.2723,-253.1266"/>
<polygon fill="#191970" stroke="#191970" points="728.8315,-256.2662 736.6386,-249.1039 726.069,-249.8343 728.8315,-256.2662"/>
</g>
<!-- Node20&#45;&gt;Node1 -->
<g id="edge36" class="edge">
<title>Node20&#45;&gt;Node1</title>
<path fill="none" stroke="#191970" d="M577.01,-224.4554C545.3666,-214.104 503.801,-200.5067 473.8241,-190.7004"/>
<polygon fill="#191970" stroke="#191970" points="474.7259,-187.313 464.1333,-187.5303 472.5495,-193.9661 474.7259,-187.313"/>
</g>
<!-- Node20&#45;&gt;Node3 -->
<g id="edge37" class="edge">
<title>Node20&#45;&gt;Node3</title>
<path fill="none" stroke="#191970" d="M559.3881,-226.2531C516.2503,-216.9817 457.7598,-203.8527 397.4321,-187.9809"/>
<polygon fill="#191970" stroke="#191970" points="398.2992,-184.5899 387.7362,-185.4102 396.5052,-191.3562 398.2992,-184.5899"/>
</g>
<!-- Node20&#45;&gt;Node5 -->
<g id="edge33" class="edge">
<title>Node20&#45;&gt;Node5</title>
<path fill="none" stroke="#191970" d="M686.5347,-225.4428C689.3909,-224.9307 692.2227,-224.4465 695,-224 843.2843,-200.163 883.6991,-217.3067 1031,-188 1031.1018,-187.9797 1031.2038,-187.9593 1031.3059,-187.9387"/>
<polygon fill="#191970" stroke="#191970" points="1032.065,-191.3559 1040.9869,-185.6419 1030.449,-184.5449 1032.065,-191.3559"/>
</g>
<!-- Node21 -->
<g id="node22" class="node">
<title>Node21</title>
<g id="a_node22"><a xlink:href="../../d2/d45/GPUCommonRtypes_8h.html" target="_top" xlink:title="GPUCommonRtypes.h">
<polygon fill="none" stroke="#000000" points="897.5,-168.5 897.5,-187.5 1022.5,-187.5 1022.5,-168.5 897.5,-168.5"/>
<text text-anchor="middle" x="960" y="-175.5" font-family="Helvetica,sans-Serif" font-size="10.00" fill="#000000">GPUCommonRtypes.h</text>
</a>
</g>
</g>
<!-- Node20&#45;&gt;Node21 -->
<g id="edge28" class="edge">
<title>Node20&#45;&gt;Node21</title>
<path fill="none" stroke="#191970" d="M686.5748,-225.6689C689.4202,-225.0956 692.2387,-224.5367 695,-224 761.4231,-211.0907 837.5591,-198.0568 891.1286,-189.1758"/>
<polygon fill="#191970" stroke="#191970" points="891.901,-192.5958 901.1963,-187.5116 890.7594,-185.6895 891.901,-192.5958"/>
</g>
<!-- Node23 -->
<g id="node24" class="node">
<title>Node23</title>
<polygon fill="none" stroke="#bfbfbf" points="742,-168.5 742,-187.5 792,-187.5 792,-168.5 742,-168.5"/>
<text text-anchor="middle" x="767" y="-175.5" font-family="Helvetica,sans-Serif" font-size="10.00" fill="#000000">cstdint</text>
</g>
<!-- Node20&#45;&gt;Node23 -->
<g id="edge30" class="edge">
<title>Node20&#45;&gt;Node23</title>
<path fill="none" stroke="#191970" d="M658.2264,-224.4554C681.8316,-214.374 712.6454,-201.2139 735.4476,-191.4755"/>
<polygon fill="#191970" stroke="#191970" points="736.8634,-194.6767 744.6851,-187.5303 734.114,-188.2393 736.8634,-194.6767"/>
</g>
<!-- Node24 -->
<g id="node25" class="node">
<title>Node24</title>
<polygon fill="none" stroke="#bfbfbf" points="520,-168.5 520,-187.5 572,-187.5 572,-168.5 520,-168.5"/>
<text text-anchor="middle" x="546" y="-175.5" font-family="Helvetica,sans-Serif" font-size="10.00" fill="#000000">cassert</text>
</g>
<!-- Node20&#45;&gt;Node24 -->
<g id="edge31" class="edge">
<title>Node20&#45;&gt;Node24</title>
<path fill="none" stroke="#191970" d="M603.9663,-224.2977C592.4985,-215.1384 577.9038,-203.4816 566.2281,-194.1562"/>
<polygon fill="#191970" stroke="#191970" points="568.3266,-191.3529 558.3287,-187.8469 563.9581,-196.8225 568.3266,-191.3529"/>
</g>
<!-- Node25 -->
<g id="node26" class="node">
<title>Node25</title>
<polygon fill="none" stroke="#bfbfbf" points="590.5,-168.5 590.5,-187.5 655.5,-187.5 655.5,-168.5 590.5,-168.5"/>
<text text-anchor="middle" x="623" y="-175.5" font-family="Helvetica,sans-Serif" font-size="10.00" fill="#000000">stdexcept</text>
</g>
<!-- Node20&#45;&gt;Node25 -->
<g id="edge32" class="edge">
<title>Node20&#45;&gt;Node25</title>
<path fill="none" stroke="#191970" d="M623,-224.2977C623,-216.3834 623,-206.6043 623,-198.0759"/>
<polygon fill="#191970" stroke="#191970" points="626.5001,-197.8469 623,-187.8469 619.5001,-197.847 626.5001,-197.8469"/>
</g>
<!-- Node26 -->
<g id="node27" class="node">
<title>Node26</title>
<polygon fill="none" stroke="#bfbfbf" points="810.5,-168.5 810.5,-187.5 879.5,-187.5 879.5,-168.5 810.5,-168.5"/>
<text text-anchor="middle" x="845" y="-175.5" font-family="Helvetica,sans-Serif" font-size="10.00" fill="#000000">type_traits</text>
</g>
<!-- Node20&#45;&gt;Node26 -->
<g id="edge34" class="edge">
<title>Node20&#45;&gt;Node26</title>
<path fill="none" stroke="#191970" d="M677.3073,-224.4554C715.1609,-213.9689 765.0387,-200.1515 800.5327,-190.3187"/>
<polygon fill="#191970" stroke="#191970" points="801.8953,-193.5731 810.5979,-187.5303 800.0264,-186.8271 801.8953,-193.5731"/>
</g>
<!-- Node27 -->
<g id="node28" class="node">
<title>Node27</title>
<polygon fill="none" stroke="#bfbfbf" points="674,-168.5 674,-187.5 724,-187.5 724,-168.5 674,-168.5"/>
<text text-anchor="middle" x="699" y="-175.5" font-family="Helvetica,sans-Serif" font-size="10.00" fill="#000000">cstring</text>
</g>
<!-- Node20&#45;&gt;Node27 -->
<g id="edge35" class="edge">
<title>Node20&#45;&gt;Node27</title>
<path fill="none" stroke="#191970" d="M641.7865,-224.2977C653.1053,-215.1384 667.5105,-203.4816 679.0346,-194.1562"/>
<polygon fill="#191970" stroke="#191970" points="681.2595,-196.8583 686.8314,-187.8469 676.8561,-191.4167 681.2595,-196.8583"/>
</g>
<!-- Node22 -->
<g id="node23" class="node">
<title>Node22</title>
<polygon fill="none" stroke="#bfbfbf" points="930.5,-112.5 930.5,-131.5 989.5,-131.5 989.5,-112.5 930.5,-112.5"/>
<text text-anchor="middle" x="960" y="-119.5" font-family="Helvetica,sans-Serif" font-size="10.00" fill="#000000">Rtypes.h</text>
</g>
<!-- Node21&#45;&gt;Node22 -->
<g id="edge29" class="edge">
<title>Node21&#45;&gt;Node22</title>
<path fill="none" stroke="#191970" d="M960,-168.2455C960,-160.9382 960,-150.6944 960,-141.7046"/>
<polygon fill="#191970" stroke="#191970" points="963.5001,-141.6426 960,-131.6427 956.5001,-141.6427 963.5001,-141.6426"/>
</g>
<!-- Node28&#45;&gt;Node26 -->
<g id="edge39" class="edge">
<title>Node28&#45;&gt;Node26</title>
<path fill="none" stroke="#191970" d="M772.4375,-229.8906C786.0695,-220.1421 807.3846,-204.8994 823.3922,-193.4521"/>
<polygon fill="#191970" stroke="#191970" points="825.5586,-196.2057 831.6569,-187.5419 821.4868,-190.5118 825.5586,-196.2057"/>
</g>
<!-- Node29&#45;&gt;Node21 -->
<g id="edge41" class="edge">
<title>Node29&#45;&gt;Node21</title>
<path fill="none" stroke="#191970" d="M911.0674,-224.2977C920.466,-215.4052 932.3527,-204.1586 942.057,-194.9769"/>
<polygon fill="#191970" stroke="#191970" points="944.7342,-197.2621 949.5927,-187.8469 939.9232,-192.1774 944.7342,-197.2621"/>
</g>
</g>
</svg>
        <g id="navigator" transform="translate(0 0)" fill="#404254">
                <rect fill="#f2f5e9" fill-opacity="0.5" stroke="#606060" stroke-width=".5" x="0" y="0" width="60" height="60"/>
                <use id="zoomplus" xlink:href="#zoomPlus" x="17" y="9" onmousedown="handleZoom(evt,'in')"/>
                <use id="zoomminus" xlink:href="#zoomMin" x="42" y="9" onmousedown="handleZoom(evt,'out')"/>
                <use id="reset" xlink:href="#resetDef" x="30" y="36" onmousedown="handleReset()"/>
                <g id="arrowUp" xlink:href="#dirArrow" transform="translate(30 24)" onmousedown="handlePan(0,-1)">
                  <use xlink:href="#rim" fill="#404040">
                        <set attributeName="fill" to="#808080" begin="arrowUp.mouseover" end="arrowUp.mouseout"/>
                  </use>
                  <path fill="none" stroke="white" stroke-width="1.5" d="M0,-3.0v7 M-2.5,-0.5L0,-3.0L2.5,-0.5"/>
                </g>
                <g id="arrowRight" xlink:href="#dirArrow" transform="rotate(90) translate(36 -43)" onmousedown="handlePan(1,0)">
                  <use xlink:href="#rim" fill="#404040">
                        <set attributeName="fill" to="#808080" begin="arrowRight.mouseover" end="arrowRight.mouseout"/>
                  </use>
                  <path fill="none" stroke="white" stroke-width="1.5" d="M0,-3.0v7 M-2.5,-0.5L0,-3.0L2.5,-0.5"/>
                </g>
                <g id="arrowDown" xlink:href="#dirArrow" transform="rotate(180) translate(-30 -48)" onmousedown="handlePan(0,1)">
                  <use xlink:href="#rim" fill="#404040">
                        <set attributeName="fill" to="#808080" begin="arrowDown.mouseover" end="arrowDown.mouseout"/>
                  </use>
                  <path fill="none" stroke="white" stroke-width="1.5" d="M0,-3.0v7 M-2.5,-0.5L0,-3.0L2.5,-0.5"/>
                </g>
                <g id="arrowLeft" xlink:href="#dirArrow" transform="rotate(270) translate(-36 17)" onmousedown="handlePan(-1,0)">
                  <use xlink:href="#rim" fill="#404040">
                        <set attributeName="fill" to="#808080" begin="arrowLeft.mouseover" end="arrowLeft.mouseout"/>
                  </use>
                  <path fill="none" stroke="white" stroke-width="1.5" d="M0,-3.0v7 M-2.5,-0.5L0,-3.0L2.5,-0.5"/>
                </g>
        </g>
        <svg viewBox="0 0 15 15" width="100%" height="30px" preserveAspectRatio="xMaxYMin meet">
         <g id="arrow_out" transform="scale(0.3 0.3)">
          <a xlink:href="GPUO2InterfaceConfiguration_8h__incl_org.svg" target="_base">
           <rect id="button" ry="5" rx="5" y="6" x="6" height="38" width="38"
                fill="#f2f5e9" fill-opacity="0.5" stroke="#606060" stroke-width="1.0"/>
           <path id="arrow"
             d="M 11.500037,31.436501 C 11.940474,20.09759 22.043105,11.32322 32.158766,21.979434 L 37.068811,17.246167 C 37.068811,17.246167 37.088388,32 37.088388,32 L 22.160133,31.978069 C 22.160133,31.978069 26.997745,27.140456 26.997745,27.140456 C 18.528582,18.264221 13.291696,25.230495 11.500037,31.436501 z"
             style="fill:#404040;"/>
          </a>
         </g>
        </svg>
</svg>
