<?xml version="1.0" encoding="UTF-8" standalone="no"?>
<!DOCTYPE svg PUBLIC "-//W3C//DTD SVG 1.1//EN"
 "http://www.w3.org/Graphics/SVG/1.1/DTD/svg11.dtd">
<!-- Generated by graphviz version 2.40.1 (20161225.0304)
 -->
<!-- Title: /home/travis/build/AliceO2Group/AliceO2/Detectors/TPC/base/test/testTPCParameters.cxx Pages: 1 -->
<svg width="2447pt" height="430pt"
 viewBox="0.00 0.00 2446.79 430.00" xmlns="http://www.w3.org/2000/svg" xmlns:xlink="http://www.w3.org/1999/xlink">
<g id="graph0" class="graph" transform="scale(1 1) rotate(0) translate(4 426)">
<title>/home/travis/build/AliceO2Group/AliceO2/Detectors/TPC/base/test/testTPCParameters.cxx</title>
<!-- Node0 -->
<g id="node1" class="node">
<title>Node0</title>
<polygon fill="#bfbfbf" stroke="#000000" points="1793.5,-369.5 1793.5,-421.5 1930.5,-421.5 1930.5,-369.5 1793.5,-369.5"/>
<text text-anchor="start" x="1801.5" y="-409.5" font-family="Helvetica,sans-Serif" font-size="10.00" fill="#000000">/home/travis/build</text>
<text text-anchor="start" x="1801.5" y="-398.5" font-family="Helvetica,sans-Serif" font-size="10.00" fill="#000000">/AliceO2Group/AliceO2</text>
<text text-anchor="start" x="1801.5" y="-387.5" font-family="Helvetica,sans-Serif" font-size="10.00" fill="#000000">/Detectors/TPC/base/test</text>
<text text-anchor="middle" x="1862" y="-376.5" font-family="Helvetica,sans-Serif" font-size="10.00" fill="#000000">/testTPCParameters.cxx</text>
</g>
<!-- Node1 -->
<g id="node2" class="node">
<title>Node1</title>
<polygon fill="none" stroke="#bfbfbf" points="1341,-313.5 1341,-332.5 1473,-332.5 1473,-313.5 1341,-313.5"/>
<text text-anchor="middle" x="1407" y="-320.5" font-family="Helvetica,sans-Serif" font-size="10.00" fill="#000000">boost/test/unit_test.hpp</text>
</g>
<!-- Node0&#45;&gt;Node1 -->
<g id="edge1" class="edge">
<title>Node0&#45;&gt;Node1</title>
<path fill="none" stroke="#191970" d="M1793.3893,-384.5675C1707.8976,-370.9452 1562.6145,-347.7957 1476.6442,-334.0972"/>
<polygon fill="#191970" stroke="#191970" points="1477.1451,-330.6329 1466.7189,-332.5156 1476.0435,-337.5457 1477.1451,-330.6329"/>
</g>
<!-- Node2 -->
<g id="node3" class="node">
<title>Node2</title>
<g id="a_node3"><a xlink:href="../../db/dad/ParameterDetector_8h.html" target="_top" xlink:title="Definition of the parameter class for the detector. ">
<polygon fill="none" stroke="#000000" points="1529.5,-313.5 1529.5,-332.5 1692.5,-332.5 1692.5,-313.5 1529.5,-313.5"/>
<text text-anchor="middle" x="1611" y="-320.5" font-family="Helvetica,sans-Serif" font-size="10.00" fill="#000000">TPCBase/ParameterDetector.h</text>
</a>
</g>
</g>
<!-- Node0&#45;&gt;Node2 -->
<g id="edge2" class="edge">
<title>Node0&#45;&gt;Node2</title>
<path fill="none" stroke="#191970" d="M1793.4131,-375.6891C1748.7769,-362.7961 1691.9544,-346.3833 1653.6869,-335.3299"/>
<polygon fill="#191970" stroke="#191970" points="1654.473,-331.9139 1643.8944,-332.5014 1652.5304,-338.639 1654.473,-331.9139"/>
</g>
<!-- Node22 -->
<g id="node23" class="node">
<title>Node22</title>
<g id="a_node23"><a xlink:href="../../db/d2c/ConfigurableParam_8h.html" target="_top" xlink:title="CommonUtils/Configurable\lParam.h">
<polygon fill="none" stroke="#000000" points="1907,-179.5 1907,-209.5 2055,-209.5 2055,-179.5 1907,-179.5"/>
<text text-anchor="start" x="1915" y="-197.5" font-family="Helvetica,sans-Serif" font-size="10.00" fill="#000000">CommonUtils/Configurable</text>
<text text-anchor="middle" x="1981" y="-186.5" font-family="Helvetica,sans-Serif" font-size="10.00" fill="#000000">Param.h</text>
</a>
</g>
</g>
<!-- Node0&#45;&gt;Node22 -->
<g id="edge51" class="edge">
<title>Node0&#45;&gt;Node22</title>
<path fill="none" stroke="#191970" d="M1930.8814,-392.9058C2022.3826,-387.9064 2176.826,-373.5443 2214,-333 2240.1744,-304.4526 2243.3187,-276.1438 2219,-246 2199.7012,-222.0786 2125.5438,-208.7169 2065.072,-201.6366"/>
<polygon fill="#191970" stroke="#191970" points="2065.4413,-198.1562 2055.1117,-200.5118 2064.6557,-205.1119 2065.4413,-198.1562"/>
</g>
<!-- Node29 -->
<g id="node30" class="node">
<title>Node29</title>
<g id="a_node30"><a xlink:href="../../da/d6b/ConfigurableParamHelper_8h.html" target="_top" xlink:title="CommonUtils/Configurable\lParamHelper.h">
<polygon fill="none" stroke="#000000" points="1642,-246.5 1642,-276.5 1790,-276.5 1790,-246.5 1642,-246.5"/>
<text text-anchor="start" x="1650" y="-264.5" font-family="Helvetica,sans-Serif" font-size="10.00" fill="#000000">CommonUtils/Configurable</text>
<text text-anchor="middle" x="1716" y="-253.5" font-family="Helvetica,sans-Serif" font-size="10.00" fill="#000000">ParamHelper.h</text>
</a>
</g>
</g>
<!-- Node0&#45;&gt;Node29 -->
<g id="edge52" class="edge">
<title>Node0&#45;&gt;Node29</title>
<path fill="none" stroke="#191970" d="M1793.4074,-392.9974C1703.7548,-388.1184 1554.1118,-373.9106 1520,-333 1484.0179,-289.8463 1563.6063,-272.7375 1631.9187,-265.9548"/>
<polygon fill="#191970" stroke="#191970" points="1632.2674,-269.4376 1641.9006,-265.0272 1631.6196,-262.4676 1632.2674,-269.4376"/>
</g>
<!-- Node33 -->
<g id="node34" class="node">
<title>Node33</title>
<g id="a_node34"><a xlink:href="../../d3/d47/ParameterElectronics_8h.html" target="_top" xlink:title="Definition of the parameter class for the detector electronics. ">
<polygon fill="none" stroke="#000000" points="2030.5,-313.5 2030.5,-332.5 2205.5,-332.5 2205.5,-313.5 2030.5,-313.5"/>
<text text-anchor="middle" x="2118" y="-320.5" font-family="Helvetica,sans-Serif" font-size="10.00" fill="#000000">TPCBase/ParameterElectronics.h</text>
</a>
</g>
</g>
<!-- Node0&#45;&gt;Node33 -->
<g id="edge37" class="edge">
<title>Node0&#45;&gt;Node33</title>
<path fill="none" stroke="#191970" d="M1930.6033,-376.0713C1976.382,-363.1067 2035.1847,-346.4535 2074.6022,-335.2904"/>
<polygon fill="#191970" stroke="#191970" points="2075.766,-338.5985 2084.4338,-332.506 2073.8585,-331.8634 2075.766,-338.5985"/>
</g>
<!-- Node35 -->
<g id="node36" class="node">
<title>Node35</title>
<g id="a_node36"><a xlink:href="../../de/d2b/ParameterGEM_8h.html" target="_top" xlink:title="Definition of the parameter class for the GEM stack. ">
<polygon fill="none" stroke="#000000" points="1710.5,-313.5 1710.5,-332.5 1853.5,-332.5 1853.5,-313.5 1710.5,-313.5"/>
<text text-anchor="middle" x="1782" y="-320.5" font-family="Helvetica,sans-Serif" font-size="10.00" fill="#000000">TPCBase/ParameterGEM.h</text>
</a>
</g>
</g>
<!-- Node0&#45;&gt;Node35 -->
<g id="edge42" class="edge">
<title>Node0&#45;&gt;Node35</title>
<path fill="none" stroke="#191970" d="M1833.1182,-369.3258C1822.069,-359.3126 1809.7905,-348.1851 1800.0369,-339.346"/>
<polygon fill="#191970" stroke="#191970" points="1802.2805,-336.6558 1792.5203,-332.534 1797.5798,-341.8427 1802.2805,-336.6558"/>
</g>
<!-- Node36 -->
<g id="node37" class="node">
<title>Node36</title>
<g id="a_node37"><a xlink:href="../../db/d5b/ParameterGas_8h.html" target="_top" xlink:title="Definition of the parameter class for the detector gas. ">
<polygon fill="none" stroke="#000000" points="1872,-313.5 1872,-332.5 2012,-332.5 2012,-313.5 1872,-313.5"/>
<text text-anchor="middle" x="1942" y="-320.5" font-family="Helvetica,sans-Serif" font-size="10.00" fill="#000000">TPCBase/ParameterGas.h</text>
</a>
</g>
</g>
<!-- Node0&#45;&gt;Node36 -->
<g id="edge47" class="edge">
<title>Node0&#45;&gt;Node36</title>
<path fill="none" stroke="#191970" d="M1890.8818,-369.3258C1901.931,-359.3126 1914.2095,-348.1851 1923.9631,-339.346"/>
<polygon fill="#191970" stroke="#191970" points="1926.4202,-341.8427 1931.4797,-332.534 1921.7195,-336.6558 1926.4202,-341.8427"/>
</g>
<!-- Node37 -->
<g id="node38" class="node">
<title>Node37</title>
<g id="a_node38"><a xlink:href="../../d4/dee/SimConfig_8h.html" target="_top" xlink:title="SimConfig/SimConfig.h">
<polygon fill="none" stroke="#000000" points="2277,-313.5 2277,-332.5 2405,-332.5 2405,-313.5 2277,-313.5"/>
<text text-anchor="middle" x="2341" y="-320.5" font-family="Helvetica,sans-Serif" font-size="10.00" fill="#000000">SimConfig/SimConfig.h</text>
</a>
</g>
</g>
<!-- Node0&#45;&gt;Node37 -->
<g id="edge53" class="edge">
<title>Node0&#45;&gt;Node37</title>
<path fill="none" stroke="#191970" d="M1930.629,-385.1125C2020.2667,-371.5452 2176.5363,-347.8927 2268.1912,-334.0201"/>
<polygon fill="#191970" stroke="#191970" points="2268.856,-337.4595 2278.2196,-332.5023 2267.8084,-330.5383 2268.856,-337.4595"/>
</g>
<!-- Node3 -->
<g id="node4" class="node">
<title>Node3</title>
<polygon fill="none" stroke="#bfbfbf" points="1884,-252 1884,-271 1926,-271 1926,-252 1884,-252"/>
<text text-anchor="middle" x="1905" y="-259" font-family="Helvetica,sans-Serif" font-size="10.00" fill="#000000">array</text>
</g>
<!-- Node2&#45;&gt;Node3 -->
<g id="edge3" class="edge">
<title>Node2&#45;&gt;Node3</title>
<path fill="none" stroke="#191970" d="M1657.1485,-313.4505C1701.8655,-304.184 1771.5956,-289.6992 1832,-277 1845.8062,-274.0974 1861.075,-270.8598 1874.0642,-268.0972"/>
<polygon fill="#191970" stroke="#191970" points="1874.8689,-271.5044 1883.921,-265.999 1873.4115,-264.6578 1874.8689,-271.5044"/>
</g>
<!-- Node4 -->
<g id="node5" class="node">
<title>Node4</title>
<g id="a_node5"><a xlink:href="../../d1/d73/Defs_8h.html" target="_top" xlink:title="DataFormatsTPC/Defs.h">
<polygon fill="none" stroke="#000000" points="1050.5,-252 1050.5,-271 1183.5,-271 1183.5,-252 1050.5,-252"/>
<text text-anchor="middle" x="1117" y="-259" font-family="Helvetica,sans-Serif" font-size="10.00" fill="#000000">DataFormatsTPC/Defs.h</text>
</a>
</g>
</g>
<!-- Node2&#45;&gt;Node4 -->
<g id="edge4" class="edge">
<title>Node2&#45;&gt;Node4</title>
<path fill="none" stroke="#191970" d="M1534.625,-313.4918C1441.9553,-301.955 1286.6238,-282.6171 1193.7745,-271.058"/>
<polygon fill="#191970" stroke="#191970" points="1193.9583,-267.5539 1183.6025,-269.7916 1193.0935,-274.5003 1193.9583,-267.5539"/>
</g>
<!-- Node2&#45;&gt;Node22 -->
<g id="edge24" class="edge">
<title>Node2&#45;&gt;Node22</title>
<path fill="none" stroke="#191970" d="M1687.4403,-313.4512C1722.9263,-306.7738 1764.7388,-295.5865 1799,-277 1816.6879,-267.4044 1814.7763,-256.4058 1832,-246 1855.6806,-231.6932 1883.8919,-220.6551 1909.3636,-212.535"/>
<polygon fill="#191970" stroke="#191970" points="1910.4553,-215.861 1918.9765,-209.565 1908.3889,-209.1729 1910.4553,-215.861"/>
</g>
<!-- Node2&#45;&gt;Node29 -->
<g id="edge31" class="edge">
<title>Node2&#45;&gt;Node29</title>
<path fill="none" stroke="#191970" d="M1627.4063,-313.3906C1641.8799,-304.9132 1663.4472,-292.2809 1681.6781,-281.6028"/>
<polygon fill="#191970" stroke="#191970" points="1683.4542,-284.6188 1690.3141,-276.5446 1679.9163,-278.5786 1683.4542,-284.6188"/>
</g>
<!-- Node5 -->
<g id="node6" class="node">
<title>Node5</title>
<polygon fill="none" stroke="#bfbfbf" points="1389.5,-185 1389.5,-204 1436.5,-204 1436.5,-185 1389.5,-185"/>
<text text-anchor="middle" x="1413" y="-192" font-family="Helvetica,sans-Serif" font-size="10.00" fill="#000000">cmath</text>
</g>
<!-- Node4&#45;&gt;Node5 -->
<g id="edge5" class="edge">
<title>Node4&#45;&gt;Node5</title>
<path fill="none" stroke="#191970" d="M1159.0952,-251.9717C1218.324,-238.5652 1325.0732,-214.4024 1379.347,-202.1174"/>
<polygon fill="#191970" stroke="#191970" points="1380.1795,-205.5176 1389.1601,-199.8962 1378.6341,-198.6903 1380.1795,-205.5176"/>
</g>
<!-- Node6 -->
<g id="node7" class="node">
<title>Node6</title>
<g id="a_node7"><a xlink:href="../../d1/da8/GPUROOTCartesianFwd_8h.html" target="_top" xlink:title="GPUROOTCartesianFwd.h">
<polygon fill="none" stroke="#000000" points="0,-118 0,-137 140,-137 140,-118 0,-118"/>
<text text-anchor="middle" x="70" y="-125" font-family="Helvetica,sans-Serif" font-size="10.00" fill="#000000">GPUROOTCartesianFwd.h</text>
</a>
</g>
</g>
<!-- Node4&#45;&gt;Node6 -->
<g id="edge6" class="edge">
<title>Node4&#45;&gt;Node6</title>
<path fill="none" stroke="#191970" d="M1050.4599,-255.0214C893.1792,-239.345 486.3404,-196.6704 149,-143 141.5139,-141.809 133.6541,-140.4269 125.9149,-138.9883"/>
<polygon fill="#191970" stroke="#191970" points="126.3296,-135.5045 115.8519,-137.0756 125.0225,-142.3814 126.3296,-135.5045"/>
</g>
<!-- Node10 -->
<g id="node11" class="node">
<title>Node10</title>
<g id="a_node11"><a xlink:href="../../dc/d73/Cartesian_8h.html" target="_top" xlink:title="MathUtils/Cartesian.h">
<polygon fill="none" stroke="#000000" points="788,-185 788,-204 910,-204 910,-185 788,-185"/>
<text text-anchor="middle" x="849" y="-192" font-family="Helvetica,sans-Serif" font-size="10.00" fill="#000000">MathUtils/Cartesian.h</text>
</a>
</g>
</g>
<!-- Node4&#45;&gt;Node10 -->
<g id="edge10" class="edge">
<title>Node4&#45;&gt;Node10</title>
<path fill="none" stroke="#191970" d="M1078.8867,-251.9717C1031.1979,-240.0495 949.4833,-219.6208 897.4151,-206.6038"/>
<polygon fill="#191970" stroke="#191970" points="897.966,-203.1339 887.4157,-204.1039 896.2682,-209.9248 897.966,-203.1339"/>
</g>
<!-- Node7 -->
<g id="node8" class="node">
<title>Node7</title>
<g id="a_node8"><a xlink:href="../../df/d21/GPUCommonDef_8h.html" target="_top" xlink:title="GPUCommonDef.h">
<polygon fill="none" stroke="#000000" points="253.5,-56.5 253.5,-75.5 360.5,-75.5 360.5,-56.5 253.5,-56.5"/>
<text text-anchor="middle" x="307" y="-63.5" font-family="Helvetica,sans-Serif" font-size="10.00" fill="#000000">GPUCommonDef.h</text>
</a>
</g>
</g>
<!-- Node6&#45;&gt;Node7 -->
<g id="edge7" class="edge">
<title>Node6&#45;&gt;Node7</title>
<path fill="none" stroke="#191970" d="M106.7712,-117.9581C148.1106,-107.2308 215.3233,-89.7895 260.3322,-78.11"/>
<polygon fill="#191970" stroke="#191970" points="261.3422,-81.4639 270.1425,-75.5643 259.584,-74.6883 261.3422,-81.4639"/>
</g>
<!-- Node8 -->
<g id="node9" class="node">
<title>Node8</title>
<g id="a_node9"><a xlink:href="../../d5/d93/GPUCommonDefSettings_8h.html" target="_top" xlink:title="GPUCommonDefSettings.h">
<polygon fill="none" stroke="#000000" points="156,-.5 156,-19.5 304,-19.5 304,-.5 156,-.5"/>
<text text-anchor="middle" x="230" y="-7.5" font-family="Helvetica,sans-Serif" font-size="10.00" fill="#000000">GPUCommonDefSettings.h</text>
</a>
</g>
</g>
<!-- Node7&#45;&gt;Node8 -->
<g id="edge8" class="edge">
<title>Node7&#45;&gt;Node8</title>
<path fill="none" stroke="#191970" d="M293.5876,-56.2455C281.9943,-47.814 265.0252,-35.4729 251.5322,-25.6598"/>
<polygon fill="#191970" stroke="#191970" points="253.4047,-22.6938 243.2587,-19.6427 249.2874,-28.355 253.4047,-22.6938"/>
</g>
<!-- Node9 -->
<g id="node10" class="node">
<title>Node9</title>
<g id="a_node10"><a xlink:href="../../da/d5a/GPUCommonDefAPI_8h.html" target="_top" xlink:title="GPUCommonDefAPI.h">
<polygon fill="none" stroke="#000000" points="322,-.5 322,-19.5 446,-19.5 446,-.5 322,-.5"/>
<text text-anchor="middle" x="384" y="-7.5" font-family="Helvetica,sans-Serif" font-size="10.00" fill="#000000">GPUCommonDefAPI.h</text>
</a>
</g>
</g>
<!-- Node7&#45;&gt;Node9 -->
<g id="edge9" class="edge">
<title>Node7&#45;&gt;Node9</title>
<path fill="none" stroke="#191970" d="M320.4124,-56.2455C332.0057,-47.814 348.9748,-35.4729 362.4678,-25.6598"/>
<polygon fill="#191970" stroke="#191970" points="364.7126,-28.355 370.7413,-19.6427 360.5953,-22.6938 364.7126,-28.355"/>
</g>
<!-- Node10&#45;&gt;Node6 -->
<g id="edge23" class="edge">
<title>Node10&#45;&gt;Node6</title>
<path fill="none" stroke="#191970" d="M787.8838,-192.4771C665.9321,-187.8956 383.8986,-174.5682 149,-143 140.8261,-141.9015 132.2231,-140.4859 123.8231,-138.9577"/>
<polygon fill="#191970" stroke="#191970" points="124.1956,-135.4663 113.7201,-137.0516 122.8978,-142.345 124.1956,-135.4663"/>
</g>
<!-- Node10&#45;&gt;Node7 -->
<g id="edge11" class="edge">
<title>Node10&#45;&gt;Node7</title>
<path fill="none" stroke="#191970" d="M787.7164,-187.0363C716.0378,-177.6868 602.1856,-160.7293 563,-143 542.8266,-133.8727 544.0307,-121.4361 524,-112 475.5185,-89.1612 415.6232,-77.5597 371.049,-71.7272"/>
<polygon fill="#191970" stroke="#191970" points="371.2801,-68.2291 360.9243,-70.4667 370.4152,-75.1754 371.2801,-68.2291"/>
</g>
<!-- Node11 -->
<g id="node12" class="node">
<title>Node11</title>
<g id="a_node12"><a xlink:href="../../d2/d45/GPUCommonRtypes_8h.html" target="_top" xlink:title="GPUCommonRtypes.h">
<polygon fill="none" stroke="#000000" points="1700.5,-118 1700.5,-137 1825.5,-137 1825.5,-118 1700.5,-118"/>
<text text-anchor="middle" x="1763" y="-125" font-family="Helvetica,sans-Serif" font-size="10.00" fill="#000000">GPUCommonRtypes.h</text>
</a>
</g>
</g>
<!-- Node10&#45;&gt;Node11 -->
<g id="edge12" class="edge">
<title>Node10&#45;&gt;Node11</title>
<path fill="none" stroke="#191970" d="M910.0667,-193.9171C1049.2533,-191.9016 1400.4569,-182.9265 1691,-143 1698.4866,-141.9712 1706.3539,-140.5913 1714.0271,-139.0772"/>
<polygon fill="#191970" stroke="#191970" points="1714.8684,-142.4774 1723.9542,-137.0278 1713.4531,-135.622 1714.8684,-142.4774"/>
</g>
<!-- Node13 -->
<g id="node14" class="node">
<title>Node13</title>
<polygon fill="none" stroke="#bfbfbf" points="572,-112.5 572,-142.5 736,-142.5 736,-112.5 572,-112.5"/>
<text text-anchor="start" x="580" y="-130.5" font-family="Helvetica,sans-Serif" font-size="10.00" fill="#000000">Math/GenVector/Displacement</text>
<text text-anchor="middle" x="654" y="-119.5" font-family="Helvetica,sans-Serif" font-size="10.00" fill="#000000">Vector3D.h</text>
</g>
<!-- Node10&#45;&gt;Node13 -->
<g id="edge14" class="edge">
<title>Node10&#45;&gt;Node13</title>
<path fill="none" stroke="#191970" d="M821.0613,-184.9005C791.4796,-174.7366 744.0721,-158.4479 707.3023,-145.8141"/>
<polygon fill="#191970" stroke="#191970" points="708.3147,-142.4612 697.7201,-142.5218 706.0401,-149.0813 708.3147,-142.4612"/>
</g>
<!-- Node14 -->
<g id="node15" class="node">
<title>Node14</title>
<polygon fill="none" stroke="#bfbfbf" points="754.5,-118 754.5,-137 943.5,-137 943.5,-118 754.5,-118"/>
<text text-anchor="middle" x="849" y="-125" font-family="Helvetica,sans-Serif" font-size="10.00" fill="#000000">Math/GenVector/PositionVector3D.h</text>
</g>
<!-- Node10&#45;&gt;Node14 -->
<g id="edge15" class="edge">
<title>Node10&#45;&gt;Node14</title>
<path fill="none" stroke="#191970" d="M849,-184.9005C849,-175.149 849,-159.7597 849,-147.3695"/>
<polygon fill="#191970" stroke="#191970" points="852.5001,-147.0816 849,-137.0817 845.5001,-147.0817 852.5001,-147.0816"/>
</g>
<!-- Node15 -->
<g id="node16" class="node">
<title>Node15</title>
<polygon fill="none" stroke="#bfbfbf" points="962,-118 962,-137 1122,-137 1122,-118 962,-118"/>
<text text-anchor="middle" x="1042" y="-125" font-family="Helvetica,sans-Serif" font-size="10.00" fill="#000000">Math/GenVector/Rotation3D.h</text>
</g>
<!-- Node10&#45;&gt;Node15 -->
<g id="edge16" class="edge">
<title>Node10&#45;&gt;Node15</title>
<path fill="none" stroke="#191970" d="M876.6522,-184.9005C910.3318,-173.2086 967.3574,-153.4122 1004.8472,-140.3976"/>
<polygon fill="#191970" stroke="#191970" points="1006.1,-143.6677 1014.3991,-137.0817 1003.8043,-137.0548 1006.1,-143.6677"/>
</g>
<!-- Node16 -->
<g id="node17" class="node">
<title>Node16</title>
<polygon fill="none" stroke="#bfbfbf" points="1140,-118 1140,-137 1308,-137 1308,-118 1140,-118"/>
<text text-anchor="middle" x="1224" y="-125" font-family="Helvetica,sans-Serif" font-size="10.00" fill="#000000">Math/GenVector/Transform3D.h</text>
</g>
<!-- Node10&#45;&gt;Node16 -->
<g id="edge17" class="edge">
<title>Node10&#45;&gt;Node16</title>
<path fill="none" stroke="#191970" d="M902.3301,-184.9717C970.4067,-172.8087 1088.0365,-151.7921 1160.6179,-138.8243"/>
<polygon fill="#191970" stroke="#191970" points="1161.3221,-142.254 1170.5506,-137.0496 1160.0909,-135.3631 1161.3221,-142.254"/>
</g>
<!-- Node17 -->
<g id="node18" class="node">
<title>Node17</title>
<polygon fill="none" stroke="#bfbfbf" points="1326.5,-118 1326.5,-137 1499.5,-137 1499.5,-118 1326.5,-118"/>
<text text-anchor="middle" x="1413" y="-125" font-family="Helvetica,sans-Serif" font-size="10.00" fill="#000000">Math/GenVector/Translation3D.h</text>
</g>
<!-- Node10&#45;&gt;Node17 -->
<g id="edge18" class="edge">
<title>Node10&#45;&gt;Node17</title>
<path fill="none" stroke="#191970" d="M910.0741,-188.772C999.5389,-180.1563 1171.4052,-162.7518 1317,-143 1326.7239,-141.6808 1336.9811,-140.1616 1347.0283,-138.6013"/>
<polygon fill="#191970" stroke="#191970" points="1347.6447,-142.0474 1356.9778,-137.0331 1346.5548,-135.1328 1347.6447,-142.0474"/>
</g>
<!-- Node18 -->
<g id="node19" class="node">
<title>Node18</title>
<polygon fill="none" stroke="#bfbfbf" points="1518,-112.5 1518,-142.5 1682,-142.5 1682,-112.5 1518,-112.5"/>
<text text-anchor="start" x="1526" y="-130.5" font-family="Helvetica,sans-Serif" font-size="10.00" fill="#000000">Math/GenVector/Displacement</text>
<text text-anchor="middle" x="1600" y="-119.5" font-family="Helvetica,sans-Serif" font-size="10.00" fill="#000000">Vector2D.h</text>
</g>
<!-- Node10&#45;&gt;Node18 -->
<g id="edge19" class="edge">
<title>Node10&#45;&gt;Node18</title>
<path fill="none" stroke="#191970" d="M910.0539,-191.5466C1024.9004,-185.5944 1281.0954,-170.4358 1507.7078,-142.9559"/>
<polygon fill="#191970" stroke="#191970" points="1508.2932,-146.4105 1517.7942,-141.7221 1507.4432,-139.4623 1508.2932,-146.4105"/>
</g>
<!-- Node19 -->
<g id="node20" class="node">
<title>Node19</title>
<polygon fill="none" stroke="#bfbfbf" points="158.5,-118 158.5,-137 347.5,-137 347.5,-118 158.5,-118"/>
<text text-anchor="middle" x="253" y="-125" font-family="Helvetica,sans-Serif" font-size="10.00" fill="#000000">Math/GenVector/PositionVector2D.h</text>
</g>
<!-- Node10&#45;&gt;Node19 -->
<g id="edge20" class="edge">
<title>Node10&#45;&gt;Node19</title>
<path fill="none" stroke="#191970" d="M787.9234,-188.9713C694.8168,-180.3479 511.8531,-162.6346 357,-143 346.2543,-141.6375 334.9027,-140.0739 323.8035,-138.4756"/>
<polygon fill="#191970" stroke="#191970" points="324.1063,-134.9828 313.7058,-137.0028 323.096,-141.9095 324.1063,-134.9828"/>
</g>
<!-- Node20 -->
<g id="node21" class="node">
<title>Node20</title>
<polygon fill="none" stroke="#bfbfbf" points="366,-118 366,-137 448,-137 448,-118 366,-118"/>
<text text-anchor="middle" x="407" y="-125" font-family="Helvetica,sans-Serif" font-size="10.00" fill="#000000">TGeoMatrix.h</text>
</g>
<!-- Node10&#45;&gt;Node20 -->
<g id="edge21" class="edge">
<title>Node10&#45;&gt;Node20</title>
<path fill="none" stroke="#191970" d="M787.6709,-189.6929C710.0381,-182.8667 572.4953,-168.296 457,-143 452.9052,-142.1031 448.6628,-141.0263 444.4589,-139.8634"/>
<polygon fill="#191970" stroke="#191970" points="445.3879,-136.4885 434.8073,-137.0381 443.4213,-143.2066 445.3879,-136.4885"/>
</g>
<!-- Node21 -->
<g id="node22" class="node">
<title>Node21</title>
<polygon fill="none" stroke="#bfbfbf" points="466.5,-118 466.5,-137 515.5,-137 515.5,-118 466.5,-118"/>
<text text-anchor="middle" x="491" y="-125" font-family="Helvetica,sans-Serif" font-size="10.00" fill="#000000">iosfwd</text>
</g>
<!-- Node10&#45;&gt;Node21 -->
<g id="edge22" class="edge">
<title>Node10&#45;&gt;Node21</title>
<path fill="none" stroke="#191970" d="M787.8907,-188.6433C723.0488,-181.5034 618.0134,-167.2805 530,-143 527.3903,-142.2801 524.7166,-141.4426 522.0524,-140.5368"/>
<polygon fill="#191970" stroke="#191970" points="523.1706,-137.2189 512.5771,-137.0459 520.7505,-143.7873 523.1706,-137.2189"/>
</g>
<!-- Node12 -->
<g id="node13" class="node">
<title>Node12</title>
<polygon fill="none" stroke="#bfbfbf" points="2073.5,-56.5 2073.5,-75.5 2132.5,-75.5 2132.5,-56.5 2073.5,-56.5"/>
<text text-anchor="middle" x="2103" y="-63.5" font-family="Helvetica,sans-Serif" font-size="10.00" fill="#000000">Rtypes.h</text>
</g>
<!-- Node11&#45;&gt;Node12 -->
<g id="edge13" class="edge">
<title>Node11&#45;&gt;Node12</title>
<path fill="none" stroke="#191970" d="M1805.3592,-117.9216C1814.7717,-115.8857 1824.7116,-113.8071 1834,-112 1915.3151,-96.18 2011.0359,-80.5121 2063.554,-72.1681"/>
<polygon fill="#191970" stroke="#191970" points="2064.1348,-75.6198 2073.4645,-70.5991 2063.0402,-68.7059 2064.1348,-75.6198"/>
</g>
<!-- Node23 -->
<g id="node24" class="node">
<title>Node23</title>
<polygon fill="none" stroke="#bfbfbf" points="2128.5,-118 2128.5,-137 2175.5,-137 2175.5,-118 2128.5,-118"/>
<text text-anchor="middle" x="2152" y="-125" font-family="Helvetica,sans-Serif" font-size="10.00" fill="#000000">vector</text>
</g>
<!-- Node22&#45;&gt;Node23 -->
<g id="edge25" class="edge">
<title>Node22&#45;&gt;Node23</title>
<path fill="none" stroke="#191970" d="M2024.247,-179.3903C2051.6258,-169.5719 2087.6492,-156.1865 2119,-143 2120.3492,-142.4325 2121.724,-141.841 2123.1087,-141.2346"/>
<polygon fill="#191970" stroke="#191970" points="2124.5569,-144.421 2132.2248,-137.1097 2121.6712,-138.0435 2124.5569,-144.421"/>
</g>
<!-- Node24 -->
<g id="node25" class="node">
<title>Node24</title>
<polygon fill="none" stroke="#bfbfbf" points="2194,-118 2194,-137 2232,-137 2232,-118 2194,-118"/>
<text text-anchor="middle" x="2213" y="-125" font-family="Helvetica,sans-Serif" font-size="10.00" fill="#000000">map</text>
</g>
<!-- Node22&#45;&gt;Node24 -->
<g id="edge26" class="edge">
<title>Node22&#45;&gt;Node24</title>
<path fill="none" stroke="#191970" d="M2055.1547,-180.2199C2094.2012,-171.5758 2142.4682,-159.0921 2184,-143 2185.1977,-142.5359 2186.4089,-142.0337 2187.6219,-141.5036"/>
<polygon fill="#191970" stroke="#191970" points="2189.297,-144.5811 2196.7645,-137.0654 2186.24,-138.2839 2189.297,-144.5811"/>
</g>
<!-- Node25 -->
<g id="node26" class="node">
<title>Node25</title>
<polygon fill="none" stroke="#bfbfbf" points="2250.5,-118 2250.5,-137 2343.5,-137 2343.5,-118 2250.5,-118"/>
<text text-anchor="middle" x="2297" y="-125" font-family="Helvetica,sans-Serif" font-size="10.00" fill="#000000">unordered_map</text>
</g>
<!-- Node22&#45;&gt;Node25 -->
<g id="edge27" class="edge">
<title>Node22&#45;&gt;Node25</title>
<path fill="none" stroke="#191970" d="M2055.0025,-181.3593C2107.2032,-171.7203 2178.6512,-157.7819 2241,-143 2245.3695,-141.9641 2249.9127,-140.8197 2254.437,-139.636"/>
<polygon fill="#191970" stroke="#191970" points="2255.4843,-142.9789 2264.2367,-137.0085 2253.6715,-136.2177 2255.4843,-142.9789"/>
</g>
<!-- Node26 -->
<g id="node27" class="node">
<title>Node26</title>
<polygon fill="none" stroke="#bfbfbf" points="1918.5,-112.5 1918.5,-142.5 2031.5,-142.5 2031.5,-112.5 1918.5,-112.5"/>
<text text-anchor="start" x="1926.5" y="-130.5" font-family="Helvetica,sans-Serif" font-size="10.00" fill="#000000">boost/property_tree</text>
<text text-anchor="middle" x="1975" y="-119.5" font-family="Helvetica,sans-Serif" font-size="10.00" fill="#000000">/ptree.hpp</text>
</g>
<!-- Node22&#45;&gt;Node26 -->
<g id="edge28" class="edge">
<title>Node22&#45;&gt;Node26</title>
<path fill="none" stroke="#191970" d="M1979.6385,-179.2967C1978.9327,-171.4156 1978.0524,-161.5857 1977.249,-152.6135"/>
<polygon fill="#191970" stroke="#191970" points="1980.7342,-152.2911 1976.3561,-142.6432 1973.7621,-152.9155 1980.7342,-152.2911"/>
</g>
<!-- Node27 -->
<g id="node28" class="node">
<title>Node27</title>
<polygon fill="none" stroke="#bfbfbf" points="1843.5,-118 1843.5,-137 1900.5,-137 1900.5,-118 1843.5,-118"/>
<text text-anchor="middle" x="1872" y="-125" font-family="Helvetica,sans-Serif" font-size="10.00" fill="#000000">typeinfo</text>
</g>
<!-- Node22&#45;&gt;Node27 -->
<g id="edge29" class="edge">
<title>Node22&#45;&gt;Node27</title>
<path fill="none" stroke="#191970" d="M1956.5383,-179.4639C1938.579,-168.4247 1914.2911,-153.4954 1896.3566,-142.4715"/>
<polygon fill="#191970" stroke="#191970" points="1897.9764,-139.3588 1887.6243,-137.1039 1894.3107,-145.3223 1897.9764,-139.3588"/>
</g>
<!-- Node28 -->
<g id="node29" class="node">
<title>Node28</title>
<polygon fill="none" stroke="#bfbfbf" points="2050,-118 2050,-137 2110,-137 2110,-118 2050,-118"/>
<text text-anchor="middle" x="2080" y="-125" font-family="Helvetica,sans-Serif" font-size="10.00" fill="#000000">iostream</text>
</g>
<!-- Node22&#45;&gt;Node28 -->
<g id="edge30" class="edge">
<title>Node22&#45;&gt;Node28</title>
<path fill="none" stroke="#191970" d="M2003.4646,-179.2967C2019.6381,-168.351 2041.3661,-153.6462 2057.5388,-142.701"/>
<polygon fill="#191970" stroke="#191970" points="2059.5614,-145.5584 2065.8815,-137.055 2055.6381,-139.7612 2059.5614,-145.5584"/>
</g>
<!-- Node29&#45;&gt;Node22 -->
<g id="edge32" class="edge">
<title>Node29&#45;&gt;Node22</title>
<path fill="none" stroke="#191970" d="M1775.4712,-246.4639C1815.7341,-236.2842 1869.0806,-222.7966 1911.3337,-212.1138"/>
<polygon fill="#191970" stroke="#191970" points="1912.4324,-215.4462 1921.2694,-209.6017 1910.7166,-208.6597 1912.4324,-215.4462"/>
</g>
<!-- Node29&#45;&gt;Node27 -->
<g id="edge35" class="edge">
<title>Node29&#45;&gt;Node27</title>
<path fill="none" stroke="#191970" d="M1762.4778,-246.4615C1783.0565,-238.117 1806.5066,-226.115 1824,-210 1843.3455,-192.1789 1857.1546,-164.7402 1864.8556,-146.4619"/>
<polygon fill="#191970" stroke="#191970" points="1868.1223,-147.7191 1868.5908,-137.1346 1861.624,-145.1167 1868.1223,-147.7191"/>
</g>
<!-- Node30 -->
<g id="node31" class="node">
<title>Node30</title>
<polygon fill="none" stroke="#bfbfbf" points="1758.5,-185 1758.5,-204 1815.5,-204 1815.5,-185 1758.5,-185"/>
<text text-anchor="middle" x="1787" y="-192" font-family="Helvetica,sans-Serif" font-size="10.00" fill="#000000">TClass.h</text>
</g>
<!-- Node29&#45;&gt;Node30 -->
<g id="edge33" class="edge">
<title>Node29&#45;&gt;Node30</title>
<path fill="none" stroke="#191970" d="M1732.111,-246.2967C1743.2805,-235.7564 1758.144,-221.7303 1769.5867,-210.9323"/>
<polygon fill="#191970" stroke="#191970" points="1772.0037,-213.4638 1776.8746,-204.055 1767.1994,-208.3727 1772.0037,-213.4638"/>
</g>
<!-- Node31 -->
<g id="node32" class="node">
<title>Node31</title>
<polygon fill="none" stroke="#bfbfbf" points="1604.5,-185 1604.5,-204 1673.5,-204 1673.5,-185 1604.5,-185"/>
<text text-anchor="middle" x="1639" y="-192" font-family="Helvetica,sans-Serif" font-size="10.00" fill="#000000">type_traits</text>
</g>
<!-- Node29&#45;&gt;Node31 -->
<g id="edge34" class="edge">
<title>Node29&#45;&gt;Node31</title>
<path fill="none" stroke="#191970" d="M1698.5275,-246.2967C1686.2976,-235.6551 1669.9841,-221.4602 1657.5279,-210.6217"/>
<polygon fill="#191970" stroke="#191970" points="1659.8225,-207.9788 1649.9811,-204.055 1655.2276,-213.2596 1659.8225,-207.9788"/>
</g>
<!-- Node32 -->
<g id="node33" class="node">
<title>Node32</title>
<polygon fill="none" stroke="#bfbfbf" points="1692,-185 1692,-204 1740,-204 1740,-185 1692,-185"/>
<text text-anchor="middle" x="1716" y="-192" font-family="Helvetica,sans-Serif" font-size="10.00" fill="#000000">TFile.h</text>
</g>
<!-- Node29&#45;&gt;Node32 -->
<g id="edge36" class="edge">
<title>Node29&#45;&gt;Node32</title>
<path fill="none" stroke="#191970" d="M1716,-246.2967C1716,-236.7699 1716,-224.3954 1716,-214.1306"/>
<polygon fill="#191970" stroke="#191970" points="1719.5001,-214.0549 1716,-204.055 1712.5001,-214.055 1719.5001,-214.0549"/>
</g>
<!-- Node33&#45;&gt;Node3 -->
<g id="edge38" class="edge">
<title>Node33&#45;&gt;Node3</title>
<path fill="none" stroke="#191970" d="M2084.7188,-313.3906C2043.9251,-301.6122 1975.3528,-281.8131 1935.7501,-270.3785"/>
<polygon fill="#191970" stroke="#191970" points="1936.6825,-267.0048 1926.104,-267.5934 1934.7406,-273.7301 1936.6825,-267.0048"/>
</g>
<!-- Node33&#45;&gt;Node22 -->
<g id="edge39" class="edge">
<title>Node33&#45;&gt;Node22</title>
<path fill="none" stroke="#191970" d="M2075.7236,-313.4623C2053.8569,-306.5917 2028.2147,-295.2296 2011,-277 1996.1994,-261.3269 1988.5957,-237.7877 1984.7544,-219.8594"/>
<polygon fill="#191970" stroke="#191970" points="1988.1499,-218.9779 1982.8596,-209.7984 1981.2709,-220.2734 1988.1499,-218.9779"/>
</g>
<!-- Node33&#45;&gt;Node29 -->
<g id="edge40" class="edge">
<title>Node33&#45;&gt;Node29</title>
<path fill="none" stroke="#191970" d="M2055.6286,-313.4581C1987.0342,-302.9642 1876.4425,-286.0453 1800.1939,-274.3804"/>
<polygon fill="#191970" stroke="#191970" points="1800.5526,-270.8946 1790.1383,-272.8421 1799.494,-277.8141 1800.5526,-270.8946"/>
</g>
<!-- Node34 -->
<g id="node35" class="node">
<title>Node34</title>
<g id="a_node35"><a xlink:href="../../d4/dc6/LHCConstants_8h.html" target="_top" xlink:title="Header to collect LHC related constants. ">
<polygon fill="none" stroke="#000000" points="2020,-252 2020,-271 2210,-271 2210,-252 2020,-252"/>
<text text-anchor="middle" x="2115" y="-259" font-family="Helvetica,sans-Serif" font-size="10.00" fill="#000000">CommonConstants/LHCConstants.h</text>
</a>
</g>
</g>
<!-- Node33&#45;&gt;Node34 -->
<g id="edge41" class="edge">
<title>Node33&#45;&gt;Node34</title>
<path fill="none" stroke="#191970" d="M2117.5313,-313.3906C2117.1154,-304.8657 2116.4946,-292.1392 2115.9719,-281.4235"/>
<polygon fill="#191970" stroke="#191970" points="2119.4585,-281.0624 2115.4754,-271.2449 2112.4668,-281.4035 2119.4585,-281.0624"/>
</g>
<!-- Node35&#45;&gt;Node3 -->
<g id="edge43" class="edge">
<title>Node35&#45;&gt;Node3</title>
<path fill="none" stroke="#191970" d="M1801.2188,-313.3906C1821.5281,-303.2359 1853.7607,-287.1196 1876.9168,-275.5416"/>
<polygon fill="#191970" stroke="#191970" points="1878.5372,-278.6446 1885.9162,-271.0419 1875.4067,-272.3836 1878.5372,-278.6446"/>
</g>
<!-- Node35&#45;&gt;Node5 -->
<g id="edge44" class="edge">
<title>Node35&#45;&gt;Node5</title>
<path fill="none" stroke="#191970" d="M1748.9723,-313.4159C1718.6582,-304.4744 1672.5826,-290.5185 1633,-277 1566.03,-254.128 1488.7933,-224.3676 1445.961,-207.559"/>
<polygon fill="#191970" stroke="#191970" points="1447.1863,-204.28 1436.5992,-203.8763 1444.6237,-210.7941 1447.1863,-204.28"/>
</g>
<!-- Node35&#45;&gt;Node22 -->
<g id="edge45" class="edge">
<title>Node35&#45;&gt;Node22</title>
<path fill="none" stroke="#191970" d="M1791.968,-313.3602C1808.3451,-297.8541 1842.3918,-266.9888 1875,-246 1893.9244,-233.819 1916.1566,-222.5975 1935.3599,-213.76"/>
<polygon fill="#191970" stroke="#191970" points="1936.8465,-216.929 1944.5158,-209.6193 1933.962,-210.5509 1936.8465,-216.929"/>
</g>
<!-- Node35&#45;&gt;Node29 -->
<g id="edge46" class="edge">
<title>Node35&#45;&gt;Node29</title>
<path fill="none" stroke="#191970" d="M1771.6875,-313.3906C1763.086,-305.3756 1750.4988,-293.6466 1739.4666,-283.3666"/>
<polygon fill="#191970" stroke="#191970" points="1741.8476,-280.8012 1732.1454,-276.5446 1737.0755,-285.9225 1741.8476,-280.8012"/>
</g>
<!-- Node36&#45;&gt;Node3 -->
<g id="edge48" class="edge">
<title>Node36&#45;&gt;Node3</title>
<path fill="none" stroke="#191970" d="M1936.2188,-313.3906C1930.874,-304.5068 1922.7841,-291.0601 1916.1789,-280.0811"/>
<polygon fill="#191970" stroke="#191970" points="1919.0171,-278.0093 1910.8628,-271.2449 1913.0189,-281.618 1919.0171,-278.0093"/>
</g>
<!-- Node36&#45;&gt;Node22 -->
<g id="edge49" class="edge">
<title>Node36&#45;&gt;Node22</title>
<path fill="none" stroke="#191970" d="M1944.9313,-313.3416C1950.9266,-293.5879 1964.7557,-248.0229 1973.4425,-219.4008"/>
<polygon fill="#191970" stroke="#191970" points="1976.8312,-220.2871 1976.3863,-209.7016 1970.1329,-218.2541 1976.8312,-220.2871"/>
</g>
<!-- Node36&#45;&gt;Node29 -->
<g id="edge50" class="edge">
<title>Node36&#45;&gt;Node29</title>
<path fill="none" stroke="#191970" d="M1906.6875,-313.3906C1873.1983,-304.2774 1822.0646,-290.3627 1781.1755,-279.2358"/>
<polygon fill="#191970" stroke="#191970" points="1781.854,-275.7932 1771.2858,-276.5446 1780.0159,-282.5476 1781.854,-275.7932"/>
</g>
<!-- Node37&#45;&gt;Node12 -->
<g id="edge54" class="edge">
<title>Node37&#45;&gt;Node12</title>
<path fill="none" stroke="#191970" d="M2375.7227,-313.4044C2393.8051,-306.4487 2414.3209,-295.0236 2425,-277 2460.2914,-217.4372 2423.6551,-163.5 2353,-112 2320.13,-88.0413 2204.9745,-74.7356 2143.0776,-69.1636"/>
<polygon fill="#191970" stroke="#191970" points="2143.1629,-65.6578 2132.8961,-68.2736 2142.5533,-72.6312 2143.1629,-65.6578"/>
</g>
<!-- Node38 -->
<g id="node39" class="node">
<title>Node38</title>
<polygon fill="none" stroke="#bfbfbf" points="2266,-252 2266,-271 2416,-271 2416,-252 2266,-252"/>
<text text-anchor="middle" x="2341" y="-259" font-family="Helvetica,sans-Serif" font-size="10.00" fill="#000000">boost/program_options.hpp</text>
</g>
<!-- Node37&#45;&gt;Node38 -->
<g id="edge55" class="edge">
<title>Node37&#45;&gt;Node38</title>
<path fill="none" stroke="#191970" d="M2341,-313.3906C2341,-304.8657 2341,-292.1392 2341,-281.4235"/>
<polygon fill="#191970" stroke="#191970" points="2344.5001,-281.2448 2341,-271.2449 2337.5001,-281.2449 2344.5001,-281.2448"/>
</g>
</g>
</svg>
