<?xml version="1.0" encoding="UTF-8" standalone="no"?>
<!DOCTYPE svg PUBLIC "-//W3C//DTD SVG 1.1//EN"
 "http://www.w3.org/Graphics/SVG/1.1/DTD/svg11.dtd">
<!-- Generated by graphviz version 2.40.1 (20161225.0304)
 -->
<!-- Title: /home/travis/build/AliceO2Group/AliceO2/Framework/Core/src/LocalRootFileService.cxx Pages: 1 -->
<!--zoomable 285 -->
<svg id="main" version="1.1" xmlns="http://www.w3.org/2000/svg" xmlns:xlink="http://www.w3.org/1999/xlink" xml:space="preserve" onload="init(evt)">
<style type="text/css"><![CDATA[
.edge:hover path { stroke: red; }
.edge:hover polygon { stroke: red; fill: red; }
]]></style>
<script type="text/javascript"><![CDATA[
var edges = document.getElementsByTagName('g');
if (edges && edges.length) {
  for (var i=0;i<edges.length;i++) {
    if (edges[i].id.substr(0,4)=='edge') {
      edges[i].setAttribute('class','edge');
    }
  }
}
]]></script>
        <defs>
                <circle id="rim" cx="0" cy="0" r="7"/>
                <circle id="rim2" cx="0" cy="0" r="3.5"/>
                <g id="zoomPlus">
                        <use xlink:href="#rim" fill="#404040">
                                <set attributeName="fill" to="#808080" begin="zoomplus.mouseover" end="zoomplus.mouseout"/>
                        </use>
                        <path d="M-4,0h8M0,-4v8" fill="none" stroke="white" stroke-width="1.5" pointer-events="none"/>
                </g>
                <g id="zoomMin">
                        <use xlink:href="#rim" fill="#404040">
                                <set attributeName="fill" to="#808080" begin="zoomminus.mouseover" end="zoomminus.mouseout"/>
                        </use>
                        <path d="M-4,0h8" fill="none" stroke="white" stroke-width="1.5" pointer-events="none"/>
                </g>
                <g id="dirArrow">
                        <path fill="none" stroke="white" stroke-width="1.5" d="M0,-3.0v7 M-2.5,-0.5L0,-3.0L2.5,-0.5"/>
                </g>
               <g id="resetDef">
                       <use xlink:href="#rim2" fill="#404040">
                               <set attributeName="fill" to="#808080" begin="reset.mouseover" end="reset.mouseout"/>
                       </use>
               </g>
        </defs>

<script type="text/javascript">
var viewWidth = 926;
var viewHeight = 285;
var sectionId = 'dynsection-0';
</script>
<script xlink:href="../../svgpan.js"/>
<svg id="graph" class="graph">
<g id="viewport">
<title>/home/travis/build/AliceO2Group/AliceO2/Framework/Core/src/LocalRootFileService.cxx</title>
<!-- Node0 -->
<g id="node1" class="node">
<title>Node0</title>
<polygon fill="#bfbfbf" stroke="#000000" points="601.5,-224.5 601.5,-276.5 768.5,-276.5 768.5,-224.5 601.5,-224.5"/>
<text text-anchor="start" x="609.5" y="-264.5" font-family="Helvetica,sans-Serif" font-size="10.00" fill="#000000">/home/travis/build</text>
<text text-anchor="start" x="609.5" y="-253.5" font-family="Helvetica,sans-Serif" font-size="10.00" fill="#000000">/AliceO2Group/AliceO2</text>
<text text-anchor="start" x="609.5" y="-242.5" font-family="Helvetica,sans-Serif" font-size="10.00" fill="#000000">/Framework/Core/src/LocalRoot</text>
<text text-anchor="middle" x="685" y="-231.5" font-family="Helvetica,sans-Serif" font-size="10.00" fill="#000000">FileService.cxx</text>
</g>
<!-- Node1 -->
<g id="node2" class="node">
<title>Node1</title>
<g id="a_node2"><a xlink:href="../../d2/d18/LocalRootFileService_8h.html" target="_top" xlink:title="Framework/LocalRootFileService.h">
<polygon fill="none" stroke="#000000" points="328,-168.5 328,-187.5 510,-187.5 510,-168.5 328,-168.5"/>
<text text-anchor="middle" x="419" y="-175.5" font-family="Helvetica,sans-Serif" font-size="10.00" fill="#000000">Framework/LocalRootFileService.h</text>
</a>
</g>
</g>
<!-- Node0&#45;&gt;Node1 -->
<g id="edge1" class="edge">
<title>Node0&#45;&gt;Node1</title>
<path fill="none" stroke="#191970" d="M601.201,-227.6601C555.8225,-215.2919 501.5487,-200.4992 464.1045,-190.2935"/>
<polygon fill="#191970" stroke="#191970" points="464.5794,-186.7953 454.0109,-187.5425 462.7386,-193.549 464.5794,-186.7953"/>
</g>
<!-- Node13 -->
<g id="node14" class="node">
<title>Node13</title>
<polygon fill="none" stroke="#bfbfbf" points="0,-.5 0,-19.5 44,-19.5 44,-.5 0,-.5"/>
<text text-anchor="middle" x="22" y="-7.5" font-family="Helvetica,sans-Serif" font-size="10.00" fill="#000000">string</text>
</g>
<!-- Node0&#45;&gt;Node13 -->
<g id="edge28" class="edge">
<title>Node0&#45;&gt;Node13</title>
<path fill="none" stroke="#191970" d="M601.314,-242.8809C526.1013,-234.4741 413.2989,-217.9749 319,-188 264.0594,-170.536 253.5467,-157.8145 202,-132 154.0071,-107.9652 139.0368,-106.6879 95,-76 73.9474,-61.3291 52.4714,-41.1561 38.3147,-26.9864"/>
<polygon fill="#191970" stroke="#191970" points="40.7594,-24.4806 31.2521,-19.805 35.7685,-29.389 40.7594,-24.4806"/>
</g>
<!-- Node17 -->
<g id="node18" class="node">
<title>Node17</title>
<g id="a_node18"><a xlink:href="../../dd/da4/Logger_8h.html" target="_top" xlink:title="Framework/Logger.h">
<polygon fill="none" stroke="#000000" points="528.5,-168.5 528.5,-187.5 643.5,-187.5 643.5,-168.5 528.5,-168.5"/>
<text text-anchor="middle" x="586" y="-175.5" font-family="Helvetica,sans-Serif" font-size="10.00" fill="#000000">Framework/Logger.h</text>
</a>
</g>
</g>
<!-- Node0&#45;&gt;Node17 -->
<g id="edge24" class="edge">
<title>Node0&#45;&gt;Node17</title>
<path fill="none" stroke="#191970" d="M649.2587,-224.3258C635.1752,-214.0122 619.4776,-202.5165 607.243,-193.5567"/>
<polygon fill="#191970" stroke="#191970" points="609.1547,-190.6186 599.0188,-187.534 605.0189,-196.2662 609.1547,-190.6186"/>
</g>
<!-- Node19 -->
<g id="node20" class="node">
<title>Node19</title>
<polygon fill="none" stroke="#bfbfbf" points="662,-168.5 662,-187.5 708,-187.5 708,-168.5 662,-168.5"/>
<text text-anchor="middle" x="685" y="-175.5" font-family="Helvetica,sans-Serif" font-size="10.00" fill="#000000">cstdio</text>
</g>
<!-- Node0&#45;&gt;Node19 -->
<g id="edge26" class="edge">
<title>Node0&#45;&gt;Node19</title>
<path fill="none" stroke="#191970" d="M685,-224.3258C685,-215.5142 685,-205.8397 685,-197.621"/>
<polygon fill="#191970" stroke="#191970" points="688.5001,-197.534 685,-187.534 681.5001,-197.534 688.5001,-197.534"/>
</g>
<!-- Node20 -->
<g id="node21" class="node">
<title>Node20</title>
<polygon fill="none" stroke="#bfbfbf" points="726.5,-168.5 726.5,-187.5 779.5,-187.5 779.5,-168.5 726.5,-168.5"/>
<text text-anchor="middle" x="753" y="-175.5" font-family="Helvetica,sans-Serif" font-size="10.00" fill="#000000">cstdarg</text>
</g>
<!-- Node0&#45;&gt;Node20 -->
<g id="edge27" class="edge">
<title>Node0&#45;&gt;Node20</title>
<path fill="none" stroke="#191970" d="M709.5496,-224.3258C718.7535,-214.5128 728.9611,-203.6298 737.1686,-194.879"/>
<polygon fill="#191970" stroke="#191970" points="739.7695,-197.2222 744.0578,-187.534 734.6638,-192.4334 739.7695,-197.2222"/>
</g>
<!-- Node21 -->
<g id="node22" class="node">
<title>Node21</title>
<polygon fill="none" stroke="#bfbfbf" points="798,-168.5 798,-187.5 848,-187.5 848,-168.5 798,-168.5"/>
<text text-anchor="middle" x="823" y="-175.5" font-family="Helvetica,sans-Serif" font-size="10.00" fill="#000000">climits</text>
</g>
<!-- Node0&#45;&gt;Node21 -->
<g id="edge29" class="edge">
<title>Node0&#45;&gt;Node21</title>
<path fill="none" stroke="#191970" d="M734.8212,-224.3258C755.4057,-213.5115 778.4639,-201.3976 795.8373,-192.2703"/>
<polygon fill="#191970" stroke="#191970" points="797.6277,-195.2833 804.8525,-187.534 794.372,-189.0865 797.6277,-195.2833"/>
</g>
<!-- Node22 -->
<g id="node23" class="node">
<title>Node22</title>
<polygon fill="none" stroke="#bfbfbf" points="866,-168.5 866,-187.5 918,-187.5 918,-168.5 866,-168.5"/>
<text text-anchor="middle" x="892" y="-175.5" font-family="Helvetica,sans-Serif" font-size="10.00" fill="#000000">cassert</text>
</g>
<!-- Node0&#45;&gt;Node22 -->
<g id="edge30" class="edge">
<title>Node0&#45;&gt;Node22</title>
<path fill="none" stroke="#191970" d="M759.4393,-224.4283C792.3282,-212.9092 829.4773,-199.898 856.0633,-190.5865"/>
<polygon fill="#191970" stroke="#191970" points="857.4236,-193.8186 865.7045,-187.2098 855.1097,-187.2121 857.4236,-193.8186"/>
</g>
<!-- Node2 -->
<g id="node3" class="node">
<title>Node2</title>
<g id="a_node3"><a xlink:href="../../d9/d9b/RootFileService_8h.html" target="_top" xlink:title="Framework/RootFileService.h">
<polygon fill="none" stroke="#000000" points="287.5,-112.5 287.5,-131.5 444.5,-131.5 444.5,-112.5 287.5,-112.5"/>
<text text-anchor="middle" x="366" y="-119.5" font-family="Helvetica,sans-Serif" font-size="10.00" fill="#000000">Framework/RootFileService.h</text>
</a>
</g>
</g>
<!-- Node1&#45;&gt;Node2 -->
<g id="edge2" class="edge">
<title>Node1&#45;&gt;Node2</title>
<path fill="none" stroke="#191970" d="M409.7681,-168.2455C402.1683,-160.2155 391.2123,-148.6394 382.1632,-139.0781"/>
<polygon fill="#191970" stroke="#191970" points="384.542,-136.4998 375.1261,-131.6427 379.4579,-141.3115 384.542,-136.4998"/>
</g>
<!-- Node12 -->
<g id="node13" class="node">
<title>Node12</title>
<polygon fill="none" stroke="#bfbfbf" points="777.5,-.5 777.5,-19.5 824.5,-19.5 824.5,-.5 777.5,-.5"/>
<text text-anchor="middle" x="801" y="-7.5" font-family="Helvetica,sans-Serif" font-size="10.00" fill="#000000">vector</text>
</g>
<!-- Node1&#45;&gt;Node12 -->
<g id="edge22" class="edge">
<title>Node1&#45;&gt;Node12</title>
<path fill="none" stroke="#191970" d="M440.6325,-168.4862C504.8286,-140.2534 694.4523,-56.8587 769.7081,-23.7619"/>
<polygon fill="#191970" stroke="#191970" points="771.3865,-26.8473 779.1313,-19.6177 768.5684,-20.4396 771.3865,-26.8473"/>
</g>
<!-- Node1&#45;&gt;Node13 -->
<g id="edge21" class="edge">
<title>Node1&#45;&gt;Node13</title>
<path fill="none" stroke="#191970" d="M371.3116,-168.4219C336.2374,-160.6202 287.7767,-148.2437 247,-132 169.6394,-101.1829 84.9673,-50.1068 45.1445,-24.9468"/>
<polygon fill="#191970" stroke="#191970" points="46.9955,-21.9762 36.6796,-19.5609 43.2377,-27.8821 46.9955,-21.9762"/>
</g>
<!-- Node14 -->
<g id="node15" class="node">
<title>Node14</title>
<polygon fill="none" stroke="#bfbfbf" points="449,-56.5 449,-75.5 497,-75.5 497,-56.5 449,-56.5"/>
<text text-anchor="middle" x="473" y="-63.5" font-family="Helvetica,sans-Serif" font-size="10.00" fill="#000000">TFile.h</text>
</g>
<!-- Node1&#45;&gt;Node14 -->
<g id="edge19" class="edge">
<title>Node1&#45;&gt;Node14</title>
<path fill="none" stroke="#191970" d="M427.9385,-168.4888C435.8081,-159.6516 447.0652,-145.8105 454,-132 461.3572,-117.3484 466.2924,-99.3957 469.2849,-85.9148"/>
<polygon fill="#191970" stroke="#191970" points="472.7761,-86.312 471.3522,-75.8133 465.9182,-84.9084 472.7761,-86.312"/>
</g>
<!-- Node15 -->
<g id="node16" class="node">
<title>Node15</title>
<polygon fill="none" stroke="#bfbfbf" points="515,-56.5 515,-75.5 573,-75.5 573,-56.5 515,-56.5"/>
<text text-anchor="middle" x="544" y="-63.5" font-family="Helvetica,sans-Serif" font-size="10.00" fill="#000000">memory</text>
</g>
<!-- Node1&#45;&gt;Node15 -->
<g id="edge23" class="edge">
<title>Node1&#45;&gt;Node15</title>
<path fill="none" stroke="#191970" d="M430.189,-168.1643C440.7407,-158.8741 456.9843,-144.5344 471,-132 489.6973,-115.2787 510.958,-96.0298 525.6927,-82.6517"/>
<polygon fill="#191970" stroke="#191970" points="528.1017,-85.1919 533.1495,-75.8768 523.3945,-80.0109 528.1017,-85.1919"/>
</g>
<!-- Node16 -->
<g id="node17" class="node">
<title>Node16</title>
<polygon fill="none" stroke="#bfbfbf" points="181,-56.5 181,-75.5 219,-75.5 219,-56.5 181,-56.5"/>
<text text-anchor="middle" x="200" y="-63.5" font-family="Helvetica,sans-Serif" font-size="10.00" fill="#000000">map</text>
</g>
<!-- Node1&#45;&gt;Node16 -->
<g id="edge20" class="edge">
<title>Node1&#45;&gt;Node16</title>
<path fill="none" stroke="#191970" d="M375.5775,-168.4799C346.7438,-161.0625 308.6951,-149.1215 278,-132 254.4717,-118.8761 231.4074,-98.0947 216.5376,-83.3607"/>
<polygon fill="#191970" stroke="#191970" points="218.6812,-80.5495 209.1688,-75.8843 213.6957,-85.4633 218.6812,-80.5495"/>
</g>
<!-- Node3 -->
<g id="node4" class="node">
<title>Node3</title>
<g id="a_node4"><a xlink:href="../../de/d56/Variant_8h.html" target="_top" xlink:title="Framework/Variant.h">
<polygon fill="none" stroke="#000000" points="275.5,-56.5 275.5,-75.5 392.5,-75.5 392.5,-56.5 275.5,-56.5"/>
<text text-anchor="middle" x="334" y="-63.5" font-family="Helvetica,sans-Serif" font-size="10.00" fill="#000000">Framework/Variant.h</text>
</a>
</g>
</g>
<!-- Node2&#45;&gt;Node3 -->
<g id="edge3" class="edge">
<title>Node2&#45;&gt;Node3</title>
<path fill="none" stroke="#191970" d="M360.426,-112.2455C356.0669,-104.617 349.8789,-93.7881 344.5867,-84.5267"/>
<polygon fill="#191970" stroke="#191970" points="347.5104,-82.5886 339.5101,-75.6427 341.4327,-86.0616 347.5104,-82.5886"/>
</g>
<!-- Node2&#45;&gt;Node12 -->
<g id="edge18" class="edge">
<title>Node2&#45;&gt;Node12</title>
<path fill="none" stroke="#191970" d="M373.401,-112.3314C385.4942,-97.3416 411.0627,-68.8816 440,-56 570.9687,2.3015 622.0183,-47.0653 767.1839,-19.748"/>
<polygon fill="#191970" stroke="#191970" points="768.2095,-23.1132 777.3415,-17.7413 766.8528,-16.2459 768.2095,-23.1132"/>
</g>
<!-- Node2&#45;&gt;Node13 -->
<g id="edge17" class="edge">
<title>Node2&#45;&gt;Node13</title>
<path fill="none" stroke="#191970" d="M344.3858,-112.458C324.0256,-103.3754 292.7415,-89.1761 266,-76 248.8801,-67.5646 245.9692,-62.4309 228,-56 156.1576,-30.2888 131.6993,-39.4192 54.0101,-20.0154"/>
<polygon fill="#191970" stroke="#191970" points="54.8223,-16.6105 44.2651,-17.5034 53.0749,-23.3889 54.8223,-16.6105"/>
</g>
<!-- Node2&#45;&gt;Node14 -->
<g id="edge14" class="edge">
<title>Node2&#45;&gt;Node14</title>
<path fill="none" stroke="#191970" d="M384.638,-112.2455C401.4386,-103.4527 426.3634,-90.4079 445.4618,-80.4125"/>
<polygon fill="#191970" stroke="#191970" points="447.3386,-83.3807 454.5756,-75.6427 444.0927,-77.1787 447.3386,-83.3807"/>
</g>
<!-- Node2&#45;&gt;Node15 -->
<g id="edge15" class="edge">
<title>Node2&#45;&gt;Node15</title>
<path fill="none" stroke="#191970" d="M396.5993,-112.3733C426.6864,-102.9076 472.7161,-88.4264 505.3228,-78.1681"/>
<polygon fill="#191970" stroke="#191970" points="506.49,-81.4701 514.9787,-75.1303 504.3892,-74.7927 506.49,-81.4701"/>
</g>
<!-- Node2&#45;&gt;Node16 -->
<g id="edge16" class="edge">
<title>Node2&#45;&gt;Node16</title>
<path fill="none" stroke="#191970" d="M337.4636,-112.3733C307.1481,-102.1464 259.4773,-86.0646 228.99,-75.7798"/>
<polygon fill="#191970" stroke="#191970" points="229.9537,-72.4111 219.3596,-72.5309 227.7161,-79.0439 229.9537,-72.4111"/>
</g>
<!-- Node4 -->
<g id="node5" class="node">
<title>Node4</title>
<g id="a_node5"><a xlink:href="../../d1/d76/RuntimeError_8h.html" target="_top" xlink:title="Framework/RuntimeError.h">
<polygon fill="none" stroke="#000000" points="389,-.5 389,-19.5 535,-19.5 535,-.5 389,-.5"/>
<text text-anchor="middle" x="462" y="-7.5" font-family="Helvetica,sans-Serif" font-size="10.00" fill="#000000">Framework/RuntimeError.h</text>
</a>
</g>
</g>
<!-- Node3&#45;&gt;Node4 -->
<g id="edge4" class="edge">
<title>Node3&#45;&gt;Node4</title>
<path fill="none" stroke="#191970" d="M356.004,-56.3733C376.6435,-47.3435 407.7158,-33.7494 430.8889,-23.6111"/>
<polygon fill="#191970" stroke="#191970" points="432.5245,-26.7159 440.2831,-19.5011 429.7187,-20.3028 432.5245,-26.7159"/>
</g>
<!-- Node5 -->
<g id="node6" class="node">
<title>Node5</title>
<polygon fill="none" stroke="#bfbfbf" points="553.5,-.5 553.5,-19.5 622.5,-19.5 622.5,-.5 553.5,-.5"/>
<text text-anchor="middle" x="588" y="-7.5" font-family="Helvetica,sans-Serif" font-size="10.00" fill="#000000">type_traits</text>
</g>
<!-- Node3&#45;&gt;Node5 -->
<g id="edge5" class="edge">
<title>Node3&#45;&gt;Node5</title>
<path fill="none" stroke="#191970" d="M377.8629,-56.4966C418.2874,-47.7147 480.2133,-34.2027 543.6413,-20.0675"/>
<polygon fill="#191970" stroke="#191970" points="544.4206,-23.4798 553.4186,-17.8863 542.8964,-16.6477 544.4206,-23.4798"/>
</g>
<!-- Node6 -->
<g id="node7" class="node">
<title>Node6</title>
<polygon fill="none" stroke="#bfbfbf" points="641,-.5 641,-19.5 691,-19.5 691,-.5 641,-.5"/>
<text text-anchor="middle" x="666" y="-7.5" font-family="Helvetica,sans-Serif" font-size="10.00" fill="#000000">cstring</text>
</g>
<!-- Node3&#45;&gt;Node6 -->
<g id="edge6" class="edge">
<title>Node3&#45;&gt;Node6</title>
<path fill="none" stroke="#191970" d="M392.7725,-57.874C461.9026,-48.1604 573.5512,-31.9501 630.8102,-19.9852"/>
<polygon fill="#191970" stroke="#191970" points="631.8182,-23.3479 640.8462,-17.803 630.3309,-16.5077 631.8182,-23.3479"/>
</g>
<!-- Node7 -->
<g id="node8" class="node">
<title>Node7</title>
<polygon fill="none" stroke="#bfbfbf" points="709,-.5 709,-19.5 759,-19.5 759,-.5 709,-.5"/>
<text text-anchor="middle" x="734" y="-7.5" font-family="Helvetica,sans-Serif" font-size="10.00" fill="#000000">cstdint</text>
</g>
<!-- Node3&#45;&gt;Node7 -->
<g id="edge7" class="edge">
<title>Node3&#45;&gt;Node7</title>
<path fill="none" stroke="#191970" d="M392.5614,-57.9051C397.4447,-57.2522 402.3064,-56.6098 407,-56 533.9315,-39.509 569.7857,-46.2477 698.9872,-19.9301"/>
<polygon fill="#191970" stroke="#191970" points="699.7791,-23.3405 708.8652,-17.8913 698.3642,-16.485 699.7791,-23.3405"/>
</g>
<!-- Node8 -->
<g id="node9" class="node">
<title>Node8</title>
<polygon fill="none" stroke="#bfbfbf" points="62.5,-.5 62.5,-19.5 111.5,-19.5 111.5,-.5 62.5,-.5"/>
<text text-anchor="middle" x="87" y="-7.5" font-family="Helvetica,sans-Serif" font-size="10.00" fill="#000000">cstdlib</text>
</g>
<!-- Node3&#45;&gt;Node8 -->
<g id="edge8" class="edge">
<title>Node3&#45;&gt;Node8</title>
<path fill="none" stroke="#191970" d="M283.9994,-56.4662C242.6653,-48.3109 182.2576,-35.7649 121.5476,-20.2682"/>
<polygon fill="#191970" stroke="#191970" points="122.3615,-16.8637 111.8043,-17.756 120.6137,-23.642 122.3615,-16.8637"/>
</g>
<!-- Node9 -->
<g id="node10" class="node">
<title>Node9</title>
<polygon fill="none" stroke="#bfbfbf" points="129.5,-.5 129.5,-19.5 178.5,-19.5 178.5,-.5 129.5,-.5"/>
<text text-anchor="middle" x="154" y="-7.5" font-family="Helvetica,sans-Serif" font-size="10.00" fill="#000000">iosfwd</text>
</g>
<!-- Node3&#45;&gt;Node9 -->
<g id="edge9" class="edge">
<title>Node3&#45;&gt;Node9</title>
<path fill="none" stroke="#191970" d="M303.0569,-56.3733C271.1742,-46.4542 221.5882,-31.0275 188.4698,-20.7239"/>
<polygon fill="#191970" stroke="#191970" points="189.3465,-17.3313 178.7582,-17.7026 187.267,-24.0153 189.3465,-17.3313"/>
</g>
<!-- Node10 -->
<g id="node11" class="node">
<title>Node10</title>
<polygon fill="none" stroke="#bfbfbf" points="196.5,-.5 196.5,-19.5 279.5,-19.5 279.5,-.5 196.5,-.5"/>
<text text-anchor="middle" x="238" y="-7.5" font-family="Helvetica,sans-Serif" font-size="10.00" fill="#000000">initializer_list</text>
</g>
<!-- Node3&#45;&gt;Node10 -->
<g id="edge10" class="edge">
<title>Node3&#45;&gt;Node10</title>
<path fill="none" stroke="#191970" d="M317.2781,-56.2455C302.4111,-47.5731 280.4534,-34.7645 263.4142,-24.825"/>
<polygon fill="#191970" stroke="#191970" points="264.9317,-21.6582 254.5303,-19.6427 261.4045,-27.7047 264.9317,-21.6582"/>
</g>
<!-- Node11 -->
<g id="node12" class="node">
<title>Node11</title>
<polygon fill="none" stroke="#bfbfbf" points="297.5,-.5 297.5,-19.5 370.5,-19.5 370.5,-.5 297.5,-.5"/>
<text text-anchor="middle" x="334" y="-7.5" font-family="Helvetica,sans-Serif" font-size="10.00" fill="#000000">string_view</text>
</g>
<!-- Node3&#45;&gt;Node11 -->
<g id="edge11" class="edge">
<title>Node3&#45;&gt;Node11</title>
<path fill="none" stroke="#191970" d="M334,-56.2455C334,-48.9382 334,-38.6944 334,-29.7046"/>
<polygon fill="#191970" stroke="#191970" points="337.5001,-29.6426 334,-19.6427 330.5001,-29.6427 337.5001,-29.6426"/>
</g>
<!-- Node3&#45;&gt;Node12 -->
<g id="edge12" class="edge">
<title>Node3&#45;&gt;Node12</title>
<path fill="none" stroke="#191970" d="M392.5467,-57.7872C397.4333,-57.1604 402.2998,-56.5561 407,-56 563.8396,-37.4437 608.0698,-50.9503 767.199,-19.787"/>
<polygon fill="#191970" stroke="#191970" points="768.2214,-23.1524 777.3473,-17.7702 766.8569,-16.2867 768.2214,-23.1524"/>
</g>
<!-- Node3&#45;&gt;Node13 -->
<g id="edge13" class="edge">
<title>Node3&#45;&gt;Node13</title>
<path fill="none" stroke="#191970" d="M275.2231,-57.438C210.0067,-47.7634 107.866,-32.0515 54.2815,-19.9772"/>
<polygon fill="#191970" stroke="#191970" points="54.7731,-16.4974 44.2373,-17.6137 53.1697,-23.3113 54.7731,-16.4974"/>
</g>
<!-- Node18 -->
<g id="node19" class="node">
<title>Node18</title>
<polygon fill="none" stroke="#bfbfbf" points="629,-112.5 629,-131.5 737,-131.5 737,-112.5 629,-112.5"/>
<text text-anchor="middle" x="683" y="-119.5" font-family="Helvetica,sans-Serif" font-size="10.00" fill="#000000">fairlogger/Logger.h</text>
</g>
<!-- Node17&#45;&gt;Node18 -->
<g id="edge25" class="edge">
<title>Node17&#45;&gt;Node18</title>
<path fill="none" stroke="#191970" d="M602.8961,-168.2455C617.918,-159.5731 640.1043,-146.7645 657.321,-136.825"/>
<polygon fill="#191970" stroke="#191970" points="659.3871,-139.6737 666.2975,-131.6427 655.8872,-133.6114 659.3871,-139.6737"/>
</g>
</g>
</svg>
        <g id="navigator" transform="translate(0 0)" fill="#404254">
                <rect fill="#f2f5e9" fill-opacity="0.5" stroke="#606060" stroke-width=".5" x="0" y="0" width="60" height="60"/>
                <use id="zoomplus" xlink:href="#zoomPlus" x="17" y="9" onmousedown="handleZoom(evt,'in')"/>
                <use id="zoomminus" xlink:href="#zoomMin" x="42" y="9" onmousedown="handleZoom(evt,'out')"/>
                <use id="reset" xlink:href="#resetDef" x="30" y="36" onmousedown="handleReset()"/>
                <g id="arrowUp" xlink:href="#dirArrow" transform="translate(30 24)" onmousedown="handlePan(0,-1)">
                  <use xlink:href="#rim" fill="#404040">
                        <set attributeName="fill" to="#808080" begin="arrowUp.mouseover" end="arrowUp.mouseout"/>
                  </use>
                  <path fill="none" stroke="white" stroke-width="1.5" d="M0,-3.0v7 M-2.5,-0.5L0,-3.0L2.5,-0.5"/>
                </g>
                <g id="arrowRight" xlink:href="#dirArrow" transform="rotate(90) translate(36 -43)" onmousedown="handlePan(1,0)">
                  <use xlink:href="#rim" fill="#404040">
                        <set attributeName="fill" to="#808080" begin="arrowRight.mouseover" end="arrowRight.mouseout"/>
                  </use>
                  <path fill="none" stroke="white" stroke-width="1.5" d="M0,-3.0v7 M-2.5,-0.5L0,-3.0L2.5,-0.5"/>
                </g>
                <g id="arrowDown" xlink:href="#dirArrow" transform="rotate(180) translate(-30 -48)" onmousedown="handlePan(0,1)">
                  <use xlink:href="#rim" fill="#404040">
                        <set attributeName="fill" to="#808080" begin="arrowDown.mouseover" end="arrowDown.mouseout"/>
                  </use>
                  <path fill="none" stroke="white" stroke-width="1.5" d="M0,-3.0v7 M-2.5,-0.5L0,-3.0L2.5,-0.5"/>
                </g>
                <g id="arrowLeft" xlink:href="#dirArrow" transform="rotate(270) translate(-36 17)" onmousedown="handlePan(-1,0)">
                  <use xlink:href="#rim" fill="#404040">
                        <set attributeName="fill" to="#808080" begin="arrowLeft.mouseover" end="arrowLeft.mouseout"/>
                  </use>
                  <path fill="none" stroke="white" stroke-width="1.5" d="M0,-3.0v7 M-2.5,-0.5L0,-3.0L2.5,-0.5"/>
                </g>
        </g>
        <svg viewBox="0 0 15 15" width="100%" height="30px" preserveAspectRatio="xMaxYMin meet">
         <g id="arrow_out" transform="scale(0.3 0.3)">
          <a xlink:href="LocalRootFileService_8cxx__incl_org.svg" target="_base">
           <rect id="button" ry="5" rx="5" y="6" x="6" height="38" width="38"
                fill="#f2f5e9" fill-opacity="0.5" stroke="#606060" stroke-width="1.0"/>
           <path id="arrow"
             d="M 11.500037,31.436501 C 11.940474,20.09759 22.043105,11.32322 32.158766,21.979434 L 37.068811,17.246167 C 37.068811,17.246167 37.088388,32 37.088388,32 L 22.160133,31.978069 C 22.160133,31.978069 26.997745,27.140456 26.997745,27.140456 C 18.528582,18.264221 13.291696,25.230495 11.500037,31.436501 z"
             style="fill:#404040;"/>
          </a>
         </g>
        </svg>
</svg>
