<?xml version="1.0" encoding="UTF-8" standalone="no"?>
<!DOCTYPE svg PUBLIC "-//W3C//DTD SVG 1.1//EN"
 "http://www.w3.org/Graphics/SVG/1.1/DTD/svg11.dtd">
<!-- Generated by graphviz version 2.40.1 (20161225.0304)
 -->
<!-- Title: o2::framework::CachedInsertion&lt; T &gt; Pages: 1 -->
<svg width="231pt" height="182pt"
 viewBox="0.00 0.00 230.50 182.00" xmlns="http://www.w3.org/2000/svg" xmlns:xlink="http://www.w3.org/1999/xlink">
<g id="graph0" class="graph" transform="scale(1 1) rotate(0) translate(4 178)">
<title>o2::framework::CachedInsertion&lt; T &gt;</title>
<!-- Node1 -->
<g id="node1" class="node">
<title>Node1</title>
<polygon fill="#bfbfbf" stroke="#000000" points="0,-.5 0,-68.5 201,-68.5 201,-.5 0,-.5"/>
<text text-anchor="middle" x="100.5" y="-56.5" font-family="Helvetica,sans-Serif" font-size="10.00" fill="#000000">o2::framework::CachedInsertion&lt; T &gt;</text>
<polyline fill="none" stroke="#000000" points="0,-49.5 201,-49.5 "/>
<text text-anchor="middle" x="100.5" y="-37.5" font-family="Helvetica,sans-Serif" font-size="10.00" fill="#000000"> </text>
<polyline fill="none" stroke="#000000" points="0,-30.5 201,-30.5 "/>
<text text-anchor="start" x="8" y="-18.5" font-family="Helvetica,sans-Serif" font-size="10.00" fill="#000000">+ append()</text>
<text text-anchor="start" x="8" y="-7.5" font-family="Helvetica,sans-Serif" font-size="10.00" fill="#000000">+ flush()</text>
</g>
<!-- Node2 -->
<g id="node2" class="node">
<title>Node2</title>
<polygon fill="none" stroke="#bfbfbf" points="31,-116.5 31,-173.5 60,-173.5 60,-116.5 31,-116.5"/>
<text text-anchor="middle" x="45.5" y="-161.5" font-family="Helvetica,sans-Serif" font-size="10.00" fill="#000000">int</text>
<polyline fill="none" stroke="#bfbfbf" points="31,-154.5 60,-154.5 "/>
<text text-anchor="middle" x="45.5" y="-142.5" font-family="Helvetica,sans-Serif" font-size="10.00" fill="#000000"> </text>
<polyline fill="none" stroke="#bfbfbf" points="31,-135.5 60,-135.5 "/>
<text text-anchor="middle" x="45.5" y="-123.5" font-family="Helvetica,sans-Serif" font-size="10.00" fill="#000000"> </text>
</g>
<!-- Node2&#45;&gt;Node1 -->
<g id="edge1" class="edge">
<title>Node2&#45;&gt;Node1</title>
<path fill="none" stroke="#404040" d="M55.0309,-116.4935C58.5591,-106.9439 62.845,-96.3519 67.5,-87 68.775,-84.4385 70.141,-81.843 71.5653,-79.2481"/>
<polygon fill="none" stroke="#404040" points="71.6692,-79.0679 71.2024,-71.8719 77.6653,-68.6733 78.1321,-75.8693 71.6692,-79.0679"/>
<text text-anchor="middle" x="82" y="-90" font-family="Helvetica,sans-Serif" font-size="10.00" fill="#000000"> +pos</text>
</g>
<!-- Node3 -->
<g id="node3" class="node">
<title>Node3</title>
<polygon fill="none" stroke="#bfbfbf" points="78.5,-116.5 78.5,-173.5 122.5,-173.5 122.5,-116.5 78.5,-116.5"/>
<text text-anchor="middle" x="100.5" y="-161.5" font-family="Helvetica,sans-Serif" font-size="10.00" fill="#000000">static</text>
<polyline fill="none" stroke="#bfbfbf" points="78.5,-154.5 122.5,-154.5 "/>
<text text-anchor="middle" x="100.5" y="-142.5" font-family="Helvetica,sans-Serif" font-size="10.00" fill="#000000"> </text>
<polyline fill="none" stroke="#bfbfbf" points="78.5,-135.5 122.5,-135.5 "/>
<text text-anchor="middle" x="100.5" y="-123.5" font-family="Helvetica,sans-Serif" font-size="10.00" fill="#000000"> </text>
</g>
<!-- Node3&#45;&gt;Node1 -->
<g id="edge2" class="edge">
<title>Node3&#45;&gt;Node1</title>
<path fill="none" stroke="#404040" d="M100.5,-116.2559C100.5,-105.4349 100.5,-92.8362 100.5,-80.8169"/>
<polygon fill="none" stroke="#404040" points="100.5001,-80.6001 96.5,-74.6001 100.5,-68.6001 104.5,-74.6 100.5001,-80.6001"/>
<text text-anchor="middle" x="138" y="-90" font-family="Helvetica,sans-Serif" font-size="10.00" fill="#000000"> +CHUNK_SIZE</text>
</g>
<!-- Node4 -->
<g id="node4" class="node">
<title>Node4</title>
<polygon fill="none" stroke="#bfbfbf" points="184,-116.5 184,-173.5 213,-173.5 213,-116.5 184,-116.5"/>
<text text-anchor="middle" x="198.5" y="-161.5" font-family="Helvetica,sans-Serif" font-size="10.00" fill="#000000">T</text>
<polyline fill="none" stroke="#bfbfbf" points="184,-154.5 213,-154.5 "/>
<text text-anchor="middle" x="198.5" y="-142.5" font-family="Helvetica,sans-Serif" font-size="10.00" fill="#000000"> </text>
<polyline fill="none" stroke="#bfbfbf" points="184,-135.5 213,-135.5 "/>
<text text-anchor="middle" x="198.5" y="-123.5" font-family="Helvetica,sans-Serif" font-size="10.00" fill="#000000"> </text>
</g>
<!-- Node4&#45;&gt;Node1 -->
<g id="edge3" class="edge">
<title>Node4&#45;&gt;Node1</title>
<path fill="none" stroke="#404040" d="M191.4472,-116.3781C188.046,-106.3977 183.2068,-95.5634 176.5,-87 173.7159,-83.4452 170.6249,-80.0373 167.3281,-76.7869"/>
<polygon fill="none" stroke="#404040" points="167.1077,-76.5885 159.9723,-75.5459 158.1903,-68.5584 165.3257,-69.601 167.1077,-76.5885"/>
<text text-anchor="middle" x="202.5" y="-90" font-family="Helvetica,sans-Serif" font-size="10.00" fill="#000000"> +cache</text>
</g>
</g>
</svg>
