<?xml version="1.0" encoding="UTF-8" standalone="no"?>
<!DOCTYPE svg PUBLIC "-//W3C//DTD SVG 1.1//EN"
 "http://www.w3.org/Graphics/SVG/1.1/DTD/svg11.dtd">
<!-- Generated by graphviz version 2.40.1 (20161225.0304)
 -->
<!-- Title: /home/travis/build/AliceO2Group/AliceO2/GPU/GPUTracking/dEdx/TPCdEdxCalibrationSplines.cxx Pages: 1 -->
<svg width="863pt" height="509pt"
 viewBox="0.00 0.00 863.18 509.00" xmlns="http://www.w3.org/2000/svg" xmlns:xlink="http://www.w3.org/1999/xlink">
<g id="graph0" class="graph" transform="scale(1 1) rotate(0) translate(4 505)">
<title>/home/travis/build/AliceO2Group/AliceO2/GPU/GPUTracking/dEdx/TPCdEdxCalibrationSplines.cxx</title>
<!-- Node0 -->
<g id="node1" class="node">
<title>Node0</title>
<polygon fill="#bfbfbf" stroke="#000000" points="303.6785,-448.5 303.6785,-500.5 474.6785,-500.5 474.6785,-448.5 303.6785,-448.5"/>
<text text-anchor="start" x="311.6785" y="-488.5" font-family="Helvetica,sans-Serif" font-size="10.00" fill="#000000">/home/travis/build</text>
<text text-anchor="start" x="311.6785" y="-477.5" font-family="Helvetica,sans-Serif" font-size="10.00" fill="#000000">/AliceO2Group/AliceO2</text>
<text text-anchor="start" x="311.6785" y="-466.5" font-family="Helvetica,sans-Serif" font-size="10.00" fill="#000000">/GPU/GPUTracking/dEdx</text>
<text text-anchor="middle" x="389.1785" y="-455.5" font-family="Helvetica,sans-Serif" font-size="10.00" fill="#000000">/TPCdEdxCalibrationSplines.cxx</text>
</g>
<!-- Node1 -->
<g id="node2" class="node">
<title>Node1</title>
<g id="a_node2"><a xlink:href="../../d7/db0/TPCdEdxCalibrationSplines_8h.html" target="_top" xlink:title="TPCdEdxCalibrationSplines.h">
<polygon fill="none" stroke="#000000" points="250.6785,-392.5 250.6785,-411.5 407.6785,-411.5 407.6785,-392.5 250.6785,-392.5"/>
<text text-anchor="middle" x="329.1785" y="-399.5" font-family="Helvetica,sans-Serif" font-size="10.00" fill="#000000">TPCdEdxCalibrationSplines.h</text>
</a>
</g>
</g>
<!-- Node0&#45;&gt;Node1 -->
<g id="edge1" class="edge">
<title>Node0&#45;&gt;Node1</title>
<path fill="none" stroke="#191970" d="M367.5172,-448.3258C359.5618,-438.7131 350.7566,-428.0735 343.593,-419.4174"/>
<polygon fill="#191970" stroke="#191970" points="346.1408,-417.0065 337.0687,-411.534 340.7481,-421.4695 346.1408,-417.0065"/>
</g>
<!-- Node22 -->
<g id="node23" class="node">
<title>Node22</title>
<polygon fill="none" stroke="#bfbfbf" points="426.1785,-392.5 426.1785,-411.5 474.1785,-411.5 474.1785,-392.5 426.1785,-392.5"/>
<text text-anchor="middle" x="450.1785" y="-399.5" font-family="Helvetica,sans-Serif" font-size="10.00" fill="#000000">TFile.h</text>
</g>
<!-- Node0&#45;&gt;Node22 -->
<g id="edge31" class="edge">
<title>Node0&#45;&gt;Node22</title>
<path fill="none" stroke="#191970" d="M411.2009,-448.3258C419.2889,-438.7131 428.2408,-428.0735 435.5239,-419.4174"/>
<polygon fill="#191970" stroke="#191970" points="438.3968,-421.4392 442.1568,-411.534 433.0405,-416.9325 438.3968,-421.4392"/>
</g>
<!-- Node2 -->
<g id="node3" class="node">
<title>Node2</title>
<g id="a_node3"><a xlink:href="../../db/dff/FlatObject_8h.html" target="_top" xlink:title="Definition of FlatObject class. ">
<polygon fill="none" stroke="#000000" points="298.6785,-112.5 298.6785,-131.5 373.6785,-131.5 373.6785,-112.5 298.6785,-112.5"/>
<text text-anchor="middle" x="336.1785" y="-119.5" font-family="Helvetica,sans-Serif" font-size="10.00" fill="#000000">FlatObject.h</text>
</a>
</g>
</g>
<!-- Node1&#45;&gt;Node2 -->
<g id="edge2" class="edge">
<title>Node1&#45;&gt;Node2</title>
<path fill="none" stroke="#191970" d="M324.6044,-392.3613C315.9812,-373.278 298.1785,-329.1405 298.1785,-290 298.1785,-290 298.1785,-290 298.1785,-234 298.1785,-199.6118 314.4419,-162.2832 325.6895,-140.5791"/>
<polygon fill="#191970" stroke="#191970" points="328.9102,-141.9804 330.5715,-131.5166 322.7475,-138.6605 328.9102,-141.9804"/>
</g>
<!-- Node11 -->
<g id="node12" class="node">
<title>Node11</title>
<polygon fill="none" stroke="#bfbfbf" points="85.6785,-.5 85.6785,-19.5 144.6785,-19.5 144.6785,-.5 85.6785,-.5"/>
<text text-anchor="middle" x="115.1785" y="-7.5" font-family="Helvetica,sans-Serif" font-size="10.00" fill="#000000">Rtypes.h</text>
</g>
<!-- Node1&#45;&gt;Node11 -->
<g id="edge29" class="edge">
<title>Node1&#45;&gt;Node11</title>
<path fill="none" stroke="#191970" d="M258.5998,-392.4804C161.9287,-377.4285 .1785,-344.1525 .1785,-290 .1785,-290 .1785,-290 .1785,-122 .1785,-91.4754 -.5356,-79.3047 19.1785,-56 33.78,-38.7391 56.3482,-27.4707 75.9348,-20.4092"/>
<polygon fill="#191970" stroke="#191970" points="77.187,-23.6809 85.5542,-17.1816 74.9603,-17.0444 77.187,-23.6809"/>
</g>
<!-- Node15 -->
<g id="node16" class="node">
<title>Node15</title>
<g id="a_node16"><a xlink:href="../../dd/d27/Spline2D_8h.html" target="_top" xlink:title="Definition of Spline2D class. ">
<polygon fill="none" stroke="#000000" points="339.6785,-336.5 339.6785,-355.5 408.6785,-355.5 408.6785,-336.5 339.6785,-336.5"/>
<text text-anchor="middle" x="374.1785" y="-343.5" font-family="Helvetica,sans-Serif" font-size="10.00" fill="#000000">Spline2D.h</text>
</a>
</g>
</g>
<!-- Node1&#45;&gt;Node15 -->
<g id="edge15" class="edge">
<title>Node1&#45;&gt;Node15</title>
<path fill="none" stroke="#191970" d="M337.0169,-392.2455C343.3406,-384.3761 352.4009,-373.101 359.9921,-363.6542"/>
<polygon fill="#191970" stroke="#191970" points="362.8943,-365.6302 366.43,-355.6427 357.4377,-361.2454 362.8943,-365.6302"/>
</g>
<!-- Node21 -->
<g id="node22" class="node">
<title>Node21</title>
<polygon fill="none" stroke="#bfbfbf" points="426.6785,-336.5 426.6785,-355.5 505.6785,-355.5 505.6785,-336.5 426.6785,-336.5"/>
<text text-anchor="middle" x="466.1785" y="-343.5" font-family="Helvetica,sans-Serif" font-size="10.00" fill="#000000">fmt/format.h</text>
</g>
<!-- Node1&#45;&gt;Node21 -->
<g id="edge30" class="edge">
<title>Node1&#45;&gt;Node21</title>
<path fill="none" stroke="#191970" d="M352.7297,-392.3733C375.0176,-383.2629 408.6722,-369.5062 433.5422,-359.3404"/>
<polygon fill="#191970" stroke="#191970" points="435.0025,-362.5247 442.9347,-355.5011 432.3538,-356.0451 435.0025,-362.5247"/>
</g>
<!-- Node3 -->
<g id="node4" class="node">
<title>Node3</title>
<polygon fill="none" stroke="#bfbfbf" points="309.6785,-56.5 309.6785,-75.5 362.6785,-75.5 362.6785,-56.5 309.6785,-56.5"/>
<text text-anchor="middle" x="336.1785" y="-63.5" font-family="Helvetica,sans-Serif" font-size="10.00" fill="#000000">cstddef</text>
</g>
<!-- Node2&#45;&gt;Node3 -->
<g id="edge3" class="edge">
<title>Node2&#45;&gt;Node3</title>
<path fill="none" stroke="#191970" d="M336.1785,-112.2455C336.1785,-104.9382 336.1785,-94.6944 336.1785,-85.7046"/>
<polygon fill="#191970" stroke="#191970" points="339.6786,-85.6426 336.1785,-75.6427 332.6786,-85.6427 339.6786,-85.6426"/>
</g>
<!-- Node4 -->
<g id="node5" class="node">
<title>Node4</title>
<polygon fill="none" stroke="#bfbfbf" points="522.1785,-56.5 522.1785,-75.5 580.1785,-75.5 580.1785,-56.5 522.1785,-56.5"/>
<text text-anchor="middle" x="551.1785" y="-63.5" font-family="Helvetica,sans-Serif" font-size="10.00" fill="#000000">memory</text>
</g>
<!-- Node2&#45;&gt;Node4 -->
<g id="edge4" class="edge">
<title>Node2&#45;&gt;Node4</title>
<path fill="none" stroke="#191970" d="M373.1387,-112.4297C406.9239,-103.6736 458.5373,-90.2776 512.41,-76.1959"/>
<polygon fill="#191970" stroke="#191970" points="513.3456,-79.569 522.1348,-73.6529 511.5746,-72.7967 513.3456,-79.569"/>
</g>
<!-- Node5 -->
<g id="node6" class="node">
<title>Node5</title>
<polygon fill="none" stroke="#bfbfbf" points="28.1785,-56.5 28.1785,-75.5 78.1785,-75.5 78.1785,-56.5 28.1785,-56.5"/>
<text text-anchor="middle" x="53.1785" y="-63.5" font-family="Helvetica,sans-Serif" font-size="10.00" fill="#000000">cstring</text>
</g>
<!-- Node2&#45;&gt;Node5 -->
<g id="edge5" class="edge">
<title>Node2&#45;&gt;Node5</title>
<path fill="none" stroke="#191970" d="M298.3803,-116.2657C251.2804,-108.8466 168.1807,-94.8602 88.1001,-76.0381"/>
<polygon fill="#191970" stroke="#191970" points="88.8903,-72.6285 78.3517,-73.7189 87.2701,-79.4384 88.8903,-72.6285"/>
</g>
<!-- Node6 -->
<g id="node7" class="node">
<title>Node6</title>
<polygon fill="none" stroke="#bfbfbf" points="96.1785,-56.5 96.1785,-75.5 148.1785,-75.5 148.1785,-56.5 96.1785,-56.5"/>
<text text-anchor="middle" x="122.1785" y="-63.5" font-family="Helvetica,sans-Serif" font-size="10.00" fill="#000000">cassert</text>
</g>
<!-- Node2&#45;&gt;Node6 -->
<g id="edge6" class="edge">
<title>Node2&#45;&gt;Node6</title>
<path fill="none" stroke="#191970" d="M298.3867,-112.6003C264.1607,-104.0181 212.1109,-90.7945 158.2487,-76.2452"/>
<polygon fill="#191970" stroke="#191970" points="159.0981,-72.8492 148.5307,-73.6109 157.2667,-79.6053 159.0981,-72.8492"/>
</g>
<!-- Node7 -->
<g id="node8" class="node">
<title>Node7</title>
<g id="a_node8"><a xlink:href="../../df/d21/GPUCommonDef_8h.html" target="_top" xlink:title="GPUCommonDef.h">
<polygon fill="none" stroke="#000000" points="598.6785,-56.5 598.6785,-75.5 705.6785,-75.5 705.6785,-56.5 598.6785,-56.5"/>
<text text-anchor="middle" x="652.1785" y="-63.5" font-family="Helvetica,sans-Serif" font-size="10.00" fill="#000000">GPUCommonDef.h</text>
</a>
</g>
</g>
<!-- Node2&#45;&gt;Node7 -->
<g id="edge7" class="edge">
<title>Node2&#45;&gt;Node7</title>
<path fill="none" stroke="#191970" d="M373.8055,-113.6749C376.6358,-113.0932 379.4506,-112.5286 382.1785,-112 420.6423,-104.5466 521.4658,-87.628 588.4273,-76.5185"/>
<polygon fill="#191970" stroke="#191970" points="589.166,-79.9439 598.459,-74.8555 588.0212,-73.0381 589.166,-79.9439"/>
</g>
<!-- Node10 -->
<g id="node11" class="node">
<title>Node10</title>
<g id="a_node11"><a xlink:href="../../d2/d45/GPUCommonRtypes_8h.html" target="_top" xlink:title="GPUCommonRtypes.h">
<polygon fill="none" stroke="#000000" points="166.6785,-56.5 166.6785,-75.5 291.6785,-75.5 291.6785,-56.5 166.6785,-56.5"/>
<text text-anchor="middle" x="229.1785" y="-63.5" font-family="Helvetica,sans-Serif" font-size="10.00" fill="#000000">GPUCommonRtypes.h</text>
</a>
</g>
</g>
<!-- Node2&#45;&gt;Node10 -->
<g id="edge10" class="edge">
<title>Node2&#45;&gt;Node10</title>
<path fill="none" stroke="#191970" d="M317.5406,-112.2455C300.7399,-103.4527 275.8151,-90.4079 256.7167,-80.4125"/>
<polygon fill="#191970" stroke="#191970" points="258.0858,-77.1787 247.6029,-75.6427 254.8399,-83.3807 258.0858,-77.1787"/>
</g>
<!-- Node12 -->
<g id="node13" class="node">
<title>Node12</title>
<g id="a_node13"><a xlink:href="../../df/d5b/GPUCommonLogger_8h.html" target="_top" xlink:title="GPUCommonLogger.h">
<polygon fill="none" stroke="#000000" points="380.6785,-56.5 380.6785,-75.5 503.6785,-75.5 503.6785,-56.5 380.6785,-56.5"/>
<text text-anchor="middle" x="442.1785" y="-63.5" font-family="Helvetica,sans-Serif" font-size="10.00" fill="#000000">GPUCommonLogger.h</text>
</a>
</g>
</g>
<!-- Node2&#45;&gt;Node12 -->
<g id="edge12" class="edge">
<title>Node2&#45;&gt;Node12</title>
<path fill="none" stroke="#191970" d="M354.6423,-112.2455C371.286,-103.4527 395.9778,-90.4079 414.8977,-80.4125"/>
<polygon fill="#191970" stroke="#191970" points="416.7193,-83.4086 423.9263,-75.6427 413.4494,-77.2193 416.7193,-83.4086"/>
</g>
<!-- Node8 -->
<g id="node9" class="node">
<title>Node8</title>
<g id="a_node9"><a xlink:href="../../d5/d93/GPUCommonDefSettings_8h.html" target="_top" xlink:title="GPUCommonDefSettings.h">
<polygon fill="none" stroke="#000000" points="707.1785,-.5 707.1785,-19.5 855.1785,-19.5 855.1785,-.5 707.1785,-.5"/>
<text text-anchor="middle" x="781.1785" y="-7.5" font-family="Helvetica,sans-Serif" font-size="10.00" fill="#000000">GPUCommonDefSettings.h</text>
</a>
</g>
</g>
<!-- Node7&#45;&gt;Node8 -->
<g id="edge8" class="edge">
<title>Node7&#45;&gt;Node8</title>
<path fill="none" stroke="#191970" d="M674.3544,-56.3733C695.1551,-47.3435 726.4702,-33.7494 749.8244,-23.6111"/>
<polygon fill="#191970" stroke="#191970" points="751.5128,-26.6938 759.292,-19.5011 748.7253,-20.2727 751.5128,-26.6938"/>
</g>
<!-- Node9 -->
<g id="node10" class="node">
<title>Node9</title>
<g id="a_node10"><a xlink:href="../../da/d5a/GPUCommonDefAPI_8h.html" target="_top" xlink:title="GPUCommonDefAPI.h">
<polygon fill="none" stroke="#000000" points="565.1785,-.5 565.1785,-19.5 689.1785,-19.5 689.1785,-.5 565.1785,-.5"/>
<text text-anchor="middle" x="627.1785" y="-7.5" font-family="Helvetica,sans-Serif" font-size="10.00" fill="#000000">GPUCommonDefAPI.h</text>
</a>
</g>
</g>
<!-- Node7&#45;&gt;Node9 -->
<g id="edge9" class="edge">
<title>Node7&#45;&gt;Node9</title>
<path fill="none" stroke="#191970" d="M647.8239,-56.2455C644.4541,-48.6973 639.6856,-38.0158 635.5802,-28.8197"/>
<polygon fill="#191970" stroke="#191970" points="638.7558,-27.3473 631.4833,-19.6427 632.3639,-30.2009 638.7558,-27.3473"/>
</g>
<!-- Node10&#45;&gt;Node11 -->
<g id="edge11" class="edge">
<title>Node10&#45;&gt;Node11</title>
<path fill="none" stroke="#191970" d="M209.5812,-56.3733C191.4454,-47.4644 164.265,-34.1127 143.7198,-24.0203"/>
<polygon fill="#191970" stroke="#191970" points="145.0388,-20.7688 134.5201,-19.5011 141.9525,-27.0517 145.0388,-20.7688"/>
</g>
<!-- Node13 -->
<g id="node14" class="node">
<title>Node13</title>
<polygon fill="none" stroke="#bfbfbf" points="437.1785,-.5 437.1785,-19.5 497.1785,-19.5 497.1785,-.5 437.1785,-.5"/>
<text text-anchor="middle" x="467.1785" y="-7.5" font-family="Helvetica,sans-Serif" font-size="10.00" fill="#000000">iostream</text>
</g>
<!-- Node12&#45;&gt;Node13 -->
<g id="edge13" class="edge">
<title>Node12&#45;&gt;Node13</title>
<path fill="none" stroke="#191970" d="M446.5332,-56.2455C449.9029,-48.6973 454.6715,-38.0158 458.7769,-28.8197"/>
<polygon fill="#191970" stroke="#191970" points="461.9932,-30.2009 462.8738,-19.6427 455.6012,-27.3473 461.9932,-30.2009"/>
</g>
<!-- Node14 -->
<g id="node15" class="node">
<title>Node14</title>
<polygon fill="none" stroke="#bfbfbf" points="373.1785,-.5 373.1785,-19.5 419.1785,-19.5 419.1785,-.5 373.1785,-.5"/>
<text text-anchor="middle" x="396.1785" y="-7.5" font-family="Helvetica,sans-Serif" font-size="10.00" fill="#000000">cstdio</text>
</g>
<!-- Node12&#45;&gt;Node14 -->
<g id="edge14" class="edge">
<title>Node12&#45;&gt;Node14</title>
<path fill="none" stroke="#191970" d="M434.1659,-56.2455C427.7018,-48.3761 418.4401,-37.101 410.6802,-27.6542"/>
<polygon fill="#191970" stroke="#191970" points="413.1513,-25.1484 404.0993,-19.6427 407.7422,-29.5916 413.1513,-25.1484"/>
</g>
<!-- Node15&#45;&gt;Node2 -->
<g id="edge27" class="edge">
<title>Node15&#45;&gt;Node2</title>
<path fill="none" stroke="#191970" d="M372.3026,-336.4544C368.7802,-318.4201 361.0068,-278.0902 355.1785,-244 349.0038,-207.8838 342.6043,-165.6072 339.0329,-141.498"/>
<polygon fill="#191970" stroke="#191970" points="342.4812,-140.89 337.561,-131.507 335.5559,-141.9103 342.4812,-140.89"/>
</g>
<!-- Node15&#45;&gt;Node7 -->
<g id="edge28" class="edge">
<title>Node15&#45;&gt;Node7</title>
<path fill="none" stroke="#191970" d="M407.0038,-336.4262C480.7552,-314.449 653.1785,-260.2604 653.1785,-234 653.1785,-234 653.1785,-234 653.1785,-178 653.1785,-145.7103 652.7578,-108.1863 652.4621,-85.8043"/>
<polygon fill="#191970" stroke="#191970" points="655.9589,-85.5391 652.3218,-75.5881 648.9596,-85.6353 655.9589,-85.5391"/>
</g>
<!-- Node16 -->
<g id="node17" class="node">
<title>Node16</title>
<g id="a_node17"><a xlink:href="../../de/da6/Spline1D_8h.html" target="_top" xlink:title="Definition of Spline1D class. ">
<polygon fill="none" stroke="#000000" points="364.6785,-224.5 364.6785,-243.5 433.6785,-243.5 433.6785,-224.5 364.6785,-224.5"/>
<text text-anchor="middle" x="399.1785" y="-231.5" font-family="Helvetica,sans-Serif" font-size="10.00" fill="#000000">Spline1D.h</text>
</a>
</g>
</g>
<!-- Node15&#45;&gt;Node16 -->
<g id="edge16" class="edge">
<title>Node15&#45;&gt;Node16</title>
<path fill="none" stroke="#191970" d="M376.31,-336.4509C380.4059,-318.1013 389.4484,-277.5908 394.855,-253.3693"/>
<polygon fill="#191970" stroke="#191970" points="398.2898,-254.0472 397.0524,-243.5249 391.4579,-252.5222 398.2898,-254.0472"/>
</g>
<!-- Node20 -->
<g id="node21" class="node">
<title>Node20</title>
<g id="a_node21"><a xlink:href="../../d7/d2f/Spline2DSpec_8h.html" target="_top" xlink:title="Definition of Spline2DSpec class. ">
<polygon fill="none" stroke="#000000" points="416.1785,-280.5 416.1785,-299.5 508.1785,-299.5 508.1785,-280.5 416.1785,-280.5"/>
<text text-anchor="middle" x="462.1785" y="-287.5" font-family="Helvetica,sans-Serif" font-size="10.00" fill="#000000">Spline2DSpec.h</text>
</a>
</g>
</g>
<!-- Node15&#45;&gt;Node20 -->
<g id="edge22" class="edge">
<title>Node15&#45;&gt;Node20</title>
<path fill="none" stroke="#191970" d="M389.507,-336.2455C403.0089,-327.6534 422.8907,-315.0014 438.4471,-305.1018"/>
<polygon fill="#191970" stroke="#191970" points="440.4682,-307.9643 447.0258,-299.6427 436.71,-302.0587 440.4682,-307.9643"/>
</g>
<!-- Node17 -->
<g id="node18" class="node">
<title>Node17</title>
<g id="a_node18"><a xlink:href="../../d0/d51/Spline1DSpec_8h.html" target="_top" xlink:title="Definition of Spline1DSpec class. ">
<polygon fill="none" stroke="#000000" points="434.1785,-168.5 434.1785,-187.5 526.1785,-187.5 526.1785,-168.5 434.1785,-168.5"/>
<text text-anchor="middle" x="480.1785" y="-175.5" font-family="Helvetica,sans-Serif" font-size="10.00" fill="#000000">Spline1DSpec.h</text>
</a>
</g>
</g>
<!-- Node16&#45;&gt;Node17 -->
<g id="edge17" class="edge">
<title>Node16&#45;&gt;Node17</title>
<path fill="none" stroke="#191970" d="M413.2877,-224.2455C425.5994,-215.7337 443.6743,-203.2375 457.9323,-193.3801"/>
<polygon fill="#191970" stroke="#191970" points="459.9959,-196.2085 466.2311,-187.6427 456.0151,-190.4506 459.9959,-196.2085"/>
</g>
<!-- Node17&#45;&gt;Node2 -->
<g id="edge19" class="edge">
<title>Node17&#45;&gt;Node2</title>
<path fill="none" stroke="#191970" d="M455.424,-168.3733C431.8937,-159.2226 396.3099,-145.3844 370.1359,-135.2057"/>
<polygon fill="#191970" stroke="#191970" points="371.1986,-131.8636 360.61,-131.5011 368.6615,-138.3877 371.1986,-131.8636"/>
</g>
<!-- Node17&#45;&gt;Node7 -->
<g id="edge18" class="edge">
<title>Node17&#45;&gt;Node7</title>
<path fill="none" stroke="#191970" d="M481.1704,-168.4787C483.1624,-154.2027 488.9531,-127.2981 505.1785,-112 518.7838,-99.1723 561.3945,-86.6319 597.2593,-77.8931"/>
<polygon fill="#191970" stroke="#191970" points="598.2502,-81.255 607.1664,-75.5321 596.6274,-74.4457 598.2502,-81.255"/>
</g>
<!-- Node18 -->
<g id="node19" class="node">
<title>Node18</title>
<g id="a_node19"><a xlink:href="../../db/d04/SplineUtil_8h.html" target="_top" xlink:title="SplineUtil.h">
<polygon fill="none" stroke="#000000" points="513.6785,-112.5 513.6785,-131.5 586.6785,-131.5 586.6785,-112.5 513.6785,-112.5"/>
<text text-anchor="middle" x="550.1785" y="-119.5" font-family="Helvetica,sans-Serif" font-size="10.00" fill="#000000">SplineUtil.h</text>
</a>
</g>
</g>
<!-- Node17&#45;&gt;Node18 -->
<g id="edge20" class="edge">
<title>Node17&#45;&gt;Node18</title>
<path fill="none" stroke="#191970" d="M492.3716,-168.2455C502.8106,-159.8943 518.044,-147.7076 530.2525,-137.9408"/>
<polygon fill="#191970" stroke="#191970" points="532.5029,-140.6227 538.1252,-131.6427 528.13,-135.1566 532.5029,-140.6227"/>
</g>
<!-- Node19 -->
<g id="node20" class="node">
<title>Node19</title>
<polygon fill="none" stroke="#bfbfbf" points="391.6785,-112.5 391.6785,-131.5 456.6785,-131.5 456.6785,-112.5 391.6785,-112.5"/>
<text text-anchor="middle" x="424.1785" y="-119.5" font-family="Helvetica,sans-Serif" font-size="10.00" fill="#000000">functional</text>
</g>
<!-- Node17&#45;&gt;Node19 -->
<g id="edge21" class="edge">
<title>Node17&#45;&gt;Node19</title>
<path fill="none" stroke="#191970" d="M470.4241,-168.2455C462.3138,-160.1352 450.586,-148.4075 440.9704,-138.7919"/>
<polygon fill="#191970" stroke="#191970" points="443.3672,-136.2389 433.8212,-131.6427 438.4174,-141.1887 443.3672,-136.2389"/>
</g>
<!-- Node20&#45;&gt;Node2 -->
<g id="edge24" class="edge">
<title>Node20&#45;&gt;Node2</title>
<path fill="none" stroke="#191970" d="M460.8393,-280.4143C458.6295,-266.9838 453.3075,-242.1751 442.1785,-224 420.0857,-187.9195 382.1996,-155.8234 358.2107,-137.6631"/>
<polygon fill="#191970" stroke="#191970" points="360.175,-134.7625 350.0565,-131.6215 356.0077,-140.387 360.175,-134.7625"/>
</g>
<!-- Node20&#45;&gt;Node7 -->
<g id="edge25" class="edge">
<title>Node20&#45;&gt;Node7</title>
<path fill="none" stroke="#191970" d="M476.9368,-280.4587C489.698,-271.8119 508.2362,-258.2709 522.1785,-244 573.2912,-191.6831 620.5471,-118.2645 641.2135,-84.4168"/>
<polygon fill="#191970" stroke="#191970" points="644.3597,-85.9776 646.5344,-75.6084 638.368,-82.3582 644.3597,-85.9776"/>
</g>
<!-- Node20&#45;&gt;Node16 -->
<g id="edge23" class="edge">
<title>Node20&#45;&gt;Node16</title>
<path fill="none" stroke="#191970" d="M451.2048,-280.2455C441.9903,-272.0549 428.6253,-260.1749 417.7488,-250.5069"/>
<polygon fill="#191970" stroke="#191970" points="419.8259,-247.6704 410.0265,-243.6427 415.1754,-252.9023 419.8259,-247.6704"/>
</g>
<!-- Node20&#45;&gt;Node18 -->
<g id="edge26" class="edge">
<title>Node20&#45;&gt;Node18</title>
<path fill="none" stroke="#191970" d="M471.0954,-280.4114C486.559,-263.2464 518.3089,-225.541 535.1785,-188 541.801,-173.2626 545.6368,-155.3163 547.7689,-141.8597"/>
<polygon fill="#191970" stroke="#191970" points="551.2595,-142.1704 549.183,-131.7811 544.3274,-141.1978 551.2595,-142.1704"/>
</g>
</g>
</svg>
