<?xml version="1.0" encoding="UTF-8" standalone="no"?>
<!DOCTYPE svg PUBLIC "-//W3C//DTD SVG 1.1//EN"
 "http://www.w3.org/Graphics/SVG/1.1/DTD/svg11.dtd">
<!-- Generated by graphviz version 2.40.1 (20161225.0304)
 -->
<!-- Title: /home/travis/build/AliceO2Group/AliceO2/GPU/GPUTracking/Standalone/qconfigoptions.h Pages: 1 -->
<svg width="425pt" height="285pt"
 viewBox="0.00 0.00 424.65 285.00" xmlns="http://www.w3.org/2000/svg" xmlns:xlink="http://www.w3.org/1999/xlink">
<g id="graph0" class="graph" transform="scale(1 1) rotate(0) translate(4 281)">
<title>/home/travis/build/AliceO2Group/AliceO2/GPU/GPUTracking/Standalone/qconfigoptions.h</title>
<!-- Node0 -->
<g id="node1" class="node">
<title>Node0</title>
<polygon fill="#bfbfbf" stroke="#000000" points="103.6453,-224.5 103.6453,-276.5 266.6453,-276.5 266.6453,-224.5 103.6453,-224.5"/>
<text text-anchor="start" x="111.6453" y="-264.5" font-family="Helvetica,sans-Serif" font-size="10.00" fill="#000000">/home/travis/build</text>
<text text-anchor="start" x="111.6453" y="-253.5" font-family="Helvetica,sans-Serif" font-size="10.00" fill="#000000">/AliceO2Group/AliceO2</text>
<text text-anchor="start" x="111.6453" y="-242.5" font-family="Helvetica,sans-Serif" font-size="10.00" fill="#000000">/GPU/GPUTracking/Standalone</text>
<text text-anchor="middle" x="185.1453" y="-231.5" font-family="Helvetica,sans-Serif" font-size="10.00" fill="#000000">/qconfigoptions.h</text>
</g>
<!-- Node1 -->
<g id="node2" class="node">
<title>Node1</title>
<g id="a_node2"><a xlink:href="../../dd/dc6/GPUSettings_8h.html" target="_top" xlink:title="GPUSettings.h">
<polygon fill="none" stroke="#000000" points="59.1453,-168.5 59.1453,-187.5 145.1453,-187.5 145.1453,-168.5 59.1453,-168.5"/>
<text text-anchor="middle" x="102.1453" y="-175.5" font-family="Helvetica,sans-Serif" font-size="10.00" fill="#000000">GPUSettings.h</text>
</a>
</g>
</g>
<!-- Node0&#45;&gt;Node1 -->
<g id="edge1" class="edge">
<title>Node0&#45;&gt;Node1</title>
<path fill="none" stroke="#191970" d="M155.1804,-224.3258C143.7169,-214.3126 130.9779,-203.1851 120.8586,-194.346"/>
<polygon fill="#191970" stroke="#191970" points="122.894,-191.4767 113.0601,-187.534 118.2889,-196.7486 122.894,-191.4767"/>
</g>
<!-- Node8 -->
<g id="node9" class="node">
<title>Node8</title>
<g id="a_node9"><a xlink:href="../../d4/d57/GPUSettingsList_8h.html" target="_top" xlink:title="GPUSettingsList.h">
<polygon fill="none" stroke="#000000" points="246.1453,-168.5 246.1453,-187.5 350.1453,-187.5 350.1453,-168.5 246.1453,-168.5"/>
<text text-anchor="middle" x="298.1453" y="-175.5" font-family="Helvetica,sans-Serif" font-size="10.00" fill="#000000">GPUSettingsList.h</text>
</a>
</g>
</g>
<!-- Node0&#45;&gt;Node8 -->
<g id="edge9" class="edge">
<title>Node0&#45;&gt;Node8</title>
<path fill="none" stroke="#191970" d="M225.9409,-224.3258C242.3281,-213.8119 260.6299,-202.0696 274.7072,-193.0377"/>
<polygon fill="#191970" stroke="#191970" points="276.7588,-195.8799 283.2854,-187.534 272.9787,-189.9883 276.7588,-195.8799"/>
</g>
<!-- Node2 -->
<g id="node3" class="node">
<title>Node2</title>
<g id="a_node3"><a xlink:href="../../df/d21/GPUCommonDef_8h.html" target="_top" xlink:title="GPUCommonDef.h">
<polygon fill="none" stroke="#000000" points="104.6453,-56.5 104.6453,-75.5 211.6453,-75.5 211.6453,-56.5 104.6453,-56.5"/>
<text text-anchor="middle" x="158.1453" y="-63.5" font-family="Helvetica,sans-Serif" font-size="10.00" fill="#000000">GPUCommonDef.h</text>
</a>
</g>
</g>
<!-- Node1&#45;&gt;Node2 -->
<g id="edge2" class="edge">
<title>Node1&#45;&gt;Node2</title>
<path fill="none" stroke="#191970" d="M64.2266,-168.4506C29.2583,-157.7559 -14.4832,-138.3978 5.1453,-112 16.1888,-97.1479 57.2968,-85.2799 94.1229,-77.3209"/>
<polygon fill="#191970" stroke="#191970" points="95.2948,-80.6517 104.3677,-75.1805 93.8632,-73.7996 95.2948,-80.6517"/>
</g>
<!-- Node5 -->
<g id="node6" class="node">
<title>Node5</title>
<polygon fill="none" stroke="#bfbfbf" points="14.6453,-112.5 14.6453,-131.5 61.6453,-131.5 61.6453,-112.5 14.6453,-112.5"/>
<text text-anchor="middle" x="38.1453" y="-119.5" font-family="Helvetica,sans-Serif" font-size="10.00" fill="#000000">vector</text>
</g>
<!-- Node1&#45;&gt;Node5 -->
<g id="edge5" class="edge">
<title>Node1&#45;&gt;Node5</title>
<path fill="none" stroke="#191970" d="M90.9973,-168.2455C81.6366,-160.0549 68.0595,-148.1749 57.0103,-138.5069"/>
<polygon fill="#191970" stroke="#191970" points="58.996,-135.5937 49.1655,-131.6427 54.3865,-140.8618 58.996,-135.5937"/>
</g>
<!-- Node6 -->
<g id="node7" class="node">
<title>Node6</title>
<polygon fill="none" stroke="#bfbfbf" points="80.1453,-112.5 80.1453,-131.5 124.1453,-131.5 124.1453,-112.5 80.1453,-112.5"/>
<text text-anchor="middle" x="102.1453" y="-119.5" font-family="Helvetica,sans-Serif" font-size="10.00" fill="#000000">string</text>
</g>
<!-- Node1&#45;&gt;Node6 -->
<g id="edge6" class="edge">
<title>Node1&#45;&gt;Node6</title>
<path fill="none" stroke="#191970" d="M102.1453,-168.2455C102.1453,-160.9382 102.1453,-150.6944 102.1453,-141.7046"/>
<polygon fill="#191970" stroke="#191970" points="105.6454,-141.6426 102.1453,-131.6427 98.6454,-141.6427 105.6454,-141.6426"/>
</g>
<!-- Node7 -->
<g id="node8" class="node">
<title>Node7</title>
<g id="a_node8"><a xlink:href="../../da/d08/qconfig_8h.html" target="_top" xlink:title="utils/qconfig.h">
<polygon fill="none" stroke="#000000" points="142.6453,-112.5 142.6453,-131.5 227.6453,-131.5 227.6453,-112.5 142.6453,-112.5"/>
<text text-anchor="middle" x="185.1453" y="-119.5" font-family="Helvetica,sans-Serif" font-size="10.00" fill="#000000">utils/qconfig.h</text>
</a>
</g>
</g>
<!-- Node1&#45;&gt;Node7 -->
<g id="edge7" class="edge">
<title>Node1&#45;&gt;Node7</title>
<path fill="none" stroke="#191970" d="M116.6028,-168.2455C129.2185,-159.7337 147.7397,-147.2375 162.3498,-137.3801"/>
<polygon fill="#191970" stroke="#191970" points="164.5214,-140.1371 170.8535,-131.6427 160.6062,-134.3343 164.5214,-140.1371"/>
</g>
<!-- Node3 -->
<g id="node4" class="node">
<title>Node3</title>
<g id="a_node4"><a xlink:href="../../d5/d93/GPUCommonDefSettings_8h.html" target="_top" xlink:title="GPUCommonDefSettings.h">
<polygon fill="none" stroke="#000000" points="7.1453,-.5 7.1453,-19.5 155.1453,-19.5 155.1453,-.5 7.1453,-.5"/>
<text text-anchor="middle" x="81.1453" y="-7.5" font-family="Helvetica,sans-Serif" font-size="10.00" fill="#000000">GPUCommonDefSettings.h</text>
</a>
</g>
</g>
<!-- Node2&#45;&gt;Node3 -->
<g id="edge3" class="edge">
<title>Node2&#45;&gt;Node3</title>
<path fill="none" stroke="#191970" d="M144.7329,-56.2455C133.1396,-47.814 116.1705,-35.4729 102.6774,-25.6598"/>
<polygon fill="#191970" stroke="#191970" points="104.5499,-22.6938 94.4039,-19.6427 100.4327,-28.355 104.5499,-22.6938"/>
</g>
<!-- Node4 -->
<g id="node5" class="node">
<title>Node4</title>
<g id="a_node5"><a xlink:href="../../da/d5a/GPUCommonDefAPI_8h.html" target="_top" xlink:title="GPUCommonDefAPI.h">
<polygon fill="none" stroke="#000000" points="173.1453,-.5 173.1453,-19.5 297.1453,-19.5 297.1453,-.5 173.1453,-.5"/>
<text text-anchor="middle" x="235.1453" y="-7.5" font-family="Helvetica,sans-Serif" font-size="10.00" fill="#000000">GPUCommonDefAPI.h</text>
</a>
</g>
</g>
<!-- Node2&#45;&gt;Node4 -->
<g id="edge4" class="edge">
<title>Node2&#45;&gt;Node4</title>
<path fill="none" stroke="#191970" d="M171.5576,-56.2455C183.151,-47.814 200.12,-35.4729 213.6131,-25.6598"/>
<polygon fill="#191970" stroke="#191970" points="215.8578,-28.355 221.8866,-19.6427 211.7406,-22.6938 215.8578,-28.355"/>
</g>
<!-- Node7&#45;&gt;Node0 -->
<g id="edge8" class="edge">
<title>Node7&#45;&gt;Node0</title>
<path fill="none" stroke="#191970" d="M185.1453,-131.5142C185.1453,-148.7388 185.1453,-185.922 185.1453,-214.1683"/>
<polygon fill="#191970" stroke="#191970" points="181.6454,-214.4961 185.1453,-224.4961 188.6454,-214.4961 181.6454,-214.4961"/>
</g>
<!-- Node9 -->
<g id="node10" class="node">
<title>Node9</title>
<g id="a_node10"><a xlink:href="../../d2/d37/GPUDefConstantsAndSettings_8h.html" target="_top" xlink:title="GPUDefConstantsAndSettings.h">
<polygon fill="none" stroke="#000000" points="245.6453,-112.5 245.6453,-131.5 416.6453,-131.5 416.6453,-112.5 245.6453,-112.5"/>
<text text-anchor="middle" x="331.1453" y="-119.5" font-family="Helvetica,sans-Serif" font-size="10.00" fill="#000000">GPUDefConstantsAndSettings.h</text>
</a>
</g>
</g>
<!-- Node8&#45;&gt;Node9 -->
<g id="edge10" class="edge">
<title>Node8&#45;&gt;Node9</title>
<path fill="none" stroke="#191970" d="M303.8934,-168.2455C308.3888,-160.617 314.7701,-149.7881 320.2277,-140.5267"/>
<polygon fill="#191970" stroke="#191970" points="323.4014,-142.035 325.463,-131.6427 317.3706,-138.4811 323.4014,-142.035"/>
</g>
<!-- Node9&#45;&gt;Node2 -->
<g id="edge11" class="edge">
<title>Node9&#45;&gt;Node2</title>
<path fill="none" stroke="#191970" d="M301.4055,-112.3733C272.6382,-103.0613 228.8753,-88.8953 197.2897,-78.671"/>
<polygon fill="#191970" stroke="#191970" points="198.0888,-75.251 187.497,-75.5011 195.933,-81.9107 198.0888,-75.251"/>
</g>
</g>
</svg>
