<?xml version="1.0" encoding="UTF-8" standalone="no"?>
<!DOCTYPE svg PUBLIC "-//W3C//DTD SVG 1.1//EN"
 "http://www.w3.org/Graphics/SVG/1.1/DTD/svg11.dtd">
<!-- Generated by graphviz version 2.40.1 (20161225.0304)
 -->
<!-- Title: /home/travis/build/AliceO2Group/AliceO2/GPU/GPUTracking/dEdx/GPUdEdx.cxx Pages: 1 -->
<!--zoomable 565 -->
<svg id="main" version="1.1" xmlns="http://www.w3.org/2000/svg" xmlns:xlink="http://www.w3.org/1999/xlink" xml:space="preserve" onload="init(evt)">
<style type="text/css"><![CDATA[
.edge:hover path { stroke: red; }
.edge:hover polygon { stroke: red; fill: red; }
]]></style>
<script type="text/javascript"><![CDATA[
var edges = document.getElementsByTagName('g');
if (edges && edges.length) {
  for (var i=0;i<edges.length;i++) {
    if (edges[i].id.substr(0,4)=='edge') {
      edges[i].setAttribute('class','edge');
    }
  }
}
]]></script>
        <defs>
                <circle id="rim" cx="0" cy="0" r="7"/>
                <circle id="rim2" cx="0" cy="0" r="3.5"/>
                <g id="zoomPlus">
                        <use xlink:href="#rim" fill="#404040">
                                <set attributeName="fill" to="#808080" begin="zoomplus.mouseover" end="zoomplus.mouseout"/>
                        </use>
                        <path d="M-4,0h8M0,-4v8" fill="none" stroke="white" stroke-width="1.5" pointer-events="none"/>
                </g>
                <g id="zoomMin">
                        <use xlink:href="#rim" fill="#404040">
                                <set attributeName="fill" to="#808080" begin="zoomminus.mouseover" end="zoomminus.mouseout"/>
                        </use>
                        <path d="M-4,0h8" fill="none" stroke="white" stroke-width="1.5" pointer-events="none"/>
                </g>
                <g id="dirArrow">
                        <path fill="none" stroke="white" stroke-width="1.5" d="M0,-3.0v7 M-2.5,-0.5L0,-3.0L2.5,-0.5"/>
                </g>
               <g id="resetDef">
                       <use xlink:href="#rim2" fill="#404040">
                               <set attributeName="fill" to="#808080" begin="reset.mouseover" end="reset.mouseout"/>
                       </use>
               </g>
        </defs>

<script type="text/javascript">
var viewWidth = 998;
var viewHeight = 565;
var sectionId = 'dynsection-0';
</script>
<script xlink:href="../../svgpan.js"/>
<svg id="graph" class="graph">
<g id="viewport">
<title>/home/travis/build/AliceO2Group/AliceO2/GPU/GPUTracking/dEdx/GPUdEdx.cxx</title>
<!-- Node0 -->
<g id="node1" class="node">
<title>Node0</title>
<polygon fill="#bfbfbf" stroke="#000000" points="486,-504.5 486,-556.5 618,-556.5 618,-504.5 486,-504.5"/>
<text text-anchor="start" x="494" y="-544.5" font-family="Helvetica,sans-Serif" font-size="10.00" fill="#000000">/home/travis/build</text>
<text text-anchor="start" x="494" y="-533.5" font-family="Helvetica,sans-Serif" font-size="10.00" fill="#000000">/AliceO2Group/AliceO2</text>
<text text-anchor="start" x="494" y="-522.5" font-family="Helvetica,sans-Serif" font-size="10.00" fill="#000000">/GPU/GPUTracking/dEdx</text>
<text text-anchor="middle" x="552" y="-511.5" font-family="Helvetica,sans-Serif" font-size="10.00" fill="#000000">/GPUdEdx.cxx</text>
</g>
<!-- Node1 -->
<g id="node2" class="node">
<title>Node1</title>
<g id="a_node2"><a xlink:href="../../dc/d55/GPUdEdx_8h.html" target="_top" xlink:title="GPUdEdx.h">
<polygon fill="none" stroke="#000000" points="516.5,-448.5 516.5,-467.5 587.5,-467.5 587.5,-448.5 516.5,-448.5"/>
<text text-anchor="middle" x="552" y="-455.5" font-family="Helvetica,sans-Serif" font-size="10.00" fill="#000000">GPUdEdx.h</text>
</a>
</g>
</g>
<!-- Node0&#45;&gt;Node1 -->
<g id="edge1" class="edge">
<title>Node0&#45;&gt;Node1</title>
<path fill="none" stroke="#191970" d="M552,-504.3258C552,-495.5142 552,-485.8397 552,-477.621"/>
<polygon fill="#191970" stroke="#191970" points="555.5001,-477.534 552,-467.534 548.5001,-477.534 555.5001,-477.534"/>
</g>
<!-- Node12 -->
<g id="node13" class="node">
<title>Node12</title>
<g id="a_node13"><a xlink:href="../../d6/d1b/GPUTPCGeometry_8h.html" target="_top" xlink:title="GPUTPCGeometry.h">
<polygon fill="none" stroke="#000000" points="89.5,-336.5 89.5,-355.5 202.5,-355.5 202.5,-336.5 89.5,-336.5"/>
<text text-anchor="middle" x="146" y="-343.5" font-family="Helvetica,sans-Serif" font-size="10.00" fill="#000000">GPUTPCGeometry.h</text>
</a>
</g>
</g>
<!-- Node0&#45;&gt;Node12 -->
<g id="edge37" class="edge">
<title>Node0&#45;&gt;Node12</title>
<path fill="none" stroke="#191970" d="M494.6912,-504.457C407.3983,-464.7881 244.1391,-390.5977 176.5296,-359.8737"/>
<polygon fill="#191970" stroke="#191970" points="177.821,-356.6161 167.2689,-355.6653 174.9249,-362.989 177.821,-356.6161"/>
</g>
<!-- Node16 -->
<g id="node17" class="node">
<title>Node16</title>
<g id="a_node17"><a xlink:href="../../df/d13/GPUParam_8h.html" target="_top" xlink:title="GPUParam.h">
<polygon fill="none" stroke="#000000" points="446.5,-392.5 446.5,-411.5 523.5,-411.5 523.5,-392.5 446.5,-392.5"/>
<text text-anchor="middle" x="485" y="-399.5" font-family="Helvetica,sans-Serif" font-size="10.00" fill="#000000">GPUParam.h</text>
</a>
</g>
</g>
<!-- Node0&#45;&gt;Node16 -->
<g id="edge42" class="edge">
<title>Node0&#45;&gt;Node16</title>
<path fill="none" stroke="#191970" d="M530.4049,-504.2683C522.2798,-493.5016 513.4551,-480.6175 507,-468 499.436,-453.2151 493.6507,-435.2723 489.9155,-421.8291"/>
<polygon fill="#191970" stroke="#191970" points="493.1962,-420.543 487.266,-411.7633 486.4268,-422.3248 493.1962,-420.543"/>
</g>
<!-- Node25 -->
<g id="node26" class="node">
<title>Node25</title>
<g id="a_node26"><a xlink:href="../../d3/d1f/GPUdEdxInfo_8h.html" target="_top" xlink:title="GPUdEdxInfo.h">
<polygon fill="none" stroke="#000000" points="618.5,-392.5 618.5,-411.5 707.5,-411.5 707.5,-392.5 618.5,-392.5"/>
<text text-anchor="middle" x="663" y="-399.5" font-family="Helvetica,sans-Serif" font-size="10.00" fill="#000000">GPUdEdxInfo.h</text>
</a>
</g>
</g>
<!-- Node0&#45;&gt;Node25 -->
<g id="edge38" class="edge">
<title>Node0&#45;&gt;Node25</title>
<path fill="none" stroke="#191970" d="M574.4625,-504.4961C596.3851,-479.1172 629.1205,-441.2208 648.0367,-419.3224"/>
<polygon fill="#191970" stroke="#191970" points="650.8932,-421.3697 654.7815,-411.5142 645.5959,-416.7938 650.8932,-421.3697"/>
</g>
<!-- Node26 -->
<g id="node27" class="node">
<title>Node26</title>
<g id="a_node27"><a xlink:href="../../dd/d0b/GPUCommonAlgorithm_8h.html" target="_top" xlink:title="GPUCommonAlgorithm.h">
<polygon fill="none" stroke="#000000" points="850.5,-336.5 850.5,-355.5 989.5,-355.5 989.5,-336.5 850.5,-336.5"/>
<text text-anchor="middle" x="920" y="-343.5" font-family="Helvetica,sans-Serif" font-size="10.00" fill="#000000">GPUCommonAlgorithm.h</text>
</a>
</g>
</g>
<!-- Node0&#45;&gt;Node26 -->
<g id="edge39" class="edge">
<title>Node0&#45;&gt;Node26</title>
<path fill="none" stroke="#191970" d="M603.9449,-504.457C682.7433,-464.9507 829.8346,-391.2052 891.57,-360.2536"/>
<polygon fill="#191970" stroke="#191970" points="893.351,-363.276 900.7218,-355.6653 890.2137,-357.0184 893.351,-363.276"/>
</g>
<!-- Node2 -->
<g id="node3" class="node">
<title>Node2</title>
<g id="a_node3"><a xlink:href="../../d2/d6d/GPUDef_8h.html" target="_top" xlink:title="GPUDef.h">
<polygon fill="none" stroke="#000000" points="434.5,-224.5 434.5,-243.5 497.5,-243.5 497.5,-224.5 434.5,-224.5"/>
<text text-anchor="middle" x="466" y="-231.5" font-family="Helvetica,sans-Serif" font-size="10.00" fill="#000000">GPUDef.h</text>
</a>
</g>
</g>
<!-- Node1&#45;&gt;Node2 -->
<g id="edge2" class="edge">
<title>Node1&#45;&gt;Node2</title>
<path fill="none" stroke="#191970" d="M551.5992,-448.4835C550.0717,-420.7767 542.9507,-338.43 511,-280 504.8443,-268.7428 495.1554,-258.3283 486.3421,-250.2659"/>
<polygon fill="#191970" stroke="#191970" points="488.4679,-247.4764 478.621,-243.5662 483.8802,-252.7635 488.4679,-247.4764"/>
</g>
<!-- Node1&#45;&gt;Node12 -->
<g id="edge13" class="edge">
<title>Node1&#45;&gt;Node12</title>
<path fill="none" stroke="#191970" d="M517.3847,-448.4509C443.826,-428.1589 272.0265,-380.7659 190.4808,-358.2706"/>
<polygon fill="#191970" stroke="#191970" points="191.0984,-354.8103 180.5277,-355.5249 189.2369,-361.5582 191.0984,-354.8103"/>
</g>
<!-- Node13 -->
<g id="node14" class="node">
<title>Node13</title>
<g id="a_node14"><a xlink:href="../../d6/da2/GPUCommonMath_8h.html" target="_top" xlink:title="GPUCommonMath.h">
<polygon fill="none" stroke="#000000" points="717.5,-336.5 717.5,-355.5 832.5,-355.5 832.5,-336.5 717.5,-336.5"/>
<text text-anchor="middle" x="775" y="-343.5" font-family="Helvetica,sans-Serif" font-size="10.00" fill="#000000">GPUCommonMath.h</text>
</a>
</g>
</g>
<!-- Node1&#45;&gt;Node13 -->
<g id="edge15" class="edge">
<title>Node1&#45;&gt;Node13</title>
<path fill="none" stroke="#191970" d="M557.6988,-448.3385C566.7307,-433.8795 585.7184,-406.7389 609,-392 638.5262,-373.3078 675.6843,-362.0957 707.3551,-355.4296"/>
<polygon fill="#191970" stroke="#191970" points="708.3057,-358.8091 717.4284,-353.4214 706.937,-351.9442 708.3057,-358.8091"/>
</g>
<!-- Node1&#45;&gt;Node16 -->
<g id="edge19" class="edge">
<title>Node1&#45;&gt;Node16</title>
<path fill="none" stroke="#191970" d="M540.3295,-448.2455C530.4339,-439.9746 516.0373,-427.9416 504.4099,-418.2232"/>
<polygon fill="#191970" stroke="#191970" points="506.4542,-415.3703 496.5368,-411.6427 501.965,-420.7413 506.4542,-415.3703"/>
</g>
<!-- Node1&#45;&gt;Node25 -->
<g id="edge36" class="edge">
<title>Node1&#45;&gt;Node25</title>
<path fill="none" stroke="#191970" d="M571.0816,-448.3733C588.7402,-439.4644 615.2053,-426.1127 635.2098,-416.0203"/>
<polygon fill="#191970" stroke="#191970" points="636.8158,-419.1303 644.1674,-411.5011 633.6628,-412.8806 636.8158,-419.1303"/>
</g>
<!-- Node3 -->
<g id="node4" class="node">
<title>Node3</title>
<g id="a_node4"><a xlink:href="../../df/d21/GPUCommonDef_8h.html" target="_top" xlink:title="GPUCommonDef.h">
<polygon fill="none" stroke="#000000" points="212.5,-56.5 212.5,-75.5 319.5,-75.5 319.5,-56.5 212.5,-56.5"/>
<text text-anchor="middle" x="266" y="-63.5" font-family="Helvetica,sans-Serif" font-size="10.00" fill="#000000">GPUCommonDef.h</text>
</a>
</g>
</g>
<!-- Node2&#45;&gt;Node3 -->
<g id="edge3" class="edge">
<title>Node2&#45;&gt;Node3</title>
<path fill="none" stroke="#191970" d="M434.1077,-231.6647C381.6006,-227.0837 280.5959,-214.9218 259,-188 235.4316,-158.6193 247.9198,-111.3133 257.7887,-85.0758"/>
<polygon fill="#191970" stroke="#191970" points="261.1422,-86.1169 261.6176,-75.5328 254.6456,-83.5103 261.1422,-86.1169"/>
</g>
<!-- Node6 -->
<g id="node7" class="node">
<title>Node6</title>
<g id="a_node7"><a xlink:href="../../d2/d37/GPUDefConstantsAndSettings_8h.html" target="_top" xlink:title="GPUDefConstantsAndSettings.h">
<polygon fill="none" stroke="#000000" points="66.5,-112.5 66.5,-131.5 237.5,-131.5 237.5,-112.5 66.5,-112.5"/>
<text text-anchor="middle" x="152" y="-119.5" font-family="Helvetica,sans-Serif" font-size="10.00" fill="#000000">GPUDefConstantsAndSettings.h</text>
</a>
</g>
</g>
<!-- Node2&#45;&gt;Node6 -->
<g id="edge6" class="edge">
<title>Node2&#45;&gt;Node6</title>
<path fill="none" stroke="#191970" d="M434.4653,-230.08C378.0438,-222.7189 262.3252,-205.945 226,-188 202.2991,-176.2915 180.4053,-154.8814 166.6788,-139.6217"/>
<polygon fill="#191970" stroke="#191970" points="169.1409,-137.1195 159.9336,-131.8776 163.8624,-141.7171 169.1409,-137.1195"/>
</g>
<!-- Node7 -->
<g id="node8" class="node">
<title>Node7</title>
<g id="a_node8"><a xlink:href="../../dc/de9/GPUDefGPUParameters_8h.html" target="_top" xlink:title="GPUDefGPUParameters.h">
<polygon fill="none" stroke="#000000" points="268,-168.5 268,-187.5 408,-187.5 408,-168.5 268,-168.5"/>
<text text-anchor="middle" x="338" y="-175.5" font-family="Helvetica,sans-Serif" font-size="10.00" fill="#000000">GPUDefGPUParameters.h</text>
</a>
</g>
</g>
<!-- Node2&#45;&gt;Node7 -->
<g id="edge8" class="edge">
<title>Node2&#45;&gt;Node7</title>
<path fill="none" stroke="#191970" d="M443.996,-224.3733C423.3565,-215.3435 392.2842,-201.7494 369.1111,-191.6111"/>
<polygon fill="#191970" stroke="#191970" points="370.2813,-188.3028 359.7169,-187.5011 367.4755,-194.7159 370.2813,-188.3028"/>
</g>
<!-- Node9 -->
<g id="node10" class="node">
<title>Node9</title>
<g id="a_node10"><a xlink:href="../../d3/d4c/GPUDefOpenCL12Templates_8h.html" target="_top" xlink:title="GPUDefOpenCL12Templates.h">
<polygon fill="none" stroke="#000000" points="426,-168.5 426,-187.5 590,-187.5 590,-168.5 426,-168.5"/>
<text text-anchor="middle" x="508" y="-175.5" font-family="Helvetica,sans-Serif" font-size="10.00" fill="#000000">GPUDefOpenCL12Templates.h</text>
</a>
</g>
</g>
<!-- Node2&#45;&gt;Node9 -->
<g id="edge10" class="edge">
<title>Node2&#45;&gt;Node9</title>
<path fill="none" stroke="#191970" d="M473.3158,-224.2455C479.2179,-216.3761 487.6742,-205.101 494.7594,-195.6542"/>
<polygon fill="#191970" stroke="#191970" points="497.568,-197.7427 500.768,-187.6427 491.9679,-193.5427 497.568,-197.7427"/>
</g>
<!-- Node10 -->
<g id="node11" class="node">
<title>Node10</title>
<g id="a_node11"><a xlink:href="../../d2/d45/GPUCommonRtypes_8h.html" target="_top" xlink:title="GPUCommonRtypes.h">
<polygon fill="none" stroke="#000000" points="608.5,-168.5 608.5,-187.5 733.5,-187.5 733.5,-168.5 608.5,-168.5"/>
<text text-anchor="middle" x="671" y="-175.5" font-family="Helvetica,sans-Serif" font-size="10.00" fill="#000000">GPUCommonRtypes.h</text>
</a>
</g>
</g>
<!-- Node2&#45;&gt;Node10 -->
<g id="edge11" class="edge">
<title>Node2&#45;&gt;Node10</title>
<path fill="none" stroke="#191970" d="M497.582,-225.3727C531.9142,-215.9942 587.0668,-200.9281 625.9407,-190.3089"/>
<polygon fill="#191970" stroke="#191970" points="627.2216,-193.5873 635.9458,-187.5758 625.3769,-186.8347 627.2216,-193.5873"/>
</g>
<!-- Node4 -->
<g id="node5" class="node">
<title>Node4</title>
<g id="a_node5"><a xlink:href="../../d5/d93/GPUCommonDefSettings_8h.html" target="_top" xlink:title="GPUCommonDefSettings.h">
<polygon fill="none" stroke="#000000" points="115,-.5 115,-19.5 263,-19.5 263,-.5 115,-.5"/>
<text text-anchor="middle" x="189" y="-7.5" font-family="Helvetica,sans-Serif" font-size="10.00" fill="#000000">GPUCommonDefSettings.h</text>
</a>
</g>
</g>
<!-- Node3&#45;&gt;Node4 -->
<g id="edge4" class="edge">
<title>Node3&#45;&gt;Node4</title>
<path fill="none" stroke="#191970" d="M252.5876,-56.2455C240.9943,-47.814 224.0252,-35.4729 210.5322,-25.6598"/>
<polygon fill="#191970" stroke="#191970" points="212.4047,-22.6938 202.2587,-19.6427 208.2874,-28.355 212.4047,-22.6938"/>
</g>
<!-- Node5 -->
<g id="node6" class="node">
<title>Node5</title>
<g id="a_node6"><a xlink:href="../../da/d5a/GPUCommonDefAPI_8h.html" target="_top" xlink:title="GPUCommonDefAPI.h">
<polygon fill="none" stroke="#000000" points="281,-.5 281,-19.5 405,-19.5 405,-.5 281,-.5"/>
<text text-anchor="middle" x="343" y="-7.5" font-family="Helvetica,sans-Serif" font-size="10.00" fill="#000000">GPUCommonDefAPI.h</text>
</a>
</g>
</g>
<!-- Node3&#45;&gt;Node5 -->
<g id="edge5" class="edge">
<title>Node3&#45;&gt;Node5</title>
<path fill="none" stroke="#191970" d="M279.4124,-56.2455C291.0057,-47.814 307.9748,-35.4729 321.4678,-25.6598"/>
<polygon fill="#191970" stroke="#191970" points="323.7126,-28.355 329.7413,-19.6427 319.5953,-22.6938 323.7126,-28.355"/>
</g>
<!-- Node6&#45;&gt;Node3 -->
<g id="edge7" class="edge">
<title>Node6&#45;&gt;Node3</title>
<path fill="none" stroke="#191970" d="M171.5973,-112.3733C189.7331,-103.4644 216.9135,-90.1127 237.4587,-80.0203"/>
<polygon fill="#191970" stroke="#191970" points="239.2261,-83.0517 246.6584,-75.5011 236.1397,-76.7688 239.2261,-83.0517"/>
</g>
<!-- Node8 -->
<g id="node9" class="node">
<title>Node8</title>
<g id="a_node9"><a xlink:href="../../d6/dff/GPUDefMacros_8h.html" target="_top" xlink:title="GPUDefMacros.h">
<polygon fill="none" stroke="#000000" points="294,-112.5 294,-131.5 392,-131.5 392,-112.5 294,-112.5"/>
<text text-anchor="middle" x="343" y="-119.5" font-family="Helvetica,sans-Serif" font-size="10.00" fill="#000000">GPUDefMacros.h</text>
</a>
</g>
</g>
<!-- Node7&#45;&gt;Node8 -->
<g id="edge9" class="edge">
<title>Node7&#45;&gt;Node8</title>
<path fill="none" stroke="#191970" d="M338.8709,-168.2455C339.5234,-160.9382 340.438,-150.6944 341.2407,-141.7046"/>
<polygon fill="#191970" stroke="#191970" points="344.7358,-141.9143 342.139,-131.6427 337.7635,-141.2918 344.7358,-141.9143"/>
</g>
<!-- Node11 -->
<g id="node12" class="node">
<title>Node11</title>
<polygon fill="none" stroke="#bfbfbf" points="641.5,-112.5 641.5,-131.5 700.5,-131.5 700.5,-112.5 641.5,-112.5"/>
<text text-anchor="middle" x="671" y="-119.5" font-family="Helvetica,sans-Serif" font-size="10.00" fill="#000000">Rtypes.h</text>
</g>
<!-- Node10&#45;&gt;Node11 -->
<g id="edge12" class="edge">
<title>Node10&#45;&gt;Node11</title>
<path fill="none" stroke="#191970" d="M671,-168.2455C671,-160.9382 671,-150.6944 671,-141.7046"/>
<polygon fill="#191970" stroke="#191970" points="674.5001,-141.6426 671,-131.6427 667.5001,-141.6427 674.5001,-141.6426"/>
</g>
<!-- Node12&#45;&gt;Node3 -->
<g id="edge14" class="edge">
<title>Node12&#45;&gt;Node3</title>
<path fill="none" stroke="#191970" d="M112.1377,-336.4958C69.0078,-322.0785 0,-290.2255 0,-234 0,-234 0,-234 0,-178 0,-143.9282 11.2403,-131.7556 39,-112 64.7677,-93.662 144.5783,-80.4919 202.2868,-73.0626"/>
<polygon fill="#191970" stroke="#191970" points="202.9412,-76.5079 212.4259,-71.7866 202.0671,-69.5627 202.9412,-76.5079"/>
</g>
<!-- Node13&#45;&gt;Node3 -->
<g id="edge16" class="edge">
<title>Node13&#45;&gt;Node3</title>
<path fill="none" stroke="#191970" d="M778.6888,-336.2751C785.643,-317.0407 800,-272.6505 800,-234 800,-234 800,-234 800,-178 800,-146.7875 800.7342,-131.0379 776,-112 741.3612,-85.3386 458.9337,-72.4927 329.8929,-67.9707"/>
<polygon fill="#191970" stroke="#191970" points="329.8691,-64.4679 319.7545,-67.6215 329.6281,-71.4638 329.8691,-64.4679"/>
</g>
<!-- Node14 -->
<g id="node15" class="node">
<title>Node14</title>
<polygon fill="none" stroke="#bfbfbf" points="724.5,-280.5 724.5,-299.5 771.5,-299.5 771.5,-280.5 724.5,-280.5"/>
<text text-anchor="middle" x="748" y="-287.5" font-family="Helvetica,sans-Serif" font-size="10.00" fill="#000000">cmath</text>
</g>
<!-- Node13&#45;&gt;Node14 -->
<g id="edge17" class="edge">
<title>Node13&#45;&gt;Node14</title>
<path fill="none" stroke="#191970" d="M770.297,-336.2455C766.6576,-328.6973 761.5076,-318.0158 757.0738,-308.8197"/>
<polygon fill="#191970" stroke="#191970" points="760.1449,-307.1303 752.6491,-299.6427 753.8395,-310.1704 760.1449,-307.1303"/>
</g>
<!-- Node15 -->
<g id="node16" class="node">
<title>Node15</title>
<polygon fill="none" stroke="#bfbfbf" points="828,-280.5 828,-299.5 892,-299.5 892,-280.5 828,-280.5"/>
<text text-anchor="middle" x="860" y="-287.5" font-family="Helvetica,sans-Serif" font-size="10.00" fill="#000000">algorithm</text>
</g>
<!-- Node13&#45;&gt;Node15 -->
<g id="edge18" class="edge">
<title>Node13&#45;&gt;Node15</title>
<path fill="none" stroke="#191970" d="M789.8059,-336.2455C802.7256,-327.7337 821.6931,-315.2375 836.6552,-305.3801"/>
<polygon fill="#191970" stroke="#191970" points="838.9387,-308.067 845.3638,-299.6427 835.0876,-302.2216 838.9387,-308.067"/>
</g>
<!-- Node16&#45;&gt;Node2 -->
<g id="edge22" class="edge">
<title>Node16&#45;&gt;Node2</title>
<path fill="none" stroke="#191970" d="M488.1058,-392.2757C494.31,-371.2986 506.679,-320.4249 495,-280 492.1062,-269.9836 486.3122,-260.0485 480.6587,-251.9887"/>
<polygon fill="#191970" stroke="#191970" points="483.3003,-249.6776 474.4977,-243.7814 477.7021,-253.88 483.3003,-249.6776"/>
</g>
<!-- Node16&#45;&gt;Node3 -->
<g id="edge20" class="edge">
<title>Node16&#45;&gt;Node3</title>
<path fill="none" stroke="#191970" d="M514.3247,-392.432C588.3629,-366.3657 774.7067,-287.9246 742,-168 734.3988,-140.129 733.3079,-127.6108 709,-112 677.8169,-91.9739 444.8934,-76.1442 329.8774,-69.4569"/>
<polygon fill="#191970" stroke="#191970" points="329.9791,-65.957 319.7945,-68.8765 329.5768,-72.9455 329.9791,-65.957"/>
</g>
<!-- Node16&#45;&gt;Node12 -->
<g id="edge32" class="edge">
<title>Node16&#45;&gt;Node12</title>
<path fill="none" stroke="#191970" d="M446.4424,-395.6306C389.5436,-386.2314 282.3109,-368.5174 212.5435,-356.9924"/>
<polygon fill="#191970" stroke="#191970" points="212.969,-353.5154 202.5322,-355.3387 211.8281,-360.4218 212.969,-353.5154"/>
</g>
<!-- Node16&#45;&gt;Node13 -->
<g id="edge21" class="edge">
<title>Node16&#45;&gt;Node13</title>
<path fill="none" stroke="#191970" d="M523.5098,-394.5636C572.637,-385.077 658.1117,-368.5715 715.6088,-357.4686"/>
<polygon fill="#191970" stroke="#191970" points="716.4939,-360.8625 725.6489,-355.5299 715.1667,-353.9894 716.4939,-360.8625"/>
</g>
<!-- Node17 -->
<g id="node18" class="node">
<title>Node17</title>
<g id="a_node18"><a xlink:href="../../dd/dc6/GPUSettings_8h.html" target="_top" xlink:title="GPUSettings.h">
<polygon fill="none" stroke="#000000" points="221,-336.5 221,-355.5 307,-355.5 307,-336.5 221,-336.5"/>
<text text-anchor="middle" x="264" y="-343.5" font-family="Helvetica,sans-Serif" font-size="10.00" fill="#000000">GPUSettings.h</text>
</a>
</g>
</g>
<!-- Node16&#45;&gt;Node17 -->
<g id="edge23" class="edge">
<title>Node16&#45;&gt;Node17</title>
<path fill="none" stroke="#191970" d="M447.2599,-392.4369C409.7552,-382.9335 352.1201,-368.3291 311.5176,-358.0407"/>
<polygon fill="#191970" stroke="#191970" points="312.1379,-354.5873 301.5845,-355.5237 310.4184,-361.3728 312.1379,-354.5873"/>
</g>
<!-- Node23 -->
<g id="node24" class="node">
<title>Node23</title>
<g id="a_node24"><a xlink:href="../../d9/d9c/GPUTPCGMPolynomialField_8h.html" target="_top" xlink:title="GPUTPCGMPolynomialField.h">
<polygon fill="none" stroke="#000000" points="328,-336.5 328,-355.5 486,-355.5 486,-336.5 328,-336.5"/>
<text text-anchor="middle" x="407" y="-343.5" font-family="Helvetica,sans-Serif" font-size="10.00" fill="#000000">GPUTPCGMPolynomialField.h</text>
</a>
</g>
</g>
<!-- Node16&#45;&gt;Node23 -->
<g id="edge33" class="edge">
<title>Node16&#45;&gt;Node23</title>
<path fill="none" stroke="#191970" d="M471.4134,-392.2455C459.6695,-383.814 442.4801,-371.4729 428.8118,-361.6598"/>
<polygon fill="#191970" stroke="#191970" points="430.5954,-358.6316 420.4309,-355.6427 426.5129,-364.3179 430.5954,-358.6316"/>
</g>
<!-- Node17&#45;&gt;Node3 -->
<g id="edge24" class="edge">
<title>Node17&#45;&gt;Node3</title>
<path fill="none" stroke="#191970" d="M228.6875,-336.3822C165.125,-318.0192 38,-276.0383 38,-234 38,-234 38,-234 38,-178 38,-147.4754 34.7399,-132.8864 57,-112 77.7446,-92.5356 148.4528,-79.8981 201.9289,-72.8848"/>
<polygon fill="#191970" stroke="#191970" points="202.5576,-76.3331 212.0357,-71.5985 201.6738,-69.3891 202.5576,-76.3331"/>
</g>
<!-- Node18 -->
<g id="node19" class="node">
<title>Node18</title>
<polygon fill="none" stroke="#bfbfbf" points="172.5,-280.5 172.5,-299.5 219.5,-299.5 219.5,-280.5 172.5,-280.5"/>
<text text-anchor="middle" x="196" y="-287.5" font-family="Helvetica,sans-Serif" font-size="10.00" fill="#000000">vector</text>
</g>
<!-- Node17&#45;&gt;Node18 -->
<g id="edge25" class="edge">
<title>Node17&#45;&gt;Node18</title>
<path fill="none" stroke="#191970" d="M252.1553,-336.2455C242.112,-327.9746 227.5005,-315.9416 215.6996,-306.2232"/>
<polygon fill="#191970" stroke="#191970" points="217.6533,-303.298 207.709,-299.6427 213.2033,-308.7015 217.6533,-303.298"/>
</g>
<!-- Node19 -->
<g id="node20" class="node">
<title>Node19</title>
<polygon fill="none" stroke="#bfbfbf" points="238,-280.5 238,-299.5 282,-299.5 282,-280.5 238,-280.5"/>
<text text-anchor="middle" x="260" y="-287.5" font-family="Helvetica,sans-Serif" font-size="10.00" fill="#000000">string</text>
</g>
<!-- Node17&#45;&gt;Node19 -->
<g id="edge26" class="edge">
<title>Node17&#45;&gt;Node19</title>
<path fill="none" stroke="#191970" d="M263.3033,-336.2455C262.7813,-328.9382 262.0496,-318.6944 261.4075,-309.7046"/>
<polygon fill="#191970" stroke="#191970" points="264.8924,-309.3679 260.6888,-299.6427 257.9102,-309.8667 264.8924,-309.3679"/>
</g>
<!-- Node20 -->
<g id="node21" class="node">
<title>Node20</title>
<g id="a_node21"><a xlink:href="../../da/d08/qconfig_8h.html" target="_top" xlink:title="utils/qconfig.h">
<polygon fill="none" stroke="#000000" points="300.5,-280.5 300.5,-299.5 385.5,-299.5 385.5,-280.5 300.5,-280.5"/>
<text text-anchor="middle" x="343" y="-287.5" font-family="Helvetica,sans-Serif" font-size="10.00" fill="#000000">utils/qconfig.h</text>
</a>
</g>
</g>
<!-- Node17&#45;&gt;Node20 -->
<g id="edge27" class="edge">
<title>Node17&#45;&gt;Node20</title>
<path fill="none" stroke="#191970" d="M277.7607,-336.2455C289.6552,-327.814 307.065,-315.4729 320.9085,-305.6598"/>
<polygon fill="#191970" stroke="#191970" points="323.2628,-308.2811 329.3969,-299.6427 319.2146,-302.5704 323.2628,-308.2811"/>
</g>
<!-- Node21 -->
<g id="node22" class="node">
<title>Node21</title>
<g id="a_node22"><a xlink:href="../../d8/de9/qconfigoptions_8h.html" target="_top" xlink:title="qconfigoptions.h">
<polygon fill="none" stroke="#000000" points="95.5,-224.5 95.5,-243.5 192.5,-243.5 192.5,-224.5 95.5,-224.5"/>
<text text-anchor="middle" x="144" y="-231.5" font-family="Helvetica,sans-Serif" font-size="10.00" fill="#000000">qconfigoptions.h</text>
</a>
</g>
</g>
<!-- Node20&#45;&gt;Node21 -->
<g id="edge28" class="edge">
<title>Node20&#45;&gt;Node21</title>
<path fill="none" stroke="#191970" d="M308.7907,-280.3733C275.2703,-270.9404 224.0495,-256.5265 187.619,-246.2747"/>
<polygon fill="#191970" stroke="#191970" points="188.3372,-242.8409 177.7629,-243.5011 186.4409,-249.5792 188.3372,-242.8409"/>
</g>
<!-- Node21&#45;&gt;Node17 -->
<g id="edge29" class="edge">
<title>Node21&#45;&gt;Node17</title>
<path fill="none" stroke="#191970" d="M144.3224,-243.7002C145.2821,-257.7219 148.9797,-283.7496 163,-300 176.3442,-315.4666 195.9583,-326.0121 214.3604,-333.0598"/>
<polygon fill="#191970" stroke="#191970" points="213.2387,-336.3756 223.8334,-336.434 215.5875,-329.7815 213.2387,-336.3756"/>
</g>
<!-- Node22 -->
<g id="node23" class="node">
<title>Node22</title>
<g id="a_node23"><a xlink:href="../../d4/d57/GPUSettingsList_8h.html" target="_top" xlink:title="GPUSettingsList.h">
<polygon fill="none" stroke="#000000" points="70,-168.5 70,-187.5 174,-187.5 174,-168.5 70,-168.5"/>
<text text-anchor="middle" x="122" y="-175.5" font-family="Helvetica,sans-Serif" font-size="10.00" fill="#000000">GPUSettingsList.h</text>
</a>
</g>
</g>
<!-- Node21&#45;&gt;Node22 -->
<g id="edge30" class="edge">
<title>Node21&#45;&gt;Node22</title>
<path fill="none" stroke="#191970" d="M140.1679,-224.2455C137.2341,-216.7776 133.0953,-206.2427 129.509,-197.1137"/>
<polygon fill="#191970" stroke="#191970" points="132.7024,-195.6704 125.7882,-187.6427 126.1871,-198.23 132.7024,-195.6704"/>
</g>
<!-- Node22&#45;&gt;Node6 -->
<g id="edge31" class="edge">
<title>Node22&#45;&gt;Node6</title>
<path fill="none" stroke="#191970" d="M127.2256,-168.2455C131.3123,-160.617 137.1135,-149.7881 142.075,-140.5267"/>
<polygon fill="#191970" stroke="#191970" points="145.1972,-142.1103 146.8343,-131.6427 139.0268,-138.8047 145.1972,-142.1103"/>
</g>
<!-- Node24 -->
<g id="node25" class="node">
<title>Node24</title>
<g id="a_node25"><a xlink:href="../../da/dab/GPUTPCDef_8h.html" target="_top" xlink:title="GPUTPCDef.h">
<polygon fill="none" stroke="#000000" points="404,-280.5 404,-299.5 486,-299.5 486,-280.5 404,-280.5"/>
<text text-anchor="middle" x="445" y="-287.5" font-family="Helvetica,sans-Serif" font-size="10.00" fill="#000000">GPUTPCDef.h</text>
</a>
</g>
</g>
<!-- Node23&#45;&gt;Node24 -->
<g id="edge34" class="edge">
<title>Node23&#45;&gt;Node24</title>
<path fill="none" stroke="#191970" d="M413.6191,-336.2455C418.9046,-328.4564 426.4541,-317.3308 432.8238,-307.9439"/>
<polygon fill="#191970" stroke="#191970" points="435.7379,-309.8827 438.4568,-299.6427 429.9455,-305.9522 435.7379,-309.8827"/>
</g>
<!-- Node24&#45;&gt;Node2 -->
<g id="edge35" class="edge">
<title>Node24&#45;&gt;Node2</title>
<path fill="none" stroke="#191970" d="M448.6579,-280.2455C451.4584,-272.7776 455.409,-262.2427 458.8324,-253.1137"/>
<polygon fill="#191970" stroke="#191970" points="462.1499,-254.2349 462.384,-243.6427 455.5955,-251.777 462.1499,-254.2349"/>
</g>
<!-- Node26&#45;&gt;Node3 -->
<g id="edge40" class="edge">
<title>Node26&#45;&gt;Node3</title>
<path fill="none" stroke="#191970" d="M920,-336.4116C920,-317.0538 920,-271.9167 920,-234 920,-234 920,-234 920,-178 920,-116.7424 857.6519,-129.6763 799,-112 712.9146,-86.0559 452.1854,-73.0437 330.208,-68.2421"/>
<polygon fill="#191970" stroke="#191970" points="330.032,-64.7327 319.904,-67.8431 329.7611,-71.7275 330.032,-64.7327"/>
</g>
<!-- Node26&#45;&gt;Node15 -->
<g id="edge41" class="edge">
<title>Node26&#45;&gt;Node15</title>
<path fill="none" stroke="#191970" d="M909.5488,-336.2455C900.7731,-328.0549 888.0446,-316.1749 877.686,-306.5069"/>
<polygon fill="#191970" stroke="#191970" points="880.0301,-303.9072 870.3314,-299.6427 875.2539,-309.0246 880.0301,-303.9072"/>
</g>
</g>
</svg>
        <g id="navigator" transform="translate(0 0)" fill="#404254">
                <rect fill="#f2f5e9" fill-opacity="0.5" stroke="#606060" stroke-width=".5" x="0" y="0" width="60" height="60"/>
                <use id="zoomplus" xlink:href="#zoomPlus" x="17" y="9" onmousedown="handleZoom(evt,'in')"/>
                <use id="zoomminus" xlink:href="#zoomMin" x="42" y="9" onmousedown="handleZoom(evt,'out')"/>
                <use id="reset" xlink:href="#resetDef" x="30" y="36" onmousedown="handleReset()"/>
                <g id="arrowUp" xlink:href="#dirArrow" transform="translate(30 24)" onmousedown="handlePan(0,-1)">
                  <use xlink:href="#rim" fill="#404040">
                        <set attributeName="fill" to="#808080" begin="arrowUp.mouseover" end="arrowUp.mouseout"/>
                  </use>
                  <path fill="none" stroke="white" stroke-width="1.5" d="M0,-3.0v7 M-2.5,-0.5L0,-3.0L2.5,-0.5"/>
                </g>
                <g id="arrowRight" xlink:href="#dirArrow" transform="rotate(90) translate(36 -43)" onmousedown="handlePan(1,0)">
                  <use xlink:href="#rim" fill="#404040">
                        <set attributeName="fill" to="#808080" begin="arrowRight.mouseover" end="arrowRight.mouseout"/>
                  </use>
                  <path fill="none" stroke="white" stroke-width="1.5" d="M0,-3.0v7 M-2.5,-0.5L0,-3.0L2.5,-0.5"/>
                </g>
                <g id="arrowDown" xlink:href="#dirArrow" transform="rotate(180) translate(-30 -48)" onmousedown="handlePan(0,1)">
                  <use xlink:href="#rim" fill="#404040">
                        <set attributeName="fill" to="#808080" begin="arrowDown.mouseover" end="arrowDown.mouseout"/>
                  </use>
                  <path fill="none" stroke="white" stroke-width="1.5" d="M0,-3.0v7 M-2.5,-0.5L0,-3.0L2.5,-0.5"/>
                </g>
                <g id="arrowLeft" xlink:href="#dirArrow" transform="rotate(270) translate(-36 17)" onmousedown="handlePan(-1,0)">
                  <use xlink:href="#rim" fill="#404040">
                        <set attributeName="fill" to="#808080" begin="arrowLeft.mouseover" end="arrowLeft.mouseout"/>
                  </use>
                  <path fill="none" stroke="white" stroke-width="1.5" d="M0,-3.0v7 M-2.5,-0.5L0,-3.0L2.5,-0.5"/>
                </g>
        </g>
        <svg viewBox="0 0 15 15" width="100%" height="30px" preserveAspectRatio="xMaxYMin meet">
         <g id="arrow_out" transform="scale(0.3 0.3)">
          <a xlink:href="GPUdEdx_8cxx__incl_org.svg" target="_base">
           <rect id="button" ry="5" rx="5" y="6" x="6" height="38" width="38"
                fill="#f2f5e9" fill-opacity="0.5" stroke="#606060" stroke-width="1.0"/>
           <path id="arrow"
             d="M 11.500037,31.436501 C 11.940474,20.09759 22.043105,11.32322 32.158766,21.979434 L 37.068811,17.246167 C 37.068811,17.246167 37.088388,32 37.088388,32 L 22.160133,31.978069 C 22.160133,31.978069 26.997745,27.140456 26.997745,27.140456 C 18.528582,18.264221 13.291696,25.230495 11.500037,31.436501 z"
             style="fill:#404040;"/>
          </a>
         </g>
        </svg>
</svg>
