<?xml version="1.0" encoding="UTF-8" standalone="no"?>
<!DOCTYPE svg PUBLIC "-//W3C//DTD SVG 1.1//EN"
 "http://www.w3.org/Graphics/SVG/1.1/DTD/svg11.dtd">
<!-- Generated by graphviz version 2.40.1 (20161225.0304)
 -->
<!-- Title: CorrelationTask::Config Pages: 1 -->
<svg width="222pt" height="182pt"
 viewBox="0.00 0.00 221.50 182.00" xmlns="http://www.w3.org/2000/svg" xmlns:xlink="http://www.w3.org/1999/xlink">
<g id="graph0" class="graph" transform="scale(1 1) rotate(0) translate(4 178)">
<title>CorrelationTask::Config</title>
<!-- Node1 -->
<g id="node1" class="node">
<title>Node1</title>
<polygon fill="#bfbfbf" stroke="#000000" points="0,-.5 0,-57.5 129,-57.5 129,-.5 0,-.5"/>
<text text-anchor="middle" x="64.5" y="-45.5" font-family="Helvetica,sans-Serif" font-size="10.00" fill="#000000">CorrelationTask::Config</text>
<polyline fill="none" stroke="#000000" points="0,-38.5 129,-38.5 "/>
<text text-anchor="middle" x="64.5" y="-26.5" font-family="Helvetica,sans-Serif" font-size="10.00" fill="#000000"> </text>
<polyline fill="none" stroke="#000000" points="0,-19.5 129,-19.5 "/>
<text text-anchor="middle" x="64.5" y="-7.5" font-family="Helvetica,sans-Serif" font-size="10.00" fill="#000000"> </text>
</g>
<!-- Node2 -->
<g id="node2" class="node">
<title>Node2</title>
<polygon fill="none" stroke="#bfbfbf" points="3.5,-116.5 3.5,-173.5 41.5,-173.5 41.5,-116.5 3.5,-116.5"/>
<text text-anchor="middle" x="22.5" y="-161.5" font-family="Helvetica,sans-Serif" font-size="10.00" fill="#000000">bool</text>
<polyline fill="none" stroke="#bfbfbf" points="3.5,-154.5 41.5,-154.5 "/>
<text text-anchor="middle" x="22.5" y="-142.5" font-family="Helvetica,sans-Serif" font-size="10.00" fill="#000000"> </text>
<polyline fill="none" stroke="#bfbfbf" points="3.5,-135.5 41.5,-135.5 "/>
<text text-anchor="middle" x="22.5" y="-123.5" font-family="Helvetica,sans-Serif" font-size="10.00" fill="#000000"> </text>
</g>
<!-- Node2&#45;&gt;Node1 -->
<g id="edge1" class="edge">
<title>Node2&#45;&gt;Node1</title>
<path fill="none" stroke="#404040" d="M18.5533,-116.2969C17.8937,-103.567 18.6562,-88.6417 23.5,-76 24.546,-73.27 25.8275,-70.593 27.2831,-67.9882"/>
<polygon fill="none" stroke="#404040" points="27.4525,-67.733 27.4392,-60.5219 34.0904,-57.7361 34.1038,-64.9472 27.4525,-67.733"/>
<text text-anchor="middle" x="54" y="-84.5" font-family="Helvetica,sans-Serif" font-size="10.00" fill="#000000"> +mPairCuts</text>
</g>
<!-- Node3 -->
<g id="node3" class="node">
<title>Node3</title>
<polygon fill="none" stroke="#bfbfbf" points="84.5,-116.5 84.5,-173.5 128.5,-173.5 128.5,-116.5 84.5,-116.5"/>
<text text-anchor="middle" x="106.5" y="-161.5" font-family="Helvetica,sans-Serif" font-size="10.00" fill="#000000">THn *</text>
<polyline fill="none" stroke="#bfbfbf" points="84.5,-154.5 128.5,-154.5 "/>
<text text-anchor="middle" x="106.5" y="-142.5" font-family="Helvetica,sans-Serif" font-size="10.00" fill="#000000"> </text>
<polyline fill="none" stroke="#bfbfbf" points="84.5,-135.5 128.5,-135.5 "/>
<text text-anchor="middle" x="106.5" y="-123.5" font-family="Helvetica,sans-Serif" font-size="10.00" fill="#000000"> </text>
</g>
<!-- Node3&#45;&gt;Node1 -->
<g id="edge2" class="edge">
<title>Node3&#45;&gt;Node1</title>
<path fill="none" stroke="#404040" d="M97.9965,-116.2598C94.1387,-103.7937 89.3575,-89.0838 84.5,-76 83.632,-73.6619 82.7132,-71.2702 81.7655,-68.865"/>
<polygon fill="none" stroke="#404040" points="81.7285,-68.7741 75.7599,-64.7273 77.1998,-57.6614 83.1684,-61.7082 81.7285,-68.7741"/>
<text text-anchor="middle" x="152.5" y="-90" font-family="Helvetica,sans-Serif" font-size="10.00" fill="#000000"> +mEfficiencyAssociated</text>
<text text-anchor="middle" x="152.5" y="-79" font-family="Helvetica,sans-Serif" font-size="10.00" fill="#000000">+mEfficiencyTrigger</text>
</g>
</g>
</svg>
