<?xml version="1.0" encoding="UTF-8" standalone="no"?>
<!DOCTYPE svg PUBLIC "-//W3C//DTD SVG 1.1//EN"
 "http://www.w3.org/Graphics/SVG/1.1/DTD/svg11.dtd">
<!-- Generated by graphviz version 2.40.1 (20161225.0304)
 -->
<!-- Title: o2::trd::TrackletHCHeader Pages: 1 -->
<svg width="230pt" height="248pt"
 viewBox="0.00 0.00 230.00 248.00" xmlns="http://www.w3.org/2000/svg" xmlns:xlink="http://www.w3.org/1999/xlink">
<g id="graph0" class="graph" transform="scale(1 1) rotate(0) translate(4 244)">
<title>o2::trd::TrackletHCHeader</title>
<!-- Node1 -->
<g id="node1" class="node">
<title>Node1</title>
<polygon fill="#bfbfbf" stroke="#000000" points="17,-.5 17,-57.5 159,-57.5 159,-.5 17,-.5"/>
<text text-anchor="middle" x="88" y="-45.5" font-family="Helvetica,sans-Serif" font-size="10.00" fill="#000000">o2::trd::TrackletHCHeader</text>
<polyline fill="none" stroke="#000000" points="17,-38.5 159,-38.5 "/>
<text text-anchor="middle" x="88" y="-26.5" font-family="Helvetica,sans-Serif" font-size="10.00" fill="#000000"> </text>
<polyline fill="none" stroke="#000000" points="17,-19.5 159,-19.5 "/>
<text text-anchor="middle" x="88" y="-7.5" font-family="Helvetica,sans-Serif" font-size="10.00" fill="#000000"> </text>
</g>
<!-- Node2 -->
<g id="node2" class="node">
<title>Node2</title>
<g id="a_node2"><a xlink:href="../../d3/d87/classuint32__t.html" target="_top" xlink:title="{uint32_t\n||}">
<polygon fill="none" stroke="#000000" points="0,-182.5 0,-239.5 56,-239.5 56,-182.5 0,-182.5"/>
<text text-anchor="middle" x="28" y="-227.5" font-family="Helvetica,sans-Serif" font-size="10.00" fill="#000000">uint32_t</text>
<polyline fill="none" stroke="#000000" points="0,-220.5 56,-220.5 "/>
<text text-anchor="middle" x="28" y="-208.5" font-family="Helvetica,sans-Serif" font-size="10.00" fill="#000000"> </text>
<polyline fill="none" stroke="#000000" points="0,-201.5 56,-201.5 "/>
<text text-anchor="middle" x="28" y="-189.5" font-family="Helvetica,sans-Serif" font-size="10.00" fill="#000000"> </text>
</a>
</g>
</g>
<!-- Node2&#45;&gt;Node1 -->
<g id="edge1" class="edge">
<title>Node2&#45;&gt;Node1</title>
<path fill="none" stroke="#404040" d="M29.5394,-182.2367C31.9033,-154.1245 37.8851,-110.6247 53,-76 54.2109,-73.2261 55.613,-70.4622 57.1456,-67.7434"/>
<polygon fill="none" stroke="#404040" points="57.1707,-67.7036 56.9898,-60.4947 63.5746,-57.5551 63.7554,-64.764 57.1707,-67.7036"/>
<text text-anchor="middle" x="89.5" y="-156" font-family="Helvetica,sans-Serif" font-size="10.00" fill="#000000"> +side</text>
<text text-anchor="middle" x="89.5" y="-145" font-family="Helvetica,sans-Serif" font-size="10.00" fill="#000000">+layer</text>
<text text-anchor="middle" x="89.5" y="-134" font-family="Helvetica,sans-Serif" font-size="10.00" fill="#000000">+word</text>
<text text-anchor="middle" x="89.5" y="-123" font-family="Helvetica,sans-Serif" font-size="10.00" fill="#000000">+supermodule</text>
<text text-anchor="middle" x="89.5" y="-112" font-family="Helvetica,sans-Serif" font-size="10.00" fill="#000000">+one</text>
<text text-anchor="middle" x="89.5" y="-101" font-family="Helvetica,sans-Serif" font-size="10.00" fill="#000000">+stack</text>
<text text-anchor="middle" x="89.5" y="-90" font-family="Helvetica,sans-Serif" font-size="10.00" fill="#000000">+format</text>
<text text-anchor="middle" x="89.5" y="-79" font-family="Helvetica,sans-Serif" font-size="10.00" fill="#000000">+MCLK</text>
</g>
<!-- Node3 -->
<g id="node3" class="node">
<title>Node3</title>
<polygon fill="none" stroke="#bfbfbf" points="74,-182.5 74,-239.5 222,-239.5 222,-182.5 74,-182.5"/>
<text text-anchor="middle" x="148" y="-227.5" font-family="Helvetica,sans-Serif" font-size="10.00" fill="#000000">anonymous:+__attribute__</text>
<polyline fill="none" stroke="#bfbfbf" points="74,-220.5 222,-220.5 "/>
<text text-anchor="middle" x="148" y="-208.5" font-family="Helvetica,sans-Serif" font-size="10.00" fill="#000000"> </text>
<polyline fill="none" stroke="#bfbfbf" points="74,-201.5 222,-201.5 "/>
<text text-anchor="middle" x="148" y="-189.5" font-family="Helvetica,sans-Serif" font-size="10.00" fill="#000000"> </text>
</g>
<!-- Node3&#45;&gt;Node1 -->
<g id="edge2" class="edge">
<title>Node3&#45;&gt;Node1</title>
<path fill="none" stroke="#404040" d="M147.5599,-182.3863C146.1728,-154.1949 141.4209,-110.4645 126,-76 124.7438,-73.1925 123.277,-70.4116 121.6644,-67.6882"/>
<polygon fill="none" stroke="#404040" points="121.5396,-67.502 114.8764,-64.7448 114.8586,-57.5337 121.5219,-60.2909 121.5396,-67.502"/>
<text text-anchor="middle" x="183.5" y="-117.5" font-family="Helvetica,sans-Serif" font-size="10.00" fill="#000000"> +__attribute__</text>
</g>
</g>
</svg>
