<?xml version="1.0" encoding="UTF-8" standalone="no"?>
<!DOCTYPE svg PUBLIC "-//W3C//DTD SVG 1.1//EN"
 "http://www.w3.org/Graphics/SVG/1.1/DTD/svg11.dtd">
<!-- Generated by graphviz version 2.40.1 (20161225.0304)
 -->
<!-- Title: /home/travis/build/AliceO2Group/AliceO2/Detectors/EMCAL/reconstruction/include/EMCALReconstruction/DigitReader.h Pages: 1 -->
<svg width="1408pt" height="318pt"
 viewBox="0.00 0.00 1408.00 318.00" xmlns="http://www.w3.org/2000/svg" xmlns:xlink="http://www.w3.org/1999/xlink">
<g id="graph0" class="graph" transform="scale(1 1) rotate(0) translate(4 314)">
<title>/home/travis/build/AliceO2Group/AliceO2/Detectors/EMCAL/reconstruction/include/EMCALReconstruction/DigitReader.h</title>
<!-- Node0 -->
<g id="node1" class="node">
<title>Node0</title>
<polygon fill="#bfbfbf" stroke="#000000" points="844,-246.5 844,-309.5 1020,-309.5 1020,-246.5 844,-246.5"/>
<text text-anchor="start" x="852" y="-297.5" font-family="Helvetica,sans-Serif" font-size="10.00" fill="#000000">/home/travis/build</text>
<text text-anchor="start" x="852" y="-286.5" font-family="Helvetica,sans-Serif" font-size="10.00" fill="#000000">/AliceO2Group/AliceO2</text>
<text text-anchor="start" x="852" y="-275.5" font-family="Helvetica,sans-Serif" font-size="10.00" fill="#000000">/Detectors/EMCAL/reconstruction</text>
<text text-anchor="start" x="852" y="-264.5" font-family="Helvetica,sans-Serif" font-size="10.00" fill="#000000">/include/EMCALReconstruction</text>
<text text-anchor="middle" x="932" y="-253.5" font-family="Helvetica,sans-Serif" font-size="10.00" fill="#000000">/DigitReader.h</text>
</g>
<!-- Node1 -->
<g id="node2" class="node">
<title>Node1</title>
<polygon fill="none" stroke="#bfbfbf" points="671,-185 671,-204 723,-204 723,-185 671,-185"/>
<text text-anchor="middle" x="697" y="-192" font-family="Helvetica,sans-Serif" font-size="10.00" fill="#000000">TTree.h</text>
</g>
<!-- Node0&#45;&gt;Node1 -->
<g id="edge1" class="edge">
<title>Node0&#45;&gt;Node1</title>
<path fill="none" stroke="#191970" d="M843.7383,-250.2902C808.3924,-238.6368 767.4783,-224.4422 731,-210 729.4242,-209.3761 727.816,-208.7182 726.1983,-208.0396"/>
<polygon fill="#191970" stroke="#191970" points="727.5557,-204.8132 716.9906,-204.0211 724.7557,-211.2289 727.5557,-204.8132"/>
</g>
<!-- Node2 -->
<g id="node3" class="node">
<title>Node2</title>
<g id="a_node3"><a xlink:href="../../d3/d6e/DataFormats_2Detectors_2EMCAL_2include_2DataFormatsEMCAL_2Digit_8h.html" target="_top" xlink:title="DataFormatsEMCAL/Digit.h">
<polygon fill="none" stroke="#000000" points="942,-185 942,-204 1090,-204 1090,-185 942,-185"/>
<text text-anchor="middle" x="1016" y="-192" font-family="Helvetica,sans-Serif" font-size="10.00" fill="#000000">DataFormatsEMCAL/Digit.h</text>
</a>
</g>
</g>
<!-- Node0&#45;&gt;Node2 -->
<g id="edge2" class="edge">
<title>Node0&#45;&gt;Node2</title>
<path fill="none" stroke="#191970" d="M963.7568,-246.4322C975.6345,-234.6252 988.6762,-221.6612 998.758,-211.6394"/>
<polygon fill="#191970" stroke="#191970" points="1001.5054,-213.8434 1006.13,-204.3112 996.5704,-208.8789 1001.5054,-213.8434"/>
</g>
<!-- Node15 -->
<g id="node16" class="node">
<title>Node15</title>
<g id="a_node16"><a xlink:href="../../d5/dd3/DataFormats_2Detectors_2EMCAL_2include_2DataFormatsEMCAL_2Cell_8h.html" target="_top" xlink:title="DataFormatsEMCAL/Cell.h">
<polygon fill="none" stroke="#000000" points="1179.5,-185 1179.5,-204 1322.5,-204 1322.5,-185 1179.5,-185"/>
<text text-anchor="middle" x="1251" y="-192" font-family="Helvetica,sans-Serif" font-size="10.00" fill="#000000">DataFormatsEMCAL/Cell.h</text>
</a>
</g>
</g>
<!-- Node0&#45;&gt;Node15 -->
<g id="edge18" class="edge">
<title>Node0&#45;&gt;Node15</title>
<path fill="none" stroke="#191970" d="M1020.0126,-254.9622C1079.7562,-239.324 1156.3716,-219.2695 1204.5901,-206.648"/>
<polygon fill="#191970" stroke="#191970" points="1205.6444,-209.9901 1214.4322,-204.0718 1203.8718,-203.2182 1205.6444,-209.9901"/>
</g>
<!-- Node17 -->
<g id="node18" class="node">
<title>Node17</title>
<g id="a_node18"><a xlink:href="../../d9/d38/EMCAL_2include_2DataFormatsEMCAL_2TriggerRecord_8h.html" target="_top" xlink:title="DataFormatsEMCAL/Trigger\lRecord.h">
<polygon fill="none" stroke="#000000" points="740.5,-179.5 740.5,-209.5 889.5,-209.5 889.5,-179.5 740.5,-179.5"/>
<text text-anchor="start" x="748.5" y="-197.5" font-family="Helvetica,sans-Serif" font-size="10.00" fill="#000000">DataFormatsEMCAL/Trigger</text>
<text text-anchor="middle" x="815" y="-186.5" font-family="Helvetica,sans-Serif" font-size="10.00" fill="#000000">Record.h</text>
</a>
</g>
</g>
<!-- Node0&#45;&gt;Node17 -->
<g id="edge21" class="edge">
<title>Node0&#45;&gt;Node17</title>
<path fill="none" stroke="#191970" d="M887.7673,-246.4322C873.2224,-236.0519 857.4243,-224.7771 844.2763,-215.3938"/>
<polygon fill="#191970" stroke="#191970" points="846.2316,-212.4893 836.0587,-209.5291 842.1652,-218.1871 846.2316,-212.4893"/>
</g>
<!-- Node3 -->
<g id="node4" class="node">
<title>Node3</title>
<polygon fill="none" stroke="#bfbfbf" points="973.5,-56.5 973.5,-75.5 1022.5,-75.5 1022.5,-56.5 973.5,-56.5"/>
<text text-anchor="middle" x="998" y="-63.5" font-family="Helvetica,sans-Serif" font-size="10.00" fill="#000000">iosfwd</text>
</g>
<!-- Node2&#45;&gt;Node3 -->
<g id="edge3" class="edge">
<title>Node2&#45;&gt;Node3</title>
<path fill="none" stroke="#191970" d="M1034.7969,-184.9218C1049.5918,-176.2237 1069.1416,-161.874 1078,-143 1083.8538,-130.5276 1084.8994,-123.9258 1078,-112 1068.1413,-94.959 1049.3143,-83.6788 1032.4004,-76.5554"/>
<polygon fill="#191970" stroke="#191970" points="1033.3345,-73.1644 1022.745,-72.8295 1030.8144,-79.695 1033.3345,-73.1644"/>
</g>
<!-- Node4 -->
<g id="node5" class="node">
<title>Node4</title>
<polygon fill="none" stroke="#bfbfbf" points="902.5,-56.5 902.5,-75.5 949.5,-75.5 949.5,-56.5 902.5,-56.5"/>
<text text-anchor="middle" x="926" y="-63.5" font-family="Helvetica,sans-Serif" font-size="10.00" fill="#000000">cmath</text>
</g>
<!-- Node2&#45;&gt;Node4 -->
<g id="edge4" class="edge">
<title>Node2&#45;&gt;Node4</title>
<path fill="none" stroke="#191970" d="M999.9129,-184.9722C985.7493,-175.8327 965.4875,-160.8146 953,-143 940.8438,-125.658 933.6776,-102.311 929.819,-85.8869"/>
<polygon fill="#191970" stroke="#191970" points="933.1715,-84.827 927.6554,-75.7813 926.3266,-86.2925 933.1715,-84.827"/>
</g>
<!-- Node5 -->
<g id="node6" class="node">
<title>Node5</title>
<polygon fill="none" stroke="#bfbfbf" points="840.5,-.5 840.5,-19.5 899.5,-19.5 899.5,-.5 840.5,-.5"/>
<text text-anchor="middle" x="870" y="-7.5" font-family="Helvetica,sans-Serif" font-size="10.00" fill="#000000">Rtypes.h</text>
</g>
<!-- Node2&#45;&gt;Node5 -->
<g id="edge5" class="edge">
<title>Node2&#45;&gt;Node5</title>
<path fill="none" stroke="#191970" d="M1039.5975,-184.9694C1057.4738,-176.5437 1081.2331,-162.5409 1095,-143 1117.6431,-110.8602 1136.0588,-86.2942 1111,-56 1085.9125,-25.6711 971.4491,-15.1586 909.7267,-11.6572"/>
<polygon fill="#191970" stroke="#191970" points="909.7433,-8.1532 899.5716,-11.1174 909.3717,-15.1434 909.7433,-8.1532"/>
</g>
<!-- Node6 -->
<g id="node7" class="node">
<title>Node6</title>
<g id="a_node7"><a xlink:href="../../df/d5d/common_2include_2CommonDataFormat_2TimeStamp_8h.html" target="_top" xlink:title="CommonDataFormat/TimeStamp.h">
<polygon fill="none" stroke="#000000" points="260.5,-118 260.5,-137 447.5,-137 447.5,-118 260.5,-118"/>
<text text-anchor="middle" x="354" y="-125" font-family="Helvetica,sans-Serif" font-size="10.00" fill="#000000">CommonDataFormat/TimeStamp.h</text>
</a>
</g>
</g>
<!-- Node2&#45;&gt;Node6 -->
<g id="edge6" class="edge">
<title>Node2&#45;&gt;Node6</title>
<path fill="none" stroke="#191970" d="M948.0539,-184.9946C931.6821,-182.8649 914.2314,-180.7275 898,-179 702.4524,-158.188 652.3438,-165.6449 457,-143 445.8159,-141.7035 433.9795,-140.1208 422.4695,-138.4678"/>
<polygon fill="#191970" stroke="#191970" points="422.8649,-134.9885 412.4633,-137.0025 421.8506,-141.9146 422.8649,-134.9885"/>
</g>
<!-- Node11 -->
<g id="node12" class="node">
<title>Node11</title>
<g id="a_node12"><a xlink:href="../../dd/dda/DataFormats_2Detectors_2EMCAL_2include_2DataFormatsEMCAL_2Constants_8h.html" target="_top" xlink:title="DataFormatsEMCAL/Constants.h">
<polygon fill="none" stroke="#000000" points="1164.5,-118 1164.5,-137 1337.5,-137 1337.5,-118 1164.5,-118"/>
<text text-anchor="middle" x="1251" y="-125" font-family="Helvetica,sans-Serif" font-size="10.00" fill="#000000">DataFormatsEMCAL/Constants.h</text>
</a>
</g>
</g>
<!-- Node2&#45;&gt;Node11 -->
<g id="edge12" class="edge">
<title>Node2&#45;&gt;Node11</title>
<path fill="none" stroke="#191970" d="M1049.6698,-184.9005C1091.2021,-173.0594 1161.8914,-152.9054 1207.4987,-139.9025"/>
<polygon fill="#191970" stroke="#191970" points="1208.7356,-143.1894 1217.3927,-137.0817 1206.8162,-136.4577 1208.7356,-143.1894"/>
</g>
<!-- Node14 -->
<g id="node15" class="node">
<title>Node14</title>
<polygon fill="none" stroke="#bfbfbf" points="962.5,-112.5 962.5,-142.5 1069.5,-142.5 1069.5,-112.5 962.5,-112.5"/>
<text text-anchor="start" x="970.5" y="-130.5" font-family="Helvetica,sans-Serif" font-size="10.00" fill="#000000">boost/serialization</text>
<text text-anchor="middle" x="1016" y="-119.5" font-family="Helvetica,sans-Serif" font-size="10.00" fill="#000000">/base_object.hpp</text>
</g>
<!-- Node2&#45;&gt;Node14 -->
<g id="edge17" class="edge">
<title>Node2&#45;&gt;Node14</title>
<path fill="none" stroke="#191970" d="M1016,-184.9005C1016,-176.5099 1016,-163.9451 1016,-152.7085"/>
<polygon fill="#191970" stroke="#191970" points="1019.5001,-152.5217 1016,-142.5218 1012.5001,-152.5218 1019.5001,-152.5217"/>
</g>
<!-- Node7 -->
<g id="node8" class="node">
<title>Node7</title>
<g id="a_node8"><a xlink:href="../../d2/d45/GPUCommonRtypes_8h.html" target="_top" xlink:title="GPUCommonRtypes.h">
<polygon fill="none" stroke="#000000" points="525.5,-56.5 525.5,-75.5 650.5,-75.5 650.5,-56.5 525.5,-56.5"/>
<text text-anchor="middle" x="588" y="-63.5" font-family="Helvetica,sans-Serif" font-size="10.00" fill="#000000">GPUCommonRtypes.h</text>
</a>
</g>
</g>
<!-- Node6&#45;&gt;Node7 -->
<g id="edge7" class="edge">
<title>Node6&#45;&gt;Node7</title>
<path fill="none" stroke="#191970" d="M390.3058,-117.9581C431.1219,-107.2308 497.4838,-89.7895 541.923,-78.11"/>
<polygon fill="#191970" stroke="#191970" points="542.8272,-81.4913 551.6091,-75.5643 541.0478,-74.7212 542.8272,-81.4913"/>
</g>
<!-- Node8 -->
<g id="node9" class="node">
<title>Node8</title>
<g id="a_node9"><a xlink:href="../../df/d21/GPUCommonDef_8h.html" target="_top" xlink:title="GPUCommonDef.h">
<polygon fill="none" stroke="#000000" points="97.5,-56.5 97.5,-75.5 204.5,-75.5 204.5,-56.5 97.5,-56.5"/>
<text text-anchor="middle" x="151" y="-63.5" font-family="Helvetica,sans-Serif" font-size="10.00" fill="#000000">GPUCommonDef.h</text>
</a>
</g>
</g>
<!-- Node6&#45;&gt;Node8 -->
<g id="edge9" class="edge">
<title>Node6&#45;&gt;Node8</title>
<path fill="none" stroke="#191970" d="M322.2813,-117.8906C287.2728,-107.2846 230.7981,-90.1753 192.3449,-78.5257"/>
<polygon fill="#191970" stroke="#191970" points="193.0813,-75.0917 182.496,-75.5419 191.0516,-81.791 193.0813,-75.0917"/>
</g>
<!-- Node7&#45;&gt;Node5 -->
<g id="edge8" class="edge">
<title>Node7&#45;&gt;Node5</title>
<path fill="none" stroke="#191970" d="M636.1571,-56.4369C690.9046,-45.5651 779.2688,-28.0175 830.2536,-17.8929"/>
<polygon fill="#191970" stroke="#191970" points="831.109,-21.2915 840.2357,-15.9106 829.7455,-14.4255 831.109,-21.2915"/>
</g>
<!-- Node9 -->
<g id="node10" class="node">
<title>Node9</title>
<g id="a_node10"><a xlink:href="../../d5/d93/GPUCommonDefSettings_8h.html" target="_top" xlink:title="GPUCommonDefSettings.h">
<polygon fill="none" stroke="#000000" points="0,-.5 0,-19.5 148,-19.5 148,-.5 0,-.5"/>
<text text-anchor="middle" x="74" y="-7.5" font-family="Helvetica,sans-Serif" font-size="10.00" fill="#000000">GPUCommonDefSettings.h</text>
</a>
</g>
</g>
<!-- Node8&#45;&gt;Node9 -->
<g id="edge10" class="edge">
<title>Node8&#45;&gt;Node9</title>
<path fill="none" stroke="#191970" d="M137.5876,-56.2455C125.9943,-47.814 109.0252,-35.4729 95.5322,-25.6598"/>
<polygon fill="#191970" stroke="#191970" points="97.4047,-22.6938 87.2587,-19.6427 93.2874,-28.355 97.4047,-22.6938"/>
</g>
<!-- Node10 -->
<g id="node11" class="node">
<title>Node10</title>
<g id="a_node11"><a xlink:href="../../da/d5a/GPUCommonDefAPI_8h.html" target="_top" xlink:title="GPUCommonDefAPI.h">
<polygon fill="none" stroke="#000000" points="166,-.5 166,-19.5 290,-19.5 290,-.5 166,-.5"/>
<text text-anchor="middle" x="228" y="-7.5" font-family="Helvetica,sans-Serif" font-size="10.00" fill="#000000">GPUCommonDefAPI.h</text>
</a>
</g>
</g>
<!-- Node8&#45;&gt;Node10 -->
<g id="edge11" class="edge">
<title>Node8&#45;&gt;Node10</title>
<path fill="none" stroke="#191970" d="M164.4124,-56.2455C176.0057,-47.814 192.9748,-35.4729 206.4678,-25.6598"/>
<polygon fill="#191970" stroke="#191970" points="208.7126,-28.355 214.7413,-19.6427 204.5953,-22.6938 208.7126,-28.355"/>
</g>
<!-- Node11&#45;&gt;Node3 -->
<g id="edge14" class="edge">
<title>Node11&#45;&gt;Node3</title>
<path fill="none" stroke="#191970" d="M1211.7463,-117.9581C1162.7127,-106.0389 1079.5804,-85.8308 1032.7508,-74.4473"/>
<polygon fill="#191970" stroke="#191970" points="1033.3228,-70.9845 1022.779,-72.0234 1031.6693,-77.7864 1033.3228,-70.9845"/>
</g>
<!-- Node11&#45;&gt;Node5 -->
<g id="edge13" class="edge">
<title>Node11&#45;&gt;Node5</title>
<path fill="none" stroke="#191970" d="M1252.4955,-117.4999C1254.2021,-101.9109 1254.8644,-71.9535 1238,-56 1214.4354,-33.7082 999.9318,-18.0074 909.7026,-12.3344"/>
<polygon fill="#191970" stroke="#191970" points="909.7863,-8.833 899.5891,-11.7079 909.3535,-15.8196 909.7863,-8.833"/>
</g>
<!-- Node12 -->
<g id="node13" class="node">
<title>Node12</title>
<polygon fill="none" stroke="#bfbfbf" points="1164.5,-56.5 1164.5,-75.5 1229.5,-75.5 1229.5,-56.5 1164.5,-56.5"/>
<text text-anchor="middle" x="1197" y="-63.5" font-family="Helvetica,sans-Serif" font-size="10.00" fill="#000000">exception</text>
</g>
<!-- Node11&#45;&gt;Node12 -->
<g id="edge15" class="edge">
<title>Node11&#45;&gt;Node12</title>
<path fill="none" stroke="#191970" d="M1242.5625,-117.8906C1234.4469,-108.6478 1221.9945,-94.466 1212.1576,-83.2628"/>
<polygon fill="#191970" stroke="#191970" points="1214.7846,-80.95 1205.5565,-75.7449 1209.5245,-85.5686 1214.7846,-80.95"/>
</g>
<!-- Node13 -->
<g id="node14" class="node">
<title>Node13</title>
<polygon fill="none" stroke="#bfbfbf" points="1052,-56.5 1052,-75.5 1102,-75.5 1102,-56.5 1052,-56.5"/>
<text text-anchor="middle" x="1077" y="-63.5" font-family="Helvetica,sans-Serif" font-size="10.00" fill="#000000">cstdint</text>
</g>
<!-- Node11&#45;&gt;Node13 -->
<g id="edge16" class="edge">
<title>Node11&#45;&gt;Node13</title>
<path fill="none" stroke="#191970" d="M1223.8125,-117.8906C1193.582,-107.2057 1144.677,-89.9203 1111.7053,-78.2665"/>
<polygon fill="#191970" stroke="#191970" points="1112.6173,-74.8768 1102.0225,-74.8442 1110.2846,-81.4766 1112.6173,-74.8768"/>
</g>
<!-- Node15&#45;&gt;Node11 -->
<g id="edge20" class="edge">
<title>Node15&#45;&gt;Node11</title>
<path fill="none" stroke="#191970" d="M1251,-184.9005C1251,-175.149 1251,-159.7597 1251,-147.3695"/>
<polygon fill="#191970" stroke="#191970" points="1254.5001,-147.0816 1251,-137.0817 1247.5001,-147.0817 1254.5001,-147.0816"/>
</g>
<!-- Node16 -->
<g id="node17" class="node">
<title>Node16</title>
<polygon fill="none" stroke="#bfbfbf" points="1356,-118 1356,-137 1400,-137 1400,-118 1356,-118"/>
<text text-anchor="middle" x="1378" y="-125" font-family="Helvetica,sans-Serif" font-size="10.00" fill="#000000">bitset</text>
</g>
<!-- Node15&#45;&gt;Node16 -->
<g id="edge19" class="edge">
<title>Node15&#45;&gt;Node16</title>
<path fill="none" stroke="#191970" d="M1269.196,-184.9005C1290.6038,-173.6067 1326.3458,-154.7506 1350.9893,-141.7497"/>
<polygon fill="#191970" stroke="#191970" points="1352.6262,-144.8434 1359.8378,-137.0817 1349.3599,-138.6522 1352.6262,-144.8434"/>
</g>
<!-- Node17&#45;&gt;Node3 -->
<g id="edge22" class="edge">
<title>Node17&#45;&gt;Node3</title>
<path fill="none" stroke="#191970" d="M836.7111,-179.2548C871.798,-154.6173 940.5927,-106.3106 975.9165,-81.5068"/>
<polygon fill="#191970" stroke="#191970" points="977.9624,-84.3468 984.135,-75.7358 973.9398,-78.6181 977.9624,-84.3468"/>
</g>
<!-- Node17&#45;&gt;Node5 -->
<g id="edge23" class="edge">
<title>Node17&#45;&gt;Node5</title>
<path fill="none" stroke="#191970" d="M740.4049,-180.1694C737.5708,-179.7522 734.7618,-179.3601 732,-179 678.856,-172.0703 287.455,-182.2854 251,-143 241.6283,-132.9006 242.323,-122.7022 251,-112 287.8562,-66.5414 699.1432,-25.5168 830.1617,-13.5235"/>
<polygon fill="#191970" stroke="#191970" points="830.5343,-17.0041 840.1765,-12.6135 829.9008,-10.0329 830.5343,-17.0041"/>
</g>
<!-- Node18 -->
<g id="node19" class="node">
<title>Node18</title>
<g id="a_node19"><a xlink:href="../../d9/d80/InteractionRecord_8h.html" target="_top" xlink:title="CommonDataFormat/Interaction\lRecord.h">
<polygon fill="none" stroke="#000000" points="694,-112.5 694,-142.5 868,-142.5 868,-112.5 694,-112.5"/>
<text text-anchor="start" x="702" y="-130.5" font-family="Helvetica,sans-Serif" font-size="10.00" fill="#000000">CommonDataFormat/Interaction</text>
<text text-anchor="middle" x="781" y="-119.5" font-family="Helvetica,sans-Serif" font-size="10.00" fill="#000000">Record.h</text>
</a>
</g>
</g>
<!-- Node17&#45;&gt;Node18 -->
<g id="edge24" class="edge">
<title>Node17&#45;&gt;Node18</title>
<path fill="none" stroke="#191970" d="M807.2849,-179.2967C803.1551,-171.1586 797.9708,-160.9425 793.3002,-151.7386"/>
<polygon fill="#191970" stroke="#191970" points="796.3311,-149.9768 788.6846,-142.6432 790.0888,-153.1445 796.3311,-149.9768"/>
</g>
<!-- Node20 -->
<g id="node21" class="node">
<title>Node20</title>
<g id="a_node21"><a xlink:href="../../de/d64/RangeReference_8h.html" target="_top" xlink:title="Class to refer to the 1st entry and N elements of some group in the continuous container. ">
<polygon fill="none" stroke="#000000" points="466,-118 466,-137 676,-137 676,-118 466,-118"/>
<text text-anchor="middle" x="571" y="-125" font-family="Helvetica,sans-Serif" font-size="10.00" fill="#000000">CommonDataFormat/RangeReference.h</text>
</a>
</g>
</g>
<!-- Node17&#45;&gt;Node20 -->
<g id="edge30" class="edge">
<title>Node17&#45;&gt;Node20</title>
<path fill="none" stroke="#191970" d="M760.2416,-179.4639C716.4977,-167.4522 655.9811,-150.835 615.2637,-139.6544"/>
<polygon fill="#191970" stroke="#191970" points="616.1861,-136.2782 605.6163,-137.0053 614.3325,-143.0283 616.1861,-136.2782"/>
</g>
<!-- Node18&#45;&gt;Node3 -->
<g id="edge26" class="edge">
<title>Node18&#45;&gt;Node3</title>
<path fill="none" stroke="#191970" d="M834.0842,-112.4554C874.5112,-100.998 928.9689,-85.5641 963.7894,-75.6956"/>
<polygon fill="#191970" stroke="#191970" points="964.828,-79.0392 973.4947,-72.9451 962.9192,-72.3045 964.828,-79.0392"/>
</g>
<!-- Node18&#45;&gt;Node4 -->
<g id="edge28" class="edge">
<title>Node18&#45;&gt;Node4</title>
<path fill="none" stroke="#191970" d="M816.471,-112.4554C840.2402,-102.374 871.268,-89.2139 894.2285,-79.4755"/>
<polygon fill="#191970" stroke="#191970" points="895.6906,-82.6572 903.5301,-75.5303 892.9573,-76.2129 895.6906,-82.6572"/>
</g>
<!-- Node18&#45;&gt;Node7 -->
<g id="edge25" class="edge">
<title>Node18&#45;&gt;Node7</title>
<path fill="none" stroke="#191970" d="M733.7869,-112.4554C701.1606,-102.059 658.2596,-88.3884 627.4559,-78.5727"/>
<polygon fill="#191970" stroke="#191970" points="628.4988,-75.2317 617.9081,-75.5303 626.3735,-81.9013 628.4988,-75.2317"/>
</g>
<!-- Node18&#45;&gt;Node13 -->
<g id="edge27" class="edge">
<title>Node18&#45;&gt;Node13</title>
<path fill="none" stroke="#191970" d="M855.1568,-112.4443C904.9219,-102.2865 971.931,-88.5043 1031,-76 1034.463,-75.2669 1038.071,-74.4956 1041.6757,-73.7201"/>
<polygon fill="#191970" stroke="#191970" points="1042.6691,-77.0862 1051.7031,-71.5512 1041.1892,-70.2445 1042.6691,-77.0862"/>
</g>
<!-- Node19 -->
<g id="node20" class="node">
<title>Node19</title>
<g id="a_node20"><a xlink:href="../../d4/dc6/LHCConstants_8h.html" target="_top" xlink:title="Header to collect LHC related constants. ">
<polygon fill="none" stroke="#000000" points="686,-56.5 686,-75.5 876,-75.5 876,-56.5 686,-56.5"/>
<text text-anchor="middle" x="781" y="-63.5" font-family="Helvetica,sans-Serif" font-size="10.00" fill="#000000">CommonConstants/LHCConstants.h</text>
</a>
</g>
</g>
<!-- Node18&#45;&gt;Node19 -->
<g id="edge29" class="edge">
<title>Node18&#45;&gt;Node19</title>
<path fill="none" stroke="#191970" d="M781,-112.2977C781,-104.3834 781,-94.6043 781,-86.0759"/>
<polygon fill="#191970" stroke="#191970" points="784.5001,-85.8469 781,-75.8469 777.5001,-85.847 784.5001,-85.8469"/>
</g>
<!-- Node20&#45;&gt;Node7 -->
<g id="edge31" class="edge">
<title>Node20&#45;&gt;Node7</title>
<path fill="none" stroke="#191970" d="M573.6563,-117.8906C576.0375,-109.276 579.6048,-96.3708 582.586,-85.5858"/>
<polygon fill="#191970" stroke="#191970" points="586.0154,-86.3159 585.3063,-75.7449 579.2684,-84.4509 586.0154,-86.3159"/>
</g>
</g>
</svg>
