<?xml version="1.0" encoding="UTF-8" standalone="no"?>
<!DOCTYPE svg PUBLIC "-//W3C//DTD SVG 1.1//EN"
 "http://www.w3.org/Graphics/SVG/1.1/DTD/svg11.dtd">
<!-- Generated by graphviz version 2.40.1 (20161225.0304)
 -->
<!-- Title: GPUCA_NAMESPACE::gpu::Spline2D&lt; DataT, YdimT &gt; Pages: 1 -->
<svg width="220pt" height="503pt"
 viewBox="0.00 0.00 219.50 503.00" xmlns="http://www.w3.org/2000/svg" xmlns:xlink="http://www.w3.org/1999/xlink">
<g id="graph0" class="graph" transform="scale(1 1) rotate(0) translate(4 499)">
<title>GPUCA_NAMESPACE::gpu::Spline2D&lt; DataT, YdimT &gt;</title>
<!-- Node0 -->
<g id="node1" class="node">
<title>Node0</title>
<polygon fill="#bfbfbf" stroke="#000000" points="0,-138.5 0,-228.5 155,-228.5 155,-138.5 0,-138.5"/>
<text text-anchor="start" x="8" y="-216.5" font-family="Helvetica,sans-Serif" font-size="10.00" fill="#000000">GPUCA_NAMESPACE::gpu</text>
<text text-anchor="middle" x="77.5" y="-205.5" font-family="Helvetica,sans-Serif" font-size="10.00" fill="#000000">::Spline2D&lt; DataT, YdimT &gt;</text>
<polyline fill="none" stroke="#000000" points="0,-198.5 155,-198.5 "/>
<text text-anchor="middle" x="77.5" y="-186.5" font-family="Helvetica,sans-Serif" font-size="10.00" fill="#000000"> </text>
<polyline fill="none" stroke="#000000" points="0,-179.5 155,-179.5 "/>
<text text-anchor="start" x="8" y="-167.5" font-family="Helvetica,sans-Serif" font-size="10.00" fill="#000000">+ operator=()</text>
<text text-anchor="start" x="8" y="-156.5" font-family="Helvetica,sans-Serif" font-size="10.00" fill="#000000">+ ClassDefNV()</text>
<text text-anchor="start" x="8" y="-145.5" font-family="Helvetica,sans-Serif" font-size="10.00" fill="#000000">+ readFromFile()</text>
</g>
<!-- Node3 -->
<g id="node4" class="node">
<title>Node3</title>
<g id="a_node4"><a xlink:href="../../d3/dc3/classGPUCA__NAMESPACE_1_1gpu_1_1Spline2D.html" target="_top" xlink:title="{GPUCA_NAMESPACE::gpu\l::Spline2D\&lt; float, 1 \&gt;\n||+ operator=()\l+ ClassDefNV()\l+ readFromFile()\l}">
<polygon fill="none" stroke="#000000" points="7.5,-.5 7.5,-90.5 147.5,-90.5 147.5,-.5 7.5,-.5"/>
<text text-anchor="start" x="15.5" y="-78.5" font-family="Helvetica,sans-Serif" font-size="10.00" fill="#000000">GPUCA_NAMESPACE::gpu</text>
<text text-anchor="middle" x="77.5" y="-67.5" font-family="Helvetica,sans-Serif" font-size="10.00" fill="#000000">::Spline2D&lt; float, 1 &gt;</text>
<polyline fill="none" stroke="#000000" points="7.5,-60.5 147.5,-60.5 "/>
<text text-anchor="middle" x="77.5" y="-48.5" font-family="Helvetica,sans-Serif" font-size="10.00" fill="#000000"> </text>
<polyline fill="none" stroke="#000000" points="7.5,-41.5 147.5,-41.5 "/>
<text text-anchor="start" x="15.5" y="-29.5" font-family="Helvetica,sans-Serif" font-size="10.00" fill="#000000">+ operator=()</text>
<text text-anchor="start" x="15.5" y="-18.5" font-family="Helvetica,sans-Serif" font-size="10.00" fill="#000000">+ ClassDefNV()</text>
<text text-anchor="start" x="15.5" y="-7.5" font-family="Helvetica,sans-Serif" font-size="10.00" fill="#000000">+ readFromFile()</text>
</a>
</g>
</g>
<!-- Node0&#45;&gt;Node3 -->
<g id="edge3" class="edge">
<title>Node0&#45;&gt;Node3</title>
<path fill="none" stroke="#ffa500" d="M77.5,-128.089C77.5,-115.7026 77.5,-102.7078 77.5,-90.7879"/>
<polygon fill="#ffa500" stroke="#ffa500" points="74.0001,-128.3136 77.5,-138.3136 81.0001,-128.3137 74.0001,-128.3136"/>
<text text-anchor="middle" x="107.5" y="-112" font-family="Helvetica,sans-Serif" font-size="10.00" fill="#000000"> &lt; float, 1 &gt;</text>
</g>
<!-- Node1 -->
<g id="node2" class="node">
<title>Node1</title>
<g id="a_node2"><a xlink:href="../../d1/d03/classGPUCA__NAMESPACE_1_1gpu_1_1Spline2DSpec.html" target="_top" xlink:title="{GPUCA_NAMESPACE::gpu\l::Spline2DSpec\&lt; DataT,\l YdimT, SplineUtil::getSpec\l(YdimT)\&gt;\n||}">
<polygon fill="none" stroke="#000000" points="3,-266.5 3,-356.5 152,-356.5 152,-266.5 3,-266.5"/>
<text text-anchor="start" x="11" y="-344.5" font-family="Helvetica,sans-Serif" font-size="10.00" fill="#000000">GPUCA_NAMESPACE::gpu</text>
<text text-anchor="start" x="11" y="-333.5" font-family="Helvetica,sans-Serif" font-size="10.00" fill="#000000">::Spline2DSpec&lt; DataT,</text>
<text text-anchor="start" x="11" y="-322.5" font-family="Helvetica,sans-Serif" font-size="10.00" fill="#000000"> YdimT, SplineUtil::getSpec</text>
<text text-anchor="middle" x="77.5" y="-311.5" font-family="Helvetica,sans-Serif" font-size="10.00" fill="#000000">(YdimT)&gt;</text>
<polyline fill="none" stroke="#000000" points="3,-304.5 152,-304.5 "/>
<text text-anchor="middle" x="77.5" y="-292.5" font-family="Helvetica,sans-Serif" font-size="10.00" fill="#000000"> </text>
<polyline fill="none" stroke="#000000" points="3,-285.5 152,-285.5 "/>
<text text-anchor="middle" x="77.5" y="-273.5" font-family="Helvetica,sans-Serif" font-size="10.00" fill="#000000"> </text>
</a>
</g>
</g>
<!-- Node1&#45;&gt;Node0 -->
<g id="edge1" class="edge">
<title>Node1&#45;&gt;Node0</title>
<path fill="none" stroke="#191970" d="M77.5,-256.1492C77.5,-246.9671 77.5,-237.5431 77.5,-228.6519"/>
<polygon fill="none" stroke="#191970" points="74.0001,-256.372 77.5,-266.372 81.0001,-256.372 74.0001,-256.372"/>
</g>
<!-- Node2 -->
<g id="node3" class="node">
<title>Node2</title>
<g id="a_node3"><a xlink:href="../../d1/d03/classGPUCA__NAMESPACE_1_1gpu_1_1Spline2DSpec.html" target="_top" xlink:title="{GPUCA_NAMESPACE::gpu\l::Spline2DSpec\&lt; DataT,\l YdimT, SpecT \&gt;\n||}">
<polygon fill="none" stroke="#000000" points="7.5,-415.5 7.5,-494.5 147.5,-494.5 147.5,-415.5 7.5,-415.5"/>
<text text-anchor="start" x="15.5" y="-482.5" font-family="Helvetica,sans-Serif" font-size="10.00" fill="#000000">GPUCA_NAMESPACE::gpu</text>
<text text-anchor="start" x="15.5" y="-471.5" font-family="Helvetica,sans-Serif" font-size="10.00" fill="#000000">::Spline2DSpec&lt; DataT,</text>
<text text-anchor="middle" x="77.5" y="-460.5" font-family="Helvetica,sans-Serif" font-size="10.00" fill="#000000"> YdimT, SpecT &gt;</text>
<polyline fill="none" stroke="#000000" points="7.5,-453.5 147.5,-453.5 "/>
<text text-anchor="middle" x="77.5" y="-441.5" font-family="Helvetica,sans-Serif" font-size="10.00" fill="#000000"> </text>
<polyline fill="none" stroke="#000000" points="7.5,-434.5 147.5,-434.5 "/>
<text text-anchor="middle" x="77.5" y="-422.5" font-family="Helvetica,sans-Serif" font-size="10.00" fill="#000000"> </text>
</a>
</g>
</g>
<!-- Node2&#45;&gt;Node1 -->
<g id="edge2" class="edge">
<title>Node2&#45;&gt;Node1</title>
<path fill="none" stroke="#ffa500" d="M77.5,-405.2676C77.5,-389.4331 77.5,-372.0145 77.5,-356.5321"/>
<polygon fill="#ffa500" stroke="#ffa500" points="74.0001,-405.4081 77.5,-415.4081 81.0001,-405.4082 74.0001,-405.4081"/>
<text text-anchor="start" x="77.5" y="-389" font-family="Helvetica,sans-Serif" font-size="10.00" fill="#000000"> &lt; DataT, YdimT, SplineUtil</text>
<text text-anchor="middle" x="144.5" y="-378" font-family="Helvetica,sans-Serif" font-size="10.00" fill="#000000">::getSpec(YdimT)&gt;</text>
</g>
</g>
</svg>
